<?xml version="1.0" encoding="UTF-8" standalone="no"?>
<!DOCTYPE svg PUBLIC "-//W3C//DTD SVG 1.1//EN"
 "http://www.w3.org/Graphics/SVG/1.1/DTD/svg11.dtd">
<!-- Generated by graphviz version 2.50.0 (0)
 -->
<!-- Title: TConvolverRef.hpp Pages: 1 -->
<svg width="1016pt" height="408pt"
 viewBox="0.00 0.00 1015.50 408.00" xmlns="http://www.w3.org/2000/svg" xmlns:xlink="http://www.w3.org/1999/xlink">
<g id="graph0" class="graph" transform="scale(1 1) rotate(0) translate(4 404)">
<title>TConvolverRef.hpp</title>
<!-- Node1 -->
<g id="node1" class="node">
<title>Node1</title>
<g id="a_node1"><a xlink:title=" ">
<polygon fill="#bfbfbf" stroke="black" points="386.5,-380.5 386.5,-399.5 496.5,-399.5 496.5,-380.5 386.5,-380.5"/>
<text text-anchor="middle" x="441.5" y="-387.5" font-family="Helvetica,sans-Serif" font-size="10.00">TConvolverRef.hpp</text>
</a>
</g>
</g>
<!-- Node2 -->
<g id="node2" class="node">
<title>Node2</title>
<g id="a_node2"><a xlink:href="_t_assert_8h.html" target="_top" xlink:title=" ">
<polygon fill="none" stroke="black" points="0,-67.5 0,-86.5 107,-86.5 107,-67.5 0,-67.5"/>
<text text-anchor="middle" x="53.5" y="-74.5" font-family="Helvetica,sans-Serif" font-size="10.00">../../../util/TAssert.h</text>
</a>
</g>
</g>
<!-- Node1&#45;&gt;Node2 -->
<g id="edge1" class="edge">
<title>Node1&#45;&gt;Node2</title>
<path fill="none" stroke="midnightblue" d="M386.19,-383.51C274.91,-370.92 34.5,-335.29 34.5,-262.5 34.5,-262.5 34.5,-262.5 34.5,-199 34.5,-162.29 43.14,-120.06 48.77,-96.45"/>
<polygon fill="midnightblue" stroke="midnightblue" points="52.17,-97.28 51.17,-86.73 45.37,-95.6 52.17,-97.28"/>
</g>
<!-- Node4 -->
<g id="node4" class="node">
<title>Node4</title>
<g id="a_node4"><a xlink:href="_t_audio_buffer_8hpp.html" target="_top" xlink:title=" ">
<polygon fill="none" stroke="black" points="388,-319 388,-338 495,-338 495,-319 388,-319"/>
<text text-anchor="middle" x="441.5" y="-326" font-family="Helvetica,sans-Serif" font-size="10.00">../TAudioBuffer.hpp</text>
</a>
</g>
</g>
<!-- Node1&#45;&gt;Node4 -->
<g id="edge3" class="edge">
<title>Node1&#45;&gt;Node4</title>
<path fill="none" stroke="midnightblue" d="M441.5,-380.48C441.5,-372.08 441.5,-358.98 441.5,-348.16"/>
<polygon fill="midnightblue" stroke="midnightblue" points="445,-348.01 441.5,-338.01 438,-348.01 445,-348.01"/>
</g>
<!-- Node27 -->
<g id="node27" class="node">
<title>Node27</title>
<g id="a_node27"><a xlink:title=" ">
<polygon fill="none" stroke="#bfbfbf" points="513,-313.5 513,-343.5 686,-343.5 686,-313.5 513,-313.5"/>
<text text-anchor="start" x="521" y="-331.5" font-family="Helvetica,sans-Serif" font-size="10.00">../../../../external</text>
<text text-anchor="middle" x="599.5" y="-320.5" font-family="Helvetica,sans-Serif" font-size="10.00">/convolver/twoStageConvolver.h</text>
</a>
</g>
</g>
<!-- Node1&#45;&gt;Node27 -->
<g id="edge39" class="edge">
<title>Node1&#45;&gt;Node27</title>
<path fill="none" stroke="midnightblue" d="M464.14,-380.48C487.14,-371.81 523.43,-358.15 552.65,-347.14"/>
<polygon fill="midnightblue" stroke="midnightblue" points="554.14,-350.32 562.26,-343.52 551.67,-343.77 554.14,-350.32"/>
</g>
<!-- Node3 -->
<g id="node3" class="node">
<title>Node3</title>
<g id="a_node3"><a xlink:title=" ">
<polygon fill="none" stroke="#bfbfbf" points="27.5,-0.5 27.5,-19.5 79.5,-19.5 79.5,-0.5 27.5,-0.5"/>
<text text-anchor="middle" x="53.5" y="-7.5" font-family="Helvetica,sans-Serif" font-size="10.00">cassert</text>
</a>
</g>
</g>
<!-- Node2&#45;&gt;Node3 -->
<g id="edge2" class="edge">
<title>Node2&#45;&gt;Node3</title>
<path fill="none" stroke="midnightblue" d="M53.5,-67.23C53.5,-57.68 53.5,-42.12 53.5,-29.78"/>
<polygon fill="midnightblue" stroke="midnightblue" points="57,-29.63 53.5,-19.63 50,-29.63 57,-29.63"/>
</g>
<!-- Node4&#45;&gt;Node2 -->
<g id="edge38" class="edge">
<title>Node4&#45;&gt;Node2</title>
<path fill="none" stroke="midnightblue" d="M387.89,-324.28C310.25,-318.72 171.35,-305.09 130.5,-277 69.67,-235.18 56.89,-137.89 54.21,-96.83"/>
<polygon fill="midnightblue" stroke="midnightblue" points="57.7,-96.63 53.69,-86.83 50.71,-97 57.7,-96.63"/>
</g>
<!-- Node5 -->
<g id="node5" class="node">
<title>Node5</title>
<g id="a_node5"><a xlink:title=" ">
<polygon fill="none" stroke="#bfbfbf" points="649.5,-190.5 649.5,-209.5 713.5,-209.5 713.5,-190.5 649.5,-190.5"/>
<text text-anchor="middle" x="681.5" y="-197.5" font-family="Helvetica,sans-Serif" font-size="10.00">algorithm</text>
</a>
</g>
</g>
<!-- Node4&#45;&gt;Node5 -->
<g id="edge4" class="edge">
<title>Node4&#45;&gt;Node5</title>
<path fill="none" stroke="midnightblue" d="M477.88,-318.95C486.29,-316.98 495.2,-314.91 503.5,-313 574.11,-296.75 610.7,-327.66 662.5,-277 677.74,-262.1 681.44,-236.97 682.02,-219.71"/>
<polygon fill="midnightblue" stroke="midnightblue" points="685.52,-219.71 682.04,-209.7 678.52,-219.69 685.52,-219.71"/>
</g>
<!-- Node6 -->
<g id="node6" class="node">
<title>Node6</title>
<g id="a_node6"><a xlink:title=" ">
<polygon fill="none" stroke="#bfbfbf" points="963.5,-134.5 963.5,-153.5 1007.5,-153.5 1007.5,-134.5 963.5,-134.5"/>
<text text-anchor="middle" x="985.5" y="-141.5" font-family="Helvetica,sans-Serif" font-size="10.00">limits</text>
</a>
</g>
</g>
<!-- Node4&#45;&gt;Node6 -->
<g id="edge5" class="edge">
<title>Node4&#45;&gt;Node6</title>
<path fill="none" stroke="midnightblue" d="M474.82,-318.94C484.06,-316.78 494.13,-314.61 503.5,-313 645.41,-288.56 686.24,-313.65 825.5,-277 898.87,-257.69 939.24,-272.32 982.5,-210 991.75,-196.67 991.57,-177.84 989.62,-163.88"/>
<polygon fill="midnightblue" stroke="midnightblue" points="993.05,-163.14 987.83,-153.92 986.16,-164.38 993.05,-163.14"/>
</g>
<!-- Node7 -->
<g id="node7" class="node">
<title>Node7</title>
<g id="a_node7"><a xlink:title=" ">
<polygon fill="none" stroke="#bfbfbf" points="302,-252 302,-271 371,-271 371,-252 302,-252"/>
<text text-anchor="middle" x="336.5" y="-259" font-family="Helvetica,sans-Serif" font-size="10.00">type_traits</text>
</a>
</g>
</g>
<!-- Node4&#45;&gt;Node7 -->
<g id="edge6" class="edge">
<title>Node4&#45;&gt;Node7</title>
<path fill="none" stroke="midnightblue" d="M427.34,-318.73C409.79,-307.87 379.66,-289.22 358.94,-276.39"/>
<polygon fill="midnightblue" stroke="midnightblue" points="360.78,-273.41 350.44,-271.13 357.1,-279.37 360.78,-273.41"/>
</g>
<!-- Node8 -->
<g id="node8" class="node">
<title>Node8</title>
<g id="a_node8"><a xlink:href="_t_memory_8hpp.html" target="_top" xlink:title=" ">
<polygon fill="none" stroke="black" points="139.5,-252 139.5,-271 283.5,-271 283.5,-252 139.5,-252"/>
<text text-anchor="middle" x="211.5" y="-259" font-family="Helvetica,sans-Serif" font-size="10.00">../../memory/TMemory.hpp</text>
</a>
</g>
</g>
<!-- Node4&#45;&gt;Node8 -->
<g id="edge7" class="edge">
<title>Node4&#45;&gt;Node8</title>
<path fill="none" stroke="midnightblue" d="M410.96,-318.87C369.95,-307.28 297,-286.66 251.6,-273.83"/>
<polygon fill="midnightblue" stroke="midnightblue" points="252.38,-270.42 241.8,-271.06 250.47,-277.15 252.38,-270.42"/>
</g>
<!-- Node21 -->
<g id="node21" class="node">
<title>Node21</title>
<g id="a_node21"><a xlink:href="_t_math_8hpp.html" target="_top" xlink:title=" ">
<polygon fill="none" stroke="black" points="389.5,-252 389.5,-271 493.5,-271 493.5,-252 389.5,-252"/>
<text text-anchor="middle" x="441.5" y="-259" font-family="Helvetica,sans-Serif" font-size="10.00">../../util/TMath.hpp</text>
</a>
</g>
</g>
<!-- Node4&#45;&gt;Node21 -->
<g id="edge27" class="edge">
<title>Node4&#45;&gt;Node21</title>
<path fill="none" stroke="midnightblue" d="M441.5,-318.73C441.5,-309.18 441.5,-293.62 441.5,-281.28"/>
<polygon fill="midnightblue" stroke="midnightblue" points="445,-281.13 441.5,-271.13 438,-281.13 445,-281.13"/>
</g>
<!-- Node22 -->
<g id="node22" class="node">
<title>Node22</title>
<g id="a_node22"><a xlink:title=" ">
<polygon fill="none" stroke="#bfbfbf" points="511.5,-246.5 511.5,-276.5 653.5,-276.5 653.5,-246.5 511.5,-246.5"/>
<text text-anchor="start" x="519.5" y="-264.5" font-family="Helvetica,sans-Serif" font-size="10.00">../../../external/xsimd</text>
<text text-anchor="middle" x="582.5" y="-253.5" font-family="Helvetica,sans-Serif" font-size="10.00">/include/xsimd/xsimd.hpp</text>
</a>
</g>
</g>
<!-- Node4&#45;&gt;Node22 -->
<g id="edge28" class="edge">
<title>Node4&#45;&gt;Node22</title>
<path fill="none" stroke="midnightblue" d="M460.22,-318.87C481.2,-309.2 515.8,-293.25 542.85,-280.78"/>
<polygon fill="midnightblue" stroke="midnightblue" points="544.45,-283.89 552.07,-276.53 541.52,-277.54 544.45,-283.89"/>
</g>
<!-- Node23 -->
<g id="node23" class="node">
<title>Node23</title>
<g id="a_node23"><a xlink:href="_t_heap_buffer_8hpp.html" target="_top" xlink:title=" ">
<polygon fill="none" stroke="black" points="710,-252 710,-271 817,-271 817,-252 710,-252"/>
<text text-anchor="middle" x="763.5" y="-259" font-family="Helvetica,sans-Serif" font-size="10.00">../THeapBuffer.hpp</text>
</a>
</g>
</g>
<!-- Node4&#45;&gt;Node23 -->
<g id="edge29" class="edge">
<title>Node4&#45;&gt;Node23</title>
<path fill="none" stroke="midnightblue" d="M476.85,-318.95C485.55,-316.92 494.85,-314.82 503.5,-313 588.46,-295.11 610.37,-294.05 695.5,-277 701.64,-275.77 708.08,-274.44 714.44,-273.11"/>
<polygon fill="midnightblue" stroke="midnightblue" points="715.28,-276.51 724.34,-271.02 713.83,-269.66 715.28,-276.51"/>
</g>
<!-- Node9 -->
<g id="node9" class="node">
<title>Node9</title>
<g id="a_node9"><a xlink:href="_t_memory_pool_8hpp.html" target="_top" xlink:title=" ">
<polygon fill="none" stroke="black" points="264.5,-134.5 264.5,-153.5 374.5,-153.5 374.5,-134.5 264.5,-134.5"/>
<text text-anchor="middle" x="319.5" y="-141.5" font-family="Helvetica,sans-Serif" font-size="10.00">./TMemoryPool.hpp</text>
</a>
</g>
</g>
<!-- Node8&#45;&gt;Node9 -->
<g id="edge8" class="edge">
<title>Node8&#45;&gt;Node9</title>
<path fill="none" stroke="midnightblue" d="M251.58,-251.93C301.96,-240.76 382.92,-221.32 391.5,-210 407.27,-189.2 377.56,-169.77 351.66,-157.66"/>
<polygon fill="midnightblue" stroke="midnightblue" points="352.94,-154.4 342.38,-153.55 350.1,-160.8 352.94,-154.4"/>
</g>
<!-- Node19 -->
<g id="node19" class="node">
<title>Node19</title>
<g id="a_node19"><a xlink:href="_t_memory_pool_std_8hpp.html" target="_top" xlink:title=" ">
<polygon fill="none" stroke="black" points="256.5,-190.5 256.5,-209.5 382.5,-209.5 382.5,-190.5 256.5,-190.5"/>
<text text-anchor="middle" x="319.5" y="-197.5" font-family="Helvetica,sans-Serif" font-size="10.00">./TMemoryPoolStd.hpp</text>
</a>
</g>
</g>
<!-- Node8&#45;&gt;Node19 -->
<g id="edge20" class="edge">
<title>Node8&#45;&gt;Node19</title>
<path fill="none" stroke="midnightblue" d="M226.97,-251.98C244.78,-242.17 274.24,-225.93 295.13,-214.42"/>
<polygon fill="midnightblue" stroke="midnightblue" points="296.99,-217.4 304.05,-209.51 293.61,-211.27 296.99,-217.4"/>
</g>
<!-- Node20 -->
<g id="node20" class="node">
<title>Node20</title>
<g id="a_node20"><a xlink:href="_t_memory_pool_stack_8hpp.html" target="_top" xlink:title=" ">
<polygon fill="none" stroke="black" points="101,-190.5 101,-209.5 238,-209.5 238,-190.5 101,-190.5"/>
<text text-anchor="middle" x="169.5" y="-197.5" font-family="Helvetica,sans-Serif" font-size="10.00">./TMemoryPoolStack.hpp</text>
</a>
</g>
</g>
<!-- Node8&#45;&gt;Node20 -->
<g id="edge24" class="edge">
<title>Node8&#45;&gt;Node20</title>
<path fill="none" stroke="midnightblue" d="M205.48,-251.98C199.24,-243.14 189.33,-229.09 181.48,-217.98"/>
<polygon fill="midnightblue" stroke="midnightblue" points="184.13,-215.66 175.51,-209.51 178.41,-219.7 184.13,-215.66"/>
</g>
<!-- Node9&#45;&gt;Node2 -->
<g id="edge15" class="edge">
<title>Node9&#45;&gt;Node2</title>
<path fill="none" stroke="midnightblue" d="M275.67,-134.46C234.37,-126.14 170.88,-112.63 116.5,-98 107.3,-95.53 97.45,-92.55 88.33,-89.67"/>
<polygon fill="midnightblue" stroke="midnightblue" points="89.38,-86.33 78.79,-86.6 87.24,-92.99 89.38,-86.33"/>
</g>
<!-- Node10 -->
<g id="node10" class="node">
<title>Node10</title>
<g id="a_node10"><a xlink:title=" ">
<polygon fill="none" stroke="#bfbfbf" points="571,-67.5 571,-86.5 616,-86.5 616,-67.5 571,-67.5"/>
<text text-anchor="middle" x="593.5" y="-74.5" font-family="Helvetica,sans-Serif" font-size="10.00">utility</text>
</a>
</g>
</g>
<!-- Node9&#45;&gt;Node10 -->
<g id="edge9" class="edge">
<title>Node9&#45;&gt;Node10</title>
<path fill="none" stroke="midnightblue" d="M374.93,-138.63C425.06,-133.31 500.17,-121.87 561.5,-98 565.62,-96.4 569.79,-94.25 573.7,-91.95"/>
<polygon fill="midnightblue" stroke="midnightblue" points="575.66,-94.85 582.2,-86.52 571.89,-88.96 575.66,-94.85"/>
</g>
<!-- Node11 -->
<g id="node11" class="node">
<title>Node11</title>
<g id="a_node11"><a xlink:title=" ">
<polygon fill="none" stroke="#bfbfbf" points="125.5,-67.5 125.5,-86.5 175.5,-86.5 175.5,-67.5 125.5,-67.5"/>
<text text-anchor="middle" x="150.5" y="-74.5" font-family="Helvetica,sans-Serif" font-size="10.00">cstdint</text>
</a>
</g>
</g>
<!-- Node9&#45;&gt;Node11 -->
<g id="edge10" class="edge">
<title>Node9&#45;&gt;Node11</title>
<path fill="none" stroke="midnightblue" d="M287.69,-134.45C259.87,-126.49 218.68,-113.54 184.5,-98 180.5,-96.18 176.37,-94.02 172.43,-91.8"/>
<polygon fill="midnightblue" stroke="midnightblue" points="174.11,-88.73 163.72,-86.65 170.55,-94.75 174.11,-88.73"/>
</g>
<!-- Node12 -->
<g id="node12" class="node">
<title>Node12</title>
<g id="a_node12"><a xlink:title=" ">
<polygon fill="none" stroke="#bfbfbf" points="194,-67.5 194,-86.5 231,-86.5 231,-67.5 194,-67.5"/>
<text text-anchor="middle" x="212.5" y="-74.5" font-family="Helvetica,sans-Serif" font-size="10.00">new</text>
</a>
</g>
</g>
<!-- Node9&#45;&gt;Node12 -->
<g id="edge11" class="edge">
<title>Node9&#45;&gt;Node12</title>
<path fill="none" stroke="midnightblue" d="M305.07,-134.23C287.18,-123.37 256.48,-104.72 235.37,-91.89"/>
<polygon fill="midnightblue" stroke="midnightblue" points="237.07,-88.83 226.7,-86.63 233.43,-94.81 237.07,-88.83"/>
</g>
<!-- Node13 -->
<g id="node13" class="node">
<title>Node13</title>
<g id="a_node13"><a xlink:href="_t_memory_util_8hpp.html" target="_top" xlink:title=" ">
<polygon fill="none" stroke="black" points="634,-67.5 634,-86.5 741,-86.5 741,-67.5 634,-67.5"/>
<text text-anchor="middle" x="687.5" y="-74.5" font-family="Helvetica,sans-Serif" font-size="10.00">./TMemoryUtil.hpp</text>
</a>
</g>
</g>
<!-- Node9&#45;&gt;Node13 -->
<g id="edge12" class="edge">
<title>Node9&#45;&gt;Node13</title>
<path fill="none" stroke="midnightblue" d="M374.54,-137.58C436,-130.9 538.19,-117.93 624.5,-98 634.29,-95.74 644.76,-92.68 654.29,-89.64"/>
<polygon fill="midnightblue" stroke="midnightblue" points="655.41,-92.96 663.82,-86.51 653.23,-86.31 655.41,-92.96"/>
</g>
<!-- Node16 -->
<g id="node16" class="node">
<title>Node16</title>
<g id="a_node16"><a xlink:href="_t_spin_lock_8hpp.html" target="_top" xlink:title=" ">
<polygon fill="none" stroke="black" points="287.5,-67.5 287.5,-86.5 413.5,-86.5 413.5,-67.5 287.5,-67.5"/>
<text text-anchor="middle" x="350.5" y="-74.5" font-family="Helvetica,sans-Serif" font-size="10.00">../types/TSpinLock.hpp</text>
</a>
</g>
</g>
<!-- Node9&#45;&gt;Node16 -->
<g id="edge16" class="edge">
<title>Node9&#45;&gt;Node16</title>
<path fill="none" stroke="midnightblue" d="M323.68,-134.23C328.38,-124.39 336.12,-108.16 342.08,-95.66"/>
<polygon fill="midnightblue" stroke="midnightblue" points="345.24,-97.16 346.39,-86.63 338.92,-94.15 345.24,-97.16"/>
</g>
<!-- Node17 -->
<g id="node17" class="node">
<title>Node17</title>
<g id="a_node17"><a xlink:href="_t_lock_guard_8hpp.html" target="_top" xlink:title=" ">
<polygon fill="none" stroke="black" points="254,-0.5 254,-19.5 355,-19.5 355,-0.5 254,-0.5"/>
<text text-anchor="middle" x="304.5" y="-7.5" font-family="Helvetica,sans-Serif" font-size="10.00">./TLockGuard.hpp</text>
</a>
</g>
</g>
<!-- Node9&#45;&gt;Node17 -->
<g id="edge18" class="edge">
<title>Node9&#45;&gt;Node17</title>
<path fill="none" stroke="midnightblue" d="M307.96,-134.49C298.02,-126.38 284.38,-113.18 278.5,-98 271.76,-80.59 273.67,-74.03 278.5,-56 281.15,-46.1 286.57,-36.13 291.77,-28.1"/>
<polygon fill="midnightblue" stroke="midnightblue" points="294.79,-29.89 297.61,-19.68 289.04,-25.91 294.79,-29.89"/>
</g>
<!-- Node18 -->
<g id="node18" class="node">
<title>Node18</title>
<g id="a_node18"><a xlink:title=" ">
<polygon fill="none" stroke="#bfbfbf" points="432,-56.5 432,-97.5 553,-97.5 553,-56.5 432,-56.5"/>
<text text-anchor="start" x="440" y="-85.5" font-family="Helvetica,sans-Serif" font-size="10.00">../../external/xsimd</text>
<text text-anchor="start" x="440" y="-74.5" font-family="Helvetica,sans-Serif" font-size="10.00">/include/xsimd/config</text>
<text text-anchor="middle" x="492.5" y="-63.5" font-family="Helvetica,sans-Serif" font-size="10.00">/xsimd_arch.hpp</text>
</a>
</g>
</g>
<!-- Node9&#45;&gt;Node18 -->
<g id="edge19" class="edge">
<title>Node9&#45;&gt;Node18</title>
<path fill="none" stroke="midnightblue" d="M342.47,-134.37C364.87,-125.95 399.92,-112.79 430.51,-101.29"/>
<polygon fill="midnightblue" stroke="midnightblue" points="432.14,-104.42 440.27,-97.63 429.67,-97.87 432.14,-104.42"/>
</g>
<!-- Node14 -->
<g id="node14" class="node">
<title>Node14</title>
<g id="a_node14"><a xlink:title=" ">
<polygon fill="none" stroke="#bfbfbf" points="668.5,-0.5 668.5,-19.5 718.5,-19.5 718.5,-0.5 668.5,-0.5"/>
<text text-anchor="middle" x="693.5" y="-7.5" font-family="Helvetica,sans-Serif" font-size="10.00">cstring</text>
</a>
</g>
</g>
<!-- Node13&#45;&gt;Node14 -->
<g id="edge13" class="edge">
<title>Node13&#45;&gt;Node14</title>
<path fill="none" stroke="midnightblue" d="M688.31,-67.23C689.19,-57.68 690.63,-42.12 691.77,-29.78"/>
<polygon fill="midnightblue" stroke="midnightblue" points="695.27,-29.91 692.7,-19.63 688.3,-29.26 695.27,-29.91"/>
</g>
<!-- Node15 -->
<g id="node15" class="node">
<title>Node15</title>
<g id="a_node15"><a xlink:title=" ">
<polygon fill="none" stroke="#bfbfbf" points="743,-0.5 743,-19.5 796,-19.5 796,-0.5 743,-0.5"/>
<text text-anchor="middle" x="769.5" y="-7.5" font-family="Helvetica,sans-Serif" font-size="10.00">stdlib.h</text>
</a>
</g>
</g>
<!-- Node13&#45;&gt;Node15 -->
<g id="edge14" class="edge">
<title>Node13&#45;&gt;Node15</title>
<path fill="none" stroke="midnightblue" d="M698.56,-67.23C711.84,-56.71 734.33,-38.88 750.43,-26.12"/>
<polygon fill="midnightblue" stroke="midnightblue" points="752.95,-28.58 758.62,-19.63 748.61,-23.1 752.95,-28.58"/>
</g>
<!-- Node16&#45;&gt;Node17 -->
<g id="edge17" class="edge">
<title>Node16&#45;&gt;Node17</title>
<path fill="none" stroke="midnightblue" d="M344.3,-67.23C337.19,-57.2 325.39,-40.51 316.48,-27.92"/>
<polygon fill="midnightblue" stroke="midnightblue" points="319.24,-25.77 310.61,-19.63 313.53,-29.81 319.24,-25.77"/>
</g>
<!-- Node19&#45;&gt;Node2 -->
<g id="edge23" class="edge">
<title>Node19&#45;&gt;Node2</title>
<path fill="none" stroke="midnightblue" d="M299.3,-190.35C278.49,-181.39 245.13,-166.93 216.5,-154 168.53,-132.34 113.06,-106.26 80.77,-90.96"/>
<polygon fill="midnightblue" stroke="midnightblue" points="82.06,-87.7 71.52,-86.58 79.06,-94.03 82.06,-87.7"/>
</g>
<!-- Node19&#45;&gt;Node9 -->
<g id="edge22" class="edge">
<title>Node19&#45;&gt;Node9</title>
<path fill="none" stroke="midnightblue" d="M319.5,-190.08C319.5,-183.01 319.5,-172.86 319.5,-163.99"/>
<polygon fill="midnightblue" stroke="midnightblue" points="323,-163.75 319.5,-153.75 316,-163.75 323,-163.75"/>
</g>
<!-- Node19&#45;&gt;Node15 -->
<g id="edge21" class="edge">
<title>Node19&#45;&gt;Node15</title>
<path fill="none" stroke="midnightblue" d="M382.79,-192.32C489.48,-179.77 698.52,-149.23 749.5,-98 767.41,-80 770.59,-49.41 770.55,-29.71"/>
<polygon fill="midnightblue" stroke="midnightblue" points="774.05,-29.44 770.25,-19.55 767.05,-29.65 774.05,-29.44"/>
</g>
<!-- Node20&#45;&gt;Node2 -->
<g id="edge26" class="edge">
<title>Node20&#45;&gt;Node2</title>
<path fill="none" stroke="midnightblue" d="M161.16,-190.3C141.84,-170.15 93.82,-120.06 68.96,-94.12"/>
<polygon fill="midnightblue" stroke="midnightblue" points="71.21,-91.42 61.77,-86.62 66.16,-96.26 71.21,-91.42"/>
</g>
<!-- Node20&#45;&gt;Node9 -->
<g id="edge25" class="edge">
<title>Node20&#45;&gt;Node9</title>
<path fill="none" stroke="midnightblue" d="M193.27,-190.44C218.39,-181.4 258.21,-167.06 286.4,-156.92"/>
<polygon fill="midnightblue" stroke="midnightblue" points="287.62,-160.2 295.84,-153.52 285.25,-153.61 287.62,-160.2"/>
</g>
<!-- Node23&#45;&gt;Node5 -->
<g id="edge30" class="edge">
<title>Node23&#45;&gt;Node5</title>
<path fill="none" stroke="midnightblue" d="M751.75,-251.98C738.72,-242.52 717.46,-227.1 701.74,-215.69"/>
<polygon fill="midnightblue" stroke="midnightblue" points="703.38,-212.55 693.23,-209.51 699.27,-218.21 703.38,-212.55"/>
</g>
<!-- Node23&#45;&gt;Node14 -->
<g id="edge32" class="edge">
<title>Node23&#45;&gt;Node14</title>
<path fill="none" stroke="midnightblue" d="M769.45,-251.67C775.61,-241.95 784.84,-225.62 788.5,-210 790.53,-201.34 789.75,-198.8 788.5,-190 779.75,-128.59 783.93,-107.59 749.5,-56 741.25,-43.64 728.55,-33.04 717.33,-25.23"/>
<polygon fill="midnightblue" stroke="midnightblue" points="719.04,-22.17 708.76,-19.6 715.19,-28.02 719.04,-22.17"/>
</g>
<!-- Node24 -->
<g id="node24" class="node">
<title>Node24</title>
<g id="a_node24"><a xlink:title=" ">
<polygon fill="none" stroke="#bfbfbf" points="732,-190.5 732,-209.5 779,-209.5 779,-190.5 732,-190.5"/>
<text text-anchor="middle" x="755.5" y="-197.5" font-family="Helvetica,sans-Serif" font-size="10.00">cmath</text>
</a>
</g>
</g>
<!-- Node23&#45;&gt;Node24 -->
<g id="edge31" class="edge">
<title>Node23&#45;&gt;Node24</title>
<path fill="none" stroke="midnightblue" d="M762.35,-251.98C761.23,-243.58 759.46,-230.48 758.01,-219.66"/>
<polygon fill="midnightblue" stroke="midnightblue" points="761.45,-218.95 756.64,-209.51 754.51,-219.89 761.45,-218.95"/>
</g>
<!-- Node25 -->
<g id="node25" class="node">
<title>Node25</title>
<g id="a_node25"><a xlink:href="_t_allocator_8hpp.html" target="_top" xlink:title=" ">
<polygon fill="none" stroke="black" points="836,-190.5 836,-209.5 973,-209.5 973,-190.5 836,-190.5"/>
<text text-anchor="middle" x="904.5" y="-197.5" font-family="Helvetica,sans-Serif" font-size="10.00">../memory/TAllocator.hpp</text>
</a>
</g>
</g>
<!-- Node23&#45;&gt;Node25 -->
<g id="edge33" class="edge">
<title>Node23&#45;&gt;Node25</title>
<path fill="none" stroke="midnightblue" d="M783.7,-251.98C807.57,-241.9 847.5,-225.05 874.87,-213.5"/>
<polygon fill="midnightblue" stroke="midnightblue" points="876.48,-216.62 884.34,-209.51 873.76,-210.17 876.48,-216.62"/>
</g>
<!-- Node25&#45;&gt;Node2 -->
<g id="edge34" class="edge">
<title>Node25&#45;&gt;Node2</title>
<path fill="none" stroke="midnightblue" d="M835.81,-193.56C820.26,-192.36 803.81,-191.11 788.5,-190 551.69,-172.82 485.96,-211.09 255.5,-154 234.26,-148.74 230.82,-142.13 210.5,-134 169.28,-117.52 121.09,-100.68 89.08,-89.83"/>
<polygon fill="midnightblue" stroke="midnightblue" points="89.88,-86.41 79.28,-86.53 87.64,-93.04 89.88,-86.41"/>
</g>
<!-- Node25&#45;&gt;Node6 -->
<g id="edge36" class="edge">
<title>Node25&#45;&gt;Node6</title>
<path fill="none" stroke="midnightblue" d="M917.51,-190.32C930.03,-181.98 949.18,-169.21 963.97,-159.35"/>
<polygon fill="midnightblue" stroke="midnightblue" points="966.14,-162.11 972.52,-153.65 962.26,-156.29 966.14,-162.11"/>
</g>
<!-- Node25&#45;&gt;Node15 -->
<g id="edge37" class="edge">
<title>Node25&#45;&gt;Node15</title>
<path fill="none" stroke="midnightblue" d="M905.88,-190.11C907.48,-177.14 908.92,-152.53 900.5,-134 877.82,-84.11 824.59,-44.77 793.41,-25"/>
<polygon fill="midnightblue" stroke="midnightblue" points="795.22,-22 784.87,-19.72 791.54,-27.96 795.22,-22"/>
</g>
<!-- Node26 -->
<g id="node26" class="node">
<title>Node26</title>
<g id="a_node26"><a xlink:title=" ">
<polygon fill="none" stroke="#bfbfbf" points="835.5,-134.5 835.5,-153.5 891.5,-153.5 891.5,-134.5 835.5,-134.5"/>
<text text-anchor="middle" x="863.5" y="-141.5" font-family="Helvetica,sans-Serif" font-size="10.00">stddef.h</text>
</a>
</g>
</g>
<!-- Node25&#45;&gt;Node26 -->
<g id="edge35" class="edge">
<title>Node25&#45;&gt;Node26</title>
<path fill="none" stroke="midnightblue" d="M897.73,-190.08C891.94,-182.46 883.44,-171.26 876.36,-161.94"/>
<polygon fill="midnightblue" stroke="midnightblue" points="878.98,-159.6 870.14,-153.75 873.4,-163.83 878.98,-159.6"/>
</g>
</g>
</svg>
