<?xml version="1.0" encoding="UTF-8" standalone="no"?>
<!DOCTYPE svg PUBLIC "-//W3C//DTD SVG 1.1//EN"
 "http://www.w3.org/Graphics/SVG/1.1/DTD/svg11.dtd">
<!-- Generated by graphviz version 2.50.0 (0)
 -->
<!-- Title: TConvolverBrute.hpp Pages: 1 -->
<!--zoomable 397 -->
<svg id="main" version="1.1" xmlns="http://www.w3.org/2000/svg" xmlns:xlink="http://www.w3.org/1999/xlink" xml:space="preserve" onload="init(evt)">
<style type="text/css"><![CDATA[
.edge:hover path { stroke: red; }
.edge:hover polygon { stroke: red; fill: red; }
]]></style>
<script type="text/javascript"><![CDATA[
var edges = document.getElementsByTagName('g');
if (edges && edges.length) {
  for (var i=0;i<edges.length;i++) {
    if (edges[i].id.substr(0,4)=='edge') {
      edges[i].setAttribute('class','edge');
    }
  }
}
]]></script>
        <defs>
                <circle id="rim" cx="0" cy="0" r="7"/>
                <circle id="rim2" cx="0" cy="0" r="3.5"/>
                <g id="zoomPlus">
                        <use xlink:href="#rim" fill="#404040">
                                <set attributeName="fill" to="#808080" begin="zoomplus.mouseover" end="zoomplus.mouseout"/>
                        </use>
                        <path d="M-4,0h8M0,-4v8" fill="none" stroke="white" stroke-width="1.5" pointer-events="none"/>
                </g>
                <g id="zoomMin">
                        <use xlink:href="#rim" fill="#404040">
                                <set attributeName="fill" to="#808080" begin="zoomminus.mouseover" end="zoomminus.mouseout"/>
                        </use>
                        <path d="M-4,0h8" fill="none" stroke="white" stroke-width="1.5" pointer-events="none"/>
                </g>
                <g id="dirArrow">
                        <path fill="none" stroke="white" stroke-width="1.5" d="M0,-3.0v7 M-2.5,-0.5L0,-3.0L2.5,-0.5"/>
                </g>
               <g id="resetDef">
                       <use xlink:href="#rim2" fill="#404040">
                               <set attributeName="fill" to="#808080" begin="reset.mouseover" end="reset.mouseout"/>
                       </use>
               </g>
        </defs>

<script type="text/javascript">
var viewWidth = 1087;
var viewHeight = 397;
var sectionId = 'dynsection-0';
</script>
<script xlink:href="svgpan.js"/>
<svg id="graph" class="graph">
<g id="viewport">
<title>TConvolverBrute.hpp</title>
<!-- Node1 -->
<g id="node1" class="node">
<title>Node1</title>
<g id="a_node1"><a xlink:title=" ">
<polygon fill="#bfbfbf" stroke="black" points="202.59,-369.5 202.59,-388.5 321.59,-388.5 321.59,-369.5 202.59,-369.5"/>
<text text-anchor="middle" x="262.09" y="-376.5" font-family="Helvetica,sans-Serif" font-size="10.00">TConvolverBrute.hpp</text>
</a>
</g>
</g>
<!-- Node2 -->
<g id="node2" class="node">
<title>Node2</title>
<g id="a_node2"><a xlink:title=" ">
<polygon fill="none" stroke="#bfbfbf" points="22.59,-190.5 22.59,-209.5 69.59,-209.5 69.59,-190.5 22.59,-190.5"/>
<text text-anchor="middle" x="46.09" y="-197.5" font-family="Helvetica,sans-Serif" font-size="10.00">cmath</text>
</a>
</g>
</g>
<!-- Node1&#45;&gt;Node2 -->
<g id="edge1" class="edge">
<title>Node1&#45;&gt;Node2</title>
<path fill="none" stroke="midnightblue" d="M250.42,-369.32C227.43,-352.14 174.78,-312.38 132.09,-277 107.57,-256.67 80.15,-232.1 63,-216.51"/>
<polygon fill="midnightblue" stroke="midnightblue" points="65.21,-213.79 55.47,-209.63 60.49,-218.96 65.21,-213.79"/>
</g>
<!-- Node3 -->
<g id="node3" class="node">
<title>Node3</title>
<g id="a_node3"><a xlink:href="_t_assert_8h.html" target="_top" xlink:title=" ">
<polygon fill="none" stroke="black" points="314.59,-67.5 314.59,-86.5 421.59,-86.5 421.59,-67.5 314.59,-67.5"/>
<text text-anchor="middle" x="368.09" y="-74.5" font-family="Helvetica,sans-Serif" font-size="10.00">../../../util/TAssert.h</text>
</a>
</g>
</g>
<!-- Node1&#45;&gt;Node3 -->
<g id="edge2" class="edge">
<title>Node1&#45;&gt;Node3</title>
<path fill="none" stroke="midnightblue" d="M229.23,-369.47C147.8,-346.73 -52.15,-280.19 13.09,-190 47.83,-141.99 214.95,-105.29 306.98,-88.34"/>
<polygon fill="midnightblue" stroke="midnightblue" points="307.79,-91.75 317,-86.51 306.54,-84.86 307.79,-91.75"/>
</g>
<!-- Node5 -->
<g id="node5" class="node">
<title>Node5</title>
<g id="a_node5"><a xlink:href="_t_math_8hpp.html" target="_top" xlink:title=" ">
<polygon fill="none" stroke="black" points="850.59,-252 850.59,-271 963.59,-271 963.59,-252 850.59,-252"/>
<text text-anchor="middle" x="907.09" y="-259" font-family="Helvetica,sans-Serif" font-size="10.00">../../../util/TMath.hpp</text>
</a>
</g>
</g>
<!-- Node1&#45;&gt;Node5 -->
<g id="edge4" class="edge">
<title>Node1&#45;&gt;Node5</title>
<path fill="none" stroke="midnightblue" d="M315.72,-369.45C418.1,-352.94 648.37,-314.96 841.09,-277 846.99,-275.84 853.18,-274.56 859.29,-273.26"/>
<polygon fill="midnightblue" stroke="midnightblue" points="860.42,-276.6 869.46,-271.07 858.95,-269.75 860.42,-276.6"/>
</g>
<!-- Node6 -->
<g id="node6" class="node">
<title>Node6</title>
<g id="a_node6"><a xlink:href="_t_audio_buffer_8hpp.html" target="_top" xlink:title=" ">
<polygon fill="none" stroke="black" points="355.59,-313.5 355.59,-332.5 468.59,-332.5 468.59,-313.5 355.59,-313.5"/>
<text text-anchor="middle" x="412.09" y="-320.5" font-family="Helvetica,sans-Serif" font-size="10.00">./../TAudioBuffer.hpp</text>
</a>
</g>
</g>
<!-- Node1&#45;&gt;Node6 -->
<g id="edge5" class="edge">
<title>Node1&#45;&gt;Node6</title>
<path fill="none" stroke="midnightblue" d="M285.86,-369.44C310.99,-360.4 350.8,-346.06 378.99,-335.92"/>
<polygon fill="midnightblue" stroke="midnightblue" points="380.21,-339.2 388.44,-332.52 377.84,-332.61 380.21,-339.2"/>
</g>
<!-- Node4 -->
<g id="node4" class="node">
<title>Node4</title>
<g id="a_node4"><a xlink:title=" ">
<polygon fill="none" stroke="#bfbfbf" points="342.09,-0.5 342.09,-19.5 394.09,-19.5 394.09,-0.5 342.09,-0.5"/>
<text text-anchor="middle" x="368.09" y="-7.5" font-family="Helvetica,sans-Serif" font-size="10.00">cassert</text>
</a>
</g>
</g>
<!-- Node3&#45;&gt;Node4 -->
<g id="edge3" class="edge">
<title>Node3&#45;&gt;Node4</title>
<path fill="none" stroke="midnightblue" d="M368.09,-67.23C368.09,-57.68 368.09,-42.12 368.09,-29.78"/>
<polygon fill="midnightblue" stroke="midnightblue" points="371.59,-29.63 368.09,-19.63 364.59,-29.63 371.59,-29.63"/>
</g>
<!-- Node6&#45;&gt;Node3 -->
<g id="edge40" class="edge">
<title>Node6&#45;&gt;Node3</title>
<path fill="none" stroke="midnightblue" d="M410.76,-313.36C406.59,-286.62 393.34,-202.93 380.09,-134 377.7,-121.54 374.71,-107.58 372.31,-96.71"/>
<polygon fill="midnightblue" stroke="midnightblue" points="375.67,-95.7 370.08,-86.71 368.84,-97.23 375.67,-95.7"/>
</g>
<!-- Node6&#45;&gt;Node5 -->
<g id="edge29" class="edge">
<title>Node6&#45;&gt;Node5</title>
<path fill="none" stroke="midnightblue" d="M468.92,-318.07C551.31,-311.92 708.58,-298.44 841.09,-277 847.79,-275.92 854.82,-274.58 861.7,-273.17"/>
<polygon fill="midnightblue" stroke="midnightblue" points="862.56,-276.57 871.61,-271.06 861.1,-269.72 862.56,-276.57"/>
</g>
<!-- Node7 -->
<g id="node7" class="node">
<title>Node7</title>
<g id="a_node7"><a xlink:title=" ">
<polygon fill="none" stroke="#bfbfbf" points="282.09,-190.5 282.09,-209.5 346.09,-209.5 346.09,-190.5 282.09,-190.5"/>
<text text-anchor="middle" x="314.09" y="-197.5" font-family="Helvetica,sans-Serif" font-size="10.00">algorithm</text>
</a>
</g>
</g>
<!-- Node6&#45;&gt;Node7 -->
<g id="edge6" class="edge">
<title>Node6&#45;&gt;Node7</title>
<path fill="none" stroke="midnightblue" d="M399.99,-313.28C388.79,-304.83 372.1,-291.23 360.09,-277 344.76,-258.82 331.2,-234.96 322.85,-218.87"/>
<polygon fill="midnightblue" stroke="midnightblue" points="325.78,-216.9 318.15,-209.55 319.53,-220.05 325.78,-216.9"/>
</g>
<!-- Node8 -->
<g id="node8" class="node">
<title>Node8</title>
<g id="a_node8"><a xlink:title=" ">
<polygon fill="none" stroke="#bfbfbf" points="327.09,-134.5 327.09,-153.5 371.09,-153.5 371.09,-134.5 327.09,-134.5"/>
<text text-anchor="middle" x="349.09" y="-141.5" font-family="Helvetica,sans-Serif" font-size="10.00">limits</text>
</a>
</g>
</g>
<!-- Node6&#45;&gt;Node8 -->
<g id="edge7" class="edge">
<title>Node6&#45;&gt;Node8</title>
<path fill="none" stroke="midnightblue" d="M409.06,-313.46C399.39,-286.31 369.21,-201.51 355.72,-163.62"/>
<polygon fill="midnightblue" stroke="midnightblue" points="358.9,-162.12 352.25,-153.87 352.31,-164.46 358.9,-162.12"/>
</g>
<!-- Node9 -->
<g id="node9" class="node">
<title>Node9</title>
<g id="a_node9"><a xlink:title=" ">
<polygon fill="none" stroke="#bfbfbf" points="440.59,-252 440.59,-271 509.59,-271 509.59,-252 440.59,-252"/>
<text text-anchor="middle" x="475.09" y="-259" font-family="Helvetica,sans-Serif" font-size="10.00">type_traits</text>
</a>
</g>
</g>
<!-- Node6&#45;&gt;Node9 -->
<g id="edge8" class="edge">
<title>Node6&#45;&gt;Node9</title>
<path fill="none" stroke="midnightblue" d="M421.12,-313.48C430.85,-304.28 446.55,-289.46 458.52,-278.16"/>
<polygon fill="midnightblue" stroke="midnightblue" points="461.22,-280.42 466.08,-271.01 456.41,-275.33 461.22,-280.42"/>
</g>
<!-- Node10 -->
<g id="node10" class="node">
<title>Node10</title>
<g id="a_node10"><a xlink:href="_t_memory_8hpp.html" target="_top" xlink:title=" ">
<polygon fill="none" stroke="black" points="688.09,-252 688.09,-271 832.09,-271 832.09,-252 688.09,-252"/>
<text text-anchor="middle" x="760.09" y="-259" font-family="Helvetica,sans-Serif" font-size="10.00">../../memory/TMemory.hpp</text>
</a>
</g>
</g>
<!-- Node6&#45;&gt;Node10 -->
<g id="edge9" class="edge">
<title>Node6&#45;&gt;Node10</title>
<path fill="none" stroke="midnightblue" d="M463.56,-313.49C517.34,-304.55 604.18,-290.02 679.09,-277 686.81,-275.66 694.94,-274.23 702.95,-272.8"/>
<polygon fill="midnightblue" stroke="midnightblue" points="703.76,-276.21 712.99,-271.02 702.53,-269.32 703.76,-276.21"/>
</g>
<!-- Node23 -->
<g id="node23" class="node">
<title>Node23</title>
<g id="a_node23"><a xlink:title=" ">
<polygon fill="none" stroke="#bfbfbf" points="528.09,-246.5 528.09,-276.5 670.09,-276.5 670.09,-246.5 528.09,-246.5"/>
<text text-anchor="start" x="536.09" y="-264.5" font-family="Helvetica,sans-Serif" font-size="10.00">../../../external/xsimd</text>
<text text-anchor="middle" x="599.09" y="-253.5" font-family="Helvetica,sans-Serif" font-size="10.00">/include/xsimd/xsimd.hpp</text>
</a>
</g>
</g>
<!-- Node6&#45;&gt;Node23 -->
<g id="edge30" class="edge">
<title>Node6&#45;&gt;Node23</title>
<path fill="none" stroke="midnightblue" d="M438.89,-313.48C466.58,-304.66 510.56,-290.67 545.45,-279.57"/>
<polygon fill="midnightblue" stroke="midnightblue" points="546.55,-282.89 555.02,-276.52 544.43,-276.22 546.55,-282.89"/>
</g>
<!-- Node24 -->
<g id="node24" class="node">
<title>Node24</title>
<g id="a_node24"><a xlink:href="_t_heap_buffer_8hpp.html" target="_top" xlink:title=" ">
<polygon fill="none" stroke="black" points="141.59,-252 141.59,-271 248.59,-271 248.59,-252 141.59,-252"/>
<text text-anchor="middle" x="195.09" y="-259" font-family="Helvetica,sans-Serif" font-size="10.00">../THeapBuffer.hpp</text>
</a>
</g>
</g>
<!-- Node6&#45;&gt;Node24 -->
<g id="edge31" class="edge">
<title>Node6&#45;&gt;Node24</title>
<path fill="none" stroke="midnightblue" d="M381,-313.48C342.81,-303 277.93,-285.21 235.8,-273.66"/>
<polygon fill="midnightblue" stroke="midnightblue" points="236.7,-270.28 226.13,-271.01 234.85,-277.03 236.7,-270.28"/>
</g>
<!-- Node11 -->
<g id="node11" class="node">
<title>Node11</title>
<g id="a_node11"><a xlink:href="_t_memory_pool_8hpp.html" target="_top" xlink:title=" ">
<polygon fill="none" stroke="black" points="691.09,-134.5 691.09,-153.5 801.09,-153.5 801.09,-134.5 691.09,-134.5"/>
<text text-anchor="middle" x="746.09" y="-141.5" font-family="Helvetica,sans-Serif" font-size="10.00">./TMemoryPool.hpp</text>
</a>
</g>
</g>
<!-- Node10&#45;&gt;Node11 -->
<g id="edge10" class="edge">
<title>Node10&#45;&gt;Node11</title>
<path fill="none" stroke="midnightblue" d="M759.04,-251.82C756.79,-233.26 751.47,-189.34 748.39,-163.97"/>
<polygon fill="midnightblue" stroke="midnightblue" points="751.84,-163.29 747.16,-153.78 744.89,-164.13 751.84,-163.29"/>
</g>
<!-- Node21 -->
<g id="node21" class="node">
<title>Node21</title>
<g id="a_node21"><a xlink:href="_t_memory_pool_std_8hpp.html" target="_top" xlink:title=" ">
<polygon fill="none" stroke="black" points="774.09,-190.5 774.09,-209.5 900.09,-209.5 900.09,-190.5 774.09,-190.5"/>
<text text-anchor="middle" x="837.09" y="-197.5" font-family="Helvetica,sans-Serif" font-size="10.00">./TMemoryPoolStd.hpp</text>
</a>
</g>
</g>
<!-- Node10&#45;&gt;Node21 -->
<g id="edge22" class="edge">
<title>Node10&#45;&gt;Node21</title>
<path fill="none" stroke="midnightblue" d="M771.13,-251.98C783.36,-242.52 803.32,-227.1 818.09,-215.69"/>
<polygon fill="midnightblue" stroke="midnightblue" points="820.31,-218.39 826.08,-209.51 816.03,-212.85 820.31,-218.39"/>
</g>
<!-- Node22 -->
<g id="node22" class="node">
<title>Node22</title>
<g id="a_node22"><a xlink:href="_t_memory_pool_stack_8hpp.html" target="_top" xlink:title=" ">
<polygon fill="none" stroke="black" points="580.59,-190.5 580.59,-209.5 717.59,-209.5 717.59,-190.5 580.59,-190.5"/>
<text text-anchor="middle" x="649.09" y="-197.5" font-family="Helvetica,sans-Serif" font-size="10.00">./TMemoryPoolStack.hpp</text>
</a>
</g>
</g>
<!-- Node10&#45;&gt;Node22 -->
<g id="edge26" class="edge">
<title>Node10&#45;&gt;Node22</title>
<path fill="none" stroke="midnightblue" d="M744.19,-251.98C725.81,-242.12 695.34,-225.79 673.85,-214.27"/>
<polygon fill="midnightblue" stroke="midnightblue" points="675.44,-211.15 664.97,-209.51 672.13,-217.32 675.44,-211.15"/>
</g>
<!-- Node11&#45;&gt;Node3 -->
<g id="edge17" class="edge">
<title>Node11&#45;&gt;Node3</title>
<path fill="none" stroke="midnightblue" d="M691.05,-138.04C627.59,-131.65 520.4,-118.84 430.09,-98 420.54,-95.8 410.36,-92.79 401.05,-89.78"/>
<polygon fill="midnightblue" stroke="midnightblue" points="401.98,-86.4 391.38,-86.55 399.76,-93.04 401.98,-86.4"/>
</g>
<!-- Node12 -->
<g id="node12" class="node">
<title>Node12</title>
<g id="a_node12"><a xlink:title=" ">
<polygon fill="none" stroke="#bfbfbf" points="709.59,-67.5 709.59,-86.5 754.59,-86.5 754.59,-67.5 709.59,-67.5"/>
<text text-anchor="middle" x="732.09" y="-74.5" font-family="Helvetica,sans-Serif" font-size="10.00">utility</text>
</a>
</g>
</g>
<!-- Node11&#45;&gt;Node12 -->
<g id="edge11" class="edge">
<title>Node11&#45;&gt;Node12</title>
<path fill="none" stroke="midnightblue" d="M744.21,-134.23C742.13,-124.59 738.73,-108.8 736.06,-96.41"/>
<polygon fill="midnightblue" stroke="midnightblue" points="739.48,-95.67 733.95,-86.63 732.64,-97.14 739.48,-95.67"/>
</g>
<!-- Node13 -->
<g id="node13" class="node">
<title>Node13</title>
<g id="a_node13"><a xlink:title=" ">
<polygon fill="none" stroke="#bfbfbf" points="773.09,-67.5 773.09,-86.5 823.09,-86.5 823.09,-67.5 773.09,-67.5"/>
<text text-anchor="middle" x="798.09" y="-74.5" font-family="Helvetica,sans-Serif" font-size="10.00">cstdint</text>
</a>
</g>
</g>
<!-- Node11&#45;&gt;Node13 -->
<g id="edge12" class="edge">
<title>Node11&#45;&gt;Node13</title>
<path fill="none" stroke="midnightblue" d="M753.11,-134.23C761.22,-124.1 774.74,-107.19 784.85,-94.56"/>
<polygon fill="midnightblue" stroke="midnightblue" points="787.68,-96.62 791.19,-86.63 782.21,-92.25 787.68,-96.62"/>
</g>
<!-- Node14 -->
<g id="node14" class="node">
<title>Node14</title>
<g id="a_node14"><a xlink:title=" ">
<polygon fill="none" stroke="#bfbfbf" points="1018.59,-67.5 1018.59,-86.5 1055.59,-86.5 1055.59,-67.5 1018.59,-67.5"/>
<text text-anchor="middle" x="1037.09" y="-74.5" font-family="Helvetica,sans-Serif" font-size="10.00">new</text>
</a>
</g>
</g>
<!-- Node11&#45;&gt;Node14 -->
<g id="edge13" class="edge">
<title>Node11&#45;&gt;Node14</title>
<path fill="none" stroke="midnightblue" d="M801.27,-141.04C856.19,-137.4 941.88,-127.1 1010.09,-98 1013.31,-96.63 1016.51,-94.8 1019.51,-92.8"/>
<polygon fill="midnightblue" stroke="midnightblue" points="1021.87,-95.41 1027.78,-86.61 1017.68,-89.8 1021.87,-95.41"/>
</g>
<!-- Node15 -->
<g id="node15" class="node">
<title>Node15</title>
<g id="a_node15"><a xlink:href="_t_memory_util_8hpp.html" target="_top" xlink:title=" ">
<polygon fill="none" stroke="black" points="439.59,-67.5 439.59,-86.5 546.59,-86.5 546.59,-67.5 439.59,-67.5"/>
<text text-anchor="middle" x="493.09" y="-74.5" font-family="Helvetica,sans-Serif" font-size="10.00">./TMemoryUtil.hpp</text>
</a>
</g>
</g>
<!-- Node11&#45;&gt;Node15 -->
<g id="edge14" class="edge">
<title>Node11&#45;&gt;Node15</title>
<path fill="none" stroke="midnightblue" d="M706.21,-134.46C667.61,-125.99 607.55,-112.24 556.09,-98 546.92,-95.46 537.07,-92.47 527.95,-89.58"/>
<polygon fill="midnightblue" stroke="midnightblue" points="529,-86.24 518.41,-86.51 526.86,-92.9 529,-86.24"/>
</g>
<!-- Node18 -->
<g id="node18" class="node">
<title>Node18</title>
<g id="a_node18"><a xlink:href="_t_spin_lock_8hpp.html" target="_top" xlink:title=" ">
<polygon fill="none" stroke="black" points="565.09,-67.5 565.09,-86.5 691.09,-86.5 691.09,-67.5 565.09,-67.5"/>
<text text-anchor="middle" x="628.09" y="-74.5" font-family="Helvetica,sans-Serif" font-size="10.00">../types/TSpinLock.hpp</text>
</a>
</g>
</g>
<!-- Node11&#45;&gt;Node18 -->
<g id="edge18" class="edge">
<title>Node11&#45;&gt;Node18</title>
<path fill="none" stroke="midnightblue" d="M730.18,-134.23C710.28,-123.27 675.99,-104.38 652.69,-91.55"/>
<polygon fill="midnightblue" stroke="midnightblue" points="654.2,-88.39 643.76,-86.63 650.83,-94.52 654.2,-88.39"/>
</g>
<!-- Node19 -->
<g id="node19" class="node">
<title>Node19</title>
<g id="a_node19"><a xlink:href="_t_lock_guard_8hpp.html" target="_top" xlink:title=" ">
<polygon fill="none" stroke="black" points="688.59,-0.5 688.59,-19.5 789.59,-19.5 789.59,-0.5 688.59,-0.5"/>
<text text-anchor="middle" x="739.09" y="-7.5" font-family="Helvetica,sans-Serif" font-size="10.00">./TLockGuard.hpp</text>
</a>
</g>
</g>
<!-- Node11&#45;&gt;Node19 -->
<g id="edge20" class="edge">
<title>Node11&#45;&gt;Node19</title>
<path fill="none" stroke="midnightblue" d="M780.28,-134.49C799.09,-127.88 820.84,-116.6 832.09,-98 841.76,-82.03 842.01,-71.81 832.09,-56 822.22,-40.25 805.09,-29.87 788.21,-23.11"/>
<polygon fill="midnightblue" stroke="midnightblue" points="788.94,-19.65 778.35,-19.52 786.55,-26.23 788.94,-19.65"/>
</g>
<!-- Node20 -->
<g id="node20" class="node">
<title>Node20</title>
<g id="a_node20"><a xlink:title=" ">
<polygon fill="none" stroke="#bfbfbf" points="879.59,-56.5 879.59,-97.5 1000.59,-97.5 1000.59,-56.5 879.59,-56.5"/>
<text text-anchor="start" x="887.59" y="-85.5" font-family="Helvetica,sans-Serif" font-size="10.00">../../external/xsimd</text>
<text text-anchor="start" x="887.59" y="-74.5" font-family="Helvetica,sans-Serif" font-size="10.00">/include/xsimd/config</text>
<text text-anchor="middle" x="940.09" y="-63.5" font-family="Helvetica,sans-Serif" font-size="10.00">/xsimd_arch.hpp</text>
</a>
</g>
</g>
<!-- Node11&#45;&gt;Node20 -->
<g id="edge21" class="edge">
<title>Node11&#45;&gt;Node20</title>
<path fill="none" stroke="midnightblue" d="M771.86,-134.37C797.29,-125.85 837.3,-112.44 871.92,-100.84"/>
<polygon fill="midnightblue" stroke="midnightblue" points="873.15,-104.12 881.52,-97.63 870.93,-97.48 873.15,-104.12"/>
</g>
<!-- Node16 -->
<g id="node16" class="node">
<title>Node16</title>
<g id="a_node16"><a xlink:title=" ">
<polygon fill="none" stroke="#bfbfbf" points="174.09,-0.5 174.09,-19.5 224.09,-19.5 224.09,-0.5 174.09,-0.5"/>
<text text-anchor="middle" x="199.09" y="-7.5" font-family="Helvetica,sans-Serif" font-size="10.00">cstring</text>
</a>
</g>
</g>
<!-- Node15&#45;&gt;Node16 -->
<g id="edge15" class="edge">
<title>Node15&#45;&gt;Node16</title>
<path fill="none" stroke="midnightblue" d="M468.45,-67.45C456.89,-63.63 442.88,-59.26 430.09,-56 361.41,-38.47 279.73,-24.03 234.21,-16.55"/>
<polygon fill="midnightblue" stroke="midnightblue" points="234.69,-13.08 224.26,-14.93 233.57,-19.99 234.69,-13.08"/>
</g>
<!-- Node17 -->
<g id="node17" class="node">
<title>Node17</title>
<g id="a_node17"><a xlink:title=" ">
<polygon fill="none" stroke="#bfbfbf" points="466.59,-0.5 466.59,-19.5 519.59,-19.5 519.59,-0.5 466.59,-0.5"/>
<text text-anchor="middle" x="493.09" y="-7.5" font-family="Helvetica,sans-Serif" font-size="10.00">stdlib.h</text>
</a>
</g>
</g>
<!-- Node15&#45;&gt;Node17 -->
<g id="edge16" class="edge">
<title>Node15&#45;&gt;Node17</title>
<path fill="none" stroke="midnightblue" d="M493.09,-67.23C493.09,-57.68 493.09,-42.12 493.09,-29.78"/>
<polygon fill="midnightblue" stroke="midnightblue" points="496.59,-29.63 493.09,-19.63 489.59,-29.63 496.59,-29.63"/>
</g>
<!-- Node18&#45;&gt;Node19 -->
<g id="edge19" class="edge">
<title>Node18&#45;&gt;Node19</title>
<path fill="none" stroke="midnightblue" d="M643.06,-67.23C661.7,-56.32 693.76,-37.55 715.66,-24.72"/>
<polygon fill="midnightblue" stroke="midnightblue" points="717.5,-27.7 724.36,-19.63 713.96,-21.66 717.5,-27.7"/>
</g>
<!-- Node21&#45;&gt;Node3 -->
<g id="edge25" class="edge">
<title>Node21&#45;&gt;Node3</title>
<path fill="none" stroke="midnightblue" d="M798.99,-190.47C726.67,-174.07 564.7,-136.36 430.09,-98 421.24,-95.48 411.75,-92.54 402.93,-89.7"/>
<polygon fill="midnightblue" stroke="midnightblue" points="403.9,-86.34 393.31,-86.57 401.74,-92.99 403.9,-86.34"/>
</g>
<!-- Node21&#45;&gt;Node11 -->
<g id="edge24" class="edge">
<title>Node21&#45;&gt;Node11</title>
<path fill="none" stroke="midnightblue" d="M822.47,-190.32C808.15,-181.82 786.08,-168.73 769.35,-158.8"/>
<polygon fill="midnightblue" stroke="midnightblue" points="771.06,-155.75 760.68,-153.65 767.49,-161.77 771.06,-155.75"/>
</g>
<!-- Node21&#45;&gt;Node17 -->
<g id="edge23" class="edge">
<title>Node21&#45;&gt;Node17</title>
<path fill="none" stroke="midnightblue" d="M877.8,-190.48C958.88,-171.84 1127.58,-123.59 1065.09,-56 1055.97,-46.13 655.19,-20.89 530.03,-13.23"/>
<polygon fill="midnightblue" stroke="midnightblue" points="530,-9.73 519.81,-12.61 529.58,-16.71 530,-9.73"/>
</g>
<!-- Node22&#45;&gt;Node3 -->
<g id="edge28" class="edge">
<title>Node22&#45;&gt;Node3</title>
<path fill="none" stroke="midnightblue" d="M629.33,-190.49C580.68,-169.54 454.88,-115.37 397.46,-90.64"/>
<polygon fill="midnightblue" stroke="midnightblue" points="398.78,-87.4 388.21,-86.66 396.01,-93.83 398.78,-87.4"/>
</g>
<!-- Node22&#45;&gt;Node11 -->
<g id="edge27" class="edge">
<title>Node22&#45;&gt;Node11</title>
<path fill="none" stroke="midnightblue" d="M664.68,-190.32C680.09,-181.74 703.91,-168.49 721.8,-158.52"/>
<polygon fill="midnightblue" stroke="midnightblue" points="723.51,-161.58 730.55,-153.65 720.11,-155.46 723.51,-161.58"/>
</g>
<!-- Node24&#45;&gt;Node2 -->
<g id="edge33" class="edge">
<title>Node24&#45;&gt;Node2</title>
<path fill="none" stroke="midnightblue" d="M173.75,-251.98C148.41,-241.86 105.96,-224.9 77.02,-213.35"/>
<polygon fill="midnightblue" stroke="midnightblue" points="77.99,-209.97 67.4,-209.51 75.39,-216.47 77.99,-209.97"/>
</g>
<!-- Node24&#45;&gt;Node7 -->
<g id="edge32" class="edge">
<title>Node24&#45;&gt;Node7</title>
<path fill="none" stroke="midnightblue" d="M212.14,-251.98C231.94,-242.08 264.81,-225.64 287.86,-214.12"/>
<polygon fill="midnightblue" stroke="midnightblue" points="289.7,-217.11 297.08,-209.51 286.57,-210.85 289.7,-217.11"/>
</g>
<!-- Node24&#45;&gt;Node16 -->
<g id="edge34" class="edge">
<title>Node24&#45;&gt;Node16</title>
<path fill="none" stroke="midnightblue" d="M170.12,-251.84C151.81,-244.02 128.27,-230.55 117.09,-210 112.85,-202.19 115.2,-198.68 117.09,-190 130.83,-127.02 168.83,-59.69 187.89,-28.6"/>
<polygon fill="midnightblue" stroke="midnightblue" points="191.04,-30.16 193.36,-19.83 185.1,-26.46 191.04,-30.16"/>
</g>
<!-- Node25 -->
<g id="node25" class="node">
<title>Node25</title>
<g id="a_node25"><a xlink:href="_t_allocator_8hpp.html" target="_top" xlink:title=" ">
<polygon fill="none" stroke="black" points="126.59,-190.5 126.59,-209.5 263.59,-209.5 263.59,-190.5 126.59,-190.5"/>
<text text-anchor="middle" x="195.09" y="-197.5" font-family="Helvetica,sans-Serif" font-size="10.00">../memory/TAllocator.hpp</text>
</a>
</g>
</g>
<!-- Node24&#45;&gt;Node25 -->
<g id="edge35" class="edge">
<title>Node24&#45;&gt;Node25</title>
<path fill="none" stroke="midnightblue" d="M195.09,-251.98C195.09,-243.58 195.09,-230.48 195.09,-219.66"/>
<polygon fill="midnightblue" stroke="midnightblue" points="198.59,-219.51 195.09,-209.51 191.59,-219.51 198.59,-219.51"/>
</g>
<!-- Node25&#45;&gt;Node3 -->
<g id="edge36" class="edge">
<title>Node25&#45;&gt;Node3</title>
<path fill="none" stroke="midnightblue" d="M191.8,-190.45C187.24,-177.02 180.85,-150.78 193.09,-134 218.39,-99.35 265.4,-85.65 304.33,-80.45"/>
<polygon fill="midnightblue" stroke="midnightblue" points="305.03,-83.9 314.55,-79.25 304.22,-76.94 305.03,-83.9"/>
</g>
<!-- Node25&#45;&gt;Node8 -->
<g id="edge38" class="edge">
<title>Node25&#45;&gt;Node8</title>
<path fill="none" stroke="midnightblue" d="M219.5,-190.44C245.9,-181.19 288.1,-166.39 317.13,-156.21"/>
<polygon fill="midnightblue" stroke="midnightblue" points="318.53,-159.43 326.81,-152.82 316.21,-152.82 318.53,-159.43"/>
</g>
<!-- Node25&#45;&gt;Node17 -->
<g id="edge39" class="edge">
<title>Node25&#45;&gt;Node17</title>
<path fill="none" stroke="midnightblue" d="M215.95,-190.4C231.89,-182.89 253.38,-170.58 267.09,-154 296.87,-118 269.91,-86.73 305.09,-56 327.41,-36.51 408.36,-22.5 456.45,-15.68"/>
<polygon fill="midnightblue" stroke="midnightblue" points="457.05,-19.13 466.48,-14.3 456.09,-12.2 457.05,-19.13"/>
</g>
<!-- Node26 -->
<g id="node26" class="node">
<title>Node26</title>
<g id="a_node26"><a xlink:title=" ">
<polygon fill="none" stroke="#bfbfbf" points="202.09,-134.5 202.09,-153.5 258.09,-153.5 258.09,-134.5 202.09,-134.5"/>
<text text-anchor="middle" x="230.09" y="-141.5" font-family="Helvetica,sans-Serif" font-size="10.00">stddef.h</text>
</a>
</g>
</g>
<!-- Node25&#45;&gt;Node26 -->
<g id="edge37" class="edge">
<title>Node25&#45;&gt;Node26</title>
<path fill="none" stroke="midnightblue" d="M200.87,-190.08C205.77,-182.53 212.92,-171.49 218.93,-162.23"/>
<polygon fill="midnightblue" stroke="midnightblue" points="221.92,-164.05 224.42,-153.75 216.05,-160.24 221.92,-164.05"/>
</g>
</g>
</svg>
        <g id="navigator" transform="translate(0 0)" fill="#404254">
                <rect fill="#f2f5e9" fill-opacity="0.5" stroke="#606060" stroke-width=".5" x="0" y="0" width="60" height="60"/>
                <use id="zoomplus" xlink:href="#zoomPlus" x="17" y="9" onmousedown="handleZoom(evt,'in')"/>
                <use id="zoomminus" xlink:href="#zoomMin" x="42" y="9" onmousedown="handleZoom(evt,'out')"/>
                <use id="reset" xlink:href="#resetDef" x="30" y="36" onmousedown="handleReset()"/>
                <g id="arrowUp" xlink:href="#dirArrow" transform="translate(30 24)" onmousedown="handlePan(0,-1)">
                  <use xlink:href="#rim" fill="#404040">
                        <set attributeName="fill" to="#808080" begin="arrowUp.mouseover" end="arrowUp.mouseout"/>
                  </use>
                  <path fill="none" stroke="white" stroke-width="1.5" d="M0,-3.0v7 M-2.5,-0.5L0,-3.0L2.5,-0.5"/>
                </g>
                <g id="arrowRight" xlink:href="#dirArrow" transform="rotate(90) translate(36 -43)" onmousedown="handlePan(1,0)">
                  <use xlink:href="#rim" fill="#404040">
                        <set attributeName="fill" to="#808080" begin="arrowRight.mouseover" end="arrowRight.mouseout"/>
                  </use>
                  <path fill="none" stroke="white" stroke-width="1.5" d="M0,-3.0v7 M-2.5,-0.5L0,-3.0L2.5,-0.5"/>
                </g>
                <g id="arrowDown" xlink:href="#dirArrow" transform="rotate(180) translate(-30 -48)" onmousedown="handlePan(0,1)">
                  <use xlink:href="#rim" fill="#404040">
                        <set attributeName="fill" to="#808080" begin="arrowDown.mouseover" end="arrowDown.mouseout"/>
                  </use>
                  <path fill="none" stroke="white" stroke-width="1.5" d="M0,-3.0v7 M-2.5,-0.5L0,-3.0L2.5,-0.5"/>
                </g>
                <g id="arrowLeft" xlink:href="#dirArrow" transform="rotate(270) translate(-36 17)" onmousedown="handlePan(-1,0)">
                  <use xlink:href="#rim" fill="#404040">
                        <set attributeName="fill" to="#808080" begin="arrowLeft.mouseover" end="arrowLeft.mouseout"/>
                  </use>
                  <path fill="none" stroke="white" stroke-width="1.5" d="M0,-3.0v7 M-2.5,-0.5L0,-3.0L2.5,-0.5"/>
                </g>
        </g>
        <svg viewBox="0 0 15 15" width="100%" height="30px" preserveAspectRatio="xMaxYMin meet">
         <g id="arrow_out" transform="scale(0.3 0.3)">
          <a xlink:href="_t_convolver_brute_8hpp__incl_org.svg" target="_base">
           <rect id="button" ry="5" rx="5" y="6" x="6" height="38" width="38"
                fill="#f2f5e9" fill-opacity="0.5" stroke="#606060" stroke-width="1.0"/>
           <path id="arrow"
             d="M 11.500037,31.436501 C 11.940474,20.09759 22.043105,11.32322 32.158766,21.979434 L 37.068811,17.246167 C 37.068811,17.246167 37.088388,32 37.088388,32 L 22.160133,31.978069 C 22.160133,31.978069 26.997745,27.140456 26.997745,27.140456 C 18.528582,18.264221 13.291696,25.230495 11.500037,31.436501 z"
             style="fill:#404040;"/>
          </a>
         </g>
        </svg>
</svg>
