<?xml version="1.0" encoding="UTF-8" standalone="no"?>
<!DOCTYPE svg PUBLIC "-//W3C//DTD SVG 1.1//EN"
 "http://www.w3.org/Graphics/SVG/1.1/DTD/svg11.dtd">
<!-- Generated by graphviz version 2.50.0 (0)
 -->
<!-- Title: TFile.hpp Pages: 1 -->
<svg width="849pt" height="252pt"
 viewBox="0.00 0.00 849.00 252.00" xmlns="http://www.w3.org/2000/svg" xmlns:xlink="http://www.w3.org/1999/xlink">
<g id="graph0" class="graph" transform="scale(1 1) rotate(0) translate(4 248)">
<title>TFile.hpp</title>
<!-- Node1 -->
<g id="node1" class="node">
<title>Node1</title>
<g id="a_node1"><a xlink:title=" ">
<polygon fill="#bfbfbf" stroke="black" points="434.5,-224.5 434.5,-243.5 495.5,-243.5 495.5,-224.5 434.5,-224.5"/>
<text text-anchor="middle" x="465" y="-231.5" font-family="Helvetica,sans-Serif" font-size="10.00">TFile.hpp</text>
</a>
</g>
</g>
<!-- Node2 -->
<g id="node2" class="node">
<title>Node2</title>
<g id="a_node2"><a xlink:title=" ">
<polygon fill="none" stroke="#bfbfbf" points="95,-168.5 95,-187.5 149,-187.5 149,-168.5 95,-168.5"/>
<text text-anchor="middle" x="122" y="-175.5" font-family="Helvetica,sans-Serif" font-size="10.00">dirent.h</text>
</a>
</g>
</g>
<!-- Node1&#45;&gt;Node2 -->
<g id="edge1" class="edge">
<title>Node1&#45;&gt;Node2</title>
<path fill="none" stroke="midnightblue" d="M434.33,-229.53C380.56,-223.22 265.64,-208.77 159.02,-188.03"/>
<polygon fill="midnightblue" stroke="midnightblue" points="159.55,-184.57 149.06,-186.07 158.2,-191.44 159.55,-184.57"/>
</g>
<!-- Node3 -->
<g id="node3" class="node">
<title>Node3</title>
<g id="a_node3"><a xlink:title=" ">
<polygon fill="none" stroke="#bfbfbf" points="167,-168.5 167,-187.5 231,-187.5 231,-168.5 167,-168.5"/>
<text text-anchor="middle" x="199" y="-175.5" font-family="Helvetica,sans-Serif" font-size="10.00">sys/stat.h</text>
</a>
</g>
</g>
<!-- Node1&#45;&gt;Node3 -->
<g id="edge2" class="edge">
<title>Node1&#45;&gt;Node3</title>
<path fill="none" stroke="midnightblue" d="M434.39,-227.07C392.93,-218.99 316.35,-203.92 241.31,-188.25"/>
<polygon fill="midnightblue" stroke="midnightblue" points="241.72,-184.76 231.22,-186.13 240.29,-191.61 241.72,-184.76"/>
</g>
<!-- Node4 -->
<g id="node4" class="node">
<title>Node4</title>
<g id="a_node4"><a xlink:href="_t_heap_buffer_8hpp.html" target="_top" xlink:title=" ">
<polygon fill="none" stroke="black" points="249,-168.5 249,-187.5 353,-187.5 353,-168.5 249,-168.5"/>
<text text-anchor="middle" x="301" y="-175.5" font-family="Helvetica,sans-Serif" font-size="10.00">./THeapBuffer.hpp</text>
</a>
</g>
</g>
<!-- Node1&#45;&gt;Node4 -->
<g id="edge3" class="edge">
<title>Node1&#45;&gt;Node4</title>
<path fill="none" stroke="midnightblue" d="M439.01,-224.44C411.3,-215.32 367.25,-200.81 336.38,-190.65"/>
<polygon fill="midnightblue" stroke="midnightblue" points="337.46,-187.32 326.86,-187.52 335.27,-193.97 337.46,-187.32"/>
</g>
<!-- Node9 -->
<g id="node9" class="node">
<title>Node9</title>
<g id="a_node9"><a xlink:href="_t_assert_8h.html" target="_top" xlink:title=" ">
<polygon fill="none" stroke="black" points="333.5,-56.5 333.5,-75.5 422.5,-75.5 422.5,-56.5 333.5,-56.5"/>
<text text-anchor="middle" x="378" y="-63.5" font-family="Helvetica,sans-Serif" font-size="10.00">../util/TAssert.h</text>
</a>
</g>
</g>
<!-- Node1&#45;&gt;Node9 -->
<g id="edge18" class="edge">
<title>Node1&#45;&gt;Node9</title>
<path fill="none" stroke="midnightblue" d="M445.02,-224.39C430.2,-216.94 410.78,-204.73 400,-188 379.64,-156.41 376.88,-111.05 377.14,-85.79"/>
<polygon fill="midnightblue" stroke="midnightblue" points="380.64,-85.82 377.42,-75.73 373.64,-85.63 380.64,-85.82"/>
</g>
<!-- Node14 -->
<g id="node14" class="node">
<title>Node14</title>
<g id="a_node14"><a xlink:title=" ">
<polygon fill="none" stroke="#bfbfbf" points="409.5,-168.5 409.5,-187.5 456.5,-187.5 456.5,-168.5 409.5,-168.5"/>
<text text-anchor="middle" x="433" y="-175.5" font-family="Helvetica,sans-Serif" font-size="10.00">vector</text>
</a>
</g>
</g>
<!-- Node1&#45;&gt;Node14 -->
<g id="edge13" class="edge">
<title>Node1&#45;&gt;Node14</title>
<path fill="none" stroke="midnightblue" d="M459.72,-224.08C455.29,-216.61 448.84,-205.72 443.38,-196.52"/>
<polygon fill="midnightblue" stroke="midnightblue" points="446.29,-194.57 438.19,-187.75 440.27,-198.14 446.29,-194.57"/>
</g>
<!-- Node15 -->
<g id="node15" class="node">
<title>Node15</title>
<g id="a_node15"><a xlink:title=" ">
<polygon fill="none" stroke="#bfbfbf" points="475,-168.5 475,-187.5 519,-187.5 519,-168.5 475,-168.5"/>
<text text-anchor="middle" x="497" y="-175.5" font-family="Helvetica,sans-Serif" font-size="10.00">string</text>
</a>
</g>
</g>
<!-- Node1&#45;&gt;Node15 -->
<g id="edge14" class="edge">
<title>Node1&#45;&gt;Node15</title>
<path fill="none" stroke="midnightblue" d="M470.28,-224.08C474.71,-216.61 481.16,-205.72 486.62,-196.52"/>
<polygon fill="midnightblue" stroke="midnightblue" points="489.73,-198.14 491.81,-187.75 483.71,-194.57 489.73,-198.14"/>
</g>
<!-- Node16 -->
<g id="node16" class="node">
<title>Node16</title>
<g id="a_node16"><a xlink:title=" ">
<polygon fill="none" stroke="#bfbfbf" points="537,-168.5 537,-187.5 593,-187.5 593,-168.5 537,-168.5"/>
<text text-anchor="middle" x="565" y="-175.5" font-family="Helvetica,sans-Serif" font-size="10.00">sstream</text>
</a>
</g>
</g>
<!-- Node1&#45;&gt;Node16 -->
<g id="edge15" class="edge">
<title>Node1&#45;&gt;Node16</title>
<path fill="none" stroke="midnightblue" d="M481.07,-224.32C496.96,-215.74 521.51,-202.49 539.96,-192.52"/>
<polygon fill="midnightblue" stroke="midnightblue" points="541.84,-195.49 548.97,-187.65 538.51,-189.33 541.84,-195.49"/>
</g>
<!-- Node17 -->
<g id="node17" class="node">
<title>Node17</title>
<g id="a_node17"><a xlink:title=" ">
<polygon fill="none" stroke="#bfbfbf" points="611.5,-168.5 611.5,-187.5 666.5,-187.5 666.5,-168.5 611.5,-168.5"/>
<text text-anchor="middle" x="639" y="-175.5" font-family="Helvetica,sans-Serif" font-size="10.00">fstream</text>
</a>
</g>
</g>
<!-- Node1&#45;&gt;Node17 -->
<g id="edge16" class="edge">
<title>Node1&#45;&gt;Node17</title>
<path fill="none" stroke="midnightblue" d="M492.57,-224.44C522.1,-215.28 569.12,-200.69 601.88,-190.52"/>
<polygon fill="midnightblue" stroke="midnightblue" points="603.04,-193.82 611.56,-187.52 600.97,-187.14 603.04,-193.82"/>
</g>
<!-- Node18 -->
<g id="node18" class="node">
<title>Node18</title>
<g id="a_node18"><a xlink:title=" ">
<polygon fill="none" stroke="#bfbfbf" points="685,-168.5 685,-187.5 741,-187.5 741,-168.5 685,-168.5"/>
<text text-anchor="middle" x="713" y="-175.5" font-family="Helvetica,sans-Serif" font-size="10.00">iomanip</text>
</a>
</g>
</g>
<!-- Node1&#45;&gt;Node18 -->
<g id="edge17" class="edge">
<title>Node1&#45;&gt;Node18</title>
<path fill="none" stroke="midnightblue" d="M495.81,-226.72C535.11,-218.64 605.41,-203.98 674.94,-188.2"/>
<polygon fill="midnightblue" stroke="midnightblue" points="675.77,-191.6 684.74,-185.96 674.21,-184.77 675.77,-191.6"/>
</g>
<!-- Node19 -->
<g id="node19" class="node">
<title>Node19</title>
<g id="a_node19"><a xlink:href="_t_print_8h.html" target="_top" xlink:title=" ">
<polygon fill="none" stroke="black" points="759,-168.5 759,-187.5 841,-187.5 841,-168.5 759,-168.5"/>
<text text-anchor="middle" x="800" y="-175.5" font-family="Helvetica,sans-Serif" font-size="10.00">../util/TPrint.h</text>
</a>
</g>
</g>
<!-- Node1&#45;&gt;Node19 -->
<g id="edge19" class="edge">
<title>Node1&#45;&gt;Node19</title>
<path fill="none" stroke="midnightblue" d="M495.82,-228.36C546.4,-220.69 650.43,-204.71 748.71,-188.19"/>
<polygon fill="midnightblue" stroke="midnightblue" points="749.53,-191.6 758.81,-186.49 748.37,-184.7 749.53,-191.6"/>
</g>
<!-- Node5 -->
<g id="node5" class="node">
<title>Node5</title>
<g id="a_node5"><a xlink:title=" ">
<polygon fill="none" stroke="#bfbfbf" points="68,-112.5 68,-131.5 132,-131.5 132,-112.5 68,-112.5"/>
<text text-anchor="middle" x="100" y="-119.5" font-family="Helvetica,sans-Serif" font-size="10.00">algorithm</text>
</a>
</g>
</g>
<!-- Node4&#45;&gt;Node5 -->
<g id="edge4" class="edge">
<title>Node4&#45;&gt;Node5</title>
<path fill="none" stroke="midnightblue" d="M269.15,-168.44C234.6,-159.16 179.32,-144.31 141.42,-134.13"/>
<polygon fill="midnightblue" stroke="midnightblue" points="142.27,-130.73 131.7,-131.52 140.45,-137.49 142.27,-130.73"/>
</g>
<!-- Node6 -->
<g id="node6" class="node">
<title>Node6</title>
<g id="a_node6"><a xlink:title=" ">
<polygon fill="none" stroke="#bfbfbf" points="305.5,-112.5 305.5,-131.5 352.5,-131.5 352.5,-112.5 305.5,-112.5"/>
<text text-anchor="middle" x="329" y="-119.5" font-family="Helvetica,sans-Serif" font-size="10.00">cmath</text>
</a>
</g>
</g>
<!-- Node4&#45;&gt;Node6 -->
<g id="edge5" class="edge">
<title>Node4&#45;&gt;Node6</title>
<path fill="none" stroke="midnightblue" d="M305.62,-168.08C309.46,-160.69 315.02,-149.95 319.76,-140.81"/>
<polygon fill="midnightblue" stroke="midnightblue" points="322.97,-142.24 324.46,-131.75 316.75,-139.02 322.97,-142.24"/>
</g>
<!-- Node7 -->
<g id="node7" class="node">
<title>Node7</title>
<g id="a_node7"><a xlink:title=" ">
<polygon fill="none" stroke="#bfbfbf" points="0,-112.5 0,-131.5 50,-131.5 50,-112.5 0,-112.5"/>
<text text-anchor="middle" x="25" y="-119.5" font-family="Helvetica,sans-Serif" font-size="10.00">cstring</text>
</a>
</g>
</g>
<!-- Node4&#45;&gt;Node7 -->
<g id="edge6" class="edge">
<title>Node4&#45;&gt;Node7</title>
<path fill="none" stroke="midnightblue" d="M248.84,-168.46C201.88,-160.52 130.78,-147.84 60.16,-132.13"/>
<polygon fill="midnightblue" stroke="midnightblue" points="60.72,-128.67 50.2,-129.9 59.19,-135.5 60.72,-128.67"/>
</g>
<!-- Node8 -->
<g id="node8" class="node">
<title>Node8</title>
<g id="a_node8"><a xlink:href="_t_allocator_8hpp.html" target="_top" xlink:title=" ">
<polygon fill="none" stroke="black" points="150.5,-112.5 150.5,-131.5 287.5,-131.5 287.5,-112.5 150.5,-112.5"/>
<text text-anchor="middle" x="219" y="-119.5" font-family="Helvetica,sans-Serif" font-size="10.00">../memory/TAllocator.hpp</text>
</a>
</g>
</g>
<!-- Node4&#45;&gt;Node8 -->
<g id="edge7" class="edge">
<title>Node4&#45;&gt;Node8</title>
<path fill="none" stroke="midnightblue" d="M287.83,-168.32C275.15,-159.98 255.77,-147.21 240.79,-137.35"/>
<polygon fill="midnightblue" stroke="midnightblue" points="242.42,-134.23 232.14,-131.65 238.57,-140.08 242.42,-134.23"/>
</g>
<!-- Node8&#45;&gt;Node9 -->
<g id="edge8" class="edge">
<title>Node8&#45;&gt;Node9</title>
<path fill="none" stroke="midnightblue" d="M244.19,-112.44C270.94,-103.36 313.4,-88.94 343.31,-78.78"/>
<polygon fill="midnightblue" stroke="midnightblue" points="344.58,-82.05 352.92,-75.52 342.33,-75.42 344.58,-82.05"/>
</g>
<!-- Node11 -->
<g id="node11" class="node">
<title>Node11</title>
<g id="a_node11"><a xlink:title=" ">
<polygon fill="none" stroke="#bfbfbf" points="123,-56.5 123,-75.5 179,-75.5 179,-56.5 123,-56.5"/>
<text text-anchor="middle" x="151" y="-63.5" font-family="Helvetica,sans-Serif" font-size="10.00">stddef.h</text>
</a>
</g>
</g>
<!-- Node8&#45;&gt;Node11 -->
<g id="edge10" class="edge">
<title>Node8&#45;&gt;Node11</title>
<path fill="none" stroke="midnightblue" d="M208.07,-112.32C197.83,-104.18 182.28,-91.84 170,-82.09"/>
<polygon fill="midnightblue" stroke="midnightblue" points="172.13,-79.31 162.12,-75.83 167.78,-84.79 172.13,-79.31"/>
</g>
<!-- Node12 -->
<g id="node12" class="node">
<title>Node12</title>
<g id="a_node12"><a xlink:title=" ">
<polygon fill="none" stroke="#bfbfbf" points="197,-56.5 197,-75.5 241,-75.5 241,-56.5 197,-56.5"/>
<text text-anchor="middle" x="219" y="-63.5" font-family="Helvetica,sans-Serif" font-size="10.00">limits</text>
</a>
</g>
</g>
<!-- Node8&#45;&gt;Node12 -->
<g id="edge11" class="edge">
<title>Node8&#45;&gt;Node12</title>
<path fill="none" stroke="midnightblue" d="M219,-112.08C219,-105.01 219,-94.86 219,-85.99"/>
<polygon fill="midnightblue" stroke="midnightblue" points="222.5,-85.75 219,-75.75 215.5,-85.75 222.5,-85.75"/>
</g>
<!-- Node13 -->
<g id="node13" class="node">
<title>Node13</title>
<g id="a_node13"><a xlink:title=" ">
<polygon fill="none" stroke="#bfbfbf" points="259.5,-56.5 259.5,-75.5 312.5,-75.5 312.5,-56.5 259.5,-56.5"/>
<text text-anchor="middle" x="286" y="-63.5" font-family="Helvetica,sans-Serif" font-size="10.00">stdlib.h</text>
</a>
</g>
</g>
<!-- Node8&#45;&gt;Node13 -->
<g id="edge12" class="edge">
<title>Node8&#45;&gt;Node13</title>
<path fill="none" stroke="midnightblue" d="M229.76,-112.32C239.77,-104.26 254.89,-92.08 266.93,-82.37"/>
<polygon fill="midnightblue" stroke="midnightblue" points="269.45,-84.83 275.04,-75.83 265.06,-79.38 269.45,-84.83"/>
</g>
<!-- Node10 -->
<g id="node10" class="node">
<title>Node10</title>
<g id="a_node10"><a xlink:title=" ">
<polygon fill="none" stroke="#bfbfbf" points="352,-0.5 352,-19.5 404,-19.5 404,-0.5 352,-0.5"/>
<text text-anchor="middle" x="378" y="-7.5" font-family="Helvetica,sans-Serif" font-size="10.00">cassert</text>
</a>
</g>
</g>
<!-- Node9&#45;&gt;Node10 -->
<g id="edge9" class="edge">
<title>Node9&#45;&gt;Node10</title>
<path fill="none" stroke="midnightblue" d="M378,-56.08C378,-49.01 378,-38.86 378,-29.99"/>
<polygon fill="midnightblue" stroke="midnightblue" points="381.5,-29.75 378,-19.75 374.5,-29.75 381.5,-29.75"/>
</g>
<!-- Node20 -->
<g id="node20" class="node">
<title>Node20</title>
<g id="a_node20"><a xlink:title=" ">
<polygon fill="none" stroke="#bfbfbf" points="775,-112.5 775,-131.5 825,-131.5 825,-112.5 775,-112.5"/>
<text text-anchor="middle" x="800" y="-119.5" font-family="Helvetica,sans-Serif" font-size="10.00">stdio.h</text>
</a>
</g>
</g>
<!-- Node19&#45;&gt;Node20 -->
<g id="edge20" class="edge">
<title>Node19&#45;&gt;Node20</title>
<path fill="none" stroke="midnightblue" d="M800,-168.08C800,-161.01 800,-150.86 800,-141.99"/>
<polygon fill="midnightblue" stroke="midnightblue" points="803.5,-141.75 800,-131.75 796.5,-141.75 803.5,-141.75"/>
</g>
</g>
</svg>
