<?xml version="1.0" encoding="UTF-8" standalone="no"?>
<!DOCTYPE svg PUBLIC "-//W3C//DTD SVG 1.1//EN"
 "http://www.w3.org/Graphics/SVG/1.1/DTD/svg11.dtd">
<!-- Generated by graphviz version 2.50.0 (0)
 -->
<!-- Title: THeapBuffer.hpp Pages: 1 -->
<svg width="781pt" height="330pt"
 viewBox="0.00 0.00 781.00 330.00" xmlns="http://www.w3.org/2000/svg" xmlns:xlink="http://www.w3.org/1999/xlink">
<g id="graph0" class="graph" transform="scale(1 1) rotate(0) translate(4 326)">
<title>THeapBuffer.hpp</title>
<!-- Node1 -->
<g id="node1" class="node">
<title>Node1</title>
<g id="a_node1"><a xlink:title=" ">
<polygon fill="#bfbfbf" stroke="black" points="199.5,-302.5 199.5,-321.5 297.5,-321.5 297.5,-302.5 199.5,-302.5"/>
<text text-anchor="middle" x="248.5" y="-309.5" font-family="Helvetica,sans-Serif" font-size="10.00">THeapBuffer.hpp</text>
</a>
</g>
</g>
<!-- Node2 -->
<g id="node2" class="node">
<title>Node2</title>
<g id="a_node2"><a xlink:href="_t_assert_8h.html" target="_top" xlink:title=" ">
<polygon fill="none" stroke="black" points="0,-67.5 0,-86.5 89,-86.5 89,-67.5 0,-67.5"/>
<text text-anchor="middle" x="44.5" y="-74.5" font-family="Helvetica,sans-Serif" font-size="10.00">../util/TAssert.h</text>
</a>
</g>
</g>
<!-- Node1&#45;&gt;Node2 -->
<g id="edge1" class="edge">
<title>Node1&#45;&gt;Node2</title>
<path fill="none" stroke="midnightblue" d="M203.57,-302.48C175.69,-295.72 140.06,-284.29 112.5,-266 84.94,-247.72 77.31,-240.05 63.5,-210 46.32,-172.62 43.83,-123.53 43.92,-97"/>
<polygon fill="midnightblue" stroke="midnightblue" points="47.42,-96.87 44.09,-86.81 40.43,-96.75 47.42,-96.87"/>
</g>
<!-- Node4 -->
<g id="node4" class="node">
<title>Node4</title>
<g id="a_node4"><a xlink:href="_t_memory_8hpp.html" target="_top" xlink:title=" ">
<polygon fill="none" stroke="black" points="122,-246.5 122,-265.5 257,-265.5 257,-246.5 122,-246.5"/>
<text text-anchor="middle" x="189.5" y="-253.5" font-family="Helvetica,sans-Serif" font-size="10.00">../memory/TMemory.hpp</text>
</a>
</g>
</g>
<!-- Node1&#45;&gt;Node4 -->
<g id="edge3" class="edge">
<title>Node1&#45;&gt;Node4</title>
<path fill="none" stroke="midnightblue" d="M239.02,-302.32C230.3,-294.34 217.16,-282.31 206.6,-272.65"/>
<polygon fill="midnightblue" stroke="midnightblue" points="208.89,-270 199.15,-265.83 204.17,-275.17 208.89,-270"/>
</g>
<!-- Node17 -->
<g id="node17" class="node">
<title>Node17</title>
<g id="a_node17"><a xlink:title=" ">
<polygon fill="none" stroke="#bfbfbf" points="275.5,-246.5 275.5,-265.5 339.5,-265.5 339.5,-246.5 275.5,-246.5"/>
<text text-anchor="middle" x="307.5" y="-253.5" font-family="Helvetica,sans-Serif" font-size="10.00">algorithm</text>
</a>
</g>
</g>
<!-- Node1&#45;&gt;Node17 -->
<g id="edge23" class="edge">
<title>Node1&#45;&gt;Node17</title>
<path fill="none" stroke="midnightblue" d="M257.98,-302.32C266.7,-294.34 279.84,-282.31 290.4,-272.65"/>
<polygon fill="midnightblue" stroke="midnightblue" points="292.83,-275.17 297.85,-265.83 288.11,-270 292.83,-275.17"/>
</g>
<!-- Node18 -->
<g id="node18" class="node">
<title>Node18</title>
<g id="a_node18"><a xlink:title=" ">
<polygon fill="none" stroke="#bfbfbf" points="358,-246.5 358,-265.5 405,-265.5 405,-246.5 358,-246.5"/>
<text text-anchor="middle" x="381.5" y="-253.5" font-family="Helvetica,sans-Serif" font-size="10.00">cmath</text>
</a>
</g>
</g>
<!-- Node1&#45;&gt;Node18 -->
<g id="edge24" class="edge">
<title>Node1&#45;&gt;Node18</title>
<path fill="none" stroke="midnightblue" d="M269.57,-302.44C291.56,-293.52 326.23,-279.44 351.16,-269.32"/>
<polygon fill="midnightblue" stroke="midnightblue" points="352.58,-272.52 360.52,-265.52 349.94,-266.04 352.58,-272.52"/>
</g>
<!-- Node3 -->
<g id="node3" class="node">
<title>Node3</title>
<g id="a_node3"><a xlink:title=" ">
<polygon fill="none" stroke="#bfbfbf" points="18.5,-0.5 18.5,-19.5 70.5,-19.5 70.5,-0.5 18.5,-0.5"/>
<text text-anchor="middle" x="44.5" y="-7.5" font-family="Helvetica,sans-Serif" font-size="10.00">cassert</text>
</a>
</g>
</g>
<!-- Node2&#45;&gt;Node3 -->
<g id="edge2" class="edge">
<title>Node2&#45;&gt;Node3</title>
<path fill="none" stroke="midnightblue" d="M44.5,-67.23C44.5,-57.68 44.5,-42.12 44.5,-29.78"/>
<polygon fill="midnightblue" stroke="midnightblue" points="48,-29.63 44.5,-19.63 41,-29.63 48,-29.63"/>
</g>
<!-- Node5 -->
<g id="node5" class="node">
<title>Node5</title>
<g id="a_node5"><a xlink:href="_t_memory_pool_8hpp.html" target="_top" xlink:title=" ">
<polygon fill="none" stroke="black" points="252.5,-134.5 252.5,-153.5 362.5,-153.5 362.5,-134.5 252.5,-134.5"/>
<text text-anchor="middle" x="307.5" y="-141.5" font-family="Helvetica,sans-Serif" font-size="10.00">./TMemoryPool.hpp</text>
</a>
</g>
</g>
<!-- Node4&#45;&gt;Node5 -->
<g id="edge4" class="edge">
<title>Node4&#45;&gt;Node5</title>
<path fill="none" stroke="midnightblue" d="M198.66,-246.08C211.64,-233.47 236.19,-209.77 257.5,-190 268.23,-180.05 280.43,-169.06 290.1,-160.43"/>
<polygon fill="midnightblue" stroke="midnightblue" points="292.69,-162.81 297.84,-153.54 288.04,-157.58 292.69,-162.81"/>
</g>
<!-- Node15 -->
<g id="node15" class="node">
<title>Node15</title>
<g id="a_node15"><a xlink:href="_t_memory_pool_std_8hpp.html" target="_top" xlink:title=" ">
<polygon fill="none" stroke="black" points="266.5,-190.5 266.5,-209.5 392.5,-209.5 392.5,-190.5 266.5,-190.5"/>
<text text-anchor="middle" x="329.5" y="-197.5" font-family="Helvetica,sans-Serif" font-size="10.00">./TMemoryPoolStd.hpp</text>
</a>
</g>
</g>
<!-- Node4&#45;&gt;Node15 -->
<g id="edge16" class="edge">
<title>Node4&#45;&gt;Node15</title>
<path fill="none" stroke="midnightblue" d="M211.68,-246.44C234.93,-237.48 271.65,-223.31 297.92,-213.18"/>
<polygon fill="midnightblue" stroke="midnightblue" points="299.35,-216.38 307.42,-209.52 296.83,-209.85 299.35,-216.38"/>
</g>
<!-- Node16 -->
<g id="node16" class="node">
<title>Node16</title>
<g id="a_node16"><a xlink:href="_t_memory_pool_stack_8hpp.html" target="_top" xlink:title=" ">
<polygon fill="none" stroke="black" points="73,-190.5 73,-209.5 210,-209.5 210,-190.5 73,-190.5"/>
<text text-anchor="middle" x="141.5" y="-197.5" font-family="Helvetica,sans-Serif" font-size="10.00">./TMemoryPoolStack.hpp</text>
</a>
</g>
</g>
<!-- Node4&#45;&gt;Node16 -->
<g id="edge20" class="edge">
<title>Node4&#45;&gt;Node16</title>
<path fill="none" stroke="midnightblue" d="M181.57,-246.08C174.65,-238.3 164.43,-226.8 156.05,-217.37"/>
<polygon fill="midnightblue" stroke="midnightblue" points="158.54,-214.9 149.28,-209.75 153.31,-219.55 158.54,-214.9"/>
</g>
<!-- Node5&#45;&gt;Node2 -->
<g id="edge11" class="edge">
<title>Node5&#45;&gt;Node2</title>
<path fill="none" stroke="midnightblue" d="M262.18,-134.49C220.6,-126.33 157.47,-113.05 103.5,-98 94.96,-95.62 85.85,-92.71 77.4,-89.86"/>
<polygon fill="midnightblue" stroke="midnightblue" points="78.45,-86.53 67.86,-86.58 76.17,-93.14 78.45,-86.53"/>
</g>
<!-- Node6 -->
<g id="node6" class="node">
<title>Node6</title>
<g id="a_node6"><a xlink:title=" ">
<polygon fill="none" stroke="#bfbfbf" points="285,-67.5 285,-86.5 330,-86.5 330,-67.5 285,-67.5"/>
<text text-anchor="middle" x="307.5" y="-74.5" font-family="Helvetica,sans-Serif" font-size="10.00">utility</text>
</a>
</g>
</g>
<!-- Node5&#45;&gt;Node6 -->
<g id="edge5" class="edge">
<title>Node5&#45;&gt;Node6</title>
<path fill="none" stroke="midnightblue" d="M307.5,-134.23C307.5,-124.68 307.5,-109.12 307.5,-96.78"/>
<polygon fill="midnightblue" stroke="midnightblue" points="311,-96.63 307.5,-86.63 304,-96.63 311,-96.63"/>
</g>
<!-- Node7 -->
<g id="node7" class="node">
<title>Node7</title>
<g id="a_node7"><a xlink:title=" ">
<polygon fill="none" stroke="#bfbfbf" points="348.5,-67.5 348.5,-86.5 398.5,-86.5 398.5,-67.5 348.5,-67.5"/>
<text text-anchor="middle" x="373.5" y="-74.5" font-family="Helvetica,sans-Serif" font-size="10.00">cstdint</text>
</a>
</g>
</g>
<!-- Node5&#45;&gt;Node7 -->
<g id="edge6" class="edge">
<title>Node5&#45;&gt;Node7</title>
<path fill="none" stroke="midnightblue" d="M316.4,-134.23C326.89,-123.9 344.52,-106.54 357.42,-93.83"/>
<polygon fill="midnightblue" stroke="midnightblue" points="360.07,-96.14 364.74,-86.63 355.16,-91.15 360.07,-96.14"/>
</g>
<!-- Node8 -->
<g id="node8" class="node">
<title>Node8</title>
<g id="a_node8"><a xlink:title=" ">
<polygon fill="none" stroke="#bfbfbf" points="417,-67.5 417,-86.5 454,-86.5 454,-67.5 417,-67.5"/>
<text text-anchor="middle" x="435.5" y="-74.5" font-family="Helvetica,sans-Serif" font-size="10.00">new</text>
</a>
</g>
</g>
<!-- Node5&#45;&gt;Node8 -->
<g id="edge7" class="edge">
<title>Node5&#45;&gt;Node8</title>
<path fill="none" stroke="midnightblue" d="M329.97,-134.38C350.65,-126.1 381.91,-112.7 407.5,-98 410.45,-96.3 413.48,-94.37 416.4,-92.39"/>
<polygon fill="midnightblue" stroke="midnightblue" points="418.55,-95.16 424.66,-86.5 414.49,-89.46 418.55,-95.16"/>
</g>
<!-- Node9 -->
<g id="node9" class="node">
<title>Node9</title>
<g id="a_node9"><a xlink:href="_t_memory_util_8hpp.html" target="_top" xlink:title=" ">
<polygon fill="none" stroke="black" points="617,-67.5 617,-86.5 724,-86.5 724,-67.5 617,-67.5"/>
<text text-anchor="middle" x="670.5" y="-74.5" font-family="Helvetica,sans-Serif" font-size="10.00">./TMemoryUtil.hpp</text>
</a>
</g>
</g>
<!-- Node5&#45;&gt;Node9 -->
<g id="edge8" class="edge">
<title>Node5&#45;&gt;Node9</title>
<path fill="none" stroke="midnightblue" d="M362.74,-137.37C423.3,-130.59 523.11,-117.59 607.5,-98 617.1,-95.77 627.36,-92.78 636.74,-89.8"/>
<polygon fill="midnightblue" stroke="midnightblue" points="638.1,-93.04 646.52,-86.6 635.92,-86.39 638.1,-93.04"/>
</g>
<!-- Node12 -->
<g id="node12" class="node">
<title>Node12</title>
<g id="a_node12"><a xlink:href="_t_spin_lock_8hpp.html" target="_top" xlink:title=" ">
<polygon fill="none" stroke="black" points="472.5,-67.5 472.5,-86.5 598.5,-86.5 598.5,-67.5 472.5,-67.5"/>
<text text-anchor="middle" x="535.5" y="-74.5" font-family="Helvetica,sans-Serif" font-size="10.00">../types/TSpinLock.hpp</text>
</a>
</g>
</g>
<!-- Node5&#45;&gt;Node12 -->
<g id="edge12" class="edge">
<title>Node5&#45;&gt;Node12</title>
<path fill="none" stroke="midnightblue" d="M337.78,-134.37C378.43,-122.78 450.75,-102.16 495.75,-89.33"/>
<polygon fill="midnightblue" stroke="midnightblue" points="496.8,-92.67 505.46,-86.56 494.88,-85.94 496.8,-92.67"/>
</g>
<!-- Node13 -->
<g id="node13" class="node">
<title>Node13</title>
<g id="a_node13"><a xlink:href="_t_lock_guard_8hpp.html" target="_top" xlink:title=" ">
<polygon fill="none" stroke="black" points="287,-0.5 287,-19.5 388,-19.5 388,-0.5 287,-0.5"/>
<text text-anchor="middle" x="337.5" y="-7.5" font-family="Helvetica,sans-Serif" font-size="10.00">./TLockGuard.hpp</text>
</a>
</g>
</g>
<!-- Node5&#45;&gt;Node13 -->
<g id="edge14" class="edge">
<title>Node5&#45;&gt;Node13</title>
<path fill="none" stroke="midnightblue" d="M252.26,-135.72C208.18,-128.64 151.56,-116.27 137.5,-98 126.11,-83.21 125.84,-70.58 137.5,-56 154.7,-34.51 224.13,-22.56 276.4,-16.47"/>
<polygon fill="midnightblue" stroke="midnightblue" points="277.06,-19.91 286.6,-15.32 276.28,-12.96 277.06,-19.91"/>
</g>
<!-- Node14 -->
<g id="node14" class="node">
<title>Node14</title>
<g id="a_node14"><a xlink:title=" ">
<polygon fill="none" stroke="#bfbfbf" points="146,-56.5 146,-97.5 267,-97.5 267,-56.5 146,-56.5"/>
<text text-anchor="start" x="154" y="-85.5" font-family="Helvetica,sans-Serif" font-size="10.00">../../external/xsimd</text>
<text text-anchor="start" x="154" y="-74.5" font-family="Helvetica,sans-Serif" font-size="10.00">/include/xsimd/config</text>
<text text-anchor="middle" x="206.5" y="-63.5" font-family="Helvetica,sans-Serif" font-size="10.00">/xsimd_arch.hpp</text>
</a>
</g>
</g>
<!-- Node5&#45;&gt;Node14 -->
<g id="edge15" class="edge">
<title>Node5&#45;&gt;Node14</title>
<path fill="none" stroke="midnightblue" d="M293.88,-134.23C281.5,-126.27 262.62,-114.11 245.57,-103.14"/>
<polygon fill="midnightblue" stroke="midnightblue" points="247.17,-100.01 236.87,-97.54 243.38,-105.9 247.17,-100.01"/>
</g>
<!-- Node10 -->
<g id="node10" class="node">
<title>Node10</title>
<g id="a_node10"><a xlink:title=" ">
<polygon fill="none" stroke="#bfbfbf" points="645.5,-0.5 645.5,-19.5 695.5,-19.5 695.5,-0.5 645.5,-0.5"/>
<text text-anchor="middle" x="670.5" y="-7.5" font-family="Helvetica,sans-Serif" font-size="10.00">cstring</text>
</a>
</g>
</g>
<!-- Node9&#45;&gt;Node10 -->
<g id="edge9" class="edge">
<title>Node9&#45;&gt;Node10</title>
<path fill="none" stroke="midnightblue" d="M670.5,-67.23C670.5,-57.68 670.5,-42.12 670.5,-29.78"/>
<polygon fill="midnightblue" stroke="midnightblue" points="674,-29.63 670.5,-19.63 667,-29.63 674,-29.63"/>
</g>
<!-- Node11 -->
<g id="node11" class="node">
<title>Node11</title>
<g id="a_node11"><a xlink:title=" ">
<polygon fill="none" stroke="#bfbfbf" points="720,-0.5 720,-19.5 773,-19.5 773,-0.5 720,-0.5"/>
<text text-anchor="middle" x="746.5" y="-7.5" font-family="Helvetica,sans-Serif" font-size="10.00">stdlib.h</text>
</a>
</g>
</g>
<!-- Node9&#45;&gt;Node11 -->
<g id="edge10" class="edge">
<title>Node9&#45;&gt;Node11</title>
<path fill="none" stroke="midnightblue" d="M680.75,-67.23C692.94,-56.81 713.52,-39.21 728.41,-26.47"/>
<polygon fill="midnightblue" stroke="midnightblue" points="731.09,-28.79 736.41,-19.63 726.54,-23.47 731.09,-28.79"/>
</g>
<!-- Node12&#45;&gt;Node13 -->
<g id="edge13" class="edge">
<title>Node12&#45;&gt;Node13</title>
<path fill="none" stroke="midnightblue" d="M509.21,-67.37C474.27,-55.9 412.42,-35.59 373.26,-22.74"/>
<polygon fill="midnightblue" stroke="midnightblue" points="374.18,-19.36 363.59,-19.56 372,-26.01 374.18,-19.36"/>
</g>
<!-- Node15&#45;&gt;Node2 -->
<g id="edge19" class="edge">
<title>Node15&#45;&gt;Node2</title>
<path fill="none" stroke="midnightblue" d="M309.46,-190.49C260.11,-169.54 132.53,-115.37 74.28,-90.64"/>
<polygon fill="midnightblue" stroke="midnightblue" points="75.47,-87.35 64.9,-86.66 72.74,-93.79 75.47,-87.35"/>
</g>
<!-- Node15&#45;&gt;Node5 -->
<g id="edge18" class="edge">
<title>Node15&#45;&gt;Node5</title>
<path fill="none" stroke="midnightblue" d="M325.87,-190.08C322.89,-182.77 318.57,-172.18 314.88,-163.1"/>
<polygon fill="midnightblue" stroke="midnightblue" points="318.08,-161.69 311.07,-153.75 311.6,-164.33 318.08,-161.69"/>
</g>
<!-- Node15&#45;&gt;Node11 -->
<g id="edge17" class="edge">
<title>Node15&#45;&gt;Node11</title>
<path fill="none" stroke="midnightblue" d="M392.64,-191.75C494.48,-178.71 688.19,-147.92 733.5,-98 750.23,-79.57 750.93,-49.33 749.22,-29.8"/>
<polygon fill="midnightblue" stroke="midnightblue" points="752.68,-29.24 748.05,-19.71 745.73,-30.05 752.68,-29.24"/>
</g>
<!-- Node16&#45;&gt;Node2 -->
<g id="edge22" class="edge">
<title>Node16&#45;&gt;Node2</title>
<path fill="none" stroke="midnightblue" d="M134.52,-190.3C118.44,-170.24 78.56,-120.49 57.7,-94.46"/>
<polygon fill="midnightblue" stroke="midnightblue" points="60.4,-92.24 51.41,-86.62 54.94,-96.61 60.4,-92.24"/>
</g>
<!-- Node16&#45;&gt;Node5 -->
<g id="edge21" class="edge">
<title>Node16&#45;&gt;Node5</title>
<path fill="none" stroke="midnightblue" d="M167.8,-190.44C195.85,-181.32 240.44,-166.81 271.68,-156.65"/>
<polygon fill="midnightblue" stroke="midnightblue" points="272.89,-159.94 281.32,-153.52 270.73,-153.28 272.89,-159.94"/>
</g>
</g>
</svg>
