<?xml version="1.0" encoding="UTF-8" standalone="no"?>
<!DOCTYPE svg PUBLIC "-//W3C//DTD SVG 1.1//EN"
 "http://www.w3.org/Graphics/SVG/1.1/DTD/svg11.dtd">
<!-- Generated by graphviz version 2.50.0 (0)
 -->
<!-- Title: TLog.hpp Pages: 1 -->
<svg width="348pt" height="140pt"
 viewBox="0.00 0.00 347.50 140.00" xmlns="http://www.w3.org/2000/svg" xmlns:xlink="http://www.w3.org/1999/xlink">
<g id="graph0" class="graph" transform="scale(1 1) rotate(0) translate(4 136)">
<title>TLog.hpp</title>
<!-- Node1 -->
<g id="node1" class="node">
<title>Node1</title>
<g id="a_node1"><a xlink:title=" ">
<polygon fill="#bfbfbf" stroke="black" points="139,-112.5 139,-131.5 200,-131.5 200,-112.5 139,-112.5"/>
<text text-anchor="middle" x="169.5" y="-119.5" font-family="Helvetica,sans-Serif" font-size="10.00">TLog.hpp</text>
</a>
</g>
</g>
<!-- Node2 -->
<g id="node2" class="node">
<title>Node2</title>
<g id="a_node2"><a xlink:title=" ">
<polygon fill="none" stroke="#bfbfbf" points="0,-56.5 0,-75.5 55,-75.5 55,-56.5 0,-56.5"/>
<text text-anchor="middle" x="27.5" y="-63.5" font-family="Helvetica,sans-Serif" font-size="10.00">fstream</text>
</a>
</g>
</g>
<!-- Node1&#45;&gt;Node2 -->
<g id="edge1" class="edge">
<title>Node1&#45;&gt;Node2</title>
<path fill="none" stroke="midnightblue" d="M147,-112.44C123.42,-103.48 86.18,-89.31 59.54,-79.18"/>
<polygon fill="midnightblue" stroke="midnightblue" points="60.49,-75.8 49.9,-75.52 58,-82.34 60.49,-75.8"/>
</g>
<!-- Node3 -->
<g id="node3" class="node">
<title>Node3</title>
<g id="a_node3"><a xlink:title=" ">
<polygon fill="none" stroke="#bfbfbf" points="73.5,-56.5 73.5,-75.5 121.5,-75.5 121.5,-56.5 73.5,-56.5"/>
<text text-anchor="middle" x="97.5" y="-63.5" font-family="Helvetica,sans-Serif" font-size="10.00">mutex</text>
</a>
</g>
</g>
<!-- Node1&#45;&gt;Node3 -->
<g id="edge2" class="edge">
<title>Node1&#45;&gt;Node3</title>
<path fill="none" stroke="midnightblue" d="M157.93,-112.32C147.08,-104.18 130.62,-91.84 117.62,-82.09"/>
<polygon fill="midnightblue" stroke="midnightblue" points="119.38,-79.03 109.28,-75.83 115.18,-84.63 119.38,-79.03"/>
</g>
<!-- Node4 -->
<g id="node4" class="node">
<title>Node4</title>
<g id="a_node4"><a xlink:title=" ">
<polygon fill="none" stroke="#bfbfbf" points="139.5,-56.5 139.5,-75.5 199.5,-75.5 199.5,-56.5 139.5,-56.5"/>
<text text-anchor="middle" x="169.5" y="-63.5" font-family="Helvetica,sans-Serif" font-size="10.00">iostream</text>
</a>
</g>
</g>
<!-- Node1&#45;&gt;Node4 -->
<g id="edge3" class="edge">
<title>Node1&#45;&gt;Node4</title>
<path fill="none" stroke="midnightblue" d="M169.5,-112.08C169.5,-105.01 169.5,-94.86 169.5,-85.99"/>
<polygon fill="midnightblue" stroke="midnightblue" points="173,-85.75 169.5,-75.75 166,-85.75 173,-85.75"/>
</g>
<!-- Node5 -->
<g id="node5" class="node">
<title>Node5</title>
<g id="a_node5"><a xlink:title=" ">
<polygon fill="none" stroke="#bfbfbf" points="217.5,-56.5 217.5,-75.5 261.5,-75.5 261.5,-56.5 217.5,-56.5"/>
<text text-anchor="middle" x="239.5" y="-63.5" font-family="Helvetica,sans-Serif" font-size="10.00">string</text>
</a>
</g>
</g>
<!-- Node1&#45;&gt;Node5 -->
<g id="edge4" class="edge">
<title>Node1&#45;&gt;Node5</title>
<path fill="none" stroke="midnightblue" d="M180.75,-112.32C191.3,-104.18 207.3,-91.84 219.94,-82.09"/>
<polygon fill="midnightblue" stroke="midnightblue" points="222.27,-84.71 228.05,-75.83 217.99,-79.17 222.27,-84.71"/>
</g>
<!-- Node6 -->
<g id="node6" class="node">
<title>Node6</title>
<g id="a_node6"><a xlink:href="_t_print_8h.html" target="_top" xlink:title=" ">
<polygon fill="none" stroke="black" points="279.5,-56.5 279.5,-75.5 339.5,-75.5 339.5,-56.5 279.5,-56.5"/>
<text text-anchor="middle" x="309.5" y="-63.5" font-family="Helvetica,sans-Serif" font-size="10.00">./TPrint.h</text>
</a>
</g>
</g>
<!-- Node1&#45;&gt;Node6 -->
<g id="edge5" class="edge">
<title>Node1&#45;&gt;Node6</title>
<path fill="none" stroke="midnightblue" d="M191.68,-112.44C214.93,-103.48 251.65,-89.31 277.92,-79.18"/>
<polygon fill="midnightblue" stroke="midnightblue" points="279.35,-82.38 287.42,-75.52 276.83,-75.85 279.35,-82.38"/>
</g>
<!-- Node7 -->
<g id="node7" class="node">
<title>Node7</title>
<g id="a_node7"><a xlink:title=" ">
<polygon fill="none" stroke="#bfbfbf" points="284.5,-0.5 284.5,-19.5 334.5,-19.5 334.5,-0.5 284.5,-0.5"/>
<text text-anchor="middle" x="309.5" y="-7.5" font-family="Helvetica,sans-Serif" font-size="10.00">stdio.h</text>
</a>
</g>
</g>
<!-- Node6&#45;&gt;Node7 -->
<g id="edge6" class="edge">
<title>Node6&#45;&gt;Node7</title>
<path fill="none" stroke="midnightblue" d="M309.5,-56.08C309.5,-49.01 309.5,-38.86 309.5,-29.99"/>
<polygon fill="midnightblue" stroke="midnightblue" points="313,-29.75 309.5,-19.75 306,-29.75 313,-29.75"/>
</g>
</g>
</svg>
