<?xml version="1.0" encoding="UTF-8" standalone="no"?>
<!DOCTYPE svg PUBLIC "-//W3C//DTD SVG 1.1//EN"
 "http://www.w3.org/Graphics/SVG/1.1/DTD/svg11.dtd">
<!-- Generated by graphviz version 2.50.0 (0)
 -->
<!-- Title: TMemoryPoolStd.hpp Pages: 1 -->
<svg width="752pt" height="218pt"
 viewBox="0.00 0.00 752.00 218.00" xmlns="http://www.w3.org/2000/svg" xmlns:xlink="http://www.w3.org/1999/xlink">
<g id="graph0" class="graph" transform="scale(1 1) rotate(0) translate(4 214)">
<title>TMemoryPoolStd.hpp</title>
<!-- Node1 -->
<g id="node1" class="node">
<title>Node1</title>
<g id="a_node1"><a xlink:title=" ">
<polygon fill="#bfbfbf" stroke="black" points="312.5,-190.5 312.5,-209.5 432.5,-209.5 432.5,-190.5 312.5,-190.5"/>
<text text-anchor="middle" x="372.5" y="-197.5" font-family="Helvetica,sans-Serif" font-size="10.00">TMemoryPoolStd.hpp</text>
</a>
</g>
</g>
<!-- Node2 -->
<g id="node2" class="node">
<title>Node2</title>
<g id="a_node2"><a xlink:title=" ">
<polygon fill="none" stroke="#bfbfbf" points="0,-0.5 0,-19.5 53,-19.5 53,-0.5 0,-0.5"/>
<text text-anchor="middle" x="26.5" y="-7.5" font-family="Helvetica,sans-Serif" font-size="10.00">stdlib.h</text>
</a>
</g>
</g>
<!-- Node1&#45;&gt;Node2 -->
<g id="edge1" class="edge">
<title>Node1&#45;&gt;Node2</title>
<path fill="none" stroke="midnightblue" d="M312.24,-190.96C219.28,-177.18 47.79,-145.83 11.5,-98 -3.73,-77.92 6.79,-47.74 16.27,-28.72"/>
<polygon fill="midnightblue" stroke="midnightblue" points="19.48,-30.14 21.12,-19.67 13.31,-26.83 19.48,-30.14"/>
</g>
<!-- Node3 -->
<g id="node3" class="node">
<title>Node3</title>
<g id="a_node3"><a xlink:href="_t_memory_pool_8hpp.html" target="_top" xlink:title=" ">
<polygon fill="none" stroke="black" points="317.5,-134.5 317.5,-153.5 427.5,-153.5 427.5,-134.5 317.5,-134.5"/>
<text text-anchor="middle" x="372.5" y="-141.5" font-family="Helvetica,sans-Serif" font-size="10.00">./TMemoryPool.hpp</text>
</a>
</g>
</g>
<!-- Node1&#45;&gt;Node3 -->
<g id="edge2" class="edge">
<title>Node1&#45;&gt;Node3</title>
<path fill="none" stroke="midnightblue" d="M372.5,-190.08C372.5,-183.01 372.5,-172.86 372.5,-163.99"/>
<polygon fill="midnightblue" stroke="midnightblue" points="376,-163.75 372.5,-153.75 369,-163.75 376,-163.75"/>
</g>
<!-- Node9 -->
<g id="node9" class="node">
<title>Node9</title>
<g id="a_node9"><a xlink:href="_t_assert_8h.html" target="_top" xlink:title=" ">
<polygon fill="none" stroke="black" points="655,-67.5 655,-86.5 744,-86.5 744,-67.5 655,-67.5"/>
<text text-anchor="middle" x="699.5" y="-74.5" font-family="Helvetica,sans-Serif" font-size="10.00">../util/TAssert.h</text>
</a>
</g>
</g>
<!-- Node1&#45;&gt;Node9 -->
<g id="edge15" class="edge">
<title>Node1&#45;&gt;Node9</title>
<path fill="none" stroke="midnightblue" d="M395.51,-190.49C442.49,-173.11 552.85,-132.3 645.5,-98 652.3,-95.48 659.59,-92.78 666.54,-90.21"/>
<polygon fill="midnightblue" stroke="midnightblue" points="668.21,-93.32 676.38,-86.57 665.78,-86.76 668.21,-93.32"/>
</g>
<!-- Node4 -->
<g id="node4" class="node">
<title>Node4</title>
<g id="a_node4"><a xlink:title=" ">
<polygon fill="none" stroke="#bfbfbf" points="201,-67.5 201,-86.5 246,-86.5 246,-67.5 201,-67.5"/>
<text text-anchor="middle" x="223.5" y="-74.5" font-family="Helvetica,sans-Serif" font-size="10.00">utility</text>
</a>
</g>
</g>
<!-- Node3&#45;&gt;Node4 -->
<g id="edge3" class="edge">
<title>Node3&#45;&gt;Node4</title>
<path fill="none" stroke="midnightblue" d="M345.86,-134.39C321.74,-126.21 285.49,-112.97 255.5,-98 251.85,-96.18 248.07,-94.05 244.46,-91.89"/>
<polygon fill="midnightblue" stroke="midnightblue" points="246.28,-88.9 235.95,-86.56 242.56,-94.83 246.28,-88.9"/>
</g>
<!-- Node5 -->
<g id="node5" class="node">
<title>Node5</title>
<g id="a_node5"><a xlink:title=" ">
<polygon fill="none" stroke="#bfbfbf" points="586.5,-67.5 586.5,-86.5 636.5,-86.5 636.5,-67.5 586.5,-67.5"/>
<text text-anchor="middle" x="611.5" y="-74.5" font-family="Helvetica,sans-Serif" font-size="10.00">cstdint</text>
</a>
</g>
</g>
<!-- Node3&#45;&gt;Node5 -->
<g id="edge4" class="edge">
<title>Node3&#45;&gt;Node5</title>
<path fill="none" stroke="midnightblue" d="M427.83,-135.7C469.9,-129.01 528.66,-117.16 577.5,-98 581.85,-96.29 586.29,-94.08 590.48,-91.74"/>
<polygon fill="midnightblue" stroke="midnightblue" points="592.29,-94.74 599.07,-86.6 588.69,-88.73 592.29,-94.74"/>
</g>
<!-- Node6 -->
<g id="node6" class="node">
<title>Node6</title>
<g id="a_node6"><a xlink:title=" ">
<polygon fill="none" stroke="#bfbfbf" points="21,-67.5 21,-86.5 58,-86.5 58,-67.5 21,-67.5"/>
<text text-anchor="middle" x="39.5" y="-74.5" font-family="Helvetica,sans-Serif" font-size="10.00">new</text>
</a>
</g>
</g>
<!-- Node3&#45;&gt;Node6 -->
<g id="edge5" class="edge">
<title>Node3&#45;&gt;Node6</title>
<path fill="none" stroke="midnightblue" d="M317.31,-142.88C254.35,-140.96 149.38,-132.24 66.5,-98 63.27,-96.66 60.06,-94.85 57.06,-92.87"/>
<polygon fill="midnightblue" stroke="midnightblue" points="58.89,-89.87 48.79,-86.67 54.69,-95.47 58.89,-89.87"/>
</g>
<!-- Node7 -->
<g id="node7" class="node">
<title>Node7</title>
<g id="a_node7"><a xlink:href="_t_memory_util_8hpp.html" target="_top" xlink:title=" ">
<polygon fill="none" stroke="black" points="76,-67.5 76,-86.5 183,-86.5 183,-67.5 76,-67.5"/>
<text text-anchor="middle" x="129.5" y="-74.5" font-family="Helvetica,sans-Serif" font-size="10.00">./TMemoryUtil.hpp</text>
</a>
</g>
</g>
<!-- Node3&#45;&gt;Node7 -->
<g id="edge6" class="edge">
<title>Node3&#45;&gt;Node7</title>
<path fill="none" stroke="midnightblue" d="M334.86,-134.43C298.11,-125.89 240.7,-112.03 191.5,-98 182.65,-95.48 173.16,-92.54 164.33,-89.7"/>
<polygon fill="midnightblue" stroke="midnightblue" points="165.31,-86.34 154.72,-86.57 163.14,-92.99 165.31,-86.34"/>
</g>
<!-- Node3&#45;&gt;Node9 -->
<g id="edge9" class="edge">
<title>Node3&#45;&gt;Node9</title>
<path fill="none" stroke="midnightblue" d="M427.54,-137.07C483.14,-130.34 571.21,-117.69 645.5,-98 653.52,-95.88 662.01,-93.03 669.83,-90.15"/>
<polygon fill="midnightblue" stroke="midnightblue" points="671.19,-93.37 679.28,-86.54 668.69,-86.83 671.19,-93.37"/>
</g>
<!-- Node11 -->
<g id="node11" class="node">
<title>Node11</title>
<g id="a_node11"><a xlink:href="_t_spin_lock_8hpp.html" target="_top" xlink:title=" ">
<polygon fill="none" stroke="black" points="264.5,-67.5 264.5,-86.5 390.5,-86.5 390.5,-67.5 264.5,-67.5"/>
<text text-anchor="middle" x="327.5" y="-74.5" font-family="Helvetica,sans-Serif" font-size="10.00">../types/TSpinLock.hpp</text>
</a>
</g>
</g>
<!-- Node3&#45;&gt;Node11 -->
<g id="edge11" class="edge">
<title>Node3&#45;&gt;Node11</title>
<path fill="none" stroke="midnightblue" d="M366.43,-134.23C359.48,-124.2 347.93,-107.51 339.21,-94.92"/>
<polygon fill="midnightblue" stroke="midnightblue" points="342.04,-92.86 333.47,-86.63 336.29,-96.84 342.04,-92.86"/>
</g>
<!-- Node12 -->
<g id="node12" class="node">
<title>Node12</title>
<g id="a_node12"><a xlink:href="_t_lock_guard_8hpp.html" target="_top" xlink:title=" ">
<polygon fill="none" stroke="black" points="322,-0.5 322,-19.5 423,-19.5 423,-0.5 322,-0.5"/>
<text text-anchor="middle" x="372.5" y="-7.5" font-family="Helvetica,sans-Serif" font-size="10.00">./TLockGuard.hpp</text>
</a>
</g>
</g>
<!-- Node3&#45;&gt;Node12 -->
<g id="edge13" class="edge">
<title>Node3&#45;&gt;Node12</title>
<path fill="none" stroke="midnightblue" d="M379.65,-134.36C386.27,-125.76 395.66,-111.87 399.5,-98 404.48,-80.01 404.48,-73.99 399.5,-56 396.71,-45.92 390.99,-35.83 385.53,-27.77"/>
<polygon fill="midnightblue" stroke="midnightblue" points="388.35,-25.69 379.65,-19.64 382.68,-29.79 388.35,-25.69"/>
</g>
<!-- Node13 -->
<g id="node13" class="node">
<title>Node13</title>
<g id="a_node13"><a xlink:title=" ">
<polygon fill="none" stroke="#bfbfbf" points="447,-56.5 447,-97.5 568,-97.5 568,-56.5 447,-56.5"/>
<text text-anchor="start" x="455" y="-85.5" font-family="Helvetica,sans-Serif" font-size="10.00">../../external/xsimd</text>
<text text-anchor="start" x="455" y="-74.5" font-family="Helvetica,sans-Serif" font-size="10.00">/include/xsimd/config</text>
<text text-anchor="middle" x="507.5" y="-63.5" font-family="Helvetica,sans-Serif" font-size="10.00">/xsimd_arch.hpp</text>
</a>
</g>
</g>
<!-- Node3&#45;&gt;Node13 -->
<g id="edge14" class="edge">
<title>Node3&#45;&gt;Node13</title>
<path fill="none" stroke="midnightblue" d="M390.43,-134.37C407.52,-126.14 434.07,-113.35 457.57,-102.04"/>
<polygon fill="midnightblue" stroke="midnightblue" points="459.25,-105.12 466.74,-97.63 456.21,-98.81 459.25,-105.12"/>
</g>
<!-- Node7&#45;&gt;Node2 -->
<g id="edge8" class="edge">
<title>Node7&#45;&gt;Node2</title>
<path fill="none" stroke="midnightblue" d="M115.61,-67.23C98.47,-56.42 69.1,-37.88 48.79,-25.07"/>
<polygon fill="midnightblue" stroke="midnightblue" points="50.5,-22 40.17,-19.63 46.76,-27.92 50.5,-22"/>
</g>
<!-- Node8 -->
<g id="node8" class="node">
<title>Node8</title>
<g id="a_node8"><a xlink:title=" ">
<polygon fill="none" stroke="#bfbfbf" points="104.5,-0.5 104.5,-19.5 154.5,-19.5 154.5,-0.5 104.5,-0.5"/>
<text text-anchor="middle" x="129.5" y="-7.5" font-family="Helvetica,sans-Serif" font-size="10.00">cstring</text>
</a>
</g>
</g>
<!-- Node7&#45;&gt;Node8 -->
<g id="edge7" class="edge">
<title>Node7&#45;&gt;Node8</title>
<path fill="none" stroke="midnightblue" d="M129.5,-67.23C129.5,-57.68 129.5,-42.12 129.5,-29.78"/>
<polygon fill="midnightblue" stroke="midnightblue" points="133,-29.63 129.5,-19.63 126,-29.63 133,-29.63"/>
</g>
<!-- Node10 -->
<g id="node10" class="node">
<title>Node10</title>
<g id="a_node10"><a xlink:title=" ">
<polygon fill="none" stroke="#bfbfbf" points="673.5,-0.5 673.5,-19.5 725.5,-19.5 725.5,-0.5 673.5,-0.5"/>
<text text-anchor="middle" x="699.5" y="-7.5" font-family="Helvetica,sans-Serif" font-size="10.00">cassert</text>
</a>
</g>
</g>
<!-- Node9&#45;&gt;Node10 -->
<g id="edge10" class="edge">
<title>Node9&#45;&gt;Node10</title>
<path fill="none" stroke="midnightblue" d="M699.5,-67.23C699.5,-57.68 699.5,-42.12 699.5,-29.78"/>
<polygon fill="midnightblue" stroke="midnightblue" points="703,-29.63 699.5,-19.63 696,-29.63 703,-29.63"/>
</g>
<!-- Node11&#45;&gt;Node12 -->
<g id="edge12" class="edge">
<title>Node11&#45;&gt;Node12</title>
<path fill="none" stroke="midnightblue" d="M333.57,-67.23C340.52,-57.2 352.07,-40.51 360.79,-27.92"/>
<polygon fill="midnightblue" stroke="midnightblue" points="363.71,-29.84 366.53,-19.63 357.96,-25.86 363.71,-29.84"/>
</g>
</g>
</svg>
