<?xml version="1.0" encoding="UTF-8" standalone="no"?>
<!DOCTYPE svg PUBLIC "-//W3C//DTD SVG 1.1//EN"
 "http://www.w3.org/Graphics/SVG/1.1/DTD/svg11.dtd">
<!-- Generated by graphviz version 2.50.0 (0)
 -->
<!-- Title: TMemoryPool.hpp Pages: 1 -->
<svg width="731pt" height="162pt"
 viewBox="0.00 0.00 731.00 162.00" xmlns="http://www.w3.org/2000/svg" xmlns:xlink="http://www.w3.org/1999/xlink">
<g id="graph0" class="graph" transform="scale(1 1) rotate(0) translate(4 158)">
<title>TMemoryPool.hpp</title>
<!-- Node1 -->
<g id="node1" class="node">
<title>Node1</title>
<g id="a_node1"><a xlink:title=" ">
<polygon fill="#bfbfbf" stroke="black" points="246.5,-134.5 246.5,-153.5 350.5,-153.5 350.5,-134.5 246.5,-134.5"/>
<text text-anchor="middle" x="298.5" y="-141.5" font-family="Helvetica,sans-Serif" font-size="10.00">TMemoryPool.hpp</text>
</a>
</g>
</g>
<!-- Node2 -->
<g id="node2" class="node">
<title>Node2</title>
<g id="a_node2"><a xlink:title=" ">
<polygon fill="none" stroke="#bfbfbf" points="0,-67.5 0,-86.5 45,-86.5 45,-67.5 0,-67.5"/>
<text text-anchor="middle" x="22.5" y="-74.5" font-family="Helvetica,sans-Serif" font-size="10.00">utility</text>
</a>
</g>
</g>
<!-- Node1&#45;&gt;Node2 -->
<g id="edge1" class="edge">
<title>Node1&#45;&gt;Node2</title>
<path fill="none" stroke="midnightblue" d="M246.5,-139.1C196.02,-134.01 117.94,-122.64 54.5,-98 50.38,-96.4 46.2,-94.25 42.29,-91.96"/>
<polygon fill="midnightblue" stroke="midnightblue" points="44.1,-88.96 33.79,-86.53 40.34,-94.86 44.1,-88.96"/>
</g>
<!-- Node3 -->
<g id="node3" class="node">
<title>Node3</title>
<g id="a_node3"><a xlink:title=" ">
<polygon fill="none" stroke="#bfbfbf" points="63.5,-67.5 63.5,-86.5 113.5,-86.5 113.5,-67.5 63.5,-67.5"/>
<text text-anchor="middle" x="88.5" y="-74.5" font-family="Helvetica,sans-Serif" font-size="10.00">cstdint</text>
</a>
</g>
</g>
<!-- Node1&#45;&gt;Node3 -->
<g id="edge2" class="edge">
<title>Node1&#45;&gt;Node3</title>
<path fill="none" stroke="midnightblue" d="M250.27,-134.48C214.23,-127.22 164.2,-115.19 122.5,-98 118.37,-96.3 114.13,-94.16 110.12,-91.93"/>
<polygon fill="midnightblue" stroke="midnightblue" points="111.68,-88.78 101.29,-86.69 108.1,-94.8 111.68,-88.78"/>
</g>
<!-- Node4 -->
<g id="node4" class="node">
<title>Node4</title>
<g id="a_node4"><a xlink:title=" ">
<polygon fill="none" stroke="#bfbfbf" points="132,-67.5 132,-86.5 169,-86.5 169,-67.5 132,-67.5"/>
<text text-anchor="middle" x="150.5" y="-74.5" font-family="Helvetica,sans-Serif" font-size="10.00">new</text>
</a>
</g>
</g>
<!-- Node1&#45;&gt;Node4 -->
<g id="edge3" class="edge">
<title>Node1&#45;&gt;Node4</title>
<path fill="none" stroke="midnightblue" d="M268.65,-134.49C243.52,-126.72 207.05,-114.02 177.5,-98 174.53,-96.39 171.51,-94.48 168.63,-92.49"/>
<polygon fill="midnightblue" stroke="midnightblue" points="170.67,-89.65 160.56,-86.51 166.51,-95.27 170.67,-89.65"/>
</g>
<!-- Node5 -->
<g id="node5" class="node">
<title>Node5</title>
<g id="a_node5"><a xlink:href="_t_memory_util_8hpp.html" target="_top" xlink:title=" ">
<polygon fill="none" stroke="black" points="187,-67.5 187,-86.5 294,-86.5 294,-67.5 187,-67.5"/>
<text text-anchor="middle" x="240.5" y="-74.5" font-family="Helvetica,sans-Serif" font-size="10.00">./TMemoryUtil.hpp</text>
</a>
</g>
</g>
<!-- Node1&#45;&gt;Node5 -->
<g id="edge4" class="edge">
<title>Node1&#45;&gt;Node5</title>
<path fill="none" stroke="midnightblue" d="M290.68,-134.23C281.55,-124 266.26,-106.86 254.95,-94.19"/>
<polygon fill="midnightblue" stroke="midnightblue" points="257.47,-91.76 248.2,-86.63 252.24,-96.42 257.47,-91.76"/>
</g>
<!-- Node8 -->
<g id="node8" class="node">
<title>Node8</title>
<g id="a_node8"><a xlink:href="_t_assert_8h.html" target="_top" xlink:title=" ">
<polygon fill="none" stroke="black" points="312,-67.5 312,-86.5 401,-86.5 401,-67.5 312,-67.5"/>
<text text-anchor="middle" x="356.5" y="-74.5" font-family="Helvetica,sans-Serif" font-size="10.00">../util/TAssert.h</text>
</a>
</g>
</g>
<!-- Node1&#45;&gt;Node8 -->
<g id="edge7" class="edge">
<title>Node1&#45;&gt;Node8</title>
<path fill="none" stroke="midnightblue" d="M306.32,-134.23C315.45,-124 330.74,-106.86 342.05,-94.19"/>
<polygon fill="midnightblue" stroke="midnightblue" points="344.76,-96.42 348.8,-86.63 339.53,-91.76 344.76,-96.42"/>
</g>
<!-- Node10 -->
<g id="node10" class="node">
<title>Node10</title>
<g id="a_node10"><a xlink:href="_t_spin_lock_8hpp.html" target="_top" xlink:title=" ">
<polygon fill="none" stroke="black" points="419.5,-67.5 419.5,-86.5 545.5,-86.5 545.5,-67.5 419.5,-67.5"/>
<text text-anchor="middle" x="482.5" y="-74.5" font-family="Helvetica,sans-Serif" font-size="10.00">../types/TSpinLock.hpp</text>
</a>
</g>
</g>
<!-- Node1&#45;&gt;Node10 -->
<g id="edge9" class="edge">
<title>Node1&#45;&gt;Node10</title>
<path fill="none" stroke="midnightblue" d="M322.93,-134.37C355.19,-122.97 412.15,-102.85 448.57,-89.99"/>
<polygon fill="midnightblue" stroke="midnightblue" points="450,-93.19 458.26,-86.56 447.66,-86.59 450,-93.19"/>
</g>
<!-- Node11 -->
<g id="node11" class="node">
<title>Node11</title>
<g id="a_node11"><a xlink:href="_t_lock_guard_8hpp.html" target="_top" xlink:title=" ">
<polygon fill="none" stroke="black" points="477,-0.5 477,-19.5 578,-19.5 578,-0.5 477,-0.5"/>
<text text-anchor="middle" x="527.5" y="-7.5" font-family="Helvetica,sans-Serif" font-size="10.00">./TLockGuard.hpp</text>
</a>
</g>
</g>
<!-- Node1&#45;&gt;Node11 -->
<g id="edge11" class="edge">
<title>Node1&#45;&gt;Node11</title>
<path fill="none" stroke="midnightblue" d="M350.68,-141.46C417.86,-138.25 529,-128.37 554.5,-98 571.53,-77.71 554.72,-46.74 541.06,-27.74"/>
<polygon fill="midnightblue" stroke="midnightblue" points="543.79,-25.55 534.96,-19.7 538.22,-29.78 543.79,-25.55"/>
</g>
<!-- Node12 -->
<g id="node12" class="node">
<title>Node12</title>
<g id="a_node12"><a xlink:title=" ">
<polygon fill="none" stroke="#bfbfbf" points="602,-56.5 602,-97.5 723,-97.5 723,-56.5 602,-56.5"/>
<text text-anchor="start" x="610" y="-85.5" font-family="Helvetica,sans-Serif" font-size="10.00">../../external/xsimd</text>
<text text-anchor="start" x="610" y="-74.5" font-family="Helvetica,sans-Serif" font-size="10.00">/include/xsimd/config</text>
<text text-anchor="middle" x="662.5" y="-63.5" font-family="Helvetica,sans-Serif" font-size="10.00">/xsimd_arch.hpp</text>
</a>
</g>
</g>
<!-- Node1&#45;&gt;Node12 -->
<g id="edge12" class="edge">
<title>Node1&#45;&gt;Node12</title>
<path fill="none" stroke="midnightblue" d="M350.75,-136.56C408.86,-129.01 505.39,-115.29 587.5,-98 588.94,-97.7 590.4,-97.38 591.86,-97.06"/>
<polygon fill="midnightblue" stroke="midnightblue" points="592.68,-100.46 601.64,-94.81 591.11,-93.64 592.68,-100.46"/>
</g>
<!-- Node6 -->
<g id="node6" class="node">
<title>Node6</title>
<g id="a_node6"><a xlink:title=" ">
<polygon fill="none" stroke="#bfbfbf" points="168.5,-0.5 168.5,-19.5 218.5,-19.5 218.5,-0.5 168.5,-0.5"/>
<text text-anchor="middle" x="193.5" y="-7.5" font-family="Helvetica,sans-Serif" font-size="10.00">cstring</text>
</a>
</g>
</g>
<!-- Node5&#45;&gt;Node6 -->
<g id="edge5" class="edge">
<title>Node5&#45;&gt;Node6</title>
<path fill="none" stroke="midnightblue" d="M234.16,-67.23C226.9,-57.2 214.84,-40.51 205.74,-27.92"/>
<polygon fill="midnightblue" stroke="midnightblue" points="208.43,-25.68 199.74,-19.63 202.76,-29.78 208.43,-25.68"/>
</g>
<!-- Node7 -->
<g id="node7" class="node">
<title>Node7</title>
<g id="a_node7"><a xlink:title=" ">
<polygon fill="none" stroke="#bfbfbf" points="237,-0.5 237,-19.5 290,-19.5 290,-0.5 237,-0.5"/>
<text text-anchor="middle" x="263.5" y="-7.5" font-family="Helvetica,sans-Serif" font-size="10.00">stdlib.h</text>
</a>
</g>
</g>
<!-- Node5&#45;&gt;Node7 -->
<g id="edge6" class="edge">
<title>Node5&#45;&gt;Node7</title>
<path fill="none" stroke="midnightblue" d="M243.6,-67.23C247.02,-57.59 252.6,-41.8 256.99,-29.41"/>
<polygon fill="midnightblue" stroke="midnightblue" points="260.41,-30.22 260.45,-19.63 253.81,-27.89 260.41,-30.22"/>
</g>
<!-- Node9 -->
<g id="node9" class="node">
<title>Node9</title>
<g id="a_node9"><a xlink:title=" ">
<polygon fill="none" stroke="#bfbfbf" points="330.5,-0.5 330.5,-19.5 382.5,-19.5 382.5,-0.5 330.5,-0.5"/>
<text text-anchor="middle" x="356.5" y="-7.5" font-family="Helvetica,sans-Serif" font-size="10.00">cassert</text>
</a>
</g>
</g>
<!-- Node8&#45;&gt;Node9 -->
<g id="edge8" class="edge">
<title>Node8&#45;&gt;Node9</title>
<path fill="none" stroke="midnightblue" d="M356.5,-67.23C356.5,-57.68 356.5,-42.12 356.5,-29.78"/>
<polygon fill="midnightblue" stroke="midnightblue" points="360,-29.63 356.5,-19.63 353,-29.63 360,-29.63"/>
</g>
<!-- Node10&#45;&gt;Node11 -->
<g id="edge10" class="edge">
<title>Node10&#45;&gt;Node11</title>
<path fill="none" stroke="midnightblue" d="M488.57,-67.23C495.52,-57.2 507.07,-40.51 515.79,-27.92"/>
<polygon fill="midnightblue" stroke="midnightblue" points="518.71,-29.84 521.53,-19.63 512.96,-25.86 518.71,-29.84"/>
</g>
</g>
</svg>
