<?xml version="1.0" encoding="UTF-8" standalone="no"?>
<!DOCTYPE svg PUBLIC "-//W3C//DTD SVG 1.1//EN"
 "http://www.w3.org/Graphics/SVG/1.1/DTD/svg11.dtd">
<!-- Generated by graphviz version 2.50.0 (0)
 -->
<!-- Title: TMemoryTracing.hpp Pages: 1 -->
<svg width="876pt" height="386pt"
 viewBox="0.00 0.00 876.33 386.00" xmlns="http://www.w3.org/2000/svg" xmlns:xlink="http://www.w3.org/1999/xlink">
<g id="graph0" class="graph" transform="scale(1 1) rotate(0) translate(4 382)">
<title>TMemoryTracing.hpp</title>
<!-- Node1 -->
<g id="node1" class="node">
<title>Node1</title>
<g id="a_node1"><a xlink:title=" ">
<polygon fill="#bfbfbf" stroke="black" points="8,-358.5 8,-377.5 126,-377.5 126,-358.5 8,-358.5"/>
<text text-anchor="middle" x="67" y="-365.5" font-family="Helvetica,sans-Serif" font-size="10.00">TMemoryTracing.hpp</text>
</a>
</g>
</g>
<!-- Node2 -->
<g id="node2" class="node">
<title>Node2</title>
<g id="a_node2"><a xlink:href="_t_assert_8h.html" target="_top" xlink:title=" ">
<polygon fill="none" stroke="black" points="128.5,-67.5 128.5,-86.5 217.5,-86.5 217.5,-67.5 128.5,-67.5"/>
<text text-anchor="middle" x="173" y="-74.5" font-family="Helvetica,sans-Serif" font-size="10.00">../util/TAssert.h</text>
</a>
</g>
</g>
<!-- Node1&#45;&gt;Node2 -->
<g id="edge1" class="edge">
<title>Node1&#45;&gt;Node2</title>
<path fill="none" stroke="midnightblue" d="M57.11,-358.4C38.48,-341.18 0,-300.38 0,-257 0,-257 0,-257 0,-199 0,-137.67 73.92,-104.81 125.13,-89.42"/>
<polygon fill="midnightblue" stroke="midnightblue" points="126.39,-92.69 135.03,-86.57 124.46,-85.97 126.39,-92.69"/>
</g>
<!-- Node4 -->
<g id="node4" class="node">
<title>Node4</title>
<g id="a_node4"><a xlink:href="_t_heap_buffer_8hpp.html" target="_top" xlink:title=" ">
<polygon fill="none" stroke="black" points="65.5,-302.5 65.5,-321.5 202.5,-321.5 202.5,-302.5 65.5,-302.5"/>
<text text-anchor="middle" x="134" y="-309.5" font-family="Helvetica,sans-Serif" font-size="10.00">../types/THeapBuffer.hpp</text>
</a>
</g>
</g>
<!-- Node1&#45;&gt;Node4 -->
<g id="edge3" class="edge">
<title>Node1&#45;&gt;Node4</title>
<path fill="none" stroke="midnightblue" d="M77.76,-358.32C87.77,-350.26 102.89,-338.08 114.93,-328.37"/>
<polygon fill="midnightblue" stroke="midnightblue" points="117.45,-330.83 123.04,-321.83 113.06,-325.38 117.45,-330.83"/>
</g>
<!-- Node3 -->
<g id="node3" class="node">
<title>Node3</title>
<g id="a_node3"><a xlink:title=" ">
<polygon fill="none" stroke="#bfbfbf" points="147,-0.5 147,-19.5 199,-19.5 199,-0.5 147,-0.5"/>
<text text-anchor="middle" x="173" y="-7.5" font-family="Helvetica,sans-Serif" font-size="10.00">cassert</text>
</a>
</g>
</g>
<!-- Node2&#45;&gt;Node3 -->
<g id="edge2" class="edge">
<title>Node2&#45;&gt;Node3</title>
<path fill="none" stroke="midnightblue" d="M173,-67.23C173,-57.68 173,-42.12 173,-29.78"/>
<polygon fill="midnightblue" stroke="midnightblue" points="176.5,-29.63 173,-19.63 169.5,-29.63 176.5,-29.63"/>
</g>
<!-- Node4&#45;&gt;Node2 -->
<g id="edge4" class="edge">
<title>Node4&#45;&gt;Node2</title>
<path fill="none" stroke="midnightblue" d="M142.63,-302.25C150.36,-293.77 161.19,-280.16 166,-266 186.12,-206.82 180.07,-131.06 175.73,-96.58"/>
<polygon fill="midnightblue" stroke="midnightblue" points="179.19,-95.99 174.37,-86.56 172.25,-96.94 179.19,-95.99"/>
</g>
<!-- Node5 -->
<g id="node5" class="node">
<title>Node5</title>
<g id="a_node5"><a xlink:href="_t_memory_8hpp.html" target="_top" xlink:title=" ">
<polygon fill="none" stroke="black" points="264.5,-246.5 264.5,-265.5 399.5,-265.5 399.5,-246.5 264.5,-246.5"/>
<text text-anchor="middle" x="332" y="-253.5" font-family="Helvetica,sans-Serif" font-size="10.00">../memory/TMemory.hpp</text>
</a>
</g>
</g>
<!-- Node4&#45;&gt;Node5 -->
<g id="edge5" class="edge">
<title>Node4&#45;&gt;Node5</title>
<path fill="none" stroke="midnightblue" d="M165.37,-302.44C199.26,-293.2 253.4,-278.44 290.72,-268.26"/>
<polygon fill="midnightblue" stroke="midnightblue" points="292.05,-271.52 300.77,-265.52 290.2,-264.77 292.05,-271.52"/>
</g>
<!-- Node18 -->
<g id="node18" class="node">
<title>Node18</title>
<g id="a_node18"><a xlink:title=" ">
<polygon fill="none" stroke="#bfbfbf" points="28,-246.5 28,-265.5 92,-265.5 92,-246.5 28,-246.5"/>
<text text-anchor="middle" x="60" y="-253.5" font-family="Helvetica,sans-Serif" font-size="10.00">algorithm</text>
</a>
</g>
</g>
<!-- Node4&#45;&gt;Node18 -->
<g id="edge25" class="edge">
<title>Node4&#45;&gt;Node18</title>
<path fill="none" stroke="midnightblue" d="M122.11,-302.32C110.85,-294.11 93.71,-281.6 80.29,-271.81"/>
<polygon fill="midnightblue" stroke="midnightblue" points="82.25,-268.9 72.11,-265.83 78.12,-274.56 82.25,-268.9"/>
</g>
<!-- Node19 -->
<g id="node19" class="node">
<title>Node19</title>
<g id="a_node19"><a xlink:title=" ">
<polygon fill="none" stroke="#bfbfbf" points="110.5,-246.5 110.5,-265.5 157.5,-265.5 157.5,-246.5 110.5,-246.5"/>
<text text-anchor="middle" x="134" y="-253.5" font-family="Helvetica,sans-Serif" font-size="10.00">cmath</text>
</a>
</g>
</g>
<!-- Node4&#45;&gt;Node19 -->
<g id="edge26" class="edge">
<title>Node4&#45;&gt;Node19</title>
<path fill="none" stroke="midnightblue" d="M134,-302.08C134,-295.01 134,-284.86 134,-275.99"/>
<polygon fill="midnightblue" stroke="midnightblue" points="137.5,-275.75 134,-265.75 130.5,-275.75 137.5,-275.75"/>
</g>
<!-- Node6 -->
<g id="node6" class="node">
<title>Node6</title>
<g id="a_node6"><a xlink:href="_t_memory_pool_8hpp.html" target="_top" xlink:title=" ">
<polygon fill="none" stroke="black" points="337,-134.5 337,-153.5 447,-153.5 447,-134.5 337,-134.5"/>
<text text-anchor="middle" x="392" y="-141.5" font-family="Helvetica,sans-Serif" font-size="10.00">./TMemoryPool.hpp</text>
</a>
</g>
</g>
<!-- Node5&#45;&gt;Node6 -->
<g id="edge6" class="edge">
<title>Node5&#45;&gt;Node6</title>
<path fill="none" stroke="midnightblue" d="M338.12,-246.24C344.24,-237.32 353.76,-222.99 361,-210 369.65,-194.49 378.24,-176.18 384.18,-162.96"/>
<polygon fill="midnightblue" stroke="midnightblue" points="387.48,-164.15 388.32,-153.59 381.08,-161.32 387.48,-164.15"/>
</g>
<!-- Node16 -->
<g id="node16" class="node">
<title>Node16</title>
<g id="a_node16"><a xlink:href="_t_memory_pool_std_8hpp.html" target="_top" xlink:title=" ">
<polygon fill="none" stroke="black" points="408,-190.5 408,-209.5 534,-209.5 534,-190.5 408,-190.5"/>
<text text-anchor="middle" x="471" y="-197.5" font-family="Helvetica,sans-Serif" font-size="10.00">./TMemoryPoolStd.hpp</text>
</a>
</g>
</g>
<!-- Node5&#45;&gt;Node16 -->
<g id="edge18" class="edge">
<title>Node5&#45;&gt;Node16</title>
<path fill="none" stroke="midnightblue" d="M354.02,-246.44C377.1,-237.48 413.56,-223.31 439.64,-213.18"/>
<polygon fill="midnightblue" stroke="midnightblue" points="441.02,-216.4 449.08,-209.52 438.49,-209.88 441.02,-216.4"/>
</g>
<!-- Node17 -->
<g id="node17" class="node">
<title>Node17</title>
<g id="a_node17"><a xlink:href="_t_memory_pool_stack_8hpp.html" target="_top" xlink:title=" ">
<polygon fill="none" stroke="black" points="214.5,-190.5 214.5,-209.5 351.5,-209.5 351.5,-190.5 214.5,-190.5"/>
<text text-anchor="middle" x="283" y="-197.5" font-family="Helvetica,sans-Serif" font-size="10.00">./TMemoryPoolStack.hpp</text>
</a>
</g>
</g>
<!-- Node5&#45;&gt;Node17 -->
<g id="edge22" class="edge">
<title>Node5&#45;&gt;Node17</title>
<path fill="none" stroke="midnightblue" d="M323.91,-246.08C316.84,-238.3 306.41,-226.8 297.85,-217.37"/>
<polygon fill="midnightblue" stroke="midnightblue" points="300.25,-214.8 290.94,-209.75 295.07,-219.51 300.25,-214.8"/>
</g>
<!-- Node6&#45;&gt;Node2 -->
<g id="edge13" class="edge">
<title>Node6&#45;&gt;Node2</title>
<path fill="none" stroke="midnightblue" d="M356.74,-134.49C322.93,-126.08 270.61,-112.43 226,-98 218.73,-95.65 210.99,-92.88 203.74,-90.17"/>
<polygon fill="midnightblue" stroke="midnightblue" points="204.83,-86.84 194.24,-86.55 202.34,-93.38 204.83,-86.84"/>
</g>
<!-- Node7 -->
<g id="node7" class="node">
<title>Node7</title>
<g id="a_node7"><a xlink:title=" ">
<polygon fill="none" stroke="#bfbfbf" points="737.5,-67.5 737.5,-86.5 782.5,-86.5 782.5,-67.5 737.5,-67.5"/>
<text text-anchor="middle" x="760" y="-74.5" font-family="Helvetica,sans-Serif" font-size="10.00">utility</text>
</a>
</g>
</g>
<!-- Node6&#45;&gt;Node7 -->
<g id="edge7" class="edge">
<title>Node6&#45;&gt;Node7</title>
<path fill="none" stroke="midnightblue" d="M447.16,-142.96C515.39,-141.27 634.15,-132.93 729,-98 732.94,-96.55 736.9,-94.53 740.61,-92.32"/>
<polygon fill="midnightblue" stroke="midnightblue" points="742.73,-95.11 749.16,-86.69 738.88,-89.27 742.73,-95.11"/>
</g>
<!-- Node8 -->
<g id="node8" class="node">
<title>Node8</title>
<g id="a_node8"><a xlink:title=" ">
<polygon fill="none" stroke="#bfbfbf" points="801,-67.5 801,-86.5 851,-86.5 851,-67.5 801,-67.5"/>
<text text-anchor="middle" x="826" y="-74.5" font-family="Helvetica,sans-Serif" font-size="10.00">cstdint</text>
</a>
</g>
</g>
<!-- Node6&#45;&gt;Node8 -->
<g id="edge8" class="edge">
<title>Node6&#45;&gt;Node8</title>
<path fill="none" stroke="midnightblue" d="M447.25,-143.97C525.88,-143.77 673.67,-137.46 792,-98 796.58,-96.47 801.22,-94.27 805.54,-91.88"/>
<polygon fill="midnightblue" stroke="midnightblue" points="807.6,-94.72 814.32,-86.53 803.96,-88.74 807.6,-94.72"/>
</g>
<!-- Node9 -->
<g id="node9" class="node">
<title>Node9</title>
<g id="a_node9"><a xlink:title=" ">
<polygon fill="none" stroke="#bfbfbf" points="235.5,-67.5 235.5,-86.5 272.5,-86.5 272.5,-67.5 235.5,-67.5"/>
<text text-anchor="middle" x="254" y="-74.5" font-family="Helvetica,sans-Serif" font-size="10.00">new</text>
</a>
</g>
</g>
<!-- Node6&#45;&gt;Node9 -->
<g id="edge9" class="edge">
<title>Node6&#45;&gt;Node9</title>
<path fill="none" stroke="midnightblue" d="M369.46,-134.4C347.91,-125.94 314.69,-112.24 287,-98 283.35,-96.12 279.56,-94 275.9,-91.86"/>
<polygon fill="midnightblue" stroke="midnightblue" points="277.61,-88.8 267.24,-86.61 273.98,-94.79 277.61,-88.8"/>
</g>
<!-- Node10 -->
<g id="node10" class="node">
<title>Node10</title>
<g id="a_node10"><a xlink:href="_t_memory_util_8hpp.html" target="_top" xlink:title=" ">
<polygon fill="none" stroke="black" points="473.5,-67.5 473.5,-86.5 580.5,-86.5 580.5,-67.5 473.5,-67.5"/>
<text text-anchor="middle" x="527" y="-74.5" font-family="Helvetica,sans-Serif" font-size="10.00">./TMemoryUtil.hpp</text>
</a>
</g>
</g>
<!-- Node6&#45;&gt;Node10 -->
<g id="edge10" class="edge">
<title>Node6&#45;&gt;Node10</title>
<path fill="none" stroke="midnightblue" d="M409.93,-134.37C432.92,-123.3 473.03,-103.99 499.8,-91.1"/>
<polygon fill="midnightblue" stroke="midnightblue" points="501.51,-94.16 509,-86.67 498.47,-87.85 501.51,-94.16"/>
</g>
<!-- Node13 -->
<g id="node13" class="node">
<title>Node13</title>
<g id="a_node13"><a xlink:href="_t_spin_lock_8hpp.html" target="_top" xlink:title=" ">
<polygon fill="none" stroke="black" points="329,-67.5 329,-86.5 455,-86.5 455,-67.5 329,-67.5"/>
<text text-anchor="middle" x="392" y="-74.5" font-family="Helvetica,sans-Serif" font-size="10.00">../types/TSpinLock.hpp</text>
</a>
</g>
</g>
<!-- Node6&#45;&gt;Node13 -->
<g id="edge14" class="edge">
<title>Node6&#45;&gt;Node13</title>
<path fill="none" stroke="midnightblue" d="M392,-134.23C392,-124.68 392,-109.12 392,-96.78"/>
<polygon fill="midnightblue" stroke="midnightblue" points="395.5,-96.63 392,-86.63 388.5,-96.63 395.5,-96.63"/>
</g>
<!-- Node14 -->
<g id="node14" class="node">
<title>Node14</title>
<g id="a_node14"><a xlink:href="_t_lock_guard_8hpp.html" target="_top" xlink:title=" ">
<polygon fill="none" stroke="black" points="295.5,-0.5 295.5,-19.5 396.5,-19.5 396.5,-0.5 295.5,-0.5"/>
<text text-anchor="middle" x="346" y="-7.5" font-family="Helvetica,sans-Serif" font-size="10.00">./TLockGuard.hpp</text>
</a>
</g>
</g>
<!-- Node6&#45;&gt;Node14 -->
<g id="edge16" class="edge">
<title>Node6&#45;&gt;Node14</title>
<path fill="none" stroke="midnightblue" d="M366.5,-134.47C350.01,-127.48 329.86,-115.79 320,-98 307.51,-75.46 321.58,-46.22 333.38,-28.04"/>
<polygon fill="midnightblue" stroke="midnightblue" points="336.38,-29.85 339.19,-19.63 330.62,-25.87 336.38,-29.85"/>
</g>
<!-- Node15 -->
<g id="node15" class="node">
<title>Node15</title>
<g id="a_node15"><a xlink:title=" ">
<polygon fill="none" stroke="#bfbfbf" points="598.5,-56.5 598.5,-97.5 719.5,-97.5 719.5,-56.5 598.5,-56.5"/>
<text text-anchor="start" x="606.5" y="-85.5" font-family="Helvetica,sans-Serif" font-size="10.00">../../external/xsimd</text>
<text text-anchor="start" x="606.5" y="-74.5" font-family="Helvetica,sans-Serif" font-size="10.00">/include/xsimd/config</text>
<text text-anchor="middle" x="659" y="-63.5" font-family="Helvetica,sans-Serif" font-size="10.00">/xsimd_arch.hpp</text>
</a>
</g>
</g>
<!-- Node6&#45;&gt;Node15 -->
<g id="edge17" class="edge">
<title>Node6&#45;&gt;Node15</title>
<path fill="none" stroke="midnightblue" d="M432.74,-134.47C470.78,-126.35 529.32,-113.43 588.57,-98.31"/>
<polygon fill="midnightblue" stroke="midnightblue" points="589.66,-101.64 598.47,-95.76 587.92,-94.86 589.66,-101.64"/>
</g>
<!-- Node11 -->
<g id="node11" class="node">
<title>Node11</title>
<g id="a_node11"><a xlink:title=" ">
<polygon fill="none" stroke="#bfbfbf" points="502,-0.5 502,-19.5 552,-19.5 552,-0.5 502,-0.5"/>
<text text-anchor="middle" x="527" y="-7.5" font-family="Helvetica,sans-Serif" font-size="10.00">cstring</text>
</a>
</g>
</g>
<!-- Node10&#45;&gt;Node11 -->
<g id="edge11" class="edge">
<title>Node10&#45;&gt;Node11</title>
<path fill="none" stroke="midnightblue" d="M527,-67.23C527,-57.68 527,-42.12 527,-29.78"/>
<polygon fill="midnightblue" stroke="midnightblue" points="530.5,-29.63 527,-19.63 523.5,-29.63 530.5,-29.63"/>
</g>
<!-- Node12 -->
<g id="node12" class="node">
<title>Node12</title>
<g id="a_node12"><a xlink:title=" ">
<polygon fill="none" stroke="#bfbfbf" points="711.5,-0.5 711.5,-19.5 764.5,-19.5 764.5,-0.5 711.5,-0.5"/>
<text text-anchor="middle" x="738" y="-7.5" font-family="Helvetica,sans-Serif" font-size="10.00">stdlib.h</text>
</a>
</g>
</g>
<!-- Node10&#45;&gt;Node12 -->
<g id="edge12" class="edge">
<title>Node10&#45;&gt;Node12</title>
<path fill="none" stroke="midnightblue" d="M553.65,-67.46C564.86,-63.89 578.06,-59.71 590,-56 628.02,-44.19 671.63,-30.96 701.62,-21.93"/>
<polygon fill="midnightblue" stroke="midnightblue" points="702.67,-25.27 711.23,-19.03 700.65,-18.56 702.67,-25.27"/>
</g>
<!-- Node13&#45;&gt;Node14 -->
<g id="edge15" class="edge">
<title>Node13&#45;&gt;Node14</title>
<path fill="none" stroke="midnightblue" d="M385.8,-67.23C378.69,-57.2 366.89,-40.51 357.98,-27.92"/>
<polygon fill="midnightblue" stroke="midnightblue" points="360.74,-25.77 352.11,-19.63 355.03,-29.81 360.74,-25.77"/>
</g>
<!-- Node16&#45;&gt;Node2 -->
<g id="edge21" class="edge">
<title>Node16&#45;&gt;Node2</title>
<path fill="none" stroke="midnightblue" d="M439,-190.43C409.69,-182.23 365.34,-168.93 328,-154 280.54,-135.02 227.53,-107.6 197.42,-91.41"/>
<polygon fill="midnightblue" stroke="midnightblue" points="198.95,-88.26 188.49,-86.57 195.61,-94.41 198.95,-88.26"/>
</g>
<!-- Node16&#45;&gt;Node6 -->
<g id="edge20" class="edge">
<title>Node16&#45;&gt;Node6</title>
<path fill="none" stroke="midnightblue" d="M458.31,-190.32C446.1,-181.98 427.42,-169.21 413,-159.35"/>
<polygon fill="midnightblue" stroke="midnightblue" points="414.89,-156.41 404.66,-153.65 410.94,-162.19 414.89,-156.41"/>
</g>
<!-- Node16&#45;&gt;Node12 -->
<g id="edge19" class="edge">
<title>Node16&#45;&gt;Node12</title>
<path fill="none" stroke="midnightblue" d="M534.25,-191.89C633.94,-179.22 820.4,-149.19 860,-98 871.42,-83.23 870.67,-71.31 860,-56 840.91,-28.62 803.18,-17.85 774.71,-13.65"/>
<polygon fill="midnightblue" stroke="midnightblue" points="775.05,-10.16 764.69,-12.38 774.17,-17.11 775.05,-10.16"/>
</g>
<!-- Node17&#45;&gt;Node2 -->
<g id="edge24" class="edge">
<title>Node17&#45;&gt;Node2</title>
<path fill="none" stroke="midnightblue" d="M275.09,-190.3C256.78,-170.15 211.23,-120.06 187.66,-94.12"/>
<polygon fill="midnightblue" stroke="midnightblue" points="190.16,-91.67 180.84,-86.62 184.98,-96.38 190.16,-91.67"/>
</g>
<!-- Node17&#45;&gt;Node6 -->
<g id="edge23" class="edge">
<title>Node17&#45;&gt;Node6</title>
<path fill="none" stroke="midnightblue" d="M300.51,-190.32C318.07,-181.62 345.33,-168.12 365.53,-158.11"/>
<polygon fill="midnightblue" stroke="midnightblue" points="367.12,-161.23 374.53,-153.65 364.02,-154.96 367.12,-161.23"/>
</g>
</g>
</svg>
