<?xml version="1.0" encoding="UTF-8" standalone="no"?>
<!DOCTYPE svg PUBLIC "-//W3C//DTD SVG 1.1//EN"
 "http://www.w3.org/Graphics/SVG/1.1/DTD/svg11.dtd">
<!-- Generated by graphviz version 2.50.0 (0)
 -->
<!-- Title: TMemoryPoolStack.hpp Pages: 1 -->
<svg width="731pt" height="218pt"
 viewBox="0.00 0.00 730.50 218.00" xmlns="http://www.w3.org/2000/svg" xmlns:xlink="http://www.w3.org/1999/xlink">
<g id="graph0" class="graph" transform="scale(1 1) rotate(0) translate(4 214)">
<title>TMemoryPoolStack.hpp</title>
<!-- Node1 -->
<g id="node1" class="node">
<title>Node1</title>
<g id="a_node1"><a xlink:title=" ">
<polygon fill="#bfbfbf" stroke="black" points="350.5,-190.5 350.5,-209.5 481.5,-209.5 481.5,-190.5 350.5,-190.5"/>
<text text-anchor="middle" x="416" y="-197.5" font-family="Helvetica,sans-Serif" font-size="10.00">TMemoryPoolStack.hpp</text>
</a>
</g>
</g>
<!-- Node2 -->
<g id="node2" class="node">
<title>Node2</title>
<g id="a_node2"><a xlink:href="_t_memory_pool_8hpp.html" target="_top" xlink:title=" ">
<polygon fill="none" stroke="black" points="320,-134.5 320,-153.5 430,-153.5 430,-134.5 320,-134.5"/>
<text text-anchor="middle" x="375" y="-141.5" font-family="Helvetica,sans-Serif" font-size="10.00">./TMemoryPool.hpp</text>
</a>
</g>
</g>
<!-- Node1&#45;&gt;Node2 -->
<g id="edge1" class="edge">
<title>Node1&#45;&gt;Node2</title>
<path fill="none" stroke="midnightblue" d="M409.23,-190.08C403.44,-182.46 394.94,-171.26 387.86,-161.94"/>
<polygon fill="midnightblue" stroke="midnightblue" points="390.48,-159.6 381.64,-153.75 384.9,-163.83 390.48,-159.6"/>
</g>
<!-- Node9 -->
<g id="node9" class="node">
<title>Node9</title>
<g id="a_node9"><a xlink:href="_t_assert_8h.html" target="_top" xlink:title=" ">
<polygon fill="none" stroke="black" points="633.5,-67.5 633.5,-86.5 722.5,-86.5 722.5,-67.5 633.5,-67.5"/>
<text text-anchor="middle" x="678" y="-74.5" font-family="Helvetica,sans-Serif" font-size="10.00">../util/TAssert.h</text>
</a>
</g>
</g>
<!-- Node1&#45;&gt;Node9 -->
<g id="edge14" class="edge">
<title>Node1&#45;&gt;Node9</title>
<path fill="none" stroke="midnightblue" d="M434.42,-190.49C479.6,-169.63 596.11,-115.82 649.95,-90.95"/>
<polygon fill="midnightblue" stroke="midnightblue" points="651.64,-94.03 659.25,-86.66 648.7,-87.68 651.64,-94.03"/>
</g>
<!-- Node3 -->
<g id="node3" class="node">
<title>Node3</title>
<g id="a_node3"><a xlink:title=" ">
<polygon fill="none" stroke="#bfbfbf" points="248.5,-67.5 248.5,-86.5 293.5,-86.5 293.5,-67.5 248.5,-67.5"/>
<text text-anchor="middle" x="271" y="-74.5" font-family="Helvetica,sans-Serif" font-size="10.00">utility</text>
</a>
</g>
</g>
<!-- Node2&#45;&gt;Node3 -->
<g id="edge2" class="edge">
<title>Node2&#45;&gt;Node3</title>
<path fill="none" stroke="midnightblue" d="M360.97,-134.23C343.67,-123.42 314.01,-104.88 293.51,-92.07"/>
<polygon fill="midnightblue" stroke="midnightblue" points="295.14,-88.96 284.8,-86.63 291.43,-94.9 295.14,-88.96"/>
</g>
<!-- Node4 -->
<g id="node4" class="node">
<title>Node4</title>
<g id="a_node4"><a xlink:title=" ">
<polygon fill="none" stroke="#bfbfbf" points="0,-67.5 0,-86.5 50,-86.5 50,-67.5 0,-67.5"/>
<text text-anchor="middle" x="25" y="-74.5" font-family="Helvetica,sans-Serif" font-size="10.00">cstdint</text>
</a>
</g>
</g>
<!-- Node2&#45;&gt;Node4 -->
<g id="edge3" class="edge">
<title>Node2&#45;&gt;Node4</title>
<path fill="none" stroke="midnightblue" d="M319.8,-141.6C255.5,-138.52 146.87,-128.75 59,-98 54.52,-96.43 49.96,-94.24 45.71,-91.89"/>
<polygon fill="midnightblue" stroke="midnightblue" points="47.39,-88.81 37.02,-86.64 43.77,-94.81 47.39,-88.81"/>
</g>
<!-- Node5 -->
<g id="node5" class="node">
<title>Node5</title>
<g id="a_node5"><a xlink:title=" ">
<polygon fill="none" stroke="#bfbfbf" points="68.5,-67.5 68.5,-86.5 105.5,-86.5 105.5,-67.5 68.5,-67.5"/>
<text text-anchor="middle" x="87" y="-74.5" font-family="Helvetica,sans-Serif" font-size="10.00">new</text>
</a>
</g>
</g>
<!-- Node2&#45;&gt;Node5 -->
<g id="edge4" class="edge">
<title>Node2&#45;&gt;Node5</title>
<path fill="none" stroke="midnightblue" d="M319.93,-140.9C265.62,-137.15 181.22,-126.75 114,-98 110.78,-96.62 107.59,-94.79 104.59,-92.8"/>
<polygon fill="midnightblue" stroke="midnightblue" points="106.42,-89.8 96.31,-86.61 102.22,-95.4 106.42,-89.8"/>
</g>
<!-- Node6 -->
<g id="node6" class="node">
<title>Node6</title>
<g id="a_node6"><a xlink:href="_t_memory_util_8hpp.html" target="_top" xlink:title=" ">
<polygon fill="none" stroke="black" points="123.5,-67.5 123.5,-86.5 230.5,-86.5 230.5,-67.5 123.5,-67.5"/>
<text text-anchor="middle" x="177" y="-74.5" font-family="Helvetica,sans-Serif" font-size="10.00">./TMemoryUtil.hpp</text>
</a>
</g>
</g>
<!-- Node2&#45;&gt;Node6 -->
<g id="edge5" class="edge">
<title>Node2&#45;&gt;Node6</title>
<path fill="none" stroke="midnightblue" d="M348.71,-134.37C313.77,-122.9 251.92,-102.59 212.76,-89.74"/>
<polygon fill="midnightblue" stroke="midnightblue" points="213.68,-86.36 203.09,-86.56 211.5,-93.01 213.68,-86.36"/>
</g>
<!-- Node2&#45;&gt;Node9 -->
<g id="edge8" class="edge">
<title>Node2&#45;&gt;Node9</title>
<path fill="none" stroke="midnightblue" d="M430.27,-136.01C481.36,-128.86 559.11,-116.2 625,-98 632.71,-95.87 640.87,-93.07 648.42,-90.25"/>
<polygon fill="midnightblue" stroke="midnightblue" points="649.84,-93.45 657.9,-86.58 647.31,-86.93 649.84,-93.45"/>
</g>
<!-- Node11 -->
<g id="node11" class="node">
<title>Node11</title>
<g id="a_node11"><a xlink:href="_t_spin_lock_8hpp.html" target="_top" xlink:title=" ">
<polygon fill="none" stroke="black" points="312,-67.5 312,-86.5 438,-86.5 438,-67.5 312,-67.5"/>
<text text-anchor="middle" x="375" y="-74.5" font-family="Helvetica,sans-Serif" font-size="10.00">../types/TSpinLock.hpp</text>
</a>
</g>
</g>
<!-- Node2&#45;&gt;Node11 -->
<g id="edge10" class="edge">
<title>Node2&#45;&gt;Node11</title>
<path fill="none" stroke="midnightblue" d="M375,-134.23C375,-124.68 375,-109.12 375,-96.78"/>
<polygon fill="midnightblue" stroke="midnightblue" points="378.5,-96.63 375,-86.63 371.5,-96.63 378.5,-96.63"/>
</g>
<!-- Node12 -->
<g id="node12" class="node">
<title>Node12</title>
<g id="a_node12"><a xlink:href="_t_lock_guard_8hpp.html" target="_top" xlink:title=" ">
<polygon fill="none" stroke="black" points="369.5,-0.5 369.5,-19.5 470.5,-19.5 470.5,-0.5 369.5,-0.5"/>
<text text-anchor="middle" x="420" y="-7.5" font-family="Helvetica,sans-Serif" font-size="10.00">./TLockGuard.hpp</text>
</a>
</g>
</g>
<!-- Node2&#45;&gt;Node12 -->
<g id="edge12" class="edge">
<title>Node2&#45;&gt;Node12</title>
<path fill="none" stroke="midnightblue" d="M400.5,-134.47C416.99,-127.48 437.14,-115.79 447,-98 459.53,-75.38 445.04,-46.17 432.94,-28.01"/>
<polygon fill="midnightblue" stroke="midnightblue" points="435.62,-25.74 426.98,-19.61 429.91,-29.79 435.62,-25.74"/>
</g>
<!-- Node13 -->
<g id="node13" class="node">
<title>Node13</title>
<g id="a_node13"><a xlink:title=" ">
<polygon fill="none" stroke="#bfbfbf" points="494.5,-56.5 494.5,-97.5 615.5,-97.5 615.5,-56.5 494.5,-56.5"/>
<text text-anchor="start" x="502.5" y="-85.5" font-family="Helvetica,sans-Serif" font-size="10.00">../../external/xsimd</text>
<text text-anchor="start" x="502.5" y="-74.5" font-family="Helvetica,sans-Serif" font-size="10.00">/include/xsimd/config</text>
<text text-anchor="middle" x="555" y="-63.5" font-family="Helvetica,sans-Serif" font-size="10.00">/xsimd_arch.hpp</text>
</a>
</g>
</g>
<!-- Node2&#45;&gt;Node13 -->
<g id="edge13" class="edge">
<title>Node2&#45;&gt;Node13</title>
<path fill="none" stroke="midnightblue" d="M398.9,-134.37C422.3,-125.92 458.99,-112.67 490.92,-101.14"/>
<polygon fill="midnightblue" stroke="midnightblue" points="492.44,-104.31 500.65,-97.63 490.06,-97.73 492.44,-104.31"/>
</g>
<!-- Node7 -->
<g id="node7" class="node">
<title>Node7</title>
<g id="a_node7"><a xlink:title=" ">
<polygon fill="none" stroke="#bfbfbf" points="117,-0.5 117,-19.5 167,-19.5 167,-0.5 117,-0.5"/>
<text text-anchor="middle" x="142" y="-7.5" font-family="Helvetica,sans-Serif" font-size="10.00">cstring</text>
</a>
</g>
</g>
<!-- Node6&#45;&gt;Node7 -->
<g id="edge6" class="edge">
<title>Node6&#45;&gt;Node7</title>
<path fill="none" stroke="midnightblue" d="M172.28,-67.23C166.98,-57.39 158.24,-41.16 151.51,-28.66"/>
<polygon fill="midnightblue" stroke="midnightblue" points="154.47,-26.77 146.65,-19.63 148.3,-30.09 154.47,-26.77"/>
</g>
<!-- Node8 -->
<g id="node8" class="node">
<title>Node8</title>
<g id="a_node8"><a xlink:title=" ">
<polygon fill="none" stroke="#bfbfbf" points="185.5,-0.5 185.5,-19.5 238.5,-19.5 238.5,-0.5 185.5,-0.5"/>
<text text-anchor="middle" x="212" y="-7.5" font-family="Helvetica,sans-Serif" font-size="10.00">stdlib.h</text>
</a>
</g>
</g>
<!-- Node6&#45;&gt;Node8 -->
<g id="edge7" class="edge">
<title>Node6&#45;&gt;Node8</title>
<path fill="none" stroke="midnightblue" d="M181.72,-67.23C187.02,-57.39 195.76,-41.16 202.49,-28.66"/>
<polygon fill="midnightblue" stroke="midnightblue" points="205.7,-30.09 207.35,-19.63 199.53,-26.77 205.7,-30.09"/>
</g>
<!-- Node10 -->
<g id="node10" class="node">
<title>Node10</title>
<g id="a_node10"><a xlink:title=" ">
<polygon fill="none" stroke="#bfbfbf" points="652,-0.5 652,-19.5 704,-19.5 704,-0.5 652,-0.5"/>
<text text-anchor="middle" x="678" y="-7.5" font-family="Helvetica,sans-Serif" font-size="10.00">cassert</text>
</a>
</g>
</g>
<!-- Node9&#45;&gt;Node10 -->
<g id="edge9" class="edge">
<title>Node9&#45;&gt;Node10</title>
<path fill="none" stroke="midnightblue" d="M678,-67.23C678,-57.68 678,-42.12 678,-29.78"/>
<polygon fill="midnightblue" stroke="midnightblue" points="681.5,-29.63 678,-19.63 674.5,-29.63 681.5,-29.63"/>
</g>
<!-- Node11&#45;&gt;Node12 -->
<g id="edge11" class="edge">
<title>Node11&#45;&gt;Node12</title>
<path fill="none" stroke="midnightblue" d="M381.07,-67.23C388.02,-57.2 399.57,-40.51 408.29,-27.92"/>
<polygon fill="midnightblue" stroke="midnightblue" points="411.21,-29.84 414.03,-19.63 405.46,-25.86 411.21,-29.84"/>
</g>
</g>
</svg>
