<?xml version="1.0" encoding="UTF-8" standalone="no"?>
<!DOCTYPE svg PUBLIC "-//W3C//DTD SVG 1.1//EN"
 "http://www.w3.org/Graphics/SVG/1.1/DTD/svg11.dtd">
<!-- Generated by graphviz version 2.50.0 (0)
 -->
<!-- Title: TOggFile.hpp Pages: 1 -->
<svg width="259pt" height="420pt"
 viewBox="0.00 0.00 258.50 420.00" xmlns="http://www.w3.org/2000/svg" xmlns:xlink="http://www.w3.org/1999/xlink">
<g id="graph0" class="graph" transform="scale(1 1) rotate(0) translate(4 416)">
<title>TOggFile.hpp</title>
<!-- Node1 -->
<g id="node1" class="node">
<title>Node1</title>
<g id="a_node1"><a xlink:title=" ">
<polygon fill="#bfbfbf" stroke="black" points="48,-392.5 48,-411.5 128,-411.5 128,-392.5 48,-392.5"/>
<text text-anchor="middle" x="88" y="-399.5" font-family="Helvetica,sans-Serif" font-size="10.00">TOggFile.hpp</text>
</a>
</g>
</g>
<!-- Node2 -->
<g id="node2" class="node">
<title>Node2</title>
<g id="a_node2"><a xlink:href="vae__source__loader_8hpp.html" target="_top" xlink:title=" ">
<polygon fill="none" stroke="black" points="24,-336.5 24,-355.5 152,-355.5 152,-336.5 24,-336.5"/>
<text text-anchor="middle" x="88" y="-343.5" font-family="Helvetica,sans-Serif" font-size="10.00">vae_source_loader.hpp</text>
</a>
</g>
</g>
<!-- Node1&#45;&gt;Node2 -->
<g id="edge1" class="edge">
<title>Node1&#45;&gt;Node2</title>
<path fill="none" stroke="midnightblue" d="M88,-381.8C88,-372.91 88,-362.78 88,-355.75"/>
<polygon fill="midnightblue" stroke="midnightblue" points="84.5,-382.08 88,-392.08 91.5,-382.08 84.5,-382.08"/>
</g>
<!-- Node3 -->
<g id="node3" class="node">
<title>Node3</title>
<g id="a_node3"><a xlink:href="vae__bank__loader_8hpp.html" target="_top" xlink:title=" ">
<polygon fill="none" stroke="black" points="28.5,-280.5 28.5,-299.5 147.5,-299.5 147.5,-280.5 28.5,-280.5"/>
<text text-anchor="middle" x="88" y="-287.5" font-family="Helvetica,sans-Serif" font-size="10.00">vae_bank_loader.hpp</text>
</a>
</g>
</g>
<!-- Node2&#45;&gt;Node3 -->
<g id="edge2" class="edge">
<title>Node2&#45;&gt;Node3</title>
<path fill="none" stroke="midnightblue" d="M88,-325.8C88,-316.91 88,-306.78 88,-299.75"/>
<polygon fill="midnightblue" stroke="midnightblue" points="84.5,-326.08 88,-336.08 91.5,-326.08 84.5,-326.08"/>
</g>
<!-- Node4 -->
<g id="node4" class="node">
<title>Node4</title>
<g id="a_node4"><a xlink:href="vae__bank__manager_8hpp.html" target="_top" xlink:title=" ">
<polygon fill="none" stroke="black" points="22,-224.5 22,-243.5 154,-243.5 154,-224.5 22,-224.5"/>
<text text-anchor="middle" x="88" y="-231.5" font-family="Helvetica,sans-Serif" font-size="10.00">vae_bank_manager.hpp</text>
</a>
</g>
</g>
<!-- Node3&#45;&gt;Node4 -->
<g id="edge3" class="edge">
<title>Node3&#45;&gt;Node4</title>
<path fill="none" stroke="midnightblue" d="M88,-269.8C88,-260.91 88,-250.78 88,-243.75"/>
<polygon fill="midnightblue" stroke="midnightblue" points="84.5,-270.08 88,-280.08 91.5,-270.08 84.5,-270.08"/>
</g>
<!-- Node5 -->
<g id="node5" class="node">
<title>Node5</title>
<g id="a_node5"><a xlink:href="vae__engine_8hpp.html" target="_top" xlink:title=" ">
<polygon fill="none" stroke="black" points="30,-56.5 30,-75.5 124,-75.5 124,-56.5 30,-56.5"/>
<text text-anchor="middle" x="77" y="-63.5" font-family="Helvetica,sans-Serif" font-size="10.00">vae_engine.hpp</text>
</a>
</g>
</g>
<!-- Node4&#45;&gt;Node5 -->
<g id="edge4" class="edge">
<title>Node4&#45;&gt;Node5</title>
<path fill="none" stroke="midnightblue" d="M73.5,-216.4C67.45,-208.39 61.12,-198.3 58,-188 45.61,-147.09 64.39,-95.83 73.03,-75.69"/>
<polygon fill="midnightblue" stroke="midnightblue" points="70.78,-218.6 79.79,-224.18 76.23,-214.2 70.78,-218.6"/>
</g>
<!-- Node8 -->
<g id="node8" class="node">
<title>Node8</title>
<g id="a_node8"><a xlink:href="vae__spatial__manager_8hpp.html" target="_top" xlink:title=" ">
<polygon fill="none" stroke="black" points="67.5,-168.5 67.5,-187.5 208.5,-187.5 208.5,-168.5 67.5,-168.5"/>
<text text-anchor="middle" x="138" y="-175.5" font-family="Helvetica,sans-Serif" font-size="10.00">vae_spatial_manager.hpp</text>
</a>
</g>
</g>
<!-- Node4&#45;&gt;Node8 -->
<g id="edge7" class="edge">
<title>Node4&#45;&gt;Node8</title>
<path fill="none" stroke="midnightblue" d="M103.08,-216.72C111.89,-207.2 122.67,-195.56 129.9,-187.75"/>
<polygon fill="midnightblue" stroke="midnightblue" points="100.48,-214.37 96.26,-224.08 105.62,-219.12 100.48,-214.37"/>
</g>
<!-- Node6 -->
<g id="node6" class="node">
<title>Node6</title>
<g id="a_node6"><a xlink:href="main_8cpp.html" target="_top" xlink:title=" ">
<polygon fill="none" stroke="black" points="0,-0.5 0,-19.5 62,-19.5 62,-0.5 0,-0.5"/>
<text text-anchor="middle" x="31" y="-7.5" font-family="Helvetica,sans-Serif" font-size="10.00">main.cpp</text>
</a>
</g>
</g>
<!-- Node5&#45;&gt;Node6 -->
<g id="edge5" class="edge">
<title>Node5&#45;&gt;Node6</title>
<path fill="none" stroke="midnightblue" d="M62.89,-48.43C54.82,-38.97 45.04,-27.48 38.45,-19.75"/>
<polygon fill="midnightblue" stroke="midnightblue" points="60.25,-50.74 69.4,-56.08 65.58,-46.2 60.25,-50.74"/>
</g>
<!-- Node7 -->
<g id="node7" class="node">
<title>Node7</title>
<g id="a_node7"><a xlink:href="vae__pimpl_8cpp.html" target="_top" xlink:title=" ">
<polygon fill="none" stroke="black" points="80,-0.5 80,-19.5 168,-19.5 168,-0.5 80,-0.5"/>
<text text-anchor="middle" x="124" y="-7.5" font-family="Helvetica,sans-Serif" font-size="10.00">vae_pimpl.cpp</text>
</a>
</g>
</g>
<!-- Node5&#45;&gt;Node7 -->
<g id="edge6" class="edge">
<title>Node5&#45;&gt;Node7</title>
<path fill="none" stroke="midnightblue" d="M91.42,-48.43C99.66,-38.97 109.65,-27.48 116.38,-19.75"/>
<polygon fill="midnightblue" stroke="midnightblue" points="88.69,-46.24 84.76,-56.08 93.97,-50.84 88.69,-46.24"/>
</g>
<!-- Node8&#45;&gt;Node5 -->
<g id="edge8" class="edge">
<title>Node8&#45;&gt;Node5</title>
<path fill="none" stroke="midnightblue" d="M120.03,-161.47C111.69,-153.41 102.25,-142.98 96,-132 85.53,-113.61 80.39,-88.95 78.26,-75.92"/>
<polygon fill="midnightblue" stroke="midnightblue" points="117.83,-164.2 127.56,-168.4 122.57,-159.05 117.83,-164.2"/>
</g>
<!-- Node9 -->
<g id="node9" class="node">
<title>Node9</title>
<g id="a_node9"><a xlink:href="vae__spatial__processor_8hpp.html" target="_top" xlink:title=" ">
<polygon fill="none" stroke="black" points="105.5,-112.5 105.5,-131.5 250.5,-131.5 250.5,-112.5 105.5,-112.5"/>
<text text-anchor="middle" x="178" y="-119.5" font-family="Helvetica,sans-Serif" font-size="10.00">vae_spatial_processor.hpp</text>
</a>
</g>
</g>
<!-- Node8&#45;&gt;Node9 -->
<g id="edge9" class="edge">
<title>Node8&#45;&gt;Node9</title>
<path fill="none" stroke="midnightblue" d="M150.7,-159.86C157.63,-150.5 165.91,-139.33 171.52,-131.75"/>
<polygon fill="midnightblue" stroke="midnightblue" points="147.75,-157.96 144.61,-168.08 153.37,-162.13 147.75,-157.96"/>
</g>
<!-- Node9&#45;&gt;Node5 -->
<g id="edge10" class="edge">
<title>Node9&#45;&gt;Node5</title>
<path fill="none" stroke="midnightblue" d="M152.92,-107.59C134.24,-97.61 109.3,-84.27 93.19,-75.65"/>
<polygon fill="midnightblue" stroke="midnightblue" points="151.3,-110.7 161.77,-112.32 154.6,-104.52 151.3,-110.7"/>
</g>
</g>
</svg>
