<?xml version="1.0" encoding="UTF-8" standalone="no"?>
<!DOCTYPE svg PUBLIC "-//W3C//DTD SVG 1.1//EN"
 "http://www.w3.org/Graphics/SVG/1.1/DTD/svg11.dtd">
<!-- Generated by graphviz version 2.50.0 (0)
 -->
<!-- Title: TResamplerSpeex.hpp Pages: 1 -->
<svg width="1199pt" height="419pt"
 viewBox="0.00 0.00 1198.74 419.00" xmlns="http://www.w3.org/2000/svg" xmlns:xlink="http://www.w3.org/1999/xlink">
<g id="graph0" class="graph" transform="scale(1 1) rotate(0) translate(4 415)">
<title>TResamplerSpeex.hpp</title>
<!-- Node1 -->
<g id="node1" class="node">
<title>Node1</title>
<g id="a_node1"><a xlink:title=" ">
<polygon fill="#bfbfbf" stroke="black" points="812.74,-391.5 812.74,-410.5 938.74,-410.5 938.74,-391.5 812.74,-391.5"/>
<text text-anchor="middle" x="875.74" y="-398.5" font-family="Helvetica,sans-Serif" font-size="10.00">TResamplerSpeex.hpp</text>
</a>
</g>
</g>
<!-- Node2 -->
<g id="node2" class="node">
<title>Node2</title>
<g id="a_node2"><a xlink:href="_t_assert_8h.html" target="_top" xlink:title=" ">
<polygon fill="none" stroke="black" points="801.24,-67.5 801.24,-86.5 908.24,-86.5 908.24,-67.5 801.24,-67.5"/>
<text text-anchor="middle" x="854.74" y="-74.5" font-family="Helvetica,sans-Serif" font-size="10.00">../../../util/TAssert.h</text>
</a>
</g>
</g>
<!-- Node1&#45;&gt;Node2 -->
<g id="edge1" class="edge">
<title>Node1&#45;&gt;Node2</title>
<path fill="none" stroke="midnightblue" d="M899,-391.41C941.36,-374.11 1026.74,-330.75 1026.74,-262.5 1026.74,-262.5 1026.74,-262.5 1026.74,-199 1026.74,-137.73 952.83,-104.79 901.91,-89.37"/>
<polygon fill="midnightblue" stroke="midnightblue" points="902.64,-85.94 892.06,-86.52 900.69,-92.66 902.64,-85.94"/>
</g>
<!-- Node4 -->
<g id="node4" class="node">
<title>Node4</title>
<g id="a_node4"><a xlink:href="_t_memory_8hpp.html" target="_top" xlink:title=" ">
<polygon fill="none" stroke="black" points="235.24,-252 235.24,-271 388.24,-271 388.24,-252 235.24,-252"/>
<text text-anchor="middle" x="311.74" y="-259" font-family="Helvetica,sans-Serif" font-size="10.00">../../../memory/TMemory.hpp</text>
</a>
</g>
</g>
<!-- Node1&#45;&gt;Node4 -->
<g id="edge3" class="edge">
<title>Node1&#45;&gt;Node4</title>
<path fill="none" stroke="midnightblue" d="M832.57,-391.47C789.63,-382.83 721.95,-368.82 663.74,-355 550.24,-328.06 417.37,-291.87 352.1,-273.78"/>
<polygon fill="midnightblue" stroke="midnightblue" points="352.8,-270.34 342.22,-271.04 350.92,-277.08 352.8,-270.34"/>
</g>
<!-- Node17 -->
<g id="node17" class="node">
<title>Node17</title>
<g id="a_node17"><a xlink:href="_t_audio_buffer_8hpp.html" target="_top" xlink:title=" ">
<polygon fill="none" stroke="black" points="672.24,-324.5 672.24,-343.5 779.24,-343.5 779.24,-324.5 672.24,-324.5"/>
<text text-anchor="middle" x="725.74" y="-331.5" font-family="Helvetica,sans-Serif" font-size="10.00">../TAudioBuffer.hpp</text>
</a>
</g>
</g>
<!-- Node1&#45;&gt;Node17 -->
<g id="edge23" class="edge">
<title>Node1&#45;&gt;Node17</title>
<path fill="none" stroke="midnightblue" d="M855.82,-391.37C830.05,-380.2 784.93,-360.65 755.19,-347.76"/>
<polygon fill="midnightblue" stroke="midnightblue" points="756.31,-344.43 745.74,-343.67 753.53,-350.85 756.31,-344.43"/>
</g>
<!-- Node27 -->
<g id="node27" class="node">
<title>Node27</title>
<g id="a_node27"><a xlink:title=" ">
<polygon fill="none" stroke="#bfbfbf" points="1054.74,-313.5 1054.74,-354.5 1190.74,-354.5 1190.74,-313.5 1054.74,-313.5"/>
<text text-anchor="start" x="1062.74" y="-342.5" font-family="Helvetica,sans-Serif" font-size="10.00">../../../../external</text>
<text text-anchor="start" x="1062.74" y="-331.5" font-family="Helvetica,sans-Serif" font-size="10.00">/speex_resampler/speex</text>
<text text-anchor="middle" x="1122.74" y="-320.5" font-family="Helvetica,sans-Serif" font-size="10.00">_resampler.h</text>
</a>
</g>
</g>
<!-- Node1&#45;&gt;Node27 -->
<g id="edge40" class="edge">
<title>Node1&#45;&gt;Node27</title>
<path fill="none" stroke="midnightblue" d="M908.29,-391.44C942.9,-382.33 998.89,-367.59 1044.99,-355.46"/>
<polygon fill="midnightblue" stroke="midnightblue" points="1045.88,-358.85 1054.66,-352.92 1044.1,-352.08 1045.88,-358.85"/>
</g>
<!-- Node3 -->
<g id="node3" class="node">
<title>Node3</title>
<g id="a_node3"><a xlink:title=" ">
<polygon fill="none" stroke="#bfbfbf" points="828.74,-0.5 828.74,-19.5 880.74,-19.5 880.74,-0.5 828.74,-0.5"/>
<text text-anchor="middle" x="854.74" y="-7.5" font-family="Helvetica,sans-Serif" font-size="10.00">cassert</text>
</a>
</g>
</g>
<!-- Node2&#45;&gt;Node3 -->
<g id="edge2" class="edge">
<title>Node2&#45;&gt;Node3</title>
<path fill="none" stroke="midnightblue" d="M854.74,-67.23C854.74,-57.68 854.74,-42.12 854.74,-29.78"/>
<polygon fill="midnightblue" stroke="midnightblue" points="858.24,-29.63 854.74,-19.63 851.24,-29.63 858.24,-29.63"/>
</g>
<!-- Node5 -->
<g id="node5" class="node">
<title>Node5</title>
<g id="a_node5"><a xlink:href="_t_memory_pool_8hpp.html" target="_top" xlink:title=" ">
<polygon fill="none" stroke="black" points="303.74,-134.5 303.74,-153.5 413.74,-153.5 413.74,-134.5 303.74,-134.5"/>
<text text-anchor="middle" x="358.74" y="-141.5" font-family="Helvetica,sans-Serif" font-size="10.00">./TMemoryPool.hpp</text>
</a>
</g>
</g>
<!-- Node4&#45;&gt;Node5 -->
<g id="edge4" class="edge">
<title>Node4&#45;&gt;Node5</title>
<path fill="none" stroke="midnightblue" d="M303.07,-251.94C290.39,-238.36 269.56,-211.23 281.74,-190 290.36,-174.99 306.13,-164.5 321.17,-157.46"/>
<polygon fill="midnightblue" stroke="midnightblue" points="322.56,-160.67 330.37,-153.51 319.8,-154.24 322.56,-160.67"/>
</g>
<!-- Node15 -->
<g id="node15" class="node">
<title>Node15</title>
<g id="a_node15"><a xlink:href="_t_memory_pool_std_8hpp.html" target="_top" xlink:title=" ">
<polygon fill="none" stroke="black" points="445.74,-190.5 445.74,-209.5 571.74,-209.5 571.74,-190.5 445.74,-190.5"/>
<text text-anchor="middle" x="508.74" y="-197.5" font-family="Helvetica,sans-Serif" font-size="10.00">./TMemoryPoolStd.hpp</text>
</a>
</g>
</g>
<!-- Node4&#45;&gt;Node15 -->
<g id="edge16" class="edge">
<title>Node4&#45;&gt;Node15</title>
<path fill="none" stroke="midnightblue" d="M339.97,-251.98C374.34,-241.59 432.55,-224.01 470.82,-212.45"/>
<polygon fill="midnightblue" stroke="midnightblue" points="472.01,-215.75 480.57,-209.51 469.98,-209.05 472.01,-215.75"/>
</g>
<!-- Node16 -->
<g id="node16" class="node">
<title>Node16</title>
<g id="a_node16"><a xlink:href="_t_memory_pool_stack_8hpp.html" target="_top" xlink:title=" ">
<polygon fill="none" stroke="black" points="290.24,-190.5 290.24,-209.5 427.24,-209.5 427.24,-190.5 290.24,-190.5"/>
<text text-anchor="middle" x="358.74" y="-197.5" font-family="Helvetica,sans-Serif" font-size="10.00">./TMemoryPoolStack.hpp</text>
</a>
</g>
</g>
<!-- Node4&#45;&gt;Node16 -->
<g id="edge20" class="edge">
<title>Node4&#45;&gt;Node16</title>
<path fill="none" stroke="midnightblue" d="M318.48,-251.98C325.53,-243.05 336.78,-228.81 345.6,-217.64"/>
<polygon fill="midnightblue" stroke="midnightblue" points="348.57,-219.53 352.02,-209.51 343.08,-215.19 348.57,-219.53"/>
</g>
<!-- Node5&#45;&gt;Node2 -->
<g id="edge11" class="edge">
<title>Node5&#45;&gt;Node2</title>
<path fill="none" stroke="midnightblue" d="M414.2,-135.73C506.97,-123.57 693.11,-99.18 791.09,-86.34"/>
<polygon fill="midnightblue" stroke="midnightblue" points="791.69,-89.79 801.15,-85.02 790.78,-82.85 791.69,-89.79"/>
</g>
<!-- Node6 -->
<g id="node6" class="node">
<title>Node6</title>
<g id="a_node6"><a xlink:title=" ">
<polygon fill="none" stroke="#bfbfbf" points="357.24,-67.5 357.24,-86.5 402.24,-86.5 402.24,-67.5 357.24,-67.5"/>
<text text-anchor="middle" x="379.74" y="-74.5" font-family="Helvetica,sans-Serif" font-size="10.00">utility</text>
</a>
</g>
</g>
<!-- Node5&#45;&gt;Node6 -->
<g id="edge5" class="edge">
<title>Node5&#45;&gt;Node6</title>
<path fill="none" stroke="midnightblue" d="M361.57,-134.23C364.69,-124.59 369.79,-108.8 373.8,-96.41"/>
<polygon fill="midnightblue" stroke="midnightblue" points="377.21,-97.22 376.95,-86.63 370.55,-95.07 377.21,-97.22"/>
</g>
<!-- Node7 -->
<g id="node7" class="node">
<title>Node7</title>
<g id="a_node7"><a xlink:title=" ">
<polygon fill="none" stroke="#bfbfbf" points="420.74,-67.5 420.74,-86.5 470.74,-86.5 470.74,-67.5 420.74,-67.5"/>
<text text-anchor="middle" x="445.74" y="-74.5" font-family="Helvetica,sans-Serif" font-size="10.00">cstdint</text>
</a>
</g>
</g>
<!-- Node5&#45;&gt;Node7 -->
<g id="edge6" class="edge">
<title>Node5&#45;&gt;Node7</title>
<path fill="none" stroke="midnightblue" d="M370.48,-134.23C384.69,-123.61 408.87,-105.55 425.98,-92.76"/>
<polygon fill="midnightblue" stroke="midnightblue" points="428.28,-95.42 434.19,-86.63 424.09,-89.81 428.28,-95.42"/>
</g>
<!-- Node8 -->
<g id="node8" class="node">
<title>Node8</title>
<g id="a_node8"><a xlink:title=" ">
<polygon fill="none" stroke="#bfbfbf" points="157.24,-67.5 157.24,-86.5 194.24,-86.5 194.24,-67.5 157.24,-67.5"/>
<text text-anchor="middle" x="175.74" y="-74.5" font-family="Helvetica,sans-Serif" font-size="10.00">new</text>
</a>
</g>
</g>
<!-- Node5&#45;&gt;Node8 -->
<g id="edge7" class="edge">
<title>Node5&#45;&gt;Node8</title>
<path fill="none" stroke="midnightblue" d="M314.87,-134.43C283.01,-127.22 239.42,-115.3 203.74,-98 200.62,-96.49 197.48,-94.64 194.49,-92.67"/>
<polygon fill="midnightblue" stroke="midnightblue" points="196.28,-89.65 186.11,-86.69 192.21,-95.35 196.28,-89.65"/>
</g>
<!-- Node9 -->
<g id="node9" class="node">
<title>Node9</title>
<g id="a_node9"><a xlink:href="_t_memory_util_8hpp.html" target="_top" xlink:title=" ">
<polygon fill="none" stroke="black" points="489.24,-67.5 489.24,-86.5 596.24,-86.5 596.24,-67.5 489.24,-67.5"/>
<text text-anchor="middle" x="542.74" y="-74.5" font-family="Helvetica,sans-Serif" font-size="10.00">./TMemoryUtil.hpp</text>
</a>
</g>
</g>
<!-- Node5&#45;&gt;Node9 -->
<g id="edge8" class="edge">
<title>Node5&#45;&gt;Node9</title>
<path fill="none" stroke="midnightblue" d="M383.18,-134.37C415.43,-122.97 472.39,-102.85 508.81,-89.99"/>
<polygon fill="midnightblue" stroke="midnightblue" points="510.24,-93.19 518.5,-86.56 507.91,-86.59 510.24,-93.19"/>
</g>
<!-- Node12 -->
<g id="node12" class="node">
<title>Node12</title>
<g id="a_node12"><a xlink:href="_t_spin_lock_8hpp.html" target="_top" xlink:title=" ">
<polygon fill="none" stroke="black" points="212.74,-67.5 212.74,-86.5 338.74,-86.5 338.74,-67.5 212.74,-67.5"/>
<text text-anchor="middle" x="275.74" y="-74.5" font-family="Helvetica,sans-Serif" font-size="10.00">../types/TSpinLock.hpp</text>
</a>
</g>
</g>
<!-- Node5&#45;&gt;Node12 -->
<g id="edge12" class="edge">
<title>Node5&#45;&gt;Node12</title>
<path fill="none" stroke="midnightblue" d="M347.55,-134.23C334.11,-123.71 311.34,-105.88 295.05,-93.12"/>
<polygon fill="midnightblue" stroke="midnightblue" points="296.79,-90.04 286.76,-86.63 292.47,-95.55 296.79,-90.04"/>
</g>
<!-- Node13 -->
<g id="node13" class="node">
<title>Node13</title>
<g id="a_node13"><a xlink:href="_t_lock_guard_8hpp.html" target="_top" xlink:title=" ">
<polygon fill="none" stroke="black" points="82.24,-0.5 82.24,-19.5 183.24,-19.5 183.24,-0.5 82.24,-0.5"/>
<text text-anchor="middle" x="132.74" y="-7.5" font-family="Helvetica,sans-Serif" font-size="10.00">./TLockGuard.hpp</text>
</a>
</g>
</g>
<!-- Node5&#45;&gt;Node13 -->
<g id="edge14" class="edge">
<title>Node5&#45;&gt;Node13</title>
<path fill="none" stroke="midnightblue" d="M303.67,-139.86C210,-133.94 27.89,-119.76 8.74,-98 -3.59,-83.98 -1.97,-71.29 8.74,-56 23.3,-35.23 48.47,-24.01 72.34,-17.96"/>
<polygon fill="midnightblue" stroke="midnightblue" points="73.12,-21.37 82.1,-15.75 71.58,-14.55 73.12,-21.37"/>
</g>
<!-- Node14 -->
<g id="node14" class="node">
<title>Node14</title>
<g id="a_node14"><a xlink:title=" ">
<polygon fill="none" stroke="#bfbfbf" points="18.24,-56.5 18.24,-97.5 139.24,-97.5 139.24,-56.5 18.24,-56.5"/>
<text text-anchor="start" x="26.24" y="-85.5" font-family="Helvetica,sans-Serif" font-size="10.00">../../external/xsimd</text>
<text text-anchor="start" x="26.24" y="-74.5" font-family="Helvetica,sans-Serif" font-size="10.00">/include/xsimd/config</text>
<text text-anchor="middle" x="78.74" y="-63.5" font-family="Helvetica,sans-Serif" font-size="10.00">/xsimd_arch.hpp</text>
</a>
</g>
</g>
<!-- Node5&#45;&gt;Node14 -->
<g id="edge15" class="edge">
<title>Node5&#45;&gt;Node14</title>
<path fill="none" stroke="midnightblue" d="M314.7,-134.46C274.16,-126.4 212.14,-113.56 149.1,-98.01"/>
<polygon fill="midnightblue" stroke="midnightblue" points="149.93,-94.61 139.38,-95.6 148.24,-101.4 149.93,-94.61"/>
</g>
<!-- Node10 -->
<g id="node10" class="node">
<title>Node10</title>
<g id="a_node10"><a xlink:title=" ">
<polygon fill="none" stroke="#bfbfbf" points="691.74,-0.5 691.74,-19.5 741.74,-19.5 741.74,-0.5 691.74,-0.5"/>
<text text-anchor="middle" x="716.74" y="-7.5" font-family="Helvetica,sans-Serif" font-size="10.00">cstring</text>
</a>
</g>
</g>
<!-- Node9&#45;&gt;Node10 -->
<g id="edge9" class="edge">
<title>Node9&#45;&gt;Node10</title>
<path fill="none" stroke="midnightblue" d="M565.85,-67.37C596.22,-56.02 649.75,-36.02 684.21,-23.15"/>
<polygon fill="midnightblue" stroke="midnightblue" points="685.67,-26.34 693.82,-19.56 683.23,-19.78 685.67,-26.34"/>
</g>
<!-- Node11 -->
<g id="node11" class="node">
<title>Node11</title>
<g id="a_node11"><a xlink:title=" ">
<polygon fill="none" stroke="#bfbfbf" points="598.24,-0.5 598.24,-19.5 651.24,-19.5 651.24,-0.5 598.24,-0.5"/>
<text text-anchor="middle" x="624.74" y="-7.5" font-family="Helvetica,sans-Serif" font-size="10.00">stdlib.h</text>
</a>
</g>
</g>
<!-- Node9&#45;&gt;Node11 -->
<g id="edge10" class="edge">
<title>Node9&#45;&gt;Node11</title>
<path fill="none" stroke="midnightblue" d="M553.8,-67.23C567.08,-56.71 589.57,-38.88 605.67,-26.12"/>
<polygon fill="midnightblue" stroke="midnightblue" points="608.2,-28.58 613.86,-19.63 603.85,-23.1 608.2,-28.58"/>
</g>
<!-- Node12&#45;&gt;Node13 -->
<g id="edge13" class="edge">
<title>Node12&#45;&gt;Node13</title>
<path fill="none" stroke="midnightblue" d="M256.75,-67.37C232.29,-56.25 189.54,-36.82 161.19,-23.93"/>
<polygon fill="midnightblue" stroke="midnightblue" points="162.36,-20.62 151.81,-19.67 159.47,-26.99 162.36,-20.62"/>
</g>
<!-- Node15&#45;&gt;Node2 -->
<g id="edge19" class="edge">
<title>Node15&#45;&gt;Node2</title>
<path fill="none" stroke="midnightblue" d="M546.57,-190.49C580.92,-182.38 632.79,-169.18 676.74,-154 731.52,-135.08 793.28,-107.15 827.75,-90.95"/>
<polygon fill="midnightblue" stroke="midnightblue" points="829.59,-93.95 837.13,-86.51 826.6,-87.62 829.59,-93.95"/>
</g>
<!-- Node15&#45;&gt;Node5 -->
<g id="edge18" class="edge">
<title>Node15&#45;&gt;Node5</title>
<path fill="none" stroke="midnightblue" d="M484.97,-190.44C459.85,-181.4 420.03,-167.06 391.84,-156.92"/>
<polygon fill="midnightblue" stroke="midnightblue" points="392.99,-153.61 382.4,-153.52 390.62,-160.2 392.99,-153.61"/>
</g>
<!-- Node15&#45;&gt;Node11 -->
<g id="edge17" class="edge">
<title>Node15&#45;&gt;Node11</title>
<path fill="none" stroke="midnightblue" d="M520.42,-190.45C541.1,-174.65 584,-138.75 605.74,-98 617.31,-76.31 621.84,-48 623.61,-29.67"/>
<polygon fill="midnightblue" stroke="midnightblue" points="627.1,-29.93 624.39,-19.68 620.12,-29.38 627.1,-29.93"/>
</g>
<!-- Node16&#45;&gt;Node2 -->
<g id="edge22" class="edge">
<title>Node16&#45;&gt;Node2</title>
<path fill="none" stroke="midnightblue" d="M393.62,-190.49C481.47,-169.06 711.8,-112.87 809.69,-88.99"/>
<polygon fill="midnightblue" stroke="midnightblue" points="810.69,-92.35 819.57,-86.58 809.03,-85.55 810.69,-92.35"/>
</g>
<!-- Node16&#45;&gt;Node5 -->
<g id="edge21" class="edge">
<title>Node16&#45;&gt;Node5</title>
<path fill="none" stroke="midnightblue" d="M358.74,-190.08C358.74,-183.01 358.74,-172.86 358.74,-163.99"/>
<polygon fill="midnightblue" stroke="midnightblue" points="362.24,-163.75 358.74,-153.75 355.24,-163.75 362.24,-163.75"/>
</g>
<!-- Node17&#45;&gt;Node2 -->
<g id="edge39" class="edge">
<title>Node17&#45;&gt;Node2</title>
<path fill="none" stroke="midnightblue" d="M779.37,-326.67C838.93,-318.5 929.75,-302.25 952.74,-277 995.83,-229.67 1003.68,-188.27 969.74,-134 955.72,-111.58 929.86,-97.9 906.2,-89.68"/>
<polygon fill="midnightblue" stroke="midnightblue" points="907.18,-86.32 896.59,-86.58 905.04,-92.98 907.18,-86.32"/>
</g>
<!-- Node17&#45;&gt;Node4 -->
<g id="edge27" class="edge">
<title>Node17&#45;&gt;Node4</title>
<path fill="none" stroke="midnightblue" d="M675.8,-324.5C599.42,-311.49 453.81,-286.69 371.78,-272.72"/>
<polygon fill="midnightblue" stroke="midnightblue" points="372.3,-269.26 361.86,-271.03 371.13,-276.16 372.3,-269.26"/>
</g>
<!-- Node18 -->
<g id="node18" class="node">
<title>Node18</title>
<g id="a_node18"><a xlink:title=" ">
<polygon fill="none" stroke="#bfbfbf" points="589.74,-190.5 589.74,-209.5 653.74,-209.5 653.74,-190.5 589.74,-190.5"/>
<text text-anchor="middle" x="621.74" y="-197.5" font-family="Helvetica,sans-Serif" font-size="10.00">algorithm</text>
</a>
</g>
</g>
<!-- Node17&#45;&gt;Node18 -->
<g id="edge24" class="edge">
<title>Node17&#45;&gt;Node18</title>
<path fill="none" stroke="midnightblue" d="M672.19,-330.51C597,-325.75 466.01,-312.48 436.74,-277 427.98,-266.37 428.23,-256.83 436.74,-246 438.99,-243.14 525.73,-222.91 579.63,-210.57"/>
<polygon fill="midnightblue" stroke="midnightblue" points="580.64,-213.93 589.61,-208.29 579.08,-207.1 580.64,-213.93"/>
</g>
<!-- Node19 -->
<g id="node19" class="node">
<title>Node19</title>
<g id="a_node19"><a xlink:title=" ">
<polygon fill="none" stroke="#bfbfbf" points="916.74,-134.5 916.74,-153.5 960.74,-153.5 960.74,-134.5 916.74,-134.5"/>
<text text-anchor="middle" x="938.74" y="-141.5" font-family="Helvetica,sans-Serif" font-size="10.00">limits</text>
</a>
</g>
</g>
<!-- Node17&#45;&gt;Node19 -->
<g id="edge25" class="edge">
<title>Node17&#45;&gt;Node19</title>
<path fill="none" stroke="midnightblue" d="M779.54,-325.58C833.96,-316.88 912.71,-300.57 931.74,-277 957.97,-244.51 950.45,-191.53 943.91,-163.6"/>
<polygon fill="midnightblue" stroke="midnightblue" points="947.22,-162.41 941.35,-153.59 940.44,-164.15 947.22,-162.41"/>
</g>
<!-- Node20 -->
<g id="node20" class="node">
<title>Node20</title>
<g id="a_node20"><a xlink:title=" ">
<polygon fill="none" stroke="#bfbfbf" points="445.24,-252 445.24,-271 514.24,-271 514.24,-252 445.24,-252"/>
<text text-anchor="middle" x="479.74" y="-259" font-family="Helvetica,sans-Serif" font-size="10.00">type_traits</text>
</a>
</g>
</g>
<!-- Node17&#45;&gt;Node20 -->
<g id="edge26" class="edge">
<title>Node17&#45;&gt;Node20</title>
<path fill="none" stroke="midnightblue" d="M693.07,-324.46C653.01,-313.87 583.12,-295 523.74,-277 520.83,-276.12 517.83,-275.18 514.81,-274.22"/>
<polygon fill="midnightblue" stroke="midnightblue" points="515.86,-270.89 505.27,-271.14 513.71,-277.55 515.86,-270.89"/>
</g>
<!-- Node21 -->
<g id="node21" class="node">
<title>Node21</title>
<g id="a_node21"><a xlink:href="_t_math_8hpp.html" target="_top" xlink:title=" ">
<polygon fill="none" stroke="black" points="532.74,-252 532.74,-271 636.74,-271 636.74,-252 532.74,-252"/>
<text text-anchor="middle" x="584.74" y="-259" font-family="Helvetica,sans-Serif" font-size="10.00">../../util/TMath.hpp</text>
</a>
</g>
</g>
<!-- Node17&#45;&gt;Node21 -->
<g id="edge28" class="edge">
<title>Node17&#45;&gt;Node21</title>
<path fill="none" stroke="midnightblue" d="M708.73,-324.5C684.39,-312.32 639.39,-289.82 610.82,-275.54"/>
<polygon fill="midnightblue" stroke="midnightblue" points="612.32,-272.38 601.81,-271.03 609.19,-278.64 612.32,-272.38"/>
</g>
<!-- Node22 -->
<g id="node22" class="node">
<title>Node22</title>
<g id="a_node22"><a xlink:title=" ">
<polygon fill="none" stroke="#bfbfbf" points="654.74,-246.5 654.74,-276.5 796.74,-276.5 796.74,-246.5 654.74,-246.5"/>
<text text-anchor="start" x="662.74" y="-264.5" font-family="Helvetica,sans-Serif" font-size="10.00">../../../external/xsimd</text>
<text text-anchor="middle" x="725.74" y="-253.5" font-family="Helvetica,sans-Serif" font-size="10.00">/include/xsimd/xsimd.hpp</text>
</a>
</g>
</g>
<!-- Node17&#45;&gt;Node22 -->
<g id="edge29" class="edge">
<title>Node17&#45;&gt;Node22</title>
<path fill="none" stroke="midnightblue" d="M725.74,-324.36C725.74,-315.05 725.74,-299.83 725.74,-286.81"/>
<polygon fill="midnightblue" stroke="midnightblue" points="729.24,-286.58 725.74,-276.58 722.24,-286.58 729.24,-286.58"/>
</g>
<!-- Node23 -->
<g id="node23" class="node">
<title>Node23</title>
<g id="a_node23"><a xlink:href="_t_heap_buffer_8hpp.html" target="_top" xlink:title=" ">
<polygon fill="none" stroke="black" points="815.24,-252 815.24,-271 922.24,-271 922.24,-252 815.24,-252"/>
<text text-anchor="middle" x="868.74" y="-259" font-family="Helvetica,sans-Serif" font-size="10.00">../THeapBuffer.hpp</text>
</a>
</g>
</g>
<!-- Node17&#45;&gt;Node23 -->
<g id="edge30" class="edge">
<title>Node17&#45;&gt;Node23</title>
<path fill="none" stroke="midnightblue" d="M742.99,-324.5C767.68,-312.32 813.32,-289.82 842.3,-275.54"/>
<polygon fill="midnightblue" stroke="midnightblue" points="844.01,-278.6 851.43,-271.03 840.91,-272.32 844.01,-278.6"/>
</g>
<!-- Node23&#45;&gt;Node10 -->
<g id="edge33" class="edge">
<title>Node23&#45;&gt;Node10</title>
<path fill="none" stroke="midnightblue" d="M841.66,-251.99C821.05,-244.19 793.49,-230.67 776.74,-210 732.28,-155.11 720.73,-67.81 717.76,-29.76"/>
<polygon fill="midnightblue" stroke="midnightblue" points="721.24,-29.37 717.09,-19.62 714.26,-29.83 721.24,-29.37"/>
</g>
<!-- Node23&#45;&gt;Node18 -->
<g id="edge31" class="edge">
<title>Node23&#45;&gt;Node18</title>
<path fill="none" stroke="midnightblue" d="M833.35,-251.98C788.61,-241.2 711.69,-222.67 663.94,-211.16"/>
<polygon fill="midnightblue" stroke="midnightblue" points="664.46,-207.69 653.92,-208.75 662.82,-214.5 664.46,-207.69"/>
</g>
<!-- Node24 -->
<g id="node24" class="node">
<title>Node24</title>
<g id="a_node24"><a xlink:title=" ">
<polygon fill="none" stroke="#bfbfbf" points="672.24,-190.5 672.24,-209.5 719.24,-209.5 719.24,-190.5 672.24,-190.5"/>
<text text-anchor="middle" x="695.74" y="-197.5" font-family="Helvetica,sans-Serif" font-size="10.00">cmath</text>
</a>
</g>
</g>
<!-- Node23&#45;&gt;Node24 -->
<g id="edge32" class="edge">
<title>Node23&#45;&gt;Node24</title>
<path fill="none" stroke="midnightblue" d="M843.96,-251.98C813.81,-241.61 762.81,-224.07 729.2,-212.51"/>
<polygon fill="midnightblue" stroke="midnightblue" points="729.97,-209.07 719.37,-209.13 727.69,-215.69 729.97,-209.07"/>
</g>
<!-- Node25 -->
<g id="node25" class="node">
<title>Node25</title>
<g id="a_node25"><a xlink:href="_t_allocator_8hpp.html" target="_top" xlink:title=" ">
<polygon fill="none" stroke="black" points="785.24,-190.5 785.24,-209.5 922.24,-209.5 922.24,-190.5 785.24,-190.5"/>
<text text-anchor="middle" x="853.74" y="-197.5" font-family="Helvetica,sans-Serif" font-size="10.00">../memory/TAllocator.hpp</text>
</a>
</g>
</g>
<!-- Node23&#45;&gt;Node25 -->
<g id="edge34" class="edge">
<title>Node23&#45;&gt;Node25</title>
<path fill="none" stroke="midnightblue" d="M866.59,-251.98C864.45,-243.49 861.1,-230.2 858.36,-219.32"/>
<polygon fill="midnightblue" stroke="midnightblue" points="861.73,-218.35 855.89,-209.51 854.94,-220.06 861.73,-218.35"/>
</g>
<!-- Node25&#45;&gt;Node2 -->
<g id="edge35" class="edge">
<title>Node25&#45;&gt;Node2</title>
<path fill="none" stroke="midnightblue" d="M857.85,-190.28C861.8,-181.38 867.49,-167.07 869.74,-154 873.13,-134.38 867.58,-112.03 862.3,-96.67"/>
<polygon fill="midnightblue" stroke="midnightblue" points="865.41,-95.01 858.63,-86.87 858.86,-97.46 865.41,-95.01"/>
</g>
<!-- Node25&#45;&gt;Node11 -->
<g id="edge38" class="edge">
<title>Node25&#45;&gt;Node11</title>
<path fill="none" stroke="midnightblue" d="M842.53,-190.49C830.78,-181.53 811.82,-166.95 795.74,-154 739,-108.28 673.21,-52.45 642.39,-26.12"/>
<polygon fill="midnightblue" stroke="midnightblue" points="644.53,-23.35 634.66,-19.51 639.98,-28.67 644.53,-23.35"/>
</g>
<!-- Node25&#45;&gt;Node19 -->
<g id="edge37" class="edge">
<title>Node25&#45;&gt;Node19</title>
<path fill="none" stroke="midnightblue" d="M867.4,-190.32C880.66,-181.9 901.01,-168.97 916.59,-159.07"/>
<polygon fill="midnightblue" stroke="midnightblue" points="918.56,-161.97 925.12,-153.65 914.8,-156.06 918.56,-161.97"/>
</g>
<!-- Node26 -->
<g id="node26" class="node">
<title>Node26</title>
<g id="a_node26"><a xlink:title=" ">
<polygon fill="none" stroke="#bfbfbf" points="804.74,-134.5 804.74,-153.5 860.74,-153.5 860.74,-134.5 804.74,-134.5"/>
<text text-anchor="middle" x="832.74" y="-141.5" font-family="Helvetica,sans-Serif" font-size="10.00">stddef.h</text>
</a>
</g>
</g>
<!-- Node25&#45;&gt;Node26 -->
<g id="edge36" class="edge">
<title>Node25&#45;&gt;Node26</title>
<path fill="none" stroke="midnightblue" d="M850.27,-190.08C847.43,-182.77 843.31,-172.18 839.78,-163.1"/>
<polygon fill="midnightblue" stroke="midnightblue" points="843.03,-161.8 836.15,-153.75 836.51,-164.34 843.03,-161.8"/>
</g>
</g>
</svg>
