<?xml version="1.0" encoding="UTF-8" standalone="no"?>
<!DOCTYPE svg PUBLIC "-//W3C//DTD SVG 1.1//EN"
 "http://www.w3.org/Graphics/SVG/1.1/DTD/svg11.dtd">
<!-- Generated by graphviz version 2.50.0 (0)
 -->
<!-- Title: TStackBuffer.hpp Pages: 1 -->
<svg width="804pt" height="330pt"
 viewBox="0.00 0.00 804.00 330.00" xmlns="http://www.w3.org/2000/svg" xmlns:xlink="http://www.w3.org/1999/xlink">
<g id="graph0" class="graph" transform="scale(1 1) rotate(0) translate(4 326)">
<title>TStackBuffer.hpp</title>
<!-- Node1 -->
<g id="node1" class="node">
<title>Node1</title>
<g id="a_node1"><a xlink:title=" ">
<polygon fill="#bfbfbf" stroke="black" points="610,-302.5 610,-321.5 709,-321.5 709,-302.5 610,-302.5"/>
<text text-anchor="middle" x="659.5" y="-309.5" font-family="Helvetica,sans-Serif" font-size="10.00">TStackBuffer.hpp</text>
</a>
</g>
</g>
<!-- Node2 -->
<g id="node2" class="node">
<title>Node2</title>
<g id="a_node2"><a xlink:href="_t_assert_8h.html" target="_top" xlink:title=" ">
<polygon fill="none" stroke="black" points="673,-67.5 673,-86.5 762,-86.5 762,-67.5 673,-67.5"/>
<text text-anchor="middle" x="717.5" y="-74.5" font-family="Helvetica,sans-Serif" font-size="10.00">../util/TAssert.h</text>
</a>
</g>
</g>
<!-- Node1&#45;&gt;Node2 -->
<g id="edge1" class="edge">
<title>Node1&#45;&gt;Node2</title>
<path fill="none" stroke="midnightblue" d="M664.05,-302.37C672.84,-285.26 692.12,-245.63 701.5,-210 711.84,-170.7 715.53,-123.03 716.82,-97.09"/>
<polygon fill="midnightblue" stroke="midnightblue" points="720.33,-96.94 717.26,-86.8 713.34,-96.64 720.33,-96.94"/>
</g>
<!-- Node4 -->
<g id="node4" class="node">
<title>Node4</title>
<g id="a_node4"><a xlink:href="_t_memory_8hpp.html" target="_top" xlink:title=" ">
<polygon fill="none" stroke="black" points="472,-246.5 472,-265.5 607,-265.5 607,-246.5 472,-246.5"/>
<text text-anchor="middle" x="539.5" y="-253.5" font-family="Helvetica,sans-Serif" font-size="10.00">../memory/TMemory.hpp</text>
</a>
</g>
</g>
<!-- Node1&#45;&gt;Node4 -->
<g id="edge3" class="edge">
<title>Node1&#45;&gt;Node4</title>
<path fill="none" stroke="midnightblue" d="M640.49,-302.44C620.91,-293.64 590.19,-279.81 567.77,-269.72"/>
<polygon fill="midnightblue" stroke="midnightblue" points="568.98,-266.43 558.43,-265.52 566.11,-272.81 568.98,-266.43"/>
</g>
<!-- Node6 -->
<g id="node6" class="node">
<title>Node6</title>
<g id="a_node6"><a xlink:title=" ">
<polygon fill="none" stroke="#bfbfbf" points="0,-67.5 0,-86.5 45,-86.5 45,-67.5 0,-67.5"/>
<text text-anchor="middle" x="22.5" y="-74.5" font-family="Helvetica,sans-Serif" font-size="10.00">utility</text>
</a>
</g>
</g>
<!-- Node1&#45;&gt;Node6 -->
<g id="edge24" class="edge">
<title>Node1&#45;&gt;Node6</title>
<path fill="none" stroke="midnightblue" d="M612.59,-302.48C572.51,-294.67 513.58,-281.91 463.5,-266 276.22,-206.48 229.33,-187.73 54.5,-98 51.03,-96.22 47.45,-94.19 43.99,-92.12"/>
<polygon fill="midnightblue" stroke="midnightblue" points="45.62,-89.01 35.29,-86.69 41.92,-94.95 45.62,-89.01"/>
</g>
<!-- Node17 -->
<g id="node17" class="node">
<title>Node17</title>
<g id="a_node17"><a xlink:title=" ">
<polygon fill="none" stroke="#bfbfbf" points="749,-246.5 749,-265.5 796,-265.5 796,-246.5 749,-246.5"/>
<text text-anchor="middle" x="772.5" y="-253.5" font-family="Helvetica,sans-Serif" font-size="10.00">cmath</text>
</a>
</g>
</g>
<!-- Node1&#45;&gt;Node17 -->
<g id="edge23" class="edge">
<title>Node1&#45;&gt;Node17</title>
<path fill="none" stroke="midnightblue" d="M677.41,-302.44C695.75,-293.68 724.51,-279.94 745.59,-269.86"/>
<polygon fill="midnightblue" stroke="midnightblue" points="747.17,-272.99 754.68,-265.52 744.15,-266.67 747.17,-272.99"/>
</g>
<!-- Node3 -->
<g id="node3" class="node">
<title>Node3</title>
<g id="a_node3"><a xlink:title=" ">
<polygon fill="none" stroke="#bfbfbf" points="691.5,-0.5 691.5,-19.5 743.5,-19.5 743.5,-0.5 691.5,-0.5"/>
<text text-anchor="middle" x="717.5" y="-7.5" font-family="Helvetica,sans-Serif" font-size="10.00">cassert</text>
</a>
</g>
</g>
<!-- Node2&#45;&gt;Node3 -->
<g id="edge2" class="edge">
<title>Node2&#45;&gt;Node3</title>
<path fill="none" stroke="midnightblue" d="M717.5,-67.23C717.5,-57.68 717.5,-42.12 717.5,-29.78"/>
<polygon fill="midnightblue" stroke="midnightblue" points="721,-29.63 717.5,-19.63 714,-29.63 721,-29.63"/>
</g>
<!-- Node5 -->
<g id="node5" class="node">
<title>Node5</title>
<g id="a_node5"><a xlink:href="_t_memory_pool_8hpp.html" target="_top" xlink:title=" ">
<polygon fill="none" stroke="black" points="327.5,-134.5 327.5,-153.5 437.5,-153.5 437.5,-134.5 327.5,-134.5"/>
<text text-anchor="middle" x="382.5" y="-141.5" font-family="Helvetica,sans-Serif" font-size="10.00">./TMemoryPool.hpp</text>
</a>
</g>
</g>
<!-- Node4&#45;&gt;Node5 -->
<g id="edge4" class="edge">
<title>Node4&#45;&gt;Node5</title>
<path fill="none" stroke="midnightblue" d="M473.36,-246.44C448.27,-240.12 421.26,-229.12 402.5,-210 390.49,-197.76 385.67,-178.5 383.75,-164.12"/>
<polygon fill="midnightblue" stroke="midnightblue" points="387.2,-163.46 382.75,-153.85 380.24,-164.15 387.2,-163.46"/>
</g>
<!-- Node15 -->
<g id="node15" class="node">
<title>Node15</title>
<g id="a_node15"><a xlink:href="_t_memory_pool_std_8hpp.html" target="_top" xlink:title=" ">
<polygon fill="none" stroke="black" points="566.5,-190.5 566.5,-209.5 692.5,-209.5 692.5,-190.5 566.5,-190.5"/>
<text text-anchor="middle" x="629.5" y="-197.5" font-family="Helvetica,sans-Serif" font-size="10.00">./TMemoryPoolStd.hpp</text>
</a>
</g>
</g>
<!-- Node4&#45;&gt;Node15 -->
<g id="edge16" class="edge">
<title>Node4&#45;&gt;Node15</title>
<path fill="none" stroke="midnightblue" d="M553.96,-246.32C568,-237.9 589.55,-224.97 606.04,-215.07"/>
<polygon fill="midnightblue" stroke="midnightblue" points="608.3,-217.8 615.08,-209.65 604.7,-211.8 608.3,-217.8"/>
</g>
<!-- Node16 -->
<g id="node16" class="node">
<title>Node16</title>
<g id="a_node16"><a xlink:href="_t_memory_pool_stack_8hpp.html" target="_top" xlink:title=" ">
<polygon fill="none" stroke="black" points="411,-190.5 411,-209.5 548,-209.5 548,-190.5 411,-190.5"/>
<text text-anchor="middle" x="479.5" y="-197.5" font-family="Helvetica,sans-Serif" font-size="10.00">./TMemoryPoolStack.hpp</text>
</a>
</g>
</g>
<!-- Node4&#45;&gt;Node16 -->
<g id="edge20" class="edge">
<title>Node4&#45;&gt;Node16</title>
<path fill="none" stroke="midnightblue" d="M529.86,-246.32C520.99,-238.34 507.63,-226.31 496.89,-216.65"/>
<polygon fill="midnightblue" stroke="midnightblue" points="499.09,-213.92 489.32,-209.83 494.41,-219.13 499.09,-213.92"/>
</g>
<!-- Node5&#45;&gt;Node2 -->
<g id="edge11" class="edge">
<title>Node5&#45;&gt;Node2</title>
<path fill="none" stroke="midnightblue" d="M431,-134.48C480.1,-125.74 558.2,-111.54 625.5,-98 639.81,-95.12 655.34,-91.81 669.49,-88.73"/>
<polygon fill="midnightblue" stroke="midnightblue" points="670.49,-92.1 679.51,-86.54 668.99,-85.26 670.49,-92.1"/>
</g>
<!-- Node5&#45;&gt;Node6 -->
<g id="edge5" class="edge">
<title>Node5&#45;&gt;Node6</title>
<path fill="none" stroke="midnightblue" d="M327.43,-142.44C260.87,-140.2 146.37,-131.27 54.5,-98 50.34,-96.49 46.15,-94.39 42.24,-92.11"/>
<polygon fill="midnightblue" stroke="midnightblue" points="44.05,-89.12 33.74,-86.67 40.27,-95.01 44.05,-89.12"/>
</g>
<!-- Node7 -->
<g id="node7" class="node">
<title>Node7</title>
<g id="a_node7"><a xlink:title=" ">
<polygon fill="none" stroke="#bfbfbf" points="63.5,-67.5 63.5,-86.5 113.5,-86.5 113.5,-67.5 63.5,-67.5"/>
<text text-anchor="middle" x="88.5" y="-74.5" font-family="Helvetica,sans-Serif" font-size="10.00">cstdint</text>
</a>
</g>
</g>
<!-- Node5&#45;&gt;Node7 -->
<g id="edge6" class="edge">
<title>Node5&#45;&gt;Node7</title>
<path fill="none" stroke="midnightblue" d="M327.5,-139.25C273.83,-134.26 190.56,-122.96 122.5,-98 118.04,-96.36 113.5,-94.15 109.25,-91.78"/>
<polygon fill="midnightblue" stroke="midnightblue" points="110.93,-88.71 100.56,-86.54 107.32,-94.7 110.93,-88.71"/>
</g>
<!-- Node8 -->
<g id="node8" class="node">
<title>Node8</title>
<g id="a_node8"><a xlink:title=" ">
<polygon fill="none" stroke="#bfbfbf" points="132,-67.5 132,-86.5 169,-86.5 169,-67.5 132,-67.5"/>
<text text-anchor="middle" x="150.5" y="-74.5" font-family="Helvetica,sans-Serif" font-size="10.00">new</text>
</a>
</g>
</g>
<!-- Node5&#45;&gt;Node8 -->
<g id="edge7" class="edge">
<title>Node5&#45;&gt;Node8</title>
<path fill="none" stroke="midnightblue" d="M327.44,-135.45C286.66,-128.7 230.31,-116.89 183.5,-98 179.38,-96.34 175.17,-94.19 171.21,-91.92"/>
<polygon fill="midnightblue" stroke="midnightblue" points="172.89,-88.85 162.54,-86.59 169.22,-94.81 172.89,-88.85"/>
</g>
<!-- Node9 -->
<g id="node9" class="node">
<title>Node9</title>
<g id="a_node9"><a xlink:href="_t_memory_util_8hpp.html" target="_top" xlink:title=" ">
<polygon fill="none" stroke="black" points="370,-67.5 370,-86.5 477,-86.5 477,-67.5 370,-67.5"/>
<text text-anchor="middle" x="423.5" y="-74.5" font-family="Helvetica,sans-Serif" font-size="10.00">./TMemoryUtil.hpp</text>
</a>
</g>
</g>
<!-- Node5&#45;&gt;Node9 -->
<g id="edge8" class="edge">
<title>Node5&#45;&gt;Node9</title>
<path fill="none" stroke="midnightblue" d="M388.03,-134.23C394.3,-124.29 404.68,-107.84 412.59,-95.29"/>
<polygon fill="midnightblue" stroke="midnightblue" points="415.68,-96.95 418.06,-86.63 409.76,-93.22 415.68,-96.95"/>
</g>
<!-- Node12 -->
<g id="node12" class="node">
<title>Node12</title>
<g id="a_node12"><a xlink:href="_t_spin_lock_8hpp.html" target="_top" xlink:title=" ">
<polygon fill="none" stroke="black" points="225.5,-67.5 225.5,-86.5 351.5,-86.5 351.5,-67.5 225.5,-67.5"/>
<text text-anchor="middle" x="288.5" y="-74.5" font-family="Helvetica,sans-Serif" font-size="10.00">../types/TSpinLock.hpp</text>
</a>
</g>
</g>
<!-- Node5&#45;&gt;Node12 -->
<g id="edge12" class="edge">
<title>Node5&#45;&gt;Node12</title>
<path fill="none" stroke="midnightblue" d="M369.82,-134.23C354.32,-123.51 327.86,-105.22 309.34,-92.41"/>
<polygon fill="midnightblue" stroke="midnightblue" points="311.19,-89.44 300.98,-86.63 307.21,-95.19 311.19,-89.44"/>
</g>
<!-- Node13 -->
<g id="node13" class="node">
<title>Node13</title>
<g id="a_node13"><a xlink:href="_t_lock_guard_8hpp.html" target="_top" xlink:title=" ">
<polygon fill="none" stroke="black" points="193,-0.5 193,-19.5 294,-19.5 294,-0.5 193,-0.5"/>
<text text-anchor="middle" x="243.5" y="-7.5" font-family="Helvetica,sans-Serif" font-size="10.00">./TLockGuard.hpp</text>
</a>
</g>
</g>
<!-- Node5&#45;&gt;Node13 -->
<g id="edge14" class="edge">
<title>Node5&#45;&gt;Node13</title>
<path fill="none" stroke="midnightblue" d="M327.26,-135.32C284.4,-128.1 230.06,-115.73 216.5,-98 200.48,-77.06 216.78,-46.49 230.09,-27.72"/>
<polygon fill="midnightblue" stroke="midnightblue" points="233.03,-29.65 236.24,-19.55 227.43,-25.44 233.03,-29.65"/>
</g>
<!-- Node14 -->
<g id="node14" class="node">
<title>Node14</title>
<g id="a_node14"><a xlink:title=" ">
<polygon fill="none" stroke="#bfbfbf" points="495,-56.5 495,-97.5 616,-97.5 616,-56.5 495,-56.5"/>
<text text-anchor="start" x="503" y="-85.5" font-family="Helvetica,sans-Serif" font-size="10.00">../../external/xsimd</text>
<text text-anchor="start" x="503" y="-74.5" font-family="Helvetica,sans-Serif" font-size="10.00">/include/xsimd/config</text>
<text text-anchor="middle" x="555.5" y="-63.5" font-family="Helvetica,sans-Serif" font-size="10.00">/xsimd_arch.hpp</text>
</a>
</g>
</g>
<!-- Node5&#45;&gt;Node14 -->
<g id="edge15" class="edge">
<title>Node5&#45;&gt;Node14</title>
<path fill="none" stroke="midnightblue" d="M405.47,-134.37C427.87,-125.95 462.92,-112.79 493.51,-101.29"/>
<polygon fill="midnightblue" stroke="midnightblue" points="495.14,-104.42 503.27,-97.63 492.67,-97.87 495.14,-104.42"/>
</g>
<!-- Node10 -->
<g id="node10" class="node">
<title>Node10</title>
<g id="a_node10"><a xlink:title=" ">
<polygon fill="none" stroke="#bfbfbf" points="398.5,-0.5 398.5,-19.5 448.5,-19.5 448.5,-0.5 398.5,-0.5"/>
<text text-anchor="middle" x="423.5" y="-7.5" font-family="Helvetica,sans-Serif" font-size="10.00">cstring</text>
</a>
</g>
</g>
<!-- Node9&#45;&gt;Node10 -->
<g id="edge9" class="edge">
<title>Node9&#45;&gt;Node10</title>
<path fill="none" stroke="midnightblue" d="M423.5,-67.23C423.5,-57.68 423.5,-42.12 423.5,-29.78"/>
<polygon fill="midnightblue" stroke="midnightblue" points="427,-29.63 423.5,-19.63 420,-29.63 427,-29.63"/>
</g>
<!-- Node11 -->
<g id="node11" class="node">
<title>Node11</title>
<g id="a_node11"><a xlink:title=" ">
<polygon fill="none" stroke="#bfbfbf" points="543,-0.5 543,-19.5 596,-19.5 596,-0.5 543,-0.5"/>
<text text-anchor="middle" x="569.5" y="-7.5" font-family="Helvetica,sans-Serif" font-size="10.00">stdlib.h</text>
</a>
</g>
</g>
<!-- Node9&#45;&gt;Node11 -->
<g id="edge10" class="edge">
<title>Node9&#45;&gt;Node11</title>
<path fill="none" stroke="midnightblue" d="M442.89,-67.37C467.98,-56.2 511.89,-36.65 540.84,-23.76"/>
<polygon fill="midnightblue" stroke="midnightblue" points="542.32,-26.93 550.03,-19.67 539.47,-20.54 542.32,-26.93"/>
</g>
<!-- Node12&#45;&gt;Node13 -->
<g id="edge13" class="edge">
<title>Node12&#45;&gt;Node13</title>
<path fill="none" stroke="midnightblue" d="M282.43,-67.23C275.48,-57.2 263.93,-40.51 255.21,-27.92"/>
<polygon fill="midnightblue" stroke="midnightblue" points="258.04,-25.86 249.47,-19.63 252.29,-29.84 258.04,-25.86"/>
</g>
<!-- Node15&#45;&gt;Node2 -->
<g id="edge19" class="edge">
<title>Node15&#45;&gt;Node2</title>
<path fill="none" stroke="midnightblue" d="M635.83,-190.3C650.35,-170.33 686.28,-120.92 705.28,-94.8"/>
<polygon fill="midnightblue" stroke="midnightblue" points="708.18,-96.77 711.23,-86.62 702.52,-92.65 708.18,-96.77"/>
</g>
<!-- Node15&#45;&gt;Node5 -->
<g id="edge18" class="edge">
<title>Node15&#45;&gt;Node5</title>
<path fill="none" stroke="midnightblue" d="M590.36,-190.44C547.27,-181.02 477.94,-165.87 431.33,-155.68"/>
<polygon fill="midnightblue" stroke="midnightblue" points="431.97,-152.23 421.45,-153.52 430.48,-159.07 431.97,-152.23"/>
</g>
<!-- Node15&#45;&gt;Node11 -->
<g id="edge17" class="edge">
<title>Node15&#45;&gt;Node11</title>
<path fill="none" stroke="midnightblue" d="M631.63,-190.35C636.87,-167.12 648.37,-102.05 625.5,-56 619.07,-43.04 606.97,-32.59 595.65,-25.03"/>
<polygon fill="midnightblue" stroke="midnightblue" points="597.22,-21.88 586.88,-19.6 593.54,-27.84 597.22,-21.88"/>
</g>
<!-- Node16&#45;&gt;Node2 -->
<g id="edge22" class="edge">
<title>Node16&#45;&gt;Node2</title>
<path fill="none" stroke="midnightblue" d="M496.24,-190.49C537.1,-169.71 642.23,-116.27 691.41,-91.26"/>
<polygon fill="midnightblue" stroke="midnightblue" points="693.14,-94.31 700.46,-86.66 689.96,-88.07 693.14,-94.31"/>
</g>
<!-- Node16&#45;&gt;Node5 -->
<g id="edge21" class="edge">
<title>Node16&#45;&gt;Node5</title>
<path fill="none" stroke="midnightblue" d="M463.92,-190.32C448.5,-181.74 424.69,-168.49 406.79,-158.52"/>
<polygon fill="midnightblue" stroke="midnightblue" points="408.49,-155.46 398.05,-153.65 405.08,-161.58 408.49,-155.46"/>
</g>
</g>
</svg>
