<?xml version="1.0" encoding="UTF-8" standalone="no"?>
<!DOCTYPE svg PUBLIC "-//W3C//DTD SVG 1.1//EN"
 "http://www.w3.org/Graphics/SVG/1.1/DTD/svg11.dtd">
<!-- Generated by graphviz version 2.50.0 (0)
 -->
<!-- Title: TWaveFile.hpp Pages: 1 -->
<svg width="1143pt" height="408pt"
 viewBox="0.00 0.00 1142.78 408.00" xmlns="http://www.w3.org/2000/svg" xmlns:xlink="http://www.w3.org/1999/xlink">
<g id="graph0" class="graph" transform="scale(1 1) rotate(0) translate(4 404)">
<title>TWaveFile.hpp</title>
<!-- Node1 -->
<g id="node1" class="node">
<title>Node1</title>
<g id="a_node1"><a xlink:title=" ">
<polygon fill="#bfbfbf" stroke="black" points="616.5,-380.5 616.5,-399.5 705.5,-399.5 705.5,-380.5 616.5,-380.5"/>
<text text-anchor="middle" x="661" y="-387.5" font-family="Helvetica,sans-Serif" font-size="10.00">TWaveFile.hpp</text>
</a>
</g>
</g>
<!-- Node2 -->
<g id="node2" class="node">
<title>Node2</title>
<g id="a_node2"><a xlink:href="_t_memory_8hpp.html" target="_top" xlink:title=" ">
<polygon fill="none" stroke="black" points="388,-252 388,-271 532,-271 532,-252 388,-252"/>
<text text-anchor="middle" x="460" y="-259" font-family="Helvetica,sans-Serif" font-size="10.00">../../memory/TMemory.hpp</text>
</a>
</g>
</g>
<!-- Node1&#45;&gt;Node2 -->
<g id="edge1" class="edge">
<title>Node1&#45;&gt;Node2</title>
<path fill="none" stroke="midnightblue" d="M647.18,-380.31C612.96,-358.77 524.03,-302.79 482.27,-276.51"/>
<polygon fill="midnightblue" stroke="midnightblue" points="483.97,-273.45 473.65,-271.09 480.25,-279.38 483.97,-273.45"/>
</g>
<!-- Node17 -->
<g id="node17" class="node">
<title>Node17</title>
<g id="a_node17"><a xlink:href="_t_audio_buffer_8hpp.html" target="_top" xlink:title=" ">
<polygon fill="none" stroke="black" points="609,-319 609,-338 713,-338 713,-319 609,-319"/>
<text text-anchor="middle" x="661" y="-326" font-family="Helvetica,sans-Serif" font-size="10.00">./TAudioBuffer.hpp</text>
</a>
</g>
</g>
<!-- Node1&#45;&gt;Node17 -->
<g id="edge22" class="edge">
<title>Node1&#45;&gt;Node17</title>
<path fill="none" stroke="midnightblue" d="M661,-380.48C661,-372.08 661,-358.98 661,-348.16"/>
<polygon fill="midnightblue" stroke="midnightblue" points="664.5,-348.01 661,-338.01 657.5,-348.01 664.5,-348.01"/>
</g>
<!-- Node27 -->
<g id="node27" class="node">
<title>Node27</title>
<g id="a_node27"><a xlink:title=" ">
<polygon fill="none" stroke="#bfbfbf" points="731.5,-313.5 731.5,-343.5 828.5,-343.5 828.5,-313.5 731.5,-313.5"/>
<text text-anchor="start" x="739.5" y="-331.5" font-family="Helvetica,sans-Serif" font-size="10.00">../../../external/dr</text>
<text text-anchor="middle" x="780" y="-320.5" font-family="Helvetica,sans-Serif" font-size="10.00">_wav.h</text>
</a>
</g>
</g>
<!-- Node1&#45;&gt;Node27 -->
<g id="edge39" class="edge">
<title>Node1&#45;&gt;Node27</title>
<path fill="none" stroke="midnightblue" d="M678.05,-380.48C694.92,-372.04 721.29,-358.86 742.98,-348.01"/>
<polygon fill="midnightblue" stroke="midnightblue" points="744.58,-351.13 751.95,-343.52 741.44,-344.86 744.58,-351.13"/>
</g>
<!-- Node3 -->
<g id="node3" class="node">
<title>Node3</title>
<g id="a_node3"><a xlink:href="_t_memory_pool_8hpp.html" target="_top" xlink:title=" ">
<polygon fill="none" stroke="black" points="332,-134.5 332,-153.5 442,-153.5 442,-134.5 332,-134.5"/>
<text text-anchor="middle" x="387" y="-141.5" font-family="Helvetica,sans-Serif" font-size="10.00">./TMemoryPool.hpp</text>
</a>
</g>
</g>
<!-- Node2&#45;&gt;Node3 -->
<g id="edge2" class="edge">
<title>Node2&#45;&gt;Node3</title>
<path fill="none" stroke="midnightblue" d="M387.75,-253C360.35,-246.24 331.75,-233.58 315,-210 299.97,-188.85 329.11,-169.61 354.7,-157.65"/>
<polygon fill="midnightblue" stroke="midnightblue" points="356.16,-160.83 363.88,-153.58 353.32,-154.43 356.16,-160.83"/>
</g>
<!-- Node15 -->
<g id="node15" class="node">
<title>Node15</title>
<g id="a_node15"><a xlink:href="_t_memory_pool_std_8hpp.html" target="_top" xlink:title=" ">
<polygon fill="none" stroke="black" points="324,-190.5 324,-209.5 450,-209.5 450,-190.5 324,-190.5"/>
<text text-anchor="middle" x="387" y="-197.5" font-family="Helvetica,sans-Serif" font-size="10.00">./TMemoryPoolStd.hpp</text>
</a>
</g>
</g>
<!-- Node2&#45;&gt;Node15 -->
<g id="edge15" class="edge">
<title>Node2&#45;&gt;Node15</title>
<path fill="none" stroke="midnightblue" d="M449.54,-251.98C438.05,-242.61 419.37,-227.38 405.41,-216.01"/>
<polygon fill="midnightblue" stroke="midnightblue" points="407.4,-213.11 397.44,-209.51 402.98,-218.54 407.4,-213.11"/>
</g>
<!-- Node16 -->
<g id="node16" class="node">
<title>Node16</title>
<g id="a_node16"><a xlink:href="_t_memory_pool_stack_8hpp.html" target="_top" xlink:title=" ">
<polygon fill="none" stroke="black" points="468.5,-190.5 468.5,-209.5 605.5,-209.5 605.5,-190.5 468.5,-190.5"/>
<text text-anchor="middle" x="537" y="-197.5" font-family="Helvetica,sans-Serif" font-size="10.00">./TMemoryPoolStack.hpp</text>
</a>
</g>
</g>
<!-- Node2&#45;&gt;Node16 -->
<g id="edge19" class="edge">
<title>Node2&#45;&gt;Node16</title>
<path fill="none" stroke="midnightblue" d="M471.03,-251.98C483.27,-242.52 503.23,-227.1 517.99,-215.69"/>
<polygon fill="midnightblue" stroke="midnightblue" points="520.22,-218.39 525.99,-209.51 515.94,-212.85 520.22,-218.39"/>
</g>
<!-- Node4 -->
<g id="node4" class="node">
<title>Node4</title>
<g id="a_node4"><a xlink:title=" ">
<polygon fill="none" stroke="#bfbfbf" points="321.5,-67.5 321.5,-86.5 366.5,-86.5 366.5,-67.5 321.5,-67.5"/>
<text text-anchor="middle" x="344" y="-74.5" font-family="Helvetica,sans-Serif" font-size="10.00">utility</text>
</a>
</g>
</g>
<!-- Node3&#45;&gt;Node4 -->
<g id="edge3" class="edge">
<title>Node3&#45;&gt;Node4</title>
<path fill="none" stroke="midnightblue" d="M381.2,-134.23C374.62,-124.29 363.74,-107.84 355.44,-95.29"/>
<polygon fill="midnightblue" stroke="midnightblue" points="358.14,-93.04 349.71,-86.63 352.31,-96.9 358.14,-93.04"/>
</g>
<!-- Node5 -->
<g id="node5" class="node">
<title>Node5</title>
<g id="a_node5"><a xlink:title=" ">
<polygon fill="none" stroke="#bfbfbf" points="385,-67.5 385,-86.5 435,-86.5 435,-67.5 385,-67.5"/>
<text text-anchor="middle" x="410" y="-74.5" font-family="Helvetica,sans-Serif" font-size="10.00">cstdint</text>
</a>
</g>
</g>
<!-- Node3&#45;&gt;Node5 -->
<g id="edge4" class="edge">
<title>Node3&#45;&gt;Node5</title>
<path fill="none" stroke="midnightblue" d="M390.1,-134.23C393.52,-124.59 399.1,-108.8 403.49,-96.41"/>
<polygon fill="midnightblue" stroke="midnightblue" points="406.91,-97.22 406.95,-86.63 400.31,-94.89 406.91,-97.22"/>
</g>
<!-- Node6 -->
<g id="node6" class="node">
<title>Node6</title>
<g id="a_node6"><a xlink:title=" ">
<polygon fill="none" stroke="#bfbfbf" points="453.5,-67.5 453.5,-86.5 490.5,-86.5 490.5,-67.5 453.5,-67.5"/>
<text text-anchor="middle" x="472" y="-74.5" font-family="Helvetica,sans-Serif" font-size="10.00">new</text>
</a>
</g>
</g>
<!-- Node3&#45;&gt;Node6 -->
<g id="edge5" class="edge">
<title>Node3&#45;&gt;Node6</title>
<path fill="none" stroke="midnightblue" d="M398.46,-134.23C412.36,-123.61 435.98,-105.55 452.69,-92.76"/>
<polygon fill="midnightblue" stroke="midnightblue" points="454.9,-95.48 460.72,-86.63 450.65,-89.92 454.9,-95.48"/>
</g>
<!-- Node7 -->
<g id="node7" class="node">
<title>Node7</title>
<g id="a_node7"><a xlink:href="_t_memory_util_8hpp.html" target="_top" xlink:title=" ">
<polygon fill="none" stroke="black" points="547.5,-67.5 547.5,-86.5 654.5,-86.5 654.5,-67.5 547.5,-67.5"/>
<text text-anchor="middle" x="601" y="-74.5" font-family="Helvetica,sans-Serif" font-size="10.00">./TMemoryUtil.hpp</text>
</a>
</g>
</g>
<!-- Node3&#45;&gt;Node7 -->
<g id="edge6" class="edge">
<title>Node3&#45;&gt;Node7</title>
<path fill="none" stroke="midnightblue" d="M415.42,-134.37C453.42,-122.83 520.88,-102.34 563.15,-89.5"/>
<polygon fill="midnightblue" stroke="midnightblue" points="564.25,-92.82 572.81,-86.56 562.22,-86.12 564.25,-92.82"/>
</g>
<!-- Node10 -->
<g id="node10" class="node">
<title>Node10</title>
<g id="a_node10"><a xlink:href="_t_assert_8h.html" target="_top" xlink:title=" ">
<polygon fill="none" stroke="black" points="672.5,-67.5 672.5,-86.5 761.5,-86.5 761.5,-67.5 672.5,-67.5"/>
<text text-anchor="middle" x="717" y="-74.5" font-family="Helvetica,sans-Serif" font-size="10.00">../util/TAssert.h</text>
</a>
</g>
</g>
<!-- Node3&#45;&gt;Node10 -->
<g id="edge9" class="edge">
<title>Node3&#45;&gt;Node10</title>
<path fill="none" stroke="midnightblue" d="M442.08,-137.34C498.47,-130.78 588.33,-118.21 664,-98 671.8,-95.92 680.04,-93.12 687.64,-90.27"/>
<polygon fill="midnightblue" stroke="midnightblue" points="689.13,-93.45 697.18,-86.56 686.59,-86.92 689.13,-93.45"/>
</g>
<!-- Node12 -->
<g id="node12" class="node">
<title>Node12</title>
<g id="a_node12"><a xlink:href="_t_spin_lock_8hpp.html" target="_top" xlink:title=" ">
<polygon fill="none" stroke="black" points="0,-67.5 0,-86.5 126,-86.5 126,-67.5 0,-67.5"/>
<text text-anchor="middle" x="63" y="-74.5" font-family="Helvetica,sans-Serif" font-size="10.00">../types/TSpinLock.hpp</text>
</a>
</g>
</g>
<!-- Node3&#45;&gt;Node12 -->
<g id="edge11" class="edge">
<title>Node3&#45;&gt;Node12</title>
<path fill="none" stroke="midnightblue" d="M333.77,-134.47C283.6,-126.16 206.4,-112.65 140,-98 128.11,-95.38 115.27,-92.19 103.56,-89.13"/>
<polygon fill="midnightblue" stroke="midnightblue" points="104.16,-85.67 93.6,-86.5 102.37,-92.44 104.16,-85.67"/>
</g>
<!-- Node13 -->
<g id="node13" class="node">
<title>Node13</title>
<g id="a_node13"><a xlink:href="_t_lock_guard_8hpp.html" target="_top" xlink:title=" ">
<polygon fill="none" stroke="black" points="58.5,-0.5 58.5,-19.5 159.5,-19.5 159.5,-0.5 58.5,-0.5"/>
<text text-anchor="middle" x="109" y="-7.5" font-family="Helvetica,sans-Serif" font-size="10.00">./TLockGuard.hpp</text>
</a>
</g>
</g>
<!-- Node3&#45;&gt;Node13 -->
<g id="edge13" class="edge">
<title>Node3&#45;&gt;Node13</title>
<path fill="none" stroke="midnightblue" d="M331.94,-142.1C286.13,-138.97 220.89,-128.82 173,-98 159.07,-89.03 133.86,-50.97 119.6,-28.27"/>
<polygon fill="midnightblue" stroke="midnightblue" points="122.47,-26.26 114.22,-19.61 116.52,-29.95 122.47,-26.26"/>
</g>
<!-- Node14 -->
<g id="node14" class="node">
<title>Node14</title>
<g id="a_node14"><a xlink:title=" ">
<polygon fill="none" stroke="#bfbfbf" points="182.5,-56.5 182.5,-97.5 303.5,-97.5 303.5,-56.5 182.5,-56.5"/>
<text text-anchor="start" x="190.5" y="-85.5" font-family="Helvetica,sans-Serif" font-size="10.00">../../external/xsimd</text>
<text text-anchor="start" x="190.5" y="-74.5" font-family="Helvetica,sans-Serif" font-size="10.00">/include/xsimd/config</text>
<text text-anchor="middle" x="243" y="-63.5" font-family="Helvetica,sans-Serif" font-size="10.00">/xsimd_arch.hpp</text>
</a>
</g>
</g>
<!-- Node3&#45;&gt;Node14 -->
<g id="edge14" class="edge">
<title>Node3&#45;&gt;Node14</title>
<path fill="none" stroke="midnightblue" d="M367.88,-134.37C349.56,-126.1 321.07,-113.24 295.92,-101.89"/>
<polygon fill="midnightblue" stroke="midnightblue" points="297.03,-98.55 286.48,-97.63 294.15,-104.93 297.03,-98.55"/>
</g>
<!-- Node8 -->
<g id="node8" class="node">
<title>Node8</title>
<g id="a_node8"><a xlink:title=" ">
<polygon fill="none" stroke="#bfbfbf" points="634,-0.5 634,-19.5 684,-19.5 684,-0.5 634,-0.5"/>
<text text-anchor="middle" x="659" y="-7.5" font-family="Helvetica,sans-Serif" font-size="10.00">cstring</text>
</a>
</g>
</g>
<!-- Node7&#45;&gt;Node8 -->
<g id="edge7" class="edge">
<title>Node7&#45;&gt;Node8</title>
<path fill="none" stroke="midnightblue" d="M608.82,-67.23C617.95,-57 633.24,-39.86 644.55,-27.19"/>
<polygon fill="midnightblue" stroke="midnightblue" points="647.26,-29.42 651.3,-19.63 642.03,-24.76 647.26,-29.42"/>
</g>
<!-- Node9 -->
<g id="node9" class="node">
<title>Node9</title>
<g id="a_node9"><a xlink:title=" ">
<polygon fill="none" stroke="#bfbfbf" points="562.5,-0.5 562.5,-19.5 615.5,-19.5 615.5,-0.5 562.5,-0.5"/>
<text text-anchor="middle" x="589" y="-7.5" font-family="Helvetica,sans-Serif" font-size="10.00">stdlib.h</text>
</a>
</g>
</g>
<!-- Node7&#45;&gt;Node9 -->
<g id="edge8" class="edge">
<title>Node7&#45;&gt;Node9</title>
<path fill="none" stroke="midnightblue" d="M599.38,-67.23C597.62,-57.68 594.74,-42.12 592.47,-29.78"/>
<polygon fill="midnightblue" stroke="midnightblue" points="595.85,-28.83 590.59,-19.63 588.97,-30.1 595.85,-28.83"/>
</g>
<!-- Node11 -->
<g id="node11" class="node">
<title>Node11</title>
<g id="a_node11"><a xlink:title=" ">
<polygon fill="none" stroke="#bfbfbf" points="702,-0.5 702,-19.5 754,-19.5 754,-0.5 702,-0.5"/>
<text text-anchor="middle" x="728" y="-7.5" font-family="Helvetica,sans-Serif" font-size="10.00">cassert</text>
</a>
</g>
</g>
<!-- Node10&#45;&gt;Node11 -->
<g id="edge10" class="edge">
<title>Node10&#45;&gt;Node11</title>
<path fill="none" stroke="midnightblue" d="M718.48,-67.23C720.1,-57.68 722.73,-42.12 724.82,-29.78"/>
<polygon fill="midnightblue" stroke="midnightblue" points="728.32,-30.07 726.54,-19.63 721.42,-28.9 728.32,-30.07"/>
</g>
<!-- Node12&#45;&gt;Node13 -->
<g id="edge12" class="edge">
<title>Node12&#45;&gt;Node13</title>
<path fill="none" stroke="midnightblue" d="M69.2,-67.23C76.31,-57.2 88.11,-40.51 97.02,-27.92"/>
<polygon fill="midnightblue" stroke="midnightblue" points="99.97,-29.81 102.89,-19.63 94.26,-25.77 99.97,-29.81"/>
</g>
<!-- Node15&#45;&gt;Node3 -->
<g id="edge17" class="edge">
<title>Node15&#45;&gt;Node3</title>
<path fill="none" stroke="midnightblue" d="M387,-190.08C387,-183.01 387,-172.86 387,-163.99"/>
<polygon fill="midnightblue" stroke="midnightblue" points="390.5,-163.75 387,-153.75 383.5,-163.75 390.5,-163.75"/>
</g>
<!-- Node15&#45;&gt;Node9 -->
<g id="edge16" class="edge">
<title>Node15&#45;&gt;Node9</title>
<path fill="none" stroke="midnightblue" d="M401.16,-190.37C414.59,-181.87 435.05,-168.16 451,-154 494.78,-115.14 497.63,-97.42 539,-56 549.21,-45.78 561.24,-34.92 570.93,-26.43"/>
<polygon fill="midnightblue" stroke="midnightblue" points="573.48,-28.85 578.75,-19.66 568.9,-23.56 573.48,-28.85"/>
</g>
<!-- Node15&#45;&gt;Node10 -->
<g id="edge18" class="edge">
<title>Node15&#45;&gt;Node10</title>
<path fill="none" stroke="midnightblue" d="M417.75,-190.42C447.49,-181.92 493.69,-168.14 533,-154 588.89,-133.89 652.65,-106.54 688.54,-90.72"/>
<polygon fill="midnightblue" stroke="midnightblue" points="690.16,-93.83 697.89,-86.58 687.33,-87.43 690.16,-93.83"/>
</g>
<!-- Node16&#45;&gt;Node3 -->
<g id="edge20" class="edge">
<title>Node16&#45;&gt;Node3</title>
<path fill="none" stroke="midnightblue" d="M513.23,-190.44C488.11,-181.4 448.29,-167.06 420.1,-156.92"/>
<polygon fill="midnightblue" stroke="midnightblue" points="421.25,-153.61 410.66,-153.52 418.88,-160.2 421.25,-153.61"/>
</g>
<!-- Node16&#45;&gt;Node10 -->
<g id="edge21" class="edge">
<title>Node16&#45;&gt;Node10</title>
<path fill="none" stroke="midnightblue" d="M549.66,-190.49C580.05,-170.06 657.44,-118.04 695.37,-92.54"/>
<polygon fill="midnightblue" stroke="midnightblue" points="697.77,-95.14 704.12,-86.66 693.86,-89.34 697.77,-95.14"/>
</g>
<!-- Node17&#45;&gt;Node2 -->
<g id="edge26" class="edge">
<title>Node17&#45;&gt;Node2</title>
<path fill="none" stroke="midnightblue" d="M634.31,-318.87C598.77,-307.38 535.79,-287.01 496.05,-274.16"/>
<polygon fill="midnightblue" stroke="midnightblue" points="497.07,-270.81 486.48,-271.06 494.92,-277.47 497.07,-270.81"/>
</g>
<!-- Node17&#45;&gt;Node10 -->
<g id="edge38" class="edge">
<title>Node17&#45;&gt;Node10</title>
<path fill="none" stroke="midnightblue" d="M693.65,-318.98C703.07,-316.76 713.4,-314.56 723,-313 765.96,-306.03 1083.68,-309.15 1113,-277 1218.88,-160.9 903.83,-103.39 772.05,-84.88"/>
<polygon fill="midnightblue" stroke="midnightblue" points="772.14,-81.36 761.75,-83.46 771.18,-88.3 772.14,-81.36"/>
</g>
<!-- Node18 -->
<g id="node18" class="node">
<title>Node18</title>
<g id="a_node18"><a xlink:title=" ">
<polygon fill="none" stroke="#bfbfbf" points="662,-190.5 662,-209.5 726,-209.5 726,-190.5 662,-190.5"/>
<text text-anchor="middle" x="694" y="-197.5" font-family="Helvetica,sans-Serif" font-size="10.00">algorithm</text>
</a>
</g>
</g>
<!-- Node17&#45;&gt;Node18 -->
<g id="edge23" class="edge">
<title>Node17&#45;&gt;Node18</title>
<path fill="none" stroke="midnightblue" d="M650.36,-318.83C633.28,-303.83 603.11,-272.13 618,-246 626.41,-231.25 641.77,-220.84 656.48,-213.77"/>
<polygon fill="midnightblue" stroke="midnightblue" points="658.24,-216.83 665.98,-209.6 655.42,-210.42 658.24,-216.83"/>
</g>
<!-- Node19 -->
<g id="node19" class="node">
<title>Node19</title>
<g id="a_node19"><a xlink:title=" ">
<polygon fill="none" stroke="#bfbfbf" points="659,-134.5 659,-153.5 703,-153.5 703,-134.5 659,-134.5"/>
<text text-anchor="middle" x="681" y="-141.5" font-family="Helvetica,sans-Serif" font-size="10.00">limits</text>
</a>
</g>
</g>
<!-- Node17&#45;&gt;Node19 -->
<g id="edge24" class="edge">
<title>Node17&#45;&gt;Node19</title>
<path fill="none" stroke="midnightblue" d="M646.89,-318.68C634.28,-309.88 616.65,-295.08 609,-277 603.63,-264.31 604.8,-259.12 609,-246 619.92,-211.88 647.06,-179.45 664.72,-160.92"/>
<polygon fill="midnightblue" stroke="midnightblue" points="667.35,-163.24 671.86,-153.65 662.35,-158.34 667.35,-163.24"/>
</g>
<!-- Node20 -->
<g id="node20" class="node">
<title>Node20</title>
<g id="a_node20"><a xlink:title=" ">
<polygon fill="none" stroke="#bfbfbf" points="626.5,-252 626.5,-271 695.5,-271 695.5,-252 626.5,-252"/>
<text text-anchor="middle" x="661" y="-259" font-family="Helvetica,sans-Serif" font-size="10.00">type_traits</text>
</a>
</g>
</g>
<!-- Node17&#45;&gt;Node20 -->
<g id="edge25" class="edge">
<title>Node17&#45;&gt;Node20</title>
<path fill="none" stroke="midnightblue" d="M661,-318.73C661,-309.18 661,-293.62 661,-281.28"/>
<polygon fill="midnightblue" stroke="midnightblue" points="664.5,-281.13 661,-271.13 657.5,-281.13 664.5,-281.13"/>
</g>
<!-- Node21 -->
<g id="node21" class="node">
<title>Node21</title>
<g id="a_node21"><a xlink:href="_t_math_8hpp.html" target="_top" xlink:title=" ">
<polygon fill="none" stroke="black" points="714,-252 714,-271 818,-271 818,-252 714,-252"/>
<text text-anchor="middle" x="766" y="-259" font-family="Helvetica,sans-Serif" font-size="10.00">../../util/TMath.hpp</text>
</a>
</g>
</g>
<!-- Node17&#45;&gt;Node21 -->
<g id="edge27" class="edge">
<title>Node17&#45;&gt;Node21</title>
<path fill="none" stroke="midnightblue" d="M675.16,-318.73C692.71,-307.87 722.84,-289.22 743.56,-276.39"/>
<polygon fill="midnightblue" stroke="midnightblue" points="745.4,-279.37 752.06,-271.13 741.72,-273.41 745.4,-279.37"/>
</g>
<!-- Node22 -->
<g id="node22" class="node">
<title>Node22</title>
<g id="a_node22"><a xlink:title=" ">
<polygon fill="none" stroke="#bfbfbf" points="836,-246.5 836,-276.5 978,-276.5 978,-246.5 836,-246.5"/>
<text text-anchor="start" x="844" y="-264.5" font-family="Helvetica,sans-Serif" font-size="10.00">../../../external/xsimd</text>
<text text-anchor="middle" x="907" y="-253.5" font-family="Helvetica,sans-Serif" font-size="10.00">/include/xsimd/xsimd.hpp</text>
</a>
</g>
</g>
<!-- Node17&#45;&gt;Node22 -->
<g id="edge28" class="edge">
<title>Node17&#45;&gt;Node22</title>
<path fill="none" stroke="midnightblue" d="M693.41,-318.94C731.62,-308.84 795.99,-291.83 844.09,-279.12"/>
<polygon fill="midnightblue" stroke="midnightblue" points="845.02,-282.5 853.79,-276.56 843.23,-275.73 845.02,-282.5"/>
</g>
<!-- Node23 -->
<g id="node23" class="node">
<title>Node23</title>
<g id="a_node23"><a xlink:href="_t_heap_buffer_8hpp.html" target="_top" xlink:title=" ">
<polygon fill="none" stroke="black" points="996.5,-252 996.5,-271 1103.5,-271 1103.5,-252 996.5,-252"/>
<text text-anchor="middle" x="1050" y="-259" font-family="Helvetica,sans-Serif" font-size="10.00">../THeapBuffer.hpp</text>
</a>
</g>
</g>
<!-- Node17&#45;&gt;Node23 -->
<g id="edge29" class="edge">
<title>Node17&#45;&gt;Node23</title>
<path fill="none" stroke="midnightblue" d="M694.99,-318.94C704.05,-316.83 713.87,-314.69 723,-313 839.45,-291.49 870.51,-298.3 987,-277 992.94,-275.91 999.17,-274.64 1005.3,-273.31"/>
<polygon fill="midnightblue" stroke="midnightblue" points="1006.46,-276.64 1015.46,-271.04 1004.93,-269.81 1006.46,-276.64"/>
</g>
<!-- Node23&#45;&gt;Node8 -->
<g id="edge32" class="edge">
<title>Node23&#45;&gt;Node8</title>
<path fill="none" stroke="midnightblue" d="M1059.54,-251.88C1073.48,-238.21 1096.38,-210.96 1083,-190 1038.39,-120.14 787.6,-45.95 694.12,-20.33"/>
<polygon fill="midnightblue" stroke="midnightblue" points="694.86,-16.9 684.29,-17.65 693.02,-23.66 694.86,-16.9"/>
</g>
<!-- Node23&#45;&gt;Node18 -->
<g id="edge30" class="edge">
<title>Node23&#45;&gt;Node18</title>
<path fill="none" stroke="midnightblue" d="M1015.45,-252C1006.24,-249.88 996.27,-247.73 987,-246 876.21,-225.34 846.94,-229.82 736,-210 735.9,-209.98 735.8,-209.96 735.7,-209.95"/>
<polygon fill="midnightblue" stroke="midnightblue" points="736.54,-206.54 726.06,-208.11 735.23,-213.42 736.54,-206.54"/>
</g>
<!-- Node24 -->
<g id="node24" class="node">
<title>Node24</title>
<g id="a_node24"><a xlink:title=" ">
<polygon fill="none" stroke="#bfbfbf" points="1026.5,-190.5 1026.5,-209.5 1073.5,-209.5 1073.5,-190.5 1026.5,-190.5"/>
<text text-anchor="middle" x="1050" y="-197.5" font-family="Helvetica,sans-Serif" font-size="10.00">cmath</text>
</a>
</g>
</g>
<!-- Node23&#45;&gt;Node24 -->
<g id="edge31" class="edge">
<title>Node23&#45;&gt;Node24</title>
<path fill="none" stroke="midnightblue" d="M1050,-251.98C1050,-243.58 1050,-230.48 1050,-219.66"/>
<polygon fill="midnightblue" stroke="midnightblue" points="1053.5,-219.51 1050,-209.51 1046.5,-219.51 1053.5,-219.51"/>
</g>
<!-- Node25 -->
<g id="node25" class="node">
<title>Node25</title>
<g id="a_node25"><a xlink:href="_t_allocator_8hpp.html" target="_top" xlink:title=" ">
<polygon fill="none" stroke="black" points="744.5,-190.5 744.5,-209.5 881.5,-209.5 881.5,-190.5 744.5,-190.5"/>
<text text-anchor="middle" x="813" y="-197.5" font-family="Helvetica,sans-Serif" font-size="10.00">../memory/TAllocator.hpp</text>
</a>
</g>
</g>
<!-- Node23&#45;&gt;Node25 -->
<g id="edge33" class="edge">
<title>Node23&#45;&gt;Node25</title>
<path fill="none" stroke="midnightblue" d="M1016.04,-251.98C974.16,-241.46 902.87,-223.56 856.87,-212.01"/>
<polygon fill="midnightblue" stroke="midnightblue" points="857.44,-208.55 846.89,-209.51 855.74,-215.34 857.44,-208.55"/>
</g>
<!-- Node25&#45;&gt;Node9 -->
<g id="edge37" class="edge">
<title>Node25&#45;&gt;Node9</title>
<path fill="none" stroke="midnightblue" d="M811.59,-190.26C806.91,-162.21 791,-75.14 771,-56 724.98,-11.96 692.98,-33.8 625.89,-20"/>
<polygon fill="midnightblue" stroke="midnightblue" points="626.26,-16.49 615.73,-17.69 624.71,-23.32 626.26,-16.49"/>
</g>
<!-- Node25&#45;&gt;Node10 -->
<g id="edge34" class="edge">
<title>Node25&#45;&gt;Node10</title>
<path fill="none" stroke="midnightblue" d="M805.83,-190.43C798.33,-181.42 786.23,-166.8 776,-154 759.96,-133.93 741.9,-110.54 730.03,-95.07"/>
<polygon fill="midnightblue" stroke="midnightblue" points="732.68,-92.77 723.82,-86.96 727.12,-97.02 732.68,-92.77"/>
</g>
<!-- Node25&#45;&gt;Node19 -->
<g id="edge36" class="edge">
<title>Node25&#45;&gt;Node19</title>
<path fill="none" stroke="midnightblue" d="M792.08,-190.44C770.26,-181.52 735.85,-167.44 711.11,-157.32"/>
<polygon fill="midnightblue" stroke="midnightblue" points="712.4,-154.06 701.82,-153.52 709.75,-160.54 712.4,-154.06"/>
</g>
<!-- Node26 -->
<g id="node26" class="node">
<title>Node26</title>
<g id="a_node26"><a xlink:title=" ">
<polygon fill="none" stroke="#bfbfbf" points="818,-134.5 818,-153.5 874,-153.5 874,-134.5 818,-134.5"/>
<text text-anchor="middle" x="846" y="-141.5" font-family="Helvetica,sans-Serif" font-size="10.00">stddef.h</text>
</a>
</g>
</g>
<!-- Node25&#45;&gt;Node26 -->
<g id="edge35" class="edge">
<title>Node25&#45;&gt;Node26</title>
<path fill="none" stroke="midnightblue" d="M818.45,-190.08C823.01,-182.61 829.67,-171.72 835.29,-162.52"/>
<polygon fill="midnightblue" stroke="midnightblue" points="838.42,-164.11 840.65,-153.75 832.45,-160.46 838.42,-164.11"/>
</g>
</g>
</svg>
