<?xml version="1.0" encoding="UTF-8" standalone="no"?>
<!DOCTYPE svg PUBLIC "-//W3C//DTD SVG 1.1//EN"
 "http://www.w3.org/Graphics/SVG/1.1/DTD/svg11.dtd">
<!-- Generated by graphviz version 2.50.0 (0)
 -->
<!-- Title: TWaveFile.cpp Pages: 1 -->
<!--zoomable 464 -->
<svg id="main" version="1.1" xmlns="http://www.w3.org/2000/svg" xmlns:xlink="http://www.w3.org/1999/xlink" xml:space="preserve" onload="init(evt)">
<style type="text/css"><![CDATA[
.edge:hover path { stroke: red; }
.edge:hover polygon { stroke: red; fill: red; }
]]></style>
<script type="text/javascript"><![CDATA[
var edges = document.getElementsByTagName('g');
if (edges && edges.length) {
  for (var i=0;i<edges.length;i++) {
    if (edges[i].id.substr(0,4)=='edge') {
      edges[i].setAttribute('class','edge');
    }
  }
}
]]></script>
        <defs>
                <circle id="rim" cx="0" cy="0" r="7"/>
                <circle id="rim2" cx="0" cy="0" r="3.5"/>
                <g id="zoomPlus">
                        <use xlink:href="#rim" fill="#404040">
                                <set attributeName="fill" to="#808080" begin="zoomplus.mouseover" end="zoomplus.mouseout"/>
                        </use>
                        <path d="M-4,0h8M0,-4v8" fill="none" stroke="white" stroke-width="1.5" pointer-events="none"/>
                </g>
                <g id="zoomMin">
                        <use xlink:href="#rim" fill="#404040">
                                <set attributeName="fill" to="#808080" begin="zoomminus.mouseover" end="zoomminus.mouseout"/>
                        </use>
                        <path d="M-4,0h8" fill="none" stroke="white" stroke-width="1.5" pointer-events="none"/>
                </g>
                <g id="dirArrow">
                        <path fill="none" stroke="white" stroke-width="1.5" d="M0,-3.0v7 M-2.5,-0.5L0,-3.0L2.5,-0.5"/>
                </g>
               <g id="resetDef">
                       <use xlink:href="#rim2" fill="#404040">
                               <set attributeName="fill" to="#808080" begin="reset.mouseover" end="reset.mouseout"/>
                       </use>
               </g>
        </defs>

<script type="text/javascript">
var viewWidth = 1425;
var viewHeight = 464;
var sectionId = 'dynsection-0';
</script>
<script xlink:href="svgpan.js"/>
<svg id="graph" class="graph">
<g id="viewport">
<title>TWaveFile.cpp</title>
<!-- Node1 -->
<g id="node1" class="node">
<title>Node1</title>
<g id="a_node1"><a xlink:title=" ">
<polygon fill="#bfbfbf" stroke="black" points="991,-436.5 991,-455.5 1079,-455.5 1079,-436.5 991,-436.5"/>
<text text-anchor="middle" x="1035" y="-443.5" font-family="Helvetica,sans-Serif" font-size="10.00">TWaveFile.cpp</text>
</a>
</g>
</g>
<!-- Node2 -->
<g id="node2" class="node">
<title>Node2</title>
<g id="a_node2"><a xlink:href="_t_wave_file_8hpp.html" target="_top" xlink:title=" ">
<polygon fill="none" stroke="black" points="949.5,-380.5 949.5,-399.5 1044.5,-399.5 1044.5,-380.5 949.5,-380.5"/>
<text text-anchor="middle" x="997" y="-387.5" font-family="Helvetica,sans-Serif" font-size="10.00">./TWaveFile.hpp</text>
</a>
</g>
</g>
<!-- Node1&#45;&gt;Node2 -->
<g id="edge1" class="edge">
<title>Node1&#45;&gt;Node2</title>
<path fill="none" stroke="midnightblue" d="M1028.73,-436.08C1023.36,-428.46 1015.48,-417.26 1008.92,-407.94"/>
<polygon fill="midnightblue" stroke="midnightblue" points="1011.78,-405.91 1003.16,-399.75 1006.05,-409.94 1011.78,-405.91"/>
</g>
<!-- Node28 -->
<g id="node28" class="node">
<title>Node28</title>
<g id="a_node28"><a xlink:title=" ">
<polygon fill="none" stroke="#bfbfbf" points="1046.5,-313.5 1046.5,-343.5 1143.5,-343.5 1143.5,-313.5 1046.5,-313.5"/>
<text text-anchor="start" x="1054.5" y="-331.5" font-family="Helvetica,sans-Serif" font-size="10.00">../../../external/dr</text>
<text text-anchor="middle" x="1095" y="-320.5" font-family="Helvetica,sans-Serif" font-size="10.00">_wav.h</text>
</a>
</g>
</g>
<!-- Node1&#45;&gt;Node28 -->
<g id="edge41" class="edge">
<title>Node1&#45;&gt;Node28</title>
<path fill="none" stroke="midnightblue" d="M1039.51,-436.32C1048.64,-418.73 1069.6,-378.39 1082.99,-352.63"/>
<polygon fill="midnightblue" stroke="midnightblue" points="1086.2,-354.03 1087.7,-343.55 1079.99,-350.81 1086.2,-354.03"/>
</g>
<!-- Node3 -->
<g id="node3" class="node">
<title>Node3</title>
<g id="a_node3"><a xlink:href="_t_memory_8hpp.html" target="_top" xlink:title=" ">
<polygon fill="none" stroke="black" points="543,-252 543,-271 687,-271 687,-252 543,-252"/>
<text text-anchor="middle" x="615" y="-259" font-family="Helvetica,sans-Serif" font-size="10.00">../../memory/TMemory.hpp</text>
</a>
</g>
</g>
<!-- Node2&#45;&gt;Node3 -->
<g id="edge2" class="edge">
<title>Node2&#45;&gt;Node3</title>
<path fill="none" stroke="midnightblue" d="M971.04,-380.4C904.27,-358.29 726.45,-299.41 650.36,-274.21"/>
<polygon fill="midnightblue" stroke="midnightblue" points="651.33,-270.85 640.74,-271.02 649.13,-277.49 651.33,-270.85"/>
</g>
<!-- Node18 -->
<g id="node18" class="node">
<title>Node18</title>
<g id="a_node18"><a xlink:href="_t_audio_buffer_8hpp.html" target="_top" xlink:title=" ">
<polygon fill="none" stroke="black" points="924,-319 924,-338 1028,-338 1028,-319 924,-319"/>
<text text-anchor="middle" x="976" y="-326" font-family="Helvetica,sans-Serif" font-size="10.00">./TAudioBuffer.hpp</text>
</a>
</g>
</g>
<!-- Node2&#45;&gt;Node18 -->
<g id="edge23" class="edge">
<title>Node2&#45;&gt;Node18</title>
<path fill="none" stroke="midnightblue" d="M993.99,-380.48C990.97,-371.9 986.21,-358.43 982.35,-347.48"/>
<polygon fill="midnightblue" stroke="midnightblue" points="985.63,-346.27 979,-338.01 979.03,-348.6 985.63,-346.27"/>
</g>
<!-- Node2&#45;&gt;Node28 -->
<g id="edge40" class="edge">
<title>Node2&#45;&gt;Node28</title>
<path fill="none" stroke="midnightblue" d="M1011.04,-380.48C1024.56,-372.27 1045.49,-359.56 1063.07,-348.88"/>
<polygon fill="midnightblue" stroke="midnightblue" points="1065.17,-351.7 1071.9,-343.52 1061.54,-345.72 1065.17,-351.7"/>
</g>
<!-- Node4 -->
<g id="node4" class="node">
<title>Node4</title>
<g id="a_node4"><a xlink:href="_t_memory_pool_8hpp.html" target="_top" xlink:title=" ">
<polygon fill="none" stroke="black" points="356,-134.5 356,-153.5 466,-153.5 466,-134.5 356,-134.5"/>
<text text-anchor="middle" x="411" y="-141.5" font-family="Helvetica,sans-Serif" font-size="10.00">./TMemoryPool.hpp</text>
</a>
</g>
</g>
<!-- Node3&#45;&gt;Node4 -->
<g id="edge3" class="edge">
<title>Node3&#45;&gt;Node4</title>
<path fill="none" stroke="midnightblue" d="M542.82,-253.47C486.28,-246.3 414.22,-232.9 396,-210 385.22,-196.45 392.15,-176.56 399.77,-162.35"/>
<polygon fill="midnightblue" stroke="midnightblue" points="402.89,-163.97 404.96,-153.58 396.86,-160.41 402.89,-163.97"/>
</g>
<!-- Node16 -->
<g id="node16" class="node">
<title>Node16</title>
<g id="a_node16"><a xlink:href="_t_memory_pool_std_8hpp.html" target="_top" xlink:title=" ">
<polygon fill="none" stroke="black" points="561,-190.5 561,-209.5 687,-209.5 687,-190.5 561,-190.5"/>
<text text-anchor="middle" x="624" y="-197.5" font-family="Helvetica,sans-Serif" font-size="10.00">./TMemoryPoolStd.hpp</text>
</a>
</g>
</g>
<!-- Node3&#45;&gt;Node16 -->
<g id="edge16" class="edge">
<title>Node3&#45;&gt;Node16</title>
<path fill="none" stroke="midnightblue" d="M616.29,-251.98C617.56,-243.58 619.54,-230.48 621.18,-219.66"/>
<polygon fill="midnightblue" stroke="midnightblue" points="624.68,-219.92 622.71,-209.51 617.76,-218.87 624.68,-219.92"/>
</g>
<!-- Node17 -->
<g id="node17" class="node">
<title>Node17</title>
<g id="a_node17"><a xlink:href="_t_memory_pool_stack_8hpp.html" target="_top" xlink:title=" ">
<polygon fill="none" stroke="black" points="405.5,-190.5 405.5,-209.5 542.5,-209.5 542.5,-190.5 405.5,-190.5"/>
<text text-anchor="middle" x="474" y="-197.5" font-family="Helvetica,sans-Serif" font-size="10.00">./TMemoryPoolStack.hpp</text>
</a>
</g>
</g>
<!-- Node3&#45;&gt;Node17 -->
<g id="edge20" class="edge">
<title>Node3&#45;&gt;Node17</title>
<path fill="none" stroke="midnightblue" d="M594.8,-251.98C570.93,-241.9 531,-225.05 503.63,-213.5"/>
<polygon fill="midnightblue" stroke="midnightblue" points="504.74,-210.17 494.16,-209.51 502.02,-216.62 504.74,-210.17"/>
</g>
<!-- Node5 -->
<g id="node5" class="node">
<title>Node5</title>
<g id="a_node5"><a xlink:title=" ">
<polygon fill="none" stroke="#bfbfbf" points="144.5,-67.5 144.5,-86.5 189.5,-86.5 189.5,-67.5 144.5,-67.5"/>
<text text-anchor="middle" x="167" y="-74.5" font-family="Helvetica,sans-Serif" font-size="10.00">utility</text>
</a>
</g>
</g>
<!-- Node4&#45;&gt;Node5 -->
<g id="edge4" class="edge">
<title>Node4&#45;&gt;Node5</title>
<path fill="none" stroke="midnightblue" d="M355.76,-135.33C313.36,-128.42 253.83,-116.46 204,-98 199.2,-96.22 194.26,-93.92 189.61,-91.51"/>
<polygon fill="midnightblue" stroke="midnightblue" points="191.07,-88.32 180.62,-86.56 187.69,-94.45 191.07,-88.32"/>
</g>
<!-- Node6 -->
<g id="node6" class="node">
<title>Node6</title>
<g id="a_node6"><a xlink:title=" ">
<polygon fill="none" stroke="#bfbfbf" points="386,-67.5 386,-86.5 436,-86.5 436,-67.5 386,-67.5"/>
<text text-anchor="middle" x="411" y="-74.5" font-family="Helvetica,sans-Serif" font-size="10.00">cstdint</text>
</a>
</g>
</g>
<!-- Node4&#45;&gt;Node6 -->
<g id="edge5" class="edge">
<title>Node4&#45;&gt;Node6</title>
<path fill="none" stroke="midnightblue" d="M411,-134.23C411,-124.68 411,-109.12 411,-96.78"/>
<polygon fill="midnightblue" stroke="midnightblue" points="414.5,-96.63 411,-86.63 407.5,-96.63 414.5,-96.63"/>
</g>
<!-- Node7 -->
<g id="node7" class="node">
<title>Node7</title>
<g id="a_node7"><a xlink:title=" ">
<polygon fill="none" stroke="#bfbfbf" points="454.5,-67.5 454.5,-86.5 491.5,-86.5 491.5,-67.5 454.5,-67.5"/>
<text text-anchor="middle" x="473" y="-74.5" font-family="Helvetica,sans-Serif" font-size="10.00">new</text>
</a>
</g>
</g>
<!-- Node4&#45;&gt;Node7 -->
<g id="edge6" class="edge">
<title>Node4&#45;&gt;Node7</title>
<path fill="none" stroke="midnightblue" d="M419.36,-134.23C429.12,-124 445.47,-106.86 457.55,-94.19"/>
<polygon fill="midnightblue" stroke="midnightblue" points="460.4,-96.28 464.77,-86.63 455.34,-91.45 460.4,-96.28"/>
</g>
<!-- Node8 -->
<g id="node8" class="node">
<title>Node8</title>
<g id="a_node8"><a xlink:href="_t_memory_util_8hpp.html" target="_top" xlink:title=" ">
<polygon fill="none" stroke="black" points="548.5,-67.5 548.5,-86.5 655.5,-86.5 655.5,-67.5 548.5,-67.5"/>
<text text-anchor="middle" x="602" y="-74.5" font-family="Helvetica,sans-Serif" font-size="10.00">./TMemoryUtil.hpp</text>
</a>
</g>
</g>
<!-- Node4&#45;&gt;Node8 -->
<g id="edge7" class="edge">
<title>Node4&#45;&gt;Node8</title>
<path fill="none" stroke="midnightblue" d="M436.36,-134.37C469.99,-122.92 529.48,-102.68 567.26,-89.82"/>
<polygon fill="midnightblue" stroke="midnightblue" points="568.5,-93.1 576.84,-86.56 566.24,-86.47 568.5,-93.1"/>
</g>
<!-- Node11 -->
<g id="node11" class="node">
<title>Node11</title>
<g id="a_node11"><a xlink:href="_t_assert_8h.html" target="_top" xlink:title=" ">
<polygon fill="none" stroke="black" points="673.5,-67.5 673.5,-86.5 762.5,-86.5 762.5,-67.5 673.5,-67.5"/>
<text text-anchor="middle" x="718" y="-74.5" font-family="Helvetica,sans-Serif" font-size="10.00">../util/TAssert.h</text>
</a>
</g>
</g>
<!-- Node4&#45;&gt;Node11 -->
<g id="edge10" class="edge">
<title>Node4&#45;&gt;Node11</title>
<path fill="none" stroke="midnightblue" d="M466.41,-136.05C518.09,-128.89 597.06,-116.19 664,-98 671.94,-95.84 680.35,-93.01 688.11,-90.15"/>
<polygon fill="midnightblue" stroke="midnightblue" points="689.41,-93.4 697.51,-86.57 686.92,-86.86 689.41,-93.4"/>
</g>
<!-- Node13 -->
<g id="node13" class="node">
<title>Node13</title>
<g id="a_node13"><a xlink:href="_t_spin_lock_8hpp.html" target="_top" xlink:title=" ">
<polygon fill="none" stroke="black" points="0,-67.5 0,-86.5 126,-86.5 126,-67.5 0,-67.5"/>
<text text-anchor="middle" x="63" y="-74.5" font-family="Helvetica,sans-Serif" font-size="10.00">../types/TSpinLock.hpp</text>
</a>
</g>
</g>
<!-- Node4&#45;&gt;Node13 -->
<g id="edge12" class="edge">
<title>Node4&#45;&gt;Node13</title>
<path fill="none" stroke="midnightblue" d="M355.94,-135.83C299.99,-128.12 210.99,-114.7 135,-98 123.75,-95.53 111.64,-92.36 100.62,-89.29"/>
<polygon fill="midnightblue" stroke="midnightblue" points="101.44,-85.88 90.86,-86.5 99.52,-92.61 101.44,-85.88"/>
</g>
<!-- Node14 -->
<g id="node14" class="node">
<title>Node14</title>
<g id="a_node14"><a xlink:href="_t_lock_guard_8hpp.html" target="_top" xlink:title=" ">
<polygon fill="none" stroke="black" points="90.5,-0.5 90.5,-19.5 191.5,-19.5 191.5,-0.5 90.5,-0.5"/>
<text text-anchor="middle" x="141" y="-7.5" font-family="Helvetica,sans-Serif" font-size="10.00">./TLockGuard.hpp</text>
</a>
</g>
</g>
<!-- Node4&#45;&gt;Node14 -->
<g id="edge14" class="edge">
<title>Node4&#45;&gt;Node14</title>
<path fill="none" stroke="midnightblue" d="M355.77,-136.87C319.93,-130.99 273.31,-119.66 237,-98 215.12,-84.95 216.72,-73.28 198,-56 186.45,-45.34 172.63,-34.39 161.49,-25.96"/>
<polygon fill="midnightblue" stroke="midnightblue" points="163.34,-22.97 153.23,-19.79 159.15,-28.58 163.34,-22.97"/>
</g>
<!-- Node15 -->
<g id="node15" class="node">
<title>Node15</title>
<g id="a_node15"><a xlink:title=" ">
<polygon fill="none" stroke="#bfbfbf" points="246.5,-56.5 246.5,-97.5 367.5,-97.5 367.5,-56.5 246.5,-56.5"/>
<text text-anchor="start" x="254.5" y="-85.5" font-family="Helvetica,sans-Serif" font-size="10.00">../../external/xsimd</text>
<text text-anchor="start" x="254.5" y="-74.5" font-family="Helvetica,sans-Serif" font-size="10.00">/include/xsimd/config</text>
<text text-anchor="middle" x="307" y="-63.5" font-family="Helvetica,sans-Serif" font-size="10.00">/xsimd_arch.hpp</text>
</a>
</g>
</g>
<!-- Node4&#45;&gt;Node15 -->
<g id="edge15" class="edge">
<title>Node4&#45;&gt;Node15</title>
<path fill="none" stroke="midnightblue" d="M396.97,-134.23C384.23,-126.27 364.78,-114.11 347.23,-103.14"/>
<polygon fill="midnightblue" stroke="midnightblue" points="348.6,-99.87 338.27,-97.54 344.89,-105.81 348.6,-99.87"/>
</g>
<!-- Node9 -->
<g id="node9" class="node">
<title>Node9</title>
<g id="a_node9"><a xlink:title=" ">
<polygon fill="none" stroke="#bfbfbf" points="635,-0.5 635,-19.5 685,-19.5 685,-0.5 635,-0.5"/>
<text text-anchor="middle" x="660" y="-7.5" font-family="Helvetica,sans-Serif" font-size="10.00">cstring</text>
</a>
</g>
</g>
<!-- Node8&#45;&gt;Node9 -->
<g id="edge8" class="edge">
<title>Node8&#45;&gt;Node9</title>
<path fill="none" stroke="midnightblue" d="M609.82,-67.23C618.95,-57 634.24,-39.86 645.55,-27.19"/>
<polygon fill="midnightblue" stroke="midnightblue" points="648.26,-29.42 652.3,-19.63 643.03,-24.76 648.26,-29.42"/>
</g>
<!-- Node10 -->
<g id="node10" class="node">
<title>Node10</title>
<g id="a_node10"><a xlink:title=" ">
<polygon fill="none" stroke="#bfbfbf" points="563.5,-0.5 563.5,-19.5 616.5,-19.5 616.5,-0.5 563.5,-0.5"/>
<text text-anchor="middle" x="590" y="-7.5" font-family="Helvetica,sans-Serif" font-size="10.00">stdlib.h</text>
</a>
</g>
</g>
<!-- Node8&#45;&gt;Node10 -->
<g id="edge9" class="edge">
<title>Node8&#45;&gt;Node10</title>
<path fill="none" stroke="midnightblue" d="M600.38,-67.23C598.62,-57.68 595.74,-42.12 593.47,-29.78"/>
<polygon fill="midnightblue" stroke="midnightblue" points="596.85,-28.83 591.59,-19.63 589.97,-30.1 596.85,-28.83"/>
</g>
<!-- Node12 -->
<g id="node12" class="node">
<title>Node12</title>
<g id="a_node12"><a xlink:title=" ">
<polygon fill="none" stroke="#bfbfbf" points="703,-0.5 703,-19.5 755,-19.5 755,-0.5 703,-0.5"/>
<text text-anchor="middle" x="729" y="-7.5" font-family="Helvetica,sans-Serif" font-size="10.00">cassert</text>
</a>
</g>
</g>
<!-- Node11&#45;&gt;Node12 -->
<g id="edge11" class="edge">
<title>Node11&#45;&gt;Node12</title>
<path fill="none" stroke="midnightblue" d="M719.48,-67.23C721.1,-57.68 723.73,-42.12 725.82,-29.78"/>
<polygon fill="midnightblue" stroke="midnightblue" points="729.32,-30.07 727.54,-19.63 722.42,-28.9 729.32,-30.07"/>
</g>
<!-- Node13&#45;&gt;Node14 -->
<g id="edge13" class="edge">
<title>Node13&#45;&gt;Node14</title>
<path fill="none" stroke="midnightblue" d="M73.52,-67.23C86.15,-56.71 107.54,-38.88 122.86,-26.12"/>
<polygon fill="midnightblue" stroke="midnightblue" points="125.21,-28.72 130.65,-19.63 120.72,-23.34 125.21,-28.72"/>
</g>
<!-- Node16&#45;&gt;Node4 -->
<g id="edge18" class="edge">
<title>Node16&#45;&gt;Node4</title>
<path fill="none" stroke="midnightblue" d="M590.25,-190.44C553.48,-181.12 494.55,-166.18 454.38,-156"/>
<polygon fill="midnightblue" stroke="midnightblue" points="455.15,-152.58 444.59,-153.52 453.43,-159.37 455.15,-152.58"/>
</g>
<!-- Node16&#45;&gt;Node10 -->
<g id="edge17" class="edge">
<title>Node16&#45;&gt;Node10</title>
<path fill="none" stroke="midnightblue" d="M612.94,-190.48C593.52,-174.73 553.92,-138.91 539,-98 532.6,-80.46 531.32,-73.01 539,-56 544.62,-43.56 555.56,-33.17 565.88,-25.53"/>
<polygon fill="midnightblue" stroke="midnightblue" points="568.01,-28.31 574.27,-19.76 564.04,-22.54 568.01,-28.31"/>
</g>
<!-- Node16&#45;&gt;Node11 -->
<g id="edge19" class="edge">
<title>Node16&#45;&gt;Node11</title>
<path fill="none" stroke="midnightblue" d="M630.76,-190.3C646.27,-170.33 684.66,-120.92 704.95,-94.8"/>
<polygon fill="midnightblue" stroke="midnightblue" points="707.93,-96.67 711.3,-86.62 702.4,-92.37 707.93,-96.67"/>
</g>
<!-- Node17&#45;&gt;Node4 -->
<g id="edge21" class="edge">
<title>Node17&#45;&gt;Node4</title>
<path fill="none" stroke="midnightblue" d="M463.88,-190.32C454.47,-182.26 440.26,-170.08 428.93,-160.37"/>
<polygon fill="midnightblue" stroke="midnightblue" points="431.18,-157.68 421.31,-153.83 426.62,-163 431.18,-157.68"/>
</g>
<!-- Node17&#45;&gt;Node11 -->
<g id="edge22" class="edge">
<title>Node17&#45;&gt;Node11</title>
<path fill="none" stroke="midnightblue" d="M491.16,-190.49C533.14,-169.67 641.29,-116.04 691.57,-91.11"/>
<polygon fill="midnightblue" stroke="midnightblue" points="693.13,-94.24 700.53,-86.66 690.02,-87.97 693.13,-94.24"/>
</g>
<!-- Node18&#45;&gt;Node3 -->
<g id="edge27" class="edge">
<title>Node18&#45;&gt;Node3</title>
<path fill="none" stroke="midnightblue" d="M928.43,-318.94C862.47,-307.06 743.34,-285.61 672.48,-272.85"/>
<polygon fill="midnightblue" stroke="midnightblue" points="672.85,-269.36 662.38,-271.03 671.61,-276.25 672.85,-269.36"/>
</g>
<!-- Node18&#45;&gt;Node11 -->
<g id="edge39" class="edge">
<title>Node18&#45;&gt;Node11</title>
<path fill="none" stroke="midnightblue" d="M930,-318.97C873.86,-305.96 780.66,-275.39 734,-210 709.83,-176.13 711.77,-124.51 715.03,-96.94"/>
<polygon fill="midnightblue" stroke="midnightblue" points="718.54,-97.09 716.43,-86.71 711.6,-96.14 718.54,-97.09"/>
</g>
<!-- Node19 -->
<g id="node19" class="node">
<title>Node19</title>
<g id="a_node19"><a xlink:title=" ">
<polygon fill="none" stroke="#bfbfbf" points="1218,-190.5 1218,-209.5 1282,-209.5 1282,-190.5 1218,-190.5"/>
<text text-anchor="middle" x="1250" y="-197.5" font-family="Helvetica,sans-Serif" font-size="10.00">algorithm</text>
</a>
</g>
</g>
<!-- Node18&#45;&gt;Node19 -->
<g id="edge24" class="edge">
<title>Node18&#45;&gt;Node19</title>
<path fill="none" stroke="midnightblue" d="M1008.98,-318.93C1018.31,-316.74 1028.51,-314.56 1038,-313 1119.51,-299.56 1352.49,-338.18 1408,-277 1445.05,-236.17 1350.58,-215.07 1292.15,-206.22"/>
<polygon fill="midnightblue" stroke="midnightblue" points="1292.45,-202.73 1282.05,-204.76 1291.45,-209.66 1292.45,-202.73"/>
</g>
<!-- Node20 -->
<g id="node20" class="node">
<title>Node20</title>
<g id="a_node20"><a xlink:title=" ">
<polygon fill="none" stroke="#bfbfbf" points="893,-134.5 893,-153.5 937,-153.5 937,-134.5 893,-134.5"/>
<text text-anchor="middle" x="915" y="-141.5" font-family="Helvetica,sans-Serif" font-size="10.00">limits</text>
</a>
</g>
</g>
<!-- Node18&#45;&gt;Node20 -->
<g id="edge25" class="edge">
<title>Node18&#45;&gt;Node20</title>
<path fill="none" stroke="midnightblue" d="M958.12,-318.94C942.97,-310.6 922.28,-296.33 913,-277 895.21,-239.94 903.33,-190.01 909.79,-163.44"/>
<polygon fill="midnightblue" stroke="midnightblue" points="913.22,-164.15 912.37,-153.59 906.45,-162.37 913.22,-164.15"/>
</g>
<!-- Node21 -->
<g id="node21" class="node">
<title>Node21</title>
<g id="a_node21"><a xlink:title=" ">
<polygon fill="none" stroke="#bfbfbf" points="1047.5,-252 1047.5,-271 1116.5,-271 1116.5,-252 1047.5,-252"/>
<text text-anchor="middle" x="1082" y="-259" font-family="Helvetica,sans-Serif" font-size="10.00">type_traits</text>
</a>
</g>
</g>
<!-- Node18&#45;&gt;Node21 -->
<g id="edge26" class="edge">
<title>Node18&#45;&gt;Node21</title>
<path fill="none" stroke="midnightblue" d="M990.3,-318.73C1008.02,-307.87 1038.43,-289.22 1059.34,-276.39"/>
<polygon fill="midnightblue" stroke="midnightblue" points="1061.24,-279.34 1067.93,-271.13 1057.58,-273.37 1061.24,-279.34"/>
</g>
<!-- Node22 -->
<g id="node22" class="node">
<title>Node22</title>
<g id="a_node22"><a xlink:href="_t_math_8hpp.html" target="_top" xlink:title=" ">
<polygon fill="none" stroke="black" points="1135,-252 1135,-271 1239,-271 1239,-252 1135,-252"/>
<text text-anchor="middle" x="1187" y="-259" font-family="Helvetica,sans-Serif" font-size="10.00">../../util/TMath.hpp</text>
</a>
</g>
</g>
<!-- Node18&#45;&gt;Node22 -->
<g id="edge28" class="edge">
<title>Node18&#45;&gt;Node22</title>
<path fill="none" stroke="midnightblue" d="M1004.02,-318.87C1041.41,-307.35 1107.72,-286.92 1149.42,-274.08"/>
<polygon fill="midnightblue" stroke="midnightblue" points="1150.67,-277.35 1159.2,-271.06 1148.61,-270.66 1150.67,-277.35"/>
</g>
<!-- Node23 -->
<g id="node23" class="node">
<title>Node23</title>
<g id="a_node23"><a xlink:title=" ">
<polygon fill="none" stroke="#bfbfbf" points="1257,-246.5 1257,-276.5 1399,-276.5 1399,-246.5 1257,-246.5"/>
<text text-anchor="start" x="1265" y="-264.5" font-family="Helvetica,sans-Serif" font-size="10.00">../../../external/xsimd</text>
<text text-anchor="middle" x="1328" y="-253.5" font-family="Helvetica,sans-Serif" font-size="10.00">/include/xsimd/xsimd.hpp</text>
</a>
</g>
</g>
<!-- Node18&#45;&gt;Node23 -->
<g id="edge29" class="edge">
<title>Node18&#45;&gt;Node23</title>
<path fill="none" stroke="midnightblue" d="M1011,-318.93C1019.79,-316.88 1029.22,-314.78 1038,-313 1127.73,-294.83 1153.08,-293.51 1246.98,-277.16"/>
<polygon fill="midnightblue" stroke="midnightblue" points="1247.66,-280.6 1256.91,-275.42 1246.45,-273.7 1247.66,-280.6"/>
</g>
<!-- Node24 -->
<g id="node24" class="node">
<title>Node24</title>
<g id="a_node24"><a xlink:href="_t_heap_buffer_8hpp.html" target="_top" xlink:title=" ">
<polygon fill="none" stroke="black" points="922.5,-252 922.5,-271 1029.5,-271 1029.5,-252 922.5,-252"/>
<text text-anchor="middle" x="976" y="-259" font-family="Helvetica,sans-Serif" font-size="10.00">../THeapBuffer.hpp</text>
</a>
</g>
</g>
<!-- Node18&#45;&gt;Node24 -->
<g id="edge30" class="edge">
<title>Node18&#45;&gt;Node24</title>
<path fill="none" stroke="midnightblue" d="M976,-318.73C976,-309.18 976,-293.62 976,-281.28"/>
<polygon fill="midnightblue" stroke="midnightblue" points="979.5,-281.13 976,-271.13 972.5,-281.13 979.5,-281.13"/>
</g>
<!-- Node24&#45;&gt;Node9 -->
<g id="edge33" class="edge">
<title>Node24&#45;&gt;Node9</title>
<path fill="none" stroke="midnightblue" d="M981.41,-251.63C988.94,-238.08 1000.84,-211.53 993,-190 981.89,-159.47 971.37,-154.3 946,-134 887.01,-86.82 864.59,-85.36 795,-56 761.75,-41.97 722.5,-29.3 694.91,-21.01"/>
<polygon fill="midnightblue" stroke="midnightblue" points="695.89,-17.65 685.31,-18.16 693.9,-24.36 695.89,-17.65"/>
</g>
<!-- Node24&#45;&gt;Node19 -->
<g id="edge31" class="edge">
<title>Node24&#45;&gt;Node19</title>
<path fill="none" stroke="midnightblue" d="M1012.62,-251.97C1021.27,-249.98 1030.45,-247.89 1039,-246 1097.44,-233.04 1165.15,-218.73 1207.78,-209.8"/>
<polygon fill="midnightblue" stroke="midnightblue" points="1208.72,-213.17 1217.79,-207.7 1207.29,-206.32 1208.72,-213.17"/>
</g>
<!-- Node25 -->
<g id="node25" class="node">
<title>Node25</title>
<g id="a_node25"><a xlink:title=" ">
<polygon fill="none" stroke="#bfbfbf" points="937.5,-190.5 937.5,-209.5 984.5,-209.5 984.5,-190.5 937.5,-190.5"/>
<text text-anchor="middle" x="961" y="-197.5" font-family="Helvetica,sans-Serif" font-size="10.00">cmath</text>
</a>
</g>
</g>
<!-- Node24&#45;&gt;Node25 -->
<g id="edge32" class="edge">
<title>Node24&#45;&gt;Node25</title>
<path fill="none" stroke="midnightblue" d="M973.85,-251.98C971.71,-243.49 968.36,-230.2 965.62,-219.32"/>
<polygon fill="midnightblue" stroke="midnightblue" points="968.98,-218.35 963.15,-209.51 962.2,-220.06 968.98,-218.35"/>
</g>
<!-- Node26 -->
<g id="node26" class="node">
<title>Node26</title>
<g id="a_node26"><a xlink:href="_t_allocator_8hpp.html" target="_top" xlink:title=" ">
<polygon fill="none" stroke="black" points="743.5,-190.5 743.5,-209.5 880.5,-209.5 880.5,-190.5 743.5,-190.5"/>
<text text-anchor="middle" x="812" y="-197.5" font-family="Helvetica,sans-Serif" font-size="10.00">../memory/TAllocator.hpp</text>
</a>
</g>
</g>
<!-- Node24&#45;&gt;Node26 -->
<g id="edge34" class="edge">
<title>Node24&#45;&gt;Node26</title>
<path fill="none" stroke="midnightblue" d="M952.5,-251.98C924.37,-241.77 877.07,-224.61 845.21,-213.05"/>
<polygon fill="midnightblue" stroke="midnightblue" points="846.05,-209.63 835.45,-209.51 843.66,-216.21 846.05,-209.63"/>
</g>
<!-- Node26&#45;&gt;Node10 -->
<g id="edge38" class="edge">
<title>Node26&#45;&gt;Node10</title>
<path fill="none" stroke="midnightblue" d="M810.66,-190.27C806.18,-162.22 790.89,-75.19 771,-56 725.45,-12.06 693.54,-33.76 626.83,-19.99"/>
<polygon fill="midnightblue" stroke="midnightblue" points="627.26,-16.5 616.74,-17.69 625.71,-23.32 627.26,-16.5"/>
</g>
<!-- Node26&#45;&gt;Node11 -->
<g id="edge35" class="edge">
<title>Node26&#45;&gt;Node11</title>
<path fill="none" stroke="midnightblue" d="M805.29,-190.38C798.24,-181.32 786.84,-166.66 777,-154 761.24,-133.71 743.12,-110.37 731.16,-94.96"/>
<polygon fill="midnightblue" stroke="midnightblue" points="733.8,-92.65 724.9,-86.89 728.27,-96.94 733.8,-92.65"/>
</g>
<!-- Node26&#45;&gt;Node20 -->
<g id="edge37" class="edge">
<title>Node26&#45;&gt;Node20</title>
<path fill="none" stroke="midnightblue" d="M828.55,-190.32C844.99,-181.7 870.43,-168.36 889.47,-158.39"/>
<polygon fill="midnightblue" stroke="midnightblue" points="891.26,-161.4 898.49,-153.65 888.01,-155.2 891.26,-161.4"/>
</g>
<!-- Node27 -->
<g id="node27" class="node">
<title>Node27</title>
<g id="a_node27"><a xlink:title=" ">
<polygon fill="none" stroke="#bfbfbf" points="819,-134.5 819,-153.5 875,-153.5 875,-134.5 819,-134.5"/>
<text text-anchor="middle" x="847" y="-141.5" font-family="Helvetica,sans-Serif" font-size="10.00">stddef.h</text>
</a>
</g>
</g>
<!-- Node26&#45;&gt;Node27 -->
<g id="edge36" class="edge">
<title>Node26&#45;&gt;Node27</title>
<path fill="none" stroke="midnightblue" d="M817.78,-190.08C822.67,-182.53 829.83,-171.49 835.83,-162.23"/>
<polygon fill="midnightblue" stroke="midnightblue" points="838.83,-164.05 841.33,-153.75 832.95,-160.24 838.83,-164.05"/>
</g>
</g>
</svg>
        <g id="navigator" transform="translate(0 0)" fill="#404254">
                <rect fill="#f2f5e9" fill-opacity="0.5" stroke="#606060" stroke-width=".5" x="0" y="0" width="60" height="60"/>
                <use id="zoomplus" xlink:href="#zoomPlus" x="17" y="9" onmousedown="handleZoom(evt,'in')"/>
                <use id="zoomminus" xlink:href="#zoomMin" x="42" y="9" onmousedown="handleZoom(evt,'out')"/>
                <use id="reset" xlink:href="#resetDef" x="30" y="36" onmousedown="handleReset()"/>
                <g id="arrowUp" xlink:href="#dirArrow" transform="translate(30 24)" onmousedown="handlePan(0,-1)">
                  <use xlink:href="#rim" fill="#404040">
                        <set attributeName="fill" to="#808080" begin="arrowUp.mouseover" end="arrowUp.mouseout"/>
                  </use>
                  <path fill="none" stroke="white" stroke-width="1.5" d="M0,-3.0v7 M-2.5,-0.5L0,-3.0L2.5,-0.5"/>
                </g>
                <g id="arrowRight" xlink:href="#dirArrow" transform="rotate(90) translate(36 -43)" onmousedown="handlePan(1,0)">
                  <use xlink:href="#rim" fill="#404040">
                        <set attributeName="fill" to="#808080" begin="arrowRight.mouseover" end="arrowRight.mouseout"/>
                  </use>
                  <path fill="none" stroke="white" stroke-width="1.5" d="M0,-3.0v7 M-2.5,-0.5L0,-3.0L2.5,-0.5"/>
                </g>
                <g id="arrowDown" xlink:href="#dirArrow" transform="rotate(180) translate(-30 -48)" onmousedown="handlePan(0,1)">
                  <use xlink:href="#rim" fill="#404040">
                        <set attributeName="fill" to="#808080" begin="arrowDown.mouseover" end="arrowDown.mouseout"/>
                  </use>
                  <path fill="none" stroke="white" stroke-width="1.5" d="M0,-3.0v7 M-2.5,-0.5L0,-3.0L2.5,-0.5"/>
                </g>
                <g id="arrowLeft" xlink:href="#dirArrow" transform="rotate(270) translate(-36 17)" onmousedown="handlePan(-1,0)">
                  <use xlink:href="#rim" fill="#404040">
                        <set attributeName="fill" to="#808080" begin="arrowLeft.mouseover" end="arrowLeft.mouseout"/>
                  </use>
                  <path fill="none" stroke="white" stroke-width="1.5" d="M0,-3.0v7 M-2.5,-0.5L0,-3.0L2.5,-0.5"/>
                </g>
        </g>
        <svg viewBox="0 0 15 15" width="100%" height="30px" preserveAspectRatio="xMaxYMin meet">
         <g id="arrow_out" transform="scale(0.3 0.3)">
          <a xlink:href="_t_wave_file_8cpp__incl_org.svg" target="_base">
           <rect id="button" ry="5" rx="5" y="6" x="6" height="38" width="38"
                fill="#f2f5e9" fill-opacity="0.5" stroke="#606060" stroke-width="1.0"/>
           <path id="arrow"
             d="M 11.500037,31.436501 C 11.940474,20.09759 22.043105,11.32322 32.158766,21.979434 L 37.068811,17.246167 C 37.068811,17.246167 37.088388,32 37.088388,32 L 22.160133,31.978069 C 22.160133,31.978069 26.997745,27.140456 26.997745,27.140456 C 18.528582,18.264221 13.291696,25.230495 11.500037,31.436501 z"
             style="fill:#404040;"/>
          </a>
         </g>
        </svg>
</svg>
