<?xml version="1.0" encoding="UTF-8" standalone="no"?>
<!DOCTYPE svg PUBLIC "-//W3C//DTD SVG 1.1//EN"
 "http://www.w3.org/Graphics/SVG/1.1/DTD/svg11.dtd">
<!-- Generated by graphviz version 2.50.0 (0)
 -->
<!-- Title: TWaveFile.hpp Pages: 1 -->
<svg width="341pt" height="420pt"
 viewBox="0.00 0.00 340.50 420.00" xmlns="http://www.w3.org/2000/svg" xmlns:xlink="http://www.w3.org/1999/xlink">
<g id="graph0" class="graph" transform="scale(1 1) rotate(0) translate(4 416)">
<title>TWaveFile.hpp</title>
<!-- Node1 -->
<g id="node1" class="node">
<title>Node1</title>
<g id="a_node1"><a xlink:title=" ">
<polygon fill="#bfbfbf" stroke="black" points="62.5,-392.5 62.5,-411.5 151.5,-411.5 151.5,-392.5 62.5,-392.5"/>
<text text-anchor="middle" x="107" y="-399.5" font-family="Helvetica,sans-Serif" font-size="10.00">TWaveFile.hpp</text>
</a>
</g>
</g>
<!-- Node2 -->
<g id="node2" class="node">
<title>Node2</title>
<g id="a_node2"><a xlink:href="_t_wave_file_8cpp.html" target="_top" xlink:title=" ">
<polygon fill="none" stroke="black" points="0,-336.5 0,-355.5 88,-355.5 88,-336.5 0,-336.5"/>
<text text-anchor="middle" x="44" y="-343.5" font-family="Helvetica,sans-Serif" font-size="10.00">TWaveFile.cpp</text>
</a>
</g>
</g>
<!-- Node1&#45;&gt;Node2 -->
<g id="edge1" class="edge">
<title>Node1&#45;&gt;Node2</title>
<path fill="none" stroke="midnightblue" d="M88.96,-385.54C77.73,-375.91 63.68,-363.87 54.31,-355.83"/>
<polygon fill="midnightblue" stroke="midnightblue" points="87.01,-388.47 96.88,-392.32 91.56,-383.16 87.01,-388.47"/>
</g>
<!-- Node3 -->
<g id="node3" class="node">
<title>Node3</title>
<g id="a_node3"><a xlink:href="vae__source__loader_8hpp.html" target="_top" xlink:title=" ">
<polygon fill="none" stroke="black" points="106,-336.5 106,-355.5 234,-355.5 234,-336.5 106,-336.5"/>
<text text-anchor="middle" x="170" y="-343.5" font-family="Helvetica,sans-Serif" font-size="10.00">vae_source_loader.hpp</text>
</a>
</g>
</g>
<!-- Node1&#45;&gt;Node3 -->
<g id="edge2" class="edge">
<title>Node1&#45;&gt;Node3</title>
<path fill="none" stroke="midnightblue" d="M125.04,-385.54C136.27,-375.91 150.32,-363.87 159.69,-355.83"/>
<polygon fill="midnightblue" stroke="midnightblue" points="122.44,-383.16 117.12,-392.32 126.99,-388.47 122.44,-383.16"/>
</g>
<!-- Node4 -->
<g id="node4" class="node">
<title>Node4</title>
<g id="a_node4"><a xlink:href="vae__bank__loader_8hpp.html" target="_top" xlink:title=" ">
<polygon fill="none" stroke="black" points="110.5,-280.5 110.5,-299.5 229.5,-299.5 229.5,-280.5 110.5,-280.5"/>
<text text-anchor="middle" x="170" y="-287.5" font-family="Helvetica,sans-Serif" font-size="10.00">vae_bank_loader.hpp</text>
</a>
</g>
</g>
<!-- Node3&#45;&gt;Node4 -->
<g id="edge3" class="edge">
<title>Node3&#45;&gt;Node4</title>
<path fill="none" stroke="midnightblue" d="M170,-325.8C170,-316.91 170,-306.78 170,-299.75"/>
<polygon fill="midnightblue" stroke="midnightblue" points="166.5,-326.08 170,-336.08 173.5,-326.08 166.5,-326.08"/>
</g>
<!-- Node5 -->
<g id="node5" class="node">
<title>Node5</title>
<g id="a_node5"><a xlink:href="vae__bank__manager_8hpp.html" target="_top" xlink:title=" ">
<polygon fill="none" stroke="black" points="104,-224.5 104,-243.5 236,-243.5 236,-224.5 104,-224.5"/>
<text text-anchor="middle" x="170" y="-231.5" font-family="Helvetica,sans-Serif" font-size="10.00">vae_bank_manager.hpp</text>
</a>
</g>
</g>
<!-- Node4&#45;&gt;Node5 -->
<g id="edge4" class="edge">
<title>Node4&#45;&gt;Node5</title>
<path fill="none" stroke="midnightblue" d="M170,-269.8C170,-260.91 170,-250.78 170,-243.75"/>
<polygon fill="midnightblue" stroke="midnightblue" points="166.5,-270.08 170,-280.08 173.5,-270.08 166.5,-270.08"/>
</g>
<!-- Node6 -->
<g id="node6" class="node">
<title>Node6</title>
<g id="a_node6"><a xlink:href="vae__engine_8hpp.html" target="_top" xlink:title=" ">
<polygon fill="none" stroke="black" points="112,-56.5 112,-75.5 206,-75.5 206,-56.5 112,-56.5"/>
<text text-anchor="middle" x="159" y="-63.5" font-family="Helvetica,sans-Serif" font-size="10.00">vae_engine.hpp</text>
</a>
</g>
</g>
<!-- Node5&#45;&gt;Node6 -->
<g id="edge5" class="edge">
<title>Node5&#45;&gt;Node6</title>
<path fill="none" stroke="midnightblue" d="M155.5,-216.4C149.45,-208.39 143.12,-198.3 140,-188 127.61,-147.09 146.39,-95.83 155.03,-75.69"/>
<polygon fill="midnightblue" stroke="midnightblue" points="152.78,-218.6 161.79,-224.18 158.23,-214.2 152.78,-218.6"/>
</g>
<!-- Node9 -->
<g id="node9" class="node">
<title>Node9</title>
<g id="a_node9"><a xlink:href="vae__spatial__manager_8hpp.html" target="_top" xlink:title=" ">
<polygon fill="none" stroke="black" points="149.5,-168.5 149.5,-187.5 290.5,-187.5 290.5,-168.5 149.5,-168.5"/>
<text text-anchor="middle" x="220" y="-175.5" font-family="Helvetica,sans-Serif" font-size="10.00">vae_spatial_manager.hpp</text>
</a>
</g>
</g>
<!-- Node5&#45;&gt;Node9 -->
<g id="edge8" class="edge">
<title>Node5&#45;&gt;Node9</title>
<path fill="none" stroke="midnightblue" d="M185.08,-216.72C193.89,-207.2 204.67,-195.56 211.9,-187.75"/>
<polygon fill="midnightblue" stroke="midnightblue" points="182.48,-214.37 178.26,-224.08 187.62,-219.12 182.48,-214.37"/>
</g>
<!-- Node7 -->
<g id="node7" class="node">
<title>Node7</title>
<g id="a_node7"><a xlink:href="main_8cpp.html" target="_top" xlink:title=" ">
<polygon fill="none" stroke="black" points="82,-0.5 82,-19.5 144,-19.5 144,-0.5 82,-0.5"/>
<text text-anchor="middle" x="113" y="-7.5" font-family="Helvetica,sans-Serif" font-size="10.00">main.cpp</text>
</a>
</g>
</g>
<!-- Node6&#45;&gt;Node7 -->
<g id="edge6" class="edge">
<title>Node6&#45;&gt;Node7</title>
<path fill="none" stroke="midnightblue" d="M144.89,-48.43C136.82,-38.97 127.04,-27.48 120.45,-19.75"/>
<polygon fill="midnightblue" stroke="midnightblue" points="142.25,-50.74 151.4,-56.08 147.58,-46.2 142.25,-50.74"/>
</g>
<!-- Node8 -->
<g id="node8" class="node">
<title>Node8</title>
<g id="a_node8"><a xlink:href="vae__pimpl_8cpp.html" target="_top" xlink:title=" ">
<polygon fill="none" stroke="black" points="162,-0.5 162,-19.5 250,-19.5 250,-0.5 162,-0.5"/>
<text text-anchor="middle" x="206" y="-7.5" font-family="Helvetica,sans-Serif" font-size="10.00">vae_pimpl.cpp</text>
</a>
</g>
</g>
<!-- Node6&#45;&gt;Node8 -->
<g id="edge7" class="edge">
<title>Node6&#45;&gt;Node8</title>
<path fill="none" stroke="midnightblue" d="M173.42,-48.43C181.66,-38.97 191.65,-27.48 198.38,-19.75"/>
<polygon fill="midnightblue" stroke="midnightblue" points="170.69,-46.24 166.76,-56.08 175.97,-50.84 170.69,-46.24"/>
</g>
<!-- Node9&#45;&gt;Node6 -->
<g id="edge9" class="edge">
<title>Node9&#45;&gt;Node6</title>
<path fill="none" stroke="midnightblue" d="M202.03,-161.47C193.69,-153.41 184.25,-142.98 178,-132 167.53,-113.61 162.39,-88.95 160.26,-75.92"/>
<polygon fill="midnightblue" stroke="midnightblue" points="199.83,-164.2 209.56,-168.4 204.57,-159.05 199.83,-164.2"/>
</g>
<!-- Node10 -->
<g id="node10" class="node">
<title>Node10</title>
<g id="a_node10"><a xlink:href="vae__spatial__processor_8hpp.html" target="_top" xlink:title=" ">
<polygon fill="none" stroke="black" points="187.5,-112.5 187.5,-131.5 332.5,-131.5 332.5,-112.5 187.5,-112.5"/>
<text text-anchor="middle" x="260" y="-119.5" font-family="Helvetica,sans-Serif" font-size="10.00">vae_spatial_processor.hpp</text>
</a>
</g>
</g>
<!-- Node9&#45;&gt;Node10 -->
<g id="edge10" class="edge">
<title>Node9&#45;&gt;Node10</title>
<path fill="none" stroke="midnightblue" d="M232.7,-159.86C239.63,-150.5 247.91,-139.33 253.52,-131.75"/>
<polygon fill="midnightblue" stroke="midnightblue" points="229.75,-157.96 226.61,-168.08 235.37,-162.13 229.75,-157.96"/>
</g>
<!-- Node10&#45;&gt;Node6 -->
<g id="edge11" class="edge">
<title>Node10&#45;&gt;Node6</title>
<path fill="none" stroke="midnightblue" d="M234.92,-107.59C216.24,-97.61 191.3,-84.27 175.19,-75.65"/>
<polygon fill="midnightblue" stroke="midnightblue" points="233.3,-110.7 243.77,-112.32 236.6,-104.52 233.3,-110.7"/>
</g>
</g>
</svg>
