<?xml version="1.0" encoding="UTF-8" standalone="no"?>
<!DOCTYPE svg PUBLIC "-//W3C//DTD SVG 1.1//EN"
 "http://www.w3.org/Graphics/SVG/1.1/DTD/svg11.dtd">
<!-- Generated by graphviz version 2.50.0 (0)
 -->
<!-- Title: vae::core::BankManager Pages: 1 -->
<svg width="252pt" height="463pt"
 viewBox="0.00 0.00 252.00 463.00" xmlns="http://www.w3.org/2000/svg" xmlns:xlink="http://www.w3.org/1999/xlink">
<g id="graph0" class="graph" transform="scale(1 1) rotate(0) translate(4 459)">
<title>vae::core::BankManager</title>
<!-- Node1 -->
<g id="node1" class="node">
<title>Node1</title>
<g id="a_node1"><a xlink:title="Holds all the banks.">
<polygon fill="#bfbfbf" stroke="black" points="8,-0.5 8,-222.5 142,-222.5 142,-0.5 8,-0.5"/>
<text text-anchor="middle" x="75" y="-210.5" font-family="Helvetica,sans-Serif" font-size="10.00">vae::core::BankManager</text>
<polyline fill="none" stroke="black" points="8,-203.5 142,-203.5 "/>
<text text-anchor="middle" x="75" y="-191.5" font-family="Helvetica,sans-Serif" font-size="10.00"> </text>
<polyline fill="none" stroke="black" points="8,-184.5 142,-184.5 "/>
<text text-anchor="start" x="16" y="-172.5" font-family="Helvetica,sans-Serif" font-size="10.00">+ init()</text>
<text text-anchor="start" x="16" y="-161.5" font-family="Helvetica,sans-Serif" font-size="10.00">+ all()</text>
<text text-anchor="start" x="16" y="-150.5" font-family="Helvetica,sans-Serif" font-size="10.00">+ lock()</text>
<text text-anchor="start" x="16" y="-139.5" font-family="Helvetica,sans-Serif" font-size="10.00">+ unlock()</text>
<text text-anchor="start" x="16" y="-128.5" font-family="Helvetica,sans-Serif" font-size="10.00">+ get()</text>
<text text-anchor="start" x="16" y="-117.5" font-family="Helvetica,sans-Serif" font-size="10.00">+ has()</text>
<text text-anchor="start" x="16" y="-106.5" font-family="Helvetica,sans-Serif" font-size="10.00">+ forEach()</text>
<text text-anchor="start" x="16" y="-95.5" font-family="Helvetica,sans-Serif" font-size="10.00">+ load()</text>
<text text-anchor="start" x="16" y="-84.5" font-family="Helvetica,sans-Serif" font-size="10.00">+ load()</text>
<text text-anchor="start" x="16" y="-73.5" font-family="Helvetica,sans-Serif" font-size="10.00">+ addSource()</text>
<text text-anchor="start" x="16" y="-62.5" font-family="Helvetica,sans-Serif" font-size="10.00">+ addEvent()</text>
<text text-anchor="start" x="16" y="-51.5" font-family="Helvetica,sans-Serif" font-size="10.00">+ addMixer()</text>
<text text-anchor="start" x="16" y="-40.5" font-family="Helvetica,sans-Serif" font-size="10.00">+ addBank()</text>
<text text-anchor="start" x="16" y="-29.5" font-family="Helvetica,sans-Serif" font-size="10.00">+ unloadFromId()</text>
<text text-anchor="start" x="16" y="-18.5" font-family="Helvetica,sans-Serif" font-size="10.00">+ unloadAll()</text>
<text text-anchor="start" x="16" y="-7.5" font-family="Helvetica,sans-Serif" font-size="10.00">&#45; initMixer()</text>
</a>
</g>
</g>
<!-- Node2 -->
<g id="node2" class="node">
<title>Node2</title>
<g id="a_node2"><a xlink:title=" ">
<polygon fill="none" stroke="#bfbfbf" points="0,-281.5 0,-338.5 80,-338.5 80,-281.5 0,-281.5"/>
<text text-anchor="middle" x="40" y="-326.5" font-family="Helvetica,sans-Serif" font-size="10.00">HeapBuffer&lt;</text>
<polyline fill="none" stroke="#bfbfbf" points="0,-319.5 80,-319.5 "/>
<text text-anchor="middle" x="40" y="-307.5" font-family="Helvetica,sans-Serif" font-size="10.00"> </text>
<polyline fill="none" stroke="#bfbfbf" points="0,-300.5 80,-300.5 "/>
<text text-anchor="middle" x="40" y="-288.5" font-family="Helvetica,sans-Serif" font-size="10.00"> </text>
</a>
</g>
</g>
<!-- Node2&#45;&gt;Node1 -->
<g id="edge1" class="edge">
<title>Node2&#45;&gt;Node1</title>
<path fill="none" stroke="#404040" d="M44.94,-281.26C47.22,-268.46 50.1,-252.27 53.18,-235.02"/>
<polygon fill="none" stroke="#404040" points="53.23,-234.75 50.34,-228.14 55.33,-222.93 58.22,-229.54 53.23,-234.75"/>
<text text-anchor="middle" x="75.5" y="-244" font-family="Helvetica,sans-Serif" font-size="10.00"> &#45;mBanks</text>
</g>
<!-- Node3 -->
<g id="node3" class="node">
<title>Node3</title>
<g id="a_node3"><a xlink:href="classvae_1_1core_1_1_bank_loader.html" target="_top" xlink:title=" ">
<polygon fill="none" stroke="black" points="98.5,-270.5 98.5,-349.5 223.5,-349.5 223.5,-270.5 98.5,-270.5"/>
<text text-anchor="middle" x="161" y="-337.5" font-family="Helvetica,sans-Serif" font-size="10.00">vae::core::BankLoader</text>
<polyline fill="none" stroke="black" points="98.5,-330.5 223.5,-330.5 "/>
<text text-anchor="middle" x="161" y="-318.5" font-family="Helvetica,sans-Serif" font-size="10.00"> </text>
<polyline fill="none" stroke="black" points="98.5,-311.5 223.5,-311.5 "/>
<text text-anchor="start" x="106.5" y="-299.5" font-family="Helvetica,sans-Serif" font-size="10.00">+ load()</text>
<text text-anchor="start" x="106.5" y="-288.5" font-family="Helvetica,sans-Serif" font-size="10.00">&#45; allocate()</text>
<text text-anchor="start" x="106.5" y="-277.5" font-family="Helvetica,sans-Serif" font-size="10.00">&#45; deallocate()</text>
</a>
</g>
</g>
<!-- Node3&#45;&gt;Node1 -->
<g id="edge2" class="edge">
<title>Node3&#45;&gt;Node1</title>
<path fill="none" stroke="#404040" d="M144.01,-270.18C139.23,-259.26 133.76,-246.76 128.04,-233.7"/>
<polygon fill="none" stroke="#404040" points="128,-233.6 121.93,-229.71 123.19,-222.61 129.26,-226.5 128,-233.6"/>
<text text-anchor="middle" x="172.5" y="-244" font-family="Helvetica,sans-Serif" font-size="10.00"> &#45;mBankLoader</text>
</g>
<!-- Node4 -->
<g id="node4" class="node">
<title>Node4</title>
<g id="a_node4"><a xlink:href="structvae_1_1core_1_1_source_loader.html" target="_top" xlink:title=" ">
<polygon fill="none" stroke="black" points="94,-397.5 94,-454.5 228,-454.5 228,-397.5 94,-397.5"/>
<text text-anchor="middle" x="161" y="-442.5" font-family="Helvetica,sans-Serif" font-size="10.00">vae::core::SourceLoader</text>
<polyline fill="none" stroke="black" points="94,-435.5 228,-435.5 "/>
<text text-anchor="middle" x="161" y="-423.5" font-family="Helvetica,sans-Serif" font-size="10.00"> </text>
<polyline fill="none" stroke="black" points="94,-416.5 228,-416.5 "/>
<text text-anchor="start" x="102" y="-404.5" font-family="Helvetica,sans-Serif" font-size="10.00">+ load()</text>
</a>
</g>
</g>
<!-- Node4&#45;&gt;Node3 -->
<g id="edge3" class="edge">
<title>Node4&#45;&gt;Node3</title>
<path fill="none" stroke="#404040" d="M161,-397.4C161,-386.63 161,-373.93 161,-361.62"/>
<polygon fill="none" stroke="#404040" points="161,-361.54 157,-355.54 161,-349.54 165,-355.54 161,-361.54"/>
<text text-anchor="middle" x="202.5" y="-371" font-family="Helvetica,sans-Serif" font-size="10.00"> &#45;mSourceLoader</text>
</g>
</g>
</svg>
