<?xml version="1.0" encoding="UTF-8" standalone="no"?>
<!DOCTYPE svg PUBLIC "-//W3C//DTD SVG 1.1//EN"
 "http://www.w3.org/Graphics/SVG/1.1/DTD/svg11.dtd">
<!-- Generated by graphviz version 2.50.0 (0)
 -->
<!-- Title: tklb::HeapBuffer::resize Pages: 1 -->
<svg width="688pt" height="270pt"
 viewBox="0.00 0.00 688.00 270.21" xmlns="http://www.w3.org/2000/svg" xmlns:xlink="http://www.w3.org/1999/xlink">
<g id="graph0" class="graph" transform="scale(1 1) rotate(0) translate(4 266.21)">
<title>tklb::HeapBuffer::resize</title>
<!-- Node1 -->
<g id="node1" class="node">
<title>Node1</title>
<g id="a_node1"><a xlink:title="Resize the buffer If the memory is borrowed it will become unique and owned by this instance as soon ...">
<polygon fill="#bfbfbf" stroke="black" points="0,-82.5 0,-101.5 132,-101.5 132,-82.5 0,-82.5"/>
<text text-anchor="middle" x="66" y="-89.5" font-family="Helvetica,sans-Serif" font-size="10.00">tklb::HeapBuffer::resize</text>
</a>
</g>
</g>
<!-- Node2 -->
<g id="node2" class="node">
<title>Node2</title>
<g id="a_node2"><a xlink:href="classtklb_1_1_heap_buffer.html#aa2212b76d383c1afe3d4da0448133299" target="_top" xlink:title="Allocated the exact size requsted and copies existing objects.">
<polygon fill="none" stroke="black" points="168,-126.5 168,-145.5 310,-145.5 310,-126.5 168,-126.5"/>
<text text-anchor="middle" x="239" y="-133.5" font-family="Helvetica,sans-Serif" font-size="10.00">tklb::HeapBuffer::allocate</text>
</a>
</g>
</g>
<!-- Node1&#45;&gt;Node2 -->
<g id="edge1" class="edge">
<title>Node1&#45;&gt;Node2</title>
<path fill="none" stroke="midnightblue" d="M104.1,-101.55C129.65,-108.12 163.79,-116.9 191.2,-123.96"/>
<polygon fill="midnightblue" stroke="midnightblue" points="190.41,-127.37 200.97,-126.47 192.16,-120.59 190.41,-127.37"/>
</g>
<!-- Node10 -->
<g id="node10" class="node">
<title>Node10</title>
<g id="a_node10"><a xlink:href="classtklb_1_1_heap_buffer.html#ad513a99105213150fe287a8c209f8bc2" target="_top" xlink:title=" ">
<polygon fill="none" stroke="black" points="170.5,-77 170.5,-107 307.5,-107 307.5,-77 170.5,-77"/>
<text text-anchor="start" x="178.5" y="-95" font-family="Helvetica,sans-Serif" font-size="10.00">tklb::HeapBuffer::closest</text>
<text text-anchor="middle" x="239" y="-84" font-family="Helvetica,sans-Serif" font-size="10.00">ChunkSize</text>
</a>
</g>
</g>
<!-- Node1&#45;&gt;Node10 -->
<g id="edge11" class="edge">
<title>Node1&#45;&gt;Node10</title>
<path fill="none" stroke="midnightblue" d="M132.14,-92C141.35,-92 150.91,-92 160.33,-92"/>
<polygon fill="midnightblue" stroke="midnightblue" points="160.49,-95.5 170.49,-92 160.49,-88.5 160.49,-95.5"/>
</g>
<!-- Node11 -->
<g id="node11" class="node">
<title>Node11</title>
<g id="a_node11"><a xlink:href="classtklb_1_1_heap_buffer.html#a5ec4892e352b8df099fa1c75cfbf328c" target="_top" xlink:title="Returns the amount of elements in the container.">
<polygon fill="none" stroke="black" points="178,-38.5 178,-57.5 300,-57.5 300,-38.5 178,-38.5"/>
<text text-anchor="middle" x="239" y="-45.5" font-family="Helvetica,sans-Serif" font-size="10.00">tklb::HeapBuffer::size</text>
</a>
</g>
</g>
<!-- Node1&#45;&gt;Node11 -->
<g id="edge12" class="edge">
<title>Node1&#45;&gt;Node11</title>
<path fill="none" stroke="midnightblue" d="M104.1,-82.45C129.65,-75.88 163.79,-67.1 191.2,-60.04"/>
<polygon fill="midnightblue" stroke="midnightblue" points="192.16,-63.41 200.97,-57.53 190.41,-56.63 192.16,-63.41"/>
</g>
<!-- Node3 -->
<g id="node3" class="node">
<title>Node3</title>
<g id="a_node3"><a xlink:href="classtklb_1_1memory_1_1_memory_pool.html#a12db669f354ab3f2037a67db7f0a8229" target="_top" xlink:title=" ">
<polygon fill="none" stroke="black" points="531,-225 531,-255 680,-255 680,-225 531,-225"/>
<text text-anchor="start" x="539" y="-243" font-family="Helvetica,sans-Serif" font-size="10.00">tklb::memory::MemoryPool</text>
<text text-anchor="middle" x="605.5" y="-232" font-family="Helvetica,sans-Serif" font-size="10.00">::allocate</text>
</a>
</g>
</g>
<!-- Node2&#45;&gt;Node3 -->
<g id="edge2" class="edge">
<title>Node2&#45;&gt;Node3</title>
<path fill="none" stroke="midnightblue" d="M245.65,-145.56C259.44,-167.8 297.25,-222.67 346,-243 403.11,-266.81 473.68,-264.11 526.65,-256.54"/>
<polygon fill="midnightblue" stroke="midnightblue" points="527.3,-259.98 536.66,-255.02 526.25,-253.06 527.3,-259.98"/>
</g>
<!-- Node4 -->
<g id="node4" class="node">
<title>Node4</title>
<g id="a_node4"><a xlink:href="classtklb_1_1memory_1_1_memory_pool.html#a23f0f8e6cc9408d522b0165dd0f01ac2" target="_top" xlink:title="Allocate aligned if simd is enabled.">
<polygon fill="none" stroke="black" points="346,-203 346,-233 495,-233 495,-203 346,-203"/>
<text text-anchor="start" x="354" y="-221" font-family="Helvetica,sans-Serif" font-size="10.00">tklb::memory::MemoryPool</text>
<text text-anchor="middle" x="420.5" y="-210" font-family="Helvetica,sans-Serif" font-size="10.00">::allocateAligned</text>
</a>
</g>
</g>
<!-- Node2&#45;&gt;Node4 -->
<g id="edge3" class="edge">
<title>Node2&#45;&gt;Node4</title>
<path fill="none" stroke="midnightblue" d="M255.75,-145.54C276.1,-157.61 312.86,-178.57 346,-193 351.1,-195.22 356.46,-197.37 361.87,-199.42"/>
<polygon fill="midnightblue" stroke="midnightblue" points="361.02,-202.84 371.62,-203 363.43,-196.27 361.02,-202.84"/>
</g>
<!-- Node5 -->
<g id="node5" class="node">
<title>Node5</title>
<g id="a_node5"><a xlink:href="namespacetklb_1_1memory.html#ab89ec197028f903f4ea125eae46c4a10" target="_top" xlink:title="memcpy wrapper">
<polygon fill="none" stroke="black" points="364.5,-164.5 364.5,-183.5 476.5,-183.5 476.5,-164.5 364.5,-164.5"/>
<text text-anchor="middle" x="420.5" y="-171.5" font-family="Helvetica,sans-Serif" font-size="10.00">tklb::memory::copy</text>
</a>
</g>
</g>
<!-- Node2&#45;&gt;Node5 -->
<g id="edge5" class="edge">
<title>Node2&#45;&gt;Node5</title>
<path fill="none" stroke="midnightblue" d="M285.3,-145.59C309.41,-150.69 339.25,-157.01 364.67,-162.39"/>
<polygon fill="midnightblue" stroke="midnightblue" points="364.02,-165.83 374.53,-164.48 365.47,-158.98 364.02,-165.83"/>
</g>
<!-- Node6 -->
<g id="node6" class="node">
<title>Node6</title>
<g id="a_node6"><a xlink:href="classtklb_1_1memory_1_1_memory_pool.html#ae2f6e404a58380b0bcf0f3de281a7546" target="_top" xlink:title=" ">
<polygon fill="none" stroke="black" points="531,-99 531,-129 680,-129 680,-99 531,-99"/>
<text text-anchor="start" x="539" y="-117" font-family="Helvetica,sans-Serif" font-size="10.00">tklb::memory::MemoryPool</text>
<text text-anchor="middle" x="605.5" y="-106" font-family="Helvetica,sans-Serif" font-size="10.00">::deallocate</text>
</a>
</g>
</g>
<!-- Node2&#45;&gt;Node6 -->
<g id="edge6" class="edge">
<title>Node2&#45;&gt;Node6</title>
<path fill="none" stroke="midnightblue" d="M310.28,-131.76C370.47,-128.13 457.25,-122.89 520.98,-119.04"/>
<polygon fill="midnightblue" stroke="midnightblue" points="521.23,-122.53 531,-118.44 520.81,-115.55 521.23,-122.53"/>
</g>
<!-- Node7 -->
<g id="node7" class="node">
<title>Node7</title>
<g id="a_node7"><a xlink:href="classtklb_1_1memory_1_1_memory_pool.html#a7b2a7e96e64767e2cff9dfddb9085779" target="_top" xlink:title=" ">
<polygon fill="none" stroke="black" points="346,-77 346,-107 495,-107 495,-77 346,-77"/>
<text text-anchor="start" x="354" y="-95" font-family="Helvetica,sans-Serif" font-size="10.00">tklb::memory::MemoryPool</text>
<text text-anchor="middle" x="420.5" y="-84" font-family="Helvetica,sans-Serif" font-size="10.00">::deallocateAligned</text>
</a>
</g>
</g>
<!-- Node2&#45;&gt;Node7 -->
<g id="edge7" class="edge">
<title>Node2&#45;&gt;Node7</title>
<path fill="none" stroke="midnightblue" d="M278.95,-126.45C299.16,-121.5 324.49,-115.29 348.07,-109.51"/>
<polygon fill="midnightblue" stroke="midnightblue" points="349.16,-112.85 358.04,-107.07 347.49,-106.05 349.16,-112.85"/>
</g>
<!-- Node8 -->
<g id="node8" class="node">
<title>Node8</title>
<g id="a_node8"><a xlink:href="classtklb_1_1_heap_buffer.html#af3331f4c39082c6bedf37b7931b1c27a" target="_top" xlink:title="Whether the memory is managed by the instance or is borrowed.">
<polygon fill="none" stroke="black" points="349.5,-38.5 349.5,-57.5 491.5,-57.5 491.5,-38.5 349.5,-38.5"/>
<text text-anchor="middle" x="420.5" y="-45.5" font-family="Helvetica,sans-Serif" font-size="10.00">tklb::HeapBuffer::injected</text>
</a>
</g>
</g>
<!-- Node2&#45;&gt;Node8 -->
<g id="edge9" class="edge">
<title>Node2&#45;&gt;Node8</title>
<path fill="none" stroke="midnightblue" d="M289.32,-126.4C296.62,-123.73 303.77,-120.33 310,-116 332.18,-100.57 323.62,-82.15 346,-67 349.07,-64.92 352.36,-63.07 355.77,-61.42"/>
<polygon fill="midnightblue" stroke="midnightblue" points="357.2,-64.61 365.06,-57.51 354.48,-58.16 357.2,-64.61"/>
</g>
<!-- Node9 -->
<g id="node9" class="node">
<title>Node9</title>
<g id="a_node9"><a xlink:href="namespacetklb.html#a3080595da18d742645ec41d61828a426" target="_top" xlink:title=" ">
<polygon fill="none" stroke="black" points="390.5,-0.5 390.5,-19.5 450.5,-19.5 450.5,-0.5 390.5,-0.5"/>
<text text-anchor="middle" x="420.5" y="-7.5" font-family="Helvetica,sans-Serif" font-size="10.00">tklb::min</text>
</a>
</g>
</g>
<!-- Node2&#45;&gt;Node9 -->
<g id="edge10" class="edge">
<title>Node2&#45;&gt;Node9</title>
<path fill="none" stroke="midnightblue" d="M293.17,-126.47C299.3,-123.8 305.1,-120.37 310,-116 341.23,-88.14 314.42,-56.46 346,-29 355.48,-20.76 368.09,-16.02 380.18,-13.32"/>
<polygon fill="midnightblue" stroke="midnightblue" points="380.93,-16.74 390.14,-11.5 379.67,-9.85 380.93,-16.74"/>
</g>
<!-- Node4&#45;&gt;Node3 -->
<g id="edge4" class="edge">
<title>Node4&#45;&gt;Node3</title>
<path fill="none" stroke="midnightblue" d="M495.14,-226.85C503.57,-227.87 512.2,-228.9 520.74,-229.93"/>
<polygon fill="midnightblue" stroke="midnightblue" points="520.36,-233.41 530.71,-231.13 521.2,-226.46 520.36,-233.41"/>
</g>
<!-- Node7&#45;&gt;Node6 -->
<g id="edge8" class="edge">
<title>Node7&#45;&gt;Node6</title>
<path fill="none" stroke="midnightblue" d="M495.14,-100.85C503.57,-101.87 512.2,-102.9 520.74,-103.93"/>
<polygon fill="midnightblue" stroke="midnightblue" points="520.36,-107.41 530.71,-105.13 521.2,-100.46 520.36,-107.41"/>
</g>
</g>
</svg>
