<?xml version="1.0" encoding="UTF-8" standalone="no"?>
<!DOCTYPE svg PUBLIC "-//W3C//DTD SVG 1.1//EN"
 "http://www.w3.org/Graphics/SVG/1.1/DTD/svg11.dtd">
<!-- Generated by graphviz version 2.50.0 (0)
 -->
<!-- Title: tklb::ResamplerSpeexTpl::process Pages: 1 -->
<svg width="677pt" height="146pt"
 viewBox="0.00 0.00 677.00 145.50" xmlns="http://www.w3.org/2000/svg" xmlns:xlink="http://www.w3.org/1999/xlink">
<g id="graph0" class="graph" transform="scale(1 1) rotate(0) translate(4 141.5)">
<title>tklb::ResamplerSpeexTpl::process</title>
<!-- Node1 -->
<g id="node1" class="node">
<title>Node1</title>
<g id="a_node1"><a xlink:title="Resample function Make sure the out buffer has enough space.">
<polygon fill="#bfbfbf" stroke="black" points="530,-61 530,-91 669,-91 669,-61 530,-61"/>
<text text-anchor="start" x="538" y="-79" font-family="Helvetica,sans-Serif" font-size="10.00">tklb::ResamplerSpeexTpl</text>
<text text-anchor="middle" x="599.5" y="-68" font-family="Helvetica,sans-Serif" font-size="10.00">::process</text>
</a>
</g>
</g>
<!-- Node2 -->
<g id="node2" class="node">
<title>Node2</title>
<g id="a_node2"><a xlink:href="classvae_1_1core_1_1_device.html#ab7e14bd42af297434a88e73aa03bb7b2" target="_top" xlink:title="Push samples to the audio device.">
<polygon fill="none" stroke="black" points="341,-110.5 341,-129.5 472,-129.5 472,-110.5 341,-110.5"/>
<text text-anchor="middle" x="406.5" y="-117.5" font-family="Helvetica,sans-Serif" font-size="10.00">vae::core::Device::push</text>
</a>
</g>
</g>
<!-- Node1&#45;&gt;Node2 -->
<g id="edge1" class="edge">
<title>Node1&#45;&gt;Node2</title>
<path fill="none" stroke="midnightblue" d="M523.32,-93.32C497.94,-99.16 470.56,-105.47 448.79,-110.49"/>
<polygon fill="midnightblue" stroke="midnightblue" points="524.34,-96.67 533.3,-91.02 522.77,-89.85 524.34,-96.67"/>
</g>
<!-- Node3 -->
<g id="node3" class="node">
<title>Node3</title>
<g id="a_node3"><a xlink:href="classtklb_1_1_resampler_speex_tpl.html#a9a6c41aeb45d44340e6fbf6bcb0ff591" target="_top" xlink:title="Resamples the provided buffer from its sampleRate to the target rate.">
<polygon fill="none" stroke="black" points="337,-61 337,-91 476,-91 476,-61 337,-61"/>
<text text-anchor="start" x="345" y="-79" font-family="Helvetica,sans-Serif" font-size="10.00">tklb::ResamplerSpeexTpl</text>
<text text-anchor="middle" x="406.5" y="-68" font-family="Helvetica,sans-Serif" font-size="10.00">::resample</text>
</a>
</g>
</g>
<!-- Node1&#45;&gt;Node3 -->
<g id="edge2" class="edge">
<title>Node1&#45;&gt;Node3</title>
<path fill="none" stroke="midnightblue" d="M519.47,-76C505.11,-76 490.25,-76 476.22,-76"/>
<polygon fill="midnightblue" stroke="midnightblue" points="519.81,-79.5 529.81,-76 519.81,-72.5 519.81,-79.5"/>
</g>
<!-- Node7 -->
<g id="node7" class="node">
<title>Node7</title>
<g id="a_node7"><a xlink:href="structvae_1_1core_1_1_device_1_1_audio_thread_worker.html#a1d6ad75314a363dbb773c16aecb21326" target="_top" xlink:title="Called from audio backend to push in interleaved audio data.">
<polygon fill="none" stroke="black" points="319,-0.5 319,-41.5 494,-41.5 494,-0.5 319,-0.5"/>
<text text-anchor="start" x="327" y="-29.5" font-family="Helvetica,sans-Serif" font-size="10.00">vae::core::Device::</text>
<text text-anchor="start" x="327" y="-18.5" font-family="Helvetica,sans-Serif" font-size="10.00">AudioThreadWorker::swapBuffer</text>
<text text-anchor="middle" x="406.5" y="-7.5" font-family="Helvetica,sans-Serif" font-size="10.00">Interleaved</text>
</a>
</g>
</g>
<!-- Node1&#45;&gt;Node7 -->
<g id="edge6" class="edge">
<title>Node1&#45;&gt;Node7</title>
<path fill="none" stroke="midnightblue" d="M536.6,-58.17C518.2,-52.88 497.91,-47.03 478.96,-41.58"/>
<polygon fill="midnightblue" stroke="midnightblue" points="535.73,-61.57 546.31,-60.97 537.67,-54.84 535.73,-61.57"/>
</g>
<!-- Node4 -->
<g id="node4" class="node">
<title>Node4</title>
<g id="a_node4"><a xlink:href="classvae_1_1core_1_1_bank_manager.html#a6542180b77772f1605e211bd851f8996" target="_top" xlink:title=" ">
<polygon fill="none" stroke="black" points="146,-107 146,-137 280,-137 280,-107 146,-107"/>
<text text-anchor="start" x="154" y="-125" font-family="Helvetica,sans-Serif" font-size="10.00">vae::core::BankManager</text>
<text text-anchor="middle" x="213" y="-114" font-family="Helvetica,sans-Serif" font-size="10.00">::addSource</text>
</a>
</g>
</g>
<!-- Node3&#45;&gt;Node4 -->
<g id="edge3" class="edge">
<title>Node3&#45;&gt;Node4</title>
<path fill="none" stroke="midnightblue" d="M332.92,-93.43C314.35,-97.9 294.54,-102.65 276.52,-106.98"/>
<polygon fill="midnightblue" stroke="midnightblue" points="333.89,-96.8 342.8,-91.06 332.25,-89.99 333.89,-96.8"/>
</g>
<!-- Node6 -->
<g id="node6" class="node">
<title>Node6</title>
<g id="a_node6"><a xlink:href="classvae_1_1core_1_1_bank_manager.html#adbc94fb2b23a418e34a3eda7812d71a6" target="_top" xlink:title=" ">
<polygon fill="none" stroke="black" points="146,-58 146,-88 280,-88 280,-58 146,-58"/>
<text text-anchor="start" x="154" y="-76" font-family="Helvetica,sans-Serif" font-size="10.00">vae::core::BankManager</text>
<text text-anchor="middle" x="213" y="-65" font-family="Helvetica,sans-Serif" font-size="10.00">::load</text>
</a>
</g>
</g>
<!-- Node3&#45;&gt;Node6 -->
<g id="edge5" class="edge">
<title>Node3&#45;&gt;Node6</title>
<path fill="none" stroke="midnightblue" d="M326.83,-74.77C311.34,-74.52 295.23,-74.27 280.19,-74.04"/>
<polygon fill="midnightblue" stroke="midnightblue" points="326.85,-78.27 336.91,-74.93 326.96,-71.27 326.85,-78.27"/>
</g>
<!-- Node5 -->
<g id="node5" class="node">
<title>Node5</title>
<g id="a_node5"><a xlink:href="classvae_1_1core_1_1_engine.html#aba4ba7edf58f833125633e7149e4d499" target="_top" xlink:title="Add or replace a source in a bank.">
<polygon fill="none" stroke="black" points="0,-107 0,-137 107,-137 107,-107 0,-107"/>
<text text-anchor="start" x="8" y="-125" font-family="Helvetica,sans-Serif" font-size="10.00">vae::core::Engine::</text>
<text text-anchor="middle" x="53.5" y="-114" font-family="Helvetica,sans-Serif" font-size="10.00">addSource</text>
</a>
</g>
</g>
<!-- Node4&#45;&gt;Node5 -->
<g id="edge4" class="edge">
<title>Node4&#45;&gt;Node5</title>
<path fill="none" stroke="midnightblue" d="M135.41,-122C125.92,-122 116.4,-122 107.38,-122"/>
<polygon fill="midnightblue" stroke="midnightblue" points="135.66,-125.5 145.66,-122 135.66,-118.5 135.66,-125.5"/>
</g>
<!-- Node8 -->
<g id="node8" class="node">
<title>Node8</title>
<g id="a_node8"><a xlink:href="classvae_1_1core_1_1_device_dummy.html#ac4105d62f1ae237fd9bb8d8bd8dda6a6" target="_top" xlink:title="Simulate the callback from the audio device.">
<polygon fill="none" stroke="black" points="143,-6 143,-36 283,-36 283,-6 143,-6"/>
<text text-anchor="start" x="151" y="-24" font-family="Helvetica,sans-Serif" font-size="10.00">vae::core::DeviceDummy</text>
<text text-anchor="middle" x="213" y="-13" font-family="Helvetica,sans-Serif" font-size="10.00">::swapBufferInterleaved</text>
</a>
</g>
</g>
<!-- Node7&#45;&gt;Node8 -->
<g id="edge7" class="edge">
<title>Node7&#45;&gt;Node8</title>
<path fill="none" stroke="midnightblue" d="M308.85,-21C300.19,-21 291.54,-21 283.19,-21"/>
<polygon fill="midnightblue" stroke="midnightblue" points="308.99,-24.5 318.99,-21 308.99,-17.5 308.99,-24.5"/>
</g>
</g>
</svg>
