<?xml version="1.0" encoding="UTF-8" standalone="no"?>
<!DOCTYPE svg PUBLIC "-//W3C//DTD SVG 1.1//EN"
 "http://www.w3.org/Graphics/SVG/1.1/DTD/svg11.dtd">
<!-- Generated by graphviz version 2.50.0 (0)
 -->
<!-- Title: vae::core::SpatialManager::hasEmitter Pages: 1 -->
<!--zoomable 379 -->
<svg id="main" version="1.1" xmlns="http://www.w3.org/2000/svg" xmlns:xlink="http://www.w3.org/1999/xlink" xml:space="preserve" onload="init(evt)">
<style type="text/css"><![CDATA[
.edge:hover path { stroke: red; }
.edge:hover polygon { stroke: red; fill: red; }
]]></style>
<script type="text/javascript"><![CDATA[
var edges = document.getElementsByTagName('g');
if (edges && edges.length) {
  for (var i=0;i<edges.length;i++) {
    if (edges[i].id.substr(0,4)=='edge') {
      edges[i].setAttribute('class','edge');
    }
  }
}
]]></script>
        <defs>
                <circle id="rim" cx="0" cy="0" r="7"/>
                <circle id="rim2" cx="0" cy="0" r="3.5"/>
                <g id="zoomPlus">
                        <use xlink:href="#rim" fill="#404040">
                                <set attributeName="fill" to="#808080" begin="zoomplus.mouseover" end="zoomplus.mouseout"/>
                        </use>
                        <path d="M-4,0h8M0,-4v8" fill="none" stroke="white" stroke-width="1.5" pointer-events="none"/>
                </g>
                <g id="zoomMin">
                        <use xlink:href="#rim" fill="#404040">
                                <set attributeName="fill" to="#808080" begin="zoomminus.mouseover" end="zoomminus.mouseout"/>
                        </use>
                        <path d="M-4,0h8" fill="none" stroke="white" stroke-width="1.5" pointer-events="none"/>
                </g>
                <g id="dirArrow">
                        <path fill="none" stroke="white" stroke-width="1.5" d="M0,-3.0v7 M-2.5,-0.5L0,-3.0L2.5,-0.5"/>
                </g>
               <g id="resetDef">
                       <use xlink:href="#rim2" fill="#404040">
                               <set attributeName="fill" to="#808080" begin="reset.mouseover" end="reset.mouseout"/>
                       </use>
               </g>
        </defs>

<script type="text/javascript">
var viewWidth = 1225;
var viewHeight = 379;
var sectionId = 'dynsection-10';
</script>
<script xlink:href="svgpan.js"/>
<svg id="graph" class="graph">
<g id="viewport">
<title>vae::core::SpatialManager::hasEmitter</title>
<!-- Node1 -->
<g id="node1" class="node">
<title>Node1</title>
<g id="a_node1"><a xlink:title=" ">
<polygon fill="#bfbfbf" stroke="black" points="1074,-90 1074,-120 1217,-120 1217,-90 1074,-90"/>
<text text-anchor="start" x="1082" y="-108" font-family="Helvetica,sans-Serif" font-size="10.00">vae::core::SpatialManager</text>
<text text-anchor="middle" x="1145.5" y="-97" font-family="Helvetica,sans-Serif" font-size="10.00">::hasEmitter</text>
</a>
</g>
</g>
<!-- Node2 -->
<g id="node2" class="node">
<title>Node2</title>
<g id="a_node2"><a xlink:href="classvae_1_1core_1_1_spatial_manager.html#a3b7a584badb78d373db73bde20e5a85b" target="_top" xlink:title=" ">
<polygon fill="none" stroke="black" points="880,-240 880,-270 1023,-270 1023,-240 880,-240"/>
<text text-anchor="start" x="888" y="-258" font-family="Helvetica,sans-Serif" font-size="10.00">vae::core::SpatialManager</text>
<text text-anchor="middle" x="951.5" y="-247" font-family="Helvetica,sans-Serif" font-size="10.00">::createEmitter</text>
</a>
</g>
</g>
<!-- Node1&#45;&gt;Node2 -->
<g id="edge1" class="edge">
<title>Node1&#45;&gt;Node2</title>
<path fill="none" stroke="midnightblue" d="M1117.14,-126.37C1077.74,-157.15 1006.01,-213.2 971.73,-239.97"/>
<polygon fill="midnightblue" stroke="midnightblue" points="1119.31,-129.12 1125.03,-120.21 1115,-123.61 1119.31,-129.12"/>
</g>
<!-- Node12 -->
<g id="node12" class="node">
<title>Node12</title>
<g id="a_node12"><a xlink:href="classvae_1_1core_1_1_engine.html#a4721a2bf236efae669ee51ba148e193a" target="_top" xlink:title="Main mechanism to start and stop sounds.">
<polygon fill="none" stroke="black" points="898,-118 898,-148 1005,-148 1005,-118 898,-118"/>
<text text-anchor="start" x="906" y="-136" font-family="Helvetica,sans-Serif" font-size="10.00">vae::core::Engine::</text>
<text text-anchor="middle" x="951.5" y="-125" font-family="Helvetica,sans-Serif" font-size="10.00">fireEvent</text>
</a>
</g>
</g>
<!-- Node1&#45;&gt;Node12 -->
<g id="edge11" class="edge">
<title>Node1&#45;&gt;Node12</title>
<path fill="none" stroke="midnightblue" d="M1063.84,-116.76C1043.95,-119.66 1023.16,-122.7 1005,-125.34"/>
<polygon fill="midnightblue" stroke="midnightblue" points="1064.43,-120.21 1073.82,-115.31 1063.42,-113.29 1064.43,-120.21"/>
</g>
<!-- Node23 -->
<g id="node23" class="node">
<title>Node23</title>
<g id="a_node23"><a xlink:href="classvae_1_1core_1_1_spatial_processor.html#a9acbf42573db468c02381dadb81f3fcd" target="_top" xlink:title="Process a single bank.">
<polygon fill="none" stroke="black" points="865,-4.5 865,-23.5 1038,-23.5 1038,-4.5 865,-4.5"/>
<text text-anchor="middle" x="951.5" y="-11.5" font-family="Helvetica,sans-Serif" font-size="10.00">vae::core::SpatialProcessor::mix</text>
</a>
</g>
</g>
<!-- Node1&#45;&gt;Node23 -->
<g id="edge30" class="edge">
<title>Node1&#45;&gt;Node23</title>
<path fill="none" stroke="midnightblue" d="M1103.52,-85.58C1063.32,-66.52 1003.67,-38.25 972.74,-23.59"/>
<polygon fill="midnightblue" stroke="midnightblue" points="1102.26,-88.85 1112.8,-89.97 1105.26,-82.53 1102.26,-88.85"/>
</g>
<!-- Node24 -->
<g id="node24" class="node">
<title>Node24</title>
<g id="a_node24"><a xlink:href="classvae_1_1core_1_1_spatial_manager.html#abaac63e2c14e2ef21be7e4babdce44be" target="_top" xlink:title=" ">
<polygon fill="none" stroke="black" points="880,-66 880,-96 1023,-96 1023,-66 880,-66"/>
<text text-anchor="start" x="888" y="-84" font-family="Helvetica,sans-Serif" font-size="10.00">vae::core::SpatialManager</text>
<text text-anchor="middle" x="951.5" y="-73" font-family="Helvetica,sans-Serif" font-size="10.00">::setEmitter</text>
</a>
</g>
</g>
<!-- Node1&#45;&gt;Node24 -->
<g id="edge33" class="edge">
<title>Node1&#45;&gt;Node24</title>
<path fill="none" stroke="midnightblue" d="M1063.61,-94.89C1050.12,-93.2 1036.23,-91.47 1023.03,-89.82"/>
<polygon fill="midnightblue" stroke="midnightblue" points="1063.47,-98.4 1073.82,-96.17 1064.34,-91.45 1063.47,-98.4"/>
</g>
<!-- Node3 -->
<g id="node3" class="node">
<title>Node3</title>
<g id="a_node3"><a xlink:href="classvae_1_1core_1_1_spatial_manager.html#a5388d4c3de49b246d40dc00a799a04d4" target="_top" xlink:title=" ">
<polygon fill="none" stroke="black" points="681.5,-318 681.5,-348 824.5,-348 824.5,-318 681.5,-318"/>
<text text-anchor="start" x="689.5" y="-336" font-family="Helvetica,sans-Serif" font-size="10.00">vae::core::SpatialManager</text>
<text text-anchor="middle" x="753" y="-325" font-family="Helvetica,sans-Serif" font-size="10.00">::createAutoEmitter</text>
</a>
</g>
</g>
<!-- Node2&#45;&gt;Node3 -->
<g id="edge2" class="edge">
<title>Node2&#45;&gt;Node3</title>
<path fill="none" stroke="midnightblue" d="M902.89,-273.9C868.88,-287.4 823.74,-305.32 792.11,-317.87"/>
<polygon fill="midnightblue" stroke="midnightblue" points="904.61,-276.98 912.61,-270.04 902.03,-270.48 904.61,-276.98"/>
</g>
<!-- Node6 -->
<g id="node6" class="node">
<title>Node6</title>
<g id="a_node6"><a xlink:href="classvae_1_1core_1_1_engine.html#a400114c6a78c8f77d34567004b471bb3" target="_top" xlink:title="Creates an emitter and returns the handle.">
<polygon fill="none" stroke="black" points="699.5,-240 699.5,-270 806.5,-270 806.5,-240 699.5,-240"/>
<text text-anchor="start" x="707.5" y="-258" font-family="Helvetica,sans-Serif" font-size="10.00">vae::core::Engine::</text>
<text text-anchor="middle" x="753" y="-247" font-family="Helvetica,sans-Serif" font-size="10.00">createEmitter</text>
</a>
</g>
</g>
<!-- Node2&#45;&gt;Node6 -->
<g id="edge5" class="edge">
<title>Node2&#45;&gt;Node6</title>
<path fill="none" stroke="midnightblue" d="M869.83,-255C848.57,-255 826.17,-255 806.79,-255"/>
<polygon fill="midnightblue" stroke="midnightblue" points="869.84,-258.5 879.84,-255 869.84,-251.5 869.84,-258.5"/>
</g>
<!-- Node4 -->
<g id="node4" class="node">
<title>Node4</title>
<g id="a_node4"><a xlink:href="classvae_1_1core_1_1_engine.html#aa95114981da90cd3395d48c4bd5cf407" target="_top" xlink:title="Emitter which triggers an event once a listener is close enough.">
<polygon fill="none" stroke="black" points="508.5,-340 508.5,-370 615.5,-370 615.5,-340 508.5,-340"/>
<text text-anchor="start" x="516.5" y="-358" font-family="Helvetica,sans-Serif" font-size="10.00">vae::core::Engine::</text>
<text text-anchor="middle" x="562" y="-347" font-family="Helvetica,sans-Serif" font-size="10.00">createAutoEmitter</text>
</a>
</g>
</g>
<!-- Node3&#45;&gt;Node4 -->
<g id="edge3" class="edge">
<title>Node3&#45;&gt;Node4</title>
<path fill="none" stroke="midnightblue" d="M671.28,-342.4C652.42,-344.59 632.82,-346.87 615.56,-348.88"/>
<polygon fill="midnightblue" stroke="midnightblue" points="671.83,-345.86 681.35,-341.22 671.02,-338.9 671.83,-345.86"/>
</g>
<!-- Node5 -->
<g id="node5" class="node">
<title>Node5</title>
<g id="a_node5"><a xlink:href="classvae_1_1_engine_pimpl.html#a1e36c49dc56f13537413d5480ca61045" target="_top" xlink:title="Emitter which triggers an event once a listener is close enough.">
<polygon fill="none" stroke="black" points="309,-340 309,-370 447,-370 447,-340 309,-340"/>
<text text-anchor="start" x="317" y="-358" font-family="Helvetica,sans-Serif" font-size="10.00">vae::EnginePimpl::create</text>
<text text-anchor="middle" x="378" y="-347" font-family="Helvetica,sans-Serif" font-size="10.00">AutoEmitter</text>
</a>
</g>
</g>
<!-- Node4&#45;&gt;Node5 -->
<g id="edge4" class="edge">
<title>Node4&#45;&gt;Node5</title>
<path fill="none" stroke="midnightblue" d="M498.28,-355C481.78,-355 463.9,-355 447.13,-355"/>
<polygon fill="midnightblue" stroke="midnightblue" points="498.36,-358.5 508.36,-355 498.36,-351.5 498.36,-358.5"/>
</g>
<!-- Node7 -->
<g id="node7" class="node">
<title>Node7</title>
<g id="a_node7"><a xlink:href="main_8cpp.html#a7b09579eb01449ba8f8ac324485001c2" target="_top" xlink:title=" ">
<polygon fill="none" stroke="black" points="526.5,-126.5 526.5,-145.5 597.5,-145.5 597.5,-126.5 526.5,-126.5"/>
<text text-anchor="middle" x="562" y="-133.5" font-family="Helvetica,sans-Serif" font-size="10.00">benchmark</text>
</a>
</g>
</g>
<!-- Node6&#45;&gt;Node7 -->
<g id="edge6" class="edge">
<title>Node6&#45;&gt;Node7</title>
<path fill="none" stroke="midnightblue" d="M703.04,-235.3C693.76,-230.21 684.58,-224.11 677,-217 654.04,-195.47 666.17,-174.91 641,-156 628.59,-146.68 612.28,-141.68 597.78,-139.01"/>
<polygon fill="midnightblue" stroke="midnightblue" points="701.44,-238.42 711.93,-239.88 704.65,-232.19 701.44,-238.42"/>
</g>
<!-- Node8 -->
<g id="node8" class="node">
<title>Node8</title>
<g id="a_node8"><a xlink:href="main_8cpp.html#a6f5c91847864279624ba2247527e3cea" target="_top" xlink:title=" ">
<polygon fill="none" stroke="black" points="500.5,-214.5 500.5,-233.5 623.5,-233.5 623.5,-214.5 500.5,-214.5"/>
<text text-anchor="middle" x="562" y="-221.5" font-family="Helvetica,sans-Serif" font-size="10.00">benchmarkBasicVoice</text>
</a>
</g>
</g>
<!-- Node6&#45;&gt;Node8 -->
<g id="edge7" class="edge">
<title>Node6&#45;&gt;Node8</title>
<path fill="none" stroke="midnightblue" d="M689.42,-244.74C667.36,-241.12 642.67,-237.07 621,-233.51"/>
<polygon fill="midnightblue" stroke="midnightblue" points="688.92,-248.2 699.35,-246.36 690.05,-241.29 688.92,-248.2"/>
</g>
<!-- Node9 -->
<g id="node9" class="node">
<title>Node9</title>
<g id="a_node9"><a xlink:href="classvae_1_1_engine_pimpl.html#a277ff894edce0324148c68cb2d5785ea" target="_top" xlink:title="Creates an emitter and returns the handle.">
<polygon fill="none" stroke="black" points="493,-291 493,-321 631,-321 631,-291 493,-291"/>
<text text-anchor="start" x="501" y="-309" font-family="Helvetica,sans-Serif" font-size="10.00">vae::EnginePimpl::create</text>
<text text-anchor="middle" x="562" y="-298" font-family="Helvetica,sans-Serif" font-size="10.00">Emitter</text>
</a>
</g>
</g>
<!-- Node6&#45;&gt;Node9 -->
<g id="edge8" class="edge">
<title>Node6&#45;&gt;Node9</title>
<path fill="none" stroke="midnightblue" d="M689.41,-271.89C666.56,-278.06 640.88,-284.99 618.66,-290.98"/>
<polygon fill="midnightblue" stroke="midnightblue" points="690.61,-275.19 699.35,-269.21 688.79,-268.43 690.61,-275.19"/>
</g>
<!-- Node10 -->
<g id="node10" class="node">
<title>Node10</title>
<g id="a_node10"><a xlink:href="main_8cpp.html#afe1c3ff6204d9b675caf60b5545e3e54" target="_top" xlink:title=" ">
<polygon fill="none" stroke="black" points="532.5,-252.5 532.5,-271.5 591.5,-271.5 591.5,-252.5 532.5,-252.5"/>
<text text-anchor="middle" x="562" y="-259.5" font-family="Helvetica,sans-Serif" font-size="10.00">filterTest</text>
</a>
</g>
</g>
<!-- Node6&#45;&gt;Node10 -->
<g id="edge9" class="edge">
<title>Node6&#45;&gt;Node10</title>
<path fill="none" stroke="midnightblue" d="M689.32,-257.32C656.33,-258.54 617.48,-259.98 591.66,-260.94"/>
<polygon fill="midnightblue" stroke="midnightblue" points="689.49,-260.82 699.35,-256.95 689.23,-253.82 689.49,-260.82"/>
</g>
<!-- Node11 -->
<g id="node11" class="node">
<title>Node11</title>
<g id="a_node11"><a xlink:href="main_8cpp.html#ae66f6b31b5ad750f1fe042a706a4e3d4" target="_top" xlink:title=" ">
<polygon fill="none" stroke="black" points="44.5,-134.5 44.5,-153.5 85.5,-153.5 85.5,-134.5 44.5,-134.5"/>
<text text-anchor="middle" x="65" y="-141.5" font-family="Helvetica,sans-Serif" font-size="10.00">main</text>
</a>
</g>
</g>
<!-- Node10&#45;&gt;Node11 -->
<g id="edge10" class="edge">
<title>Node10&#45;&gt;Node11</title>
<path fill="none" stroke="midnightblue" d="M522.29,-252.77C422.62,-229.01 159.76,-166.35 85.68,-148.69"/>
<polygon fill="midnightblue" stroke="midnightblue" points="521.71,-256.23 532.25,-255.15 523.33,-249.42 521.71,-256.23"/>
</g>
<!-- Node12&#45;&gt;Node12 -->
<g id="edge13" class="edge">
<title>Node12&#45;&gt;Node12</title>
<path fill="none" stroke="midnightblue" d="M985.97,-158.46C981.69,-163.18 970.2,-166.5 951.5,-166.5 920.81,-166.5 909.54,-157.56 917.69,-148.16"/>
<polygon fill="midnightblue" stroke="midnightblue" points="989.44,-157.91 985.31,-148.16 982.46,-158.36 989.44,-157.91"/>
</g>
<!-- Node13 -->
<g id="node13" class="node">
<title>Node13</title>
<g id="a_node13"><a xlink:href="classvae_1_1_engine_pimpl.html#ad8012513afde9dd3bb976b5440858bef" target="_top" xlink:title="Main mechanism to start and stop sounds.">
<polygon fill="none" stroke="black" points="677,-89.5 677,-108.5 829,-108.5 829,-89.5 677,-89.5"/>
<text text-anchor="middle" x="753" y="-96.5" font-family="Helvetica,sans-Serif" font-size="10.00">vae::EnginePimpl::fireEvent</text>
</a>
</g>
</g>
<!-- Node12&#45;&gt;Node13 -->
<g id="edge12" class="edge">
<title>Node12&#45;&gt;Node13</title>
<path fill="none" stroke="midnightblue" d="M887.98,-122.18C862.68,-117.8 833.72,-112.79 809.21,-108.55"/>
<polygon fill="midnightblue" stroke="midnightblue" points="887.39,-125.63 897.84,-123.89 888.58,-118.73 887.39,-125.63"/>
</g>
<!-- Node14 -->
<g id="node14" class="node">
<title>Node14</title>
<g id="a_node14"><a xlink:href="classvae_1_1core_1_1_engine.html#a11a6ae8ce62130f33dad382a4e4cf07e" target="_top" xlink:title="Works like fireEvent but with a global Event identifier.">
<polygon fill="none" stroke="black" points="699.5,-177 699.5,-207 806.5,-207 806.5,-177 699.5,-177"/>
<text text-anchor="start" x="707.5" y="-195" font-family="Helvetica,sans-Serif" font-size="10.00">vae::core::Engine::</text>
<text text-anchor="middle" x="753" y="-184" font-family="Helvetica,sans-Serif" font-size="10.00">fireGlobalEvent</text>
</a>
</g>
</g>
<!-- Node12&#45;&gt;Node14 -->
<g id="edge14" class="edge">
<title>Node12&#45;&gt;Node14</title>
<path fill="none" stroke="midnightblue" d="M890.81,-150.92C863.06,-159.25 830.43,-169.05 804,-176.99"/>
<polygon fill="midnightblue" stroke="midnightblue" points="891.84,-154.27 900.41,-148.04 889.82,-147.56 891.84,-154.27"/>
</g>
<!-- Node16 -->
<g id="node16" class="node">
<title>Node16</title>
<g id="a_node16"><a xlink:href="classvae_1_1core_1_1_engine.html#adb4e1cb3bd1ea11bb9d3b806d552fb75" target="_top" xlink:title="Update function needs to be called regularly to handle outbound events and other housekeeping.">
<polygon fill="none" stroke="black" points="699.5,-128 699.5,-158 806.5,-158 806.5,-128 699.5,-128"/>
<text text-anchor="start" x="707.5" y="-146" font-family="Helvetica,sans-Serif" font-size="10.00">vae::core::Engine::</text>
<text text-anchor="middle" x="753" y="-135" font-family="Helvetica,sans-Serif" font-size="10.00">update</text>
</a>
</g>
</g>
<!-- Node12&#45;&gt;Node16 -->
<g id="edge19" class="edge">
<title>Node12&#45;&gt;Node16</title>
<path fill="none" stroke="midnightblue" d="M887.69,-136.2C861.62,-137.52 831.71,-139.05 806.8,-140.31"/>
<polygon fill="midnightblue" stroke="midnightblue" points="888.03,-139.68 897.84,-135.68 887.68,-132.69 888.03,-139.68"/>
</g>
<!-- Node14&#45;&gt;Node7 -->
<g id="edge15" class="edge">
<title>Node14&#45;&gt;Node7</title>
<path fill="none" stroke="midnightblue" d="M695.17,-173.89C689.03,-171.92 682.88,-169.92 677,-168 660.97,-162.76 657.18,-160.76 641,-156 626.92,-151.85 611.27,-147.74 597.7,-144.34"/>
<polygon fill="midnightblue" stroke="midnightblue" points="694.17,-177.25 704.76,-176.98 696.31,-170.59 694.17,-177.25"/>
</g>
<!-- Node14&#45;&gt;Node8 -->
<g id="edge16" class="edge">
<title>Node14&#45;&gt;Node8</title>
<path fill="none" stroke="midnightblue" d="M689.2,-202.63C666.62,-206.46 641.32,-210.74 619.33,-214.46"/>
<polygon fill="midnightblue" stroke="midnightblue" points="690.08,-206.03 699.35,-200.91 688.91,-199.13 690.08,-206.03"/>
</g>
<!-- Node14&#45;&gt;Node10 -->
<g id="edge17" class="edge">
<title>Node14&#45;&gt;Node10</title>
<path fill="none" stroke="midnightblue" d="M713.71,-211.8C692.66,-222.12 665.84,-234.36 641,-243 624.94,-248.59 606.47,-253.16 591.54,-256.43"/>
<polygon fill="midnightblue" stroke="midnightblue" points="715.55,-214.8 722.95,-207.21 712.44,-208.53 715.55,-214.8"/>
</g>
<!-- Node15 -->
<g id="node15" class="node">
<title>Node15</title>
<g id="a_node15"><a xlink:href="classvae_1_1_engine_pimpl.html#aee133a1fa8e89e70b4f7414c10d58c62" target="_top" xlink:title="Works like fireEvent but with a global Event identifier.">
<polygon fill="none" stroke="black" points="484.5,-165 484.5,-195 639.5,-195 639.5,-165 484.5,-165"/>
<text text-anchor="start" x="492.5" y="-183" font-family="Helvetica,sans-Serif" font-size="10.00">vae::EnginePimpl::fireGlobal</text>
<text text-anchor="middle" x="562" y="-172" font-family="Helvetica,sans-Serif" font-size="10.00">Event</text>
</a>
</g>
</g>
<!-- Node14&#45;&gt;Node15 -->
<g id="edge18" class="edge">
<title>Node14&#45;&gt;Node15</title>
<path fill="none" stroke="midnightblue" d="M689.17,-188.01C673.34,-187.01 656.17,-185.92 639.74,-184.87"/>
<polygon fill="midnightblue" stroke="midnightblue" points="689.15,-191.52 699.35,-188.66 689.59,-184.53 689.15,-191.52"/>
</g>
<!-- Node16&#45;&gt;Node7 -->
<g id="edge20" class="edge">
<title>Node16&#45;&gt;Node7</title>
<path fill="none" stroke="midnightblue" d="M689.24,-140.68C658.77,-139.55 623.34,-138.23 597.78,-137.29"/>
<polygon fill="midnightblue" stroke="midnightblue" points="689.23,-144.18 699.35,-141.05 689.49,-137.18 689.23,-144.18"/>
</g>
<!-- Node16&#45;&gt;Node8 -->
<g id="edge21" class="edge">
<title>Node16&#45;&gt;Node8</title>
<path fill="none" stroke="midnightblue" d="M689.93,-161.01C685.44,-163.12 681.07,-165.44 677,-168 657.57,-180.2 660.92,-193.62 641,-205 634.22,-208.87 626.68,-211.96 619.03,-214.42"/>
<polygon fill="midnightblue" stroke="midnightblue" points="691.5,-164.15 699.3,-156.98 688.73,-157.72 691.5,-164.15"/>
</g>
<!-- Node17 -->
<g id="node17" class="node">
<title>Node17</title>
<g id="a_node17"><a xlink:href="classvae_1_1core_1_1_engine.html#afecf53f2eaf92d13a933c05c821b3819" target="_top" xlink:title="Main processing function.">
<polygon fill="none" stroke="black" points="508.5,-39 508.5,-69 615.5,-69 615.5,-39 508.5,-39"/>
<text text-anchor="start" x="516.5" y="-57" font-family="Helvetica,sans-Serif" font-size="10.00">vae::core::Engine::</text>
<text text-anchor="middle" x="562" y="-46" font-family="Helvetica,sans-Serif" font-size="10.00">process</text>
</a>
</g>
</g>
<!-- Node16&#45;&gt;Node17 -->
<g id="edge22" class="edge">
<title>Node16&#45;&gt;Node17</title>
<path fill="none" stroke="midnightblue" d="M689.86,-125.11C685.38,-122.97 681.04,-120.61 677,-118 657.19,-105.2 660.89,-91.69 641,-79 633.33,-74.11 624.62,-70.1 615.86,-66.83"/>
<polygon fill="midnightblue" stroke="midnightblue" points="688.63,-128.39 699.2,-129.18 691.43,-121.98 688.63,-128.39"/>
</g>
<!-- Node22 -->
<g id="node22" class="node">
<title>Node22</title>
<g id="a_node22"><a xlink:href="classvae_1_1_engine_pimpl.html#a8e9296021147373d9b8c415c460fe842" target="_top" xlink:title="Update function needs to be called regularly to handle outbound events and other housekeeping.">
<polygon fill="none" stroke="black" points="491.5,-88.5 491.5,-107.5 632.5,-107.5 632.5,-88.5 491.5,-88.5"/>
<text text-anchor="middle" x="562" y="-95.5" font-family="Helvetica,sans-Serif" font-size="10.00">vae::EnginePimpl::update</text>
</a>
</g>
</g>
<!-- Node16&#45;&gt;Node22 -->
<g id="edge29" class="edge">
<title>Node16&#45;&gt;Node22</title>
<path fill="none" stroke="midnightblue" d="M689.49,-128.12C661.02,-121.34 628.17,-113.52 603.08,-107.54"/>
<polygon fill="midnightblue" stroke="midnightblue" points="688.81,-131.55 699.35,-130.46 690.44,-124.74 688.81,-131.55"/>
</g>
<!-- Node18 -->
<g id="node18" class="node">
<title>Node18</title>
<g id="a_node18"><a xlink:href="classvae_1_1core_1_1_engine.html#ab31b2381a1d916efdcffe8db7971ce15" target="_top" xlink:title="Called from audio device when it needs more audio.">
<polygon fill="none" stroke="black" points="324.5,-88 324.5,-118 431.5,-118 431.5,-88 324.5,-88"/>
<text text-anchor="start" x="332.5" y="-106" font-family="Helvetica,sans-Serif" font-size="10.00">vae::core::Engine::</text>
<text text-anchor="middle" x="378" y="-95" font-family="Helvetica,sans-Serif" font-size="10.00">onBufferSwap</text>
</a>
</g>
</g>
<!-- Node17&#45;&gt;Node18 -->
<g id="edge23" class="edge">
<title>Node17&#45;&gt;Node18</title>
<path fill="none" stroke="midnightblue" d="M498.52,-70.82C476.7,-76.69 452.45,-83.22 431.52,-88.86"/>
<polygon fill="midnightblue" stroke="midnightblue" points="499.61,-74.15 508.36,-68.17 497.79,-67.39 499.61,-74.15"/>
</g>
<!-- Node21 -->
<g id="node21" class="node">
<title>Node21</title>
<g id="a_node21"><a xlink:href="classvae_1_1core_1_1_engine.html#aca852d5c0e30b0641582f175bf95fbea" target="_top" xlink:title="Called from own audio thread, not the device.">
<polygon fill="none" stroke="black" points="324.5,-39 324.5,-69 431.5,-69 431.5,-39 324.5,-39"/>
<text text-anchor="start" x="332.5" y="-57" font-family="Helvetica,sans-Serif" font-size="10.00">vae::core::Engine::</text>
<text text-anchor="middle" x="378" y="-46" font-family="Helvetica,sans-Serif" font-size="10.00">threadedProcess</text>
</a>
</g>
</g>
<!-- Node17&#45;&gt;Node21 -->
<g id="edge27" class="edge">
<title>Node17&#45;&gt;Node21</title>
<path fill="none" stroke="midnightblue" d="M498.23,-54C476.49,-54 452.36,-54 431.52,-54"/>
<polygon fill="midnightblue" stroke="midnightblue" points="498.36,-57.5 508.36,-54 498.36,-50.5 498.36,-57.5"/>
</g>
<!-- Node19 -->
<g id="node19" class="node">
<title>Node19</title>
<g id="a_node19"><a xlink:href="classvae_1_1core_1_1_engine.html#aa974f739b3f2dc8004eede720d01d229" target="_top" xlink:title="Tries to open default device and start audio thread.">
<polygon fill="none" stroke="black" points="166,-88 166,-118 273,-118 273,-88 166,-88"/>
<text text-anchor="start" x="174" y="-106" font-family="Helvetica,sans-Serif" font-size="10.00">vae::core::Engine::</text>
<text text-anchor="middle" x="219.5" y="-95" font-family="Helvetica,sans-Serif" font-size="10.00">start</text>
</a>
</g>
</g>
<!-- Node18&#45;&gt;Node19 -->
<g id="edge24" class="edge">
<title>Node18&#45;&gt;Node19</title>
<path fill="none" stroke="midnightblue" d="M314.2,-103C300.6,-103 286.34,-103 273.18,-103"/>
<polygon fill="midnightblue" stroke="midnightblue" points="314.45,-106.5 324.45,-103 314.45,-99.5 314.45,-106.5"/>
</g>
<!-- Node19&#45;&gt;Node11 -->
<g id="edge25" class="edge">
<title>Node19&#45;&gt;Node11</title>
<path fill="none" stroke="midnightblue" d="M155.69,-119.89C130.5,-126.66 103.28,-133.98 85.52,-138.75"/>
<polygon fill="midnightblue" stroke="midnightblue" points="156.84,-123.2 165.59,-117.22 155.03,-116.44 156.84,-123.2"/>
</g>
<!-- Node20 -->
<g id="node20" class="node">
<title>Node20</title>
<g id="a_node20"><a xlink:href="classvae_1_1_engine_pimpl.html#af773bc095b97e185c17b23a702572479" target="_top" xlink:title="Tries to open default device and start audio thread.">
<polygon fill="none" stroke="black" points="0,-93.5 0,-112.5 130,-112.5 130,-93.5 0,-93.5"/>
<text text-anchor="middle" x="65" y="-100.5" font-family="Helvetica,sans-Serif" font-size="10.00">vae::EnginePimpl::start</text>
</a>
</g>
</g>
<!-- Node19&#45;&gt;Node20 -->
<g id="edge26" class="edge">
<title>Node19&#45;&gt;Node20</title>
<path fill="none" stroke="midnightblue" d="M155.5,-103C147.12,-103 138.52,-103 130.11,-103"/>
<polygon fill="midnightblue" stroke="midnightblue" points="155.59,-106.5 165.59,-103 155.59,-99.5 155.59,-106.5"/>
</g>
<!-- Node21&#45;&gt;Node19 -->
<g id="edge28" class="edge">
<title>Node21&#45;&gt;Node19</title>
<path fill="none" stroke="midnightblue" d="M319.15,-72.11C302.51,-77.32 284.55,-82.95 268.57,-87.95"/>
<polygon fill="midnightblue" stroke="midnightblue" points="320.27,-75.43 328.77,-69.1 318.18,-68.75 320.27,-75.43"/>
</g>
<!-- Node23&#45;&gt;Node17 -->
<g id="edge32" class="edge">
<title>Node23&#45;&gt;Node17</title>
<path fill="none" stroke="midnightblue" d="M854.9,-16.73C802.24,-19.04 735.83,-23.27 677,-31 656.78,-33.66 634.77,-37.8 615.53,-41.84"/>
<polygon fill="midnightblue" stroke="midnightblue" points="855.06,-20.23 864.9,-16.31 854.76,-13.23 855.06,-20.23"/>
</g>
<!-- Node23&#45;&gt;Node23 -->
<g id="edge31" class="edge">
<title>Node23&#45;&gt;Node23</title>
<path fill="none" stroke="midnightblue" d="M987.87,-31.5C987.87,-37.34 975.74,-42 951.5,-42 917.02,-42 907.05,-32.57 921.6,-23.76"/>
<polygon fill="midnightblue" stroke="midnightblue" points="990.5,-29.19 981.4,-23.76 985.13,-33.67 990.5,-29.19"/>
</g>
<!-- Node25 -->
<g id="node25" class="node">
<title>Node25</title>
<g id="a_node25"><a xlink:href="classvae_1_1core_1_1_engine.html#af815d78009973b30babdc575fd127978" target="_top" xlink:title="Set the Emitter position, orientation and spread.">
<polygon fill="none" stroke="black" points="699.5,-40 699.5,-70 806.5,-70 806.5,-40 699.5,-40"/>
<text text-anchor="start" x="707.5" y="-58" font-family="Helvetica,sans-Serif" font-size="10.00">vae::core::Engine::</text>
<text text-anchor="middle" x="753" y="-47" font-family="Helvetica,sans-Serif" font-size="10.00">setEmitter</text>
</a>
</g>
</g>
<!-- Node24&#45;&gt;Node25 -->
<g id="edge34" class="edge">
<title>Node24&#45;&gt;Node25</title>
<path fill="none" stroke="midnightblue" d="M869.83,-70.33C848.57,-67.51 826.17,-64.55 806.79,-61.98"/>
<polygon fill="midnightblue" stroke="midnightblue" points="869.46,-73.81 879.84,-71.65 870.38,-66.87 869.46,-73.81"/>
</g>
<!-- Node25&#45;&gt;Node7 -->
<g id="edge35" class="edge">
<title>Node25&#45;&gt;Node7</title>
<path fill="none" stroke="midnightblue" d="M689.93,-73.01C685.44,-75.12 681.07,-77.44 677,-80 657.57,-92.2 660.92,-105.62 641,-117 627.81,-124.54 611.71,-129.1 597.57,-131.85"/>
<polygon fill="midnightblue" stroke="midnightblue" points="691.5,-76.15 699.3,-68.98 688.73,-69.72 691.5,-76.15"/>
</g>
<!-- Node26 -->
<g id="node26" class="node">
<title>Node26</title>
<g id="a_node26"><a xlink:href="classvae_1_1_engine_pimpl.html#ac2937d09e2e24c7fec6631e0b97a0040" target="_top" xlink:title="Set the Emitter position, orientation and spread.">
<polygon fill="none" stroke="black" points="483,-0.5 483,-19.5 641,-19.5 641,-0.5 483,-0.5"/>
<text text-anchor="middle" x="562" y="-7.5" font-family="Helvetica,sans-Serif" font-size="10.00">vae::EnginePimpl::setEmitter</text>
</a>
</g>
</g>
<!-- Node25&#45;&gt;Node26 -->
<g id="edge36" class="edge">
<title>Node25&#45;&gt;Node26</title>
<path fill="none" stroke="midnightblue" d="M689.49,-40.12C661.02,-33.34 628.17,-25.52 603.08,-19.54"/>
<polygon fill="midnightblue" stroke="midnightblue" points="688.81,-43.55 699.35,-42.46 690.44,-36.74 688.81,-43.55"/>
</g>
</g>
</svg>
        <g id="navigator" transform="translate(0 0)" fill="#404254">
                <rect fill="#f2f5e9" fill-opacity="0.5" stroke="#606060" stroke-width=".5" x="0" y="0" width="60" height="60"/>
                <use id="zoomplus" xlink:href="#zoomPlus" x="17" y="9" onmousedown="handleZoom(evt,'in')"/>
                <use id="zoomminus" xlink:href="#zoomMin" x="42" y="9" onmousedown="handleZoom(evt,'out')"/>
                <use id="reset" xlink:href="#resetDef" x="30" y="36" onmousedown="handleReset()"/>
                <g id="arrowUp" xlink:href="#dirArrow" transform="translate(30 24)" onmousedown="handlePan(0,-1)">
                  <use xlink:href="#rim" fill="#404040">
                        <set attributeName="fill" to="#808080" begin="arrowUp.mouseover" end="arrowUp.mouseout"/>
                  </use>
                  <path fill="none" stroke="white" stroke-width="1.5" d="M0,-3.0v7 M-2.5,-0.5L0,-3.0L2.5,-0.5"/>
                </g>
                <g id="arrowRight" xlink:href="#dirArrow" transform="rotate(90) translate(36 -43)" onmousedown="handlePan(1,0)">
                  <use xlink:href="#rim" fill="#404040">
                        <set attributeName="fill" to="#808080" begin="arrowRight.mouseover" end="arrowRight.mouseout"/>
                  </use>
                  <path fill="none" stroke="white" stroke-width="1.5" d="M0,-3.0v7 M-2.5,-0.5L0,-3.0L2.5,-0.5"/>
                </g>
                <g id="arrowDown" xlink:href="#dirArrow" transform="rotate(180) translate(-30 -48)" onmousedown="handlePan(0,1)">
                  <use xlink:href="#rim" fill="#404040">
                        <set attributeName="fill" to="#808080" begin="arrowDown.mouseover" end="arrowDown.mouseout"/>
                  </use>
                  <path fill="none" stroke="white" stroke-width="1.5" d="M0,-3.0v7 M-2.5,-0.5L0,-3.0L2.5,-0.5"/>
                </g>
                <g id="arrowLeft" xlink:href="#dirArrow" transform="rotate(270) translate(-36 17)" onmousedown="handlePan(-1,0)">
                  <use xlink:href="#rim" fill="#404040">
                        <set attributeName="fill" to="#808080" begin="arrowLeft.mouseover" end="arrowLeft.mouseout"/>
                  </use>
                  <path fill="none" stroke="white" stroke-width="1.5" d="M0,-3.0v7 M-2.5,-0.5L0,-3.0L2.5,-0.5"/>
                </g>
        </g>
        <svg viewBox="0 0 15 15" width="100%" height="30px" preserveAspectRatio="xMaxYMin meet">
         <g id="arrow_out" transform="scale(0.3 0.3)">
          <a xlink:href="classvae_1_1core_1_1_spatial_manager_a8223349a8417dbd972f9979618849a4e_icgraph_org.svg" target="_base">
           <rect id="button" ry="5" rx="5" y="6" x="6" height="38" width="38"
                fill="#f2f5e9" fill-opacity="0.5" stroke="#606060" stroke-width="1.0"/>
           <path id="arrow"
             d="M 11.500037,31.436501 C 11.940474,20.09759 22.043105,11.32322 32.158766,21.979434 L 37.068811,17.246167 C 37.068811,17.246167 37.088388,32 37.088388,32 L 22.160133,31.978069 C 22.160133,31.978069 26.997745,27.140456 26.997745,27.140456 C 18.528582,18.264221 13.291696,25.230495 11.500037,31.436501 z"
             style="fill:#404040;"/>
          </a>
         </g>
        </svg>
</svg>
