<?xml version="1.0" encoding="UTF-8" standalone="no"?>
<!DOCTYPE svg PUBLIC "-//W3C//DTD SVG 1.1//EN"
 "http://www.w3.org/Graphics/SVG/1.1/DTD/svg11.dtd">
<!-- Generated by graphviz version 2.50.0 (0)
 -->
<!-- Title: vae::core::BackendRtAudio::getName Pages: 1 -->
<svg width="524pt" height="88pt"
 viewBox="0.00 0.00 524.00 88.00" xmlns="http://www.w3.org/2000/svg" xmlns:xlink="http://www.w3.org/1999/xlink">
<g id="graph0" class="graph" transform="scale(1 1) rotate(0) translate(4 84)">
<title>vae::core::BackendRtAudio::getName</title>
<!-- Node1 -->
<g id="node1" class="node">
<title>Node1</title>
<g id="a_node1"><a xlink:title="Returns name of the api.">
<polygon fill="#bfbfbf" stroke="black" points="368,-24.5 368,-54.5 516,-54.5 516,-24.5 368,-24.5"/>
<text text-anchor="start" x="376" y="-42.5" font-family="Helvetica,sans-Serif" font-size="10.00">vae::core::BackendRtAudio</text>
<text text-anchor="middle" x="442" y="-31.5" font-family="Helvetica,sans-Serif" font-size="10.00">::getName</text>
</a>
</g>
</g>
<!-- Node2 -->
<g id="node2" class="node">
<title>Node2</title>
<g id="a_node2"><a xlink:href="classvae_1_1core_1_1_backend_rt_audio.html#aba32799454056f50aa1866d2f8450b69" target="_top" xlink:title="Returns a spefic device info for index.">
<polygon fill="none" stroke="black" points="184,-24.5 184,-54.5 332,-54.5 332,-24.5 184,-24.5"/>
<text text-anchor="start" x="192" y="-42.5" font-family="Helvetica,sans-Serif" font-size="10.00">vae::core::BackendRtAudio</text>
<text text-anchor="middle" x="258" y="-31.5" font-family="Helvetica,sans-Serif" font-size="10.00">::getDevice</text>
</a>
</g>
</g>
<!-- Node1&#45;&gt;Node2 -->
<g id="edge1" class="edge">
<title>Node1&#45;&gt;Node2</title>
<path fill="none" stroke="midnightblue" d="M357.48,-39.5C349.01,-39.5 340.44,-39.5 332.09,-39.5"/>
<polygon fill="midnightblue" stroke="midnightblue" points="357.76,-43 367.76,-39.5 357.76,-36 357.76,-43"/>
</g>
<!-- Node3 -->
<g id="node3" class="node">
<title>Node3</title>
<g id="a_node3"><a xlink:href="classvae_1_1core_1_1_backend_rt_audio.html#aa56cdacbee4bdab09b790387557f1006" target="_top" xlink:title=" ">
<polygon fill="none" stroke="black" points="0,-49.5 0,-79.5 148,-79.5 148,-49.5 0,-49.5"/>
<text text-anchor="start" x="8" y="-67.5" font-family="Helvetica,sans-Serif" font-size="10.00">vae::core::BackendRtAudio</text>
<text text-anchor="middle" x="74" y="-56.5" font-family="Helvetica,sans-Serif" font-size="10.00">::getDefaultInputDevice</text>
</a>
</g>
</g>
<!-- Node2&#45;&gt;Node3 -->
<g id="edge2" class="edge">
<title>Node2&#45;&gt;Node3</title>
<path fill="none" stroke="midnightblue" d="M173.76,-50.93C165.2,-52.11 156.54,-53.3 148.09,-54.46"/>
<polygon fill="midnightblue" stroke="midnightblue" points="174.33,-54.39 183.76,-49.56 173.38,-47.45 174.33,-54.39"/>
</g>
<!-- Node4 -->
<g id="node4" class="node">
<title>Node4</title>
<g id="a_node4"><a xlink:href="classvae_1_1core_1_1_backend_rt_audio.html#a31000d7bba7734a8a5a29853cdbff7e9" target="_top" xlink:title=" ">
<polygon fill="none" stroke="black" points="0,-0.5 0,-30.5 148,-30.5 148,-0.5 0,-0.5"/>
<text text-anchor="start" x="8" y="-18.5" font-family="Helvetica,sans-Serif" font-size="10.00">vae::core::BackendRtAudio</text>
<text text-anchor="middle" x="74" y="-7.5" font-family="Helvetica,sans-Serif" font-size="10.00">::getDefaultOutputDevice</text>
</a>
</g>
</g>
<!-- Node2&#45;&gt;Node4 -->
<g id="edge3" class="edge">
<title>Node2&#45;&gt;Node4</title>
<path fill="none" stroke="midnightblue" d="M173.76,-28.52C165.2,-27.39 156.54,-26.25 148.09,-25.14"/>
<polygon fill="midnightblue" stroke="midnightblue" points="173.39,-32 183.76,-29.84 174.3,-25.06 173.39,-32"/>
</g>
</g>
</svg>
