<?xml version="1.0" encoding="UTF-8" standalone="no"?>
<!DOCTYPE svg PUBLIC "-//W3C//DTD SVG 1.1//EN"
 "http://www.w3.org/Graphics/SVG/1.1/DTD/svg11.dtd">
<!-- Generated by graphviz version 2.50.0 (0)
 -->
<!-- Title: tklb::HeapBuffer::allocate Pages: 1 -->
<svg width="520pt" height="270pt"
 viewBox="0.00 0.00 520.00 270.21" xmlns="http://www.w3.org/2000/svg" xmlns:xlink="http://www.w3.org/1999/xlink">
<g id="graph0" class="graph" transform="scale(1 1) rotate(0) translate(4 266.21)">
<title>tklb::HeapBuffer::allocate</title>
<!-- Node1 -->
<g id="node1" class="node">
<title>Node1</title>
<g id="a_node1"><a xlink:title="Allocated the exact size requsted and copies existing objects.">
<polygon fill="#bfbfbf" stroke="black" points="0,-126.5 0,-145.5 142,-145.5 142,-126.5 0,-126.5"/>
<text text-anchor="middle" x="71" y="-133.5" font-family="Helvetica,sans-Serif" font-size="10.00">tklb::HeapBuffer::allocate</text>
</a>
</g>
</g>
<!-- Node2 -->
<g id="node2" class="node">
<title>Node2</title>
<g id="a_node2"><a xlink:href="classtklb_1_1memory_1_1_memory_pool.html#a12db669f354ab3f2037a67db7f0a8229" target="_top" xlink:title=" ">
<polygon fill="none" stroke="black" points="363,-225 363,-255 512,-255 512,-225 363,-225"/>
<text text-anchor="start" x="371" y="-243" font-family="Helvetica,sans-Serif" font-size="10.00">tklb::memory::MemoryPool</text>
<text text-anchor="middle" x="437.5" y="-232" font-family="Helvetica,sans-Serif" font-size="10.00">::allocate</text>
</a>
</g>
</g>
<!-- Node1&#45;&gt;Node2 -->
<g id="edge1" class="edge">
<title>Node1&#45;&gt;Node2</title>
<path fill="none" stroke="midnightblue" d="M77.65,-145.56C91.44,-167.8 129.25,-222.67 178,-243 235.11,-266.81 305.68,-264.11 358.65,-256.54"/>
<polygon fill="midnightblue" stroke="midnightblue" points="359.3,-259.98 368.66,-255.02 358.25,-253.06 359.3,-259.98"/>
</g>
<!-- Node3 -->
<g id="node3" class="node">
<title>Node3</title>
<g id="a_node3"><a xlink:href="classtklb_1_1memory_1_1_memory_pool.html#a23f0f8e6cc9408d522b0165dd0f01ac2" target="_top" xlink:title="Allocate aligned if simd is enabled.">
<polygon fill="none" stroke="black" points="178,-203 178,-233 327,-233 327,-203 178,-203"/>
<text text-anchor="start" x="186" y="-221" font-family="Helvetica,sans-Serif" font-size="10.00">tklb::memory::MemoryPool</text>
<text text-anchor="middle" x="252.5" y="-210" font-family="Helvetica,sans-Serif" font-size="10.00">::allocateAligned</text>
</a>
</g>
</g>
<!-- Node1&#45;&gt;Node3 -->
<g id="edge2" class="edge">
<title>Node1&#45;&gt;Node3</title>
<path fill="none" stroke="midnightblue" d="M87.75,-145.54C108.1,-157.61 144.86,-178.57 178,-193 183.1,-195.22 188.46,-197.37 193.87,-199.42"/>
<polygon fill="midnightblue" stroke="midnightblue" points="193.02,-202.84 203.62,-203 195.43,-196.27 193.02,-202.84"/>
</g>
<!-- Node4 -->
<g id="node4" class="node">
<title>Node4</title>
<g id="a_node4"><a xlink:href="namespacetklb_1_1memory.html#ab89ec197028f903f4ea125eae46c4a10" target="_top" xlink:title="memcpy wrapper">
<polygon fill="none" stroke="black" points="196.5,-164.5 196.5,-183.5 308.5,-183.5 308.5,-164.5 196.5,-164.5"/>
<text text-anchor="middle" x="252.5" y="-171.5" font-family="Helvetica,sans-Serif" font-size="10.00">tklb::memory::copy</text>
</a>
</g>
</g>
<!-- Node1&#45;&gt;Node4 -->
<g id="edge4" class="edge">
<title>Node1&#45;&gt;Node4</title>
<path fill="none" stroke="midnightblue" d="M117.3,-145.59C141.41,-150.69 171.25,-157.01 196.67,-162.39"/>
<polygon fill="midnightblue" stroke="midnightblue" points="196.02,-165.83 206.53,-164.48 197.47,-158.98 196.02,-165.83"/>
</g>
<!-- Node5 -->
<g id="node5" class="node">
<title>Node5</title>
<g id="a_node5"><a xlink:href="classtklb_1_1memory_1_1_memory_pool.html#ae2f6e404a58380b0bcf0f3de281a7546" target="_top" xlink:title=" ">
<polygon fill="none" stroke="black" points="363,-99 363,-129 512,-129 512,-99 363,-99"/>
<text text-anchor="start" x="371" y="-117" font-family="Helvetica,sans-Serif" font-size="10.00">tklb::memory::MemoryPool</text>
<text text-anchor="middle" x="437.5" y="-106" font-family="Helvetica,sans-Serif" font-size="10.00">::deallocate</text>
</a>
</g>
</g>
<!-- Node1&#45;&gt;Node5 -->
<g id="edge5" class="edge">
<title>Node1&#45;&gt;Node5</title>
<path fill="none" stroke="midnightblue" d="M142.28,-131.76C202.47,-128.13 289.25,-122.89 352.98,-119.04"/>
<polygon fill="midnightblue" stroke="midnightblue" points="353.23,-122.53 363,-118.44 352.81,-115.55 353.23,-122.53"/>
</g>
<!-- Node6 -->
<g id="node6" class="node">
<title>Node6</title>
<g id="a_node6"><a xlink:href="classtklb_1_1memory_1_1_memory_pool.html#a7b2a7e96e64767e2cff9dfddb9085779" target="_top" xlink:title=" ">
<polygon fill="none" stroke="black" points="178,-77 178,-107 327,-107 327,-77 178,-77"/>
<text text-anchor="start" x="186" y="-95" font-family="Helvetica,sans-Serif" font-size="10.00">tklb::memory::MemoryPool</text>
<text text-anchor="middle" x="252.5" y="-84" font-family="Helvetica,sans-Serif" font-size="10.00">::deallocateAligned</text>
</a>
</g>
</g>
<!-- Node1&#45;&gt;Node6 -->
<g id="edge6" class="edge">
<title>Node1&#45;&gt;Node6</title>
<path fill="none" stroke="midnightblue" d="M110.95,-126.45C131.16,-121.5 156.49,-115.29 180.07,-109.51"/>
<polygon fill="midnightblue" stroke="midnightblue" points="181.16,-112.85 190.04,-107.07 179.49,-106.05 181.16,-112.85"/>
</g>
<!-- Node7 -->
<g id="node7" class="node">
<title>Node7</title>
<g id="a_node7"><a xlink:href="classtklb_1_1_heap_buffer.html#af3331f4c39082c6bedf37b7931b1c27a" target="_top" xlink:title="Whether the memory is managed by the instance or is borrowed.">
<polygon fill="none" stroke="black" points="181.5,-38.5 181.5,-57.5 323.5,-57.5 323.5,-38.5 181.5,-38.5"/>
<text text-anchor="middle" x="252.5" y="-45.5" font-family="Helvetica,sans-Serif" font-size="10.00">tklb::HeapBuffer::injected</text>
</a>
</g>
</g>
<!-- Node1&#45;&gt;Node7 -->
<g id="edge8" class="edge">
<title>Node1&#45;&gt;Node7</title>
<path fill="none" stroke="midnightblue" d="M83.97,-126.32C102.86,-111.5 141.23,-83.2 178,-67 183.49,-64.58 189.34,-62.43 195.27,-60.51"/>
<polygon fill="midnightblue" stroke="midnightblue" points="196.67,-63.74 205.24,-57.52 194.66,-57.04 196.67,-63.74"/>
</g>
<!-- Node8 -->
<g id="node8" class="node">
<title>Node8</title>
<g id="a_node8"><a xlink:href="namespacetklb.html#a3080595da18d742645ec41d61828a426" target="_top" xlink:title=" ">
<polygon fill="none" stroke="black" points="222.5,-0.5 222.5,-19.5 282.5,-19.5 282.5,-0.5 222.5,-0.5"/>
<text text-anchor="middle" x="252.5" y="-7.5" font-family="Helvetica,sans-Serif" font-size="10.00">tklb::min</text>
</a>
</g>
</g>
<!-- Node1&#45;&gt;Node8 -->
<g id="edge9" class="edge">
<title>Node1&#45;&gt;Node8</title>
<path fill="none" stroke="midnightblue" d="M78.71,-126.3C93.86,-105.2 132.88,-54.92 178,-29 188.43,-23.01 200.76,-18.87 212.32,-16.03"/>
<polygon fill="midnightblue" stroke="midnightblue" points="213.19,-19.42 222.21,-13.86 211.69,-12.59 213.19,-19.42"/>
</g>
<!-- Node3&#45;&gt;Node2 -->
<g id="edge3" class="edge">
<title>Node3&#45;&gt;Node2</title>
<path fill="none" stroke="midnightblue" d="M327.14,-226.85C335.57,-227.87 344.2,-228.9 352.74,-229.93"/>
<polygon fill="midnightblue" stroke="midnightblue" points="352.36,-233.41 362.71,-231.13 353.2,-226.46 352.36,-233.41"/>
</g>
<!-- Node6&#45;&gt;Node5 -->
<g id="edge7" class="edge">
<title>Node6&#45;&gt;Node5</title>
<path fill="none" stroke="midnightblue" d="M327.14,-100.85C335.57,-101.87 344.2,-102.9 352.74,-103.93"/>
<polygon fill="midnightblue" stroke="midnightblue" points="352.36,-107.41 362.71,-105.13 353.2,-100.46 352.36,-107.41"/>
</g>
</g>
</svg>
