<?xml version="1.0" encoding="UTF-8" standalone="no"?>
<!DOCTYPE svg PUBLIC "-//W3C//DTD SVG 1.1//EN"
 "http://www.w3.org/Graphics/SVG/1.1/DTD/svg11.dtd">
<!-- Generated by graphviz version 2.50.0 (0)
 -->
<!-- Title: vae::core::Engine::process Pages: 1 -->
<svg width="893pt" height="711pt"
 viewBox="0.00 0.00 893.00 711.00" xmlns="http://www.w3.org/2000/svg" xmlns:xlink="http://www.w3.org/1999/xlink">
<g id="graph0" class="graph" transform="scale(1 1) rotate(0) translate(4 707)">
<title>vae::core::Engine::process</title>
<!-- Node1 -->
<g id="node1" class="node">
<title>Node1</title>
<g id="a_node1"><a xlink:title=" ">
<polygon fill="#bfbfbf" stroke="black" points="0,-297.5 0,-327.5 107,-327.5 107,-297.5 0,-297.5"/>
<text text-anchor="start" x="8" y="-315.5" font-family="Helvetica,sans-Serif" font-size="10.00">vae::core::Engine::</text>
<text text-anchor="middle" x="53.5" y="-304.5" font-family="Helvetica,sans-Serif" font-size="10.00">process</text>
</a>
</g>
</g>
<!-- Node2 -->
<g id="node2" class="node">
<title>Node2</title>
<g id="a_node2"><a xlink:href="classtklb_1_1_audio_buffer_tpl.html#a0d113ba98349e39fa7ca674705540ecc" target="_top" xlink:title="Add the provided buffer.">
<polygon fill="none" stroke="black" points="568,-360 568,-379 706,-379 706,-360 568,-360"/>
<text text-anchor="middle" x="637" y="-367" font-family="Helvetica,sans-Serif" font-size="10.00">tklb::AudioBufferTpl::add</text>
</a>
</g>
</g>
<!-- Node1&#45;&gt;Node2 -->
<g id="edge1" class="edge">
<title>Node1&#45;&gt;Node2</title>
<path fill="none" stroke="midnightblue" d="M87.4,-327.53C103.76,-334.29 124.05,-341.6 143,-345.5 287.1,-375.13 459.64,-375.81 557.67,-373.05"/>
<polygon fill="midnightblue" stroke="midnightblue" points="557.9,-376.54 567.79,-372.74 557.69,-369.54 557.9,-376.54"/>
</g>
<!-- Node5 -->
<g id="node5" class="node">
<title>Node5</title>
<g id="a_node5"><a xlink:href="namespacetklb.html#a3080595da18d742645ec41d61828a426" target="_top" xlink:title=" ">
<polygon fill="none" stroke="black" points="787,-322 787,-341 847,-341 847,-322 787,-322"/>
<text text-anchor="middle" x="817" y="-329" font-family="Helvetica,sans-Serif" font-size="10.00">tklb::min</text>
</a>
</g>
</g>
<!-- Node1&#45;&gt;Node5 -->
<g id="edge7" class="edge">
<title>Node1&#45;&gt;Node5</title>
<path fill="none" stroke="midnightblue" d="M107.37,-315.8C119.1,-316.44 131.47,-317.05 143,-317.5 383.76,-326.8 673.23,-330.2 776.8,-331.17"/>
<polygon fill="midnightblue" stroke="midnightblue" points="776.77,-334.67 786.8,-331.26 776.83,-327.67 776.77,-334.67"/>
</g>
<!-- Node7 -->
<g id="node7" class="node">
<title>Node7</title>
<g id="a_node7"><a xlink:href="classvae_1_1core_1_1_bank_manager.html#a5c35825e1dd047698878c0ae627056c8" target="_top" xlink:title="Iterate all loaded banks.">
<polygon fill="none" stroke="black" points="162.5,-196.5 162.5,-226.5 296.5,-226.5 296.5,-196.5 162.5,-196.5"/>
<text text-anchor="start" x="170.5" y="-214.5" font-family="Helvetica,sans-Serif" font-size="10.00">vae::core::BankManager</text>
<text text-anchor="middle" x="229.5" y="-203.5" font-family="Helvetica,sans-Serif" font-size="10.00">::forEach</text>
</a>
</g>
</g>
<!-- Node1&#45;&gt;Node7 -->
<g id="edge6" class="edge">
<title>Node1&#45;&gt;Node7</title>
<path fill="none" stroke="midnightblue" d="M69.94,-297.37C86.73,-281.61 114.93,-257.08 143,-241.5 150.59,-237.28 158.89,-233.49 167.23,-230.13"/>
<polygon fill="midnightblue" stroke="midnightblue" points="168.55,-233.38 176.64,-226.53 166.05,-226.84 168.55,-233.38"/>
</g>
<!-- Node8 -->
<g id="node8" class="node">
<title>Node8</title>
<g id="a_node8"><a xlink:href="classvae_1_1core_1_1_mixer_processor.html#a02213548c3287ac1db82ae7b3b348e5c" target="_top" xlink:title="Process the mixers for a single bank.">
<polygon fill="none" stroke="black" points="146,-504 146,-523 313,-523 313,-504 146,-504"/>
<text text-anchor="middle" x="229.5" y="-511" font-family="Helvetica,sans-Serif" font-size="10.00">vae::core::MixerProcessor::mix</text>
</a>
</g>
</g>
<!-- Node1&#45;&gt;Node8 -->
<g id="edge8" class="edge">
<title>Node1&#45;&gt;Node8</title>
<path fill="none" stroke="midnightblue" d="M59.69,-327.79C70.7,-358.24 99.04,-427.18 143,-469.5 156.67,-482.66 175.06,-492.81 191.29,-500.03"/>
<polygon fill="midnightblue" stroke="midnightblue" points="189.96,-503.27 200.53,-503.94 192.69,-496.82 189.96,-503.27"/>
</g>
<!-- Node13 -->
<g id="node13" class="node">
<title>Node13</title>
<g id="a_node13"><a xlink:href="classtklb_1_1_audio_buffer_tpl.html#ab6e5250746ca3784a568591a3ffdbc12" target="_top" xlink:title="Set a single channel from an array.">
<polygon fill="none" stroke="black" points="569.5,-284 569.5,-303 704.5,-303 704.5,-284 569.5,-284"/>
<text text-anchor="middle" x="637" y="-291" font-family="Helvetica,sans-Serif" font-size="10.00">tklb::AudioBufferTpl::set</text>
</a>
</g>
</g>
<!-- Node1&#45;&gt;Node13 -->
<g id="edge45" class="edge">
<title>Node1&#45;&gt;Node13</title>
<path fill="none" stroke="midnightblue" d="M107.13,-310.78C210.22,-307.41 439.15,-299.93 559.18,-296.01"/>
<polygon fill="midnightblue" stroke="midnightblue" points="559.51,-299.5 569.39,-295.68 559.28,-292.5 559.51,-299.5"/>
</g>
<!-- Node16 -->
<g id="node16" class="node">
<title>Node16</title>
<g id="a_node16"><a xlink:href="classtklb_1_1_audio_buffer_tpl.html#ab4e27a0d2eca612dcfc2a6a1c8678428" target="_top" xlink:title="Set the amount of valid samples currently in the buffer This is mostly a convenience flag since the a...">
<polygon fill="none" stroke="black" points="580,-234.5 580,-264.5 694,-264.5 694,-234.5 580,-234.5"/>
<text text-anchor="start" x="588" y="-252.5" font-family="Helvetica,sans-Serif" font-size="10.00">tklb::AudioBufferTpl</text>
<text text-anchor="middle" x="637" y="-241.5" font-family="Helvetica,sans-Serif" font-size="10.00">::setValidSize</text>
</a>
</g>
</g>
<!-- Node1&#45;&gt;Node16 -->
<g id="edge46" class="edge">
<title>Node1&#45;&gt;Node16</title>
<path fill="none" stroke="midnightblue" d="M107.33,-304.34C119.06,-302.64 131.44,-300.93 143,-299.5 295.39,-280.59 474.95,-263.74 569.7,-255.27"/>
<polygon fill="midnightblue" stroke="midnightblue" points="570.07,-258.76 579.72,-254.38 569.45,-251.78 570.07,-258.76"/>
</g>
<!-- Node17 -->
<g id="node17" class="node">
<title>Node17</title>
<g id="a_node17"><a xlink:href="classvae_1_1core_1_1_processor.html#a3ad452ff4deb16a37907fd5fd6390f85" target="_top" xlink:title="Process a single bank.">
<polygon fill="none" stroke="black" points="159.5,-55 159.5,-74 299.5,-74 299.5,-55 159.5,-55"/>
<text text-anchor="middle" x="229.5" y="-62" font-family="Helvetica,sans-Serif" font-size="10.00">vae::core::Processor::mix</text>
</a>
</g>
</g>
<!-- Node1&#45;&gt;Node17 -->
<g id="edge23" class="edge">
<title>Node1&#45;&gt;Node17</title>
<path fill="none" stroke="midnightblue" d="M59.31,-297.02C70.16,-263.82 99.09,-184.46 143,-130.5 159.98,-109.63 184.8,-91.41 203.32,-79.44"/>
<polygon fill="midnightblue" stroke="midnightblue" points="205.25,-82.36 211.85,-74.08 201.52,-76.44 205.25,-82.36"/>
</g>
<!-- Node23 -->
<g id="node23" class="node">
<title>Node23</title>
<g id="a_node23"><a xlink:href="classvae_1_1core_1_1_spatial_processor.html#a9acbf42573db468c02381dadb81f3fcd" target="_top" xlink:title="Process a single bank.">
<polygon fill="none" stroke="black" points="143,-140 143,-159 316,-159 316,-140 143,-140"/>
<text text-anchor="middle" x="229.5" y="-147" font-family="Helvetica,sans-Serif" font-size="10.00">vae::core::SpatialProcessor::mix</text>
</a>
</g>
</g>
<!-- Node1&#45;&gt;Node23 -->
<g id="edge29" class="edge">
<title>Node1&#45;&gt;Node23</title>
<path fill="none" stroke="midnightblue" d="M61.73,-297.43C74.73,-271.75 104.33,-219.18 143,-187.5 155.88,-176.94 172.16,-168.75 187.05,-162.71"/>
<polygon fill="midnightblue" stroke="midnightblue" points="188.5,-165.91 196.59,-159.06 185.99,-159.37 188.5,-165.91"/>
</g>
<!-- Node27 -->
<g id="node27" class="node">
<title>Node27</title>
<g id="a_node27"><a xlink:href="classtklb_1_1_audio_buffer_tpl.html#a08517af96ac560ed4fc96db9c1c7c2b3" target="_top" xlink:title="Multiply two buffers.">
<polygon fill="none" stroke="black" points="580,-447.5 580,-477.5 694,-477.5 694,-447.5 580,-447.5"/>
<text text-anchor="start" x="588" y="-465.5" font-family="Helvetica,sans-Serif" font-size="10.00">tklb::AudioBufferTpl</text>
<text text-anchor="middle" x="637" y="-454.5" font-family="Helvetica,sans-Serif" font-size="10.00">::multiply</text>
</a>
</g>
</g>
<!-- Node1&#45;&gt;Node27 -->
<g id="edge35" class="edge">
<title>Node1&#45;&gt;Node27</title>
<path fill="none" stroke="midnightblue" d="M64.41,-327.64C78.93,-348.41 108.07,-385.14 143,-402.5 282.64,-471.88 471.03,-473.18 569.59,-467.96"/>
<polygon fill="midnightblue" stroke="midnightblue" points="569.93,-471.45 579.71,-467.39 569.53,-464.46 569.93,-471.45"/>
</g>
<!-- Node28 -->
<g id="node28" class="node">
<title>Node28</title>
<g id="a_node28"><a xlink:href="classtklb_1_1_audio_buffer_tpl.html#afbd8ceec9c2a5a6818543ff2d522e060" target="_top" xlink:title="Puts the interleaved contents in the target buffer.">
<polygon fill="none" stroke="black" points="580,-398.5 580,-428.5 694,-428.5 694,-398.5 580,-398.5"/>
<text text-anchor="start" x="588" y="-416.5" font-family="Helvetica,sans-Serif" font-size="10.00">tklb::AudioBufferTpl</text>
<text text-anchor="middle" x="637" y="-405.5" font-family="Helvetica,sans-Serif" font-size="10.00">::putInterleaved</text>
</a>
</g>
</g>
<!-- Node1&#45;&gt;Node28 -->
<g id="edge40" class="edge">
<title>Node1&#45;&gt;Node28</title>
<path fill="none" stroke="midnightblue" d="M71.74,-327.58C88.64,-341.38 115.75,-361.06 143,-370.5 288.88,-421.05 472.88,-421.82 569.6,-417.79"/>
<polygon fill="midnightblue" stroke="midnightblue" points="569.99,-421.28 579.82,-417.33 569.68,-414.28 569.99,-421.28"/>
</g>
<!-- Node3 -->
<g id="node3" class="node">
<title>Node3</title>
<g id="a_node3"><a xlink:href="classtklb_1_1_audio_buffer_tpl.html#a7859b26033cbb893c2ea7acea54d8013" target="_top" xlink:title="Returns the amount of channels.">
<polygon fill="none" stroke="black" points="760,-398.5 760,-428.5 874,-428.5 874,-398.5 760,-398.5"/>
<text text-anchor="start" x="768" y="-416.5" font-family="Helvetica,sans-Serif" font-size="10.00">tklb::AudioBufferTpl</text>
<text text-anchor="middle" x="817" y="-405.5" font-family="Helvetica,sans-Serif" font-size="10.00">::channels</text>
</a>
</g>
</g>
<!-- Node2&#45;&gt;Node3 -->
<g id="edge2" class="edge">
<title>Node2&#45;&gt;Node3</title>
<path fill="none" stroke="midnightblue" d="M676.62,-379.05C698.01,-384.33 725.19,-391.05 749.85,-397.15"/>
<polygon fill="midnightblue" stroke="midnightblue" points="749.33,-400.63 759.88,-399.63 751.01,-393.83 749.33,-400.63"/>
</g>
<!-- Node4 -->
<g id="node4" class="node">
<title>Node4</title>
<g id="a_node4"><a xlink:href="classtklb_1_1_audio_buffer_tpl.html#aee0540e90ae2790f9a809917bc5a04fd" target="_top" xlink:title=" ">
<polygon fill="none" stroke="black" points="749,-360 749,-379 885,-379 885,-360 749,-360"/>
<text text-anchor="middle" x="817" y="-367" font-family="Helvetica,sans-Serif" font-size="10.00">tklb::AudioBufferTpl::get</text>
</a>
</g>
</g>
<!-- Node2&#45;&gt;Node4 -->
<g id="edge3" class="edge">
<title>Node2&#45;&gt;Node4</title>
<path fill="none" stroke="midnightblue" d="M706.06,-369.5C716.69,-369.5 727.75,-369.5 738.58,-369.5"/>
<polygon fill="midnightblue" stroke="midnightblue" points="738.86,-373 748.86,-369.5 738.86,-366 738.86,-373"/>
</g>
<!-- Node2&#45;&gt;Node5 -->
<g id="edge4" class="edge">
<title>Node2&#45;&gt;Node5</title>
<path fill="none" stroke="midnightblue" d="M682.92,-359.91C711.87,-353.73 749.14,-345.77 776.87,-339.85"/>
<polygon fill="midnightblue" stroke="midnightblue" points="777.95,-343.2 787,-337.69 776.49,-336.36 777.95,-343.2"/>
</g>
<!-- Node6 -->
<g id="node6" class="node">
<title>Node6</title>
<g id="a_node6"><a xlink:href="classtklb_1_1_audio_buffer_tpl.html#a86cec40e8c99a90d93db996d92ddfece" target="_top" xlink:title="Returns the length of actually valid audio in the buffer.">
<polygon fill="none" stroke="black" points="760,-447.5 760,-477.5 874,-477.5 874,-447.5 760,-447.5"/>
<text text-anchor="start" x="768" y="-465.5" font-family="Helvetica,sans-Serif" font-size="10.00">tklb::AudioBufferTpl</text>
<text text-anchor="middle" x="817" y="-454.5" font-family="Helvetica,sans-Serif" font-size="10.00">::validSize</text>
</a>
</g>
</g>
<!-- Node2&#45;&gt;Node6 -->
<g id="edge5" class="edge">
<title>Node2&#45;&gt;Node6</title>
<path fill="none" stroke="midnightblue" d="M692,-379.12C699.42,-381.78 706.66,-385.17 713,-389.5 735.32,-404.73 727.33,-422.35 749,-438.5 750.85,-439.88 752.79,-441.19 754.79,-442.42"/>
<polygon fill="midnightblue" stroke="midnightblue" points="753.46,-445.68 763.91,-447.4 756.81,-439.54 753.46,-445.68"/>
</g>
<!-- Node9 -->
<g id="node9" class="node">
<title>Node9</title>
<g id="a_node9"><a xlink:href="classvae_1_1core_1_1_effects_processor.html#a460a07e9049a636b7808d575d6d41baa" target="_top" xlink:title=" ">
<polygon fill="none" stroke="black" points="352,-529 352,-548 525,-548 525,-529 352,-529"/>
<text text-anchor="middle" x="438.5" y="-536" font-family="Helvetica,sans-Serif" font-size="10.00">vae::core::EffectsProcessor::mix</text>
</a>
</g>
</g>
<!-- Node8&#45;&gt;Node9 -->
<g id="edge9" class="edge">
<title>Node8&#45;&gt;Node9</title>
<path fill="none" stroke="midnightblue" d="M309.35,-523.02C322.06,-524.56 335.3,-526.16 348.23,-527.72"/>
<polygon fill="midnightblue" stroke="midnightblue" points="348.18,-531.24 358.53,-528.96 349.02,-524.29 348.18,-531.24"/>
</g>
<!-- Node9&#45;&gt;Node3 -->
<g id="edge10" class="edge">
<title>Node9&#45;&gt;Node3</title>
<path fill="none" stroke="midnightblue" d="M525.22,-529.46C593.4,-521.01 682.27,-506.8 713,-487.5 735.88,-473.13 727.44,-454.79 749,-438.5 751.45,-436.65 754.05,-434.93 756.74,-433.32"/>
<polygon fill="midnightblue" stroke="midnightblue" points="758.46,-436.37 765.64,-428.57 755.17,-430.19 758.46,-436.37"/>
</g>
<!-- Node9&#45;&gt;Node6 -->
<g id="edge22" class="edge">
<title>Node9&#45;&gt;Node6</title>
<path fill="none" stroke="midnightblue" d="M459.4,-548.12C505.95,-569.18 624.68,-614.5 713,-575.5 754.23,-557.29 786.08,-513.52 802.86,-486.11"/>
<polygon fill="midnightblue" stroke="midnightblue" points="805.87,-487.89 807.96,-477.5 799.85,-484.32 805.87,-487.89"/>
</g>
<!-- Node10 -->
<g id="node10" class="node">
<title>Node10</title>
<g id="a_node10"><a xlink:href="classvae_1_1core_1_1effect_1_1_effect_base.html#a90fa165893743d102eda0d7e9d141629" target="_top" xlink:title=" ">
<polygon fill="none" stroke="black" points="565,-623.5 565,-653.5 709,-653.5 709,-623.5 565,-623.5"/>
<text text-anchor="start" x="573" y="-641.5" font-family="Helvetica,sans-Serif" font-size="10.00">vae::core::effect::</text>
<text text-anchor="middle" x="637" y="-630.5" font-family="Helvetica,sans-Serif" font-size="10.00">EffectBase::getNumInputs</text>
</a>
</g>
</g>
<!-- Node9&#45;&gt;Node10 -->
<g id="edge11" class="edge">
<title>Node9&#45;&gt;Node10</title>
<path fill="none" stroke="midnightblue" d="M454.47,-548.05C477.03,-562.24 521.35,-589.27 561,-608.5 568.88,-612.32 577.39,-616.07 585.74,-619.54"/>
<polygon fill="midnightblue" stroke="midnightblue" points="584.48,-622.81 595.06,-623.35 587.12,-616.33 584.48,-622.81"/>
</g>
<!-- Node11 -->
<g id="node11" class="node">
<title>Node11</title>
<g id="a_node11"><a xlink:href="classvae_1_1core_1_1effect_1_1_effect_base.html#abdfd93e231a018873b4487f971a382da" target="_top" xlink:title=" ">
<polygon fill="none" stroke="black" points="561,-535.5 561,-565.5 713,-565.5 713,-535.5 561,-535.5"/>
<text text-anchor="start" x="569" y="-553.5" font-family="Helvetica,sans-Serif" font-size="10.00">vae::core::effect::</text>
<text text-anchor="middle" x="637" y="-542.5" font-family="Helvetica,sans-Serif" font-size="10.00">EffectBase::getNumOutputs</text>
</a>
</g>
</g>
<!-- Node9&#45;&gt;Node11 -->
<g id="edge12" class="edge">
<title>Node9&#45;&gt;Node11</title>
<path fill="none" stroke="midnightblue" d="M525.12,-543.73C533.57,-544.24 542.15,-544.77 550.61,-545.29"/>
<polygon fill="midnightblue" stroke="midnightblue" points="550.64,-548.79 560.84,-545.91 551.07,-541.81 550.64,-548.79"/>
</g>
<!-- Node12 -->
<g id="node12" class="node">
<title>Node12</title>
<g id="a_node12"><a xlink:href="classvae_1_1core_1_1effect_1_1_effect_base.html#a631d433cb8e69455481d812258afe285" target="_top" xlink:title=" ">
<polygon fill="none" stroke="black" points="580.5,-672.5 580.5,-702.5 693.5,-702.5 693.5,-672.5 580.5,-672.5"/>
<text text-anchor="start" x="588.5" y="-690.5" font-family="Helvetica,sans-Serif" font-size="10.00">vae::core::effect::</text>
<text text-anchor="middle" x="637" y="-679.5" font-family="Helvetica,sans-Serif" font-size="10.00">EffectBase::process</text>
</a>
</g>
</g>
<!-- Node9&#45;&gt;Node12 -->
<g id="edge13" class="edge">
<title>Node9&#45;&gt;Node12</title>
<path fill="none" stroke="midnightblue" d="M446.25,-548.19C462.98,-571.5 508.77,-631.15 561,-663.5 564.15,-665.45 567.47,-667.26 570.9,-668.93"/>
<polygon fill="midnightblue" stroke="midnightblue" points="569.59,-672.18 580.15,-673.04 572.43,-665.78 569.59,-672.18"/>
</g>
<!-- Node9&#45;&gt;Node13 -->
<g id="edge14" class="edge">
<title>Node9&#45;&gt;Node13</title>
<path fill="none" stroke="midnightblue" d="M444.28,-528.69C458.87,-499.36 505.27,-410.65 561,-350.5 576.05,-334.25 596.17,-319.25 611.78,-308.71"/>
<polygon fill="midnightblue" stroke="midnightblue" points="613.95,-311.47 620.37,-303.05 610.1,-305.63 613.95,-311.47"/>
</g>
<!-- Node9&#45;&gt;Node16 -->
<g id="edge19" class="edge">
<title>Node9&#45;&gt;Node16</title>
<path fill="none" stroke="midnightblue" d="M441.08,-528.96C447.88,-490.95 478.14,-348.74 561,-274.5 564.02,-271.8 567.34,-269.38 570.85,-267.23"/>
<polygon fill="midnightblue" stroke="midnightblue" points="572.74,-270.19 579.91,-262.39 569.44,-264.01 572.74,-270.19"/>
</g>
<!-- Node13&#45;&gt;Node4 -->
<g id="edge16" class="edge">
<title>Node13&#45;&gt;Node4</title>
<path fill="none" stroke="midnightblue" d="M654.08,-303.04C675.25,-315.31 713.93,-336.68 749,-350.5 754.91,-352.83 761.21,-355 767.49,-356.98"/>
<polygon fill="midnightblue" stroke="midnightblue" points="766.72,-360.4 777.3,-359.93 768.73,-353.7 766.72,-360.4"/>
</g>
<!-- Node13&#45;&gt;Node5 -->
<g id="edge17" class="edge">
<title>Node13&#45;&gt;Node5</title>
<path fill="none" stroke="midnightblue" d="M682.92,-303.09C711.87,-309.27 749.14,-317.23 776.87,-323.15"/>
<polygon fill="midnightblue" stroke="midnightblue" points="776.49,-326.64 787,-325.31 777.95,-319.8 776.49,-326.64"/>
</g>
<!-- Node14 -->
<g id="node14" class="node">
<title>Node14</title>
<g id="a_node14"><a xlink:href="namespacetklb_1_1memory.html#ab89ec197028f903f4ea125eae46c4a10" target="_top" xlink:title="memcpy wrapper">
<polygon fill="none" stroke="black" points="761,-284 761,-303 873,-303 873,-284 761,-284"/>
<text text-anchor="middle" x="817" y="-291" font-family="Helvetica,sans-Serif" font-size="10.00">tklb::memory::copy</text>
</a>
</g>
</g>
<!-- Node13&#45;&gt;Node14 -->
<g id="edge15" class="edge">
<title>Node13&#45;&gt;Node14</title>
<path fill="none" stroke="midnightblue" d="M704.53,-293.5C719.62,-293.5 735.62,-293.5 750.66,-293.5"/>
<polygon fill="midnightblue" stroke="midnightblue" points="750.89,-297 760.89,-293.5 750.89,-290 750.89,-297"/>
</g>
<!-- Node15 -->
<g id="node15" class="node">
<title>Node15</title>
<g id="a_node15"><a xlink:href="classtklb_1_1_audio_buffer_tpl.html#af6df8d7e6840eee3f84807bd1662c3ed" target="_top" xlink:title="Returns the allocated length of the buffer.">
<polygon fill="none" stroke="black" points="760,-234.5 760,-264.5 874,-264.5 874,-234.5 760,-234.5"/>
<text text-anchor="start" x="768" y="-252.5" font-family="Helvetica,sans-Serif" font-size="10.00">tklb::AudioBufferTpl</text>
<text text-anchor="middle" x="817" y="-241.5" font-family="Helvetica,sans-Serif" font-size="10.00">::size</text>
</a>
</g>
</g>
<!-- Node13&#45;&gt;Node15 -->
<g id="edge18" class="edge">
<title>Node13&#45;&gt;Node15</title>
<path fill="none" stroke="midnightblue" d="M676.62,-283.95C698.01,-278.67 725.19,-271.95 749.85,-265.85"/>
<polygon fill="midnightblue" stroke="midnightblue" points="751.01,-269.17 759.88,-263.37 749.33,-262.37 751.01,-269.17"/>
</g>
<!-- Node16&#45;&gt;Node5 -->
<g id="edge20" class="edge">
<title>Node16&#45;&gt;Node5</title>
<path fill="none" stroke="midnightblue" d="M693.51,-264.52C700.31,-267.36 706.98,-270.67 713,-274.5 732.62,-287 729.1,-300.45 749,-312.5 757.52,-317.66 767.5,-321.46 777.11,-324.25"/>
<polygon fill="midnightblue" stroke="midnightblue" points="776.36,-327.68 786.91,-326.81 778.12,-320.9 776.36,-327.68"/>
</g>
<!-- Node16&#45;&gt;Node15 -->
<g id="edge21" class="edge">
<title>Node16&#45;&gt;Node15</title>
<path fill="none" stroke="midnightblue" d="M694.32,-249.5C711.86,-249.5 731.36,-249.5 749.52,-249.5"/>
<polygon fill="midnightblue" stroke="midnightblue" points="749.74,-253 759.74,-249.5 749.74,-246 749.74,-253"/>
</g>
<!-- Node18 -->
<g id="node18" class="node">
<title>Node18</title>
<g id="a_node18"><a xlink:href="classvae_1_1core_1_1_voice_manger.html#a9df59537b8863e7f8add0eb11553942a" target="_top" xlink:title="Callback provided to iterate voices, needs to return a bool to indicate when a voice needs to be stop...">
<polygon fill="none" stroke="black" points="374,-49.5 374,-79.5 503,-79.5 503,-49.5 374,-49.5"/>
<text text-anchor="start" x="382" y="-67.5" font-family="Helvetica,sans-Serif" font-size="10.00">vae::core::VoiceManger</text>
<text text-anchor="middle" x="438.5" y="-56.5" font-family="Helvetica,sans-Serif" font-size="10.00">::forEachVoice</text>
</a>
</g>
</g>
<!-- Node17&#45;&gt;Node18 -->
<g id="edge24" class="edge">
<title>Node17&#45;&gt;Node18</title>
<path fill="none" stroke="midnightblue" d="M299.72,-64.5C320.32,-64.5 342.97,-64.5 363.85,-64.5"/>
<polygon fill="midnightblue" stroke="midnightblue" points="363.94,-68 373.94,-64.5 363.94,-61 363.94,-68"/>
</g>
<!-- Node22 -->
<g id="node22" class="node">
<title>Node22</title>
<g id="a_node22"><a xlink:href="classvae_1_1core_1_1_voice_manger.html#a2467c55a66b4f30697d1766597f310f9" target="_top" xlink:title=" ">
<polygon fill="none" stroke="black" points="374,-0.5 374,-30.5 503,-30.5 503,-0.5 374,-0.5"/>
<text text-anchor="start" x="382" y="-18.5" font-family="Helvetica,sans-Serif" font-size="10.00">vae::core::VoiceManger</text>
<text text-anchor="middle" x="438.5" y="-7.5" font-family="Helvetica,sans-Serif" font-size="10.00">::getVoicePan</text>
</a>
</g>
</g>
<!-- Node17&#45;&gt;Node22 -->
<g id="edge28" class="edge">
<title>Node17&#45;&gt;Node22</title>
<path fill="none" stroke="midnightblue" d="M270.9,-54.94C297.34,-48.68 332.66,-40.32 363.97,-32.91"/>
<polygon fill="midnightblue" stroke="midnightblue" points="365.05,-36.25 373.98,-30.54 363.44,-29.43 365.05,-36.25"/>
</g>
<!-- Node19 -->
<g id="node19" class="node">
<title>Node19</title>
<g id="a_node19"><a xlink:href="classvae_1_1core_1_1_voice_manger.html#a51b077f535b7eebcc1e62d5ca5a0d95d" target="_top" xlink:title="Stops a voice.">
<polygon fill="none" stroke="black" points="572.5,-49.5 572.5,-79.5 701.5,-79.5 701.5,-49.5 572.5,-49.5"/>
<text text-anchor="start" x="580.5" y="-67.5" font-family="Helvetica,sans-Serif" font-size="10.00">vae::core::VoiceManger</text>
<text text-anchor="middle" x="637" y="-56.5" font-family="Helvetica,sans-Serif" font-size="10.00">::stop</text>
</a>
</g>
</g>
<!-- Node18&#45;&gt;Node19 -->
<g id="edge25" class="edge">
<title>Node18&#45;&gt;Node19</title>
<path fill="none" stroke="midnightblue" d="M503.03,-64.5C521.93,-64.5 542.81,-64.5 562.3,-64.5"/>
<polygon fill="midnightblue" stroke="midnightblue" points="562.36,-68 572.36,-64.5 562.36,-61 562.36,-68"/>
</g>
<!-- Node20 -->
<g id="node20" class="node">
<title>Node20</title>
<g id="a_node20"><a xlink:href="classvae_1_1core_1_1_voice_manger.html#abe6b6d5a07c73e1e194f24314226a19f" target="_top" xlink:title=" ">
<polygon fill="none" stroke="black" points="752.5,-71.5 752.5,-101.5 881.5,-101.5 881.5,-71.5 752.5,-71.5"/>
<text text-anchor="start" x="760.5" y="-89.5" font-family="Helvetica,sans-Serif" font-size="10.00">vae::core::VoiceManger</text>
<text text-anchor="middle" x="817" y="-78.5" font-family="Helvetica,sans-Serif" font-size="10.00">::finished</text>
</a>
</g>
</g>
<!-- Node19&#45;&gt;Node20 -->
<g id="edge26" class="edge">
<title>Node19&#45;&gt;Node20</title>
<path fill="none" stroke="midnightblue" d="M701.51,-72.35C714.64,-73.97 728.57,-75.69 742.03,-77.36"/>
<polygon fill="midnightblue" stroke="midnightblue" points="741.86,-80.86 752.22,-78.62 742.72,-73.92 741.86,-80.86"/>
</g>
<!-- Node21 -->
<g id="node21" class="node">
<title>Node21</title>
<g id="a_node21"><a xlink:href="namespacetklb.html#a7dc2203e89c331e3c85b9e7f16fa6763" target="_top" xlink:title=" ">
<polygon fill="none" stroke="black" points="785.5,-33 785.5,-52 848.5,-52 848.5,-33 785.5,-33"/>
<text text-anchor="middle" x="817" y="-40" font-family="Helvetica,sans-Serif" font-size="10.00">tklb::max</text>
</a>
</g>
</g>
<!-- Node19&#45;&gt;Node21 -->
<g id="edge27" class="edge">
<title>Node19&#45;&gt;Node21</title>
<path fill="none" stroke="midnightblue" d="M701.51,-56.65C726.16,-53.6 753.66,-50.21 775.53,-47.5"/>
<polygon fill="midnightblue" stroke="midnightblue" points="775.97,-50.97 785.46,-46.27 775.11,-44.03 775.97,-50.97"/>
</g>
<!-- Node23&#45;&gt;Node18 -->
<g id="edge30" class="edge">
<title>Node23&#45;&gt;Node18</title>
<path fill="none" stroke="midnightblue" d="M246.94,-139.97C269.87,-126.97 313.04,-103.59 352,-88.5 357.34,-86.43 362.93,-84.46 368.59,-82.59"/>
<polygon fill="midnightblue" stroke="midnightblue" points="369.67,-85.93 378.14,-79.57 367.55,-79.25 369.67,-85.93"/>
</g>
<!-- Node23&#45;&gt;Node23 -->
<g id="edge34" class="edge">
<title>Node23&#45;&gt;Node23</title>
<path fill="none" stroke="midnightblue" d="M202.37,-159.26C189.18,-168.07 198.22,-177.5 229.5,-177.5 251.01,-177.5 262,-173.04 262.48,-167.39"/>
<polygon fill="midnightblue" stroke="midnightblue" points="265.31,-165.33 256.63,-159.26 259.63,-169.42 265.31,-165.33"/>
</g>
<!-- Node24 -->
<g id="node24" class="node">
<title>Node24</title>
<g id="a_node24"><a xlink:href="classvae_1_1core_1_1_spatial_manager.html#afc5a2274a1d6098a64d6cb9d124bb7ed" target="_top" xlink:title=" ">
<polygon fill="none" stroke="black" points="367,-196.5 367,-226.5 510,-226.5 510,-196.5 367,-196.5"/>
<text text-anchor="start" x="375" y="-214.5" font-family="Helvetica,sans-Serif" font-size="10.00">vae::core::SpatialManager</text>
<text text-anchor="middle" x="438.5" y="-203.5" font-family="Helvetica,sans-Serif" font-size="10.00">::getEmitter</text>
</a>
</g>
</g>
<!-- Node23&#45;&gt;Node24 -->
<g id="edge31" class="edge">
<title>Node23&#45;&gt;Node24</title>
<path fill="none" stroke="midnightblue" d="M260.38,-159.12C284.93,-166.95 320.64,-178.2 352,-187.5 358.81,-189.52 365.93,-191.59 373.04,-193.63"/>
<polygon fill="midnightblue" stroke="midnightblue" points="372.12,-197 382.7,-196.38 374.04,-190.27 372.12,-197"/>
</g>
<!-- Node25 -->
<g id="node25" class="node">
<title>Node25</title>
<g id="a_node25"><a xlink:href="classvae_1_1core_1_1_spatial_manager.html#a04945059b1d4c08552c5f0c543e1ffab" target="_top" xlink:title=" ">
<polygon fill="none" stroke="black" points="367,-147.5 367,-177.5 510,-177.5 510,-147.5 367,-147.5"/>
<text text-anchor="start" x="375" y="-165.5" font-family="Helvetica,sans-Serif" font-size="10.00">vae::core::SpatialManager</text>
<text text-anchor="middle" x="438.5" y="-154.5" font-family="Helvetica,sans-Serif" font-size="10.00">::getListeners</text>
</a>
</g>
</g>
<!-- Node23&#45;&gt;Node25 -->
<g id="edge32" class="edge">
<title>Node23&#45;&gt;Node25</title>
<path fill="none" stroke="midnightblue" d="M316.19,-154.88C329.66,-155.73 343.55,-156.6 356.9,-157.44"/>
<polygon fill="midnightblue" stroke="midnightblue" points="356.79,-160.94 366.99,-158.07 357.23,-153.95 356.79,-160.94"/>
</g>
<!-- Node26 -->
<g id="node26" class="node">
<title>Node26</title>
<g id="a_node26"><a xlink:href="classvae_1_1core_1_1_spatial_manager.html#a8223349a8417dbd972f9979618849a4e" target="_top" xlink:title=" ">
<polygon fill="none" stroke="black" points="367,-98.5 367,-128.5 510,-128.5 510,-98.5 367,-98.5"/>
<text text-anchor="start" x="375" y="-116.5" font-family="Helvetica,sans-Serif" font-size="10.00">vae::core::SpatialManager</text>
<text text-anchor="middle" x="438.5" y="-105.5" font-family="Helvetica,sans-Serif" font-size="10.00">::hasEmitter</text>
</a>
</g>
</g>
<!-- Node23&#45;&gt;Node26 -->
<g id="edge33" class="edge">
<title>Node23&#45;&gt;Node26</title>
<path fill="none" stroke="midnightblue" d="M285.16,-139.99C307.06,-136.18 332.75,-131.72 356.73,-127.55"/>
<polygon fill="midnightblue" stroke="midnightblue" points="357.64,-130.94 366.89,-125.78 356.44,-124.05 357.64,-130.94"/>
</g>
<!-- Node27&#45;&gt;Node3 -->
<g id="edge36" class="edge">
<title>Node27&#45;&gt;Node3</title>
<path fill="none" stroke="midnightblue" d="M692.86,-447.4C711.39,-442.3 732.24,-436.56 751.45,-431.27"/>
<polygon fill="midnightblue" stroke="midnightblue" points="752.61,-434.58 761.32,-428.55 750.75,-427.83 752.61,-434.58"/>
</g>
<!-- Node27&#45;&gt;Node4 -->
<g id="edge37" class="edge">
<title>Node27&#45;&gt;Node4</title>
<path fill="none" stroke="midnightblue" d="M694.37,-448.81C700.96,-445.97 707.34,-442.57 713,-438.5 734.94,-422.72 726.91,-405.06 749,-389.5 752.46,-387.06 756.22,-384.92 760.14,-383.03"/>
<polygon fill="midnightblue" stroke="midnightblue" points="761.64,-386.2 769.49,-379.08 758.91,-379.75 761.64,-386.2"/>
</g>
<!-- Node27&#45;&gt;Node5 -->
<g id="edge38" class="edge">
<title>Node27&#45;&gt;Node5</title>
<path fill="none" stroke="midnightblue" d="M694.27,-450.61C701.11,-447.48 707.58,-443.51 713,-438.5 744.03,-409.82 717.49,-378.66 749,-350.5 756.77,-343.55 766.92,-339.13 776.95,-336.32"/>
<polygon fill="midnightblue" stroke="midnightblue" points="777.9,-339.69 786.85,-334.01 776.32,-332.87 777.9,-339.69"/>
</g>
<!-- Node27&#45;&gt;Node6 -->
<g id="edge39" class="edge">
<title>Node27&#45;&gt;Node6</title>
<path fill="none" stroke="midnightblue" d="M694.32,-462.5C711.86,-462.5 731.36,-462.5 749.52,-462.5"/>
<polygon fill="midnightblue" stroke="midnightblue" points="749.74,-466 759.74,-462.5 749.74,-459 749.74,-466"/>
</g>
<!-- Node28&#45;&gt;Node3 -->
<g id="edge41" class="edge">
<title>Node28&#45;&gt;Node3</title>
<path fill="none" stroke="midnightblue" d="M694.32,-413.5C711.86,-413.5 731.36,-413.5 749.52,-413.5"/>
<polygon fill="midnightblue" stroke="midnightblue" points="749.74,-417 759.74,-413.5 749.74,-410 749.74,-417"/>
</g>
<!-- Node28&#45;&gt;Node4 -->
<g id="edge42" class="edge">
<title>Node28&#45;&gt;Node4</title>
<path fill="none" stroke="midnightblue" d="M694.32,-399.58C717.92,-393.74 745.08,-387.03 767.75,-381.43"/>
<polygon fill="midnightblue" stroke="midnightblue" points="768.62,-384.82 777.49,-379.02 766.94,-378.02 768.62,-384.82"/>
</g>
<!-- Node28&#45;&gt;Node5 -->
<g id="edge43" class="edge">
<title>Node28&#45;&gt;Node5</title>
<path fill="none" stroke="midnightblue" d="M693.51,-398.48C700.31,-395.64 706.98,-392.33 713,-388.5 732.62,-376 729.1,-362.55 749,-350.5 757.52,-345.34 767.5,-341.54 777.11,-338.75"/>
<polygon fill="midnightblue" stroke="midnightblue" points="778.12,-342.1 786.91,-336.19 776.36,-335.32 778.12,-342.1"/>
</g>
<!-- Node28&#45;&gt;Node6 -->
<g id="edge44" class="edge">
<title>Node28&#45;&gt;Node6</title>
<path fill="none" stroke="midnightblue" d="M692.86,-428.6C711.39,-433.7 732.24,-439.44 751.45,-444.73"/>
<polygon fill="midnightblue" stroke="midnightblue" points="750.75,-448.17 761.32,-447.45 752.61,-441.42 750.75,-448.17"/>
</g>
</g>
</svg>
