<?xml version="1.0" encoding="UTF-8" standalone="no"?>
<!DOCTYPE svg PUBLIC "-//W3C//DTD SVG 1.1//EN"
 "http://www.w3.org/Graphics/SVG/1.1/DTD/svg11.dtd">
<!-- Generated by graphviz version 2.50.0 (0)
 -->
<!-- Title: tklb::HeapBuffer::size Pages: 1 -->
<!--zoomable 405 -->
<svg id="main" version="1.1" xmlns="http://www.w3.org/2000/svg" xmlns:xlink="http://www.w3.org/1999/xlink" xml:space="preserve" onload="init(evt)">
<style type="text/css"><![CDATA[
.edge:hover path { stroke: red; }
.edge:hover polygon { stroke: red; fill: red; }
]]></style>
<script type="text/javascript"><![CDATA[
var edges = document.getElementsByTagName('g');
if (edges && edges.length) {
  for (var i=0;i<edges.length;i++) {
    if (edges[i].id.substr(0,4)=='edge') {
      edges[i].setAttribute('class','edge');
    }
  }
}
]]></script>
        <defs>
                <circle id="rim" cx="0" cy="0" r="7"/>
                <circle id="rim2" cx="0" cy="0" r="3.5"/>
                <g id="zoomPlus">
                        <use xlink:href="#rim" fill="#404040">
                                <set attributeName="fill" to="#808080" begin="zoomplus.mouseover" end="zoomplus.mouseout"/>
                        </use>
                        <path d="M-4,0h8M0,-4v8" fill="none" stroke="white" stroke-width="1.5" pointer-events="none"/>
                </g>
                <g id="zoomMin">
                        <use xlink:href="#rim" fill="#404040">
                                <set attributeName="fill" to="#808080" begin="zoomminus.mouseover" end="zoomminus.mouseout"/>
                        </use>
                        <path d="M-4,0h8" fill="none" stroke="white" stroke-width="1.5" pointer-events="none"/>
                </g>
                <g id="dirArrow">
                        <path fill="none" stroke="white" stroke-width="1.5" d="M0,-3.0v7 M-2.5,-0.5L0,-3.0L2.5,-0.5"/>
                </g>
               <g id="resetDef">
                       <use xlink:href="#rim2" fill="#404040">
                               <set attributeName="fill" to="#808080" begin="reset.mouseover" end="reset.mouseout"/>
                       </use>
               </g>
        </defs>

<script type="text/javascript">
var viewWidth = 1360;
var viewHeight = 405;
var sectionId = 'dynsection-29';
</script>
<script xlink:href="svgpan.js"/>
<svg id="graph" class="graph">
<g id="viewport">
<title>tklb::HeapBuffer::size</title>
<!-- Node1 -->
<g id="node1" class="node">
<title>Node1</title>
<g id="a_node1"><a xlink:title="Returns the amount of elements in the container.">
<polygon fill="#bfbfbf" stroke="black" points="1230,-257.5 1230,-276.5 1352,-276.5 1352,-257.5 1230,-257.5"/>
<text text-anchor="middle" x="1291" y="-264.5" font-family="Helvetica,sans-Serif" font-size="10.00">tklb::HeapBuffer::size</text>
</a>
</g>
</g>
<!-- Node2 -->
<g id="node2" class="node">
<title>Node2</title>
<g id="a_node2"><a xlink:href="classtklb_1_1_heap_buffer.html#ae48b31c254c04be44dabd1e6f2464f4e" target="_top" xlink:title="Setup the buffer with a size.">
<polygon fill="none" stroke="black" points="860,-377.5 860,-396.5 1018,-396.5 1018,-377.5 860,-377.5"/>
<text text-anchor="middle" x="939" y="-384.5" font-family="Helvetica,sans-Serif" font-size="10.00">tklb::HeapBuffer::HeapBuffer</text>
</a>
</g>
</g>
<!-- Node1&#45;&gt;Node2 -->
<g id="edge1" class="edge">
<title>Node1&#45;&gt;Node2</title>
<path fill="none" stroke="midnightblue" d="M1266.31,-281.79C1247.31,-293.16 1219.68,-308.63 1194,-319 1118.72,-349.42 1096.57,-347.5 1018,-368 1005.73,-371.2 992.32,-374.53 980.14,-377.49"/>
<polygon fill="midnightblue" stroke="midnightblue" points="1268.16,-284.76 1274.89,-276.58 1264.53,-278.77 1268.16,-284.76"/>
</g>
<!-- Node3 -->
<g id="node3" class="node">
<title>Node3</title>
<g id="a_node3"><a xlink:href="classtklb_1_1_heap_buffer.html#a92c98281f59633bf711f3a69d116d7b1" target="_top" xlink:title="Provide foreign memory to borrow.">
<polygon fill="none" stroke="black" points="874,-339.5 874,-358.5 1004,-358.5 1004,-339.5 874,-339.5"/>
<text text-anchor="middle" x="939" y="-346.5" font-family="Helvetica,sans-Serif" font-size="10.00">tklb::HeapBuffer::inject</text>
</a>
</g>
</g>
<!-- Node1&#45;&gt;Node3 -->
<g id="edge2" class="edge">
<title>Node1&#45;&gt;Node3</title>
<path fill="none" stroke="midnightblue" d="M1239.26,-278.89C1169.32,-295.27 1044.69,-324.47 980.57,-339.49"/>
<polygon fill="midnightblue" stroke="midnightblue" points="1240.23,-282.26 1249.17,-276.57 1238.63,-275.44 1240.23,-282.26"/>
</g>
<!-- Node5 -->
<g id="node5" class="node">
<title>Node5</title>
<g id="a_node5"><a xlink:href="classtklb_1_1_heap_buffer.html#ade0e737c1d136f00e1caf1203318141b" target="_top" xlink:title="Will make sure the desired space is allocated.">
<polygon fill="none" stroke="black" points="1054,-219.5 1054,-238.5 1194,-238.5 1194,-219.5 1054,-219.5"/>
<text text-anchor="middle" x="1124" y="-226.5" font-family="Helvetica,sans-Serif" font-size="10.00">tklb::HeapBuffer::reserve</text>
</a>
</g>
</g>
<!-- Node1&#45;&gt;Node5 -->
<g id="edge4" class="edge">
<title>Node1&#45;&gt;Node5</title>
<path fill="none" stroke="midnightblue" d="M1238.35,-255.1C1215.15,-249.76 1188.16,-243.55 1166.34,-238.52"/>
<polygon fill="midnightblue" stroke="midnightblue" points="1237.83,-258.58 1248.36,-257.41 1239.4,-251.76 1237.83,-258.58"/>
</g>
<!-- Node6 -->
<g id="node6" class="node">
<title>Node6</title>
<g id="a_node6"><a xlink:href="classtklb_1_1_heap_buffer.html#ab37e6c1fc8d124b5737cfdef69b051d1" target="_top" xlink:title="Resize the buffer If the memory is borrowed it will become unique and owned by this instance as soon ...">
<polygon fill="none" stroke="black" points="1058,-257.5 1058,-276.5 1190,-276.5 1190,-257.5 1058,-257.5"/>
<text text-anchor="middle" x="1124" y="-264.5" font-family="Helvetica,sans-Serif" font-size="10.00">tklb::HeapBuffer::resize</text>
</a>
</g>
</g>
<!-- Node1&#45;&gt;Node6 -->
<g id="edge5" class="edge">
<title>Node1&#45;&gt;Node6</title>
<path fill="none" stroke="midnightblue" d="M1219.78,-267C1209.9,-267 1199.78,-267 1190,-267"/>
<polygon fill="midnightblue" stroke="midnightblue" points="1219.96,-270.5 1229.96,-267 1219.96,-263.5 1219.96,-270.5"/>
</g>
<!-- Node20 -->
<g id="node20" class="node">
<title>Node20</title>
<g id="a_node20"><a xlink:href="classtklb_1_1_heap_buffer.html#ae772c70f44aff0b64f441efe961d7a9d" target="_top" xlink:title="Resizes and copies the contents of the source Buffer This will do a memory::copy,so none of the objec...">
<polygon fill="none" stroke="black" points="1065,-38.5 1065,-57.5 1183,-57.5 1183,-38.5 1065,-38.5"/>
<text text-anchor="middle" x="1124" y="-45.5" font-family="Helvetica,sans-Serif" font-size="10.00">tklb::HeapBuffer::set</text>
</a>
</g>
</g>
<!-- Node1&#45;&gt;Node20 -->
<g id="edge22" class="edge">
<title>Node1&#45;&gt;Node20</title>
<path fill="none" stroke="midnightblue" d="M1276.6,-249.21C1243.29,-205.01 1157.64,-91.33 1132.22,-57.58"/>
<polygon fill="midnightblue" stroke="midnightblue" points="1273.88,-251.43 1282.7,-257.31 1279.48,-247.21 1273.88,-251.43"/>
</g>
<!-- Node4 -->
<g id="node4" class="node">
<title>Node4</title>
<g id="a_node4"><a xlink:href="classtklb_1_1_heap_buffer.html#ad19c6c6c753de0f91aeb2bafa7e1a7ea" target="_top" xlink:title="Provide const foreign memory to use Using non const accessors will cause assertions in debug mode.">
<polygon fill="none" stroke="black" points="692,-339.5 692,-358.5 822,-358.5 822,-339.5 692,-339.5"/>
<text text-anchor="middle" x="757" y="-346.5" font-family="Helvetica,sans-Serif" font-size="10.00">tklb::HeapBuffer::inject</text>
</a>
</g>
</g>
<!-- Node3&#45;&gt;Node4 -->
<g id="edge3" class="edge">
<title>Node3&#45;&gt;Node4</title>
<path fill="none" stroke="midnightblue" d="M863.43,-349C849.73,-349 835.55,-349 822.2,-349"/>
<polygon fill="midnightblue" stroke="midnightblue" points="863.78,-352.5 873.78,-349 863.78,-345.5 863.78,-352.5"/>
</g>
<!-- Node6&#45;&gt;Node2 -->
<g id="edge8" class="edge">
<title>Node6&#45;&gt;Node2</title>
<path fill="none" stroke="midnightblue" d="M1109.43,-284.96C1091.18,-307.8 1056.55,-346.82 1018,-368 1010.92,-371.89 1003.04,-375 995.09,-377.47"/>
<polygon fill="midnightblue" stroke="midnightblue" points="1112.4,-286.83 1115.8,-276.8 1106.89,-282.53 1112.4,-286.83"/>
</g>
<!-- Node6&#45;&gt;Node3 -->
<g id="edge9" class="edge">
<title>Node6&#45;&gt;Node3</title>
<path fill="none" stroke="midnightblue" d="M1101.81,-282.34C1081.29,-296.55 1048.83,-317.34 1018,-330 1008.85,-333.76 998.77,-336.89 988.99,-339.46"/>
<polygon fill="midnightblue" stroke="midnightblue" points="1103.93,-285.13 1110.09,-276.52 1099.9,-279.41 1103.93,-285.13"/>
</g>
<!-- Node7 -->
<g id="node7" class="node">
<title>Node7</title>
<g id="a_node7"><a xlink:href="classtklb_1_1_heap_buffer.html#a76b642458c3ab649734fe9a85e149e76" target="_top" xlink:title="Clears the buffer but doesn&#39;t free the memory.">
<polygon fill="none" stroke="black" points="875.5,-301.5 875.5,-320.5 1002.5,-320.5 1002.5,-301.5 875.5,-301.5"/>
<text text-anchor="middle" x="939" y="-308.5" font-family="Helvetica,sans-Serif" font-size="10.00">tklb::HeapBuffer::clear</text>
</a>
</g>
</g>
<!-- Node6&#45;&gt;Node7 -->
<g id="edge6" class="edge">
<title>Node6&#45;&gt;Node7</title>
<path fill="none" stroke="midnightblue" d="M1073.22,-278.97C1043.81,-286.04 1007.07,-294.87 979.63,-301.47"/>
<polygon fill="midnightblue" stroke="midnightblue" points="1074.39,-282.29 1083.29,-276.55 1072.75,-275.48 1074.39,-282.29"/>
</g>
<!-- Node8 -->
<g id="node8" class="node">
<title>Node8</title>
<g id="a_node8"><a xlink:href="classtklb_1_1_heap_buffer.html#a7ac3c5d43b0db9422f61a7097fc9c394" target="_top" xlink:title="If T is a pointer type, delete will be called for all pointers in buffer and resize(0) is called.">
<polygon fill="none" stroke="black" points="869,-252 869,-282 1009,-282 1009,-252 869,-252"/>
<text text-anchor="start" x="877" y="-270" font-family="Helvetica,sans-Serif" font-size="10.00">tklb::HeapBuffer::destroy</text>
<text text-anchor="middle" x="939" y="-259" font-family="Helvetica,sans-Serif" font-size="10.00">Pointers</text>
</a>
</g>
</g>
<!-- Node6&#45;&gt;Node8 -->
<g id="edge7" class="edge">
<title>Node6&#45;&gt;Node8</title>
<path fill="none" stroke="midnightblue" d="M1047.82,-267C1035.03,-267 1021.79,-267 1009.16,-267"/>
<polygon fill="midnightblue" stroke="midnightblue" points="1047.97,-270.5 1057.97,-267 1047.97,-263.5 1047.97,-270.5"/>
</g>
<!-- Node9 -->
<g id="node9" class="node">
<title>Node9</title>
<g id="a_node9"><a xlink:href="classtklb_1_1_convolver_mono_tpl.html#a67f9498b46370c1a273b47ccc4863e21" target="_top" xlink:title="Load a impulse response and prepare the convolution.">
<polygon fill="none" stroke="black" points="873,-203 873,-233 1005,-233 1005,-203 873,-203"/>
<text text-anchor="start" x="881" y="-221" font-family="Helvetica,sans-Serif" font-size="10.00">tklb::ConvolverMonoTpl</text>
<text text-anchor="middle" x="939" y="-210" font-family="Helvetica,sans-Serif" font-size="10.00">::load</text>
</a>
</g>
</g>
<!-- Node6&#45;&gt;Node9 -->
<g id="edge10" class="edge">
<title>Node6&#45;&gt;Node9</title>
<path fill="none" stroke="midnightblue" d="M1077.48,-254.81C1052.86,-248.22 1022.24,-240.02 996.16,-233.04"/>
<polygon fill="midnightblue" stroke="midnightblue" points="1076.72,-258.23 1087.28,-257.44 1078.53,-251.47 1076.72,-258.23"/>
</g>
<!-- Node10 -->
<g id="node10" class="node">
<title>Node10</title>
<g id="a_node10"><a xlink:href="namespacetklb_1_1wave.html#a0eea36d8e07b1520ce77191e081c45bb" target="_top" xlink:title="Decode wav from memory or file path.">
<polygon fill="none" stroke="black" points="891.5,-164.5 891.5,-183.5 986.5,-183.5 986.5,-164.5 891.5,-164.5"/>
<text text-anchor="middle" x="939" y="-171.5" font-family="Helvetica,sans-Serif" font-size="10.00">tklb::wave::load</text>
</a>
</g>
</g>
<!-- Node6&#45;&gt;Node10 -->
<g id="edge11" class="edge">
<title>Node6&#45;&gt;Node10</title>
<path fill="none" stroke="midnightblue" d="M1062.5,-253.22C1059.52,-251.66 1056.67,-249.93 1054,-248 1030.62,-231.11 1041.53,-210.69 1018,-194 1008.76,-187.45 997.56,-183.04 986.57,-180.08"/>
<polygon fill="midnightblue" stroke="midnightblue" points="1061.16,-256.45 1071.72,-257.38 1064.04,-250.08 1061.16,-256.45"/>
</g>
<!-- Node18 -->
<g id="node18" class="node">
<title>Node18</title>
<g id="a_node18"><a xlink:href="classtklb_1_1_heap_buffer.html#af0d3f023b7a208b152a436b5273cf580" target="_top" xlink:title="Set data from array.">
<polygon fill="none" stroke="black" points="880,-126.5 880,-145.5 998,-145.5 998,-126.5 880,-126.5"/>
<text text-anchor="middle" x="939" y="-133.5" font-family="Helvetica,sans-Serif" font-size="10.00">tklb::HeapBuffer::set</text>
</a>
</g>
</g>
<!-- Node6&#45;&gt;Node18 -->
<g id="edge20" class="edge">
<title>Node6&#45;&gt;Node18</title>
<path fill="none" stroke="midnightblue" d="M1059.49,-252.3C1057.56,-250.99 1055.72,-249.56 1054,-248 1021.12,-218.28 1051.32,-184.23 1018,-155 1012.24,-149.94 1005.35,-146.18 998.09,-143.4"/>
<polygon fill="midnightblue" stroke="midnightblue" points="1058.01,-255.49 1068.44,-257.36 1061.45,-249.39 1058.01,-255.49"/>
</g>
<!-- Node19 -->
<g id="node19" class="node">
<title>Node19</title>
<g id="a_node19"><a xlink:href="classtklb_1_1_heap_buffer.html#a91b81f93a16fd76ec0ef747645fb1547" target="_top" xlink:title=" ">
<polygon fill="none" stroke="black" points="887.5,-77 887.5,-107 990.5,-107 990.5,-77 887.5,-77"/>
<text text-anchor="start" x="895.5" y="-95" font-family="Helvetica,sans-Serif" font-size="10.00">tklb::HeapBuffer::</text>
<text text-anchor="middle" x="939" y="-84" font-family="Helvetica,sans-Serif" font-size="10.00">~HeapBuffer</text>
</a>
</g>
</g>
<!-- Node6&#45;&gt;Node19 -->
<g id="edge21" class="edge">
<title>Node6&#45;&gt;Node19</title>
<path fill="none" stroke="midnightblue" d="M1058.63,-252.03C1057,-250.79 1055.45,-249.45 1054,-248 1011.32,-205.29 1059.79,-160.58 1018,-117 1010.62,-109.3 1000.87,-103.97 990.77,-100.28"/>
<polygon fill="midnightblue" stroke="midnightblue" points="1057.02,-255.16 1067.37,-257.45 1060.71,-249.2 1057.02,-255.16"/>
</g>
<!-- Node11 -->
<g id="node11" class="node">
<title>Node11</title>
<g id="a_node11"><a xlink:href="structvae_1_1core_1_1_source_loader.html#a2341f89c2b79148066369e8d50d98597" target="_top" xlink:title="Loads a wav file for the resource.">
<polygon fill="none" stroke="black" points="690,-159 690,-189 824,-189 824,-159 690,-159"/>
<text text-anchor="start" x="698" y="-177" font-family="Helvetica,sans-Serif" font-size="10.00">vae::core::SourceLoader</text>
<text text-anchor="middle" x="757" y="-166" font-family="Helvetica,sans-Serif" font-size="10.00">::load</text>
</a>
</g>
</g>
<!-- Node10&#45;&gt;Node11 -->
<g id="edge12" class="edge">
<title>Node10&#45;&gt;Node11</title>
<path fill="none" stroke="midnightblue" d="M881.09,-174C863.03,-174 842.9,-174 824.24,-174"/>
<polygon fill="midnightblue" stroke="midnightblue" points="881.18,-177.5 891.18,-174 881.18,-170.5 881.18,-177.5"/>
</g>
<!-- Node12 -->
<g id="node12" class="node">
<title>Node12</title>
<g id="a_node12"><a xlink:href="classvae_1_1core_1_1_bank_loader.html#a0c168e922d02dbe23ec42ebfde4d97a2" target="_top" xlink:title="Load a bank.json and all wav files referenced in it.">
<polygon fill="none" stroke="black" points="529,-159 529,-189 654,-189 654,-159 529,-159"/>
<text text-anchor="start" x="537" y="-177" font-family="Helvetica,sans-Serif" font-size="10.00">vae::core::BankLoader</text>
<text text-anchor="middle" x="591.5" y="-166" font-family="Helvetica,sans-Serif" font-size="10.00">::load</text>
</a>
</g>
</g>
<!-- Node11&#45;&gt;Node12 -->
<g id="edge13" class="edge">
<title>Node11&#45;&gt;Node12</title>
<path fill="none" stroke="midnightblue" d="M679.86,-174C671.2,-174 662.46,-174 654.02,-174"/>
<polygon fill="midnightblue" stroke="midnightblue" points="679.97,-177.5 689.97,-174 679.97,-170.5 679.97,-177.5"/>
</g>
<!-- Node13 -->
<g id="node13" class="node">
<title>Node13</title>
<g id="a_node13"><a xlink:href="classvae_1_1core_1_1_bank_manager.html#ab06ae4e1f8106811c8149dd73bef6bd0" target="_top" xlink:title=" ">
<polygon fill="none" stroke="black" points="359,-159 359,-189 493,-189 493,-159 359,-159"/>
<text text-anchor="start" x="367" y="-177" font-family="Helvetica,sans-Serif" font-size="10.00">vae::core::BankManager</text>
<text text-anchor="middle" x="426" y="-166" font-family="Helvetica,sans-Serif" font-size="10.00">::load</text>
</a>
</g>
</g>
<!-- Node12&#45;&gt;Node13 -->
<g id="edge14" class="edge">
<title>Node12&#45;&gt;Node13</title>
<path fill="none" stroke="midnightblue" d="M518.53,-174C510.13,-174 501.59,-174 493.27,-174"/>
<polygon fill="midnightblue" stroke="midnightblue" points="518.69,-177.5 528.69,-174 518.69,-170.5 518.69,-177.5"/>
</g>
<!-- Node13&#45;&gt;Node13 -->
<g id="edge16" class="edge">
<title>Node13&#45;&gt;Node13</title>
<path fill="none" stroke="midnightblue" d="M455.14,-199.46C451.52,-204.18 441.81,-207.5 426,-207.5 400.05,-207.5 390.53,-198.56 397.42,-189.16"/>
<polygon fill="midnightblue" stroke="midnightblue" points="458.62,-198.95 454.58,-189.16 451.63,-199.33 458.62,-198.95"/>
</g>
<!-- Node14 -->
<g id="node14" class="node">
<title>Node14</title>
<g id="a_node14"><a xlink:href="classvae_1_1core_1_1_bank_manager.html#ae04256d1f2f2df47d3239993c9bbf12c" target="_top" xlink:title="Will reload all the banks.">
<polygon fill="none" stroke="black" points="189,-184 189,-214 323,-214 323,-184 189,-184"/>
<text text-anchor="start" x="197" y="-202" font-family="Helvetica,sans-Serif" font-size="10.00">vae::core::BankManager</text>
<text text-anchor="middle" x="256" y="-191" font-family="Helvetica,sans-Serif" font-size="10.00">::init</text>
</a>
</g>
</g>
<!-- Node13&#45;&gt;Node14 -->
<g id="edge15" class="edge">
<title>Node13&#45;&gt;Node14</title>
<path fill="none" stroke="midnightblue" d="M348.68,-185.36C340.17,-186.62 331.56,-187.9 323.19,-189.15"/>
<polygon fill="midnightblue" stroke="midnightblue" points="349.23,-188.81 358.6,-183.88 348.2,-181.89 349.23,-188.81"/>
</g>
<!-- Node15 -->
<g id="node15" class="node">
<title>Node15</title>
<g id="a_node15"><a xlink:href="classvae_1_1core_1_1_engine.html#a4af5733f9975fe1c746e75958bc39d23" target="_top" xlink:title="Load bank from filesystem.">
<polygon fill="none" stroke="black" points="202.5,-135 202.5,-165 309.5,-165 309.5,-135 202.5,-135"/>
<text text-anchor="start" x="210.5" y="-153" font-family="Helvetica,sans-Serif" font-size="10.00">vae::core::Engine::</text>
<text text-anchor="middle" x="256" y="-142" font-family="Helvetica,sans-Serif" font-size="10.00">loadBank</text>
</a>
</g>
</g>
<!-- Node13&#45;&gt;Node15 -->
<g id="edge17" class="edge">
<title>Node13&#45;&gt;Node15</title>
<path fill="none" stroke="midnightblue" d="M348.62,-163.09C335.47,-161.21 322.07,-159.3 309.72,-157.53"/>
<polygon fill="midnightblue" stroke="midnightblue" points="348.21,-166.57 358.6,-164.51 349.2,-159.64 348.21,-166.57"/>
</g>
<!-- Node16 -->
<g id="node16" class="node">
<title>Node16</title>
<g id="a_node16"><a xlink:href="classvae_1_1_engine_pimpl.html#adec77e6ef0f00d52c634611cb6822443" target="_top" xlink:title="Load bank from filesystem.">
<polygon fill="none" stroke="black" points="0,-159.5 0,-178.5 153,-178.5 153,-159.5 0,-159.5"/>
<text text-anchor="middle" x="76.5" y="-166.5" font-family="Helvetica,sans-Serif" font-size="10.00">vae::EnginePimpl::loadBank</text>
</a>
</g>
</g>
<!-- Node15&#45;&gt;Node16 -->
<g id="edge18" class="edge">
<title>Node15&#45;&gt;Node16</title>
<path fill="none" stroke="midnightblue" d="M192.25,-156.72C179.57,-158.07 166.12,-159.51 153.06,-160.91"/>
<polygon fill="midnightblue" stroke="midnightblue" points="192.65,-160.19 202.22,-155.65 191.91,-153.23 192.65,-160.19"/>
</g>
<!-- Node17 -->
<g id="node17" class="node">
<title>Node17</title>
<g id="a_node17"><a xlink:href="main_8cpp.html#ae66f6b31b5ad750f1fe042a706a4e3d4" target="_top" xlink:title=" ">
<polygon fill="none" stroke="black" points="56,-121.5 56,-140.5 97,-140.5 97,-121.5 56,-121.5"/>
<text text-anchor="middle" x="76.5" y="-128.5" font-family="Helvetica,sans-Serif" font-size="10.00">main</text>
</a>
</g>
</g>
<!-- Node15&#45;&gt;Node17 -->
<g id="edge19" class="edge">
<title>Node15&#45;&gt;Node17</title>
<path fill="none" stroke="midnightblue" d="M192.06,-143.26C158.69,-139.69 119.98,-135.55 97.18,-133.11"/>
<polygon fill="midnightblue" stroke="midnightblue" points="191.91,-146.77 202.22,-144.35 192.65,-139.81 191.91,-146.77"/>
</g>
<!-- Node20&#45;&gt;Node20 -->
<g id="edge25" class="edge">
<title>Node20&#45;&gt;Node20</title>
<path fill="none" stroke="midnightblue" d="M1155.06,-66.27C1154.18,-71.74 1143.82,-76 1124,-76 1094.5,-76 1085.97,-66.57 1098.41,-57.76"/>
<polygon fill="midnightblue" stroke="midnightblue" points="1157.94,-64.27 1149.59,-57.76 1152.05,-68.06 1157.94,-64.27"/>
</g>
<!-- Node21 -->
<g id="node21" class="node">
<title>Node21</title>
<g id="a_node21"><a xlink:href="classtklb_1_1_heap_buffer.html#a90e92376dfaf2dfea68874349d269686" target="_top" xlink:title="Copy Constructor, calls set() Failed allocations have to be checked.">
<polygon fill="none" stroke="black" points="860,-38.5 860,-57.5 1018,-57.5 1018,-38.5 860,-38.5"/>
<text text-anchor="middle" x="939" y="-45.5" font-family="Helvetica,sans-Serif" font-size="10.00">tklb::HeapBuffer::HeapBuffer</text>
</a>
</g>
</g>
<!-- Node20&#45;&gt;Node21 -->
<g id="edge23" class="edge">
<title>Node20&#45;&gt;Node21</title>
<path fill="none" stroke="midnightblue" d="M1054.56,-48C1042.66,-48 1030.21,-48 1018.08,-48"/>
<polygon fill="midnightblue" stroke="midnightblue" points="1054.85,-51.5 1064.85,-48 1054.85,-44.5 1054.85,-51.5"/>
</g>
<!-- Node22 -->
<g id="node22" class="node">
<title>Node22</title>
<g id="a_node22"><a xlink:href="string_8cpp.html#ae66f6b31b5ad750f1fe042a706a4e3d4" target="_top" xlink:title=" ">
<polygon fill="none" stroke="black" points="918.5,-0.5 918.5,-19.5 959.5,-19.5 959.5,-0.5 918.5,-0.5"/>
<text text-anchor="middle" x="939" y="-7.5" font-family="Helvetica,sans-Serif" font-size="10.00">main</text>
</a>
</g>
</g>
<!-- Node20&#45;&gt;Node22 -->
<g id="edge24" class="edge">
<title>Node20&#45;&gt;Node22</title>
<path fill="none" stroke="midnightblue" d="M1066.82,-36.33C1030.46,-28.78 985.31,-19.41 959.87,-14.13"/>
<polygon fill="midnightblue" stroke="midnightblue" points="1066.32,-39.8 1076.82,-38.41 1067.74,-32.95 1066.32,-39.8"/>
</g>
</g>
</svg>
        <g id="navigator" transform="translate(0 0)" fill="#404254">
                <rect fill="#f2f5e9" fill-opacity="0.5" stroke="#606060" stroke-width=".5" x="0" y="0" width="60" height="60"/>
                <use id="zoomplus" xlink:href="#zoomPlus" x="17" y="9" onmousedown="handleZoom(evt,'in')"/>
                <use id="zoomminus" xlink:href="#zoomMin" x="42" y="9" onmousedown="handleZoom(evt,'out')"/>
                <use id="reset" xlink:href="#resetDef" x="30" y="36" onmousedown="handleReset()"/>
                <g id="arrowUp" xlink:href="#dirArrow" transform="translate(30 24)" onmousedown="handlePan(0,-1)">
                  <use xlink:href="#rim" fill="#404040">
                        <set attributeName="fill" to="#808080" begin="arrowUp.mouseover" end="arrowUp.mouseout"/>
                  </use>
                  <path fill="none" stroke="white" stroke-width="1.5" d="M0,-3.0v7 M-2.5,-0.5L0,-3.0L2.5,-0.5"/>
                </g>
                <g id="arrowRight" xlink:href="#dirArrow" transform="rotate(90) translate(36 -43)" onmousedown="handlePan(1,0)">
                  <use xlink:href="#rim" fill="#404040">
                        <set attributeName="fill" to="#808080" begin="arrowRight.mouseover" end="arrowRight.mouseout"/>
                  </use>
                  <path fill="none" stroke="white" stroke-width="1.5" d="M0,-3.0v7 M-2.5,-0.5L0,-3.0L2.5,-0.5"/>
                </g>
                <g id="arrowDown" xlink:href="#dirArrow" transform="rotate(180) translate(-30 -48)" onmousedown="handlePan(0,1)">
                  <use xlink:href="#rim" fill="#404040">
                        <set attributeName="fill" to="#808080" begin="arrowDown.mouseover" end="arrowDown.mouseout"/>
                  </use>
                  <path fill="none" stroke="white" stroke-width="1.5" d="M0,-3.0v7 M-2.5,-0.5L0,-3.0L2.5,-0.5"/>
                </g>
                <g id="arrowLeft" xlink:href="#dirArrow" transform="rotate(270) translate(-36 17)" onmousedown="handlePan(-1,0)">
                  <use xlink:href="#rim" fill="#404040">
                        <set attributeName="fill" to="#808080" begin="arrowLeft.mouseover" end="arrowLeft.mouseout"/>
                  </use>
                  <path fill="none" stroke="white" stroke-width="1.5" d="M0,-3.0v7 M-2.5,-0.5L0,-3.0L2.5,-0.5"/>
                </g>
        </g>
        <svg viewBox="0 0 15 15" width="100%" height="30px" preserveAspectRatio="xMaxYMin meet">
         <g id="arrow_out" transform="scale(0.3 0.3)">
          <a xlink:href="classtklb_1_1_heap_buffer_a5ec4892e352b8df099fa1c75cfbf328c_icgraph_org.svg" target="_base">
           <rect id="button" ry="5" rx="5" y="6" x="6" height="38" width="38"
                fill="#f2f5e9" fill-opacity="0.5" stroke="#606060" stroke-width="1.0"/>
           <path id="arrow"
             d="M 11.500037,31.436501 C 11.940474,20.09759 22.043105,11.32322 32.158766,21.979434 L 37.068811,17.246167 C 37.068811,17.246167 37.088388,32 37.088388,32 L 22.160133,31.978069 C 22.160133,31.978069 26.997745,27.140456 26.997745,27.140456 C 18.528582,18.264221 13.291696,25.230495 11.500037,31.436501 z"
             style="fill:#404040;"/>
          </a>
         </g>
        </svg>
</svg>
