<?xml version="1.0" encoding="UTF-8" standalone="no"?>
<!DOCTYPE svg PUBLIC "-//W3C//DTD SVG 1.1//EN"
 "http://www.w3.org/Graphics/SVG/1.1/DTD/svg11.dtd">
<!-- Generated by graphviz version 2.50.0 (0)
 -->
<!-- Title: tklb::HeapBuffer&lt; T, ALIGNMENT, ALLOCATOR, SIZE &gt; Pages: 1 -->
<svg width="322pt" height="551pt"
 viewBox="0.00 0.00 322.00 551.00" xmlns="http://www.w3.org/2000/svg" xmlns:xlink="http://www.w3.org/1999/xlink">
<g id="graph0" class="graph" transform="scale(1 1) rotate(0) translate(4 547)">
<title>tklb::HeapBuffer&lt; T, ALIGNMENT, ALLOCATOR, SIZE &gt;</title>
<!-- Node1 -->
<g id="node1" class="node">
<title>Node1</title>
<g id="a_node1"><a xlink:title="Basically a bad std::vector without exceptions which can also work with foreign memory.">
<polygon fill="#bfbfbf" stroke="black" points="89,-0.5 89,-222.5 232,-222.5 232,-0.5 89,-0.5"/>
<text text-anchor="start" x="97" y="-210.5" font-family="Helvetica,sans-Serif" font-size="10.00">tklb::HeapBuffer&lt; T,</text>
<text text-anchor="start" x="97" y="-199.5" font-family="Helvetica,sans-Serif" font-size="10.00"> ALIGNMENT, ALLOCATOR,</text>
<text text-anchor="middle" x="160.5" y="-188.5" font-family="Helvetica,sans-Serif" font-size="10.00"> SIZE &gt;</text>
<polyline fill="none" stroke="black" points="89,-181.5 232,-181.5 "/>
<text text-anchor="middle" x="160.5" y="-169.5" font-family="Helvetica,sans-Serif" font-size="10.00"> </text>
<polyline fill="none" stroke="black" points="89,-162.5 232,-162.5 "/>
<text text-anchor="start" x="97" y="-150.5" font-family="Helvetica,sans-Serif" font-size="10.00">+ HeapBuffer()</text>
<text text-anchor="start" x="97" y="-139.5" font-family="Helvetica,sans-Serif" font-size="10.00">+ HeapBuffer()</text>
<text text-anchor="start" x="97" y="-128.5" font-family="Helvetica,sans-Serif" font-size="10.00">+ HeapBuffer()</text>
<text text-anchor="start" x="97" y="-117.5" font-family="Helvetica,sans-Serif" font-size="10.00">+ HeapBuffer()</text>
<text text-anchor="start" x="97" y="-106.5" font-family="Helvetica,sans-Serif" font-size="10.00">+ HeapBuffer()</text>
<text text-anchor="start" x="97" y="-95.5" font-family="Helvetica,sans-Serif" font-size="10.00">+ operator=()</text>
<text text-anchor="start" x="97" y="-84.5" font-family="Helvetica,sans-Serif" font-size="10.00">+ operator=()</text>
<text text-anchor="start" x="97" y="-73.5" font-family="Helvetica,sans-Serif" font-size="10.00">+ HeapBuffer()</text>
<text text-anchor="start" x="97" y="-62.5" font-family="Helvetica,sans-Serif" font-size="10.00">+ ~HeapBuffer()</text>
<text text-anchor="start" x="97" y="-51.5" font-family="Helvetica,sans-Serif" font-size="10.00">+ set()</text>
<text text-anchor="start" x="97" y="-40.5" font-family="Helvetica,sans-Serif" font-size="10.00">and 28 more...</text>
<text text-anchor="start" x="97" y="-29.5" font-family="Helvetica,sans-Serif" font-size="10.00">+ closestChunkSize()</text>
<text text-anchor="start" x="97" y="-18.5" font-family="Helvetica,sans-Serif" font-size="10.00">+ isAligned()</text>
<text text-anchor="start" x="97" y="-7.5" font-family="Helvetica,sans-Serif" font-size="10.00">&#45; allocate()</text>
</a>
</g>
</g>
<!-- Node2 -->
<g id="node2" class="node">
<title>Node2</title>
<g id="a_node2"><a xlink:title=" ">
<polygon fill="none" stroke="#bfbfbf" points="0,-309 0,-366 45,-366 45,-309 0,-309"/>
<text text-anchor="middle" x="22.5" y="-354" font-family="Helvetica,sans-Serif" font-size="10.00">size_t</text>
<polyline fill="none" stroke="#bfbfbf" points="0,-347 45,-347 "/>
<text text-anchor="middle" x="22.5" y="-335" font-family="Helvetica,sans-Serif" font-size="10.00"> </text>
<polyline fill="none" stroke="#bfbfbf" points="0,-328 45,-328 "/>
<text text-anchor="middle" x="22.5" y="-316" font-family="Helvetica,sans-Serif" font-size="10.00"> </text>
</a>
</g>
</g>
<!-- Node2&#45;&gt;Node1 -->
<g id="edge1" class="edge">
<title>Node2&#45;&gt;Node1</title>
<path fill="none" stroke="#404040" d="M28.19,-308.59C32.92,-288.89 40.8,-262.33 52.5,-241 60.7,-226.05 70.79,-211.23 81.48,-197.25"/>
<polygon fill="none" stroke="#404040" points="81.55,-197.15 82.11,-189.96 88.96,-187.71 88.4,-194.9 81.55,-197.15"/>
<text text-anchor="middle" x="83.5" y="-255" font-family="Helvetica,sans-Serif" font-size="10.00"> +Alignment</text>
<text text-anchor="middle" x="83.5" y="-244" font-family="Helvetica,sans-Serif" font-size="10.00">+ChunkSize</text>
</g>
<!-- Node3 -->
<g id="node3" class="node">
<title>Node3</title>
<g id="a_node3"><a xlink:href="structtklb_1_1_std_allocator.html" target="_top" xlink:title=" ">
<polygon fill="none" stroke="black" points="63,-281.5 63,-393.5 170,-393.5 170,-281.5 63,-281.5"/>
<text text-anchor="start" x="71" y="-381.5" font-family="Helvetica,sans-Serif" font-size="10.00">tklb::StdAllocator</text>
<text text-anchor="middle" x="116.5" y="-370.5" font-family="Helvetica,sans-Serif" font-size="10.00">&lt; unsigned char &gt;</text>
<polyline fill="none" stroke="black" points="63,-363.5 170,-363.5 "/>
<text text-anchor="middle" x="116.5" y="-351.5" font-family="Helvetica,sans-Serif" font-size="10.00"> </text>
<polyline fill="none" stroke="black" points="63,-344.5 170,-344.5 "/>
<text text-anchor="start" x="71" y="-332.5" font-family="Helvetica,sans-Serif" font-size="10.00">+ StdAllocator()</text>
<text text-anchor="start" x="71" y="-321.5" font-family="Helvetica,sans-Serif" font-size="10.00">+ StdAllocator()</text>
<text text-anchor="start" x="71" y="-310.5" font-family="Helvetica,sans-Serif" font-size="10.00">+ StdAllocator()</text>
<text text-anchor="start" x="71" y="-299.5" font-family="Helvetica,sans-Serif" font-size="10.00">+ allocate()</text>
<text text-anchor="start" x="71" y="-288.5" font-family="Helvetica,sans-Serif" font-size="10.00">+ deallocate()</text>
</a>
</g>
</g>
<!-- Node3&#45;&gt;Node1 -->
<g id="edge2" class="edge">
<title>Node3&#45;&gt;Node1</title>
<path fill="none" stroke="#404040" d="M116.37,-281.45C117,-268.13 118.24,-254 120.5,-241 120.86,-238.94 121.24,-236.87 121.64,-234.79"/>
<polygon fill="none" stroke="#404040" points="121.69,-234.54 119.02,-227.84 124.17,-222.8 126.85,-229.49 121.69,-234.54"/>
<text text-anchor="middle" x="151" y="-249.5" font-family="Helvetica,sans-Serif" font-size="10.00"> &#45;mAllocator</text>
</g>
<!-- Node4 -->
<g id="node4" class="node">
<title>Node4</title>
<g id="a_node4"><a xlink:href="structtklb_1_1_std_allocator.html" target="_top" xlink:title=" ">
<polygon fill="none" stroke="black" points="52,-441.5 52,-542.5 181,-542.5 181,-441.5 52,-441.5"/>
<text text-anchor="middle" x="116.5" y="-530.5" font-family="Helvetica,sans-Serif" font-size="10.00">tklb::StdAllocator&lt; T &gt;</text>
<polyline fill="none" stroke="black" points="52,-523.5 181,-523.5 "/>
<text text-anchor="middle" x="116.5" y="-511.5" font-family="Helvetica,sans-Serif" font-size="10.00"> </text>
<polyline fill="none" stroke="black" points="52,-504.5 181,-504.5 "/>
<text text-anchor="start" x="60" y="-492.5" font-family="Helvetica,sans-Serif" font-size="10.00">+ StdAllocator()</text>
<text text-anchor="start" x="60" y="-481.5" font-family="Helvetica,sans-Serif" font-size="10.00">+ StdAllocator()</text>
<text text-anchor="start" x="60" y="-470.5" font-family="Helvetica,sans-Serif" font-size="10.00">+ StdAllocator()</text>
<text text-anchor="start" x="60" y="-459.5" font-family="Helvetica,sans-Serif" font-size="10.00">+ allocate()</text>
<text text-anchor="start" x="60" y="-448.5" font-family="Helvetica,sans-Serif" font-size="10.00">+ deallocate()</text>
</a>
</g>
</g>
<!-- Node4&#45;&gt;Node3 -->
<g id="edge3" class="edge">
<title>Node4&#45;&gt;Node3</title>
<path fill="none" stroke="orange" d="M116.5,-431.24C116.5,-418.83 116.5,-405.8 116.5,-393.57"/>
<polygon fill="orange" stroke="orange" points="113,-431.49 116.5,-441.49 120,-431.49 113,-431.49"/>
<text text-anchor="middle" x="163.5" y="-415" font-family="Helvetica,sans-Serif" font-size="10.00"> &lt; unsigned char &gt;</text>
</g>
<!-- Node5 -->
<g id="node5" class="node">
<title>Node5</title>
<g id="a_node5"><a xlink:title=" ">
<polygon fill="none" stroke="#bfbfbf" points="188,-309 188,-366 219,-366 219,-309 188,-309"/>
<text text-anchor="middle" x="203.5" y="-354" font-family="Helvetica,sans-Serif" font-size="10.00">T *</text>
<polyline fill="none" stroke="#bfbfbf" points="188,-347 219,-347 "/>
<text text-anchor="middle" x="203.5" y="-335" font-family="Helvetica,sans-Serif" font-size="10.00"> </text>
<polyline fill="none" stroke="#bfbfbf" points="188,-328 219,-328 "/>
<text text-anchor="middle" x="203.5" y="-316" font-family="Helvetica,sans-Serif" font-size="10.00"> </text>
</a>
</g>
</g>
<!-- Node5&#45;&gt;Node1 -->
<g id="edge4" class="edge">
<title>Node5&#45;&gt;Node1</title>
<path fill="none" stroke="#404040" d="M198.14,-308.58C194.46,-289.39 189.28,-262.44 183.95,-234.65"/>
<polygon fill="none" stroke="#404040" points="183.92,-234.49 178.86,-229.36 181.66,-222.71 186.72,-227.85 183.92,-234.49"/>
<text text-anchor="middle" x="204.5" y="-249.5" font-family="Helvetica,sans-Serif" font-size="10.00"> &#45;mBuf</text>
</g>
<!-- Node6 -->
<g id="node6" class="node">
<title>Node6</title>
<g id="a_node6"><a xlink:title=" ">
<polygon fill="none" stroke="#bfbfbf" points="237,-309 237,-366 314,-366 314,-309 237,-309"/>
<text text-anchor="middle" x="275.5" y="-354" font-family="Helvetica,sans-Serif" font-size="10.00">unsigned int</text>
<polyline fill="none" stroke="#bfbfbf" points="237,-347 314,-347 "/>
<text text-anchor="middle" x="275.5" y="-335" font-family="Helvetica,sans-Serif" font-size="10.00"> </text>
<polyline fill="none" stroke="#bfbfbf" points="237,-328 314,-328 "/>
<text text-anchor="middle" x="275.5" y="-316" font-family="Helvetica,sans-Serif" font-size="10.00"> </text>
</a>
</g>
</g>
<!-- Node6&#45;&gt;Node1 -->
<g id="edge5" class="edge">
<title>Node6&#45;&gt;Node1</title>
<path fill="none" stroke="#404040" d="M261.17,-308.58C251.18,-289.14 237.11,-261.72 222.64,-233.53"/>
<polygon fill="none" stroke="#404040" points="222.56,-233.38 216.26,-229.87 217.08,-222.71 223.38,-226.22 222.56,-233.38"/>
<text text-anchor="middle" x="264" y="-255" font-family="Helvetica,sans-Serif" font-size="10.00"> &#45;mRealSize</text>
<text text-anchor="middle" x="264" y="-244" font-family="Helvetica,sans-Serif" font-size="10.00">&#45;mSize</text>
</g>
</g>
</svg>
