<?xml version="1.0" encoding="UTF-8" standalone="no"?>
<!DOCTYPE svg PUBLIC "-//W3C//DTD SVG 1.1//EN"
 "http://www.w3.org/Graphics/SVG/1.1/DTD/svg11.dtd">
<!-- Generated by graphviz version 2.50.0 (0)
 -->
<!-- Title: vae::EnginePimpl::addEmitter Pages: 1 -->
<svg width="491pt" height="39pt"
 viewBox="0.00 0.00 491.00 39.00" xmlns="http://www.w3.org/2000/svg" xmlns:xlink="http://www.w3.org/1999/xlink">
<g id="graph0" class="graph" transform="scale(1 1) rotate(0) translate(4 35)">
<title>vae::EnginePimpl::addEmitter</title>
<!-- Node1 -->
<g id="node1" class="node">
<title>Node1</title>
<g id="a_node1"><a xlink:title="Adds an emitter with a custom handle, can be an internal ID for example.">
<polygon fill="#bfbfbf" stroke="black" points="0,-6 0,-25 161,-25 161,-6 0,-6"/>
<text text-anchor="middle" x="80.5" y="-13" font-family="Helvetica,sans-Serif" font-size="10.00">vae::EnginePimpl::addEmitter</text>
</a>
</g>
</g>
<!-- Node2 -->
<g id="node2" class="node">
<title>Node2</title>
<g id="a_node2"><a xlink:href="classvae_1_1core_1_1_engine.html#a1573d1be8740581800210e938a6c329d" target="_top" xlink:title="Adds an emitter with a custom handle, can be an internal ID for example.">
<polygon fill="none" stroke="black" points="197,-0.5 197,-30.5 304,-30.5 304,-0.5 197,-0.5"/>
<text text-anchor="start" x="205" y="-18.5" font-family="Helvetica,sans-Serif" font-size="10.00">vae::core::Engine::</text>
<text text-anchor="middle" x="250.5" y="-7.5" font-family="Helvetica,sans-Serif" font-size="10.00">addEmitter</text>
</a>
</g>
</g>
<!-- Node1&#45;&gt;Node2 -->
<g id="edge1" class="edge">
<title>Node1&#45;&gt;Node2</title>
<path fill="none" stroke="midnightblue" d="M161.07,-15.5C169.54,-15.5 178.07,-15.5 186.31,-15.5"/>
<polygon fill="midnightblue" stroke="midnightblue" points="186.57,-19 196.57,-15.5 186.57,-12 186.57,-19"/>
</g>
<!-- Node3 -->
<g id="node3" class="node">
<title>Node3</title>
<g id="a_node3"><a xlink:href="classvae_1_1core_1_1_spatial_manager.html#a3f3be0983d6adf3ea217d76477f5d43b" target="_top" xlink:title=" ">
<polygon fill="none" stroke="black" points="340,-0.5 340,-30.5 483,-30.5 483,-0.5 340,-0.5"/>
<text text-anchor="start" x="348" y="-18.5" font-family="Helvetica,sans-Serif" font-size="10.00">vae::core::SpatialManager</text>
<text text-anchor="middle" x="411.5" y="-7.5" font-family="Helvetica,sans-Serif" font-size="10.00">::addEmitter</text>
</a>
</g>
</g>
<!-- Node2&#45;&gt;Node3 -->
<g id="edge2" class="edge">
<title>Node2&#45;&gt;Node3</title>
<path fill="none" stroke="midnightblue" d="M304,-15.5C312.26,-15.5 320.96,-15.5 329.68,-15.5"/>
<polygon fill="midnightblue" stroke="midnightblue" points="329.9,-19 339.9,-15.5 329.9,-12 329.9,-19"/>
</g>
</g>
</svg>
