<?xml version="1.0" encoding="UTF-8" standalone="no"?>
<!DOCTYPE svg PUBLIC "-//W3C//DTD SVG 1.1//EN"
 "http://www.w3.org/Graphics/SVG/1.1/DTD/svg11.dtd">
<!-- Generated by graphviz version 2.50.0 (0)
 -->
<!-- Title: tklb::EventBus::Subscription::Subscription Pages: 1 -->
<svg width="883pt" height="180pt"
 viewBox="0.00 0.00 883.00 180.00" xmlns="http://www.w3.org/2000/svg" xmlns:xlink="http://www.w3.org/1999/xlink">
<g id="graph0" class="graph" transform="scale(1 1) rotate(0) translate(4 176)">
<title>tklb::EventBus::Subscription::Subscription</title>
<!-- Node1 -->
<g id="node1" class="node">
<title>Node1</title>
<g id="a_node1"><a xlink:title=" ">
<polygon fill="#bfbfbf" stroke="black" points="0,-55 0,-85 153,-85 153,-55 0,-55"/>
<text text-anchor="start" x="8" y="-73" font-family="Helvetica,sans-Serif" font-size="10.00">tklb::EventBus::Subscription</text>
<text text-anchor="middle" x="76.5" y="-62" font-family="Helvetica,sans-Serif" font-size="10.00">::Subscription</text>
</a>
</g>
</g>
<!-- Node2 -->
<g id="node2" class="node">
<title>Node2</title>
<g id="a_node2"><a xlink:href="classtklb_1_1_event_bus.html#a2d0bbc8013b6d7ea8ce782a95328f6f9" target="_top" xlink:title=" ">
<polygon fill="none" stroke="black" points="189,-60.5 189,-79.5 351,-79.5 351,-60.5 189,-60.5"/>
<text text-anchor="middle" x="270" y="-67.5" font-family="Helvetica,sans-Serif" font-size="10.00">tklb::EventBus::addSubscriber</text>
</a>
</g>
</g>
<!-- Node1&#45;&gt;Node2 -->
<g id="edge1" class="edge">
<title>Node1&#45;&gt;Node2</title>
<path fill="none" stroke="midnightblue" d="M153.19,-70C161.6,-70 170.23,-70 178.81,-70"/>
<polygon fill="midnightblue" stroke="midnightblue" points="178.83,-73.5 188.83,-70 178.83,-66.5 178.83,-73.5"/>
</g>
<!-- Node3 -->
<g id="node3" class="node">
<title>Node3</title>
<g id="a_node3"><a xlink:href="classtklb_1_1_heap_buffer.html#a4cde91bbb793df74ff45d47398d478ad" target="_top" xlink:title="Push the object to the back of the buffer TODO tklb move version.">
<polygon fill="none" stroke="black" points="387,-60.5 387,-79.5 513,-79.5 513,-60.5 387,-60.5"/>
<text text-anchor="middle" x="450" y="-67.5" font-family="Helvetica,sans-Serif" font-size="10.00">tklb::HeapBuffer::push</text>
</a>
</g>
</g>
<!-- Node2&#45;&gt;Node3 -->
<g id="edge2" class="edge">
<title>Node2&#45;&gt;Node3</title>
<path fill="none" stroke="midnightblue" d="M351.15,-70C359.68,-70 368.31,-70 376.74,-70"/>
<polygon fill="midnightblue" stroke="midnightblue" points="376.9,-73.5 386.9,-70 376.9,-66.5 376.9,-73.5"/>
</g>
<!-- Node4 -->
<g id="node4" class="node">
<title>Node4</title>
<g id="a_node4"><a xlink:href="classtklb_1_1_heap_buffer.html#a37d94fdca920347674a4048cdc28452d" target="_top" xlink:title="Allocated the exact size requsted and copies existing objects.">
<polygon fill="none" stroke="black" points="549,-98.5 549,-117.5 691,-117.5 691,-98.5 549,-98.5"/>
<text text-anchor="middle" x="620" y="-105.5" font-family="Helvetica,sans-Serif" font-size="10.00">tklb::HeapBuffer::allocate</text>
</a>
</g>
</g>
<!-- Node3&#45;&gt;Node4 -->
<g id="edge3" class="edge">
<title>Node3&#45;&gt;Node4</title>
<path fill="none" stroke="midnightblue" d="M493.39,-79.59C515.76,-84.65 543.4,-90.9 567.05,-96.25"/>
<polygon fill="midnightblue" stroke="midnightblue" points="566.39,-99.69 576.91,-98.48 567.93,-92.86 566.39,-99.69"/>
</g>
<!-- Node8 -->
<g id="node8" class="node">
<title>Node8</title>
<g id="a_node8"><a xlink:href="classtklb_1_1_heap_buffer.html#a682dc231ff65beb7114cb0e476affd6b" target="_top" xlink:title=" ">
<polygon fill="none" stroke="black" points="551.5,-33 551.5,-63 688.5,-63 688.5,-33 551.5,-33"/>
<text text-anchor="start" x="559.5" y="-51" font-family="Helvetica,sans-Serif" font-size="10.00">tklb::HeapBuffer::closest</text>
<text text-anchor="middle" x="620" y="-40" font-family="Helvetica,sans-Serif" font-size="10.00">ChunkSize</text>
</a>
</g>
</g>
<!-- Node3&#45;&gt;Node8 -->
<g id="edge7" class="edge">
<title>Node3&#45;&gt;Node8</title>
<path fill="none" stroke="midnightblue" d="M513.08,-61.87C522.21,-60.67 531.71,-59.43 541.11,-58.2"/>
<polygon fill="midnightblue" stroke="midnightblue" points="541.78,-61.64 551.24,-56.87 540.87,-54.7 541.78,-61.64"/>
</g>
<!-- Node5 -->
<g id="node5" class="node">
<title>Node5</title>
<g id="a_node5"><a xlink:href="classtklb_1_1_heap_buffer.html#a25c9d8fce108ff905202bcf7a6038d3d" target="_top" xlink:title="Whether the memory is managed by the instance or is borrowed.">
<polygon fill="none" stroke="black" points="730,-152.5 730,-171.5 872,-171.5 872,-152.5 730,-152.5"/>
<text text-anchor="middle" x="801" y="-159.5" font-family="Helvetica,sans-Serif" font-size="10.00">tklb::HeapBuffer::injected</text>
</a>
</g>
</g>
<!-- Node4&#45;&gt;Node5 -->
<g id="edge4" class="edge">
<title>Node4&#45;&gt;Node5</title>
<path fill="none" stroke="midnightblue" d="M648.3,-117.55C669.62,-124.88 700.05,-135.05 727,-143 734.86,-145.32 743.24,-147.64 751.41,-149.82"/>
<polygon fill="midnightblue" stroke="midnightblue" points="750.67,-153.24 761.23,-152.4 752.45,-146.47 750.67,-153.24"/>
</g>
<!-- Node6 -->
<g id="node6" class="node">
<title>Node6</title>
<g id="a_node6"><a xlink:href="classtklb_1_1_heap_buffer.html#a23801c62dcfb74cab62a9998de65adeb" target="_top" xlink:title=" ">
<polygon fill="none" stroke="black" points="727,-114.5 727,-133.5 875,-133.5 875,-114.5 727,-114.5"/>
<text text-anchor="middle" x="801" y="-121.5" font-family="Helvetica,sans-Serif" font-size="10.00">tklb::HeapBuffer::isAligned</text>
</a>
</g>
</g>
<!-- Node4&#45;&gt;Node6 -->
<g id="edge5" class="edge">
<title>Node4&#45;&gt;Node6</title>
<path fill="none" stroke="midnightblue" d="M691.23,-114.28C699.61,-115.03 708.22,-115.8 716.76,-116.56"/>
<polygon fill="midnightblue" stroke="midnightblue" points="716.46,-120.05 726.73,-117.45 717.08,-113.07 716.46,-120.05"/>
</g>
<!-- Node7 -->
<g id="node7" class="node">
<title>Node7</title>
<g id="a_node7"><a xlink:href="namespacetklb.html#a3080595da18d742645ec41d61828a426" target="_top" xlink:title=" ">
<polygon fill="none" stroke="black" points="771,-76.5 771,-95.5 831,-95.5 831,-76.5 771,-76.5"/>
<text text-anchor="middle" x="801" y="-83.5" font-family="Helvetica,sans-Serif" font-size="10.00">tklb::min</text>
</a>
</g>
</g>
<!-- Node4&#45;&gt;Node7 -->
<g id="edge6" class="edge">
<title>Node4&#45;&gt;Node7</title>
<path fill="none" stroke="midnightblue" d="M691.23,-99.37C714.75,-96.48 740.14,-93.36 760.46,-90.86"/>
<polygon fill="midnightblue" stroke="midnightblue" points="761.1,-94.31 770.59,-89.61 760.24,-87.36 761.1,-94.31"/>
</g>
<!-- Node9 -->
<g id="node9" class="node">
<title>Node9</title>
<g id="a_node9"><a xlink:href="namespacetklb.html#a7dc2203e89c331e3c85b9e7f16fa6763" target="_top" xlink:title=" ">
<polygon fill="none" stroke="black" points="769.5,-38.5 769.5,-57.5 832.5,-57.5 832.5,-38.5 769.5,-38.5"/>
<text text-anchor="middle" x="801" y="-45.5" font-family="Helvetica,sans-Serif" font-size="10.00">tklb::max</text>
</a>
</g>
</g>
<!-- Node8&#45;&gt;Node9 -->
<g id="edge8" class="edge">
<title>Node8&#45;&gt;Node9</title>
<path fill="none" stroke="midnightblue" d="M688.67,-48C712.39,-48 738.28,-48 759.12,-48"/>
<polygon fill="midnightblue" stroke="midnightblue" points="759.22,-51.5 769.22,-48 759.22,-44.5 759.22,-51.5"/>
</g>
<!-- Node10 -->
<g id="node10" class="node">
<title>Node10</title>
<g id="a_node10"><a xlink:href="classtklb_1_1_heap_buffer.html#a172cd1dde86d1f3b0308fb0ce4a1758a" target="_top" xlink:title="Returns the amount of elements in the container.">
<polygon fill="none" stroke="black" points="740,-0.5 740,-19.5 862,-19.5 862,-0.5 740,-0.5"/>
<text text-anchor="middle" x="801" y="-7.5" font-family="Helvetica,sans-Serif" font-size="10.00">tklb::HeapBuffer::size</text>
</a>
</g>
</g>
<!-- Node8&#45;&gt;Node10 -->
<g id="edge9" class="edge">
<title>Node8&#45;&gt;Node10</title>
<path fill="none" stroke="midnightblue" d="M688.67,-33.63C707.21,-29.7 727.08,-25.48 744.83,-21.71"/>
<polygon fill="midnightblue" stroke="midnightblue" points="745.95,-25.05 755,-19.55 744.5,-18.21 745.95,-25.05"/>
</g>
</g>
</svg>
