<?xml version="1.0" encoding="UTF-8" standalone="no"?>
<!DOCTYPE svg PUBLIC "-//W3C//DTD SVG 1.1//EN"
 "http://www.w3.org/Graphics/SVG/1.1/DTD/svg11.dtd">
<!-- Generated by graphviz version 2.50.0 (0)
 -->
<!-- Title: tklb::StackBuffer::StackBuffer Pages: 1 -->
<svg width="412pt" height="61pt"
 viewBox="0.00 0.00 412.00 61.00" xmlns="http://www.w3.org/2000/svg" xmlns:xlink="http://www.w3.org/1999/xlink">
<g id="graph0" class="graph" transform="scale(1 1) rotate(0) translate(4 57)">
<title>tklb::StackBuffer::StackBuffer</title>
<!-- Node1 -->
<g id="node1" class="node">
<title>Node1</title>
<g id="a_node1"><a xlink:title="Setup the buffer with a size.">
<polygon fill="#bfbfbf" stroke="black" points="0,-0.5 0,-30.5 104,-30.5 104,-0.5 0,-0.5"/>
<text text-anchor="start" x="8" y="-18.5" font-family="Helvetica,sans-Serif" font-size="10.00">tklb::StackBuffer::</text>
<text text-anchor="middle" x="52" y="-7.5" font-family="Helvetica,sans-Serif" font-size="10.00">StackBuffer</text>
</a>
</g>
</g>
<!-- Node2 -->
<g id="node2" class="node">
<title>Node2</title>
<g id="a_node2"><a xlink:href="classtklb_1_1_stack_buffer.html#a0bc626a85358bcfd1f950be8aa983033" target="_top" xlink:title="Resize the buffer If the memory is borrowed it will become unique and owned by this instance as soon ...">
<polygon fill="none" stroke="black" points="140,-22.5 140,-52.5 244,-52.5 244,-22.5 140,-22.5"/>
<text text-anchor="start" x="148" y="-40.5" font-family="Helvetica,sans-Serif" font-size="10.00">tklb::StackBuffer::</text>
<text text-anchor="middle" x="192" y="-29.5" font-family="Helvetica,sans-Serif" font-size="10.00">resize</text>
</a>
</g>
</g>
<!-- Node1&#45;&gt;Node2 -->
<g id="edge1" class="edge">
<title>Node1&#45;&gt;Node2</title>
<path fill="none" stroke="midnightblue" d="M104.39,-23.69C112.56,-24.99 121.08,-26.35 129.46,-27.69"/>
<polygon fill="midnightblue" stroke="midnightblue" points="129.14,-31.18 139.57,-29.3 130.25,-24.27 129.14,-31.18"/>
</g>
<!-- Node3 -->
<g id="node3" class="node">
<title>Node3</title>
<g id="a_node3"><a xlink:href="classtklb_1_1_stack_buffer.html#a7a3ff930c2207f6b4649facb372bea1b" target="_top" xlink:title="Returns the amount of elements in the container.">
<polygon fill="none" stroke="black" points="280,-6 280,-25 404,-25 404,-6 280,-6"/>
<text text-anchor="middle" x="342" y="-13" font-family="Helvetica,sans-Serif" font-size="10.00">tklb::StackBuffer::size</text>
</a>
</g>
</g>
<!-- Node1&#45;&gt;Node3 -->
<g id="edge3" class="edge">
<title>Node1&#45;&gt;Node3</title>
<path fill="none" stroke="midnightblue" d="M104.06,-14.13C115.86,-13.87 128.37,-13.63 140,-13.5 186.22,-12.97 197.78,-13.02 244,-13.5 252.35,-13.59 261.11,-13.71 269.8,-13.86"/>
<polygon fill="midnightblue" stroke="midnightblue" points="269.88,-17.37 279.95,-14.05 270.01,-10.37 269.88,-17.37"/>
</g>
<!-- Node2&#45;&gt;Node3 -->
<g id="edge2" class="edge">
<title>Node2&#45;&gt;Node3</title>
<path fill="none" stroke="midnightblue" d="M244.35,-29.87C252.57,-28.65 261.2,-27.36 269.79,-26.09"/>
<polygon fill="midnightblue" stroke="midnightblue" points="270.44,-29.53 279.81,-24.6 269.41,-22.6 270.44,-29.53"/>
</g>
</g>
</svg>
