<?xml version="1.0" encoding="UTF-8" standalone="no"?>
<!DOCTYPE svg PUBLIC "-//W3C//DTD SVG 1.1//EN"
 "http://www.w3.org/Graphics/SVG/1.1/DTD/svg11.dtd">
<!-- Generated by graphviz version 2.50.0 (0)
 -->
<!-- Title: vae::core::BankManager::load Pages: 1 -->
<!--zoomable 480 -->
<svg id="main" version="1.1" xmlns="http://www.w3.org/2000/svg" xmlns:xlink="http://www.w3.org/1999/xlink" xml:space="preserve" onload="init(evt)">
<style type="text/css"><![CDATA[
.edge:hover path { stroke: red; }
.edge:hover polygon { stroke: red; fill: red; }
]]></style>
<script type="text/javascript"><![CDATA[
var edges = document.getElementsByTagName('g');
if (edges && edges.length) {
  for (var i=0;i<edges.length;i++) {
    if (edges[i].id.substr(0,4)=='edge') {
      edges[i].setAttribute('class','edge');
    }
  }
}
]]></script>
        <defs>
                <circle id="rim" cx="0" cy="0" r="7"/>
                <circle id="rim2" cx="0" cy="0" r="3.5"/>
                <g id="zoomPlus">
                        <use xlink:href="#rim" fill="#404040">
                                <set attributeName="fill" to="#808080" begin="zoomplus.mouseover" end="zoomplus.mouseout"/>
                        </use>
                        <path d="M-4,0h8M0,-4v8" fill="none" stroke="white" stroke-width="1.5" pointer-events="none"/>
                </g>
                <g id="zoomMin">
                        <use xlink:href="#rim" fill="#404040">
                                <set attributeName="fill" to="#808080" begin="zoomminus.mouseover" end="zoomminus.mouseout"/>
                        </use>
                        <path d="M-4,0h8" fill="none" stroke="white" stroke-width="1.5" pointer-events="none"/>
                </g>
                <g id="dirArrow">
                        <path fill="none" stroke="white" stroke-width="1.5" d="M0,-3.0v7 M-2.5,-0.5L0,-3.0L2.5,-0.5"/>
                </g>
               <g id="resetDef">
                       <use xlink:href="#rim2" fill="#404040">
                               <set attributeName="fill" to="#808080" begin="reset.mouseover" end="reset.mouseout"/>
                       </use>
               </g>
        </defs>

<script type="text/javascript">
var viewWidth = 762;
var viewHeight = 480;
var sectionId = 'dynsection-14';
</script>
<script xlink:href="svgpan.js"/>
<svg id="graph" class="graph">
<g id="viewport">
<title>vae::core::BankManager::load</title>
<!-- Node1 -->
<g id="node1" class="node">
<title>Node1</title>
<g id="a_node1"><a xlink:title=" ">
<polygon fill="#bfbfbf" stroke="black" points="0,-191.5 0,-221.5 134,-221.5 134,-191.5 0,-191.5"/>
<text text-anchor="start" x="8" y="-209.5" font-family="Helvetica,sans-Serif" font-size="10.00">vae::core::BankManager</text>
<text text-anchor="middle" x="67" y="-198.5" font-family="Helvetica,sans-Serif" font-size="10.00">::load</text>
</a>
</g>
</g>
<!-- Node1&#45;&gt;Node1 -->
<g id="edge27" class="edge">
<title>Node1&#45;&gt;Node1</title>
<path fill="none" stroke="midnightblue" d="M38.42,-221.66C31.53,-231.06 41.05,-240 67,-240 82.81,-240 92.52,-236.68 96.14,-231.96"/>
<polygon fill="midnightblue" stroke="midnightblue" points="99.62,-231.45 95.58,-221.66 92.63,-231.83 99.62,-231.45"/>
</g>
<!-- Node2 -->
<g id="node2" class="node">
<title>Node2</title>
<g id="a_node2"><a xlink:href="classvae_1_1core_1_1_bank_loader.html#a2a1f294f67b451b337f65b033dd6f0bd" target="_top" xlink:title="Load a bank.json and all wav files referenced in it.">
<polygon fill="none" stroke="black" points="170,-191.5 170,-221.5 295,-221.5 295,-191.5 170,-191.5"/>
<text text-anchor="start" x="178" y="-209.5" font-family="Helvetica,sans-Serif" font-size="10.00">vae::core::BankLoader</text>
<text text-anchor="middle" x="232.5" y="-198.5" font-family="Helvetica,sans-Serif" font-size="10.00">::load</text>
</a>
</g>
</g>
<!-- Node1&#45;&gt;Node2 -->
<g id="edge1" class="edge">
<title>Node1&#45;&gt;Node2</title>
<path fill="none" stroke="midnightblue" d="M134.03,-206.5C142.57,-206.5 151.34,-206.5 159.96,-206.5"/>
<polygon fill="midnightblue" stroke="midnightblue" points="159.98,-210 169.98,-206.5 159.98,-203 159.98,-210"/>
</g>
<!-- Node3 -->
<g id="node3" class="node">
<title>Node3</title>
<g id="a_node3"><a xlink:href="classvae_1_1core_1_1_bank_loader.html#aa6ba40f8098e00d26c335490092fa10a" target="_top" xlink:title=" ">
<polygon fill="none" stroke="black" points="335.5,-441.5 335.5,-471.5 460.5,-471.5 460.5,-441.5 335.5,-441.5"/>
<text text-anchor="start" x="343.5" y="-459.5" font-family="Helvetica,sans-Serif" font-size="10.00">vae::core::BankLoader</text>
<text text-anchor="middle" x="398" y="-448.5" font-family="Helvetica,sans-Serif" font-size="10.00">::allocate</text>
</a>
</g>
</g>
<!-- Node2&#45;&gt;Node3 -->
<g id="edge2" class="edge">
<title>Node2&#45;&gt;Node3</title>
<path fill="none" stroke="midnightblue" d="M236.33,-221.69C244.34,-260.67 270.58,-365.51 331,-426.5 334.62,-430.15 338.76,-433.4 343.17,-436.28"/>
<polygon fill="midnightblue" stroke="midnightblue" points="341.5,-439.36 351.9,-441.39 345.03,-433.32 341.5,-439.36"/>
</g>
<!-- Node6 -->
<g id="node6" class="node">
<title>Node6</title>
<g id="a_node6"><a xlink:href="classtklb_1_1_string.html#a94e674695ef958e3a4d7778c7235856b" target="_top" xlink:title=" ">
<polygon fill="none" stroke="black" points="503.5,-327 503.5,-346 615.5,-346 615.5,-327 503.5,-327"/>
<text text-anchor="middle" x="559.5" y="-334" font-family="Helvetica,sans-Serif" font-size="10.00">tklb::String::append</text>
</a>
</g>
</g>
<!-- Node2&#45;&gt;Node6 -->
<g id="edge5" class="edge">
<title>Node2&#45;&gt;Node6</title>
<path fill="none" stroke="midnightblue" d="M263.93,-221.69C283.01,-231.01 308.22,-242.94 331,-252.5 396.69,-280.06 474.93,-307.89 520.43,-323.58"/>
<polygon fill="midnightblue" stroke="midnightblue" points="519.58,-326.99 530.17,-326.93 521.85,-320.37 519.58,-326.99"/>
</g>
<!-- Node7 -->
<g id="node7" class="node">
<title>Node7</title>
<g id="a_node7"><a xlink:href="classtklb_1_1_string.html#a2fd6f1c6342e803119507c94cd3c6b76" target="_top" xlink:title=" ">
<polygon fill="none" stroke="black" points="656.5,-327 656.5,-346 751.5,-346 751.5,-327 656.5,-327"/>
<text text-anchor="middle" x="704" y="-334" font-family="Helvetica,sans-Serif" font-size="10.00">tklb::String::size</text>
</a>
</g>
</g>
<!-- Node2&#45;&gt;Node7 -->
<g id="edge26" class="edge">
<title>Node2&#45;&gt;Node7</title>
<path fill="none" stroke="midnightblue" d="M236.03,-221.72C243.14,-259.02 267.13,-354.77 331,-393.5 445.25,-462.78 614.35,-385 677.77,-350.9"/>
<polygon fill="midnightblue" stroke="midnightblue" points="679.59,-353.9 686.67,-346.02 676.22,-347.76 679.59,-353.9"/>
</g>
<!-- Node8 -->
<g id="node8" class="node">
<title>Node8</title>
<g id="a_node8"><a xlink:href="classtklb_1_1_string.html#a2551f7f99fab1486f3d13b3a363824c5" target="_top" xlink:title=" ">
<polygon fill="none" stroke="black" points="510,-175 510,-194 609,-194 609,-175 510,-175"/>
<text text-anchor="middle" x="559.5" y="-182" font-family="Helvetica,sans-Serif" font-size="10.00">tklb::String::c_str</text>
</a>
</g>
</g>
<!-- Node2&#45;&gt;Node8 -->
<g id="edge7" class="edge">
<title>Node2&#45;&gt;Node8</title>
<path fill="none" stroke="midnightblue" d="M295.01,-202.34C353.86,-198.35 441.99,-192.39 499.86,-188.47"/>
<polygon fill="midnightblue" stroke="midnightblue" points="500.21,-191.95 509.95,-187.79 499.74,-184.97 500.21,-191.95"/>
</g>
<!-- Node9 -->
<g id="node9" class="node">
<title>Node9</title>
<g id="a_node9"><a xlink:href="classtklb_1_1_string.html#af160751fb9fbb7cba71b281db77ce9e5" target="_top" xlink:title=" ">
<polygon fill="none" stroke="black" points="510.5,-137 510.5,-156 608.5,-156 608.5,-137 510.5,-137"/>
<text text-anchor="middle" x="559.5" y="-144" font-family="Helvetica,sans-Serif" font-size="10.00">tklb::String::data</text>
</a>
</g>
</g>
<!-- Node2&#45;&gt;Node9 -->
<g id="edge8" class="edge">
<title>Node2&#45;&gt;Node9</title>
<path fill="none" stroke="midnightblue" d="M295.11,-194.36C307.01,-192.05 319.39,-189.68 331,-187.5 388.39,-176.74 454.03,-164.96 500.01,-156.81"/>
<polygon fill="midnightblue" stroke="midnightblue" points="500.85,-160.21 510.09,-155.02 499.63,-153.32 500.85,-160.21"/>
</g>
<!-- Node10 -->
<g id="node10" class="node">
<title>Node10</title>
<g id="a_node10"><a xlink:href="classvae_1_1core_1_1_bank_loader.html#ac042f4214d94fbf928eb6c34689b7549" target="_top" xlink:title=" ">
<polygon fill="none" stroke="black" points="335.5,-3.5 335.5,-33.5 460.5,-33.5 460.5,-3.5 335.5,-3.5"/>
<text text-anchor="start" x="343.5" y="-21.5" font-family="Helvetica,sans-Serif" font-size="10.00">vae::core::BankLoader</text>
<text text-anchor="middle" x="398" y="-10.5" font-family="Helvetica,sans-Serif" font-size="10.00">::deallocate</text>
</a>
</g>
</g>
<!-- Node2&#45;&gt;Node10 -->
<g id="edge9" class="edge">
<title>Node2&#45;&gt;Node10</title>
<path fill="none" stroke="midnightblue" d="M239.99,-191.22C253.26,-161.44 286.1,-94.95 331,-53.5 337.03,-47.93 344.11,-42.98 351.36,-38.68"/>
<polygon fill="midnightblue" stroke="midnightblue" points="353.51,-41.49 360.55,-33.58 350.11,-35.36 353.51,-41.49"/>
</g>
<!-- Node12 -->
<g id="node12" class="node">
<title>Node12</title>
<g id="a_node12"><a xlink:href="structvae_1_1core_1_1_source_loader.html#a7b5866ab44cf2f34a15f3a62b40fe4f4" target="_top" xlink:title="Loads a wav file for the resource.">
<polygon fill="none" stroke="black" points="331,-213.5 331,-243.5 465,-243.5 465,-213.5 331,-213.5"/>
<text text-anchor="start" x="339" y="-231.5" font-family="Helvetica,sans-Serif" font-size="10.00">vae::core::SourceLoader</text>
<text text-anchor="middle" x="398" y="-220.5" font-family="Helvetica,sans-Serif" font-size="10.00">::load</text>
</a>
</g>
</g>
<!-- Node2&#45;&gt;Node12 -->
<g id="edge11" class="edge">
<title>Node2&#45;&gt;Node12</title>
<path fill="none" stroke="midnightblue" d="M295.31,-214.82C303.63,-215.94 312.24,-217.1 320.78,-218.24"/>
<polygon fill="midnightblue" stroke="midnightblue" points="320.36,-221.72 330.73,-219.58 321.29,-214.78 320.36,-221.72"/>
</g>
<!-- Node13 -->
<g id="node13" class="node">
<title>Node13</title>
<g id="a_node13"><a xlink:href="classvae_1_1core_1_1fs_1_1_file.html#a9b11ebabdce39848566a1bf4b225d7c2" target="_top" xlink:title=" ">
<polygon fill="none" stroke="black" points="509.5,-49.5 509.5,-79.5 609.5,-79.5 609.5,-49.5 509.5,-49.5"/>
<text text-anchor="start" x="517.5" y="-67.5" font-family="Helvetica,sans-Serif" font-size="10.00">vae::core::fs::File</text>
<text text-anchor="middle" x="559.5" y="-56.5" font-family="Helvetica,sans-Serif" font-size="10.00">::readAll</text>
</a>
</g>
</g>
<!-- Node2&#45;&gt;Node13 -->
<g id="edge22" class="edge">
<title>Node2&#45;&gt;Node13</title>
<path fill="none" stroke="midnightblue" d="M241.67,-191.45C256.08,-166.56 288.53,-117.31 331,-94.5 382.99,-66.58 450.99,-60.93 499.06,-61.12"/>
<polygon fill="midnightblue" stroke="midnightblue" points="499.26,-64.62 509.3,-61.25 499.35,-57.62 499.26,-64.62"/>
</g>
<!-- Node14 -->
<g id="node14" class="node">
<title>Node14</title>
<g id="a_node14"><a xlink:href="classvae_1_1core_1_1fs_1_1_file.html#a01e51acff408d0449c1b524c40596470" target="_top" xlink:title=" ">
<polygon fill="none" stroke="black" points="654,-93.5 654,-123.5 754,-123.5 754,-93.5 654,-93.5"/>
<text text-anchor="start" x="662" y="-111.5" font-family="Helvetica,sans-Serif" font-size="10.00">vae::core::fs::File</text>
<text text-anchor="middle" x="704" y="-100.5" font-family="Helvetica,sans-Serif" font-size="10.00">::size</text>
</a>
</g>
</g>
<!-- Node2&#45;&gt;Node14 -->
<g id="edge25" class="edge">
<title>Node2&#45;&gt;Node14</title>
<path fill="none" stroke="midnightblue" d="M260.9,-191.31C280.04,-181.27 306.45,-168.53 331,-160.5 437.69,-125.58 569.12,-114.11 643.76,-110.34"/>
<polygon fill="midnightblue" stroke="midnightblue" points="644.08,-113.83 653.91,-109.86 643.75,-106.84 644.08,-113.83"/>
</g>
<!-- Node17 -->
<g id="node17" class="node">
<title>Node17</title>
<g id="a_node17"><a xlink:href="classtklb_1_1_string.html#a6106e1733cc6c09b98bd203f8a9a2653" target="_top" xlink:title=" ">
<polygon fill="none" stroke="black" points="345.5,-365 345.5,-384 450.5,-384 450.5,-365 345.5,-365"/>
<text text-anchor="middle" x="398" y="-372" font-family="Helvetica,sans-Serif" font-size="10.00">tklb::String::resize</text>
</a>
</g>
</g>
<!-- Node2&#45;&gt;Node17 -->
<g id="edge23" class="edge">
<title>Node2&#45;&gt;Node17</title>
<path fill="none" stroke="midnightblue" d="M245.45,-221.63C263.19,-243.77 297.98,-285.9 331,-318.5 345.39,-332.7 362.88,-347.44 376.24,-358.23"/>
<polygon fill="midnightblue" stroke="midnightblue" points="374.35,-361.21 384.35,-364.71 378.72,-355.74 374.35,-361.21"/>
</g>
<!-- Node4 -->
<g id="node4" class="node">
<title>Node4</title>
<g id="a_node4"><a xlink:href="structvae_1_1core_1_1memory_1_1_allocator.html#ab9d50dc662897c7fe691368feffa2f98" target="_top" xlink:title=" ">
<polygon fill="none" stroke="black" points="502,-441.5 502,-471.5 617,-471.5 617,-441.5 502,-441.5"/>
<text text-anchor="start" x="510" y="-459.5" font-family="Helvetica,sans-Serif" font-size="10.00">vae::core::memory::</text>
<text text-anchor="middle" x="559.5" y="-448.5" font-family="Helvetica,sans-Serif" font-size="10.00">Allocator::allocate</text>
</a>
</g>
</g>
<!-- Node3&#45;&gt;Node4 -->
<g id="edge3" class="edge">
<title>Node3&#45;&gt;Node4</title>
<path fill="none" stroke="midnightblue" d="M460.67,-456.5C470.86,-456.5 481.46,-456.5 491.77,-456.5"/>
<polygon fill="midnightblue" stroke="midnightblue" points="491.95,-460 501.95,-456.5 491.95,-453 491.95,-460"/>
</g>
<!-- Node5 -->
<g id="node5" class="node">
<title>Node5</title>
<g id="a_node5"><a xlink:href="namespacetklb.html#a7dc2203e89c331e3c85b9e7f16fa6763" target="_top" xlink:title=" ">
<polygon fill="none" stroke="black" points="672.5,-447 672.5,-466 735.5,-466 735.5,-447 672.5,-447"/>
<text text-anchor="middle" x="704" y="-454" font-family="Helvetica,sans-Serif" font-size="10.00">tklb::max</text>
</a>
</g>
</g>
<!-- Node4&#45;&gt;Node5 -->
<g id="edge4" class="edge">
<title>Node4&#45;&gt;Node5</title>
<path fill="none" stroke="midnightblue" d="M617.23,-456.5C632.2,-456.5 648.06,-456.5 662.01,-456.5"/>
<polygon fill="midnightblue" stroke="midnightblue" points="662.27,-460 672.27,-456.5 662.27,-453 662.27,-460"/>
</g>
<!-- Node6&#45;&gt;Node7 -->
<g id="edge6" class="edge">
<title>Node6&#45;&gt;Node7</title>
<path fill="none" stroke="midnightblue" d="M615.59,-336.5C625.59,-336.5 636.04,-336.5 646.09,-336.5"/>
<polygon fill="midnightblue" stroke="midnightblue" points="646.38,-340 656.38,-336.5 646.38,-333 646.38,-340"/>
</g>
<!-- Node11 -->
<g id="node11" class="node">
<title>Node11</title>
<g id="a_node11"><a xlink:href="structvae_1_1core_1_1memory_1_1_allocator.html#ad43fb821d811e939ff461747efcaca6e" target="_top" xlink:title=" ">
<polygon fill="none" stroke="black" points="501,-0.5 501,-30.5 618,-30.5 618,-0.5 501,-0.5"/>
<text text-anchor="start" x="509" y="-18.5" font-family="Helvetica,sans-Serif" font-size="10.00">vae::core::memory::</text>
<text text-anchor="middle" x="559.5" y="-7.5" font-family="Helvetica,sans-Serif" font-size="10.00">Allocator::deallocate</text>
</a>
</g>
</g>
<!-- Node10&#45;&gt;Node11 -->
<g id="edge10" class="edge">
<title>Node10&#45;&gt;Node11</title>
<path fill="none" stroke="midnightblue" d="M460.67,-17.34C470.49,-17.16 480.7,-16.96 490.66,-16.78"/>
<polygon fill="midnightblue" stroke="midnightblue" points="490.99,-20.27 500.92,-16.58 490.85,-13.27 490.99,-20.27"/>
</g>
<!-- Node12&#45;&gt;Node6 -->
<g id="edge12" class="edge">
<title>Node12&#45;&gt;Node6</title>
<path fill="none" stroke="midnightblue" d="M414.49,-243.76C433.58,-261.94 467.59,-292.38 501,-312.5 507.43,-316.38 514.61,-319.91 521.65,-323.01"/>
<polygon fill="midnightblue" stroke="midnightblue" points="520.5,-326.33 531.08,-326.96 523.21,-319.87 520.5,-326.33"/>
</g>
<!-- Node12&#45;&gt;Node7 -->
<g id="edge21" class="edge">
<title>Node12&#45;&gt;Node7</title>
<path fill="none" stroke="midnightblue" d="M425.64,-243.56C445.86,-254.56 474.6,-269.28 501,-279.5 550.6,-298.7 609.31,-314.54 650.61,-324.6"/>
<polygon fill="midnightblue" stroke="midnightblue" points="649.92,-328.04 660.46,-326.97 651.56,-321.23 649.92,-328.04"/>
</g>
<!-- Node12&#45;&gt;Node8 -->
<g id="edge13" class="edge">
<title>Node12&#45;&gt;Node8</title>
<path fill="none" stroke="midnightblue" d="M453.44,-213.48C473.18,-208.04 495.22,-201.96 514,-196.78"/>
<polygon fill="midnightblue" stroke="midnightblue" points="515.07,-200.11 523.78,-194.08 513.21,-193.36 515.07,-200.11"/>
</g>
<!-- Node12&#45;&gt;Node9 -->
<g id="edge14" class="edge">
<title>Node12&#45;&gt;Node9</title>
<path fill="none" stroke="midnightblue" d="M420.06,-213.45C440.13,-199.61 471.57,-179.22 501,-165.5 505.65,-163.33 510.61,-161.3 515.6,-159.44"/>
<polygon fill="midnightblue" stroke="midnightblue" points="516.89,-162.69 525.15,-156.05 514.55,-156.09 516.89,-162.69"/>
</g>
<!-- Node12&#45;&gt;Node13 -->
<g id="edge15" class="edge">
<title>Node12&#45;&gt;Node13</title>
<path fill="none" stroke="midnightblue" d="M413.72,-213.37C441.85,-184.44 503.38,-121.17 536.44,-87.18"/>
<polygon fill="midnightblue" stroke="midnightblue" points="539.35,-89.21 543.82,-79.6 534.33,-84.33 539.35,-89.21"/>
</g>
<!-- Node12&#45;&gt;Node14 -->
<g id="edge20" class="edge">
<title>Node12&#45;&gt;Node14</title>
<path fill="none" stroke="midnightblue" d="M465.3,-232.92C510.68,-233.17 570.92,-227.85 618,-203.5 649.1,-187.42 674.22,-154.93 688.88,-132.46"/>
<polygon fill="midnightblue" stroke="midnightblue" points="691.96,-134.14 694.33,-123.81 686.04,-130.4 691.96,-134.14"/>
</g>
<!-- Node16 -->
<g id="node16" class="node">
<title>Node16</title>
<g id="a_node16"><a xlink:href="classtklb_1_1_string.html#a13d38526ab9032342f2d3ced3e6062a9" target="_top" xlink:title=" ">
<polygon fill="none" stroke="black" points="503,-251 503,-270 616,-270 616,-251 503,-251"/>
<text text-anchor="middle" x="559.5" y="-258" font-family="Helvetica,sans-Serif" font-size="10.00">tklb::String::reserve</text>
</a>
</g>
</g>
<!-- Node12&#45;&gt;Node16 -->
<g id="edge18" class="edge">
<title>Node12&#45;&gt;Node16</title>
<path fill="none" stroke="midnightblue" d="M465.26,-241.79C477.04,-244.16 489.23,-246.6 500.75,-248.91"/>
<polygon fill="midnightblue" stroke="midnightblue" points="500.19,-252.37 510.68,-250.91 501.56,-245.51 500.19,-252.37"/>
</g>
<!-- Node13&#45;&gt;Node14 -->
<g id="edge16" class="edge">
<title>Node13&#45;&gt;Node14</title>
<path fill="none" stroke="midnightblue" d="M609.14,-79.52C620.48,-83.02 632.67,-86.78 644.39,-90.4"/>
<polygon fill="midnightblue" stroke="midnightblue" points="643.51,-93.79 654.09,-93.4 645.57,-87.1 643.51,-93.79"/>
</g>
<!-- Node15 -->
<g id="node15" class="node">
<title>Node15</title>
<g id="a_node15"><a xlink:href="vae__fs_8hpp.html#a82978d110bb709013681115bb44e48ae" target="_top" xlink:title=" ">
<polygon fill="none" stroke="black" points="662.5,-55 662.5,-74 745.5,-74 745.5,-55 662.5,-55"/>
<text text-anchor="middle" x="704" y="-62" font-family="Helvetica,sans-Serif" font-size="10.00">vae_file_read</text>
</a>
</g>
</g>
<!-- Node13&#45;&gt;Node15 -->
<g id="edge17" class="edge">
<title>Node13&#45;&gt;Node15</title>
<path fill="none" stroke="midnightblue" d="M609.54,-64.5C623.27,-64.5 638.22,-64.5 652.06,-64.5"/>
<polygon fill="midnightblue" stroke="midnightblue" points="652.38,-68 662.38,-64.5 652.38,-61 652.38,-68"/>
</g>
<!-- Node16&#45;&gt;Node7 -->
<g id="edge19" class="edge">
<title>Node16&#45;&gt;Node7</title>
<path fill="none" stroke="midnightblue" d="M585.79,-270.08C595.96,-274.18 607.69,-279.24 618,-284.5 639.84,-295.65 663.55,-310.4 680.37,-321.34"/>
<polygon fill="midnightblue" stroke="midnightblue" points="678.67,-324.41 688.95,-326.98 682.51,-318.56 678.67,-324.41"/>
</g>
<!-- Node17&#45;&gt;Node7 -->
<g id="edge24" class="edge">
<title>Node17&#45;&gt;Node7</title>
<path fill="none" stroke="midnightblue" d="M450.56,-371.97C495.09,-369.33 561.05,-364.3 618,-355.5 630.26,-353.61 643.39,-350.98 655.57,-348.27"/>
<polygon fill="midnightblue" stroke="midnightblue" points="656.57,-351.64 665.55,-346 655.02,-344.81 656.57,-351.64"/>
</g>
</g>
</svg>
        <g id="navigator" transform="translate(0 0)" fill="#404254">
                <rect fill="#f2f5e9" fill-opacity="0.5" stroke="#606060" stroke-width=".5" x="0" y="0" width="60" height="60"/>
                <use id="zoomplus" xlink:href="#zoomPlus" x="17" y="9" onmousedown="handleZoom(evt,'in')"/>
                <use id="zoomminus" xlink:href="#zoomMin" x="42" y="9" onmousedown="handleZoom(evt,'out')"/>
                <use id="reset" xlink:href="#resetDef" x="30" y="36" onmousedown="handleReset()"/>
                <g id="arrowUp" xlink:href="#dirArrow" transform="translate(30 24)" onmousedown="handlePan(0,-1)">
                  <use xlink:href="#rim" fill="#404040">
                        <set attributeName="fill" to="#808080" begin="arrowUp.mouseover" end="arrowUp.mouseout"/>
                  </use>
                  <path fill="none" stroke="white" stroke-width="1.5" d="M0,-3.0v7 M-2.5,-0.5L0,-3.0L2.5,-0.5"/>
                </g>
                <g id="arrowRight" xlink:href="#dirArrow" transform="rotate(90) translate(36 -43)" onmousedown="handlePan(1,0)">
                  <use xlink:href="#rim" fill="#404040">
                        <set attributeName="fill" to="#808080" begin="arrowRight.mouseover" end="arrowRight.mouseout"/>
                  </use>
                  <path fill="none" stroke="white" stroke-width="1.5" d="M0,-3.0v7 M-2.5,-0.5L0,-3.0L2.5,-0.5"/>
                </g>
                <g id="arrowDown" xlink:href="#dirArrow" transform="rotate(180) translate(-30 -48)" onmousedown="handlePan(0,1)">
                  <use xlink:href="#rim" fill="#404040">
                        <set attributeName="fill" to="#808080" begin="arrowDown.mouseover" end="arrowDown.mouseout"/>
                  </use>
                  <path fill="none" stroke="white" stroke-width="1.5" d="M0,-3.0v7 M-2.5,-0.5L0,-3.0L2.5,-0.5"/>
                </g>
                <g id="arrowLeft" xlink:href="#dirArrow" transform="rotate(270) translate(-36 17)" onmousedown="handlePan(-1,0)">
                  <use xlink:href="#rim" fill="#404040">
                        <set attributeName="fill" to="#808080" begin="arrowLeft.mouseover" end="arrowLeft.mouseout"/>
                  </use>
                  <path fill="none" stroke="white" stroke-width="1.5" d="M0,-3.0v7 M-2.5,-0.5L0,-3.0L2.5,-0.5"/>
                </g>
        </g>
        <svg viewBox="0 0 15 15" width="100%" height="30px" preserveAspectRatio="xMaxYMin meet">
         <g id="arrow_out" transform="scale(0.3 0.3)">
          <a xlink:href="classvae_1_1core_1_1_bank_manager_a246219d73b46775ec119e704c758dd0b_cgraph_org.svg" target="_base">
           <rect id="button" ry="5" rx="5" y="6" x="6" height="38" width="38"
                fill="#f2f5e9" fill-opacity="0.5" stroke="#606060" stroke-width="1.0"/>
           <path id="arrow"
             d="M 11.500037,31.436501 C 11.940474,20.09759 22.043105,11.32322 32.158766,21.979434 L 37.068811,17.246167 C 37.068811,17.246167 37.088388,32 37.088388,32 L 22.160133,31.978069 C 22.160133,31.978069 26.997745,27.140456 26.997745,27.140456 C 18.528582,18.264221 13.291696,25.230495 11.500037,31.436501 z"
             style="fill:#404040;"/>
          </a>
         </g>
        </svg>
</svg>
