<?xml version="1.0" encoding="UTF-8" standalone="no"?>
<!DOCTYPE svg PUBLIC "-//W3C//DTD SVG 1.1//EN"
 "http://www.w3.org/Graphics/SVG/1.1/DTD/svg11.dtd">
<!-- Generated by graphviz version 2.50.0 (0)
 -->
<!-- Title: tklb::ResamplerCosineTpl&lt; T &gt; Pages: 1 -->
<svg width="330pt" height="281pt"
 viewBox="0.00 0.00 329.50 281.00" xmlns="http://www.w3.org/2000/svg" xmlns:xlink="http://www.w3.org/1999/xlink">
<g id="graph0" class="graph" transform="scale(1 1) rotate(0) translate(4 277)">
<title>tklb::ResamplerCosineTpl&lt; T &gt;</title>
<!-- Node1 -->
<g id="node1" class="node">
<title>Node1</title>
<g id="a_node1"><a xlink:title=" ">
<polygon fill="#bfbfbf" stroke="black" points="40.5,-0.5 40.5,-156.5 210.5,-156.5 210.5,-0.5 40.5,-0.5"/>
<text text-anchor="middle" x="125.5" y="-144.5" font-family="Helvetica,sans-Serif" font-size="10.00">tklb::ResamplerCosineTpl&lt; T &gt;</text>
<polyline fill="none" stroke="black" points="40.5,-137.5 210.5,-137.5 "/>
<text text-anchor="middle" x="125.5" y="-125.5" font-family="Helvetica,sans-Serif" font-size="10.00"> </text>
<polyline fill="none" stroke="black" points="40.5,-118.5 210.5,-118.5 "/>
<text text-anchor="start" x="48.5" y="-106.5" font-family="Helvetica,sans-Serif" font-size="10.00">+ ResamplerCosineTpl()</text>
<text text-anchor="start" x="48.5" y="-95.5" font-family="Helvetica,sans-Serif" font-size="10.00">+ ResamplerCosineTpl()</text>
<text text-anchor="start" x="48.5" y="-84.5" font-family="Helvetica,sans-Serif" font-size="10.00">+ init()</text>
<text text-anchor="start" x="48.5" y="-73.5" font-family="Helvetica,sans-Serif" font-size="10.00">+ process()</text>
<text text-anchor="start" x="48.5" y="-62.5" font-family="Helvetica,sans-Serif" font-size="10.00">+ getLatency()</text>
<text text-anchor="start" x="48.5" y="-51.5" font-family="Helvetica,sans-Serif" font-size="10.00">+ estimateNeed()</text>
<text text-anchor="start" x="48.5" y="-40.5" font-family="Helvetica,sans-Serif" font-size="10.00">+ estimateOut()</text>
<text text-anchor="start" x="48.5" y="-29.5" font-family="Helvetica,sans-Serif" font-size="10.00">+ isInitialized()</text>
<text text-anchor="start" x="48.5" y="-18.5" font-family="Helvetica,sans-Serif" font-size="10.00">+ calculateBufferSize()</text>
<text text-anchor="start" x="48.5" y="-7.5" font-family="Helvetica,sans-Serif" font-size="10.00">+ resample()</text>
</a>
</g>
</g>
<!-- Node2 -->
<g id="node2" class="node">
<title>Node2</title>
<g id="a_node2"><a xlink:title=" ">
<polygon fill="none" stroke="#bfbfbf" points="0,-215.5 0,-272.5 29,-272.5 29,-215.5 0,-215.5"/>
<text text-anchor="middle" x="14.5" y="-260.5" font-family="Helvetica,sans-Serif" font-size="10.00">int</text>
<polyline fill="none" stroke="#bfbfbf" points="0,-253.5 29,-253.5 "/>
<text text-anchor="middle" x="14.5" y="-241.5" font-family="Helvetica,sans-Serif" font-size="10.00"> </text>
<polyline fill="none" stroke="#bfbfbf" points="0,-234.5 29,-234.5 "/>
<text text-anchor="middle" x="14.5" y="-222.5" font-family="Helvetica,sans-Serif" font-size="10.00"> </text>
</a>
</g>
</g>
<!-- Node2&#45;&gt;Node1 -->
<g id="edge1" class="edge">
<title>Node2&#45;&gt;Node1</title>
<path fill="none" stroke="#404040" d="M18,-215.28C20.46,-202.43 24.59,-187.31 31.5,-175 33.1,-172.15 34.81,-169.33 36.6,-166.53"/>
<polygon fill="none" stroke="#404040" points="36.67,-166.44 36.78,-159.23 43.48,-156.56 43.36,-163.77 36.67,-166.44"/>
<text text-anchor="middle" x="58.5" y="-189" font-family="Helvetica,sans-Serif" font-size="10.00"> &#45;mRateIn</text>
<text text-anchor="middle" x="58.5" y="-178" font-family="Helvetica,sans-Serif" font-size="10.00">&#45;mRateOut</text>
</g>
<!-- Node3 -->
<g id="node3" class="node">
<title>Node3</title>
<g id="a_node3"><a xlink:title=" ">
<polygon fill="none" stroke="#bfbfbf" points="66.5,-215.5 66.5,-272.5 116.5,-272.5 116.5,-215.5 66.5,-215.5"/>
<text text-anchor="middle" x="91.5" y="-260.5" font-family="Helvetica,sans-Serif" font-size="10.00">double</text>
<polyline fill="none" stroke="#bfbfbf" points="66.5,-253.5 116.5,-253.5 "/>
<text text-anchor="middle" x="91.5" y="-241.5" font-family="Helvetica,sans-Serif" font-size="10.00"> </text>
<polyline fill="none" stroke="#bfbfbf" points="66.5,-234.5 116.5,-234.5 "/>
<text text-anchor="middle" x="91.5" y="-222.5" font-family="Helvetica,sans-Serif" font-size="10.00"> </text>
</a>
</g>
</g>
<!-- Node3&#45;&gt;Node1 -->
<g id="edge2" class="edge">
<title>Node3&#45;&gt;Node1</title>
<path fill="none" stroke="#404040" d="M89.93,-215.35C89.73,-202.93 90.19,-188.14 92.5,-175 92.88,-172.83 93.3,-170.64 93.77,-168.44"/>
<polygon fill="none" stroke="#404040" points="93.8,-168.29 91.28,-161.53 96.55,-156.61 99.07,-163.37 93.8,-168.29"/>
<text text-anchor="middle" x="115.5" y="-183.5" font-family="Helvetica,sans-Serif" font-size="10.00"> &#45;mFactor</text>
</g>
<!-- Node4 -->
<g id="node4" class="node">
<title>Node4</title>
<g id="a_node4"><a xlink:title=" ">
<polygon fill="none" stroke="#bfbfbf" points="146,-215.5 146,-272.5 175,-272.5 175,-215.5 146,-215.5"/>
<text text-anchor="middle" x="160.5" y="-260.5" font-family="Helvetica,sans-Serif" font-size="10.00">T</text>
<polyline fill="none" stroke="#bfbfbf" points="146,-253.5 175,-253.5 "/>
<text text-anchor="middle" x="160.5" y="-241.5" font-family="Helvetica,sans-Serif" font-size="10.00"> </text>
<polyline fill="none" stroke="#bfbfbf" points="146,-234.5 175,-234.5 "/>
<text text-anchor="middle" x="160.5" y="-222.5" font-family="Helvetica,sans-Serif" font-size="10.00"> </text>
</a>
</g>
</g>
<!-- Node4&#45;&gt;Node1 -->
<g id="edge3" class="edge">
<title>Node4&#45;&gt;Node1</title>
<path fill="none" stroke="#404040" d="M154.56,-215.26C151.74,-202.09 148.2,-185.52 144.56,-168.53"/>
<polygon fill="none" stroke="#404040" points="144.55,-168.48 139.38,-163.45 142.04,-156.74 147.2,-161.77 144.55,-168.48"/>
<text text-anchor="middle" x="183.5" y="-189" font-family="Helvetica,sans-Serif" font-size="10.00"> &#45;mLastFrame</text>
<text text-anchor="middle" x="183.5" y="-178" font-family="Helvetica,sans-Serif" font-size="10.00">&#45;mOffset</text>
</g>
<!-- Node5 -->
<g id="node5" class="node">
<title>Node5</title>
<g id="a_node5"><a xlink:title=" ">
<polygon fill="none" stroke="#bfbfbf" points="193.5,-215.5 193.5,-272.5 311.5,-272.5 311.5,-215.5 193.5,-215.5"/>
<text text-anchor="middle" x="252.5" y="-260.5" font-family="Helvetica,sans-Serif" font-size="10.00">static constexpr Size</text>
<polyline fill="none" stroke="#bfbfbf" points="193.5,-253.5 311.5,-253.5 "/>
<text text-anchor="middle" x="252.5" y="-241.5" font-family="Helvetica,sans-Serif" font-size="10.00"> </text>
<polyline fill="none" stroke="#bfbfbf" points="193.5,-234.5 311.5,-234.5 "/>
<text text-anchor="middle" x="252.5" y="-222.5" font-family="Helvetica,sans-Serif" font-size="10.00"> </text>
</a>
</g>
</g>
<!-- Node5&#45;&gt;Node1 -->
<g id="edge4" class="edge">
<title>Node5&#45;&gt;Node1</title>
<path fill="none" stroke="#404040" d="M242.54,-215.32C237.27,-202.47 230.1,-187.35 221.5,-175 219.49,-172.11 217.38,-169.22 215.2,-166.36"/>
<polygon fill="none" stroke="#404040" points="214.99,-166.1 208.12,-163.9 207.51,-156.71 214.37,-158.91 214.99,-166.1"/>
<text text-anchor="middle" x="277.5" y="-183.5" font-family="Helvetica,sans-Serif" font-size="10.00"> &#45;MAX_CHANNELS</text>
</g>
</g>
</svg>
