<?xml version="1.0" encoding="UTF-8" standalone="no"?>
<!DOCTYPE svg PUBLIC "-//W3C//DTD SVG 1.1//EN"
 "http://www.w3.org/Graphics/SVG/1.1/DTD/svg11.dtd">
<!-- Generated by graphviz version 2.50.0 (0)
 -->
<!-- Title: tklb::AudioBufferTpl::resize Pages: 1 -->
<svg width="1201pt" height="624pt"
 viewBox="0.00 0.00 1201.00 624.00" xmlns="http://www.w3.org/2000/svg" xmlns:xlink="http://www.w3.org/1999/xlink">
<g id="graph0" class="graph" transform="scale(1 1) rotate(0) translate(4 620)">
<title>tklb::AudioBufferTpl::resize</title>
<!-- Node1 -->
<g id="node1" class="node">
<title>Node1</title>
<g id="a_node1"><a xlink:title="Resizes the buffer to the desired length and channel count.">
<polygon fill="#bfbfbf" stroke="black" points="1079,-306.5 1079,-336.5 1193,-336.5 1193,-306.5 1079,-306.5"/>
<text text-anchor="start" x="1087" y="-324.5" font-family="Helvetica,sans-Serif" font-size="10.00">tklb::AudioBufferTpl</text>
<text text-anchor="middle" x="1136" y="-313.5" font-family="Helvetica,sans-Serif" font-size="10.00">::resize</text>
</a>
</g>
</g>
<!-- Node2 -->
<g id="node2" class="node">
<title>Node2</title>
<g id="a_node2"><a xlink:href="classvae_1_1core_1_1_bank_manager.html#a34933194ccfcbdfa8713dbc7fd923540" target="_top" xlink:title=" ">
<polygon fill="none" stroke="black" points="901.5,-585.5 901.5,-615.5 1035.5,-615.5 1035.5,-585.5 901.5,-585.5"/>
<text text-anchor="start" x="909.5" y="-603.5" font-family="Helvetica,sans-Serif" font-size="10.00">vae::core::BankManager</text>
<text text-anchor="middle" x="968.5" y="-592.5" font-family="Helvetica,sans-Serif" font-size="10.00">::addMixer</text>
</a>
</g>
</g>
<!-- Node1&#45;&gt;Node2 -->
<g id="edge1" class="edge">
<title>Node1&#45;&gt;Node2</title>
<path fill="none" stroke="midnightblue" d="M1133.09,-346.65C1127.9,-397.34 1109.1,-512.4 1043,-576.5 1039.43,-579.96 1035.36,-582.92 1031.01,-585.45"/>
<polygon fill="midnightblue" stroke="midnightblue" points="1136.59,-346.86 1134.03,-336.58 1129.62,-346.21 1136.59,-346.86"/>
</g>
<!-- Node4 -->
<g id="node4" class="node">
<title>Node4</title>
<g id="a_node4"><a xlink:href="classtklb_1_1_audio_buffer_tpl.html#aa558831e6e16b36af981c49b894f83fd" target="_top" xlink:title="Buffer with memory allocated.">
<polygon fill="none" stroke="black" points="911.5,-536.5 911.5,-566.5 1025.5,-566.5 1025.5,-536.5 911.5,-536.5"/>
<text text-anchor="start" x="919.5" y="-554.5" font-family="Helvetica,sans-Serif" font-size="10.00">tklb::AudioBufferTpl</text>
<text text-anchor="middle" x="968.5" y="-543.5" font-family="Helvetica,sans-Serif" font-size="10.00">::AudioBufferTpl</text>
</a>
</g>
</g>
<!-- Node1&#45;&gt;Node4 -->
<g id="edge3" class="edge">
<title>Node1&#45;&gt;Node4</title>
<path fill="none" stroke="midnightblue" d="M1130.63,-346.59C1121.82,-389.73 1097.87,-478.08 1043,-527.5 1037.91,-532.08 1031.94,-535.79 1025.63,-538.79"/>
<polygon fill="midnightblue" stroke="midnightblue" points="1134.09,-347.13 1132.55,-336.65 1127.22,-345.8 1134.09,-347.13"/>
</g>
<!-- Node5 -->
<g id="node5" class="node">
<title>Node5</title>
<g id="a_node5"><a xlink:href="classtklb_1_1_audio_buffer_tpl.html#a5e5df30183a228b227b86fd84b8a060c" target="_top" xlink:title="Match the size of the provided buffer and copy the contents.">
<polygon fill="none" stroke="black" points="911.5,-487.5 911.5,-517.5 1025.5,-517.5 1025.5,-487.5 911.5,-487.5"/>
<text text-anchor="start" x="919.5" y="-505.5" font-family="Helvetica,sans-Serif" font-size="10.00">tklb::AudioBufferTpl</text>
<text text-anchor="middle" x="968.5" y="-494.5" font-family="Helvetica,sans-Serif" font-size="10.00">::clone</text>
</a>
</g>
</g>
<!-- Node1&#45;&gt;Node5 -->
<g id="edge4" class="edge">
<title>Node1&#45;&gt;Node5</title>
<path fill="none" stroke="midnightblue" d="M1126.7,-346.74C1114.05,-381.36 1086.7,-443.29 1043,-478.5 1037.77,-482.71 1031.78,-486.19 1025.53,-489.07"/>
<polygon fill="midnightblue" stroke="midnightblue" points="1130.13,-347.52 1130.15,-336.93 1123.53,-345.2 1130.13,-347.52"/>
</g>
<!-- Node6 -->
<g id="node6" class="node">
<title>Node6</title>
<g id="a_node6"><a xlink:href="classvae_1_1core_1_1_spatial_processor.html#ae4626b4677a83dd59ca2e84adcce1900" target="_top" xlink:title=" ">
<polygon fill="none" stroke="black" points="894,-438.5 894,-468.5 1043,-468.5 1043,-438.5 894,-438.5"/>
<text text-anchor="start" x="902" y="-456.5" font-family="Helvetica,sans-Serif" font-size="10.00">vae::core::SpatialProcessor</text>
<text text-anchor="middle" x="968.5" y="-445.5" font-family="Helvetica,sans-Serif" font-size="10.00">::init</text>
</a>
</g>
</g>
<!-- Node1&#45;&gt;Node6 -->
<g id="edge5" class="edge">
<title>Node1&#45;&gt;Node6</title>
<path fill="none" stroke="midnightblue" d="M1118.72,-344.99C1101.97,-367.68 1074.01,-401.72 1043,-423.5 1034.65,-429.36 1024.99,-434.34 1015.47,-438.46"/>
<polygon fill="midnightblue" stroke="midnightblue" points="1121.76,-346.76 1124.78,-336.61 1116.08,-342.66 1121.76,-346.76"/>
</g>
<!-- Node7 -->
<g id="node7" class="node">
<title>Node7</title>
<g id="a_node7"><a xlink:href="classvae_1_1core_1_1_device.html#aaab56a24f9f040b6a4be004ff94eff40" target="_top" xlink:title="initializes buffers, queues and resamplers if needed Has to be called in openDevice once the samplera...">
<polygon fill="none" stroke="black" points="727,-413 727,-432 850,-432 850,-413 727,-413"/>
<text text-anchor="middle" x="788.5" y="-420" font-family="Helvetica,sans-Serif" font-size="10.00">vae::core::Device::init</text>
</a>
</g>
</g>
<!-- Node1&#45;&gt;Node7 -->
<g id="edge6" class="edge">
<title>Node1&#45;&gt;Node7</title>
<path fill="none" stroke="midnightblue" d="M1112.55,-343.67C1095.1,-359.49 1069.48,-379.78 1043,-390.5 980.5,-415.79 902.85,-422.33 850.07,-423.47"/>
<polygon fill="midnightblue" stroke="midnightblue" points="1115.03,-346.15 1119.97,-336.77 1110.26,-341.02 1115.03,-346.15"/>
</g>
<!-- Node12 -->
<g id="node12" class="node">
<title>Node12</title>
<g id="a_node12"><a xlink:href="classtklb_1_1_resampler_speex_tpl.html#adffcf2713951e2a859b43a514bb711c0" target="_top" xlink:title="setup the resampler">
<polygon fill="none" stroke="black" points="899,-350.5 899,-380.5 1038,-380.5 1038,-350.5 899,-350.5"/>
<text text-anchor="start" x="907" y="-368.5" font-family="Helvetica,sans-Serif" font-size="10.00">tklb::ResamplerSpeexTpl</text>
<text text-anchor="middle" x="968.5" y="-357.5" font-family="Helvetica,sans-Serif" font-size="10.00">::init</text>
</a>
</g>
</g>
<!-- Node1&#45;&gt;Node12 -->
<g id="edge11" class="edge">
<title>Node1&#45;&gt;Node12</title>
<path fill="none" stroke="midnightblue" d="M1069.21,-338.99C1054.92,-342.79 1039.93,-346.78 1026.04,-350.47"/>
<polygon fill="midnightblue" stroke="midnightblue" points="1070.2,-342.35 1078.97,-336.4 1068.41,-335.58 1070.2,-342.35"/>
</g>
<!-- Node18 -->
<g id="node18" class="node">
<title>Node18</title>
<g id="a_node18"><a xlink:href="namespacetklb_1_1ogg.html#a61b130503ea6c0157f584d36dec61371" target="_top" xlink:title="Decode ogg/vorbis from memory or file path.">
<polygon fill="none" stroke="black" points="925.5,-312 925.5,-331 1011.5,-331 1011.5,-312 925.5,-312"/>
<text text-anchor="middle" x="968.5" y="-319" font-family="Helvetica,sans-Serif" font-size="10.00">tklb::ogg::load</text>
</a>
</g>
</g>
<!-- Node1&#45;&gt;Node18 -->
<g id="edge18" class="edge">
<title>Node1&#45;&gt;Node18</title>
<path fill="none" stroke="midnightblue" d="M1068.73,-321.5C1049.46,-321.5 1028.95,-321.5 1011.6,-321.5"/>
<polygon fill="midnightblue" stroke="midnightblue" points="1068.97,-325 1078.97,-321.5 1068.97,-318 1068.97,-325"/>
</g>
<!-- Node26 -->
<g id="node26" class="node">
<title>Node26</title>
<g id="a_node26"><a xlink:href="namespacetklb_1_1wave.html#a0eea36d8e07b1520ce77191e081c45bb" target="_top" xlink:title="Decode wav from memory or file path.">
<polygon fill="none" stroke="black" points="921,-274 921,-293 1016,-293 1016,-274 921,-274"/>
<text text-anchor="middle" x="968.5" y="-281" font-family="Helvetica,sans-Serif" font-size="10.00">tklb::wave::load</text>
</a>
</g>
</g>
<!-- Node1&#45;&gt;Node26 -->
<g id="edge27" class="edge">
<title>Node1&#45;&gt;Node26</title>
<path fill="none" stroke="midnightblue" d="M1069.17,-306.39C1049.58,-301.89 1028.67,-297.09 1011.08,-293.05"/>
<polygon fill="midnightblue" stroke="midnightblue" points="1068.44,-309.81 1078.97,-308.63 1070.01,-302.99 1068.44,-309.81"/>
</g>
<!-- Node27 -->
<g id="node27" class="node">
<title>Node27</title>
<g id="a_node27"><a xlink:href="structvae_1_1core_1_1_h_r_t_f_loader.html#a761b4e63a85a96f4259335082483423b" target="_top" xlink:title=" ">
<polygon fill="none" stroke="black" points="905.5,-224.5 905.5,-254.5 1031.5,-254.5 1031.5,-224.5 905.5,-224.5"/>
<text text-anchor="start" x="913.5" y="-242.5" font-family="Helvetica,sans-Serif" font-size="10.00">vae::core::HRTFLoader</text>
<text text-anchor="middle" x="968.5" y="-231.5" font-family="Helvetica,sans-Serif" font-size="10.00">::load</text>
</a>
</g>
</g>
<!-- Node1&#45;&gt;Node27 -->
<g id="edge29" class="edge">
<title>Node1&#45;&gt;Node27</title>
<path fill="none" stroke="midnightblue" d="M1105.2,-300.63C1087.65,-288.96 1064.7,-274.75 1043,-264.5 1035.32,-260.87 1026.97,-257.52 1018.75,-254.52"/>
<polygon fill="midnightblue" stroke="midnightblue" points="1103.6,-303.78 1113.85,-306.47 1107.52,-297.97 1103.6,-303.78"/>
</g>
<!-- Node28 -->
<g id="node28" class="node">
<title>Node28</title>
<g id="a_node28"><a xlink:href="classtklb_1_1_oversampler.html#a40d54629ec65a9ac831fd6ff0dd7cf50" target="_top" xlink:title=" ">
<polygon fill="none" stroke="black" points="913.5,-175.5 913.5,-205.5 1023.5,-205.5 1023.5,-175.5 913.5,-175.5"/>
<text text-anchor="start" x="921.5" y="-193.5" font-family="Helvetica,sans-Serif" font-size="10.00">tklb::Oversampler::</text>
<text text-anchor="middle" x="968.5" y="-182.5" font-family="Helvetica,sans-Serif" font-size="10.00">Oversampler</text>
</a>
</g>
</g>
<!-- Node1&#45;&gt;Node28 -->
<g id="edge30" class="edge">
<title>Node1&#45;&gt;Node28</title>
<path fill="none" stroke="midnightblue" d="M1119.96,-297.76C1103.68,-273.84 1075.63,-237.44 1043,-215.5 1037.07,-211.51 1030.45,-208.11 1023.67,-205.21"/>
<polygon fill="midnightblue" stroke="midnightblue" points="1117.16,-299.86 1125.61,-306.25 1122.99,-295.99 1117.16,-299.86"/>
</g>
<!-- Node29 -->
<g id="node29" class="node">
<title>Node29</title>
<g id="a_node29"><a xlink:href="classtklb_1_1_audio_buffer_tpl.html#adffcadeccee1b70a362498eadb9f16d2" target="_top" xlink:title="Resize to the provided length and keep the channelcount.">
<polygon fill="none" stroke="black" points="911.5,-126.5 911.5,-156.5 1025.5,-156.5 1025.5,-126.5 911.5,-126.5"/>
<text text-anchor="start" x="919.5" y="-144.5" font-family="Helvetica,sans-Serif" font-size="10.00">tklb::AudioBufferTpl</text>
<text text-anchor="middle" x="968.5" y="-133.5" font-family="Helvetica,sans-Serif" font-size="10.00">::resize</text>
</a>
</g>
</g>
<!-- Node1&#45;&gt;Node29 -->
<g id="edge31" class="edge">
<title>Node1&#45;&gt;Node29</title>
<path fill="none" stroke="midnightblue" d="M1126.55,-296.66C1113.72,-262.56 1086.17,-201.52 1043,-166.5 1037.77,-162.25 1031.77,-158.71 1025.52,-155.76"/>
<polygon fill="midnightblue" stroke="midnightblue" points="1123.35,-298.11 1130.06,-306.32 1129.93,-295.72 1123.35,-298.11"/>
</g>
<!-- Node30 -->
<g id="node30" class="node">
<title>Node30</title>
<g id="a_node30"><a xlink:href="classtklb_1_1_f_f_t_ooura.html#a16f00f5786aa1dc841e9cc645be3551c" target="_top" xlink:title=" ">
<polygon fill="none" stroke="black" points="907.5,-88 907.5,-107 1029.5,-107 1029.5,-88 907.5,-88"/>
<text text-anchor="middle" x="968.5" y="-95" font-family="Helvetica,sans-Serif" font-size="10.00">tklb::FFTOoura::resize</text>
</a>
</g>
</g>
<!-- Node1&#45;&gt;Node30 -->
<g id="edge32" class="edge">
<title>Node1&#45;&gt;Node30</title>
<path fill="none" stroke="midnightblue" d="M1130.97,-296.49C1122.63,-253.11 1099.34,-164.05 1043,-116.5 1038.47,-112.67 1033.26,-109.61 1027.75,-107.15"/>
<polygon fill="midnightblue" stroke="midnightblue" points="1127.55,-297.26 1132.78,-306.47 1134.44,-296.01 1127.55,-297.26"/>
</g>
<!-- Node32 -->
<g id="node32" class="node">
<title>Node32</title>
<g id="a_node32"><a xlink:href="classtklb_1_1_f_f_tpffft.html#aa000aaef03d17f700739512621a04f7a" target="_top" xlink:title=" ">
<polygon fill="none" stroke="black" points="911.5,-50 911.5,-69 1025.5,-69 1025.5,-50 911.5,-50"/>
<text text-anchor="middle" x="968.5" y="-57" font-family="Helvetica,sans-Serif" font-size="10.00">tklb::FFTpffft::resize</text>
</a>
</g>
</g>
<!-- Node1&#45;&gt;Node32 -->
<g id="edge34" class="edge">
<title>Node1&#45;&gt;Node32</title>
<path fill="none" stroke="midnightblue" d="M1132.92,-296.16C1127.46,-246.69 1108.26,-137.01 1043,-78.5 1038,-74.01 1032.07,-70.56 1025.78,-67.91"/>
<polygon fill="midnightblue" stroke="midnightblue" points="1129.45,-296.7 1133.93,-306.3 1136.42,-296 1129.45,-296.7"/>
</g>
<!-- Node3 -->
<g id="node3" class="node">
<title>Node3</title>
<g id="a_node3"><a xlink:href="classvae_1_1core_1_1_engine.html#a076e09fed38f307d533a94570d08d763" target="_top" xlink:title=" ">
<polygon fill="none" stroke="black" points="735,-585.5 735,-615.5 842,-615.5 842,-585.5 735,-585.5"/>
<text text-anchor="start" x="743" y="-603.5" font-family="Helvetica,sans-Serif" font-size="10.00">vae::core::Engine::</text>
<text text-anchor="middle" x="788.5" y="-592.5" font-family="Helvetica,sans-Serif" font-size="10.00">addMixer</text>
</a>
</g>
</g>
<!-- Node2&#45;&gt;Node3 -->
<g id="edge2" class="edge">
<title>Node2&#45;&gt;Node3</title>
<path fill="none" stroke="midnightblue" d="M891.25,-600.5C874.68,-600.5 857.5,-600.5 842.08,-600.5"/>
<polygon fill="midnightblue" stroke="midnightblue" points="891.47,-604 901.47,-600.5 891.47,-597 891.47,-604"/>
</g>
<!-- Node8 -->
<g id="node8" class="node">
<title>Node8</title>
<g id="a_node8"><a xlink:href="classvae_1_1core_1_1_device_dummy.html#ad85627cd3e6556da54cb511720b09f04" target="_top" xlink:title="Tries to open the default audio device whith desired in out channels.">
<polygon fill="none" stroke="black" points="539,-505.5 539,-535.5 679,-535.5 679,-505.5 539,-505.5"/>
<text text-anchor="start" x="547" y="-523.5" font-family="Helvetica,sans-Serif" font-size="10.00">vae::core::DeviceDummy</text>
<text text-anchor="middle" x="609" y="-512.5" font-family="Helvetica,sans-Serif" font-size="10.00">::openDevice</text>
</a>
</g>
</g>
<!-- Node7&#45;&gt;Node8 -->
<g id="edge7" class="edge">
<title>Node7&#45;&gt;Node8</title>
<path fill="none" stroke="midnightblue" d="M768.54,-438.59C748.41,-455 715.13,-480.3 683,-496.5 676.45,-499.8 669.34,-502.79 662.22,-505.46"/>
<polygon fill="midnightblue" stroke="midnightblue" points="770.85,-441.22 776.32,-432.15 766.38,-435.83 770.85,-441.22"/>
</g>
<!-- Node10 -->
<g id="node10" class="node">
<title>Node10</title>
<g id="a_node10"><a xlink:href="classvae_1_1core_1_1_device_portaudio.html#a9a6538b4e9555085a36b67a1850f333d" target="_top" xlink:title="Opens a specific audio device.">
<polygon fill="none" stroke="black" points="535,-456.5 535,-486.5 683,-486.5 683,-456.5 535,-456.5"/>
<text text-anchor="start" x="543" y="-474.5" font-family="Helvetica,sans-Serif" font-size="10.00">vae::core::DevicePortaudio</text>
<text text-anchor="middle" x="609" y="-463.5" font-family="Helvetica,sans-Serif" font-size="10.00">::openDevice</text>
</a>
</g>
</g>
<!-- Node7&#45;&gt;Node10 -->
<g id="edge9" class="edge">
<title>Node7&#45;&gt;Node10</title>
<path fill="none" stroke="midnightblue" d="M743.03,-434.78C719.2,-441.35 689.66,-449.51 664.47,-456.46"/>
<polygon fill="midnightblue" stroke="midnightblue" points="744.15,-438.1 752.85,-432.06 742.28,-431.35 744.15,-438.1"/>
</g>
<!-- Node11 -->
<g id="node11" class="node">
<title>Node11</title>
<g id="a_node11"><a xlink:href="classvae_1_1core_1_1_device_rtaudio.html#a755c0aea3ee53c858f2dc3e61503de95" target="_top" xlink:title="Opens a specific audio device.">
<polygon fill="none" stroke="black" points="539.5,-407.5 539.5,-437.5 678.5,-437.5 678.5,-407.5 539.5,-407.5"/>
<text text-anchor="start" x="547.5" y="-425.5" font-family="Helvetica,sans-Serif" font-size="10.00">vae::core::DeviceRtaudio</text>
<text text-anchor="middle" x="609" y="-414.5" font-family="Helvetica,sans-Serif" font-size="10.00">::openDevice</text>
</a>
</g>
</g>
<!-- Node7&#45;&gt;Node11 -->
<g id="edge10" class="edge">
<title>Node7&#45;&gt;Node11</title>
<path fill="none" stroke="midnightblue" d="M716.91,-422.5C704.27,-422.5 691.13,-422.5 678.55,-422.5"/>
<polygon fill="midnightblue" stroke="midnightblue" points="716.91,-426 726.91,-422.5 716.91,-419 716.91,-426"/>
</g>
<!-- Node9 -->
<g id="node9" class="node">
<title>Node9</title>
<g id="a_node9"><a xlink:href="classvae_1_1core_1_1_device_dummy.html#af40b5ee7c4ac8116abfcfd41a427b7f7" target="_top" xlink:title="Opens a specific audio device.">
<polygon fill="none" stroke="black" points="359,-505.5 359,-535.5 499,-535.5 499,-505.5 359,-505.5"/>
<text text-anchor="start" x="367" y="-523.5" font-family="Helvetica,sans-Serif" font-size="10.00">vae::core::DeviceDummy</text>
<text text-anchor="middle" x="429" y="-512.5" font-family="Helvetica,sans-Serif" font-size="10.00">::openDevice</text>
</a>
</g>
</g>
<!-- Node8&#45;&gt;Node9 -->
<g id="edge8" class="edge">
<title>Node8&#45;&gt;Node9</title>
<path fill="none" stroke="midnightblue" d="M528.7,-520.5C518.81,-520.5 508.75,-520.5 499.04,-520.5"/>
<polygon fill="midnightblue" stroke="midnightblue" points="528.93,-524 538.93,-520.5 528.93,-517 528.93,-524"/>
</g>
<!-- Node12&#45;&gt;Node7 -->
<g id="edge12" class="edge">
<title>Node12&#45;&gt;Node7</title>
<path fill="none" stroke="midnightblue" d="M910.64,-383.71C880.29,-393.43 844.18,-404.99 819.33,-412.95"/>
<polygon fill="midnightblue" stroke="midnightblue" points="911.81,-387.01 920.27,-380.63 909.68,-380.34 911.81,-387.01"/>
</g>
<!-- Node13 -->
<g id="node13" class="node">
<title>Node13</title>
<g id="a_node13"><a xlink:href="classtklb_1_1_resampler_speex_tpl.html#a9a6c41aeb45d44340e6fbf6bcb0ff591" target="_top" xlink:title="Resamples the provided buffer from its sampleRate to the target rate.">
<polygon fill="none" stroke="black" points="719,-358.5 719,-388.5 858,-388.5 858,-358.5 719,-358.5"/>
<text text-anchor="start" x="727" y="-376.5" font-family="Helvetica,sans-Serif" font-size="10.00">tklb::ResamplerSpeexTpl</text>
<text text-anchor="middle" x="788.5" y="-365.5" font-family="Helvetica,sans-Serif" font-size="10.00">::resample</text>
</a>
</g>
</g>
<!-- Node12&#45;&gt;Node13 -->
<g id="edge13" class="edge">
<title>Node12&#45;&gt;Node13</title>
<path fill="none" stroke="midnightblue" d="M888.77,-369.04C878.52,-369.5 868.09,-369.97 858.03,-370.42"/>
<polygon fill="midnightblue" stroke="midnightblue" points="889.1,-372.53 898.94,-368.58 888.79,-365.53 889.1,-372.53"/>
</g>
<!-- Node17 -->
<g id="node17" class="node">
<title>Node17</title>
<g id="a_node17"><a xlink:href="classtklb_1_1_resampler_speex_tpl.html#a1928c5918f2625530f74b480292bdb1d" target="_top" xlink:title=" ">
<polygon fill="none" stroke="black" points="719,-309.5 719,-339.5 858,-339.5 858,-309.5 719,-309.5"/>
<text text-anchor="start" x="727" y="-327.5" font-family="Helvetica,sans-Serif" font-size="10.00">tklb::ResamplerSpeexTpl</text>
<text text-anchor="middle" x="788.5" y="-316.5" font-family="Helvetica,sans-Serif" font-size="10.00">::ResamplerSpeexTpl</text>
</a>
</g>
</g>
<!-- Node12&#45;&gt;Node17 -->
<g id="edge17" class="edge">
<title>Node12&#45;&gt;Node17</title>
<path fill="none" stroke="midnightblue" d="M892.32,-348.18C879.83,-345.31 866.98,-342.35 854.76,-339.53"/>
<polygon fill="midnightblue" stroke="midnightblue" points="891.7,-351.63 902.23,-350.47 893.27,-344.81 891.7,-351.63"/>
</g>
<!-- Node14 -->
<g id="node14" class="node">
<title>Node14</title>
<g id="a_node14"><a xlink:href="classvae_1_1core_1_1_bank_manager.html#a6542180b77772f1605e211bd851f8996" target="_top" xlink:title=" ">
<polygon fill="none" stroke="black" points="542,-358.5 542,-388.5 676,-388.5 676,-358.5 542,-358.5"/>
<text text-anchor="start" x="550" y="-376.5" font-family="Helvetica,sans-Serif" font-size="10.00">vae::core::BankManager</text>
<text text-anchor="middle" x="609" y="-365.5" font-family="Helvetica,sans-Serif" font-size="10.00">::addSource</text>
</a>
</g>
</g>
<!-- Node13&#45;&gt;Node14 -->
<g id="edge14" class="edge">
<title>Node13&#45;&gt;Node14</title>
<path fill="none" stroke="midnightblue" d="M708.56,-373.5C697.72,-373.5 686.69,-373.5 676.11,-373.5"/>
<polygon fill="midnightblue" stroke="midnightblue" points="708.87,-377 718.87,-373.5 708.87,-370 708.87,-377"/>
</g>
<!-- Node16 -->
<g id="node16" class="node">
<title>Node16</title>
<g id="a_node16"><a xlink:href="classvae_1_1core_1_1_bank_manager.html#adbc94fb2b23a418e34a3eda7812d71a6" target="_top" xlink:title=" ">
<polygon fill="none" stroke="black" points="542,-309.5 542,-339.5 676,-339.5 676,-309.5 542,-309.5"/>
<text text-anchor="start" x="550" y="-327.5" font-family="Helvetica,sans-Serif" font-size="10.00">vae::core::BankManager</text>
<text text-anchor="middle" x="609" y="-316.5" font-family="Helvetica,sans-Serif" font-size="10.00">::load</text>
</a>
</g>
</g>
<!-- Node13&#45;&gt;Node16 -->
<g id="edge16" class="edge">
<title>Node13&#45;&gt;Node16</title>
<path fill="none" stroke="midnightblue" d="M722.94,-355.68C703.78,-350.39 682.98,-344.65 664.52,-339.55"/>
<polygon fill="midnightblue" stroke="midnightblue" points="722.22,-359.11 732.8,-358.4 724.09,-352.36 722.22,-359.11"/>
</g>
<!-- Node15 -->
<g id="node15" class="node">
<title>Node15</title>
<g id="a_node15"><a xlink:href="classvae_1_1core_1_1_engine.html#aba4ba7edf58f833125633e7149e4d499" target="_top" xlink:title="Add or replace a source in a bank.">
<polygon fill="none" stroke="black" points="375.5,-358.5 375.5,-388.5 482.5,-388.5 482.5,-358.5 375.5,-358.5"/>
<text text-anchor="start" x="383.5" y="-376.5" font-family="Helvetica,sans-Serif" font-size="10.00">vae::core::Engine::</text>
<text text-anchor="middle" x="429" y="-365.5" font-family="Helvetica,sans-Serif" font-size="10.00">addSource</text>
</a>
</g>
</g>
<!-- Node14&#45;&gt;Node15 -->
<g id="edge15" class="edge">
<title>Node14&#45;&gt;Node15</title>
<path fill="none" stroke="midnightblue" d="M531.75,-373.5C515.18,-373.5 498,-373.5 482.58,-373.5"/>
<polygon fill="midnightblue" stroke="midnightblue" points="531.97,-377 541.97,-373.5 531.97,-370 531.97,-377"/>
</g>
<!-- Node19 -->
<g id="node19" class="node">
<title>Node19</title>
<g id="a_node19"><a xlink:href="structvae_1_1core_1_1_source_loader.html#a2341f89c2b79148066369e8d50d98597" target="_top" xlink:title="Loads a wav file for the resource.">
<polygon fill="none" stroke="black" points="721.5,-260.5 721.5,-290.5 855.5,-290.5 855.5,-260.5 721.5,-260.5"/>
<text text-anchor="start" x="729.5" y="-278.5" font-family="Helvetica,sans-Serif" font-size="10.00">vae::core::SourceLoader</text>
<text text-anchor="middle" x="788.5" y="-267.5" font-family="Helvetica,sans-Serif" font-size="10.00">::load</text>
</a>
</g>
</g>
<!-- Node18&#45;&gt;Node19 -->
<g id="edge19" class="edge">
<title>Node18&#45;&gt;Node19</title>
<path fill="none" stroke="midnightblue" d="M920.7,-309.41C898.35,-303.63 871.37,-296.66 847.71,-290.54"/>
<polygon fill="midnightblue" stroke="midnightblue" points="920.06,-312.86 930.62,-311.97 921.81,-306.08 920.06,-312.86"/>
</g>
<!-- Node20 -->
<g id="node20" class="node">
<title>Node20</title>
<g id="a_node20"><a xlink:href="classvae_1_1core_1_1_bank_loader.html#a0c168e922d02dbe23ec42ebfde4d97a2" target="_top" xlink:title="Load a bank.json and all wav files referenced in it.">
<polygon fill="none" stroke="black" points="546.5,-260.5 546.5,-290.5 671.5,-290.5 671.5,-260.5 546.5,-260.5"/>
<text text-anchor="start" x="554.5" y="-278.5" font-family="Helvetica,sans-Serif" font-size="10.00">vae::core::BankLoader</text>
<text text-anchor="middle" x="609" y="-267.5" font-family="Helvetica,sans-Serif" font-size="10.00">::load</text>
</a>
</g>
</g>
<!-- Node19&#45;&gt;Node20 -->
<g id="edge20" class="edge">
<title>Node19&#45;&gt;Node20</title>
<path fill="none" stroke="midnightblue" d="M711.38,-275.5C698.15,-275.5 684.53,-275.5 671.74,-275.5"/>
<polygon fill="midnightblue" stroke="midnightblue" points="711.41,-279 721.41,-275.5 711.41,-272 711.41,-279"/>
</g>
<!-- Node21 -->
<g id="node21" class="node">
<title>Node21</title>
<g id="a_node21"><a xlink:href="classvae_1_1core_1_1_bank_manager.html#ab06ae4e1f8106811c8149dd73bef6bd0" target="_top" xlink:title=" ">
<polygon fill="none" stroke="black" points="362,-260.5 362,-290.5 496,-290.5 496,-260.5 362,-260.5"/>
<text text-anchor="start" x="370" y="-278.5" font-family="Helvetica,sans-Serif" font-size="10.00">vae::core::BankManager</text>
<text text-anchor="middle" x="429" y="-267.5" font-family="Helvetica,sans-Serif" font-size="10.00">::load</text>
</a>
</g>
</g>
<!-- Node20&#45;&gt;Node21 -->
<g id="edge21" class="edge">
<title>Node20&#45;&gt;Node21</title>
<path fill="none" stroke="midnightblue" d="M535.86,-275.5C522.75,-275.5 509.13,-275.5 496.2,-275.5"/>
<polygon fill="midnightblue" stroke="midnightblue" points="536.24,-279 546.24,-275.5 536.24,-272 536.24,-279"/>
</g>
<!-- Node21&#45;&gt;Node21 -->
<g id="edge23" class="edge">
<title>Node21&#45;&gt;Node21</title>
<path fill="none" stroke="midnightblue" d="M459.56,-300.96C455.77,-305.68 445.58,-309 429,-309 401.79,-309 391.8,-300.06 399.03,-290.66"/>
<polygon fill="midnightblue" stroke="midnightblue" points="463.04,-300.44 458.97,-290.66 456.05,-300.84 463.04,-300.44"/>
</g>
<!-- Node22 -->
<g id="node22" class="node">
<title>Node22</title>
<g id="a_node22"><a xlink:href="classvae_1_1core_1_1_bank_manager.html#ae04256d1f2f2df47d3239993c9bbf12c" target="_top" xlink:title="Will reload all the banks.">
<polygon fill="none" stroke="black" points="189,-285.5 189,-315.5 323,-315.5 323,-285.5 189,-285.5"/>
<text text-anchor="start" x="197" y="-303.5" font-family="Helvetica,sans-Serif" font-size="10.00">vae::core::BankManager</text>
<text text-anchor="middle" x="256" y="-292.5" font-family="Helvetica,sans-Serif" font-size="10.00">::init</text>
</a>
</g>
</g>
<!-- Node21&#45;&gt;Node22 -->
<g id="edge22" class="edge">
<title>Node21&#45;&gt;Node22</title>
<path fill="none" stroke="midnightblue" d="M351.97,-286.61C342.39,-288.02 332.64,-289.44 323.22,-290.82"/>
<polygon fill="midnightblue" stroke="midnightblue" points="352.5,-290.08 361.89,-285.17 351.49,-283.15 352.5,-290.08"/>
</g>
<!-- Node23 -->
<g id="node23" class="node">
<title>Node23</title>
<g id="a_node23"><a xlink:href="classvae_1_1core_1_1_engine.html#a4af5733f9975fe1c746e75958bc39d23" target="_top" xlink:title="Load bank from filesystem.">
<polygon fill="none" stroke="black" points="202.5,-236.5 202.5,-266.5 309.5,-266.5 309.5,-236.5 202.5,-236.5"/>
<text text-anchor="start" x="210.5" y="-254.5" font-family="Helvetica,sans-Serif" font-size="10.00">vae::core::Engine::</text>
<text text-anchor="middle" x="256" y="-243.5" font-family="Helvetica,sans-Serif" font-size="10.00">loadBank</text>
</a>
</g>
</g>
<!-- Node21&#45;&gt;Node23 -->
<g id="edge24" class="edge">
<title>Node21&#45;&gt;Node23</title>
<path fill="none" stroke="midnightblue" d="M351.65,-264.78C337.48,-262.79 322.96,-260.76 309.69,-258.9"/>
<polygon fill="midnightblue" stroke="midnightblue" points="351.5,-268.3 361.89,-266.22 352.47,-261.36 351.5,-268.3"/>
</g>
<!-- Node24 -->
<g id="node24" class="node">
<title>Node24</title>
<g id="a_node24"><a xlink:href="classvae_1_1_engine_pimpl.html#adec77e6ef0f00d52c634611cb6822443" target="_top" xlink:title="Load bank from filesystem.">
<polygon fill="none" stroke="black" points="0,-261 0,-280 153,-280 153,-261 0,-261"/>
<text text-anchor="middle" x="76.5" y="-268" font-family="Helvetica,sans-Serif" font-size="10.00">vae::EnginePimpl::loadBank</text>
</a>
</g>
</g>
<!-- Node23&#45;&gt;Node24 -->
<g id="edge25" class="edge">
<title>Node23&#45;&gt;Node24</title>
<path fill="none" stroke="midnightblue" d="M192.25,-258.22C179.57,-259.57 166.12,-261.01 153.06,-262.41"/>
<polygon fill="midnightblue" stroke="midnightblue" points="192.65,-261.69 202.22,-257.15 191.91,-254.73 192.65,-261.69"/>
</g>
<!-- Node25 -->
<g id="node25" class="node">
<title>Node25</title>
<g id="a_node25"><a xlink:href="main_8cpp.html#ae66f6b31b5ad750f1fe042a706a4e3d4" target="_top" xlink:title=" ">
<polygon fill="none" stroke="black" points="56,-223 56,-242 97,-242 97,-223 56,-223"/>
<text text-anchor="middle" x="76.5" y="-230" font-family="Helvetica,sans-Serif" font-size="10.00">main</text>
</a>
</g>
</g>
<!-- Node23&#45;&gt;Node25 -->
<g id="edge26" class="edge">
<title>Node23&#45;&gt;Node25</title>
<path fill="none" stroke="midnightblue" d="M192.06,-244.76C158.69,-241.19 119.98,-237.05 97.18,-234.61"/>
<polygon fill="midnightblue" stroke="midnightblue" points="191.91,-248.27 202.22,-245.85 192.65,-241.31 191.91,-248.27"/>
</g>
<!-- Node26&#45;&gt;Node19 -->
<g id="edge28" class="edge">
<title>Node26&#45;&gt;Node19</title>
<path fill="none" stroke="midnightblue" d="M910.68,-280.95C893.18,-280.16 873.77,-279.29 855.7,-278.48"/>
<polygon fill="midnightblue" stroke="midnightblue" points="910.59,-284.45 920.73,-281.4 910.9,-277.45 910.59,-284.45"/>
</g>
<!-- Node31 -->
<g id="node31" class="node">
<title>Node31</title>
<g id="a_node31"><a xlink:href="classtklb_1_1_f_f_t_ooura.html#af07aa531353ef86ebedab86e25aacdee" target="_top" xlink:title=" ">
<polygon fill="none" stroke="black" points="719,-88 719,-107 858,-107 858,-88 719,-88"/>
<text text-anchor="middle" x="788.5" y="-95" font-family="Helvetica,sans-Serif" font-size="10.00">tklb::FFTOoura::FFTOoura</text>
</a>
</g>
</g>
<!-- Node30&#45;&gt;Node31 -->
<g id="edge33" class="edge">
<title>Node30&#45;&gt;Node31</title>
<path fill="none" stroke="midnightblue" d="M897.12,-97.5C884.34,-97.5 871.02,-97.5 858.29,-97.5"/>
<polygon fill="midnightblue" stroke="midnightblue" points="897.24,-101 907.24,-97.5 897.24,-94 897.24,-101"/>
</g>
<!-- Node33 -->
<g id="node33" class="node">
<title>Node33</title>
<g id="a_node33"><a xlink:href="classtklb_1_1_f_f_tpffft.html#af5dd4092c8ba0877c1adf3da5644ce1a" target="_top" xlink:title=" ">
<polygon fill="none" stroke="black" points="727.5,-50 727.5,-69 849.5,-69 849.5,-50 727.5,-50"/>
<text text-anchor="middle" x="788.5" y="-57" font-family="Helvetica,sans-Serif" font-size="10.00">tklb::FFTpffft::FFTpffft</text>
</a>
</g>
</g>
<!-- Node32&#45;&gt;Node33 -->
<g id="edge35" class="edge">
<title>Node32&#45;&gt;Node33</title>
<path fill="none" stroke="midnightblue" d="M900.9,-59.5C884.12,-59.5 866.21,-59.5 849.76,-59.5"/>
<polygon fill="midnightblue" stroke="midnightblue" points="901.18,-63 911.18,-59.5 901.18,-56 901.18,-63"/>
</g>
<!-- Node34 -->
<g id="node34" class="node">
<title>Node34</title>
<g id="a_node34"><a xlink:href="classtklb_1_1_convolver_mono_tpl.html#a67f9498b46370c1a273b47ccc4863e21" target="_top" xlink:title="Load a impulse response and prepare the convolution.">
<polygon fill="none" stroke="black" points="722.5,-0.5 722.5,-30.5 854.5,-30.5 854.5,-0.5 722.5,-0.5"/>
<text text-anchor="start" x="730.5" y="-18.5" font-family="Helvetica,sans-Serif" font-size="10.00">tklb::ConvolverMonoTpl</text>
<text text-anchor="middle" x="788.5" y="-7.5" font-family="Helvetica,sans-Serif" font-size="10.00">::load</text>
</a>
</g>
</g>
<!-- Node32&#45;&gt;Node34 -->
<g id="edge36" class="edge">
<title>Node32&#45;&gt;Node34</title>
<path fill="none" stroke="midnightblue" d="M919.14,-47.54C897.96,-42.31 872.88,-36.11 850.45,-30.57"/>
<polygon fill="midnightblue" stroke="midnightblue" points="918.33,-50.95 928.88,-49.95 920.01,-44.16 918.33,-50.95"/>
</g>
</g>
</svg>
