<?xml version="1.0" encoding="UTF-8" standalone="no"?>
<!DOCTYPE svg PUBLIC "-//W3C//DTD SVG 1.1//EN"
 "http://www.w3.org/Graphics/SVG/1.1/DTD/svg11.dtd">
<!-- Generated by graphviz version 2.50.0 (0)
 -->
<!-- Title: tklb::HeapBuffer::allocate Pages: 1 -->
<svg width="334pt" height="104pt"
 viewBox="0.00 0.00 334.00 104.00" xmlns="http://www.w3.org/2000/svg" xmlns:xlink="http://www.w3.org/1999/xlink">
<g id="graph0" class="graph" transform="scale(1 1) rotate(0) translate(4 100)">
<title>tklb::HeapBuffer::allocate</title>
<!-- Node1 -->
<g id="node1" class="node">
<title>Node1</title>
<g id="a_node1"><a xlink:title="Allocated the exact size requsted and copies existing objects.">
<polygon fill="#bfbfbf" stroke="black" points="0,-38.5 0,-57.5 142,-57.5 142,-38.5 0,-38.5"/>
<text text-anchor="middle" x="71" y="-45.5" font-family="Helvetica,sans-Serif" font-size="10.00">tklb::HeapBuffer::allocate</text>
</a>
</g>
</g>
<!-- Node2 -->
<g id="node2" class="node">
<title>Node2</title>
<g id="a_node2"><a xlink:href="classtklb_1_1_heap_buffer.html#a25c9d8fce108ff905202bcf7a6038d3d" target="_top" xlink:title="Whether the memory is managed by the instance or is borrowed.">
<polygon fill="none" stroke="black" points="181,-76.5 181,-95.5 323,-95.5 323,-76.5 181,-76.5"/>
<text text-anchor="middle" x="252" y="-83.5" font-family="Helvetica,sans-Serif" font-size="10.00">tklb::HeapBuffer::injected</text>
</a>
</g>
</g>
<!-- Node1&#45;&gt;Node2 -->
<g id="edge1" class="edge">
<title>Node1&#45;&gt;Node2</title>
<path fill="none" stroke="midnightblue" d="M117.17,-57.59C141.22,-62.69 170.97,-69.01 196.32,-74.39"/>
<polygon fill="midnightblue" stroke="midnightblue" points="195.65,-77.83 206.16,-76.48 197.1,-70.98 195.65,-77.83"/>
</g>
<!-- Node3 -->
<g id="node3" class="node">
<title>Node3</title>
<g id="a_node3"><a xlink:href="classtklb_1_1_heap_buffer.html#a23801c62dcfb74cab62a9998de65adeb" target="_top" xlink:title=" ">
<polygon fill="none" stroke="black" points="178,-38.5 178,-57.5 326,-57.5 326,-38.5 178,-38.5"/>
<text text-anchor="middle" x="252" y="-45.5" font-family="Helvetica,sans-Serif" font-size="10.00">tklb::HeapBuffer::isAligned</text>
</a>
</g>
</g>
<!-- Node1&#45;&gt;Node3 -->
<g id="edge2" class="edge">
<title>Node1&#45;&gt;Node3</title>
<path fill="none" stroke="midnightblue" d="M142.23,-48C150.52,-48 159.04,-48 167.48,-48"/>
<polygon fill="midnightblue" stroke="midnightblue" points="167.73,-51.5 177.73,-48 167.73,-44.5 167.73,-51.5"/>
</g>
<!-- Node4 -->
<g id="node4" class="node">
<title>Node4</title>
<g id="a_node4"><a xlink:href="namespacetklb.html#a3080595da18d742645ec41d61828a426" target="_top" xlink:title=" ">
<polygon fill="none" stroke="black" points="222,-0.5 222,-19.5 282,-19.5 282,-0.5 222,-0.5"/>
<text text-anchor="middle" x="252" y="-7.5" font-family="Helvetica,sans-Serif" font-size="10.00">tklb::min</text>
</a>
</g>
</g>
<!-- Node1&#45;&gt;Node4 -->
<g id="edge3" class="edge">
<title>Node1&#45;&gt;Node4</title>
<path fill="none" stroke="midnightblue" d="M117.17,-38.41C146.41,-32.2 184.1,-24.2 212.02,-18.27"/>
<polygon fill="midnightblue" stroke="midnightblue" points="212.78,-21.69 221.84,-16.19 211.33,-14.84 212.78,-21.69"/>
</g>
</g>
</svg>
