<?xml version="1.0" encoding="UTF-8" standalone="no"?>
<!DOCTYPE svg PUBLIC "-//W3C//DTD SVG 1.1//EN"
 "http://www.w3.org/Graphics/SVG/1.1/DTD/svg11.dtd">
<!-- Generated by graphviz version 2.50.0 (0)
 -->
<!-- Title: vae::EnginePimpl::setSpeed Pages: 1 -->
<svg width="468pt" height="39pt"
 viewBox="0.00 0.00 468.00 39.00" xmlns="http://www.w3.org/2000/svg" xmlns:xlink="http://www.w3.org/1999/xlink">
<g id="graph0" class="graph" transform="scale(1 1) rotate(0) translate(4 35)">
<title>vae::EnginePimpl::setSpeed</title>
<!-- Node1 -->
<g id="node1" class="node">
<title>Node1</title>
<g id="a_node1"><a xlink:title="Set the playback speed.">
<polygon fill="#bfbfbf" stroke="black" points="0,-6 0,-25 152,-25 152,-6 0,-6"/>
<text text-anchor="middle" x="76" y="-13" font-family="Helvetica,sans-Serif" font-size="10.00">vae::EnginePimpl::setSpeed</text>
</a>
</g>
</g>
<!-- Node2 -->
<g id="node2" class="node">
<title>Node2</title>
<g id="a_node2"><a xlink:href="classvae_1_1core_1_1_engine.html#a3a1e07d802edf42c2777066bb493a7ee" target="_top" xlink:title="Set the playback speed.">
<polygon fill="none" stroke="black" points="188,-0.5 188,-30.5 295,-30.5 295,-0.5 188,-0.5"/>
<text text-anchor="start" x="196" y="-18.5" font-family="Helvetica,sans-Serif" font-size="10.00">vae::core::Engine::</text>
<text text-anchor="middle" x="241.5" y="-7.5" font-family="Helvetica,sans-Serif" font-size="10.00">setSpeed</text>
</a>
</g>
</g>
<!-- Node1&#45;&gt;Node2 -->
<g id="edge1" class="edge">
<title>Node1&#45;&gt;Node2</title>
<path fill="none" stroke="midnightblue" d="M152.05,-15.5C160.64,-15.5 169.34,-15.5 177.75,-15.5"/>
<polygon fill="midnightblue" stroke="midnightblue" points="177.84,-19 187.84,-15.5 177.84,-12 177.84,-19"/>
</g>
<!-- Node3 -->
<g id="node3" class="node">
<title>Node3</title>
<g id="a_node3"><a xlink:href="classvae_1_1core_1_1_voice_manger.html#a7ee41f2edab0bd34a0dc436aa9e214ae" target="_top" xlink:title=" ">
<polygon fill="none" stroke="black" points="331,-0.5 331,-30.5 460,-30.5 460,-0.5 331,-0.5"/>
<text text-anchor="start" x="339" y="-18.5" font-family="Helvetica,sans-Serif" font-size="10.00">vae::core::VoiceManger</text>
<text text-anchor="middle" x="395.5" y="-7.5" font-family="Helvetica,sans-Serif" font-size="10.00">::setVoiceProperty</text>
</a>
</g>
</g>
<!-- Node2&#45;&gt;Node3 -->
<g id="edge2" class="edge">
<title>Node2&#45;&gt;Node3</title>
<path fill="none" stroke="midnightblue" d="M295.24,-15.5C303.49,-15.5 312.16,-15.5 320.78,-15.5"/>
<polygon fill="midnightblue" stroke="midnightblue" points="320.86,-19 330.86,-15.5 320.86,-12 320.86,-19"/>
</g>
</g>
</svg>
