<?xml version="1.0" encoding="UTF-8" standalone="no"?>
<!DOCTYPE svg PUBLIC "-//W3C//DTD SVG 1.1//EN"
 "http://www.w3.org/Graphics/SVG/1.1/DTD/svg11.dtd">
<!-- Generated by graphviz version 2.50.0 (0)
 -->
<!-- Title: vae::core::BankManager::load Pages: 1 -->
<svg width="1340pt" height="466pt"
 viewBox="0.00 0.00 1340.00 466.49" xmlns="http://www.w3.org/2000/svg" xmlns:xlink="http://www.w3.org/1999/xlink">
<g id="graph0" class="graph" transform="scale(1 1) rotate(0) translate(4 462.49)">
<title>vae::core::BankManager::load</title>
<!-- Node1 -->
<g id="node1" class="node">
<title>Node1</title>
<g id="a_node1"><a xlink:title=" ">
<polygon fill="#bfbfbf" stroke="black" points="0,-260.99 0,-290.99 134,-290.99 134,-260.99 0,-260.99"/>
<text text-anchor="start" x="8" y="-278.99" font-family="Helvetica,sans-Serif" font-size="10.00">vae::core::BankManager</text>
<text text-anchor="middle" x="67" y="-267.99" font-family="Helvetica,sans-Serif" font-size="10.00">::load</text>
</a>
</g>
</g>
<!-- Node1&#45;&gt;Node1 -->
<g id="edge46" class="edge">
<title>Node1&#45;&gt;Node1</title>
<path fill="none" stroke="midnightblue" d="M38.42,-291.15C31.53,-300.55 41.05,-309.49 67,-309.49 82.81,-309.49 92.52,-306.17 96.14,-301.45"/>
<polygon fill="midnightblue" stroke="midnightblue" points="99.62,-300.94 95.58,-291.15 92.63,-301.32 99.62,-300.94"/>
</g>
<!-- Node2 -->
<g id="node2" class="node">
<title>Node2</title>
<g id="a_node2"><a xlink:href="classvae_1_1core_1_1_bank_loader.html#a0c168e922d02dbe23ec42ebfde4d97a2" target="_top" xlink:title="Load a bank.json and all wav files referenced in it.">
<polygon fill="none" stroke="black" points="170,-260.99 170,-290.99 295,-290.99 295,-260.99 170,-260.99"/>
<text text-anchor="start" x="178" y="-278.99" font-family="Helvetica,sans-Serif" font-size="10.00">vae::core::BankLoader</text>
<text text-anchor="middle" x="232.5" y="-267.99" font-family="Helvetica,sans-Serif" font-size="10.00">::load</text>
</a>
</g>
</g>
<!-- Node1&#45;&gt;Node2 -->
<g id="edge1" class="edge">
<title>Node1&#45;&gt;Node2</title>
<path fill="none" stroke="midnightblue" d="M134.03,-275.99C142.57,-275.99 151.34,-275.99 159.96,-275.99"/>
<polygon fill="midnightblue" stroke="midnightblue" points="159.98,-279.49 169.98,-275.99 159.98,-272.49 159.98,-279.49"/>
</g>
<!-- Node3 -->
<g id="node3" class="node">
<title>Node3</title>
<g id="a_node3"><a xlink:href="structvae_1_1core_1_1_source_loader.html#a2341f89c2b79148066369e8d50d98597" target="_top" xlink:title="Loads a wav file for the resource.">
<polygon fill="none" stroke="black" points="331,-260.99 331,-290.99 465,-290.99 465,-260.99 331,-260.99"/>
<text text-anchor="start" x="339" y="-278.99" font-family="Helvetica,sans-Serif" font-size="10.00">vae::core::SourceLoader</text>
<text text-anchor="middle" x="398" y="-267.99" font-family="Helvetica,sans-Serif" font-size="10.00">::load</text>
</a>
</g>
</g>
<!-- Node2&#45;&gt;Node3 -->
<g id="edge2" class="edge">
<title>Node2&#45;&gt;Node3</title>
<path fill="none" stroke="midnightblue" d="M295.31,-275.99C303.54,-275.99 312.06,-275.99 320.5,-275.99"/>
<polygon fill="midnightblue" stroke="midnightblue" points="320.73,-279.49 330.73,-275.99 320.73,-272.49 320.73,-279.49"/>
</g>
<!-- Node4 -->
<g id="node4" class="node">
<title>Node4</title>
<g id="a_node4"><a xlink:href="namespacetklb_1_1ogg.html#a61b130503ea6c0157f584d36dec61371" target="_top" xlink:title="Decode ogg/vorbis from memory or file path.">
<polygon fill="none" stroke="black" points="505.5,-345.49 505.5,-364.49 591.5,-364.49 591.5,-345.49 505.5,-345.49"/>
<text text-anchor="middle" x="548.5" y="-352.49" font-family="Helvetica,sans-Serif" font-size="10.00">tklb::ogg::load</text>
</a>
</g>
</g>
<!-- Node3&#45;&gt;Node4 -->
<g id="edge3" class="edge">
<title>Node3&#45;&gt;Node4</title>
<path fill="none" stroke="midnightblue" d="M427.28,-291.03C454.11,-305.31 494.15,-326.61 520.54,-340.64"/>
<polygon fill="midnightblue" stroke="midnightblue" points="519.12,-343.85 529.59,-345.46 522.41,-337.67 519.12,-343.85"/>
</g>
<!-- Node17 -->
<g id="node17" class="node">
<title>Node17</title>
<g id="a_node17"><a xlink:href="namespacetklb_1_1wave.html#a0eea36d8e07b1520ce77191e081c45bb" target="_top" xlink:title="Decode wav from memory or file path.">
<polygon fill="none" stroke="black" points="501,-206.49 501,-225.49 596,-225.49 596,-206.49 501,-206.49"/>
<text text-anchor="middle" x="548.5" y="-213.49" font-family="Helvetica,sans-Serif" font-size="10.00">tklb::wave::load</text>
</a>
</g>
</g>
<!-- Node3&#45;&gt;Node17 -->
<g id="edge22" class="edge">
<title>Node3&#45;&gt;Node17</title>
<path fill="none" stroke="midnightblue" d="M436.47,-260.85C460.53,-251.13 491.48,-238.62 514.59,-229.29"/>
<polygon fill="midnightblue" stroke="midnightblue" points="516.01,-232.49 523.97,-225.5 513.39,-226 516.01,-232.49"/>
</g>
<!-- Node5 -->
<g id="node5" class="node">
<title>Node5</title>
<g id="a_node5"><a xlink:href="classtklb_1_1_audio_buffer_tpl.html#a2cf39ec8b1c8b109e5d4d006b1385391" target="_top" xlink:title="Fills an 2d array of size maxChannels() with pointers to each channel.">
<polygon fill="none" stroke="black" points="651,-427.99 651,-457.99 765,-457.99 765,-427.99 651,-427.99"/>
<text text-anchor="start" x="659" y="-445.99" font-family="Helvetica,sans-Serif" font-size="10.00">tklb::AudioBufferTpl</text>
<text text-anchor="middle" x="708" y="-434.99" font-family="Helvetica,sans-Serif" font-size="10.00">::getRaw</text>
</a>
</g>
</g>
<!-- Node4&#45;&gt;Node5 -->
<g id="edge4" class="edge">
<title>Node4&#45;&gt;Node5</title>
<path fill="none" stroke="midnightblue" d="M561.23,-364.56C576.73,-376.9 605.22,-398.47 632,-412.99 639.19,-416.88 646.99,-420.56 654.76,-423.92"/>
<polygon fill="midnightblue" stroke="midnightblue" points="653.59,-427.22 664.17,-427.84 656.29,-420.76 653.59,-427.22"/>
</g>
<!-- Node12 -->
<g id="node12" class="node">
<title>Node12</title>
<g id="a_node12"><a xlink:href="classtklb_1_1_audio_buffer_tpl.html#addb80823bf792039ad009baeed0a7dcb" target="_top" xlink:title="Resizes the buffer to the desired length and channel count.">
<polygon fill="none" stroke="black" points="834,-208.99 834,-238.99 948,-238.99 948,-208.99 834,-208.99"/>
<text text-anchor="start" x="842" y="-226.99" font-family="Helvetica,sans-Serif" font-size="10.00">tklb::AudioBufferTpl</text>
<text text-anchor="middle" x="891" y="-215.99" font-family="Helvetica,sans-Serif" font-size="10.00">::resize</text>
</a>
</g>
</g>
<!-- Node4&#45;&gt;Node12 -->
<g id="edge11" class="edge">
<title>Node4&#45;&gt;Node12</title>
<path fill="none" stroke="midnightblue" d="M573.29,-345.39C620.27,-326.48 728.36,-283.3 820,-248.99 825.57,-246.9 831.41,-244.76 837.24,-242.64"/>
<polygon fill="midnightblue" stroke="midnightblue" points="838.77,-245.81 846.98,-239.12 836.39,-239.22 838.77,-245.81"/>
</g>
<!-- Node15 -->
<g id="node15" class="node">
<title>Node15</title>
<g id="a_node15"><a xlink:href="classtklb_1_1_audio_buffer_tpl.html#aa11a79c75ab7aa4e7bb0a70a87bd743d" target="_top" xlink:title="Set a single channel from an array.">
<polygon fill="none" stroke="black" points="823.5,-345.49 823.5,-364.49 958.5,-364.49 958.5,-345.49 823.5,-345.49"/>
<text text-anchor="middle" x="891" y="-352.49" font-family="Helvetica,sans-Serif" font-size="10.00">tklb::AudioBufferTpl::set</text>
</a>
</g>
</g>
<!-- Node4&#45;&gt;Node15 -->
<g id="edge15" class="edge">
<title>Node4&#45;&gt;Node15</title>
<path fill="none" stroke="midnightblue" d="M574.34,-364.61C590.49,-370.34 612.16,-377.05 632,-379.99 698.83,-389.89 716.9,-387.79 784,-379.99 805.43,-377.5 828.82,-372.26 848.16,-367.22"/>
<polygon fill="midnightblue" stroke="midnightblue" points="849.12,-370.58 857.87,-364.62 847.31,-363.82 849.12,-370.58"/>
</g>
<!-- Node16 -->
<g id="node16" class="node">
<title>Node16</title>
<g id="a_node16"><a xlink:href="classtklb_1_1_audio_buffer_tpl.html#ae6bac549ffef997e42354d8e4870afe4" target="_top" xlink:title="Set the amount of valid samples currently in the buffer This is mostly a convenience flag since the a...">
<polygon fill="none" stroke="black" points="651,-339.99 651,-369.99 765,-369.99 765,-339.99 651,-339.99"/>
<text text-anchor="start" x="659" y="-357.99" font-family="Helvetica,sans-Serif" font-size="10.00">tklb::AudioBufferTpl</text>
<text text-anchor="middle" x="708" y="-346.99" font-family="Helvetica,sans-Serif" font-size="10.00">::setValidSize</text>
</a>
</g>
</g>
<!-- Node4&#45;&gt;Node16 -->
<g id="edge20" class="edge">
<title>Node4&#45;&gt;Node16</title>
<path fill="none" stroke="midnightblue" d="M591.71,-354.99C606.72,-354.99 624.02,-354.99 640.57,-354.99"/>
<polygon fill="midnightblue" stroke="midnightblue" points="640.75,-358.49 650.75,-354.99 640.75,-351.49 640.75,-358.49"/>
</g>
<!-- Node6 -->
<g id="node6" class="node">
<title>Node6</title>
<g id="a_node6"><a xlink:href="classtklb_1_1_audio_buffer_tpl.html#ac59e6eb1a408c183b9e360f473786aec" target="_top" xlink:title=" ">
<polygon fill="none" stroke="black" points="832,-383.99 832,-413.99 950,-413.99 950,-383.99 832,-383.99"/>
<text text-anchor="start" x="840" y="-401.99" font-family="Helvetica,sans-Serif" font-size="10.00">tklb::AudioBufferTpl</text>
<text text-anchor="middle" x="891" y="-390.99" font-family="Helvetica,sans-Serif" font-size="10.00">::assertOnConstMem</text>
</a>
</g>
</g>
<!-- Node5&#45;&gt;Node6 -->
<g id="edge5" class="edge">
<title>Node5&#45;&gt;Node6</title>
<path fill="none" stroke="midnightblue" d="M765.28,-429.31C783.22,-424.95 803.27,-420.07 821.96,-415.53"/>
<polygon fill="midnightblue" stroke="midnightblue" points="822.99,-418.88 831.88,-413.12 821.34,-412.08 822.99,-418.88"/>
</g>
<!-- Node7 -->
<g id="node7" class="node">
<title>Node7</title>
<g id="a_node7"><a xlink:href="classtklb_1_1_audio_buffer_tpl.html#a613104aae947423f0fac79142a8bcaf0" target="_top" xlink:title="Fill the provided array with the contents of this buffer.">
<polygon fill="none" stroke="black" points="823,-433.49 823,-452.49 959,-452.49 959,-433.49 823,-433.49"/>
<text text-anchor="middle" x="891" y="-440.49" font-family="Helvetica,sans-Serif" font-size="10.00">tklb::AudioBufferTpl::put</text>
</a>
</g>
</g>
<!-- Node5&#45;&gt;Node7 -->
<g id="edge6" class="edge">
<title>Node5&#45;&gt;Node7</title>
<path fill="none" stroke="midnightblue" d="M765.28,-442.99C780.26,-442.99 796.71,-442.99 812.61,-442.99"/>
<polygon fill="midnightblue" stroke="midnightblue" points="812.96,-446.49 822.96,-442.99 812.96,-439.49 812.96,-446.49"/>
</g>
<!-- Node8 -->
<g id="node8" class="node">
<title>Node8</title>
<g id="a_node8"><a xlink:href="namespacetklb_1_1memory.html#ab89ec197028f903f4ea125eae46c4a10" target="_top" xlink:title="memcpy wrapper">
<polygon fill="none" stroke="black" points="1016.5,-346.49 1016.5,-365.49 1128.5,-365.49 1128.5,-346.49 1016.5,-346.49"/>
<text text-anchor="middle" x="1072.5" y="-353.49" font-family="Helvetica,sans-Serif" font-size="10.00">tklb::memory::copy</text>
</a>
</g>
</g>
<!-- Node7&#45;&gt;Node8 -->
<g id="edge7" class="edge">
<title>Node7&#45;&gt;Node8</title>
<path fill="none" stroke="midnightblue" d="M943.13,-433.49C949.8,-431.02 956.29,-427.91 962,-423.99 984.29,-408.71 975.62,-390.14 998,-374.99 1001.07,-372.91 1004.36,-371.06 1007.77,-369.41"/>
<polygon fill="midnightblue" stroke="midnightblue" points="1009.2,-372.6 1017.06,-365.5 1006.48,-366.15 1009.2,-372.6"/>
</g>
<!-- Node9 -->
<g id="node9" class="node">
<title>Node9</title>
<g id="a_node9"><a xlink:href="classtklb_1_1_audio_buffer_tpl.html#a839371a414e21aea2101d9404e3be9c5" target="_top" xlink:title=" ">
<polygon fill="none" stroke="black" points="1004.5,-384.49 1004.5,-403.49 1140.5,-403.49 1140.5,-384.49 1004.5,-384.49"/>
<text text-anchor="middle" x="1072.5" y="-391.49" font-family="Helvetica,sans-Serif" font-size="10.00">tklb::AudioBufferTpl::get</text>
</a>
</g>
</g>
<!-- Node7&#45;&gt;Node9 -->
<g id="edge8" class="edge">
<title>Node7&#45;&gt;Node9</title>
<path fill="none" stroke="midnightblue" d="M927.26,-433.44C938.37,-430.42 950.7,-427.07 962,-423.99 983.31,-418.18 1006.95,-411.7 1026.79,-406.26"/>
<polygon fill="midnightblue" stroke="midnightblue" points="1027.77,-409.62 1036.49,-403.6 1025.92,-402.87 1027.77,-409.62"/>
</g>
<!-- Node10 -->
<g id="node10" class="node">
<title>Node10</title>
<g id="a_node10"><a xlink:href="namespacetklb.html#a3080595da18d742645ec41d61828a426" target="_top" xlink:title=" ">
<polygon fill="none" stroke="black" points="1042.5,-258.49 1042.5,-277.49 1102.5,-277.49 1102.5,-258.49 1042.5,-258.49"/>
<text text-anchor="middle" x="1072.5" y="-265.49" font-family="Helvetica,sans-Serif" font-size="10.00">tklb::min</text>
</a>
</g>
</g>
<!-- Node7&#45;&gt;Node10 -->
<g id="edge9" class="edge">
<title>Node7&#45;&gt;Node10</title>
<path fill="none" stroke="midnightblue" d="M948.81,-433.39C953.67,-430.92 958.18,-427.83 962,-423.99 1006.07,-379.64 953.94,-332.35 998,-287.99 1007.03,-278.9 1019.75,-273.82 1032.07,-271.03"/>
<polygon fill="midnightblue" stroke="midnightblue" points="1033.03,-274.41 1042.24,-269.18 1031.78,-267.52 1033.03,-274.41"/>
</g>
<!-- Node11 -->
<g id="node11" class="node">
<title>Node11</title>
<g id="a_node11"><a xlink:href="classtklb_1_1_audio_buffer_tpl.html#a37f13531bbfb64cff87ab6473f5bea14" target="_top" xlink:title="fReturns the length of actually valid audio in the buffer.">
<polygon fill="none" stroke="black" points="1015.5,-427.99 1015.5,-457.99 1129.5,-457.99 1129.5,-427.99 1015.5,-427.99"/>
<text text-anchor="start" x="1023.5" y="-445.99" font-family="Helvetica,sans-Serif" font-size="10.00">tklb::AudioBufferTpl</text>
<text text-anchor="middle" x="1072.5" y="-434.99" font-family="Helvetica,sans-Serif" font-size="10.00">::validSize</text>
</a>
</g>
</g>
<!-- Node7&#45;&gt;Node11 -->
<g id="edge10" class="edge">
<title>Node7&#45;&gt;Node11</title>
<path fill="none" stroke="midnightblue" d="M959.09,-442.99C974.14,-442.99 990.1,-442.99 1005.12,-442.99"/>
<polygon fill="midnightblue" stroke="midnightblue" points="1005.35,-446.49 1015.35,-442.99 1005.35,-439.49 1005.35,-446.49"/>
</g>
<!-- Node12&#45;&gt;Node10 -->
<g id="edge13" class="edge">
<title>Node12&#45;&gt;Node10</title>
<path fill="none" stroke="midnightblue" d="M948.3,-237.79C975.77,-244.52 1008.12,-252.45 1032.78,-258.5"/>
<polygon fill="midnightblue" stroke="midnightblue" points="1031.95,-261.9 1042.5,-260.88 1033.62,-255.1 1031.95,-261.9"/>
</g>
<!-- Node13 -->
<g id="node13" class="node">
<title>Node13</title>
<g id="a_node13"><a xlink:href="classtklb_1_1_audio_buffer_tpl.html#a9714a6b0b9ee269c551b28f830a02d57" target="_top" xlink:title="Returns the amount of channels.">
<polygon fill="none" stroke="black" points="1015.5,-208.99 1015.5,-238.99 1129.5,-238.99 1129.5,-208.99 1015.5,-208.99"/>
<text text-anchor="start" x="1023.5" y="-226.99" font-family="Helvetica,sans-Serif" font-size="10.00">tklb::AudioBufferTpl</text>
<text text-anchor="middle" x="1072.5" y="-215.99" font-family="Helvetica,sans-Serif" font-size="10.00">::channels</text>
</a>
</g>
</g>
<!-- Node12&#45;&gt;Node13 -->
<g id="edge12" class="edge">
<title>Node12&#45;&gt;Node13</title>
<path fill="none" stroke="midnightblue" d="M948.3,-223.99C966.35,-223.99 986.5,-223.99 1005.19,-223.99"/>
<polygon fill="midnightblue" stroke="midnightblue" points="1005.4,-227.49 1015.4,-223.99 1005.4,-220.49 1005.4,-227.49"/>
</g>
<!-- Node14 -->
<g id="node14" class="node">
<title>Node14</title>
<g id="a_node14"><a xlink:href="classtklb_1_1_audio_buffer_tpl.html#acbe041a482f37ed4a02b99b239e53f80" target="_top" xlink:title="Returns the allocated length of the buffer.">
<polygon fill="none" stroke="black" points="1015.5,-296.99 1015.5,-326.99 1129.5,-326.99 1129.5,-296.99 1015.5,-296.99"/>
<text text-anchor="start" x="1023.5" y="-314.99" font-family="Helvetica,sans-Serif" font-size="10.00">tklb::AudioBufferTpl</text>
<text text-anchor="middle" x="1072.5" y="-303.99" font-family="Helvetica,sans-Serif" font-size="10.00">::size</text>
</a>
</g>
</g>
<!-- Node12&#45;&gt;Node14 -->
<g id="edge14" class="edge">
<title>Node12&#45;&gt;Node14</title>
<path fill="none" stroke="midnightblue" d="M943.07,-239.01C949.67,-241.87 956.16,-245.18 962,-248.99 981.49,-261.69 978.42,-274.43 998,-286.99 1001.13,-289 1004.45,-290.87 1007.87,-292.6"/>
<polygon fill="midnightblue" stroke="midnightblue" points="1006.56,-295.85 1017.11,-296.87 1009.5,-289.5 1006.56,-295.85"/>
</g>
<!-- Node15&#45;&gt;Node8 -->
<g id="edge16" class="edge">
<title>Node15&#45;&gt;Node8</title>
<path fill="none" stroke="midnightblue" d="M958.58,-355.36C974.22,-355.45 990.86,-355.54 1006.42,-355.63"/>
<polygon fill="midnightblue" stroke="midnightblue" points="1006.45,-359.13 1016.47,-355.68 1006.49,-352.13 1006.45,-359.13"/>
</g>
<!-- Node15&#45;&gt;Node9 -->
<g id="edge17" class="edge">
<title>Node15&#45;&gt;Node9</title>
<path fill="none" stroke="midnightblue" d="M935.91,-364.53C960.56,-369.88 991.51,-376.61 1017.62,-382.28"/>
<polygon fill="midnightblue" stroke="midnightblue" points="1017.22,-385.78 1027.73,-384.48 1018.7,-378.94 1017.22,-385.78"/>
</g>
<!-- Node15&#45;&gt;Node10 -->
<g id="edge18" class="edge">
<title>Node15&#45;&gt;Node10</title>
<path fill="none" stroke="midnightblue" d="M904.36,-345.43C923.46,-331.08 961.74,-303.95 998,-287.99 1008.75,-283.26 1020.89,-279.4 1032.15,-276.38"/>
<polygon fill="midnightblue" stroke="midnightblue" points="1033.36,-279.69 1042.19,-273.85 1031.64,-272.9 1033.36,-279.69"/>
</g>
<!-- Node15&#45;&gt;Node14 -->
<g id="edge19" class="edge">
<title>Node15&#45;&gt;Node14</title>
<path fill="none" stroke="midnightblue" d="M931.84,-345.45C953.44,-340.27 980.71,-333.74 1005.4,-327.82"/>
<polygon fill="midnightblue" stroke="midnightblue" points="1006.53,-331.15 1015.44,-325.42 1004.9,-324.35 1006.53,-331.15"/>
</g>
<!-- Node16&#45;&gt;Node14 -->
<g id="edge21" class="edge">
<title>Node16&#45;&gt;Node14</title>
<path fill="none" stroke="midnightblue" d="M765.06,-344.56C782.61,-341.52 802.07,-338.37 820,-335.99 882.64,-327.65 954.43,-321.1 1005.23,-316.96"/>
<polygon fill="midnightblue" stroke="midnightblue" points="1005.74,-320.43 1015.43,-316.14 1005.18,-313.45 1005.74,-320.43"/>
</g>
<!-- Node17&#45;&gt;Node12 -->
<g id="edge26" class="edge">
<title>Node17&#45;&gt;Node12</title>
<path fill="none" stroke="midnightblue" d="M564.91,-206.42C580.96,-197.05 607.2,-183.43 632,-177.99 697.99,-163.52 717.86,-164.26 784,-177.99 797.18,-180.72 825.67,-193.23 849.79,-204.51"/>
<polygon fill="midnightblue" stroke="midnightblue" points="848.59,-207.81 859.12,-208.92 851.57,-201.48 848.59,-207.81"/>
</g>
<!-- Node17&#45;&gt;Node16 -->
<g id="edge45" class="edge">
<title>Node17&#45;&gt;Node16</title>
<path fill="none" stroke="midnightblue" d="M560.33,-225.54C585.23,-247.52 647.1,-302.12 682.01,-332.93"/>
<polygon fill="midnightblue" stroke="midnightblue" points="680.04,-335.86 689.85,-339.85 684.67,-330.61 680.04,-335.86"/>
</g>
<!-- Node18 -->
<g id="node18" class="node">
<title>Node18</title>
<g id="a_node18"><a xlink:href="classtklb_1_1_heap_buffer.html#afcce6d234f25d074818cdd35e2d33daa" target="_top" xlink:title=" ">
<polygon fill="none" stroke="black" points="645.5,-225.49 645.5,-244.49 770.5,-244.49 770.5,-225.49 645.5,-225.49"/>
<text text-anchor="middle" x="708" y="-232.49" font-family="Helvetica,sans-Serif" font-size="10.00">tklb::HeapBuffer::data</text>
</a>
</g>
</g>
<!-- Node17&#45;&gt;Node18 -->
<g id="edge23" class="edge">
<title>Node17&#45;&gt;Node18</title>
<path fill="none" stroke="midnightblue" d="M596.33,-221.64C608.61,-223.12 622.14,-224.75 635.4,-226.35"/>
<polygon fill="midnightblue" stroke="midnightblue" points="635.12,-229.84 645.46,-227.57 635.95,-222.89 635.12,-229.84"/>
</g>
<!-- Node19 -->
<g id="node19" class="node">
<title>Node19</title>
<g id="a_node19"><a xlink:href="namespacetklb_1_1wave_1_1__.html#a505c3965a632ba8e5aa1e0f5bd5a4d97" target="_top" xlink:title=" ">
<polygon fill="none" stroke="black" points="637.5,-187.49 637.5,-206.49 778.5,-206.49 778.5,-187.49 637.5,-187.49"/>
<text text-anchor="middle" x="708" y="-194.49" font-family="Helvetica,sans-Serif" font-size="10.00">tklb::wave::_::drwaveFree</text>
</a>
</g>
</g>
<!-- Node17&#45;&gt;Node19 -->
<g id="edge24" class="edge">
<title>Node17&#45;&gt;Node19</title>
<path fill="none" stroke="midnightblue" d="M596.33,-210.34C606.09,-209.16 616.63,-207.89 627.2,-206.62"/>
<polygon fill="midnightblue" stroke="midnightblue" points="627.81,-210.07 637.32,-205.39 626.97,-203.12 627.81,-210.07"/>
</g>
<!-- Node20 -->
<g id="node20" class="node">
<title>Node20</title>
<g id="a_node20"><a xlink:href="namespacetklb_1_1wave_1_1__.html#a2785c54e80d6c817bdde01724b8c11cc" target="_top" xlink:title=" ">
<polygon fill="none" stroke="black" points="632,-111.49 632,-130.49 784,-130.49 784,-111.49 632,-111.49"/>
<text text-anchor="middle" x="708" y="-118.49" font-family="Helvetica,sans-Serif" font-size="10.00">tklb::wave::_::drwaveMalloc</text>
</a>
</g>
</g>
<!-- Node17&#45;&gt;Node20 -->
<g id="edge25" class="edge">
<title>Node17&#45;&gt;Node20</title>
<path fill="none" stroke="midnightblue" d="M558.21,-206.33C572.31,-191.22 601.66,-161.97 632,-144.99 639.8,-140.62 648.51,-136.92 657.16,-133.83"/>
<polygon fill="midnightblue" stroke="midnightblue" points="658.46,-137.08 666.84,-130.6 656.24,-130.45 658.46,-137.08"/>
</g>
<!-- Node21 -->
<g id="node21" class="node">
<title>Node21</title>
<g id="a_node21"><a xlink:href="classtklb_1_1_heap_buffer.html#ab37e6c1fc8d124b5737cfdef69b051d1" target="_top" xlink:title="Resize the buffer If the memory is borrowed it will become unique and owned by this instance as soon ...">
<polygon fill="none" stroke="black" points="642,-73.49 642,-92.49 774,-92.49 774,-73.49 642,-73.49"/>
<text text-anchor="middle" x="708" y="-80.49" font-family="Helvetica,sans-Serif" font-size="10.00">tklb::HeapBuffer::resize</text>
</a>
</g>
</g>
<!-- Node17&#45;&gt;Node21 -->
<g id="edge27" class="edge">
<title>Node17&#45;&gt;Node21</title>
<path fill="none" stroke="midnightblue" d="M553.66,-206.28C563.68,-184.11 591.37,-129.56 632,-101.99 634.92,-100.01 638.04,-98.23 641.27,-96.64"/>
<polygon fill="midnightblue" stroke="midnightblue" points="642.83,-99.78 650.65,-92.63 640.08,-93.34 642.83,-99.78"/>
</g>
<!-- Node30 -->
<g id="node30" class="node">
<title>Node30</title>
<g id="a_node30"><a xlink:href="classtklb_1_1_audio_buffer_tpl.html#aa7f380c81a409e3362ceee8a57094ee4" target="_top" xlink:title="Set multiple channels from an interleaved array.">
<polygon fill="none" stroke="black" points="832.5,-257.99 832.5,-287.99 949.5,-287.99 949.5,-257.99 832.5,-257.99"/>
<text text-anchor="start" x="840.5" y="-275.99" font-family="Helvetica,sans-Serif" font-size="10.00">tklb::AudioBufferTpl</text>
<text text-anchor="middle" x="891" y="-264.99" font-family="Helvetica,sans-Serif" font-size="10.00">::setFromInterleaved</text>
</a>
</g>
</g>
<!-- Node17&#45;&gt;Node30 -->
<g id="edge40" class="edge">
<title>Node17&#45;&gt;Node30</title>
<path fill="none" stroke="midnightblue" d="M565.6,-225.52C581.78,-234.58 607.72,-247.72 632,-253.99 695.09,-270.27 769.53,-274.2 822.2,-274.55"/>
<polygon fill="midnightblue" stroke="midnightblue" points="822.42,-278.05 832.43,-274.57 822.44,-271.05 822.42,-278.05"/>
</g>
<!-- Node22 -->
<g id="node22" class="node">
<title>Node22</title>
<g id="a_node22"><a xlink:href="classtklb_1_1_heap_buffer.html#aa2212b76d383c1afe3d4da0448133299" target="_top" xlink:title="Allocated the exact size requsted and copies existing objects.">
<polygon fill="none" stroke="black" points="820,-73.49 820,-92.49 962,-92.49 962,-73.49 820,-73.49"/>
<text text-anchor="middle" x="891" y="-80.49" font-family="Helvetica,sans-Serif" font-size="10.00">tklb::HeapBuffer::allocate</text>
</a>
</g>
</g>
<!-- Node21&#45;&gt;Node22 -->
<g id="edge28" class="edge">
<title>Node21&#45;&gt;Node22</title>
<path fill="none" stroke="midnightblue" d="M774.09,-82.99C785.73,-82.99 797.98,-82.99 809.98,-82.99"/>
<polygon fill="midnightblue" stroke="midnightblue" points="809.98,-86.49 819.98,-82.99 809.98,-79.49 809.98,-86.49"/>
</g>
<!-- Node28 -->
<g id="node28" class="node">
<title>Node28</title>
<g id="a_node28"><a xlink:href="classtklb_1_1_heap_buffer.html#ad513a99105213150fe287a8c209f8bc2" target="_top" xlink:title=" ">
<polygon fill="none" stroke="black" points="822.5,-111.99 822.5,-141.99 959.5,-141.99 959.5,-111.99 822.5,-111.99"/>
<text text-anchor="start" x="830.5" y="-129.99" font-family="Helvetica,sans-Serif" font-size="10.00">tklb::HeapBuffer::closest</text>
<text text-anchor="middle" x="891" y="-118.99" font-family="Helvetica,sans-Serif" font-size="10.00">ChunkSize</text>
</a>
</g>
</g>
<!-- Node21&#45;&gt;Node28 -->
<g id="edge38" class="edge">
<title>Node21&#45;&gt;Node28</title>
<path fill="none" stroke="midnightblue" d="M748.27,-92.54C768.74,-97.51 794.43,-103.76 818.29,-109.56"/>
<polygon fill="midnightblue" stroke="midnightblue" points="817.48,-112.96 828.03,-111.92 819.14,-106.16 817.48,-112.96"/>
</g>
<!-- Node29 -->
<g id="node29" class="node">
<title>Node29</title>
<g id="a_node29"><a xlink:href="classtklb_1_1_heap_buffer.html#a5ec4892e352b8df099fa1c75cfbf328c" target="_top" xlink:title="Returns the amount of elements in the container.">
<polygon fill="none" stroke="black" points="830,-161.49 830,-180.49 952,-180.49 952,-161.49 830,-161.49"/>
<text text-anchor="middle" x="891" y="-168.49" font-family="Helvetica,sans-Serif" font-size="10.00">tklb::HeapBuffer::size</text>
</a>
</g>
</g>
<!-- Node21&#45;&gt;Node29 -->
<g id="edge39" class="edge">
<title>Node21&#45;&gt;Node29</title>
<path fill="none" stroke="midnightblue" d="M764.94,-92.52C771.67,-94.99 778.21,-98.09 784,-101.99 806.42,-117.08 797.82,-135.56 820,-150.99 823.5,-153.42 827.3,-155.57 831.25,-157.45"/>
<polygon fill="midnightblue" stroke="midnightblue" points="830.1,-160.76 840.68,-161.38 832.8,-154.3 830.1,-160.76"/>
</g>
<!-- Node22&#45;&gt;Node8 -->
<g id="edge32" class="edge">
<title>Node22&#45;&gt;Node8</title>
<path fill="none" stroke="midnightblue" d="M949.91,-92.53C954.43,-95.03 958.56,-98.14 962,-101.99 1032.38,-180.8 927.15,-258.6 998,-336.99 1000.75,-340.04 1003.93,-342.62 1007.38,-344.82"/>
<polygon fill="midnightblue" stroke="midnightblue" points="1005.95,-348.02 1016.44,-349.5 1009.16,-341.8 1005.95,-348.02"/>
</g>
<!-- Node22&#45;&gt;Node10 -->
<g id="edge37" class="edge">
<title>Node22&#45;&gt;Node10</title>
<path fill="none" stroke="midnightblue" d="M948.89,-92.51C953.73,-95 958.22,-98.11 962,-101.99 1008.97,-150.14 950.74,-201.12 998,-248.99 1006.97,-258.07 1019.68,-263 1032.01,-265.62"/>
<polygon fill="midnightblue" stroke="midnightblue" points="1031.75,-269.13 1042.19,-267.32 1032.9,-262.22 1031.75,-269.13"/>
</g>
<!-- Node23 -->
<g id="node23" class="node">
<title>Node23</title>
<g id="a_node23"><a xlink:href="classtklb_1_1memory_1_1_memory_pool.html#a12db669f354ab3f2037a67db7f0a8229" target="_top" xlink:title=" ">
<polygon fill="none" stroke="black" points="1183,-1.99 1183,-31.99 1332,-31.99 1332,-1.99 1183,-1.99"/>
<text text-anchor="start" x="1191" y="-19.99" font-family="Helvetica,sans-Serif" font-size="10.00">tklb::memory::MemoryPool</text>
<text text-anchor="middle" x="1257.5" y="-8.99" font-family="Helvetica,sans-Serif" font-size="10.00">::allocate</text>
</a>
</g>
</g>
<!-- Node22&#45;&gt;Node23 -->
<g id="edge29" class="edge">
<title>Node22&#45;&gt;Node23</title>
<path fill="none" stroke="midnightblue" d="M902.09,-73.46C919.81,-57.44 958.42,-25.73 998,-13.99 1054.57,2.8 1121.22,1.55 1172.68,-3.63"/>
<polygon fill="midnightblue" stroke="midnightblue" points="1172.44,-7.13 1182.76,-4.72 1173.19,-0.17 1172.44,-7.13"/>
</g>
<!-- Node24 -->
<g id="node24" class="node">
<title>Node24</title>
<g id="a_node24"><a xlink:href="classtklb_1_1memory_1_1_memory_pool.html#a23f0f8e6cc9408d522b0165dd0f01ac2" target="_top" xlink:title="Allocate aligned if simd is enabled.">
<polygon fill="none" stroke="black" points="998,-23.99 998,-53.99 1147,-53.99 1147,-23.99 998,-23.99"/>
<text text-anchor="start" x="1006" y="-41.99" font-family="Helvetica,sans-Serif" font-size="10.00">tklb::memory::MemoryPool</text>
<text text-anchor="middle" x="1072.5" y="-30.99" font-family="Helvetica,sans-Serif" font-size="10.00">::allocateAligned</text>
</a>
</g>
</g>
<!-- Node22&#45;&gt;Node24 -->
<g id="edge30" class="edge">
<title>Node22&#45;&gt;Node24</title>
<path fill="none" stroke="midnightblue" d="M930.95,-73.44C951.16,-68.49 976.49,-62.28 1000.07,-56.5"/>
<polygon fill="midnightblue" stroke="midnightblue" points="1001.16,-59.83 1010.04,-54.05 999.49,-53.04 1001.16,-59.83"/>
</g>
<!-- Node25 -->
<g id="node25" class="node">
<title>Node25</title>
<g id="a_node25"><a xlink:href="classtklb_1_1memory_1_1_memory_pool.html#ae2f6e404a58380b0bcf0f3de281a7546" target="_top" xlink:title=" ">
<polygon fill="none" stroke="black" points="1183,-133.99 1183,-163.99 1332,-163.99 1332,-133.99 1183,-133.99"/>
<text text-anchor="start" x="1191" y="-151.99" font-family="Helvetica,sans-Serif" font-size="10.00">tklb::memory::MemoryPool</text>
<text text-anchor="middle" x="1257.5" y="-140.99" font-family="Helvetica,sans-Serif" font-size="10.00">::deallocate</text>
</a>
</g>
</g>
<!-- Node22&#45;&gt;Node25 -->
<g id="edge33" class="edge">
<title>Node22&#45;&gt;Node25</title>
<path fill="none" stroke="midnightblue" d="M943.13,-92.49C949.8,-94.96 956.29,-98.07 962,-101.99 984.29,-117.27 973.89,-138.78 998,-150.99 1056.99,-180.85 1133.7,-175.68 1188.2,-165.91"/>
<polygon fill="midnightblue" stroke="midnightblue" points="1188.93,-169.33 1198.1,-164.04 1187.63,-162.45 1188.93,-169.33"/>
</g>
<!-- Node26 -->
<g id="node26" class="node">
<title>Node26</title>
<g id="a_node26"><a xlink:href="classtklb_1_1memory_1_1_memory_pool.html#a7b2a7e96e64767e2cff9dfddb9085779" target="_top" xlink:title=" ">
<polygon fill="none" stroke="black" points="998,-111.99 998,-141.99 1147,-141.99 1147,-111.99 998,-111.99"/>
<text text-anchor="start" x="1006" y="-129.99" font-family="Helvetica,sans-Serif" font-size="10.00">tklb::memory::MemoryPool</text>
<text text-anchor="middle" x="1072.5" y="-118.99" font-family="Helvetica,sans-Serif" font-size="10.00">::deallocateAligned</text>
</a>
</g>
</g>
<!-- Node22&#45;&gt;Node26 -->
<g id="edge34" class="edge">
<title>Node22&#45;&gt;Node26</title>
<path fill="none" stroke="midnightblue" d="M930.95,-92.54C951.16,-97.49 976.49,-103.7 1000.07,-109.48"/>
<polygon fill="midnightblue" stroke="midnightblue" points="999.49,-112.94 1010.04,-111.92 1001.16,-106.14 999.49,-112.94"/>
</g>
<!-- Node27 -->
<g id="node27" class="node">
<title>Node27</title>
<g id="a_node27"><a xlink:href="classtklb_1_1_heap_buffer.html#af3331f4c39082c6bedf37b7931b1c27a" target="_top" xlink:title="Whether the memory is managed by the instance or is borrowed.">
<polygon fill="none" stroke="black" points="1001.5,-73.49 1001.5,-92.49 1143.5,-92.49 1143.5,-73.49 1001.5,-73.49"/>
<text text-anchor="middle" x="1072.5" y="-80.49" font-family="Helvetica,sans-Serif" font-size="10.00">tklb::HeapBuffer::injected</text>
</a>
</g>
</g>
<!-- Node22&#45;&gt;Node27 -->
<g id="edge36" class="edge">
<title>Node22&#45;&gt;Node27</title>
<path fill="none" stroke="midnightblue" d="M962.17,-82.99C971.73,-82.99 981.6,-82.99 991.32,-82.99"/>
<polygon fill="midnightblue" stroke="midnightblue" points="991.38,-86.49 1001.38,-82.99 991.38,-79.49 991.38,-86.49"/>
</g>
<!-- Node24&#45;&gt;Node23 -->
<g id="edge31" class="edge">
<title>Node24&#45;&gt;Node23</title>
<path fill="none" stroke="midnightblue" d="M1147.14,-30.14C1155.57,-29.12 1164.2,-28.08 1172.74,-27.06"/>
<polygon fill="midnightblue" stroke="midnightblue" points="1173.2,-30.53 1182.71,-25.86 1172.36,-23.58 1173.2,-30.53"/>
</g>
<!-- Node26&#45;&gt;Node25 -->
<g id="edge35" class="edge">
<title>Node26&#45;&gt;Node25</title>
<path fill="none" stroke="midnightblue" d="M1147.14,-135.84C1155.57,-136.85 1164.2,-137.89 1172.74,-138.92"/>
<polygon fill="midnightblue" stroke="midnightblue" points="1172.36,-142.4 1182.71,-140.12 1173.2,-135.45 1172.36,-142.4"/>
</g>
<!-- Node30&#45;&gt;Node9 -->
<g id="edge42" class="edge">
<title>Node30&#45;&gt;Node9</title>
<path fill="none" stroke="midnightblue" d="M909.67,-288.09C924.08,-300.59 944.78,-318.99 962,-335.99 978.78,-352.56 977.76,-362.88 998,-374.99 1001.63,-377.16 1005.5,-379.08 1009.49,-380.79"/>
<polygon fill="midnightblue" stroke="midnightblue" points="1008.4,-384.12 1019,-384.39 1010.88,-377.57 1008.4,-384.12"/>
</g>
<!-- Node30&#45;&gt;Node10 -->
<g id="edge43" class="edge">
<title>Node30&#45;&gt;Node10</title>
<path fill="none" stroke="midnightblue" d="M949.78,-271.38C976.74,-270.63 1008.13,-269.75 1032.28,-269.08"/>
<polygon fill="midnightblue" stroke="midnightblue" points="1032.59,-272.57 1042.49,-268.8 1032.4,-265.58 1032.59,-272.57"/>
</g>
<!-- Node30&#45;&gt;Node13 -->
<g id="edge41" class="edge">
<title>Node30&#45;&gt;Node13</title>
<path fill="none" stroke="midnightblue" d="M947.32,-257.89C966.09,-252.76 987.23,-246.99 1006.67,-241.69"/>
<polygon fill="midnightblue" stroke="midnightblue" points="1007.64,-245.05 1016.36,-239.04 1005.79,-238.3 1007.64,-245.05"/>
</g>
<!-- Node30&#45;&gt;Node14 -->
<g id="edge44" class="edge">
<title>Node30&#45;&gt;Node14</title>
<path fill="none" stroke="midnightblue" d="M949.78,-285.54C967.51,-289.39 987.15,-293.66 1005.39,-297.62"/>
<polygon fill="midnightblue" stroke="midnightblue" points="1004.84,-301.09 1015.36,-299.79 1006.33,-294.25 1004.84,-301.09"/>
</g>
</g>
</svg>
