<?xml version="1.0" encoding="UTF-8" standalone="no"?>
<!DOCTYPE svg PUBLIC "-//W3C//DTD SVG 1.1//EN"
 "http://www.w3.org/Graphics/SVG/1.1/DTD/svg11.dtd">
<!-- Generated by graphviz version 2.50.0 (0)
 -->
<!-- Title: tklb::ResamplerLinearTpl&lt; T, Buffer &gt; Pages: 1 -->
<svg width="372pt" height="292pt"
 viewBox="0.00 0.00 372.00 292.00" xmlns="http://www.w3.org/2000/svg" xmlns:xlink="http://www.w3.org/1999/xlink">
<g id="graph0" class="graph" transform="scale(1 1) rotate(0) translate(4 288)">
<title>tklb::ResamplerLinearTpl&lt; T, Buffer &gt;</title>
<!-- Node1 -->
<g id="node1" class="node">
<title>Node1</title>
<g id="a_node1"><a xlink:title=" ">
<polygon fill="#bfbfbf" stroke="black" points="138.5,-0.5 138.5,-167.5 277.5,-167.5 277.5,-0.5 138.5,-0.5"/>
<text text-anchor="start" x="146.5" y="-155.5" font-family="Helvetica,sans-Serif" font-size="10.00">tklb::ResamplerLinearTpl</text>
<text text-anchor="middle" x="208" y="-144.5" font-family="Helvetica,sans-Serif" font-size="10.00">&lt; T, Buffer &gt;</text>
<polyline fill="none" stroke="black" points="138.5,-137.5 277.5,-137.5 "/>
<text text-anchor="middle" x="208" y="-125.5" font-family="Helvetica,sans-Serif" font-size="10.00"> </text>
<polyline fill="none" stroke="black" points="138.5,-118.5 277.5,-118.5 "/>
<text text-anchor="start" x="146.5" y="-106.5" font-family="Helvetica,sans-Serif" font-size="10.00">+ ResamplerLinearTpl()</text>
<text text-anchor="start" x="146.5" y="-95.5" font-family="Helvetica,sans-Serif" font-size="10.00">+ ResamplerLinearTpl()</text>
<text text-anchor="start" x="146.5" y="-84.5" font-family="Helvetica,sans-Serif" font-size="10.00">+ init()</text>
<text text-anchor="start" x="146.5" y="-73.5" font-family="Helvetica,sans-Serif" font-size="10.00">+ process()</text>
<text text-anchor="start" x="146.5" y="-62.5" font-family="Helvetica,sans-Serif" font-size="10.00">+ getLatency()</text>
<text text-anchor="start" x="146.5" y="-51.5" font-family="Helvetica,sans-Serif" font-size="10.00">+ estimateNeed()</text>
<text text-anchor="start" x="146.5" y="-40.5" font-family="Helvetica,sans-Serif" font-size="10.00">+ estimateOut()</text>
<text text-anchor="start" x="146.5" y="-29.5" font-family="Helvetica,sans-Serif" font-size="10.00">+ isInitialized()</text>
<text text-anchor="start" x="146.5" y="-18.5" font-family="Helvetica,sans-Serif" font-size="10.00">+ calculateBufferSize()</text>
<text text-anchor="start" x="146.5" y="-7.5" font-family="Helvetica,sans-Serif" font-size="10.00">+ resample()</text>
</a>
</g>
</g>
<!-- Node2 -->
<g id="node2" class="node">
<title>Node2</title>
<g id="a_node2"><a xlink:title=" ">
<polygon fill="none" stroke="#bfbfbf" points="0,-226.5 0,-283.5 118,-283.5 118,-226.5 0,-226.5"/>
<text text-anchor="middle" x="59" y="-271.5" font-family="Helvetica,sans-Serif" font-size="10.00">static constexpr Size</text>
<polyline fill="none" stroke="#bfbfbf" points="0,-264.5 118,-264.5 "/>
<text text-anchor="middle" x="59" y="-252.5" font-family="Helvetica,sans-Serif" font-size="10.00"> </text>
<polyline fill="none" stroke="#bfbfbf" points="0,-245.5 118,-245.5 "/>
<text text-anchor="middle" x="59" y="-233.5" font-family="Helvetica,sans-Serif" font-size="10.00"> </text>
</a>
</g>
</g>
<!-- Node2&#45;&gt;Node1 -->
<g id="edge1" class="edge">
<title>Node2&#45;&gt;Node1</title>
<path fill="none" stroke="#404040" d="M61.62,-226.49C63.89,-213.39 68.11,-198 76,-186 89.62,-165.28 108.97,-147.08 128.67,-132.06"/>
<polygon fill="none" stroke="#404040" points="128.68,-132.05 131.14,-125.27 138.34,-124.94 135.88,-131.72 128.68,-132.05"/>
<text text-anchor="middle" x="120" y="-194.5" font-family="Helvetica,sans-Serif" font-size="10.00"> &#45;MAX_CHANNELS</text>
</g>
<!-- Node3 -->
<g id="node3" class="node">
<title>Node3</title>
<g id="a_node3"><a xlink:title=" ">
<polygon fill="none" stroke="#bfbfbf" points="155.5,-226.5 155.5,-283.5 184.5,-283.5 184.5,-226.5 155.5,-226.5"/>
<text text-anchor="middle" x="170" y="-271.5" font-family="Helvetica,sans-Serif" font-size="10.00">int</text>
<polyline fill="none" stroke="#bfbfbf" points="155.5,-264.5 184.5,-264.5 "/>
<text text-anchor="middle" x="170" y="-252.5" font-family="Helvetica,sans-Serif" font-size="10.00"> </text>
<polyline fill="none" stroke="#bfbfbf" points="155.5,-245.5 184.5,-245.5 "/>
<text text-anchor="middle" x="170" y="-233.5" font-family="Helvetica,sans-Serif" font-size="10.00"> </text>
</a>
</g>
</g>
<!-- Node3&#45;&gt;Node1 -->
<g id="edge2" class="edge">
<title>Node3&#45;&gt;Node1</title>
<path fill="none" stroke="#404040" d="M168.32,-226.33C168.09,-213.91 168.57,-199.12 171,-186 171.4,-183.82 171.85,-181.63 172.33,-179.43"/>
<polygon fill="none" stroke="#404040" points="172.37,-179.26 169.92,-172.47 175.24,-167.6 177.69,-174.39 172.37,-179.26"/>
<text text-anchor="middle" x="198" y="-200" font-family="Helvetica,sans-Serif" font-size="10.00"> &#45;mRateIn</text>
<text text-anchor="middle" x="198" y="-189" font-family="Helvetica,sans-Serif" font-size="10.00">&#45;mRateOut</text>
</g>
<!-- Node4 -->
<g id="node4" class="node">
<title>Node4</title>
<g id="a_node4"><a xlink:title=" ">
<polygon fill="none" stroke="#bfbfbf" points="222,-226.5 222,-283.5 272,-283.5 272,-226.5 222,-226.5"/>
<text text-anchor="middle" x="247" y="-271.5" font-family="Helvetica,sans-Serif" font-size="10.00">double</text>
<polyline fill="none" stroke="#bfbfbf" points="222,-264.5 272,-264.5 "/>
<text text-anchor="middle" x="247" y="-252.5" font-family="Helvetica,sans-Serif" font-size="10.00"> </text>
<polyline fill="none" stroke="#bfbfbf" points="222,-245.5 272,-245.5 "/>
<text text-anchor="middle" x="247" y="-233.5" font-family="Helvetica,sans-Serif" font-size="10.00"> </text>
</a>
</g>
</g>
<!-- Node4&#45;&gt;Node1 -->
<g id="edge3" class="edge">
<title>Node4&#45;&gt;Node1</title>
<path fill="none" stroke="#404040" d="M240.65,-226.47C237.61,-213.32 233.78,-196.73 229.83,-179.58"/>
<polygon fill="none" stroke="#404040" points="229.77,-179.34 224.52,-174.4 227.07,-167.65 232.32,-172.6 229.77,-179.34"/>
<text text-anchor="middle" x="258" y="-194.5" font-family="Helvetica,sans-Serif" font-size="10.00"> &#45;mFactor</text>
</g>
<!-- Node5 -->
<g id="node5" class="node">
<title>Node5</title>
<g id="a_node5"><a xlink:title=" ">
<polygon fill="none" stroke="#bfbfbf" points="301.5,-226.5 301.5,-283.5 330.5,-283.5 330.5,-226.5 301.5,-226.5"/>
<text text-anchor="middle" x="316" y="-271.5" font-family="Helvetica,sans-Serif" font-size="10.00">T</text>
<polyline fill="none" stroke="#bfbfbf" points="301.5,-264.5 330.5,-264.5 "/>
<text text-anchor="middle" x="316" y="-252.5" font-family="Helvetica,sans-Serif" font-size="10.00"> </text>
<polyline fill="none" stroke="#bfbfbf" points="301.5,-245.5 330.5,-245.5 "/>
<text text-anchor="middle" x="316" y="-233.5" font-family="Helvetica,sans-Serif" font-size="10.00"> </text>
</a>
</g>
</g>
<!-- Node5&#45;&gt;Node1 -->
<g id="edge4" class="edge">
<title>Node5&#45;&gt;Node1</title>
<path fill="none" stroke="#404040" d="M305.12,-226.49C299.7,-213.82 292.67,-198.8 285,-186 283.41,-183.35 281.77,-180.69 280.08,-178.03"/>
<polygon fill="none" stroke="#404040" points="279.93,-177.8 273.3,-174.97 273.37,-167.76 280,-170.59 279.93,-177.8"/>
<text text-anchor="middle" x="330" y="-200" font-family="Helvetica,sans-Serif" font-size="10.00"> &#45;mLastFrame</text>
<text text-anchor="middle" x="330" y="-189" font-family="Helvetica,sans-Serif" font-size="10.00">&#45;mOffset</text>
</g>
</g>
</svg>
