<?xml version="1.0" encoding="UTF-8" standalone="no"?>
<!DOCTYPE svg PUBLIC "-//W3C//DTD SVG 1.1//EN"
 "http://www.w3.org/Graphics/SVG/1.1/DTD/svg11.dtd">
<!-- Generated by graphviz version 2.50.0 (0)
 -->
<!-- Title: tklb::AudioRingBufferTpl::push Pages: 1 -->
<svg width="487pt" height="195pt"
 viewBox="0.00 0.00 487.00 194.50" xmlns="http://www.w3.org/2000/svg" xmlns:xlink="http://www.w3.org/1999/xlink">
<g id="graph0" class="graph" transform="scale(1 1) rotate(0) translate(4 190.5)">
<title>tklb::AudioRingBufferTpl::push</title>
<!-- Node1 -->
<g id="node1" class="node">
<title>Node1</title>
<g id="a_node1"><a xlink:title="Adds validSize() amount of frames to the buffer.">
<polygon fill="#bfbfbf" stroke="black" points="0,-44.5 0,-74.5 136,-74.5 136,-44.5 0,-44.5"/>
<text text-anchor="start" x="8" y="-62.5" font-family="Helvetica,sans-Serif" font-size="10.00">tklb::AudioRingBufferTpl</text>
<text text-anchor="middle" x="68" y="-51.5" font-family="Helvetica,sans-Serif" font-size="10.00">::push</text>
</a>
</g>
</g>
<!-- Node2 -->
<g id="node2" class="node">
<title>Node2</title>
<g id="a_node2"><a xlink:href="classtklb_1_1_audio_buffer_tpl.html#ab6e5250746ca3784a568591a3ffdbc12" target="_top" xlink:title="Set a single channel from an array.">
<polygon fill="none" stroke="black" points="172,-91 172,-110 307,-110 307,-91 172,-91"/>
<text text-anchor="middle" x="239.5" y="-98" font-family="Helvetica,sans-Serif" font-size="10.00">tklb::AudioBufferTpl::set</text>
</a>
</g>
</g>
<!-- Node1&#45;&gt;Node2 -->
<g id="edge1" class="edge">
<title>Node1&#45;&gt;Node2</title>
<path fill="none" stroke="midnightblue" d="M131.15,-74.53C150.29,-79.16 171.08,-84.19 189.22,-88.58"/>
<polygon fill="midnightblue" stroke="midnightblue" points="188.46,-92 199,-90.95 190.1,-85.19 188.46,-92"/>
</g>
<!-- Node6 -->
<g id="node6" class="node">
<title>Node6</title>
<g id="a_node6"><a xlink:href="classtklb_1_1_audio_buffer_tpl.html#af6df8d7e6840eee3f84807bd1662c3ed" target="_top" xlink:title="Returns the allocated length of the buffer.">
<polygon fill="none" stroke="black" points="354,-41.5 354,-71.5 468,-71.5 468,-41.5 354,-41.5"/>
<text text-anchor="start" x="362" y="-59.5" font-family="Helvetica,sans-Serif" font-size="10.00">tklb::AudioBufferTpl</text>
<text text-anchor="middle" x="411" y="-48.5" font-family="Helvetica,sans-Serif" font-size="10.00">::size</text>
</a>
</g>
</g>
<!-- Node1&#45;&gt;Node6 -->
<g id="edge6" class="edge">
<title>Node1&#45;&gt;Node6</title>
<path fill="none" stroke="midnightblue" d="M136.37,-58.91C196.46,-58.38 283.93,-57.61 343.69,-57.08"/>
<polygon fill="midnightblue" stroke="midnightblue" points="343.81,-60.58 353.78,-56.99 343.75,-53.58 343.81,-60.58"/>
</g>
<!-- Node7 -->
<g id="node7" class="node">
<title>Node7</title>
<g id="a_node7"><a xlink:href="classtklb_1_1_audio_buffer_tpl.html#a86cec40e8c99a90d93db996d92ddfece" target="_top" xlink:title="Returns the length of actually valid audio in the buffer.">
<polygon fill="none" stroke="black" points="182.5,-0.5 182.5,-30.5 296.5,-30.5 296.5,-0.5 182.5,-0.5"/>
<text text-anchor="start" x="190.5" y="-18.5" font-family="Helvetica,sans-Serif" font-size="10.00">tklb::AudioBufferTpl</text>
<text text-anchor="middle" x="239.5" y="-7.5" font-family="Helvetica,sans-Serif" font-size="10.00">::validSize</text>
</a>
</g>
</g>
<!-- Node1&#45;&gt;Node7 -->
<g id="edge7" class="edge">
<title>Node1&#45;&gt;Node7</title>
<path fill="none" stroke="midnightblue" d="M126.86,-44.48C141.57,-40.66 157.49,-36.53 172.57,-32.62"/>
<polygon fill="midnightblue" stroke="midnightblue" points="173.54,-35.98 182.34,-30.08 171.78,-29.2 173.54,-35.98"/>
</g>
<!-- Node3 -->
<g id="node3" class="node">
<title>Node3</title>
<g id="a_node3"><a xlink:href="namespacetklb_1_1memory.html#ab89ec197028f903f4ea125eae46c4a10" target="_top" xlink:title="memcpy wrapper">
<polygon fill="none" stroke="black" points="355,-167 355,-186 467,-186 467,-167 355,-167"/>
<text text-anchor="middle" x="411" y="-174" font-family="Helvetica,sans-Serif" font-size="10.00">tklb::memory::copy</text>
</a>
</g>
</g>
<!-- Node2&#45;&gt;Node3 -->
<g id="edge2" class="edge">
<title>Node2&#45;&gt;Node3</title>
<path fill="none" stroke="midnightblue" d="M255.23,-110.13C274.67,-122.5 310.26,-143.97 343,-157.5 348.72,-159.86 354.83,-162.04 360.95,-164.01"/>
<polygon fill="midnightblue" stroke="midnightblue" points="359.92,-167.36 370.51,-166.94 361.97,-160.67 359.92,-167.36"/>
</g>
<!-- Node4 -->
<g id="node4" class="node">
<title>Node4</title>
<g id="a_node4"><a xlink:href="classtklb_1_1_audio_buffer_tpl.html#aee0540e90ae2790f9a809917bc5a04fd" target="_top" xlink:title=" ">
<polygon fill="none" stroke="black" points="343,-129 343,-148 479,-148 479,-129 343,-129"/>
<text text-anchor="middle" x="411" y="-136" font-family="Helvetica,sans-Serif" font-size="10.00">tklb::AudioBufferTpl::get</text>
</a>
</g>
</g>
<!-- Node2&#45;&gt;Node4 -->
<g id="edge3" class="edge">
<title>Node2&#45;&gt;Node4</title>
<path fill="none" stroke="midnightblue" d="M283.27,-110.09C305.84,-115.15 333.72,-121.4 357.58,-126.75"/>
<polygon fill="midnightblue" stroke="midnightblue" points="357.01,-130.21 367.54,-128.98 358.54,-123.38 357.01,-130.21"/>
</g>
<!-- Node5 -->
<g id="node5" class="node">
<title>Node5</title>
<g id="a_node5"><a xlink:href="namespacetklb.html#a3080595da18d742645ec41d61828a426" target="_top" xlink:title=" ">
<polygon fill="none" stroke="black" points="381,-91 381,-110 441,-110 441,-91 381,-91"/>
<text text-anchor="middle" x="411" y="-98" font-family="Helvetica,sans-Serif" font-size="10.00">tklb::min</text>
</a>
</g>
</g>
<!-- Node2&#45;&gt;Node5 -->
<g id="edge4" class="edge">
<title>Node2&#45;&gt;Node5</title>
<path fill="none" stroke="midnightblue" d="M307,-100.5C328.6,-100.5 351.86,-100.5 370.8,-100.5"/>
<polygon fill="midnightblue" stroke="midnightblue" points="370.84,-104 380.84,-100.5 370.84,-97 370.84,-104"/>
</g>
<!-- Node2&#45;&gt;Node6 -->
<g id="edge5" class="edge">
<title>Node2&#45;&gt;Node6</title>
<path fill="none" stroke="midnightblue" d="M277.28,-90.95C296.79,-85.89 321.35,-79.51 344.03,-73.63"/>
<polygon fill="midnightblue" stroke="midnightblue" points="345.15,-76.95 353.95,-71.05 343.39,-70.18 345.15,-76.95"/>
</g>
</g>
</svg>
