<?xml version="1.0" encoding="UTF-8" standalone="no"?>
<!DOCTYPE svg PUBLIC "-//W3C//DTD SVG 1.1//EN"
 "http://www.w3.org/Graphics/SVG/1.1/DTD/svg11.dtd">
<!-- Generated by graphviz version 2.50.0 (0)
 -->
<!-- Title: tklb::HandleBuffer::pop Pages: 1 -->
<svg width="449pt" height="119pt"
 viewBox="0.00 0.00 449.00 118.50" xmlns="http://www.w3.org/2000/svg" xmlns:xlink="http://www.w3.org/1999/xlink">
<g id="graph0" class="graph" transform="scale(1 1) rotate(0) translate(4 114.5)">
<title>tklb::HandleBuffer::pop</title>
<!-- Node1 -->
<g id="node1" class="node">
<title>Node1</title>
<g id="a_node1"><a xlink:title=" ">
<polygon fill="#bfbfbf" stroke="black" points="0,-38.5 0,-57.5 130,-57.5 130,-38.5 0,-38.5"/>
<text text-anchor="middle" x="65" y="-45.5" font-family="Helvetica,sans-Serif" font-size="10.00">tklb::HandleBuffer::pop</text>
</a>
</g>
</g>
<!-- Node2 -->
<g id="node2" class="node">
<title>Node2</title>
<g id="a_node2"><a xlink:href="classtklb_1_1_handle_buffer.html#a88d775173905f9b3d50f8ec20195fe50" target="_top" xlink:title=" ">
<polygon fill="none" stroke="black" points="166,-38.5 166,-57.5 288,-57.5 288,-38.5 166,-38.5"/>
<text text-anchor="middle" x="227" y="-45.5" font-family="Helvetica,sans-Serif" font-size="10.00">tklb::HandleBuffer::at</text>
</a>
</g>
</g>
<!-- Node1&#45;&gt;Node2 -->
<g id="edge1" class="edge">
<title>Node1&#45;&gt;Node2</title>
<path fill="none" stroke="midnightblue" d="M130.16,-48C138.56,-48 147.21,-48 155.71,-48"/>
<polygon fill="midnightblue" stroke="midnightblue" points="155.98,-51.5 165.98,-48 155.98,-44.5 155.98,-51.5"/>
</g>
<!-- Node5 -->
<g id="node5" class="node">
<title>Node5</title>
<g id="a_node5"><a xlink:href="namespacetklb_1_1memory.html#ab89ec197028f903f4ea125eae46c4a10" target="_top" xlink:title="memcpy wrapper">
<polygon fill="none" stroke="black" points="171,-0.5 171,-19.5 283,-19.5 283,-0.5 171,-0.5"/>
<text text-anchor="middle" x="227" y="-7.5" font-family="Helvetica,sans-Serif" font-size="10.00">tklb::memory::copy</text>
</a>
</g>
</g>
<!-- Node1&#45;&gt;Node5 -->
<g id="edge4" class="edge">
<title>Node1&#45;&gt;Node5</title>
<path fill="none" stroke="midnightblue" d="M106.37,-38.41C127.49,-33.4 153.53,-27.21 175.92,-21.89"/>
<polygon fill="midnightblue" stroke="midnightblue" points="176.99,-25.24 185.92,-19.52 175.38,-18.43 176.99,-25.24"/>
</g>
<!-- Node6 -->
<g id="node6" class="node">
<title>Node6</title>
<g id="a_node6"><a xlink:href="classtklb_1_1_handle_buffer.html#af86e082f4785d139c40b000c69eb4874" target="_top" xlink:title=" ">
<polygon fill="none" stroke="black" points="174,-77 174,-107 280,-107 280,-77 174,-77"/>
<text text-anchor="start" x="182" y="-95" font-family="Helvetica,sans-Serif" font-size="10.00">tklb::HandleBuffer</text>
<text text-anchor="middle" x="227" y="-84" font-family="Helvetica,sans-Serif" font-size="10.00">::remove</text>
</a>
</g>
</g>
<!-- Node1&#45;&gt;Node6 -->
<g id="edge5" class="edge">
<title>Node1&#45;&gt;Node6</title>
<path fill="none" stroke="midnightblue" d="M100.72,-57.55C119.21,-62.63 142.51,-69.04 163.99,-74.95"/>
<polygon fill="midnightblue" stroke="midnightblue" points="163.14,-78.34 173.71,-77.62 164.99,-71.59 163.14,-78.34"/>
</g>
<!-- Node3 -->
<g id="node3" class="node">
<title>Node3</title>
<g id="a_node3"><a xlink:href="classtklb_1_1_heap_buffer.html#afcce6d234f25d074818cdd35e2d33daa" target="_top" xlink:title=" ">
<polygon fill="none" stroke="black" points="324,-80 324,-110 441,-110 441,-80 324,-80"/>
<text text-anchor="start" x="332" y="-98" font-family="Helvetica,sans-Serif" font-size="10.00">tklb::HeapBuffer&lt; T,</text>
<text text-anchor="middle" x="382.5" y="-87" font-family="Helvetica,sans-Serif" font-size="10.00"> true &gt;::data</text>
</a>
</g>
</g>
<!-- Node2&#45;&gt;Node3 -->
<g id="edge2" class="edge">
<title>Node2&#45;&gt;Node3</title>
<path fill="none" stroke="midnightblue" d="M259.06,-57.51C277.3,-63.09 300.94,-70.33 322.58,-76.96"/>
<polygon fill="midnightblue" stroke="midnightblue" points="321.76,-80.37 332.35,-79.95 323.81,-73.68 321.76,-80.37"/>
</g>
<!-- Node4 -->
<g id="node4" class="node">
<title>Node4</title>
<g id="a_node4"><a xlink:href="classtklb_1_1_heap_buffer.html#a5ec4892e352b8df099fa1c75cfbf328c" target="_top" xlink:title="Returns the amount of elements in the container.">
<polygon fill="none" stroke="black" points="324,-31 324,-61 441,-61 441,-31 324,-31"/>
<text text-anchor="start" x="332" y="-49" font-family="Helvetica,sans-Serif" font-size="10.00">tklb::HeapBuffer&lt; T,</text>
<text text-anchor="middle" x="382.5" y="-38" font-family="Helvetica,sans-Serif" font-size="10.00"> true &gt;::size</text>
</a>
</g>
</g>
<!-- Node2&#45;&gt;Node4 -->
<g id="edge3" class="edge">
<title>Node2&#45;&gt;Node4</title>
<path fill="none" stroke="midnightblue" d="M288.23,-47.22C296.59,-47.11 305.22,-46.99 313.71,-46.88"/>
<polygon fill="midnightblue" stroke="midnightblue" points="314,-50.38 323.96,-46.75 313.91,-43.38 314,-50.38"/>
</g>
<!-- Node6&#45;&gt;Node3 -->
<g id="edge6" class="edge">
<title>Node6&#45;&gt;Node3</title>
<path fill="none" stroke="midnightblue" d="M280.4,-93.02C291.1,-93.23 302.51,-93.46 313.67,-93.67"/>
<polygon fill="midnightblue" stroke="midnightblue" points="313.75,-97.18 323.82,-93.87 313.89,-90.18 313.75,-97.18"/>
</g>
<!-- Node6&#45;&gt;Node4 -->
<g id="edge7" class="edge">
<title>Node6&#45;&gt;Node4</title>
<path fill="none" stroke="midnightblue" d="M278.26,-76.94C292.11,-72.79 307.28,-68.24 321.62,-63.94"/>
<polygon fill="midnightblue" stroke="midnightblue" points="322.81,-67.24 331.39,-61.02 320.8,-60.54 322.81,-67.24"/>
</g>
</g>
</svg>
