<?xml version="1.0" encoding="UTF-8" standalone="no"?>
<!DOCTYPE svg PUBLIC "-//W3C//DTD SVG 1.1//EN"
 "http://www.w3.org/Graphics/SVG/1.1/DTD/svg11.dtd">
<!-- Generated by graphviz version 2.50.0 (0)
 -->
<!-- Title: vae::core::fs::File::readAll Pages: 1 -->
<svg width="1012pt" height="134pt"
 viewBox="0.00 0.00 1012.00 133.50" xmlns="http://www.w3.org/2000/svg" xmlns:xlink="http://www.w3.org/1999/xlink">
<g id="graph0" class="graph" transform="scale(1 1) rotate(0) translate(4 129.5)">
<title>vae::core::fs::File::readAll</title>
<!-- Node1 -->
<g id="node1" class="node">
<title>Node1</title>
<g id="a_node1"><a xlink:title=" ">
<polygon fill="#bfbfbf" stroke="black" points="904,-61 904,-91 1004,-91 1004,-61 904,-61"/>
<text text-anchor="start" x="912" y="-79" font-family="Helvetica,sans-Serif" font-size="10.00">vae::core::fs::File</text>
<text text-anchor="middle" x="954" y="-68" font-family="Helvetica,sans-Serif" font-size="10.00">::readAll</text>
</a>
</g>
</g>
<!-- Node2 -->
<g id="node2" class="node">
<title>Node2</title>
<g id="a_node2"><a xlink:href="classvae_1_1core_1_1_bank_loader.html#a2a1f294f67b451b337f65b033dd6f0bd" target="_top" xlink:title="Load a bank.json and all wav files referenced in it.">
<polygon fill="none" stroke="black" points="561,-77 561,-107 686,-107 686,-77 561,-77"/>
<text text-anchor="start" x="569" y="-95" font-family="Helvetica,sans-Serif" font-size="10.00">vae::core::BankLoader</text>
<text text-anchor="middle" x="623.5" y="-84" font-family="Helvetica,sans-Serif" font-size="10.00">::load</text>
</a>
</g>
</g>
<!-- Node1&#45;&gt;Node2 -->
<g id="edge1" class="edge">
<title>Node1&#45;&gt;Node2</title>
<path fill="none" stroke="midnightblue" d="M901.02,-93.83C890.23,-96.81 878.84,-99.44 868,-101 806.55,-109.85 735.54,-105.6 686.12,-100.35"/>
<polygon fill="midnightblue" stroke="midnightblue" points="902.09,-97.17 910.72,-91.02 900.14,-90.44 902.09,-97.17"/>
</g>
<!-- Node7 -->
<g id="node7" class="node">
<title>Node7</title>
<g id="a_node7"><a xlink:href="classvae_1_1core_1_1_h_r_t_f_loader.html#a38e07107ad81acdbaed1ac6874978534" target="_top" xlink:title=" ">
<polygon fill="none" stroke="black" points="738,-12 738,-42 864,-42 864,-12 738,-12"/>
<text text-anchor="start" x="746" y="-30" font-family="Helvetica,sans-Serif" font-size="10.00">vae::core::HRTFLoader</text>
<text text-anchor="middle" x="801" y="-19" font-family="Helvetica,sans-Serif" font-size="10.00">::load</text>
</a>
</g>
</g>
<!-- Node1&#45;&gt;Node7 -->
<g id="edge7" class="edge">
<title>Node1&#45;&gt;Node7</title>
<path fill="none" stroke="midnightblue" d="M896.73,-57.74C880.81,-52.57 863.66,-47.01 848.38,-42.05"/>
<polygon fill="midnightblue" stroke="midnightblue" points="895.87,-61.14 906.46,-60.9 898.03,-54.48 895.87,-61.14"/>
</g>
<!-- Node11 -->
<g id="node11" class="node">
<title>Node11</title>
<g id="a_node11"><a xlink:href="structvae_1_1core_1_1_source_loader.html#a7b5866ab44cf2f34a15f3a62b40fe4f4" target="_top" xlink:title="Loads a wav file for the resource.">
<polygon fill="none" stroke="black" points="734,-61 734,-91 868,-91 868,-61 734,-61"/>
<text text-anchor="start" x="742" y="-79" font-family="Helvetica,sans-Serif" font-size="10.00">vae::core::SourceLoader</text>
<text text-anchor="middle" x="801" y="-68" font-family="Helvetica,sans-Serif" font-size="10.00">::load</text>
</a>
</g>
</g>
<!-- Node1&#45;&gt;Node11 -->
<g id="edge12" class="edge">
<title>Node1&#45;&gt;Node11</title>
<path fill="none" stroke="midnightblue" d="M893.84,-76C885.39,-76 876.65,-76 868.08,-76"/>
<polygon fill="midnightblue" stroke="midnightblue" points="893.97,-79.5 903.97,-76 893.97,-72.5 893.97,-79.5"/>
</g>
<!-- Node3 -->
<g id="node3" class="node">
<title>Node3</title>
<g id="a_node3"><a xlink:href="classvae_1_1core_1_1_bank_manager.html#a246219d73b46775ec119e704c758dd0b" target="_top" xlink:title=" ">
<polygon fill="none" stroke="black" points="379,-77 379,-107 513,-107 513,-77 379,-77"/>
<text text-anchor="start" x="387" y="-95" font-family="Helvetica,sans-Serif" font-size="10.00">vae::core::BankManager</text>
<text text-anchor="middle" x="446" y="-84" font-family="Helvetica,sans-Serif" font-size="10.00">::load</text>
</a>
</g>
</g>
<!-- Node2&#45;&gt;Node3 -->
<g id="edge2" class="edge">
<title>Node2&#45;&gt;Node3</title>
<path fill="none" stroke="midnightblue" d="M550.38,-92C538.03,-92 525.26,-92 513.08,-92"/>
<polygon fill="midnightblue" stroke="midnightblue" points="550.63,-95.5 560.63,-92 550.63,-88.5 550.63,-95.5"/>
</g>
<!-- Node3&#45;&gt;Node3 -->
<g id="edge3" class="edge">
<title>Node3&#45;&gt;Node3</title>
<path fill="none" stroke="midnightblue" d="M477.27,-117.46C473.39,-122.18 462.97,-125.5 446,-125.5 418.16,-125.5 407.93,-116.56 415.33,-107.16"/>
<polygon fill="midnightblue" stroke="midnightblue" points="480.75,-116.94 476.67,-107.16 473.76,-117.35 480.75,-116.94"/>
</g>
<!-- Node4 -->
<g id="node4" class="node">
<title>Node4</title>
<g id="a_node4"><a xlink:href="classvae_1_1core_1_1_engine.html#a97b644aa0736003315870a1e05620ac3" target="_top" xlink:title="Load bank from filesystem.">
<polygon fill="none" stroke="black" points="212.5,-77 212.5,-107 319.5,-107 319.5,-77 212.5,-77"/>
<text text-anchor="start" x="220.5" y="-95" font-family="Helvetica,sans-Serif" font-size="10.00">vae::core::Engine::</text>
<text text-anchor="middle" x="266" y="-84" font-family="Helvetica,sans-Serif" font-size="10.00">loadBank</text>
</a>
</g>
</g>
<!-- Node3&#45;&gt;Node4 -->
<g id="edge4" class="edge">
<title>Node3&#45;&gt;Node4</title>
<path fill="none" stroke="midnightblue" d="M368.75,-92C352.18,-92 335,-92 319.58,-92"/>
<polygon fill="midnightblue" stroke="midnightblue" points="368.97,-95.5 378.97,-92 368.97,-88.5 368.97,-95.5"/>
</g>
<!-- Node5 -->
<g id="node5" class="node">
<title>Node5</title>
<g id="a_node5"><a xlink:href="classvae_1_1_engine_pimpl.html#a1843b334cf225ba8b3f85c0c64fd78bb" target="_top" xlink:title="Load bank from filesystem.">
<polygon fill="none" stroke="black" points="0,-82.5 0,-101.5 153,-101.5 153,-82.5 0,-82.5"/>
<text text-anchor="middle" x="76.5" y="-89.5" font-family="Helvetica,sans-Serif" font-size="10.00">vae::EnginePimpl::loadBank</text>
</a>
</g>
</g>
<!-- Node4&#45;&gt;Node5 -->
<g id="edge5" class="edge">
<title>Node4&#45;&gt;Node5</title>
<path fill="none" stroke="midnightblue" d="M202.17,-92C186.49,-92 169.51,-92 153.27,-92"/>
<polygon fill="midnightblue" stroke="midnightblue" points="202.27,-95.5 212.27,-92 202.27,-88.5 202.27,-95.5"/>
</g>
<!-- Node6 -->
<g id="node6" class="node">
<title>Node6</title>
<g id="a_node6"><a xlink:href="main_8cpp.html#ae66f6b31b5ad750f1fe042a706a4e3d4" target="_top" xlink:title=" ">
<polygon fill="none" stroke="black" points="56,-41.5 56,-60.5 97,-60.5 97,-41.5 56,-41.5"/>
<text text-anchor="middle" x="76.5" y="-48.5" font-family="Helvetica,sans-Serif" font-size="10.00">main</text>
</a>
</g>
</g>
<!-- Node4&#45;&gt;Node6 -->
<g id="edge6" class="edge">
<title>Node4&#45;&gt;Node6</title>
<path fill="none" stroke="midnightblue" d="M202.16,-78.26C165.55,-70.25 121.85,-60.7 97.13,-55.29"/>
<polygon fill="midnightblue" stroke="midnightblue" points="201.75,-81.75 212.27,-80.47 203.25,-74.91 201.75,-81.75"/>
</g>
<!-- Node8 -->
<g id="node8" class="node">
<title>Node8</title>
<g id="a_node8"><a xlink:href="classvae_1_1core_1_1_spatial_processor.html#ad598b5dcbe8bed69fa6cb0b726170dd3" target="_top" xlink:title=" ">
<polygon fill="none" stroke="black" points="549,-12 549,-42 698,-42 698,-12 549,-12"/>
<text text-anchor="start" x="557" y="-30" font-family="Helvetica,sans-Serif" font-size="10.00">vae::core::SpatialProcessor</text>
<text text-anchor="middle" x="623.5" y="-19" font-family="Helvetica,sans-Serif" font-size="10.00">::loadHRTF</text>
</a>
</g>
</g>
<!-- Node7&#45;&gt;Node8 -->
<g id="edge8" class="edge">
<title>Node7&#45;&gt;Node8</title>
<path fill="none" stroke="midnightblue" d="M727.59,-27C717.84,-27 707.83,-27 698.07,-27"/>
<polygon fill="midnightblue" stroke="midnightblue" points="727.63,-30.5 737.63,-27 727.63,-23.5 727.63,-30.5"/>
</g>
<!-- Node9 -->
<g id="node9" class="node">
<title>Node9</title>
<g id="a_node9"><a xlink:href="classvae_1_1core_1_1_engine.html#a98bb7b9ed016675701fb91069fb1a066" target="_top" xlink:title=" ">
<polygon fill="none" stroke="black" points="392.5,-12 392.5,-42 499.5,-42 499.5,-12 392.5,-12"/>
<text text-anchor="start" x="400.5" y="-30" font-family="Helvetica,sans-Serif" font-size="10.00">vae::core::Engine::</text>
<text text-anchor="middle" x="446" y="-19" font-family="Helvetica,sans-Serif" font-size="10.00">loadHRTF</text>
</a>
</g>
</g>
<!-- Node8&#45;&gt;Node9 -->
<g id="edge9" class="edge">
<title>Node8&#45;&gt;Node9</title>
<path fill="none" stroke="midnightblue" d="M538.71,-27C525.41,-27 511.99,-27 499.68,-27"/>
<polygon fill="midnightblue" stroke="midnightblue" points="538.84,-30.5 548.84,-27 538.83,-23.5 538.84,-30.5"/>
</g>
<!-- Node9&#45;&gt;Node6 -->
<g id="edge11" class="edge">
<title>Node9&#45;&gt;Node6</title>
<path fill="none" stroke="midnightblue" d="M382.29,-31.1C297.25,-36.65 149.89,-46.27 97.05,-49.72"/>
<polygon fill="midnightblue" stroke="midnightblue" points="382.6,-34.58 392.35,-30.44 382.14,-27.6 382.6,-34.58"/>
</g>
<!-- Node10 -->
<g id="node10" class="node">
<title>Node10</title>
<g id="a_node10"><a xlink:href="classvae_1_1_engine_pimpl.html#a27d216a0e4169074b38559d77b876748" target="_top" xlink:title=" ">
<polygon fill="none" stroke="black" points="189,-0.5 189,-19.5 343,-19.5 343,-0.5 189,-0.5"/>
<text text-anchor="middle" x="266" y="-7.5" font-family="Helvetica,sans-Serif" font-size="10.00">vae::EnginePimpl::loadHRTF</text>
</a>
</g>
</g>
<!-- Node9&#45;&gt;Node10 -->
<g id="edge10" class="edge">
<title>Node9&#45;&gt;Node10</title>
<path fill="none" stroke="midnightblue" d="M381.76,-20.96C369.25,-19.77 356,-18.5 343.11,-17.27"/>
<polygon fill="midnightblue" stroke="midnightblue" points="381.79,-24.48 392.08,-21.95 382.45,-17.51 381.79,-24.48"/>
</g>
<!-- Node11&#45;&gt;Node2 -->
<g id="edge13" class="edge">
<title>Node11&#45;&gt;Node2</title>
<path fill="none" stroke="midnightblue" d="M723.65,-82.96C711.08,-84.11 698.18,-85.28 686.03,-86.39"/>
<polygon fill="midnightblue" stroke="midnightblue" points="724.01,-86.44 733.65,-82.05 723.37,-79.47 724.01,-86.44"/>
</g>
</g>
</svg>
