<?xml version="1.0" encoding="UTF-8" standalone="no"?>
<!DOCTYPE svg PUBLIC "-//W3C//DTD SVG 1.1//EN"
 "http://www.w3.org/Graphics/SVG/1.1/DTD/svg11.dtd">
<!-- Generated by graphviz version 2.50.0 (0)
 -->
<!-- Title: tklb::SectionTimer::~SectionTimer Pages: 1 -->
<svg width="398pt" height="137pt"
 viewBox="0.00 0.00 398.00 137.00" xmlns="http://www.w3.org/2000/svg" xmlns:xlink="http://www.w3.org/1999/xlink">
<g id="graph0" class="graph" transform="scale(1 1) rotate(0) translate(4 133)">
<title>tklb::SectionTimer::~SectionTimer</title>
<!-- Node1 -->
<g id="node1" class="node">
<title>Node1</title>
<g id="a_node1"><a xlink:title=" ">
<polygon fill="#bfbfbf" stroke="black" points="0,-49.5 0,-79.5 106,-79.5 106,-49.5 0,-49.5"/>
<text text-anchor="start" x="8" y="-67.5" font-family="Helvetica,sans-Serif" font-size="10.00">tklb::SectionTimer</text>
<text text-anchor="middle" x="53" y="-56.5" font-family="Helvetica,sans-Serif" font-size="10.00">::~SectionTimer</text>
</a>
</g>
</g>
<!-- Node2 -->
<g id="node2" class="node">
<title>Node2</title>
<g id="a_node2"><a xlink:href="classtklb_1_1_section_timer.html#aa3089817f9d0e6ceeeaa75cc8975966e" target="_top" xlink:title=" ">
<polygon fill="none" stroke="black" points="142,-98.5 142,-128.5 248,-128.5 248,-98.5 142,-98.5"/>
<text text-anchor="start" x="150" y="-116.5" font-family="Helvetica,sans-Serif" font-size="10.00">tklb::SectionTimer</text>
<text text-anchor="middle" x="195" y="-105.5" font-family="Helvetica,sans-Serif" font-size="10.00">::getMsSince</text>
</a>
</g>
</g>
<!-- Node1&#45;&gt;Node2 -->
<g id="edge1" class="edge">
<title>Node1&#45;&gt;Node2</title>
<path fill="none" stroke="midnightblue" d="M97.15,-79.6C110.99,-84.45 126.48,-89.87 140.94,-94.93"/>
<polygon fill="midnightblue" stroke="midnightblue" points="140.16,-98.36 150.75,-98.36 142.47,-91.76 140.16,-98.36"/>
</g>
<!-- Node4 -->
<g id="node4" class="node">
<title>Node4</title>
<g id="a_node4"><a xlink:href="classtklb_1_1_section_timer.html#afc25a6ca081e21795f88d63a4a7aac7e" target="_top" xlink:title=" ">
<polygon fill="none" stroke="black" points="142,-49.5 142,-79.5 248,-79.5 248,-49.5 142,-49.5"/>
<text text-anchor="start" x="150" y="-67.5" font-family="Helvetica,sans-Serif" font-size="10.00">tklb::SectionTimer</text>
<text text-anchor="middle" x="195" y="-56.5" font-family="Helvetica,sans-Serif" font-size="10.00">::getNsSince</text>
</a>
</g>
</g>
<!-- Node1&#45;&gt;Node4 -->
<g id="edge3" class="edge">
<title>Node1&#45;&gt;Node4</title>
<path fill="none" stroke="midnightblue" d="M106.13,-64.5C114.42,-64.5 123.07,-64.5 131.57,-64.5"/>
<polygon fill="midnightblue" stroke="midnightblue" points="131.83,-68 141.83,-64.5 131.83,-61 131.83,-68"/>
</g>
<!-- Node5 -->
<g id="node5" class="node">
<title>Node5</title>
<g id="a_node5"><a xlink:href="classtklb_1_1_section_timer.html#aaafe709161f1a0b932b632bcdb0debd7" target="_top" xlink:title=" ">
<polygon fill="none" stroke="black" points="142,-0.5 142,-30.5 248,-30.5 248,-0.5 142,-0.5"/>
<text text-anchor="start" x="150" y="-18.5" font-family="Helvetica,sans-Serif" font-size="10.00">tklb::SectionTimer</text>
<text text-anchor="middle" x="195" y="-7.5" font-family="Helvetica,sans-Serif" font-size="10.00">::getUsSince</text>
</a>
</g>
</g>
<!-- Node1&#45;&gt;Node5 -->
<g id="edge5" class="edge">
<title>Node1&#45;&gt;Node5</title>
<path fill="none" stroke="midnightblue" d="M97.15,-49.4C110.99,-44.55 126.48,-39.13 140.94,-34.07"/>
<polygon fill="midnightblue" stroke="midnightblue" points="142.47,-37.24 150.75,-30.64 140.16,-30.64 142.47,-37.24"/>
</g>
<!-- Node3 -->
<g id="node3" class="node">
<title>Node3</title>
<g id="a_node3"><a xlink:href="classtklb_1_1_section_timer.html#a7f01a7db84ae7c701772d879db75959e" target="_top" xlink:title=" ">
<polygon fill="none" stroke="black" points="284,-49.5 284,-79.5 390,-79.5 390,-49.5 284,-49.5"/>
<text text-anchor="start" x="292" y="-67.5" font-family="Helvetica,sans-Serif" font-size="10.00">tklb::SectionTimer</text>
<text text-anchor="middle" x="337" y="-56.5" font-family="Helvetica,sans-Serif" font-size="10.00">::current</text>
</a>
</g>
</g>
<!-- Node2&#45;&gt;Node3 -->
<g id="edge2" class="edge">
<title>Node2&#45;&gt;Node3</title>
<path fill="none" stroke="midnightblue" d="M239.15,-98.4C252.99,-93.55 268.48,-88.13 282.94,-83.07"/>
<polygon fill="midnightblue" stroke="midnightblue" points="284.47,-86.24 292.75,-79.64 282.16,-79.64 284.47,-86.24"/>
</g>
<!-- Node4&#45;&gt;Node3 -->
<g id="edge4" class="edge">
<title>Node4&#45;&gt;Node3</title>
<path fill="none" stroke="midnightblue" d="M248.13,-64.5C256.42,-64.5 265.07,-64.5 273.57,-64.5"/>
<polygon fill="midnightblue" stroke="midnightblue" points="273.83,-68 283.83,-64.5 273.83,-61 273.83,-68"/>
</g>
<!-- Node5&#45;&gt;Node3 -->
<g id="edge6" class="edge">
<title>Node5&#45;&gt;Node3</title>
<path fill="none" stroke="midnightblue" d="M239.15,-30.6C252.99,-35.45 268.48,-40.87 282.94,-45.93"/>
<polygon fill="midnightblue" stroke="midnightblue" points="282.16,-49.36 292.75,-49.36 284.47,-42.76 282.16,-49.36"/>
</g>
</g>
</svg>
