<?xml version="1.0" encoding="UTF-8" standalone="no"?>
<!DOCTYPE svg PUBLIC "-//W3C//DTD SVG 1.1//EN"
 "http://www.w3.org/Graphics/SVG/1.1/DTD/svg11.dtd">
<!-- Generated by graphviz version 2.50.0 (0)
 -->
<!-- Title: vae::core::SpatialManager::setListener Pages: 1 -->
<svg width="491pt" height="66pt"
 viewBox="0.00 0.00 491.00 66.00" xmlns="http://www.w3.org/2000/svg" xmlns:xlink="http://www.w3.org/1999/xlink">
<g id="graph0" class="graph" transform="scale(1 1) rotate(0) translate(4 62)">
<title>vae::core::SpatialManager::setListener</title>
<!-- Node1 -->
<g id="node1" class="node">
<title>Node1</title>
<g id="a_node1"><a xlink:title=" ">
<polygon fill="#bfbfbf" stroke="black" points="340,-14 340,-44 483,-44 483,-14 340,-14"/>
<text text-anchor="start" x="348" y="-32" font-family="Helvetica,sans-Serif" font-size="10.00">vae::core::SpatialManager</text>
<text text-anchor="middle" x="411.5" y="-21" font-family="Helvetica,sans-Serif" font-size="10.00">::setListener</text>
</a>
</g>
</g>
<!-- Node2 -->
<g id="node2" class="node">
<title>Node2</title>
<g id="a_node2"><a xlink:href="classvae_1_1core_1_1_engine.html#ae85f183636159f84a54273359806261d" target="_top" xlink:title="Set the position of a listener.">
<polygon fill="none" stroke="black" points="197,-14 197,-44 304,-44 304,-14 197,-14"/>
<text text-anchor="start" x="205" y="-32" font-family="Helvetica,sans-Serif" font-size="10.00">vae::core::Engine::</text>
<text text-anchor="middle" x="250.5" y="-21" font-family="Helvetica,sans-Serif" font-size="10.00">setListener</text>
</a>
</g>
</g>
<!-- Node1&#45;&gt;Node2 -->
<g id="edge1" class="edge">
<title>Node1&#45;&gt;Node2</title>
<path fill="none" stroke="midnightblue" d="M329.72,-29C321.09,-29 312.48,-29 304.29,-29"/>
<polygon fill="midnightblue" stroke="midnightblue" points="329.83,-32.5 339.83,-29 329.83,-25.5 329.83,-32.5"/>
</g>
<!-- Node3 -->
<g id="node3" class="node">
<title>Node3</title>
<g id="a_node3"><a xlink:href="main_8cpp.html#ae66f6b31b5ad750f1fe042a706a4e3d4" target="_top" xlink:title=" ">
<polygon fill="none" stroke="black" points="60,-38.5 60,-57.5 101,-57.5 101,-38.5 60,-38.5"/>
<text text-anchor="middle" x="80.5" y="-45.5" font-family="Helvetica,sans-Serif" font-size="10.00">main</text>
</a>
</g>
</g>
<!-- Node2&#45;&gt;Node3 -->
<g id="edge2" class="edge">
<title>Node2&#45;&gt;Node3</title>
<path fill="none" stroke="midnightblue" d="M186.69,-36.1C156.36,-39.53 122.08,-43.41 101.13,-45.78"/>
<polygon fill="midnightblue" stroke="midnightblue" points="187.26,-39.56 196.8,-34.96 186.47,-32.61 187.26,-39.56"/>
</g>
<!-- Node4 -->
<g id="node4" class="node">
<title>Node4</title>
<g id="a_node4"><a xlink:href="classvae_1_1_engine_pimpl.html#af255c9b302a33292bbbb957a9d45c7a7" target="_top" xlink:title="Set the position of a listener.">
<polygon fill="none" stroke="black" points="0,-0.5 0,-19.5 161,-19.5 161,-0.5 0,-0.5"/>
<text text-anchor="middle" x="80.5" y="-7.5" font-family="Helvetica,sans-Serif" font-size="10.00">vae::EnginePimpl::setListener</text>
</a>
</g>
</g>
<!-- Node2&#45;&gt;Node4 -->
<g id="edge3" class="edge">
<title>Node2&#45;&gt;Node4</title>
<path fill="none" stroke="midnightblue" d="M186.76,-21.9C178.38,-20.96 169.7,-19.98 161.08,-19"/>
<polygon fill="midnightblue" stroke="midnightblue" points="186.47,-25.39 196.8,-23.04 187.26,-18.44 186.47,-25.39"/>
</g>
</g>
</svg>
