<?xml version="1.0" encoding="UTF-8" standalone="no"?>
<!DOCTYPE svg PUBLIC "-//W3C//DTD SVG 1.1//EN"
 "http://www.w3.org/Graphics/SVG/1.1/DTD/svg11.dtd">
<!-- Generated by graphviz version 2.50.0 (0)
 -->
<!-- Title: tklb::ResamplerCosineTpl::resample Pages: 1 -->
<svg width="506pt" height="176pt"
 viewBox="0.00 0.00 506.00 176.00" xmlns="http://www.w3.org/2000/svg" xmlns:xlink="http://www.w3.org/1999/xlink">
<g id="graph0" class="graph" transform="scale(1 1) rotate(0) translate(4 172)">
<title>tklb::ResamplerCosineTpl::resample</title>
<!-- Node1 -->
<g id="node1" class="node">
<title>Node1</title>
<g id="a_node1"><a xlink:title="Resamples the provided buffer from its sampleRate to the target rate.">
<polygon fill="#bfbfbf" stroke="black" points="0,-71.5 0,-101.5 142,-101.5 142,-71.5 0,-71.5"/>
<text text-anchor="start" x="8" y="-89.5" font-family="Helvetica,sans-Serif" font-size="10.00">tklb::ResamplerCosineTpl</text>
<text text-anchor="middle" x="71" y="-78.5" font-family="Helvetica,sans-Serif" font-size="10.00">::resample</text>
</a>
</g>
</g>
<!-- Node2 -->
<g id="node2" class="node">
<title>Node2</title>
<g id="a_node2"><a xlink:href="classtklb_1_1_resampler_cosine_tpl.html#a298bcca582fdb7c8d5319f106cb8f4f8" target="_top" xlink:title="Calculate a buffersize fit for the resampled result.">
<polygon fill="none" stroke="black" points="178,-137.5 178,-167.5 320,-167.5 320,-137.5 178,-137.5"/>
<text text-anchor="start" x="186" y="-155.5" font-family="Helvetica,sans-Serif" font-size="10.00">tklb::ResamplerCosineTpl</text>
<text text-anchor="middle" x="249" y="-144.5" font-family="Helvetica,sans-Serif" font-size="10.00">::calculateBufferSize</text>
</a>
</g>
</g>
<!-- Node1&#45;&gt;Node2 -->
<g id="edge1" class="edge">
<title>Node1&#45;&gt;Node2</title>
<path fill="none" stroke="midnightblue" d="M110.18,-101.54C130.31,-109.4 155.44,-119.11 178,-127.5 183.79,-129.65 189.87,-131.88 195.92,-134.07"/>
<polygon fill="midnightblue" stroke="midnightblue" points="194.77,-137.38 205.37,-137.47 197.14,-130.79 194.77,-137.38"/>
</g>
<!-- Node4 -->
<g id="node4" class="node">
<title>Node4</title>
<g id="a_node4"><a xlink:href="namespacetklb_1_1memory.html#ab89ec197028f903f4ea125eae46c4a10" target="_top" xlink:title="memcpy wrapper">
<polygon fill="none" stroke="black" points="193,-99 193,-118 305,-118 305,-99 193,-99"/>
<text text-anchor="middle" x="249" y="-106" font-family="Helvetica,sans-Serif" font-size="10.00">tklb::memory::copy</text>
</a>
</g>
</g>
<!-- Node1&#45;&gt;Node4 -->
<g id="edge3" class="edge">
<title>Node1&#45;&gt;Node4</title>
<path fill="none" stroke="midnightblue" d="M142.07,-95.26C155.51,-96.94 169.54,-98.69 182.82,-100.35"/>
<polygon fill="midnightblue" stroke="midnightblue" points="182.45,-103.83 192.81,-101.6 183.32,-96.89 182.45,-103.83"/>
</g>
<!-- Node5 -->
<g id="node5" class="node">
<title>Node5</title>
<g id="a_node5"><a xlink:href="classtklb_1_1_resampler_cosine_tpl.html#a5d8867a7800a54b54414907026206e36" target="_top" xlink:title="setup the resampler">
<polygon fill="none" stroke="black" points="178,-49.5 178,-79.5 320,-79.5 320,-49.5 178,-49.5"/>
<text text-anchor="start" x="186" y="-67.5" font-family="Helvetica,sans-Serif" font-size="10.00">tklb::ResamplerCosineTpl</text>
<text text-anchor="middle" x="249" y="-56.5" font-family="Helvetica,sans-Serif" font-size="10.00">::init</text>
</a>
</g>
</g>
<!-- Node1&#45;&gt;Node5 -->
<g id="edge4" class="edge">
<title>Node1&#45;&gt;Node5</title>
<path fill="none" stroke="midnightblue" d="M142.07,-77.74C150.54,-76.68 159.25,-75.59 167.85,-74.52"/>
<polygon fill="midnightblue" stroke="midnightblue" points="168.4,-77.98 177.89,-73.26 167.53,-71.03 168.4,-77.98"/>
</g>
<!-- Node6 -->
<g id="node6" class="node">
<title>Node6</title>
<g id="a_node6"><a xlink:href="classtklb_1_1_resampler_cosine_tpl.html#ae598bcbdc6ae0ccca26d91af3b378cf7" target="_top" xlink:title="Resample function Make sure the out buffer has enough space.">
<polygon fill="none" stroke="black" points="178,-0.5 178,-30.5 320,-30.5 320,-0.5 178,-0.5"/>
<text text-anchor="start" x="186" y="-18.5" font-family="Helvetica,sans-Serif" font-size="10.00">tklb::ResamplerCosineTpl</text>
<text text-anchor="middle" x="249" y="-7.5" font-family="Helvetica,sans-Serif" font-size="10.00">::process</text>
</a>
</g>
</g>
<!-- Node1&#45;&gt;Node6 -->
<g id="edge5" class="edge">
<title>Node1&#45;&gt;Node6</title>
<path fill="none" stroke="midnightblue" d="M105.18,-71.43C125.96,-62.16 153.37,-50.23 178,-40.5 183.46,-38.34 189.19,-36.16 194.92,-34.04"/>
<polygon fill="midnightblue" stroke="midnightblue" points="196.33,-37.25 204.52,-30.52 193.92,-30.68 196.33,-37.25"/>
</g>
<!-- Node3 -->
<g id="node3" class="node">
<title>Node3</title>
<g id="a_node3"><a xlink:href="classtklb_1_1_resampler_cosine_tpl.html#ad3beb9e62668881e8da87d717e286d67" target="_top" xlink:title=" ">
<polygon fill="none" stroke="black" points="356,-68.5 356,-98.5 498,-98.5 498,-68.5 356,-68.5"/>
<text text-anchor="start" x="364" y="-86.5" font-family="Helvetica,sans-Serif" font-size="10.00">tklb::ResamplerCosineTpl</text>
<text text-anchor="middle" x="427" y="-75.5" font-family="Helvetica,sans-Serif" font-size="10.00">::estimateOut</text>
</a>
</g>
</g>
<!-- Node2&#45;&gt;Node3 -->
<g id="edge2" class="edge">
<title>Node2&#45;&gt;Node3</title>
<path fill="none" stroke="midnightblue" d="M293.44,-137.37C302.26,-134.19 311.45,-130.8 320,-127.5 340.36,-119.65 362.69,-110.46 381.59,-102.52"/>
<polygon fill="midnightblue" stroke="midnightblue" points="382.99,-105.73 390.85,-98.61 380.27,-99.28 382.99,-105.73"/>
</g>
<!-- Node6&#45;&gt;Node3 -->
<g id="edge6" class="edge">
<title>Node6&#45;&gt;Node3</title>
<path fill="none" stroke="midnightblue" d="M293.05,-30.55C301.98,-33.76 311.32,-37.19 320,-40.5 339.91,-48.09 361.75,-56.87 380.41,-64.51"/>
<polygon fill="midnightblue" stroke="midnightblue" points="379.27,-67.83 389.85,-68.39 381.93,-61.35 379.27,-67.83"/>
</g>
</g>
</svg>
