<?xml version="1.0" encoding="UTF-8" standalone="no"?>
<!DOCTYPE svg PUBLIC "-//W3C//DTD SVG 1.1//EN"
 "http://www.w3.org/Graphics/SVG/1.1/DTD/svg11.dtd">
<!-- Generated by graphviz version 2.50.0 (0)
 -->
<!-- Title: vae::core::Engine::stop Pages: 1 -->
<svg width="300pt" height="116pt"
 viewBox="0.00 0.00 300.00 115.50" xmlns="http://www.w3.org/2000/svg" xmlns:xlink="http://www.w3.org/1999/xlink">
<g id="graph0" class="graph" transform="scale(1 1) rotate(0) translate(4 111.5)">
<title>vae::core::Engine::stop</title>
<!-- Node1 -->
<g id="node1" class="node">
<title>Node1</title>
<g id="a_node1"><a xlink:title="Stops processing and waits for audio thead to clean up.">
<polygon fill="#bfbfbf" stroke="black" points="164,-50 164,-69 292,-69 292,-50 164,-50"/>
<text text-anchor="middle" x="228" y="-57" font-family="Helvetica,sans-Serif" font-size="10.00">vae::core::Engine::stop</text>
</a>
</g>
</g>
<!-- Node2 -->
<g id="node2" class="node">
<title>Node2</title>
<g id="a_node2"><a xlink:href="main_8cpp.html#ae66f6b31b5ad750f1fe042a706a4e3d4" target="_top" xlink:title=" ">
<polygon fill="none" stroke="black" points="43.5,-88 43.5,-107 84.5,-107 84.5,-88 43.5,-88"/>
<text text-anchor="middle" x="64" y="-95" font-family="Helvetica,sans-Serif" font-size="10.00">main</text>
</a>
</g>
</g>
<!-- Node1&#45;&gt;Node2 -->
<g id="edge1" class="edge">
<title>Node1&#45;&gt;Node2</title>
<path fill="none" stroke="midnightblue" d="M176.32,-71.39C145.29,-78.67 107.33,-87.57 84.71,-92.88"/>
<polygon fill="midnightblue" stroke="midnightblue" points="177.18,-74.78 186.12,-69.09 175.59,-67.97 177.18,-74.78"/>
</g>
<!-- Node3 -->
<g id="node3" class="node">
<title>Node3</title>
<g id="a_node3"><a xlink:href="classvae_1_1_engine_pimpl.html#ab7feeef38871ccb655833778f7a2ab98" target="_top" xlink:title="Stops processing and waits for audio thead to clean up.">
<polygon fill="none" stroke="black" points="0,-50 0,-69 128,-69 128,-50 0,-50"/>
<text text-anchor="middle" x="64" y="-57" font-family="Helvetica,sans-Serif" font-size="10.00">vae::EnginePimpl::stop</text>
</a>
</g>
</g>
<!-- Node1&#45;&gt;Node3 -->
<g id="edge2" class="edge">
<title>Node1&#45;&gt;Node3</title>
<path fill="none" stroke="midnightblue" d="M153.63,-59.5C145.14,-59.5 136.53,-59.5 128.19,-59.5"/>
<polygon fill="midnightblue" stroke="midnightblue" points="153.9,-63 163.9,-59.5 153.9,-56 153.9,-63"/>
</g>
<!-- Node4 -->
<g id="node4" class="node">
<title>Node4</title>
<g id="a_node4"><a xlink:href="classvae_1_1core_1_1_engine.html#aad20010ba64488b3fb047cc7a5fa0357" target="_top" xlink:title=" ">
<polygon fill="none" stroke="black" points="10.5,-0.5 10.5,-30.5 117.5,-30.5 117.5,-0.5 10.5,-0.5"/>
<text text-anchor="start" x="18.5" y="-18.5" font-family="Helvetica,sans-Serif" font-size="10.00">vae::core::Engine::</text>
<text text-anchor="middle" x="64" y="-7.5" font-family="Helvetica,sans-Serif" font-size="10.00">~Engine</text>
</a>
</g>
</g>
<!-- Node1&#45;&gt;Node4 -->
<g id="edge3" class="edge">
<title>Node1&#45;&gt;Node4</title>
<path fill="none" stroke="midnightblue" d="M182.07,-47.3C162.09,-41.87 138.43,-35.45 117.63,-29.8"/>
<polygon fill="midnightblue" stroke="midnightblue" points="181.28,-50.71 191.85,-49.95 183.12,-43.95 181.28,-50.71"/>
</g>
</g>
</svg>
