<?xml version="1.0" encoding="UTF-8" standalone="no"?>
<!DOCTYPE svg PUBLIC "-//W3C//DTD SVG 1.1//EN"
 "http://www.w3.org/Graphics/SVG/1.1/DTD/svg11.dtd">
<!-- Generated by graphviz version 2.50.0 (0)
 -->
<!-- Title: vae::core::SpatialManager::createEmitter Pages: 1 -->
<svg width="678pt" height="204pt"
 viewBox="0.00 0.00 678.00 203.50" xmlns="http://www.w3.org/2000/svg" xmlns:xlink="http://www.w3.org/1999/xlink">
<g id="graph0" class="graph" transform="scale(1 1) rotate(0) translate(4 199.5)">
<title>vae::core::SpatialManager::createEmitter</title>
<!-- Node1 -->
<g id="node1" class="node">
<title>Node1</title>
<g id="a_node1"><a xlink:title=" ">
<polygon fill="#bfbfbf" stroke="black" points="527,-107 527,-137 670,-137 670,-107 527,-107"/>
<text text-anchor="start" x="535" y="-125" font-family="Helvetica,sans-Serif" font-size="10.00">vae::core::SpatialManager</text>
<text text-anchor="middle" x="598.5" y="-114" font-family="Helvetica,sans-Serif" font-size="10.00">::createEmitter</text>
</a>
</g>
</g>
<!-- Node2 -->
<g id="node2" class="node">
<title>Node2</title>
<g id="a_node2"><a xlink:href="classvae_1_1core_1_1_spatial_manager.html#a5388d4c3de49b246d40dc00a799a04d4" target="_top" xlink:title=" ">
<polygon fill="none" stroke="black" points="348,-148 348,-178 491,-178 491,-148 348,-148"/>
<text text-anchor="start" x="356" y="-166" font-family="Helvetica,sans-Serif" font-size="10.00">vae::core::SpatialManager</text>
<text text-anchor="middle" x="419.5" y="-155" font-family="Helvetica,sans-Serif" font-size="10.00">::createAutoEmitter</text>
</a>
</g>
</g>
<!-- Node1&#45;&gt;Node2 -->
<g id="edge1" class="edge">
<title>Node1&#45;&gt;Node2</title>
<path fill="none" stroke="midnightblue" d="M522.74,-139.32C510.32,-142.19 497.54,-145.15 485.4,-147.97"/>
<polygon fill="midnightblue" stroke="midnightblue" points="523.64,-142.7 532.6,-137.03 522.06,-135.88 523.64,-142.7"/>
</g>
<!-- Node5 -->
<g id="node5" class="node">
<title>Node5</title>
<g id="a_node5"><a xlink:href="classvae_1_1core_1_1_engine.html#a400114c6a78c8f77d34567004b471bb3" target="_top" xlink:title="Creates an emitter and returns the handle.">
<polygon fill="none" stroke="black" points="366,-83 366,-113 473,-113 473,-83 366,-83"/>
<text text-anchor="start" x="374" y="-101" font-family="Helvetica,sans-Serif" font-size="10.00">vae::core::Engine::</text>
<text text-anchor="middle" x="419.5" y="-90" font-family="Helvetica,sans-Serif" font-size="10.00">createEmitter</text>
</a>
</g>
</g>
<!-- Node1&#45;&gt;Node5 -->
<g id="edge4" class="edge">
<title>Node1&#45;&gt;Node5</title>
<path fill="none" stroke="midnightblue" d="M516.62,-111.03C501.85,-109.03 486.79,-106.99 473.11,-105.13"/>
<polygon fill="midnightblue" stroke="midnightblue" points="516.4,-114.54 526.78,-112.41 517.34,-107.6 516.4,-114.54"/>
</g>
<!-- Node3 -->
<g id="node3" class="node">
<title>Node3</title>
<g id="a_node3"><a xlink:href="classvae_1_1core_1_1_engine.html#aa95114981da90cd3395d48c4bd5cf407" target="_top" xlink:title="Emitter which triggers an event once a listener is close enough.">
<polygon fill="none" stroke="black" points="189.5,-165 189.5,-195 296.5,-195 296.5,-165 189.5,-165"/>
<text text-anchor="start" x="197.5" y="-183" font-family="Helvetica,sans-Serif" font-size="10.00">vae::core::Engine::</text>
<text text-anchor="middle" x="243" y="-172" font-family="Helvetica,sans-Serif" font-size="10.00">createAutoEmitter</text>
</a>
</g>
</g>
<!-- Node2&#45;&gt;Node3 -->
<g id="edge2" class="edge">
<title>Node2&#45;&gt;Node3</title>
<path fill="none" stroke="midnightblue" d="M337.68,-170.87C323.72,-172.23 309.55,-173.61 296.6,-174.88"/>
<polygon fill="midnightblue" stroke="midnightblue" points="338.16,-174.34 347.78,-169.89 337.48,-167.38 338.16,-174.34"/>
</g>
<!-- Node4 -->
<g id="node4" class="node">
<title>Node4</title>
<g id="a_node4"><a xlink:href="classvae_1_1_engine_pimpl.html#a1e36c49dc56f13537413d5480ca61045" target="_top" xlink:title="Emitter which triggers an event once a listener is close enough.">
<polygon fill="none" stroke="black" points="0,-165 0,-195 138,-195 138,-165 0,-165"/>
<text text-anchor="start" x="8" y="-183" font-family="Helvetica,sans-Serif" font-size="10.00">vae::EnginePimpl::create</text>
<text text-anchor="middle" x="69" y="-172" font-family="Helvetica,sans-Serif" font-size="10.00">AutoEmitter</text>
</a>
</g>
</g>
<!-- Node3&#45;&gt;Node4 -->
<g id="edge3" class="edge">
<title>Node3&#45;&gt;Node4</title>
<path fill="none" stroke="midnightblue" d="M179.38,-180C165.95,-180 151.71,-180 138.09,-180"/>
<polygon fill="midnightblue" stroke="midnightblue" points="179.46,-183.5 189.46,-180 179.46,-176.5 179.46,-183.5"/>
</g>
<!-- Node6 -->
<g id="node6" class="node">
<title>Node6</title>
<g id="a_node6"><a xlink:href="main_8cpp.html#a7b09579eb01449ba8f8ac324485001c2" target="_top" xlink:title=" ">
<polygon fill="none" stroke="black" points="207.5,-126.5 207.5,-145.5 278.5,-145.5 278.5,-126.5 207.5,-126.5"/>
<text text-anchor="middle" x="243" y="-133.5" font-family="Helvetica,sans-Serif" font-size="10.00">benchmark</text>
</a>
</g>
</g>
<!-- Node5&#45;&gt;Node6 -->
<g id="edge5" class="edge">
<title>Node5&#45;&gt;Node6</title>
<path fill="none" stroke="midnightblue" d="M355.89,-111.63C329.92,-117.29 300.77,-123.64 278.74,-128.44"/>
<polygon fill="midnightblue" stroke="midnightblue" points="356.64,-115.05 365.67,-109.5 355.15,-108.21 356.64,-115.05"/>
</g>
<!-- Node7 -->
<g id="node7" class="node">
<title>Node7</title>
<g id="a_node7"><a xlink:href="main_8cpp.html#a6f5c91847864279624ba2247527e3cea" target="_top" xlink:title=" ">
<polygon fill="none" stroke="black" points="181.5,-88.5 181.5,-107.5 304.5,-107.5 304.5,-88.5 181.5,-88.5"/>
<text text-anchor="middle" x="243" y="-95.5" font-family="Helvetica,sans-Serif" font-size="10.00">benchmarkBasicVoice</text>
</a>
</g>
</g>
<!-- Node5&#45;&gt;Node7 -->
<g id="edge6" class="edge">
<title>Node5&#45;&gt;Node7</title>
<path fill="none" stroke="midnightblue" d="M355.53,-98C338.93,-98 321.07,-98 304.6,-98"/>
<polygon fill="midnightblue" stroke="midnightblue" points="355.67,-101.5 365.67,-98 355.67,-94.5 355.67,-101.5"/>
</g>
<!-- Node8 -->
<g id="node8" class="node">
<title>Node8</title>
<g id="a_node8"><a xlink:href="classvae_1_1_engine_pimpl.html#a277ff894edce0324148c68cb2d5785ea" target="_top" xlink:title="Creates an emitter and returns the handle.">
<polygon fill="none" stroke="black" points="174,-39 174,-69 312,-69 312,-39 174,-39"/>
<text text-anchor="start" x="182" y="-57" font-family="Helvetica,sans-Serif" font-size="10.00">vae::EnginePimpl::create</text>
<text text-anchor="middle" x="243" y="-46" font-family="Helvetica,sans-Serif" font-size="10.00">Emitter</text>
</a>
</g>
</g>
<!-- Node5&#45;&gt;Node8 -->
<g id="edge7" class="edge">
<title>Node5&#45;&gt;Node8</title>
<path fill="none" stroke="midnightblue" d="M355.84,-82.2C338.85,-77.92 320.5,-73.29 303.67,-69.05"/>
<polygon fill="midnightblue" stroke="midnightblue" points="355.12,-85.63 365.67,-84.68 356.83,-78.84 355.12,-85.63"/>
</g>
<!-- Node9 -->
<g id="node9" class="node">
<title>Node9</title>
<g id="a_node9"><a xlink:href="main_8cpp.html#afe1c3ff6204d9b675caf60b5545e3e54" target="_top" xlink:title=" ">
<polygon fill="none" stroke="black" points="213.5,-0.5 213.5,-19.5 272.5,-19.5 272.5,-0.5 213.5,-0.5"/>
<text text-anchor="middle" x="243" y="-7.5" font-family="Helvetica,sans-Serif" font-size="10.00">filterTest</text>
</a>
</g>
</g>
<!-- Node5&#45;&gt;Node9 -->
<g id="edge8" class="edge">
<title>Node5&#45;&gt;Node9</title>
<path fill="none" stroke="midnightblue" d="M391.08,-76.91C370.33,-61.79 340.59,-41.9 312,-29 299.6,-23.41 285.17,-19.09 272.8,-16"/>
<polygon fill="midnightblue" stroke="midnightblue" points="389.01,-79.73 399.13,-82.86 393.17,-74.1 389.01,-79.73"/>
</g>
<!-- Node10 -->
<g id="node10" class="node">
<title>Node10</title>
<g id="a_node10"><a xlink:href="main_8cpp.html#ae66f6b31b5ad750f1fe042a706a4e3d4" target="_top" xlink:title=" ">
<polygon fill="none" stroke="black" points="48.5,-0.5 48.5,-19.5 89.5,-19.5 89.5,-0.5 48.5,-0.5"/>
<text text-anchor="middle" x="69" y="-7.5" font-family="Helvetica,sans-Serif" font-size="10.00">main</text>
</a>
</g>
</g>
<!-- Node9&#45;&gt;Node10 -->
<g id="edge9" class="edge">
<title>Node9&#45;&gt;Node10</title>
<path fill="none" stroke="midnightblue" d="M202.8,-10C167.55,-10 117.23,-10 89.76,-10"/>
<polygon fill="midnightblue" stroke="midnightblue" points="203.21,-13.5 213.21,-10 203.21,-6.5 203.21,-13.5"/>
</g>
</g>
</svg>
