<?xml version="1.0" encoding="UTF-8" standalone="no"?>
<!DOCTYPE svg PUBLIC "-//W3C//DTD SVG 1.1//EN"
 "http://www.w3.org/Graphics/SVG/1.1/DTD/svg11.dtd">
<!-- Generated by graphviz version 2.50.0 (0)
 -->
<!-- Title: tklb::HeapBuffer::data Pages: 1 -->
<svg width="521pt" height="160pt"
 viewBox="0.00 0.00 521.00 160.00" xmlns="http://www.w3.org/2000/svg" xmlns:xlink="http://www.w3.org/1999/xlink">
<g id="graph0" class="graph" transform="scale(1 1) rotate(0) translate(4 156)">
<title>tklb::HeapBuffer::data</title>
<!-- Node1 -->
<g id="node1" class="node">
<title>Node1</title>
<g id="a_node1"><a xlink:title=" ">
<polygon fill="#bfbfbf" stroke="black" points="388,-75.5 388,-94.5 513,-94.5 513,-75.5 388,-75.5"/>
<text text-anchor="middle" x="450.5" y="-82.5" font-family="Helvetica,sans-Serif" font-size="10.00">tklb::HeapBuffer::data</text>
</a>
</g>
</g>
<!-- Node2 -->
<g id="node2" class="node">
<title>Node2</title>
<g id="a_node2"><a xlink:href="classtklb_1_1_heap_buffer.html#a699e99311404b8dfcb32731853e18640" target="_top" xlink:title=" ">
<polygon fill="none" stroke="black" points="194,-132.5 194,-151.5 352,-151.5 352,-132.5 194,-132.5"/>
<text text-anchor="middle" x="273" y="-139.5" font-family="Helvetica,sans-Serif" font-size="10.00">tklb::HeapBuffer::HeapBuffer</text>
</a>
</g>
</g>
<!-- Node1&#45;&gt;Node2 -->
<g id="edge1" class="edge">
<title>Node1&#45;&gt;Node2</title>
<path fill="none" stroke="midnightblue" d="M418.02,-98.5C399.1,-106.3 374.43,-115.93 352,-123 340.97,-126.48 328.89,-129.7 317.6,-132.46"/>
<polygon fill="midnightblue" stroke="midnightblue" points="419.46,-101.69 427.34,-94.61 416.76,-95.23 419.46,-101.69"/>
</g>
<!-- Node3 -->
<g id="node3" class="node">
<title>Node3</title>
<g id="a_node3"><a xlink:href="namespacetklb_1_1ogg.html#a8a0c549ee31780a868d551ff5536c71e" target="_top" xlink:title="Decode ogg/vorbis from memory or file path.">
<polygon fill="none" stroke="black" points="230,-94.5 230,-113.5 316,-113.5 316,-94.5 230,-94.5"/>
<text text-anchor="middle" x="273" y="-101.5" font-family="Helvetica,sans-Serif" font-size="10.00">tklb::ogg::load</text>
</a>
</g>
</g>
<!-- Node1&#45;&gt;Node3 -->
<g id="edge2" class="edge">
<title>Node1&#45;&gt;Node3</title>
<path fill="none" stroke="midnightblue" d="M377.49,-92.8C356.6,-95.06 334.48,-97.45 316.08,-99.44"/>
<polygon fill="midnightblue" stroke="midnightblue" points="378.06,-96.25 387.63,-91.7 377.31,-89.3 378.06,-96.25"/>
</g>
<!-- Node4 -->
<g id="node4" class="node">
<title>Node4</title>
<g id="a_node4"><a xlink:href="namespacetklb_1_1wave.html#aa283efa758de590bb8f167e32a1ba2a5" target="_top" xlink:title="Decode wav from memory or file path.">
<polygon fill="none" stroke="black" points="225.5,-56.5 225.5,-75.5 320.5,-75.5 320.5,-56.5 225.5,-56.5"/>
<text text-anchor="middle" x="273" y="-63.5" font-family="Helvetica,sans-Serif" font-size="10.00">tklb::wave::load</text>
</a>
</g>
</g>
<!-- Node1&#45;&gt;Node4 -->
<g id="edge3" class="edge">
<title>Node1&#45;&gt;Node4</title>
<path fill="none" stroke="midnightblue" d="M377.42,-77.2C358.28,-75.12 338.1,-72.94 320.7,-71.06"/>
<polygon fill="midnightblue" stroke="midnightblue" points="377.31,-80.7 387.63,-78.3 378.06,-73.75 377.31,-80.7"/>
</g>
<!-- Node5 -->
<g id="node5" class="node">
<title>Node5</title>
<g id="a_node5"><a xlink:href="classtklb_1_1_heap_buffer.html#abeab1bfc5f1f256fdad6ba571460fe12" target="_top" xlink:title="Resizes and copies the contents of the source Buffer This will do a memory::copy,so none of the objec...">
<polygon fill="none" stroke="black" points="214,-0.5 214,-19.5 332,-19.5 332,-0.5 214,-0.5"/>
<text text-anchor="middle" x="273" y="-7.5" font-family="Helvetica,sans-Serif" font-size="10.00">tklb::HeapBuffer::set</text>
</a>
</g>
</g>
<!-- Node1&#45;&gt;Node5 -->
<g id="edge4" class="edge">
<title>Node1&#45;&gt;Node5</title>
<path fill="none" stroke="midnightblue" d="M417.61,-71.37C382.59,-56.41 327.25,-32.76 296.5,-19.61"/>
<polygon fill="midnightblue" stroke="midnightblue" points="416.34,-74.64 426.92,-75.35 419.1,-68.2 416.34,-74.64"/>
</g>
<!-- Node5&#45;&gt;Node5 -->
<g id="edge6" class="edge">
<title>Node5&#45;&gt;Node5</title>
<path fill="none" stroke="midnightblue" d="M305.98,-27.89C305.5,-33.54 294.51,-38 273,-38 241.72,-38 232.68,-28.57 245.87,-19.76"/>
<polygon fill="midnightblue" stroke="midnightblue" points="308.81,-25.83 300.13,-19.76 303.13,-29.92 308.81,-25.83"/>
</g>
<!-- Node6 -->
<g id="node6" class="node">
<title>Node6</title>
<g id="a_node6"><a xlink:href="classtklb_1_1_heap_buffer.html#a6ec5501329a339d0a1039e391f50c2a0" target="_top" xlink:title="Copy Constructor, calls set() Failed allocations have to be checked.">
<polygon fill="none" stroke="black" points="0,-0.5 0,-19.5 158,-19.5 158,-0.5 0,-0.5"/>
<text text-anchor="middle" x="79" y="-7.5" font-family="Helvetica,sans-Serif" font-size="10.00">tklb::HeapBuffer::HeapBuffer</text>
</a>
</g>
</g>
<!-- Node5&#45;&gt;Node6 -->
<g id="edge5" class="edge">
<title>Node5&#45;&gt;Node6</title>
<path fill="none" stroke="midnightblue" d="M203.81,-10C189.02,-10 173.27,-10 158.13,-10"/>
<polygon fill="midnightblue" stroke="midnightblue" points="203.87,-13.5 213.87,-10 203.87,-6.5 203.87,-13.5"/>
</g>
</g>
</svg>
