<?xml version="1.0" encoding="UTF-8" standalone="no"?>
<!DOCTYPE svg PUBLIC "-//W3C//DTD SVG 1.1//EN"
 "http://www.w3.org/Graphics/SVG/1.1/DTD/svg11.dtd">
<!-- Generated by graphviz version 2.50.0 (0)
 -->
<!-- Title: tklb::ResamplerCosineTpl::estimateOut Pages: 1 -->
<svg width="506pt" height="88pt"
 viewBox="0.00 0.00 506.00 88.00" xmlns="http://www.w3.org/2000/svg" xmlns:xlink="http://www.w3.org/1999/xlink">
<g id="graph0" class="graph" transform="scale(1 1) rotate(0) translate(4 84)">
<title>tklb::ResamplerCosineTpl::estimateOut</title>
<!-- Node1 -->
<g id="node1" class="node">
<title>Node1</title>
<g id="a_node1"><a xlink:title=" ">
<polygon fill="#bfbfbf" stroke="black" points="356,-24.5 356,-54.5 498,-54.5 498,-24.5 356,-24.5"/>
<text text-anchor="start" x="364" y="-42.5" font-family="Helvetica,sans-Serif" font-size="10.00">tklb::ResamplerCosineTpl</text>
<text text-anchor="middle" x="427" y="-31.5" font-family="Helvetica,sans-Serif" font-size="10.00">::estimateOut</text>
</a>
</g>
</g>
<!-- Node2 -->
<g id="node2" class="node">
<title>Node2</title>
<g id="a_node2"><a xlink:href="classtklb_1_1_resampler_cosine_tpl.html#a298bcca582fdb7c8d5319f106cb8f4f8" target="_top" xlink:title="Calculate a buffersize fit for the resampled result.">
<polygon fill="none" stroke="black" points="178,-49.5 178,-79.5 320,-79.5 320,-49.5 178,-49.5"/>
<text text-anchor="start" x="186" y="-67.5" font-family="Helvetica,sans-Serif" font-size="10.00">tklb::ResamplerCosineTpl</text>
<text text-anchor="middle" x="249" y="-56.5" font-family="Helvetica,sans-Serif" font-size="10.00">::calculateBufferSize</text>
</a>
</g>
</g>
<!-- Node1&#45;&gt;Node2 -->
<g id="edge1" class="edge">
<title>Node1&#45;&gt;Node2</title>
<path fill="none" stroke="midnightblue" d="M345.9,-50.88C337.29,-52.1 328.59,-53.34 320.11,-54.54"/>
<polygon fill="midnightblue" stroke="midnightblue" points="346.53,-54.32 355.93,-49.45 345.54,-47.39 346.53,-54.32"/>
</g>
<!-- Node4 -->
<g id="node4" class="node">
<title>Node4</title>
<g id="a_node4"><a xlink:href="classtklb_1_1_resampler_cosine_tpl.html#ae598bcbdc6ae0ccca26d91af3b378cf7" target="_top" xlink:title="Resample function Make sure the out buffer has enough space.">
<polygon fill="none" stroke="black" points="178,-0.5 178,-30.5 320,-30.5 320,-0.5 178,-0.5"/>
<text text-anchor="start" x="186" y="-18.5" font-family="Helvetica,sans-Serif" font-size="10.00">tklb::ResamplerCosineTpl</text>
<text text-anchor="middle" x="249" y="-7.5" font-family="Helvetica,sans-Serif" font-size="10.00">::process</text>
</a>
</g>
</g>
<!-- Node1&#45;&gt;Node4 -->
<g id="edge3" class="edge">
<title>Node1&#45;&gt;Node4</title>
<path fill="none" stroke="midnightblue" d="M345.9,-28.58C337.29,-27.4 328.59,-26.22 320.11,-25.06"/>
<polygon fill="midnightblue" stroke="midnightblue" points="345.55,-32.06 355.93,-29.95 346.5,-25.13 345.55,-32.06"/>
</g>
<!-- Node3 -->
<g id="node3" class="node">
<title>Node3</title>
<g id="a_node3"><a xlink:href="classtklb_1_1_resampler_cosine_tpl.html#a8ae142b3a8d74bd35d9a94e751db4ae8" target="_top" xlink:title="Resamples the provided buffer from its sampleRate to the target rate.">
<polygon fill="none" stroke="black" points="0,-24.5 0,-54.5 142,-54.5 142,-24.5 0,-24.5"/>
<text text-anchor="start" x="8" y="-42.5" font-family="Helvetica,sans-Serif" font-size="10.00">tklb::ResamplerCosineTpl</text>
<text text-anchor="middle" x="71" y="-31.5" font-family="Helvetica,sans-Serif" font-size="10.00">::resample</text>
</a>
</g>
</g>
<!-- Node2&#45;&gt;Node3 -->
<g id="edge2" class="edge">
<title>Node2&#45;&gt;Node3</title>
<path fill="none" stroke="midnightblue" d="M167.9,-53.12C159.29,-51.9 150.59,-50.66 142.11,-49.46"/>
<polygon fill="midnightblue" stroke="midnightblue" points="167.54,-56.61 177.93,-54.55 168.53,-49.68 167.54,-56.61"/>
</g>
<!-- Node4&#45;&gt;Node3 -->
<g id="edge4" class="edge">
<title>Node4&#45;&gt;Node3</title>
<path fill="none" stroke="midnightblue" d="M167.9,-26.42C159.29,-27.6 150.59,-28.78 142.11,-29.94"/>
<polygon fill="midnightblue" stroke="midnightblue" points="168.5,-29.87 177.93,-25.05 167.55,-22.94 168.5,-29.87"/>
</g>
</g>
</svg>
