<?xml version="1.0" encoding="UTF-8" standalone="no"?>
<!DOCTYPE svg PUBLIC "-//W3C//DTD SVG 1.1//EN"
 "http://www.w3.org/Graphics/SVG/1.1/DTD/svg11.dtd">
<!-- Generated by graphviz version 2.50.0 (0)
 -->
<!-- Title: vae::core::BackendPortAudio::getDefaultOutputDevice Pages: 1 -->
<svg width="551pt" height="78pt"
 viewBox="0.00 0.00 551.00 77.50" xmlns="http://www.w3.org/2000/svg" xmlns:xlink="http://www.w3.org/1999/xlink">
<g id="graph0" class="graph" transform="scale(1 1) rotate(0) translate(4 73.5)">
<title>vae::core::BackendPortAudio::getDefaultOutputDevice</title>
<!-- Node1 -->
<g id="node1" class="node">
<title>Node1</title>
<g id="a_node1"><a xlink:title=" ">
<polygon fill="#bfbfbf" stroke="black" points="0,-17 0,-47 157,-47 157,-17 0,-17"/>
<text text-anchor="start" x="8" y="-35" font-family="Helvetica,sans-Serif" font-size="10.00">vae::core::BackendPortAudio</text>
<text text-anchor="middle" x="78.5" y="-24" font-family="Helvetica,sans-Serif" font-size="10.00">::getDefaultOutputDevice</text>
</a>
</g>
</g>
<!-- Node2 -->
<g id="node2" class="node">
<title>Node2</title>
<g id="a_node2"><a xlink:href="classvae_1_1core_1_1_backend_port_audio.html#a7034d66c5dfb7e242c2ef1f1feb978c1" target="_top" xlink:title="Returns a spefic device info for index.">
<polygon fill="none" stroke="black" points="193,-17 193,-47 350,-47 350,-17 193,-17"/>
<text text-anchor="start" x="201" y="-35" font-family="Helvetica,sans-Serif" font-size="10.00">vae::core::BackendPortAudio</text>
<text text-anchor="middle" x="271.5" y="-24" font-family="Helvetica,sans-Serif" font-size="10.00">::getDevice</text>
</a>
</g>
</g>
<!-- Node1&#45;&gt;Node2 -->
<g id="edge1" class="edge">
<title>Node1&#45;&gt;Node2</title>
<path fill="none" stroke="midnightblue" d="M157.19,-32C165.65,-32 174.31,-32 182.88,-32"/>
<polygon fill="midnightblue" stroke="midnightblue" points="182.88,-35.5 192.88,-32 182.88,-28.5 182.88,-35.5"/>
</g>
<!-- Node3 -->
<g id="node3" class="node">
<title>Node3</title>
<g id="a_node3"><a xlink:href="classvae_1_1core_1_1_backend_port_audio.html#a1a088c474155896c52d54adce56e24d7" target="_top" xlink:title="Returns name of the api.">
<polygon fill="none" stroke="black" points="386,-39 386,-69 543,-69 543,-39 386,-39"/>
<text text-anchor="start" x="394" y="-57" font-family="Helvetica,sans-Serif" font-size="10.00">vae::core::BackendPortAudio</text>
<text text-anchor="middle" x="464.5" y="-46" font-family="Helvetica,sans-Serif" font-size="10.00">::getName</text>
</a>
</g>
</g>
<!-- Node2&#45;&gt;Node3 -->
<g id="edge2" class="edge">
<title>Node2&#45;&gt;Node3</title>
<path fill="none" stroke="midnightblue" d="M350.19,-40.95C358.65,-41.92 367.31,-42.92 375.88,-43.91"/>
<polygon fill="midnightblue" stroke="midnightblue" points="375.55,-47.39 385.88,-45.06 376.35,-40.44 375.55,-47.39"/>
</g>
<!-- Node4 -->
<g id="node4" class="node">
<title>Node4</title>
<g id="a_node4"><a xlink:href="namespacetklb_1_1memory.html#a03c76a0f946284624b0bf7dc37ee311a" target="_top" xlink:title=" ">
<polygon fill="none" stroke="black" points="394,-0.5 394,-19.5 535,-19.5 535,-0.5 394,-0.5"/>
<text text-anchor="middle" x="464.5" y="-7.5" font-family="Helvetica,sans-Serif" font-size="10.00">tklb::memory::stringCopy</text>
</a>
</g>
</g>
<!-- Node2&#45;&gt;Node4 -->
<g id="edge3" class="edge">
<title>Node2&#45;&gt;Node4</title>
<path fill="none" stroke="midnightblue" d="M350.19,-23.05C361.26,-21.78 372.66,-20.46 383.77,-19.18"/>
<polygon fill="midnightblue" stroke="midnightblue" points="384.34,-22.64 393.87,-18.02 383.53,-15.69 384.34,-22.64"/>
</g>
</g>
</svg>
