<?xml version="1.0" encoding="UTF-8" standalone="no"?>
<!DOCTYPE svg PUBLIC "-//W3C//DTD SVG 1.1//EN"
 "http://www.w3.org/Graphics/SVG/1.1/DTD/svg11.dtd">
<!-- Generated by graphviz version 2.50.0 (0)
 -->
<!-- Title: vae::core::Engine::createEmitter Pages: 1 -->
<svg width="366pt" height="154pt"
 viewBox="0.00 0.00 366.00 154.00" xmlns="http://www.w3.org/2000/svg" xmlns:xlink="http://www.w3.org/1999/xlink">
<g id="graph0" class="graph" transform="scale(1 1) rotate(0) translate(4 150)">
<title>vae::core::Engine::createEmitter</title>
<!-- Node1 -->
<g id="node1" class="node">
<title>Node1</title>
<g id="a_node1"><a xlink:title="Creates an emitter and returns the handle.">
<polygon fill="#bfbfbf" stroke="black" points="251,-61 251,-91 358,-91 358,-61 251,-61"/>
<text text-anchor="start" x="259" y="-79" font-family="Helvetica,sans-Serif" font-size="10.00">vae::core::Engine::</text>
<text text-anchor="middle" x="304.5" y="-68" font-family="Helvetica,sans-Serif" font-size="10.00">createEmitter</text>
</a>
</g>
</g>
<!-- Node2 -->
<g id="node2" class="node">
<title>Node2</title>
<g id="a_node2"><a xlink:href="main_8cpp.html#a7b09579eb01449ba8f8ac324485001c2" target="_top" xlink:title=" ">
<polygon fill="none" stroke="black" points="110.5,-126.5 110.5,-145.5 181.5,-145.5 181.5,-126.5 110.5,-126.5"/>
<text text-anchor="middle" x="146" y="-133.5" font-family="Helvetica,sans-Serif" font-size="10.00">benchmark</text>
</a>
</g>
</g>
<!-- Node1&#45;&gt;Node2 -->
<g id="edge1" class="edge">
<title>Node1&#45;&gt;Node2</title>
<path fill="none" stroke="midnightblue" d="M264.94,-95.51C249.63,-102.82 231.71,-110.84 215,-117 204.3,-120.94 192.4,-124.53 181.59,-127.5"/>
<polygon fill="midnightblue" stroke="midnightblue" points="266.63,-98.58 274.1,-91.07 263.58,-92.28 266.63,-98.58"/>
</g>
<!-- Node3 -->
<g id="node3" class="node">
<title>Node3</title>
<g id="a_node3"><a xlink:href="main_8cpp.html#a6f5c91847864279624ba2247527e3cea" target="_top" xlink:title=" ">
<polygon fill="none" stroke="black" points="84.5,-88.5 84.5,-107.5 207.5,-107.5 207.5,-88.5 84.5,-88.5"/>
<text text-anchor="middle" x="146" y="-95.5" font-family="Helvetica,sans-Serif" font-size="10.00">benchmarkBasicVoice</text>
</a>
</g>
</g>
<!-- Node1&#45;&gt;Node3 -->
<g id="edge2" class="edge">
<title>Node1&#45;&gt;Node3</title>
<path fill="none" stroke="midnightblue" d="M240.97,-84.79C229.95,-86.34 218.49,-87.95 207.52,-89.49"/>
<polygon fill="midnightblue" stroke="midnightblue" points="241.54,-88.24 250.95,-83.39 240.56,-81.31 241.54,-88.24"/>
</g>
<!-- Node4 -->
<g id="node4" class="node">
<title>Node4</title>
<g id="a_node4"><a xlink:href="classvae_1_1_engine_pimpl.html#a277ff894edce0324148c68cb2d5785ea" target="_top" xlink:title="Creates an emitter and returns the handle.">
<polygon fill="none" stroke="black" points="77,-39 77,-69 215,-69 215,-39 77,-39"/>
<text text-anchor="start" x="85" y="-57" font-family="Helvetica,sans-Serif" font-size="10.00">vae::EnginePimpl::create</text>
<text text-anchor="middle" x="146" y="-46" font-family="Helvetica,sans-Serif" font-size="10.00">Emitter</text>
</a>
</g>
</g>
<!-- Node1&#45;&gt;Node4 -->
<g id="edge3" class="edge">
<title>Node1&#45;&gt;Node4</title>
<path fill="none" stroke="midnightblue" d="M240.84,-67.19C232.42,-66.01 223.76,-64.79 215.25,-63.59"/>
<polygon fill="midnightblue" stroke="midnightblue" points="240.56,-70.69 250.95,-68.61 241.54,-63.76 240.56,-70.69"/>
</g>
<!-- Node5 -->
<g id="node5" class="node">
<title>Node5</title>
<g id="a_node5"><a xlink:href="main_8cpp.html#afe1c3ff6204d9b675caf60b5545e3e54" target="_top" xlink:title=" ">
<polygon fill="none" stroke="black" points="116.5,-0.5 116.5,-19.5 175.5,-19.5 175.5,-0.5 116.5,-0.5"/>
<text text-anchor="middle" x="146" y="-7.5" font-family="Helvetica,sans-Serif" font-size="10.00">filterTest</text>
</a>
</g>
</g>
<!-- Node1&#45;&gt;Node5 -->
<g id="edge4" class="edge">
<title>Node1&#45;&gt;Node5</title>
<path fill="none" stroke="midnightblue" d="M268.79,-55.97C252.76,-47.25 233.26,-37.35 215,-30 202.33,-24.9 187.86,-20.46 175.54,-17.07"/>
<polygon fill="midnightblue" stroke="midnightblue" points="267.35,-59.18 277.79,-60.95 270.73,-53.05 267.35,-59.18"/>
</g>
<!-- Node6 -->
<g id="node6" class="node">
<title>Node6</title>
<g id="a_node6"><a xlink:href="main_8cpp.html#ae66f6b31b5ad750f1fe042a706a4e3d4" target="_top" xlink:title=" ">
<polygon fill="none" stroke="black" points="0,-0.5 0,-19.5 41,-19.5 41,-0.5 0,-0.5"/>
<text text-anchor="middle" x="20.5" y="-7.5" font-family="Helvetica,sans-Serif" font-size="10.00">main</text>
</a>
</g>
</g>
<!-- Node5&#45;&gt;Node6 -->
<g id="edge5" class="edge">
<title>Node5&#45;&gt;Node6</title>
<path fill="none" stroke="midnightblue" d="M106.15,-10C84.54,-10 58.56,-10 41.14,-10"/>
<polygon fill="midnightblue" stroke="midnightblue" points="106.36,-13.5 116.36,-10 106.36,-6.5 106.36,-13.5"/>
</g>
</g>
</svg>
