<?xml version="1.0" encoding="UTF-8" standalone="no"?>
<!DOCTYPE svg PUBLIC "-//W3C//DTD SVG 1.1//EN"
 "http://www.w3.org/Graphics/SVG/1.1/DTD/svg11.dtd">
<!-- Generated by graphviz version 2.50.0 (0)
 -->
<!-- Title: vae::core::Engine::loadBank Pages: 1 -->
<svg width="1483pt" height="466pt"
 viewBox="0.00 0.00 1483.00 466.49" xmlns="http://www.w3.org/2000/svg" xmlns:xlink="http://www.w3.org/1999/xlink">
<g id="graph0" class="graph" transform="scale(1 1) rotate(0) translate(4 462.49)">
<title>vae::core::Engine::loadBank</title>
<!-- Node1 -->
<g id="node1" class="node">
<title>Node1</title>
<g id="a_node1"><a xlink:title="Load bank from filesystem.">
<polygon fill="#bfbfbf" stroke="black" points="0,-260.99 0,-290.99 107,-290.99 107,-260.99 0,-260.99"/>
<text text-anchor="start" x="8" y="-278.99" font-family="Helvetica,sans-Serif" font-size="10.00">vae::core::Engine::</text>
<text text-anchor="middle" x="53.5" y="-267.99" font-family="Helvetica,sans-Serif" font-size="10.00">loadBank</text>
</a>
</g>
</g>
<!-- Node2 -->
<g id="node2" class="node">
<title>Node2</title>
<g id="a_node2"><a xlink:href="classvae_1_1core_1_1_bank_manager.html#ab06ae4e1f8106811c8149dd73bef6bd0" target="_top" xlink:title=" ">
<polygon fill="none" stroke="black" points="143,-260.99 143,-290.99 277,-290.99 277,-260.99 143,-260.99"/>
<text text-anchor="start" x="151" y="-278.99" font-family="Helvetica,sans-Serif" font-size="10.00">vae::core::BankManager</text>
<text text-anchor="middle" x="210" y="-267.99" font-family="Helvetica,sans-Serif" font-size="10.00">::load</text>
</a>
</g>
</g>
<!-- Node1&#45;&gt;Node2 -->
<g id="edge1" class="edge">
<title>Node1&#45;&gt;Node2</title>
<path fill="none" stroke="midnightblue" d="M107.24,-275.99C115.47,-275.99 124.11,-275.99 132.74,-275.99"/>
<polygon fill="midnightblue" stroke="midnightblue" points="132.84,-279.49 142.84,-275.99 132.84,-272.49 132.84,-279.49"/>
</g>
<!-- Node2&#45;&gt;Node2 -->
<g id="edge47" class="edge">
<title>Node2&#45;&gt;Node2</title>
<path fill="none" stroke="midnightblue" d="M182.81,-291.15C176.26,-300.55 185.32,-309.49 210,-309.49 225.04,-309.49 234.28,-306.17 237.72,-301.45"/>
<polygon fill="midnightblue" stroke="midnightblue" points="241.2,-300.95 237.19,-291.15 234.21,-301.32 241.2,-300.95"/>
</g>
<!-- Node3 -->
<g id="node3" class="node">
<title>Node3</title>
<g id="a_node3"><a xlink:href="classvae_1_1core_1_1_bank_loader.html#a0c168e922d02dbe23ec42ebfde4d97a2" target="_top" xlink:title="Load a bank.json and all wav files referenced in it.">
<polygon fill="none" stroke="black" points="313,-260.99 313,-290.99 438,-290.99 438,-260.99 313,-260.99"/>
<text text-anchor="start" x="321" y="-278.99" font-family="Helvetica,sans-Serif" font-size="10.00">vae::core::BankLoader</text>
<text text-anchor="middle" x="375.5" y="-267.99" font-family="Helvetica,sans-Serif" font-size="10.00">::load</text>
</a>
</g>
</g>
<!-- Node2&#45;&gt;Node3 -->
<g id="edge2" class="edge">
<title>Node2&#45;&gt;Node3</title>
<path fill="none" stroke="midnightblue" d="M277.03,-275.99C285.57,-275.99 294.34,-275.99 302.96,-275.99"/>
<polygon fill="midnightblue" stroke="midnightblue" points="302.98,-279.49 312.98,-275.99 302.98,-272.49 302.98,-279.49"/>
</g>
<!-- Node4 -->
<g id="node4" class="node">
<title>Node4</title>
<g id="a_node4"><a xlink:href="structvae_1_1core_1_1_source_loader.html#a2341f89c2b79148066369e8d50d98597" target="_top" xlink:title="Loads a wav file for the resource.">
<polygon fill="none" stroke="black" points="474,-260.99 474,-290.99 608,-290.99 608,-260.99 474,-260.99"/>
<text text-anchor="start" x="482" y="-278.99" font-family="Helvetica,sans-Serif" font-size="10.00">vae::core::SourceLoader</text>
<text text-anchor="middle" x="541" y="-267.99" font-family="Helvetica,sans-Serif" font-size="10.00">::load</text>
</a>
</g>
</g>
<!-- Node3&#45;&gt;Node4 -->
<g id="edge3" class="edge">
<title>Node3&#45;&gt;Node4</title>
<path fill="none" stroke="midnightblue" d="M438.31,-275.99C446.54,-275.99 455.06,-275.99 463.5,-275.99"/>
<polygon fill="midnightblue" stroke="midnightblue" points="463.73,-279.49 473.73,-275.99 463.73,-272.49 463.73,-279.49"/>
</g>
<!-- Node5 -->
<g id="node5" class="node">
<title>Node5</title>
<g id="a_node5"><a xlink:href="namespacetklb_1_1ogg.html#a61b130503ea6c0157f584d36dec61371" target="_top" xlink:title="Decode ogg/vorbis from memory or file path.">
<polygon fill="none" stroke="black" points="648.5,-345.49 648.5,-364.49 734.5,-364.49 734.5,-345.49 648.5,-345.49"/>
<text text-anchor="middle" x="691.5" y="-352.49" font-family="Helvetica,sans-Serif" font-size="10.00">tklb::ogg::load</text>
</a>
</g>
</g>
<!-- Node4&#45;&gt;Node5 -->
<g id="edge4" class="edge">
<title>Node4&#45;&gt;Node5</title>
<path fill="none" stroke="midnightblue" d="M570.28,-291.03C597.11,-305.31 637.15,-326.61 663.54,-340.64"/>
<polygon fill="midnightblue" stroke="midnightblue" points="662.12,-343.85 672.59,-345.46 665.41,-337.67 662.12,-343.85"/>
</g>
<!-- Node18 -->
<g id="node18" class="node">
<title>Node18</title>
<g id="a_node18"><a xlink:href="namespacetklb_1_1wave.html#a0eea36d8e07b1520ce77191e081c45bb" target="_top" xlink:title="Decode wav from memory or file path.">
<polygon fill="none" stroke="black" points="644,-206.49 644,-225.49 739,-225.49 739,-206.49 644,-206.49"/>
<text text-anchor="middle" x="691.5" y="-213.49" font-family="Helvetica,sans-Serif" font-size="10.00">tklb::wave::load</text>
</a>
</g>
</g>
<!-- Node4&#45;&gt;Node18 -->
<g id="edge23" class="edge">
<title>Node4&#45;&gt;Node18</title>
<path fill="none" stroke="midnightblue" d="M579.47,-260.85C603.53,-251.13 634.48,-238.62 657.59,-229.29"/>
<polygon fill="midnightblue" stroke="midnightblue" points="659.01,-232.49 666.97,-225.5 656.39,-226 659.01,-232.49"/>
</g>
<!-- Node6 -->
<g id="node6" class="node">
<title>Node6</title>
<g id="a_node6"><a xlink:href="classtklb_1_1_audio_buffer_tpl.html#a2cf39ec8b1c8b109e5d4d006b1385391" target="_top" xlink:title="Fills an 2d array of size maxChannels() with pointers to each channel.">
<polygon fill="none" stroke="black" points="794,-427.99 794,-457.99 908,-457.99 908,-427.99 794,-427.99"/>
<text text-anchor="start" x="802" y="-445.99" font-family="Helvetica,sans-Serif" font-size="10.00">tklb::AudioBufferTpl</text>
<text text-anchor="middle" x="851" y="-434.99" font-family="Helvetica,sans-Serif" font-size="10.00">::getRaw</text>
</a>
</g>
</g>
<!-- Node5&#45;&gt;Node6 -->
<g id="edge5" class="edge">
<title>Node5&#45;&gt;Node6</title>
<path fill="none" stroke="midnightblue" d="M704.23,-364.56C719.73,-376.9 748.22,-398.47 775,-412.99 782.19,-416.88 789.99,-420.56 797.76,-423.92"/>
<polygon fill="midnightblue" stroke="midnightblue" points="796.59,-427.22 807.17,-427.84 799.29,-420.76 796.59,-427.22"/>
</g>
<!-- Node13 -->
<g id="node13" class="node">
<title>Node13</title>
<g id="a_node13"><a xlink:href="classtklb_1_1_audio_buffer_tpl.html#addb80823bf792039ad009baeed0a7dcb" target="_top" xlink:title="Resizes the buffer to the desired length and channel count.">
<polygon fill="none" stroke="black" points="977,-208.99 977,-238.99 1091,-238.99 1091,-208.99 977,-208.99"/>
<text text-anchor="start" x="985" y="-226.99" font-family="Helvetica,sans-Serif" font-size="10.00">tklb::AudioBufferTpl</text>
<text text-anchor="middle" x="1034" y="-215.99" font-family="Helvetica,sans-Serif" font-size="10.00">::resize</text>
</a>
</g>
</g>
<!-- Node5&#45;&gt;Node13 -->
<g id="edge12" class="edge">
<title>Node5&#45;&gt;Node13</title>
<path fill="none" stroke="midnightblue" d="M716.29,-345.39C763.27,-326.48 871.36,-283.3 963,-248.99 968.57,-246.9 974.41,-244.76 980.24,-242.64"/>
<polygon fill="midnightblue" stroke="midnightblue" points="981.77,-245.81 989.98,-239.12 979.39,-239.22 981.77,-245.81"/>
</g>
<!-- Node16 -->
<g id="node16" class="node">
<title>Node16</title>
<g id="a_node16"><a xlink:href="classtklb_1_1_audio_buffer_tpl.html#aa11a79c75ab7aa4e7bb0a70a87bd743d" target="_top" xlink:title="Set a single channel from an array.">
<polygon fill="none" stroke="black" points="966.5,-345.49 966.5,-364.49 1101.5,-364.49 1101.5,-345.49 966.5,-345.49"/>
<text text-anchor="middle" x="1034" y="-352.49" font-family="Helvetica,sans-Serif" font-size="10.00">tklb::AudioBufferTpl::set</text>
</a>
</g>
</g>
<!-- Node5&#45;&gt;Node16 -->
<g id="edge16" class="edge">
<title>Node5&#45;&gt;Node16</title>
<path fill="none" stroke="midnightblue" d="M717.34,-364.61C733.49,-370.34 755.16,-377.05 775,-379.99 841.83,-389.89 859.9,-387.79 927,-379.99 948.43,-377.5 971.82,-372.26 991.16,-367.22"/>
<polygon fill="midnightblue" stroke="midnightblue" points="992.12,-370.58 1000.87,-364.62 990.31,-363.82 992.12,-370.58"/>
</g>
<!-- Node17 -->
<g id="node17" class="node">
<title>Node17</title>
<g id="a_node17"><a xlink:href="classtklb_1_1_audio_buffer_tpl.html#ae6bac549ffef997e42354d8e4870afe4" target="_top" xlink:title="Set the amount of valid samples currently in the buffer This is mostly a convenience flag since the a...">
<polygon fill="none" stroke="black" points="794,-339.99 794,-369.99 908,-369.99 908,-339.99 794,-339.99"/>
<text text-anchor="start" x="802" y="-357.99" font-family="Helvetica,sans-Serif" font-size="10.00">tklb::AudioBufferTpl</text>
<text text-anchor="middle" x="851" y="-346.99" font-family="Helvetica,sans-Serif" font-size="10.00">::setValidSize</text>
</a>
</g>
</g>
<!-- Node5&#45;&gt;Node17 -->
<g id="edge21" class="edge">
<title>Node5&#45;&gt;Node17</title>
<path fill="none" stroke="midnightblue" d="M734.71,-354.99C749.72,-354.99 767.02,-354.99 783.57,-354.99"/>
<polygon fill="midnightblue" stroke="midnightblue" points="783.75,-358.49 793.75,-354.99 783.75,-351.49 783.75,-358.49"/>
</g>
<!-- Node7 -->
<g id="node7" class="node">
<title>Node7</title>
<g id="a_node7"><a xlink:href="classtklb_1_1_audio_buffer_tpl.html#ac59e6eb1a408c183b9e360f473786aec" target="_top" xlink:title=" ">
<polygon fill="none" stroke="black" points="975,-383.99 975,-413.99 1093,-413.99 1093,-383.99 975,-383.99"/>
<text text-anchor="start" x="983" y="-401.99" font-family="Helvetica,sans-Serif" font-size="10.00">tklb::AudioBufferTpl</text>
<text text-anchor="middle" x="1034" y="-390.99" font-family="Helvetica,sans-Serif" font-size="10.00">::assertOnConstMem</text>
</a>
</g>
</g>
<!-- Node6&#45;&gt;Node7 -->
<g id="edge6" class="edge">
<title>Node6&#45;&gt;Node7</title>
<path fill="none" stroke="midnightblue" d="M908.28,-429.31C926.22,-424.95 946.27,-420.07 964.96,-415.53"/>
<polygon fill="midnightblue" stroke="midnightblue" points="965.99,-418.88 974.88,-413.12 964.34,-412.08 965.99,-418.88"/>
</g>
<!-- Node8 -->
<g id="node8" class="node">
<title>Node8</title>
<g id="a_node8"><a xlink:href="classtklb_1_1_audio_buffer_tpl.html#a613104aae947423f0fac79142a8bcaf0" target="_top" xlink:title="Fill the provided array with the contents of this buffer.">
<polygon fill="none" stroke="black" points="966,-433.49 966,-452.49 1102,-452.49 1102,-433.49 966,-433.49"/>
<text text-anchor="middle" x="1034" y="-440.49" font-family="Helvetica,sans-Serif" font-size="10.00">tklb::AudioBufferTpl::put</text>
</a>
</g>
</g>
<!-- Node6&#45;&gt;Node8 -->
<g id="edge7" class="edge">
<title>Node6&#45;&gt;Node8</title>
<path fill="none" stroke="midnightblue" d="M908.28,-442.99C923.26,-442.99 939.71,-442.99 955.61,-442.99"/>
<polygon fill="midnightblue" stroke="midnightblue" points="955.96,-446.49 965.96,-442.99 955.96,-439.49 955.96,-446.49"/>
</g>
<!-- Node9 -->
<g id="node9" class="node">
<title>Node9</title>
<g id="a_node9"><a xlink:href="namespacetklb_1_1memory.html#ab89ec197028f903f4ea125eae46c4a10" target="_top" xlink:title="memcpy wrapper">
<polygon fill="none" stroke="black" points="1159.5,-346.49 1159.5,-365.49 1271.5,-365.49 1271.5,-346.49 1159.5,-346.49"/>
<text text-anchor="middle" x="1215.5" y="-353.49" font-family="Helvetica,sans-Serif" font-size="10.00">tklb::memory::copy</text>
</a>
</g>
</g>
<!-- Node8&#45;&gt;Node9 -->
<g id="edge8" class="edge">
<title>Node8&#45;&gt;Node9</title>
<path fill="none" stroke="midnightblue" d="M1086.13,-433.49C1092.8,-431.02 1099.29,-427.91 1105,-423.99 1127.29,-408.71 1118.62,-390.14 1141,-374.99 1144.07,-372.91 1147.36,-371.06 1150.77,-369.41"/>
<polygon fill="midnightblue" stroke="midnightblue" points="1152.2,-372.6 1160.06,-365.5 1149.48,-366.15 1152.2,-372.6"/>
</g>
<!-- Node10 -->
<g id="node10" class="node">
<title>Node10</title>
<g id="a_node10"><a xlink:href="classtklb_1_1_audio_buffer_tpl.html#a839371a414e21aea2101d9404e3be9c5" target="_top" xlink:title=" ">
<polygon fill="none" stroke="black" points="1147.5,-384.49 1147.5,-403.49 1283.5,-403.49 1283.5,-384.49 1147.5,-384.49"/>
<text text-anchor="middle" x="1215.5" y="-391.49" font-family="Helvetica,sans-Serif" font-size="10.00">tklb::AudioBufferTpl::get</text>
</a>
</g>
</g>
<!-- Node8&#45;&gt;Node10 -->
<g id="edge9" class="edge">
<title>Node8&#45;&gt;Node10</title>
<path fill="none" stroke="midnightblue" d="M1070.26,-433.44C1081.37,-430.42 1093.7,-427.07 1105,-423.99 1126.31,-418.18 1149.95,-411.7 1169.79,-406.26"/>
<polygon fill="midnightblue" stroke="midnightblue" points="1170.77,-409.62 1179.49,-403.6 1168.92,-402.87 1170.77,-409.62"/>
</g>
<!-- Node11 -->
<g id="node11" class="node">
<title>Node11</title>
<g id="a_node11"><a xlink:href="namespacetklb.html#a3080595da18d742645ec41d61828a426" target="_top" xlink:title=" ">
<polygon fill="none" stroke="black" points="1185.5,-258.49 1185.5,-277.49 1245.5,-277.49 1245.5,-258.49 1185.5,-258.49"/>
<text text-anchor="middle" x="1215.5" y="-265.49" font-family="Helvetica,sans-Serif" font-size="10.00">tklb::min</text>
</a>
</g>
</g>
<!-- Node8&#45;&gt;Node11 -->
<g id="edge10" class="edge">
<title>Node8&#45;&gt;Node11</title>
<path fill="none" stroke="midnightblue" d="M1091.81,-433.39C1096.67,-430.92 1101.18,-427.83 1105,-423.99 1149.07,-379.64 1096.94,-332.35 1141,-287.99 1150.03,-278.9 1162.75,-273.82 1175.07,-271.03"/>
<polygon fill="midnightblue" stroke="midnightblue" points="1176.03,-274.41 1185.24,-269.18 1174.78,-267.52 1176.03,-274.41"/>
</g>
<!-- Node12 -->
<g id="node12" class="node">
<title>Node12</title>
<g id="a_node12"><a xlink:href="classtklb_1_1_audio_buffer_tpl.html#a37f13531bbfb64cff87ab6473f5bea14" target="_top" xlink:title="fReturns the length of actually valid audio in the buffer.">
<polygon fill="none" stroke="black" points="1158.5,-427.99 1158.5,-457.99 1272.5,-457.99 1272.5,-427.99 1158.5,-427.99"/>
<text text-anchor="start" x="1166.5" y="-445.99" font-family="Helvetica,sans-Serif" font-size="10.00">tklb::AudioBufferTpl</text>
<text text-anchor="middle" x="1215.5" y="-434.99" font-family="Helvetica,sans-Serif" font-size="10.00">::validSize</text>
</a>
</g>
</g>
<!-- Node8&#45;&gt;Node12 -->
<g id="edge11" class="edge">
<title>Node8&#45;&gt;Node12</title>
<path fill="none" stroke="midnightblue" d="M1102.09,-442.99C1117.14,-442.99 1133.1,-442.99 1148.12,-442.99"/>
<polygon fill="midnightblue" stroke="midnightblue" points="1148.35,-446.49 1158.35,-442.99 1148.35,-439.49 1148.35,-446.49"/>
</g>
<!-- Node13&#45;&gt;Node11 -->
<g id="edge14" class="edge">
<title>Node13&#45;&gt;Node11</title>
<path fill="none" stroke="midnightblue" d="M1091.3,-237.79C1118.77,-244.52 1151.12,-252.45 1175.78,-258.5"/>
<polygon fill="midnightblue" stroke="midnightblue" points="1174.95,-261.9 1185.5,-260.88 1176.62,-255.1 1174.95,-261.9"/>
</g>
<!-- Node14 -->
<g id="node14" class="node">
<title>Node14</title>
<g id="a_node14"><a xlink:href="classtklb_1_1_audio_buffer_tpl.html#a9714a6b0b9ee269c551b28f830a02d57" target="_top" xlink:title="Returns the amount of channels.">
<polygon fill="none" stroke="black" points="1158.5,-208.99 1158.5,-238.99 1272.5,-238.99 1272.5,-208.99 1158.5,-208.99"/>
<text text-anchor="start" x="1166.5" y="-226.99" font-family="Helvetica,sans-Serif" font-size="10.00">tklb::AudioBufferTpl</text>
<text text-anchor="middle" x="1215.5" y="-215.99" font-family="Helvetica,sans-Serif" font-size="10.00">::channels</text>
</a>
</g>
</g>
<!-- Node13&#45;&gt;Node14 -->
<g id="edge13" class="edge">
<title>Node13&#45;&gt;Node14</title>
<path fill="none" stroke="midnightblue" d="M1091.3,-223.99C1109.35,-223.99 1129.5,-223.99 1148.19,-223.99"/>
<polygon fill="midnightblue" stroke="midnightblue" points="1148.4,-227.49 1158.4,-223.99 1148.4,-220.49 1148.4,-227.49"/>
</g>
<!-- Node15 -->
<g id="node15" class="node">
<title>Node15</title>
<g id="a_node15"><a xlink:href="classtklb_1_1_audio_buffer_tpl.html#acbe041a482f37ed4a02b99b239e53f80" target="_top" xlink:title="Returns the allocated length of the buffer.">
<polygon fill="none" stroke="black" points="1158.5,-296.99 1158.5,-326.99 1272.5,-326.99 1272.5,-296.99 1158.5,-296.99"/>
<text text-anchor="start" x="1166.5" y="-314.99" font-family="Helvetica,sans-Serif" font-size="10.00">tklb::AudioBufferTpl</text>
<text text-anchor="middle" x="1215.5" y="-303.99" font-family="Helvetica,sans-Serif" font-size="10.00">::size</text>
</a>
</g>
</g>
<!-- Node13&#45;&gt;Node15 -->
<g id="edge15" class="edge">
<title>Node13&#45;&gt;Node15</title>
<path fill="none" stroke="midnightblue" d="M1086.07,-239.01C1092.67,-241.87 1099.16,-245.18 1105,-248.99 1124.49,-261.69 1121.42,-274.43 1141,-286.99 1144.13,-289 1147.45,-290.87 1150.87,-292.6"/>
<polygon fill="midnightblue" stroke="midnightblue" points="1149.56,-295.85 1160.11,-296.87 1152.5,-289.5 1149.56,-295.85"/>
</g>
<!-- Node16&#45;&gt;Node9 -->
<g id="edge17" class="edge">
<title>Node16&#45;&gt;Node9</title>
<path fill="none" stroke="midnightblue" d="M1101.58,-355.36C1117.22,-355.45 1133.86,-355.54 1149.42,-355.63"/>
<polygon fill="midnightblue" stroke="midnightblue" points="1149.45,-359.13 1159.47,-355.68 1149.49,-352.13 1149.45,-359.13"/>
</g>
<!-- Node16&#45;&gt;Node10 -->
<g id="edge18" class="edge">
<title>Node16&#45;&gt;Node10</title>
<path fill="none" stroke="midnightblue" d="M1078.91,-364.53C1103.56,-369.88 1134.51,-376.61 1160.62,-382.28"/>
<polygon fill="midnightblue" stroke="midnightblue" points="1160.22,-385.78 1170.73,-384.48 1161.7,-378.94 1160.22,-385.78"/>
</g>
<!-- Node16&#45;&gt;Node11 -->
<g id="edge19" class="edge">
<title>Node16&#45;&gt;Node11</title>
<path fill="none" stroke="midnightblue" d="M1047.36,-345.43C1066.46,-331.08 1104.74,-303.95 1141,-287.99 1151.75,-283.26 1163.89,-279.4 1175.15,-276.38"/>
<polygon fill="midnightblue" stroke="midnightblue" points="1176.36,-279.69 1185.19,-273.85 1174.64,-272.9 1176.36,-279.69"/>
</g>
<!-- Node16&#45;&gt;Node15 -->
<g id="edge20" class="edge">
<title>Node16&#45;&gt;Node15</title>
<path fill="none" stroke="midnightblue" d="M1074.84,-345.45C1096.44,-340.27 1123.71,-333.74 1148.4,-327.82"/>
<polygon fill="midnightblue" stroke="midnightblue" points="1149.53,-331.15 1158.44,-325.42 1147.9,-324.35 1149.53,-331.15"/>
</g>
<!-- Node17&#45;&gt;Node15 -->
<g id="edge22" class="edge">
<title>Node17&#45;&gt;Node15</title>
<path fill="none" stroke="midnightblue" d="M908.06,-344.56C925.61,-341.52 945.07,-338.37 963,-335.99 1025.64,-327.65 1097.43,-321.1 1148.23,-316.96"/>
<polygon fill="midnightblue" stroke="midnightblue" points="1148.74,-320.43 1158.43,-316.14 1148.18,-313.45 1148.74,-320.43"/>
</g>
<!-- Node18&#45;&gt;Node13 -->
<g id="edge27" class="edge">
<title>Node18&#45;&gt;Node13</title>
<path fill="none" stroke="midnightblue" d="M707.91,-206.42C723.96,-197.05 750.2,-183.43 775,-177.99 840.99,-163.52 860.86,-164.26 927,-177.99 940.18,-180.72 968.67,-193.23 992.79,-204.51"/>
<polygon fill="midnightblue" stroke="midnightblue" points="991.59,-207.81 1002.12,-208.92 994.57,-201.48 991.59,-207.81"/>
</g>
<!-- Node18&#45;&gt;Node17 -->
<g id="edge46" class="edge">
<title>Node18&#45;&gt;Node17</title>
<path fill="none" stroke="midnightblue" d="M703.33,-225.54C728.23,-247.52 790.1,-302.12 825.01,-332.93"/>
<polygon fill="midnightblue" stroke="midnightblue" points="823.04,-335.86 832.85,-339.85 827.67,-330.61 823.04,-335.86"/>
</g>
<!-- Node19 -->
<g id="node19" class="node">
<title>Node19</title>
<g id="a_node19"><a xlink:href="classtklb_1_1_heap_buffer.html#afcce6d234f25d074818cdd35e2d33daa" target="_top" xlink:title=" ">
<polygon fill="none" stroke="black" points="788.5,-225.49 788.5,-244.49 913.5,-244.49 913.5,-225.49 788.5,-225.49"/>
<text text-anchor="middle" x="851" y="-232.49" font-family="Helvetica,sans-Serif" font-size="10.00">tklb::HeapBuffer::data</text>
</a>
</g>
</g>
<!-- Node18&#45;&gt;Node19 -->
<g id="edge24" class="edge">
<title>Node18&#45;&gt;Node19</title>
<path fill="none" stroke="midnightblue" d="M739.33,-221.64C751.61,-223.12 765.14,-224.75 778.4,-226.35"/>
<polygon fill="midnightblue" stroke="midnightblue" points="778.12,-229.84 788.46,-227.57 778.95,-222.89 778.12,-229.84"/>
</g>
<!-- Node20 -->
<g id="node20" class="node">
<title>Node20</title>
<g id="a_node20"><a xlink:href="namespacetklb_1_1wave_1_1__.html#a505c3965a632ba8e5aa1e0f5bd5a4d97" target="_top" xlink:title=" ">
<polygon fill="none" stroke="black" points="780.5,-187.49 780.5,-206.49 921.5,-206.49 921.5,-187.49 780.5,-187.49"/>
<text text-anchor="middle" x="851" y="-194.49" font-family="Helvetica,sans-Serif" font-size="10.00">tklb::wave::_::drwaveFree</text>
</a>
</g>
</g>
<!-- Node18&#45;&gt;Node20 -->
<g id="edge25" class="edge">
<title>Node18&#45;&gt;Node20</title>
<path fill="none" stroke="midnightblue" d="M739.33,-210.34C749.09,-209.16 759.63,-207.89 770.2,-206.62"/>
<polygon fill="midnightblue" stroke="midnightblue" points="770.81,-210.07 780.32,-205.39 769.97,-203.12 770.81,-210.07"/>
</g>
<!-- Node21 -->
<g id="node21" class="node">
<title>Node21</title>
<g id="a_node21"><a xlink:href="namespacetklb_1_1wave_1_1__.html#a2785c54e80d6c817bdde01724b8c11cc" target="_top" xlink:title=" ">
<polygon fill="none" stroke="black" points="775,-111.49 775,-130.49 927,-130.49 927,-111.49 775,-111.49"/>
<text text-anchor="middle" x="851" y="-118.49" font-family="Helvetica,sans-Serif" font-size="10.00">tklb::wave::_::drwaveMalloc</text>
</a>
</g>
</g>
<!-- Node18&#45;&gt;Node21 -->
<g id="edge26" class="edge">
<title>Node18&#45;&gt;Node21</title>
<path fill="none" stroke="midnightblue" d="M701.21,-206.33C715.31,-191.22 744.66,-161.97 775,-144.99 782.8,-140.62 791.51,-136.92 800.16,-133.83"/>
<polygon fill="midnightblue" stroke="midnightblue" points="801.46,-137.08 809.84,-130.6 799.24,-130.45 801.46,-137.08"/>
</g>
<!-- Node22 -->
<g id="node22" class="node">
<title>Node22</title>
<g id="a_node22"><a xlink:href="classtklb_1_1_heap_buffer.html#ab37e6c1fc8d124b5737cfdef69b051d1" target="_top" xlink:title="Resize the buffer If the memory is borrowed it will become unique and owned by this instance as soon ...">
<polygon fill="none" stroke="black" points="785,-73.49 785,-92.49 917,-92.49 917,-73.49 785,-73.49"/>
<text text-anchor="middle" x="851" y="-80.49" font-family="Helvetica,sans-Serif" font-size="10.00">tklb::HeapBuffer::resize</text>
</a>
</g>
</g>
<!-- Node18&#45;&gt;Node22 -->
<g id="edge28" class="edge">
<title>Node18&#45;&gt;Node22</title>
<path fill="none" stroke="midnightblue" d="M696.66,-206.28C706.68,-184.11 734.37,-129.56 775,-101.99 777.92,-100.01 781.04,-98.23 784.27,-96.64"/>
<polygon fill="midnightblue" stroke="midnightblue" points="785.83,-99.78 793.65,-92.63 783.08,-93.34 785.83,-99.78"/>
</g>
<!-- Node31 -->
<g id="node31" class="node">
<title>Node31</title>
<g id="a_node31"><a xlink:href="classtklb_1_1_audio_buffer_tpl.html#aa7f380c81a409e3362ceee8a57094ee4" target="_top" xlink:title="Set multiple channels from an interleaved array.">
<polygon fill="none" stroke="black" points="975.5,-257.99 975.5,-287.99 1092.5,-287.99 1092.5,-257.99 975.5,-257.99"/>
<text text-anchor="start" x="983.5" y="-275.99" font-family="Helvetica,sans-Serif" font-size="10.00">tklb::AudioBufferTpl</text>
<text text-anchor="middle" x="1034" y="-264.99" font-family="Helvetica,sans-Serif" font-size="10.00">::setFromInterleaved</text>
</a>
</g>
</g>
<!-- Node18&#45;&gt;Node31 -->
<g id="edge41" class="edge">
<title>Node18&#45;&gt;Node31</title>
<path fill="none" stroke="midnightblue" d="M708.6,-225.52C724.78,-234.58 750.72,-247.72 775,-253.99 838.09,-270.27 912.53,-274.2 965.2,-274.55"/>
<polygon fill="midnightblue" stroke="midnightblue" points="965.42,-278.05 975.43,-274.57 965.44,-271.05 965.42,-278.05"/>
</g>
<!-- Node23 -->
<g id="node23" class="node">
<title>Node23</title>
<g id="a_node23"><a xlink:href="classtklb_1_1_heap_buffer.html#aa2212b76d383c1afe3d4da0448133299" target="_top" xlink:title="Allocated the exact size requsted and copies existing objects.">
<polygon fill="none" stroke="black" points="963,-73.49 963,-92.49 1105,-92.49 1105,-73.49 963,-73.49"/>
<text text-anchor="middle" x="1034" y="-80.49" font-family="Helvetica,sans-Serif" font-size="10.00">tklb::HeapBuffer::allocate</text>
</a>
</g>
</g>
<!-- Node22&#45;&gt;Node23 -->
<g id="edge29" class="edge">
<title>Node22&#45;&gt;Node23</title>
<path fill="none" stroke="midnightblue" d="M917.09,-82.99C928.73,-82.99 940.98,-82.99 952.98,-82.99"/>
<polygon fill="midnightblue" stroke="midnightblue" points="952.98,-86.49 962.98,-82.99 952.98,-79.49 952.98,-86.49"/>
</g>
<!-- Node29 -->
<g id="node29" class="node">
<title>Node29</title>
<g id="a_node29"><a xlink:href="classtklb_1_1_heap_buffer.html#ad513a99105213150fe287a8c209f8bc2" target="_top" xlink:title=" ">
<polygon fill="none" stroke="black" points="965.5,-111.99 965.5,-141.99 1102.5,-141.99 1102.5,-111.99 965.5,-111.99"/>
<text text-anchor="start" x="973.5" y="-129.99" font-family="Helvetica,sans-Serif" font-size="10.00">tklb::HeapBuffer::closest</text>
<text text-anchor="middle" x="1034" y="-118.99" font-family="Helvetica,sans-Serif" font-size="10.00">ChunkSize</text>
</a>
</g>
</g>
<!-- Node22&#45;&gt;Node29 -->
<g id="edge39" class="edge">
<title>Node22&#45;&gt;Node29</title>
<path fill="none" stroke="midnightblue" d="M891.27,-92.54C911.74,-97.51 937.43,-103.76 961.29,-109.56"/>
<polygon fill="midnightblue" stroke="midnightblue" points="960.48,-112.96 971.03,-111.92 962.14,-106.16 960.48,-112.96"/>
</g>
<!-- Node30 -->
<g id="node30" class="node">
<title>Node30</title>
<g id="a_node30"><a xlink:href="classtklb_1_1_heap_buffer.html#a5ec4892e352b8df099fa1c75cfbf328c" target="_top" xlink:title="Returns the amount of elements in the container.">
<polygon fill="none" stroke="black" points="973,-161.49 973,-180.49 1095,-180.49 1095,-161.49 973,-161.49"/>
<text text-anchor="middle" x="1034" y="-168.49" font-family="Helvetica,sans-Serif" font-size="10.00">tklb::HeapBuffer::size</text>
</a>
</g>
</g>
<!-- Node22&#45;&gt;Node30 -->
<g id="edge40" class="edge">
<title>Node22&#45;&gt;Node30</title>
<path fill="none" stroke="midnightblue" d="M907.94,-92.52C914.67,-94.99 921.21,-98.09 927,-101.99 949.42,-117.08 940.82,-135.56 963,-150.99 966.5,-153.42 970.3,-155.57 974.25,-157.45"/>
<polygon fill="midnightblue" stroke="midnightblue" points="973.1,-160.76 983.68,-161.38 975.8,-154.3 973.1,-160.76"/>
</g>
<!-- Node23&#45;&gt;Node9 -->
<g id="edge33" class="edge">
<title>Node23&#45;&gt;Node9</title>
<path fill="none" stroke="midnightblue" d="M1092.91,-92.53C1097.43,-95.03 1101.56,-98.14 1105,-101.99 1175.38,-180.8 1070.15,-258.6 1141,-336.99 1143.75,-340.04 1146.93,-342.62 1150.38,-344.82"/>
<polygon fill="midnightblue" stroke="midnightblue" points="1148.95,-348.02 1159.44,-349.5 1152.16,-341.8 1148.95,-348.02"/>
</g>
<!-- Node23&#45;&gt;Node11 -->
<g id="edge38" class="edge">
<title>Node23&#45;&gt;Node11</title>
<path fill="none" stroke="midnightblue" d="M1091.89,-92.51C1096.73,-95 1101.22,-98.11 1105,-101.99 1151.97,-150.14 1093.74,-201.12 1141,-248.99 1149.97,-258.07 1162.68,-263 1175.01,-265.62"/>
<polygon fill="midnightblue" stroke="midnightblue" points="1174.75,-269.13 1185.19,-267.32 1175.9,-262.22 1174.75,-269.13"/>
</g>
<!-- Node24 -->
<g id="node24" class="node">
<title>Node24</title>
<g id="a_node24"><a xlink:href="classtklb_1_1memory_1_1_memory_pool.html#a12db669f354ab3f2037a67db7f0a8229" target="_top" xlink:title=" ">
<polygon fill="none" stroke="black" points="1326,-1.99 1326,-31.99 1475,-31.99 1475,-1.99 1326,-1.99"/>
<text text-anchor="start" x="1334" y="-19.99" font-family="Helvetica,sans-Serif" font-size="10.00">tklb::memory::MemoryPool</text>
<text text-anchor="middle" x="1400.5" y="-8.99" font-family="Helvetica,sans-Serif" font-size="10.00">::allocate</text>
</a>
</g>
</g>
<!-- Node23&#45;&gt;Node24 -->
<g id="edge30" class="edge">
<title>Node23&#45;&gt;Node24</title>
<path fill="none" stroke="midnightblue" d="M1045.09,-73.46C1062.81,-57.44 1101.42,-25.73 1141,-13.99 1197.57,2.8 1264.22,1.55 1315.68,-3.63"/>
<polygon fill="midnightblue" stroke="midnightblue" points="1315.44,-7.13 1325.76,-4.72 1316.19,-0.17 1315.44,-7.13"/>
</g>
<!-- Node25 -->
<g id="node25" class="node">
<title>Node25</title>
<g id="a_node25"><a xlink:href="classtklb_1_1memory_1_1_memory_pool.html#a23f0f8e6cc9408d522b0165dd0f01ac2" target="_top" xlink:title="Allocate aligned if simd is enabled.">
<polygon fill="none" stroke="black" points="1141,-23.99 1141,-53.99 1290,-53.99 1290,-23.99 1141,-23.99"/>
<text text-anchor="start" x="1149" y="-41.99" font-family="Helvetica,sans-Serif" font-size="10.00">tklb::memory::MemoryPool</text>
<text text-anchor="middle" x="1215.5" y="-30.99" font-family="Helvetica,sans-Serif" font-size="10.00">::allocateAligned</text>
</a>
</g>
</g>
<!-- Node23&#45;&gt;Node25 -->
<g id="edge31" class="edge">
<title>Node23&#45;&gt;Node25</title>
<path fill="none" stroke="midnightblue" d="M1073.95,-73.44C1094.16,-68.49 1119.49,-62.28 1143.07,-56.5"/>
<polygon fill="midnightblue" stroke="midnightblue" points="1144.16,-59.83 1153.04,-54.05 1142.49,-53.04 1144.16,-59.83"/>
</g>
<!-- Node26 -->
<g id="node26" class="node">
<title>Node26</title>
<g id="a_node26"><a xlink:href="classtklb_1_1memory_1_1_memory_pool.html#ae2f6e404a58380b0bcf0f3de281a7546" target="_top" xlink:title=" ">
<polygon fill="none" stroke="black" points="1326,-133.99 1326,-163.99 1475,-163.99 1475,-133.99 1326,-133.99"/>
<text text-anchor="start" x="1334" y="-151.99" font-family="Helvetica,sans-Serif" font-size="10.00">tklb::memory::MemoryPool</text>
<text text-anchor="middle" x="1400.5" y="-140.99" font-family="Helvetica,sans-Serif" font-size="10.00">::deallocate</text>
</a>
</g>
</g>
<!-- Node23&#45;&gt;Node26 -->
<g id="edge34" class="edge">
<title>Node23&#45;&gt;Node26</title>
<path fill="none" stroke="midnightblue" d="M1086.13,-92.49C1092.8,-94.96 1099.29,-98.07 1105,-101.99 1127.29,-117.27 1116.89,-138.78 1141,-150.99 1199.99,-180.85 1276.7,-175.68 1331.2,-165.91"/>
<polygon fill="midnightblue" stroke="midnightblue" points="1331.93,-169.33 1341.1,-164.04 1330.63,-162.45 1331.93,-169.33"/>
</g>
<!-- Node27 -->
<g id="node27" class="node">
<title>Node27</title>
<g id="a_node27"><a xlink:href="classtklb_1_1memory_1_1_memory_pool.html#a7b2a7e96e64767e2cff9dfddb9085779" target="_top" xlink:title=" ">
<polygon fill="none" stroke="black" points="1141,-111.99 1141,-141.99 1290,-141.99 1290,-111.99 1141,-111.99"/>
<text text-anchor="start" x="1149" y="-129.99" font-family="Helvetica,sans-Serif" font-size="10.00">tklb::memory::MemoryPool</text>
<text text-anchor="middle" x="1215.5" y="-118.99" font-family="Helvetica,sans-Serif" font-size="10.00">::deallocateAligned</text>
</a>
</g>
</g>
<!-- Node23&#45;&gt;Node27 -->
<g id="edge35" class="edge">
<title>Node23&#45;&gt;Node27</title>
<path fill="none" stroke="midnightblue" d="M1073.95,-92.54C1094.16,-97.49 1119.49,-103.7 1143.07,-109.48"/>
<polygon fill="midnightblue" stroke="midnightblue" points="1142.49,-112.94 1153.04,-111.92 1144.16,-106.14 1142.49,-112.94"/>
</g>
<!-- Node28 -->
<g id="node28" class="node">
<title>Node28</title>
<g id="a_node28"><a xlink:href="classtklb_1_1_heap_buffer.html#af3331f4c39082c6bedf37b7931b1c27a" target="_top" xlink:title="Whether the memory is managed by the instance or is borrowed.">
<polygon fill="none" stroke="black" points="1144.5,-73.49 1144.5,-92.49 1286.5,-92.49 1286.5,-73.49 1144.5,-73.49"/>
<text text-anchor="middle" x="1215.5" y="-80.49" font-family="Helvetica,sans-Serif" font-size="10.00">tklb::HeapBuffer::injected</text>
</a>
</g>
</g>
<!-- Node23&#45;&gt;Node28 -->
<g id="edge37" class="edge">
<title>Node23&#45;&gt;Node28</title>
<path fill="none" stroke="midnightblue" d="M1105.17,-82.99C1114.73,-82.99 1124.6,-82.99 1134.32,-82.99"/>
<polygon fill="midnightblue" stroke="midnightblue" points="1134.38,-86.49 1144.38,-82.99 1134.38,-79.49 1134.38,-86.49"/>
</g>
<!-- Node25&#45;&gt;Node24 -->
<g id="edge32" class="edge">
<title>Node25&#45;&gt;Node24</title>
<path fill="none" stroke="midnightblue" d="M1290.14,-30.14C1298.57,-29.12 1307.2,-28.08 1315.74,-27.06"/>
<polygon fill="midnightblue" stroke="midnightblue" points="1316.2,-30.53 1325.71,-25.86 1315.36,-23.58 1316.2,-30.53"/>
</g>
<!-- Node27&#45;&gt;Node26 -->
<g id="edge36" class="edge">
<title>Node27&#45;&gt;Node26</title>
<path fill="none" stroke="midnightblue" d="M1290.14,-135.84C1298.57,-136.85 1307.2,-137.89 1315.74,-138.92"/>
<polygon fill="midnightblue" stroke="midnightblue" points="1315.36,-142.4 1325.71,-140.12 1316.2,-135.45 1315.36,-142.4"/>
</g>
<!-- Node31&#45;&gt;Node10 -->
<g id="edge43" class="edge">
<title>Node31&#45;&gt;Node10</title>
<path fill="none" stroke="midnightblue" d="M1052.67,-288.09C1067.08,-300.59 1087.78,-318.99 1105,-335.99 1121.78,-352.56 1120.76,-362.88 1141,-374.99 1144.63,-377.16 1148.5,-379.08 1152.49,-380.79"/>
<polygon fill="midnightblue" stroke="midnightblue" points="1151.4,-384.12 1162,-384.39 1153.88,-377.57 1151.4,-384.12"/>
</g>
<!-- Node31&#45;&gt;Node11 -->
<g id="edge44" class="edge">
<title>Node31&#45;&gt;Node11</title>
<path fill="none" stroke="midnightblue" d="M1092.78,-271.38C1119.74,-270.63 1151.13,-269.75 1175.28,-269.08"/>
<polygon fill="midnightblue" stroke="midnightblue" points="1175.59,-272.57 1185.49,-268.8 1175.4,-265.58 1175.59,-272.57"/>
</g>
<!-- Node31&#45;&gt;Node14 -->
<g id="edge42" class="edge">
<title>Node31&#45;&gt;Node14</title>
<path fill="none" stroke="midnightblue" d="M1090.32,-257.89C1109.09,-252.76 1130.23,-246.99 1149.67,-241.69"/>
<polygon fill="midnightblue" stroke="midnightblue" points="1150.64,-245.05 1159.36,-239.04 1148.79,-238.3 1150.64,-245.05"/>
</g>
<!-- Node31&#45;&gt;Node15 -->
<g id="edge45" class="edge">
<title>Node31&#45;&gt;Node15</title>
<path fill="none" stroke="midnightblue" d="M1092.78,-285.54C1110.51,-289.39 1130.15,-293.66 1148.39,-297.62"/>
<polygon fill="midnightblue" stroke="midnightblue" points="1147.84,-301.09 1158.36,-299.79 1149.33,-294.25 1147.84,-301.09"/>
</g>
</g>
</svg>
