<?xml version="1.0" encoding="UTF-8" standalone="no"?>
<!DOCTYPE svg PUBLIC "-//W3C//DTD SVG 1.1//EN"
 "http://www.w3.org/Graphics/SVG/1.1/DTD/svg11.dtd">
<!-- Generated by graphviz version 2.50.0 (0)
 -->
<!-- Title: tklb::AudioBufferTpl::getRaw Pages: 1 -->
<svg width="1128pt" height="126pt"
 viewBox="0.00 0.00 1128.00 126.00" xmlns="http://www.w3.org/2000/svg" xmlns:xlink="http://www.w3.org/1999/xlink">
<g id="graph0" class="graph" transform="scale(1 1) rotate(0) translate(4 122)">
<title>tklb::AudioBufferTpl::getRaw</title>
<!-- Node1 -->
<g id="node1" class="node">
<title>Node1</title>
<g id="a_node1"><a xlink:title="Fills an 2d array of size maxChannels() with pointers to each channel.">
<polygon fill="#bfbfbf" stroke="black" points="1006,-31.5 1006,-61.5 1120,-61.5 1120,-31.5 1006,-31.5"/>
<text text-anchor="start" x="1014" y="-49.5" font-family="Helvetica,sans-Serif" font-size="10.00">tklb::AudioBufferTpl</text>
<text text-anchor="middle" x="1063" y="-38.5" font-family="Helvetica,sans-Serif" font-size="10.00">::getRaw</text>
</a>
</g>
</g>
<!-- Node2 -->
<g id="node2" class="node">
<title>Node2</title>
<g id="a_node2"><a xlink:href="namespacetklb_1_1ogg.html#a61b130503ea6c0157f584d36dec61371" target="_top" xlink:title="Decode ogg/vorbis from memory or file path.">
<polygon fill="none" stroke="black" points="872,-68 872,-87 958,-87 958,-68 872,-68"/>
<text text-anchor="middle" x="915" y="-75" font-family="Helvetica,sans-Serif" font-size="10.00">tklb::ogg::load</text>
</a>
</g>
</g>
<!-- Node1&#45;&gt;Node2 -->
<g id="edge1" class="edge">
<title>Node1&#45;&gt;Node2</title>
<path fill="none" stroke="midnightblue" d="M996.15,-60.48C983.2,-63.23 969.95,-66.04 958.05,-68.57"/>
<polygon fill="midnightblue" stroke="midnightblue" points="996.92,-63.9 1005.97,-58.4 995.46,-57.05 996.92,-63.9"/>
</g>
<!-- Node10 -->
<g id="node10" class="node">
<title>Node10</title>
<g id="a_node10"><a xlink:href="classtklb_1_1_oversampler.html#a938eddcfffbe34cbb91eca96c35693b4" target="_top" xlink:title=" ">
<polygon fill="none" stroke="black" points="860,-0.5 860,-30.5 970,-30.5 970,-0.5 860,-0.5"/>
<text text-anchor="start" x="868" y="-18.5" font-family="Helvetica,sans-Serif" font-size="10.00">tklb::Oversampler::</text>
<text text-anchor="middle" x="915" y="-7.5" font-family="Helvetica,sans-Serif" font-size="10.00">process</text>
</a>
</g>
</g>
<!-- Node1&#45;&gt;Node10 -->
<g id="edge10" class="edge">
<title>Node1&#45;&gt;Node10</title>
<path fill="none" stroke="midnightblue" d="M995.95,-32.47C987.33,-30.65 978.59,-28.79 970.2,-27.01"/>
<polygon fill="midnightblue" stroke="midnightblue" points="995.46,-35.95 1005.97,-34.6 996.92,-29.1 995.46,-35.95"/>
</g>
<!-- Node3 -->
<g id="node3" class="node">
<title>Node3</title>
<g id="a_node3"><a xlink:href="structvae_1_1core_1_1_source_loader.html#a2341f89c2b79148066369e8d50d98597" target="_top" xlink:title="Loads a wav file for the resource.">
<polygon fill="none" stroke="black" points="690,-62.5 690,-92.5 824,-92.5 824,-62.5 690,-62.5"/>
<text text-anchor="start" x="698" y="-80.5" font-family="Helvetica,sans-Serif" font-size="10.00">vae::core::SourceLoader</text>
<text text-anchor="middle" x="757" y="-69.5" font-family="Helvetica,sans-Serif" font-size="10.00">::load</text>
</a>
</g>
</g>
<!-- Node2&#45;&gt;Node3 -->
<g id="edge2" class="edge">
<title>Node2&#45;&gt;Node3</title>
<path fill="none" stroke="midnightblue" d="M861.49,-77.5C849.47,-77.5 836.54,-77.5 824.03,-77.5"/>
<polygon fill="midnightblue" stroke="midnightblue" points="861.78,-81 871.78,-77.5 861.78,-74 861.78,-81"/>
</g>
<!-- Node4 -->
<g id="node4" class="node">
<title>Node4</title>
<g id="a_node4"><a xlink:href="classvae_1_1core_1_1_bank_loader.html#a0c168e922d02dbe23ec42ebfde4d97a2" target="_top" xlink:title="Load a bank.json and all wav files referenced in it.">
<polygon fill="none" stroke="black" points="529,-62.5 529,-92.5 654,-92.5 654,-62.5 529,-62.5"/>
<text text-anchor="start" x="537" y="-80.5" font-family="Helvetica,sans-Serif" font-size="10.00">vae::core::BankLoader</text>
<text text-anchor="middle" x="591.5" y="-69.5" font-family="Helvetica,sans-Serif" font-size="10.00">::load</text>
</a>
</g>
</g>
<!-- Node3&#45;&gt;Node4 -->
<g id="edge3" class="edge">
<title>Node3&#45;&gt;Node4</title>
<path fill="none" stroke="midnightblue" d="M679.86,-77.5C671.2,-77.5 662.46,-77.5 654.02,-77.5"/>
<polygon fill="midnightblue" stroke="midnightblue" points="679.97,-81 689.97,-77.5 679.97,-74 679.97,-81"/>
</g>
<!-- Node5 -->
<g id="node5" class="node">
<title>Node5</title>
<g id="a_node5"><a xlink:href="classvae_1_1core_1_1_bank_manager.html#ab06ae4e1f8106811c8149dd73bef6bd0" target="_top" xlink:title=" ">
<polygon fill="none" stroke="black" points="359,-62.5 359,-92.5 493,-92.5 493,-62.5 359,-62.5"/>
<text text-anchor="start" x="367" y="-80.5" font-family="Helvetica,sans-Serif" font-size="10.00">vae::core::BankManager</text>
<text text-anchor="middle" x="426" y="-69.5" font-family="Helvetica,sans-Serif" font-size="10.00">::load</text>
</a>
</g>
</g>
<!-- Node4&#45;&gt;Node5 -->
<g id="edge4" class="edge">
<title>Node4&#45;&gt;Node5</title>
<path fill="none" stroke="midnightblue" d="M518.53,-77.5C510.13,-77.5 501.59,-77.5 493.27,-77.5"/>
<polygon fill="midnightblue" stroke="midnightblue" points="518.69,-81 528.69,-77.5 518.69,-74 518.69,-81"/>
</g>
<!-- Node5&#45;&gt;Node5 -->
<g id="edge6" class="edge">
<title>Node5&#45;&gt;Node5</title>
<path fill="none" stroke="midnightblue" d="M455.14,-102.96C451.52,-107.68 441.81,-111 426,-111 400.05,-111 390.53,-102.06 397.42,-92.66"/>
<polygon fill="midnightblue" stroke="midnightblue" points="458.62,-102.45 454.58,-92.66 451.63,-102.83 458.62,-102.45"/>
</g>
<!-- Node6 -->
<g id="node6" class="node">
<title>Node6</title>
<g id="a_node6"><a xlink:href="classvae_1_1core_1_1_bank_manager.html#ae04256d1f2f2df47d3239993c9bbf12c" target="_top" xlink:title="Will reload all the banks.">
<polygon fill="none" stroke="black" points="189,-87.5 189,-117.5 323,-117.5 323,-87.5 189,-87.5"/>
<text text-anchor="start" x="197" y="-105.5" font-family="Helvetica,sans-Serif" font-size="10.00">vae::core::BankManager</text>
<text text-anchor="middle" x="256" y="-94.5" font-family="Helvetica,sans-Serif" font-size="10.00">::init</text>
</a>
</g>
</g>
<!-- Node5&#45;&gt;Node6 -->
<g id="edge5" class="edge">
<title>Node5&#45;&gt;Node6</title>
<path fill="none" stroke="midnightblue" d="M348.68,-88.86C340.17,-90.12 331.56,-91.4 323.19,-92.65"/>
<polygon fill="midnightblue" stroke="midnightblue" points="349.23,-92.31 358.6,-87.38 348.2,-85.39 349.23,-92.31"/>
</g>
<!-- Node7 -->
<g id="node7" class="node">
<title>Node7</title>
<g id="a_node7"><a xlink:href="classvae_1_1core_1_1_engine.html#a4af5733f9975fe1c746e75958bc39d23" target="_top" xlink:title="Load bank from filesystem.">
<polygon fill="none" stroke="black" points="202.5,-38.5 202.5,-68.5 309.5,-68.5 309.5,-38.5 202.5,-38.5"/>
<text text-anchor="start" x="210.5" y="-56.5" font-family="Helvetica,sans-Serif" font-size="10.00">vae::core::Engine::</text>
<text text-anchor="middle" x="256" y="-45.5" font-family="Helvetica,sans-Serif" font-size="10.00">loadBank</text>
</a>
</g>
</g>
<!-- Node5&#45;&gt;Node7 -->
<g id="edge7" class="edge">
<title>Node5&#45;&gt;Node7</title>
<path fill="none" stroke="midnightblue" d="M348.62,-66.59C335.47,-64.71 322.07,-62.8 309.72,-61.03"/>
<polygon fill="midnightblue" stroke="midnightblue" points="348.21,-70.07 358.6,-68.01 349.2,-63.14 348.21,-70.07"/>
</g>
<!-- Node8 -->
<g id="node8" class="node">
<title>Node8</title>
<g id="a_node8"><a xlink:href="classvae_1_1_engine_pimpl.html#adec77e6ef0f00d52c634611cb6822443" target="_top" xlink:title="Load bank from filesystem.">
<polygon fill="none" stroke="black" points="0,-63 0,-82 153,-82 153,-63 0,-63"/>
<text text-anchor="middle" x="76.5" y="-70" font-family="Helvetica,sans-Serif" font-size="10.00">vae::EnginePimpl::loadBank</text>
</a>
</g>
</g>
<!-- Node7&#45;&gt;Node8 -->
<g id="edge8" class="edge">
<title>Node7&#45;&gt;Node8</title>
<path fill="none" stroke="midnightblue" d="M192.25,-60.22C179.57,-61.57 166.12,-63.01 153.06,-64.41"/>
<polygon fill="midnightblue" stroke="midnightblue" points="192.65,-63.69 202.22,-59.15 191.91,-56.73 192.65,-63.69"/>
</g>
<!-- Node9 -->
<g id="node9" class="node">
<title>Node9</title>
<g id="a_node9"><a xlink:href="main_8cpp.html#ae66f6b31b5ad750f1fe042a706a4e3d4" target="_top" xlink:title=" ">
<polygon fill="none" stroke="black" points="56,-25 56,-44 97,-44 97,-25 56,-25"/>
<text text-anchor="middle" x="76.5" y="-32" font-family="Helvetica,sans-Serif" font-size="10.00">main</text>
</a>
</g>
</g>
<!-- Node7&#45;&gt;Node9 -->
<g id="edge9" class="edge">
<title>Node7&#45;&gt;Node9</title>
<path fill="none" stroke="midnightblue" d="M192.06,-46.76C158.69,-43.19 119.98,-39.05 97.18,-36.61"/>
<polygon fill="midnightblue" stroke="midnightblue" points="191.91,-50.27 202.22,-47.85 192.65,-43.31 191.91,-50.27"/>
</g>
<!-- Node10&#45;&gt;Node10 -->
<g id="edge11" class="edge">
<title>Node10&#45;&gt;Node10</title>
<path fill="none" stroke="midnightblue" d="M941.3,-40.96C938.03,-45.68 929.27,-49 915,-49 891.59,-49 882.99,-40.06 889.21,-30.66"/>
<polygon fill="midnightblue" stroke="midnightblue" points="944.78,-40.48 940.79,-30.66 937.79,-40.82 944.78,-40.48"/>
</g>
</g>
</svg>
