<?xml version="1.0" encoding="UTF-8" standalone="no"?>
<!DOCTYPE svg PUBLIC "-//W3C//DTD SVG 1.1//EN"
 "http://www.w3.org/Graphics/SVG/1.1/DTD/svg11.dtd">
<!-- Generated by graphviz version 2.50.0 (0)
 -->
<!-- Title: vae::core::Engine::loadBank Pages: 1 -->
<svg width="905pt" height="480pt"
 viewBox="0.00 0.00 905.00 480.00" xmlns="http://www.w3.org/2000/svg" xmlns:xlink="http://www.w3.org/1999/xlink">
<g id="graph0" class="graph" transform="scale(1 1) rotate(0) translate(4 476)">
<title>vae::core::Engine::loadBank</title>
<!-- Node1 -->
<g id="node1" class="node">
<title>Node1</title>
<g id="a_node1"><a xlink:title="Load bank from memory.">
<polygon fill="#bfbfbf" stroke="black" points="0,-191.5 0,-221.5 107,-221.5 107,-191.5 0,-191.5"/>
<text text-anchor="start" x="8" y="-209.5" font-family="Helvetica,sans-Serif" font-size="10.00">vae::core::Engine::</text>
<text text-anchor="middle" x="53.5" y="-198.5" font-family="Helvetica,sans-Serif" font-size="10.00">loadBank</text>
</a>
</g>
</g>
<!-- Node2 -->
<g id="node2" class="node">
<title>Node2</title>
<g id="a_node2"><a xlink:href="classvae_1_1core_1_1_bank_manager.html#a246219d73b46775ec119e704c758dd0b" target="_top" xlink:title=" ">
<polygon fill="none" stroke="black" points="143,-191.5 143,-221.5 277,-221.5 277,-191.5 143,-191.5"/>
<text text-anchor="start" x="151" y="-209.5" font-family="Helvetica,sans-Serif" font-size="10.00">vae::core::BankManager</text>
<text text-anchor="middle" x="210" y="-198.5" font-family="Helvetica,sans-Serif" font-size="10.00">::load</text>
</a>
</g>
</g>
<!-- Node1&#45;&gt;Node2 -->
<g id="edge1" class="edge">
<title>Node1&#45;&gt;Node2</title>
<path fill="none" stroke="midnightblue" d="M107.24,-206.5C115.47,-206.5 124.11,-206.5 132.74,-206.5"/>
<polygon fill="midnightblue" stroke="midnightblue" points="132.84,-210 142.84,-206.5 132.84,-203 132.84,-210"/>
</g>
<!-- Node2&#45;&gt;Node2 -->
<g id="edge28" class="edge">
<title>Node2&#45;&gt;Node2</title>
<path fill="none" stroke="midnightblue" d="M182.81,-221.66C176.26,-231.06 185.32,-240 210,-240 225.04,-240 234.28,-236.68 237.72,-231.96"/>
<polygon fill="midnightblue" stroke="midnightblue" points="241.2,-231.46 237.19,-221.66 234.21,-231.83 241.2,-231.46"/>
</g>
<!-- Node3 -->
<g id="node3" class="node">
<title>Node3</title>
<g id="a_node3"><a xlink:href="classvae_1_1core_1_1_bank_loader.html#a2a1f294f67b451b337f65b033dd6f0bd" target="_top" xlink:title="Load a bank.json and all wav files referenced in it.">
<polygon fill="none" stroke="black" points="313,-191.5 313,-221.5 438,-221.5 438,-191.5 313,-191.5"/>
<text text-anchor="start" x="321" y="-209.5" font-family="Helvetica,sans-Serif" font-size="10.00">vae::core::BankLoader</text>
<text text-anchor="middle" x="375.5" y="-198.5" font-family="Helvetica,sans-Serif" font-size="10.00">::load</text>
</a>
</g>
</g>
<!-- Node2&#45;&gt;Node3 -->
<g id="edge2" class="edge">
<title>Node2&#45;&gt;Node3</title>
<path fill="none" stroke="midnightblue" d="M277.03,-206.5C285.57,-206.5 294.34,-206.5 302.96,-206.5"/>
<polygon fill="midnightblue" stroke="midnightblue" points="302.98,-210 312.98,-206.5 302.98,-203 302.98,-210"/>
</g>
<!-- Node4 -->
<g id="node4" class="node">
<title>Node4</title>
<g id="a_node4"><a xlink:href="classvae_1_1core_1_1_bank_loader.html#aa6ba40f8098e00d26c335490092fa10a" target="_top" xlink:title=" ">
<polygon fill="none" stroke="black" points="478.5,-441.5 478.5,-471.5 603.5,-471.5 603.5,-441.5 478.5,-441.5"/>
<text text-anchor="start" x="486.5" y="-459.5" font-family="Helvetica,sans-Serif" font-size="10.00">vae::core::BankLoader</text>
<text text-anchor="middle" x="541" y="-448.5" font-family="Helvetica,sans-Serif" font-size="10.00">::allocate</text>
</a>
</g>
</g>
<!-- Node3&#45;&gt;Node4 -->
<g id="edge3" class="edge">
<title>Node3&#45;&gt;Node4</title>
<path fill="none" stroke="midnightblue" d="M379.33,-221.69C387.34,-260.67 413.58,-365.51 474,-426.5 477.62,-430.15 481.76,-433.4 486.17,-436.28"/>
<polygon fill="midnightblue" stroke="midnightblue" points="484.5,-439.36 494.9,-441.39 488.03,-433.32 484.5,-439.36"/>
</g>
<!-- Node7 -->
<g id="node7" class="node">
<title>Node7</title>
<g id="a_node7"><a xlink:href="classtklb_1_1_string.html#a94e674695ef958e3a4d7778c7235856b" target="_top" xlink:title=" ">
<polygon fill="none" stroke="black" points="646.5,-327 646.5,-346 758.5,-346 758.5,-327 646.5,-327"/>
<text text-anchor="middle" x="702.5" y="-334" font-family="Helvetica,sans-Serif" font-size="10.00">tklb::String::append</text>
</a>
</g>
</g>
<!-- Node3&#45;&gt;Node7 -->
<g id="edge6" class="edge">
<title>Node3&#45;&gt;Node7</title>
<path fill="none" stroke="midnightblue" d="M406.93,-221.69C426.01,-231.01 451.22,-242.94 474,-252.5 539.69,-280.06 617.93,-307.89 663.43,-323.58"/>
<polygon fill="midnightblue" stroke="midnightblue" points="662.58,-326.99 673.17,-326.93 664.85,-320.37 662.58,-326.99"/>
</g>
<!-- Node8 -->
<g id="node8" class="node">
<title>Node8</title>
<g id="a_node8"><a xlink:href="classtklb_1_1_string.html#a2fd6f1c6342e803119507c94cd3c6b76" target="_top" xlink:title=" ">
<polygon fill="none" stroke="black" points="799.5,-327 799.5,-346 894.5,-346 894.5,-327 799.5,-327"/>
<text text-anchor="middle" x="847" y="-334" font-family="Helvetica,sans-Serif" font-size="10.00">tklb::String::size</text>
</a>
</g>
</g>
<!-- Node3&#45;&gt;Node8 -->
<g id="edge27" class="edge">
<title>Node3&#45;&gt;Node8</title>
<path fill="none" stroke="midnightblue" d="M379.03,-221.72C386.14,-259.02 410.13,-354.77 474,-393.5 588.25,-462.78 757.35,-385 820.77,-350.9"/>
<polygon fill="midnightblue" stroke="midnightblue" points="822.59,-353.9 829.67,-346.02 819.22,-347.76 822.59,-353.9"/>
</g>
<!-- Node9 -->
<g id="node9" class="node">
<title>Node9</title>
<g id="a_node9"><a xlink:href="classtklb_1_1_string.html#a2551f7f99fab1486f3d13b3a363824c5" target="_top" xlink:title=" ">
<polygon fill="none" stroke="black" points="653,-175 653,-194 752,-194 752,-175 653,-175"/>
<text text-anchor="middle" x="702.5" y="-182" font-family="Helvetica,sans-Serif" font-size="10.00">tklb::String::c_str</text>
</a>
</g>
</g>
<!-- Node3&#45;&gt;Node9 -->
<g id="edge8" class="edge">
<title>Node3&#45;&gt;Node9</title>
<path fill="none" stroke="midnightblue" d="M438.01,-202.34C496.86,-198.35 584.99,-192.39 642.86,-188.47"/>
<polygon fill="midnightblue" stroke="midnightblue" points="643.21,-191.95 652.95,-187.79 642.74,-184.97 643.21,-191.95"/>
</g>
<!-- Node10 -->
<g id="node10" class="node">
<title>Node10</title>
<g id="a_node10"><a xlink:href="classtklb_1_1_string.html#af160751fb9fbb7cba71b281db77ce9e5" target="_top" xlink:title=" ">
<polygon fill="none" stroke="black" points="653.5,-137 653.5,-156 751.5,-156 751.5,-137 653.5,-137"/>
<text text-anchor="middle" x="702.5" y="-144" font-family="Helvetica,sans-Serif" font-size="10.00">tklb::String::data</text>
</a>
</g>
</g>
<!-- Node3&#45;&gt;Node10 -->
<g id="edge9" class="edge">
<title>Node3&#45;&gt;Node10</title>
<path fill="none" stroke="midnightblue" d="M438.11,-194.36C450.01,-192.05 462.39,-189.68 474,-187.5 531.39,-176.74 597.03,-164.96 643.01,-156.81"/>
<polygon fill="midnightblue" stroke="midnightblue" points="643.85,-160.21 653.09,-155.02 642.63,-153.32 643.85,-160.21"/>
</g>
<!-- Node11 -->
<g id="node11" class="node">
<title>Node11</title>
<g id="a_node11"><a xlink:href="classvae_1_1core_1_1_bank_loader.html#ac042f4214d94fbf928eb6c34689b7549" target="_top" xlink:title=" ">
<polygon fill="none" stroke="black" points="478.5,-3.5 478.5,-33.5 603.5,-33.5 603.5,-3.5 478.5,-3.5"/>
<text text-anchor="start" x="486.5" y="-21.5" font-family="Helvetica,sans-Serif" font-size="10.00">vae::core::BankLoader</text>
<text text-anchor="middle" x="541" y="-10.5" font-family="Helvetica,sans-Serif" font-size="10.00">::deallocate</text>
</a>
</g>
</g>
<!-- Node3&#45;&gt;Node11 -->
<g id="edge10" class="edge">
<title>Node3&#45;&gt;Node11</title>
<path fill="none" stroke="midnightblue" d="M382.99,-191.22C396.26,-161.44 429.1,-94.95 474,-53.5 480.03,-47.93 487.11,-42.98 494.36,-38.68"/>
<polygon fill="midnightblue" stroke="midnightblue" points="496.51,-41.49 503.55,-33.58 493.11,-35.36 496.51,-41.49"/>
</g>
<!-- Node13 -->
<g id="node13" class="node">
<title>Node13</title>
<g id="a_node13"><a xlink:href="structvae_1_1core_1_1_source_loader.html#a7b5866ab44cf2f34a15f3a62b40fe4f4" target="_top" xlink:title="Loads a wav file for the resource.">
<polygon fill="none" stroke="black" points="474,-213.5 474,-243.5 608,-243.5 608,-213.5 474,-213.5"/>
<text text-anchor="start" x="482" y="-231.5" font-family="Helvetica,sans-Serif" font-size="10.00">vae::core::SourceLoader</text>
<text text-anchor="middle" x="541" y="-220.5" font-family="Helvetica,sans-Serif" font-size="10.00">::load</text>
</a>
</g>
</g>
<!-- Node3&#45;&gt;Node13 -->
<g id="edge12" class="edge">
<title>Node3&#45;&gt;Node13</title>
<path fill="none" stroke="midnightblue" d="M438.31,-214.82C446.63,-215.94 455.24,-217.1 463.78,-218.24"/>
<polygon fill="midnightblue" stroke="midnightblue" points="463.36,-221.72 473.73,-219.58 464.29,-214.78 463.36,-221.72"/>
</g>
<!-- Node14 -->
<g id="node14" class="node">
<title>Node14</title>
<g id="a_node14"><a xlink:href="classvae_1_1core_1_1fs_1_1_file.html#a9b11ebabdce39848566a1bf4b225d7c2" target="_top" xlink:title=" ">
<polygon fill="none" stroke="black" points="652.5,-49.5 652.5,-79.5 752.5,-79.5 752.5,-49.5 652.5,-49.5"/>
<text text-anchor="start" x="660.5" y="-67.5" font-family="Helvetica,sans-Serif" font-size="10.00">vae::core::fs::File</text>
<text text-anchor="middle" x="702.5" y="-56.5" font-family="Helvetica,sans-Serif" font-size="10.00">::readAll</text>
</a>
</g>
</g>
<!-- Node3&#45;&gt;Node14 -->
<g id="edge23" class="edge">
<title>Node3&#45;&gt;Node14</title>
<path fill="none" stroke="midnightblue" d="M384.67,-191.45C399.08,-166.56 431.53,-117.31 474,-94.5 525.99,-66.58 593.99,-60.93 642.06,-61.12"/>
<polygon fill="midnightblue" stroke="midnightblue" points="642.26,-64.62 652.3,-61.25 642.35,-57.62 642.26,-64.62"/>
</g>
<!-- Node15 -->
<g id="node15" class="node">
<title>Node15</title>
<g id="a_node15"><a xlink:href="classvae_1_1core_1_1fs_1_1_file.html#a01e51acff408d0449c1b524c40596470" target="_top" xlink:title=" ">
<polygon fill="none" stroke="black" points="797,-93.5 797,-123.5 897,-123.5 897,-93.5 797,-93.5"/>
<text text-anchor="start" x="805" y="-111.5" font-family="Helvetica,sans-Serif" font-size="10.00">vae::core::fs::File</text>
<text text-anchor="middle" x="847" y="-100.5" font-family="Helvetica,sans-Serif" font-size="10.00">::size</text>
</a>
</g>
</g>
<!-- Node3&#45;&gt;Node15 -->
<g id="edge26" class="edge">
<title>Node3&#45;&gt;Node15</title>
<path fill="none" stroke="midnightblue" d="M403.9,-191.31C423.04,-181.27 449.45,-168.53 474,-160.5 580.69,-125.58 712.12,-114.11 786.76,-110.34"/>
<polygon fill="midnightblue" stroke="midnightblue" points="787.08,-113.83 796.91,-109.86 786.75,-106.84 787.08,-113.83"/>
</g>
<!-- Node18 -->
<g id="node18" class="node">
<title>Node18</title>
<g id="a_node18"><a xlink:href="classtklb_1_1_string.html#a6106e1733cc6c09b98bd203f8a9a2653" target="_top" xlink:title=" ">
<polygon fill="none" stroke="black" points="488.5,-365 488.5,-384 593.5,-384 593.5,-365 488.5,-365"/>
<text text-anchor="middle" x="541" y="-372" font-family="Helvetica,sans-Serif" font-size="10.00">tklb::String::resize</text>
</a>
</g>
</g>
<!-- Node3&#45;&gt;Node18 -->
<g id="edge24" class="edge">
<title>Node3&#45;&gt;Node18</title>
<path fill="none" stroke="midnightblue" d="M388.45,-221.63C406.19,-243.77 440.98,-285.9 474,-318.5 488.39,-332.7 505.88,-347.44 519.24,-358.23"/>
<polygon fill="midnightblue" stroke="midnightblue" points="517.35,-361.21 527.35,-364.71 521.72,-355.74 517.35,-361.21"/>
</g>
<!-- Node5 -->
<g id="node5" class="node">
<title>Node5</title>
<g id="a_node5"><a xlink:href="structvae_1_1core_1_1memory_1_1_allocator.html#ab9d50dc662897c7fe691368feffa2f98" target="_top" xlink:title=" ">
<polygon fill="none" stroke="black" points="645,-441.5 645,-471.5 760,-471.5 760,-441.5 645,-441.5"/>
<text text-anchor="start" x="653" y="-459.5" font-family="Helvetica,sans-Serif" font-size="10.00">vae::core::memory::</text>
<text text-anchor="middle" x="702.5" y="-448.5" font-family="Helvetica,sans-Serif" font-size="10.00">Allocator::allocate</text>
</a>
</g>
</g>
<!-- Node4&#45;&gt;Node5 -->
<g id="edge4" class="edge">
<title>Node4&#45;&gt;Node5</title>
<path fill="none" stroke="midnightblue" d="M603.67,-456.5C613.86,-456.5 624.46,-456.5 634.77,-456.5"/>
<polygon fill="midnightblue" stroke="midnightblue" points="634.95,-460 644.95,-456.5 634.95,-453 634.95,-460"/>
</g>
<!-- Node6 -->
<g id="node6" class="node">
<title>Node6</title>
<g id="a_node6"><a xlink:href="namespacetklb.html#a7dc2203e89c331e3c85b9e7f16fa6763" target="_top" xlink:title=" ">
<polygon fill="none" stroke="black" points="815.5,-447 815.5,-466 878.5,-466 878.5,-447 815.5,-447"/>
<text text-anchor="middle" x="847" y="-454" font-family="Helvetica,sans-Serif" font-size="10.00">tklb::max</text>
</a>
</g>
</g>
<!-- Node5&#45;&gt;Node6 -->
<g id="edge5" class="edge">
<title>Node5&#45;&gt;Node6</title>
<path fill="none" stroke="midnightblue" d="M760.23,-456.5C775.2,-456.5 791.06,-456.5 805.01,-456.5"/>
<polygon fill="midnightblue" stroke="midnightblue" points="805.27,-460 815.27,-456.5 805.27,-453 805.27,-460"/>
</g>
<!-- Node7&#45;&gt;Node8 -->
<g id="edge7" class="edge">
<title>Node7&#45;&gt;Node8</title>
<path fill="none" stroke="midnightblue" d="M758.59,-336.5C768.59,-336.5 779.04,-336.5 789.09,-336.5"/>
<polygon fill="midnightblue" stroke="midnightblue" points="789.38,-340 799.38,-336.5 789.38,-333 789.38,-340"/>
</g>
<!-- Node12 -->
<g id="node12" class="node">
<title>Node12</title>
<g id="a_node12"><a xlink:href="structvae_1_1core_1_1memory_1_1_allocator.html#ad43fb821d811e939ff461747efcaca6e" target="_top" xlink:title=" ">
<polygon fill="none" stroke="black" points="644,-0.5 644,-30.5 761,-30.5 761,-0.5 644,-0.5"/>
<text text-anchor="start" x="652" y="-18.5" font-family="Helvetica,sans-Serif" font-size="10.00">vae::core::memory::</text>
<text text-anchor="middle" x="702.5" y="-7.5" font-family="Helvetica,sans-Serif" font-size="10.00">Allocator::deallocate</text>
</a>
</g>
</g>
<!-- Node11&#45;&gt;Node12 -->
<g id="edge11" class="edge">
<title>Node11&#45;&gt;Node12</title>
<path fill="none" stroke="midnightblue" d="M603.67,-17.34C613.49,-17.16 623.7,-16.96 633.66,-16.78"/>
<polygon fill="midnightblue" stroke="midnightblue" points="633.99,-20.27 643.92,-16.58 633.85,-13.27 633.99,-20.27"/>
</g>
<!-- Node13&#45;&gt;Node7 -->
<g id="edge13" class="edge">
<title>Node13&#45;&gt;Node7</title>
<path fill="none" stroke="midnightblue" d="M557.49,-243.76C576.58,-261.94 610.59,-292.38 644,-312.5 650.43,-316.38 657.61,-319.91 664.65,-323.01"/>
<polygon fill="midnightblue" stroke="midnightblue" points="663.5,-326.33 674.08,-326.96 666.21,-319.87 663.5,-326.33"/>
</g>
<!-- Node13&#45;&gt;Node8 -->
<g id="edge22" class="edge">
<title>Node13&#45;&gt;Node8</title>
<path fill="none" stroke="midnightblue" d="M568.64,-243.56C588.86,-254.56 617.6,-269.28 644,-279.5 693.6,-298.7 752.31,-314.54 793.61,-324.6"/>
<polygon fill="midnightblue" stroke="midnightblue" points="792.92,-328.04 803.46,-326.97 794.56,-321.23 792.92,-328.04"/>
</g>
<!-- Node13&#45;&gt;Node9 -->
<g id="edge14" class="edge">
<title>Node13&#45;&gt;Node9</title>
<path fill="none" stroke="midnightblue" d="M596.44,-213.48C616.18,-208.04 638.22,-201.96 657,-196.78"/>
<polygon fill="midnightblue" stroke="midnightblue" points="658.07,-200.11 666.78,-194.08 656.21,-193.36 658.07,-200.11"/>
</g>
<!-- Node13&#45;&gt;Node10 -->
<g id="edge15" class="edge">
<title>Node13&#45;&gt;Node10</title>
<path fill="none" stroke="midnightblue" d="M563.06,-213.45C583.13,-199.61 614.57,-179.22 644,-165.5 648.65,-163.33 653.61,-161.3 658.6,-159.44"/>
<polygon fill="midnightblue" stroke="midnightblue" points="659.89,-162.69 668.15,-156.05 657.55,-156.09 659.89,-162.69"/>
</g>
<!-- Node13&#45;&gt;Node14 -->
<g id="edge16" class="edge">
<title>Node13&#45;&gt;Node14</title>
<path fill="none" stroke="midnightblue" d="M556.72,-213.37C584.85,-184.44 646.38,-121.17 679.44,-87.18"/>
<polygon fill="midnightblue" stroke="midnightblue" points="682.35,-89.21 686.82,-79.6 677.33,-84.33 682.35,-89.21"/>
</g>
<!-- Node13&#45;&gt;Node15 -->
<g id="edge21" class="edge">
<title>Node13&#45;&gt;Node15</title>
<path fill="none" stroke="midnightblue" d="M608.3,-232.92C653.68,-233.17 713.92,-227.85 761,-203.5 792.1,-187.42 817.22,-154.93 831.88,-132.46"/>
<polygon fill="midnightblue" stroke="midnightblue" points="834.96,-134.14 837.33,-123.81 829.04,-130.4 834.96,-134.14"/>
</g>
<!-- Node17 -->
<g id="node17" class="node">
<title>Node17</title>
<g id="a_node17"><a xlink:href="classtklb_1_1_string.html#a13d38526ab9032342f2d3ced3e6062a9" target="_top" xlink:title=" ">
<polygon fill="none" stroke="black" points="646,-251 646,-270 759,-270 759,-251 646,-251"/>
<text text-anchor="middle" x="702.5" y="-258" font-family="Helvetica,sans-Serif" font-size="10.00">tklb::String::reserve</text>
</a>
</g>
</g>
<!-- Node13&#45;&gt;Node17 -->
<g id="edge19" class="edge">
<title>Node13&#45;&gt;Node17</title>
<path fill="none" stroke="midnightblue" d="M608.26,-241.79C620.04,-244.16 632.23,-246.6 643.75,-248.91"/>
<polygon fill="midnightblue" stroke="midnightblue" points="643.19,-252.37 653.68,-250.91 644.56,-245.51 643.19,-252.37"/>
</g>
<!-- Node14&#45;&gt;Node15 -->
<g id="edge17" class="edge">
<title>Node14&#45;&gt;Node15</title>
<path fill="none" stroke="midnightblue" d="M752.14,-79.52C763.48,-83.02 775.67,-86.78 787.39,-90.4"/>
<polygon fill="midnightblue" stroke="midnightblue" points="786.51,-93.79 797.09,-93.4 788.57,-87.1 786.51,-93.79"/>
</g>
<!-- Node16 -->
<g id="node16" class="node">
<title>Node16</title>
<g id="a_node16"><a xlink:href="vae__fs_8hpp.html#a82978d110bb709013681115bb44e48ae" target="_top" xlink:title=" ">
<polygon fill="none" stroke="black" points="805.5,-55 805.5,-74 888.5,-74 888.5,-55 805.5,-55"/>
<text text-anchor="middle" x="847" y="-62" font-family="Helvetica,sans-Serif" font-size="10.00">vae_file_read</text>
</a>
</g>
</g>
<!-- Node14&#45;&gt;Node16 -->
<g id="edge18" class="edge">
<title>Node14&#45;&gt;Node16</title>
<path fill="none" stroke="midnightblue" d="M752.54,-64.5C766.27,-64.5 781.22,-64.5 795.06,-64.5"/>
<polygon fill="midnightblue" stroke="midnightblue" points="795.38,-68 805.38,-64.5 795.38,-61 795.38,-68"/>
</g>
<!-- Node17&#45;&gt;Node8 -->
<g id="edge20" class="edge">
<title>Node17&#45;&gt;Node8</title>
<path fill="none" stroke="midnightblue" d="M728.79,-270.08C738.96,-274.18 750.69,-279.24 761,-284.5 782.84,-295.65 806.55,-310.4 823.37,-321.34"/>
<polygon fill="midnightblue" stroke="midnightblue" points="821.67,-324.41 831.95,-326.98 825.51,-318.56 821.67,-324.41"/>
</g>
<!-- Node18&#45;&gt;Node8 -->
<g id="edge25" class="edge">
<title>Node18&#45;&gt;Node8</title>
<path fill="none" stroke="midnightblue" d="M593.56,-371.97C638.09,-369.33 704.05,-364.3 761,-355.5 773.26,-353.61 786.39,-350.98 798.57,-348.27"/>
<polygon fill="midnightblue" stroke="midnightblue" points="799.57,-351.64 808.55,-346 798.02,-344.81 799.57,-351.64"/>
</g>
</g>
</svg>
