<?xml version="1.0" encoding="UTF-8" standalone="no"?>
<!DOCTYPE svg PUBLIC "-//W3C//DTD SVG 1.1//EN"
 "http://www.w3.org/Graphics/SVG/1.1/DTD/svg11.dtd">
<!-- Generated by graphviz version 2.50.0 (0)
 -->
<!-- Title: tklb::memory::MemoryPool::deallocateAligned Pages: 1 -->
<svg width="1565pt" height="368pt"
 viewBox="0.00 0.00 1565.00 367.50" xmlns="http://www.w3.org/2000/svg" xmlns:xlink="http://www.w3.org/1999/xlink">
<g id="graph0" class="graph" transform="scale(1 1) rotate(0) translate(4 363.5)">
<title>tklb::memory::MemoryPool::deallocateAligned</title>
<!-- Node1 -->
<g id="node1" class="node">
<title>Node1</title>
<g id="a_node1"><a xlink:title=" ">
<polygon fill="#bfbfbf" stroke="black" points="1408,-252.5 1408,-282.5 1557,-282.5 1557,-252.5 1408,-252.5"/>
<text text-anchor="start" x="1416" y="-270.5" font-family="Helvetica,sans-Serif" font-size="10.00">tklb::memory::MemoryPool</text>
<text text-anchor="middle" x="1482.5" y="-259.5" font-family="Helvetica,sans-Serif" font-size="10.00">::deallocateAligned</text>
</a>
</g>
</g>
<!-- Node2 -->
<g id="node2" class="node">
<title>Node2</title>
<g id="a_node2"><a xlink:href="classtklb_1_1_heap_buffer.html#aa2212b76d383c1afe3d4da0448133299" target="_top" xlink:title="Allocated the exact size requsted and copies existing objects.">
<polygon fill="none" stroke="black" points="1230,-258 1230,-277 1372,-277 1372,-258 1230,-258"/>
<text text-anchor="middle" x="1301" y="-265" font-family="Helvetica,sans-Serif" font-size="10.00">tklb::HeapBuffer::allocate</text>
</a>
</g>
</g>
<!-- Node1&#45;&gt;Node2 -->
<g id="edge1" class="edge">
<title>Node1&#45;&gt;Node2</title>
<path fill="none" stroke="midnightblue" d="M1397.93,-267.5C1389.34,-267.5 1380.66,-267.5 1372.23,-267.5"/>
<polygon fill="midnightblue" stroke="midnightblue" points="1397.97,-271 1407.97,-267.5 1397.97,-264 1397.97,-271"/>
</g>
<!-- Node3 -->
<g id="node3" class="node">
<title>Node3</title>
<g id="a_node3"><a xlink:href="classtklb_1_1_heap_buffer.html#a3f6bb31bf3497c8ad7393ba1169088bf" target="_top" xlink:title="Push the object to the back of the buffer TODO tklb move version.">
<polygon fill="none" stroke="black" points="1061,-318 1061,-337 1187,-337 1187,-318 1061,-318"/>
<text text-anchor="middle" x="1124" y="-325" font-family="Helvetica,sans-Serif" font-size="10.00">tklb::HeapBuffer::push</text>
</a>
</g>
</g>
<!-- Node2&#45;&gt;Node3 -->
<g id="edge2" class="edge">
<title>Node2&#45;&gt;Node3</title>
<path fill="none" stroke="midnightblue" d="M1262.56,-280.34C1229.67,-291.61 1182.56,-307.77 1152.89,-317.94"/>
<polygon fill="midnightblue" stroke="midnightblue" points="1263.95,-283.56 1272.27,-277.01 1261.68,-276.94 1263.95,-283.56"/>
</g>
<!-- Node5 -->
<g id="node5" class="node">
<title>Node5</title>
<g id="a_node5"><a xlink:href="classtklb_1_1_heap_buffer.html#ade0e737c1d136f00e1caf1203318141b" target="_top" xlink:title="Will make sure the desired space is allocated.">
<polygon fill="none" stroke="black" points="1054,-258 1054,-277 1194,-277 1194,-258 1054,-258"/>
<text text-anchor="middle" x="1124" y="-265" font-family="Helvetica,sans-Serif" font-size="10.00">tklb::HeapBuffer::reserve</text>
</a>
</g>
</g>
<!-- Node2&#45;&gt;Node5 -->
<g id="edge4" class="edge">
<title>Node2&#45;&gt;Node5</title>
<path fill="none" stroke="midnightblue" d="M1219.8,-267.5C1211.2,-267.5 1202.5,-267.5 1194.05,-267.5"/>
<polygon fill="midnightblue" stroke="midnightblue" points="1219.83,-271 1229.83,-267.5 1219.83,-264 1219.83,-271"/>
</g>
<!-- Node6 -->
<g id="node6" class="node">
<title>Node6</title>
<g id="a_node6"><a xlink:href="classtklb_1_1_heap_buffer.html#ab37e6c1fc8d124b5737cfdef69b051d1" target="_top" xlink:title="Resize the buffer If the memory is borrowed it will become unique and owned by this instance as soon ...">
<polygon fill="none" stroke="black" points="1058,-176 1058,-195 1190,-195 1190,-176 1058,-176"/>
<text text-anchor="middle" x="1124" y="-183" font-family="Helvetica,sans-Serif" font-size="10.00">tklb::HeapBuffer::resize</text>
</a>
</g>
</g>
<!-- Node2&#45;&gt;Node6 -->
<g id="edge5" class="edge">
<title>Node2&#45;&gt;Node6</title>
<path fill="none" stroke="midnightblue" d="M1270.2,-253.53C1234.6,-236.86 1176.03,-209.41 1145.29,-195.01"/>
<polygon fill="midnightblue" stroke="midnightblue" points="1269.04,-256.86 1279.58,-257.93 1272.01,-250.52 1269.04,-256.86"/>
</g>
<!-- Node4 -->
<g id="node4" class="node">
<title>Node4</title>
<g id="a_node4"><a xlink:href="string_8cpp.html#ae66f6b31b5ad750f1fe042a706a4e3d4" target="_top" xlink:title=" ">
<polygon fill="none" stroke="black" points="918.5,-340 918.5,-359 959.5,-359 959.5,-340 918.5,-340"/>
<text text-anchor="middle" x="939" y="-347" font-family="Helvetica,sans-Serif" font-size="10.00">main</text>
</a>
</g>
</g>
<!-- Node3&#45;&gt;Node4 -->
<g id="edge3" class="edge">
<title>Node3&#45;&gt;Node4</title>
<path fill="none" stroke="midnightblue" d="M1050.73,-336.19C1017.89,-340.14 981.6,-344.5 959.81,-347.12"/>
<polygon fill="midnightblue" stroke="midnightblue" points="1051.28,-339.65 1060.79,-334.98 1050.44,-332.7 1051.28,-339.65"/>
</g>
<!-- Node7 -->
<g id="node7" class="node">
<title>Node7</title>
<g id="a_node7"><a xlink:href="classtklb_1_1_heap_buffer.html#a76b642458c3ab649734fe9a85e149e76" target="_top" xlink:title="Clears the buffer but doesn&#39;t free the memory.">
<polygon fill="none" stroke="black" points="875.5,-302 875.5,-321 1002.5,-321 1002.5,-302 875.5,-302"/>
<text text-anchor="middle" x="939" y="-309" font-family="Helvetica,sans-Serif" font-size="10.00">tklb::HeapBuffer::clear</text>
</a>
</g>
</g>
<!-- Node6&#45;&gt;Node7 -->
<g id="edge6" class="edge">
<title>Node6&#45;&gt;Node7</title>
<path fill="none" stroke="midnightblue" d="M1103.59,-201.88C1089.37,-214.19 1069.85,-231.76 1054,-248.5 1036.62,-266.84 1039.38,-279.04 1018,-292.5 1011.87,-296.36 1005.01,-299.44 997.97,-301.89"/>
<polygon fill="midnightblue" stroke="midnightblue" points="1105.98,-204.44 1111.29,-195.27 1101.42,-199.13 1105.98,-204.44"/>
</g>
<!-- Node8 -->
<g id="node8" class="node">
<title>Node8</title>
<g id="a_node8"><a xlink:href="classtklb_1_1_heap_buffer.html#a7ac3c5d43b0db9422f61a7097fc9c394" target="_top" xlink:title="If T is a pointer type, delete will be called for all pointers in buffer and resize(0) is called.">
<polygon fill="none" stroke="black" points="869,-252.5 869,-282.5 1009,-282.5 1009,-252.5 869,-252.5"/>
<text text-anchor="start" x="877" y="-270.5" font-family="Helvetica,sans-Serif" font-size="10.00">tklb::HeapBuffer::destroy</text>
<text text-anchor="middle" x="939" y="-259.5" font-family="Helvetica,sans-Serif" font-size="10.00">Pointers</text>
</a>
</g>
</g>
<!-- Node6&#45;&gt;Node8 -->
<g id="edge7" class="edge">
<title>Node6&#45;&gt;Node8</title>
<path fill="none" stroke="midnightblue" d="M1098.63,-200.43C1077.75,-212.8 1046.62,-230.27 1018,-242.5 1009.63,-246.08 1000.57,-249.43 991.69,-252.44"/>
<polygon fill="midnightblue" stroke="midnightblue" points="1100.67,-203.29 1107.45,-195.14 1097.07,-197.28 1100.67,-203.29"/>
</g>
<!-- Node9 -->
<g id="node9" class="node">
<title>Node9</title>
<g id="a_node9"><a xlink:href="classtklb_1_1_heap_buffer.html#ae48b31c254c04be44dabd1e6f2464f4e" target="_top" xlink:title="Setup the buffer with a size.">
<polygon fill="none" stroke="black" points="860,-214 860,-233 1018,-233 1018,-214 860,-214"/>
<text text-anchor="middle" x="939" y="-221" font-family="Helvetica,sans-Serif" font-size="10.00">tklb::HeapBuffer::HeapBuffer</text>
</a>
</g>
</g>
<!-- Node6&#45;&gt;Node9 -->
<g id="edge8" class="edge">
<title>Node6&#45;&gt;Node9</title>
<path fill="none" stroke="midnightblue" d="M1066.75,-197.18C1040.79,-202.57 1010.38,-208.89 985.85,-213.98"/>
<polygon fill="midnightblue" stroke="midnightblue" points="1067.74,-200.55 1076.82,-195.09 1066.32,-193.7 1067.74,-200.55"/>
</g>
<!-- Node10 -->
<g id="node10" class="node">
<title>Node10</title>
<g id="a_node10"><a xlink:href="classtklb_1_1_heap_buffer.html#a92c98281f59633bf711f3a69d116d7b1" target="_top" xlink:title="Provide foreign memory to borrow.">
<polygon fill="none" stroke="black" points="874,-176 874,-195 1004,-195 1004,-176 874,-176"/>
<text text-anchor="middle" x="939" y="-183" font-family="Helvetica,sans-Serif" font-size="10.00">tklb::HeapBuffer::inject</text>
</a>
</g>
</g>
<!-- Node6&#45;&gt;Node10 -->
<g id="edge9" class="edge">
<title>Node6&#45;&gt;Node10</title>
<path fill="none" stroke="midnightblue" d="M1047.59,-185.5C1033.18,-185.5 1018.23,-185.5 1004.21,-185.5"/>
<polygon fill="midnightblue" stroke="midnightblue" points="1047.97,-189 1057.97,-185.5 1047.97,-182 1047.97,-189"/>
</g>
<!-- Node12 -->
<g id="node12" class="node">
<title>Node12</title>
<g id="a_node12"><a xlink:href="classtklb_1_1_convolver_mono_tpl.html#a67f9498b46370c1a273b47ccc4863e21" target="_top" xlink:title="Load a impulse response and prepare the convolution.">
<polygon fill="none" stroke="black" points="873,-126.5 873,-156.5 1005,-156.5 1005,-126.5 873,-126.5"/>
<text text-anchor="start" x="881" y="-144.5" font-family="Helvetica,sans-Serif" font-size="10.00">tklb::ConvolverMonoTpl</text>
<text text-anchor="middle" x="939" y="-133.5" font-family="Helvetica,sans-Serif" font-size="10.00">::load</text>
</a>
</g>
</g>
<!-- Node6&#45;&gt;Node12 -->
<g id="edge11" class="edge">
<title>Node6&#45;&gt;Node12</title>
<path fill="none" stroke="midnightblue" d="M1073.28,-173.54C1051.51,-168.31 1025.72,-162.11 1002.66,-156.57"/>
<polygon fill="midnightblue" stroke="midnightblue" points="1072.75,-177.02 1083.29,-175.95 1074.39,-170.21 1072.75,-177.02"/>
</g>
<!-- Node13 -->
<g id="node13" class="node">
<title>Node13</title>
<g id="a_node13"><a xlink:href="namespacetklb_1_1wave.html#a0eea36d8e07b1520ce77191e081c45bb" target="_top" xlink:title="Decode wav from memory or file path.">
<polygon fill="none" stroke="black" points="891.5,-88 891.5,-107 986.5,-107 986.5,-88 891.5,-88"/>
<text text-anchor="middle" x="939" y="-95" font-family="Helvetica,sans-Serif" font-size="10.00">tklb::wave::load</text>
</a>
</g>
</g>
<!-- Node6&#45;&gt;Node13 -->
<g id="edge12" class="edge">
<title>Node6&#45;&gt;Node13</title>
<path fill="none" stroke="midnightblue" d="M1102.98,-169.7C1082.64,-154.35 1049.71,-131.39 1018,-117.5 1008.14,-113.18 997.15,-109.65 986.61,-106.83"/>
<polygon fill="midnightblue" stroke="midnightblue" points="1101.07,-172.64 1111.14,-175.96 1105.33,-167.09 1101.07,-172.64"/>
</g>
<!-- Node21 -->
<g id="node21" class="node">
<title>Node21</title>
<g id="a_node21"><a xlink:href="classtklb_1_1_heap_buffer.html#af0d3f023b7a208b152a436b5273cf580" target="_top" xlink:title="Set data from array.">
<polygon fill="none" stroke="black" points="880,-50 880,-69 998,-69 998,-50 880,-50"/>
<text text-anchor="middle" x="939" y="-57" font-family="Helvetica,sans-Serif" font-size="10.00">tklb::HeapBuffer::set</text>
</a>
</g>
</g>
<!-- Node6&#45;&gt;Node21 -->
<g id="edge21" class="edge">
<title>Node6&#45;&gt;Node21</title>
<path fill="none" stroke="midnightblue" d="M1110.45,-167.5C1092.7,-143.44 1057.93,-101.2 1018,-78.5 1011.21,-74.64 1003.67,-71.56 996.01,-69.11"/>
<polygon fill="midnightblue" stroke="midnightblue" points="1107.71,-169.69 1116.4,-175.76 1113.39,-165.6 1107.71,-169.69"/>
</g>
<!-- Node22 -->
<g id="node22" class="node">
<title>Node22</title>
<g id="a_node22"><a xlink:href="classtklb_1_1_heap_buffer.html#a91b81f93a16fd76ec0ef747645fb1547" target="_top" xlink:title=" ">
<polygon fill="none" stroke="black" points="887.5,-0.5 887.5,-30.5 990.5,-30.5 990.5,-0.5 887.5,-0.5"/>
<text text-anchor="start" x="895.5" y="-18.5" font-family="Helvetica,sans-Serif" font-size="10.00">tklb::HeapBuffer::</text>
<text text-anchor="middle" x="939" y="-7.5" font-family="Helvetica,sans-Serif" font-size="10.00">~HeapBuffer</text>
</a>
</g>
</g>
<!-- Node6&#45;&gt;Node22 -->
<g id="edge22" class="edge">
<title>Node6&#45;&gt;Node22</title>
<path fill="none" stroke="midnightblue" d="M1114.24,-166.5C1099.02,-135.58 1064.8,-74.42 1018,-40.5 1009.82,-34.58 1000.18,-30.01 990.52,-26.52"/>
<polygon fill="midnightblue" stroke="midnightblue" points="1111.18,-168.24 1118.66,-175.75 1117.5,-165.21 1111.18,-168.24"/>
</g>
<!-- Node11 -->
<g id="node11" class="node">
<title>Node11</title>
<g id="a_node11"><a xlink:href="classtklb_1_1_heap_buffer.html#ad19c6c6c753de0f91aeb2bafa7e1a7ea" target="_top" xlink:title="Provide const foreign memory to use Using non const accessors will cause assertions in debug mode.">
<polygon fill="none" stroke="black" points="692,-176 692,-195 822,-195 822,-176 692,-176"/>
<text text-anchor="middle" x="757" y="-183" font-family="Helvetica,sans-Serif" font-size="10.00">tklb::HeapBuffer::inject</text>
</a>
</g>
</g>
<!-- Node10&#45;&gt;Node11 -->
<g id="edge10" class="edge">
<title>Node10&#45;&gt;Node11</title>
<path fill="none" stroke="midnightblue" d="M863.43,-185.5C849.73,-185.5 835.55,-185.5 822.2,-185.5"/>
<polygon fill="midnightblue" stroke="midnightblue" points="863.78,-189 873.78,-185.5 863.78,-182 863.78,-189"/>
</g>
<!-- Node14 -->
<g id="node14" class="node">
<title>Node14</title>
<g id="a_node14"><a xlink:href="structvae_1_1core_1_1_source_loader.html#a2341f89c2b79148066369e8d50d98597" target="_top" xlink:title="Loads a wav file for the resource.">
<polygon fill="none" stroke="black" points="690,-82.5 690,-112.5 824,-112.5 824,-82.5 690,-82.5"/>
<text text-anchor="start" x="698" y="-100.5" font-family="Helvetica,sans-Serif" font-size="10.00">vae::core::SourceLoader</text>
<text text-anchor="middle" x="757" y="-89.5" font-family="Helvetica,sans-Serif" font-size="10.00">::load</text>
</a>
</g>
</g>
<!-- Node13&#45;&gt;Node14 -->
<g id="edge13" class="edge">
<title>Node13&#45;&gt;Node14</title>
<path fill="none" stroke="midnightblue" d="M881.09,-97.5C863.03,-97.5 842.9,-97.5 824.24,-97.5"/>
<polygon fill="midnightblue" stroke="midnightblue" points="881.18,-101 891.18,-97.5 881.18,-94 881.18,-101"/>
</g>
<!-- Node15 -->
<g id="node15" class="node">
<title>Node15</title>
<g id="a_node15"><a xlink:href="classvae_1_1core_1_1_bank_loader.html#a0c168e922d02dbe23ec42ebfde4d97a2" target="_top" xlink:title="Load a bank.json and all wav files referenced in it.">
<polygon fill="none" stroke="black" points="529,-82.5 529,-112.5 654,-112.5 654,-82.5 529,-82.5"/>
<text text-anchor="start" x="537" y="-100.5" font-family="Helvetica,sans-Serif" font-size="10.00">vae::core::BankLoader</text>
<text text-anchor="middle" x="591.5" y="-89.5" font-family="Helvetica,sans-Serif" font-size="10.00">::load</text>
</a>
</g>
</g>
<!-- Node14&#45;&gt;Node15 -->
<g id="edge14" class="edge">
<title>Node14&#45;&gt;Node15</title>
<path fill="none" stroke="midnightblue" d="M679.86,-97.5C671.2,-97.5 662.46,-97.5 654.02,-97.5"/>
<polygon fill="midnightblue" stroke="midnightblue" points="679.97,-101 689.97,-97.5 679.97,-94 679.97,-101"/>
</g>
<!-- Node16 -->
<g id="node16" class="node">
<title>Node16</title>
<g id="a_node16"><a xlink:href="classvae_1_1core_1_1_bank_manager.html#ab06ae4e1f8106811c8149dd73bef6bd0" target="_top" xlink:title=" ">
<polygon fill="none" stroke="black" points="359,-82.5 359,-112.5 493,-112.5 493,-82.5 359,-82.5"/>
<text text-anchor="start" x="367" y="-100.5" font-family="Helvetica,sans-Serif" font-size="10.00">vae::core::BankManager</text>
<text text-anchor="middle" x="426" y="-89.5" font-family="Helvetica,sans-Serif" font-size="10.00">::load</text>
</a>
</g>
</g>
<!-- Node15&#45;&gt;Node16 -->
<g id="edge15" class="edge">
<title>Node15&#45;&gt;Node16</title>
<path fill="none" stroke="midnightblue" d="M518.53,-97.5C510.13,-97.5 501.59,-97.5 493.27,-97.5"/>
<polygon fill="midnightblue" stroke="midnightblue" points="518.69,-101 528.69,-97.5 518.69,-94 518.69,-101"/>
</g>
<!-- Node16&#45;&gt;Node16 -->
<g id="edge17" class="edge">
<title>Node16&#45;&gt;Node16</title>
<path fill="none" stroke="midnightblue" d="M455.14,-122.96C451.52,-127.68 441.81,-131 426,-131 400.05,-131 390.53,-122.06 397.42,-112.66"/>
<polygon fill="midnightblue" stroke="midnightblue" points="458.62,-122.45 454.58,-112.66 451.63,-122.83 458.62,-122.45"/>
</g>
<!-- Node17 -->
<g id="node17" class="node">
<title>Node17</title>
<g id="a_node17"><a xlink:href="classvae_1_1core_1_1_bank_manager.html#ae04256d1f2f2df47d3239993c9bbf12c" target="_top" xlink:title="Will reload all the banks.">
<polygon fill="none" stroke="black" points="189,-107.5 189,-137.5 323,-137.5 323,-107.5 189,-107.5"/>
<text text-anchor="start" x="197" y="-125.5" font-family="Helvetica,sans-Serif" font-size="10.00">vae::core::BankManager</text>
<text text-anchor="middle" x="256" y="-114.5" font-family="Helvetica,sans-Serif" font-size="10.00">::init</text>
</a>
</g>
</g>
<!-- Node16&#45;&gt;Node17 -->
<g id="edge16" class="edge">
<title>Node16&#45;&gt;Node17</title>
<path fill="none" stroke="midnightblue" d="M348.68,-108.86C340.17,-110.12 331.56,-111.4 323.19,-112.65"/>
<polygon fill="midnightblue" stroke="midnightblue" points="349.23,-112.31 358.6,-107.38 348.2,-105.39 349.23,-112.31"/>
</g>
<!-- Node18 -->
<g id="node18" class="node">
<title>Node18</title>
<g id="a_node18"><a xlink:href="classvae_1_1core_1_1_engine.html#a4af5733f9975fe1c746e75958bc39d23" target="_top" xlink:title="Load bank from filesystem.">
<polygon fill="none" stroke="black" points="202.5,-58.5 202.5,-88.5 309.5,-88.5 309.5,-58.5 202.5,-58.5"/>
<text text-anchor="start" x="210.5" y="-76.5" font-family="Helvetica,sans-Serif" font-size="10.00">vae::core::Engine::</text>
<text text-anchor="middle" x="256" y="-65.5" font-family="Helvetica,sans-Serif" font-size="10.00">loadBank</text>
</a>
</g>
</g>
<!-- Node16&#45;&gt;Node18 -->
<g id="edge18" class="edge">
<title>Node16&#45;&gt;Node18</title>
<path fill="none" stroke="midnightblue" d="M348.62,-86.59C335.47,-84.71 322.07,-82.8 309.72,-81.03"/>
<polygon fill="midnightblue" stroke="midnightblue" points="348.21,-90.07 358.6,-88.01 349.2,-83.14 348.21,-90.07"/>
</g>
<!-- Node19 -->
<g id="node19" class="node">
<title>Node19</title>
<g id="a_node19"><a xlink:href="classvae_1_1_engine_pimpl.html#adec77e6ef0f00d52c634611cb6822443" target="_top" xlink:title="Load bank from filesystem.">
<polygon fill="none" stroke="black" points="0,-83 0,-102 153,-102 153,-83 0,-83"/>
<text text-anchor="middle" x="76.5" y="-90" font-family="Helvetica,sans-Serif" font-size="10.00">vae::EnginePimpl::loadBank</text>
</a>
</g>
</g>
<!-- Node18&#45;&gt;Node19 -->
<g id="edge19" class="edge">
<title>Node18&#45;&gt;Node19</title>
<path fill="none" stroke="midnightblue" d="M192.25,-80.22C179.57,-81.57 166.12,-83.01 153.06,-84.41"/>
<polygon fill="midnightblue" stroke="midnightblue" points="192.65,-83.69 202.22,-79.15 191.91,-76.73 192.65,-83.69"/>
</g>
<!-- Node20 -->
<g id="node20" class="node">
<title>Node20</title>
<g id="a_node20"><a xlink:href="main_8cpp.html#ae66f6b31b5ad750f1fe042a706a4e3d4" target="_top" xlink:title=" ">
<polygon fill="none" stroke="black" points="56,-45 56,-64 97,-64 97,-45 56,-45"/>
<text text-anchor="middle" x="76.5" y="-52" font-family="Helvetica,sans-Serif" font-size="10.00">main</text>
</a>
</g>
</g>
<!-- Node18&#45;&gt;Node20 -->
<g id="edge20" class="edge">
<title>Node18&#45;&gt;Node20</title>
<path fill="none" stroke="midnightblue" d="M192.06,-66.76C158.69,-63.19 119.98,-59.05 97.18,-56.61"/>
<polygon fill="midnightblue" stroke="midnightblue" points="191.91,-70.27 202.22,-67.85 192.65,-63.31 191.91,-70.27"/>
</g>
</g>
</svg>
