<?xml version="1.0" encoding="UTF-8" standalone="no"?>
<!DOCTYPE svg PUBLIC "-//W3C//DTD SVG 1.1//EN"
 "http://www.w3.org/Graphics/SVG/1.1/DTD/svg11.dtd">
<!-- Generated by graphviz version 2.50.0 (0)
 -->
<!-- Title: vae::EnginePimpl::loadHRTF Pages: 1 -->
<!--zoomable 544 -->
<svg id="main" version="1.1" xmlns="http://www.w3.org/2000/svg" xmlns:xlink="http://www.w3.org/1999/xlink" xml:space="preserve" onload="init(evt)">
<style type="text/css"><![CDATA[
.edge:hover path { stroke: red; }
.edge:hover polygon { stroke: red; fill: red; }
]]></style>
<script type="text/javascript"><![CDATA[
var edges = document.getElementsByTagName('g');
if (edges && edges.length) {
  for (var i=0;i<edges.length;i++) {
    if (edges[i].id.substr(0,4)=='edge') {
      edges[i].setAttribute('class','edge');
    }
  }
}
]]></script>
        <defs>
                <circle id="rim" cx="0" cy="0" r="7"/>
                <circle id="rim2" cx="0" cy="0" r="3.5"/>
                <g id="zoomPlus">
                        <use xlink:href="#rim" fill="#404040">
                                <set attributeName="fill" to="#808080" begin="zoomplus.mouseover" end="zoomplus.mouseout"/>
                        </use>
                        <path d="M-4,0h8M0,-4v8" fill="none" stroke="white" stroke-width="1.5" pointer-events="none"/>
                </g>
                <g id="zoomMin">
                        <use xlink:href="#rim" fill="#404040">
                                <set attributeName="fill" to="#808080" begin="zoomminus.mouseover" end="zoomminus.mouseout"/>
                        </use>
                        <path d="M-4,0h8" fill="none" stroke="white" stroke-width="1.5" pointer-events="none"/>
                </g>
                <g id="dirArrow">
                        <path fill="none" stroke="white" stroke-width="1.5" d="M0,-3.0v7 M-2.5,-0.5L0,-3.0L2.5,-0.5"/>
                </g>
               <g id="resetDef">
                       <use xlink:href="#rim2" fill="#404040">
                               <set attributeName="fill" to="#808080" begin="reset.mouseover" end="reset.mouseout"/>
                       </use>
               </g>
        </defs>

<script type="text/javascript">
var viewWidth = 1066;
var viewHeight = 544;
var sectionId = 'dynsection-12';
</script>
<script xlink:href="svgpan.js"/>
<svg id="graph" class="graph">
<g id="viewport">
<title>vae::EnginePimpl::loadHRTF</title>
<!-- Node1 -->
<g id="node1" class="node">
<title>Node1</title>
<g id="a_node1"><a xlink:title=" ">
<polygon fill="#bfbfbf" stroke="black" points="0,-315 0,-334 154,-334 154,-315 0,-315"/>
<text text-anchor="middle" x="77" y="-322" font-family="Helvetica,sans-Serif" font-size="10.00">vae::EnginePimpl::loadHRTF</text>
</a>
</g>
</g>
<!-- Node2 -->
<g id="node2" class="node">
<title>Node2</title>
<g id="a_node2"><a xlink:href="classvae_1_1core_1_1_engine.html#a98bb7b9ed016675701fb91069fb1a066" target="_top" xlink:title=" ">
<polygon fill="none" stroke="black" points="190,-309.5 190,-339.5 297,-339.5 297,-309.5 190,-309.5"/>
<text text-anchor="start" x="198" y="-327.5" font-family="Helvetica,sans-Serif" font-size="10.00">vae::core::Engine::</text>
<text text-anchor="middle" x="243.5" y="-316.5" font-family="Helvetica,sans-Serif" font-size="10.00">loadHRTF</text>
</a>
</g>
</g>
<!-- Node1&#45;&gt;Node2 -->
<g id="edge1" class="edge">
<title>Node1&#45;&gt;Node2</title>
<path fill="none" stroke="midnightblue" d="M154.47,-324.5C162.85,-324.5 171.31,-324.5 179.49,-324.5"/>
<polygon fill="midnightblue" stroke="midnightblue" points="179.69,-328 189.69,-324.5 179.69,-321 179.69,-328"/>
</g>
<!-- Node3 -->
<g id="node3" class="node">
<title>Node3</title>
<g id="a_node3"><a xlink:href="classvae_1_1core_1_1_spatial_processor.html#ad598b5dcbe8bed69fa6cb0b726170dd3" target="_top" xlink:title=" ">
<polygon fill="none" stroke="black" points="333,-309.5 333,-339.5 482,-339.5 482,-309.5 333,-309.5"/>
<text text-anchor="start" x="341" y="-327.5" font-family="Helvetica,sans-Serif" font-size="10.00">vae::core::SpatialProcessor</text>
<text text-anchor="middle" x="407.5" y="-316.5" font-family="Helvetica,sans-Serif" font-size="10.00">::loadHRTF</text>
</a>
</g>
</g>
<!-- Node2&#45;&gt;Node3 -->
<g id="edge2" class="edge">
<title>Node2&#45;&gt;Node3</title>
<path fill="none" stroke="midnightblue" d="M297.1,-324.5C305.33,-324.5 314.01,-324.5 322.74,-324.5"/>
<polygon fill="midnightblue" stroke="midnightblue" points="322.98,-328 332.98,-324.5 322.98,-321 322.98,-328"/>
</g>
<!-- Node4 -->
<g id="node4" class="node">
<title>Node4</title>
<g id="a_node4"><a xlink:href="classvae_1_1core_1_1_h_r_t_f_loader.html#a38e07107ad81acdbaed1ac6874978534" target="_top" xlink:title=" ">
<polygon fill="none" stroke="black" points="518,-309.5 518,-339.5 644,-339.5 644,-309.5 518,-309.5"/>
<text text-anchor="start" x="526" y="-327.5" font-family="Helvetica,sans-Serif" font-size="10.00">vae::core::HRTFLoader</text>
<text text-anchor="middle" x="581" y="-316.5" font-family="Helvetica,sans-Serif" font-size="10.00">::load</text>
</a>
</g>
</g>
<!-- Node3&#45;&gt;Node4 -->
<g id="edge3" class="edge">
<title>Node3&#45;&gt;Node4</title>
<path fill="none" stroke="midnightblue" d="M482.23,-324.5C490.68,-324.5 499.3,-324.5 507.73,-324.5"/>
<polygon fill="midnightblue" stroke="midnightblue" points="507.91,-328 517.91,-324.5 507.91,-321 507.91,-328"/>
</g>
<!-- Node5 -->
<g id="node5" class="node">
<title>Node5</title>
<g id="a_node5"><a xlink:href="classvae_1_1core_1_1_h_r_t_f_loader.html#a7c489c0405f35d7b636509be7ed302fb" target="_top" xlink:title=" ">
<polygon fill="none" stroke="black" points="680,-505.5 680,-535.5 806,-535.5 806,-505.5 680,-505.5"/>
<text text-anchor="start" x="688" y="-523.5" font-family="Helvetica,sans-Serif" font-size="10.00">vae::core::HRTFLoader</text>
<text text-anchor="middle" x="743" y="-512.5" font-family="Helvetica,sans-Serif" font-size="10.00">::allocate</text>
</a>
</g>
</g>
<!-- Node4&#45;&gt;Node5 -->
<g id="edge4" class="edge">
<title>Node4&#45;&gt;Node5</title>
<path fill="none" stroke="midnightblue" d="M587.49,-339.77C599.61,-371.62 631.49,-445.85 680,-490.5 684.01,-494.2 688.57,-497.53 693.34,-500.51"/>
<polygon fill="midnightblue" stroke="midnightblue" points="691.67,-503.58 702.09,-505.49 695.14,-497.5 691.67,-503.58"/>
</g>
<!-- Node7 -->
<g id="node7" class="node">
<title>Node7</title>
<g id="a_node7"><a xlink:href="namespacetklb.html#a7dc2203e89c331e3c85b9e7f16fa6763" target="_top" xlink:title=" ">
<polygon fill="none" stroke="black" points="995,-489 995,-508 1058,-508 1058,-489 995,-489"/>
<text text-anchor="middle" x="1026.5" y="-496" font-family="Helvetica,sans-Serif" font-size="10.00">tklb::max</text>
</a>
</g>
</g>
<!-- Node4&#45;&gt;Node7 -->
<g id="edge13" class="edge">
<title>Node4&#45;&gt;Node7</title>
<path fill="none" stroke="midnightblue" d="M588.19,-339.64C600.75,-368.2 632.15,-429.66 680,-457.5 705.87,-472.55 898.84,-488.88 984.61,-495.48"/>
<polygon fill="midnightblue" stroke="midnightblue" points="984.53,-498.98 994.77,-496.25 985.06,-492 984.53,-498.98"/>
</g>
<!-- Node8 -->
<g id="node8" class="node">
<title>Node8</title>
<g id="a_node8"><a xlink:href="classtklb_1_1_string.html#a94e674695ef958e3a4d7778c7235856b" target="_top" xlink:title=" ">
<polygon fill="none" stroke="black" points="687,-429 687,-448 799,-448 799,-429 687,-429"/>
<text text-anchor="middle" x="743" y="-436" font-family="Helvetica,sans-Serif" font-size="10.00">tklb::String::append</text>
</a>
</g>
</g>
<!-- Node4&#45;&gt;Node8 -->
<g id="edge7" class="edge">
<title>Node4&#45;&gt;Node8</title>
<path fill="none" stroke="midnightblue" d="M595.22,-339.76C612.86,-359.33 645.86,-393.28 680,-414.5 686.47,-418.52 693.72,-422.06 700.93,-425.11"/>
<polygon fill="midnightblue" stroke="midnightblue" points="700.06,-428.53 710.65,-428.95 702.63,-422.02 700.06,-428.53"/>
</g>
<!-- Node9 -->
<g id="node9" class="node">
<title>Node9</title>
<g id="a_node9"><a xlink:href="classtklb_1_1_string.html#a2fd6f1c6342e803119507c94cd3c6b76" target="_top" xlink:title=" ">
<polygon fill="none" stroke="black" points="853,-391 853,-410 948,-410 948,-391 853,-391"/>
<text text-anchor="middle" x="900.5" y="-398" font-family="Helvetica,sans-Serif" font-size="10.00">tklb::String::size</text>
</a>
</g>
</g>
<!-- Node4&#45;&gt;Node9 -->
<g id="edge24" class="edge">
<title>Node4&#45;&gt;Node9</title>
<path fill="none" stroke="midnightblue" d="M601.78,-339.56C620.74,-353.09 650.73,-372.23 680,-381.5 733.45,-398.42 797.66,-402.19 842.78,-402.33"/>
<polygon fill="midnightblue" stroke="midnightblue" points="842.97,-405.83 852.96,-402.3 842.95,-398.83 842.97,-405.83"/>
</g>
<!-- Node10 -->
<g id="node10" class="node">
<title>Node10</title>
<g id="a_node10"><a xlink:href="classtklb_1_1_string.html#a2551f7f99fab1486f3d13b3a363824c5" target="_top" xlink:title=" ">
<polygon fill="none" stroke="black" points="693.5,-353 693.5,-372 792.5,-372 792.5,-353 693.5,-353"/>
<text text-anchor="middle" x="743" y="-360" font-family="Helvetica,sans-Serif" font-size="10.00">tklb::String::c_str</text>
</a>
</g>
</g>
<!-- Node4&#45;&gt;Node10 -->
<g id="edge9" class="edge">
<title>Node4&#45;&gt;Node10</title>
<path fill="none" stroke="midnightblue" d="M644.32,-339.3C660,-343.03 676.64,-346.98 691.66,-350.54"/>
<polygon fill="midnightblue" stroke="midnightblue" points="691.22,-354.04 701.76,-352.94 692.84,-347.23 691.22,-354.04"/>
</g>
<!-- Node11 -->
<g id="node11" class="node">
<title>Node11</title>
<g id="a_node11"><a xlink:href="classtklb_1_1_string.html#af160751fb9fbb7cba71b281db77ce9e5" target="_top" xlink:title=" ">
<polygon fill="none" stroke="black" points="694,-315 694,-334 792,-334 792,-315 694,-315"/>
<text text-anchor="middle" x="743" y="-322" font-family="Helvetica,sans-Serif" font-size="10.00">tklb::String::data</text>
</a>
</g>
</g>
<!-- Node4&#45;&gt;Node11 -->
<g id="edge10" class="edge">
<title>Node4&#45;&gt;Node11</title>
<path fill="none" stroke="midnightblue" d="M644.32,-324.5C657.33,-324.5 671.01,-324.5 683.87,-324.5"/>
<polygon fill="midnightblue" stroke="midnightblue" points="683.97,-328 693.97,-324.5 683.97,-321 683.97,-328"/>
</g>
<!-- Node12 -->
<g id="node12" class="node">
<title>Node12</title>
<g id="a_node12"><a xlink:href="classvae_1_1core_1_1_h_r_t_f_loader.html#a8107c8a30a0d31c631e1149c614cd1e2" target="_top" xlink:title=" ">
<polygon fill="none" stroke="black" points="680,-227.5 680,-257.5 806,-257.5 806,-227.5 680,-227.5"/>
<text text-anchor="start" x="688" y="-245.5" font-family="Helvetica,sans-Serif" font-size="10.00">vae::core::HRTFLoader</text>
<text text-anchor="middle" x="743" y="-234.5" font-family="Helvetica,sans-Serif" font-size="10.00">::deallocate</text>
</a>
</g>
</g>
<!-- Node4&#45;&gt;Node12 -->
<g id="edge11" class="edge">
<title>Node4&#45;&gt;Node12</title>
<path fill="none" stroke="midnightblue" d="M605.64,-309.46C625.17,-297.35 653.83,-280.3 680,-267.5 684.1,-265.49 688.4,-263.52 692.75,-261.6"/>
<polygon fill="midnightblue" stroke="midnightblue" points="694.45,-264.68 702.27,-257.53 691.7,-258.24 694.45,-264.68"/>
</g>
<!-- Node14 -->
<g id="node14" class="node">
<title>Node14</title>
<g id="a_node14"><a xlink:href="classvae_1_1core_1_1fs_1_1_file.html#a9b11ebabdce39848566a1bf4b225d7c2" target="_top" xlink:title=" ">
<polygon fill="none" stroke="black" points="693,-178.5 693,-208.5 793,-208.5 793,-178.5 693,-178.5"/>
<text text-anchor="start" x="701" y="-196.5" font-family="Helvetica,sans-Serif" font-size="10.00">vae::core::fs::File</text>
<text text-anchor="middle" x="743" y="-185.5" font-family="Helvetica,sans-Serif" font-size="10.00">::readAll</text>
</a>
</g>
</g>
<!-- Node4&#45;&gt;Node14 -->
<g id="edge14" class="edge">
<title>Node4&#45;&gt;Node14</title>
<path fill="none" stroke="midnightblue" d="M592.69,-309.17C609.13,-286.58 642.66,-244.26 680,-218.5 682.72,-216.62 685.61,-214.85 688.58,-213.19"/>
<polygon fill="midnightblue" stroke="midnightblue" points="690.41,-216.19 697.72,-208.52 687.23,-209.95 690.41,-216.19"/>
</g>
<!-- Node15 -->
<g id="node15" class="node">
<title>Node15</title>
<g id="a_node15"><a xlink:href="classvae_1_1core_1_1fs_1_1_file.html#a01e51acff408d0449c1b524c40596470" target="_top" xlink:title=" ">
<polygon fill="none" stroke="black" points="850.5,-137.5 850.5,-167.5 950.5,-167.5 950.5,-137.5 850.5,-137.5"/>
<text text-anchor="start" x="858.5" y="-155.5" font-family="Helvetica,sans-Serif" font-size="10.00">vae::core::fs::File</text>
<text text-anchor="middle" x="900.5" y="-144.5" font-family="Helvetica,sans-Serif" font-size="10.00">::size</text>
</a>
</g>
</g>
<!-- Node4&#45;&gt;Node15 -->
<g id="edge23" class="edge">
<title>Node4&#45;&gt;Node15</title>
<path fill="none" stroke="midnightblue" d="M586.5,-309.25C596.91,-276.96 626,-202.03 680,-169.5 728.19,-140.47 793.54,-139.2 840.37,-143.37"/>
<polygon fill="midnightblue" stroke="midnightblue" points="840.07,-146.86 850.37,-144.37 840.77,-139.89 840.07,-146.86"/>
</g>
<!-- Node17 -->
<g id="node17" class="node">
<title>Node17</title>
<g id="a_node17"><a xlink:href="classtklb_1_1_audio_buffer_tpl.html#a35b40f6d6b1fc2939613b1b84313b0bc" target="_top" xlink:title="! Will not keep the contents! Resizes the buffer to the desired length and channel count.">
<polygon fill="none" stroke="black" points="686,-68.5 686,-98.5 800,-98.5 800,-68.5 686,-68.5"/>
<text text-anchor="start" x="694" y="-86.5" font-family="Helvetica,sans-Serif" font-size="10.00">tklb::AudioBufferTpl</text>
<text text-anchor="middle" x="743" y="-75.5" font-family="Helvetica,sans-Serif" font-size="10.00">::resize</text>
</a>
</g>
</g>
<!-- Node4&#45;&gt;Node17 -->
<g id="edge17" class="edge">
<title>Node4&#45;&gt;Node17</title>
<path fill="none" stroke="midnightblue" d="M587.47,-309.35C600.13,-275.68 633.89,-193.04 680,-135.5 689.1,-124.14 700.99,-113.46 711.92,-104.77"/>
<polygon fill="midnightblue" stroke="midnightblue" points="714.23,-107.41 720.03,-98.53 709.97,-101.86 714.23,-107.41"/>
</g>
<!-- Node21 -->
<g id="node21" class="node">
<title>Node21</title>
<g id="a_node21"><a xlink:href="classtklb_1_1_string.html#a6106e1733cc6c09b98bd203f8a9a2653" target="_top" xlink:title=" ">
<polygon fill="none" stroke="black" points="690.5,-277 690.5,-296 795.5,-296 795.5,-277 690.5,-277"/>
<text text-anchor="middle" x="743" y="-284" font-family="Helvetica,sans-Serif" font-size="10.00">tklb::String::resize</text>
</a>
</g>
</g>
<!-- Node4&#45;&gt;Node21 -->
<g id="edge21" class="edge">
<title>Node4&#45;&gt;Node21</title>
<path fill="none" stroke="midnightblue" d="M644.32,-309.7C660,-305.97 676.64,-302.02 691.66,-298.46"/>
<polygon fill="midnightblue" stroke="midnightblue" points="692.84,-301.77 701.76,-296.06 691.22,-294.96 692.84,-301.77"/>
</g>
<!-- Node6 -->
<g id="node6" class="node">
<title>Node6</title>
<g id="a_node6"><a xlink:href="structvae_1_1core_1_1memory_1_1_allocator.html#ab9d50dc662897c7fe691368feffa2f98" target="_top" xlink:title=" ">
<polygon fill="none" stroke="black" points="843,-505.5 843,-535.5 958,-535.5 958,-505.5 843,-505.5"/>
<text text-anchor="start" x="851" y="-523.5" font-family="Helvetica,sans-Serif" font-size="10.00">vae::core::memory::</text>
<text text-anchor="middle" x="900.5" y="-512.5" font-family="Helvetica,sans-Serif" font-size="10.00">Allocator::allocate</text>
</a>
</g>
</g>
<!-- Node5&#45;&gt;Node6 -->
<g id="edge5" class="edge">
<title>Node5&#45;&gt;Node6</title>
<path fill="none" stroke="midnightblue" d="M806.35,-520.5C814.98,-520.5 823.86,-520.5 832.57,-520.5"/>
<polygon fill="midnightblue" stroke="midnightblue" points="832.67,-524 842.67,-520.5 832.67,-517 832.67,-524"/>
</g>
<!-- Node6&#45;&gt;Node7 -->
<g id="edge6" class="edge">
<title>Node6&#45;&gt;Node7</title>
<path fill="none" stroke="midnightblue" d="M958.06,-510.47C967.05,-508.87 976.19,-507.25 984.73,-505.73"/>
<polygon fill="midnightblue" stroke="midnightblue" points="985.55,-509.14 994.78,-503.95 984.33,-502.25 985.55,-509.14"/>
</g>
<!-- Node8&#45;&gt;Node9 -->
<g id="edge8" class="edge">
<title>Node8&#45;&gt;Node9</title>
<path fill="none" stroke="midnightblue" d="M783.24,-428.91C803.76,-423.9 829.07,-417.71 850.83,-412.39"/>
<polygon fill="midnightblue" stroke="midnightblue" points="851.66,-415.79 860.54,-410.02 850,-408.99 851.66,-415.79"/>
</g>
<!-- Node13 -->
<g id="node13" class="node">
<title>Node13</title>
<g id="a_node13"><a xlink:href="structvae_1_1core_1_1memory_1_1_allocator.html#ad43fb821d811e939ff461747efcaca6e" target="_top" xlink:title=" ">
<polygon fill="none" stroke="black" points="842,-227.5 842,-257.5 959,-257.5 959,-227.5 842,-227.5"/>
<text text-anchor="start" x="850" y="-245.5" font-family="Helvetica,sans-Serif" font-size="10.00">vae::core::memory::</text>
<text text-anchor="middle" x="900.5" y="-234.5" font-family="Helvetica,sans-Serif" font-size="10.00">Allocator::deallocate</text>
</a>
</g>
</g>
<!-- Node12&#45;&gt;Node13 -->
<g id="edge12" class="edge">
<title>Node12&#45;&gt;Node13</title>
<path fill="none" stroke="midnightblue" d="M806.35,-242.5C814.7,-242.5 823.3,-242.5 831.74,-242.5"/>
<polygon fill="midnightblue" stroke="midnightblue" points="831.92,-246 841.92,-242.5 831.92,-239 831.92,-246"/>
</g>
<!-- Node14&#45;&gt;Node15 -->
<g id="edge15" class="edge">
<title>Node14&#45;&gt;Node15</title>
<path fill="none" stroke="midnightblue" d="M793.2,-180.53C808.16,-176.58 824.77,-172.21 840.31,-168.11"/>
<polygon fill="midnightblue" stroke="midnightblue" points="841.58,-171.39 850.35,-165.46 839.79,-164.62 841.58,-171.39"/>
</g>
<!-- Node16 -->
<g id="node16" class="node">
<title>Node16</title>
<g id="a_node16"><a xlink:href="vae__fs_8hpp.html#a82978d110bb709013681115bb44e48ae" target="_top" xlink:title=" ">
<polygon fill="none" stroke="black" points="859,-187 859,-206 942,-206 942,-187 859,-187"/>
<text text-anchor="middle" x="900.5" y="-194" font-family="Helvetica,sans-Serif" font-size="10.00">vae_file_read</text>
</a>
</g>
</g>
<!-- Node14&#45;&gt;Node16 -->
<g id="edge16" class="edge">
<title>Node14&#45;&gt;Node16</title>
<path fill="none" stroke="midnightblue" d="M793.2,-194.45C810.9,-194.79 830.9,-195.18 848.73,-195.52"/>
<polygon fill="midnightblue" stroke="midnightblue" points="848.88,-199.02 858.95,-195.72 849.02,-192.03 848.88,-199.02"/>
</g>
<!-- Node18 -->
<g id="node18" class="node">
<title>Node18</title>
<g id="a_node18"><a xlink:href="classtklb_1_1_audio_buffer_tpl.html#a7859b26033cbb893c2ea7acea54d8013" target="_top" xlink:title="Returns the amount of channels.">
<polygon fill="none" stroke="black" points="843.5,-88.5 843.5,-118.5 957.5,-118.5 957.5,-88.5 843.5,-88.5"/>
<text text-anchor="start" x="851.5" y="-106.5" font-family="Helvetica,sans-Serif" font-size="10.00">tklb::AudioBufferTpl</text>
<text text-anchor="middle" x="900.5" y="-95.5" font-family="Helvetica,sans-Serif" font-size="10.00">::channels</text>
</a>
</g>
</g>
<!-- Node17&#45;&gt;Node18 -->
<g id="edge18" class="edge">
<title>Node17&#45;&gt;Node18</title>
<path fill="none" stroke="midnightblue" d="M800.14,-90.72C810.93,-92.11 822.32,-93.57 833.39,-95"/>
<polygon fill="midnightblue" stroke="midnightblue" points="833.08,-98.49 843.44,-96.29 833.97,-91.54 833.08,-98.49"/>
</g>
<!-- Node19 -->
<g id="node19" class="node">
<title>Node19</title>
<g id="a_node19"><a xlink:href="namespacetklb.html#a3080595da18d742645ec41d61828a426" target="_top" xlink:title=" ">
<polygon fill="none" stroke="black" points="870.5,-50 870.5,-69 930.5,-69 930.5,-50 870.5,-50"/>
<text text-anchor="middle" x="900.5" y="-57" font-family="Helvetica,sans-Serif" font-size="10.00">tklb::min</text>
</a>
</g>
</g>
<!-- Node17&#45;&gt;Node19 -->
<g id="edge19" class="edge">
<title>Node17&#45;&gt;Node19</title>
<path fill="none" stroke="midnightblue" d="M800.14,-74.84C820.01,-71.77 841.93,-68.39 860.11,-65.58"/>
<polygon fill="midnightblue" stroke="midnightblue" points="860.72,-69.03 870.07,-64.04 859.65,-62.11 860.72,-69.03"/>
</g>
<!-- Node20 -->
<g id="node20" class="node">
<title>Node20</title>
<g id="a_node20"><a xlink:href="classtklb_1_1_audio_buffer_tpl.html#af6df8d7e6840eee3f84807bd1662c3ed" target="_top" xlink:title="Returns the allocated length of the buffer.">
<polygon fill="none" stroke="black" points="843.5,-0.5 843.5,-30.5 957.5,-30.5 957.5,-0.5 843.5,-0.5"/>
<text text-anchor="start" x="851.5" y="-18.5" font-family="Helvetica,sans-Serif" font-size="10.00">tklb::AudioBufferTpl</text>
<text text-anchor="middle" x="900.5" y="-7.5" font-family="Helvetica,sans-Serif" font-size="10.00">::size</text>
</a>
</g>
</g>
<!-- Node17&#45;&gt;Node20 -->
<g id="edge20" class="edge">
<title>Node17&#45;&gt;Node20</title>
<path fill="none" stroke="midnightblue" d="M778.46,-68.35C797.23,-60.1 820.89,-49.72 842,-40.5 846.38,-38.59 850.96,-36.59 855.52,-34.6"/>
<polygon fill="midnightblue" stroke="midnightblue" points="857.06,-37.75 864.83,-30.55 854.26,-31.33 857.06,-37.75"/>
</g>
<!-- Node21&#45;&gt;Node9 -->
<g id="edge22" class="edge">
<title>Node21&#45;&gt;Node9</title>
<path fill="none" stroke="midnightblue" d="M785.59,-296.11C792.67,-298.61 799.74,-301.7 806,-305.5 839.76,-325.98 870.05,-361.36 886.5,-382.68"/>
<polygon fill="midnightblue" stroke="midnightblue" points="883.86,-385 892.68,-390.88 889.45,-380.78 883.86,-385"/>
</g>
</g>
</svg>
        <g id="navigator" transform="translate(0 0)" fill="#404254">
                <rect fill="#f2f5e9" fill-opacity="0.5" stroke="#606060" stroke-width=".5" x="0" y="0" width="60" height="60"/>
                <use id="zoomplus" xlink:href="#zoomPlus" x="17" y="9" onmousedown="handleZoom(evt,'in')"/>
                <use id="zoomminus" xlink:href="#zoomMin" x="42" y="9" onmousedown="handleZoom(evt,'out')"/>
                <use id="reset" xlink:href="#resetDef" x="30" y="36" onmousedown="handleReset()"/>
                <g id="arrowUp" xlink:href="#dirArrow" transform="translate(30 24)" onmousedown="handlePan(0,-1)">
                  <use xlink:href="#rim" fill="#404040">
                        <set attributeName="fill" to="#808080" begin="arrowUp.mouseover" end="arrowUp.mouseout"/>
                  </use>
                  <path fill="none" stroke="white" stroke-width="1.5" d="M0,-3.0v7 M-2.5,-0.5L0,-3.0L2.5,-0.5"/>
                </g>
                <g id="arrowRight" xlink:href="#dirArrow" transform="rotate(90) translate(36 -43)" onmousedown="handlePan(1,0)">
                  <use xlink:href="#rim" fill="#404040">
                        <set attributeName="fill" to="#808080" begin="arrowRight.mouseover" end="arrowRight.mouseout"/>
                  </use>
                  <path fill="none" stroke="white" stroke-width="1.5" d="M0,-3.0v7 M-2.5,-0.5L0,-3.0L2.5,-0.5"/>
                </g>
                <g id="arrowDown" xlink:href="#dirArrow" transform="rotate(180) translate(-30 -48)" onmousedown="handlePan(0,1)">
                  <use xlink:href="#rim" fill="#404040">
                        <set attributeName="fill" to="#808080" begin="arrowDown.mouseover" end="arrowDown.mouseout"/>
                  </use>
                  <path fill="none" stroke="white" stroke-width="1.5" d="M0,-3.0v7 M-2.5,-0.5L0,-3.0L2.5,-0.5"/>
                </g>
                <g id="arrowLeft" xlink:href="#dirArrow" transform="rotate(270) translate(-36 17)" onmousedown="handlePan(-1,0)">
                  <use xlink:href="#rim" fill="#404040">
                        <set attributeName="fill" to="#808080" begin="arrowLeft.mouseover" end="arrowLeft.mouseout"/>
                  </use>
                  <path fill="none" stroke="white" stroke-width="1.5" d="M0,-3.0v7 M-2.5,-0.5L0,-3.0L2.5,-0.5"/>
                </g>
        </g>
        <svg viewBox="0 0 15 15" width="100%" height="30px" preserveAspectRatio="xMaxYMin meet">
         <g id="arrow_out" transform="scale(0.3 0.3)">
          <a xlink:href="classvae_1_1_engine_pimpl_a27d216a0e4169074b38559d77b876748_cgraph_org.svg" target="_base">
           <rect id="button" ry="5" rx="5" y="6" x="6" height="38" width="38"
                fill="#f2f5e9" fill-opacity="0.5" stroke="#606060" stroke-width="1.0"/>
           <path id="arrow"
             d="M 11.500037,31.436501 C 11.940474,20.09759 22.043105,11.32322 32.158766,21.979434 L 37.068811,17.246167 C 37.068811,17.246167 37.088388,32 37.088388,32 L 22.160133,31.978069 C 22.160133,31.978069 26.997745,27.140456 26.997745,27.140456 C 18.528582,18.264221 13.291696,25.230495 11.500037,31.436501 z"
             style="fill:#404040;"/>
          </a>
         </g>
        </svg>
</svg>
