<?xml version="1.0" encoding="UTF-8" standalone="no"?>
<!DOCTYPE svg PUBLIC "-//W3C//DTD SVG 1.1//EN"
 "http://www.w3.org/Graphics/SVG/1.1/DTD/svg11.dtd">
<!-- Generated by graphviz version 2.50.0 (0)
 -->
<!-- Title: tklb::HeapBuffer::closestChunkSize Pages: 1 -->
<svg width="303pt" height="66pt"
 viewBox="0.00 0.00 303.00 66.00" xmlns="http://www.w3.org/2000/svg" xmlns:xlink="http://www.w3.org/1999/xlink">
<g id="graph0" class="graph" transform="scale(1 1) rotate(0) translate(4 62)">
<title>tklb::HeapBuffer::closestChunkSize</title>
<!-- Node1 -->
<g id="node1" class="node">
<title>Node1</title>
<g id="a_node1"><a xlink:title=" ">
<polygon fill="#bfbfbf" stroke="black" points="0,-14 0,-44 137,-44 137,-14 0,-14"/>
<text text-anchor="start" x="8" y="-32" font-family="Helvetica,sans-Serif" font-size="10.00">tklb::HeapBuffer::closest</text>
<text text-anchor="middle" x="68.5" y="-21" font-family="Helvetica,sans-Serif" font-size="10.00">ChunkSize</text>
</a>
</g>
</g>
<!-- Node2 -->
<g id="node2" class="node">
<title>Node2</title>
<g id="a_node2"><a xlink:href="namespacetklb.html#a7dc2203e89c331e3c85b9e7f16fa6763" target="_top" xlink:title=" ">
<polygon fill="none" stroke="black" points="202.5,-38.5 202.5,-57.5 265.5,-57.5 265.5,-38.5 202.5,-38.5"/>
<text text-anchor="middle" x="234" y="-45.5" font-family="Helvetica,sans-Serif" font-size="10.00">tklb::max</text>
</a>
</g>
</g>
<!-- Node1&#45;&gt;Node2 -->
<g id="edge1" class="edge">
<title>Node1&#45;&gt;Node2</title>
<path fill="none" stroke="midnightblue" d="M137.42,-36.89C155.99,-39.05 175.54,-41.32 192.08,-43.25"/>
<polygon fill="midnightblue" stroke="midnightblue" points="192.14,-46.78 202.48,-44.45 192.95,-39.82 192.14,-46.78"/>
</g>
<!-- Node3 -->
<g id="node3" class="node">
<title>Node3</title>
<g id="a_node3"><a xlink:href="classtklb_1_1_heap_buffer.html#a172cd1dde86d1f3b0308fb0ce4a1758a" target="_top" xlink:title="Returns the amount of elements in the container.">
<polygon fill="none" stroke="black" points="173,-0.5 173,-19.5 295,-19.5 295,-0.5 173,-0.5"/>
<text text-anchor="middle" x="234" y="-7.5" font-family="Helvetica,sans-Serif" font-size="10.00">tklb::HeapBuffer::size</text>
</a>
</g>
</g>
<!-- Node1&#45;&gt;Node3 -->
<g id="edge2" class="edge">
<title>Node1&#45;&gt;Node3</title>
<path fill="none" stroke="midnightblue" d="M137.42,-21.11C145.78,-20.14 154.33,-19.14 162.73,-18.17"/>
<polygon fill="midnightblue" stroke="midnightblue" points="163.33,-21.62 172.86,-16.99 162.52,-14.67 163.33,-21.62"/>
</g>
</g>
</svg>
