<?xml version="1.0" encoding="UTF-8" standalone="no"?>
<!DOCTYPE svg PUBLIC "-//W3C//DTD SVG 1.1//EN"
 "http://www.w3.org/Graphics/SVG/1.1/DTD/svg11.dtd">
<!-- Generated by graphviz version 2.50.0 (0)
 -->
<!-- Title: vae::core::effect::EffectsList Pages: 1 -->
<svg width="252pt" height="397pt"
 viewBox="0.00 0.00 252.00 397.00" xmlns="http://www.w3.org/2000/svg" xmlns:xlink="http://www.w3.org/1999/xlink">
<g id="graph0" class="graph" transform="scale(1 1) rotate(0) translate(4 393)">
<title>vae::core::effect::EffectsList</title>
<!-- Node1 -->
<g id="node1" class="node">
<title>Node1</title>
<g id="a_node1"><a xlink:title=" ">
<polygon fill="#bfbfbf" stroke="black" points="20.5,-0.5 20.5,-90.5 122.5,-90.5 122.5,-0.5 20.5,-0.5"/>
<text text-anchor="start" x="28.5" y="-78.5" font-family="Helvetica,sans-Serif" font-size="10.00">vae::core::effect::</text>
<text text-anchor="middle" x="71.5" y="-67.5" font-family="Helvetica,sans-Serif" font-size="10.00">EffectsList</text>
<polyline fill="none" stroke="black" points="20.5,-60.5 122.5,-60.5 "/>
<text text-anchor="middle" x="71.5" y="-48.5" font-family="Helvetica,sans-Serif" font-size="10.00"> </text>
<polyline fill="none" stroke="black" points="20.5,-41.5 122.5,-41.5 "/>
<text text-anchor="start" x="28.5" y="-29.5" font-family="Helvetica,sans-Serif" font-size="10.00">+ add()</text>
<text text-anchor="start" x="28.5" y="-18.5" font-family="Helvetica,sans-Serif" font-size="10.00">+ instance()</text>
<text text-anchor="start" x="28.5" y="-7.5" font-family="Helvetica,sans-Serif" font-size="10.00">&#45; EffectsList()</text>
</a>
</g>
</g>
<!-- Node2 -->
<g id="node2" class="node">
<title>Node2</title>
<g id="a_node2"><a xlink:title=" ">
<polygon fill="none" stroke="#bfbfbf" points="0,-144 0,-201 45,-201 45,-144 0,-144"/>
<text text-anchor="middle" x="22.5" y="-189" font-family="Helvetica,sans-Serif" font-size="10.00">friend</text>
<polyline fill="none" stroke="#bfbfbf" points="0,-182 45,-182 "/>
<text text-anchor="middle" x="22.5" y="-170" font-family="Helvetica,sans-Serif" font-size="10.00"> </text>
<polyline fill="none" stroke="#bfbfbf" points="0,-163 45,-163 "/>
<text text-anchor="middle" x="22.5" y="-151" font-family="Helvetica,sans-Serif" font-size="10.00"> </text>
</a>
</g>
</g>
<!-- Node2&#45;&gt;Node1 -->
<g id="edge1" class="edge">
<title>Node2&#45;&gt;Node1</title>
<path fill="none" stroke="#404040" d="M24.53,-143.82C25.95,-132.74 28.38,-120.01 32.5,-109 33.43,-106.52 34.46,-104.03 35.58,-101.55"/>
<polygon fill="none" stroke="#404040" points="35.58,-101.54 34.67,-94.39 40.93,-90.8 41.84,-97.95 35.58,-101.54"/>
<text text-anchor="middle" x="70.5" y="-112" font-family="Helvetica,sans-Serif" font-size="10.00"> &#45;EffectsFactory</text>
</g>
<!-- Node3 -->
<g id="node3" class="node">
<title>Node3</title>
<g id="a_node3"><a xlink:href="structvae_1_1core_1_1effect_1_1_effects_list_1_1_registered_effect.html" target="_top" xlink:title=" ">
<polygon fill="none" stroke="black" points="63,-138.5 63,-206.5 218,-206.5 218,-138.5 63,-138.5"/>
<text text-anchor="start" x="71" y="-194.5" font-family="Helvetica,sans-Serif" font-size="10.00">vae::core::effect::</text>
<text text-anchor="middle" x="140.5" y="-183.5" font-family="Helvetica,sans-Serif" font-size="10.00">EffectsList::RegisteredEffect</text>
<polyline fill="none" stroke="black" points="63,-176.5 218,-176.5 "/>
<text text-anchor="middle" x="140.5" y="-164.5" font-family="Helvetica,sans-Serif" font-size="10.00"> </text>
<polyline fill="none" stroke="black" points="63,-157.5 218,-157.5 "/>
<text text-anchor="middle" x="140.5" y="-145.5" font-family="Helvetica,sans-Serif" font-size="10.00"> </text>
</a>
</g>
</g>
<!-- Node3&#45;&gt;Node1 -->
<g id="edge2" class="edge">
<title>Node3&#45;&gt;Node1</title>
<path fill="none" stroke="#404040" d="M123.94,-138.22C119.08,-128.72 113.68,-118.39 108.5,-109 107.11,-106.48 105.68,-103.92 104.22,-101.34"/>
<polygon fill="none" stroke="#404040" points="104.08,-101.1 97.63,-97.89 98.12,-90.69 104.57,-93.91 104.08,-101.1"/>
<text text-anchor="middle" x="140" y="-112" font-family="Helvetica,sans-Serif" font-size="10.00"> &#45;mEffects</text>
</g>
<!-- Node4 -->
<g id="node4" class="node">
<title>Node4</title>
<g id="a_node4"><a xlink:title=" ">
<polygon fill="none" stroke="#bfbfbf" points="74.5,-293 74.5,-350 112.5,-350 112.5,-293 74.5,-293"/>
<text text-anchor="middle" x="93.5" y="-338" font-family="Helvetica,sans-Serif" font-size="10.00">char</text>
<polyline fill="none" stroke="#bfbfbf" points="74.5,-331 112.5,-331 "/>
<text text-anchor="middle" x="93.5" y="-319" font-family="Helvetica,sans-Serif" font-size="10.00"> </text>
<polyline fill="none" stroke="#bfbfbf" points="74.5,-312 112.5,-312 "/>
<text text-anchor="middle" x="93.5" y="-300" font-family="Helvetica,sans-Serif" font-size="10.00"> </text>
</a>
</g>
</g>
<!-- Node4&#45;&gt;Node3 -->
<g id="edge3" class="edge">
<title>Node4&#45;&gt;Node3</title>
<path fill="none" stroke="#404040" d="M102.34,-292.85C109.06,-271.84 118.44,-242.5 126.22,-218.17"/>
<polygon fill="none" stroke="#404040" points="126.23,-218.12 124.25,-211.18 129.89,-206.69 131.87,-213.62 126.23,-218.12"/>
<text text-anchor="middle" x="143.5" y="-228" font-family="Helvetica,sans-Serif" font-size="10.00"> +name</text>
</g>
<!-- Node5 -->
<g id="node5" class="node">
<title>Node5</title>
<g id="a_node5"><a xlink:href="classvae_1_1core_1_1effect_1_1_effect_base.html" target="_top" xlink:title="Base for all effects.">
<polygon fill="none" stroke="black" points="131,-254.5 131,-388.5 244,-388.5 244,-254.5 131,-254.5"/>
<text text-anchor="start" x="139" y="-376.5" font-family="Helvetica,sans-Serif" font-size="10.00">vae::core::effect::</text>
<text text-anchor="middle" x="187.5" y="-365.5" font-family="Helvetica,sans-Serif" font-size="10.00">EffectBase</text>
<polyline fill="none" stroke="black" points="131,-358.5 244,-358.5 "/>
<text text-anchor="middle" x="187.5" y="-346.5" font-family="Helvetica,sans-Serif" font-size="10.00"> </text>
<polyline fill="none" stroke="black" points="131,-339.5 244,-339.5 "/>
<text text-anchor="start" x="139" y="-327.5" font-family="Helvetica,sans-Serif" font-size="10.00">+ init()</text>
<text text-anchor="start" x="139" y="-316.5" font-family="Helvetica,sans-Serif" font-size="10.00">+ getNumInputs()</text>
<text text-anchor="start" x="139" y="-305.5" font-family="Helvetica,sans-Serif" font-size="10.00">+ getNumOutputs()</text>
<text text-anchor="start" x="139" y="-294.5" font-family="Helvetica,sans-Serif" font-size="10.00">+ instanceClear()</text>
<text text-anchor="start" x="139" y="-283.5" font-family="Helvetica,sans-Serif" font-size="10.00">+ process()</text>
<text text-anchor="start" x="139" y="-272.5" font-family="Helvetica,sans-Serif" font-size="10.00">+ EffectBase()</text>
<text text-anchor="start" x="139" y="-261.5" font-family="Helvetica,sans-Serif" font-size="10.00">+ ~EffectBase()</text>
</a>
</g>
</g>
<!-- Node5&#45;&gt;Node3 -->
<g id="edge4" class="edge">
<title>Node5&#45;&gt;Node3</title>
<path fill="none" stroke="#404040" d="M174.33,-254.44C171.76,-244.47 168.81,-234.39 165.5,-225 164.66,-222.62 163.74,-220.21 162.77,-217.79"/>
<polygon fill="none" stroke="#404040" points="162.67,-217.56 156.61,-213.65 157.89,-206.55 163.95,-210.46 162.67,-217.56"/>
<text text-anchor="middle" x="199" y="-228" font-family="Helvetica,sans-Serif" font-size="10.00"> +construtor</text>
</g>
</g>
</svg>
