<?xml version="1.0" encoding="UTF-8" standalone="no"?>
<!DOCTYPE svg PUBLIC "-//W3C//DTD SVG 1.1//EN"
 "http://www.w3.org/Graphics/SVG/1.1/DTD/svg11.dtd">
<!-- Generated by graphviz version 2.50.0 (0)
 -->
<!-- Title: tklb::AudioBufferTpl::putInterleaved Pages: 1 -->
<svg width="509pt" height="100pt"
 viewBox="0.00 0.00 509.00 99.50" xmlns="http://www.w3.org/2000/svg" xmlns:xlink="http://www.w3.org/1999/xlink">
<g id="graph0" class="graph" transform="scale(1 1) rotate(0) translate(4 95.5)">
<title>tklb::AudioBufferTpl::putInterleaved</title>
<!-- Node1 -->
<g id="node1" class="node">
<title>Node1</title>
<g id="a_node1"><a xlink:title="Puts the interleaved contents in the target buffer.">
<polygon fill="#bfbfbf" stroke="black" points="387,-33 387,-63 501,-63 501,-33 387,-33"/>
<text text-anchor="start" x="395" y="-51" font-family="Helvetica,sans-Serif" font-size="10.00">tklb::AudioBufferTpl</text>
<text text-anchor="middle" x="444" y="-40" font-family="Helvetica,sans-Serif" font-size="10.00">::putInterleaved</text>
</a>
</g>
</g>
<!-- Node2 -->
<g id="node2" class="node">
<title>Node2</title>
<g id="a_node2"><a xlink:href="classvae_1_1core_1_1_engine.html#a124d5e48809bafb4acaed429aaa07920" target="_top" xlink:title=" ">
<polygon fill="none" stroke="black" points="210,-61 210,-91 317,-91 317,-61 210,-61"/>
<text text-anchor="start" x="218" y="-79" font-family="Helvetica,sans-Serif" font-size="10.00">vae::core::Engine::</text>
<text text-anchor="middle" x="263.5" y="-68" font-family="Helvetica,sans-Serif" font-size="10.00">process</text>
</a>
</g>
</g>
<!-- Node1&#45;&gt;Node2 -->
<g id="edge1" class="edge">
<title>Node1&#45;&gt;Node2</title>
<path fill="none" stroke="midnightblue" d="M376.47,-58.44C356.93,-61.5 335.83,-64.81 317.27,-67.72"/>
<polygon fill="midnightblue" stroke="midnightblue" points="377.18,-61.87 386.52,-56.86 376.1,-54.95 377.18,-61.87"/>
</g>
<!-- Node3 -->
<g id="node3" class="node">
<title>Node3</title>
<g id="a_node3"><a xlink:href="structvae_1_1core_1_1_device_1_1_audio_thread_worker.html#a1d6ad75314a363dbb773c16aecb21326" target="_top" xlink:title="Called from audio backend to push in interleaved audio data.">
<polygon fill="none" stroke="black" points="176,-0.5 176,-41.5 351,-41.5 351,-0.5 176,-0.5"/>
<text text-anchor="start" x="184" y="-29.5" font-family="Helvetica,sans-Serif" font-size="10.00">vae::core::Device::</text>
<text text-anchor="start" x="184" y="-18.5" font-family="Helvetica,sans-Serif" font-size="10.00">AudioThreadWorker::swapBuffer</text>
<text text-anchor="middle" x="263.5" y="-7.5" font-family="Helvetica,sans-Serif" font-size="10.00">Interleaved</text>
</a>
</g>
</g>
<!-- Node1&#45;&gt;Node3 -->
<g id="edge2" class="edge">
<title>Node1&#45;&gt;Node3</title>
<path fill="none" stroke="midnightblue" d="M376.6,-37.96C368.33,-36.71 359.78,-35.41 351.27,-34.12"/>
<polygon fill="midnightblue" stroke="midnightblue" points="376.11,-41.42 386.52,-39.46 377.16,-34.5 376.11,-41.42"/>
</g>
<!-- Node4 -->
<g id="node4" class="node">
<title>Node4</title>
<g id="a_node4"><a xlink:href="classvae_1_1core_1_1_device_dummy.html#ac4105d62f1ae237fd9bb8d8bd8dda6a6" target="_top" xlink:title="Simulate the callback from the audio device.">
<polygon fill="none" stroke="black" points="0,-6 0,-36 140,-36 140,-6 0,-6"/>
<text text-anchor="start" x="8" y="-24" font-family="Helvetica,sans-Serif" font-size="10.00">vae::core::DeviceDummy</text>
<text text-anchor="middle" x="70" y="-13" font-family="Helvetica,sans-Serif" font-size="10.00">::swapBufferInterleaved</text>
</a>
</g>
</g>
<!-- Node3&#45;&gt;Node4 -->
<g id="edge3" class="edge">
<title>Node3&#45;&gt;Node4</title>
<path fill="none" stroke="midnightblue" d="M165.85,-21C157.19,-21 148.54,-21 140.19,-21"/>
<polygon fill="midnightblue" stroke="midnightblue" points="165.99,-24.5 175.99,-21 165.99,-17.5 165.99,-24.5"/>
</g>
</g>
</svg>
