<?xml version="1.0" encoding="UTF-8" standalone="no"?>
<!DOCTYPE svg PUBLIC "-//W3C//DTD SVG 1.1//EN"
 "http://www.w3.org/Graphics/SVG/1.1/DTD/svg11.dtd">
<!-- Generated by graphviz version 2.50.0 (0)
 -->
<!-- Title: vae::core::effect::VAEReverb::instanceResetUserInterface Pages: 1 -->
<svg width="484pt" height="50pt"
 viewBox="0.00 0.00 484.00 50.00" xmlns="http://www.w3.org/2000/svg" xmlns:xlink="http://www.w3.org/1999/xlink">
<g id="graph0" class="graph" transform="scale(1 1) rotate(0) translate(4 46)">
<title>vae::core::effect::VAEReverb::instanceResetUserInterface</title>
<!-- Node1 -->
<g id="node1" class="node">
<title>Node1</title>
<g id="a_node1"><a xlink:title=" ">
<polygon fill="#bfbfbf" stroke="black" points="308,-0.5 308,-41.5 476,-41.5 476,-0.5 308,-0.5"/>
<text text-anchor="start" x="316" y="-29.5" font-family="Helvetica,sans-Serif" font-size="10.00">vae::core::effect::</text>
<text text-anchor="start" x="316" y="-18.5" font-family="Helvetica,sans-Serif" font-size="10.00">VAEReverb::instanceResetUser</text>
<text text-anchor="middle" x="392" y="-7.5" font-family="Helvetica,sans-Serif" font-size="10.00">Interface</text>
</a>
</g>
</g>
<!-- Node2 -->
<g id="node2" class="node">
<title>Node2</title>
<g id="a_node2"><a xlink:href="classvae_1_1core_1_1effect_1_1_v_a_e_reverb.html#a7587eee0cdff91d848bb8a6037dfcaaf" target="_top" xlink:title=" ">
<polygon fill="none" stroke="black" points="138,-6 138,-36 272,-36 272,-6 138,-6"/>
<text text-anchor="start" x="146" y="-24" font-family="Helvetica,sans-Serif" font-size="10.00">vae::core::effect::</text>
<text text-anchor="middle" x="205" y="-13" font-family="Helvetica,sans-Serif" font-size="10.00">VAEReverb::instanceInit</text>
</a>
</g>
</g>
<!-- Node1&#45;&gt;Node2 -->
<g id="edge1" class="edge">
<title>Node1&#45;&gt;Node2</title>
<path fill="none" stroke="midnightblue" d="M297.81,-21C289.14,-21 280.47,-21 272.12,-21"/>
<polygon fill="midnightblue" stroke="midnightblue" points="297.97,-24.5 307.97,-21 297.97,-17.5 297.97,-24.5"/>
</g>
<!-- Node3 -->
<g id="node3" class="node">
<title>Node3</title>
<g id="a_node3"><a xlink:href="classvae_1_1core_1_1effect_1_1_v_a_e_reverb.html#aba24bf1a4b7c32dec24037c0c9623a02" target="_top" xlink:title="Init dsp and clear state.">
<polygon fill="none" stroke="black" points="0,-6 0,-36 102,-36 102,-6 0,-6"/>
<text text-anchor="start" x="8" y="-24" font-family="Helvetica,sans-Serif" font-size="10.00">vae::core::effect::</text>
<text text-anchor="middle" x="51" y="-13" font-family="Helvetica,sans-Serif" font-size="10.00">VAEReverb::init</text>
</a>
</g>
</g>
<!-- Node2&#45;&gt;Node3 -->
<g id="edge2" class="edge">
<title>Node2&#45;&gt;Node3</title>
<path fill="none" stroke="midnightblue" d="M127.6,-21C118.91,-21 110.22,-21 102,-21"/>
<polygon fill="midnightblue" stroke="midnightblue" points="127.77,-24.5 137.77,-21 127.77,-17.5 127.77,-24.5"/>
</g>
</g>
</svg>
