<?xml version="1.0" encoding="UTF-8" standalone="no"?>
<!DOCTYPE svg PUBLIC "-//W3C//DTD SVG 1.1//EN"
 "http://www.w3.org/Graphics/SVG/1.1/DTD/svg11.dtd">
<!-- Generated by graphviz version 2.50.0 (0)
 -->
<!-- Title: tklb::memory::MemoryPool Pages: 1 -->
<svg width="340pt" height="369pt"
 viewBox="0.00 0.00 340.00 369.00" xmlns="http://www.w3.org/2000/svg" xmlns:xlink="http://www.w3.org/1999/xlink">
<g id="graph0" class="graph" transform="scale(1 1) rotate(0) translate(4 365)">
<title>tklb::memory::MemoryPool</title>
<!-- Node1 -->
<g id="node1" class="node">
<title>Node1</title>
<g id="a_node1"><a xlink:title="Memory pool interface.">
<polygon fill="#bfbfbf" stroke="black" points="87,-149.5 87,-360.5 236,-360.5 236,-149.5 87,-149.5"/>
<text text-anchor="middle" x="161.5" y="-348.5" font-family="Helvetica,sans-Serif" font-size="10.00">tklb::memory::MemoryPool</text>
<polyline fill="none" stroke="black" points="87,-341.5 236,-341.5 "/>
<text text-anchor="start" x="95" y="-329.5" font-family="Helvetica,sans-Serif" font-size="10.00"># mPool</text>
<text text-anchor="start" x="95" y="-318.5" font-family="Helvetica,sans-Serif" font-size="10.00"># DEFAULT_ALIGN</text>
<polyline fill="none" stroke="black" points="87,-311.5 236,-311.5 "/>
<text text-anchor="start" x="95" y="-299.5" font-family="Helvetica,sans-Serif" font-size="10.00">+ MemoryPool()</text>
<text text-anchor="start" x="95" y="-288.5" font-family="Helvetica,sans-Serif" font-size="10.00">+ ~MemoryPool()</text>
<text text-anchor="start" x="95" y="-277.5" font-family="Helvetica,sans-Serif" font-size="10.00">+ getAllocated()</text>
<text text-anchor="start" x="95" y="-266.5" font-family="Helvetica,sans-Serif" font-size="10.00">+ getTotalSize()</text>
<text text-anchor="start" x="95" y="-255.5" font-family="Helvetica,sans-Serif" font-size="10.00">+ allocate()</text>
<text text-anchor="start" x="95" y="-244.5" font-family="Helvetica,sans-Serif" font-size="10.00">+ deallocate()</text>
<text text-anchor="start" x="95" y="-233.5" font-family="Helvetica,sans-Serif" font-size="10.00">+ reallocate()</text>
<text text-anchor="start" x="95" y="-222.5" font-family="Helvetica,sans-Serif" font-size="10.00">+ clearallocate()</text>
<text text-anchor="start" x="95" y="-211.5" font-family="Helvetica,sans-Serif" font-size="10.00">+ create()</text>
<text text-anchor="start" x="95" y="-200.5" font-family="Helvetica,sans-Serif" font-size="10.00">+ createArray()</text>
<text text-anchor="start" x="95" y="-189.5" font-family="Helvetica,sans-Serif" font-size="10.00">+ dispose()</text>
<text text-anchor="start" x="95" y="-178.5" font-family="Helvetica,sans-Serif" font-size="10.00">+ disposeArray()</text>
<text text-anchor="start" x="95" y="-167.5" font-family="Helvetica,sans-Serif" font-size="10.00">+ deallocateAligned()</text>
<text text-anchor="start" x="95" y="-156.5" font-family="Helvetica,sans-Serif" font-size="10.00">+ allocateAligned()</text>
</a>
</g>
</g>
<!-- Node2 -->
<g id="node2" class="node">
<title>Node2</title>
<g id="a_node2"><a xlink:href="classtklb_1_1memory_1_1_memory_pool_stack.html" target="_top" xlink:title="Stack based pool.">
<polygon fill="none" stroke="black" points="0,-6 0,-107 149,-107 149,-6 0,-6"/>
<text text-anchor="start" x="8" y="-95" font-family="Helvetica,sans-Serif" font-size="10.00">tklb::memory::MemoryPool</text>
<text text-anchor="middle" x="74.5" y="-84" font-family="Helvetica,sans-Serif" font-size="10.00">Stack</text>
<polyline fill="none" stroke="black" points="0,-77 149,-77 "/>
<text text-anchor="middle" x="74.5" y="-65" font-family="Helvetica,sans-Serif" font-size="10.00"> </text>
<polyline fill="none" stroke="black" points="0,-58 149,-58 "/>
<text text-anchor="start" x="8" y="-46" font-family="Helvetica,sans-Serif" font-size="10.00">+ MemoryPoolStack()</text>
<text text-anchor="start" x="8" y="-35" font-family="Helvetica,sans-Serif" font-size="10.00">+ allocate()</text>
<text text-anchor="start" x="8" y="-24" font-family="Helvetica,sans-Serif" font-size="10.00">+ deallocate()</text>
<text text-anchor="start" x="8" y="-13" font-family="Helvetica,sans-Serif" font-size="10.00">+ reallocate()</text>
</a>
</g>
</g>
<!-- Node1&#45;&gt;Node2 -->
<g id="edge1" class="edge">
<title>Node1&#45;&gt;Node2</title>
<path fill="none" stroke="midnightblue" d="M111.11,-140.18C106.03,-128.72 101.08,-117.54 96.55,-107.31"/>
<polygon fill="none" stroke="midnightblue" points="107.95,-141.69 115.2,-149.42 114.35,-138.86 107.95,-141.69"/>
</g>
<!-- Node3 -->
<g id="node3" class="node">
<title>Node3</title>
<g id="a_node3"><a xlink:href="classtklb_1_1memory_1_1_memory_pool_std.html" target="_top" xlink:title="Pool which proxies allocations to the stdlib.">
<polygon fill="none" stroke="black" points="167,-0.5 167,-112.5 332,-112.5 332,-0.5 167,-0.5"/>
<text text-anchor="middle" x="249.5" y="-100.5" font-family="Helvetica,sans-Serif" font-size="10.00">tklb::memory::MemoryPoolStd</text>
<polyline fill="none" stroke="black" points="167,-93.5 332,-93.5 "/>
<text text-anchor="start" x="175" y="-81.5" font-family="Helvetica,sans-Serif" font-size="10.00">&#45; mDummyPool</text>
<text text-anchor="start" x="175" y="-70.5" font-family="Helvetica,sans-Serif" font-size="10.00">&#45; mAllocate</text>
<polyline fill="none" stroke="black" points="167,-63.5 332,-63.5 "/>
<text text-anchor="start" x="175" y="-51.5" font-family="Helvetica,sans-Serif" font-size="10.00">+ allocate()</text>
<text text-anchor="start" x="175" y="-40.5" font-family="Helvetica,sans-Serif" font-size="10.00">+ deallocate()</text>
<text text-anchor="start" x="175" y="-29.5" font-family="Helvetica,sans-Serif" font-size="10.00">+ reallocate()</text>
<text text-anchor="start" x="175" y="-18.5" font-family="Helvetica,sans-Serif" font-size="10.00">+ instance()</text>
<text text-anchor="start" x="175" y="-7.5" font-family="Helvetica,sans-Serif" font-size="10.00">&#45; MemoryPoolStd()</text>
</a>
</g>
</g>
<!-- Node1&#45;&gt;Node3 -->
<g id="edge2" class="edge">
<title>Node1&#45;&gt;Node3</title>
<path fill="none" stroke="midnightblue" d="M212.43,-140.27C216.69,-130.77 220.85,-121.47 224.76,-112.74"/>
<polygon fill="none" stroke="midnightblue" points="209.23,-138.86 208.33,-149.42 215.62,-141.73 209.23,-138.86"/>
</g>
</g>
</svg>
