<?xml version="1.0" encoding="UTF-8" standalone="no"?>
<!DOCTYPE svg PUBLIC "-//W3C//DTD SVG 1.1//EN"
 "http://www.w3.org/Graphics/SVG/1.1/DTD/svg11.dtd">
<!-- Generated by graphviz version 2.50.0 (0)
 -->
<!-- Title: vae::core::effect::VAEReverb::instanceInit Pages: 1 -->
<svg width="346pt" height="149pt"
 viewBox="0.00 0.00 346.00 148.50" xmlns="http://www.w3.org/2000/svg" xmlns:xlink="http://www.w3.org/1999/xlink">
<g id="graph0" class="graph" transform="scale(1 1) rotate(0) translate(4 144.5)">
<title>vae::core::effect::VAEReverb::instanceInit</title>
<!-- Node1 -->
<g id="node1" class="node">
<title>Node1</title>
<g id="a_node1"><a xlink:title=" ">
<polygon fill="#bfbfbf" stroke="black" points="0,-61 0,-91 134,-91 134,-61 0,-61"/>
<text text-anchor="start" x="8" y="-79" font-family="Helvetica,sans-Serif" font-size="10.00">vae::core::effect::</text>
<text text-anchor="middle" x="67" y="-68" font-family="Helvetica,sans-Serif" font-size="10.00">VAEReverb::instanceInit</text>
</a>
</g>
</g>
<!-- Node2 -->
<g id="node2" class="node">
<title>Node2</title>
<g id="a_node2"><a xlink:href="classvae_1_1core_1_1effect_1_1_v_a_e_reverb.html#a57766590bc02dad44d0a66c3af37d6a5" target="_top" xlink:title="Reset dsp state delay lines and so on.">
<polygon fill="none" stroke="black" points="182.5,-110 182.5,-140 325.5,-140 325.5,-110 182.5,-110"/>
<text text-anchor="start" x="190.5" y="-128" font-family="Helvetica,sans-Serif" font-size="10.00">vae::core::effect::</text>
<text text-anchor="middle" x="254" y="-117" font-family="Helvetica,sans-Serif" font-size="10.00">VAEReverb::instanceClear</text>
</a>
</g>
</g>
<!-- Node1&#45;&gt;Node2 -->
<g id="edge1" class="edge">
<title>Node1&#45;&gt;Node2</title>
<path fill="none" stroke="midnightblue" d="M124.76,-91.03C144.3,-96.21 166.34,-102.05 186.58,-107.41"/>
<polygon fill="midnightblue" stroke="midnightblue" points="185.78,-110.82 196.34,-109.99 187.57,-104.05 185.78,-110.82"/>
</g>
<!-- Node3 -->
<g id="node3" class="node">
<title>Node3</title>
<g id="a_node3"><a xlink:href="classvae_1_1core_1_1effect_1_1_v_a_e_reverb.html#ab6291a5ccf43acf790b8eab1d1956f22" target="_top" xlink:title=" ">
<polygon fill="none" stroke="black" points="170.5,-61 170.5,-91 337.5,-91 337.5,-61 170.5,-61"/>
<text text-anchor="start" x="178.5" y="-79" font-family="Helvetica,sans-Serif" font-size="10.00">vae::core::effect::</text>
<text text-anchor="middle" x="254" y="-68" font-family="Helvetica,sans-Serif" font-size="10.00">VAEReverb::instanceConstants</text>
</a>
</g>
</g>
<!-- Node1&#45;&gt;Node3 -->
<g id="edge2" class="edge">
<title>Node1&#45;&gt;Node3</title>
<path fill="none" stroke="midnightblue" d="M134.01,-76C142.43,-76 151.18,-76 159.94,-76"/>
<polygon fill="midnightblue" stroke="midnightblue" points="160.2,-79.5 170.2,-76 160.2,-72.5 160.2,-79.5"/>
</g>
<!-- Node4 -->
<g id="node4" class="node">
<title>Node4</title>
<g id="a_node4"><a xlink:href="classvae_1_1core_1_1effect_1_1_v_a_e_reverb.html#a8b767747d50e482a694fbd167fa059bd" target="_top" xlink:title=" ">
<polygon fill="none" stroke="black" points="170,-0.5 170,-41.5 338,-41.5 338,-0.5 170,-0.5"/>
<text text-anchor="start" x="178" y="-29.5" font-family="Helvetica,sans-Serif" font-size="10.00">vae::core::effect::</text>
<text text-anchor="start" x="178" y="-18.5" font-family="Helvetica,sans-Serif" font-size="10.00">VAEReverb::instanceResetUser</text>
<text text-anchor="middle" x="254" y="-7.5" font-family="Helvetica,sans-Serif" font-size="10.00">Interface</text>
</a>
</g>
</g>
<!-- Node1&#45;&gt;Node4 -->
<g id="edge3" class="edge">
<title>Node1&#45;&gt;Node4</title>
<path fill="none" stroke="midnightblue" d="M118.55,-60.97C135.68,-55.88 155.24,-50.06 174.04,-44.47"/>
<polygon fill="midnightblue" stroke="midnightblue" points="175.2,-47.78 183.78,-41.58 173.2,-41.07 175.2,-47.78"/>
</g>
</g>
</svg>
