<?xml version="1.0" encoding="UTF-8" standalone="no"?>
<!DOCTYPE svg PUBLIC "-//W3C//DTD SVG 1.1//EN"
 "http://www.w3.org/Graphics/SVG/1.1/DTD/svg11.dtd">
<!-- Generated by graphviz version 2.50.0 (0)
 -->
<!-- Title: vae::core::VoiceManger Pages: 1 -->
<svg width="311pt" height="402pt"
 viewBox="0.00 0.00 311.00 402.00" xmlns="http://www.w3.org/2000/svg" xmlns:xlink="http://www.w3.org/1999/xlink">
<g id="graph0" class="graph" transform="scale(1 1) rotate(0) translate(4 398)">
<title>vae::core::VoiceManger</title>
<!-- Node1 -->
<g id="node1" class="node">
<title>Node1</title>
<g id="a_node1"><a xlink:title="There is only one voice pool and VAE and it&#39;s managed here.">
<polygon fill="#bfbfbf" stroke="black" points="40,-0.5 40,-200.5 178,-200.5 178,-0.5 40,-0.5"/>
<text text-anchor="middle" x="109" y="-188.5" font-family="Helvetica,sans-Serif" font-size="10.00">vae::core::VoiceManger</text>
<polyline fill="none" stroke="black" points="40,-181.5 178,-181.5 "/>
<text text-anchor="middle" x="109" y="-169.5" font-family="Helvetica,sans-Serif" font-size="10.00"> </text>
<polyline fill="none" stroke="black" points="40,-162.5 178,-162.5 "/>
<text text-anchor="start" x="48" y="-150.5" font-family="Helvetica,sans-Serif" font-size="10.00">+ init()</text>
<text text-anchor="start" x="48" y="-139.5" font-family="Helvetica,sans-Serif" font-size="10.00">+ all()</text>
<text text-anchor="start" x="48" y="-128.5" font-family="Helvetica,sans-Serif" font-size="10.00">+ finished()</text>
<text text-anchor="start" x="48" y="-117.5" font-family="Helvetica,sans-Serif" font-size="10.00">+ getActiveVoiceCount()</text>
<text text-anchor="start" x="48" y="-106.5" font-family="Helvetica,sans-Serif" font-size="10.00">+ forEachVoice()</text>
<text text-anchor="start" x="48" y="-95.5" font-family="Helvetica,sans-Serif" font-size="10.00">+ forEachFinishedVoice()</text>
<text text-anchor="start" x="48" y="-84.5" font-family="Helvetica,sans-Serif" font-size="10.00">+ getVoicePan()</text>
<text text-anchor="start" x="48" y="-73.5" font-family="Helvetica,sans-Serif" font-size="10.00">+ getVoiceFilter()</text>
<text text-anchor="start" x="48" y="-62.5" font-family="Helvetica,sans-Serif" font-size="10.00">+ play()</text>
<text text-anchor="start" x="48" y="-51.5" font-family="Helvetica,sans-Serif" font-size="10.00">+ makeVirtual()</text>
<text text-anchor="start" x="48" y="-40.5" font-family="Helvetica,sans-Serif" font-size="10.00">+ stop()</text>
<text text-anchor="start" x="48" y="-29.5" font-family="Helvetica,sans-Serif" font-size="10.00">+ stop()</text>
<text text-anchor="start" x="48" y="-18.5" font-family="Helvetica,sans-Serif" font-size="10.00">+ setVoiceProperty()</text>
<text text-anchor="start" x="48" y="-7.5" font-family="Helvetica,sans-Serif" font-size="10.00">+ setVoiceProperty()</text>
</a>
</g>
</g>
<!-- Node2 -->
<g id="node2" class="node">
<title>Node2</title>
<g id="a_node2"><a xlink:title=" ">
<polygon fill="none" stroke="#bfbfbf" points="0,-336.5 0,-393.5 80,-393.5 80,-336.5 0,-336.5"/>
<text text-anchor="middle" x="40" y="-381.5" font-family="Helvetica,sans-Serif" font-size="10.00">HeapBuffer&lt;</text>
<polyline fill="none" stroke="#bfbfbf" points="0,-374.5 80,-374.5 "/>
<text text-anchor="middle" x="40" y="-362.5" font-family="Helvetica,sans-Serif" font-size="10.00"> </text>
<polyline fill="none" stroke="#bfbfbf" points="0,-355.5 80,-355.5 "/>
<text text-anchor="middle" x="40" y="-343.5" font-family="Helvetica,sans-Serif" font-size="10.00"> </text>
</a>
</g>
</g>
<!-- Node2&#45;&gt;Node1 -->
<g id="edge1" class="edge">
<title>Node2&#45;&gt;Node1</title>
<path fill="none" stroke="#404040" d="M36.06,-336.44C32.78,-306.85 30.19,-258.71 41,-219 41.63,-216.7 42.31,-214.39 43.05,-212.09"/>
<polygon fill="none" stroke="#404040" points="43.11,-211.92 41.34,-204.93 47.12,-200.61 48.88,-207.61 43.11,-211.92"/>
<text text-anchor="middle" x="98.5" y="-288" font-family="Helvetica,sans-Serif" font-size="10.00"> &#45;mFinishedVoiceQueue</text>
<text text-anchor="middle" x="98.5" y="-277" font-family="Helvetica,sans-Serif" font-size="10.00">&#45;mVirtualVoices</text>
<text text-anchor="middle" x="98.5" y="-266" font-family="Helvetica,sans-Serif" font-size="10.00">&#45;mVoiceFiltered</text>
<text text-anchor="middle" x="98.5" y="-255" font-family="Helvetica,sans-Serif" font-size="10.00">&#45;mVoicePans</text>
<text text-anchor="middle" x="98.5" y="-244" font-family="Helvetica,sans-Serif" font-size="10.00">&#45;mVoices</text>
</g>
<!-- Node3 -->
<g id="node3" class="node">
<title>Node3</title>
<g id="a_node3"><a xlink:title=" ">
<polygon fill="none" stroke="#bfbfbf" points="163.5,-336.5 163.5,-393.5 192.5,-393.5 192.5,-336.5 163.5,-336.5"/>
<text text-anchor="middle" x="178" y="-381.5" font-family="Helvetica,sans-Serif" font-size="10.00">int</text>
<polyline fill="none" stroke="#bfbfbf" points="163.5,-374.5 192.5,-374.5 "/>
<text text-anchor="middle" x="178" y="-362.5" font-family="Helvetica,sans-Serif" font-size="10.00"> </text>
<polyline fill="none" stroke="#bfbfbf" points="163.5,-355.5 192.5,-355.5 "/>
<text text-anchor="middle" x="178" y="-343.5" font-family="Helvetica,sans-Serif" font-size="10.00"> </text>
</a>
</g>
</g>
<!-- Node3&#45;&gt;Node1 -->
<g id="edge2" class="edge">
<title>Node3&#45;&gt;Node1</title>
<path fill="none" stroke="#404040" d="M175.71,-336.35C172.83,-306.88 166.89,-259.05 156,-219 155.38,-216.73 154.74,-214.45 154.06,-212.16"/>
<polygon fill="none" stroke="#404040" points="154.05,-212.1 148.45,-207.56 150.49,-200.64 156.09,-205.19 154.05,-212.1"/>
<text text-anchor="middle" x="238" y="-310" font-family="Helvetica,sans-Serif" font-size="10.00"> &#45;mActiveHRTFVoices</text>
<text text-anchor="middle" x="238" y="-299" font-family="Helvetica,sans-Serif" font-size="10.00">&#45;mActiveVoices</text>
<text text-anchor="middle" x="238" y="-288" font-family="Helvetica,sans-Serif" font-size="10.00">&#45;mFinishedPending</text>
<text text-anchor="middle" x="238" y="-277" font-family="Helvetica,sans-Serif" font-size="10.00">&#45;mHRTFVoiceCount</text>
<text text-anchor="middle" x="238" y="-266" font-family="Helvetica,sans-Serif" font-size="10.00">&#45;mHighestFinishedVoice</text>
<text text-anchor="middle" x="238" y="-255" font-family="Helvetica,sans-Serif" font-size="10.00">&#45;mHighestVoice</text>
<text text-anchor="middle" x="238" y="-244" font-family="Helvetica,sans-Serif" font-size="10.00">&#45;mInactiveVoices</text>
<text text-anchor="middle" x="238" y="-233" font-family="Helvetica,sans-Serif" font-size="10.00">&#45;mStarvedVoices</text>
<text text-anchor="middle" x="238" y="-222" font-family="Helvetica,sans-Serif" font-size="10.00">&#45;mStoppedQueueOverflow</text>
</g>
</g>
</svg>
