<?xml version="1.0" encoding="UTF-8" standalone="no"?>
<!DOCTYPE svg PUBLIC "-//W3C//DTD SVG 1.1//EN"
 "http://www.w3.org/Graphics/SVG/1.1/DTD/svg11.dtd">
<!-- Generated by graphviz version 2.50.0 (0)
 -->
<!-- Title: vae::core::VoiceManger::stop Pages: 1 -->
<!--zoomable 488 -->
<svg id="main" version="1.1" xmlns="http://www.w3.org/2000/svg" xmlns:xlink="http://www.w3.org/1999/xlink" xml:space="preserve" onload="init(evt)">
<style type="text/css"><![CDATA[
.edge:hover path { stroke: red; }
.edge:hover polygon { stroke: red; fill: red; }
]]></style>
<script type="text/javascript"><![CDATA[
var edges = document.getElementsByTagName('g');
if (edges && edges.length) {
  for (var i=0;i<edges.length;i++) {
    if (edges[i].id.substr(0,4)=='edge') {
      edges[i].setAttribute('class','edge');
    }
  }
}
]]></script>
        <defs>
                <circle id="rim" cx="0" cy="0" r="7"/>
                <circle id="rim2" cx="0" cy="0" r="3.5"/>
                <g id="zoomPlus">
                        <use xlink:href="#rim" fill="#404040">
                                <set attributeName="fill" to="#808080" begin="zoomplus.mouseover" end="zoomplus.mouseout"/>
                        </use>
                        <path d="M-4,0h8M0,-4v8" fill="none" stroke="white" stroke-width="1.5" pointer-events="none"/>
                </g>
                <g id="zoomMin">
                        <use xlink:href="#rim" fill="#404040">
                                <set attributeName="fill" to="#808080" begin="zoomminus.mouseover" end="zoomminus.mouseout"/>
                        </use>
                        <path d="M-4,0h8" fill="none" stroke="white" stroke-width="1.5" pointer-events="none"/>
                </g>
                <g id="dirArrow">
                        <path fill="none" stroke="white" stroke-width="1.5" d="M0,-3.0v7 M-2.5,-0.5L0,-3.0L2.5,-0.5"/>
                </g>
               <g id="resetDef">
                       <use xlink:href="#rim2" fill="#404040">
                               <set attributeName="fill" to="#808080" begin="reset.mouseover" end="reset.mouseout"/>
                       </use>
               </g>
        </defs>

<script type="text/javascript">
var viewWidth = 1154;
var viewHeight = 488;
var sectionId = 'dynsection-13';
</script>
<script xlink:href="svgpan.js"/>
<svg id="graph" class="graph">
<g id="viewport">
<title>vae::core::VoiceManger::stop</title>
<!-- Node1 -->
<g id="node1" class="node">
<title>Node1</title>
<g id="a_node1"><a xlink:title="Stops a voice.">
<polygon fill="#bfbfbf" stroke="black" points="1017,-122.5 1017,-152.5 1146,-152.5 1146,-122.5 1017,-122.5"/>
<text text-anchor="start" x="1025" y="-140.5" font-family="Helvetica,sans-Serif" font-size="10.00">vae::core::VoiceManger</text>
<text text-anchor="middle" x="1081.5" y="-129.5" font-family="Helvetica,sans-Serif" font-size="10.00">::stop</text>
</a>
</g>
</g>
<!-- Node2 -->
<g id="node2" class="node">
<title>Node2</title>
<g id="a_node2"><a xlink:href="classvae_1_1core_1_1_engine.html#a4721a2bf236efae669ee51ba148e193a" target="_top" xlink:title="Main mechanism to start and stop sounds.">
<polygon fill="none" stroke="black" points="863,-342.5 863,-372.5 970,-372.5 970,-342.5 863,-342.5"/>
<text text-anchor="start" x="871" y="-360.5" font-family="Helvetica,sans-Serif" font-size="10.00">vae::core::Engine::</text>
<text text-anchor="middle" x="916.5" y="-349.5" font-family="Helvetica,sans-Serif" font-size="10.00">fireEvent</text>
</a>
</g>
</g>
<!-- Node1&#45;&gt;Node2 -->
<g id="edge1" class="edge">
<title>Node1&#45;&gt;Node2</title>
<path fill="none" stroke="midnightblue" d="M1063.14,-160.93C1029.61,-206.19 956.78,-304.48 928.78,-342.27"/>
<polygon fill="midnightblue" stroke="midnightblue" points="1066.16,-162.74 1069.3,-152.62 1060.53,-158.57 1066.16,-162.74"/>
</g>
<!-- Node17 -->
<g id="node17" class="node">
<title>Node17</title>
<g id="a_node17"><a xlink:href="classvae_1_1core_1_1_voice_manger.html#a9df59537b8863e7f8add0eb11553942a" target="_top" xlink:title="Callback provided to iterate voices, needs to return a bool to indicate when a voice needs to be stop...">
<polygon fill="none" stroke="black" points="852,-147.5 852,-177.5 981,-177.5 981,-147.5 852,-147.5"/>
<text text-anchor="start" x="860" y="-165.5" font-family="Helvetica,sans-Serif" font-size="10.00">vae::core::VoiceManger</text>
<text text-anchor="middle" x="916.5" y="-154.5" font-family="Helvetica,sans-Serif" font-size="10.00">::forEachVoice</text>
</a>
</g>
</g>
<!-- Node1&#45;&gt;Node17 -->
<g id="edge21" class="edge">
<title>Node1&#45;&gt;Node17</title>
<path fill="none" stroke="midnightblue" d="M1006.59,-148.84C998.05,-150.15 989.39,-151.47 981,-152.76"/>
<polygon fill="midnightblue" stroke="midnightblue" points="1007.19,-152.28 1016.55,-147.31 1006.13,-145.37 1007.19,-152.28"/>
</g>
<!-- Node20 -->
<g id="node20" class="node">
<title>Node20</title>
<g id="a_node20"><a xlink:href="classvae_1_1core_1_1_engine.html#abb865b15d89996cc1fe51bcd9089443f" target="_top" xlink:title="Unregister a emiter an kill all its voices.">
<polygon fill="none" stroke="black" points="863,-98.5 863,-128.5 970,-128.5 970,-98.5 863,-98.5"/>
<text text-anchor="start" x="871" y="-116.5" font-family="Helvetica,sans-Serif" font-size="10.00">vae::core::Engine::</text>
<text text-anchor="middle" x="916.5" y="-105.5" font-family="Helvetica,sans-Serif" font-size="10.00">removeEmitter</text>
</a>
</g>
</g>
<!-- Node1&#45;&gt;Node20 -->
<g id="edge27" class="edge">
<title>Node1&#45;&gt;Node20</title>
<path fill="none" stroke="midnightblue" d="M1006.38,-126.59C994.18,-124.79 981.76,-122.96 970.23,-121.26"/>
<polygon fill="midnightblue" stroke="midnightblue" points="1006.14,-130.09 1016.55,-128.08 1007.16,-123.16 1006.14,-130.09"/>
</g>
<!-- Node22 -->
<g id="node22" class="node">
<title>Node22</title>
<g id="a_node22"><a xlink:href="classvae_1_1core_1_1_voice_manger.html#a2a7b9612c7a656a0a0978d6a8498c04b" target="_top" xlink:title="Stop voice based on a member value and optionally an emitter.">
<polygon fill="none" stroke="black" points="852,-49.5 852,-79.5 981,-79.5 981,-49.5 852,-49.5"/>
<text text-anchor="start" x="860" y="-67.5" font-family="Helvetica,sans-Serif" font-size="10.00">vae::core::VoiceManger</text>
<text text-anchor="middle" x="916.5" y="-56.5" font-family="Helvetica,sans-Serif" font-size="10.00">::stop</text>
</a>
</g>
</g>
<!-- Node1&#45;&gt;Node22 -->
<g id="edge29" class="edge">
<title>Node1&#45;&gt;Node22</title>
<path fill="none" stroke="midnightblue" d="M1041.57,-117.89C1023.32,-108.91 1001.2,-98.33 981,-89.5 973.29,-86.13 964.98,-82.71 956.98,-79.52"/>
<polygon fill="midnightblue" stroke="midnightblue" points="1040.21,-121.12 1050.73,-122.42 1043.31,-114.85 1040.21,-121.12"/>
</g>
<!-- Node23 -->
<g id="node23" class="node">
<title>Node23</title>
<g id="a_node23"><a xlink:href="classvae_1_1core_1_1_engine.html#afbff0864c479d3e2d12ff92ab23429ae" target="_top" xlink:title="Stop all voices from emitter.">
<polygon fill="none" stroke="black" points="863,-0.5 863,-30.5 970,-30.5 970,-0.5 863,-0.5"/>
<text text-anchor="start" x="871" y="-18.5" font-family="Helvetica,sans-Serif" font-size="10.00">vae::core::Engine::</text>
<text text-anchor="middle" x="916.5" y="-7.5" font-family="Helvetica,sans-Serif" font-size="10.00">stopEmitter</text>
</a>
</g>
</g>
<!-- Node1&#45;&gt;Node23 -->
<g id="edge30" class="edge">
<title>Node1&#45;&gt;Node23</title>
<path fill="none" stroke="midnightblue" d="M1062.05,-114.43C1043.54,-92.58 1013.23,-60.14 981,-39.5 975.84,-36.2 970.15,-33.24 964.37,-30.64"/>
<polygon fill="midnightblue" stroke="midnightblue" points="1059.45,-116.78 1068.54,-122.23 1064.84,-112.31 1059.45,-116.78"/>
</g>
<!-- Node25 -->
<g id="node25" class="node">
<title>Node25</title>
<g id="a_node25"><a xlink:href="classvae_1_1core_1_1_engine.html#abea30c08570fa87a026542a8c2abdc4e" target="_top" xlink:title="Unload bank from handle.">
<polygon fill="none" stroke="black" points="863,-209.5 863,-239.5 970,-239.5 970,-209.5 863,-209.5"/>
<text text-anchor="start" x="871" y="-227.5" font-family="Helvetica,sans-Serif" font-size="10.00">vae::core::Engine::</text>
<text text-anchor="middle" x="916.5" y="-216.5" font-family="Helvetica,sans-Serif" font-size="10.00">unloadBankFromId</text>
</a>
</g>
</g>
<!-- Node1&#45;&gt;Node25 -->
<g id="edge32" class="edge">
<title>Node1&#45;&gt;Node25</title>
<path fill="none" stroke="midnightblue" d="M1042.92,-157.56C1013.33,-173.35 972.74,-195.02 945.84,-209.37"/>
<polygon fill="midnightblue" stroke="midnightblue" points="1044.93,-160.45 1052.11,-152.65 1041.64,-154.28 1044.93,-160.45"/>
</g>
<!-- Node2&#45;&gt;Node2 -->
<g id="edge3" class="edge">
<title>Node2&#45;&gt;Node2</title>
<path fill="none" stroke="midnightblue" d="M945.64,-382.96C942.02,-387.68 932.31,-391 916.5,-391 890.55,-391 881.03,-382.06 887.92,-372.66"/>
<polygon fill="midnightblue" stroke="midnightblue" points="949.12,-382.45 945.08,-372.66 942.13,-382.83 949.12,-382.45"/>
</g>
<!-- Node3 -->
<g id="node3" class="node">
<title>Node3</title>
<g id="a_node3"><a xlink:href="classvae_1_1_engine_pimpl.html#ad8012513afde9dd3bb976b5440858bef" target="_top" xlink:title="Main mechanism to start and stop sounds.">
<polygon fill="none" stroke="black" points="653.5,-417 653.5,-436 805.5,-436 805.5,-417 653.5,-417"/>
<text text-anchor="middle" x="729.5" y="-424" font-family="Helvetica,sans-Serif" font-size="10.00">vae::EnginePimpl::fireEvent</text>
</a>
</g>
</g>
<!-- Node2&#45;&gt;Node3 -->
<g id="edge2" class="edge">
<title>Node2&#45;&gt;Node3</title>
<path fill="none" stroke="midnightblue" d="M880.67,-377.67C861.99,-387.8 838.28,-399.56 816,-407.5 805.54,-411.22 794.1,-414.37 783.08,-416.96"/>
<polygon fill="midnightblue" stroke="midnightblue" points="882.61,-380.6 889.68,-372.7 879.23,-374.47 882.61,-380.6"/>
</g>
<!-- Node4 -->
<g id="node4" class="node">
<title>Node4</title>
<g id="a_node4"><a xlink:href="classvae_1_1core_1_1_engine.html#a11a6ae8ce62130f33dad382a4e4cf07e" target="_top" xlink:title="Works like fireEvent but with a global Event identifier.">
<polygon fill="none" stroke="black" points="676,-367.5 676,-397.5 783,-397.5 783,-367.5 676,-367.5"/>
<text text-anchor="start" x="684" y="-385.5" font-family="Helvetica,sans-Serif" font-size="10.00">vae::core::Engine::</text>
<text text-anchor="middle" x="729.5" y="-374.5" font-family="Helvetica,sans-Serif" font-size="10.00">fireGlobalEvent</text>
</a>
</g>
</g>
<!-- Node2&#45;&gt;Node4 -->
<g id="edge4" class="edge">
<title>Node2&#45;&gt;Node4</title>
<path fill="none" stroke="midnightblue" d="M852.79,-365.97C830.15,-369.03 804.84,-372.45 783.15,-375.39"/>
<polygon fill="midnightblue" stroke="midnightblue" points="853.54,-369.4 862.98,-364.6 852.6,-362.47 853.54,-369.4"/>
</g>
<!-- Node10 -->
<g id="node10" class="node">
<title>Node10</title>
<g id="a_node10"><a xlink:href="classvae_1_1core_1_1_engine.html#adb4e1cb3bd1ea11bb9d3b806d552fb75" target="_top" xlink:title="Update function needs to be called regularly to handle outbound events and other housekeeping.">
<polygon fill="none" stroke="black" points="676,-318.5 676,-348.5 783,-348.5 783,-318.5 676,-318.5"/>
<text text-anchor="start" x="684" y="-336.5" font-family="Helvetica,sans-Serif" font-size="10.00">vae::core::Engine::</text>
<text text-anchor="middle" x="729.5" y="-325.5" font-family="Helvetica,sans-Serif" font-size="10.00">update</text>
</a>
</g>
</g>
<!-- Node2&#45;&gt;Node10 -->
<g id="edge10" class="edge">
<title>Node2&#45;&gt;Node10</title>
<path fill="none" stroke="midnightblue" d="M852.79,-349.36C830.15,-346.43 804.84,-343.14 783.15,-340.33"/>
<polygon fill="midnightblue" stroke="midnightblue" points="852.61,-352.87 862.98,-350.69 853.51,-345.93 852.61,-352.87"/>
</g>
<!-- Node5 -->
<g id="node5" class="node">
<title>Node5</title>
<g id="a_node5"><a xlink:href="main_8cpp.html#a7b09579eb01449ba8f8ac324485001c2" target="_top" xlink:title=" ">
<polygon fill="none" stroke="black" points="494,-335 494,-354 565,-354 565,-335 494,-335"/>
<text text-anchor="middle" x="529.5" y="-342" font-family="Helvetica,sans-Serif" font-size="10.00">benchmark</text>
</a>
</g>
</g>
<!-- Node4&#45;&gt;Node5 -->
<g id="edge5" class="edge">
<title>Node4&#45;&gt;Node5</title>
<path fill="none" stroke="midnightblue" d="M665.85,-370.48C632.57,-364.09 592.92,-356.48 565.17,-351.15"/>
<polygon fill="midnightblue" stroke="midnightblue" points="665.48,-373.97 675.96,-372.42 666.8,-367.09 665.48,-373.97"/>
</g>
<!-- Node6 -->
<g id="node6" class="node">
<title>Node6</title>
<g id="a_node6"><a xlink:href="main_8cpp.html#a6f5c91847864279624ba2247527e3cea" target="_top" xlink:title=" ">
<polygon fill="none" stroke="black" points="468,-373 468,-392 591,-392 591,-373 468,-373"/>
<text text-anchor="middle" x="529.5" y="-380" font-family="Helvetica,sans-Serif" font-size="10.00">benchmarkBasicVoice</text>
</a>
</g>
</g>
<!-- Node4&#45;&gt;Node6 -->
<g id="edge6" class="edge">
<title>Node4&#45;&gt;Node6</title>
<path fill="none" stroke="midnightblue" d="M665.92,-382.5C641.98,-382.5 614.74,-382.5 591,-382.5"/>
<polygon fill="midnightblue" stroke="midnightblue" points="665.96,-386 675.96,-382.5 665.96,-379 665.96,-386"/>
</g>
<!-- Node7 -->
<g id="node7" class="node">
<title>Node7</title>
<g id="a_node7"><a xlink:href="main_8cpp.html#afe1c3ff6204d9b675caf60b5545e3e54" target="_top" xlink:title=" ">
<polygon fill="none" stroke="black" points="190,-354 190,-373 249,-373 249,-354 190,-354"/>
<text text-anchor="middle" x="219.5" y="-361" font-family="Helvetica,sans-Serif" font-size="10.00">filterTest</text>
</a>
</g>
</g>
<!-- Node4&#45;&gt;Node7 -->
<g id="edge7" class="edge">
<title>Node4&#45;&gt;Node7</title>
<path fill="none" stroke="midnightblue" d="M665.83,-394.2C646.99,-397.2 626.22,-400.01 607,-401.5 538.32,-406.84 520.66,-407.1 452,-401.5 378.32,-395.49 292.75,-378.9 249.19,-369.76"/>
<polygon fill="midnightblue" stroke="midnightblue" points="666.48,-397.64 675.78,-392.57 665.35,-390.73 666.48,-397.64"/>
</g>
<!-- Node9 -->
<g id="node9" class="node">
<title>Node9</title>
<g id="a_node9"><a xlink:href="classvae_1_1_engine_pimpl.html#aee133a1fa8e89e70b4f7414c10d58c62" target="_top" xlink:title="Works like fireEvent but with a global Event identifier.">
<polygon fill="none" stroke="black" points="452,-449.5 452,-479.5 607,-479.5 607,-449.5 452,-449.5"/>
<text text-anchor="start" x="460" y="-467.5" font-family="Helvetica,sans-Serif" font-size="10.00">vae::EnginePimpl::fireGlobal</text>
<text text-anchor="middle" x="529.5" y="-456.5" font-family="Helvetica,sans-Serif" font-size="10.00">Event</text>
</a>
</g>
</g>
<!-- Node4&#45;&gt;Node9 -->
<g id="edge9" class="edge">
<title>Node4&#45;&gt;Node9</title>
<path fill="none" stroke="midnightblue" d="M666.13,-397.87C658.17,-400.66 650.28,-403.86 643,-407.5 625.11,-416.45 624.47,-424.76 607,-434.5 596.91,-440.13 585.54,-445.2 574.72,-449.5"/>
<polygon fill="midnightblue" stroke="midnightblue" points="667.42,-401.13 675.82,-394.68 665.23,-394.48 667.42,-401.13"/>
</g>
<!-- Node8 -->
<g id="node8" class="node">
<title>Node8</title>
<g id="a_node8"><a xlink:href="main_8cpp.html#ae66f6b31b5ad750f1fe042a706a4e3d4" target="_top" xlink:title=" ">
<polygon fill="none" stroke="black" points="44.5,-259 44.5,-278 85.5,-278 85.5,-259 44.5,-259"/>
<text text-anchor="middle" x="65" y="-266" font-family="Helvetica,sans-Serif" font-size="10.00">main</text>
</a>
</g>
</g>
<!-- Node7&#45;&gt;Node8 -->
<g id="edge8" class="edge">
<title>Node7&#45;&gt;Node8</title>
<path fill="none" stroke="midnightblue" d="M194.39,-348.48C162.75,-328.77 108.13,-294.75 81.5,-278.16"/>
<polygon fill="midnightblue" stroke="midnightblue" points="192.7,-351.55 203.04,-353.87 196.4,-345.61 192.7,-351.55"/>
</g>
<!-- Node10&#45;&gt;Node5 -->
<g id="edge11" class="edge">
<title>Node10&#45;&gt;Node5</title>
<path fill="none" stroke="midnightblue" d="M665.85,-336.98C632.57,-338.83 592.92,-341.03 565.17,-342.57"/>
<polygon fill="midnightblue" stroke="midnightblue" points="666.17,-340.47 675.96,-336.42 665.78,-333.48 666.17,-340.47"/>
</g>
<!-- Node10&#45;&gt;Node6 -->
<g id="edge12" class="edge">
<title>Node10&#45;&gt;Node6</title>
<path fill="none" stroke="midnightblue" d="M665.88,-349C634.15,-356.85 596.63,-366.13 569.15,-372.94"/>
<polygon fill="midnightblue" stroke="midnightblue" points="667.09,-352.3 675.96,-346.5 665.41,-345.51 667.09,-352.3"/>
</g>
<!-- Node11 -->
<g id="node11" class="node">
<title>Node11</title>
<g id="a_node11"><a xlink:href="classvae_1_1core_1_1_engine.html#afecf53f2eaf92d13a933c05c821b3819" target="_top" xlink:title="Main processing function.">
<polygon fill="none" stroke="black" points="476,-154.5 476,-184.5 583,-184.5 583,-154.5 476,-154.5"/>
<text text-anchor="start" x="484" y="-172.5" font-family="Helvetica,sans-Serif" font-size="10.00">vae::core::Engine::</text>
<text text-anchor="middle" x="529.5" y="-161.5" font-family="Helvetica,sans-Serif" font-size="10.00">process</text>
</a>
</g>
</g>
<!-- Node10&#45;&gt;Node11 -->
<g id="edge13" class="edge">
<title>Node10&#45;&gt;Node11</title>
<path fill="none" stroke="midnightblue" d="M702.36,-311.85C661.61,-278.1 583.98,-213.8 548.73,-184.6"/>
<polygon fill="midnightblue" stroke="midnightblue" points="700.29,-314.68 710.23,-318.37 704.76,-309.29 700.29,-314.68"/>
</g>
<!-- Node16 -->
<g id="node16" class="node">
<title>Node16</title>
<g id="a_node16"><a xlink:href="classvae_1_1_engine_pimpl.html#a8e9296021147373d9b8c415c460fe842" target="_top" xlink:title="Update function needs to be called regularly to handle outbound events and other housekeeping.">
<polygon fill="none" stroke="black" points="459,-297 459,-316 600,-316 600,-297 459,-297"/>
<text text-anchor="middle" x="529.5" y="-304" font-family="Helvetica,sans-Serif" font-size="10.00">vae::EnginePimpl::update</text>
</a>
</g>
</g>
<!-- Node10&#45;&gt;Node16 -->
<g id="edge20" class="edge">
<title>Node10&#45;&gt;Node16</title>
<path fill="none" stroke="midnightblue" d="M665.91,-324.96C644.97,-322.11 621.51,-318.91 600.08,-315.99"/>
<polygon fill="midnightblue" stroke="midnightblue" points="665.58,-328.45 675.96,-326.34 666.52,-321.52 665.58,-328.45"/>
</g>
<!-- Node12 -->
<g id="node12" class="node">
<title>Node12</title>
<g id="a_node12"><a xlink:href="classvae_1_1core_1_1_engine.html#ab31b2381a1d916efdcffe8db7971ce15" target="_top" xlink:title="Called from audio device when it needs more audio.">
<polygon fill="none" stroke="black" points="309,-154.5 309,-184.5 416,-184.5 416,-154.5 309,-154.5"/>
<text text-anchor="start" x="317" y="-172.5" font-family="Helvetica,sans-Serif" font-size="10.00">vae::core::Engine::</text>
<text text-anchor="middle" x="362.5" y="-161.5" font-family="Helvetica,sans-Serif" font-size="10.00">onBufferSwap</text>
</a>
</g>
</g>
<!-- Node11&#45;&gt;Node12 -->
<g id="edge14" class="edge">
<title>Node11&#45;&gt;Node12</title>
<path fill="none" stroke="midnightblue" d="M465.82,-169.5C449.47,-169.5 432.01,-169.5 416.23,-169.5"/>
<polygon fill="midnightblue" stroke="midnightblue" points="465.84,-173 475.84,-169.5 465.84,-166 465.84,-173"/>
</g>
<!-- Node15 -->
<g id="node15" class="node">
<title>Node15</title>
<g id="a_node15"><a xlink:href="classvae_1_1core_1_1_engine.html#aca852d5c0e30b0641582f175bf95fbea" target="_top" xlink:title="Called from own audio thread, not the device.">
<polygon fill="none" stroke="black" points="309,-203.5 309,-233.5 416,-233.5 416,-203.5 309,-203.5"/>
<text text-anchor="start" x="317" y="-221.5" font-family="Helvetica,sans-Serif" font-size="10.00">vae::core::Engine::</text>
<text text-anchor="middle" x="362.5" y="-210.5" font-family="Helvetica,sans-Serif" font-size="10.00">threadedProcess</text>
</a>
</g>
</g>
<!-- Node11&#45;&gt;Node15 -->
<g id="edge18" class="edge">
<title>Node11&#45;&gt;Node15</title>
<path fill="none" stroke="midnightblue" d="M468,-187.47C450.32,-192.72 431.19,-198.4 414.18,-203.45"/>
<polygon fill="midnightblue" stroke="midnightblue" points="469.06,-190.8 477.65,-184.6 467.07,-184.09 469.06,-190.8"/>
</g>
<!-- Node13 -->
<g id="node13" class="node">
<title>Node13</title>
<g id="a_node13"><a xlink:href="classvae_1_1core_1_1_engine.html#aa974f739b3f2dc8004eede720d01d229" target="_top" xlink:title="Tries to open default device and start audio thread.">
<polygon fill="none" stroke="black" points="166,-203.5 166,-233.5 273,-233.5 273,-203.5 166,-203.5"/>
<text text-anchor="start" x="174" y="-221.5" font-family="Helvetica,sans-Serif" font-size="10.00">vae::core::Engine::</text>
<text text-anchor="middle" x="219.5" y="-210.5" font-family="Helvetica,sans-Serif" font-size="10.00">start</text>
</a>
</g>
</g>
<!-- Node12&#45;&gt;Node13 -->
<g id="edge15" class="edge">
<title>Node12&#45;&gt;Node13</title>
<path fill="none" stroke="midnightblue" d="M308.58,-187.89C293.9,-192.99 278.13,-198.47 264.05,-203.36"/>
<polygon fill="midnightblue" stroke="midnightblue" points="309.75,-191.19 318.04,-184.6 307.45,-184.58 309.75,-191.19"/>
</g>
<!-- Node13&#45;&gt;Node8 -->
<g id="edge16" class="edge">
<title>Node13&#45;&gt;Node8</title>
<path fill="none" stroke="midnightblue" d="M162.96,-236.71C135.86,-245.59 104.99,-255.72 85.5,-262.11"/>
<polygon fill="midnightblue" stroke="midnightblue" points="164.33,-239.94 172.74,-233.5 162.15,-233.29 164.33,-239.94"/>
</g>
<!-- Node14 -->
<g id="node14" class="node">
<title>Node14</title>
<g id="a_node14"><a xlink:href="classvae_1_1_engine_pimpl.html#af773bc095b97e185c17b23a702572479" target="_top" xlink:title="Tries to open default device and start audio thread.">
<polygon fill="none" stroke="black" points="0,-209 0,-228 130,-228 130,-209 0,-209"/>
<text text-anchor="middle" x="65" y="-216" font-family="Helvetica,sans-Serif" font-size="10.00">vae::EnginePimpl::start</text>
</a>
</g>
</g>
<!-- Node13&#45;&gt;Node14 -->
<g id="edge17" class="edge">
<title>Node13&#45;&gt;Node14</title>
<path fill="none" stroke="midnightblue" d="M155.5,-218.5C147.12,-218.5 138.52,-218.5 130.11,-218.5"/>
<polygon fill="midnightblue" stroke="midnightblue" points="155.59,-222 165.59,-218.5 155.59,-215 155.59,-222"/>
</g>
<!-- Node15&#45;&gt;Node13 -->
<g id="edge19" class="edge">
<title>Node15&#45;&gt;Node13</title>
<path fill="none" stroke="midnightblue" d="M298.95,-218.5C290.3,-218.5 281.49,-218.5 273.05,-218.5"/>
<polygon fill="midnightblue" stroke="midnightblue" points="299,-222 309,-218.5 299,-215 299,-222"/>
</g>
<!-- Node18 -->
<g id="node18" class="node">
<title>Node18</title>
<g id="a_node18"><a xlink:href="classvae_1_1core_1_1_processor.html#a3ad452ff4deb16a37907fd5fd6390f85" target="_top" xlink:title="Process a single bank.">
<polygon fill="none" stroke="black" points="659.5,-115 659.5,-134 799.5,-134 799.5,-115 659.5,-115"/>
<text text-anchor="middle" x="729.5" y="-122" font-family="Helvetica,sans-Serif" font-size="10.00">vae::core::Processor::mix</text>
</a>
</g>
</g>
<!-- Node17&#45;&gt;Node18 -->
<g id="edge22" class="edge">
<title>Node17&#45;&gt;Node18</title>
<path fill="none" stroke="midnightblue" d="M841.86,-147.37C819.9,-142.86 796.45,-138.05 776.76,-134"/>
<polygon fill="midnightblue" stroke="midnightblue" points="841.33,-150.84 851.83,-149.42 842.74,-143.98 841.33,-150.84"/>
</g>
<!-- Node19 -->
<g id="node19" class="node">
<title>Node19</title>
<g id="a_node19"><a xlink:href="classvae_1_1core_1_1_spatial_processor.html#a9acbf42573db468c02381dadb81f3fcd" target="_top" xlink:title="Process a single bank.">
<polygon fill="none" stroke="black" points="643,-153 643,-172 816,-172 816,-153 643,-153"/>
<text text-anchor="middle" x="729.5" y="-160" font-family="Helvetica,sans-Serif" font-size="10.00">vae::core::SpatialProcessor::mix</text>
</a>
</g>
</g>
<!-- Node17&#45;&gt;Node19 -->
<g id="edge24" class="edge">
<title>Node17&#45;&gt;Node19</title>
<path fill="none" stroke="midnightblue" d="M841.72,-162.5C833.32,-162.5 824.71,-162.5 816.18,-162.5"/>
<polygon fill="midnightblue" stroke="midnightblue" points="841.83,-166 851.83,-162.5 841.83,-159 841.83,-166"/>
</g>
<!-- Node18&#45;&gt;Node11 -->
<g id="edge23" class="edge">
<title>Node18&#45;&gt;Node11</title>
<path fill="none" stroke="midnightblue" d="M674.99,-136.32C664.39,-138.68 653.34,-141.16 643,-143.5 623.45,-147.93 602.01,-152.87 583.13,-157.24"/>
<polygon fill="midnightblue" stroke="midnightblue" points="675.99,-139.68 684.99,-134.09 674.47,-132.85 675.99,-139.68"/>
</g>
<!-- Node19&#45;&gt;Node11 -->
<g id="edge26" class="edge">
<title>Node19&#45;&gt;Node11</title>
<path fill="none" stroke="midnightblue" d="M632.78,-165.88C615.7,-166.49 598.49,-167.1 583.19,-167.64"/>
<polygon fill="midnightblue" stroke="midnightblue" points="632.94,-169.38 642.81,-165.53 632.69,-162.39 632.94,-169.38"/>
</g>
<!-- Node19&#45;&gt;Node19 -->
<g id="edge25" class="edge">
<title>Node19&#45;&gt;Node19</title>
<path fill="none" stroke="midnightblue" d="M764.36,-180.39C763.85,-186.04 752.23,-190.5 729.5,-190.5 696.44,-190.5 686.89,-181.07 700.83,-172.26"/>
<polygon fill="midnightblue" stroke="midnightblue" points="767.01,-178.1 758.17,-172.26 761.44,-182.33 767.01,-178.1"/>
</g>
<!-- Node21 -->
<g id="node21" class="node">
<title>Node21</title>
<g id="a_node21"><a xlink:href="classvae_1_1_engine_pimpl.html#ac099c7622ce0ac5cf6b7bd78e79e5d27" target="_top" xlink:title="Unregister a emiter an kill all its voices.">
<polygon fill="none" stroke="black" points="657,-65.5 657,-95.5 802,-95.5 802,-65.5 657,-65.5"/>
<text text-anchor="start" x="665" y="-83.5" font-family="Helvetica,sans-Serif" font-size="10.00">vae::EnginePimpl::remove</text>
<text text-anchor="middle" x="729.5" y="-72.5" font-family="Helvetica,sans-Serif" font-size="10.00">Emitter</text>
</a>
</g>
</g>
<!-- Node20&#45;&gt;Node21 -->
<g id="edge28" class="edge">
<title>Node20&#45;&gt;Node21</title>
<path fill="none" stroke="midnightblue" d="M853.01,-102.35C836.67,-99.44 818.92,-96.27 802.15,-93.28"/>
<polygon fill="midnightblue" stroke="midnightblue" points="852.52,-105.82 862.98,-104.13 853.75,-98.93 852.52,-105.82"/>
</g>
<!-- Node24 -->
<g id="node24" class="node">
<title>Node24</title>
<g id="a_node24"><a xlink:href="classvae_1_1_engine_pimpl.html#add7390f50b78d7ace8ccebc9fa84f6bc" target="_top" xlink:title="Stop all voices from emitter.">
<polygon fill="none" stroke="black" points="647.5,-6 647.5,-25 811.5,-25 811.5,-6 647.5,-6"/>
<text text-anchor="middle" x="729.5" y="-13" font-family="Helvetica,sans-Serif" font-size="10.00">vae::EnginePimpl::stopEmitter</text>
</a>
</g>
</g>
<!-- Node23&#45;&gt;Node24 -->
<g id="edge31" class="edge">
<title>Node23&#45;&gt;Node24</title>
<path fill="none" stroke="midnightblue" d="M852.6,-15.5C839.39,-15.5 825.27,-15.5 811.5,-15.5"/>
<polygon fill="midnightblue" stroke="midnightblue" points="852.98,-19 862.98,-15.5 852.98,-12 852.98,-19"/>
</g>
<!-- Node25&#45;&gt;Node8 -->
<g id="edge33" class="edge">
<title>Node25&#45;&gt;Node8</title>
<path fill="none" stroke="midnightblue" d="M853.45,-241.91C841.13,-244.85 828.22,-247.57 816,-249.5 690.38,-269.3 657.67,-268.5 530.5,-268.5 530.5,-268.5 530.5,-268.5 361.5,-268.5 257.61,-268.5 133.18,-268.5 85.71,-268.5"/>
<polygon fill="midnightblue" stroke="midnightblue" points="854.32,-245.3 863.19,-239.52 852.65,-238.51 854.32,-245.3"/>
</g>
<!-- Node26 -->
<g id="node26" class="node">
<title>Node26</title>
<g id="a_node26"><a xlink:href="classvae_1_1_engine_pimpl.html#ac6486cc1ff31aeacf852766bb6890f10" target="_top" xlink:title="Unload bank from handle.">
<polygon fill="none" stroke="black" points="659.5,-209.5 659.5,-239.5 799.5,-239.5 799.5,-209.5 659.5,-209.5"/>
<text text-anchor="start" x="667.5" y="-227.5" font-family="Helvetica,sans-Serif" font-size="10.00">vae::EnginePimpl::unload</text>
<text text-anchor="middle" x="729.5" y="-216.5" font-family="Helvetica,sans-Serif" font-size="10.00">BankFromId</text>
</a>
</g>
</g>
<!-- Node25&#45;&gt;Node26 -->
<g id="edge34" class="edge">
<title>Node25&#45;&gt;Node26</title>
<path fill="none" stroke="midnightblue" d="M852.61,-224.5C835.59,-224.5 817.09,-224.5 799.75,-224.5"/>
<polygon fill="midnightblue" stroke="midnightblue" points="852.98,-228 862.98,-224.5 852.98,-221 852.98,-228"/>
</g>
</g>
</svg>
        <g id="navigator" transform="translate(0 0)" fill="#404254">
                <rect fill="#f2f5e9" fill-opacity="0.5" stroke="#606060" stroke-width=".5" x="0" y="0" width="60" height="60"/>
                <use id="zoomplus" xlink:href="#zoomPlus" x="17" y="9" onmousedown="handleZoom(evt,'in')"/>
                <use id="zoomminus" xlink:href="#zoomMin" x="42" y="9" onmousedown="handleZoom(evt,'out')"/>
                <use id="reset" xlink:href="#resetDef" x="30" y="36" onmousedown="handleReset()"/>
                <g id="arrowUp" xlink:href="#dirArrow" transform="translate(30 24)" onmousedown="handlePan(0,-1)">
                  <use xlink:href="#rim" fill="#404040">
                        <set attributeName="fill" to="#808080" begin="arrowUp.mouseover" end="arrowUp.mouseout"/>
                  </use>
                  <path fill="none" stroke="white" stroke-width="1.5" d="M0,-3.0v7 M-2.5,-0.5L0,-3.0L2.5,-0.5"/>
                </g>
                <g id="arrowRight" xlink:href="#dirArrow" transform="rotate(90) translate(36 -43)" onmousedown="handlePan(1,0)">
                  <use xlink:href="#rim" fill="#404040">
                        <set attributeName="fill" to="#808080" begin="arrowRight.mouseover" end="arrowRight.mouseout"/>
                  </use>
                  <path fill="none" stroke="white" stroke-width="1.5" d="M0,-3.0v7 M-2.5,-0.5L0,-3.0L2.5,-0.5"/>
                </g>
                <g id="arrowDown" xlink:href="#dirArrow" transform="rotate(180) translate(-30 -48)" onmousedown="handlePan(0,1)">
                  <use xlink:href="#rim" fill="#404040">
                        <set attributeName="fill" to="#808080" begin="arrowDown.mouseover" end="arrowDown.mouseout"/>
                  </use>
                  <path fill="none" stroke="white" stroke-width="1.5" d="M0,-3.0v7 M-2.5,-0.5L0,-3.0L2.5,-0.5"/>
                </g>
                <g id="arrowLeft" xlink:href="#dirArrow" transform="rotate(270) translate(-36 17)" onmousedown="handlePan(-1,0)">
                  <use xlink:href="#rim" fill="#404040">
                        <set attributeName="fill" to="#808080" begin="arrowLeft.mouseover" end="arrowLeft.mouseout"/>
                  </use>
                  <path fill="none" stroke="white" stroke-width="1.5" d="M0,-3.0v7 M-2.5,-0.5L0,-3.0L2.5,-0.5"/>
                </g>
        </g>
        <svg viewBox="0 0 15 15" width="100%" height="30px" preserveAspectRatio="xMaxYMin meet">
         <g id="arrow_out" transform="scale(0.3 0.3)">
          <a xlink:href="classvae_1_1core_1_1_voice_manger_a51b077f535b7eebcc1e62d5ca5a0d95d_icgraph_org.svg" target="_base">
           <rect id="button" ry="5" rx="5" y="6" x="6" height="38" width="38"
                fill="#f2f5e9" fill-opacity="0.5" stroke="#606060" stroke-width="1.0"/>
           <path id="arrow"
             d="M 11.500037,31.436501 C 11.940474,20.09759 22.043105,11.32322 32.158766,21.979434 L 37.068811,17.246167 C 37.068811,17.246167 37.088388,32 37.088388,32 L 22.160133,31.978069 C 22.160133,31.978069 26.997745,27.140456 26.997745,27.140456 C 18.528582,18.264221 13.291696,25.230495 11.500037,31.436501 z"
             style="fill:#404040;"/>
          </a>
         </g>
        </svg>
</svg>
