<?xml version="1.0" encoding="UTF-8" standalone="no"?>
<!DOCTYPE svg PUBLIC "-//W3C//DTD SVG 1.1//EN"
 "http://www.w3.org/Graphics/SVG/1.1/DTD/svg11.dtd">
<!-- Generated by graphviz version 2.50.0 (0)
 -->
<!-- Title: tklb::AudioBufferTpl::set Pages: 1 -->
<svg width="1251pt" height="550pt"
 viewBox="0.00 0.00 1251.00 549.51" xmlns="http://www.w3.org/2000/svg" xmlns:xlink="http://www.w3.org/1999/xlink">
<g id="graph0" class="graph" transform="scale(1 1) rotate(0) translate(4 545.51)">
<title>tklb::AudioBufferTpl::set</title>
<!-- Node1 -->
<g id="node1" class="node">
<title>Node1</title>
<g id="a_node1"><a xlink:title="Set a single channel from an array.">
<polygon fill="#bfbfbf" stroke="black" points="1108,-273.5 1108,-292.5 1243,-292.5 1243,-273.5 1108,-273.5"/>
<text text-anchor="middle" x="1175.5" y="-280.5" font-family="Helvetica,sans-Serif" font-size="10.00">tklb::AudioBufferTpl::set</text>
</a>
</g>
</g>
<!-- Node2 -->
<g id="node2" class="node">
<title>Node2</title>
<g id="a_node2"><a xlink:href="classtklb_1_1_f_f_tpffft.html#ac06b2cabd1518b10d59a470a031eedd6" target="_top" xlink:title="Frequency domain back to time domain.">
<polygon fill="none" stroke="black" points="931.5,-475.5 931.5,-494.5 1039.5,-494.5 1039.5,-475.5 931.5,-475.5"/>
<text text-anchor="middle" x="985.5" y="-482.5" font-family="Helvetica,sans-Serif" font-size="10.00">tklb::FFTpffft::back</text>
</a>
</g>
</g>
<!-- Node1&#45;&gt;Node2 -->
<g id="edge1" class="edge">
<title>Node1&#45;&gt;Node2</title>
<path fill="none" stroke="midnightblue" d="M1169.33,-302.66C1158.28,-340.6 1128.65,-423.87 1072,-466 1062.6,-472.99 1051.13,-477.49 1039.67,-480.37"/>
<polygon fill="midnightblue" stroke="midnightblue" points="1172.75,-303.41 1172.06,-292.84 1166.01,-301.53 1172.75,-303.41"/>
</g>
<!-- Node3 -->
<g id="node3" class="node">
<title>Node3</title>
<g id="a_node3"><a xlink:href="classtklb_1_1_convolver_mono_tpl.html#afeb78068fcf9e6f0a2465029a4e5c380" target="_top" xlink:title="Do the convolution.">
<polygon fill="none" stroke="black" points="713.5,-505 713.5,-535 845.5,-535 845.5,-505 713.5,-505"/>
<text text-anchor="start" x="721.5" y="-523" font-family="Helvetica,sans-Serif" font-size="10.00">tklb::ConvolverMonoTpl</text>
<text text-anchor="middle" x="779.5" y="-512" font-family="Helvetica,sans-Serif" font-size="10.00">::process</text>
</a>
</g>
</g>
<!-- Node1&#45;&gt;Node3 -->
<g id="edge28" class="edge">
<title>Node1&#45;&gt;Node3</title>
<path fill="none" stroke="midnightblue" d="M1172.04,-302.92C1165.32,-347.76 1142.21,-456.41 1072,-504 1005.29,-549.22 909,-544.44 845.61,-534.32"/>
<polygon fill="midnightblue" stroke="midnightblue" points="1175.54,-303.13 1173.44,-292.74 1168.61,-302.17 1175.54,-303.13"/>
</g>
<!-- Node4 -->
<g id="node4" class="node">
<title>Node4</title>
<g id="a_node4"><a xlink:href="classtklb_1_1_audio_buffer_tpl.html#a0d525b2972694ac9ab4028190467de18" target="_top" xlink:title="Match the size of the provided buffer and copy the contents.">
<polygon fill="none" stroke="black" points="928.5,-426 928.5,-456 1042.5,-456 1042.5,-426 928.5,-426"/>
<text text-anchor="start" x="936.5" y="-444" font-family="Helvetica,sans-Serif" font-size="10.00">tklb::AudioBufferTpl</text>
<text text-anchor="middle" x="985.5" y="-433" font-family="Helvetica,sans-Serif" font-size="10.00">::clone</text>
</a>
</g>
</g>
<!-- Node1&#45;&gt;Node4 -->
<g id="edge3" class="edge">
<title>Node1&#45;&gt;Node4</title>
<path fill="none" stroke="midnightblue" d="M1165.09,-301.76C1149.64,-330.65 1116.14,-385.84 1072,-416 1063.19,-422.02 1052.92,-426.61 1042.61,-430.11"/>
<polygon fill="midnightblue" stroke="midnightblue" points="1168.28,-303.21 1169.79,-292.72 1162.07,-299.98 1168.28,-303.21"/>
</g>
<!-- Node5 -->
<g id="node5" class="node">
<title>Node5</title>
<g id="a_node5"><a xlink:href="classtklb_1_1_f_f_t_ooura.html#a4704a076acce36be2f136e3a455b5daf" target="_top" xlink:title="timedomain to frequency domain">
<polygon fill="none" stroke="black" points="920,-387.5 920,-406.5 1051,-406.5 1051,-387.5 920,-387.5"/>
<text text-anchor="middle" x="985.5" y="-394.5" font-family="Helvetica,sans-Serif" font-size="10.00">tklb::FFTOoura::forward</text>
</a>
</g>
</g>
<!-- Node1&#45;&gt;Node5 -->
<g id="edge4" class="edge">
<title>Node1&#45;&gt;Node5</title>
<path fill="none" stroke="midnightblue" d="M1160.66,-300.61C1142.63,-322.28 1109.01,-358.59 1072,-378 1064.59,-381.88 1056.42,-384.98 1048.16,-387.44"/>
<polygon fill="midnightblue" stroke="midnightblue" points="1163.6,-302.54 1167.19,-292.57 1158.17,-298.12 1163.6,-302.54"/>
</g>
<!-- Node6 -->
<g id="node6" class="node">
<title>Node6</title>
<g id="a_node6"><a xlink:href="classtklb_1_1_f_f_tpffft.html#a8971ae1880c636893144a0d7cadb80ba" target="_top" xlink:title="timedomain to frequency domain">
<polygon fill="none" stroke="black" points="924.5,-349.5 924.5,-368.5 1046.5,-368.5 1046.5,-349.5 924.5,-349.5"/>
<text text-anchor="middle" x="985.5" y="-356.5" font-family="Helvetica,sans-Serif" font-size="10.00">tklb::FFTpffft::forward</text>
</a>
</g>
</g>
<!-- Node1&#45;&gt;Node6 -->
<g id="edge5" class="edge">
<title>Node1&#45;&gt;Node6</title>
<path fill="none" stroke="midnightblue" d="M1151.72,-298.2C1131.54,-311.03 1100.89,-329.03 1072,-340 1062.05,-343.78 1051.15,-346.91 1040.56,-349.47"/>
<polygon fill="midnightblue" stroke="midnightblue" points="1153.72,-301.08 1160.21,-292.71 1149.92,-295.2 1153.72,-301.08"/>
</g>
<!-- Node8 -->
<g id="node8" class="node">
<title>Node8</title>
<g id="a_node8"><a xlink:href="classvae_1_1core_1_1_device.html#aaab56a24f9f040b6a4be004ff94eff40" target="_top" xlink:title="initializes buffers, queues and resamplers if needed Has to be called in openDevice once the samplera...">
<polygon fill="none" stroke="black" points="924,-311.5 924,-330.5 1047,-330.5 1047,-311.5 924,-311.5"/>
<text text-anchor="middle" x="985.5" y="-318.5" font-family="Helvetica,sans-Serif" font-size="10.00">vae::core::Device::init</text>
</a>
</g>
</g>
<!-- Node1&#45;&gt;Node8 -->
<g id="edge8" class="edge">
<title>Node1&#45;&gt;Node8</title>
<path fill="none" stroke="midnightblue" d="M1117.06,-294.61C1090.33,-300.01 1058.91,-306.36 1033.6,-311.48"/>
<polygon fill="midnightblue" stroke="midnightblue" points="1117.95,-298 1127.06,-292.59 1116.56,-291.14 1117.95,-298"/>
</g>
<!-- Node13 -->
<g id="node13" class="node">
<title>Node13</title>
<g id="a_node13"><a xlink:href="classvae_1_1core_1_1_effects_processor.html#a460a07e9049a636b7808d575d6d41baa" target="_top" xlink:title=" ">
<polygon fill="none" stroke="black" points="899,-273.5 899,-292.5 1072,-292.5 1072,-273.5 899,-273.5"/>
<text text-anchor="middle" x="985.5" y="-280.5" font-family="Helvetica,sans-Serif" font-size="10.00">vae::core::EffectsProcessor::mix</text>
</a>
</g>
</g>
<!-- Node1&#45;&gt;Node13 -->
<g id="edge13" class="edge">
<title>Node1&#45;&gt;Node13</title>
<path fill="none" stroke="midnightblue" d="M1097.74,-283C1089.28,-283 1080.62,-283 1072.06,-283"/>
<polygon fill="midnightblue" stroke="midnightblue" points="1097.95,-286.5 1107.95,-283 1097.95,-279.5 1097.95,-286.5"/>
</g>
<!-- Node15 -->
<g id="node15" class="node">
<title>Node15</title>
<g id="a_node15"><a xlink:href="classvae_1_1core_1_1_engine.html#afecf53f2eaf92d13a933c05c821b3819" target="_top" xlink:title="Main processing function.">
<polygon fill="none" stroke="black" points="519,-252 519,-282 626,-282 626,-252 519,-252"/>
<text text-anchor="start" x="527" y="-270" font-family="Helvetica,sans-Serif" font-size="10.00">vae::core::Engine::</text>
<text text-anchor="middle" x="572.5" y="-259" font-family="Helvetica,sans-Serif" font-size="10.00">process</text>
</a>
</g>
</g>
<!-- Node1&#45;&gt;Node15 -->
<g id="edge27" class="edge">
<title>Node1&#45;&gt;Node15</title>
<path fill="none" stroke="midnightblue" d="M1121.67,-271.44C1105.78,-268.45 1088.25,-265.61 1072,-264 905.7,-247.51 863.07,-256.91 696,-261 673.12,-261.56 647.85,-262.71 626.24,-263.85"/>
<polygon fill="midnightblue" stroke="midnightblue" points="1121.36,-274.95 1131.84,-273.43 1122.7,-268.08 1121.36,-274.95"/>
</g>
<!-- Node21 -->
<g id="node21" class="node">
<title>Node21</title>
<g id="a_node21"><a xlink:href="classtklb_1_1_audio_ring_buffer_tpl.html#a376759b29135ae4deeaa61eca9a0ea4e" target="_top" xlink:title="Puts a number of elements in the buffer provided.">
<polygon fill="none" stroke="black" points="917.5,-186 917.5,-216 1053.5,-216 1053.5,-186 917.5,-186"/>
<text text-anchor="start" x="925.5" y="-204" font-family="Helvetica,sans-Serif" font-size="10.00">tklb::AudioRingBufferTpl</text>
<text text-anchor="middle" x="985.5" y="-193" font-family="Helvetica,sans-Serif" font-size="10.00">::peek</text>
</a>
</g>
</g>
<!-- Node1&#45;&gt;Node21 -->
<g id="edge22" class="edge">
<title>Node1&#45;&gt;Node21</title>
<path fill="none" stroke="midnightblue" d="M1148.42,-268.56C1127.97,-257.54 1098.62,-242.36 1072,-231 1059.56,-225.69 1045.83,-220.56 1033.08,-216.09"/>
<polygon fill="midnightblue" stroke="midnightblue" points="1146.96,-271.75 1157.42,-273.46 1150.31,-265.6 1146.96,-271.75"/>
</g>
<!-- Node26 -->
<g id="node26" class="node">
<title>Node26</title>
<g id="a_node26"><a xlink:href="classtklb_1_1_resampler_speex_tpl.html#ad536684ea5e815d1dd7d967127ecfb95" target="_top" xlink:title="Resample function Make sure the out buffer has enough space.">
<polygon fill="none" stroke="black" points="916,-88 916,-118 1055,-118 1055,-88 916,-88"/>
<text text-anchor="start" x="924" y="-106" font-family="Helvetica,sans-Serif" font-size="10.00">tklb::ResamplerSpeexTpl</text>
<text text-anchor="middle" x="985.5" y="-95" font-family="Helvetica,sans-Serif" font-size="10.00">::process</text>
</a>
</g>
</g>
<!-- Node1&#45;&gt;Node26 -->
<g id="edge29" class="edge">
<title>Node1&#45;&gt;Node26</title>
<path fill="none" stroke="midnightblue" d="M1167.11,-263.93C1153.41,-231.14 1120.96,-164.11 1072,-128 1066.77,-124.14 1060.96,-120.88 1054.89,-118.12"/>
<polygon fill="midnightblue" stroke="midnightblue" points="1163.9,-265.33 1170.89,-273.29 1170.39,-262.71 1163.9,-265.33"/>
</g>
<!-- Node32 -->
<g id="node32" class="node">
<title>Node32</title>
<g id="a_node32"><a xlink:href="classtklb_1_1_audio_ring_buffer_tpl.html#a4a1f2614ea727a4c26bd8936fa9e97d9" target="_top" xlink:title="Adds validSize() amount of frames to the buffer.">
<polygon fill="none" stroke="black" points="917.5,-137 917.5,-167 1053.5,-167 1053.5,-137 917.5,-137"/>
<text text-anchor="start" x="925.5" y="-155" font-family="Helvetica,sans-Serif" font-size="10.00">tklb::AudioRingBufferTpl</text>
<text text-anchor="middle" x="985.5" y="-144" font-family="Helvetica,sans-Serif" font-size="10.00">::push</text>
</a>
</g>
</g>
<!-- Node1&#45;&gt;Node32 -->
<g id="edge36" class="edge">
<title>Node1&#45;&gt;Node32</title>
<path fill="none" stroke="midnightblue" d="M1161.93,-265.11C1144.43,-241.51 1110.5,-200.25 1072,-177 1065.65,-173.16 1058.67,-169.88 1051.53,-167.09"/>
<polygon fill="midnightblue" stroke="midnightblue" points="1159.3,-267.45 1168,-273.49 1164.97,-263.34 1159.3,-267.45"/>
</g>
<!-- Node33 -->
<g id="node33" class="node">
<title>Node33</title>
<g id="a_node33"><a xlink:href="classtklb_1_1_audio_ring_buffer_tpl.html#a126edfbcafc1a3dc043b536b618be945" target="_top" xlink:title=" ">
<polygon fill="none" stroke="black" points="917.5,-39 917.5,-69 1053.5,-69 1053.5,-39 917.5,-39"/>
<text text-anchor="start" x="925.5" y="-57" font-family="Helvetica,sans-Serif" font-size="10.00">tklb::AudioRingBufferTpl</text>
<text text-anchor="middle" x="985.5" y="-46" font-family="Helvetica,sans-Serif" font-size="10.00">::reset</text>
</a>
</g>
</g>
<!-- Node1&#45;&gt;Node33 -->
<g id="edge39" class="edge">
<title>Node1&#45;&gt;Node33</title>
<path fill="none" stroke="midnightblue" d="M1170.23,-263.42C1160.33,-222.79 1131.96,-128.98 1072,-79 1066.54,-74.45 1060.27,-70.72 1053.68,-67.67"/>
<polygon fill="midnightblue" stroke="midnightblue" points="1166.82,-264.23 1172.49,-273.18 1173.64,-262.64 1166.82,-264.23"/>
</g>
<!-- Node34 -->
<g id="node34" class="node">
<title>Node34</title>
<g id="a_node34"><a xlink:href="classtklb_1_1_audio_buffer_tpl.html#a66ed28c52f02ba22c89f9bbfed1cbe8c" target="_top" xlink:title="Set multiple channels from a 2D array.">
<polygon fill="none" stroke="black" points="918,-0.5 918,-19.5 1053,-19.5 1053,-0.5 918,-0.5"/>
<text text-anchor="middle" x="985.5" y="-7.5" font-family="Helvetica,sans-Serif" font-size="10.00">tklb::AudioBufferTpl::set</text>
</a>
</g>
</g>
<!-- Node1&#45;&gt;Node34 -->
<g id="edge40" class="edge">
<title>Node1&#45;&gt;Node34</title>
<path fill="none" stroke="midnightblue" d="M1172.6,-263.48C1166.86,-215.8 1145.34,-92.76 1072,-30 1066.44,-25.24 1059.96,-21.57 1053.1,-18.73"/>
<polygon fill="midnightblue" stroke="midnightblue" points="1169.12,-263.86 1173.69,-273.42 1176.07,-263.1 1169.12,-263.86"/>
</g>
<!-- Node2&#45;&gt;Node3 -->
<g id="edge2" class="edge">
<title>Node2&#45;&gt;Node3</title>
<path fill="none" stroke="midnightblue" d="M921.36,-495.83C897.33,-499.96 869.91,-504.66 845.69,-508.82"/>
<polygon fill="midnightblue" stroke="midnightblue" points="922.17,-499.25 931.43,-494.1 920.99,-492.35 922.17,-499.25"/>
</g>
<!-- Node6&#45;&gt;Node3 -->
<g id="edge7" class="edge">
<title>Node6&#45;&gt;Node3</title>
<path fill="none" stroke="midnightblue" d="M914.98,-367.54C909.14,-370.24 903.69,-373.66 899,-378 858.76,-415.24 902.02,-457.48 863,-496 858.01,-500.93 852.07,-504.85 845.7,-507.98"/>
<polygon fill="midnightblue" stroke="midnightblue" points="916.36,-370.76 924.41,-363.88 913.82,-364.23 916.36,-370.76"/>
</g>
<!-- Node7 -->
<g id="node7" class="node">
<title>Node7</title>
<g id="a_node7"><a xlink:href="classtklb_1_1_convolver_mono_tpl.html#a67f9498b46370c1a273b47ccc4863e21" target="_top" xlink:title="Load a impulse response and prepare the convolution.">
<polygon fill="none" stroke="black" points="713.5,-456 713.5,-486 845.5,-486 845.5,-456 713.5,-456"/>
<text text-anchor="start" x="721.5" y="-474" font-family="Helvetica,sans-Serif" font-size="10.00">tklb::ConvolverMonoTpl</text>
<text text-anchor="middle" x="779.5" y="-463" font-family="Helvetica,sans-Serif" font-size="10.00">::load</text>
</a>
</g>
</g>
<!-- Node6&#45;&gt;Node7 -->
<g id="edge6" class="edge">
<title>Node6&#45;&gt;Node7</title>
<path fill="none" stroke="midnightblue" d="M914.52,-369.02C908.98,-371.43 903.71,-374.38 899,-378 871.55,-399.05 889.75,-425.08 863,-447 857.81,-451.25 851.89,-454.76 845.67,-457.63"/>
<polygon fill="midnightblue" stroke="midnightblue" points="915.92,-372.23 924.06,-365.45 913.47,-365.68 915.92,-372.23"/>
</g>
<!-- Node9 -->
<g id="node9" class="node">
<title>Node9</title>
<g id="a_node9"><a xlink:href="classvae_1_1core_1_1_device_dummy.html#ad85627cd3e6556da54cb511720b09f04" target="_top" xlink:title="Tries to open the default audio device whith desired in out channels.">
<polygon fill="none" stroke="black" points="709.5,-407 709.5,-437 849.5,-437 849.5,-407 709.5,-407"/>
<text text-anchor="start" x="717.5" y="-425" font-family="Helvetica,sans-Serif" font-size="10.00">vae::core::DeviceDummy</text>
<text text-anchor="middle" x="779.5" y="-414" font-family="Helvetica,sans-Serif" font-size="10.00">::openDevice</text>
</a>
</g>
</g>
<!-- Node8&#45;&gt;Node9 -->
<g id="edge9" class="edge">
<title>Node8&#45;&gt;Node9</title>
<path fill="none" stroke="midnightblue" d="M914.53,-331.52C909.03,-333.82 903.77,-336.62 899,-340 874.25,-357.55 887.17,-379.66 863,-398 858.48,-401.43 853.49,-404.37 848.26,-406.88"/>
<polygon fill="midnightblue" stroke="midnightblue" points="915.78,-334.79 923.97,-328.08 913.38,-328.21 915.78,-334.79"/>
</g>
<!-- Node11 -->
<g id="node11" class="node">
<title>Node11</title>
<g id="a_node11"><a xlink:href="classvae_1_1core_1_1_device_portaudio.html#a9a6538b4e9555085a36b67a1850f333d" target="_top" xlink:title="Opens a specific audio device.">
<polygon fill="none" stroke="black" points="705.5,-358 705.5,-388 853.5,-388 853.5,-358 705.5,-358"/>
<text text-anchor="start" x="713.5" y="-376" font-family="Helvetica,sans-Serif" font-size="10.00">vae::core::DevicePortaudio</text>
<text text-anchor="middle" x="779.5" y="-365" font-family="Helvetica,sans-Serif" font-size="10.00">::openDevice</text>
</a>
</g>
</g>
<!-- Node8&#45;&gt;Node11 -->
<g id="edge11" class="edge">
<title>Node8&#45;&gt;Node11</title>
<path fill="none" stroke="midnightblue" d="M929.55,-332.76C919.37,-335.07 908.85,-337.54 899,-340 877.04,-345.49 852.95,-352.1 832.26,-357.95"/>
<polygon fill="midnightblue" stroke="midnightblue" points="930.58,-336.12 939.58,-330.51 929.05,-329.28 930.58,-336.12"/>
</g>
<!-- Node12 -->
<g id="node12" class="node">
<title>Node12</title>
<g id="a_node12"><a xlink:href="classvae_1_1core_1_1_device_rtaudio.html#a755c0aea3ee53c858f2dc3e61503de95" target="_top" xlink:title="Opens a specific audio device.">
<polygon fill="none" stroke="black" points="710,-309 710,-339 849,-339 849,-309 710,-309"/>
<text text-anchor="start" x="718" y="-327" font-family="Helvetica,sans-Serif" font-size="10.00">vae::core::DeviceRtaudio</text>
<text text-anchor="middle" x="779.5" y="-316" font-family="Helvetica,sans-Serif" font-size="10.00">::openDevice</text>
</a>
</g>
</g>
<!-- Node8&#45;&gt;Node12 -->
<g id="edge12" class="edge">
<title>Node8&#45;&gt;Node12</title>
<path fill="none" stroke="midnightblue" d="M913.74,-322.04C892.81,-322.35 869.94,-322.68 849.15,-322.99"/>
<polygon fill="midnightblue" stroke="midnightblue" points="913.9,-325.54 923.85,-321.89 913.8,-318.54 913.9,-325.54"/>
</g>
<!-- Node10 -->
<g id="node10" class="node">
<title>Node10</title>
<g id="a_node10"><a xlink:href="classvae_1_1core_1_1_device_dummy.html#af40b5ee7c4ac8116abfcfd41a427b7f7" target="_top" xlink:title="Opens a specific audio device.">
<polygon fill="none" stroke="black" points="502.5,-407 502.5,-437 642.5,-437 642.5,-407 502.5,-407"/>
<text text-anchor="start" x="510.5" y="-425" font-family="Helvetica,sans-Serif" font-size="10.00">vae::core::DeviceDummy</text>
<text text-anchor="middle" x="572.5" y="-414" font-family="Helvetica,sans-Serif" font-size="10.00">::openDevice</text>
</a>
</g>
</g>
<!-- Node9&#45;&gt;Node10 -->
<g id="edge10" class="edge">
<title>Node9&#45;&gt;Node10</title>
<path fill="none" stroke="midnightblue" d="M699.16,-422C680.52,-422 660.81,-422 642.67,-422"/>
<polygon fill="midnightblue" stroke="midnightblue" points="699.38,-425.5 709.38,-422 699.38,-418.5 699.38,-425.5"/>
</g>
<!-- Node14 -->
<g id="node14" class="node">
<title>Node14</title>
<g id="a_node14"><a xlink:href="classvae_1_1core_1_1_mixer_processor.html#a02213548c3287ac1db82ae7b3b348e5c" target="_top" xlink:title="Process the mixers for a single bank.">
<polygon fill="none" stroke="black" points="696,-270.5 696,-289.5 863,-289.5 863,-270.5 696,-270.5"/>
<text text-anchor="middle" x="779.5" y="-277.5" font-family="Helvetica,sans-Serif" font-size="10.00">vae::core::MixerProcessor::mix</text>
</a>
</g>
</g>
<!-- Node13&#45;&gt;Node14 -->
<g id="edge14" class="edge">
<title>Node13&#45;&gt;Node14</title>
<path fill="none" stroke="midnightblue" d="M888.6,-281.59C880.14,-281.47 871.63,-281.34 863.3,-281.22"/>
<polygon fill="midnightblue" stroke="midnightblue" points="888.82,-285.09 898.87,-281.74 888.92,-278.09 888.82,-285.09"/>
</g>
<!-- Node14&#45;&gt;Node15 -->
<g id="edge15" class="edge">
<title>Node14&#45;&gt;Node15</title>
<path fill="none" stroke="midnightblue" d="M685.47,-274.1C665.15,-272.81 644.33,-271.49 626.24,-270.34"/>
<polygon fill="midnightblue" stroke="midnightblue" points="685.51,-277.61 695.71,-274.75 685.95,-270.62 685.51,-277.61"/>
</g>
<!-- Node16 -->
<g id="node16" class="node">
<title>Node16</title>
<g id="a_node16"><a xlink:href="classvae_1_1core_1_1_engine.html#ab31b2381a1d916efdcffe8db7971ce15" target="_top" xlink:title="Called from audio device when it needs more audio.">
<polygon fill="none" stroke="black" points="325.5,-276 325.5,-306 432.5,-306 432.5,-276 325.5,-276"/>
<text text-anchor="start" x="333.5" y="-294" font-family="Helvetica,sans-Serif" font-size="10.00">vae::core::Engine::</text>
<text text-anchor="middle" x="379" y="-283" font-family="Helvetica,sans-Serif" font-size="10.00">onBufferSwap</text>
</a>
</g>
</g>
<!-- Node15&#45;&gt;Node16 -->
<g id="edge16" class="edge">
<title>Node15&#45;&gt;Node16</title>
<path fill="none" stroke="midnightblue" d="M508.95,-274.84C484.33,-277.92 456.37,-281.43 432.8,-284.38"/>
<polygon fill="midnightblue" stroke="midnightblue" points="509.43,-278.31 518.92,-273.59 508.56,-271.36 509.43,-278.31"/>
</g>
<!-- Node20 -->
<g id="node20" class="node">
<title>Node20</title>
<g id="a_node20"><a xlink:href="classvae_1_1core_1_1_engine.html#aca852d5c0e30b0641582f175bf95fbea" target="_top" xlink:title="Called from own audio thread, not the device.">
<polygon fill="none" stroke="black" points="325.5,-227 325.5,-257 432.5,-257 432.5,-227 325.5,-227"/>
<text text-anchor="start" x="333.5" y="-245" font-family="Helvetica,sans-Serif" font-size="10.00">vae::core::Engine::</text>
<text text-anchor="middle" x="379" y="-234" font-family="Helvetica,sans-Serif" font-size="10.00">threadedProcess</text>
</a>
</g>
</g>
<!-- Node15&#45;&gt;Node20 -->
<g id="edge20" class="edge">
<title>Node15&#45;&gt;Node20</title>
<path fill="none" stroke="midnightblue" d="M508.95,-258.83C484.33,-255.62 456.37,-251.97 432.8,-248.89"/>
<polygon fill="midnightblue" stroke="midnightblue" points="508.55,-262.31 518.92,-260.14 509.46,-255.37 508.55,-262.31"/>
</g>
<!-- Node17 -->
<g id="node17" class="node">
<title>Node17</title>
<g id="a_node17"><a xlink:href="classvae_1_1core_1_1_engine.html#aa974f739b3f2dc8004eede720d01d229" target="_top" xlink:title="Tries to open default device and start audio thread.">
<polygon fill="none" stroke="black" points="166,-251 166,-281 273,-281 273,-251 166,-251"/>
<text text-anchor="start" x="174" y="-269" font-family="Helvetica,sans-Serif" font-size="10.00">vae::core::Engine::</text>
<text text-anchor="middle" x="219.5" y="-258" font-family="Helvetica,sans-Serif" font-size="10.00">start</text>
</a>
</g>
</g>
<!-- Node16&#45;&gt;Node17 -->
<g id="edge17" class="edge">
<title>Node16&#45;&gt;Node17</title>
<path fill="none" stroke="midnightblue" d="M315.15,-281.02C301.26,-278.82 286.68,-276.51 273.24,-274.37"/>
<polygon fill="midnightblue" stroke="midnightblue" points="314.69,-284.49 325.12,-282.61 315.79,-277.58 314.69,-284.49"/>
</g>
<!-- Node18 -->
<g id="node18" class="node">
<title>Node18</title>
<g id="a_node18"><a xlink:href="main_8cpp.html#ae66f6b31b5ad750f1fe042a706a4e3d4" target="_top" xlink:title=" ">
<polygon fill="none" stroke="black" points="44.5,-275.5 44.5,-294.5 85.5,-294.5 85.5,-275.5 44.5,-275.5"/>
<text text-anchor="middle" x="65" y="-282.5" font-family="Helvetica,sans-Serif" font-size="10.00">main</text>
</a>
</g>
</g>
<!-- Node17&#45;&gt;Node18 -->
<g id="edge18" class="edge">
<title>Node17&#45;&gt;Node18</title>
<path fill="none" stroke="midnightblue" d="M155.36,-273.87C130.26,-276.99 103.2,-280.36 85.52,-282.57"/>
<polygon fill="midnightblue" stroke="midnightblue" points="156.1,-277.3 165.59,-272.59 155.23,-270.36 156.1,-277.3"/>
</g>
<!-- Node19 -->
<g id="node19" class="node">
<title>Node19</title>
<g id="a_node19"><a xlink:href="classvae_1_1_engine_pimpl.html#af773bc095b97e185c17b23a702572479" target="_top" xlink:title="Tries to open default device and start audio thread.">
<polygon fill="none" stroke="black" points="0,-237.5 0,-256.5 130,-256.5 130,-237.5 0,-237.5"/>
<text text-anchor="middle" x="65" y="-244.5" font-family="Helvetica,sans-Serif" font-size="10.00">vae::EnginePimpl::start</text>
</a>
</g>
</g>
<!-- Node17&#45;&gt;Node19 -->
<g id="edge19" class="edge">
<title>Node17&#45;&gt;Node19</title>
<path fill="none" stroke="midnightblue" d="M155.5,-258.15C147.12,-257.11 138.52,-256.03 130.11,-254.99"/>
<polygon fill="midnightblue" stroke="midnightblue" points="155.23,-261.64 165.59,-259.41 156.1,-254.7 155.23,-261.64"/>
</g>
<!-- Node20&#45;&gt;Node17 -->
<g id="edge21" class="edge">
<title>Node20&#45;&gt;Node17</title>
<path fill="none" stroke="midnightblue" d="M315.15,-251.58C301.26,-253.69 286.68,-255.91 273.24,-257.96"/>
<polygon fill="midnightblue" stroke="midnightblue" points="315.76,-255.02 325.12,-250.06 314.7,-248.1 315.76,-255.02"/>
</g>
<!-- Node22 -->
<g id="node22" class="node">
<title>Node22</title>
<g id="a_node22"><a xlink:href="classtklb_1_1_audio_ring_buffer_tpl.html#a73b1992dd37fc22852de4a5adb6a355b" target="_top" xlink:title="Pops a number of elements in the buffer provided.">
<polygon fill="none" stroke="black" points="699.5,-194.5 699.5,-213.5 859.5,-213.5 859.5,-194.5 699.5,-194.5"/>
<text text-anchor="middle" x="779.5" y="-201.5" font-family="Helvetica,sans-Serif" font-size="10.00">tklb::AudioRingBufferTpl::pop</text>
</a>
</g>
</g>
<!-- Node21&#45;&gt;Node22 -->
<g id="edge23" class="edge">
<title>Node21&#45;&gt;Node22</title>
<path fill="none" stroke="midnightblue" d="M907.32,-202.14C891.73,-202.36 875.33,-202.61 859.68,-202.84"/>
<polygon fill="midnightblue" stroke="midnightblue" points="907.47,-205.63 917.42,-201.99 907.37,-198.63 907.47,-205.63"/>
</g>
<!-- Node23 -->
<g id="node23" class="node">
<title>Node23</title>
<g id="a_node23"><a xlink:href="classvae_1_1core_1_1_device.html#adb18595d67fedf22e685bef3d1a91177" target="_top" xlink:title="Get samples form audio device.">
<polygon fill="none" stroke="black" points="510,-199.5 510,-218.5 635,-218.5 635,-199.5 510,-199.5"/>
<text text-anchor="middle" x="572.5" y="-206.5" font-family="Helvetica,sans-Serif" font-size="10.00">vae::core::Device::pop</text>
</a>
</g>
</g>
<!-- Node22&#45;&gt;Node23 -->
<g id="edge24" class="edge">
<title>Node22&#45;&gt;Node23</title>
<path fill="none" stroke="midnightblue" d="M689.17,-206.18C670.91,-206.62 652.09,-207.08 635.06,-207.5"/>
<polygon fill="midnightblue" stroke="midnightblue" points="689.33,-209.68 699.24,-205.93 689.16,-202.68 689.33,-209.68"/>
</g>
<!-- Node24 -->
<g id="node24" class="node">
<title>Node24</title>
<g id="a_node24"><a xlink:href="structvae_1_1core_1_1_device_1_1_audio_thread_worker.html#a1d6ad75314a363dbb773c16aecb21326" target="_top" xlink:title="Called from audio backend to push in interleaved audio data.">
<polygon fill="none" stroke="black" points="485,-139.5 485,-180.5 660,-180.5 660,-139.5 485,-139.5"/>
<text text-anchor="start" x="493" y="-168.5" font-family="Helvetica,sans-Serif" font-size="10.00">vae::core::Device::</text>
<text text-anchor="start" x="493" y="-157.5" font-family="Helvetica,sans-Serif" font-size="10.00">AudioThreadWorker::swapBuffer</text>
<text text-anchor="middle" x="572.5" y="-146.5" font-family="Helvetica,sans-Serif" font-size="10.00">Interleaved</text>
</a>
</g>
</g>
<!-- Node22&#45;&gt;Node24 -->
<g id="edge25" class="edge">
<title>Node22&#45;&gt;Node24</title>
<path fill="none" stroke="midnightblue" d="M724.05,-192.31C704.42,-188.1 681.74,-183.23 660.05,-178.58"/>
<polygon fill="midnightblue" stroke="midnightblue" points="723.51,-195.78 734.02,-194.45 724.98,-188.93 723.51,-195.78"/>
</g>
<!-- Node25 -->
<g id="node25" class="node">
<title>Node25</title>
<g id="a_node25"><a xlink:href="classvae_1_1core_1_1_device_dummy.html#ac4105d62f1ae237fd9bb8d8bd8dda6a6" target="_top" xlink:title="Simulate the callback from the audio device.">
<polygon fill="none" stroke="black" points="309,-145 309,-175 449,-175 449,-145 309,-145"/>
<text text-anchor="start" x="317" y="-163" font-family="Helvetica,sans-Serif" font-size="10.00">vae::core::DeviceDummy</text>
<text text-anchor="middle" x="379" y="-152" font-family="Helvetica,sans-Serif" font-size="10.00">::swapBufferInterleaved</text>
</a>
</g>
</g>
<!-- Node24&#45;&gt;Node25 -->
<g id="edge26" class="edge">
<title>Node24&#45;&gt;Node25</title>
<path fill="none" stroke="midnightblue" d="M474.85,-160C466.19,-160 457.54,-160 449.19,-160"/>
<polygon fill="midnightblue" stroke="midnightblue" points="474.99,-163.5 484.99,-160 474.99,-156.5 474.99,-163.5"/>
</g>
<!-- Node26&#45;&gt;Node24 -->
<g id="edge35" class="edge">
<title>Node26&#45;&gt;Node24</title>
<path fill="none" stroke="midnightblue" d="M905.49,-96.8C847,-94.09 765.71,-94.31 696,-109 666.81,-115.15 635.8,-128.13 612.29,-139.45"/>
<polygon fill="midnightblue" stroke="midnightblue" points="905.61,-100.31 915.78,-97.31 905.96,-93.32 905.61,-100.31"/>
</g>
<!-- Node27 -->
<g id="node27" class="node">
<title>Node27</title>
<g id="a_node27"><a xlink:href="classvae_1_1core_1_1_device.html#a1f9109fc3f6c63034308c5b440927257" target="_top" xlink:title="Push samples to the audio device.">
<polygon fill="none" stroke="black" points="714,-118.5 714,-137.5 845,-137.5 845,-118.5 714,-118.5"/>
<text text-anchor="middle" x="779.5" y="-125.5" font-family="Helvetica,sans-Serif" font-size="10.00">vae::core::Device::push</text>
</a>
</g>
</g>
<!-- Node26&#45;&gt;Node27 -->
<g id="edge30" class="edge">
<title>Node26&#45;&gt;Node27</title>
<path fill="none" stroke="midnightblue" d="M905.7,-112.66C885.69,-115.11 864.41,-117.72 845.19,-120.07"/>
<polygon fill="midnightblue" stroke="midnightblue" points="906.22,-116.12 915.72,-111.43 905.37,-109.17 906.22,-116.12"/>
</g>
<!-- Node28 -->
<g id="node28" class="node">
<title>Node28</title>
<g id="a_node28"><a xlink:href="classtklb_1_1_resampler_speex_tpl.html#aafe03dda374652f23a8020a7f975b8b4" target="_top" xlink:title="Resamples the provided buffer from its sampleRate to the target rate.">
<polygon fill="none" stroke="black" points="710,-31 710,-61 849,-61 849,-31 710,-31"/>
<text text-anchor="start" x="718" y="-49" font-family="Helvetica,sans-Serif" font-size="10.00">tklb::ResamplerSpeexTpl</text>
<text text-anchor="middle" x="779.5" y="-38" font-family="Helvetica,sans-Serif" font-size="10.00">::resample</text>
</a>
</g>
</g>
<!-- Node26&#45;&gt;Node28 -->
<g id="edge31" class="edge">
<title>Node26&#45;&gt;Node28</title>
<path fill="none" stroke="midnightblue" d="M921,-85.26C893.2,-77.49 860.92,-68.47 834.31,-61.04"/>
<polygon fill="midnightblue" stroke="midnightblue" points="920.06,-88.63 930.63,-87.95 921.95,-81.89 920.06,-88.63"/>
</g>
<!-- Node29 -->
<g id="node29" class="node">
<title>Node29</title>
<g id="a_node29"><a xlink:href="classvae_1_1core_1_1_bank_manager.html#a6542180b77772f1605e211bd851f8996" target="_top" xlink:title=" ">
<polygon fill="none" stroke="black" points="505.5,-56 505.5,-86 639.5,-86 639.5,-56 505.5,-56"/>
<text text-anchor="start" x="513.5" y="-74" font-family="Helvetica,sans-Serif" font-size="10.00">vae::core::BankManager</text>
<text text-anchor="middle" x="572.5" y="-63" font-family="Helvetica,sans-Serif" font-size="10.00">::addSource</text>
</a>
</g>
</g>
<!-- Node28&#45;&gt;Node29 -->
<g id="edge32" class="edge">
<title>Node28&#45;&gt;Node29</title>
<path fill="none" stroke="midnightblue" d="M699.97,-55.58C680.03,-58.01 658.8,-60.6 639.55,-62.95"/>
<polygon fill="midnightblue" stroke="midnightblue" points="700.45,-59.04 709.95,-54.36 699.6,-52.1 700.45,-59.04"/>
</g>
<!-- Node31 -->
<g id="node31" class="node">
<title>Node31</title>
<g id="a_node31"><a xlink:href="classvae_1_1core_1_1_bank_manager.html#adbc94fb2b23a418e34a3eda7812d71a6" target="_top" xlink:title=" ">
<polygon fill="none" stroke="black" points="505.5,-7 505.5,-37 639.5,-37 639.5,-7 505.5,-7"/>
<text text-anchor="start" x="513.5" y="-25" font-family="Helvetica,sans-Serif" font-size="10.00">vae::core::BankManager</text>
<text text-anchor="middle" x="572.5" y="-14" font-family="Helvetica,sans-Serif" font-size="10.00">::load</text>
</a>
</g>
</g>
<!-- Node28&#45;&gt;Node31 -->
<g id="edge34" class="edge">
<title>Node28&#45;&gt;Node31</title>
<path fill="none" stroke="midnightblue" d="M699.97,-36.81C680.03,-34.47 658.8,-31.99 639.55,-29.73"/>
<polygon fill="midnightblue" stroke="midnightblue" points="699.61,-40.29 709.95,-37.97 700.43,-33.34 699.61,-40.29"/>
</g>
<!-- Node30 -->
<g id="node30" class="node">
<title>Node30</title>
<g id="a_node30"><a xlink:href="classvae_1_1core_1_1_engine.html#aba4ba7edf58f833125633e7149e4d499" target="_top" xlink:title="Add or replace a source in a bank.">
<polygon fill="none" stroke="black" points="325.5,-56 325.5,-86 432.5,-86 432.5,-56 325.5,-56"/>
<text text-anchor="start" x="333.5" y="-74" font-family="Helvetica,sans-Serif" font-size="10.00">vae::core::Engine::</text>
<text text-anchor="middle" x="379" y="-63" font-family="Helvetica,sans-Serif" font-size="10.00">addSource</text>
</a>
</g>
</g>
<!-- Node29&#45;&gt;Node30 -->
<g id="edge33" class="edge">
<title>Node29&#45;&gt;Node30</title>
<path fill="none" stroke="midnightblue" d="M495.15,-71C474.17,-71 451.9,-71 432.59,-71"/>
<polygon fill="midnightblue" stroke="midnightblue" points="495.33,-74.5 505.33,-71 495.33,-67.5 495.33,-74.5"/>
</g>
<!-- Node32&#45;&gt;Node24 -->
<g id="edge38" class="edge">
<title>Node32&#45;&gt;Node24</title>
<path fill="none" stroke="midnightblue" d="M906.97,-153.51C836.7,-154.88 733.27,-156.89 660.27,-158.31"/>
<polygon fill="midnightblue" stroke="midnightblue" points="907.16,-157.01 917.09,-153.31 907.03,-150.01 907.16,-157.01"/>
</g>
<!-- Node32&#45;&gt;Node27 -->
<g id="edge37" class="edge">
<title>Node32&#45;&gt;Node27</title>
<path fill="none" stroke="midnightblue" d="M907.47,-142.94C886.95,-140.52 864.98,-137.94 845.19,-135.61"/>
<polygon fill="midnightblue" stroke="midnightblue" points="907.08,-146.42 917.42,-144.11 907.9,-139.46 907.08,-146.42"/>
</g>
</g>
</svg>
