<?xml version="1.0" encoding="UTF-8" standalone="no"?>
<!DOCTYPE svg PUBLIC "-//W3C//DTD SVG 1.1//EN"
 "http://www.w3.org/Graphics/SVG/1.1/DTD/svg11.dtd">
<!-- Generated by graphviz version 2.50.0 (0)
 -->
<!-- Title: tklb::AudioRingBufferTpl::push Pages: 1 -->
<svg width="531pt" height="88pt"
 viewBox="0.00 0.00 531.00 88.00" xmlns="http://www.w3.org/2000/svg" xmlns:xlink="http://www.w3.org/1999/xlink">
<g id="graph0" class="graph" transform="scale(1 1) rotate(0) translate(4 84)">
<title>tklb::AudioRingBufferTpl::push</title>
<!-- Node1 -->
<g id="node1" class="node">
<title>Node1</title>
<g id="a_node1"><a xlink:title="Adds validSize() amount of frames to the buffer.">
<polygon fill="#bfbfbf" stroke="black" points="387,-30 387,-60 523,-60 523,-30 387,-30"/>
<text text-anchor="start" x="395" y="-48" font-family="Helvetica,sans-Serif" font-size="10.00">tklb::AudioRingBufferTpl</text>
<text text-anchor="middle" x="455" y="-37" font-family="Helvetica,sans-Serif" font-size="10.00">::push</text>
</a>
</g>
</g>
<!-- Node2 -->
<g id="node2" class="node">
<title>Node2</title>
<g id="a_node2"><a xlink:href="classvae_1_1core_1_1_device.html#a1f9109fc3f6c63034308c5b440927257" target="_top" xlink:title="Push samples to the audio device.">
<polygon fill="none" stroke="black" points="198,-60.5 198,-79.5 329,-79.5 329,-60.5 198,-60.5"/>
<text text-anchor="middle" x="263.5" y="-67.5" font-family="Helvetica,sans-Serif" font-size="10.00">vae::core::Device::push</text>
</a>
</g>
</g>
<!-- Node1&#45;&gt;Node2 -->
<g id="edge1" class="edge">
<title>Node1&#45;&gt;Node2</title>
<path fill="none" stroke="midnightblue" d="M376.69,-55.2C360.94,-57.28 344.52,-59.44 329.26,-61.46"/>
<polygon fill="midnightblue" stroke="midnightblue" points="377.47,-58.63 386.92,-53.85 376.55,-51.69 377.47,-58.63"/>
</g>
<!-- Node3 -->
<g id="node3" class="node">
<title>Node3</title>
<g id="a_node3"><a xlink:href="structvae_1_1core_1_1_device_1_1_audio_thread_worker.html#a1d6ad75314a363dbb773c16aecb21326" target="_top" xlink:title="Called from audio backend to push in interleaved audio data.">
<polygon fill="none" stroke="black" points="176,-0.5 176,-41.5 351,-41.5 351,-0.5 176,-0.5"/>
<text text-anchor="start" x="184" y="-29.5" font-family="Helvetica,sans-Serif" font-size="10.00">vae::core::Device::</text>
<text text-anchor="start" x="184" y="-18.5" font-family="Helvetica,sans-Serif" font-size="10.00">AudioThreadWorker::swapBuffer</text>
<text text-anchor="middle" x="263.5" y="-7.5" font-family="Helvetica,sans-Serif" font-size="10.00">Interleaved</text>
</a>
</g>
</g>
<!-- Node1&#45;&gt;Node3 -->
<g id="edge2" class="edge">
<title>Node1&#45;&gt;Node3</title>
<path fill="none" stroke="midnightblue" d="M376.73,-35.21C368.27,-34.14 359.63,-33.05 351.07,-31.96"/>
<polygon fill="midnightblue" stroke="midnightblue" points="376.56,-38.72 386.92,-36.5 377.44,-31.78 376.56,-38.72"/>
</g>
<!-- Node4 -->
<g id="node4" class="node">
<title>Node4</title>
<g id="a_node4"><a xlink:href="classvae_1_1core_1_1_device_dummy.html#ac4105d62f1ae237fd9bb8d8bd8dda6a6" target="_top" xlink:title="Simulate the callback from the audio device.">
<polygon fill="none" stroke="black" points="0,-6 0,-36 140,-36 140,-6 0,-6"/>
<text text-anchor="start" x="8" y="-24" font-family="Helvetica,sans-Serif" font-size="10.00">vae::core::DeviceDummy</text>
<text text-anchor="middle" x="70" y="-13" font-family="Helvetica,sans-Serif" font-size="10.00">::swapBufferInterleaved</text>
</a>
</g>
</g>
<!-- Node3&#45;&gt;Node4 -->
<g id="edge3" class="edge">
<title>Node3&#45;&gt;Node4</title>
<path fill="none" stroke="midnightblue" d="M165.85,-21C157.19,-21 148.54,-21 140.19,-21"/>
<polygon fill="midnightblue" stroke="midnightblue" points="165.99,-24.5 175.99,-21 165.99,-17.5 165.99,-24.5"/>
</g>
</g>
</svg>
