<?xml version="1.0" encoding="UTF-8" standalone="no"?>
<!DOCTYPE svg PUBLIC "-//W3C//DTD SVG 1.1//EN"
 "http://www.w3.org/Graphics/SVG/1.1/DTD/svg11.dtd">
<!-- Generated by graphviz version 2.50.0 (0)
 -->
<!-- Title: vae::core::DeviceRtaudio::openDevice Pages: 1 -->
<!--zoomable 313 -->
<svg id="main" version="1.1" xmlns="http://www.w3.org/2000/svg" xmlns:xlink="http://www.w3.org/1999/xlink" xml:space="preserve" onload="init(evt)">
<style type="text/css"><![CDATA[
.edge:hover path { stroke: red; }
.edge:hover polygon { stroke: red; fill: red; }
]]></style>
<script type="text/javascript"><![CDATA[
var edges = document.getElementsByTagName('g');
if (edges && edges.length) {
  for (var i=0;i<edges.length;i++) {
    if (edges[i].id.substr(0,4)=='edge') {
      edges[i].setAttribute('class','edge');
    }
  }
}
]]></script>
        <defs>
                <circle id="rim" cx="0" cy="0" r="7"/>
                <circle id="rim2" cx="0" cy="0" r="3.5"/>
                <g id="zoomPlus">
                        <use xlink:href="#rim" fill="#404040">
                                <set attributeName="fill" to="#808080" begin="zoomplus.mouseover" end="zoomplus.mouseout"/>
                        </use>
                        <path d="M-4,0h8M0,-4v8" fill="none" stroke="white" stroke-width="1.5" pointer-events="none"/>
                </g>
                <g id="zoomMin">
                        <use xlink:href="#rim" fill="#404040">
                                <set attributeName="fill" to="#808080" begin="zoomminus.mouseover" end="zoomminus.mouseout"/>
                        </use>
                        <path d="M-4,0h8" fill="none" stroke="white" stroke-width="1.5" pointer-events="none"/>
                </g>
                <g id="dirArrow">
                        <path fill="none" stroke="white" stroke-width="1.5" d="M0,-3.0v7 M-2.5,-0.5L0,-3.0L2.5,-0.5"/>
                </g>
               <g id="resetDef">
                       <use xlink:href="#rim2" fill="#404040">
                               <set attributeName="fill" to="#808080" begin="reset.mouseover" end="reset.mouseout"/>
                       </use>
               </g>
        </defs>

<script type="text/javascript">
var viewWidth = 847;
var viewHeight = 313;
var sectionId = 'dynsection-6';
</script>
<script xlink:href="svgpan.js"/>
<svg id="graph" class="graph">
<g id="viewport">
<title>vae::core::DeviceRtaudio::openDevice</title>
<!-- Node1 -->
<g id="node1" class="node">
<title>Node1</title>
<g id="a_node1"><a xlink:title="Opens a specific audio device.">
<polygon fill="#bfbfbf" stroke="black" points="0,-154.5 0,-184.5 139,-184.5 139,-154.5 0,-154.5"/>
<text text-anchor="start" x="8" y="-172.5" font-family="Helvetica,sans-Serif" font-size="10.00">vae::core::DeviceRtaudio</text>
<text text-anchor="middle" x="69.5" y="-161.5" font-family="Helvetica,sans-Serif" font-size="10.00">::openDevice</text>
</a>
</g>
</g>
<!-- Node2 -->
<g id="node2" class="node">
<title>Node2</title>
<g id="a_node2"><a xlink:href="classvae_1_1core_1_1_device_rtaudio.html#a1413d90315ee943384e60a9407c8bd73" target="_top" xlink:title="Function called from the RtAudio thread.">
<polygon fill="none" stroke="black" points="175,-252.5 175,-282.5 314,-282.5 314,-252.5 175,-252.5"/>
<text text-anchor="start" x="183" y="-270.5" font-family="Helvetica,sans-Serif" font-size="10.00">vae::core::DeviceRtaudio</text>
<text text-anchor="middle" x="244.5" y="-259.5" font-family="Helvetica,sans-Serif" font-size="10.00">::AudioCallback</text>
</a>
</g>
</g>
<!-- Node1&#45;&gt;Node2 -->
<g id="edge1" class="edge">
<title>Node1&#45;&gt;Node2</title>
<path fill="none" stroke="midnightblue" d="M88.37,-184.53C108.42,-200.8 142.41,-226.67 175,-243.5 178.33,-245.22 181.81,-246.86 185.37,-248.43"/>
<polygon fill="midnightblue" stroke="midnightblue" points="184.3,-251.77 194.88,-252.37 186.98,-245.31 184.3,-251.77"/>
</g>
<!-- Node3 -->
<g id="node3" class="node">
<title>Node3</title>
<g id="a_node3"><a xlink:href="classvae_1_1core_1_1_device_rtaudio.html#aa4261527d864efce6a4f8af2fba4d1d5" target="_top" xlink:title=" ">
<polygon fill="none" stroke="black" points="175,-203.5 175,-233.5 314,-233.5 314,-203.5 175,-203.5"/>
<text text-anchor="start" x="183" y="-221.5" font-family="Helvetica,sans-Serif" font-size="10.00">vae::core::DeviceRtaudio</text>
<text text-anchor="middle" x="244.5" y="-210.5" font-family="Helvetica,sans-Serif" font-size="10.00">::cleanUp</text>
</a>
</g>
</g>
<!-- Node1&#45;&gt;Node3 -->
<g id="edge2" class="edge">
<title>Node1&#45;&gt;Node3</title>
<path fill="none" stroke="midnightblue" d="M123.82,-184.6C141.74,-189.68 161.91,-195.39 180.51,-200.66"/>
<polygon fill="midnightblue" stroke="midnightblue" points="179.78,-204.09 190.36,-203.45 181.69,-197.36 179.78,-204.09"/>
</g>
<!-- Node4 -->
<g id="node4" class="node">
<title>Node4</title>
<g id="a_node4"><a xlink:href="classvae_1_1core_1_1_backend.html#a9c683b3b3ac1b9c24be87b1c04d30612" target="_top" xlink:title="Gets number of devices, needed to iterate them.">
<polygon fill="none" stroke="black" points="189.5,-154.5 189.5,-184.5 299.5,-184.5 299.5,-154.5 189.5,-154.5"/>
<text text-anchor="start" x="197.5" y="-172.5" font-family="Helvetica,sans-Serif" font-size="10.00">vae::core::Backend</text>
<text text-anchor="middle" x="244.5" y="-161.5" font-family="Helvetica,sans-Serif" font-size="10.00">::getDeviceCount</text>
</a>
</g>
</g>
<!-- Node1&#45;&gt;Node4 -->
<g id="edge3" class="edge">
<title>Node1&#45;&gt;Node4</title>
<path fill="none" stroke="midnightblue" d="M139.37,-169.5C152.46,-169.5 166.1,-169.5 179.05,-169.5"/>
<polygon fill="midnightblue" stroke="midnightblue" points="179.25,-173 189.25,-169.5 179.25,-166 179.25,-173"/>
</g>
<!-- Node5 -->
<g id="node5" class="node">
<title>Node5</title>
<g id="a_node5"><a xlink:href="classvae_1_1core_1_1_device.html#aaab56a24f9f040b6a4be004ff94eff40" target="_top" xlink:title="initializes buffers, queues and resamplers if needed Has to be called in openDevice once the samplera...">
<polygon fill="none" stroke="black" points="183,-116 183,-135 306,-135 306,-116 183,-116"/>
<text text-anchor="middle" x="244.5" y="-123" font-family="Helvetica,sans-Serif" font-size="10.00">vae::core::Device::init</text>
</a>
</g>
</g>
<!-- Node1&#45;&gt;Node5 -->
<g id="edge4" class="edge">
<title>Node1&#45;&gt;Node5</title>
<path fill="none" stroke="midnightblue" d="M129.55,-154.48C151.34,-148.94 175.72,-142.74 196.32,-137.5"/>
<polygon fill="midnightblue" stroke="midnightblue" points="197.27,-140.87 206.1,-135.01 195.54,-134.09 197.27,-140.87"/>
</g>
<!-- Node17 -->
<g id="node17" class="node">
<title>Node17</title>
<g id="a_node17"><a xlink:href="classvae_1_1core_1_1_device.html#aeafbeab17370280f5fb9cc8e2b0f4e70" target="_top" xlink:title=" ">
<polygon fill="none" stroke="black" points="191,-44.5 191,-74.5 298,-74.5 298,-44.5 191,-44.5"/>
<text text-anchor="start" x="199" y="-62.5" font-family="Helvetica,sans-Serif" font-size="10.00">vae::core::Device::</text>
<text text-anchor="middle" x="244.5" y="-51.5" font-family="Helvetica,sans-Serif" font-size="10.00">postInit</text>
</a>
</g>
</g>
<!-- Node1&#45;&gt;Node17 -->
<g id="edge20" class="edge">
<title>Node1&#45;&gt;Node17</title>
<path fill="none" stroke="midnightblue" d="M94.19,-154.44C124.52,-135.15 177.19,-101.66 211.18,-80.05"/>
<polygon fill="midnightblue" stroke="midnightblue" points="213.26,-82.88 219.82,-74.56 209.5,-76.97 213.26,-82.88"/>
</g>
<!-- Node6 -->
<g id="node6" class="node">
<title>Node6</title>
<g id="a_node6"><a xlink:href="classtklb_1_1_resampler_speex_tpl.html#a65864672c63ce1be9a251232504d8dce" target="_top" xlink:title="Calculate a buffersize fit for the resampled result.">
<polygon fill="none" stroke="black" points="525,-50.5 525,-80.5 664,-80.5 664,-50.5 525,-50.5"/>
<text text-anchor="start" x="533" y="-68.5" font-family="Helvetica,sans-Serif" font-size="10.00">tklb::ResamplerSpeexTpl</text>
<text text-anchor="middle" x="594.5" y="-57.5" font-family="Helvetica,sans-Serif" font-size="10.00">::calculateBufferSize</text>
</a>
</g>
</g>
<!-- Node5&#45;&gt;Node6 -->
<g id="edge5" class="edge">
<title>Node5&#45;&gt;Node6</title>
<path fill="none" stroke="midnightblue" d="M261.83,-115.85C281.84,-104.58 317.14,-86.47 350,-78.5 403.96,-65.41 466.56,-62.32 514.77,-62.42"/>
<polygon fill="midnightblue" stroke="midnightblue" points="514.8,-65.92 524.83,-62.49 514.85,-58.92 514.8,-65.92"/>
</g>
<!-- Node8 -->
<g id="node8" class="node">
<title>Node8</title>
<g id="a_node8"><a xlink:href="classtklb_1_1_resampler_speex_tpl.html#a7bab4da85cc386c5d34cf8ced0bd1092" target="_top" xlink:title="setup the resampler">
<polygon fill="none" stroke="black" points="350,-88.5 350,-118.5 489,-118.5 489,-88.5 350,-88.5"/>
<text text-anchor="start" x="358" y="-106.5" font-family="Helvetica,sans-Serif" font-size="10.00">tklb::ResamplerSpeexTpl</text>
<text text-anchor="middle" x="419.5" y="-95.5" font-family="Helvetica,sans-Serif" font-size="10.00">::init</text>
</a>
</g>
</g>
<!-- Node5&#45;&gt;Node8 -->
<g id="edge7" class="edge">
<title>Node5&#45;&gt;Node8</title>
<path fill="none" stroke="midnightblue" d="M306.01,-117.81C316.82,-116.43 328.24,-114.98 339.48,-113.55"/>
<polygon fill="midnightblue" stroke="midnightblue" points="340.26,-116.98 349.74,-112.24 339.38,-110.03 340.26,-116.98"/>
</g>
<!-- Node9 -->
<g id="node9" class="node">
<title>Node9</title>
<g id="a_node9"><a xlink:href="classtklb_1_1_audio_buffer_tpl.html#a35b40f6d6b1fc2939613b1b84313b0bc" target="_top" xlink:title="! Will not keep the contents! Resizes the buffer to the desired length and channel count.">
<polygon fill="none" stroke="black" points="537.5,-159.5 537.5,-189.5 651.5,-189.5 651.5,-159.5 537.5,-159.5"/>
<text text-anchor="start" x="545.5" y="-177.5" font-family="Helvetica,sans-Serif" font-size="10.00">tklb::AudioBufferTpl</text>
<text text-anchor="middle" x="594.5" y="-166.5" font-family="Helvetica,sans-Serif" font-size="10.00">::resize</text>
</a>
</g>
</g>
<!-- Node5&#45;&gt;Node9 -->
<g id="edge14" class="edge">
<title>Node5&#45;&gt;Node9</title>
<path fill="none" stroke="midnightblue" d="M284.48,-135.1C294.29,-137.99 304.67,-141.49 314,-145.5 331.02,-152.82 332.2,-161.37 350,-166.5 408.18,-183.26 477.42,-183.78 527.17,-180.98"/>
<polygon fill="midnightblue" stroke="midnightblue" points="527.4,-184.47 537.17,-180.36 526.97,-177.48 527.4,-184.47"/>
</g>
<!-- Node13 -->
<g id="node13" class="node">
<title>Node13</title>
<g id="a_node13"><a xlink:href="namespacetklb.html#a7dc2203e89c331e3c85b9e7f16fa6763" target="_top" xlink:title=" ">
<polygon fill="none" stroke="black" points="388,-138 388,-157 451,-157 451,-138 388,-138"/>
<text text-anchor="middle" x="419.5" y="-145" font-family="Helvetica,sans-Serif" font-size="10.00">tklb::max</text>
</a>
</g>
</g>
<!-- Node5&#45;&gt;Node13 -->
<g id="edge13" class="edge">
<title>Node5&#45;&gt;Node13</title>
<path fill="none" stroke="midnightblue" d="M306.01,-133.19C329.79,-136.22 356.46,-139.61 377.86,-142.33"/>
<polygon fill="midnightblue" stroke="midnightblue" points="377.55,-145.82 387.91,-143.61 378.43,-138.88 377.55,-145.82"/>
</g>
<!-- Node14 -->
<g id="node14" class="node">
<title>Node14</title>
<g id="a_node14"><a xlink:href="classtklb_1_1_audio_buffer_tpl.html#ab6e5250746ca3784a568591a3ffdbc12" target="_top" xlink:title="Set a single channel from an array.">
<polygon fill="none" stroke="black" points="527,-214 527,-233 662,-233 662,-214 527,-214"/>
<text text-anchor="middle" x="594.5" y="-221" font-family="Helvetica,sans-Serif" font-size="10.00">tklb::AudioBufferTpl::set</text>
</a>
</g>
</g>
<!-- Node5&#45;&gt;Node14 -->
<g id="edge15" class="edge">
<title>Node5&#45;&gt;Node14</title>
<path fill="none" stroke="midnightblue" d="M292.05,-135.12C299.73,-137.8 307.34,-141.2 314,-145.5 334.66,-158.83 328.48,-175.62 350,-187.5 400.92,-215.62 466.54,-224.01 516.82,-225.71"/>
<polygon fill="midnightblue" stroke="midnightblue" points="516.9,-229.21 526.99,-225.97 517.08,-222.21 516.9,-229.21"/>
</g>
<!-- Node7 -->
<g id="node7" class="node">
<title>Node7</title>
<g id="a_node7"><a xlink:href="classtklb_1_1_resampler_speex_tpl.html#a5b4b65f32dbcec425871cc26384d4643" target="_top" xlink:title="Estimate how many sample will be emitted in the next step.">
<polygon fill="none" stroke="black" points="700,-50.5 700,-80.5 839,-80.5 839,-50.5 700,-50.5"/>
<text text-anchor="start" x="708" y="-68.5" font-family="Helvetica,sans-Serif" font-size="10.00">tklb::ResamplerSpeexTpl</text>
<text text-anchor="middle" x="769.5" y="-57.5" font-family="Helvetica,sans-Serif" font-size="10.00">::estimateOut</text>
</a>
</g>
</g>
<!-- Node6&#45;&gt;Node7 -->
<g id="edge6" class="edge">
<title>Node6&#45;&gt;Node7</title>
<path fill="none" stroke="midnightblue" d="M664.37,-65.5C672.68,-65.5 681.21,-65.5 689.65,-65.5"/>
<polygon fill="midnightblue" stroke="midnightblue" points="689.87,-69 699.87,-65.5 689.87,-62 689.87,-69"/>
</g>
<!-- Node8&#45;&gt;Node6 -->
<g id="edge8" class="edge">
<title>Node8&#45;&gt;Node6</title>
<path fill="none" stroke="midnightblue" d="M488.87,-88.48C497.52,-86.58 506.42,-84.63 515.2,-82.7"/>
<polygon fill="midnightblue" stroke="midnightblue" points="516.04,-86.1 525.06,-80.53 514.54,-79.26 516.04,-86.1"/>
</g>
<!-- Node8&#45;&gt;Node9 -->
<g id="edge9" class="edge">
<title>Node8&#45;&gt;Node9</title>
<path fill="none" stroke="midnightblue" d="M463.05,-118.54C471.68,-121.73 480.66,-125.15 489,-128.5 509.77,-136.85 532.55,-146.78 551.52,-155.28"/>
<polygon fill="midnightblue" stroke="midnightblue" points="550.23,-158.54 560.79,-159.45 553.1,-152.15 550.23,-158.54"/>
</g>
<!-- Node10 -->
<g id="node10" class="node">
<title>Node10</title>
<g id="a_node10"><a xlink:href="classtklb_1_1_audio_buffer_tpl.html#a7859b26033cbb893c2ea7acea54d8013" target="_top" xlink:title="Returns the amount of channels.">
<polygon fill="none" stroke="black" points="712.5,-110.5 712.5,-140.5 826.5,-140.5 826.5,-110.5 712.5,-110.5"/>
<text text-anchor="start" x="720.5" y="-128.5" font-family="Helvetica,sans-Serif" font-size="10.00">tklb::AudioBufferTpl</text>
<text text-anchor="middle" x="769.5" y="-117.5" font-family="Helvetica,sans-Serif" font-size="10.00">::channels</text>
</a>
</g>
</g>
<!-- Node9&#45;&gt;Node10 -->
<g id="edge10" class="edge">
<title>Node9&#45;&gt;Node10</title>
<path fill="none" stroke="midnightblue" d="M648.82,-159.4C666.74,-154.32 686.91,-148.61 705.51,-143.34"/>
<polygon fill="midnightblue" stroke="midnightblue" points="706.69,-146.64 715.36,-140.55 704.78,-139.91 706.69,-146.64"/>
</g>
<!-- Node11 -->
<g id="node11" class="node">
<title>Node11</title>
<g id="a_node11"><a xlink:href="namespacetklb.html#a3080595da18d742645ec41d61828a426" target="_top" xlink:title=" ">
<polygon fill="none" stroke="black" points="739.5,-209 739.5,-228 799.5,-228 799.5,-209 739.5,-209"/>
<text text-anchor="middle" x="769.5" y="-216" font-family="Helvetica,sans-Serif" font-size="10.00">tklb::min</text>
</a>
</g>
</g>
<!-- Node9&#45;&gt;Node11 -->
<g id="edge11" class="edge">
<title>Node9&#45;&gt;Node11</title>
<path fill="none" stroke="midnightblue" d="M651.67,-188.79C677.11,-195.26 706.55,-202.75 729.52,-208.59"/>
<polygon fill="midnightblue" stroke="midnightblue" points="728.7,-211.99 739.26,-211.06 730.43,-205.21 728.7,-211.99"/>
</g>
<!-- Node12 -->
<g id="node12" class="node">
<title>Node12</title>
<g id="a_node12"><a xlink:href="classtklb_1_1_audio_buffer_tpl.html#af6df8d7e6840eee3f84807bd1662c3ed" target="_top" xlink:title="Returns the allocated length of the buffer.">
<polygon fill="none" stroke="black" points="712.5,-159.5 712.5,-189.5 826.5,-189.5 826.5,-159.5 712.5,-159.5"/>
<text text-anchor="start" x="720.5" y="-177.5" font-family="Helvetica,sans-Serif" font-size="10.00">tklb::AudioBufferTpl</text>
<text text-anchor="middle" x="769.5" y="-166.5" font-family="Helvetica,sans-Serif" font-size="10.00">::size</text>
</a>
</g>
</g>
<!-- Node9&#45;&gt;Node12 -->
<g id="edge12" class="edge">
<title>Node9&#45;&gt;Node12</title>
<path fill="none" stroke="midnightblue" d="M651.67,-174.5C667.76,-174.5 685.46,-174.5 702.11,-174.5"/>
<polygon fill="midnightblue" stroke="midnightblue" points="702.32,-178 712.32,-174.5 702.32,-171 702.32,-178"/>
</g>
<!-- Node14&#45;&gt;Node11 -->
<g id="edge18" class="edge">
<title>Node14&#45;&gt;Node11</title>
<path fill="none" stroke="midnightblue" d="M662.39,-221.57C684.95,-220.91 709.4,-220.21 729.14,-219.64"/>
<polygon fill="midnightblue" stroke="midnightblue" points="729.39,-223.13 739.28,-219.34 729.18,-216.13 729.39,-223.13"/>
</g>
<!-- Node14&#45;&gt;Node12 -->
<g id="edge19" class="edge">
<title>Node14&#45;&gt;Node12</title>
<path fill="none" stroke="midnightblue" d="M629.27,-213.94C650.98,-207.79 679.86,-199.61 705.68,-192.29"/>
<polygon fill="midnightblue" stroke="midnightblue" points="706.74,-195.63 715.41,-189.54 704.83,-188.89 706.74,-195.63"/>
</g>
<!-- Node15 -->
<g id="node15" class="node">
<title>Node15</title>
<g id="a_node15"><a xlink:href="namespacetklb_1_1memory.html#ab89ec197028f903f4ea125eae46c4a10" target="_top" xlink:title="memcpy wrapper">
<polygon fill="none" stroke="black" points="713.5,-285 713.5,-304 825.5,-304 825.5,-285 713.5,-285"/>
<text text-anchor="middle" x="769.5" y="-292" font-family="Helvetica,sans-Serif" font-size="10.00">tklb::memory::copy</text>
</a>
</g>
</g>
<!-- Node14&#45;&gt;Node15 -->
<g id="edge16" class="edge">
<title>Node14&#45;&gt;Node15</title>
<path fill="none" stroke="midnightblue" d="M612.42,-233.19C632.72,-244.5 668.02,-263.24 700,-275.5 706.05,-277.82 712.5,-279.99 718.93,-281.97"/>
<polygon fill="midnightblue" stroke="midnightblue" points="718.38,-285.45 728.96,-284.92 720.35,-278.74 718.38,-285.45"/>
</g>
<!-- Node16 -->
<g id="node16" class="node">
<title>Node16</title>
<g id="a_node16"><a xlink:href="classtklb_1_1_audio_buffer_tpl.html#aee0540e90ae2790f9a809917bc5a04fd" target="_top" xlink:title=" ">
<polygon fill="none" stroke="black" points="701.5,-247 701.5,-266 837.5,-266 837.5,-247 701.5,-247"/>
<text text-anchor="middle" x="769.5" y="-254" font-family="Helvetica,sans-Serif" font-size="10.00">tklb::AudioBufferTpl::get</text>
</a>
</g>
</g>
<!-- Node14&#45;&gt;Node16 -->
<g id="edge17" class="edge">
<title>Node14&#45;&gt;Node16</title>
<path fill="none" stroke="midnightblue" d="M645.54,-233.04C665.26,-236.81 688.08,-241.16 708.67,-245.09"/>
<polygon fill="midnightblue" stroke="midnightblue" points="708.09,-248.54 718.57,-246.98 709.41,-241.66 708.09,-248.54"/>
</g>
<!-- Node18 -->
<g id="node18" class="node">
<title>Node18</title>
<g id="a_node18"><a xlink:href="classvae_1_1core_1_1_backend.html#a27327edc7742e3c5ed32772706d0ef30" target="_top" xlink:title="Returns name of the api.">
<polygon fill="none" stroke="black" points="364.5,-0.5 364.5,-30.5 474.5,-30.5 474.5,-0.5 364.5,-0.5"/>
<text text-anchor="start" x="372.5" y="-18.5" font-family="Helvetica,sans-Serif" font-size="10.00">vae::core::Backend</text>
<text text-anchor="middle" x="419.5" y="-7.5" font-family="Helvetica,sans-Serif" font-size="10.00">::getName</text>
</a>
</g>
</g>
<!-- Node17&#45;&gt;Node18 -->
<g id="edge21" class="edge">
<title>Node17&#45;&gt;Node18</title>
<path fill="none" stroke="midnightblue" d="M298.35,-46.06C316.12,-41.54 336.14,-36.45 354.66,-31.74"/>
<polygon fill="midnightblue" stroke="midnightblue" points="355.66,-35.1 364.48,-29.24 353.93,-28.31 355.66,-35.1"/>
</g>
</g>
</svg>
        <g id="navigator" transform="translate(0 0)" fill="#404254">
                <rect fill="#f2f5e9" fill-opacity="0.5" stroke="#606060" stroke-width=".5" x="0" y="0" width="60" height="60"/>
                <use id="zoomplus" xlink:href="#zoomPlus" x="17" y="9" onmousedown="handleZoom(evt,'in')"/>
                <use id="zoomminus" xlink:href="#zoomMin" x="42" y="9" onmousedown="handleZoom(evt,'out')"/>
                <use id="reset" xlink:href="#resetDef" x="30" y="36" onmousedown="handleReset()"/>
                <g id="arrowUp" xlink:href="#dirArrow" transform="translate(30 24)" onmousedown="handlePan(0,-1)">
                  <use xlink:href="#rim" fill="#404040">
                        <set attributeName="fill" to="#808080" begin="arrowUp.mouseover" end="arrowUp.mouseout"/>
                  </use>
                  <path fill="none" stroke="white" stroke-width="1.5" d="M0,-3.0v7 M-2.5,-0.5L0,-3.0L2.5,-0.5"/>
                </g>
                <g id="arrowRight" xlink:href="#dirArrow" transform="rotate(90) translate(36 -43)" onmousedown="handlePan(1,0)">
                  <use xlink:href="#rim" fill="#404040">
                        <set attributeName="fill" to="#808080" begin="arrowRight.mouseover" end="arrowRight.mouseout"/>
                  </use>
                  <path fill="none" stroke="white" stroke-width="1.5" d="M0,-3.0v7 M-2.5,-0.5L0,-3.0L2.5,-0.5"/>
                </g>
                <g id="arrowDown" xlink:href="#dirArrow" transform="rotate(180) translate(-30 -48)" onmousedown="handlePan(0,1)">
                  <use xlink:href="#rim" fill="#404040">
                        <set attributeName="fill" to="#808080" begin="arrowDown.mouseover" end="arrowDown.mouseout"/>
                  </use>
                  <path fill="none" stroke="white" stroke-width="1.5" d="M0,-3.0v7 M-2.5,-0.5L0,-3.0L2.5,-0.5"/>
                </g>
                <g id="arrowLeft" xlink:href="#dirArrow" transform="rotate(270) translate(-36 17)" onmousedown="handlePan(-1,0)">
                  <use xlink:href="#rim" fill="#404040">
                        <set attributeName="fill" to="#808080" begin="arrowLeft.mouseover" end="arrowLeft.mouseout"/>
                  </use>
                  <path fill="none" stroke="white" stroke-width="1.5" d="M0,-3.0v7 M-2.5,-0.5L0,-3.0L2.5,-0.5"/>
                </g>
        </g>
        <svg viewBox="0 0 15 15" width="100%" height="30px" preserveAspectRatio="xMaxYMin meet">
         <g id="arrow_out" transform="scale(0.3 0.3)">
          <a xlink:href="classvae_1_1core_1_1_device_rtaudio_a755c0aea3ee53c858f2dc3e61503de95_cgraph_org.svg" target="_base">
           <rect id="button" ry="5" rx="5" y="6" x="6" height="38" width="38"
                fill="#f2f5e9" fill-opacity="0.5" stroke="#606060" stroke-width="1.0"/>
           <path id="arrow"
             d="M 11.500037,31.436501 C 11.940474,20.09759 22.043105,11.32322 32.158766,21.979434 L 37.068811,17.246167 C 37.068811,17.246167 37.088388,32 37.088388,32 L 22.160133,31.978069 C 22.160133,31.978069 26.997745,27.140456 26.997745,27.140456 C 18.528582,18.264221 13.291696,25.230495 11.500037,31.436501 z"
             style="fill:#404040;"/>
          </a>
         </g>
        </svg>
</svg>
