<?xml version="1.0" encoding="UTF-8" standalone="no"?>
<!DOCTYPE svg PUBLIC "-//W3C//DTD SVG 1.1//EN"
 "http://www.w3.org/Graphics/SVG/1.1/DTD/svg11.dtd">
<!-- Generated by graphviz version 2.50.0 (0)
 -->
<!-- Title: vae::core::Backend Pages: 1 -->
<svg width="510pt" height="314pt"
 viewBox="0.00 0.00 510.00 314.00" xmlns="http://www.w3.org/2000/svg" xmlns:xlink="http://www.w3.org/1999/xlink">
<g id="graph0" class="graph" transform="scale(1 1) rotate(0) translate(4 310)">
<title>vae::core::Backend</title>
<!-- Node1 -->
<g id="node1" class="node">
<title>Node1</title>
<g id="a_node1"><a xlink:title="Backend interface used to query devices before creating a actual device object.">
<polygon fill="#bfbfbf" stroke="black" points="174,-193.5 174,-305.5 328,-305.5 328,-193.5 174,-193.5"/>
<text text-anchor="middle" x="251" y="-293.5" font-family="Helvetica,sans-Serif" font-size="10.00">vae::core::Backend</text>
<polyline fill="none" stroke="black" points="174,-286.5 328,-286.5 "/>
<text text-anchor="middle" x="251" y="-274.5" font-family="Helvetica,sans-Serif" font-size="10.00"> </text>
<polyline fill="none" stroke="black" points="174,-267.5 328,-267.5 "/>
<text text-anchor="start" x="182" y="-255.5" font-family="Helvetica,sans-Serif" font-size="10.00">+ getName()</text>
<text text-anchor="start" x="182" y="-244.5" font-family="Helvetica,sans-Serif" font-size="10.00">+ getDeviceCount()</text>
<text text-anchor="start" x="182" y="-233.5" font-family="Helvetica,sans-Serif" font-size="10.00">+ getDevice()</text>
<text text-anchor="start" x="182" y="-222.5" font-family="Helvetica,sans-Serif" font-size="10.00">+ getDefaultInputDevice()</text>
<text text-anchor="start" x="182" y="-211.5" font-family="Helvetica,sans-Serif" font-size="10.00">+ getDefaultOutputDevice()</text>
<text text-anchor="start" x="182" y="-200.5" font-family="Helvetica,sans-Serif" font-size="10.00">+ createDevice()</text>
</a>
</g>
</g>
<!-- Node2 -->
<g id="node2" class="node">
<title>Node2</title>
<g id="a_node2"><a xlink:href="classvae_1_1core_1_1_backend_dummy.html" target="_top" xlink:title=" ">
<polygon fill="none" stroke="black" points="0,-11.5 0,-145.5 154,-145.5 154,-11.5 0,-11.5"/>
<text text-anchor="middle" x="77" y="-133.5" font-family="Helvetica,sans-Serif" font-size="10.00">vae::core::BackendDummy</text>
<polyline fill="none" stroke="black" points="0,-126.5 154,-126.5 "/>
<text text-anchor="middle" x="77" y="-114.5" font-family="Helvetica,sans-Serif" font-size="10.00"> </text>
<polyline fill="none" stroke="black" points="0,-107.5 154,-107.5 "/>
<text text-anchor="start" x="8" y="-95.5" font-family="Helvetica,sans-Serif" font-size="10.00">+ getDeviceCount()</text>
<text text-anchor="start" x="8" y="-84.5" font-family="Helvetica,sans-Serif" font-size="10.00">+ getDevice()</text>
<text text-anchor="start" x="8" y="-73.5" font-family="Helvetica,sans-Serif" font-size="10.00">+ getName()</text>
<text text-anchor="start" x="8" y="-62.5" font-family="Helvetica,sans-Serif" font-size="10.00">+ getDefaultInputDevice()</text>
<text text-anchor="start" x="8" y="-51.5" font-family="Helvetica,sans-Serif" font-size="10.00">+ getDefaultOutputDevice()</text>
<text text-anchor="start" x="8" y="-40.5" font-family="Helvetica,sans-Serif" font-size="10.00">+ createDevice()</text>
<text text-anchor="start" x="8" y="-29.5" font-family="Helvetica,sans-Serif" font-size="10.00">+ instance()</text>
<text text-anchor="start" x="8" y="-18.5" font-family="Helvetica,sans-Serif" font-size="10.00">&#45; BackendDummy()</text>
</a>
</g>
</g>
<!-- Node1&#45;&gt;Node2 -->
<g id="edge1" class="edge">
<title>Node1&#45;&gt;Node2</title>
<path fill="none" stroke="midnightblue" d="M186.59,-185.94C173.03,-172.77 158.69,-158.85 145.01,-145.56"/>
<polygon fill="none" stroke="midnightblue" points="184.41,-188.71 194.03,-193.16 189.29,-183.69 184.41,-188.71"/>
</g>
<!-- Node3 -->
<g id="node3" class="node">
<title>Node3</title>
<g id="a_node3"><a xlink:href="classvae_1_1core_1_1_backend_port_audio.html" target="_top" xlink:title=" ">
<polygon fill="none" stroke="black" points="172.5,-0.5 172.5,-156.5 329.5,-156.5 329.5,-0.5 172.5,-0.5"/>
<text text-anchor="middle" x="251" y="-144.5" font-family="Helvetica,sans-Serif" font-size="10.00">vae::core::BackendPortAudio</text>
<polyline fill="none" stroke="black" points="172.5,-137.5 329.5,-137.5 "/>
<text text-anchor="middle" x="251" y="-125.5" font-family="Helvetica,sans-Serif" font-size="10.00"> </text>
<polyline fill="none" stroke="black" points="172.5,-118.5 329.5,-118.5 "/>
<text text-anchor="start" x="180.5" y="-106.5" font-family="Helvetica,sans-Serif" font-size="10.00">+ getDeviceCount()</text>
<text text-anchor="start" x="180.5" y="-95.5" font-family="Helvetica,sans-Serif" font-size="10.00">+ getDevice()</text>
<text text-anchor="start" x="180.5" y="-84.5" font-family="Helvetica,sans-Serif" font-size="10.00">+ getName()</text>
<text text-anchor="start" x="180.5" y="-73.5" font-family="Helvetica,sans-Serif" font-size="10.00">+ getDefaultOutputDevice()</text>
<text text-anchor="start" x="180.5" y="-62.5" font-family="Helvetica,sans-Serif" font-size="10.00">+ getDefaultInputDevice()</text>
<text text-anchor="start" x="180.5" y="-51.5" font-family="Helvetica,sans-Serif" font-size="10.00">+ createDevice()</text>
<text text-anchor="start" x="180.5" y="-40.5" font-family="Helvetica,sans-Serif" font-size="10.00">+ instance()</text>
<text text-anchor="start" x="180.5" y="-29.5" font-family="Helvetica,sans-Serif" font-size="10.00">&#45; BackendPortAudio()</text>
<text text-anchor="start" x="180.5" y="-18.5" font-family="Helvetica,sans-Serif" font-size="10.00">&#45; ~BackendPortAudio()</text>
<text text-anchor="start" x="180.5" y="-7.5" font-family="Helvetica,sans-Serif" font-size="10.00">&#45; debugLog()</text>
</a>
</g>
</g>
<!-- Node1&#45;&gt;Node3 -->
<g id="edge2" class="edge">
<title>Node1&#45;&gt;Node3</title>
<path fill="none" stroke="midnightblue" d="M251,-183.16C251,-174.51 251,-165.57 251,-156.74"/>
<polygon fill="none" stroke="midnightblue" points="247.5,-183.16 251,-193.16 254.5,-183.16 247.5,-183.16"/>
</g>
<!-- Node4 -->
<g id="node4" class="node">
<title>Node4</title>
<g id="a_node4"><a xlink:href="classvae_1_1core_1_1_backend_rt_audio.html" target="_top" xlink:title=" ">
<polygon fill="none" stroke="black" points="348,-6 348,-151 502,-151 502,-6 348,-6"/>
<text text-anchor="middle" x="425" y="-139" font-family="Helvetica,sans-Serif" font-size="10.00">vae::core::BackendRtAudio</text>
<polyline fill="none" stroke="black" points="348,-132 502,-132 "/>
<text text-anchor="start" x="356" y="-120" font-family="Helvetica,sans-Serif" font-size="10.00">&#45; mAudio</text>
<polyline fill="none" stroke="black" points="348,-113 502,-113 "/>
<text text-anchor="start" x="356" y="-101" font-family="Helvetica,sans-Serif" font-size="10.00">+ getDeviceCount()</text>
<text text-anchor="start" x="356" y="-90" font-family="Helvetica,sans-Serif" font-size="10.00">+ getDevice()</text>
<text text-anchor="start" x="356" y="-79" font-family="Helvetica,sans-Serif" font-size="10.00">+ getName()</text>
<text text-anchor="start" x="356" y="-68" font-family="Helvetica,sans-Serif" font-size="10.00">+ getDefaultInputDevice()</text>
<text text-anchor="start" x="356" y="-57" font-family="Helvetica,sans-Serif" font-size="10.00">+ getDefaultOutputDevice()</text>
<text text-anchor="start" x="356" y="-46" font-family="Helvetica,sans-Serif" font-size="10.00">+ createDevice()</text>
<text text-anchor="start" x="356" y="-35" font-family="Helvetica,sans-Serif" font-size="10.00">+ instance()</text>
<text text-anchor="start" x="356" y="-24" font-family="Helvetica,sans-Serif" font-size="10.00">&#45; BackendRtAudio()</text>
<text text-anchor="start" x="356" y="-13" font-family="Helvetica,sans-Serif" font-size="10.00">&#45; ~BackendRtAudio()</text>
</a>
</g>
</g>
<!-- Node1&#45;&gt;Node4 -->
<g id="edge3" class="edge">
<title>Node1&#45;&gt;Node4</title>
<path fill="none" stroke="midnightblue" d="M315.17,-186.17C326.87,-174.81 339.15,-162.88 351.1,-151.27"/>
<polygon fill="none" stroke="midnightblue" points="312.71,-183.69 307.97,-193.16 317.59,-188.71 312.71,-183.69"/>
</g>
</g>
</svg>
