<?xml version="1.0" encoding="UTF-8" standalone="no"?>
<!DOCTYPE svg PUBLIC "-//W3C//DTD SVG 1.1//EN"
 "http://www.w3.org/Graphics/SVG/1.1/DTD/svg11.dtd">
<!-- Generated by graphviz version 2.50.0 (0)
 -->
<!-- Title: vae::EnginePimpl::update Pages: 1 -->
<!--zoomable 356 -->
<svg id="main" version="1.1" xmlns="http://www.w3.org/2000/svg" xmlns:xlink="http://www.w3.org/1999/xlink" xml:space="preserve" onload="init(evt)">
<style type="text/css"><![CDATA[
.edge:hover path { stroke: red; }
.edge:hover polygon { stroke: red; fill: red; }
]]></style>
<script type="text/javascript"><![CDATA[
var edges = document.getElementsByTagName('g');
if (edges && edges.length) {
  for (var i=0;i<edges.length;i++) {
    if (edges[i].id.substr(0,4)=='edge') {
      edges[i].setAttribute('class','edge');
    }
  }
}
]]></script>
        <defs>
                <circle id="rim" cx="0" cy="0" r="7"/>
                <circle id="rim2" cx="0" cy="0" r="3.5"/>
                <g id="zoomPlus">
                        <use xlink:href="#rim" fill="#404040">
                                <set attributeName="fill" to="#808080" begin="zoomplus.mouseover" end="zoomplus.mouseout"/>
                        </use>
                        <path d="M-4,0h8M0,-4v8" fill="none" stroke="white" stroke-width="1.5" pointer-events="none"/>
                </g>
                <g id="zoomMin">
                        <use xlink:href="#rim" fill="#404040">
                                <set attributeName="fill" to="#808080" begin="zoomminus.mouseover" end="zoomminus.mouseout"/>
                        </use>
                        <path d="M-4,0h8" fill="none" stroke="white" stroke-width="1.5" pointer-events="none"/>
                </g>
                <g id="dirArrow">
                        <path fill="none" stroke="white" stroke-width="1.5" d="M0,-3.0v7 M-2.5,-0.5L0,-3.0L2.5,-0.5"/>
                </g>
               <g id="resetDef">
                       <use xlink:href="#rim2" fill="#404040">
                               <set attributeName="fill" to="#808080" begin="reset.mouseover" end="reset.mouseout"/>
                       </use>
               </g>
        </defs>

<script type="text/javascript">
var viewWidth = 830;
var viewHeight = 356;
var sectionId = 'dynsection-28';
</script>
<script xlink:href="svgpan.js"/>
<svg id="graph" class="graph">
<g id="viewport">
<title>vae::EnginePimpl::update</title>
<!-- Node1 -->
<g id="node1" class="node">
<title>Node1</title>
<g id="a_node1"><a xlink:title="Update function needs to be called regularly to handle outbound events and other housekeeping.">
<polygon fill="#bfbfbf" stroke="black" points="0,-153 0,-172 141,-172 141,-153 0,-153"/>
<text text-anchor="middle" x="70.5" y="-160" font-family="Helvetica,sans-Serif" font-size="10.00">vae::EnginePimpl::update</text>
</a>
</g>
</g>
<!-- Node2 -->
<g id="node2" class="node">
<title>Node2</title>
<g id="a_node2"><a xlink:href="classvae_1_1core_1_1_engine.html#adb4e1cb3bd1ea11bb9d3b806d552fb75" target="_top" xlink:title="Update function needs to be called regularly to handle outbound events and other housekeeping.">
<polygon fill="none" stroke="black" points="177,-147.5 177,-177.5 284,-177.5 284,-147.5 177,-147.5"/>
<text text-anchor="start" x="185" y="-165.5" font-family="Helvetica,sans-Serif" font-size="10.00">vae::core::Engine::</text>
<text text-anchor="middle" x="230.5" y="-154.5" font-family="Helvetica,sans-Serif" font-size="10.00">update</text>
</a>
</g>
</g>
<!-- Node1&#45;&gt;Node2 -->
<g id="edge1" class="edge">
<title>Node1&#45;&gt;Node2</title>
<path fill="none" stroke="midnightblue" d="M141.26,-162.5C149.72,-162.5 158.33,-162.5 166.68,-162.5"/>
<polygon fill="midnightblue" stroke="midnightblue" points="166.72,-166 176.72,-162.5 166.72,-159 166.72,-166"/>
</g>
<!-- Node3 -->
<g id="node3" class="node">
<title>Node3</title>
<g id="a_node3"><a xlink:href="classvae_1_1core_1_1_engine.html#a4721a2bf236efae669ee51ba148e193a" target="_top" xlink:title="Main mechanism to start and stop sounds.">
<polygon fill="none" stroke="black" points="338,-245.5 338,-275.5 445,-275.5 445,-245.5 338,-245.5"/>
<text text-anchor="start" x="346" y="-263.5" font-family="Helvetica,sans-Serif" font-size="10.00">vae::core::Engine::</text>
<text text-anchor="middle" x="391.5" y="-252.5" font-family="Helvetica,sans-Serif" font-size="10.00">fireEvent</text>
</a>
</g>
</g>
<!-- Node2&#45;&gt;Node3 -->
<g id="edge2" class="edge">
<title>Node2&#45;&gt;Node3</title>
<path fill="none" stroke="midnightblue" d="M246.18,-177.76C262.76,-194.24 291.2,-220.3 320,-236.5 323.08,-238.23 326.31,-239.87 329.61,-241.41"/>
<polygon fill="midnightblue" stroke="midnightblue" points="328.51,-244.75 339.08,-245.5 331.29,-238.32 328.51,-244.75"/>
</g>
<!-- Node5 -->
<g id="node5" class="node">
<title>Node5</title>
<g id="a_node5"><a xlink:href="classvae_1_1core_1_1_bank_manager.html#a4ec4afe30adb6e0108e799d26070a3a5" target="_top" xlink:title=" ">
<polygon fill="none" stroke="black" points="500,-328 500,-347 656,-347 656,-328 500,-328"/>
<text text-anchor="middle" x="578" y="-335" font-family="Helvetica,sans-Serif" font-size="10.00">vae::core::BankManager::get</text>
</a>
</g>
</g>
<!-- Node2&#45;&gt;Node5 -->
<g id="edge15" class="edge">
<title>Node2&#45;&gt;Node5</title>
<path fill="none" stroke="midnightblue" d="M236.1,-177.51C246.05,-207.18 272.58,-273.04 320,-303.5 369.98,-335.6 436.75,-343.64 489.7,-343.89"/>
<polygon fill="midnightblue" stroke="midnightblue" points="489.77,-347.39 499.75,-343.85 489.74,-340.39 489.77,-347.39"/>
</g>
<!-- Node13 -->
<g id="node13" class="node">
<title>Node13</title>
<g id="a_node13"><a xlink:href="classvae_1_1core_1_1_voice_manger.html#aa113e41a96ba78d05f6651f3920234e7" target="_top" xlink:title=" ">
<polygon fill="none" stroke="black" points="327,-196.5 327,-226.5 456,-226.5 456,-196.5 327,-196.5"/>
<text text-anchor="start" x="335" y="-214.5" font-family="Helvetica,sans-Serif" font-size="10.00">vae::core::VoiceManger</text>
<text text-anchor="middle" x="391.5" y="-203.5" font-family="Helvetica,sans-Serif" font-size="10.00">::forEachFinishedVoice</text>
</a>
</g>
</g>
<!-- Node2&#45;&gt;Node13 -->
<g id="edge14" class="edge">
<title>Node2&#45;&gt;Node13</title>
<path fill="none" stroke="midnightblue" d="M280.5,-177.6C296.75,-182.61 315,-188.23 331.89,-193.44"/>
<polygon fill="midnightblue" stroke="midnightblue" points="331.07,-196.85 341.66,-196.45 333.13,-190.16 331.07,-196.85"/>
</g>
<!-- Node14 -->
<g id="node14" class="node">
<title>Node14</title>
<g id="a_node14"><a xlink:href="classvae_1_1core_1_1_spatial_manager.html#afc5a2274a1d6098a64d6cb9d124bb7ed" target="_top" xlink:title=" ">
<polygon fill="none" stroke="black" points="320,-147.5 320,-177.5 463,-177.5 463,-147.5 320,-147.5"/>
<text text-anchor="start" x="328" y="-165.5" font-family="Helvetica,sans-Serif" font-size="10.00">vae::core::SpatialManager</text>
<text text-anchor="middle" x="391.5" y="-154.5" font-family="Helvetica,sans-Serif" font-size="10.00">::getEmitter</text>
</a>
</g>
</g>
<!-- Node2&#45;&gt;Node14 -->
<g id="edge16" class="edge">
<title>Node2&#45;&gt;Node14</title>
<path fill="none" stroke="midnightblue" d="M284,-162.5C292.26,-162.5 300.96,-162.5 309.68,-162.5"/>
<polygon fill="midnightblue" stroke="midnightblue" points="309.9,-166 319.9,-162.5 309.9,-159 309.9,-166"/>
</g>
<!-- Node15 -->
<g id="node15" class="node">
<title>Node15</title>
<g id="a_node15"><a xlink:href="classvae_1_1core_1_1_bank_manager.html#a5a3fbdf25cfbfa0f5a025a93c892927b" target="_top" xlink:title=" ">
<polygon fill="none" stroke="black" points="324.5,-98.5 324.5,-128.5 458.5,-128.5 458.5,-98.5 324.5,-98.5"/>
<text text-anchor="start" x="332.5" y="-116.5" font-family="Helvetica,sans-Serif" font-size="10.00">vae::core::BankManager</text>
<text text-anchor="middle" x="391.5" y="-105.5" font-family="Helvetica,sans-Serif" font-size="10.00">::lock</text>
</a>
</g>
</g>
<!-- Node2&#45;&gt;Node15 -->
<g id="edge17" class="edge">
<title>Node2&#45;&gt;Node15</title>
<path fill="none" stroke="midnightblue" d="M280.5,-147.4C296.75,-142.39 315,-136.77 331.89,-131.56"/>
<polygon fill="midnightblue" stroke="midnightblue" points="333.13,-134.84 341.66,-128.55 331.07,-128.15 333.13,-134.84"/>
</g>
<!-- Node16 -->
<g id="node16" class="node">
<title>Node16</title>
<g id="a_node16"><a xlink:href="classvae_1_1core_1_1_bank_manager.html#a33ded40dcd72a14c7988112528c72b65" target="_top" xlink:title=" ">
<polygon fill="none" stroke="black" points="324.5,-49.5 324.5,-79.5 458.5,-79.5 458.5,-49.5 324.5,-49.5"/>
<text text-anchor="start" x="332.5" y="-67.5" font-family="Helvetica,sans-Serif" font-size="10.00">vae::core::BankManager</text>
<text text-anchor="middle" x="391.5" y="-56.5" font-family="Helvetica,sans-Serif" font-size="10.00">::unlock</text>
</a>
</g>
</g>
<!-- Node2&#45;&gt;Node16 -->
<g id="edge18" class="edge">
<title>Node2&#45;&gt;Node16</title>
<path fill="none" stroke="midnightblue" d="M246.18,-147.24C262.76,-130.76 291.2,-104.7 320,-88.5 323.08,-86.77 326.31,-85.13 329.61,-83.59"/>
<polygon fill="midnightblue" stroke="midnightblue" points="331.29,-86.68 339.08,-79.5 328.51,-80.25 331.29,-86.68"/>
</g>
<!-- Node17 -->
<g id="node17" class="node">
<title>Node17</title>
<g id="a_node17"><a xlink:href="classvae_1_1core_1_1_spatial_manager.html#af36db06e14d8661f0bf637a1d5382adb" target="_top" xlink:title=" ">
<polygon fill="none" stroke="black" points="320,-0.5 320,-30.5 463,-30.5 463,-0.5 320,-0.5"/>
<text text-anchor="start" x="328" y="-18.5" font-family="Helvetica,sans-Serif" font-size="10.00">vae::core::SpatialManager</text>
<text text-anchor="middle" x="391.5" y="-7.5" font-family="Helvetica,sans-Serif" font-size="10.00">::update</text>
</a>
</g>
</g>
<!-- Node2&#45;&gt;Node17 -->
<g id="edge19" class="edge">
<title>Node2&#45;&gt;Node17</title>
<path fill="none" stroke="midnightblue" d="M238.5,-147.31C251.16,-121.48 280.26,-68.94 320,-39.5 321.86,-38.12 323.8,-36.82 325.8,-35.59"/>
<polygon fill="midnightblue" stroke="midnightblue" points="327.81,-38.49 334.94,-30.65 324.48,-32.33 327.81,-38.49"/>
</g>
<!-- Node3&#45;&gt;Node3 -->
<g id="edge3" class="edge">
<title>Node3&#45;&gt;Node3</title>
<path fill="none" stroke="midnightblue" d="M363.62,-275.66C356.89,-285.06 366.19,-294 391.5,-294 406.92,-294 416.4,-290.68 419.93,-285.96"/>
<polygon fill="midnightblue" stroke="midnightblue" points="423.41,-285.46 419.38,-275.66 416.42,-285.83 423.41,-285.46"/>
</g>
<!-- Node4 -->
<g id="node4" class="node">
<title>Node4</title>
<g id="a_node4"><a xlink:href="classvae_1_1core_1_1_spatial_manager.html#addd80ecf83e30b0814eaee82ae7bd700" target="_top" xlink:title=" ">
<polygon fill="none" stroke="black" points="506.5,-49.5 506.5,-79.5 649.5,-79.5 649.5,-49.5 506.5,-49.5"/>
<text text-anchor="start" x="514.5" y="-67.5" font-family="Helvetica,sans-Serif" font-size="10.00">vae::core::SpatialManager</text>
<text text-anchor="middle" x="578" y="-56.5" font-family="Helvetica,sans-Serif" font-size="10.00">::forListeners</text>
</a>
</g>
</g>
<!-- Node3&#45;&gt;Node4 -->
<g id="edge4" class="edge">
<title>Node3&#45;&gt;Node4</title>
<path fill="none" stroke="midnightblue" d="M445.31,-248.62C451.83,-245.48 457.96,-241.52 463,-236.5 497.68,-202 471.64,-173.05 499,-132.5 511.29,-114.28 529.65,-97.94 545.47,-85.85"/>
<polygon fill="midnightblue" stroke="midnightblue" points="547.98,-88.35 553.94,-79.59 543.82,-82.72 547.98,-88.35"/>
</g>
<!-- Node3&#45;&gt;Node5 -->
<g id="edge5" class="edge">
<title>Node3&#45;&gt;Node5</title>
<path fill="none" stroke="midnightblue" d="M416.17,-275.73C437.2,-288.68 469.15,-306.96 499,-318.5 505.46,-321 512.36,-323.24 519.27,-325.24"/>
<polygon fill="midnightblue" stroke="midnightblue" points="518.8,-328.74 529.37,-327.98 520.64,-321.98 518.8,-328.74"/>
</g>
<!-- Node6 -->
<g id="node6" class="node">
<title>Node6</title>
<g id="a_node6"><a xlink:href="classvae_1_1core_1_1_bank_manager.html#aef2d335fb63d6f4be9f5b4793e309c99" target="_top" xlink:title=" ">
<polygon fill="none" stroke="black" points="499,-290 499,-309 657,-309 657,-290 499,-290"/>
<text text-anchor="middle" x="578" y="-297" font-family="Helvetica,sans-Serif" font-size="10.00">vae::core::BankManager::has</text>
</a>
</g>
</g>
<!-- Node3&#45;&gt;Node6 -->
<g id="edge6" class="edge">
<title>Node3&#45;&gt;Node6</title>
<path fill="none" stroke="midnightblue" d="M445.37,-271.68C469.32,-276.74 497.62,-282.72 521.83,-287.84"/>
<polygon fill="midnightblue" stroke="midnightblue" points="521.43,-291.33 531.94,-289.97 522.88,-284.48 521.43,-291.33"/>
</g>
<!-- Node7 -->
<g id="node7" class="node">
<title>Node7</title>
<g id="a_node7"><a xlink:href="classvae_1_1core_1_1_spatial_manager.html#a8223349a8417dbd972f9979618849a4e" target="_top" xlink:title=" ">
<polygon fill="none" stroke="black" points="506.5,-240.5 506.5,-270.5 649.5,-270.5 649.5,-240.5 506.5,-240.5"/>
<text text-anchor="start" x="514.5" y="-258.5" font-family="Helvetica,sans-Serif" font-size="10.00">vae::core::SpatialManager</text>
<text text-anchor="middle" x="578" y="-247.5" font-family="Helvetica,sans-Serif" font-size="10.00">::hasEmitter</text>
</a>
</g>
</g>
<!-- Node3&#45;&gt;Node7 -->
<g id="edge7" class="edge">
<title>Node3&#45;&gt;Node7</title>
<path fill="none" stroke="midnightblue" d="M445.37,-259.07C461.21,-258.64 478.97,-258.16 496.18,-257.69"/>
<polygon fill="midnightblue" stroke="midnightblue" points="496.33,-261.19 506.23,-257.42 496.14,-254.19 496.33,-261.19"/>
</g>
<!-- Node8 -->
<g id="node8" class="node">
<title>Node8</title>
<g id="a_node8"><a xlink:href="classvae_1_1core_1_1_voice_manger.html#a56795adf1dfc9e96a8ef00fba1ae03ca" target="_top" xlink:title=" ">
<polygon fill="none" stroke="black" points="513.5,-191.5 513.5,-221.5 642.5,-221.5 642.5,-191.5 513.5,-191.5"/>
<text text-anchor="start" x="521.5" y="-209.5" font-family="Helvetica,sans-Serif" font-size="10.00">vae::core::VoiceManger</text>
<text text-anchor="middle" x="578" y="-198.5" font-family="Helvetica,sans-Serif" font-size="10.00">::play</text>
</a>
</g>
</g>
<!-- Node3&#45;&gt;Node8 -->
<g id="edge8" class="edge">
<title>Node3&#45;&gt;Node8</title>
<path fill="none" stroke="midnightblue" d="M443.89,-245.46C466.19,-238.93 492.48,-231.24 515.78,-224.42"/>
<polygon fill="midnightblue" stroke="midnightblue" points="516.95,-227.72 525.56,-221.55 514.98,-221 516.95,-227.72"/>
</g>
<!-- Node11 -->
<g id="node11" class="node">
<title>Node11</title>
<g id="a_node11"><a xlink:href="classvae_1_1core_1_1_voice_manger.html#a51b077f535b7eebcc1e62d5ca5a0d95d" target="_top" xlink:title="Stops a voice.">
<polygon fill="none" stroke="black" points="513.5,-142.5 513.5,-172.5 642.5,-172.5 642.5,-142.5 513.5,-142.5"/>
<text text-anchor="start" x="521.5" y="-160.5" font-family="Helvetica,sans-Serif" font-size="10.00">vae::core::VoiceManger</text>
<text text-anchor="middle" x="578" y="-149.5" font-family="Helvetica,sans-Serif" font-size="10.00">::stop</text>
</a>
</g>
</g>
<!-- Node3&#45;&gt;Node11 -->
<g id="edge11" class="edge">
<title>Node3&#45;&gt;Node11</title>
<path fill="none" stroke="midnightblue" d="M445.3,-246.88C451.6,-244.02 457.67,-240.6 463,-236.5 485.87,-218.92 475.98,-199.88 499,-182.5 501.47,-180.63 504.09,-178.9 506.81,-177.3"/>
<polygon fill="midnightblue" stroke="midnightblue" points="508.56,-180.34 515.79,-172.6 505.31,-174.13 508.56,-180.34"/>
</g>
<!-- Node9 -->
<g id="node9" class="node">
<title>Node9</title>
<g id="a_node9"><a xlink:href="classvae_1_1core_1_1_voice_manger.html#aca4814fa5ec2f09d38c7b15e92ce0cad" target="_top" xlink:title="makes provided voice virtual">
<polygon fill="none" stroke="black" points="693,-210.5 693,-240.5 822,-240.5 822,-210.5 693,-210.5"/>
<text text-anchor="start" x="701" y="-228.5" font-family="Helvetica,sans-Serif" font-size="10.00">vae::core::VoiceManger</text>
<text text-anchor="middle" x="757.5" y="-217.5" font-family="Helvetica,sans-Serif" font-size="10.00">::makeVirtual</text>
</a>
</g>
</g>
<!-- Node8&#45;&gt;Node9 -->
<g id="edge9" class="edge">
<title>Node8&#45;&gt;Node9</title>
<path fill="none" stroke="midnightblue" d="M642.58,-213.31C655.58,-214.7 669.37,-216.17 682.69,-217.6"/>
<polygon fill="midnightblue" stroke="midnightblue" points="682.45,-221.09 692.77,-218.68 683.2,-214.13 682.45,-221.09"/>
</g>
<!-- Node10 -->
<g id="node10" class="node">
<title>Node10</title>
<g id="a_node10"><a xlink:href="namespacetklb.html#a7dc2203e89c331e3c85b9e7f16fa6763" target="_top" xlink:title=" ">
<polygon fill="none" stroke="black" points="726,-172 726,-191 789,-191 789,-172 726,-172"/>
<text text-anchor="middle" x="757.5" y="-179" font-family="Helvetica,sans-Serif" font-size="10.00">tklb::max</text>
</a>
</g>
</g>
<!-- Node8&#45;&gt;Node10 -->
<g id="edge10" class="edge">
<title>Node8&#45;&gt;Node10</title>
<path fill="none" stroke="midnightblue" d="M642.58,-197.55C666.86,-194.13 693.88,-190.32 715.51,-187.27"/>
<polygon fill="midnightblue" stroke="midnightblue" points="716.24,-190.7 725.65,-185.84 715.26,-183.77 716.24,-190.7"/>
</g>
<!-- Node11&#45;&gt;Node10 -->
<g id="edge13" class="edge">
<title>Node11&#45;&gt;Node10</title>
<path fill="none" stroke="midnightblue" d="M642.58,-166.1C666.86,-169.38 693.88,-173.03 715.51,-175.96"/>
<polygon fill="midnightblue" stroke="midnightblue" points="715.28,-179.46 725.65,-177.33 716.21,-172.52 715.28,-179.46"/>
</g>
<!-- Node12 -->
<g id="node12" class="node">
<title>Node12</title>
<g id="a_node12"><a xlink:href="classvae_1_1core_1_1_voice_manger.html#abe6b6d5a07c73e1e194f24314226a19f" target="_top" xlink:title=" ">
<polygon fill="none" stroke="black" points="693,-122.5 693,-152.5 822,-152.5 822,-122.5 693,-122.5"/>
<text text-anchor="start" x="701" y="-140.5" font-family="Helvetica,sans-Serif" font-size="10.00">vae::core::VoiceManger</text>
<text text-anchor="middle" x="757.5" y="-129.5" font-family="Helvetica,sans-Serif" font-size="10.00">::finished</text>
</a>
</g>
</g>
<!-- Node11&#45;&gt;Node12 -->
<g id="edge12" class="edge">
<title>Node11&#45;&gt;Node12</title>
<path fill="none" stroke="midnightblue" d="M642.58,-150.34C655.58,-148.87 669.37,-147.32 682.69,-145.82"/>
<polygon fill="midnightblue" stroke="midnightblue" points="683.22,-149.28 692.77,-144.68 682.44,-142.32 683.22,-149.28"/>
</g>
<!-- Node17&#45;&gt;Node4 -->
<g id="edge20" class="edge">
<title>Node17&#45;&gt;Node4</title>
<path fill="none" stroke="midnightblue" d="M449.11,-30.53C468.59,-35.71 490.58,-41.55 510.76,-46.91"/>
<polygon fill="midnightblue" stroke="midnightblue" points="509.93,-50.31 520.5,-49.49 511.73,-43.54 509.93,-50.31"/>
</g>
</g>
</svg>
        <g id="navigator" transform="translate(0 0)" fill="#404254">
                <rect fill="#f2f5e9" fill-opacity="0.5" stroke="#606060" stroke-width=".5" x="0" y="0" width="60" height="60"/>
                <use id="zoomplus" xlink:href="#zoomPlus" x="17" y="9" onmousedown="handleZoom(evt,'in')"/>
                <use id="zoomminus" xlink:href="#zoomMin" x="42" y="9" onmousedown="handleZoom(evt,'out')"/>
                <use id="reset" xlink:href="#resetDef" x="30" y="36" onmousedown="handleReset()"/>
                <g id="arrowUp" xlink:href="#dirArrow" transform="translate(30 24)" onmousedown="handlePan(0,-1)">
                  <use xlink:href="#rim" fill="#404040">
                        <set attributeName="fill" to="#808080" begin="arrowUp.mouseover" end="arrowUp.mouseout"/>
                  </use>
                  <path fill="none" stroke="white" stroke-width="1.5" d="M0,-3.0v7 M-2.5,-0.5L0,-3.0L2.5,-0.5"/>
                </g>
                <g id="arrowRight" xlink:href="#dirArrow" transform="rotate(90) translate(36 -43)" onmousedown="handlePan(1,0)">
                  <use xlink:href="#rim" fill="#404040">
                        <set attributeName="fill" to="#808080" begin="arrowRight.mouseover" end="arrowRight.mouseout"/>
                  </use>
                  <path fill="none" stroke="white" stroke-width="1.5" d="M0,-3.0v7 M-2.5,-0.5L0,-3.0L2.5,-0.5"/>
                </g>
                <g id="arrowDown" xlink:href="#dirArrow" transform="rotate(180) translate(-30 -48)" onmousedown="handlePan(0,1)">
                  <use xlink:href="#rim" fill="#404040">
                        <set attributeName="fill" to="#808080" begin="arrowDown.mouseover" end="arrowDown.mouseout"/>
                  </use>
                  <path fill="none" stroke="white" stroke-width="1.5" d="M0,-3.0v7 M-2.5,-0.5L0,-3.0L2.5,-0.5"/>
                </g>
                <g id="arrowLeft" xlink:href="#dirArrow" transform="rotate(270) translate(-36 17)" onmousedown="handlePan(-1,0)">
                  <use xlink:href="#rim" fill="#404040">
                        <set attributeName="fill" to="#808080" begin="arrowLeft.mouseover" end="arrowLeft.mouseout"/>
                  </use>
                  <path fill="none" stroke="white" stroke-width="1.5" d="M0,-3.0v7 M-2.5,-0.5L0,-3.0L2.5,-0.5"/>
                </g>
        </g>
        <svg viewBox="0 0 15 15" width="100%" height="30px" preserveAspectRatio="xMaxYMin meet">
         <g id="arrow_out" transform="scale(0.3 0.3)">
          <a xlink:href="classvae_1_1_engine_pimpl_a8e9296021147373d9b8c415c460fe842_cgraph_org.svg" target="_base">
           <rect id="button" ry="5" rx="5" y="6" x="6" height="38" width="38"
                fill="#f2f5e9" fill-opacity="0.5" stroke="#606060" stroke-width="1.0"/>
           <path id="arrow"
             d="M 11.500037,31.436501 C 11.940474,20.09759 22.043105,11.32322 32.158766,21.979434 L 37.068811,17.246167 C 37.068811,17.246167 37.088388,32 37.088388,32 L 22.160133,31.978069 C 22.160133,31.978069 26.997745,27.140456 26.997745,27.140456 C 18.528582,18.264221 13.291696,25.230495 11.500037,31.436501 z"
             style="fill:#404040;"/>
          </a>
         </g>
        </svg>
</svg>
