<?xml version="1.0" encoding="UTF-8" standalone="no"?>
<!DOCTYPE svg PUBLIC "-//W3C//DTD SVG 1.1//EN"
 "http://www.w3.org/Graphics/SVG/1.1/DTD/svg11.dtd">
<!-- Generated by graphviz version 2.50.0 (0)
 -->
<!-- Title: tklb::BaseDelegate&lt; Parameters &gt; Pages: 1 -->
<svg width="160pt" height="204pt"
 viewBox="0.00 0.00 160.00 204.00" xmlns="http://www.w3.org/2000/svg" xmlns:xlink="http://www.w3.org/1999/xlink">
<g id="graph0" class="graph" transform="scale(1 1) rotate(0) translate(4 200)">
<title>tklb::BaseDelegate&lt; Parameters &gt;</title>
<!-- Node1 -->
<g id="node1" class="node">
<title>Node1</title>
<g id="a_node1"><a xlink:title="Stripped down version of this delegate implementation https://github.com/marcmo/delegates/tree/f0938d...">
<polygon fill="#bfbfbf" stroke="black" points="9,-0.5 9,-90.5 119,-90.5 119,-0.5 9,-0.5"/>
<text text-anchor="start" x="17" y="-78.5" font-family="Helvetica,sans-Serif" font-size="10.00">tklb::BaseDelegate</text>
<text text-anchor="middle" x="64" y="-67.5" font-family="Helvetica,sans-Serif" font-size="10.00">&lt; Parameters &gt;</text>
<polyline fill="none" stroke="black" points="9,-60.5 119,-60.5 "/>
<text text-anchor="middle" x="64" y="-48.5" font-family="Helvetica,sans-Serif" font-size="10.00"> </text>
<polyline fill="none" stroke="black" points="9,-41.5 119,-41.5 "/>
<text text-anchor="start" x="17" y="-29.5" font-family="Helvetica,sans-Serif" font-size="10.00">+ BaseDelegate()</text>
<text text-anchor="start" x="17" y="-18.5" font-family="Helvetica,sans-Serif" font-size="10.00">+ operator()()</text>
<text text-anchor="start" x="17" y="-7.5" font-family="Helvetica,sans-Serif" font-size="10.00">+ valid()</text>
</a>
</g>
</g>
<!-- Node2 -->
<g id="node2" class="node">
<title>Node2</title>
<g id="a_node2"><a xlink:title=" ">
<polygon fill="none" stroke="#bfbfbf" points="0,-138.5 0,-195.5 46,-195.5 46,-138.5 0,-138.5"/>
<text text-anchor="middle" x="23" y="-183.5" font-family="Helvetica,sans-Serif" font-size="10.00">void *</text>
<polyline fill="none" stroke="#bfbfbf" points="0,-176.5 46,-176.5 "/>
<text text-anchor="middle" x="23" y="-164.5" font-family="Helvetica,sans-Serif" font-size="10.00"> </text>
<polyline fill="none" stroke="#bfbfbf" points="0,-157.5 46,-157.5 "/>
<text text-anchor="middle" x="23" y="-145.5" font-family="Helvetica,sans-Serif" font-size="10.00"> </text>
</a>
</g>
</g>
<!-- Node2&#45;&gt;Node1 -->
<g id="edge1" class="edge">
<title>Node2&#45;&gt;Node1</title>
<path fill="none" stroke="#404040" d="M20.47,-138.27C20.39,-128.81 21.19,-118.28 24,-109 24.73,-106.59 25.58,-104.19 26.53,-101.8"/>
<polygon fill="none" stroke="#404040" points="26.57,-101.7 25.45,-94.57 31.6,-90.8 32.72,-97.92 26.57,-101.7"/>
<text text-anchor="middle" x="54" y="-112" font-family="Helvetica,sans-Serif" font-size="10.00"> #mContext</text>
</g>
<!-- Node3 -->
<g id="node3" class="node">
<title>Node3</title>
<g id="a_node3"><a xlink:title=" ">
<polygon fill="none" stroke="#bfbfbf" points="69.5,-138.5 69.5,-195.5 142.5,-195.5 142.5,-138.5 69.5,-138.5"/>
<text text-anchor="middle" x="106" y="-183.5" font-family="Helvetica,sans-Serif" font-size="10.00">Parameters</text>
<polyline fill="none" stroke="#bfbfbf" points="69.5,-176.5 142.5,-176.5 "/>
<text text-anchor="middle" x="106" y="-164.5" font-family="Helvetica,sans-Serif" font-size="10.00"> </text>
<polyline fill="none" stroke="#bfbfbf" points="69.5,-157.5 142.5,-157.5 "/>
<text text-anchor="middle" x="106" y="-145.5" font-family="Helvetica,sans-Serif" font-size="10.00"> </text>
</a>
</g>
</g>
<!-- Node3&#45;&gt;Node1 -->
<g id="edge2" class="edge">
<title>Node3&#45;&gt;Node1</title>
<path fill="none" stroke="#404040" d="M96.26,-138.28C92.47,-127.52 88,-114.78 83.6,-102.27"/>
<polygon fill="none" stroke="#404040" points="83.59,-102.23 77.83,-97.9 79.61,-90.91 85.37,-95.25 83.59,-102.23"/>
<text text-anchor="middle" x="120" y="-112" font-family="Helvetica,sans-Serif" font-size="10.00"> #mCallback</text>
</g>
</g>
</svg>
