<?xml version="1.0" encoding="UTF-8" standalone="no"?>
<!DOCTYPE svg PUBLIC "-//W3C//DTD SVG 1.1//EN"
 "http://www.w3.org/Graphics/SVG/1.1/DTD/svg11.dtd">
<!-- Generated by graphviz version 2.50.0 (0)
 -->
<!-- Title: vae::core::VoiceManger::setVoiceProperty Pages: 1 -->
<!--zoomable 225 -->
<svg id="main" version="1.1" xmlns="http://www.w3.org/2000/svg" xmlns:xlink="http://www.w3.org/1999/xlink" xml:space="preserve" onload="init(evt)">
<style type="text/css"><![CDATA[
.edge:hover path { stroke: red; }
.edge:hover polygon { stroke: red; fill: red; }
]]></style>
<script type="text/javascript"><![CDATA[
var edges = document.getElementsByTagName('g');
if (edges && edges.length) {
  for (var i=0;i<edges.length;i++) {
    if (edges[i].id.substr(0,4)=='edge') {
      edges[i].setAttribute('class','edge');
    }
  }
}
]]></script>
        <defs>
                <circle id="rim" cx="0" cy="0" r="7"/>
                <circle id="rim2" cx="0" cy="0" r="3.5"/>
                <g id="zoomPlus">
                        <use xlink:href="#rim" fill="#404040">
                                <set attributeName="fill" to="#808080" begin="zoomplus.mouseover" end="zoomplus.mouseout"/>
                        </use>
                        <path d="M-4,0h8M0,-4v8" fill="none" stroke="white" stroke-width="1.5" pointer-events="none"/>
                </g>
                <g id="zoomMin">
                        <use xlink:href="#rim" fill="#404040">
                                <set attributeName="fill" to="#808080" begin="zoomminus.mouseover" end="zoomminus.mouseout"/>
                        </use>
                        <path d="M-4,0h8" fill="none" stroke="white" stroke-width="1.5" pointer-events="none"/>
                </g>
                <g id="dirArrow">
                        <path fill="none" stroke="white" stroke-width="1.5" d="M0,-3.0v7 M-2.5,-0.5L0,-3.0L2.5,-0.5"/>
                </g>
               <g id="resetDef">
                       <use xlink:href="#rim2" fill="#404040">
                               <set attributeName="fill" to="#808080" begin="reset.mouseover" end="reset.mouseout"/>
                       </use>
               </g>
        </defs>

<script type="text/javascript">
var viewWidth = 506;
var viewHeight = 225;
var sectionId = 'dynsection-10';
</script>
<script xlink:href="svgpan.js"/>
<svg id="graph" class="graph">
<g id="viewport">
<title>vae::core::VoiceManger::setVoiceProperty</title>
<!-- Node1 -->
<g id="node1" class="node">
<title>Node1</title>
<g id="a_node1"><a xlink:title=" ">
<polygon fill="#bfbfbf" stroke="black" points="369,-98.5 369,-128.5 498,-128.5 498,-98.5 369,-98.5"/>
<text text-anchor="start" x="377" y="-116.5" font-family="Helvetica,sans-Serif" font-size="10.00">vae::core::VoiceManger</text>
<text text-anchor="middle" x="433.5" y="-105.5" font-family="Helvetica,sans-Serif" font-size="10.00">::setVoiceProperty</text>
</a>
</g>
</g>
<!-- Node2 -->
<g id="node2" class="node">
<title>Node2</title>
<g id="a_node2"><a xlink:href="classvae_1_1core_1_1_engine.html#ad4d3d2d3295fe6e1de0f347f1e5b10dd" target="_top" xlink:title="Set the current time of all voices with the emitter.">
<polygon fill="none" stroke="black" points="203,-197 203,-216 333,-216 333,-197 203,-197"/>
<text text-anchor="middle" x="268" y="-204" font-family="Helvetica,sans-Serif" font-size="10.00">vae::core::Engine::seek</text>
</a>
</g>
</g>
<!-- Node1&#45;&gt;Node2 -->
<g id="edge1" class="edge">
<title>Node1&#45;&gt;Node2</title>
<path fill="none" stroke="midnightblue" d="M408.45,-135.21C389.23,-151.57 360.96,-173.51 333,-187.5 325.54,-191.23 317.21,-194.37 309.09,-196.95"/>
<polygon fill="midnightblue" stroke="midnightblue" points="410.84,-137.77 416.1,-128.58 406.25,-132.48 410.84,-137.77"/>
</g>
<!-- Node4 -->
<g id="node4" class="node">
<title>Node4</title>
<g id="a_node4"><a xlink:href="classvae_1_1core_1_1_engine.html#ae6b969605990d7cffcb5a2680a04f4da" target="_top" xlink:title="Simple highpass filter for the voices.">
<polygon fill="none" stroke="black" points="214.5,-147.5 214.5,-177.5 321.5,-177.5 321.5,-147.5 214.5,-147.5"/>
<text text-anchor="start" x="222.5" y="-165.5" font-family="Helvetica,sans-Serif" font-size="10.00">vae::core::Engine::</text>
<text text-anchor="middle" x="268" y="-154.5" font-family="Helvetica,sans-Serif" font-size="10.00">setHighpass</text>
</a>
</g>
</g>
<!-- Node1&#45;&gt;Node4 -->
<g id="edge3" class="edge">
<title>Node1&#45;&gt;Node4</title>
<path fill="none" stroke="midnightblue" d="M372.06,-131.61C354.68,-136.82 335.92,-142.45 319.22,-147.45"/>
<polygon fill="midnightblue" stroke="midnightblue" points="373.54,-134.82 382.11,-128.6 371.53,-128.12 373.54,-134.82"/>
</g>
<!-- Node6 -->
<g id="node6" class="node">
<title>Node6</title>
<g id="a_node6"><a xlink:href="classvae_1_1core_1_1_engine.html#a68add9a99442059f97d8a7b18fa46f1f" target="_top" xlink:title="Simple lowpass filter for the voices.">
<polygon fill="none" stroke="black" points="214.5,-98.5 214.5,-128.5 321.5,-128.5 321.5,-98.5 214.5,-98.5"/>
<text text-anchor="start" x="222.5" y="-116.5" font-family="Helvetica,sans-Serif" font-size="10.00">vae::core::Engine::</text>
<text text-anchor="middle" x="268" y="-105.5" font-family="Helvetica,sans-Serif" font-size="10.00">setLowpass</text>
</a>
</g>
</g>
<!-- Node1&#45;&gt;Node6 -->
<g id="edge5" class="edge">
<title>Node1&#45;&gt;Node6</title>
<path fill="none" stroke="midnightblue" d="M358.47,-113.5C346.06,-113.5 333.41,-113.5 321.67,-113.5"/>
<polygon fill="midnightblue" stroke="midnightblue" points="358.82,-117 368.82,-113.5 358.82,-110 358.82,-117"/>
</g>
<!-- Node8 -->
<g id="node8" class="node">
<title>Node8</title>
<g id="a_node8"><a xlink:href="classvae_1_1core_1_1_engine.html#a3a1e07d802edf42c2777066bb493a7ee" target="_top" xlink:title="Set the playback speed.">
<polygon fill="none" stroke="black" points="214.5,-49.5 214.5,-79.5 321.5,-79.5 321.5,-49.5 214.5,-49.5"/>
<text text-anchor="start" x="222.5" y="-67.5" font-family="Helvetica,sans-Serif" font-size="10.00">vae::core::Engine::</text>
<text text-anchor="middle" x="268" y="-56.5" font-family="Helvetica,sans-Serif" font-size="10.00">setSpeed</text>
</a>
</g>
</g>
<!-- Node1&#45;&gt;Node8 -->
<g id="edge7" class="edge">
<title>Node1&#45;&gt;Node8</title>
<path fill="none" stroke="midnightblue" d="M372.06,-95.39C354.68,-90.18 335.92,-84.55 319.22,-79.55"/>
<polygon fill="midnightblue" stroke="midnightblue" points="371.53,-98.88 382.11,-98.4 373.54,-92.18 371.53,-98.88"/>
</g>
<!-- Node10 -->
<g id="node10" class="node">
<title>Node10</title>
<g id="a_node10"><a xlink:href="classvae_1_1core_1_1_engine.html#a9f3bd05a3ed56f55313e6bd747d52d87" target="_top" xlink:title="Sets the volume of all active voices with this emitter.">
<polygon fill="none" stroke="black" points="214.5,-0.5 214.5,-30.5 321.5,-30.5 321.5,-0.5 214.5,-0.5"/>
<text text-anchor="start" x="222.5" y="-18.5" font-family="Helvetica,sans-Serif" font-size="10.00">vae::core::Engine::</text>
<text text-anchor="middle" x="268" y="-7.5" font-family="Helvetica,sans-Serif" font-size="10.00">setVolume</text>
</a>
</g>
</g>
<!-- Node1&#45;&gt;Node10 -->
<g id="edge9" class="edge">
<title>Node1&#45;&gt;Node10</title>
<path fill="none" stroke="midnightblue" d="M407,-91.89C387.6,-76.2 359.78,-55.22 333,-40.5 326.41,-36.88 319.19,-33.53 312.05,-30.53"/>
<polygon fill="midnightblue" stroke="midnightblue" points="404.81,-94.63 414.76,-98.26 409.25,-89.21 404.81,-94.63"/>
</g>
<!-- Node3 -->
<g id="node3" class="node">
<title>Node3</title>
<g id="a_node3"><a xlink:href="classvae_1_1_engine_pimpl.html#aa54f75747578982862d29fc81e310878" target="_top" xlink:title="Set the current time of all voices with the emitter.">
<polygon fill="none" stroke="black" points="18,-197 18,-216 149,-216 149,-197 18,-197"/>
<text text-anchor="middle" x="83.5" y="-204" font-family="Helvetica,sans-Serif" font-size="10.00">vae::EnginePimpl::seek</text>
</a>
</g>
</g>
<!-- Node2&#45;&gt;Node3 -->
<g id="edge2" class="edge">
<title>Node2&#45;&gt;Node3</title>
<path fill="none" stroke="midnightblue" d="M192.54,-206.5C178.12,-206.5 163.12,-206.5 149.05,-206.5"/>
<polygon fill="midnightblue" stroke="midnightblue" points="192.91,-210 202.91,-206.5 192.91,-203 192.91,-210"/>
</g>
<!-- Node5 -->
<g id="node5" class="node">
<title>Node5</title>
<g id="a_node5"><a xlink:href="classvae_1_1_engine_pimpl.html#adb164602a8dcfbedbe05e0dd4a0aeb24" target="_top" xlink:title="Simple highpass filter for the voices.">
<polygon fill="none" stroke="black" points="0,-153 0,-172 167,-172 167,-153 0,-153"/>
<text text-anchor="middle" x="83.5" y="-160" font-family="Helvetica,sans-Serif" font-size="10.00">vae::EnginePimpl::setHighpass</text>
</a>
</g>
</g>
<!-- Node4&#45;&gt;Node5 -->
<g id="edge4" class="edge">
<title>Node4&#45;&gt;Node5</title>
<path fill="none" stroke="midnightblue" d="M203.97,-162.5C192.07,-162.5 179.47,-162.5 167.08,-162.5"/>
<polygon fill="midnightblue" stroke="midnightblue" points="204.21,-166 214.21,-162.5 204.21,-159 204.21,-166"/>
</g>
<!-- Node7 -->
<g id="node7" class="node">
<title>Node7</title>
<g id="a_node7"><a xlink:href="classvae_1_1_engine_pimpl.html#ae77f7a43f433b3757f215691d3b5d558" target="_top" xlink:title="Simple lowpass filter for the voices.">
<polygon fill="none" stroke="black" points="1.5,-104 1.5,-123 165.5,-123 165.5,-104 1.5,-104"/>
<text text-anchor="middle" x="83.5" y="-111" font-family="Helvetica,sans-Serif" font-size="10.00">vae::EnginePimpl::setLowpass</text>
</a>
</g>
</g>
<!-- Node6&#45;&gt;Node7 -->
<g id="edge6" class="edge">
<title>Node6&#45;&gt;Node7</title>
<path fill="none" stroke="midnightblue" d="M204.04,-113.5C191.68,-113.5 178.56,-113.5 165.71,-113.5"/>
<polygon fill="midnightblue" stroke="midnightblue" points="204.21,-117 214.21,-113.5 204.21,-110 204.21,-117"/>
</g>
<!-- Node9 -->
<g id="node9" class="node">
<title>Node9</title>
<g id="a_node9"><a xlink:href="classvae_1_1_engine_pimpl.html#aa1d281cbc38abb9612849d5e333f1f6c" target="_top" xlink:title="Set the playback speed.">
<polygon fill="none" stroke="black" points="7.5,-55 7.5,-74 159.5,-74 159.5,-55 7.5,-55"/>
<text text-anchor="middle" x="83.5" y="-62" font-family="Helvetica,sans-Serif" font-size="10.00">vae::EnginePimpl::setSpeed</text>
</a>
</g>
</g>
<!-- Node8&#45;&gt;Node9 -->
<g id="edge8" class="edge">
<title>Node8&#45;&gt;Node9</title>
<path fill="none" stroke="midnightblue" d="M203.99,-64.5C189.68,-64.5 174.33,-64.5 159.57,-64.5"/>
<polygon fill="midnightblue" stroke="midnightblue" points="204.21,-68 214.21,-64.5 204.21,-61 204.21,-68"/>
</g>
<!-- Node11 -->
<g id="node11" class="node">
<title>Node11</title>
<g id="a_node11"><a xlink:href="classvae_1_1_engine_pimpl.html#a7526f266d00ffc6c72ed30dce0e021d8" target="_top" xlink:title="Sets the volume of all active voices with this emitter.">
<polygon fill="none" stroke="black" points="4.5,-6 4.5,-25 162.5,-25 162.5,-6 4.5,-6"/>
<text text-anchor="middle" x="83.5" y="-13" font-family="Helvetica,sans-Serif" font-size="10.00">vae::EnginePimpl::setVolume</text>
</a>
</g>
</g>
<!-- Node10&#45;&gt;Node11 -->
<g id="edge10" class="edge">
<title>Node10&#45;&gt;Node11</title>
<path fill="none" stroke="midnightblue" d="M204.18,-15.5C190.8,-15.5 176.51,-15.5 162.63,-15.5"/>
<polygon fill="midnightblue" stroke="midnightblue" points="204.21,-19 214.21,-15.5 204.21,-12 204.21,-19"/>
</g>
</g>
</svg>
        <g id="navigator" transform="translate(0 0)" fill="#404254">
                <rect fill="#f2f5e9" fill-opacity="0.5" stroke="#606060" stroke-width=".5" x="0" y="0" width="60" height="60"/>
                <use id="zoomplus" xlink:href="#zoomPlus" x="17" y="9" onmousedown="handleZoom(evt,'in')"/>
                <use id="zoomminus" xlink:href="#zoomMin" x="42" y="9" onmousedown="handleZoom(evt,'out')"/>
                <use id="reset" xlink:href="#resetDef" x="30" y="36" onmousedown="handleReset()"/>
                <g id="arrowUp" xlink:href="#dirArrow" transform="translate(30 24)" onmousedown="handlePan(0,-1)">
                  <use xlink:href="#rim" fill="#404040">
                        <set attributeName="fill" to="#808080" begin="arrowUp.mouseover" end="arrowUp.mouseout"/>
                  </use>
                  <path fill="none" stroke="white" stroke-width="1.5" d="M0,-3.0v7 M-2.5,-0.5L0,-3.0L2.5,-0.5"/>
                </g>
                <g id="arrowRight" xlink:href="#dirArrow" transform="rotate(90) translate(36 -43)" onmousedown="handlePan(1,0)">
                  <use xlink:href="#rim" fill="#404040">
                        <set attributeName="fill" to="#808080" begin="arrowRight.mouseover" end="arrowRight.mouseout"/>
                  </use>
                  <path fill="none" stroke="white" stroke-width="1.5" d="M0,-3.0v7 M-2.5,-0.5L0,-3.0L2.5,-0.5"/>
                </g>
                <g id="arrowDown" xlink:href="#dirArrow" transform="rotate(180) translate(-30 -48)" onmousedown="handlePan(0,1)">
                  <use xlink:href="#rim" fill="#404040">
                        <set attributeName="fill" to="#808080" begin="arrowDown.mouseover" end="arrowDown.mouseout"/>
                  </use>
                  <path fill="none" stroke="white" stroke-width="1.5" d="M0,-3.0v7 M-2.5,-0.5L0,-3.0L2.5,-0.5"/>
                </g>
                <g id="arrowLeft" xlink:href="#dirArrow" transform="rotate(270) translate(-36 17)" onmousedown="handlePan(-1,0)">
                  <use xlink:href="#rim" fill="#404040">
                        <set attributeName="fill" to="#808080" begin="arrowLeft.mouseover" end="arrowLeft.mouseout"/>
                  </use>
                  <path fill="none" stroke="white" stroke-width="1.5" d="M0,-3.0v7 M-2.5,-0.5L0,-3.0L2.5,-0.5"/>
                </g>
        </g>
        <svg viewBox="0 0 15 15" width="100%" height="30px" preserveAspectRatio="xMaxYMin meet">
         <g id="arrow_out" transform="scale(0.3 0.3)">
          <a xlink:href="classvae_1_1core_1_1_voice_manger_a7ee41f2edab0bd34a0dc436aa9e214ae_icgraph_org.svg" target="_base">
           <rect id="button" ry="5" rx="5" y="6" x="6" height="38" width="38"
                fill="#f2f5e9" fill-opacity="0.5" stroke="#606060" stroke-width="1.0"/>
           <path id="arrow"
             d="M 11.500037,31.436501 C 11.940474,20.09759 22.043105,11.32322 32.158766,21.979434 L 37.068811,17.246167 C 37.068811,17.246167 37.088388,32 37.088388,32 L 22.160133,31.978069 C 22.160133,31.978069 26.997745,27.140456 26.997745,27.140456 C 18.528582,18.264221 13.291696,25.230495 11.500037,31.436501 z"
             style="fill:#404040;"/>
          </a>
         </g>
        </svg>
</svg>
