<?xml version="1.0" encoding="UTF-8" standalone="no"?>
<!DOCTYPE svg PUBLIC "-//W3C//DTD SVG 1.1//EN"
 "http://www.w3.org/Graphics/SVG/1.1/DTD/svg11.dtd">
<!-- Generated by graphviz version 2.50.0 (0)
 -->
<!-- Title: vae::core::DevicePortaudio::cleanUp Pages: 1 -->
<svg width="340pt" height="137pt"
 viewBox="0.00 0.00 340.00 137.00" xmlns="http://www.w3.org/2000/svg" xmlns:xlink="http://www.w3.org/1999/xlink">
<g id="graph0" class="graph" transform="scale(1 1) rotate(0) translate(4 133)">
<title>vae::core::DevicePortaudio::cleanUp</title>
<!-- Node1 -->
<g id="node1" class="node">
<title>Node1</title>
<g id="a_node1"><a xlink:title=" ">
<polygon fill="#bfbfbf" stroke="black" points="184,-49.5 184,-79.5 332,-79.5 332,-49.5 184,-49.5"/>
<text text-anchor="start" x="192" y="-67.5" font-family="Helvetica,sans-Serif" font-size="10.00">vae::core::DevicePortaudio</text>
<text text-anchor="middle" x="258" y="-56.5" font-family="Helvetica,sans-Serif" font-size="10.00">::cleanUp</text>
</a>
</g>
</g>
<!-- Node2 -->
<g id="node2" class="node">
<title>Node2</title>
<g id="a_node2"><a xlink:href="classvae_1_1core_1_1_device_portaudio.html#a9c20a43f0f1b8fa8da83693d9d1f8cdd" target="_top" xlink:title="Closes the currently open device.">
<polygon fill="none" stroke="black" points="0,-98.5 0,-128.5 148,-128.5 148,-98.5 0,-98.5"/>
<text text-anchor="start" x="8" y="-116.5" font-family="Helvetica,sans-Serif" font-size="10.00">vae::core::DevicePortaudio</text>
<text text-anchor="middle" x="74" y="-105.5" font-family="Helvetica,sans-Serif" font-size="10.00">::closeDevice</text>
</a>
</g>
</g>
<!-- Node1&#45;&gt;Node2 -->
<g id="edge1" class="edge">
<title>Node1&#45;&gt;Node2</title>
<path fill="none" stroke="midnightblue" d="M191.08,-82.25C171.35,-87.56 149.92,-93.33 130.91,-98.45"/>
<polygon fill="midnightblue" stroke="midnightblue" points="192.16,-85.58 200.91,-79.6 190.34,-78.82 192.16,-85.58"/>
</g>
<!-- Node3 -->
<g id="node3" class="node">
<title>Node3</title>
<g id="a_node3"><a xlink:href="classvae_1_1core_1_1_device_portaudio.html#a9a6538b4e9555085a36b67a1850f333d" target="_top" xlink:title="Opens a specific audio device.">
<polygon fill="none" stroke="black" points="0,-49.5 0,-79.5 148,-79.5 148,-49.5 0,-49.5"/>
<text text-anchor="start" x="8" y="-67.5" font-family="Helvetica,sans-Serif" font-size="10.00">vae::core::DevicePortaudio</text>
<text text-anchor="middle" x="74" y="-56.5" font-family="Helvetica,sans-Serif" font-size="10.00">::openDevice</text>
</a>
</g>
</g>
<!-- Node1&#45;&gt;Node3 -->
<g id="edge2" class="edge">
<title>Node1&#45;&gt;Node3</title>
<path fill="none" stroke="midnightblue" d="M173.48,-64.5C165.01,-64.5 156.44,-64.5 148.09,-64.5"/>
<polygon fill="midnightblue" stroke="midnightblue" points="173.76,-68 183.76,-64.5 173.76,-61 173.76,-68"/>
</g>
<!-- Node4 -->
<g id="node4" class="node">
<title>Node4</title>
<g id="a_node4"><a xlink:href="classvae_1_1core_1_1_device_portaudio.html#a2b3c699be5e4b42e036ca2b39879cc7e" target="_top" xlink:title=" ">
<polygon fill="none" stroke="black" points="0,-0.5 0,-30.5 148,-30.5 148,-0.5 0,-0.5"/>
<text text-anchor="start" x="8" y="-18.5" font-family="Helvetica,sans-Serif" font-size="10.00">vae::core::DevicePortaudio</text>
<text text-anchor="middle" x="74" y="-7.5" font-family="Helvetica,sans-Serif" font-size="10.00">::~DevicePortaudio</text>
</a>
</g>
</g>
<!-- Node1&#45;&gt;Node4 -->
<g id="edge3" class="edge">
<title>Node1&#45;&gt;Node4</title>
<path fill="none" stroke="midnightblue" d="M191.08,-46.75C171.35,-41.44 149.92,-35.67 130.91,-30.55"/>
<polygon fill="midnightblue" stroke="midnightblue" points="190.34,-50.18 200.91,-49.4 192.16,-43.42 190.34,-50.18"/>
</g>
</g>
</svg>
