<?xml version="1.0" encoding="UTF-8" standalone="no"?>
<!DOCTYPE svg PUBLIC "-//W3C//DTD SVG 1.1//EN"
 "http://www.w3.org/Graphics/SVG/1.1/DTD/svg11.dtd">
<!-- Generated by graphviz version 2.50.0 (0)
 -->
<!-- Title: tklb::HeapBuffer::resize Pages: 1 -->
<!--zoomable 330 -->
<svg id="main" version="1.1" xmlns="http://www.w3.org/2000/svg" xmlns:xlink="http://www.w3.org/1999/xlink" xml:space="preserve" onload="init(evt)">
<style type="text/css"><![CDATA[
.edge:hover path { stroke: red; }
.edge:hover polygon { stroke: red; fill: red; }
]]></style>
<script type="text/javascript"><![CDATA[
var edges = document.getElementsByTagName('g');
if (edges && edges.length) {
  for (var i=0;i<edges.length;i++) {
    if (edges[i].id.substr(0,4)=='edge') {
      edges[i].setAttribute('class','edge');
    }
  }
}
]]></script>
        <defs>
                <circle id="rim" cx="0" cy="0" r="7"/>
                <circle id="rim2" cx="0" cy="0" r="3.5"/>
                <g id="zoomPlus">
                        <use xlink:href="#rim" fill="#404040">
                                <set attributeName="fill" to="#808080" begin="zoomplus.mouseover" end="zoomplus.mouseout"/>
                        </use>
                        <path d="M-4,0h8M0,-4v8" fill="none" stroke="white" stroke-width="1.5" pointer-events="none"/>
                </g>
                <g id="zoomMin">
                        <use xlink:href="#rim" fill="#404040">
                                <set attributeName="fill" to="#808080" begin="zoomminus.mouseover" end="zoomminus.mouseout"/>
                        </use>
                        <path d="M-4,0h8" fill="none" stroke="white" stroke-width="1.5" pointer-events="none"/>
                </g>
                <g id="dirArrow">
                        <path fill="none" stroke="white" stroke-width="1.5" d="M0,-3.0v7 M-2.5,-0.5L0,-3.0L2.5,-0.5"/>
                </g>
               <g id="resetDef">
                       <use xlink:href="#rim2" fill="#404040">
                               <set attributeName="fill" to="#808080" begin="reset.mouseover" end="reset.mouseout"/>
                       </use>
               </g>
        </defs>

<script type="text/javascript">
var viewWidth = 1194;
var viewHeight = 330;
var sectionId = 'dynsection-25';
</script>
<script xlink:href="svgpan.js"/>
<svg id="graph" class="graph">
<g id="viewport">
<title>tklb::HeapBuffer::resize</title>
<!-- Node1 -->
<g id="node1" class="node">
<title>Node1</title>
<g id="a_node1"><a xlink:title="Resize the buffer If the memory is borrowed it will become unique and owned by this instance as soon ...">
<polygon fill="#bfbfbf" stroke="black" points="1054,-154 1054,-173 1186,-173 1186,-154 1054,-154"/>
<text text-anchor="middle" x="1120" y="-161" font-family="Helvetica,sans-Serif" font-size="10.00">tklb::HeapBuffer::resize</text>
</a>
</g>
</g>
<!-- Node2 -->
<g id="node2" class="node">
<title>Node2</title>
<g id="a_node2"><a xlink:href="classtklb_1_1_heap_buffer.html#a76b642458c3ab649734fe9a85e149e76" target="_top" xlink:title="Clears the buffer but doesn&#39;t free the memory.">
<polygon fill="none" stroke="black" points="875.5,-302 875.5,-321 1002.5,-321 1002.5,-302 875.5,-302"/>
<text text-anchor="middle" x="939" y="-309" font-family="Helvetica,sans-Serif" font-size="10.00">tklb::HeapBuffer::clear</text>
</a>
</g>
</g>
<!-- Node1&#45;&gt;Node2 -->
<g id="edge1" class="edge">
<title>Node1&#45;&gt;Node2</title>
<path fill="none" stroke="midnightblue" d="M1109.61,-182.3C1094.41,-210.74 1061.64,-264.36 1018,-292.5 1012.03,-296.35 1005.34,-299.42 998.45,-301.87"/>
<polygon fill="midnightblue" stroke="midnightblue" points="1112.91,-183.55 1114.41,-173.06 1106.7,-180.32 1112.91,-183.55"/>
</g>
<!-- Node3 -->
<g id="node3" class="node">
<title>Node3</title>
<g id="a_node3"><a xlink:href="classtklb_1_1_heap_buffer.html#a7ac3c5d43b0db9422f61a7097fc9c394" target="_top" xlink:title="If T is a pointer type, delete will be called for all pointers in buffer and resize(0) is called.">
<polygon fill="none" stroke="black" points="869,-252.5 869,-282.5 1009,-282.5 1009,-252.5 869,-252.5"/>
<text text-anchor="start" x="877" y="-270.5" font-family="Helvetica,sans-Serif" font-size="10.00">tklb::HeapBuffer::destroy</text>
<text text-anchor="middle" x="939" y="-259.5" font-family="Helvetica,sans-Serif" font-size="10.00">Pointers</text>
</a>
</g>
</g>
<!-- Node1&#45;&gt;Node3 -->
<g id="edge2" class="edge">
<title>Node1&#45;&gt;Node3</title>
<path fill="none" stroke="midnightblue" d="M1101.92,-179.99C1082.84,-197.63 1050.36,-225.36 1018,-242.5 1010.96,-246.23 1003.27,-249.52 995.55,-252.39"/>
<polygon fill="midnightblue" stroke="midnightblue" points="1104.35,-182.51 1109.24,-173.12 1099.55,-177.41 1104.35,-182.51"/>
</g>
<!-- Node4 -->
<g id="node4" class="node">
<title>Node4</title>
<g id="a_node4"><a xlink:href="classtklb_1_1_heap_buffer.html#ae48b31c254c04be44dabd1e6f2464f4e" target="_top" xlink:title="Setup the buffer with a size.">
<polygon fill="none" stroke="black" points="860,-214 860,-233 1018,-233 1018,-214 860,-214"/>
<text text-anchor="middle" x="939" y="-221" font-family="Helvetica,sans-Serif" font-size="10.00">tklb::HeapBuffer::HeapBuffer</text>
</a>
</g>
</g>
<!-- Node1&#45;&gt;Node4 -->
<g id="edge3" class="edge">
<title>Node1&#45;&gt;Node4</title>
<path fill="none" stroke="midnightblue" d="M1088.63,-177.19C1068.8,-185.79 1042.19,-196.69 1018,-204.5 1007.12,-208.01 995.21,-211.22 984.04,-213.97"/>
<polygon fill="midnightblue" stroke="midnightblue" points="1090.3,-180.28 1098.05,-173.06 1087.49,-173.87 1090.3,-180.28"/>
</g>
<!-- Node5 -->
<g id="node5" class="node">
<title>Node5</title>
<g id="a_node5"><a xlink:href="classtklb_1_1_heap_buffer.html#a92c98281f59633bf711f3a69d116d7b1" target="_top" xlink:title="Provide foreign memory to borrow.">
<polygon fill="none" stroke="black" points="874,-176 874,-195 1004,-195 1004,-176 874,-176"/>
<text text-anchor="middle" x="939" y="-183" font-family="Helvetica,sans-Serif" font-size="10.00">tklb::HeapBuffer::inject</text>
</a>
</g>
</g>
<!-- Node1&#45;&gt;Node5 -->
<g id="edge4" class="edge">
<title>Node1&#45;&gt;Node5</title>
<path fill="none" stroke="midnightblue" d="M1043.88,-172.73C1030.68,-174.36 1017.05,-176.03 1004.18,-177.61"/>
<polygon fill="midnightblue" stroke="midnightblue" points="1044.37,-176.2 1053.87,-171.5 1043.52,-169.25 1044.37,-176.2"/>
</g>
<!-- Node7 -->
<g id="node7" class="node">
<title>Node7</title>
<g id="a_node7"><a xlink:href="classtklb_1_1_convolver_mono_tpl.html#a67f9498b46370c1a273b47ccc4863e21" target="_top" xlink:title="Load a impulse response and prepare the convolution.">
<polygon fill="none" stroke="black" points="873,-126.5 873,-156.5 1005,-156.5 1005,-126.5 873,-126.5"/>
<text text-anchor="start" x="881" y="-144.5" font-family="Helvetica,sans-Serif" font-size="10.00">tklb::ConvolverMonoTpl</text>
<text text-anchor="middle" x="939" y="-133.5" font-family="Helvetica,sans-Serif" font-size="10.00">::load</text>
</a>
</g>
</g>
<!-- Node1&#45;&gt;Node7 -->
<g id="edge6" class="edge">
<title>Node1&#45;&gt;Node7</title>
<path fill="none" stroke="midnightblue" d="M1043.69,-154.24C1030.85,-152.67 1017.62,-151.04 1005.08,-149.5"/>
<polygon fill="midnightblue" stroke="midnightblue" points="1043.52,-157.75 1053.87,-155.5 1044.37,-150.8 1043.52,-157.75"/>
</g>
<!-- Node8 -->
<g id="node8" class="node">
<title>Node8</title>
<g id="a_node8"><a xlink:href="namespacetklb_1_1wave.html#a0eea36d8e07b1520ce77191e081c45bb" target="_top" xlink:title="Decode wav from memory or file path.">
<polygon fill="none" stroke="black" points="891.5,-88 891.5,-107 986.5,-107 986.5,-88 891.5,-88"/>
<text text-anchor="middle" x="939" y="-95" font-family="Helvetica,sans-Serif" font-size="10.00">tklb::wave::load</text>
</a>
</g>
</g>
<!-- Node1&#45;&gt;Node8 -->
<g id="edge7" class="edge">
<title>Node1&#45;&gt;Node8</title>
<path fill="none" stroke="midnightblue" d="M1091.28,-149.27C1071.29,-139.41 1043.45,-126.48 1018,-117.5 1006.79,-113.55 994.43,-110.01 982.91,-107.06"/>
<polygon fill="midnightblue" stroke="midnightblue" points="1089.91,-152.5 1100.42,-153.84 1093.04,-146.24 1089.91,-152.5"/>
</g>
<!-- Node16 -->
<g id="node16" class="node">
<title>Node16</title>
<g id="a_node16"><a xlink:href="classtklb_1_1_heap_buffer.html#af0d3f023b7a208b152a436b5273cf580" target="_top" xlink:title="Set data from array.">
<polygon fill="none" stroke="black" points="880,-50 880,-69 998,-69 998,-50 880,-50"/>
<text text-anchor="middle" x="939" y="-57" font-family="Helvetica,sans-Serif" font-size="10.00">tklb::HeapBuffer::set</text>
</a>
</g>
</g>
<!-- Node1&#45;&gt;Node16 -->
<g id="edge16" class="edge">
<title>Node1&#45;&gt;Node16</title>
<path fill="none" stroke="midnightblue" d="M1103.57,-146.45C1085.11,-127.08 1052.34,-95.91 1018,-78.5 1010.42,-74.66 1002.02,-71.56 993.63,-69.09"/>
<polygon fill="midnightblue" stroke="midnightblue" points="1101.2,-149.03 1110.58,-153.95 1106.31,-144.25 1101.2,-149.03"/>
</g>
<!-- Node17 -->
<g id="node17" class="node">
<title>Node17</title>
<g id="a_node17"><a xlink:href="classtklb_1_1_heap_buffer.html#a91b81f93a16fd76ec0ef747645fb1547" target="_top" xlink:title=" ">
<polygon fill="none" stroke="black" points="887.5,-0.5 887.5,-30.5 990.5,-30.5 990.5,-0.5 887.5,-0.5"/>
<text text-anchor="start" x="895.5" y="-18.5" font-family="Helvetica,sans-Serif" font-size="10.00">tklb::HeapBuffer::</text>
<text text-anchor="middle" x="939" y="-7.5" font-family="Helvetica,sans-Serif" font-size="10.00">~HeapBuffer</text>
</a>
</g>
</g>
<!-- Node1&#45;&gt;Node17 -->
<g id="edge17" class="edge">
<title>Node1&#45;&gt;Node17</title>
<path fill="none" stroke="midnightblue" d="M1108.67,-145.16C1092.65,-118.34 1059.32,-68.57 1018,-40.5 1009.77,-34.91 1000.2,-30.5 990.65,-27.06"/>
<polygon fill="midnightblue" stroke="midnightblue" points="1105.71,-147.04 1113.77,-153.92 1111.76,-143.52 1105.71,-147.04"/>
</g>
<!-- Node6 -->
<g id="node6" class="node">
<title>Node6</title>
<g id="a_node6"><a xlink:href="classtklb_1_1_heap_buffer.html#ad19c6c6c753de0f91aeb2bafa7e1a7ea" target="_top" xlink:title="Provide const foreign memory to use Using non const accessors will cause assertions in debug mode.">
<polygon fill="none" stroke="black" points="692,-176 692,-195 822,-195 822,-176 692,-176"/>
<text text-anchor="middle" x="757" y="-183" font-family="Helvetica,sans-Serif" font-size="10.00">tklb::HeapBuffer::inject</text>
</a>
</g>
</g>
<!-- Node5&#45;&gt;Node6 -->
<g id="edge5" class="edge">
<title>Node5&#45;&gt;Node6</title>
<path fill="none" stroke="midnightblue" d="M863.43,-185.5C849.73,-185.5 835.55,-185.5 822.2,-185.5"/>
<polygon fill="midnightblue" stroke="midnightblue" points="863.78,-189 873.78,-185.5 863.78,-182 863.78,-189"/>
</g>
<!-- Node9 -->
<g id="node9" class="node">
<title>Node9</title>
<g id="a_node9"><a xlink:href="structvae_1_1core_1_1_source_loader.html#a2341f89c2b79148066369e8d50d98597" target="_top" xlink:title="Loads a wav file for the resource.">
<polygon fill="none" stroke="black" points="690,-82.5 690,-112.5 824,-112.5 824,-82.5 690,-82.5"/>
<text text-anchor="start" x="698" y="-100.5" font-family="Helvetica,sans-Serif" font-size="10.00">vae::core::SourceLoader</text>
<text text-anchor="middle" x="757" y="-89.5" font-family="Helvetica,sans-Serif" font-size="10.00">::load</text>
</a>
</g>
</g>
<!-- Node8&#45;&gt;Node9 -->
<g id="edge8" class="edge">
<title>Node8&#45;&gt;Node9</title>
<path fill="none" stroke="midnightblue" d="M881.09,-97.5C863.03,-97.5 842.9,-97.5 824.24,-97.5"/>
<polygon fill="midnightblue" stroke="midnightblue" points="881.18,-101 891.18,-97.5 881.18,-94 881.18,-101"/>
</g>
<!-- Node10 -->
<g id="node10" class="node">
<title>Node10</title>
<g id="a_node10"><a xlink:href="classvae_1_1core_1_1_bank_loader.html#a0c168e922d02dbe23ec42ebfde4d97a2" target="_top" xlink:title="Load a bank.json and all wav files referenced in it.">
<polygon fill="none" stroke="black" points="529,-82.5 529,-112.5 654,-112.5 654,-82.5 529,-82.5"/>
<text text-anchor="start" x="537" y="-100.5" font-family="Helvetica,sans-Serif" font-size="10.00">vae::core::BankLoader</text>
<text text-anchor="middle" x="591.5" y="-89.5" font-family="Helvetica,sans-Serif" font-size="10.00">::load</text>
</a>
</g>
</g>
<!-- Node9&#45;&gt;Node10 -->
<g id="edge9" class="edge">
<title>Node9&#45;&gt;Node10</title>
<path fill="none" stroke="midnightblue" d="M679.86,-97.5C671.2,-97.5 662.46,-97.5 654.02,-97.5"/>
<polygon fill="midnightblue" stroke="midnightblue" points="679.97,-101 689.97,-97.5 679.97,-94 679.97,-101"/>
</g>
<!-- Node11 -->
<g id="node11" class="node">
<title>Node11</title>
<g id="a_node11"><a xlink:href="classvae_1_1core_1_1_bank_manager.html#ab06ae4e1f8106811c8149dd73bef6bd0" target="_top" xlink:title=" ">
<polygon fill="none" stroke="black" points="359,-82.5 359,-112.5 493,-112.5 493,-82.5 359,-82.5"/>
<text text-anchor="start" x="367" y="-100.5" font-family="Helvetica,sans-Serif" font-size="10.00">vae::core::BankManager</text>
<text text-anchor="middle" x="426" y="-89.5" font-family="Helvetica,sans-Serif" font-size="10.00">::load</text>
</a>
</g>
</g>
<!-- Node10&#45;&gt;Node11 -->
<g id="edge10" class="edge">
<title>Node10&#45;&gt;Node11</title>
<path fill="none" stroke="midnightblue" d="M518.53,-97.5C510.13,-97.5 501.59,-97.5 493.27,-97.5"/>
<polygon fill="midnightblue" stroke="midnightblue" points="518.69,-101 528.69,-97.5 518.69,-94 518.69,-101"/>
</g>
<!-- Node11&#45;&gt;Node11 -->
<g id="edge12" class="edge">
<title>Node11&#45;&gt;Node11</title>
<path fill="none" stroke="midnightblue" d="M455.14,-122.96C451.52,-127.68 441.81,-131 426,-131 400.05,-131 390.53,-122.06 397.42,-112.66"/>
<polygon fill="midnightblue" stroke="midnightblue" points="458.62,-122.45 454.58,-112.66 451.63,-122.83 458.62,-122.45"/>
</g>
<!-- Node12 -->
<g id="node12" class="node">
<title>Node12</title>
<g id="a_node12"><a xlink:href="classvae_1_1core_1_1_bank_manager.html#ae04256d1f2f2df47d3239993c9bbf12c" target="_top" xlink:title="Will reload all the banks.">
<polygon fill="none" stroke="black" points="189,-107.5 189,-137.5 323,-137.5 323,-107.5 189,-107.5"/>
<text text-anchor="start" x="197" y="-125.5" font-family="Helvetica,sans-Serif" font-size="10.00">vae::core::BankManager</text>
<text text-anchor="middle" x="256" y="-114.5" font-family="Helvetica,sans-Serif" font-size="10.00">::init</text>
</a>
</g>
</g>
<!-- Node11&#45;&gt;Node12 -->
<g id="edge11" class="edge">
<title>Node11&#45;&gt;Node12</title>
<path fill="none" stroke="midnightblue" d="M348.68,-108.86C340.17,-110.12 331.56,-111.4 323.19,-112.65"/>
<polygon fill="midnightblue" stroke="midnightblue" points="349.23,-112.31 358.6,-107.38 348.2,-105.39 349.23,-112.31"/>
</g>
<!-- Node13 -->
<g id="node13" class="node">
<title>Node13</title>
<g id="a_node13"><a xlink:href="classvae_1_1core_1_1_engine.html#a4af5733f9975fe1c746e75958bc39d23" target="_top" xlink:title="Load bank from filesystem.">
<polygon fill="none" stroke="black" points="202.5,-58.5 202.5,-88.5 309.5,-88.5 309.5,-58.5 202.5,-58.5"/>
<text text-anchor="start" x="210.5" y="-76.5" font-family="Helvetica,sans-Serif" font-size="10.00">vae::core::Engine::</text>
<text text-anchor="middle" x="256" y="-65.5" font-family="Helvetica,sans-Serif" font-size="10.00">loadBank</text>
</a>
</g>
</g>
<!-- Node11&#45;&gt;Node13 -->
<g id="edge13" class="edge">
<title>Node11&#45;&gt;Node13</title>
<path fill="none" stroke="midnightblue" d="M348.62,-86.59C335.47,-84.71 322.07,-82.8 309.72,-81.03"/>
<polygon fill="midnightblue" stroke="midnightblue" points="348.21,-90.07 358.6,-88.01 349.2,-83.14 348.21,-90.07"/>
</g>
<!-- Node14 -->
<g id="node14" class="node">
<title>Node14</title>
<g id="a_node14"><a xlink:href="classvae_1_1_engine_pimpl.html#adec77e6ef0f00d52c634611cb6822443" target="_top" xlink:title="Load bank from filesystem.">
<polygon fill="none" stroke="black" points="0,-83 0,-102 153,-102 153,-83 0,-83"/>
<text text-anchor="middle" x="76.5" y="-90" font-family="Helvetica,sans-Serif" font-size="10.00">vae::EnginePimpl::loadBank</text>
</a>
</g>
</g>
<!-- Node13&#45;&gt;Node14 -->
<g id="edge14" class="edge">
<title>Node13&#45;&gt;Node14</title>
<path fill="none" stroke="midnightblue" d="M192.25,-80.22C179.57,-81.57 166.12,-83.01 153.06,-84.41"/>
<polygon fill="midnightblue" stroke="midnightblue" points="192.65,-83.69 202.22,-79.15 191.91,-76.73 192.65,-83.69"/>
</g>
<!-- Node15 -->
<g id="node15" class="node">
<title>Node15</title>
<g id="a_node15"><a xlink:href="main_8cpp.html#ae66f6b31b5ad750f1fe042a706a4e3d4" target="_top" xlink:title=" ">
<polygon fill="none" stroke="black" points="56,-45 56,-64 97,-64 97,-45 56,-45"/>
<text text-anchor="middle" x="76.5" y="-52" font-family="Helvetica,sans-Serif" font-size="10.00">main</text>
</a>
</g>
</g>
<!-- Node13&#45;&gt;Node15 -->
<g id="edge15" class="edge">
<title>Node13&#45;&gt;Node15</title>
<path fill="none" stroke="midnightblue" d="M192.06,-66.76C158.69,-63.19 119.98,-59.05 97.18,-56.61"/>
<polygon fill="midnightblue" stroke="midnightblue" points="191.91,-70.27 202.22,-67.85 192.65,-63.31 191.91,-70.27"/>
</g>
</g>
</svg>
        <g id="navigator" transform="translate(0 0)" fill="#404254">
                <rect fill="#f2f5e9" fill-opacity="0.5" stroke="#606060" stroke-width=".5" x="0" y="0" width="60" height="60"/>
                <use id="zoomplus" xlink:href="#zoomPlus" x="17" y="9" onmousedown="handleZoom(evt,'in')"/>
                <use id="zoomminus" xlink:href="#zoomMin" x="42" y="9" onmousedown="handleZoom(evt,'out')"/>
                <use id="reset" xlink:href="#resetDef" x="30" y="36" onmousedown="handleReset()"/>
                <g id="arrowUp" xlink:href="#dirArrow" transform="translate(30 24)" onmousedown="handlePan(0,-1)">
                  <use xlink:href="#rim" fill="#404040">
                        <set attributeName="fill" to="#808080" begin="arrowUp.mouseover" end="arrowUp.mouseout"/>
                  </use>
                  <path fill="none" stroke="white" stroke-width="1.5" d="M0,-3.0v7 M-2.5,-0.5L0,-3.0L2.5,-0.5"/>
                </g>
                <g id="arrowRight" xlink:href="#dirArrow" transform="rotate(90) translate(36 -43)" onmousedown="handlePan(1,0)">
                  <use xlink:href="#rim" fill="#404040">
                        <set attributeName="fill" to="#808080" begin="arrowRight.mouseover" end="arrowRight.mouseout"/>
                  </use>
                  <path fill="none" stroke="white" stroke-width="1.5" d="M0,-3.0v7 M-2.5,-0.5L0,-3.0L2.5,-0.5"/>
                </g>
                <g id="arrowDown" xlink:href="#dirArrow" transform="rotate(180) translate(-30 -48)" onmousedown="handlePan(0,1)">
                  <use xlink:href="#rim" fill="#404040">
                        <set attributeName="fill" to="#808080" begin="arrowDown.mouseover" end="arrowDown.mouseout"/>
                  </use>
                  <path fill="none" stroke="white" stroke-width="1.5" d="M0,-3.0v7 M-2.5,-0.5L0,-3.0L2.5,-0.5"/>
                </g>
                <g id="arrowLeft" xlink:href="#dirArrow" transform="rotate(270) translate(-36 17)" onmousedown="handlePan(-1,0)">
                  <use xlink:href="#rim" fill="#404040">
                        <set attributeName="fill" to="#808080" begin="arrowLeft.mouseover" end="arrowLeft.mouseout"/>
                  </use>
                  <path fill="none" stroke="white" stroke-width="1.5" d="M0,-3.0v7 M-2.5,-0.5L0,-3.0L2.5,-0.5"/>
                </g>
        </g>
        <svg viewBox="0 0 15 15" width="100%" height="30px" preserveAspectRatio="xMaxYMin meet">
         <g id="arrow_out" transform="scale(0.3 0.3)">
          <a xlink:href="classtklb_1_1_heap_buffer_ab37e6c1fc8d124b5737cfdef69b051d1_icgraph_org.svg" target="_base">
           <rect id="button" ry="5" rx="5" y="6" x="6" height="38" width="38"
                fill="#f2f5e9" fill-opacity="0.5" stroke="#606060" stroke-width="1.0"/>
           <path id="arrow"
             d="M 11.500037,31.436501 C 11.940474,20.09759 22.043105,11.32322 32.158766,21.979434 L 37.068811,17.246167 C 37.068811,17.246167 37.088388,32 37.088388,32 L 22.160133,31.978069 C 22.160133,31.978069 26.997745,27.140456 26.997745,27.140456 C 18.528582,18.264221 13.291696,25.230495 11.500037,31.436501 z"
             style="fill:#404040;"/>
          </a>
         </g>
        </svg>
</svg>
