<?xml version="1.0" encoding="UTF-8" standalone="no"?>
<!DOCTYPE svg PUBLIC "-//W3C//DTD SVG 1.1//EN"
 "http://www.w3.org/Graphics/SVG/1.1/DTD/svg11.dtd">
<!-- Generated by graphviz version 2.50.0 (0)
 -->
<!-- Title: vae::EnginePimpl::setEmitter Pages: 1 -->
<svg width="667pt" height="88pt"
 viewBox="0.00 0.00 667.00 88.00" xmlns="http://www.w3.org/2000/svg" xmlns:xlink="http://www.w3.org/1999/xlink">
<g id="graph0" class="graph" transform="scale(1 1) rotate(0) translate(4 84)">
<title>vae::EnginePimpl::setEmitter</title>
<!-- Node1 -->
<g id="node1" class="node">
<title>Node1</title>
<g id="a_node1"><a xlink:title="Set the Emitter position, orientation and spread.">
<polygon fill="#bfbfbf" stroke="black" points="0,-30 0,-49 158,-49 158,-30 0,-30"/>
<text text-anchor="middle" x="79" y="-37" font-family="Helvetica,sans-Serif" font-size="10.00">vae::EnginePimpl::setEmitter</text>
</a>
</g>
</g>
<!-- Node2 -->
<g id="node2" class="node">
<title>Node2</title>
<g id="a_node2"><a xlink:href="classvae_1_1core_1_1_engine.html#af815d78009973b30babdc575fd127978" target="_top" xlink:title="Set the Emitter position, orientation and spread.">
<polygon fill="none" stroke="black" points="194,-24.5 194,-54.5 301,-54.5 301,-24.5 194,-24.5"/>
<text text-anchor="start" x="202" y="-42.5" font-family="Helvetica,sans-Serif" font-size="10.00">vae::core::Engine::</text>
<text text-anchor="middle" x="247.5" y="-31.5" font-family="Helvetica,sans-Serif" font-size="10.00">setEmitter</text>
</a>
</g>
</g>
<!-- Node1&#45;&gt;Node2 -->
<g id="edge1" class="edge">
<title>Node1&#45;&gt;Node2</title>
<path fill="none" stroke="midnightblue" d="M158.37,-39.5C166.8,-39.5 175.28,-39.5 183.49,-39.5"/>
<polygon fill="midnightblue" stroke="midnightblue" points="183.71,-43 193.71,-39.5 183.71,-36 183.71,-43"/>
</g>
<!-- Node3 -->
<g id="node3" class="node">
<title>Node3</title>
<g id="a_node3"><a xlink:href="classvae_1_1core_1_1_spatial_manager.html#abaac63e2c14e2ef21be7e4babdce44be" target="_top" xlink:title=" ">
<polygon fill="none" stroke="black" points="337,-24.5 337,-54.5 480,-54.5 480,-24.5 337,-24.5"/>
<text text-anchor="start" x="345" y="-42.5" font-family="Helvetica,sans-Serif" font-size="10.00">vae::core::SpatialManager</text>
<text text-anchor="middle" x="408.5" y="-31.5" font-family="Helvetica,sans-Serif" font-size="10.00">::setEmitter</text>
</a>
</g>
</g>
<!-- Node2&#45;&gt;Node3 -->
<g id="edge2" class="edge">
<title>Node2&#45;&gt;Node3</title>
<path fill="none" stroke="midnightblue" d="M301,-39.5C309.26,-39.5 317.96,-39.5 326.68,-39.5"/>
<polygon fill="midnightblue" stroke="midnightblue" points="326.9,-43 336.9,-39.5 326.9,-36 326.9,-43"/>
</g>
<!-- Node4 -->
<g id="node4" class="node">
<title>Node4</title>
<g id="a_node4"><a xlink:href="classvae_1_1core_1_1_spatial_manager.html#afc5a2274a1d6098a64d6cb9d124bb7ed" target="_top" xlink:title=" ">
<polygon fill="none" stroke="black" points="516,-49.5 516,-79.5 659,-79.5 659,-49.5 516,-49.5"/>
<text text-anchor="start" x="524" y="-67.5" font-family="Helvetica,sans-Serif" font-size="10.00">vae::core::SpatialManager</text>
<text text-anchor="middle" x="587.5" y="-56.5" font-family="Helvetica,sans-Serif" font-size="10.00">::getEmitter</text>
</a>
</g>
</g>
<!-- Node3&#45;&gt;Node4 -->
<g id="edge3" class="edge">
<title>Node3&#45;&gt;Node4</title>
<path fill="none" stroke="midnightblue" d="M480.22,-49.49C488.66,-50.68 497.33,-51.91 505.9,-53.12"/>
<polygon fill="midnightblue" stroke="midnightblue" points="505.5,-56.59 515.89,-54.53 506.48,-49.66 505.5,-56.59"/>
</g>
<!-- Node5 -->
<g id="node5" class="node">
<title>Node5</title>
<g id="a_node5"><a xlink:href="classvae_1_1core_1_1_spatial_manager.html#a8223349a8417dbd972f9979618849a4e" target="_top" xlink:title=" ">
<polygon fill="none" stroke="black" points="516,-0.5 516,-30.5 659,-30.5 659,-0.5 516,-0.5"/>
<text text-anchor="start" x="524" y="-18.5" font-family="Helvetica,sans-Serif" font-size="10.00">vae::core::SpatialManager</text>
<text text-anchor="middle" x="587.5" y="-7.5" font-family="Helvetica,sans-Serif" font-size="10.00">::hasEmitter</text>
</a>
</g>
</g>
<!-- Node3&#45;&gt;Node5 -->
<g id="edge4" class="edge">
<title>Node3&#45;&gt;Node5</title>
<path fill="none" stroke="midnightblue" d="M480.22,-29.91C488.66,-28.77 497.33,-27.59 505.9,-26.43"/>
<polygon fill="midnightblue" stroke="midnightblue" points="506.46,-29.89 515.89,-25.07 505.51,-22.95 506.46,-29.89"/>
</g>
</g>
</svg>
