<?xml version="1.0" encoding="UTF-8" standalone="no"?>
<!DOCTYPE svg PUBLIC "-//W3C//DTD SVG 1.1//EN"
 "http://www.w3.org/Graphics/SVG/1.1/DTD/svg11.dtd">
<!-- Generated by graphviz version 2.50.0 (0)
 -->
<!-- Title: tklb::ResamplerSpeexTpl::process Pages: 1 -->
<svg width="494pt" height="184pt"
 viewBox="0.00 0.00 494.00 184.00" xmlns="http://www.w3.org/2000/svg" xmlns:xlink="http://www.w3.org/1999/xlink">
<g id="graph0" class="graph" transform="scale(1 1) rotate(0) translate(4 180)">
<title>tklb::ResamplerSpeexTpl::process</title>
<!-- Node1 -->
<g id="node1" class="node">
<title>Node1</title>
<g id="a_node1"><a xlink:title="Resample function Make sure the out buffer has enough space.">
<polygon fill="#bfbfbf" stroke="black" points="0,-82.5 0,-112.5 139,-112.5 139,-82.5 0,-82.5"/>
<text text-anchor="start" x="8" y="-100.5" font-family="Helvetica,sans-Serif" font-size="10.00">tklb::ResamplerSpeexTpl</text>
<text text-anchor="middle" x="69.5" y="-89.5" font-family="Helvetica,sans-Serif" font-size="10.00">::process</text>
</a>
</g>
</g>
<!-- Node2 -->
<g id="node2" class="node">
<title>Node2</title>
<g id="a_node2"><a xlink:href="classtklb_1_1_resampler_speex_tpl.html#a5b4b65f32dbcec425871cc26384d4643" target="_top" xlink:title="Estimate how many sample will be emitted in the next step.">
<polygon fill="none" stroke="black" points="175,-145.5 175,-175.5 314,-175.5 314,-145.5 175,-145.5"/>
<text text-anchor="start" x="183" y="-163.5" font-family="Helvetica,sans-Serif" font-size="10.00">tklb::ResamplerSpeexTpl</text>
<text text-anchor="middle" x="244.5" y="-152.5" font-family="Helvetica,sans-Serif" font-size="10.00">::estimateOut</text>
</a>
</g>
</g>
<!-- Node1&#45;&gt;Node2 -->
<g id="edge1" class="edge">
<title>Node1&#45;&gt;Node2</title>
<path fill="none" stroke="midnightblue" d="M111.94,-112.59C136.14,-121.4 166.86,-132.59 192.53,-141.94"/>
<polygon fill="midnightblue" stroke="midnightblue" points="191.51,-145.29 202.1,-145.42 193.9,-138.71 191.51,-145.29"/>
</g>
<!-- Node3 -->
<g id="node3" class="node">
<title>Node3</title>
<g id="a_node3"><a xlink:href="namespacetklb.html#a3080595da18d742645ec41d61828a426" target="_top" xlink:title=" ">
<polygon fill="none" stroke="black" points="388,-126 388,-145 448,-145 448,-126 388,-126"/>
<text text-anchor="middle" x="418" y="-133" font-family="Helvetica,sans-Serif" font-size="10.00">tklb::min</text>
</a>
</g>
</g>
<!-- Node1&#45;&gt;Node3 -->
<g id="edge2" class="edge">
<title>Node1&#45;&gt;Node3</title>
<path fill="none" stroke="midnightblue" d="M139.37,-105.05C210.72,-112.88 319.72,-124.83 377.63,-131.18"/>
<polygon fill="midnightblue" stroke="midnightblue" points="377.51,-134.69 387.83,-132.3 378.27,-127.73 377.51,-134.69"/>
</g>
<!-- Node4 -->
<g id="node4" class="node">
<title>Node4</title>
<g id="a_node4"><a xlink:href="classtklb_1_1_audio_buffer_tpl.html#ab6e5250746ca3784a568591a3ffdbc12" target="_top" xlink:title="Set a single channel from an array.">
<polygon fill="none" stroke="black" points="177,-69 177,-88 312,-88 312,-69 177,-69"/>
<text text-anchor="middle" x="244.5" y="-76" font-family="Helvetica,sans-Serif" font-size="10.00">tklb::AudioBufferTpl::set</text>
</a>
</g>
</g>
<!-- Node1&#45;&gt;Node4 -->
<g id="edge3" class="edge">
<title>Node1&#45;&gt;Node4</title>
<path fill="none" stroke="midnightblue" d="M139.37,-89.94C148.34,-88.95 157.57,-87.94 166.66,-86.94"/>
<polygon fill="midnightblue" stroke="midnightblue" points="167.28,-90.39 176.84,-85.82 166.52,-83.43 167.28,-90.39"/>
</g>
<!-- Node7 -->
<g id="node7" class="node">
<title>Node7</title>
<g id="a_node7"><a xlink:href="classtklb_1_1_audio_buffer_tpl.html#af6df8d7e6840eee3f84807bd1662c3ed" target="_top" xlink:title="Returns the allocated length of the buffer.">
<polygon fill="none" stroke="black" points="361,-0.5 361,-30.5 475,-30.5 475,-0.5 361,-0.5"/>
<text text-anchor="start" x="369" y="-18.5" font-family="Helvetica,sans-Serif" font-size="10.00">tklb::AudioBufferTpl</text>
<text text-anchor="middle" x="418" y="-7.5" font-family="Helvetica,sans-Serif" font-size="10.00">::size</text>
</a>
</g>
</g>
<!-- Node1&#45;&gt;Node7 -->
<g id="edge8" class="edge">
<title>Node1&#45;&gt;Node7</title>
<path fill="none" stroke="midnightblue" d="M107.25,-82.41C127.06,-74.72 152.08,-65.7 175,-59.5 233.49,-43.67 301.5,-31.87 350.5,-24.5"/>
<polygon fill="midnightblue" stroke="midnightblue" points="351.28,-27.92 360.65,-22.99 350.25,-20.99 351.28,-27.92"/>
</g>
<!-- Node4&#45;&gt;Node3 -->
<g id="edge6" class="edge">
<title>Node4&#45;&gt;Node3</title>
<path fill="none" stroke="midnightblue" d="M273.57,-88.09C286,-92.4 300.76,-97.61 314,-102.5 330.1,-108.45 333.72,-111.04 350,-116.5 359.01,-119.52 368.8,-122.48 378.04,-125.12"/>
<polygon fill="midnightblue" stroke="midnightblue" points="377.22,-128.53 387.79,-127.86 379.11,-121.79 377.22,-128.53"/>
</g>
<!-- Node5 -->
<g id="node5" class="node">
<title>Node5</title>
<g id="a_node5"><a xlink:href="namespacetklb_1_1memory.html#ab89ec197028f903f4ea125eae46c4a10" target="_top" xlink:title="memcpy wrapper">
<polygon fill="none" stroke="black" points="362,-88 362,-107 474,-107 474,-88 362,-88"/>
<text text-anchor="middle" x="418" y="-95" font-family="Helvetica,sans-Serif" font-size="10.00">tklb::memory::copy</text>
</a>
</g>
</g>
<!-- Node4&#45;&gt;Node5 -->
<g id="edge4" class="edge">
<title>Node4&#45;&gt;Node5</title>
<path fill="none" stroke="midnightblue" d="M312.3,-85.9C325.21,-87.33 338.73,-88.83 351.59,-90.25"/>
<polygon fill="midnightblue" stroke="midnightblue" points="351.43,-93.76 361.75,-91.38 352.2,-86.8 351.43,-93.76"/>
</g>
<!-- Node6 -->
<g id="node6" class="node">
<title>Node6</title>
<g id="a_node6"><a xlink:href="classtklb_1_1_audio_buffer_tpl.html#aee0540e90ae2790f9a809917bc5a04fd" target="_top" xlink:title=" ">
<polygon fill="none" stroke="black" points="350,-50 350,-69 486,-69 486,-50 350,-50"/>
<text text-anchor="middle" x="418" y="-57" font-family="Helvetica,sans-Serif" font-size="10.00">tklb::AudioBufferTpl::get</text>
</a>
</g>
</g>
<!-- Node4&#45;&gt;Node6 -->
<g id="edge5" class="edge">
<title>Node4&#45;&gt;Node6</title>
<path fill="none" stroke="midnightblue" d="M312.3,-71.1C321.25,-70.11 330.49,-69.08 339.61,-68.07"/>
<polygon fill="midnightblue" stroke="midnightblue" points="340.27,-71.52 349.82,-66.94 339.5,-64.57 340.27,-71.52"/>
</g>
<!-- Node4&#45;&gt;Node7 -->
<g id="edge7" class="edge">
<title>Node4&#45;&gt;Node7</title>
<path fill="none" stroke="midnightblue" d="M271.55,-68.93C296.68,-59.7 335.41,-45.47 366.58,-34.02"/>
<polygon fill="midnightblue" stroke="midnightblue" points="367.81,-37.3 375.99,-30.57 365.4,-30.73 367.81,-37.3"/>
</g>
</g>
</svg>
