<?xml version="1.0" encoding="UTF-8" standalone="no"?>
<!DOCTYPE svg PUBLIC "-//W3C//DTD SVG 1.1//EN"
 "http://www.w3.org/Graphics/SVG/1.1/DTD/svg11.dtd">
<!-- Generated by graphviz version 2.50.0 (0)
 -->
<!-- Title: vae::core::BankLoader::load Pages: 1 -->
<svg width="1170pt" height="466pt"
 viewBox="0.00 0.00 1170.00 466.49" xmlns="http://www.w3.org/2000/svg" xmlns:xlink="http://www.w3.org/1999/xlink">
<g id="graph0" class="graph" transform="scale(1 1) rotate(0) translate(4 462.49)">
<title>vae::core::BankLoader::load</title>
<!-- Node1 -->
<g id="node1" class="node">
<title>Node1</title>
<g id="a_node1"><a xlink:title="Load a bank.json and all wav files referenced in it.">
<polygon fill="#bfbfbf" stroke="black" points="0,-260.99 0,-290.99 125,-290.99 125,-260.99 0,-260.99"/>
<text text-anchor="start" x="8" y="-278.99" font-family="Helvetica,sans-Serif" font-size="10.00">vae::core::BankLoader</text>
<text text-anchor="middle" x="62.5" y="-267.99" font-family="Helvetica,sans-Serif" font-size="10.00">::load</text>
</a>
</g>
</g>
<!-- Node2 -->
<g id="node2" class="node">
<title>Node2</title>
<g id="a_node2"><a xlink:href="structvae_1_1core_1_1_source_loader.html#a2341f89c2b79148066369e8d50d98597" target="_top" xlink:title="Loads a wav file for the resource.">
<polygon fill="none" stroke="black" points="161,-260.99 161,-290.99 295,-290.99 295,-260.99 161,-260.99"/>
<text text-anchor="start" x="169" y="-278.99" font-family="Helvetica,sans-Serif" font-size="10.00">vae::core::SourceLoader</text>
<text text-anchor="middle" x="228" y="-267.99" font-family="Helvetica,sans-Serif" font-size="10.00">::load</text>
</a>
</g>
</g>
<!-- Node1&#45;&gt;Node2 -->
<g id="edge1" class="edge">
<title>Node1&#45;&gt;Node2</title>
<path fill="none" stroke="midnightblue" d="M125.31,-275.99C133.54,-275.99 142.06,-275.99 150.5,-275.99"/>
<polygon fill="midnightblue" stroke="midnightblue" points="150.73,-279.49 160.73,-275.99 150.73,-272.49 150.73,-279.49"/>
</g>
<!-- Node3 -->
<g id="node3" class="node">
<title>Node3</title>
<g id="a_node3"><a xlink:href="namespacetklb_1_1ogg.html#a61b130503ea6c0157f584d36dec61371" target="_top" xlink:title="Decode ogg/vorbis from memory or file path.">
<polygon fill="none" stroke="black" points="335.5,-345.49 335.5,-364.49 421.5,-364.49 421.5,-345.49 335.5,-345.49"/>
<text text-anchor="middle" x="378.5" y="-352.49" font-family="Helvetica,sans-Serif" font-size="10.00">tklb::ogg::load</text>
</a>
</g>
</g>
<!-- Node2&#45;&gt;Node3 -->
<g id="edge2" class="edge">
<title>Node2&#45;&gt;Node3</title>
<path fill="none" stroke="midnightblue" d="M257.28,-291.03C284.11,-305.31 324.15,-326.61 350.54,-340.64"/>
<polygon fill="midnightblue" stroke="midnightblue" points="349.12,-343.85 359.59,-345.46 352.41,-337.67 349.12,-343.85"/>
</g>
<!-- Node16 -->
<g id="node16" class="node">
<title>Node16</title>
<g id="a_node16"><a xlink:href="namespacetklb_1_1wave.html#a0eea36d8e07b1520ce77191e081c45bb" target="_top" xlink:title="Decode wav from memory or file path.">
<polygon fill="none" stroke="black" points="331,-206.49 331,-225.49 426,-225.49 426,-206.49 331,-206.49"/>
<text text-anchor="middle" x="378.5" y="-213.49" font-family="Helvetica,sans-Serif" font-size="10.00">tklb::wave::load</text>
</a>
</g>
</g>
<!-- Node2&#45;&gt;Node16 -->
<g id="edge21" class="edge">
<title>Node2&#45;&gt;Node16</title>
<path fill="none" stroke="midnightblue" d="M266.47,-260.85C290.53,-251.13 321.48,-238.62 344.59,-229.29"/>
<polygon fill="midnightblue" stroke="midnightblue" points="346.01,-232.49 353.97,-225.5 343.39,-226 346.01,-232.49"/>
</g>
<!-- Node4 -->
<g id="node4" class="node">
<title>Node4</title>
<g id="a_node4"><a xlink:href="classtklb_1_1_audio_buffer_tpl.html#a2cf39ec8b1c8b109e5d4d006b1385391" target="_top" xlink:title="Fills an 2d array of size maxChannels() with pointers to each channel.">
<polygon fill="none" stroke="black" points="481,-427.99 481,-457.99 595,-457.99 595,-427.99 481,-427.99"/>
<text text-anchor="start" x="489" y="-445.99" font-family="Helvetica,sans-Serif" font-size="10.00">tklb::AudioBufferTpl</text>
<text text-anchor="middle" x="538" y="-434.99" font-family="Helvetica,sans-Serif" font-size="10.00">::getRaw</text>
</a>
</g>
</g>
<!-- Node3&#45;&gt;Node4 -->
<g id="edge3" class="edge">
<title>Node3&#45;&gt;Node4</title>
<path fill="none" stroke="midnightblue" d="M391.23,-364.56C406.73,-376.9 435.22,-398.47 462,-412.99 469.19,-416.88 476.99,-420.56 484.76,-423.92"/>
<polygon fill="midnightblue" stroke="midnightblue" points="483.59,-427.22 494.17,-427.84 486.29,-420.76 483.59,-427.22"/>
</g>
<!-- Node11 -->
<g id="node11" class="node">
<title>Node11</title>
<g id="a_node11"><a xlink:href="classtklb_1_1_audio_buffer_tpl.html#addb80823bf792039ad009baeed0a7dcb" target="_top" xlink:title="Resizes the buffer to the desired length and channel count.">
<polygon fill="none" stroke="black" points="664,-208.99 664,-238.99 778,-238.99 778,-208.99 664,-208.99"/>
<text text-anchor="start" x="672" y="-226.99" font-family="Helvetica,sans-Serif" font-size="10.00">tklb::AudioBufferTpl</text>
<text text-anchor="middle" x="721" y="-215.99" font-family="Helvetica,sans-Serif" font-size="10.00">::resize</text>
</a>
</g>
</g>
<!-- Node3&#45;&gt;Node11 -->
<g id="edge10" class="edge">
<title>Node3&#45;&gt;Node11</title>
<path fill="none" stroke="midnightblue" d="M403.29,-345.39C450.27,-326.48 558.36,-283.3 650,-248.99 655.57,-246.9 661.41,-244.76 667.24,-242.64"/>
<polygon fill="midnightblue" stroke="midnightblue" points="668.77,-245.81 676.98,-239.12 666.39,-239.22 668.77,-245.81"/>
</g>
<!-- Node14 -->
<g id="node14" class="node">
<title>Node14</title>
<g id="a_node14"><a xlink:href="classtklb_1_1_audio_buffer_tpl.html#aa11a79c75ab7aa4e7bb0a70a87bd743d" target="_top" xlink:title="Set a single channel from an array.">
<polygon fill="none" stroke="black" points="653.5,-345.49 653.5,-364.49 788.5,-364.49 788.5,-345.49 653.5,-345.49"/>
<text text-anchor="middle" x="721" y="-352.49" font-family="Helvetica,sans-Serif" font-size="10.00">tklb::AudioBufferTpl::set</text>
</a>
</g>
</g>
<!-- Node3&#45;&gt;Node14 -->
<g id="edge14" class="edge">
<title>Node3&#45;&gt;Node14</title>
<path fill="none" stroke="midnightblue" d="M404.34,-364.61C420.49,-370.34 442.16,-377.05 462,-379.99 528.83,-389.89 546.9,-387.79 614,-379.99 635.43,-377.5 658.82,-372.26 678.16,-367.22"/>
<polygon fill="midnightblue" stroke="midnightblue" points="679.12,-370.58 687.87,-364.62 677.31,-363.82 679.12,-370.58"/>
</g>
<!-- Node15 -->
<g id="node15" class="node">
<title>Node15</title>
<g id="a_node15"><a xlink:href="classtklb_1_1_audio_buffer_tpl.html#ae6bac549ffef997e42354d8e4870afe4" target="_top" xlink:title="Set the amount of valid samples currently in the buffer This is mostly a convenience flag since the a...">
<polygon fill="none" stroke="black" points="481,-339.99 481,-369.99 595,-369.99 595,-339.99 481,-339.99"/>
<text text-anchor="start" x="489" y="-357.99" font-family="Helvetica,sans-Serif" font-size="10.00">tklb::AudioBufferTpl</text>
<text text-anchor="middle" x="538" y="-346.99" font-family="Helvetica,sans-Serif" font-size="10.00">::setValidSize</text>
</a>
</g>
</g>
<!-- Node3&#45;&gt;Node15 -->
<g id="edge19" class="edge">
<title>Node3&#45;&gt;Node15</title>
<path fill="none" stroke="midnightblue" d="M421.71,-354.99C436.72,-354.99 454.02,-354.99 470.57,-354.99"/>
<polygon fill="midnightblue" stroke="midnightblue" points="470.75,-358.49 480.75,-354.99 470.75,-351.49 470.75,-358.49"/>
</g>
<!-- Node5 -->
<g id="node5" class="node">
<title>Node5</title>
<g id="a_node5"><a xlink:href="classtklb_1_1_audio_buffer_tpl.html#ac59e6eb1a408c183b9e360f473786aec" target="_top" xlink:title=" ">
<polygon fill="none" stroke="black" points="662,-383.99 662,-413.99 780,-413.99 780,-383.99 662,-383.99"/>
<text text-anchor="start" x="670" y="-401.99" font-family="Helvetica,sans-Serif" font-size="10.00">tklb::AudioBufferTpl</text>
<text text-anchor="middle" x="721" y="-390.99" font-family="Helvetica,sans-Serif" font-size="10.00">::assertOnConstMem</text>
</a>
</g>
</g>
<!-- Node4&#45;&gt;Node5 -->
<g id="edge4" class="edge">
<title>Node4&#45;&gt;Node5</title>
<path fill="none" stroke="midnightblue" d="M595.28,-429.31C613.22,-424.95 633.27,-420.07 651.96,-415.53"/>
<polygon fill="midnightblue" stroke="midnightblue" points="652.99,-418.88 661.88,-413.12 651.34,-412.08 652.99,-418.88"/>
</g>
<!-- Node6 -->
<g id="node6" class="node">
<title>Node6</title>
<g id="a_node6"><a xlink:href="classtklb_1_1_audio_buffer_tpl.html#a613104aae947423f0fac79142a8bcaf0" target="_top" xlink:title="Fill the provided array with the contents of this buffer.">
<polygon fill="none" stroke="black" points="653,-433.49 653,-452.49 789,-452.49 789,-433.49 653,-433.49"/>
<text text-anchor="middle" x="721" y="-440.49" font-family="Helvetica,sans-Serif" font-size="10.00">tklb::AudioBufferTpl::put</text>
</a>
</g>
</g>
<!-- Node4&#45;&gt;Node6 -->
<g id="edge5" class="edge">
<title>Node4&#45;&gt;Node6</title>
<path fill="none" stroke="midnightblue" d="M595.28,-442.99C610.26,-442.99 626.71,-442.99 642.61,-442.99"/>
<polygon fill="midnightblue" stroke="midnightblue" points="642.96,-446.49 652.96,-442.99 642.96,-439.49 642.96,-446.49"/>
</g>
<!-- Node7 -->
<g id="node7" class="node">
<title>Node7</title>
<g id="a_node7"><a xlink:href="namespacetklb_1_1memory.html#ab89ec197028f903f4ea125eae46c4a10" target="_top" xlink:title="memcpy wrapper">
<polygon fill="none" stroke="black" points="846.5,-346.49 846.5,-365.49 958.5,-365.49 958.5,-346.49 846.5,-346.49"/>
<text text-anchor="middle" x="902.5" y="-353.49" font-family="Helvetica,sans-Serif" font-size="10.00">tklb::memory::copy</text>
</a>
</g>
</g>
<!-- Node6&#45;&gt;Node7 -->
<g id="edge6" class="edge">
<title>Node6&#45;&gt;Node7</title>
<path fill="none" stroke="midnightblue" d="M773.13,-433.49C779.8,-431.02 786.29,-427.91 792,-423.99 814.29,-408.71 805.62,-390.14 828,-374.99 831.07,-372.91 834.36,-371.06 837.77,-369.41"/>
<polygon fill="midnightblue" stroke="midnightblue" points="839.2,-372.6 847.06,-365.5 836.48,-366.15 839.2,-372.6"/>
</g>
<!-- Node8 -->
<g id="node8" class="node">
<title>Node8</title>
<g id="a_node8"><a xlink:href="classtklb_1_1_audio_buffer_tpl.html#a839371a414e21aea2101d9404e3be9c5" target="_top" xlink:title=" ">
<polygon fill="none" stroke="black" points="834.5,-384.49 834.5,-403.49 970.5,-403.49 970.5,-384.49 834.5,-384.49"/>
<text text-anchor="middle" x="902.5" y="-391.49" font-family="Helvetica,sans-Serif" font-size="10.00">tklb::AudioBufferTpl::get</text>
</a>
</g>
</g>
<!-- Node6&#45;&gt;Node8 -->
<g id="edge7" class="edge">
<title>Node6&#45;&gt;Node8</title>
<path fill="none" stroke="midnightblue" d="M757.26,-433.44C768.37,-430.42 780.7,-427.07 792,-423.99 813.31,-418.18 836.95,-411.7 856.79,-406.26"/>
<polygon fill="midnightblue" stroke="midnightblue" points="857.77,-409.62 866.49,-403.6 855.92,-402.87 857.77,-409.62"/>
</g>
<!-- Node9 -->
<g id="node9" class="node">
<title>Node9</title>
<g id="a_node9"><a xlink:href="namespacetklb.html#a3080595da18d742645ec41d61828a426" target="_top" xlink:title=" ">
<polygon fill="none" stroke="black" points="872.5,-258.49 872.5,-277.49 932.5,-277.49 932.5,-258.49 872.5,-258.49"/>
<text text-anchor="middle" x="902.5" y="-265.49" font-family="Helvetica,sans-Serif" font-size="10.00">tklb::min</text>
</a>
</g>
</g>
<!-- Node6&#45;&gt;Node9 -->
<g id="edge8" class="edge">
<title>Node6&#45;&gt;Node9</title>
<path fill="none" stroke="midnightblue" d="M778.81,-433.39C783.67,-430.92 788.18,-427.83 792,-423.99 836.07,-379.64 783.94,-332.35 828,-287.99 837.03,-278.9 849.75,-273.82 862.07,-271.03"/>
<polygon fill="midnightblue" stroke="midnightblue" points="863.03,-274.41 872.24,-269.18 861.78,-267.52 863.03,-274.41"/>
</g>
<!-- Node10 -->
<g id="node10" class="node">
<title>Node10</title>
<g id="a_node10"><a xlink:href="classtklb_1_1_audio_buffer_tpl.html#a37f13531bbfb64cff87ab6473f5bea14" target="_top" xlink:title="fReturns the length of actually valid audio in the buffer.">
<polygon fill="none" stroke="black" points="845.5,-427.99 845.5,-457.99 959.5,-457.99 959.5,-427.99 845.5,-427.99"/>
<text text-anchor="start" x="853.5" y="-445.99" font-family="Helvetica,sans-Serif" font-size="10.00">tklb::AudioBufferTpl</text>
<text text-anchor="middle" x="902.5" y="-434.99" font-family="Helvetica,sans-Serif" font-size="10.00">::validSize</text>
</a>
</g>
</g>
<!-- Node6&#45;&gt;Node10 -->
<g id="edge9" class="edge">
<title>Node6&#45;&gt;Node10</title>
<path fill="none" stroke="midnightblue" d="M789.09,-442.99C804.14,-442.99 820.1,-442.99 835.12,-442.99"/>
<polygon fill="midnightblue" stroke="midnightblue" points="835.35,-446.49 845.35,-442.99 835.35,-439.49 835.35,-446.49"/>
</g>
<!-- Node11&#45;&gt;Node9 -->
<g id="edge12" class="edge">
<title>Node11&#45;&gt;Node9</title>
<path fill="none" stroke="midnightblue" d="M778.3,-237.79C805.77,-244.52 838.12,-252.45 862.78,-258.5"/>
<polygon fill="midnightblue" stroke="midnightblue" points="861.95,-261.9 872.5,-260.88 863.62,-255.1 861.95,-261.9"/>
</g>
<!-- Node12 -->
<g id="node12" class="node">
<title>Node12</title>
<g id="a_node12"><a xlink:href="classtklb_1_1_audio_buffer_tpl.html#a9714a6b0b9ee269c551b28f830a02d57" target="_top" xlink:title="Returns the amount of channels.">
<polygon fill="none" stroke="black" points="845.5,-208.99 845.5,-238.99 959.5,-238.99 959.5,-208.99 845.5,-208.99"/>
<text text-anchor="start" x="853.5" y="-226.99" font-family="Helvetica,sans-Serif" font-size="10.00">tklb::AudioBufferTpl</text>
<text text-anchor="middle" x="902.5" y="-215.99" font-family="Helvetica,sans-Serif" font-size="10.00">::channels</text>
</a>
</g>
</g>
<!-- Node11&#45;&gt;Node12 -->
<g id="edge11" class="edge">
<title>Node11&#45;&gt;Node12</title>
<path fill="none" stroke="midnightblue" d="M778.3,-223.99C796.35,-223.99 816.5,-223.99 835.19,-223.99"/>
<polygon fill="midnightblue" stroke="midnightblue" points="835.4,-227.49 845.4,-223.99 835.4,-220.49 835.4,-227.49"/>
</g>
<!-- Node13 -->
<g id="node13" class="node">
<title>Node13</title>
<g id="a_node13"><a xlink:href="classtklb_1_1_audio_buffer_tpl.html#acbe041a482f37ed4a02b99b239e53f80" target="_top" xlink:title="Returns the allocated length of the buffer.">
<polygon fill="none" stroke="black" points="845.5,-296.99 845.5,-326.99 959.5,-326.99 959.5,-296.99 845.5,-296.99"/>
<text text-anchor="start" x="853.5" y="-314.99" font-family="Helvetica,sans-Serif" font-size="10.00">tklb::AudioBufferTpl</text>
<text text-anchor="middle" x="902.5" y="-303.99" font-family="Helvetica,sans-Serif" font-size="10.00">::size</text>
</a>
</g>
</g>
<!-- Node11&#45;&gt;Node13 -->
<g id="edge13" class="edge">
<title>Node11&#45;&gt;Node13</title>
<path fill="none" stroke="midnightblue" d="M773.07,-239.01C779.67,-241.87 786.16,-245.18 792,-248.99 811.49,-261.69 808.42,-274.43 828,-286.99 831.13,-289 834.45,-290.87 837.87,-292.6"/>
<polygon fill="midnightblue" stroke="midnightblue" points="836.56,-295.85 847.11,-296.87 839.5,-289.5 836.56,-295.85"/>
</g>
<!-- Node14&#45;&gt;Node7 -->
<g id="edge15" class="edge">
<title>Node14&#45;&gt;Node7</title>
<path fill="none" stroke="midnightblue" d="M788.58,-355.36C804.22,-355.45 820.86,-355.54 836.42,-355.63"/>
<polygon fill="midnightblue" stroke="midnightblue" points="836.45,-359.13 846.47,-355.68 836.49,-352.13 836.45,-359.13"/>
</g>
<!-- Node14&#45;&gt;Node8 -->
<g id="edge16" class="edge">
<title>Node14&#45;&gt;Node8</title>
<path fill="none" stroke="midnightblue" d="M765.91,-364.53C790.56,-369.88 821.51,-376.61 847.62,-382.28"/>
<polygon fill="midnightblue" stroke="midnightblue" points="847.22,-385.78 857.73,-384.48 848.7,-378.94 847.22,-385.78"/>
</g>
<!-- Node14&#45;&gt;Node9 -->
<g id="edge17" class="edge">
<title>Node14&#45;&gt;Node9</title>
<path fill="none" stroke="midnightblue" d="M734.36,-345.43C753.46,-331.08 791.74,-303.95 828,-287.99 838.75,-283.26 850.89,-279.4 862.15,-276.38"/>
<polygon fill="midnightblue" stroke="midnightblue" points="863.36,-279.69 872.19,-273.85 861.64,-272.9 863.36,-279.69"/>
</g>
<!-- Node14&#45;&gt;Node13 -->
<g id="edge18" class="edge">
<title>Node14&#45;&gt;Node13</title>
<path fill="none" stroke="midnightblue" d="M761.84,-345.45C783.44,-340.27 810.71,-333.74 835.4,-327.82"/>
<polygon fill="midnightblue" stroke="midnightblue" points="836.53,-331.15 845.44,-325.42 834.9,-324.35 836.53,-331.15"/>
</g>
<!-- Node15&#45;&gt;Node13 -->
<g id="edge20" class="edge">
<title>Node15&#45;&gt;Node13</title>
<path fill="none" stroke="midnightblue" d="M595.06,-344.56C612.61,-341.52 632.07,-338.37 650,-335.99 712.64,-327.65 784.43,-321.1 835.23,-316.96"/>
<polygon fill="midnightblue" stroke="midnightblue" points="835.74,-320.43 845.43,-316.14 835.18,-313.45 835.74,-320.43"/>
</g>
<!-- Node16&#45;&gt;Node11 -->
<g id="edge25" class="edge">
<title>Node16&#45;&gt;Node11</title>
<path fill="none" stroke="midnightblue" d="M394.91,-206.42C410.96,-197.05 437.2,-183.43 462,-177.99 527.99,-163.52 547.86,-164.26 614,-177.99 627.18,-180.72 655.67,-193.23 679.79,-204.51"/>
<polygon fill="midnightblue" stroke="midnightblue" points="678.59,-207.81 689.12,-208.92 681.57,-201.48 678.59,-207.81"/>
</g>
<!-- Node16&#45;&gt;Node15 -->
<g id="edge44" class="edge">
<title>Node16&#45;&gt;Node15</title>
<path fill="none" stroke="midnightblue" d="M390.33,-225.54C415.23,-247.52 477.1,-302.12 512.01,-332.93"/>
<polygon fill="midnightblue" stroke="midnightblue" points="510.04,-335.86 519.85,-339.85 514.67,-330.61 510.04,-335.86"/>
</g>
<!-- Node17 -->
<g id="node17" class="node">
<title>Node17</title>
<g id="a_node17"><a xlink:href="classtklb_1_1_heap_buffer.html#afcce6d234f25d074818cdd35e2d33daa" target="_top" xlink:title=" ">
<polygon fill="none" stroke="black" points="475.5,-225.49 475.5,-244.49 600.5,-244.49 600.5,-225.49 475.5,-225.49"/>
<text text-anchor="middle" x="538" y="-232.49" font-family="Helvetica,sans-Serif" font-size="10.00">tklb::HeapBuffer::data</text>
</a>
</g>
</g>
<!-- Node16&#45;&gt;Node17 -->
<g id="edge22" class="edge">
<title>Node16&#45;&gt;Node17</title>
<path fill="none" stroke="midnightblue" d="M426.33,-221.64C438.61,-223.12 452.14,-224.75 465.4,-226.35"/>
<polygon fill="midnightblue" stroke="midnightblue" points="465.12,-229.84 475.46,-227.57 465.95,-222.89 465.12,-229.84"/>
</g>
<!-- Node18 -->
<g id="node18" class="node">
<title>Node18</title>
<g id="a_node18"><a xlink:href="namespacetklb_1_1wave_1_1__.html#a505c3965a632ba8e5aa1e0f5bd5a4d97" target="_top" xlink:title=" ">
<polygon fill="none" stroke="black" points="467.5,-187.49 467.5,-206.49 608.5,-206.49 608.5,-187.49 467.5,-187.49"/>
<text text-anchor="middle" x="538" y="-194.49" font-family="Helvetica,sans-Serif" font-size="10.00">tklb::wave::_::drwaveFree</text>
</a>
</g>
</g>
<!-- Node16&#45;&gt;Node18 -->
<g id="edge23" class="edge">
<title>Node16&#45;&gt;Node18</title>
<path fill="none" stroke="midnightblue" d="M426.33,-210.34C436.09,-209.16 446.63,-207.89 457.2,-206.62"/>
<polygon fill="midnightblue" stroke="midnightblue" points="457.81,-210.07 467.32,-205.39 456.97,-203.12 457.81,-210.07"/>
</g>
<!-- Node19 -->
<g id="node19" class="node">
<title>Node19</title>
<g id="a_node19"><a xlink:href="namespacetklb_1_1wave_1_1__.html#a2785c54e80d6c817bdde01724b8c11cc" target="_top" xlink:title=" ">
<polygon fill="none" stroke="black" points="462,-111.49 462,-130.49 614,-130.49 614,-111.49 462,-111.49"/>
<text text-anchor="middle" x="538" y="-118.49" font-family="Helvetica,sans-Serif" font-size="10.00">tklb::wave::_::drwaveMalloc</text>
</a>
</g>
</g>
<!-- Node16&#45;&gt;Node19 -->
<g id="edge24" class="edge">
<title>Node16&#45;&gt;Node19</title>
<path fill="none" stroke="midnightblue" d="M388.21,-206.33C402.31,-191.22 431.66,-161.97 462,-144.99 469.8,-140.62 478.51,-136.92 487.16,-133.83"/>
<polygon fill="midnightblue" stroke="midnightblue" points="488.46,-137.08 496.84,-130.6 486.24,-130.45 488.46,-137.08"/>
</g>
<!-- Node20 -->
<g id="node20" class="node">
<title>Node20</title>
<g id="a_node20"><a xlink:href="classtklb_1_1_heap_buffer.html#ab37e6c1fc8d124b5737cfdef69b051d1" target="_top" xlink:title="Resize the buffer If the memory is borrowed it will become unique and owned by this instance as soon ...">
<polygon fill="none" stroke="black" points="472,-73.49 472,-92.49 604,-92.49 604,-73.49 472,-73.49"/>
<text text-anchor="middle" x="538" y="-80.49" font-family="Helvetica,sans-Serif" font-size="10.00">tklb::HeapBuffer::resize</text>
</a>
</g>
</g>
<!-- Node16&#45;&gt;Node20 -->
<g id="edge26" class="edge">
<title>Node16&#45;&gt;Node20</title>
<path fill="none" stroke="midnightblue" d="M383.66,-206.28C393.68,-184.11 421.37,-129.56 462,-101.99 464.92,-100.01 468.04,-98.23 471.27,-96.64"/>
<polygon fill="midnightblue" stroke="midnightblue" points="472.83,-99.78 480.65,-92.63 470.08,-93.34 472.83,-99.78"/>
</g>
<!-- Node29 -->
<g id="node29" class="node">
<title>Node29</title>
<g id="a_node29"><a xlink:href="classtklb_1_1_audio_buffer_tpl.html#aa7f380c81a409e3362ceee8a57094ee4" target="_top" xlink:title="Set multiple channels from an interleaved array.">
<polygon fill="none" stroke="black" points="662.5,-257.99 662.5,-287.99 779.5,-287.99 779.5,-257.99 662.5,-257.99"/>
<text text-anchor="start" x="670.5" y="-275.99" font-family="Helvetica,sans-Serif" font-size="10.00">tklb::AudioBufferTpl</text>
<text text-anchor="middle" x="721" y="-264.99" font-family="Helvetica,sans-Serif" font-size="10.00">::setFromInterleaved</text>
</a>
</g>
</g>
<!-- Node16&#45;&gt;Node29 -->
<g id="edge39" class="edge">
<title>Node16&#45;&gt;Node29</title>
<path fill="none" stroke="midnightblue" d="M395.6,-225.52C411.78,-234.58 437.72,-247.72 462,-253.99 525.09,-270.27 599.53,-274.2 652.2,-274.55"/>
<polygon fill="midnightblue" stroke="midnightblue" points="652.42,-278.05 662.43,-274.57 652.44,-271.05 652.42,-278.05"/>
</g>
<!-- Node21 -->
<g id="node21" class="node">
<title>Node21</title>
<g id="a_node21"><a xlink:href="classtklb_1_1_heap_buffer.html#aa2212b76d383c1afe3d4da0448133299" target="_top" xlink:title="Allocated the exact size requsted and copies existing objects.">
<polygon fill="none" stroke="black" points="650,-73.49 650,-92.49 792,-92.49 792,-73.49 650,-73.49"/>
<text text-anchor="middle" x="721" y="-80.49" font-family="Helvetica,sans-Serif" font-size="10.00">tklb::HeapBuffer::allocate</text>
</a>
</g>
</g>
<!-- Node20&#45;&gt;Node21 -->
<g id="edge27" class="edge">
<title>Node20&#45;&gt;Node21</title>
<path fill="none" stroke="midnightblue" d="M604.09,-82.99C615.73,-82.99 627.98,-82.99 639.98,-82.99"/>
<polygon fill="midnightblue" stroke="midnightblue" points="639.98,-86.49 649.98,-82.99 639.98,-79.49 639.98,-86.49"/>
</g>
<!-- Node27 -->
<g id="node27" class="node">
<title>Node27</title>
<g id="a_node27"><a xlink:href="classtklb_1_1_heap_buffer.html#ad513a99105213150fe287a8c209f8bc2" target="_top" xlink:title=" ">
<polygon fill="none" stroke="black" points="652.5,-111.99 652.5,-141.99 789.5,-141.99 789.5,-111.99 652.5,-111.99"/>
<text text-anchor="start" x="660.5" y="-129.99" font-family="Helvetica,sans-Serif" font-size="10.00">tklb::HeapBuffer::closest</text>
<text text-anchor="middle" x="721" y="-118.99" font-family="Helvetica,sans-Serif" font-size="10.00">ChunkSize</text>
</a>
</g>
</g>
<!-- Node20&#45;&gt;Node27 -->
<g id="edge37" class="edge">
<title>Node20&#45;&gt;Node27</title>
<path fill="none" stroke="midnightblue" d="M578.27,-92.54C598.74,-97.51 624.43,-103.76 648.29,-109.56"/>
<polygon fill="midnightblue" stroke="midnightblue" points="647.48,-112.96 658.03,-111.92 649.14,-106.16 647.48,-112.96"/>
</g>
<!-- Node28 -->
<g id="node28" class="node">
<title>Node28</title>
<g id="a_node28"><a xlink:href="classtklb_1_1_heap_buffer.html#a5ec4892e352b8df099fa1c75cfbf328c" target="_top" xlink:title="Returns the amount of elements in the container.">
<polygon fill="none" stroke="black" points="660,-161.49 660,-180.49 782,-180.49 782,-161.49 660,-161.49"/>
<text text-anchor="middle" x="721" y="-168.49" font-family="Helvetica,sans-Serif" font-size="10.00">tklb::HeapBuffer::size</text>
</a>
</g>
</g>
<!-- Node20&#45;&gt;Node28 -->
<g id="edge38" class="edge">
<title>Node20&#45;&gt;Node28</title>
<path fill="none" stroke="midnightblue" d="M594.94,-92.52C601.67,-94.99 608.21,-98.09 614,-101.99 636.42,-117.08 627.82,-135.56 650,-150.99 653.5,-153.42 657.3,-155.57 661.25,-157.45"/>
<polygon fill="midnightblue" stroke="midnightblue" points="660.1,-160.76 670.68,-161.38 662.8,-154.3 660.1,-160.76"/>
</g>
<!-- Node21&#45;&gt;Node7 -->
<g id="edge31" class="edge">
<title>Node21&#45;&gt;Node7</title>
<path fill="none" stroke="midnightblue" d="M779.91,-92.53C784.43,-95.03 788.56,-98.14 792,-101.99 862.38,-180.8 757.15,-258.6 828,-336.99 830.75,-340.04 833.93,-342.62 837.38,-344.82"/>
<polygon fill="midnightblue" stroke="midnightblue" points="835.95,-348.02 846.44,-349.5 839.16,-341.8 835.95,-348.02"/>
</g>
<!-- Node21&#45;&gt;Node9 -->
<g id="edge36" class="edge">
<title>Node21&#45;&gt;Node9</title>
<path fill="none" stroke="midnightblue" d="M778.89,-92.51C783.73,-95 788.22,-98.11 792,-101.99 838.97,-150.14 780.74,-201.12 828,-248.99 836.97,-258.07 849.68,-263 862.01,-265.62"/>
<polygon fill="midnightblue" stroke="midnightblue" points="861.75,-269.13 872.19,-267.32 862.9,-262.22 861.75,-269.13"/>
</g>
<!-- Node22 -->
<g id="node22" class="node">
<title>Node22</title>
<g id="a_node22"><a xlink:href="classtklb_1_1memory_1_1_memory_pool.html#a12db669f354ab3f2037a67db7f0a8229" target="_top" xlink:title=" ">
<polygon fill="none" stroke="black" points="1013,-1.99 1013,-31.99 1162,-31.99 1162,-1.99 1013,-1.99"/>
<text text-anchor="start" x="1021" y="-19.99" font-family="Helvetica,sans-Serif" font-size="10.00">tklb::memory::MemoryPool</text>
<text text-anchor="middle" x="1087.5" y="-8.99" font-family="Helvetica,sans-Serif" font-size="10.00">::allocate</text>
</a>
</g>
</g>
<!-- Node21&#45;&gt;Node22 -->
<g id="edge28" class="edge">
<title>Node21&#45;&gt;Node22</title>
<path fill="none" stroke="midnightblue" d="M732.09,-73.46C749.81,-57.44 788.42,-25.73 828,-13.99 884.57,2.8 951.22,1.55 1002.68,-3.63"/>
<polygon fill="midnightblue" stroke="midnightblue" points="1002.44,-7.13 1012.76,-4.72 1003.19,-0.17 1002.44,-7.13"/>
</g>
<!-- Node23 -->
<g id="node23" class="node">
<title>Node23</title>
<g id="a_node23"><a xlink:href="classtklb_1_1memory_1_1_memory_pool.html#a23f0f8e6cc9408d522b0165dd0f01ac2" target="_top" xlink:title="Allocate aligned if simd is enabled.">
<polygon fill="none" stroke="black" points="828,-23.99 828,-53.99 977,-53.99 977,-23.99 828,-23.99"/>
<text text-anchor="start" x="836" y="-41.99" font-family="Helvetica,sans-Serif" font-size="10.00">tklb::memory::MemoryPool</text>
<text text-anchor="middle" x="902.5" y="-30.99" font-family="Helvetica,sans-Serif" font-size="10.00">::allocateAligned</text>
</a>
</g>
</g>
<!-- Node21&#45;&gt;Node23 -->
<g id="edge29" class="edge">
<title>Node21&#45;&gt;Node23</title>
<path fill="none" stroke="midnightblue" d="M760.95,-73.44C781.16,-68.49 806.49,-62.28 830.07,-56.5"/>
<polygon fill="midnightblue" stroke="midnightblue" points="831.16,-59.83 840.04,-54.05 829.49,-53.04 831.16,-59.83"/>
</g>
<!-- Node24 -->
<g id="node24" class="node">
<title>Node24</title>
<g id="a_node24"><a xlink:href="classtklb_1_1memory_1_1_memory_pool.html#ae2f6e404a58380b0bcf0f3de281a7546" target="_top" xlink:title=" ">
<polygon fill="none" stroke="black" points="1013,-133.99 1013,-163.99 1162,-163.99 1162,-133.99 1013,-133.99"/>
<text text-anchor="start" x="1021" y="-151.99" font-family="Helvetica,sans-Serif" font-size="10.00">tklb::memory::MemoryPool</text>
<text text-anchor="middle" x="1087.5" y="-140.99" font-family="Helvetica,sans-Serif" font-size="10.00">::deallocate</text>
</a>
</g>
</g>
<!-- Node21&#45;&gt;Node24 -->
<g id="edge32" class="edge">
<title>Node21&#45;&gt;Node24</title>
<path fill="none" stroke="midnightblue" d="M773.13,-92.49C779.8,-94.96 786.29,-98.07 792,-101.99 814.29,-117.27 803.89,-138.78 828,-150.99 886.99,-180.85 963.7,-175.68 1018.2,-165.91"/>
<polygon fill="midnightblue" stroke="midnightblue" points="1018.93,-169.33 1028.1,-164.04 1017.63,-162.45 1018.93,-169.33"/>
</g>
<!-- Node25 -->
<g id="node25" class="node">
<title>Node25</title>
<g id="a_node25"><a xlink:href="classtklb_1_1memory_1_1_memory_pool.html#a7b2a7e96e64767e2cff9dfddb9085779" target="_top" xlink:title=" ">
<polygon fill="none" stroke="black" points="828,-111.99 828,-141.99 977,-141.99 977,-111.99 828,-111.99"/>
<text text-anchor="start" x="836" y="-129.99" font-family="Helvetica,sans-Serif" font-size="10.00">tklb::memory::MemoryPool</text>
<text text-anchor="middle" x="902.5" y="-118.99" font-family="Helvetica,sans-Serif" font-size="10.00">::deallocateAligned</text>
</a>
</g>
</g>
<!-- Node21&#45;&gt;Node25 -->
<g id="edge33" class="edge">
<title>Node21&#45;&gt;Node25</title>
<path fill="none" stroke="midnightblue" d="M760.95,-92.54C781.16,-97.49 806.49,-103.7 830.07,-109.48"/>
<polygon fill="midnightblue" stroke="midnightblue" points="829.49,-112.94 840.04,-111.92 831.16,-106.14 829.49,-112.94"/>
</g>
<!-- Node26 -->
<g id="node26" class="node">
<title>Node26</title>
<g id="a_node26"><a xlink:href="classtklb_1_1_heap_buffer.html#af3331f4c39082c6bedf37b7931b1c27a" target="_top" xlink:title="Whether the memory is managed by the instance or is borrowed.">
<polygon fill="none" stroke="black" points="831.5,-73.49 831.5,-92.49 973.5,-92.49 973.5,-73.49 831.5,-73.49"/>
<text text-anchor="middle" x="902.5" y="-80.49" font-family="Helvetica,sans-Serif" font-size="10.00">tklb::HeapBuffer::injected</text>
</a>
</g>
</g>
<!-- Node21&#45;&gt;Node26 -->
<g id="edge35" class="edge">
<title>Node21&#45;&gt;Node26</title>
<path fill="none" stroke="midnightblue" d="M792.17,-82.99C801.73,-82.99 811.6,-82.99 821.32,-82.99"/>
<polygon fill="midnightblue" stroke="midnightblue" points="821.38,-86.49 831.38,-82.99 821.38,-79.49 821.38,-86.49"/>
</g>
<!-- Node23&#45;&gt;Node22 -->
<g id="edge30" class="edge">
<title>Node23&#45;&gt;Node22</title>
<path fill="none" stroke="midnightblue" d="M977.14,-30.14C985.57,-29.12 994.2,-28.08 1002.74,-27.06"/>
<polygon fill="midnightblue" stroke="midnightblue" points="1003.2,-30.53 1012.71,-25.86 1002.36,-23.58 1003.2,-30.53"/>
</g>
<!-- Node25&#45;&gt;Node24 -->
<g id="edge34" class="edge">
<title>Node25&#45;&gt;Node24</title>
<path fill="none" stroke="midnightblue" d="M977.14,-135.84C985.57,-136.85 994.2,-137.89 1002.74,-138.92"/>
<polygon fill="midnightblue" stroke="midnightblue" points="1002.36,-142.4 1012.71,-140.12 1003.2,-135.45 1002.36,-142.4"/>
</g>
<!-- Node29&#45;&gt;Node8 -->
<g id="edge41" class="edge">
<title>Node29&#45;&gt;Node8</title>
<path fill="none" stroke="midnightblue" d="M739.67,-288.09C754.08,-300.59 774.78,-318.99 792,-335.99 808.78,-352.56 807.76,-362.88 828,-374.99 831.63,-377.16 835.5,-379.08 839.49,-380.79"/>
<polygon fill="midnightblue" stroke="midnightblue" points="838.4,-384.12 849,-384.39 840.88,-377.57 838.4,-384.12"/>
</g>
<!-- Node29&#45;&gt;Node9 -->
<g id="edge42" class="edge">
<title>Node29&#45;&gt;Node9</title>
<path fill="none" stroke="midnightblue" d="M779.78,-271.38C806.74,-270.63 838.13,-269.75 862.28,-269.08"/>
<polygon fill="midnightblue" stroke="midnightblue" points="862.59,-272.57 872.49,-268.8 862.4,-265.58 862.59,-272.57"/>
</g>
<!-- Node29&#45;&gt;Node12 -->
<g id="edge40" class="edge">
<title>Node29&#45;&gt;Node12</title>
<path fill="none" stroke="midnightblue" d="M777.32,-257.89C796.09,-252.76 817.23,-246.99 836.67,-241.69"/>
<polygon fill="midnightblue" stroke="midnightblue" points="837.64,-245.05 846.36,-239.04 835.79,-238.3 837.64,-245.05"/>
</g>
<!-- Node29&#45;&gt;Node13 -->
<g id="edge43" class="edge">
<title>Node29&#45;&gt;Node13</title>
<path fill="none" stroke="midnightblue" d="M779.78,-285.54C797.51,-289.39 817.15,-293.66 835.39,-297.62"/>
<polygon fill="midnightblue" stroke="midnightblue" points="834.84,-301.09 845.36,-299.79 836.33,-294.25 834.84,-301.09"/>
</g>
</g>
</svg>
