<?xml version="1.0" encoding="UTF-8" standalone="no"?>
<!DOCTYPE svg PUBLIC "-//W3C//DTD SVG 1.1//EN"
 "http://www.w3.org/Graphics/SVG/1.1/DTD/svg11.dtd">
<!-- Generated by graphviz version 2.50.0 (0)
 -->
<!-- Title: tklb::AudioBufferTpl::setValidSize Pages: 1 -->
<svg width="1236pt" height="211pt"
 viewBox="0.00 0.00 1236.00 210.50" xmlns="http://www.w3.org/2000/svg" xmlns:xlink="http://www.w3.org/1999/xlink">
<g id="graph0" class="graph" transform="scale(1 1) rotate(0) translate(4 206.5)">
<title>tklb::AudioBufferTpl::setValidSize</title>
<!-- Node1 -->
<g id="node1" class="node">
<title>Node1</title>
<g id="a_node1"><a xlink:title="Set the amount of valid samples currently in the buffer This is mostly a convenience flag since the a...">
<polygon fill="#bfbfbf" stroke="black" points="1114,-117.5 1114,-147.5 1228,-147.5 1228,-117.5 1114,-117.5"/>
<text text-anchor="start" x="1122" y="-135.5" font-family="Helvetica,sans-Serif" font-size="10.00">tklb::AudioBufferTpl</text>
<text text-anchor="middle" x="1171" y="-124.5" font-family="Helvetica,sans-Serif" font-size="10.00">::setValidSize</text>
</a>
</g>
</g>
<!-- Node2 -->
<g id="node2" class="node">
<title>Node2</title>
<g id="a_node2"><a xlink:href="namespacetklb_1_1ogg.html#a61b130503ea6c0157f584d36dec61371" target="_top" xlink:title="Decode ogg/vorbis from memory or file path.">
<polygon fill="none" stroke="black" points="967,-183 967,-202 1053,-202 1053,-183 967,-183"/>
<text text-anchor="middle" x="1010" y="-190" font-family="Helvetica,sans-Serif" font-size="10.00">tklb::ogg::load</text>
</a>
</g>
</g>
<!-- Node1&#45;&gt;Node2 -->
<g id="edge1" class="edge">
<title>Node1&#45;&gt;Node2</title>
<path fill="none" stroke="midnightblue" d="M1129.45,-152.07C1113.61,-159.32 1095.15,-167.28 1078,-173.5 1068.45,-176.96 1057.96,-180.2 1048.16,-182.98"/>
<polygon fill="midnightblue" stroke="midnightblue" points="1131.35,-155.05 1138.95,-147.67 1128.4,-148.7 1131.35,-155.05"/>
</g>
<!-- Node10 -->
<g id="node10" class="node">
<title>Node10</title>
<g id="a_node10"><a xlink:href="namespacetklb_1_1wave.html#a0eea36d8e07b1520ce77191e081c45bb" target="_top" xlink:title="Decode wav from memory or file path.">
<polygon fill="none" stroke="black" points="962.5,-145 962.5,-164 1057.5,-164 1057.5,-145 962.5,-145"/>
<text text-anchor="middle" x="1010" y="-152" font-family="Helvetica,sans-Serif" font-size="10.00">tklb::wave::load</text>
</a>
</g>
</g>
<!-- Node1&#45;&gt;Node10 -->
<g id="edge10" class="edge">
<title>Node1&#45;&gt;Node10</title>
<path fill="none" stroke="midnightblue" d="M1103.86,-141.65C1088.33,-143.8 1072.09,-146.05 1057.62,-148.05"/>
<polygon fill="midnightblue" stroke="midnightblue" points="1104.52,-145.09 1113.94,-140.26 1103.56,-138.16 1104.52,-145.09"/>
</g>
<!-- Node11 -->
<g id="node11" class="node">
<title>Node11</title>
<g id="a_node11"><a xlink:href="classtklb_1_1_audio_ring_buffer_tpl.html#a5041da1a2d759a6de4b0174454ad217f" target="_top" xlink:title="Puts a number of elements in the buffer provided.">
<polygon fill="none" stroke="black" points="942,-95.5 942,-125.5 1078,-125.5 1078,-95.5 942,-95.5"/>
<text text-anchor="start" x="950" y="-113.5" font-family="Helvetica,sans-Serif" font-size="10.00">tklb::AudioRingBufferTpl</text>
<text text-anchor="middle" x="1010" y="-102.5" font-family="Helvetica,sans-Serif" font-size="10.00">::peek</text>
</a>
</g>
</g>
<!-- Node1&#45;&gt;Node11 -->
<g id="edge12" class="edge">
<title>Node1&#45;&gt;Node11</title>
<path fill="none" stroke="midnightblue" d="M1103.79,-123.34C1095.35,-122.17 1086.72,-120.98 1078.27,-119.81"/>
<polygon fill="midnightblue" stroke="midnightblue" points="1103.56,-126.84 1113.94,-124.74 1104.52,-119.91 1103.56,-126.84"/>
</g>
<!-- Node16 -->
<g id="node16" class="node">
<title>Node16</title>
<g id="a_node16"><a xlink:href="classvae_1_1core_1_1_engine.html#afecf53f2eaf92d13a933c05c821b3819" target="_top" xlink:title="Main processing function.">
<polygon fill="none" stroke="black" points="956.5,-46.5 956.5,-76.5 1063.5,-76.5 1063.5,-46.5 956.5,-46.5"/>
<text text-anchor="start" x="964.5" y="-64.5" font-family="Helvetica,sans-Serif" font-size="10.00">vae::core::Engine::</text>
<text text-anchor="middle" x="1010" y="-53.5" font-family="Helvetica,sans-Serif" font-size="10.00">process</text>
</a>
</g>
</g>
<!-- Node1&#45;&gt;Node16 -->
<g id="edge17" class="edge">
<title>Node1&#45;&gt;Node16</title>
<path fill="none" stroke="midnightblue" d="M1132.46,-112.6C1115.95,-104.14 1096.21,-94.42 1078,-86.5 1070.14,-83.08 1061.66,-79.69 1053.45,-76.56"/>
<polygon fill="midnightblue" stroke="midnightblue" points="1131.29,-115.93 1141.78,-117.41 1134.5,-109.71 1131.29,-115.93"/>
</g>
<!-- Node3 -->
<g id="node3" class="node">
<title>Node3</title>
<g id="a_node3"><a xlink:href="structvae_1_1core_1_1_source_loader.html#a2341f89c2b79148066369e8d50d98597" target="_top" xlink:title="Loads a wav file for the resource.">
<polygon fill="none" stroke="black" points="759,-166.5 759,-196.5 893,-196.5 893,-166.5 759,-166.5"/>
<text text-anchor="start" x="767" y="-184.5" font-family="Helvetica,sans-Serif" font-size="10.00">vae::core::SourceLoader</text>
<text text-anchor="middle" x="826" y="-173.5" font-family="Helvetica,sans-Serif" font-size="10.00">::load</text>
</a>
</g>
</g>
<!-- Node2&#45;&gt;Node3 -->
<g id="edge2" class="edge">
<title>Node2&#45;&gt;Node3</title>
<path fill="none" stroke="midnightblue" d="M956.74,-189.34C936.94,-188.14 914.13,-186.77 893.22,-185.5"/>
<polygon fill="midnightblue" stroke="midnightblue" points="956.6,-192.84 966.79,-189.95 957.02,-185.85 956.6,-192.84"/>
</g>
<!-- Node4 -->
<g id="node4" class="node">
<title>Node4</title>
<g id="a_node4"><a xlink:href="classvae_1_1core_1_1_bank_loader.html#a0c168e922d02dbe23ec42ebfde4d97a2" target="_top" xlink:title="Load a bank.json and all wav files referenced in it.">
<polygon fill="none" stroke="black" points="560,-166.5 560,-196.5 685,-196.5 685,-166.5 560,-166.5"/>
<text text-anchor="start" x="568" y="-184.5" font-family="Helvetica,sans-Serif" font-size="10.00">vae::core::BankLoader</text>
<text text-anchor="middle" x="622.5" y="-173.5" font-family="Helvetica,sans-Serif" font-size="10.00">::load</text>
</a>
</g>
</g>
<!-- Node3&#45;&gt;Node4 -->
<g id="edge3" class="edge">
<title>Node3&#45;&gt;Node4</title>
<path fill="none" stroke="midnightblue" d="M748.57,-181.5C727.57,-181.5 705.07,-181.5 685.02,-181.5"/>
<polygon fill="midnightblue" stroke="midnightblue" points="748.74,-185 758.74,-181.5 748.74,-178 748.74,-185"/>
</g>
<!-- Node5 -->
<g id="node5" class="node">
<title>Node5</title>
<g id="a_node5"><a xlink:href="classvae_1_1core_1_1_bank_manager.html#ab06ae4e1f8106811c8149dd73bef6bd0" target="_top" xlink:title=" ">
<polygon fill="none" stroke="black" points="362,-144.5 362,-174.5 496,-174.5 496,-144.5 362,-144.5"/>
<text text-anchor="start" x="370" y="-162.5" font-family="Helvetica,sans-Serif" font-size="10.00">vae::core::BankManager</text>
<text text-anchor="middle" x="429" y="-151.5" font-family="Helvetica,sans-Serif" font-size="10.00">::load</text>
</a>
</g>
</g>
<!-- Node4&#45;&gt;Node5 -->
<g id="edge4" class="edge">
<title>Node4&#45;&gt;Node5</title>
<path fill="none" stroke="midnightblue" d="M549.67,-173.25C532.12,-171.23 513.43,-169.08 496.16,-167.1"/>
<polygon fill="midnightblue" stroke="midnightblue" points="549.52,-176.75 559.85,-174.42 550.32,-169.8 549.52,-176.75"/>
</g>
<!-- Node5&#45;&gt;Node5 -->
<g id="edge6" class="edge">
<title>Node5&#45;&gt;Node5</title>
<path fill="none" stroke="midnightblue" d="M459.56,-184.96C455.77,-189.68 445.58,-193 429,-193 401.79,-193 391.8,-184.06 399.03,-174.66"/>
<polygon fill="midnightblue" stroke="midnightblue" points="463.04,-184.44 458.97,-174.66 456.05,-184.84 463.04,-184.44"/>
</g>
<!-- Node6 -->
<g id="node6" class="node">
<title>Node6</title>
<g id="a_node6"><a xlink:href="classvae_1_1core_1_1_bank_manager.html#ae04256d1f2f2df47d3239993c9bbf12c" target="_top" xlink:title="Will reload all the banks.">
<polygon fill="none" stroke="black" points="189,-144.5 189,-174.5 323,-174.5 323,-144.5 189,-144.5"/>
<text text-anchor="start" x="197" y="-162.5" font-family="Helvetica,sans-Serif" font-size="10.00">vae::core::BankManager</text>
<text text-anchor="middle" x="256" y="-151.5" font-family="Helvetica,sans-Serif" font-size="10.00">::init</text>
</a>
</g>
</g>
<!-- Node5&#45;&gt;Node6 -->
<g id="edge5" class="edge">
<title>Node5&#45;&gt;Node6</title>
<path fill="none" stroke="midnightblue" d="M351.67,-159.5C342.18,-159.5 332.54,-159.5 323.22,-159.5"/>
<polygon fill="midnightblue" stroke="midnightblue" points="351.89,-163 361.89,-159.5 351.89,-156 351.89,-163"/>
</g>
<!-- Node7 -->
<g id="node7" class="node">
<title>Node7</title>
<g id="a_node7"><a xlink:href="classvae_1_1core_1_1_engine.html#a4af5733f9975fe1c746e75958bc39d23" target="_top" xlink:title="Load bank from filesystem.">
<polygon fill="none" stroke="black" points="202.5,-90.5 202.5,-120.5 309.5,-120.5 309.5,-90.5 202.5,-90.5"/>
<text text-anchor="start" x="210.5" y="-108.5" font-family="Helvetica,sans-Serif" font-size="10.00">vae::core::Engine::</text>
<text text-anchor="middle" x="256" y="-97.5" font-family="Helvetica,sans-Serif" font-size="10.00">loadBank</text>
</a>
</g>
</g>
<!-- Node5&#45;&gt;Node7 -->
<g id="edge7" class="edge">
<title>Node5&#45;&gt;Node7</title>
<path fill="none" stroke="midnightblue" d="M370.72,-141.41C349.28,-134.64 325.16,-127.02 304.67,-120.55"/>
<polygon fill="midnightblue" stroke="midnightblue" points="369.78,-144.78 380.37,-144.46 371.89,-138.11 369.78,-144.78"/>
</g>
<!-- Node8 -->
<g id="node8" class="node">
<title>Node8</title>
<g id="a_node8"><a xlink:href="classvae_1_1_engine_pimpl.html#adec77e6ef0f00d52c634611cb6822443" target="_top" xlink:title="Load bank from filesystem.">
<polygon fill="none" stroke="black" points="0,-96 0,-115 153,-115 153,-96 0,-96"/>
<text text-anchor="middle" x="76.5" y="-103" font-family="Helvetica,sans-Serif" font-size="10.00">vae::EnginePimpl::loadBank</text>
</a>
</g>
</g>
<!-- Node7&#45;&gt;Node8 -->
<g id="edge8" class="edge">
<title>Node7&#45;&gt;Node8</title>
<path fill="none" stroke="midnightblue" d="M191.87,-105.5C179.31,-105.5 166,-105.5 153.06,-105.5"/>
<polygon fill="midnightblue" stroke="midnightblue" points="192.22,-109 202.22,-105.5 192.22,-102 192.22,-109"/>
</g>
<!-- Node9 -->
<g id="node9" class="node">
<title>Node9</title>
<g id="a_node9"><a xlink:href="main_8cpp.html#ae66f6b31b5ad750f1fe042a706a4e3d4" target="_top" xlink:title=" ">
<polygon fill="none" stroke="black" points="56,-48 56,-67 97,-67 97,-48 56,-48"/>
<text text-anchor="middle" x="76.5" y="-55" font-family="Helvetica,sans-Serif" font-size="10.00">main</text>
</a>
</g>
</g>
<!-- Node7&#45;&gt;Node9 -->
<g id="edge9" class="edge">
<title>Node7&#45;&gt;Node9</title>
<path fill="none" stroke="midnightblue" d="M192.49,-88.6C159.02,-79.55 120.08,-69.01 97.18,-62.82"/>
<polygon fill="midnightblue" stroke="midnightblue" points="191.66,-92 202.22,-91.23 193.49,-85.24 191.66,-92"/>
</g>
<!-- Node10&#45;&gt;Node3 -->
<g id="edge11" class="edge">
<title>Node10&#45;&gt;Node3</title>
<path fill="none" stroke="midnightblue" d="M952.03,-162.95C933.39,-165.72 912.52,-168.81 893.26,-171.67"/>
<polygon fill="midnightblue" stroke="midnightblue" points="952.75,-166.38 962.13,-161.45 951.73,-159.46 952.75,-166.38"/>
</g>
<!-- Node12 -->
<g id="node12" class="node">
<title>Node12</title>
<g id="a_node12"><a xlink:href="classtklb_1_1_audio_ring_buffer_tpl.html#a3ce276cdbf068812a1ca263147f89e61" target="_top" xlink:title="Pops a number of elements in the buffer provided.">
<polygon fill="none" stroke="black" points="746,-101 746,-120 906,-120 906,-101 746,-101"/>
<text text-anchor="middle" x="826" y="-108" font-family="Helvetica,sans-Serif" font-size="10.00">tklb::AudioRingBufferTpl::pop</text>
</a>
</g>
</g>
<!-- Node11&#45;&gt;Node12 -->
<g id="edge13" class="edge">
<title>Node11&#45;&gt;Node12</title>
<path fill="none" stroke="midnightblue" d="M931.62,-110.5C923.24,-110.5 914.69,-110.5 906.29,-110.5"/>
<polygon fill="midnightblue" stroke="midnightblue" points="931.75,-114 941.75,-110.5 931.75,-107 931.75,-114"/>
</g>
<!-- Node13 -->
<g id="node13" class="node">
<title>Node13</title>
<g id="a_node13"><a xlink:href="classvae_1_1core_1_1_device.html#aa0c2ecd353c3895f288c1d3843f43e95" target="_top" xlink:title="Get samples form audio device.">
<polygon fill="none" stroke="black" points="560,-128 560,-147 685,-147 685,-128 560,-128"/>
<text text-anchor="middle" x="622.5" y="-135" font-family="Helvetica,sans-Serif" font-size="10.00">vae::core::Device::pop</text>
</a>
</g>
</g>
<!-- Node12&#45;&gt;Node13 -->
<g id="edge14" class="edge">
<title>Node12&#45;&gt;Node13</title>
<path fill="none" stroke="midnightblue" d="M743.84,-121.37C724.29,-124 703.71,-126.75 685.2,-129.23"/>
<polygon fill="midnightblue" stroke="midnightblue" points="744.51,-124.82 753.96,-120.02 743.58,-117.88 744.51,-124.82"/>
</g>
<!-- Node14 -->
<g id="node14" class="node">
<title>Node14</title>
<g id="a_node14"><a xlink:href="structvae_1_1core_1_1_device_1_1_audio_thread_worker.html#a1d6ad75314a363dbb773c16aecb21326" target="_top" xlink:title="Called from audio backend to push in interleaved audio data.">
<polygon fill="none" stroke="black" points="535,-68 535,-109 710,-109 710,-68 535,-68"/>
<text text-anchor="start" x="543" y="-97" font-family="Helvetica,sans-Serif" font-size="10.00">vae::core::Device::</text>
<text text-anchor="start" x="543" y="-86" font-family="Helvetica,sans-Serif" font-size="10.00">AudioThreadWorker::swapBuffer</text>
<text text-anchor="middle" x="622.5" y="-75" font-family="Helvetica,sans-Serif" font-size="10.00">Interleaved</text>
</a>
</g>
</g>
<!-- Node12&#45;&gt;Node14 -->
<g id="edge15" class="edge">
<title>Node12&#45;&gt;Node14</title>
<path fill="none" stroke="midnightblue" d="M736,-100.78C727.47,-99.85 718.83,-98.91 710.32,-97.98"/>
<polygon fill="midnightblue" stroke="midnightblue" points="735.62,-104.26 745.94,-101.87 736.38,-97.3 735.62,-104.26"/>
</g>
<!-- Node15 -->
<g id="node15" class="node">
<title>Node15</title>
<g id="a_node15"><a xlink:href="classvae_1_1core_1_1_device_dummy.html#ac4105d62f1ae237fd9bb8d8bd8dda6a6" target="_top" xlink:title="Simulate the callback from the audio device.">
<polygon fill="none" stroke="black" points="359,-80.5 359,-110.5 499,-110.5 499,-80.5 359,-80.5"/>
<text text-anchor="start" x="367" y="-98.5" font-family="Helvetica,sans-Serif" font-size="10.00">vae::core::DeviceDummy</text>
<text text-anchor="middle" x="429" y="-87.5" font-family="Helvetica,sans-Serif" font-size="10.00">::swapBufferInterleaved</text>
</a>
</g>
</g>
<!-- Node14&#45;&gt;Node15 -->
<g id="edge16" class="edge">
<title>Node14&#45;&gt;Node15</title>
<path fill="none" stroke="midnightblue" d="M524.85,-92.03C516.19,-92.35 507.54,-92.67 499.19,-92.97"/>
<polygon fill="midnightblue" stroke="midnightblue" points="525.13,-95.53 534.99,-91.66 524.87,-88.53 525.13,-95.53"/>
</g>
<!-- Node17 -->
<g id="node17" class="node">
<title>Node17</title>
<g id="a_node17"><a xlink:href="classvae_1_1core_1_1_engine.html#ab31b2381a1d916efdcffe8db7971ce15" target="_top" xlink:title="Called from audio device when it needs more audio.">
<polygon fill="none" stroke="black" points="772.5,-49.5 772.5,-79.5 879.5,-79.5 879.5,-49.5 772.5,-49.5"/>
<text text-anchor="start" x="780.5" y="-67.5" font-family="Helvetica,sans-Serif" font-size="10.00">vae::core::Engine::</text>
<text text-anchor="middle" x="826" y="-56.5" font-family="Helvetica,sans-Serif" font-size="10.00">onBufferSwap</text>
</a>
</g>
</g>
<!-- Node16&#45;&gt;Node17 -->
<g id="edge18" class="edge">
<title>Node16&#45;&gt;Node17</title>
<path fill="none" stroke="midnightblue" d="M946.23,-62.53C924.49,-62.89 900.36,-63.29 879.52,-63.63"/>
<polygon fill="midnightblue" stroke="midnightblue" points="946.42,-66.03 956.36,-62.37 946.3,-59.03 946.42,-66.03"/>
</g>
<!-- Node20 -->
<g id="node20" class="node">
<title>Node20</title>
<g id="a_node20"><a xlink:href="classvae_1_1core_1_1_engine.html#aca852d5c0e30b0641582f175bf95fbea" target="_top" xlink:title="Called from own audio thread, not the device.">
<polygon fill="none" stroke="black" points="772.5,-0.5 772.5,-30.5 879.5,-30.5 879.5,-0.5 772.5,-0.5"/>
<text text-anchor="start" x="780.5" y="-18.5" font-family="Helvetica,sans-Serif" font-size="10.00">vae::core::Engine::</text>
<text text-anchor="middle" x="826" y="-7.5" font-family="Helvetica,sans-Serif" font-size="10.00">threadedProcess</text>
</a>
</g>
</g>
<!-- Node16&#45;&gt;Node20 -->
<g id="edge22" class="edge">
<title>Node16&#45;&gt;Node20</title>
<path fill="none" stroke="midnightblue" d="M946.52,-45.71C924.7,-40.19 900.45,-34.06 879.52,-28.78"/>
<polygon fill="midnightblue" stroke="midnightblue" points="945.81,-49.14 956.36,-48.19 947.52,-42.35 945.81,-49.14"/>
</g>
<!-- Node18 -->
<g id="node18" class="node">
<title>Node18</title>
<g id="a_node18"><a xlink:href="classvae_1_1core_1_1_engine.html#aa974f739b3f2dc8004eede720d01d229" target="_top" xlink:title="Tries to open default device and start audio thread.">
<polygon fill="none" stroke="black" points="569,-11.5 569,-41.5 676,-41.5 676,-11.5 569,-11.5"/>
<text text-anchor="start" x="577" y="-29.5" font-family="Helvetica,sans-Serif" font-size="10.00">vae::core::Engine::</text>
<text text-anchor="middle" x="622.5" y="-18.5" font-family="Helvetica,sans-Serif" font-size="10.00">start</text>
</a>
</g>
</g>
<!-- Node17&#45;&gt;Node18 -->
<g id="edge19" class="edge">
<title>Node17&#45;&gt;Node18</title>
<path fill="none" stroke="midnightblue" d="M762.36,-52.69C734.73,-47.48 702.61,-41.42 676.22,-36.44"/>
<polygon fill="midnightblue" stroke="midnightblue" points="761.85,-56.15 772.32,-54.57 763.14,-49.27 761.85,-56.15"/>
</g>
<!-- Node18&#45;&gt;Node9 -->
<g id="edge20" class="edge">
<title>Node18&#45;&gt;Node9</title>
<path fill="none" stroke="midnightblue" d="M558.51,-30.09C436.07,-37.07 171.45,-52.15 97.22,-56.38"/>
<polygon fill="midnightblue" stroke="midnightblue" points="559.06,-33.56 568.84,-29.5 558.66,-26.58 559.06,-33.56"/>
</g>
<!-- Node19 -->
<g id="node19" class="node">
<title>Node19</title>
<g id="a_node19"><a xlink:href="classvae_1_1_engine_pimpl.html#af773bc095b97e185c17b23a702572479" target="_top" xlink:title="Tries to open default device and start audio thread.">
<polygon fill="none" stroke="black" points="364,-4 364,-23 494,-23 494,-4 364,-4"/>
<text text-anchor="middle" x="429" y="-11" font-family="Helvetica,sans-Serif" font-size="10.00">vae::EnginePimpl::start</text>
</a>
</g>
</g>
<!-- Node18&#45;&gt;Node19 -->
<g id="edge21" class="edge">
<title>Node18&#45;&gt;Node19</title>
<path fill="none" stroke="midnightblue" d="M558.92,-22.25C538.13,-20.84 514.96,-19.27 494.06,-17.85"/>
<polygon fill="midnightblue" stroke="midnightblue" points="558.7,-25.75 568.92,-22.93 559.18,-18.76 558.7,-25.75"/>
</g>
<!-- Node20&#45;&gt;Node18 -->
<g id="edge23" class="edge">
<title>Node20&#45;&gt;Node18</title>
<path fill="none" stroke="midnightblue" d="M762,-18.94C734.45,-20.44 702.49,-22.19 676.22,-23.62"/>
<polygon fill="midnightblue" stroke="midnightblue" points="762.53,-22.42 772.32,-18.38 762.15,-15.43 762.53,-22.42"/>
</g>
</g>
</svg>
