<?xml version="1.0" encoding="UTF-8" standalone="no"?>
<!DOCTYPE svg PUBLIC "-//W3C//DTD SVG 1.1//EN"
 "http://www.w3.org/Graphics/SVG/1.1/DTD/svg11.dtd">
<!-- Generated by graphviz version 2.50.0 (0)
 -->
<!-- Title: vae::core::DeviceDummy::openDevice Pages: 1 -->
<!--zoomable 313 -->
<svg id="main" version="1.1" xmlns="http://www.w3.org/2000/svg" xmlns:xlink="http://www.w3.org/1999/xlink" xml:space="preserve" onload="init(evt)">
<style type="text/css"><![CDATA[
.edge:hover path { stroke: red; }
.edge:hover polygon { stroke: red; fill: red; }
]]></style>
<script type="text/javascript"><![CDATA[
var edges = document.getElementsByTagName('g');
if (edges && edges.length) {
  for (var i=0;i<edges.length;i++) {
    if (edges[i].id.substr(0,4)=='edge') {
      edges[i].setAttribute('class','edge');
    }
  }
}
]]></script>
        <defs>
                <circle id="rim" cx="0" cy="0" r="7"/>
                <circle id="rim2" cx="0" cy="0" r="3.5"/>
                <g id="zoomPlus">
                        <use xlink:href="#rim" fill="#404040">
                                <set attributeName="fill" to="#808080" begin="zoomplus.mouseover" end="zoomplus.mouseout"/>
                        </use>
                        <path d="M-4,0h8M0,-4v8" fill="none" stroke="white" stroke-width="1.5" pointer-events="none"/>
                </g>
                <g id="zoomMin">
                        <use xlink:href="#rim" fill="#404040">
                                <set attributeName="fill" to="#808080" begin="zoomminus.mouseover" end="zoomminus.mouseout"/>
                        </use>
                        <path d="M-4,0h8" fill="none" stroke="white" stroke-width="1.5" pointer-events="none"/>
                </g>
                <g id="dirArrow">
                        <path fill="none" stroke="white" stroke-width="1.5" d="M0,-3.0v7 M-2.5,-0.5L0,-3.0L2.5,-0.5"/>
                </g>
               <g id="resetDef">
                       <use xlink:href="#rim2" fill="#404040">
                               <set attributeName="fill" to="#808080" begin="reset.mouseover" end="reset.mouseout"/>
                       </use>
               </g>
        </defs>

<script type="text/javascript">
var viewWidth = 832;
var viewHeight = 313;
var sectionId = 'dynsection-2';
</script>
<script xlink:href="svgpan.js"/>
<svg id="graph" class="graph">
<g id="viewport">
<title>vae::core::DeviceDummy::openDevice</title>
<!-- Node1 -->
<g id="node1" class="node">
<title>Node1</title>
<g id="a_node1"><a xlink:title="Tries to open the default audio device whith desired in out channels.">
<polygon fill="#bfbfbf" stroke="black" points="0,-66.5 0,-96.5 140,-96.5 140,-66.5 0,-66.5"/>
<text text-anchor="start" x="8" y="-84.5" font-family="Helvetica,sans-Serif" font-size="10.00">vae::core::DeviceDummy</text>
<text text-anchor="middle" x="70" y="-73.5" font-family="Helvetica,sans-Serif" font-size="10.00">::openDevice</text>
</a>
</g>
</g>
<!-- Node2 -->
<g id="node2" class="node">
<title>Node2</title>
<g id="a_node2"><a xlink:href="classvae_1_1core_1_1_device.html#aaab56a24f9f040b6a4be004ff94eff40" target="_top" xlink:title="initializes buffers, queues and resamplers if needed Has to be called in openDevice once the samplera...">
<polygon fill="none" stroke="black" points="176,-116 176,-135 299,-135 299,-116 176,-116"/>
<text text-anchor="middle" x="237.5" y="-123" font-family="Helvetica,sans-Serif" font-size="10.00">vae::core::Device::init</text>
</a>
</g>
</g>
<!-- Node1&#45;&gt;Node2 -->
<g id="edge1" class="edge">
<title>Node1&#45;&gt;Node2</title>
<path fill="none" stroke="midnightblue" d="M127.49,-96.52C148.07,-101.99 171.05,-108.1 190.6,-113.3"/>
<polygon fill="midnightblue" stroke="midnightblue" points="189.91,-116.73 200.47,-115.92 191.71,-109.97 189.91,-116.73"/>
</g>
<!-- Node14 -->
<g id="node14" class="node">
<title>Node14</title>
<g id="a_node14"><a xlink:href="classvae_1_1core_1_1_device.html#aeafbeab17370280f5fb9cc8e2b0f4e70" target="_top" xlink:title=" ">
<polygon fill="none" stroke="black" points="184,-44.5 184,-74.5 291,-74.5 291,-44.5 184,-44.5"/>
<text text-anchor="start" x="192" y="-62.5" font-family="Helvetica,sans-Serif" font-size="10.00">vae::core::Device::</text>
<text text-anchor="middle" x="237.5" y="-51.5" font-family="Helvetica,sans-Serif" font-size="10.00">postInit</text>
</a>
</g>
</g>
<!-- Node1&#45;&gt;Node14 -->
<g id="edge17" class="edge">
<title>Node1&#45;&gt;Node14</title>
<path fill="none" stroke="midnightblue" d="M140.23,-72.3C151.42,-70.81 162.95,-69.28 173.97,-67.81"/>
<polygon fill="midnightblue" stroke="midnightblue" points="174.47,-71.28 183.92,-66.49 173.54,-64.34 174.47,-71.28"/>
</g>
<!-- Node3 -->
<g id="node3" class="node">
<title>Node3</title>
<g id="a_node3"><a xlink:href="classtklb_1_1_resampler_speex_tpl.html#a65864672c63ce1be9a251232504d8dce" target="_top" xlink:title="Calculate a buffersize fit for the resampled result.">
<polygon fill="none" stroke="black" points="510,-50.5 510,-80.5 649,-80.5 649,-50.5 510,-50.5"/>
<text text-anchor="start" x="518" y="-68.5" font-family="Helvetica,sans-Serif" font-size="10.00">tklb::ResamplerSpeexTpl</text>
<text text-anchor="middle" x="579.5" y="-57.5" font-family="Helvetica,sans-Serif" font-size="10.00">::calculateBufferSize</text>
</a>
</g>
</g>
<!-- Node2&#45;&gt;Node3 -->
<g id="edge2" class="edge">
<title>Node2&#45;&gt;Node3</title>
<path fill="none" stroke="midnightblue" d="M253.47,-115.84C271.84,-104.56 304.33,-86.44 335,-78.5 388.85,-64.56 451.58,-61.51 499.88,-61.83"/>
<polygon fill="midnightblue" stroke="midnightblue" points="499.91,-65.34 509.95,-61.95 500,-58.34 499.91,-65.34"/>
</g>
<!-- Node5 -->
<g id="node5" class="node">
<title>Node5</title>
<g id="a_node5"><a xlink:href="classtklb_1_1_resampler_speex_tpl.html#a7bab4da85cc386c5d34cf8ced0bd1092" target="_top" xlink:title="setup the resampler">
<polygon fill="none" stroke="black" points="335,-88.5 335,-118.5 474,-118.5 474,-88.5 335,-88.5"/>
<text text-anchor="start" x="343" y="-106.5" font-family="Helvetica,sans-Serif" font-size="10.00">tklb::ResamplerSpeexTpl</text>
<text text-anchor="middle" x="404.5" y="-95.5" font-family="Helvetica,sans-Serif" font-size="10.00">::init</text>
</a>
</g>
</g>
<!-- Node2&#45;&gt;Node5 -->
<g id="edge4" class="edge">
<title>Node2&#45;&gt;Node5</title>
<path fill="none" stroke="midnightblue" d="M299,-117.43C307.4,-116.31 316.12,-115.15 324.79,-113.99"/>
<polygon fill="midnightblue" stroke="midnightblue" points="325.47,-117.44 334.92,-112.64 324.54,-110.5 325.47,-117.44"/>
</g>
<!-- Node6 -->
<g id="node6" class="node">
<title>Node6</title>
<g id="a_node6"><a xlink:href="classtklb_1_1_audio_buffer_tpl.html#a35b40f6d6b1fc2939613b1b84313b0bc" target="_top" xlink:title="! Will not keep the contents! Resizes the buffer to the desired length and channel count.">
<polygon fill="none" stroke="black" points="522.5,-159.5 522.5,-189.5 636.5,-189.5 636.5,-159.5 522.5,-159.5"/>
<text text-anchor="start" x="530.5" y="-177.5" font-family="Helvetica,sans-Serif" font-size="10.00">tklb::AudioBufferTpl</text>
<text text-anchor="middle" x="579.5" y="-166.5" font-family="Helvetica,sans-Serif" font-size="10.00">::resize</text>
</a>
</g>
</g>
<!-- Node2&#45;&gt;Node6 -->
<g id="edge11" class="edge">
<title>Node2&#45;&gt;Node6</title>
<path fill="none" stroke="midnightblue" d="M255.64,-135.09C274.44,-145.05 305.85,-160.06 335,-166.5 393.8,-179.48 462.51,-180.5 511.92,-178.84"/>
<polygon fill="midnightblue" stroke="midnightblue" points="512.31,-182.33 522.17,-178.45 512.04,-175.34 512.31,-182.33"/>
</g>
<!-- Node10 -->
<g id="node10" class="node">
<title>Node10</title>
<g id="a_node10"><a xlink:href="namespacetklb.html#a7dc2203e89c331e3c85b9e7f16fa6763" target="_top" xlink:title=" ">
<polygon fill="none" stroke="black" points="373,-138 373,-157 436,-157 436,-138 373,-138"/>
<text text-anchor="middle" x="404.5" y="-145" font-family="Helvetica,sans-Serif" font-size="10.00">tklb::max</text>
</a>
</g>
</g>
<!-- Node2&#45;&gt;Node10 -->
<g id="edge10" class="edge">
<title>Node2&#45;&gt;Node10</title>
<path fill="none" stroke="midnightblue" d="M299,-133.57C320.21,-136.39 343.51,-139.5 362.71,-142.06"/>
<polygon fill="midnightblue" stroke="midnightblue" points="362.26,-145.53 372.63,-143.38 363.18,-138.59 362.26,-145.53"/>
</g>
<!-- Node11 -->
<g id="node11" class="node">
<title>Node11</title>
<g id="a_node11"><a xlink:href="classtklb_1_1_audio_buffer_tpl.html#ab6e5250746ca3784a568591a3ffdbc12" target="_top" xlink:title="Set a single channel from an array.">
<polygon fill="none" stroke="black" points="512,-214 512,-233 647,-233 647,-214 512,-214"/>
<text text-anchor="middle" x="579.5" y="-221" font-family="Helvetica,sans-Serif" font-size="10.00">tklb::AudioBufferTpl::set</text>
</a>
</g>
</g>
<!-- Node2&#45;&gt;Node11 -->
<g id="edge12" class="edge">
<title>Node2&#45;&gt;Node11</title>
<path fill="none" stroke="midnightblue" d="M250.13,-135.14C267.45,-148.93 301.58,-174.02 335,-186.5 388.57,-206.5 452.63,-215.7 501.59,-219.93"/>
<polygon fill="midnightblue" stroke="midnightblue" points="501.55,-223.44 511.8,-220.76 502.12,-216.46 501.55,-223.44"/>
</g>
<!-- Node4 -->
<g id="node4" class="node">
<title>Node4</title>
<g id="a_node4"><a xlink:href="classtklb_1_1_resampler_speex_tpl.html#a5b4b65f32dbcec425871cc26384d4643" target="_top" xlink:title="Estimate how many sample will be emitted in the next step.">
<polygon fill="none" stroke="black" points="685,-50.5 685,-80.5 824,-80.5 824,-50.5 685,-50.5"/>
<text text-anchor="start" x="693" y="-68.5" font-family="Helvetica,sans-Serif" font-size="10.00">tklb::ResamplerSpeexTpl</text>
<text text-anchor="middle" x="754.5" y="-57.5" font-family="Helvetica,sans-Serif" font-size="10.00">::estimateOut</text>
</a>
</g>
</g>
<!-- Node3&#45;&gt;Node4 -->
<g id="edge3" class="edge">
<title>Node3&#45;&gt;Node4</title>
<path fill="none" stroke="midnightblue" d="M649.37,-65.5C657.68,-65.5 666.21,-65.5 674.65,-65.5"/>
<polygon fill="midnightblue" stroke="midnightblue" points="674.87,-69 684.87,-65.5 674.87,-62 674.87,-69"/>
</g>
<!-- Node5&#45;&gt;Node3 -->
<g id="edge5" class="edge">
<title>Node5&#45;&gt;Node3</title>
<path fill="none" stroke="midnightblue" d="M473.87,-88.48C482.52,-86.58 491.42,-84.63 500.2,-82.7"/>
<polygon fill="midnightblue" stroke="midnightblue" points="501.04,-86.1 510.06,-80.53 499.54,-79.26 501.04,-86.1"/>
</g>
<!-- Node5&#45;&gt;Node6 -->
<g id="edge6" class="edge">
<title>Node5&#45;&gt;Node6</title>
<path fill="none" stroke="midnightblue" d="M448.05,-118.54C456.68,-121.73 465.66,-125.15 474,-128.5 494.77,-136.85 517.55,-146.78 536.52,-155.28"/>
<polygon fill="midnightblue" stroke="midnightblue" points="535.23,-158.54 545.79,-159.45 538.1,-152.15 535.23,-158.54"/>
</g>
<!-- Node7 -->
<g id="node7" class="node">
<title>Node7</title>
<g id="a_node7"><a xlink:href="classtklb_1_1_audio_buffer_tpl.html#a7859b26033cbb893c2ea7acea54d8013" target="_top" xlink:title="Returns the amount of channels.">
<polygon fill="none" stroke="black" points="697.5,-110.5 697.5,-140.5 811.5,-140.5 811.5,-110.5 697.5,-110.5"/>
<text text-anchor="start" x="705.5" y="-128.5" font-family="Helvetica,sans-Serif" font-size="10.00">tklb::AudioBufferTpl</text>
<text text-anchor="middle" x="754.5" y="-117.5" font-family="Helvetica,sans-Serif" font-size="10.00">::channels</text>
</a>
</g>
</g>
<!-- Node6&#45;&gt;Node7 -->
<g id="edge7" class="edge">
<title>Node6&#45;&gt;Node7</title>
<path fill="none" stroke="midnightblue" d="M633.82,-159.4C651.74,-154.32 671.91,-148.61 690.51,-143.34"/>
<polygon fill="midnightblue" stroke="midnightblue" points="691.69,-146.64 700.36,-140.55 689.78,-139.91 691.69,-146.64"/>
</g>
<!-- Node8 -->
<g id="node8" class="node">
<title>Node8</title>
<g id="a_node8"><a xlink:href="namespacetklb.html#a3080595da18d742645ec41d61828a426" target="_top" xlink:title=" ">
<polygon fill="none" stroke="black" points="724.5,-209 724.5,-228 784.5,-228 784.5,-209 724.5,-209"/>
<text text-anchor="middle" x="754.5" y="-216" font-family="Helvetica,sans-Serif" font-size="10.00">tklb::min</text>
</a>
</g>
</g>
<!-- Node6&#45;&gt;Node8 -->
<g id="edge8" class="edge">
<title>Node6&#45;&gt;Node8</title>
<path fill="none" stroke="midnightblue" d="M636.67,-188.79C662.11,-195.26 691.55,-202.75 714.52,-208.59"/>
<polygon fill="midnightblue" stroke="midnightblue" points="713.7,-211.99 724.26,-211.06 715.43,-205.21 713.7,-211.99"/>
</g>
<!-- Node9 -->
<g id="node9" class="node">
<title>Node9</title>
<g id="a_node9"><a xlink:href="classtklb_1_1_audio_buffer_tpl.html#af6df8d7e6840eee3f84807bd1662c3ed" target="_top" xlink:title="Returns the allocated length of the buffer.">
<polygon fill="none" stroke="black" points="697.5,-159.5 697.5,-189.5 811.5,-189.5 811.5,-159.5 697.5,-159.5"/>
<text text-anchor="start" x="705.5" y="-177.5" font-family="Helvetica,sans-Serif" font-size="10.00">tklb::AudioBufferTpl</text>
<text text-anchor="middle" x="754.5" y="-166.5" font-family="Helvetica,sans-Serif" font-size="10.00">::size</text>
</a>
</g>
</g>
<!-- Node6&#45;&gt;Node9 -->
<g id="edge9" class="edge">
<title>Node6&#45;&gt;Node9</title>
<path fill="none" stroke="midnightblue" d="M636.67,-174.5C652.76,-174.5 670.46,-174.5 687.11,-174.5"/>
<polygon fill="midnightblue" stroke="midnightblue" points="687.32,-178 697.32,-174.5 687.32,-171 687.32,-178"/>
</g>
<!-- Node11&#45;&gt;Node8 -->
<g id="edge15" class="edge">
<title>Node11&#45;&gt;Node8</title>
<path fill="none" stroke="midnightblue" d="M647.39,-221.57C669.95,-220.91 694.4,-220.21 714.14,-219.64"/>
<polygon fill="midnightblue" stroke="midnightblue" points="714.39,-223.13 724.28,-219.34 714.18,-216.13 714.39,-223.13"/>
</g>
<!-- Node11&#45;&gt;Node9 -->
<g id="edge16" class="edge">
<title>Node11&#45;&gt;Node9</title>
<path fill="none" stroke="midnightblue" d="M614.27,-213.94C635.98,-207.79 664.86,-199.61 690.68,-192.29"/>
<polygon fill="midnightblue" stroke="midnightblue" points="691.74,-195.63 700.41,-189.54 689.83,-188.89 691.74,-195.63"/>
</g>
<!-- Node12 -->
<g id="node12" class="node">
<title>Node12</title>
<g id="a_node12"><a xlink:href="namespacetklb_1_1memory.html#ab89ec197028f903f4ea125eae46c4a10" target="_top" xlink:title="memcpy wrapper">
<polygon fill="none" stroke="black" points="698.5,-285 698.5,-304 810.5,-304 810.5,-285 698.5,-285"/>
<text text-anchor="middle" x="754.5" y="-292" font-family="Helvetica,sans-Serif" font-size="10.00">tklb::memory::copy</text>
</a>
</g>
</g>
<!-- Node11&#45;&gt;Node12 -->
<g id="edge13" class="edge">
<title>Node11&#45;&gt;Node12</title>
<path fill="none" stroke="midnightblue" d="M597.42,-233.19C617.72,-244.5 653.02,-263.24 685,-275.5 691.05,-277.82 697.5,-279.99 703.93,-281.97"/>
<polygon fill="midnightblue" stroke="midnightblue" points="703.38,-285.45 713.96,-284.92 705.35,-278.74 703.38,-285.45"/>
</g>
<!-- Node13 -->
<g id="node13" class="node">
<title>Node13</title>
<g id="a_node13"><a xlink:href="classtklb_1_1_audio_buffer_tpl.html#aee0540e90ae2790f9a809917bc5a04fd" target="_top" xlink:title=" ">
<polygon fill="none" stroke="black" points="686.5,-247 686.5,-266 822.5,-266 822.5,-247 686.5,-247"/>
<text text-anchor="middle" x="754.5" y="-254" font-family="Helvetica,sans-Serif" font-size="10.00">tklb::AudioBufferTpl::get</text>
</a>
</g>
</g>
<!-- Node11&#45;&gt;Node13 -->
<g id="edge14" class="edge">
<title>Node11&#45;&gt;Node13</title>
<path fill="none" stroke="midnightblue" d="M630.54,-233.04C650.26,-236.81 673.08,-241.16 693.67,-245.09"/>
<polygon fill="midnightblue" stroke="midnightblue" points="693.09,-248.54 703.57,-246.98 694.41,-241.66 693.09,-248.54"/>
</g>
<!-- Node15 -->
<g id="node15" class="node">
<title>Node15</title>
<g id="a_node15"><a xlink:href="classvae_1_1core_1_1_backend.html#a27327edc7742e3c5ed32772706d0ef30" target="_top" xlink:title="Returns name of the api.">
<polygon fill="none" stroke="black" points="349.5,-0.5 349.5,-30.5 459.5,-30.5 459.5,-0.5 349.5,-0.5"/>
<text text-anchor="start" x="357.5" y="-18.5" font-family="Helvetica,sans-Serif" font-size="10.00">vae::core::Backend</text>
<text text-anchor="middle" x="404.5" y="-7.5" font-family="Helvetica,sans-Serif" font-size="10.00">::getName</text>
</a>
</g>
</g>
<!-- Node14&#45;&gt;Node15 -->
<g id="edge18" class="edge">
<title>Node14&#45;&gt;Node15</title>
<path fill="none" stroke="midnightblue" d="M291.16,-45.46C306.55,-41.35 323.53,-36.82 339.54,-32.56"/>
<polygon fill="midnightblue" stroke="midnightblue" points="340.59,-35.9 349.35,-29.94 338.79,-29.13 340.59,-35.9"/>
</g>
</g>
</svg>
        <g id="navigator" transform="translate(0 0)" fill="#404254">
                <rect fill="#f2f5e9" fill-opacity="0.5" stroke="#606060" stroke-width=".5" x="0" y="0" width="60" height="60"/>
                <use id="zoomplus" xlink:href="#zoomPlus" x="17" y="9" onmousedown="handleZoom(evt,'in')"/>
                <use id="zoomminus" xlink:href="#zoomMin" x="42" y="9" onmousedown="handleZoom(evt,'out')"/>
                <use id="reset" xlink:href="#resetDef" x="30" y="36" onmousedown="handleReset()"/>
                <g id="arrowUp" xlink:href="#dirArrow" transform="translate(30 24)" onmousedown="handlePan(0,-1)">
                  <use xlink:href="#rim" fill="#404040">
                        <set attributeName="fill" to="#808080" begin="arrowUp.mouseover" end="arrowUp.mouseout"/>
                  </use>
                  <path fill="none" stroke="white" stroke-width="1.5" d="M0,-3.0v7 M-2.5,-0.5L0,-3.0L2.5,-0.5"/>
                </g>
                <g id="arrowRight" xlink:href="#dirArrow" transform="rotate(90) translate(36 -43)" onmousedown="handlePan(1,0)">
                  <use xlink:href="#rim" fill="#404040">
                        <set attributeName="fill" to="#808080" begin="arrowRight.mouseover" end="arrowRight.mouseout"/>
                  </use>
                  <path fill="none" stroke="white" stroke-width="1.5" d="M0,-3.0v7 M-2.5,-0.5L0,-3.0L2.5,-0.5"/>
                </g>
                <g id="arrowDown" xlink:href="#dirArrow" transform="rotate(180) translate(-30 -48)" onmousedown="handlePan(0,1)">
                  <use xlink:href="#rim" fill="#404040">
                        <set attributeName="fill" to="#808080" begin="arrowDown.mouseover" end="arrowDown.mouseout"/>
                  </use>
                  <path fill="none" stroke="white" stroke-width="1.5" d="M0,-3.0v7 M-2.5,-0.5L0,-3.0L2.5,-0.5"/>
                </g>
                <g id="arrowLeft" xlink:href="#dirArrow" transform="rotate(270) translate(-36 17)" onmousedown="handlePan(-1,0)">
                  <use xlink:href="#rim" fill="#404040">
                        <set attributeName="fill" to="#808080" begin="arrowLeft.mouseover" end="arrowLeft.mouseout"/>
                  </use>
                  <path fill="none" stroke="white" stroke-width="1.5" d="M0,-3.0v7 M-2.5,-0.5L0,-3.0L2.5,-0.5"/>
                </g>
        </g>
        <svg viewBox="0 0 15 15" width="100%" height="30px" preserveAspectRatio="xMaxYMin meet">
         <g id="arrow_out" transform="scale(0.3 0.3)">
          <a xlink:href="classvae_1_1core_1_1_device_dummy_ad85627cd3e6556da54cb511720b09f04_cgraph_org.svg" target="_base">
           <rect id="button" ry="5" rx="5" y="6" x="6" height="38" width="38"
                fill="#f2f5e9" fill-opacity="0.5" stroke="#606060" stroke-width="1.0"/>
           <path id="arrow"
             d="M 11.500037,31.436501 C 11.940474,20.09759 22.043105,11.32322 32.158766,21.979434 L 37.068811,17.246167 C 37.068811,17.246167 37.088388,32 37.088388,32 L 22.160133,31.978069 C 22.160133,31.978069 26.997745,27.140456 26.997745,27.140456 C 18.528582,18.264221 13.291696,25.230495 11.500037,31.436501 z"
             style="fill:#404040;"/>
          </a>
         </g>
        </svg>
</svg>
