<?xml version="1.0" encoding="UTF-8" standalone="no"?>
<!DOCTYPE svg PUBLIC "-//W3C//DTD SVG 1.1//EN"
 "http://www.w3.org/Graphics/SVG/1.1/DTD/svg11.dtd">
<!-- Generated by graphviz version 2.50.0 (0)
 -->
<!-- Title: tklb::AudioBufferTpl::getRaw Pages: 1 -->
<svg width="268pt" height="106pt"
 viewBox="0.00 0.00 268.00 106.00" xmlns="http://www.w3.org/2000/svg" xmlns:xlink="http://www.w3.org/1999/xlink">
<g id="graph0" class="graph" transform="scale(1 1) rotate(0) translate(4 102)">
<title>tklb::AudioBufferTpl::getRaw</title>
<!-- Node1 -->
<g id="node1" class="node">
<title>Node1</title>
<g id="a_node1"><a xlink:title="Fills an 2d array of size maxChannels() with pointers to each channel.">
<polygon fill="#bfbfbf" stroke="black" points="146,-24.5 146,-54.5 260,-54.5 260,-24.5 146,-24.5"/>
<text text-anchor="start" x="154" y="-42.5" font-family="Helvetica,sans-Serif" font-size="10.00">tklb::AudioBufferTpl</text>
<text text-anchor="middle" x="203" y="-31.5" font-family="Helvetica,sans-Serif" font-size="10.00">::getRaw</text>
</a>
</g>
</g>
<!-- Node2 -->
<g id="node2" class="node">
<title>Node2</title>
<g id="a_node2"><a xlink:href="classtklb_1_1_oversampler.html#a938eddcfffbe34cbb91eca96c35693b4" target="_top" xlink:title=" ">
<polygon fill="none" stroke="black" points="0,-49.5 0,-79.5 110,-79.5 110,-49.5 0,-49.5"/>
<text text-anchor="start" x="8" y="-67.5" font-family="Helvetica,sans-Serif" font-size="10.00">tklb::Oversampler::</text>
<text text-anchor="middle" x="55" y="-56.5" font-family="Helvetica,sans-Serif" font-size="10.00">process</text>
</a>
</g>
</g>
<!-- Node1&#45;&gt;Node2 -->
<g id="edge1" class="edge">
<title>Node1&#45;&gt;Node2</title>
<path fill="none" stroke="midnightblue" d="M135.95,-50.81C127.33,-52.29 118.59,-53.78 110.2,-55.22"/>
<polygon fill="midnightblue" stroke="midnightblue" points="136.7,-54.23 145.97,-49.09 135.52,-47.33 136.7,-54.23"/>
</g>
<!-- Node3 -->
<g id="node3" class="node">
<title>Node3</title>
<g id="a_node3"><a xlink:href="classvae_1_1core_1_1effect_1_1_faust_base.html#a70f2dc6cc7c3fd4f740c0e5017389434" target="_top" xlink:title=" ">
<polygon fill="none" stroke="black" points="0.5,-0.5 0.5,-30.5 109.5,-30.5 109.5,-0.5 0.5,-0.5"/>
<text text-anchor="start" x="8.5" y="-18.5" font-family="Helvetica,sans-Serif" font-size="10.00">vae::core::effect::</text>
<text text-anchor="middle" x="55" y="-7.5" font-family="Helvetica,sans-Serif" font-size="10.00">FaustBase::process</text>
</a>
</g>
</g>
<!-- Node1&#45;&gt;Node3 -->
<g id="edge3" class="edge">
<title>Node1&#45;&gt;Node3</title>
<path fill="none" stroke="midnightblue" d="M136.09,-28.67C127.27,-27.21 118.3,-25.74 109.72,-24.33"/>
<polygon fill="midnightblue" stroke="midnightblue" points="135.53,-32.12 145.97,-30.29 136.67,-25.21 135.53,-32.12"/>
</g>
<!-- Node2&#45;&gt;Node2 -->
<g id="edge2" class="edge">
<title>Node2&#45;&gt;Node2</title>
<path fill="none" stroke="midnightblue" d="M81.3,-89.96C78.03,-94.68 69.27,-98 55,-98 31.59,-98 22.99,-89.06 29.21,-79.66"/>
<polygon fill="midnightblue" stroke="midnightblue" points="84.78,-89.48 80.79,-79.66 77.79,-89.82 84.78,-89.48"/>
</g>
</g>
</svg>
