<?xml version="1.0" encoding="UTF-8" standalone="no"?>
<!DOCTYPE svg PUBLIC "-//W3C//DTD SVG 1.1//EN"
 "http://www.w3.org/Graphics/SVG/1.1/DTD/svg11.dtd">
<!-- Generated by graphviz version 2.50.0 (0)
 -->
<!-- Title: vae::core::BackendDummy::getName Pages: 1 -->
<svg width="527pt" height="88pt"
 viewBox="0.00 0.00 527.00 88.00" xmlns="http://www.w3.org/2000/svg" xmlns:xlink="http://www.w3.org/1999/xlink">
<g id="graph0" class="graph" transform="scale(1 1) rotate(0) translate(4 84)">
<title>vae::core::BackendDummy::getName</title>
<!-- Node1 -->
<g id="node1" class="node">
<title>Node1</title>
<g id="a_node1"><a xlink:title="Returns name of the api.">
<polygon fill="#bfbfbf" stroke="black" points="370,-24.5 370,-54.5 519,-54.5 519,-24.5 370,-24.5"/>
<text text-anchor="start" x="378" y="-42.5" font-family="Helvetica,sans-Serif" font-size="10.00">vae::core::BackendDummy</text>
<text text-anchor="middle" x="444.5" y="-31.5" font-family="Helvetica,sans-Serif" font-size="10.00">::getName</text>
</a>
</g>
</g>
<!-- Node2 -->
<g id="node2" class="node">
<title>Node2</title>
<g id="a_node2"><a xlink:href="classvae_1_1core_1_1_backend_dummy.html#a99e644e3c0830be83f598ac386030277" target="_top" xlink:title="Returns a spefic device info for index.">
<polygon fill="none" stroke="black" points="185,-24.5 185,-54.5 334,-54.5 334,-24.5 185,-24.5"/>
<text text-anchor="start" x="193" y="-42.5" font-family="Helvetica,sans-Serif" font-size="10.00">vae::core::BackendDummy</text>
<text text-anchor="middle" x="259.5" y="-31.5" font-family="Helvetica,sans-Serif" font-size="10.00">::getDevice</text>
</a>
</g>
</g>
<!-- Node1&#45;&gt;Node2 -->
<g id="edge1" class="edge">
<title>Node1&#45;&gt;Node2</title>
<path fill="none" stroke="midnightblue" d="M359.61,-39.5C351.16,-39.5 342.62,-39.5 334.29,-39.5"/>
<polygon fill="midnightblue" stroke="midnightblue" points="359.86,-43 369.86,-39.5 359.86,-36 359.86,-43"/>
</g>
<!-- Node3 -->
<g id="node3" class="node">
<title>Node3</title>
<g id="a_node3"><a xlink:href="classvae_1_1core_1_1_backend_dummy.html#afe51231856bca370bc27b08f15997a27" target="_top" xlink:title=" ">
<polygon fill="none" stroke="black" points="0,-49.5 0,-79.5 149,-79.5 149,-49.5 0,-49.5"/>
<text text-anchor="start" x="8" y="-67.5" font-family="Helvetica,sans-Serif" font-size="10.00">vae::core::BackendDummy</text>
<text text-anchor="middle" x="74.5" y="-56.5" font-family="Helvetica,sans-Serif" font-size="10.00">::getDefaultInputDevice</text>
</a>
</g>
</g>
<!-- Node2&#45;&gt;Node3 -->
<g id="edge2" class="edge">
<title>Node2&#45;&gt;Node3</title>
<path fill="none" stroke="midnightblue" d="M174.89,-50.92C166.35,-52.09 157.72,-53.27 149.29,-54.42"/>
<polygon fill="midnightblue" stroke="midnightblue" points="175.42,-54.38 184.86,-49.56 174.48,-47.45 175.42,-54.38"/>
</g>
<!-- Node4 -->
<g id="node4" class="node">
<title>Node4</title>
<g id="a_node4"><a xlink:href="classvae_1_1core_1_1_backend_dummy.html#afd9bdba1e7e968a1a2bb7f2a9ec807c4" target="_top" xlink:title=" ">
<polygon fill="none" stroke="black" points="0,-0.5 0,-30.5 149,-30.5 149,-0.5 0,-0.5"/>
<text text-anchor="start" x="8" y="-18.5" font-family="Helvetica,sans-Serif" font-size="10.00">vae::core::BackendDummy</text>
<text text-anchor="middle" x="74.5" y="-7.5" font-family="Helvetica,sans-Serif" font-size="10.00">::getDefaultOutputDevice</text>
</a>
</g>
</g>
<!-- Node2&#45;&gt;Node4 -->
<g id="edge3" class="edge">
<title>Node2&#45;&gt;Node4</title>
<path fill="none" stroke="midnightblue" d="M174.89,-28.53C166.35,-27.41 157.72,-26.28 149.29,-25.18"/>
<polygon fill="midnightblue" stroke="midnightblue" points="174.49,-32.01 184.86,-29.84 175.4,-25.07 174.49,-32.01"/>
</g>
</g>
</svg>
