<?xml version="1.0" encoding="UTF-8" standalone="no"?>
<!DOCTYPE svg PUBLIC "-//W3C//DTD SVG 1.1//EN"
 "http://www.w3.org/Graphics/SVG/1.1/DTD/svg11.dtd">
<!-- Generated by graphviz version 2.50.0 (0)
 -->
<!-- Title: vae::core::VoiceManger::forEachFinishedVoice Pages: 1 -->
<svg width="909pt" height="154pt"
 viewBox="0.00 0.00 909.00 154.00" xmlns="http://www.w3.org/2000/svg" xmlns:xlink="http://www.w3.org/1999/xlink">
<g id="graph0" class="graph" transform="scale(1 1) rotate(0) translate(4 150)">
<title>vae::core::VoiceManger::forEachFinishedVoice</title>
<!-- Node1 -->
<g id="node1" class="node">
<title>Node1</title>
<g id="a_node1"><a xlink:title=" ">
<polygon fill="#bfbfbf" stroke="black" points="772,-61 772,-91 901,-91 901,-61 772,-61"/>
<text text-anchor="start" x="780" y="-79" font-family="Helvetica,sans-Serif" font-size="10.00">vae::core::VoiceManger</text>
<text text-anchor="middle" x="836.5" y="-68" font-family="Helvetica,sans-Serif" font-size="10.00">::forEachFinishedVoice</text>
</a>
</g>
</g>
<!-- Node2 -->
<g id="node2" class="node">
<title>Node2</title>
<g id="a_node2"><a xlink:href="classvae_1_1core_1_1_engine.html#adb4e1cb3bd1ea11bb9d3b806d552fb75" target="_top" xlink:title="Update function needs to be called regularly to handle outbound events and other housekeeping.">
<polygon fill="none" stroke="black" points="629,-61 629,-91 736,-91 736,-61 629,-61"/>
<text text-anchor="start" x="637" y="-79" font-family="Helvetica,sans-Serif" font-size="10.00">vae::core::Engine::</text>
<text text-anchor="middle" x="682.5" y="-68" font-family="Helvetica,sans-Serif" font-size="10.00">update</text>
</a>
</g>
</g>
<!-- Node1&#45;&gt;Node2 -->
<g id="edge1" class="edge">
<title>Node1&#45;&gt;Node2</title>
<path fill="none" stroke="midnightblue" d="M761.83,-76C753.19,-76 744.51,-76 736.24,-76"/>
<polygon fill="midnightblue" stroke="midnightblue" points="761.92,-79.5 771.92,-76 761.92,-72.5 761.92,-79.5"/>
</g>
<!-- Node3 -->
<g id="node3" class="node">
<title>Node3</title>
<g id="a_node3"><a xlink:href="main_8cpp.html#a7b09579eb01449ba8f8ac324485001c2" target="_top" xlink:title=" ">
<polygon fill="none" stroke="black" points="487,-126.5 487,-145.5 558,-145.5 558,-126.5 487,-126.5"/>
<text text-anchor="middle" x="522.5" y="-133.5" font-family="Helvetica,sans-Serif" font-size="10.00">benchmark</text>
</a>
</g>
</g>
<!-- Node2&#45;&gt;Node3 -->
<g id="edge2" class="edge">
<title>Node2&#45;&gt;Node3</title>
<path fill="none" stroke="midnightblue" d="M642.96,-95.56C627.65,-102.88 609.73,-110.89 593,-117 581.84,-121.08 569.39,-124.75 558.15,-127.75"/>
<polygon fill="midnightblue" stroke="midnightblue" points="644.65,-98.63 652.12,-91.12 641.59,-92.33 644.65,-98.63"/>
</g>
<!-- Node4 -->
<g id="node4" class="node">
<title>Node4</title>
<g id="a_node4"><a xlink:href="main_8cpp.html#a6f5c91847864279624ba2247527e3cea" target="_top" xlink:title=" ">
<polygon fill="none" stroke="black" points="461,-88.5 461,-107.5 584,-107.5 584,-88.5 461,-88.5"/>
<text text-anchor="middle" x="522.5" y="-95.5" font-family="Helvetica,sans-Serif" font-size="10.00">benchmarkBasicVoice</text>
</a>
</g>
</g>
<!-- Node2&#45;&gt;Node4 -->
<g id="edge3" class="edge">
<title>Node2&#45;&gt;Node4</title>
<path fill="none" stroke="midnightblue" d="M618.95,-84.71C607.47,-86.31 595.5,-87.97 584.08,-89.57"/>
<polygon fill="midnightblue" stroke="midnightblue" points="619.47,-88.17 628.89,-83.33 618.5,-81.24 619.47,-88.17"/>
</g>
<!-- Node5 -->
<g id="node5" class="node">
<title>Node5</title>
<g id="a_node5"><a xlink:href="classvae_1_1core_1_1_engine.html#afecf53f2eaf92d13a933c05c821b3819" target="_top" xlink:title="Main processing function.">
<polygon fill="none" stroke="black" points="469,-39 469,-69 576,-69 576,-39 469,-39"/>
<text text-anchor="start" x="477" y="-57" font-family="Helvetica,sans-Serif" font-size="10.00">vae::core::Engine::</text>
<text text-anchor="middle" x="522.5" y="-46" font-family="Helvetica,sans-Serif" font-size="10.00">process</text>
</a>
</g>
</g>
<!-- Node2&#45;&gt;Node5 -->
<g id="edge4" class="edge">
<title>Node2&#45;&gt;Node5</title>
<path fill="none" stroke="midnightblue" d="M618.76,-67.26C604.65,-65.3 589.81,-63.23 576.15,-61.33"/>
<polygon fill="midnightblue" stroke="midnightblue" points="618.5,-70.76 628.89,-68.67 619.47,-63.83 618.5,-70.76"/>
</g>
<!-- Node11 -->
<g id="node11" class="node">
<title>Node11</title>
<g id="a_node11"><a xlink:href="classvae_1_1_engine_pimpl.html#a8e9296021147373d9b8c415c460fe842" target="_top" xlink:title="Update function needs to be called regularly to handle outbound events and other housekeeping.">
<polygon fill="none" stroke="black" points="452,-0.5 452,-19.5 593,-19.5 593,-0.5 452,-0.5"/>
<text text-anchor="middle" x="522.5" y="-7.5" font-family="Helvetica,sans-Serif" font-size="10.00">vae::EnginePimpl::update</text>
</a>
</g>
</g>
<!-- Node2&#45;&gt;Node11 -->
<g id="edge11" class="edge">
<title>Node2&#45;&gt;Node11</title>
<path fill="none" stroke="midnightblue" d="M646.81,-55.92C630.78,-47.19 611.28,-37.3 593,-30 583.09,-26.04 572.1,-22.51 561.83,-19.55"/>
<polygon fill="midnightblue" stroke="midnightblue" points="645.37,-59.13 655.81,-60.91 648.76,-53 645.37,-59.13"/>
</g>
<!-- Node6 -->
<g id="node6" class="node">
<title>Node6</title>
<g id="a_node6"><a xlink:href="classvae_1_1core_1_1_engine.html#ab31b2381a1d916efdcffe8db7971ce15" target="_top" xlink:title="Called from audio device when it needs more audio.">
<polygon fill="none" stroke="black" points="309,-64 309,-94 416,-94 416,-64 309,-64"/>
<text text-anchor="start" x="317" y="-82" font-family="Helvetica,sans-Serif" font-size="10.00">vae::core::Engine::</text>
<text text-anchor="middle" x="362.5" y="-71" font-family="Helvetica,sans-Serif" font-size="10.00">onBufferSwap</text>
</a>
</g>
</g>
<!-- Node5&#45;&gt;Node6 -->
<g id="edge5" class="edge">
<title>Node5&#45;&gt;Node6</title>
<path fill="none" stroke="midnightblue" d="M458.76,-63.93C444.65,-66.16 429.81,-68.51 416.15,-70.67"/>
<polygon fill="midnightblue" stroke="midnightblue" points="459.56,-67.34 468.89,-62.32 458.46,-60.43 459.56,-67.34"/>
</g>
<!-- Node10 -->
<g id="node10" class="node">
<title>Node10</title>
<g id="a_node10"><a xlink:href="classvae_1_1core_1_1_engine.html#aca852d5c0e30b0641582f175bf95fbea" target="_top" xlink:title="Called from own audio thread, not the device.">
<polygon fill="none" stroke="black" points="309,-15 309,-45 416,-45 416,-15 309,-15"/>
<text text-anchor="start" x="317" y="-33" font-family="Helvetica,sans-Serif" font-size="10.00">vae::core::Engine::</text>
<text text-anchor="middle" x="362.5" y="-22" font-family="Helvetica,sans-Serif" font-size="10.00">threadedProcess</text>
</a>
</g>
</g>
<!-- Node5&#45;&gt;Node10 -->
<g id="edge9" class="edge">
<title>Node5&#45;&gt;Node10</title>
<path fill="none" stroke="midnightblue" d="M458.76,-44.47C444.65,-42.33 429.81,-40.07 416.15,-38"/>
<polygon fill="midnightblue" stroke="midnightblue" points="458.48,-47.97 468.89,-46.01 459.53,-41.05 458.48,-47.97"/>
</g>
<!-- Node7 -->
<g id="node7" class="node">
<title>Node7</title>
<g id="a_node7"><a xlink:href="classvae_1_1core_1_1_engine.html#aa974f739b3f2dc8004eede720d01d229" target="_top" xlink:title="Tries to open default device and start audio thread.">
<polygon fill="none" stroke="black" points="166,-39 166,-69 273,-69 273,-39 166,-39"/>
<text text-anchor="start" x="174" y="-57" font-family="Helvetica,sans-Serif" font-size="10.00">vae::core::Engine::</text>
<text text-anchor="middle" x="219.5" y="-46" font-family="Helvetica,sans-Serif" font-size="10.00">start</text>
</a>
</g>
</g>
<!-- Node6&#45;&gt;Node7 -->
<g id="edge6" class="edge">
<title>Node6&#45;&gt;Node7</title>
<path fill="none" stroke="midnightblue" d="M298.95,-67.91C290.3,-66.38 281.49,-64.81 273.05,-63.32"/>
<polygon fill="midnightblue" stroke="midnightblue" points="298.54,-71.39 309,-69.69 299.76,-64.5 298.54,-71.39"/>
</g>
<!-- Node8 -->
<g id="node8" class="node">
<title>Node8</title>
<g id="a_node8"><a xlink:href="main_8cpp.html#ae66f6b31b5ad750f1fe042a706a4e3d4" target="_top" xlink:title=" ">
<polygon fill="none" stroke="black" points="44.5,-63.5 44.5,-82.5 85.5,-82.5 85.5,-63.5 44.5,-63.5"/>
<text text-anchor="middle" x="65" y="-70.5" font-family="Helvetica,sans-Serif" font-size="10.00">main</text>
</a>
</g>
</g>
<!-- Node7&#45;&gt;Node8 -->
<g id="edge7" class="edge">
<title>Node7&#45;&gt;Node8</title>
<path fill="none" stroke="midnightblue" d="M155.36,-61.87C130.26,-64.99 103.2,-68.36 85.52,-70.57"/>
<polygon fill="midnightblue" stroke="midnightblue" points="156.1,-65.3 165.59,-60.59 155.23,-58.36 156.1,-65.3"/>
</g>
<!-- Node9 -->
<g id="node9" class="node">
<title>Node9</title>
<g id="a_node9"><a xlink:href="classvae_1_1_engine_pimpl.html#af773bc095b97e185c17b23a702572479" target="_top" xlink:title="Tries to open default device and start audio thread.">
<polygon fill="none" stroke="black" points="0,-25.5 0,-44.5 130,-44.5 130,-25.5 0,-25.5"/>
<text text-anchor="middle" x="65" y="-32.5" font-family="Helvetica,sans-Serif" font-size="10.00">vae::EnginePimpl::start</text>
</a>
</g>
</g>
<!-- Node7&#45;&gt;Node9 -->
<g id="edge8" class="edge">
<title>Node7&#45;&gt;Node9</title>
<path fill="none" stroke="midnightblue" d="M155.5,-46.15C147.12,-45.11 138.52,-44.03 130.11,-42.99"/>
<polygon fill="midnightblue" stroke="midnightblue" points="155.23,-49.64 165.59,-47.41 156.1,-42.7 155.23,-49.64"/>
</g>
<!-- Node10&#45;&gt;Node7 -->
<g id="edge10" class="edge">
<title>Node10&#45;&gt;Node7</title>
<path fill="none" stroke="midnightblue" d="M298.95,-40.65C290.3,-42.12 281.49,-43.62 273.05,-45.06"/>
<polygon fill="midnightblue" stroke="midnightblue" points="299.73,-44.07 309,-38.94 298.55,-37.16 299.73,-44.07"/>
</g>
</g>
</svg>
