<?xml version="1.0" encoding="UTF-8" standalone="no"?>
<!DOCTYPE svg PUBLIC "-//W3C//DTD SVG 1.1//EN"
 "http://www.w3.org/Graphics/SVG/1.1/DTD/svg11.dtd">
<!-- Generated by graphviz version 2.50.0 (0)
 -->
<!-- Title: tklb::ConvolverMonoTpl::process Pages: 1 -->
<!--zoomable 252 -->
<svg id="main" version="1.1" xmlns="http://www.w3.org/2000/svg" xmlns:xlink="http://www.w3.org/1999/xlink" xml:space="preserve" onload="init(evt)">
<style type="text/css"><![CDATA[
.edge:hover path { stroke: red; }
.edge:hover polygon { stroke: red; fill: red; }
]]></style>
<script type="text/javascript"><![CDATA[
var edges = document.getElementsByTagName('g');
if (edges && edges.length) {
  for (var i=0;i<edges.length;i++) {
    if (edges[i].id.substr(0,4)=='edge') {
      edges[i].setAttribute('class','edge');
    }
  }
}
]]></script>
        <defs>
                <circle id="rim" cx="0" cy="0" r="7"/>
                <circle id="rim2" cx="0" cy="0" r="3.5"/>
                <g id="zoomPlus">
                        <use xlink:href="#rim" fill="#404040">
                                <set attributeName="fill" to="#808080" begin="zoomplus.mouseover" end="zoomplus.mouseout"/>
                        </use>
                        <path d="M-4,0h8M0,-4v8" fill="none" stroke="white" stroke-width="1.5" pointer-events="none"/>
                </g>
                <g id="zoomMin">
                        <use xlink:href="#rim" fill="#404040">
                                <set attributeName="fill" to="#808080" begin="zoomminus.mouseover" end="zoomminus.mouseout"/>
                        </use>
                        <path d="M-4,0h8" fill="none" stroke="white" stroke-width="1.5" pointer-events="none"/>
                </g>
                <g id="dirArrow">
                        <path fill="none" stroke="white" stroke-width="1.5" d="M0,-3.0v7 M-2.5,-0.5L0,-3.0L2.5,-0.5"/>
                </g>
               <g id="resetDef">
                       <use xlink:href="#rim2" fill="#404040">
                               <set attributeName="fill" to="#808080" begin="reset.mouseover" end="reset.mouseout"/>
                       </use>
               </g>
        </defs>

<script type="text/javascript">
var viewWidth = 651;
var viewHeight = 252;
var sectionId = 'dynsection-3';
</script>
<script xlink:href="svgpan.js"/>
<svg id="graph" class="graph">
<g id="viewport">
<title>tklb::ConvolverMonoTpl::process</title>
<!-- Node1 -->
<g id="node1" class="node">
<title>Node1</title>
<g id="a_node1"><a xlink:title="Do the convolution.">
<polygon fill="#bfbfbf" stroke="black" points="0,-103.5 0,-133.5 132,-133.5 132,-103.5 0,-103.5"/>
<text text-anchor="start" x="8" y="-121.5" font-family="Helvetica,sans-Serif" font-size="10.00">tklb::ConvolverMonoTpl</text>
<text text-anchor="middle" x="66" y="-110.5" font-family="Helvetica,sans-Serif" font-size="10.00">::process</text>
</a>
</g>
</g>
<!-- Node2 -->
<g id="node2" class="node">
<title>Node2</title>
<g id="a_node2"><a xlink:href="classtklb_1_1_f_f_tpffft.html#ac06b2cabd1518b10d59a470a031eedd6" target="_top" xlink:title="Frequency domain back to time domain.">
<polygon fill="none" stroke="black" points="180,-166 180,-185 288,-185 288,-166 180,-166"/>
<text text-anchor="middle" x="234" y="-173" font-family="Helvetica,sans-Serif" font-size="10.00">tklb::FFTpffft::back</text>
</a>
</g>
</g>
<!-- Node1&#45;&gt;Node2 -->
<g id="edge1" class="edge">
<title>Node1&#45;&gt;Node2</title>
<path fill="none" stroke="midnightblue" d="M105.13,-133.62C123.93,-140.88 147.03,-149.5 168,-156.5 174.59,-158.7 181.61,-160.9 188.5,-162.98"/>
<polygon fill="midnightblue" stroke="midnightblue" points="187.86,-166.44 198.44,-165.92 189.85,-159.73 187.86,-166.44"/>
</g>
<!-- Node6 -->
<g id="node6" class="node">
<title>Node6</title>
<g id="a_node6"><a xlink:href="namespacetklb.html#a3080595da18d742645ec41d61828a426" target="_top" xlink:title=" ">
<polygon fill="none" stroke="black" points="545,-88 545,-107 605,-107 605,-88 545,-88"/>
<text text-anchor="middle" x="575" y="-95" font-family="Helvetica,sans-Serif" font-size="10.00">tklb::min</text>
</a>
</g>
</g>
<!-- Node1&#45;&gt;Node6 -->
<g id="edge17" class="edge">
<title>Node1&#45;&gt;Node6</title>
<path fill="none" stroke="midnightblue" d="M132.03,-105.33C211.83,-90.8 351.29,-70.69 471,-80.5 492.28,-82.24 515.79,-85.98 534.97,-89.51"/>
<polygon fill="midnightblue" stroke="midnightblue" points="534.38,-92.96 544.86,-91.38 535.68,-86.08 534.38,-92.96"/>
</g>
<!-- Node7 -->
<g id="node7" class="node">
<title>Node7</title>
<g id="a_node7"><a xlink:href="classtklb_1_1_audio_buffer_tpl.html#a86cec40e8c99a90d93db996d92ddfece" target="_top" xlink:title="Returns the length of actually valid audio in the buffer.">
<polygon fill="none" stroke="black" points="518,-213.5 518,-243.5 632,-243.5 632,-213.5 518,-213.5"/>
<text text-anchor="start" x="526" y="-231.5" font-family="Helvetica,sans-Serif" font-size="10.00">tklb::AudioBufferTpl</text>
<text text-anchor="middle" x="575" y="-220.5" font-family="Helvetica,sans-Serif" font-size="10.00">::validSize</text>
</a>
</g>
</g>
<!-- Node1&#45;&gt;Node7 -->
<g id="edge19" class="edge">
<title>Node1&#45;&gt;Node7</title>
<path fill="none" stroke="midnightblue" d="M82.29,-133.73C100.87,-151.31 134,-179.69 168,-194.5 279.58,-243.12 424.59,-241.74 507.68,-235.61"/>
<polygon fill="midnightblue" stroke="midnightblue" points="508.05,-239.09 517.75,-234.82 507.5,-232.11 508.05,-239.09"/>
</g>
<!-- Node8 -->
<g id="node8" class="node">
<title>Node8</title>
<g id="a_node8"><a xlink:href="classtklb_1_1_audio_buffer_tpl.html#ab6e5250746ca3784a568591a3ffdbc12" target="_top" xlink:title="Set a single channel from an array.">
<polygon fill="none" stroke="black" points="336,-90 336,-109 471,-109 471,-90 336,-90"/>
<text text-anchor="middle" x="403.5" y="-97" font-family="Helvetica,sans-Serif" font-size="10.00">tklb::AudioBufferTpl::set</text>
</a>
</g>
</g>
<!-- Node1&#45;&gt;Node8 -->
<g id="edge18" class="edge">
<title>Node1&#45;&gt;Node8</title>
<path fill="none" stroke="midnightblue" d="M132.09,-114.81C187.45,-111.68 267.06,-107.17 325.57,-103.86"/>
<polygon fill="midnightblue" stroke="midnightblue" points="326.09,-107.33 335.87,-103.27 325.69,-100.34 326.09,-107.33"/>
</g>
<!-- Node11 -->
<g id="node11" class="node">
<title>Node11</title>
<g id="a_node11"><a xlink:href="classtklb_1_1_convolver_mono_tpl.html#a0ef5d892a1d14c4819b6d287e89fabf9" target="_top" xlink:title=" ">
<polygon fill="none" stroke="black" points="168,-2.5 168,-32.5 300,-32.5 300,-2.5 168,-2.5"/>
<text text-anchor="start" x="176" y="-20.5" font-family="Helvetica,sans-Serif" font-size="10.00">tklb::ConvolverMonoTpl</text>
<text text-anchor="middle" x="234" y="-9.5" font-family="Helvetica,sans-Serif" font-size="10.00">::complexMultiply</text>
</a>
</g>
</g>
<!-- Node1&#45;&gt;Node11 -->
<g id="edge13" class="edge">
<title>Node1&#45;&gt;Node11</title>
<path fill="none" stroke="midnightblue" d="M86.42,-103.26C106.26,-88.07 138.28,-64.62 168,-47.5 174.37,-43.83 181.26,-40.26 188.1,-36.93"/>
<polygon fill="midnightblue" stroke="midnightblue" points="189.79,-40 197.33,-32.56 186.8,-33.68 189.79,-40"/>
</g>
<!-- Node12 -->
<g id="node12" class="node">
<title>Node12</title>
<g id="a_node12"><a xlink:href="classtklb_1_1_f_f_tpffft.html#a8971ae1880c636893144a0d7cadb80ba" target="_top" xlink:title="timedomain to frequency domain">
<polygon fill="none" stroke="black" points="173,-128 173,-147 295,-147 295,-128 173,-128"/>
<text text-anchor="middle" x="234" y="-135" font-family="Helvetica,sans-Serif" font-size="10.00">tklb::FFTpffft::forward</text>
</a>
</g>
</g>
<!-- Node1&#45;&gt;Node12 -->
<g id="edge14" class="edge">
<title>Node1&#45;&gt;Node12</title>
<path fill="none" stroke="midnightblue" d="M132.13,-125.95C142.21,-127.11 152.67,-128.31 162.85,-129.47"/>
<polygon fill="midnightblue" stroke="midnightblue" points="162.59,-132.96 172.93,-130.62 163.39,-126.01 162.59,-132.96"/>
</g>
<!-- Node3 -->
<g id="node3" class="node">
<title>Node3</title>
<g id="a_node3"><a xlink:href="classtklb_1_1_audio_buffer_tpl.html#a08517af96ac560ed4fc96db9c1c7c2b3" target="_top" xlink:title="Multiply two buffers.">
<polygon fill="none" stroke="black" points="346.5,-128.5 346.5,-158.5 460.5,-158.5 460.5,-128.5 346.5,-128.5"/>
<text text-anchor="start" x="354.5" y="-146.5" font-family="Helvetica,sans-Serif" font-size="10.00">tklb::AudioBufferTpl</text>
<text text-anchor="middle" x="403.5" y="-135.5" font-family="Helvetica,sans-Serif" font-size="10.00">::multiply</text>
</a>
</g>
</g>
<!-- Node2&#45;&gt;Node3 -->
<g id="edge2" class="edge">
<title>Node2&#45;&gt;Node3</title>
<path fill="none" stroke="midnightblue" d="M284.8,-165.99C301.01,-162.89 319.25,-159.4 336.45,-156.12"/>
<polygon fill="midnightblue" stroke="midnightblue" points="337.27,-159.53 346.43,-154.21 335.95,-152.65 337.27,-159.53"/>
</g>
<!-- Node2&#45;&gt;Node7 -->
<g id="edge12" class="edge">
<title>Node2&#45;&gt;Node7</title>
<path fill="none" stroke="midnightblue" d="M267.49,-185.09C287.17,-190.59 312.85,-197.23 336,-201.5 393.53,-212.11 459.7,-219.22 507.64,-223.46"/>
<polygon fill="midnightblue" stroke="midnightblue" points="507.63,-226.97 517.89,-224.35 508.23,-220 507.63,-226.97"/>
</g>
<!-- Node2&#45;&gt;Node8 -->
<g id="edge7" class="edge">
<title>Node2&#45;&gt;Node8</title>
<path fill="none" stroke="midnightblue" d="M279.35,-165.97C286.53,-163.47 293.68,-160.36 300,-156.5 319.85,-144.37 316.11,-130.57 336,-118.5 339.58,-116.33 343.42,-114.39 347.38,-112.68"/>
<polygon fill="midnightblue" stroke="midnightblue" points="348.71,-115.91 356.78,-109.04 346.19,-109.38 348.71,-115.91"/>
</g>
<!-- Node4 -->
<g id="node4" class="node">
<title>Node4</title>
<g id="a_node4"><a xlink:href="classtklb_1_1_audio_buffer_tpl.html#a7859b26033cbb893c2ea7acea54d8013" target="_top" xlink:title="Returns the amount of channels.">
<polygon fill="none" stroke="black" points="518,-164.5 518,-194.5 632,-194.5 632,-164.5 518,-164.5"/>
<text text-anchor="start" x="526" y="-182.5" font-family="Helvetica,sans-Serif" font-size="10.00">tklb::AudioBufferTpl</text>
<text text-anchor="middle" x="575" y="-171.5" font-family="Helvetica,sans-Serif" font-size="10.00">::channels</text>
</a>
</g>
</g>
<!-- Node3&#45;&gt;Node4 -->
<g id="edge3" class="edge">
<title>Node3&#45;&gt;Node4</title>
<path fill="none" stroke="midnightblue" d="M460.94,-155.49C475.95,-158.68 492.3,-162.15 507.78,-165.44"/>
<polygon fill="midnightblue" stroke="midnightblue" points="507.3,-168.91 517.81,-167.56 508.75,-162.06 507.3,-168.91"/>
</g>
<!-- Node5 -->
<g id="node5" class="node">
<title>Node5</title>
<g id="a_node5"><a xlink:href="classtklb_1_1_audio_buffer_tpl.html#aee0540e90ae2790f9a809917bc5a04fd" target="_top" xlink:title=" ">
<polygon fill="none" stroke="black" points="507,-126 507,-145 643,-145 643,-126 507,-126"/>
<text text-anchor="middle" x="575" y="-133" font-family="Helvetica,sans-Serif" font-size="10.00">tklb::AudioBufferTpl::get</text>
</a>
</g>
</g>
<!-- Node3&#45;&gt;Node5 -->
<g id="edge4" class="edge">
<title>Node3&#45;&gt;Node5</title>
<path fill="none" stroke="midnightblue" d="M460.94,-140.84C472.45,-140.29 484.75,-139.71 496.84,-139.14"/>
<polygon fill="midnightblue" stroke="midnightblue" points="497.1,-142.63 506.93,-138.67 496.77,-135.64 497.1,-142.63"/>
</g>
<!-- Node3&#45;&gt;Node6 -->
<g id="edge5" class="edge">
<title>Node3&#45;&gt;Node6</title>
<path fill="none" stroke="midnightblue" d="M460,-128.44C484.45,-121.8 512.6,-114.16 534.81,-108.14"/>
<polygon fill="midnightblue" stroke="midnightblue" points="535.83,-111.49 544.56,-105.49 533.99,-104.73 535.83,-111.49"/>
</g>
<!-- Node3&#45;&gt;Node7 -->
<g id="edge6" class="edge">
<title>Node3&#45;&gt;Node7</title>
<path fill="none" stroke="midnightblue" d="M442.7,-158.6C452.21,-162.93 462.2,-167.99 471,-173.5 488.65,-184.55 488.99,-193.04 507,-203.5 510.46,-205.51 514.12,-207.41 517.86,-209.2"/>
<polygon fill="midnightblue" stroke="midnightblue" points="516.73,-212.53 527.29,-213.4 519.58,-206.13 516.73,-212.53"/>
</g>
<!-- Node8&#45;&gt;Node5 -->
<g id="edge9" class="edge">
<title>Node8&#45;&gt;Node5</title>
<path fill="none" stroke="midnightblue" d="M449.48,-109.05C470.83,-113.59 496.53,-119.05 519.02,-123.82"/>
<polygon fill="midnightblue" stroke="midnightblue" points="518.6,-127.31 529.11,-125.97 520.05,-120.46 518.6,-127.31"/>
</g>
<!-- Node8&#45;&gt;Node6 -->
<g id="edge10" class="edge">
<title>Node8&#45;&gt;Node6</title>
<path fill="none" stroke="midnightblue" d="M471,-98.72C492.6,-98.46 515.86,-98.19 534.8,-97.96"/>
<polygon fill="midnightblue" stroke="midnightblue" points="534.88,-101.46 544.84,-97.84 534.8,-94.46 534.88,-101.46"/>
</g>
<!-- Node9 -->
<g id="node9" class="node">
<title>Node9</title>
<g id="a_node9"><a xlink:href="namespacetklb_1_1memory.html#ab89ec197028f903f4ea125eae46c4a10" target="_top" xlink:title="memcpy wrapper">
<polygon fill="none" stroke="black" points="519,-50 519,-69 631,-69 631,-50 519,-50"/>
<text text-anchor="middle" x="575" y="-57" font-family="Helvetica,sans-Serif" font-size="10.00">tklb::memory::copy</text>
</a>
</g>
</g>
<!-- Node8&#45;&gt;Node9 -->
<g id="edge8" class="edge">
<title>Node8&#45;&gt;Node9</title>
<path fill="none" stroke="midnightblue" d="M445.1,-89.92C468.69,-84.35 498.6,-77.29 523.67,-71.38"/>
<polygon fill="midnightblue" stroke="midnightblue" points="524.8,-74.71 533.73,-69 523.2,-67.89 524.8,-74.71"/>
</g>
<!-- Node10 -->
<g id="node10" class="node">
<title>Node10</title>
<g id="a_node10"><a xlink:href="classtklb_1_1_audio_buffer_tpl.html#af6df8d7e6840eee3f84807bd1662c3ed" target="_top" xlink:title="Returns the allocated length of the buffer.">
<polygon fill="none" stroke="black" points="518,-0.5 518,-30.5 632,-30.5 632,-0.5 518,-0.5"/>
<text text-anchor="start" x="526" y="-18.5" font-family="Helvetica,sans-Serif" font-size="10.00">tklb::AudioBufferTpl</text>
<text text-anchor="middle" x="575" y="-7.5" font-family="Helvetica,sans-Serif" font-size="10.00">::size</text>
</a>
</g>
</g>
<!-- Node8&#45;&gt;Node10 -->
<g id="edge11" class="edge">
<title>Node8&#45;&gt;Node10</title>
<path fill="none" stroke="midnightblue" d="M419.36,-89.9C438.94,-77.5 474.67,-55.71 507,-40.5 511.4,-38.43 516.03,-36.41 520.7,-34.47"/>
<polygon fill="midnightblue" stroke="midnightblue" points="522.34,-37.58 530.32,-30.61 519.73,-31.08 522.34,-37.58"/>
</g>
<!-- Node12&#45;&gt;Node7 -->
<g id="edge16" class="edge">
<title>Node12&#45;&gt;Node7</title>
<path fill="none" stroke="midnightblue" d="M268.09,-147.09C278.33,-150.08 289.64,-153.4 300,-156.5 316.03,-161.29 319.88,-163.01 336,-167.5 395.6,-184.1 411.07,-186.1 471,-201.5 483.01,-204.59 495.79,-207.91 508.13,-211.13"/>
<polygon fill="midnightblue" stroke="midnightblue" points="507.34,-214.54 517.9,-213.69 509.11,-207.77 507.34,-214.54"/>
</g>
<!-- Node12&#45;&gt;Node8 -->
<g id="edge15" class="edge">
<title>Node12&#45;&gt;Node8</title>
<path fill="none" stroke="midnightblue" d="M277.27,-127.91C299.57,-122.85 327.12,-116.6 350.7,-111.25"/>
<polygon fill="midnightblue" stroke="midnightblue" points="351.56,-114.65 360.54,-109.02 350.01,-107.82 351.56,-114.65"/>
</g>
</g>
</svg>
        <g id="navigator" transform="translate(0 0)" fill="#404254">
                <rect fill="#f2f5e9" fill-opacity="0.5" stroke="#606060" stroke-width=".5" x="0" y="0" width="60" height="60"/>
                <use id="zoomplus" xlink:href="#zoomPlus" x="17" y="9" onmousedown="handleZoom(evt,'in')"/>
                <use id="zoomminus" xlink:href="#zoomMin" x="42" y="9" onmousedown="handleZoom(evt,'out')"/>
                <use id="reset" xlink:href="#resetDef" x="30" y="36" onmousedown="handleReset()"/>
                <g id="arrowUp" xlink:href="#dirArrow" transform="translate(30 24)" onmousedown="handlePan(0,-1)">
                  <use xlink:href="#rim" fill="#404040">
                        <set attributeName="fill" to="#808080" begin="arrowUp.mouseover" end="arrowUp.mouseout"/>
                  </use>
                  <path fill="none" stroke="white" stroke-width="1.5" d="M0,-3.0v7 M-2.5,-0.5L0,-3.0L2.5,-0.5"/>
                </g>
                <g id="arrowRight" xlink:href="#dirArrow" transform="rotate(90) translate(36 -43)" onmousedown="handlePan(1,0)">
                  <use xlink:href="#rim" fill="#404040">
                        <set attributeName="fill" to="#808080" begin="arrowRight.mouseover" end="arrowRight.mouseout"/>
                  </use>
                  <path fill="none" stroke="white" stroke-width="1.5" d="M0,-3.0v7 M-2.5,-0.5L0,-3.0L2.5,-0.5"/>
                </g>
                <g id="arrowDown" xlink:href="#dirArrow" transform="rotate(180) translate(-30 -48)" onmousedown="handlePan(0,1)">
                  <use xlink:href="#rim" fill="#404040">
                        <set attributeName="fill" to="#808080" begin="arrowDown.mouseover" end="arrowDown.mouseout"/>
                  </use>
                  <path fill="none" stroke="white" stroke-width="1.5" d="M0,-3.0v7 M-2.5,-0.5L0,-3.0L2.5,-0.5"/>
                </g>
                <g id="arrowLeft" xlink:href="#dirArrow" transform="rotate(270) translate(-36 17)" onmousedown="handlePan(-1,0)">
                  <use xlink:href="#rim" fill="#404040">
                        <set attributeName="fill" to="#808080" begin="arrowLeft.mouseover" end="arrowLeft.mouseout"/>
                  </use>
                  <path fill="none" stroke="white" stroke-width="1.5" d="M0,-3.0v7 M-2.5,-0.5L0,-3.0L2.5,-0.5"/>
                </g>
        </g>
        <svg viewBox="0 0 15 15" width="100%" height="30px" preserveAspectRatio="xMaxYMin meet">
         <g id="arrow_out" transform="scale(0.3 0.3)">
          <a xlink:href="classtklb_1_1_convolver_mono_tpl_afeb78068fcf9e6f0a2465029a4e5c380_cgraph_org.svg" target="_base">
           <rect id="button" ry="5" rx="5" y="6" x="6" height="38" width="38"
                fill="#f2f5e9" fill-opacity="0.5" stroke="#606060" stroke-width="1.0"/>
           <path id="arrow"
             d="M 11.500037,31.436501 C 11.940474,20.09759 22.043105,11.32322 32.158766,21.979434 L 37.068811,17.246167 C 37.068811,17.246167 37.088388,32 37.088388,32 L 22.160133,31.978069 C 22.160133,31.978069 26.997745,27.140456 26.997745,27.140456 C 18.528582,18.264221 13.291696,25.230495 11.500037,31.436501 z"
             style="fill:#404040;"/>
          </a>
         </g>
        </svg>
</svg>
