<?xml version="1.0" encoding="UTF-8" standalone="no"?>
<!DOCTYPE svg PUBLIC "-//W3C//DTD SVG 1.1//EN"
 "http://www.w3.org/Graphics/SVG/1.1/DTD/svg11.dtd">
<!-- Generated by graphviz version 2.50.0 (0)
 -->
<!-- Title: tklb::ResamplerSpeexTpl::resample Pages: 1 -->
<svg width="460pt" height="88pt"
 viewBox="0.00 0.00 460.00 88.00" xmlns="http://www.w3.org/2000/svg" xmlns:xlink="http://www.w3.org/1999/xlink">
<g id="graph0" class="graph" transform="scale(1 1) rotate(0) translate(4 84)">
<title>tklb::ResamplerSpeexTpl::resample</title>
<!-- Node1 -->
<g id="node1" class="node">
<title>Node1</title>
<g id="a_node1"><a xlink:title="Resamples the provided buffer from its sampleRate to the target rate.">
<polygon fill="#bfbfbf" stroke="black" points="313,-24.5 313,-54.5 452,-54.5 452,-24.5 313,-24.5"/>
<text text-anchor="start" x="321" y="-42.5" font-family="Helvetica,sans-Serif" font-size="10.00">tklb::ResamplerSpeexTpl</text>
<text text-anchor="middle" x="382.5" y="-31.5" font-family="Helvetica,sans-Serif" font-size="10.00">::resample</text>
</a>
</g>
</g>
<!-- Node2 -->
<g id="node2" class="node">
<title>Node2</title>
<g id="a_node2"><a xlink:href="classvae_1_1core_1_1_bank_manager.html#a6542180b77772f1605e211bd851f8996" target="_top" xlink:title=" ">
<polygon fill="none" stroke="black" points="143,-49.5 143,-79.5 277,-79.5 277,-49.5 143,-49.5"/>
<text text-anchor="start" x="151" y="-67.5" font-family="Helvetica,sans-Serif" font-size="10.00">vae::core::BankManager</text>
<text text-anchor="middle" x="210" y="-56.5" font-family="Helvetica,sans-Serif" font-size="10.00">::addSource</text>
</a>
</g>
</g>
<!-- Node1&#45;&gt;Node2 -->
<g id="edge1" class="edge">
<title>Node1&#45;&gt;Node2</title>
<path fill="none" stroke="midnightblue" d="M302.66,-51.06C294.1,-52.32 285.46,-53.58 277.07,-54.81"/>
<polygon fill="midnightblue" stroke="midnightblue" points="303.26,-54.51 312.64,-49.6 302.24,-47.58 303.26,-54.51"/>
</g>
<!-- Node4 -->
<g id="node4" class="node">
<title>Node4</title>
<g id="a_node4"><a xlink:href="classvae_1_1core_1_1_bank_manager.html#adbc94fb2b23a418e34a3eda7812d71a6" target="_top" xlink:title=" ">
<polygon fill="none" stroke="black" points="143,-0.5 143,-30.5 277,-30.5 277,-0.5 143,-0.5"/>
<text text-anchor="start" x="151" y="-18.5" font-family="Helvetica,sans-Serif" font-size="10.00">vae::core::BankManager</text>
<text text-anchor="middle" x="210" y="-7.5" font-family="Helvetica,sans-Serif" font-size="10.00">::load</text>
</a>
</g>
</g>
<!-- Node1&#45;&gt;Node4 -->
<g id="edge3" class="edge">
<title>Node1&#45;&gt;Node4</title>
<path fill="none" stroke="midnightblue" d="M302.66,-28.4C294.1,-27.2 285.46,-25.98 277.07,-24.8"/>
<polygon fill="midnightblue" stroke="midnightblue" points="302.25,-31.88 312.64,-29.81 303.23,-24.95 302.25,-31.88"/>
</g>
<!-- Node3 -->
<g id="node3" class="node">
<title>Node3</title>
<g id="a_node3"><a xlink:href="classvae_1_1core_1_1_engine.html#aba4ba7edf58f833125633e7149e4d499" target="_top" xlink:title="Add or replace a source in a bank.">
<polygon fill="none" stroke="black" points="0,-49.5 0,-79.5 107,-79.5 107,-49.5 0,-49.5"/>
<text text-anchor="start" x="8" y="-67.5" font-family="Helvetica,sans-Serif" font-size="10.00">vae::core::Engine::</text>
<text text-anchor="middle" x="53.5" y="-56.5" font-family="Helvetica,sans-Serif" font-size="10.00">addSource</text>
</a>
</g>
</g>
<!-- Node2&#45;&gt;Node3 -->
<g id="edge2" class="edge">
<title>Node2&#45;&gt;Node3</title>
<path fill="none" stroke="midnightblue" d="M132.31,-64.5C123.86,-64.5 115.41,-64.5 107.35,-64.5"/>
<polygon fill="midnightblue" stroke="midnightblue" points="132.58,-68 142.58,-64.5 132.58,-61 132.58,-68"/>
</g>
</g>
</svg>
