<?xml version="1.0" encoding="UTF-8" standalone="no"?>
<!DOCTYPE svg PUBLIC "-//W3C//DTD SVG 1.1//EN"
 "http://www.w3.org/Graphics/SVG/1.1/DTD/svg11.dtd">
<!-- Generated by graphviz version 2.50.0 (0)
 -->
<!-- Title: tklb::FFTpffft::back Pages: 1 -->
<svg width="459pt" height="252pt"
 viewBox="0.00 0.00 459.00 252.00" xmlns="http://www.w3.org/2000/svg" xmlns:xlink="http://www.w3.org/1999/xlink">
<g id="graph0" class="graph" transform="scale(1 1) rotate(0) translate(4 248)">
<title>tklb::FFTpffft::back</title>
<!-- Node1 -->
<g id="node1" class="node">
<title>Node1</title>
<g id="a_node1"><a xlink:title="Frequency domain back to time domain.">
<polygon fill="#bfbfbf" stroke="black" points="0,-151 0,-170 108,-170 108,-151 0,-151"/>
<text text-anchor="middle" x="54" y="-158" font-family="Helvetica,sans-Serif" font-size="10.00">tklb::FFTpffft::back</text>
</a>
</g>
</g>
<!-- Node2 -->
<g id="node2" class="node">
<title>Node2</title>
<g id="a_node2"><a xlink:href="classtklb_1_1_audio_buffer_tpl.html#a08517af96ac560ed4fc96db9c1c7c2b3" target="_top" xlink:title="Multiply two buffers.">
<polygon fill="none" stroke="black" points="154.5,-145.5 154.5,-175.5 268.5,-175.5 268.5,-145.5 154.5,-145.5"/>
<text text-anchor="start" x="162.5" y="-163.5" font-family="Helvetica,sans-Serif" font-size="10.00">tklb::AudioBufferTpl</text>
<text text-anchor="middle" x="211.5" y="-152.5" font-family="Helvetica,sans-Serif" font-size="10.00">::multiply</text>
</a>
</g>
</g>
<!-- Node1&#45;&gt;Node2 -->
<g id="edge1" class="edge">
<title>Node1&#45;&gt;Node2</title>
<path fill="none" stroke="midnightblue" d="M108.08,-160.5C119.76,-160.5 132.28,-160.5 144.41,-160.5"/>
<polygon fill="midnightblue" stroke="midnightblue" points="144.48,-164 154.48,-160.5 144.48,-157 144.48,-164"/>
</g>
<!-- Node6 -->
<g id="node6" class="node">
<title>Node6</title>
<g id="a_node6"><a xlink:href="classtklb_1_1_audio_buffer_tpl.html#a86cec40e8c99a90d93db996d92ddfece" target="_top" xlink:title="Returns the length of actually valid audio in the buffer.">
<polygon fill="none" stroke="black" points="326,-213.5 326,-243.5 440,-243.5 440,-213.5 326,-213.5"/>
<text text-anchor="start" x="334" y="-231.5" font-family="Helvetica,sans-Serif" font-size="10.00">tklb::AudioBufferTpl</text>
<text text-anchor="middle" x="383" y="-220.5" font-family="Helvetica,sans-Serif" font-size="10.00">::validSize</text>
</a>
</g>
</g>
<!-- Node1&#45;&gt;Node6 -->
<g id="edge11" class="edge">
<title>Node1&#45;&gt;Node6</title>
<path fill="none" stroke="midnightblue" d="M86.12,-170.02C103.12,-175.03 124.61,-181.03 144,-185.5 201.68,-198.78 268.01,-210.47 315.97,-218.3"/>
<polygon fill="midnightblue" stroke="midnightblue" points="315.48,-221.77 325.91,-219.91 316.6,-214.86 315.48,-221.77"/>
</g>
<!-- Node7 -->
<g id="node7" class="node">
<title>Node7</title>
<g id="a_node7"><a xlink:href="classtklb_1_1_audio_buffer_tpl.html#ab6e5250746ca3784a568591a3ffdbc12" target="_top" xlink:title="Set a single channel from an array.">
<polygon fill="none" stroke="black" points="144,-88 144,-107 279,-107 279,-88 144,-88"/>
<text text-anchor="middle" x="211.5" y="-95" font-family="Helvetica,sans-Serif" font-size="10.00">tklb::AudioBufferTpl::set</text>
</a>
</g>
</g>
<!-- Node1&#45;&gt;Node7 -->
<g id="edge6" class="edge">
<title>Node1&#45;&gt;Node7</title>
<path fill="none" stroke="midnightblue" d="M78.62,-150.93C104.95,-140.26 147.74,-122.93 177.4,-110.91"/>
<polygon fill="midnightblue" stroke="midnightblue" points="178.96,-114.05 186.92,-107.05 176.33,-107.57 178.96,-114.05"/>
</g>
<!-- Node3 -->
<g id="node3" class="node">
<title>Node3</title>
<g id="a_node3"><a xlink:href="classtklb_1_1_audio_buffer_tpl.html#a7859b26033cbb893c2ea7acea54d8013" target="_top" xlink:title="Returns the amount of channels.">
<polygon fill="none" stroke="black" points="326,-164.5 326,-194.5 440,-194.5 440,-164.5 326,-164.5"/>
<text text-anchor="start" x="334" y="-182.5" font-family="Helvetica,sans-Serif" font-size="10.00">tklb::AudioBufferTpl</text>
<text text-anchor="middle" x="383" y="-171.5" font-family="Helvetica,sans-Serif" font-size="10.00">::channels</text>
</a>
</g>
</g>
<!-- Node2&#45;&gt;Node3 -->
<g id="edge2" class="edge">
<title>Node2&#45;&gt;Node3</title>
<path fill="none" stroke="midnightblue" d="M268.94,-166.83C283.95,-168.51 300.3,-170.34 315.78,-172.08"/>
<polygon fill="midnightblue" stroke="midnightblue" points="315.48,-175.57 325.81,-173.2 316.26,-168.61 315.48,-175.57"/>
</g>
<!-- Node4 -->
<g id="node4" class="node">
<title>Node4</title>
<g id="a_node4"><a xlink:href="classtklb_1_1_audio_buffer_tpl.html#aee0540e90ae2790f9a809917bc5a04fd" target="_top" xlink:title=" ">
<polygon fill="none" stroke="black" points="315,-88 315,-107 451,-107 451,-88 315,-88"/>
<text text-anchor="middle" x="383" y="-95" font-family="Helvetica,sans-Serif" font-size="10.00">tklb::AudioBufferTpl::get</text>
</a>
</g>
</g>
<!-- Node2&#45;&gt;Node4 -->
<g id="edge3" class="edge">
<title>Node2&#45;&gt;Node4</title>
<path fill="none" stroke="midnightblue" d="M244.85,-145.34C264.81,-136.3 291.09,-124.98 315,-116.5 321.51,-114.19 328.45,-111.97 335.3,-109.9"/>
<polygon fill="midnightblue" stroke="midnightblue" points="336.6,-113.17 345.22,-107.01 334.64,-106.45 336.6,-113.17"/>
</g>
<!-- Node5 -->
<g id="node5" class="node">
<title>Node5</title>
<g id="a_node5"><a xlink:href="namespacetklb.html#a3080595da18d742645ec41d61828a426" target="_top" xlink:title=" ">
<polygon fill="none" stroke="black" points="353,-126 353,-145 413,-145 413,-126 353,-126"/>
<text text-anchor="middle" x="383" y="-133" font-family="Helvetica,sans-Serif" font-size="10.00">tklb::min</text>
</a>
</g>
</g>
<!-- Node2&#45;&gt;Node5 -->
<g id="edge4" class="edge">
<title>Node2&#45;&gt;Node5</title>
<path fill="none" stroke="midnightblue" d="M268.94,-152.18C293.22,-148.59 320.99,-144.5 342.94,-141.26"/>
<polygon fill="midnightblue" stroke="midnightblue" points="343.51,-144.71 352.89,-139.79 342.49,-137.79 343.51,-144.71"/>
</g>
<!-- Node2&#45;&gt;Node6 -->
<g id="edge5" class="edge">
<title>Node2&#45;&gt;Node6</title>
<path fill="none" stroke="midnightblue" d="M246.45,-175.7C266.31,-184.43 291.93,-195.43 315,-204.5 319.51,-206.27 324.2,-208.06 328.93,-209.83"/>
<polygon fill="midnightblue" stroke="midnightblue" points="328.01,-213.22 338.6,-213.4 330.43,-206.65 328.01,-213.22"/>
</g>
<!-- Node7&#45;&gt;Node4 -->
<g id="edge8" class="edge">
<title>Node7&#45;&gt;Node4</title>
<path fill="none" stroke="midnightblue" d="M279,-97.5C287.47,-97.5 296.19,-97.5 304.81,-97.5"/>
<polygon fill="midnightblue" stroke="midnightblue" points="304.85,-101 314.85,-97.5 304.85,-94 304.85,-101"/>
</g>
<!-- Node7&#45;&gt;Node5 -->
<g id="edge9" class="edge">
<title>Node7&#45;&gt;Node5</title>
<path fill="none" stroke="midnightblue" d="M255.27,-107.09C282.2,-113.13 316.69,-120.86 342.89,-126.73"/>
<polygon fill="midnightblue" stroke="midnightblue" points="342.32,-130.19 352.84,-128.96 343.85,-123.36 342.32,-130.19"/>
</g>
<!-- Node8 -->
<g id="node8" class="node">
<title>Node8</title>
<g id="a_node8"><a xlink:href="namespacetklb_1_1memory.html#ab89ec197028f903f4ea125eae46c4a10" target="_top" xlink:title="memcpy wrapper">
<polygon fill="none" stroke="black" points="327,-50 327,-69 439,-69 439,-50 327,-50"/>
<text text-anchor="middle" x="383" y="-57" font-family="Helvetica,sans-Serif" font-size="10.00">tklb::memory::copy</text>
</a>
</g>
</g>
<!-- Node7&#45;&gt;Node8 -->
<g id="edge7" class="edge">
<title>Node7&#45;&gt;Node8</title>
<path fill="none" stroke="midnightblue" d="M255.27,-87.91C277.84,-82.85 305.72,-76.6 329.58,-71.25"/>
<polygon fill="midnightblue" stroke="midnightblue" points="330.54,-74.62 339.54,-69.02 329.01,-67.79 330.54,-74.62"/>
</g>
<!-- Node9 -->
<g id="node9" class="node">
<title>Node9</title>
<g id="a_node9"><a xlink:href="classtklb_1_1_audio_buffer_tpl.html#af6df8d7e6840eee3f84807bd1662c3ed" target="_top" xlink:title="Returns the allocated length of the buffer.">
<polygon fill="none" stroke="black" points="326,-0.5 326,-30.5 440,-30.5 440,-0.5 326,-0.5"/>
<text text-anchor="start" x="334" y="-18.5" font-family="Helvetica,sans-Serif" font-size="10.00">tklb::AudioBufferTpl</text>
<text text-anchor="middle" x="383" y="-7.5" font-family="Helvetica,sans-Serif" font-size="10.00">::size</text>
</a>
</g>
</g>
<!-- Node7&#45;&gt;Node9 -->
<g id="edge10" class="edge">
<title>Node7&#45;&gt;Node9</title>
<path fill="none" stroke="midnightblue" d="M228.09,-87.86C247.86,-75.86 283.2,-55.17 315,-40.5 319.6,-38.38 324.44,-36.29 329.32,-34.29"/>
<polygon fill="midnightblue" stroke="midnightblue" points="330.72,-37.51 338.72,-30.56 328.13,-31 330.72,-37.51"/>
</g>
</g>
</svg>
