<?xml version="1.0" encoding="UTF-8" standalone="no"?>
<!DOCTYPE svg PUBLIC "-//W3C//DTD SVG 1.1//EN"
 "http://www.w3.org/Graphics/SVG/1.1/DTD/svg11.dtd">
<!-- Generated by graphviz version 2.50.0 (0)
 -->
<!-- Title: tklb::ResamplerSpeexTpl::init Pages: 1 -->
<!--zoomable 235 -->
<svg id="main" version="1.1" xmlns="http://www.w3.org/2000/svg" xmlns:xlink="http://www.w3.org/1999/xlink" xml:space="preserve" onload="init(evt)">
<style type="text/css"><![CDATA[
.edge:hover path { stroke: red; }
.edge:hover polygon { stroke: red; fill: red; }
]]></style>
<script type="text/javascript"><![CDATA[
var edges = document.getElementsByTagName('g');
if (edges && edges.length) {
  for (var i=0;i<edges.length;i++) {
    if (edges[i].id.substr(0,4)=='edge') {
      edges[i].setAttribute('class','edge');
    }
  }
}
]]></script>
        <defs>
                <circle id="rim" cx="0" cy="0" r="7"/>
                <circle id="rim2" cx="0" cy="0" r="3.5"/>
                <g id="zoomPlus">
                        <use xlink:href="#rim" fill="#404040">
                                <set attributeName="fill" to="#808080" begin="zoomplus.mouseover" end="zoomplus.mouseout"/>
                        </use>
                        <path d="M-4,0h8M0,-4v8" fill="none" stroke="white" stroke-width="1.5" pointer-events="none"/>
                </g>
                <g id="zoomMin">
                        <use xlink:href="#rim" fill="#404040">
                                <set attributeName="fill" to="#808080" begin="zoomminus.mouseover" end="zoomminus.mouseout"/>
                        </use>
                        <path d="M-4,0h8" fill="none" stroke="white" stroke-width="1.5" pointer-events="none"/>
                </g>
                <g id="dirArrow">
                        <path fill="none" stroke="white" stroke-width="1.5" d="M0,-3.0v7 M-2.5,-0.5L0,-3.0L2.5,-0.5"/>
                </g>
               <g id="resetDef">
                       <use xlink:href="#rim2" fill="#404040">
                               <set attributeName="fill" to="#808080" begin="reset.mouseover" end="reset.mouseout"/>
                       </use>
               </g>
        </defs>

<script type="text/javascript">
var viewWidth = 682;
var viewHeight = 235;
var sectionId = 'dynsection-8';
</script>
<script xlink:href="svgpan.js"/>
<svg id="graph" class="graph">
<g id="viewport">
<title>tklb::ResamplerSpeexTpl::init</title>
<!-- Node1 -->
<g id="node1" class="node">
<title>Node1</title>
<g id="a_node1"><a xlink:title="setup the resampler">
<polygon fill="#bfbfbf" stroke="black" points="535,-49.5 535,-79.5 674,-79.5 674,-49.5 535,-49.5"/>
<text text-anchor="start" x="543" y="-67.5" font-family="Helvetica,sans-Serif" font-size="10.00">tklb::ResamplerSpeexTpl</text>
<text text-anchor="middle" x="604.5" y="-56.5" font-family="Helvetica,sans-Serif" font-size="10.00">::init</text>
</a>
</g>
</g>
<!-- Node2 -->
<g id="node2" class="node">
<title>Node2</title>
<g id="a_node2"><a xlink:href="classvae_1_1core_1_1_device.html#aaab56a24f9f040b6a4be004ff94eff40" target="_top" xlink:title="initializes buffers, queues and resamplers if needed Has to be called in openDevice once the samplera...">
<polygon fill="none" stroke="black" points="368,-128 368,-147 491,-147 491,-128 368,-128"/>
<text text-anchor="middle" x="429.5" y="-135" font-family="Helvetica,sans-Serif" font-size="10.00">vae::core::Device::init</text>
</a>
</g>
</g>
<!-- Node1&#45;&gt;Node2 -->
<g id="edge1" class="edge">
<title>Node1&#45;&gt;Node2</title>
<path fill="none" stroke="midnightblue" d="M558.43,-83.52C524.61,-97.79 479.73,-116.73 453.1,-127.96"/>
<polygon fill="midnightblue" stroke="midnightblue" points="559.8,-86.74 567.65,-79.63 557.08,-80.29 559.8,-86.74"/>
</g>
<!-- Node7 -->
<g id="node7" class="node">
<title>Node7</title>
<g id="a_node7"><a xlink:href="classtklb_1_1_resampler_speex_tpl.html#a9a6c41aeb45d44340e6fbf6bcb0ff591" target="_top" xlink:title="Resamples the provided buffer from its sampleRate to the target rate.">
<polygon fill="none" stroke="black" points="360,-49.5 360,-79.5 499,-79.5 499,-49.5 360,-49.5"/>
<text text-anchor="start" x="368" y="-67.5" font-family="Helvetica,sans-Serif" font-size="10.00">tklb::ResamplerSpeexTpl</text>
<text text-anchor="middle" x="429.5" y="-56.5" font-family="Helvetica,sans-Serif" font-size="10.00">::resample</text>
</a>
</g>
</g>
<!-- Node1&#45;&gt;Node7 -->
<g id="edge6" class="edge">
<title>Node1&#45;&gt;Node7</title>
<path fill="none" stroke="midnightblue" d="M524.41,-64.5C515.97,-64.5 507.44,-64.5 499.13,-64.5"/>
<polygon fill="midnightblue" stroke="midnightblue" points="524.63,-68 534.63,-64.5 524.63,-61 524.63,-68"/>
</g>
<!-- Node11 -->
<g id="node11" class="node">
<title>Node11</title>
<g id="a_node11"><a xlink:href="classtklb_1_1_resampler_speex_tpl.html#a1928c5918f2625530f74b480292bdb1d" target="_top" xlink:title=" ">
<polygon fill="none" stroke="black" points="360,-0.5 360,-30.5 499,-30.5 499,-0.5 360,-0.5"/>
<text text-anchor="start" x="368" y="-18.5" font-family="Helvetica,sans-Serif" font-size="10.00">tklb::ResamplerSpeexTpl</text>
<text text-anchor="middle" x="429.5" y="-7.5" font-family="Helvetica,sans-Serif" font-size="10.00">::ResamplerSpeexTpl</text>
</a>
</g>
</g>
<!-- Node1&#45;&gt;Node11 -->
<g id="edge10" class="edge">
<title>Node1&#45;&gt;Node11</title>
<path fill="none" stroke="midnightblue" d="M540.32,-46.61C521.72,-41.34 501.55,-35.62 483.64,-30.55"/>
<polygon fill="midnightblue" stroke="midnightblue" points="539.61,-50.04 550.18,-49.4 541.51,-43.31 539.61,-50.04"/>
</g>
<!-- Node3 -->
<g id="node3" class="node">
<title>Node3</title>
<g id="a_node3"><a xlink:href="classvae_1_1core_1_1_device_dummy.html#ad85627cd3e6556da54cb511720b09f04" target="_top" xlink:title="Tries to open the default audio device whith desired in out channels.">
<polygon fill="none" stroke="black" points="180,-196.5 180,-226.5 320,-226.5 320,-196.5 180,-196.5"/>
<text text-anchor="start" x="188" y="-214.5" font-family="Helvetica,sans-Serif" font-size="10.00">vae::core::DeviceDummy</text>
<text text-anchor="middle" x="250" y="-203.5" font-family="Helvetica,sans-Serif" font-size="10.00">::openDevice</text>
</a>
</g>
</g>
<!-- Node2&#45;&gt;Node3 -->
<g id="edge2" class="edge">
<title>Node2&#45;&gt;Node3</title>
<path fill="none" stroke="midnightblue" d="M401.41,-151.65C380.56,-162.24 350.87,-176.71 324,-187.5 316.2,-190.63 307.82,-193.68 299.61,-196.49"/>
<polygon fill="midnightblue" stroke="midnightblue" points="403.02,-154.76 410.32,-147.08 399.83,-148.53 403.02,-154.76"/>
</g>
<!-- Node5 -->
<g id="node5" class="node">
<title>Node5</title>
<g id="a_node5"><a xlink:href="classvae_1_1core_1_1_device_portaudio.html#a9a6538b4e9555085a36b67a1850f333d" target="_top" xlink:title="Opens a specific audio device.">
<polygon fill="none" stroke="black" points="176,-147.5 176,-177.5 324,-177.5 324,-147.5 176,-147.5"/>
<text text-anchor="start" x="184" y="-165.5" font-family="Helvetica,sans-Serif" font-size="10.00">vae::core::DevicePortaudio</text>
<text text-anchor="middle" x="250" y="-154.5" font-family="Helvetica,sans-Serif" font-size="10.00">::openDevice</text>
</a>
</g>
</g>
<!-- Node2&#45;&gt;Node5 -->
<g id="edge4" class="edge">
<title>Node2&#45;&gt;Node5</title>
<path fill="none" stroke="midnightblue" d="M357.87,-147.45C346.8,-149.01 335.33,-150.62 324.2,-152.19"/>
<polygon fill="midnightblue" stroke="midnightblue" points="358.5,-150.89 367.91,-146.03 357.52,-143.96 358.5,-150.89"/>
</g>
<!-- Node6 -->
<g id="node6" class="node">
<title>Node6</title>
<g id="a_node6"><a xlink:href="classvae_1_1core_1_1_device_rtaudio.html#a755c0aea3ee53c858f2dc3e61503de95" target="_top" xlink:title="Opens a specific audio device.">
<polygon fill="none" stroke="black" points="180.5,-98.5 180.5,-128.5 319.5,-128.5 319.5,-98.5 180.5,-98.5"/>
<text text-anchor="start" x="188.5" y="-116.5" font-family="Helvetica,sans-Serif" font-size="10.00">vae::core::DeviceRtaudio</text>
<text text-anchor="middle" x="250" y="-105.5" font-family="Helvetica,sans-Serif" font-size="10.00">::openDevice</text>
</a>
</g>
</g>
<!-- Node2&#45;&gt;Node6 -->
<g id="edge5" class="edge">
<title>Node2&#45;&gt;Node6</title>
<path fill="none" stroke="midnightblue" d="M357.91,-127.96C345.27,-126.25 332.13,-124.47 319.55,-122.77"/>
<polygon fill="midnightblue" stroke="midnightblue" points="357.53,-131.44 367.91,-129.31 358.47,-124.5 357.53,-131.44"/>
</g>
<!-- Node4 -->
<g id="node4" class="node">
<title>Node4</title>
<g id="a_node4"><a xlink:href="classvae_1_1core_1_1_device_dummy.html#af40b5ee7c4ac8116abfcfd41a427b7f7" target="_top" xlink:title="Opens a specific audio device.">
<polygon fill="none" stroke="black" points="0,-196.5 0,-226.5 140,-226.5 140,-196.5 0,-196.5"/>
<text text-anchor="start" x="8" y="-214.5" font-family="Helvetica,sans-Serif" font-size="10.00">vae::core::DeviceDummy</text>
<text text-anchor="middle" x="70" y="-203.5" font-family="Helvetica,sans-Serif" font-size="10.00">::openDevice</text>
</a>
</g>
</g>
<!-- Node3&#45;&gt;Node4 -->
<g id="edge3" class="edge">
<title>Node3&#45;&gt;Node4</title>
<path fill="none" stroke="midnightblue" d="M169.7,-211.5C159.81,-211.5 149.75,-211.5 140.04,-211.5"/>
<polygon fill="midnightblue" stroke="midnightblue" points="169.93,-215 179.93,-211.5 169.93,-208 169.93,-215"/>
</g>
<!-- Node8 -->
<g id="node8" class="node">
<title>Node8</title>
<g id="a_node8"><a xlink:href="classvae_1_1core_1_1_bank_manager.html#a6542180b77772f1605e211bd851f8996" target="_top" xlink:title=" ">
<polygon fill="none" stroke="black" points="183,-49.5 183,-79.5 317,-79.5 317,-49.5 183,-49.5"/>
<text text-anchor="start" x="191" y="-67.5" font-family="Helvetica,sans-Serif" font-size="10.00">vae::core::BankManager</text>
<text text-anchor="middle" x="250" y="-56.5" font-family="Helvetica,sans-Serif" font-size="10.00">::addSource</text>
</a>
</g>
</g>
<!-- Node7&#45;&gt;Node8 -->
<g id="edge7" class="edge">
<title>Node7&#45;&gt;Node8</title>
<path fill="none" stroke="midnightblue" d="M349.56,-64.5C338.72,-64.5 327.69,-64.5 317.11,-64.5"/>
<polygon fill="midnightblue" stroke="midnightblue" points="349.87,-68 359.87,-64.5 349.87,-61 349.87,-68"/>
</g>
<!-- Node10 -->
<g id="node10" class="node">
<title>Node10</title>
<g id="a_node10"><a xlink:href="classvae_1_1core_1_1_bank_manager.html#adbc94fb2b23a418e34a3eda7812d71a6" target="_top" xlink:title=" ">
<polygon fill="none" stroke="black" points="183,-0.5 183,-30.5 317,-30.5 317,-0.5 183,-0.5"/>
<text text-anchor="start" x="191" y="-18.5" font-family="Helvetica,sans-Serif" font-size="10.00">vae::core::BankManager</text>
<text text-anchor="middle" x="250" y="-7.5" font-family="Helvetica,sans-Serif" font-size="10.00">::load</text>
</a>
</g>
</g>
<!-- Node7&#45;&gt;Node10 -->
<g id="edge9" class="edge">
<title>Node7&#45;&gt;Node10</title>
<path fill="none" stroke="midnightblue" d="M363.94,-46.68C344.78,-41.39 323.98,-35.65 305.52,-30.55"/>
<polygon fill="midnightblue" stroke="midnightblue" points="363.22,-50.11 373.8,-49.4 365.09,-43.36 363.22,-50.11"/>
</g>
<!-- Node9 -->
<g id="node9" class="node">
<title>Node9</title>
<g id="a_node9"><a xlink:href="classvae_1_1core_1_1_engine.html#aba4ba7edf58f833125633e7149e4d499" target="_top" xlink:title="Add or replace a source in a bank.">
<polygon fill="none" stroke="black" points="16.5,-49.5 16.5,-79.5 123.5,-79.5 123.5,-49.5 16.5,-49.5"/>
<text text-anchor="start" x="24.5" y="-67.5" font-family="Helvetica,sans-Serif" font-size="10.00">vae::core::Engine::</text>
<text text-anchor="middle" x="70" y="-56.5" font-family="Helvetica,sans-Serif" font-size="10.00">addSource</text>
</a>
</g>
</g>
<!-- Node8&#45;&gt;Node9 -->
<g id="edge8" class="edge">
<title>Node8&#45;&gt;Node9</title>
<path fill="none" stroke="midnightblue" d="M172.75,-64.5C156.18,-64.5 139,-64.5 123.58,-64.5"/>
<polygon fill="midnightblue" stroke="midnightblue" points="172.97,-68 182.97,-64.5 172.97,-61 172.97,-68"/>
</g>
</g>
</svg>
        <g id="navigator" transform="translate(0 0)" fill="#404254">
                <rect fill="#f2f5e9" fill-opacity="0.5" stroke="#606060" stroke-width=".5" x="0" y="0" width="60" height="60"/>
                <use id="zoomplus" xlink:href="#zoomPlus" x="17" y="9" onmousedown="handleZoom(evt,'in')"/>
                <use id="zoomminus" xlink:href="#zoomMin" x="42" y="9" onmousedown="handleZoom(evt,'out')"/>
                <use id="reset" xlink:href="#resetDef" x="30" y="36" onmousedown="handleReset()"/>
                <g id="arrowUp" xlink:href="#dirArrow" transform="translate(30 24)" onmousedown="handlePan(0,-1)">
                  <use xlink:href="#rim" fill="#404040">
                        <set attributeName="fill" to="#808080" begin="arrowUp.mouseover" end="arrowUp.mouseout"/>
                  </use>
                  <path fill="none" stroke="white" stroke-width="1.5" d="M0,-3.0v7 M-2.5,-0.5L0,-3.0L2.5,-0.5"/>
                </g>
                <g id="arrowRight" xlink:href="#dirArrow" transform="rotate(90) translate(36 -43)" onmousedown="handlePan(1,0)">
                  <use xlink:href="#rim" fill="#404040">
                        <set attributeName="fill" to="#808080" begin="arrowRight.mouseover" end="arrowRight.mouseout"/>
                  </use>
                  <path fill="none" stroke="white" stroke-width="1.5" d="M0,-3.0v7 M-2.5,-0.5L0,-3.0L2.5,-0.5"/>
                </g>
                <g id="arrowDown" xlink:href="#dirArrow" transform="rotate(180) translate(-30 -48)" onmousedown="handlePan(0,1)">
                  <use xlink:href="#rim" fill="#404040">
                        <set attributeName="fill" to="#808080" begin="arrowDown.mouseover" end="arrowDown.mouseout"/>
                  </use>
                  <path fill="none" stroke="white" stroke-width="1.5" d="M0,-3.0v7 M-2.5,-0.5L0,-3.0L2.5,-0.5"/>
                </g>
                <g id="arrowLeft" xlink:href="#dirArrow" transform="rotate(270) translate(-36 17)" onmousedown="handlePan(-1,0)">
                  <use xlink:href="#rim" fill="#404040">
                        <set attributeName="fill" to="#808080" begin="arrowLeft.mouseover" end="arrowLeft.mouseout"/>
                  </use>
                  <path fill="none" stroke="white" stroke-width="1.5" d="M0,-3.0v7 M-2.5,-0.5L0,-3.0L2.5,-0.5"/>
                </g>
        </g>
        <svg viewBox="0 0 15 15" width="100%" height="30px" preserveAspectRatio="xMaxYMin meet">
         <g id="arrow_out" transform="scale(0.3 0.3)">
          <a xlink:href="classtklb_1_1_resampler_speex_tpl_adffcf2713951e2a859b43a514bb711c0_icgraph_org.svg" target="_base">
           <rect id="button" ry="5" rx="5" y="6" x="6" height="38" width="38"
                fill="#f2f5e9" fill-opacity="0.5" stroke="#606060" stroke-width="1.0"/>
           <path id="arrow"
             d="M 11.500037,31.436501 C 11.940474,20.09759 22.043105,11.32322 32.158766,21.979434 L 37.068811,17.246167 C 37.068811,17.246167 37.088388,32 37.088388,32 L 22.160133,31.978069 C 22.160133,31.978069 26.997745,27.140456 26.997745,27.140456 C 18.528582,18.264221 13.291696,25.230495 11.500037,31.436501 z"
             style="fill:#404040;"/>
          </a>
         </g>
        </svg>
</svg>
