<?xml version="1.0" encoding="UTF-8" standalone="no"?>
<!DOCTYPE svg PUBLIC "-//W3C//DTD SVG 1.1//EN"
 "http://www.w3.org/Graphics/SVG/1.1/DTD/svg11.dtd">
<!-- Generated by graphviz version 2.50.0 (0)
 -->
<!-- Title: vae::core::EffectsProcessor::init Pages: 1 -->
<svg width="457pt" height="127pt"
 viewBox="0.00 0.00 457.00 127.00" xmlns="http://www.w3.org/2000/svg" xmlns:xlink="http://www.w3.org/1999/xlink">
<g id="graph0" class="graph" transform="scale(1 1) rotate(0) translate(4 123)">
<title>vae::core::EffectsProcessor::init</title>
<!-- Node1 -->
<g id="node1" class="node">
<title>Node1</title>
<g id="a_node1"><a xlink:title=" ">
<polygon fill="#bfbfbf" stroke="black" points="0,-44.5 0,-74.5 149,-74.5 149,-44.5 0,-44.5"/>
<text text-anchor="start" x="8" y="-62.5" font-family="Helvetica,sans-Serif" font-size="10.00">vae::core::EffectsProcessor</text>
<text text-anchor="middle" x="74.5" y="-51.5" font-family="Helvetica,sans-Serif" font-size="10.00">::init</text>
</a>
</g>
</g>
<!-- Node2 -->
<g id="node2" class="node">
<title>Node2</title>
<g id="a_node2"><a xlink:href="classtklb_1_1_audio_buffer_tpl.html#a35b40f6d6b1fc2939613b1b84313b0bc" target="_top" xlink:title="! Will not keep the contents! Resizes the buffer to the desired length and channel count.">
<polygon fill="none" stroke="black" points="185,-44.5 185,-74.5 299,-74.5 299,-44.5 185,-44.5"/>
<text text-anchor="start" x="193" y="-62.5" font-family="Helvetica,sans-Serif" font-size="10.00">tklb::AudioBufferTpl</text>
<text text-anchor="middle" x="242" y="-51.5" font-family="Helvetica,sans-Serif" font-size="10.00">::resize</text>
</a>
</g>
</g>
<!-- Node1&#45;&gt;Node2 -->
<g id="edge1" class="edge">
<title>Node1&#45;&gt;Node2</title>
<path fill="none" stroke="midnightblue" d="M149.05,-59.5C157.52,-59.5 166.12,-59.5 174.49,-59.5"/>
<polygon fill="midnightblue" stroke="midnightblue" points="174.56,-63 184.56,-59.5 174.56,-56 174.56,-63"/>
</g>
<!-- Node3 -->
<g id="node3" class="node">
<title>Node3</title>
<g id="a_node3"><a xlink:href="classtklb_1_1_audio_buffer_tpl.html#a7859b26033cbb893c2ea7acea54d8013" target="_top" xlink:title="Returns the amount of channels.">
<polygon fill="none" stroke="black" points="335,-88.5 335,-118.5 449,-118.5 449,-88.5 335,-88.5"/>
<text text-anchor="start" x="343" y="-106.5" font-family="Helvetica,sans-Serif" font-size="10.00">tklb::AudioBufferTpl</text>
<text text-anchor="middle" x="392" y="-95.5" font-family="Helvetica,sans-Serif" font-size="10.00">::channels</text>
</a>
</g>
</g>
<!-- Node2&#45;&gt;Node3 -->
<g id="edge2" class="edge">
<title>Node2&#45;&gt;Node3</title>
<path fill="none" stroke="midnightblue" d="M293.52,-74.52C305.48,-78.07 318.35,-81.9 330.7,-85.57"/>
<polygon fill="midnightblue" stroke="midnightblue" points="329.87,-88.98 340.46,-88.47 331.87,-82.27 329.87,-88.98"/>
</g>
<!-- Node4 -->
<g id="node4" class="node">
<title>Node4</title>
<g id="a_node4"><a xlink:href="namespacetklb.html#a3080595da18d742645ec41d61828a426" target="_top" xlink:title=" ">
<polygon fill="none" stroke="black" points="362,-50 362,-69 422,-69 422,-50 362,-50"/>
<text text-anchor="middle" x="392" y="-57" font-family="Helvetica,sans-Serif" font-size="10.00">tklb::min</text>
</a>
</g>
</g>
<!-- Node2&#45;&gt;Node4 -->
<g id="edge3" class="edge">
<title>Node2&#45;&gt;Node4</title>
<path fill="none" stroke="midnightblue" d="M299.37,-59.5C316.8,-59.5 335.6,-59.5 351.62,-59.5"/>
<polygon fill="midnightblue" stroke="midnightblue" points="351.7,-63 361.7,-59.5 351.7,-56 351.7,-63"/>
</g>
<!-- Node5 -->
<g id="node5" class="node">
<title>Node5</title>
<g id="a_node5"><a xlink:href="classtklb_1_1_audio_buffer_tpl.html#af6df8d7e6840eee3f84807bd1662c3ed" target="_top" xlink:title="Returns the allocated length of the buffer.">
<polygon fill="none" stroke="black" points="335,-0.5 335,-30.5 449,-30.5 449,-0.5 335,-0.5"/>
<text text-anchor="start" x="343" y="-18.5" font-family="Helvetica,sans-Serif" font-size="10.00">tklb::AudioBufferTpl</text>
<text text-anchor="middle" x="392" y="-7.5" font-family="Helvetica,sans-Serif" font-size="10.00">::size</text>
</a>
</g>
</g>
<!-- Node2&#45;&gt;Node5 -->
<g id="edge4" class="edge">
<title>Node2&#45;&gt;Node5</title>
<path fill="none" stroke="midnightblue" d="M293.52,-44.48C305.48,-40.93 318.35,-37.1 330.7,-33.43"/>
<polygon fill="midnightblue" stroke="midnightblue" points="331.87,-36.73 340.46,-30.53 329.87,-30.02 331.87,-36.73"/>
</g>
</g>
</svg>
