<?xml version="1.0" encoding="UTF-8" standalone="no"?>
<!DOCTYPE svg PUBLIC "-//W3C//DTD SVG 1.1//EN"
 "http://www.w3.org/Graphics/SVG/1.1/DTD/svg11.dtd">
<!-- Generated by graphviz version 2.50.0 (0)
 -->
<!-- Title: tklb::StackBuffer::set Pages: 1 -->
<svg width="289pt" height="66pt"
 viewBox="0.00 0.00 289.00 66.00" xmlns="http://www.w3.org/2000/svg" xmlns:xlink="http://www.w3.org/1999/xlink">
<g id="graph0" class="graph" transform="scale(1 1) rotate(0) translate(4 62)">
<title>tklb::StackBuffer::set</title>
<!-- Node1 -->
<g id="node1" class="node">
<title>Node1</title>
<g id="a_node1"><a xlink:title="Resizes and copies the contents of the source Buffer This will do a memory::copy,so none of the objec...">
<polygon fill="#bfbfbf" stroke="black" points="0,-19.5 0,-38.5 119,-38.5 119,-19.5 0,-19.5"/>
<text text-anchor="middle" x="59.5" y="-26.5" font-family="Helvetica,sans-Serif" font-size="10.00">tklb::StackBuffer::set</text>
</a>
</g>
</g>
<!-- Node1&#45;&gt;Node1 -->
<g id="edge2" class="edge">
<title>Node1&#45;&gt;Node1</title>
<path fill="none" stroke="midnightblue" d="M35.15,-38.76C23.3,-47.57 31.42,-57 59.5,-57 77.93,-57 87.76,-52.94 88.99,-47.65"/>
<polygon fill="midnightblue" stroke="midnightblue" points="91.89,-45.66 83.85,-38.76 85.82,-49.17 91.89,-45.66"/>
</g>
<!-- Node2 -->
<g id="node2" class="node">
<title>Node2</title>
<g id="a_node2"><a xlink:href="classtklb_1_1_stack_buffer.html#ae5aeb72a98bae68f51a83540e5ba09e8" target="_top" xlink:title=" ">
<polygon fill="none" stroke="black" points="155,-38.5 155,-57.5 281,-57.5 281,-38.5 155,-38.5"/>
<text text-anchor="middle" x="218" y="-45.5" font-family="Helvetica,sans-Serif" font-size="10.00">tklb::StackBuffer::data</text>
</a>
</g>
</g>
<!-- Node1&#45;&gt;Node2 -->
<g id="edge1" class="edge">
<title>Node1&#45;&gt;Node2</title>
<path fill="none" stroke="midnightblue" d="M119.22,-36.13C127.57,-37.14 136.24,-38.2 144.82,-39.24"/>
<polygon fill="midnightblue" stroke="midnightblue" points="144.46,-42.72 154.81,-40.45 145.31,-35.77 144.46,-42.72"/>
</g>
<!-- Node3 -->
<g id="node3" class="node">
<title>Node3</title>
<g id="a_node3"><a xlink:href="classtklb_1_1_stack_buffer.html#a7a3ff930c2207f6b4649facb372bea1b" target="_top" xlink:title="Returns the amount of elements in the container.">
<polygon fill="none" stroke="black" points="156,-0.5 156,-19.5 280,-19.5 280,-0.5 156,-0.5"/>
<text text-anchor="middle" x="218" y="-7.5" font-family="Helvetica,sans-Serif" font-size="10.00">tklb::StackBuffer::size</text>
</a>
</g>
</g>
<!-- Node1&#45;&gt;Node3 -->
<g id="edge3" class="edge">
<title>Node1&#45;&gt;Node3</title>
<path fill="none" stroke="midnightblue" d="M119.22,-21.87C127.92,-20.82 136.96,-19.72 145.87,-18.64"/>
<polygon fill="midnightblue" stroke="midnightblue" points="146.36,-22.1 155.86,-17.42 145.51,-15.15 146.36,-22.1"/>
</g>
</g>
</svg>
