<?xml version="1.0" encoding="UTF-8" standalone="no"?>
<!DOCTYPE svg PUBLIC "-//W3C//DTD SVG 1.1//EN"
 "http://www.w3.org/Graphics/SVG/1.1/DTD/svg11.dtd">
<!-- Generated by graphviz version 2.50.0 (0)
 -->
<!-- Title: tklb::AudioBufferTpl::setValidSize Pages: 1 -->
<svg width="1230pt" height="166pt"
 viewBox="0.00 0.00 1230.00 165.50" xmlns="http://www.w3.org/2000/svg" xmlns:xlink="http://www.w3.org/1999/xlink">
<g id="graph0" class="graph" transform="scale(1 1) rotate(0) translate(4 161.5)">
<title>tklb::AudioBufferTpl::setValidSize</title>
<!-- Node1 -->
<g id="node1" class="node">
<title>Node1</title>
<g id="a_node1"><a xlink:title="Set the amount of valid samples currently in the buffer This is mostly a convenience flag since the a...">
<polygon fill="#bfbfbf" stroke="black" points="1108,-81 1108,-111 1222,-111 1222,-81 1108,-81"/>
<text text-anchor="start" x="1116" y="-99" font-family="Helvetica,sans-Serif" font-size="10.00">tklb::AudioBufferTpl</text>
<text text-anchor="middle" x="1165" y="-88" font-family="Helvetica,sans-Serif" font-size="10.00">::setValidSize</text>
</a>
</g>
</g>
<!-- Node2 -->
<g id="node2" class="node">
<title>Node2</title>
<g id="a_node2"><a xlink:href="classvae_1_1core_1_1_effects_processor.html#a460a07e9049a636b7808d575d6d41baa" target="_top" xlink:title=" ">
<polygon fill="none" stroke="black" points="899,-124.5 899,-143.5 1072,-143.5 1072,-124.5 899,-124.5"/>
<text text-anchor="middle" x="985.5" y="-131.5" font-family="Helvetica,sans-Serif" font-size="10.00">vae::core::EffectsProcessor::mix</text>
</a>
</g>
</g>
<!-- Node1&#45;&gt;Node2 -->
<g id="edge1" class="edge">
<title>Node1&#45;&gt;Node2</title>
<path fill="none" stroke="midnightblue" d="M1097.78,-110.18C1075.52,-114.94 1051.25,-120.14 1031.06,-124.46"/>
<polygon fill="midnightblue" stroke="midnightblue" points="1098.79,-113.54 1107.84,-108.02 1097.33,-106.69 1098.79,-113.54"/>
</g>
<!-- Node4 -->
<g id="node4" class="node">
<title>Node4</title>
<g id="a_node4"><a xlink:href="classvae_1_1core_1_1_engine.html#afecf53f2eaf92d13a933c05c821b3819" target="_top" xlink:title="Main processing function.">
<polygon fill="none" stroke="black" points="519,-101 519,-131 626,-131 626,-101 519,-101"/>
<text text-anchor="start" x="527" y="-119" font-family="Helvetica,sans-Serif" font-size="10.00">vae::core::Engine::</text>
<text text-anchor="middle" x="572.5" y="-108" font-family="Helvetica,sans-Serif" font-size="10.00">process</text>
</a>
</g>
</g>
<!-- Node1&#45;&gt;Node4 -->
<g id="edge15" class="edge">
<title>Node1&#45;&gt;Node4</title>
<path fill="none" stroke="midnightblue" d="M1097.9,-98.24C979.62,-102.24 734.07,-110.56 626.23,-114.21"/>
<polygon fill="midnightblue" stroke="midnightblue" points="1098.04,-101.74 1107.91,-97.9 1097.8,-94.74 1098.04,-101.74"/>
</g>
<!-- Node10 -->
<g id="node10" class="node">
<title>Node10</title>
<g id="a_node10"><a xlink:href="classtklb_1_1_audio_ring_buffer_tpl.html#a376759b29135ae4deeaa61eca9a0ea4e" target="_top" xlink:title="Puts a number of elements in the buffer provided.">
<polygon fill="none" stroke="black" points="917.5,-37 917.5,-67 1053.5,-67 1053.5,-37 917.5,-37"/>
<text text-anchor="start" x="925.5" y="-55" font-family="Helvetica,sans-Serif" font-size="10.00">tklb::AudioRingBufferTpl</text>
<text text-anchor="middle" x="985.5" y="-44" font-family="Helvetica,sans-Serif" font-size="10.00">::peek</text>
</a>
</g>
</g>
<!-- Node1&#45;&gt;Node10 -->
<g id="edge10" class="edge">
<title>Node1&#45;&gt;Node10</title>
<path fill="none" stroke="midnightblue" d="M1097.7,-79.56C1081.15,-75.46 1063.48,-71.08 1047.21,-67.05"/>
<polygon fill="midnightblue" stroke="midnightblue" points="1097.29,-83.07 1107.84,-82.08 1098.97,-76.27 1097.29,-83.07"/>
</g>
<!-- Node3 -->
<g id="node3" class="node">
<title>Node3</title>
<g id="a_node3"><a xlink:href="classvae_1_1core_1_1_mixer_processor.html#a02213548c3287ac1db82ae7b3b348e5c" target="_top" xlink:title="Process the mixers for a single bank.">
<polygon fill="none" stroke="black" points="696,-124.5 696,-143.5 863,-143.5 863,-124.5 696,-124.5"/>
<text text-anchor="middle" x="779.5" y="-131.5" font-family="Helvetica,sans-Serif" font-size="10.00">vae::core::MixerProcessor::mix</text>
</a>
</g>
</g>
<!-- Node2&#45;&gt;Node3 -->
<g id="edge2" class="edge">
<title>Node2&#45;&gt;Node3</title>
<path fill="none" stroke="midnightblue" d="M888.6,-134C880.14,-134 871.63,-134 863.3,-134"/>
<polygon fill="midnightblue" stroke="midnightblue" points="888.87,-137.5 898.87,-134 888.87,-130.5 888.87,-137.5"/>
</g>
<!-- Node3&#45;&gt;Node4 -->
<g id="edge3" class="edge">
<title>Node3&#45;&gt;Node4</title>
<path fill="none" stroke="midnightblue" d="M685.75,-125.86C665.34,-124.06 644.41,-122.23 626.24,-120.63"/>
<polygon fill="midnightblue" stroke="midnightblue" points="685.44,-129.34 695.71,-126.73 686.05,-122.37 685.44,-129.34"/>
</g>
<!-- Node5 -->
<g id="node5" class="node">
<title>Node5</title>
<g id="a_node5"><a xlink:href="classvae_1_1core_1_1_engine.html#ab31b2381a1d916efdcffe8db7971ce15" target="_top" xlink:title="Called from audio device when it needs more audio.">
<polygon fill="none" stroke="black" points="325.5,-127 325.5,-157 432.5,-157 432.5,-127 325.5,-127"/>
<text text-anchor="start" x="333.5" y="-145" font-family="Helvetica,sans-Serif" font-size="10.00">vae::core::Engine::</text>
<text text-anchor="middle" x="379" y="-134" font-family="Helvetica,sans-Serif" font-size="10.00">onBufferSwap</text>
</a>
</g>
</g>
<!-- Node4&#45;&gt;Node5 -->
<g id="edge4" class="edge">
<title>Node4&#45;&gt;Node5</title>
<path fill="none" stroke="midnightblue" d="M508.95,-124.49C484.33,-127.83 456.37,-131.63 432.8,-134.83"/>
<polygon fill="midnightblue" stroke="midnightblue" points="509.48,-127.95 518.92,-123.14 508.54,-121.02 509.48,-127.95"/>
</g>
<!-- Node9 -->
<g id="node9" class="node">
<title>Node9</title>
<g id="a_node9"><a xlink:href="classvae_1_1core_1_1_engine.html#aca852d5c0e30b0641582f175bf95fbea" target="_top" xlink:title="Called from own audio thread, not the device.">
<polygon fill="none" stroke="black" points="325.5,-78 325.5,-108 432.5,-108 432.5,-78 325.5,-78"/>
<text text-anchor="start" x="333.5" y="-96" font-family="Helvetica,sans-Serif" font-size="10.00">vae::core::Engine::</text>
<text text-anchor="middle" x="379" y="-85" font-family="Helvetica,sans-Serif" font-size="10.00">threadedProcess</text>
</a>
</g>
</g>
<!-- Node4&#45;&gt;Node9 -->
<g id="edge8" class="edge">
<title>Node4&#45;&gt;Node9</title>
<path fill="none" stroke="midnightblue" d="M508.95,-108.49C484.33,-105.53 456.37,-102.17 432.8,-99.34"/>
<polygon fill="midnightblue" stroke="midnightblue" points="508.57,-111.97 518.92,-109.68 509.41,-105.02 508.57,-111.97"/>
</g>
<!-- Node6 -->
<g id="node6" class="node">
<title>Node6</title>
<g id="a_node6"><a xlink:href="classvae_1_1core_1_1_engine.html#aa974f739b3f2dc8004eede720d01d229" target="_top" xlink:title="Tries to open default device and start audio thread.">
<polygon fill="none" stroke="black" points="166,-102 166,-132 273,-132 273,-102 166,-102"/>
<text text-anchor="start" x="174" y="-120" font-family="Helvetica,sans-Serif" font-size="10.00">vae::core::Engine::</text>
<text text-anchor="middle" x="219.5" y="-109" font-family="Helvetica,sans-Serif" font-size="10.00">start</text>
</a>
</g>
</g>
<!-- Node5&#45;&gt;Node6 -->
<g id="edge5" class="edge">
<title>Node5&#45;&gt;Node6</title>
<path fill="none" stroke="midnightblue" d="M315.15,-132.02C301.26,-129.82 286.68,-127.51 273.24,-125.37"/>
<polygon fill="midnightblue" stroke="midnightblue" points="314.69,-135.49 325.12,-133.61 315.79,-128.58 314.69,-135.49"/>
</g>
<!-- Node7 -->
<g id="node7" class="node">
<title>Node7</title>
<g id="a_node7"><a xlink:href="main_8cpp.html#ae66f6b31b5ad750f1fe042a706a4e3d4" target="_top" xlink:title=" ">
<polygon fill="none" stroke="black" points="44.5,-126.5 44.5,-145.5 85.5,-145.5 85.5,-126.5 44.5,-126.5"/>
<text text-anchor="middle" x="65" y="-133.5" font-family="Helvetica,sans-Serif" font-size="10.00">main</text>
</a>
</g>
</g>
<!-- Node6&#45;&gt;Node7 -->
<g id="edge6" class="edge">
<title>Node6&#45;&gt;Node7</title>
<path fill="none" stroke="midnightblue" d="M155.36,-124.87C130.26,-127.99 103.2,-131.36 85.52,-133.57"/>
<polygon fill="midnightblue" stroke="midnightblue" points="156.1,-128.3 165.59,-123.59 155.23,-121.36 156.1,-128.3"/>
</g>
<!-- Node8 -->
<g id="node8" class="node">
<title>Node8</title>
<g id="a_node8"><a xlink:href="classvae_1_1_engine_pimpl.html#af773bc095b97e185c17b23a702572479" target="_top" xlink:title="Tries to open default device and start audio thread.">
<polygon fill="none" stroke="black" points="0,-88.5 0,-107.5 130,-107.5 130,-88.5 0,-88.5"/>
<text text-anchor="middle" x="65" y="-95.5" font-family="Helvetica,sans-Serif" font-size="10.00">vae::EnginePimpl::start</text>
</a>
</g>
</g>
<!-- Node6&#45;&gt;Node8 -->
<g id="edge7" class="edge">
<title>Node6&#45;&gt;Node8</title>
<path fill="none" stroke="midnightblue" d="M155.5,-109.15C147.12,-108.11 138.52,-107.03 130.11,-105.99"/>
<polygon fill="midnightblue" stroke="midnightblue" points="155.23,-112.64 165.59,-110.41 156.1,-105.7 155.23,-112.64"/>
</g>
<!-- Node9&#45;&gt;Node6 -->
<g id="edge9" class="edge">
<title>Node9&#45;&gt;Node6</title>
<path fill="none" stroke="midnightblue" d="M315.15,-102.58C301.26,-104.69 286.68,-106.91 273.24,-108.96"/>
<polygon fill="midnightblue" stroke="midnightblue" points="315.76,-106.02 325.12,-101.06 314.7,-99.1 315.76,-106.02"/>
</g>
<!-- Node11 -->
<g id="node11" class="node">
<title>Node11</title>
<g id="a_node11"><a xlink:href="classtklb_1_1_audio_ring_buffer_tpl.html#a73b1992dd37fc22852de4a5adb6a355b" target="_top" xlink:title="Pops a number of elements in the buffer provided.">
<polygon fill="none" stroke="black" points="699.5,-42.5 699.5,-61.5 859.5,-61.5 859.5,-42.5 699.5,-42.5"/>
<text text-anchor="middle" x="779.5" y="-49.5" font-family="Helvetica,sans-Serif" font-size="10.00">tklb::AudioRingBufferTpl::pop</text>
</a>
</g>
</g>
<!-- Node10&#45;&gt;Node11 -->
<g id="edge11" class="edge">
<title>Node10&#45;&gt;Node11</title>
<path fill="none" stroke="midnightblue" d="M907.32,-52C891.73,-52 875.33,-52 859.68,-52"/>
<polygon fill="midnightblue" stroke="midnightblue" points="907.42,-55.5 917.42,-52 907.42,-48.5 907.42,-55.5"/>
</g>
<!-- Node12 -->
<g id="node12" class="node">
<title>Node12</title>
<g id="a_node12"><a xlink:href="classvae_1_1core_1_1_device.html#adb18595d67fedf22e685bef3d1a91177" target="_top" xlink:title="Get samples form audio device.">
<polygon fill="none" stroke="black" points="510,-60.5 510,-79.5 635,-79.5 635,-60.5 510,-60.5"/>
<text text-anchor="middle" x="572.5" y="-67.5" font-family="Helvetica,sans-Serif" font-size="10.00">vae::core::Device::pop</text>
</a>
</g>
</g>
<!-- Node11&#45;&gt;Node12 -->
<g id="edge12" class="edge">
<title>Node11&#45;&gt;Node12</title>
<path fill="none" stroke="midnightblue" d="M689.17,-59.84C670.91,-61.45 652.09,-63.1 635.06,-64.59"/>
<polygon fill="midnightblue" stroke="midnightblue" points="689.59,-63.32 699.24,-58.96 688.97,-56.35 689.59,-63.32"/>
</g>
<!-- Node13 -->
<g id="node13" class="node">
<title>Node13</title>
<g id="a_node13"><a xlink:href="structvae_1_1core_1_1_device_1_1_audio_thread_worker.html#a1d6ad75314a363dbb773c16aecb21326" target="_top" xlink:title="Called from audio backend to push in interleaved audio data.">
<polygon fill="none" stroke="black" points="485,-0.5 485,-41.5 660,-41.5 660,-0.5 485,-0.5"/>
<text text-anchor="start" x="493" y="-29.5" font-family="Helvetica,sans-Serif" font-size="10.00">vae::core::Device::</text>
<text text-anchor="start" x="493" y="-18.5" font-family="Helvetica,sans-Serif" font-size="10.00">AudioThreadWorker::swapBuffer</text>
<text text-anchor="middle" x="572.5" y="-7.5" font-family="Helvetica,sans-Serif" font-size="10.00">Interleaved</text>
</a>
</g>
</g>
<!-- Node11&#45;&gt;Node13 -->
<g id="edge13" class="edge">
<title>Node11&#45;&gt;Node13</title>
<path fill="none" stroke="midnightblue" d="M705.56,-40.97C690.83,-38.74 675.2,-36.38 660.06,-34.09"/>
<polygon fill="midnightblue" stroke="midnightblue" points="705.19,-44.45 715.6,-42.49 706.24,-37.53 705.19,-44.45"/>
</g>
<!-- Node14 -->
<g id="node14" class="node">
<title>Node14</title>
<g id="a_node14"><a xlink:href="classvae_1_1core_1_1_device_dummy.html#ac4105d62f1ae237fd9bb8d8bd8dda6a6" target="_top" xlink:title="Simulate the callback from the audio device.">
<polygon fill="none" stroke="black" points="309,-6 309,-36 449,-36 449,-6 309,-6"/>
<text text-anchor="start" x="317" y="-24" font-family="Helvetica,sans-Serif" font-size="10.00">vae::core::DeviceDummy</text>
<text text-anchor="middle" x="379" y="-13" font-family="Helvetica,sans-Serif" font-size="10.00">::swapBufferInterleaved</text>
</a>
</g>
</g>
<!-- Node13&#45;&gt;Node14 -->
<g id="edge14" class="edge">
<title>Node13&#45;&gt;Node14</title>
<path fill="none" stroke="midnightblue" d="M474.85,-21C466.19,-21 457.54,-21 449.19,-21"/>
<polygon fill="midnightblue" stroke="midnightblue" points="474.99,-24.5 484.99,-21 474.99,-17.5 474.99,-24.5"/>
</g>
</g>
</svg>
