<?xml version="1.0" encoding="UTF-8" standalone="no"?>
<!DOCTYPE svg PUBLIC "-//W3C//DTD SVG 1.1//EN"
 "http://www.w3.org/Graphics/SVG/1.1/DTD/svg11.dtd">
<!-- Generated by graphviz version 2.50.0 (0)
 -->
<!-- Title: tklb::AudioBufferTpl::put Pages: 1 -->
<svg width="488pt" height="154pt"
 viewBox="0.00 0.00 488.00 153.50" xmlns="http://www.w3.org/2000/svg" xmlns:xlink="http://www.w3.org/1999/xlink">
<g id="graph0" class="graph" transform="scale(1 1) rotate(0) translate(4 149.5)">
<title>tklb::AudioBufferTpl::put</title>
<!-- Node1 -->
<g id="node1" class="node">
<title>Node1</title>
<g id="a_node1"><a xlink:title="Fill the provided 2D array with the contents of this buffer.">
<polygon fill="#bfbfbf" stroke="black" points="0,-91 0,-110 136,-110 136,-91 0,-91"/>
<text text-anchor="middle" x="68" y="-98" font-family="Helvetica,sans-Serif" font-size="10.00">tklb::AudioBufferTpl::put</text>
</a>
</g>
</g>
<!-- Node2 -->
<g id="node2" class="node">
<title>Node2</title>
<g id="a_node2"><a xlink:href="classtklb_1_1_audio_buffer_tpl.html#a9714a6b0b9ee269c551b28f830a02d57" target="_top" xlink:title="Returns the amount of channels.">
<polygon fill="none" stroke="black" points="183,-107.5 183,-137.5 297,-137.5 297,-107.5 183,-107.5"/>
<text text-anchor="start" x="191" y="-125.5" font-family="Helvetica,sans-Serif" font-size="10.00">tklb::AudioBufferTpl</text>
<text text-anchor="middle" x="240" y="-114.5" font-family="Helvetica,sans-Serif" font-size="10.00">::channels</text>
</a>
</g>
</g>
<!-- Node1&#45;&gt;Node2 -->
<g id="edge1" class="edge">
<title>Node1&#45;&gt;Node2</title>
<path fill="none" stroke="midnightblue" d="M136.19,-109.19C148.3,-110.76 160.91,-112.39 172.99,-113.96"/>
<polygon fill="midnightblue" stroke="midnightblue" points="172.61,-117.44 182.98,-115.25 173.51,-110.5 172.61,-117.44"/>
</g>
<!-- Node3 -->
<g id="node3" class="node">
<title>Node3</title>
<g id="a_node3"><a xlink:href="classtklb_1_1_audio_buffer_tpl.html#a613104aae947423f0fac79142a8bcaf0" target="_top" xlink:title="Fill the provided array with the contents of this buffer.">
<polygon fill="none" stroke="black" points="172,-69 172,-88 308,-88 308,-69 172,-69"/>
<text text-anchor="middle" x="240" y="-76" font-family="Helvetica,sans-Serif" font-size="10.00">tklb::AudioBufferTpl::put</text>
</a>
</g>
</g>
<!-- Node1&#45;&gt;Node3 -->
<g id="edge2" class="edge">
<title>Node1&#45;&gt;Node3</title>
<path fill="none" stroke="midnightblue" d="M136.19,-91.81C144.59,-90.72 153.24,-89.6 161.78,-88.49"/>
<polygon fill="midnightblue" stroke="midnightblue" points="162.27,-91.96 171.74,-87.2 161.38,-85.02 162.27,-91.96"/>
</g>
<!-- Node4 -->
<g id="node4" class="node">
<title>Node4</title>
<g id="a_node4"><a xlink:href="namespacetklb_1_1memory.html#ab89ec197028f903f4ea125eae46c4a10" target="_top" xlink:title="memcpy wrapper">
<polygon fill="none" stroke="black" points="356,-126 356,-145 468,-145 468,-126 356,-126"/>
<text text-anchor="middle" x="412" y="-133" font-family="Helvetica,sans-Serif" font-size="10.00">tklb::memory::copy</text>
</a>
</g>
</g>
<!-- Node3&#45;&gt;Node4 -->
<g id="edge3" class="edge">
<title>Node3&#45;&gt;Node4</title>
<path fill="none" stroke="midnightblue" d="M277.21,-88.06C287.3,-91.06 298.18,-94.61 308,-98.5 324.63,-105.08 327.32,-110.03 344,-116.5 349.99,-118.82 356.38,-121 362.75,-122.99"/>
<polygon fill="midnightblue" stroke="midnightblue" points="362.09,-126.45 372.68,-125.97 364.1,-119.75 362.09,-126.45"/>
</g>
<!-- Node5 -->
<g id="node5" class="node">
<title>Node5</title>
<g id="a_node5"><a xlink:href="classtklb_1_1_audio_buffer_tpl.html#a839371a414e21aea2101d9404e3be9c5" target="_top" xlink:title=" ">
<polygon fill="none" stroke="black" points="344,-88 344,-107 480,-107 480,-88 344,-88"/>
<text text-anchor="middle" x="412" y="-95" font-family="Helvetica,sans-Serif" font-size="10.00">tklb::AudioBufferTpl::get</text>
</a>
</g>
</g>
<!-- Node3&#45;&gt;Node5 -->
<g id="edge4" class="edge">
<title>Node3&#45;&gt;Node5</title>
<path fill="none" stroke="midnightblue" d="M308.19,-86.01C316.59,-86.95 325.24,-87.92 333.78,-88.87"/>
<polygon fill="midnightblue" stroke="midnightblue" points="333.42,-92.35 343.74,-89.98 334.19,-85.39 333.42,-92.35"/>
</g>
<!-- Node6 -->
<g id="node6" class="node">
<title>Node6</title>
<g id="a_node6"><a xlink:href="namespacetklb.html#a3080595da18d742645ec41d61828a426" target="_top" xlink:title=" ">
<polygon fill="none" stroke="black" points="382,-50 382,-69 442,-69 442,-50 382,-50"/>
<text text-anchor="middle" x="412" y="-57" font-family="Helvetica,sans-Serif" font-size="10.00">tklb::min</text>
</a>
</g>
</g>
<!-- Node3&#45;&gt;Node6 -->
<g id="edge5" class="edge">
<title>Node3&#45;&gt;Node6</title>
<path fill="none" stroke="midnightblue" d="M308.19,-70.99C329.8,-68.58 353.02,-65.98 371.92,-63.87"/>
<polygon fill="midnightblue" stroke="midnightblue" points="372.38,-67.34 381.93,-62.75 371.61,-60.38 372.38,-67.34"/>
</g>
<!-- Node7 -->
<g id="node7" class="node">
<title>Node7</title>
<g id="a_node7"><a xlink:href="classtklb_1_1_audio_buffer_tpl.html#a37f13531bbfb64cff87ab6473f5bea14" target="_top" xlink:title="fReturns the length of actually valid audio in the buffer.">
<polygon fill="none" stroke="black" points="355,-0.5 355,-30.5 469,-30.5 469,-0.5 355,-0.5"/>
<text text-anchor="start" x="363" y="-18.5" font-family="Helvetica,sans-Serif" font-size="10.00">tklb::AudioBufferTpl</text>
<text text-anchor="middle" x="412" y="-7.5" font-family="Helvetica,sans-Serif" font-size="10.00">::validSize</text>
</a>
</g>
</g>
<!-- Node3&#45;&gt;Node7 -->
<g id="edge6" class="edge">
<title>Node3&#45;&gt;Node7</title>
<path fill="none" stroke="midnightblue" d="M266.82,-68.93C291.63,-59.74 329.79,-45.6 360.62,-34.17"/>
<polygon fill="midnightblue" stroke="midnightblue" points="362.19,-37.32 370.35,-30.57 359.76,-30.76 362.19,-37.32"/>
</g>
</g>
</svg>
