<?xml version="1.0" encoding="UTF-8" standalone="no"?>
<!DOCTYPE svg PUBLIC "-//W3C//DTD SVG 1.1//EN"
 "http://www.w3.org/Graphics/SVG/1.1/DTD/svg11.dtd">
<!-- Generated by graphviz version 2.50.0 (0)
 -->
<!-- Title: vae::core::SpatialManager::setEmitter Pages: 1 -->
<svg width="488pt" height="66pt"
 viewBox="0.00 0.00 488.00 66.00" xmlns="http://www.w3.org/2000/svg" xmlns:xlink="http://www.w3.org/1999/xlink">
<g id="graph0" class="graph" transform="scale(1 1) rotate(0) translate(4 62)">
<title>vae::core::SpatialManager::setEmitter</title>
<!-- Node1 -->
<g id="node1" class="node">
<title>Node1</title>
<g id="a_node1"><a xlink:title=" ">
<polygon fill="#bfbfbf" stroke="black" points="337,-14 337,-44 480,-44 480,-14 337,-14"/>
<text text-anchor="start" x="345" y="-32" font-family="Helvetica,sans-Serif" font-size="10.00">vae::core::SpatialManager</text>
<text text-anchor="middle" x="408.5" y="-21" font-family="Helvetica,sans-Serif" font-size="10.00">::setEmitter</text>
</a>
</g>
</g>
<!-- Node2 -->
<g id="node2" class="node">
<title>Node2</title>
<g id="a_node2"><a xlink:href="classvae_1_1core_1_1_engine.html#af815d78009973b30babdc575fd127978" target="_top" xlink:title="Set the Emitter position, orientation and spread.">
<polygon fill="none" stroke="black" points="194,-14 194,-44 301,-44 301,-14 194,-14"/>
<text text-anchor="start" x="202" y="-32" font-family="Helvetica,sans-Serif" font-size="10.00">vae::core::Engine::</text>
<text text-anchor="middle" x="247.5" y="-21" font-family="Helvetica,sans-Serif" font-size="10.00">setEmitter</text>
</a>
</g>
</g>
<!-- Node1&#45;&gt;Node2 -->
<g id="edge1" class="edge">
<title>Node1&#45;&gt;Node2</title>
<path fill="none" stroke="midnightblue" d="M326.72,-29C318.09,-29 309.48,-29 301.29,-29"/>
<polygon fill="midnightblue" stroke="midnightblue" points="326.83,-32.5 336.83,-29 326.83,-25.5 326.83,-32.5"/>
</g>
<!-- Node3 -->
<g id="node3" class="node">
<title>Node3</title>
<g id="a_node3"><a xlink:href="main_8cpp.html#a7b09579eb01449ba8f8ac324485001c2" target="_top" xlink:title=" ">
<polygon fill="none" stroke="black" points="43.5,-38.5 43.5,-57.5 114.5,-57.5 114.5,-38.5 43.5,-38.5"/>
<text text-anchor="middle" x="79" y="-45.5" font-family="Helvetica,sans-Serif" font-size="10.00">benchmark</text>
</a>
</g>
</g>
<!-- Node2&#45;&gt;Node3 -->
<g id="edge2" class="edge">
<title>Node2&#45;&gt;Node3</title>
<path fill="none" stroke="midnightblue" d="M183.63,-36.17C160.29,-38.84 134.68,-41.76 114.75,-44.03"/>
<polygon fill="midnightblue" stroke="midnightblue" points="184.28,-39.62 193.82,-35.01 183.49,-32.67 184.28,-39.62"/>
</g>
<!-- Node4 -->
<g id="node4" class="node">
<title>Node4</title>
<g id="a_node4"><a xlink:href="classvae_1_1_engine_pimpl.html#ac2937d09e2e24c7fec6631e0b97a0040" target="_top" xlink:title="Set the Emitter position, orientation and spread.">
<polygon fill="none" stroke="black" points="0,-0.5 0,-19.5 158,-19.5 158,-0.5 0,-0.5"/>
<text text-anchor="middle" x="79" y="-7.5" font-family="Helvetica,sans-Serif" font-size="10.00">vae::EnginePimpl::setEmitter</text>
</a>
</g>
</g>
<!-- Node2&#45;&gt;Node4 -->
<g id="edge3" class="edge">
<title>Node2&#45;&gt;Node4</title>
<path fill="none" stroke="midnightblue" d="M183.79,-21.84C175.43,-20.89 166.78,-19.9 158.19,-18.92"/>
<polygon fill="midnightblue" stroke="midnightblue" points="183.49,-25.33 193.82,-22.99 184.28,-18.38 183.49,-25.33"/>
</g>
</g>
</svg>
