<?xml version="1.0" encoding="UTF-8" standalone="no"?>
<!DOCTYPE svg PUBLIC "-//W3C//DTD SVG 1.1//EN"
 "http://www.w3.org/Graphics/SVG/1.1/DTD/svg11.dtd">
<!-- Generated by graphviz version 2.50.0 (0)
 -->
<!-- Title: tklb::FFTOoura Pages: 1 -->
<!--zoomable 1576 -->
<svg id="main" version="1.1" xmlns="http://www.w3.org/2000/svg" xmlns:xlink="http://www.w3.org/1999/xlink" xml:space="preserve" onload="init(evt)">
<style type="text/css"><![CDATA[
.edge:hover path { stroke: red; }
.edge:hover polygon { stroke: red; fill: red; }
]]></style>
<script type="text/javascript"><![CDATA[
var edges = document.getElementsByTagName('g');
if (edges && edges.length) {
  for (var i=0;i<edges.length;i++) {
    if (edges[i].id.substr(0,4)=='edge') {
      edges[i].setAttribute('class','edge');
    }
  }
}
]]></script>
        <defs>
                <circle id="rim" cx="0" cy="0" r="7"/>
                <circle id="rim2" cx="0" cy="0" r="3.5"/>
                <g id="zoomPlus">
                        <use xlink:href="#rim" fill="#404040">
                                <set attributeName="fill" to="#808080" begin="zoomplus.mouseover" end="zoomplus.mouseout"/>
                        </use>
                        <path d="M-4,0h8M0,-4v8" fill="none" stroke="white" stroke-width="1.5" pointer-events="none"/>
                </g>
                <g id="zoomMin">
                        <use xlink:href="#rim" fill="#404040">
                                <set attributeName="fill" to="#808080" begin="zoomminus.mouseover" end="zoomminus.mouseout"/>
                        </use>
                        <path d="M-4,0h8" fill="none" stroke="white" stroke-width="1.5" pointer-events="none"/>
                </g>
                <g id="dirArrow">
                        <path fill="none" stroke="white" stroke-width="1.5" d="M0,-3.0v7 M-2.5,-0.5L0,-3.0L2.5,-0.5"/>
                </g>
               <g id="resetDef">
                       <use xlink:href="#rim2" fill="#404040">
                               <set attributeName="fill" to="#808080" begin="reset.mouseover" end="reset.mouseout"/>
                       </use>
               </g>
        </defs>

<script type="text/javascript">
var viewWidth = 601;
var viewHeight = 1576;
var sectionId = 'dynsection-0';
</script>
<script xlink:href="svgpan.js"/>
<svg id="graph" class="graph">
<g id="viewport">
<title>tklb::FFTOoura</title>
<!-- Node1 -->
<g id="node1" class="node">
<title>Node1</title>
<g id="a_node1"><a xlink:title=" ">
<polygon fill="#bfbfbf" stroke="black" points="147,-0.5 147,-90.5 234,-90.5 234,-0.5 147,-0.5"/>
<text text-anchor="middle" x="190.5" y="-78.5" font-family="Helvetica,sans-Serif" font-size="10.00">tklb::FFTOoura</text>
<polyline fill="none" stroke="black" points="147,-71.5 234,-71.5 "/>
<text text-anchor="middle" x="190.5" y="-59.5" font-family="Helvetica,sans-Serif" font-size="10.00"> </text>
<polyline fill="none" stroke="black" points="147,-52.5 234,-52.5 "/>
<text text-anchor="start" x="155" y="-40.5" font-family="Helvetica,sans-Serif" font-size="10.00">+ FFTOoura()</text>
<text text-anchor="start" x="155" y="-29.5" font-family="Helvetica,sans-Serif" font-size="10.00">+ resize()</text>
<text text-anchor="start" x="155" y="-18.5" font-family="Helvetica,sans-Serif" font-size="10.00">+ forward()</text>
<text text-anchor="start" x="155" y="-7.5" font-family="Helvetica,sans-Serif" font-size="10.00">+ back()</text>
</a>
</g>
</g>
<!-- Node2 -->
<g id="node2" class="node">
<title>Node2</title>
<g id="a_node2"><a xlink:title=" ">
<polygon fill="none" stroke="#bfbfbf" points="0,-1334 0,-1391 77,-1391 77,-1334 0,-1334"/>
<text text-anchor="middle" x="38.5" y="-1379" font-family="Helvetica,sans-Serif" font-size="10.00">unsigned int</text>
<polyline fill="none" stroke="#bfbfbf" points="0,-1372 77,-1372 "/>
<text text-anchor="middle" x="38.5" y="-1360" font-family="Helvetica,sans-Serif" font-size="10.00"> </text>
<polyline fill="none" stroke="#bfbfbf" points="0,-1353 77,-1353 "/>
<text text-anchor="middle" x="38.5" y="-1341" font-family="Helvetica,sans-Serif" font-size="10.00"> </text>
</a>
</g>
</g>
<!-- Node2&#45;&gt;Node1 -->
<g id="edge1" class="edge">
<title>Node2&#45;&gt;Node1</title>
<path fill="none" stroke="#404040" d="M34.45,-1333.98C28.61,-1291.8 18.5,-1208.56 18.5,-1137.5 18.5,-1137.5 18.5,-1137.5 18.5,-276 18.5,-195.78 86.63,-125.63 137.13,-84.65"/>
<polygon fill="none" stroke="#404040" points="137.25,-84.55 139.47,-77.69 146.65,-77.1 144.44,-83.96 137.25,-84.55"/>
<text text-anchor="middle" x="37" y="-685" font-family="Helvetica,sans-Serif" font-size="10.00"> &#45;mSize</text>
</g>
<!-- Node8 -->
<g id="node8" class="node">
<title>Node8</title>
<g id="a_node8"><a xlink:href="classtklb_1_1_heap_buffer.html" target="_top" xlink:title="Basically a bad std::vector without exceptions which can also work with foreign memory.">
<polygon fill="none" stroke="black" points="62,-1025.5 62,-1247.5 205,-1247.5 205,-1025.5 62,-1025.5"/>
<text text-anchor="start" x="70" y="-1235.5" font-family="Helvetica,sans-Serif" font-size="10.00">tklb::HeapBuffer&lt; T,</text>
<text text-anchor="start" x="70" y="-1224.5" font-family="Helvetica,sans-Serif" font-size="10.00"> ALIGNMENT, ALLOCATOR,</text>
<text text-anchor="middle" x="133.5" y="-1213.5" font-family="Helvetica,sans-Serif" font-size="10.00"> SIZE &gt;</text>
<polyline fill="none" stroke="black" points="62,-1206.5 205,-1206.5 "/>
<text text-anchor="middle" x="133.5" y="-1194.5" font-family="Helvetica,sans-Serif" font-size="10.00"> </text>
<polyline fill="none" stroke="black" points="62,-1187.5 205,-1187.5 "/>
<text text-anchor="start" x="70" y="-1175.5" font-family="Helvetica,sans-Serif" font-size="10.00">+ HeapBuffer()</text>
<text text-anchor="start" x="70" y="-1164.5" font-family="Helvetica,sans-Serif" font-size="10.00">+ HeapBuffer()</text>
<text text-anchor="start" x="70" y="-1153.5" font-family="Helvetica,sans-Serif" font-size="10.00">+ HeapBuffer()</text>
<text text-anchor="start" x="70" y="-1142.5" font-family="Helvetica,sans-Serif" font-size="10.00">+ HeapBuffer()</text>
<text text-anchor="start" x="70" y="-1131.5" font-family="Helvetica,sans-Serif" font-size="10.00">+ HeapBuffer()</text>
<text text-anchor="start" x="70" y="-1120.5" font-family="Helvetica,sans-Serif" font-size="10.00">+ operator=()</text>
<text text-anchor="start" x="70" y="-1109.5" font-family="Helvetica,sans-Serif" font-size="10.00">+ operator=()</text>
<text text-anchor="start" x="70" y="-1098.5" font-family="Helvetica,sans-Serif" font-size="10.00">+ HeapBuffer()</text>
<text text-anchor="start" x="70" y="-1087.5" font-family="Helvetica,sans-Serif" font-size="10.00">+ ~HeapBuffer()</text>
<text text-anchor="start" x="70" y="-1076.5" font-family="Helvetica,sans-Serif" font-size="10.00">+ set()</text>
<text text-anchor="start" x="70" y="-1065.5" font-family="Helvetica,sans-Serif" font-size="10.00">and 28 more...</text>
<text text-anchor="start" x="70" y="-1054.5" font-family="Helvetica,sans-Serif" font-size="10.00">+ closestChunkSize()</text>
<text text-anchor="start" x="70" y="-1043.5" font-family="Helvetica,sans-Serif" font-size="10.00">+ isAligned()</text>
<text text-anchor="start" x="70" y="-1032.5" font-family="Helvetica,sans-Serif" font-size="10.00">&#45; allocate()</text>
</a>
</g>
</g>
<!-- Node2&#45;&gt;Node8 -->
<g id="edge12" class="edge">
<title>Node2&#45;&gt;Node8</title>
<path fill="none" stroke="#404040" d="M46.26,-1333.94C51.98,-1314.66 60.33,-1288.43 69.5,-1266 70.46,-1263.66 71.44,-1261.3 72.44,-1258.93"/>
<polygon fill="none" stroke="#404040" points="72.51,-1258.78 71.23,-1251.68 77.28,-1247.77 78.57,-1254.86 72.51,-1258.78"/>
<text text-anchor="middle" x="99" y="-1280" font-family="Helvetica,sans-Serif" font-size="10.00"> &#45;mRealSize</text>
<text text-anchor="middle" x="99" y="-1269" font-family="Helvetica,sans-Serif" font-size="10.00">&#45;mSize</text>
</g>
<!-- Node3 -->
<g id="node3" class="node">
<title>Node3</title>
<g id="a_node3"><a xlink:title=" ">
<polygon fill="none" stroke="#bfbfbf" points="274.5,-248.5 274.5,-305.5 354.5,-305.5 354.5,-248.5 274.5,-248.5"/>
<text text-anchor="middle" x="314.5" y="-293.5" font-family="Helvetica,sans-Serif" font-size="10.00">HeapBuffer&lt;</text>
<polyline fill="none" stroke="#bfbfbf" points="274.5,-286.5 354.5,-286.5 "/>
<text text-anchor="middle" x="314.5" y="-274.5" font-family="Helvetica,sans-Serif" font-size="10.00"> </text>
<polyline fill="none" stroke="#bfbfbf" points="274.5,-267.5 354.5,-267.5 "/>
<text text-anchor="middle" x="314.5" y="-255.5" font-family="Helvetica,sans-Serif" font-size="10.00"> </text>
</a>
</g>
</g>
<!-- Node3&#45;&gt;Node1 -->
<g id="edge2" class="edge">
<title>Node3&#45;&gt;Node1</title>
<path fill="none" stroke="#404040" d="M306.18,-248.24C294.98,-213.61 272.79,-153.53 241.5,-109 239.5,-106.15 237.41,-103.27 235.26,-100.38"/>
<polygon fill="none" stroke="#404040" points="235.08,-100.15 228.26,-97.81 227.8,-90.62 234.62,-92.96 235.08,-100.15"/>
<text text-anchor="middle" x="267.5" y="-117.5" font-family="Helvetica,sans-Serif" font-size="10.00"> &#45;mIp</text>
</g>
<!-- Node4 -->
<g id="node4" class="node">
<title>Node4</title>
<g id="a_node4"><a xlink:href="classtklb_1_1_audio_buffer_tpl.html" target="_top" xlink:title=" ">
<polygon fill="none" stroke="black" points="124.5,-149.5 124.5,-404.5 256.5,-404.5 256.5,-149.5 124.5,-149.5"/>
<text text-anchor="start" x="132.5" y="-392.5" font-family="Helvetica,sans-Serif" font-size="10.00">tklb::AudioBufferTpl</text>
<text text-anchor="middle" x="190.5" y="-381.5" font-family="Helvetica,sans-Serif" font-size="10.00">&lt; double &gt;</text>
<polyline fill="none" stroke="black" points="124.5,-374.5 256.5,-374.5 "/>
<text text-anchor="start" x="132.5" y="-362.5" font-family="Helvetica,sans-Serif" font-size="10.00">+ sampleRate</text>
<text text-anchor="start" x="132.5" y="-351.5" font-family="Helvetica,sans-Serif" font-size="10.00">+ Stride</text>
<text text-anchor="start" x="132.5" y="-340.5" font-family="Helvetica,sans-Serif" font-size="10.00">&#45; mBuffer</text>
<text text-anchor="start" x="132.5" y="-329.5" font-family="Helvetica,sans-Serif" font-size="10.00">&#45; mValidSize</text>
<text text-anchor="start" x="132.5" y="-318.5" font-family="Helvetica,sans-Serif" font-size="10.00">&#45; mChannels</text>
<polyline fill="none" stroke="black" points="124.5,-311.5 256.5,-311.5 "/>
<text text-anchor="start" x="132.5" y="-299.5" font-family="Helvetica,sans-Serif" font-size="10.00">+ AudioBufferTpl()</text>
<text text-anchor="start" x="132.5" y="-288.5" font-family="Helvetica,sans-Serif" font-size="10.00">+ AudioBufferTpl()</text>
<text text-anchor="start" x="132.5" y="-277.5" font-family="Helvetica,sans-Serif" font-size="10.00">+ AudioBufferTpl()</text>
<text text-anchor="start" x="132.5" y="-266.5" font-family="Helvetica,sans-Serif" font-size="10.00">+ AudioBufferTpl()</text>
<text text-anchor="start" x="132.5" y="-255.5" font-family="Helvetica,sans-Serif" font-size="10.00">+ AudioBufferTpl()</text>
<text text-anchor="start" x="132.5" y="-244.5" font-family="Helvetica,sans-Serif" font-size="10.00">+ ~AudioBufferTpl()</text>
<text text-anchor="start" x="132.5" y="-233.5" font-family="Helvetica,sans-Serif" font-size="10.00">+ operator=()</text>
<text text-anchor="start" x="132.5" y="-222.5" font-family="Helvetica,sans-Serif" font-size="10.00">+ operator=()</text>
<text text-anchor="start" x="132.5" y="-211.5" font-family="Helvetica,sans-Serif" font-size="10.00">+ set()</text>
<text text-anchor="start" x="132.5" y="-200.5" font-family="Helvetica,sans-Serif" font-size="10.00">+ set()</text>
<text text-anchor="start" x="132.5" y="-189.5" font-family="Helvetica,sans-Serif" font-size="10.00">and 26 more...</text>
<text text-anchor="start" x="132.5" y="-178.5" font-family="Helvetica,sans-Serif" font-size="10.00">+ needsScaling()</text>
<text text-anchor="start" x="132.5" y="-167.5" font-family="Helvetica,sans-Serif" font-size="10.00">+ getConversionScale()</text>
<text text-anchor="start" x="132.5" y="-156.5" font-family="Helvetica,sans-Serif" font-size="10.00">&#45; assertOnConstMem()</text>
</a>
</g>
</g>
<!-- Node4&#45;&gt;Node1 -->
<g id="edge3" class="edge">
<title>Node4&#45;&gt;Node1</title>
<path fill="none" stroke="#404040" d="M190.5,-149.17C190.5,-132.89 190.5,-116.94 190.5,-102.65"/>
<polygon fill="none" stroke="#404040" points="190.5,-102.55 186.5,-96.55 190.5,-90.55 194.5,-96.55 190.5,-102.55"/>
<text text-anchor="middle" x="214" y="-123" font-family="Helvetica,sans-Serif" font-size="10.00"> &#45;mBuffer</text>
<text text-anchor="middle" x="214" y="-112" font-family="Helvetica,sans-Serif" font-size="10.00">&#45;mW</text>
</g>
<!-- Node5 -->
<g id="node5" class="node">
<title>Node5</title>
<g id="a_node5"><a xlink:href="classtklb_1_1_audio_buffer_tpl.html" target="_top" xlink:title="Class for handling the most basic audio needs.">
<polygon fill="none" stroke="black" points="247.5,-452.5 247.5,-663.5 379.5,-663.5 379.5,-452.5 247.5,-452.5"/>
<text text-anchor="start" x="255.5" y="-651.5" font-family="Helvetica,sans-Serif" font-size="10.00">tklb::AudioBufferTpl</text>
<text text-anchor="middle" x="313.5" y="-640.5" font-family="Helvetica,sans-Serif" font-size="10.00">&lt; T, STORAGE &gt;</text>
<polyline fill="none" stroke="black" points="247.5,-633.5 379.5,-633.5 "/>
<text text-anchor="middle" x="313.5" y="-621.5" font-family="Helvetica,sans-Serif" font-size="10.00"> </text>
<polyline fill="none" stroke="black" points="247.5,-614.5 379.5,-614.5 "/>
<text text-anchor="start" x="255.5" y="-602.5" font-family="Helvetica,sans-Serif" font-size="10.00">+ AudioBufferTpl()</text>
<text text-anchor="start" x="255.5" y="-591.5" font-family="Helvetica,sans-Serif" font-size="10.00">+ AudioBufferTpl()</text>
<text text-anchor="start" x="255.5" y="-580.5" font-family="Helvetica,sans-Serif" font-size="10.00">+ ~AudioBufferTpl()</text>
<text text-anchor="start" x="255.5" y="-569.5" font-family="Helvetica,sans-Serif" font-size="10.00">+ AudioBufferTpl()</text>
<text text-anchor="start" x="255.5" y="-558.5" font-family="Helvetica,sans-Serif" font-size="10.00">+ operator=()</text>
<text text-anchor="start" x="255.5" y="-547.5" font-family="Helvetica,sans-Serif" font-size="10.00">+ operator=()</text>
<text text-anchor="start" x="255.5" y="-536.5" font-family="Helvetica,sans-Serif" font-size="10.00">+ AudioBufferTpl()</text>
<text text-anchor="start" x="255.5" y="-525.5" font-family="Helvetica,sans-Serif" font-size="10.00">+ AudioBufferTpl()</text>
<text text-anchor="start" x="255.5" y="-514.5" font-family="Helvetica,sans-Serif" font-size="10.00">+ set()</text>
<text text-anchor="start" x="255.5" y="-503.5" font-family="Helvetica,sans-Serif" font-size="10.00">+ set()</text>
<text text-anchor="start" x="255.5" y="-492.5" font-family="Helvetica,sans-Serif" font-size="10.00">and 26 more...</text>
<text text-anchor="start" x="255.5" y="-481.5" font-family="Helvetica,sans-Serif" font-size="10.00">+ needsScaling()</text>
<text text-anchor="start" x="255.5" y="-470.5" font-family="Helvetica,sans-Serif" font-size="10.00">+ getConversionScale()</text>
<text text-anchor="start" x="255.5" y="-459.5" font-family="Helvetica,sans-Serif" font-size="10.00">&#45; assertOnConstMem()</text>
</a>
</g>
</g>
<!-- Node5&#45;&gt;Node4 -->
<g id="edge4" class="edge">
<title>Node5&#45;&gt;Node4</title>
<path fill="none" stroke="orange" d="M263.17,-442.83C257.66,-430.33 252.03,-417.56 246.46,-404.93"/>
<polygon fill="orange" stroke="orange" points="260.11,-444.58 267.35,-452.32 266.52,-441.75 260.11,-444.58"/>
<text text-anchor="middle" x="285" y="-426" font-family="Helvetica,sans-Serif" font-size="10.00"> &lt; double &gt;</text>
</g>
<!-- Node6 -->
<g id="node6" class="node">
<title>Node6</title>
<g id="a_node6"><a xlink:title=" ">
<polygon fill="none" stroke="#bfbfbf" points="209.5,-816 209.5,-873 327.5,-873 327.5,-816 209.5,-816"/>
<text text-anchor="middle" x="268.5" y="-861" font-family="Helvetica,sans-Serif" font-size="10.00">static constexpr Size</text>
<polyline fill="none" stroke="#bfbfbf" points="209.5,-854 327.5,-854 "/>
<text text-anchor="middle" x="268.5" y="-842" font-family="Helvetica,sans-Serif" font-size="10.00"> </text>
<polyline fill="none" stroke="#bfbfbf" points="209.5,-835 327.5,-835 "/>
<text text-anchor="middle" x="268.5" y="-823" font-family="Helvetica,sans-Serif" font-size="10.00"> </text>
</a>
</g>
</g>
<!-- Node6&#45;&gt;Node5 -->
<g id="edge5" class="edge">
<title>Node6&#45;&gt;Node5</title>
<path fill="none" stroke="#404040" d="M272.86,-815.96C278,-783.43 286.9,-727.18 295.06,-675.59"/>
<polygon fill="none" stroke="#404040" points="295.08,-675.48 292.06,-668.93 296.95,-663.63 299.96,-670.18 295.08,-675.48"/>
<text text-anchor="middle" x="313.5" y="-685" font-family="Helvetica,sans-Serif" font-size="10.00"> +Stride</text>
</g>
<!-- Node7 -->
<g id="node7" class="node">
<title>Node7</title>
<g id="a_node7"><a xlink:href="classtklb_1_1_heap_buffer.html" target="_top" xlink:title=" ">
<polygon fill="none" stroke="black" points="56,-711.5 56,-977.5 191,-977.5 191,-711.5 56,-711.5"/>
<text text-anchor="start" x="64" y="-965.5" font-family="Helvetica,sans-Serif" font-size="10.00">tklb::HeapBuffer&lt; T,</text>
<text text-anchor="middle" x="123.5" y="-954.5" font-family="Helvetica,sans-Serif" font-size="10.00"> DEFAULT_ALIGNMENT &gt;</text>
<polyline fill="none" stroke="black" points="56,-947.5 191,-947.5 "/>
<text text-anchor="start" x="64" y="-935.5" font-family="Helvetica,sans-Serif" font-size="10.00">+ Alignment</text>
<text text-anchor="start" x="64" y="-924.5" font-family="Helvetica,sans-Serif" font-size="10.00">+ ChunkSize</text>
<text text-anchor="start" x="64" y="-913.5" font-family="Helvetica,sans-Serif" font-size="10.00">&#45; mAllocator</text>
<text text-anchor="start" x="64" y="-902.5" font-family="Helvetica,sans-Serif" font-size="10.00">&#45; mBuf</text>
<text text-anchor="start" x="64" y="-891.5" font-family="Helvetica,sans-Serif" font-size="10.00">&#45; mSize</text>
<text text-anchor="start" x="64" y="-880.5" font-family="Helvetica,sans-Serif" font-size="10.00">&#45; mRealSize</text>
<polyline fill="none" stroke="black" points="56,-873.5 191,-873.5 "/>
<text text-anchor="start" x="64" y="-861.5" font-family="Helvetica,sans-Serif" font-size="10.00">+ HeapBuffer()</text>
<text text-anchor="start" x="64" y="-850.5" font-family="Helvetica,sans-Serif" font-size="10.00">+ HeapBuffer()</text>
<text text-anchor="start" x="64" y="-839.5" font-family="Helvetica,sans-Serif" font-size="10.00">+ HeapBuffer()</text>
<text text-anchor="start" x="64" y="-828.5" font-family="Helvetica,sans-Serif" font-size="10.00">+ HeapBuffer()</text>
<text text-anchor="start" x="64" y="-817.5" font-family="Helvetica,sans-Serif" font-size="10.00">+ HeapBuffer()</text>
<text text-anchor="start" x="64" y="-806.5" font-family="Helvetica,sans-Serif" font-size="10.00">+ HeapBuffer()</text>
<text text-anchor="start" x="64" y="-795.5" font-family="Helvetica,sans-Serif" font-size="10.00">+ operator=()</text>
<text text-anchor="start" x="64" y="-784.5" font-family="Helvetica,sans-Serif" font-size="10.00">+ operator=()</text>
<text text-anchor="start" x="64" y="-773.5" font-family="Helvetica,sans-Serif" font-size="10.00">+ ~HeapBuffer()</text>
<text text-anchor="start" x="64" y="-762.5" font-family="Helvetica,sans-Serif" font-size="10.00">+ set()</text>
<text text-anchor="start" x="64" y="-751.5" font-family="Helvetica,sans-Serif" font-size="10.00">and 28 more...</text>
<text text-anchor="start" x="64" y="-740.5" font-family="Helvetica,sans-Serif" font-size="10.00">+ closestChunkSize()</text>
<text text-anchor="start" x="64" y="-729.5" font-family="Helvetica,sans-Serif" font-size="10.00">+ isAligned()</text>
<text text-anchor="start" x="64" y="-718.5" font-family="Helvetica,sans-Serif" font-size="10.00">&#45; allocate()</text>
</a>
</g>
</g>
<!-- Node7&#45;&gt;Node5 -->
<g id="edge6" class="edge">
<title>Node7&#45;&gt;Node5</title>
<path fill="none" stroke="#404040" d="M191.04,-725.67C194.19,-720.68 197.35,-715.78 200.5,-711 212.77,-692.38 226.47,-672.96 239.98,-654.47"/>
<polygon fill="none" stroke="#404040" points="240.13,-654.27 240.46,-647.07 247.24,-644.6 246.91,-651.81 240.13,-654.27"/>
<text text-anchor="middle" x="241" y="-685" font-family="Helvetica,sans-Serif" font-size="10.00"> &#45;mBuffer</text>
</g>
<!-- Node8&#45;&gt;Node7 -->
<g id="edge7" class="edge">
<title>Node8&#45;&gt;Node7</title>
<path fill="none" stroke="orange" d="M129.35,-1015.18C128.93,-1002.87 128.49,-990.32 128.07,-977.89"/>
<polygon fill="orange" stroke="orange" points="125.86,-1015.58 129.71,-1025.45 132.86,-1015.34 125.86,-1015.58"/>
<text text-anchor="middle" x="200.5" y="-999" font-family="Helvetica,sans-Serif" font-size="10.00"> &lt; T, DEFAULT_ALIGNMENT &gt;</text>
</g>
<!-- Node9 -->
<g id="node9" class="node">
<title>Node9</title>
<g id="a_node9"><a xlink:title=" ">
<polygon fill="none" stroke="#bfbfbf" points="108,-1334 108,-1391 153,-1391 153,-1334 108,-1334"/>
<text text-anchor="middle" x="130.5" y="-1379" font-family="Helvetica,sans-Serif" font-size="10.00">size_t</text>
<polyline fill="none" stroke="#bfbfbf" points="108,-1372 153,-1372 "/>
<text text-anchor="middle" x="130.5" y="-1360" font-family="Helvetica,sans-Serif" font-size="10.00"> </text>
<polyline fill="none" stroke="#bfbfbf" points="108,-1353 153,-1353 "/>
<text text-anchor="middle" x="130.5" y="-1341" font-family="Helvetica,sans-Serif" font-size="10.00"> </text>
</a>
</g>
</g>
<!-- Node9&#45;&gt;Node8 -->
<g id="edge8" class="edge">
<title>Node9&#45;&gt;Node8</title>
<path fill="none" stroke="#404040" d="M130.87,-1333.58C131.13,-1314.48 131.49,-1287.68 131.86,-1260.02"/>
<polygon fill="none" stroke="#404040" points="131.86,-1259.71 127.94,-1253.66 132.02,-1247.71 135.94,-1253.76 131.86,-1259.71"/>
<text text-anchor="middle" x="163.5" y="-1280" font-family="Helvetica,sans-Serif" font-size="10.00"> +Alignment</text>
<text text-anchor="middle" x="163.5" y="-1269" font-family="Helvetica,sans-Serif" font-size="10.00">+ChunkSize</text>
</g>
<!-- Node10 -->
<g id="node10" class="node">
<title>Node10</title>
<g id="a_node10"><a xlink:href="structtklb_1_1_std_allocator.html" target="_top" xlink:title=" ">
<polygon fill="none" stroke="black" points="171,-1306.5 171,-1418.5 278,-1418.5 278,-1306.5 171,-1306.5"/>
<text text-anchor="start" x="179" y="-1406.5" font-family="Helvetica,sans-Serif" font-size="10.00">tklb::StdAllocator</text>
<text text-anchor="middle" x="224.5" y="-1395.5" font-family="Helvetica,sans-Serif" font-size="10.00">&lt; unsigned char &gt;</text>
<polyline fill="none" stroke="black" points="171,-1388.5 278,-1388.5 "/>
<text text-anchor="middle" x="224.5" y="-1376.5" font-family="Helvetica,sans-Serif" font-size="10.00"> </text>
<polyline fill="none" stroke="black" points="171,-1369.5 278,-1369.5 "/>
<text text-anchor="start" x="179" y="-1357.5" font-family="Helvetica,sans-Serif" font-size="10.00">+ StdAllocator()</text>
<text text-anchor="start" x="179" y="-1346.5" font-family="Helvetica,sans-Serif" font-size="10.00">+ StdAllocator()</text>
<text text-anchor="start" x="179" y="-1335.5" font-family="Helvetica,sans-Serif" font-size="10.00">+ StdAllocator()</text>
<text text-anchor="start" x="179" y="-1324.5" font-family="Helvetica,sans-Serif" font-size="10.00">+ allocate()</text>
<text text-anchor="start" x="179" y="-1313.5" font-family="Helvetica,sans-Serif" font-size="10.00">+ deallocate()</text>
</a>
</g>
</g>
<!-- Node10&#45;&gt;Node8 -->
<g id="edge9" class="edge">
<title>Node10&#45;&gt;Node8</title>
<path fill="none" stroke="#404040" d="M211.53,-1306.34C207.82,-1292.97 203.43,-1278.83 198.5,-1266 197.59,-1263.63 196.65,-1261.25 195.68,-1258.85"/>
<polygon fill="none" stroke="#404040" points="195.6,-1258.67 189.6,-1254.68 190.98,-1247.6 196.98,-1251.59 195.6,-1258.67"/>
<text text-anchor="middle" x="237" y="-1274.5" font-family="Helvetica,sans-Serif" font-size="10.00"> &#45;mAllocator</text>
</g>
<!-- Node11 -->
<g id="node11" class="node">
<title>Node11</title>
<g id="a_node11"><a xlink:href="structtklb_1_1_std_allocator.html" target="_top" xlink:title=" ">
<polygon fill="none" stroke="black" points="160,-1466.5 160,-1567.5 289,-1567.5 289,-1466.5 160,-1466.5"/>
<text text-anchor="middle" x="224.5" y="-1555.5" font-family="Helvetica,sans-Serif" font-size="10.00">tklb::StdAllocator&lt; T &gt;</text>
<polyline fill="none" stroke="black" points="160,-1548.5 289,-1548.5 "/>
<text text-anchor="middle" x="224.5" y="-1536.5" font-family="Helvetica,sans-Serif" font-size="10.00"> </text>
<polyline fill="none" stroke="black" points="160,-1529.5 289,-1529.5 "/>
<text text-anchor="start" x="168" y="-1517.5" font-family="Helvetica,sans-Serif" font-size="10.00">+ StdAllocator()</text>
<text text-anchor="start" x="168" y="-1506.5" font-family="Helvetica,sans-Serif" font-size="10.00">+ StdAllocator()</text>
<text text-anchor="start" x="168" y="-1495.5" font-family="Helvetica,sans-Serif" font-size="10.00">+ StdAllocator()</text>
<text text-anchor="start" x="168" y="-1484.5" font-family="Helvetica,sans-Serif" font-size="10.00">+ allocate()</text>
<text text-anchor="start" x="168" y="-1473.5" font-family="Helvetica,sans-Serif" font-size="10.00">+ deallocate()</text>
</a>
</g>
</g>
<!-- Node11&#45;&gt;Node10 -->
<g id="edge10" class="edge">
<title>Node11&#45;&gt;Node10</title>
<path fill="none" stroke="orange" d="M224.5,-1456.24C224.5,-1443.83 224.5,-1430.8 224.5,-1418.57"/>
<polygon fill="orange" stroke="orange" points="221,-1456.49 224.5,-1466.49 228,-1456.49 221,-1456.49"/>
<text text-anchor="middle" x="271.5" y="-1440" font-family="Helvetica,sans-Serif" font-size="10.00"> &lt; unsigned char &gt;</text>
</g>
<!-- Node12 -->
<g id="node12" class="node">
<title>Node12</title>
<g id="a_node12"><a xlink:title=" ">
<polygon fill="none" stroke="#bfbfbf" points="296,-1334 296,-1391 327,-1391 327,-1334 296,-1334"/>
<text text-anchor="middle" x="311.5" y="-1379" font-family="Helvetica,sans-Serif" font-size="10.00">T *</text>
<polyline fill="none" stroke="#bfbfbf" points="296,-1372 327,-1372 "/>
<text text-anchor="middle" x="311.5" y="-1360" font-family="Helvetica,sans-Serif" font-size="10.00"> </text>
<polyline fill="none" stroke="#bfbfbf" points="296,-1353 327,-1353 "/>
<text text-anchor="middle" x="311.5" y="-1341" font-family="Helvetica,sans-Serif" font-size="10.00"> </text>
</a>
</g>
</g>
<!-- Node12&#45;&gt;Node8 -->
<g id="edge11" class="edge">
<title>Node12&#45;&gt;Node8</title>
<path fill="none" stroke="#404040" d="M303.31,-1333.59C296.66,-1313.65 286,-1286.79 271.5,-1266 255.52,-1243.08 234.85,-1221.15 214.4,-1202.11"/>
<polygon fill="none" stroke="#404040" points="214.21,-1201.94 207.08,-1200.85 205.35,-1193.85 212.47,-1194.94 214.21,-1201.94"/>
<text text-anchor="middle" x="300.5" y="-1274.5" font-family="Helvetica,sans-Serif" font-size="10.00"> &#45;mBuf</text>
</g>
<!-- Node13 -->
<g id="node13" class="node">
<title>Node13</title>
<g id="a_node13"><a xlink:title=" ">
<polygon fill="none" stroke="#bfbfbf" points="346,-816 346,-873 383,-873 383,-816 346,-816"/>
<text text-anchor="middle" x="364.5" y="-861" font-family="Helvetica,sans-Serif" font-size="10.00">Size</text>
<polyline fill="none" stroke="#bfbfbf" points="346,-854 383,-854 "/>
<text text-anchor="middle" x="364.5" y="-842" font-family="Helvetica,sans-Serif" font-size="10.00"> </text>
<polyline fill="none" stroke="#bfbfbf" points="346,-835 383,-835 "/>
<text text-anchor="middle" x="364.5" y="-823" font-family="Helvetica,sans-Serif" font-size="10.00"> </text>
</a>
</g>
</g>
<!-- Node13&#45;&gt;Node5 -->
<g id="edge13" class="edge">
<title>Node13&#45;&gt;Node5</title>
<path fill="none" stroke="#404040" d="M360.09,-815.74C354.93,-783.53 345.99,-728.85 337.5,-682 337.11,-679.85 336.71,-677.67 336.31,-675.48"/>
<polygon fill="none" stroke="#404040" points="336.3,-675.44 331.28,-670.27 334.12,-663.64 339.14,-668.81 336.3,-675.44"/>
<text text-anchor="middle" x="369" y="-685" font-family="Helvetica,sans-Serif" font-size="10.00"> &#45;mValidSize</text>
</g>
<!-- Node14 -->
<g id="node14" class="node">
<title>Node14</title>
<g id="a_node14"><a xlink:title=" ">
<polygon fill="none" stroke="#bfbfbf" points="401,-816 401,-873 486,-873 486,-816 401,-816"/>
<text text-anchor="middle" x="443.5" y="-861" font-family="Helvetica,sans-Serif" font-size="10.00">unsigned char</text>
<polyline fill="none" stroke="#bfbfbf" points="401,-854 486,-854 "/>
<text text-anchor="middle" x="443.5" y="-842" font-family="Helvetica,sans-Serif" font-size="10.00"> </text>
<polyline fill="none" stroke="#bfbfbf" points="401,-835 486,-835 "/>
<text text-anchor="middle" x="443.5" y="-823" font-family="Helvetica,sans-Serif" font-size="10.00"> </text>
</a>
</g>
</g>
<!-- Node14&#45;&gt;Node5 -->
<g id="edge14" class="edge">
<title>Node14&#45;&gt;Node5</title>
<path fill="none" stroke="#404040" d="M439.99,-815.84C435.05,-782.77 424.23,-726.35 403.5,-682 398.54,-671.39 392.61,-660.78 386.19,-650.47"/>
<polygon fill="none" stroke="#404040" points="386.12,-650.37 379.51,-647.5 379.62,-640.29 386.23,-643.16 386.12,-650.37"/>
<text text-anchor="middle" x="437.5" y="-685" font-family="Helvetica,sans-Serif" font-size="10.00"> &#45;mChannels</text>
</g>
<!-- Node15 -->
<g id="node15" class="node">
<title>Node15</title>
<g id="a_node15"><a xlink:title=" ">
<polygon fill="none" stroke="#bfbfbf" points="504,-816 504,-873 593,-873 593,-816 504,-816"/>
<text text-anchor="middle" x="548.5" y="-861" font-family="Helvetica,sans-Serif" font-size="10.00">unsigned short</text>
<polyline fill="none" stroke="#bfbfbf" points="504,-854 593,-854 "/>
<text text-anchor="middle" x="548.5" y="-842" font-family="Helvetica,sans-Serif" font-size="10.00"> </text>
<polyline fill="none" stroke="#bfbfbf" points="504,-835 593,-835 "/>
<text text-anchor="middle" x="548.5" y="-823" font-family="Helvetica,sans-Serif" font-size="10.00"> </text>
</a>
</g>
</g>
<!-- Node15&#45;&gt;Node5 -->
<g id="edge15" class="edge">
<title>Node15&#45;&gt;Node5</title>
<path fill="none" stroke="#404040" d="M540.04,-815.78C531.02,-788.21 515.32,-745.18 495.5,-711 470.19,-667.36 427.41,-630.67 389.68,-604.27"/>
<polygon fill="none" stroke="#404040" points="389.6,-604.22 382.39,-604.14 379.7,-597.45 386.91,-597.53 389.6,-604.22"/>
<text text-anchor="middle" x="515.5" y="-685" font-family="Helvetica,sans-Serif" font-size="10.00"> +sampleRate</text>
</g>
</g>
</svg>
        <g id="navigator" transform="translate(0 0)" fill="#404254">
                <rect fill="#f2f5e9" fill-opacity="0.5" stroke="#606060" stroke-width=".5" x="0" y="0" width="60" height="60"/>
                <use id="zoomplus" xlink:href="#zoomPlus" x="17" y="9" onmousedown="handleZoom(evt,'in')"/>
                <use id="zoomminus" xlink:href="#zoomMin" x="42" y="9" onmousedown="handleZoom(evt,'out')"/>
                <use id="reset" xlink:href="#resetDef" x="30" y="36" onmousedown="handleReset()"/>
                <g id="arrowUp" xlink:href="#dirArrow" transform="translate(30 24)" onmousedown="handlePan(0,-1)">
                  <use xlink:href="#rim" fill="#404040">
                        <set attributeName="fill" to="#808080" begin="arrowUp.mouseover" end="arrowUp.mouseout"/>
                  </use>
                  <path fill="none" stroke="white" stroke-width="1.5" d="M0,-3.0v7 M-2.5,-0.5L0,-3.0L2.5,-0.5"/>
                </g>
                <g id="arrowRight" xlink:href="#dirArrow" transform="rotate(90) translate(36 -43)" onmousedown="handlePan(1,0)">
                  <use xlink:href="#rim" fill="#404040">
                        <set attributeName="fill" to="#808080" begin="arrowRight.mouseover" end="arrowRight.mouseout"/>
                  </use>
                  <path fill="none" stroke="white" stroke-width="1.5" d="M0,-3.0v7 M-2.5,-0.5L0,-3.0L2.5,-0.5"/>
                </g>
                <g id="arrowDown" xlink:href="#dirArrow" transform="rotate(180) translate(-30 -48)" onmousedown="handlePan(0,1)">
                  <use xlink:href="#rim" fill="#404040">
                        <set attributeName="fill" to="#808080" begin="arrowDown.mouseover" end="arrowDown.mouseout"/>
                  </use>
                  <path fill="none" stroke="white" stroke-width="1.5" d="M0,-3.0v7 M-2.5,-0.5L0,-3.0L2.5,-0.5"/>
                </g>
                <g id="arrowLeft" xlink:href="#dirArrow" transform="rotate(270) translate(-36 17)" onmousedown="handlePan(-1,0)">
                  <use xlink:href="#rim" fill="#404040">
                        <set attributeName="fill" to="#808080" begin="arrowLeft.mouseover" end="arrowLeft.mouseout"/>
                  </use>
                  <path fill="none" stroke="white" stroke-width="1.5" d="M0,-3.0v7 M-2.5,-0.5L0,-3.0L2.5,-0.5"/>
                </g>
        </g>
        <svg viewBox="0 0 15 15" width="100%" height="30px" preserveAspectRatio="xMaxYMin meet">
         <g id="arrow_out" transform="scale(0.3 0.3)">
          <a xlink:href="classtklb_1_1_f_f_t_ooura__coll__graph_org.svg" target="_base">
           <rect id="button" ry="5" rx="5" y="6" x="6" height="38" width="38"
                fill="#f2f5e9" fill-opacity="0.5" stroke="#606060" stroke-width="1.0"/>
           <path id="arrow"
             d="M 11.500037,31.436501 C 11.940474,20.09759 22.043105,11.32322 32.158766,21.979434 L 37.068811,17.246167 C 37.068811,17.246167 37.088388,32 37.088388,32 L 22.160133,31.978069 C 22.160133,31.978069 26.997745,27.140456 26.997745,27.140456 C 18.528582,18.264221 13.291696,25.230495 11.500037,31.436501 z"
             style="fill:#404040;"/>
          </a>
         </g>
        </svg>
</svg>
