<?xml version="1.0" encoding="UTF-8" standalone="no"?>
<!DOCTYPE svg PUBLIC "-//W3C//DTD SVG 1.1//EN"
 "http://www.w3.org/Graphics/SVG/1.1/DTD/svg11.dtd">
<!-- Generated by graphviz version 2.50.0 (0)
 -->
<!-- Title: tklb::String::c_str Pages: 1 -->
<svg width="1011pt" height="247pt"
 viewBox="0.00 0.00 1011.00 246.50" xmlns="http://www.w3.org/2000/svg" xmlns:xlink="http://www.w3.org/1999/xlink">
<g id="graph0" class="graph" transform="scale(1 1) rotate(0) translate(4 242.5)">
<title>tklb::String::c_str</title>
<!-- Node1 -->
<g id="node1" class="node">
<title>Node1</title>
<g id="a_node1"><a xlink:title=" ">
<polygon fill="#bfbfbf" stroke="black" points="904,-135.5 904,-154.5 1003,-154.5 1003,-135.5 904,-135.5"/>
<text text-anchor="middle" x="953.5" y="-142.5" font-family="Helvetica,sans-Serif" font-size="10.00">tklb::String::c_str</text>
</a>
</g>
</g>
<!-- Node2 -->
<g id="node2" class="node">
<title>Node2</title>
<g id="a_node2"><a xlink:href="classvae_1_1core_1_1_bank_loader.html#a2a1f294f67b451b337f65b033dd6f0bd" target="_top" xlink:title="Load a bank.json and all wav files referenced in it.">
<polygon fill="none" stroke="black" points="561,-190 561,-220 686,-220 686,-190 561,-190"/>
<text text-anchor="start" x="569" y="-208" font-family="Helvetica,sans-Serif" font-size="10.00">vae::core::BankLoader</text>
<text text-anchor="middle" x="623.5" y="-197" font-family="Helvetica,sans-Serif" font-size="10.00">::load</text>
</a>
</g>
</g>
<!-- Node1&#45;&gt;Node2 -->
<g id="edge1" class="edge">
<title>Node1&#45;&gt;Node2</title>
<path fill="none" stroke="midnightblue" d="M932.59,-160.65C916.26,-172.5 892,-187.9 868,-195 808.06,-212.74 736.2,-213.33 686.14,-210.66"/>
<polygon fill="midnightblue" stroke="midnightblue" points="934.89,-163.31 940.8,-154.51 930.7,-157.7 934.89,-163.31"/>
</g>
<!-- Node7 -->
<g id="node7" class="node">
<title>Node7</title>
<g id="a_node7"><a xlink:href="classvae_1_1core_1_1_h_r_t_f_loader.html#a38e07107ad81acdbaed1ac6874978534" target="_top" xlink:title=" ">
<polygon fill="none" stroke="black" points="738,-106 738,-136 864,-136 864,-106 738,-106"/>
<text text-anchor="start" x="746" y="-124" font-family="Helvetica,sans-Serif" font-size="10.00">vae::core::HRTFLoader</text>
<text text-anchor="middle" x="801" y="-113" font-family="Helvetica,sans-Serif" font-size="10.00">::load</text>
</a>
</g>
</g>
<!-- Node1&#45;&gt;Node7 -->
<g id="edge7" class="edge">
<title>Node1&#45;&gt;Node7</title>
<path fill="none" stroke="midnightblue" d="M893.68,-135.62C883.97,-134.07 873.87,-132.46 864.08,-130.9"/>
<polygon fill="midnightblue" stroke="midnightblue" points="893.21,-139.09 903.64,-137.21 894.31,-132.18 893.21,-139.09"/>
</g>
<!-- Node11 -->
<g id="node11" class="node">
<title>Node11</title>
<g id="a_node11"><a xlink:href="structvae_1_1core_1_1_source_loader.html#a7b5866ab44cf2f34a15f3a62b40fe4f4" target="_top" xlink:title="Loads a wav file for the resource.">
<polygon fill="none" stroke="black" points="734,-155 734,-185 868,-185 868,-155 734,-155"/>
<text text-anchor="start" x="742" y="-173" font-family="Helvetica,sans-Serif" font-size="10.00">vae::core::SourceLoader</text>
<text text-anchor="middle" x="801" y="-162" font-family="Helvetica,sans-Serif" font-size="10.00">::load</text>
</a>
</g>
</g>
<!-- Node1&#45;&gt;Node11 -->
<g id="edge12" class="edge">
<title>Node1&#45;&gt;Node11</title>
<path fill="none" stroke="midnightblue" d="M893.61,-154.78C885.26,-156.17 876.61,-157.61 868.13,-159.01"/>
<polygon fill="midnightblue" stroke="midnightblue" points="894.35,-158.21 903.64,-153.12 893.2,-151.3 894.35,-158.21"/>
</g>
<!-- Node12 -->
<g id="node12" class="node">
<title>Node12</title>
<g id="a_node12"><a xlink:href="classtklb_1_1_string.html#a12a3df526b1df22b6fac627d71f8cfa6" target="_top" xlink:title=" ">
<polygon fill="none" stroke="black" points="755.5,-54.5 755.5,-73.5 846.5,-73.5 846.5,-54.5 755.5,-54.5"/>
<text text-anchor="middle" x="801" y="-61.5" font-family="Helvetica,sans-Serif" font-size="10.00">tklb::String::set</text>
</a>
</g>
</g>
<!-- Node1&#45;&gt;Node12 -->
<g id="edge14" class="edge">
<title>Node1&#45;&gt;Node12</title>
<path fill="none" stroke="midnightblue" d="M927.03,-130.06C910.36,-120.41 888.03,-107.69 868,-97 852.63,-88.8 834.96,-80 821.78,-73.55"/>
<polygon fill="midnightblue" stroke="midnightblue" points="925.72,-133.35 936.13,-135.36 929.24,-127.3 925.72,-133.35"/>
</g>
<!-- Node3 -->
<g id="node3" class="node">
<title>Node3</title>
<g id="a_node3"><a xlink:href="classvae_1_1core_1_1_bank_manager.html#a246219d73b46775ec119e704c758dd0b" target="_top" xlink:title=" ">
<polygon fill="none" stroke="black" points="379,-190 379,-220 513,-220 513,-190 379,-190"/>
<text text-anchor="start" x="387" y="-208" font-family="Helvetica,sans-Serif" font-size="10.00">vae::core::BankManager</text>
<text text-anchor="middle" x="446" y="-197" font-family="Helvetica,sans-Serif" font-size="10.00">::load</text>
</a>
</g>
</g>
<!-- Node2&#45;&gt;Node3 -->
<g id="edge2" class="edge">
<title>Node2&#45;&gt;Node3</title>
<path fill="none" stroke="midnightblue" d="M550.38,-205C538.03,-205 525.26,-205 513.08,-205"/>
<polygon fill="midnightblue" stroke="midnightblue" points="550.63,-208.5 560.63,-205 550.63,-201.5 550.63,-208.5"/>
</g>
<!-- Node3&#45;&gt;Node3 -->
<g id="edge3" class="edge">
<title>Node3&#45;&gt;Node3</title>
<path fill="none" stroke="midnightblue" d="M477.27,-230.46C473.39,-235.18 462.97,-238.5 446,-238.5 418.16,-238.5 407.93,-229.56 415.33,-220.16"/>
<polygon fill="midnightblue" stroke="midnightblue" points="480.75,-229.94 476.67,-220.16 473.76,-230.35 480.75,-229.94"/>
</g>
<!-- Node4 -->
<g id="node4" class="node">
<title>Node4</title>
<g id="a_node4"><a xlink:href="classvae_1_1core_1_1_engine.html#a97b644aa0736003315870a1e05620ac3" target="_top" xlink:title="Load bank from filesystem.">
<polygon fill="none" stroke="black" points="212.5,-190 212.5,-220 319.5,-220 319.5,-190 212.5,-190"/>
<text text-anchor="start" x="220.5" y="-208" font-family="Helvetica,sans-Serif" font-size="10.00">vae::core::Engine::</text>
<text text-anchor="middle" x="266" y="-197" font-family="Helvetica,sans-Serif" font-size="10.00">loadBank</text>
</a>
</g>
</g>
<!-- Node3&#45;&gt;Node4 -->
<g id="edge4" class="edge">
<title>Node3&#45;&gt;Node4</title>
<path fill="none" stroke="midnightblue" d="M368.75,-205C352.18,-205 335,-205 319.58,-205"/>
<polygon fill="midnightblue" stroke="midnightblue" points="368.97,-208.5 378.97,-205 368.97,-201.5 368.97,-208.5"/>
</g>
<!-- Node5 -->
<g id="node5" class="node">
<title>Node5</title>
<g id="a_node5"><a xlink:href="classvae_1_1_engine_pimpl.html#a1843b334cf225ba8b3f85c0c64fd78bb" target="_top" xlink:title="Load bank from filesystem.">
<polygon fill="none" stroke="black" points="0,-195.5 0,-214.5 153,-214.5 153,-195.5 0,-195.5"/>
<text text-anchor="middle" x="76.5" y="-202.5" font-family="Helvetica,sans-Serif" font-size="10.00">vae::EnginePimpl::loadBank</text>
</a>
</g>
</g>
<!-- Node4&#45;&gt;Node5 -->
<g id="edge5" class="edge">
<title>Node4&#45;&gt;Node5</title>
<path fill="none" stroke="midnightblue" d="M202.17,-205C186.49,-205 169.51,-205 153.27,-205"/>
<polygon fill="midnightblue" stroke="midnightblue" points="202.27,-208.5 212.27,-205 202.27,-201.5 202.27,-208.5"/>
</g>
<!-- Node6 -->
<g id="node6" class="node">
<title>Node6</title>
<g id="a_node6"><a xlink:href="main_8cpp.html#ae66f6b31b5ad750f1fe042a706a4e3d4" target="_top" xlink:title=" ">
<polygon fill="none" stroke="black" points="56,-154.5 56,-173.5 97,-173.5 97,-154.5 56,-154.5"/>
<text text-anchor="middle" x="76.5" y="-161.5" font-family="Helvetica,sans-Serif" font-size="10.00">main</text>
</a>
</g>
</g>
<!-- Node4&#45;&gt;Node6 -->
<g id="edge6" class="edge">
<title>Node4&#45;&gt;Node6</title>
<path fill="none" stroke="midnightblue" d="M202.16,-191.26C165.55,-183.25 121.85,-173.7 97.13,-168.29"/>
<polygon fill="midnightblue" stroke="midnightblue" points="201.75,-194.75 212.27,-193.47 203.25,-187.91 201.75,-194.75"/>
</g>
<!-- Node8 -->
<g id="node8" class="node">
<title>Node8</title>
<g id="a_node8"><a xlink:href="classvae_1_1core_1_1_spatial_processor.html#ad598b5dcbe8bed69fa6cb0b726170dd3" target="_top" xlink:title=" ">
<polygon fill="none" stroke="black" points="549,-115 549,-145 698,-145 698,-115 549,-115"/>
<text text-anchor="start" x="557" y="-133" font-family="Helvetica,sans-Serif" font-size="10.00">vae::core::SpatialProcessor</text>
<text text-anchor="middle" x="623.5" y="-122" font-family="Helvetica,sans-Serif" font-size="10.00">::loadHRTF</text>
</a>
</g>
</g>
<!-- Node7&#45;&gt;Node8 -->
<g id="edge8" class="edge">
<title>Node7&#45;&gt;Node8</title>
<path fill="none" stroke="midnightblue" d="M727.59,-124.71C717.84,-125.21 707.83,-125.73 698.07,-126.23"/>
<polygon fill="midnightblue" stroke="midnightblue" points="727.82,-128.21 737.63,-124.2 727.46,-121.22 727.82,-128.21"/>
</g>
<!-- Node9 -->
<g id="node9" class="node">
<title>Node9</title>
<g id="a_node9"><a xlink:href="classvae_1_1core_1_1_engine.html#a98bb7b9ed016675701fb91069fb1a066" target="_top" xlink:title=" ">
<polygon fill="none" stroke="black" points="392.5,-115 392.5,-145 499.5,-145 499.5,-115 392.5,-115"/>
<text text-anchor="start" x="400.5" y="-133" font-family="Helvetica,sans-Serif" font-size="10.00">vae::core::Engine::</text>
<text text-anchor="middle" x="446" y="-122" font-family="Helvetica,sans-Serif" font-size="10.00">loadHRTF</text>
</a>
</g>
</g>
<!-- Node8&#45;&gt;Node9 -->
<g id="edge9" class="edge">
<title>Node8&#45;&gt;Node9</title>
<path fill="none" stroke="midnightblue" d="M538.71,-130C525.41,-130 511.99,-130 499.68,-130"/>
<polygon fill="midnightblue" stroke="midnightblue" points="538.84,-133.5 548.84,-130 538.83,-126.5 538.84,-133.5"/>
</g>
<!-- Node9&#45;&gt;Node6 -->
<g id="edge11" class="edge">
<title>Node9&#45;&gt;Node6</title>
<path fill="none" stroke="midnightblue" d="M382.14,-137.74C369.21,-139.24 355.67,-140.73 343,-142 251.19,-151.2 141.23,-159.42 97.17,-162.6"/>
<polygon fill="midnightblue" stroke="midnightblue" points="382.84,-141.18 392.36,-136.54 382.02,-134.23 382.84,-141.18"/>
</g>
<!-- Node10 -->
<g id="node10" class="node">
<title>Node10</title>
<g id="a_node10"><a xlink:href="classvae_1_1_engine_pimpl.html#a27d216a0e4169074b38559d77b876748" target="_top" xlink:title=" ">
<polygon fill="none" stroke="black" points="189,-113.5 189,-132.5 343,-132.5 343,-113.5 189,-113.5"/>
<text text-anchor="middle" x="266" y="-120.5" font-family="Helvetica,sans-Serif" font-size="10.00">vae::EnginePimpl::loadHRTF</text>
</a>
</g>
</g>
<!-- Node9&#45;&gt;Node10 -->
<g id="edge10" class="edge">
<title>Node9&#45;&gt;Node10</title>
<path fill="none" stroke="midnightblue" d="M381.76,-127.51C369.25,-127.02 356,-126.5 343.11,-125.99"/>
<polygon fill="midnightblue" stroke="midnightblue" points="381.95,-131.02 392.08,-127.92 382.22,-124.03 381.95,-131.02"/>
</g>
<!-- Node11&#45;&gt;Node2 -->
<g id="edge13" class="edge">
<title>Node11&#45;&gt;Node2</title>
<path fill="none" stroke="midnightblue" d="M723.65,-185.23C711.08,-187.73 698.18,-190.31 686.03,-192.73"/>
<polygon fill="midnightblue" stroke="midnightblue" points="724.53,-188.62 733.65,-183.23 723.16,-181.76 724.53,-188.62"/>
</g>
<!-- Node13 -->
<g id="node13" class="node">
<title>Node13</title>
<g id="a_node13"><a xlink:href="string_8cpp.html#ae66f6b31b5ad750f1fe042a706a4e3d4" target="_top" xlink:title=" ">
<polygon fill="none" stroke="black" points="603,-76.5 603,-95.5 644,-95.5 644,-76.5 603,-76.5"/>
<text text-anchor="middle" x="623.5" y="-83.5" font-family="Helvetica,sans-Serif" font-size="10.00">main</text>
</a>
</g>
</g>
<!-- Node12&#45;&gt;Node13 -->
<g id="edge15" class="edge">
<title>Node12&#45;&gt;Node13</title>
<path fill="none" stroke="midnightblue" d="M744.9,-70.91C710.63,-75.2 668.6,-80.47 644.35,-83.51"/>
<polygon fill="midnightblue" stroke="midnightblue" points="745.77,-74.33 755.26,-69.61 744.9,-67.38 745.77,-74.33"/>
</g>
<!-- Node14 -->
<g id="node14" class="node">
<title>Node14</title>
<g id="a_node14"><a xlink:href="classtklb_1_1_string.html#aa1b45cab3f488453ab18a45f00b08d58" target="_top" xlink:title=" ">
<polygon fill="none" stroke="black" points="561,-38.5 561,-57.5 686,-57.5 686,-38.5 561,-38.5"/>
<text text-anchor="middle" x="623.5" y="-45.5" font-family="Helvetica,sans-Serif" font-size="10.00">tklb::String::operator=</text>
</a>
</g>
</g>
<!-- Node12&#45;&gt;Node14 -->
<g id="edge16" class="edge">
<title>Node12&#45;&gt;Node14</title>
<path fill="none" stroke="midnightblue" d="M745.11,-59C726.36,-57.29 705.28,-55.36 686.04,-53.61"/>
<polygon fill="midnightblue" stroke="midnightblue" points="744.98,-62.5 755.26,-59.92 745.62,-55.53 744.98,-62.5"/>
</g>
<!-- Node15 -->
<g id="node15" class="node">
<title>Node15</title>
<g id="a_node15"><a xlink:href="classtklb_1_1_string.html#a4ce72cce5adcb9dd450589006f1f9c85" target="_top" xlink:title=" ">
<polygon fill="none" stroke="black" points="571.5,-0.5 571.5,-19.5 675.5,-19.5 675.5,-0.5 571.5,-0.5"/>
<text text-anchor="middle" x="623.5" y="-7.5" font-family="Helvetica,sans-Serif" font-size="10.00">tklb::String::String</text>
</a>
</g>
</g>
<!-- Node12&#45;&gt;Node15 -->
<g id="edge17" class="edge">
<title>Node12&#45;&gt;Node15</title>
<path fill="none" stroke="midnightblue" d="M764.1,-50.92C744.65,-44.03 720.14,-35.65 698,-29 687.02,-25.7 675.01,-22.45 663.95,-19.6"/>
<polygon fill="midnightblue" stroke="midnightblue" points="763.17,-54.3 773.76,-54.37 765.52,-47.71 763.17,-54.3"/>
</g>
</g>
</svg>
