<?xml version="1.0" encoding="UTF-8" standalone="no"?>
<!DOCTYPE svg PUBLIC "-//W3C//DTD SVG 1.1//EN"
 "http://www.w3.org/Graphics/SVG/1.1/DTD/svg11.dtd">
<!-- Generated by graphviz version 2.50.0 (0)
 -->
<!-- Title: vae::core::Engine::update Pages: 1 -->
<svg width="653pt" height="356pt"
 viewBox="0.00 0.00 653.00 355.50" xmlns="http://www.w3.org/2000/svg" xmlns:xlink="http://www.w3.org/1999/xlink">
<g id="graph0" class="graph" transform="scale(1 1) rotate(0) translate(4 351.5)">
<title>vae::core::Engine::update</title>
<!-- Node1 -->
<g id="node1" class="node">
<title>Node1</title>
<g id="a_node1"><a xlink:title="Update function needs to be called regularly to handle outbound events and other housekeeping.">
<polygon fill="#bfbfbf" stroke="black" points="0,-147.5 0,-177.5 107,-177.5 107,-147.5 0,-147.5"/>
<text text-anchor="start" x="8" y="-165.5" font-family="Helvetica,sans-Serif" font-size="10.00">vae::core::Engine::</text>
<text text-anchor="middle" x="53.5" y="-154.5" font-family="Helvetica,sans-Serif" font-size="10.00">update</text>
</a>
</g>
</g>
<!-- Node2 -->
<g id="node2" class="node">
<title>Node2</title>
<g id="a_node2"><a xlink:href="classvae_1_1core_1_1_engine.html#a4721a2bf236efae669ee51ba148e193a" target="_top" xlink:title="Main mechanism to start and stop sounds.">
<polygon fill="none" stroke="black" points="161,-245.5 161,-275.5 268,-275.5 268,-245.5 161,-245.5"/>
<text text-anchor="start" x="169" y="-263.5" font-family="Helvetica,sans-Serif" font-size="10.00">vae::core::Engine::</text>
<text text-anchor="middle" x="214.5" y="-252.5" font-family="Helvetica,sans-Serif" font-size="10.00">fireEvent</text>
</a>
</g>
</g>
<!-- Node1&#45;&gt;Node2 -->
<g id="edge1" class="edge">
<title>Node1&#45;&gt;Node2</title>
<path fill="none" stroke="midnightblue" d="M69.18,-177.76C85.76,-194.24 114.2,-220.3 143,-236.5 146.08,-238.23 149.31,-239.87 152.61,-241.41"/>
<polygon fill="midnightblue" stroke="midnightblue" points="151.51,-244.75 162.08,-245.5 154.29,-238.32 151.51,-244.75"/>
</g>
<!-- Node4 -->
<g id="node4" class="node">
<title>Node4</title>
<g id="a_node4"><a xlink:href="classvae_1_1core_1_1_bank_manager.html#a4ec4afe30adb6e0108e799d26070a3a5" target="_top" xlink:title=" ">
<polygon fill="none" stroke="black" points="323,-328 323,-347 479,-347 479,-328 323,-328"/>
<text text-anchor="middle" x="401" y="-335" font-family="Helvetica,sans-Serif" font-size="10.00">vae::core::BankManager::get</text>
</a>
</g>
</g>
<!-- Node1&#45;&gt;Node4 -->
<g id="edge14" class="edge">
<title>Node1&#45;&gt;Node4</title>
<path fill="none" stroke="midnightblue" d="M59.1,-177.51C69.05,-207.18 95.58,-273.04 143,-303.5 192.98,-335.6 259.75,-343.64 312.7,-343.89"/>
<polygon fill="midnightblue" stroke="midnightblue" points="312.77,-347.39 322.75,-343.85 312.74,-340.39 312.77,-347.39"/>
</g>
<!-- Node12 -->
<g id="node12" class="node">
<title>Node12</title>
<g id="a_node12"><a xlink:href="classvae_1_1core_1_1_voice_manger.html#aa113e41a96ba78d05f6651f3920234e7" target="_top" xlink:title=" ">
<polygon fill="none" stroke="black" points="150,-196.5 150,-226.5 279,-226.5 279,-196.5 150,-196.5"/>
<text text-anchor="start" x="158" y="-214.5" font-family="Helvetica,sans-Serif" font-size="10.00">vae::core::VoiceManger</text>
<text text-anchor="middle" x="214.5" y="-203.5" font-family="Helvetica,sans-Serif" font-size="10.00">::forEachFinishedVoice</text>
</a>
</g>
</g>
<!-- Node1&#45;&gt;Node12 -->
<g id="edge13" class="edge">
<title>Node1&#45;&gt;Node12</title>
<path fill="none" stroke="midnightblue" d="M103.5,-177.6C119.75,-182.61 138,-188.23 154.89,-193.44"/>
<polygon fill="midnightblue" stroke="midnightblue" points="154.07,-196.85 164.66,-196.45 156.13,-190.16 154.07,-196.85"/>
</g>
<!-- Node13 -->
<g id="node13" class="node">
<title>Node13</title>
<g id="a_node13"><a xlink:href="classvae_1_1core_1_1_spatial_manager.html#afc5a2274a1d6098a64d6cb9d124bb7ed" target="_top" xlink:title=" ">
<polygon fill="none" stroke="black" points="143,-147.5 143,-177.5 286,-177.5 286,-147.5 143,-147.5"/>
<text text-anchor="start" x="151" y="-165.5" font-family="Helvetica,sans-Serif" font-size="10.00">vae::core::SpatialManager</text>
<text text-anchor="middle" x="214.5" y="-154.5" font-family="Helvetica,sans-Serif" font-size="10.00">::getEmitter</text>
</a>
</g>
</g>
<!-- Node1&#45;&gt;Node13 -->
<g id="edge15" class="edge">
<title>Node1&#45;&gt;Node13</title>
<path fill="none" stroke="midnightblue" d="M107,-162.5C115.26,-162.5 123.96,-162.5 132.68,-162.5"/>
<polygon fill="midnightblue" stroke="midnightblue" points="132.9,-166 142.9,-162.5 132.9,-159 132.9,-166"/>
</g>
<!-- Node14 -->
<g id="node14" class="node">
<title>Node14</title>
<g id="a_node14"><a xlink:href="classvae_1_1core_1_1_bank_manager.html#a5a3fbdf25cfbfa0f5a025a93c892927b" target="_top" xlink:title=" ">
<polygon fill="none" stroke="black" points="147.5,-98.5 147.5,-128.5 281.5,-128.5 281.5,-98.5 147.5,-98.5"/>
<text text-anchor="start" x="155.5" y="-116.5" font-family="Helvetica,sans-Serif" font-size="10.00">vae::core::BankManager</text>
<text text-anchor="middle" x="214.5" y="-105.5" font-family="Helvetica,sans-Serif" font-size="10.00">::lock</text>
</a>
</g>
</g>
<!-- Node1&#45;&gt;Node14 -->
<g id="edge16" class="edge">
<title>Node1&#45;&gt;Node14</title>
<path fill="none" stroke="midnightblue" d="M103.5,-147.4C119.75,-142.39 138,-136.77 154.89,-131.56"/>
<polygon fill="midnightblue" stroke="midnightblue" points="156.13,-134.84 164.66,-128.55 154.07,-128.15 156.13,-134.84"/>
</g>
<!-- Node15 -->
<g id="node15" class="node">
<title>Node15</title>
<g id="a_node15"><a xlink:href="classvae_1_1core_1_1_bank_manager.html#a33ded40dcd72a14c7988112528c72b65" target="_top" xlink:title=" ">
<polygon fill="none" stroke="black" points="147.5,-49.5 147.5,-79.5 281.5,-79.5 281.5,-49.5 147.5,-49.5"/>
<text text-anchor="start" x="155.5" y="-67.5" font-family="Helvetica,sans-Serif" font-size="10.00">vae::core::BankManager</text>
<text text-anchor="middle" x="214.5" y="-56.5" font-family="Helvetica,sans-Serif" font-size="10.00">::unlock</text>
</a>
</g>
</g>
<!-- Node1&#45;&gt;Node15 -->
<g id="edge17" class="edge">
<title>Node1&#45;&gt;Node15</title>
<path fill="none" stroke="midnightblue" d="M69.18,-147.24C85.76,-130.76 114.2,-104.7 143,-88.5 146.08,-86.77 149.31,-85.13 152.61,-83.59"/>
<polygon fill="midnightblue" stroke="midnightblue" points="154.29,-86.68 162.08,-79.5 151.51,-80.25 154.29,-86.68"/>
</g>
<!-- Node16 -->
<g id="node16" class="node">
<title>Node16</title>
<g id="a_node16"><a xlink:href="classvae_1_1core_1_1_spatial_manager.html#af36db06e14d8661f0bf637a1d5382adb" target="_top" xlink:title=" ">
<polygon fill="none" stroke="black" points="143,-0.5 143,-30.5 286,-30.5 286,-0.5 143,-0.5"/>
<text text-anchor="start" x="151" y="-18.5" font-family="Helvetica,sans-Serif" font-size="10.00">vae::core::SpatialManager</text>
<text text-anchor="middle" x="214.5" y="-7.5" font-family="Helvetica,sans-Serif" font-size="10.00">::update</text>
</a>
</g>
</g>
<!-- Node1&#45;&gt;Node16 -->
<g id="edge18" class="edge">
<title>Node1&#45;&gt;Node16</title>
<path fill="none" stroke="midnightblue" d="M61.5,-147.31C74.16,-121.48 103.26,-68.94 143,-39.5 144.86,-38.12 146.8,-36.82 148.8,-35.59"/>
<polygon fill="midnightblue" stroke="midnightblue" points="150.81,-38.49 157.94,-30.65 147.48,-32.33 150.81,-38.49"/>
</g>
<!-- Node2&#45;&gt;Node2 -->
<g id="edge2" class="edge">
<title>Node2&#45;&gt;Node2</title>
<path fill="none" stroke="midnightblue" d="M186.62,-275.66C179.89,-285.06 189.19,-294 214.5,-294 229.92,-294 239.4,-290.68 242.93,-285.96"/>
<polygon fill="midnightblue" stroke="midnightblue" points="246.41,-285.46 242.38,-275.66 239.42,-285.83 246.41,-285.46"/>
</g>
<!-- Node3 -->
<g id="node3" class="node">
<title>Node3</title>
<g id="a_node3"><a xlink:href="classvae_1_1core_1_1_spatial_manager.html#addd80ecf83e30b0814eaee82ae7bd700" target="_top" xlink:title=" ">
<polygon fill="none" stroke="black" points="329.5,-49.5 329.5,-79.5 472.5,-79.5 472.5,-49.5 329.5,-49.5"/>
<text text-anchor="start" x="337.5" y="-67.5" font-family="Helvetica,sans-Serif" font-size="10.00">vae::core::SpatialManager</text>
<text text-anchor="middle" x="401" y="-56.5" font-family="Helvetica,sans-Serif" font-size="10.00">::forListeners</text>
</a>
</g>
</g>
<!-- Node2&#45;&gt;Node3 -->
<g id="edge3" class="edge">
<title>Node2&#45;&gt;Node3</title>
<path fill="none" stroke="midnightblue" d="M268.31,-248.62C274.83,-245.48 280.96,-241.52 286,-236.5 320.68,-202 294.64,-173.05 322,-132.5 334.29,-114.28 352.65,-97.94 368.47,-85.85"/>
<polygon fill="midnightblue" stroke="midnightblue" points="370.98,-88.35 376.94,-79.59 366.82,-82.72 370.98,-88.35"/>
</g>
<!-- Node2&#45;&gt;Node4 -->
<g id="edge4" class="edge">
<title>Node2&#45;&gt;Node4</title>
<path fill="none" stroke="midnightblue" d="M239.17,-275.73C260.2,-288.68 292.15,-306.96 322,-318.5 328.46,-321 335.36,-323.24 342.27,-325.24"/>
<polygon fill="midnightblue" stroke="midnightblue" points="341.8,-328.74 352.37,-327.98 343.64,-321.98 341.8,-328.74"/>
</g>
<!-- Node5 -->
<g id="node5" class="node">
<title>Node5</title>
<g id="a_node5"><a xlink:href="classvae_1_1core_1_1_bank_manager.html#aef2d335fb63d6f4be9f5b4793e309c99" target="_top" xlink:title=" ">
<polygon fill="none" stroke="black" points="322,-290 322,-309 480,-309 480,-290 322,-290"/>
<text text-anchor="middle" x="401" y="-297" font-family="Helvetica,sans-Serif" font-size="10.00">vae::core::BankManager::has</text>
</a>
</g>
</g>
<!-- Node2&#45;&gt;Node5 -->
<g id="edge5" class="edge">
<title>Node2&#45;&gt;Node5</title>
<path fill="none" stroke="midnightblue" d="M268.37,-271.68C292.32,-276.74 320.62,-282.72 344.83,-287.84"/>
<polygon fill="midnightblue" stroke="midnightblue" points="344.43,-291.33 354.94,-289.97 345.88,-284.48 344.43,-291.33"/>
</g>
<!-- Node6 -->
<g id="node6" class="node">
<title>Node6</title>
<g id="a_node6"><a xlink:href="classvae_1_1core_1_1_spatial_manager.html#a8223349a8417dbd972f9979618849a4e" target="_top" xlink:title=" ">
<polygon fill="none" stroke="black" points="329.5,-240.5 329.5,-270.5 472.5,-270.5 472.5,-240.5 329.5,-240.5"/>
<text text-anchor="start" x="337.5" y="-258.5" font-family="Helvetica,sans-Serif" font-size="10.00">vae::core::SpatialManager</text>
<text text-anchor="middle" x="401" y="-247.5" font-family="Helvetica,sans-Serif" font-size="10.00">::hasEmitter</text>
</a>
</g>
</g>
<!-- Node2&#45;&gt;Node6 -->
<g id="edge6" class="edge">
<title>Node2&#45;&gt;Node6</title>
<path fill="none" stroke="midnightblue" d="M268.37,-259.07C284.21,-258.64 301.97,-258.16 319.18,-257.69"/>
<polygon fill="midnightblue" stroke="midnightblue" points="319.33,-261.19 329.23,-257.42 319.14,-254.19 319.33,-261.19"/>
</g>
<!-- Node7 -->
<g id="node7" class="node">
<title>Node7</title>
<g id="a_node7"><a xlink:href="classvae_1_1core_1_1_voice_manger.html#a56795adf1dfc9e96a8ef00fba1ae03ca" target="_top" xlink:title=" ">
<polygon fill="none" stroke="black" points="336.5,-191.5 336.5,-221.5 465.5,-221.5 465.5,-191.5 336.5,-191.5"/>
<text text-anchor="start" x="344.5" y="-209.5" font-family="Helvetica,sans-Serif" font-size="10.00">vae::core::VoiceManger</text>
<text text-anchor="middle" x="401" y="-198.5" font-family="Helvetica,sans-Serif" font-size="10.00">::play</text>
</a>
</g>
</g>
<!-- Node2&#45;&gt;Node7 -->
<g id="edge7" class="edge">
<title>Node2&#45;&gt;Node7</title>
<path fill="none" stroke="midnightblue" d="M266.89,-245.46C289.19,-238.93 315.48,-231.24 338.78,-224.42"/>
<polygon fill="midnightblue" stroke="midnightblue" points="339.95,-227.72 348.56,-221.55 337.98,-221 339.95,-227.72"/>
</g>
<!-- Node10 -->
<g id="node10" class="node">
<title>Node10</title>
<g id="a_node10"><a xlink:href="classvae_1_1core_1_1_voice_manger.html#a51b077f535b7eebcc1e62d5ca5a0d95d" target="_top" xlink:title="Stops a voice.">
<polygon fill="none" stroke="black" points="336.5,-142.5 336.5,-172.5 465.5,-172.5 465.5,-142.5 336.5,-142.5"/>
<text text-anchor="start" x="344.5" y="-160.5" font-family="Helvetica,sans-Serif" font-size="10.00">vae::core::VoiceManger</text>
<text text-anchor="middle" x="401" y="-149.5" font-family="Helvetica,sans-Serif" font-size="10.00">::stop</text>
</a>
</g>
</g>
<!-- Node2&#45;&gt;Node10 -->
<g id="edge10" class="edge">
<title>Node2&#45;&gt;Node10</title>
<path fill="none" stroke="midnightblue" d="M268.3,-246.88C274.6,-244.02 280.67,-240.6 286,-236.5 308.87,-218.92 298.98,-199.88 322,-182.5 324.47,-180.63 327.09,-178.9 329.81,-177.3"/>
<polygon fill="midnightblue" stroke="midnightblue" points="331.56,-180.34 338.79,-172.6 328.31,-174.13 331.56,-180.34"/>
</g>
<!-- Node8 -->
<g id="node8" class="node">
<title>Node8</title>
<g id="a_node8"><a xlink:href="classvae_1_1core_1_1_voice_manger.html#aca4814fa5ec2f09d38c7b15e92ce0cad" target="_top" xlink:title="makes provided voice virtual">
<polygon fill="none" stroke="black" points="516,-210.5 516,-240.5 645,-240.5 645,-210.5 516,-210.5"/>
<text text-anchor="start" x="524" y="-228.5" font-family="Helvetica,sans-Serif" font-size="10.00">vae::core::VoiceManger</text>
<text text-anchor="middle" x="580.5" y="-217.5" font-family="Helvetica,sans-Serif" font-size="10.00">::makeVirtual</text>
</a>
</g>
</g>
<!-- Node7&#45;&gt;Node8 -->
<g id="edge8" class="edge">
<title>Node7&#45;&gt;Node8</title>
<path fill="none" stroke="midnightblue" d="M465.58,-213.31C478.58,-214.7 492.37,-216.17 505.69,-217.6"/>
<polygon fill="midnightblue" stroke="midnightblue" points="505.45,-221.09 515.77,-218.68 506.2,-214.13 505.45,-221.09"/>
</g>
<!-- Node9 -->
<g id="node9" class="node">
<title>Node9</title>
<g id="a_node9"><a xlink:href="namespacetklb.html#a7dc2203e89c331e3c85b9e7f16fa6763" target="_top" xlink:title=" ">
<polygon fill="none" stroke="black" points="549,-172 549,-191 612,-191 612,-172 549,-172"/>
<text text-anchor="middle" x="580.5" y="-179" font-family="Helvetica,sans-Serif" font-size="10.00">tklb::max</text>
</a>
</g>
</g>
<!-- Node7&#45;&gt;Node9 -->
<g id="edge9" class="edge">
<title>Node7&#45;&gt;Node9</title>
<path fill="none" stroke="midnightblue" d="M465.58,-197.55C489.86,-194.13 516.88,-190.32 538.51,-187.27"/>
<polygon fill="midnightblue" stroke="midnightblue" points="539.24,-190.7 548.65,-185.84 538.26,-183.77 539.24,-190.7"/>
</g>
<!-- Node10&#45;&gt;Node9 -->
<g id="edge12" class="edge">
<title>Node10&#45;&gt;Node9</title>
<path fill="none" stroke="midnightblue" d="M465.58,-166.1C489.86,-169.38 516.88,-173.03 538.51,-175.96"/>
<polygon fill="midnightblue" stroke="midnightblue" points="538.28,-179.46 548.65,-177.33 539.21,-172.52 538.28,-179.46"/>
</g>
<!-- Node11 -->
<g id="node11" class="node">
<title>Node11</title>
<g id="a_node11"><a xlink:href="classvae_1_1core_1_1_voice_manger.html#abe6b6d5a07c73e1e194f24314226a19f" target="_top" xlink:title=" ">
<polygon fill="none" stroke="black" points="516,-122.5 516,-152.5 645,-152.5 645,-122.5 516,-122.5"/>
<text text-anchor="start" x="524" y="-140.5" font-family="Helvetica,sans-Serif" font-size="10.00">vae::core::VoiceManger</text>
<text text-anchor="middle" x="580.5" y="-129.5" font-family="Helvetica,sans-Serif" font-size="10.00">::finished</text>
</a>
</g>
</g>
<!-- Node10&#45;&gt;Node11 -->
<g id="edge11" class="edge">
<title>Node10&#45;&gt;Node11</title>
<path fill="none" stroke="midnightblue" d="M465.58,-150.34C478.58,-148.87 492.37,-147.32 505.69,-145.82"/>
<polygon fill="midnightblue" stroke="midnightblue" points="506.22,-149.28 515.77,-144.68 505.44,-142.32 506.22,-149.28"/>
</g>
<!-- Node16&#45;&gt;Node3 -->
<g id="edge19" class="edge">
<title>Node16&#45;&gt;Node3</title>
<path fill="none" stroke="midnightblue" d="M272.11,-30.53C291.59,-35.71 313.58,-41.55 333.76,-46.91"/>
<polygon fill="midnightblue" stroke="midnightblue" points="332.93,-50.31 343.5,-49.49 334.73,-43.54 332.93,-50.31"/>
</g>
</g>
</svg>
