<?xml version="1.0" encoding="UTF-8" standalone="no"?>
<!DOCTYPE svg PUBLIC "-//W3C//DTD SVG 1.1//EN"
 "http://www.w3.org/Graphics/SVG/1.1/DTD/svg11.dtd">
<!-- Generated by graphviz version 2.50.0 (0)
 -->
<!-- Title: vae::core::BankManager::load Pages: 1 -->
<!--zoomable 337 -->
<svg id="main" version="1.1" xmlns="http://www.w3.org/2000/svg" xmlns:xlink="http://www.w3.org/1999/xlink" xml:space="preserve" onload="init(evt)">
<style type="text/css"><![CDATA[
.edge:hover path { stroke: red; }
.edge:hover polygon { stroke: red; fill: red; }
]]></style>
<script type="text/javascript"><![CDATA[
var edges = document.getElementsByTagName('g');
if (edges && edges.length) {
  for (var i=0;i<edges.length;i++) {
    if (edges[i].id.substr(0,4)=='edge') {
      edges[i].setAttribute('class','edge');
    }
  }
}
]]></script>
        <defs>
                <circle id="rim" cx="0" cy="0" r="7"/>
                <circle id="rim2" cx="0" cy="0" r="3.5"/>
                <g id="zoomPlus">
                        <use xlink:href="#rim" fill="#404040">
                                <set attributeName="fill" to="#808080" begin="zoomplus.mouseover" end="zoomplus.mouseout"/>
                        </use>
                        <path d="M-4,0h8M0,-4v8" fill="none" stroke="white" stroke-width="1.5" pointer-events="none"/>
                </g>
                <g id="zoomMin">
                        <use xlink:href="#rim" fill="#404040">
                                <set attributeName="fill" to="#808080" begin="zoomminus.mouseover" end="zoomminus.mouseout"/>
                        </use>
                        <path d="M-4,0h8" fill="none" stroke="white" stroke-width="1.5" pointer-events="none"/>
                </g>
                <g id="dirArrow">
                        <path fill="none" stroke="white" stroke-width="1.5" d="M0,-3.0v7 M-2.5,-0.5L0,-3.0L2.5,-0.5"/>
                </g>
               <g id="resetDef">
                       <use xlink:href="#rim2" fill="#404040">
                               <set attributeName="fill" to="#808080" begin="reset.mouseover" end="reset.mouseout"/>
                       </use>
               </g>
        </defs>

<script type="text/javascript">
var viewWidth = 842;
var viewHeight = 337;
var sectionId = 'dynsection-13';
</script>
<script xlink:href="svgpan.js"/>
<svg id="graph" class="graph">
<g id="viewport">
<title>vae::core::BankManager::load</title>
<!-- Node1 -->
<g id="node1" class="node">
<title>Node1</title>
<g id="a_node1"><a xlink:title=" ">
<polygon fill="#bfbfbf" stroke="black" points="0,-229 0,-259 134,-259 134,-229 0,-229"/>
<text text-anchor="start" x="8" y="-247" font-family="Helvetica,sans-Serif" font-size="10.00">vae::core::BankManager</text>
<text text-anchor="middle" x="67" y="-236" font-family="Helvetica,sans-Serif" font-size="10.00">::load</text>
</a>
</g>
</g>
<!-- Node2 -->
<g id="node2" class="node">
<title>Node2</title>
<g id="a_node2"><a xlink:href="classvae_1_1core_1_1_bank_manager.html#a2e7de1d8768b886383a38377dbfeeb0d" target="_top" xlink:title=" ">
<polygon fill="none" stroke="black" points="172.5,-273 172.5,-303 306.5,-303 306.5,-273 172.5,-273"/>
<text text-anchor="start" x="180.5" y="-291" font-family="Helvetica,sans-Serif" font-size="10.00">vae::core::BankManager</text>
<text text-anchor="middle" x="239.5" y="-280" font-family="Helvetica,sans-Serif" font-size="10.00">::initMixer</text>
</a>
</g>
</g>
<!-- Node1&#45;&gt;Node2 -->
<g id="edge1" class="edge">
<title>Node1&#45;&gt;Node2</title>
<path fill="none" stroke="midnightblue" d="M126.2,-259.02C140.39,-262.68 155.69,-266.63 170.29,-270.4"/>
<polygon fill="midnightblue" stroke="midnightblue" points="169.72,-273.86 180.27,-272.97 171.47,-267.09 169.72,-273.86"/>
</g>
<!-- Node5 -->
<g id="node5" class="node">
<title>Node5</title>
<g id="a_node5"><a xlink:href="classtklb_1_1_resampler_speex_tpl.html#aafe03dda374652f23a8020a7f975b8b4" target="_top" xlink:title="Resamples the provided buffer from its sampleRate to the target rate.">
<polygon fill="none" stroke="black" points="170,-205 170,-235 309,-235 309,-205 170,-205"/>
<text text-anchor="start" x="178" y="-223" font-family="Helvetica,sans-Serif" font-size="10.00">tklb::ResamplerSpeexTpl</text>
<text text-anchor="middle" x="239.5" y="-212" font-family="Helvetica,sans-Serif" font-size="10.00">::resample</text>
</a>
</g>
</g>
<!-- Node1&#45;&gt;Node5 -->
<g id="edge4" class="edge">
<title>Node1&#45;&gt;Node5</title>
<path fill="none" stroke="midnightblue" d="M134.41,-234.65C142.74,-233.48 151.33,-232.27 159.83,-231.07"/>
<polygon fill="midnightblue" stroke="midnightblue" points="160.33,-234.54 169.74,-229.68 159.35,-227.61 160.33,-234.54"/>
</g>
<!-- Node3 -->
<g id="node3" class="node">
<title>Node3</title>
<g id="a_node3"><a xlink:href="classvae_1_1core_1_1effect_1_1_effects_factory.html#ace857f89f07cd4b9d13eb6814425180e" target="_top" xlink:title=" ">
<polygon fill="none" stroke="black" points="353.5,-295 353.5,-325 475.5,-325 475.5,-295 353.5,-295"/>
<text text-anchor="start" x="361.5" y="-313" font-family="Helvetica,sans-Serif" font-size="10.00">vae::core::effect::</text>
<text text-anchor="middle" x="414.5" y="-302" font-family="Helvetica,sans-Serif" font-size="10.00">EffectsFactory::create</text>
</a>
</g>
</g>
<!-- Node2&#45;&gt;Node3 -->
<g id="edge2" class="edge">
<title>Node2&#45;&gt;Node3</title>
<path fill="none" stroke="midnightblue" d="M306.89,-296.44C318.8,-297.96 331.25,-299.54 343.27,-301.07"/>
<polygon fill="midnightblue" stroke="midnightblue" points="342.87,-304.55 353.24,-302.34 343.76,-297.6 342.87,-304.55"/>
</g>
<!-- Node4 -->
<g id="node4" class="node">
<title>Node4</title>
<g id="a_node4"><a xlink:href="classvae_1_1core_1_1effect_1_1_effects_list.html#abfa6014cdb73bfddb689127450a0707d" target="_top" xlink:title=" ">
<polygon fill="none" stroke="black" points="532,-298 532,-328 647,-328 647,-298 532,-298"/>
<text text-anchor="start" x="540" y="-316" font-family="Helvetica,sans-Serif" font-size="10.00">vae::core::effect::</text>
<text text-anchor="middle" x="589.5" y="-305" font-family="Helvetica,sans-Serif" font-size="10.00">EffectsList::instance</text>
</a>
</g>
</g>
<!-- Node3&#45;&gt;Node4 -->
<g id="edge3" class="edge">
<title>Node3&#45;&gt;Node4</title>
<path fill="none" stroke="midnightblue" d="M475.52,-311.04C490.35,-311.3 506.33,-311.58 521.46,-311.84"/>
<polygon fill="midnightblue" stroke="midnightblue" points="521.73,-315.34 531.79,-312.02 521.85,-308.34 521.73,-315.34"/>
</g>
<!-- Node6 -->
<g id="node6" class="node">
<title>Node6</title>
<g id="a_node6"><a xlink:href="classtklb_1_1_resampler_speex_tpl.html#a65864672c63ce1be9a251232504d8dce" target="_top" xlink:title="Calculate a buffersize fit for the resampled result.">
<polygon fill="none" stroke="black" points="520,-249 520,-279 659,-279 659,-249 520,-249"/>
<text text-anchor="start" x="528" y="-267" font-family="Helvetica,sans-Serif" font-size="10.00">tklb::ResamplerSpeexTpl</text>
<text text-anchor="middle" x="589.5" y="-256" font-family="Helvetica,sans-Serif" font-size="10.00">::calculateBufferSize</text>
</a>
</g>
</g>
<!-- Node5&#45;&gt;Node6 -->
<g id="edge5" class="edge">
<title>Node5&#45;&gt;Node6</title>
<path fill="none" stroke="midnightblue" d="M296.31,-235.06C311.96,-238.82 329.06,-242.49 345,-245 399.75,-253.63 462.06,-258.4 509.95,-261"/>
<polygon fill="midnightblue" stroke="midnightblue" points="509.77,-264.5 519.94,-261.53 510.14,-257.51 509.77,-264.5"/>
</g>
<!-- Node8 -->
<g id="node8" class="node">
<title>Node8</title>
<g id="a_node8"><a xlink:href="namespacetklb_1_1memory.html#ab89ec197028f903f4ea125eae46c4a10" target="_top" xlink:title="memcpy wrapper">
<polygon fill="none" stroke="black" points="708.5,-0.5 708.5,-19.5 820.5,-19.5 820.5,-0.5 708.5,-0.5"/>
<text text-anchor="middle" x="764.5" y="-7.5" font-family="Helvetica,sans-Serif" font-size="10.00">tklb::memory::copy</text>
</a>
</g>
</g>
<!-- Node5&#45;&gt;Node8 -->
<g id="edge7" class="edge">
<title>Node5&#45;&gt;Node8</title>
<path fill="none" stroke="midnightblue" d="M256.88,-204.97C297.68,-168.59 408.56,-75.89 520,-37 578.04,-16.74 648.17,-10.75 698.23,-9.38"/>
<polygon fill="midnightblue" stroke="midnightblue" points="698.36,-12.88 708.28,-9.16 698.2,-5.88 698.36,-12.88"/>
</g>
<!-- Node9 -->
<g id="node9" class="node">
<title>Node9</title>
<g id="a_node9"><a xlink:href="classtklb_1_1_resampler_speex_tpl.html#a7bab4da85cc386c5d34cf8ced0bd1092" target="_top" xlink:title="setup the resampler">
<polygon fill="none" stroke="black" points="345,-205 345,-235 484,-235 484,-205 345,-205"/>
<text text-anchor="start" x="353" y="-223" font-family="Helvetica,sans-Serif" font-size="10.00">tklb::ResamplerSpeexTpl</text>
<text text-anchor="middle" x="414.5" y="-212" font-family="Helvetica,sans-Serif" font-size="10.00">::init</text>
</a>
</g>
</g>
<!-- Node5&#45;&gt;Node9 -->
<g id="edge8" class="edge">
<title>Node5&#45;&gt;Node9</title>
<path fill="none" stroke="midnightblue" d="M309.37,-220C317.68,-220 326.21,-220 334.65,-220"/>
<polygon fill="midnightblue" stroke="midnightblue" points="334.87,-223.5 344.87,-220 334.87,-216.5 334.87,-223.5"/>
</g>
<!-- Node14 -->
<g id="node14" class="node">
<title>Node14</title>
<g id="a_node14"><a xlink:href="classtklb_1_1_resampler_speex_tpl.html#ad536684ea5e815d1dd7d967127ecfb95" target="_top" xlink:title="Resample function Make sure the out buffer has enough space.">
<polygon fill="none" stroke="black" points="345,-156 345,-186 484,-186 484,-156 345,-156"/>
<text text-anchor="start" x="353" y="-174" font-family="Helvetica,sans-Serif" font-size="10.00">tklb::ResamplerSpeexTpl</text>
<text text-anchor="middle" x="414.5" y="-163" font-family="Helvetica,sans-Serif" font-size="10.00">::process</text>
</a>
</g>
</g>
<!-- Node5&#45;&gt;Node14 -->
<g id="edge14" class="edge">
<title>Node5&#45;&gt;Node14</title>
<path fill="none" stroke="midnightblue" d="M293.82,-204.9C311.74,-199.82 331.91,-194.11 350.51,-188.84"/>
<polygon fill="midnightblue" stroke="midnightblue" points="351.69,-192.14 360.36,-186.05 349.78,-185.41 351.69,-192.14"/>
</g>
<!-- Node7 -->
<g id="node7" class="node">
<title>Node7</title>
<g id="a_node7"><a xlink:href="classtklb_1_1_resampler_speex_tpl.html#a5b4b65f32dbcec425871cc26384d4643" target="_top" xlink:title="Estimate how many sample will be emitted in the next step.">
<polygon fill="none" stroke="black" points="695,-230 695,-260 834,-260 834,-230 695,-230"/>
<text text-anchor="start" x="703" y="-248" font-family="Helvetica,sans-Serif" font-size="10.00">tklb::ResamplerSpeexTpl</text>
<text text-anchor="middle" x="764.5" y="-237" font-family="Helvetica,sans-Serif" font-size="10.00">::estimateOut</text>
</a>
</g>
</g>
<!-- Node6&#45;&gt;Node7 -->
<g id="edge6" class="edge">
<title>Node6&#45;&gt;Node7</title>
<path fill="none" stroke="midnightblue" d="M659.37,-256.44C667.77,-255.51 676.4,-254.57 684.92,-253.63"/>
<polygon fill="midnightblue" stroke="midnightblue" points="685.31,-257.11 694.87,-252.54 684.54,-250.15 685.31,-257.11"/>
</g>
<!-- Node9&#45;&gt;Node6 -->
<g id="edge9" class="edge">
<title>Node9&#45;&gt;Node6</title>
<path fill="none" stroke="midnightblue" d="M474.55,-235.02C489.09,-238.72 504.77,-242.71 519.72,-246.51"/>
<polygon fill="midnightblue" stroke="midnightblue" points="518.87,-249.9 529.42,-248.97 520.59,-243.12 518.87,-249.9"/>
</g>
<!-- Node10 -->
<g id="node10" class="node">
<title>Node10</title>
<g id="a_node10"><a xlink:href="classtklb_1_1_audio_buffer_tpl.html#a35b40f6d6b1fc2939613b1b84313b0bc" target="_top" xlink:title="! Will not keep the contents! Resizes the buffer to the desired length and channel count.">
<polygon fill="none" stroke="black" points="532.5,-123 532.5,-153 646.5,-153 646.5,-123 532.5,-123"/>
<text text-anchor="start" x="540.5" y="-141" font-family="Helvetica,sans-Serif" font-size="10.00">tklb::AudioBufferTpl</text>
<text text-anchor="middle" x="589.5" y="-130" font-family="Helvetica,sans-Serif" font-size="10.00">::resize</text>
</a>
</g>
</g>
<!-- Node9&#45;&gt;Node10 -->
<g id="edge10" class="edge">
<title>Node9&#45;&gt;Node10</title>
<path fill="none" stroke="midnightblue" d="M461.98,-204.92C469.43,-202.16 476.99,-199.15 484,-196 508.62,-184.95 535.2,-170.15 555.4,-158.27"/>
<polygon fill="midnightblue" stroke="midnightblue" points="557.39,-161.16 564.19,-153.04 553.81,-155.14 557.39,-161.16"/>
</g>
<!-- Node11 -->
<g id="node11" class="node">
<title>Node11</title>
<g id="a_node11"><a xlink:href="classtklb_1_1_audio_buffer_tpl.html#a7859b26033cbb893c2ea7acea54d8013" target="_top" xlink:title="Returns the amount of channels.">
<polygon fill="none" stroke="black" points="707.5,-126 707.5,-156 821.5,-156 821.5,-126 707.5,-126"/>
<text text-anchor="start" x="715.5" y="-144" font-family="Helvetica,sans-Serif" font-size="10.00">tklb::AudioBufferTpl</text>
<text text-anchor="middle" x="764.5" y="-133" font-family="Helvetica,sans-Serif" font-size="10.00">::channels</text>
</a>
</g>
</g>
<!-- Node10&#45;&gt;Node11 -->
<g id="edge11" class="edge">
<title>Node10&#45;&gt;Node11</title>
<path fill="none" stroke="midnightblue" d="M646.67,-138.97C662.76,-139.25 680.46,-139.56 697.11,-139.85"/>
<polygon fill="midnightblue" stroke="midnightblue" points="697.26,-143.35 707.32,-140.03 697.38,-136.35 697.26,-143.35"/>
</g>
<!-- Node12 -->
<g id="node12" class="node">
<title>Node12</title>
<g id="a_node12"><a xlink:href="namespacetklb.html#a3080595da18d742645ec41d61828a426" target="_top" xlink:title=" ">
<polygon fill="none" stroke="black" points="734.5,-175.5 734.5,-194.5 794.5,-194.5 794.5,-175.5 734.5,-175.5"/>
<text text-anchor="middle" x="764.5" y="-182.5" font-family="Helvetica,sans-Serif" font-size="10.00">tklb::min</text>
</a>
</g>
</g>
<!-- Node10&#45;&gt;Node12 -->
<g id="edge12" class="edge">
<title>Node10&#45;&gt;Node12</title>
<path fill="none" stroke="midnightblue" d="M645.71,-153C671.38,-159.97 701.3,-168.1 724.56,-174.42"/>
<polygon fill="midnightblue" stroke="midnightblue" points="723.85,-177.85 734.41,-177.1 725.68,-171.1 723.85,-177.85"/>
</g>
<!-- Node13 -->
<g id="node13" class="node">
<title>Node13</title>
<g id="a_node13"><a xlink:href="classtklb_1_1_audio_buffer_tpl.html#af6df8d7e6840eee3f84807bd1662c3ed" target="_top" xlink:title="Returns the allocated length of the buffer.">
<polygon fill="none" stroke="black" points="707.5,-77 707.5,-107 821.5,-107 821.5,-77 707.5,-77"/>
<text text-anchor="start" x="715.5" y="-95" font-family="Helvetica,sans-Serif" font-size="10.00">tklb::AudioBufferTpl</text>
<text text-anchor="middle" x="764.5" y="-84" font-family="Helvetica,sans-Serif" font-size="10.00">::size</text>
</a>
</g>
</g>
<!-- Node10&#45;&gt;Node13 -->
<g id="edge13" class="edge">
<title>Node10&#45;&gt;Node13</title>
<path fill="none" stroke="midnightblue" d="M646.67,-123.07C662.92,-118.74 680.8,-113.99 697.58,-109.53"/>
<polygon fill="midnightblue" stroke="midnightblue" points="698.55,-112.89 707.32,-106.94 696.75,-106.13 698.55,-112.89"/>
</g>
<!-- Node14&#45;&gt;Node7 -->
<g id="edge15" class="edge">
<title>Node14&#45;&gt;Node7</title>
<path fill="none" stroke="midnightblue" d="M484.25,-185.62C542.05,-197.91 624.65,-215.47 685.02,-228.31"/>
<polygon fill="midnightblue" stroke="midnightblue" points="684.38,-231.75 694.89,-230.41 685.84,-224.91 684.38,-231.75"/>
</g>
<!-- Node14&#45;&gt;Node12 -->
<g id="edge16" class="edge">
<title>Node14&#45;&gt;Node12</title>
<path fill="none" stroke="midnightblue" d="M484.25,-173.77C555.86,-176.65 665.56,-181.06 723.86,-183.41"/>
<polygon fill="midnightblue" stroke="midnightblue" points="724,-186.91 734.13,-183.82 724.28,-179.92 724,-186.91"/>
</g>
<!-- Node14&#45;&gt;Node13 -->
<g id="edge22" class="edge">
<title>Node14&#45;&gt;Node13</title>
<path fill="none" stroke="midnightblue" d="M436.32,-155.96C456.6,-142.17 488.84,-122.51 520,-113 578.09,-95.26 647.34,-90.8 697.12,-90.3"/>
<polygon fill="midnightblue" stroke="midnightblue" points="697.14,-93.8 707.12,-90.26 697.1,-86.8 697.14,-93.8"/>
</g>
<!-- Node15 -->
<g id="node15" class="node">
<title>Node15</title>
<g id="a_node15"><a xlink:href="classtklb_1_1_audio_buffer_tpl.html#ab6e5250746ca3784a568591a3ffdbc12" target="_top" xlink:title="Set a single channel from an array.">
<polygon fill="none" stroke="black" points="522,-46.5 522,-65.5 657,-65.5 657,-46.5 522,-46.5"/>
<text text-anchor="middle" x="589.5" y="-53.5" font-family="Helvetica,sans-Serif" font-size="10.00">tklb::AudioBufferTpl::set</text>
</a>
</g>
</g>
<!-- Node14&#45;&gt;Node15 -->
<g id="edge17" class="edge">
<title>Node14&#45;&gt;Node15</title>
<path fill="none" stroke="midnightblue" d="M429.33,-155.79C448.14,-135.92 483.61,-101.16 520,-80 527.36,-75.72 535.61,-72.03 543.76,-68.91"/>
<polygon fill="midnightblue" stroke="midnightblue" points="544.99,-72.19 553.23,-65.52 542.63,-65.6 544.99,-72.19"/>
</g>
<!-- Node15&#45;&gt;Node8 -->
<g id="edge18" class="edge">
<title>Node15&#45;&gt;Node8</title>
<path fill="none" stroke="midnightblue" d="M626.35,-46.47C652.91,-39.41 689.3,-29.73 717.93,-22.12"/>
<polygon fill="midnightblue" stroke="midnightblue" points="718.94,-25.47 727.7,-19.52 717.14,-18.71 718.94,-25.47"/>
</g>
<!-- Node15&#45;&gt;Node12 -->
<g id="edge20" class="edge">
<title>Node15&#45;&gt;Node12</title>
<path fill="none" stroke="midnightblue" d="M604.08,-65.51C618.64,-76.1 641.95,-94.21 659,-113 678.13,-134.09 671.86,-149.4 695,-166 703.57,-172.15 714.06,-176.31 724.23,-179.13"/>
<polygon fill="midnightblue" stroke="midnightblue" points="723.66,-182.59 734.2,-181.52 725.3,-175.78 723.66,-182.59"/>
</g>
<!-- Node15&#45;&gt;Node13 -->
<g id="edge21" class="edge">
<title>Node15&#45;&gt;Node13</title>
<path fill="none" stroke="midnightblue" d="M636.41,-65.55C655.16,-69.46 677.21,-74.04 697.62,-78.29"/>
<polygon fill="midnightblue" stroke="midnightblue" points="696.99,-81.73 707.49,-80.35 698.42,-74.88 696.99,-81.73"/>
</g>
<!-- Node16 -->
<g id="node16" class="node">
<title>Node16</title>
<g id="a_node16"><a xlink:href="classtklb_1_1_audio_buffer_tpl.html#aee0540e90ae2790f9a809917bc5a04fd" target="_top" xlink:title=" ">
<polygon fill="none" stroke="black" points="696.5,-38.5 696.5,-57.5 832.5,-57.5 832.5,-38.5 696.5,-38.5"/>
<text text-anchor="middle" x="764.5" y="-45.5" font-family="Helvetica,sans-Serif" font-size="10.00">tklb::AudioBufferTpl::get</text>
</a>
</g>
</g>
<!-- Node15&#45;&gt;Node16 -->
<g id="edge19" class="edge">
<title>Node15&#45;&gt;Node16</title>
<path fill="none" stroke="midnightblue" d="M657.39,-52.91C666.74,-52.47 676.42,-52.03 685.96,-51.59"/>
<polygon fill="midnightblue" stroke="midnightblue" points="686.39,-55.07 696.22,-51.11 686.07,-48.08 686.39,-55.07"/>
</g>
</g>
</svg>
        <g id="navigator" transform="translate(0 0)" fill="#404254">
                <rect fill="#f2f5e9" fill-opacity="0.5" stroke="#606060" stroke-width=".5" x="0" y="0" width="60" height="60"/>
                <use id="zoomplus" xlink:href="#zoomPlus" x="17" y="9" onmousedown="handleZoom(evt,'in')"/>
                <use id="zoomminus" xlink:href="#zoomMin" x="42" y="9" onmousedown="handleZoom(evt,'out')"/>
                <use id="reset" xlink:href="#resetDef" x="30" y="36" onmousedown="handleReset()"/>
                <g id="arrowUp" xlink:href="#dirArrow" transform="translate(30 24)" onmousedown="handlePan(0,-1)">
                  <use xlink:href="#rim" fill="#404040">
                        <set attributeName="fill" to="#808080" begin="arrowUp.mouseover" end="arrowUp.mouseout"/>
                  </use>
                  <path fill="none" stroke="white" stroke-width="1.5" d="M0,-3.0v7 M-2.5,-0.5L0,-3.0L2.5,-0.5"/>
                </g>
                <g id="arrowRight" xlink:href="#dirArrow" transform="rotate(90) translate(36 -43)" onmousedown="handlePan(1,0)">
                  <use xlink:href="#rim" fill="#404040">
                        <set attributeName="fill" to="#808080" begin="arrowRight.mouseover" end="arrowRight.mouseout"/>
                  </use>
                  <path fill="none" stroke="white" stroke-width="1.5" d="M0,-3.0v7 M-2.5,-0.5L0,-3.0L2.5,-0.5"/>
                </g>
                <g id="arrowDown" xlink:href="#dirArrow" transform="rotate(180) translate(-30 -48)" onmousedown="handlePan(0,1)">
                  <use xlink:href="#rim" fill="#404040">
                        <set attributeName="fill" to="#808080" begin="arrowDown.mouseover" end="arrowDown.mouseout"/>
                  </use>
                  <path fill="none" stroke="white" stroke-width="1.5" d="M0,-3.0v7 M-2.5,-0.5L0,-3.0L2.5,-0.5"/>
                </g>
                <g id="arrowLeft" xlink:href="#dirArrow" transform="rotate(270) translate(-36 17)" onmousedown="handlePan(-1,0)">
                  <use xlink:href="#rim" fill="#404040">
                        <set attributeName="fill" to="#808080" begin="arrowLeft.mouseover" end="arrowLeft.mouseout"/>
                  </use>
                  <path fill="none" stroke="white" stroke-width="1.5" d="M0,-3.0v7 M-2.5,-0.5L0,-3.0L2.5,-0.5"/>
                </g>
        </g>
        <svg viewBox="0 0 15 15" width="100%" height="30px" preserveAspectRatio="xMaxYMin meet">
         <g id="arrow_out" transform="scale(0.3 0.3)">
          <a xlink:href="classvae_1_1core_1_1_bank_manager_adbc94fb2b23a418e34a3eda7812d71a6_cgraph_org.svg" target="_base">
           <rect id="button" ry="5" rx="5" y="6" x="6" height="38" width="38"
                fill="#f2f5e9" fill-opacity="0.5" stroke="#606060" stroke-width="1.0"/>
           <path id="arrow"
             d="M 11.500037,31.436501 C 11.940474,20.09759 22.043105,11.32322 32.158766,21.979434 L 37.068811,17.246167 C 37.068811,17.246167 37.088388,32 37.088388,32 L 22.160133,31.978069 C 22.160133,31.978069 26.997745,27.140456 26.997745,27.140456 C 18.528582,18.264221 13.291696,25.230495 11.500037,31.436501 z"
             style="fill:#404040;"/>
          </a>
         </g>
        </svg>
</svg>
