<?xml version="1.0" encoding="UTF-8" standalone="no"?>
<!DOCTYPE svg PUBLIC "-//W3C//DTD SVG 1.1//EN"
 "http://www.w3.org/Graphics/SVG/1.1/DTD/svg11.dtd">
<!-- Generated by graphviz version 2.50.0 (0)
 -->
<!-- Title: tklb::HeapBuffer::HeapBuffer Pages: 1 -->
<svg width="882pt" height="270pt"
 viewBox="0.00 0.00 882.00 270.21" xmlns="http://www.w3.org/2000/svg" xmlns:xlink="http://www.w3.org/1999/xlink">
<g id="graph0" class="graph" transform="scale(1 1) rotate(0) translate(4 266.21)">
<title>tklb::HeapBuffer::HeapBuffer</title>
<!-- Node1 -->
<g id="node1" class="node">
<title>Node1</title>
<g id="a_node1"><a xlink:title="Provide a pool.">
<polygon fill="#bfbfbf" stroke="black" points="0,-60.5 0,-79.5 158,-79.5 158,-60.5 0,-60.5"/>
<text text-anchor="middle" x="79" y="-67.5" font-family="Helvetica,sans-Serif" font-size="10.00">tklb::HeapBuffer::HeapBuffer</text>
</a>
</g>
</g>
<!-- Node2 -->
<g id="node2" class="node">
<title>Node2</title>
<g id="a_node2"><a xlink:href="classtklb_1_1_heap_buffer.html#ab37e6c1fc8d124b5737cfdef69b051d1" target="_top" xlink:title="Resize the buffer If the memory is borrowed it will become unique and owned by this instance as soon ...">
<polygon fill="none" stroke="black" points="194,-80.5 194,-99.5 326,-99.5 326,-80.5 194,-80.5"/>
<text text-anchor="middle" x="260" y="-87.5" font-family="Helvetica,sans-Serif" font-size="10.00">tklb::HeapBuffer::resize</text>
</a>
</g>
</g>
<!-- Node1&#45;&gt;Node2 -->
<g id="edge1" class="edge">
<title>Node1&#45;&gt;Node2</title>
<path fill="none" stroke="midnightblue" d="M158.25,-78.74C166.68,-79.68 175.24,-80.64 183.63,-81.58"/>
<polygon fill="midnightblue" stroke="midnightblue" points="183.44,-85.08 193.76,-82.71 184.22,-78.12 183.44,-85.08"/>
</g>
<!-- Node12 -->
<g id="node12" class="node">
<title>Node12</title>
<g id="a_node12"><a xlink:href="classtklb_1_1_heap_buffer.html#a5ec4892e352b8df099fa1c75cfbf328c" target="_top" xlink:title="Returns the amount of elements in the container.">
<polygon fill="none" stroke="black" points="372,-38.5 372,-57.5 494,-57.5 494,-38.5 372,-38.5"/>
<text text-anchor="middle" x="433" y="-45.5" font-family="Helvetica,sans-Serif" font-size="10.00">tklb::HeapBuffer::size</text>
</a>
</g>
</g>
<!-- Node1&#45;&gt;Node12 -->
<g id="edge14" class="edge">
<title>Node1&#45;&gt;Node12</title>
<path fill="none" stroke="midnightblue" d="M158.12,-65.12C218.98,-61.31 302.73,-56.08 361.54,-52.4"/>
<polygon fill="midnightblue" stroke="midnightblue" points="362.09,-55.88 371.85,-51.76 361.66,-48.89 362.09,-55.88"/>
</g>
<!-- Node3 -->
<g id="node3" class="node">
<title>Node3</title>
<g id="a_node3"><a xlink:href="classtklb_1_1_heap_buffer.html#aa2212b76d383c1afe3d4da0448133299" target="_top" xlink:title="Allocated the exact size requsted and copies existing objects.">
<polygon fill="none" stroke="black" points="362,-126.5 362,-145.5 504,-145.5 504,-126.5 362,-126.5"/>
<text text-anchor="middle" x="433" y="-133.5" font-family="Helvetica,sans-Serif" font-size="10.00">tklb::HeapBuffer::allocate</text>
</a>
</g>
</g>
<!-- Node2&#45;&gt;Node3 -->
<g id="edge2" class="edge">
<title>Node2&#45;&gt;Node3</title>
<path fill="none" stroke="midnightblue" d="M296.43,-99.53C322.68,-106.59 358.66,-116.27 386.95,-123.88"/>
<polygon fill="midnightblue" stroke="midnightblue" points="386.05,-127.26 396.61,-126.48 387.87,-120.5 386.05,-127.26"/>
</g>
<!-- Node11 -->
<g id="node11" class="node">
<title>Node11</title>
<g id="a_node11"><a xlink:href="classtklb_1_1_heap_buffer.html#ad513a99105213150fe287a8c209f8bc2" target="_top" xlink:title=" ">
<polygon fill="none" stroke="black" points="364.5,-77 364.5,-107 501.5,-107 501.5,-77 364.5,-77"/>
<text text-anchor="start" x="372.5" y="-95" font-family="Helvetica,sans-Serif" font-size="10.00">tklb::HeapBuffer::closest</text>
<text text-anchor="middle" x="433" y="-84" font-family="Helvetica,sans-Serif" font-size="10.00">ChunkSize</text>
</a>
</g>
</g>
<!-- Node2&#45;&gt;Node11 -->
<g id="edge12" class="edge">
<title>Node2&#45;&gt;Node11</title>
<path fill="none" stroke="midnightblue" d="M326.14,-90.76C335.35,-90.87 344.91,-90.98 354.33,-91.09"/>
<polygon fill="midnightblue" stroke="midnightblue" points="354.45,-94.59 364.49,-91.21 354.53,-87.59 354.45,-94.59"/>
</g>
<!-- Node2&#45;&gt;Node12 -->
<g id="edge13" class="edge">
<title>Node2&#45;&gt;Node12</title>
<path fill="none" stroke="midnightblue" d="M299.8,-80.47C324.53,-74.4 356.77,-66.48 383.23,-59.98"/>
<polygon fill="midnightblue" stroke="midnightblue" points="384.18,-63.35 393.06,-57.57 382.51,-56.55 384.18,-63.35"/>
</g>
<!-- Node4 -->
<g id="node4" class="node">
<title>Node4</title>
<g id="a_node4"><a xlink:href="classtklb_1_1memory_1_1_memory_pool.html#a12db669f354ab3f2037a67db7f0a8229" target="_top" xlink:title=" ">
<polygon fill="none" stroke="black" points="725,-225 725,-255 874,-255 874,-225 725,-225"/>
<text text-anchor="start" x="733" y="-243" font-family="Helvetica,sans-Serif" font-size="10.00">tklb::memory::MemoryPool</text>
<text text-anchor="middle" x="799.5" y="-232" font-family="Helvetica,sans-Serif" font-size="10.00">::allocate</text>
</a>
</g>
</g>
<!-- Node3&#45;&gt;Node4 -->
<g id="edge3" class="edge">
<title>Node3&#45;&gt;Node4</title>
<path fill="none" stroke="midnightblue" d="M439.65,-145.56C453.44,-167.8 491.25,-222.67 540,-243 597.11,-266.81 667.68,-264.11 720.65,-256.54"/>
<polygon fill="midnightblue" stroke="midnightblue" points="721.3,-259.98 730.66,-255.02 720.25,-253.06 721.3,-259.98"/>
</g>
<!-- Node5 -->
<g id="node5" class="node">
<title>Node5</title>
<g id="a_node5"><a xlink:href="classtklb_1_1memory_1_1_memory_pool.html#a23f0f8e6cc9408d522b0165dd0f01ac2" target="_top" xlink:title="Allocate aligned if simd is enabled.">
<polygon fill="none" stroke="black" points="540,-203 540,-233 689,-233 689,-203 540,-203"/>
<text text-anchor="start" x="548" y="-221" font-family="Helvetica,sans-Serif" font-size="10.00">tklb::memory::MemoryPool</text>
<text text-anchor="middle" x="614.5" y="-210" font-family="Helvetica,sans-Serif" font-size="10.00">::allocateAligned</text>
</a>
</g>
</g>
<!-- Node3&#45;&gt;Node5 -->
<g id="edge4" class="edge">
<title>Node3&#45;&gt;Node5</title>
<path fill="none" stroke="midnightblue" d="M449.75,-145.54C470.1,-157.61 506.86,-178.57 540,-193 545.1,-195.22 550.46,-197.37 555.87,-199.42"/>
<polygon fill="midnightblue" stroke="midnightblue" points="555.02,-202.84 565.62,-203 557.43,-196.27 555.02,-202.84"/>
</g>
<!-- Node6 -->
<g id="node6" class="node">
<title>Node6</title>
<g id="a_node6"><a xlink:href="namespacetklb_1_1memory.html#ab89ec197028f903f4ea125eae46c4a10" target="_top" xlink:title="memcpy wrapper">
<polygon fill="none" stroke="black" points="558.5,-164.5 558.5,-183.5 670.5,-183.5 670.5,-164.5 558.5,-164.5"/>
<text text-anchor="middle" x="614.5" y="-171.5" font-family="Helvetica,sans-Serif" font-size="10.00">tklb::memory::copy</text>
</a>
</g>
</g>
<!-- Node3&#45;&gt;Node6 -->
<g id="edge6" class="edge">
<title>Node3&#45;&gt;Node6</title>
<path fill="none" stroke="midnightblue" d="M479.3,-145.59C503.41,-150.69 533.25,-157.01 558.67,-162.39"/>
<polygon fill="midnightblue" stroke="midnightblue" points="558.02,-165.83 568.53,-164.48 559.47,-158.98 558.02,-165.83"/>
</g>
<!-- Node7 -->
<g id="node7" class="node">
<title>Node7</title>
<g id="a_node7"><a xlink:href="classtklb_1_1memory_1_1_memory_pool.html#ae2f6e404a58380b0bcf0f3de281a7546" target="_top" xlink:title=" ">
<polygon fill="none" stroke="black" points="725,-99 725,-129 874,-129 874,-99 725,-99"/>
<text text-anchor="start" x="733" y="-117" font-family="Helvetica,sans-Serif" font-size="10.00">tklb::memory::MemoryPool</text>
<text text-anchor="middle" x="799.5" y="-106" font-family="Helvetica,sans-Serif" font-size="10.00">::deallocate</text>
</a>
</g>
</g>
<!-- Node3&#45;&gt;Node7 -->
<g id="edge7" class="edge">
<title>Node3&#45;&gt;Node7</title>
<path fill="none" stroke="midnightblue" d="M504.28,-131.76C564.47,-128.13 651.25,-122.89 714.98,-119.04"/>
<polygon fill="midnightblue" stroke="midnightblue" points="715.23,-122.53 725,-118.44 714.81,-115.55 715.23,-122.53"/>
</g>
<!-- Node8 -->
<g id="node8" class="node">
<title>Node8</title>
<g id="a_node8"><a xlink:href="classtklb_1_1memory_1_1_memory_pool.html#a7b2a7e96e64767e2cff9dfddb9085779" target="_top" xlink:title=" ">
<polygon fill="none" stroke="black" points="540,-77 540,-107 689,-107 689,-77 540,-77"/>
<text text-anchor="start" x="548" y="-95" font-family="Helvetica,sans-Serif" font-size="10.00">tklb::memory::MemoryPool</text>
<text text-anchor="middle" x="614.5" y="-84" font-family="Helvetica,sans-Serif" font-size="10.00">::deallocateAligned</text>
</a>
</g>
</g>
<!-- Node3&#45;&gt;Node8 -->
<g id="edge8" class="edge">
<title>Node3&#45;&gt;Node8</title>
<path fill="none" stroke="midnightblue" d="M472.95,-126.45C493.16,-121.5 518.49,-115.29 542.07,-109.51"/>
<polygon fill="midnightblue" stroke="midnightblue" points="543.16,-112.85 552.04,-107.07 541.49,-106.05 543.16,-112.85"/>
</g>
<!-- Node9 -->
<g id="node9" class="node">
<title>Node9</title>
<g id="a_node9"><a xlink:href="classtklb_1_1_heap_buffer.html#af3331f4c39082c6bedf37b7931b1c27a" target="_top" xlink:title="Whether the memory is managed by the instance or is borrowed.">
<polygon fill="none" stroke="black" points="543.5,-38.5 543.5,-57.5 685.5,-57.5 685.5,-38.5 543.5,-38.5"/>
<text text-anchor="middle" x="614.5" y="-45.5" font-family="Helvetica,sans-Serif" font-size="10.00">tklb::HeapBuffer::injected</text>
</a>
</g>
</g>
<!-- Node3&#45;&gt;Node9 -->
<g id="edge10" class="edge">
<title>Node3&#45;&gt;Node9</title>
<path fill="none" stroke="midnightblue" d="M483.32,-126.4C490.62,-123.73 497.77,-120.33 504,-116 526.18,-100.57 517.62,-82.15 540,-67 543.07,-64.92 546.36,-63.07 549.77,-61.42"/>
<polygon fill="midnightblue" stroke="midnightblue" points="551.2,-64.61 559.06,-57.51 548.48,-58.16 551.2,-64.61"/>
</g>
<!-- Node10 -->
<g id="node10" class="node">
<title>Node10</title>
<g id="a_node10"><a xlink:href="namespacetklb.html#a3080595da18d742645ec41d61828a426" target="_top" xlink:title=" ">
<polygon fill="none" stroke="black" points="584.5,-0.5 584.5,-19.5 644.5,-19.5 644.5,-0.5 584.5,-0.5"/>
<text text-anchor="middle" x="614.5" y="-7.5" font-family="Helvetica,sans-Serif" font-size="10.00">tklb::min</text>
</a>
</g>
</g>
<!-- Node3&#45;&gt;Node10 -->
<g id="edge11" class="edge">
<title>Node3&#45;&gt;Node10</title>
<path fill="none" stroke="midnightblue" d="M487.17,-126.47C493.3,-123.8 499.1,-120.37 504,-116 535.23,-88.14 508.42,-56.46 540,-29 549.48,-20.76 562.09,-16.02 574.18,-13.32"/>
<polygon fill="midnightblue" stroke="midnightblue" points="574.93,-16.74 584.14,-11.5 573.67,-9.85 574.93,-16.74"/>
</g>
<!-- Node5&#45;&gt;Node4 -->
<g id="edge5" class="edge">
<title>Node5&#45;&gt;Node4</title>
<path fill="none" stroke="midnightblue" d="M689.14,-226.85C697.57,-227.87 706.2,-228.9 714.74,-229.93"/>
<polygon fill="midnightblue" stroke="midnightblue" points="714.36,-233.41 724.71,-231.13 715.2,-226.46 714.36,-233.41"/>
</g>
<!-- Node8&#45;&gt;Node7 -->
<g id="edge9" class="edge">
<title>Node8&#45;&gt;Node7</title>
<path fill="none" stroke="midnightblue" d="M689.14,-100.85C697.57,-101.87 706.2,-102.9 714.74,-103.93"/>
<polygon fill="midnightblue" stroke="midnightblue" points="714.36,-107.41 724.71,-105.13 715.2,-100.46 714.36,-107.41"/>
</g>
</g>
</svg>
