<?xml version="1.0" encoding="UTF-8" standalone="no"?>
<!DOCTYPE svg PUBLIC "-//W3C//DTD SVG 1.1//EN"
 "http://www.w3.org/Graphics/SVG/1.1/DTD/svg11.dtd">
<!-- Generated by graphviz version 2.50.0 (0)
 -->
<!-- Title: vae::core::Engine::setMasterVolume Pages: 1 -->
<svg width="306pt" height="78pt"
 viewBox="0.00 0.00 306.00 77.50" xmlns="http://www.w3.org/2000/svg" xmlns:xlink="http://www.w3.org/1999/xlink">
<g id="graph0" class="graph" transform="scale(1 1) rotate(0) translate(4 73.5)">
<title>vae::core::Engine::setMasterVolume</title>
<!-- Node1 -->
<g id="node1" class="node">
<title>Node1</title>
<g id="a_node1"><a xlink:title="Set the global output volume before the limiter.">
<polygon fill="#bfbfbf" stroke="black" points="191,-22.5 191,-52.5 298,-52.5 298,-22.5 191,-22.5"/>
<text text-anchor="start" x="199" y="-40.5" font-family="Helvetica,sans-Serif" font-size="10.00">vae::core::Engine::</text>
<text text-anchor="middle" x="244.5" y="-29.5" font-family="Helvetica,sans-Serif" font-size="10.00">setMasterVolume</text>
</a>
</g>
</g>
<!-- Node2 -->
<g id="node2" class="node">
<title>Node2</title>
<g id="a_node2"><a xlink:href="main_8cpp.html#ae66f6b31b5ad750f1fe042a706a4e3d4" target="_top" xlink:title=" ">
<polygon fill="none" stroke="black" points="57,-50 57,-69 98,-69 98,-50 57,-50"/>
<text text-anchor="middle" x="77.5" y="-57" font-family="Helvetica,sans-Serif" font-size="10.00">main</text>
</a>
</g>
</g>
<!-- Node1&#45;&gt;Node2 -->
<g id="edge1" class="edge">
<title>Node1&#45;&gt;Node2</title>
<path fill="none" stroke="midnightblue" d="M180.67,-45.88C151.45,-49.77 118.73,-54.14 98.37,-56.85"/>
<polygon fill="midnightblue" stroke="midnightblue" points="181.39,-49.31 190.84,-44.52 180.46,-42.37 181.39,-49.31"/>
</g>
<!-- Node3 -->
<g id="node3" class="node">
<title>Node3</title>
<g id="a_node3"><a xlink:href="classvae_1_1_engine_pimpl.html#a4244825052a79eb74c62ccaeab1b7797" target="_top" xlink:title="Set the global output volume before the limiter.">
<polygon fill="none" stroke="black" points="0,-0.5 0,-30.5 155,-30.5 155,-0.5 0,-0.5"/>
<text text-anchor="start" x="8" y="-18.5" font-family="Helvetica,sans-Serif" font-size="10.00">vae::EnginePimpl::setMaster</text>
<text text-anchor="middle" x="77.5" y="-7.5" font-family="Helvetica,sans-Serif" font-size="10.00">Volume</text>
</a>
</g>
</g>
<!-- Node1&#45;&gt;Node3 -->
<g id="edge2" class="edge">
<title>Node1&#45;&gt;Node3</title>
<path fill="none" stroke="midnightblue" d="M180.75,-29.13C172.34,-28.01 163.63,-26.85 155.02,-25.7"/>
<polygon fill="midnightblue" stroke="midnightblue" points="180.46,-32.63 190.84,-30.48 181.39,-25.69 180.46,-32.63"/>
</g>
</g>
</svg>
