<?xml version="1.0" encoding="UTF-8" standalone="no"?>
<!DOCTYPE svg PUBLIC "-//W3C//DTD SVG 1.1//EN"
 "http://www.w3.org/Graphics/SVG/1.1/DTD/svg11.dtd">
<!-- Generated by graphviz version 2.50.0 (0)
 -->
<!-- Title: tklb::HeapBuffer::inject Pages: 1 -->
<svg width="839pt" height="246pt"
 viewBox="0.00 0.00 839.00 246.00" xmlns="http://www.w3.org/2000/svg" xmlns:xlink="http://www.w3.org/1999/xlink">
<g id="graph0" class="graph" transform="scale(1 1) rotate(0) translate(4 242)">
<title>tklb::HeapBuffer::inject</title>
<!-- Node1 -->
<g id="node1" class="node">
<title>Node1</title>
<g id="a_node1"><a xlink:title="Provide const foreign memory to use Using non const accessors will cause assertions in debug mode.">
<polygon fill="#bfbfbf" stroke="black" points="0,-0.5 0,-19.5 130,-19.5 130,-0.5 0,-0.5"/>
<text text-anchor="middle" x="65" y="-7.5" font-family="Helvetica,sans-Serif" font-size="10.00">tklb::HeapBuffer::inject</text>
</a>
</g>
</g>
<!-- Node2 -->
<g id="node2" class="node">
<title>Node2</title>
<g id="a_node2"><a xlink:href="classtklb_1_1_heap_buffer.html#aedbbae6aeac4dab858a9734d7c02d240" target="_top" xlink:title="Provide foreign memory to borrow.">
<polygon fill="none" stroke="black" points="166,-82.5 166,-101.5 296,-101.5 296,-82.5 166,-82.5"/>
<text text-anchor="middle" x="231" y="-89.5" font-family="Helvetica,sans-Serif" font-size="10.00">tklb::HeapBuffer::inject</text>
</a>
</g>
</g>
<!-- Node1&#45;&gt;Node2 -->
<g id="edge1" class="edge">
<title>Node1&#45;&gt;Node2</title>
<path fill="none" stroke="midnightblue" d="M85.13,-19.57C113.9,-33.95 168.45,-61.22 201.78,-77.89"/>
<polygon fill="midnightblue" stroke="midnightblue" points="200.48,-81.15 210.99,-82.49 203.61,-74.89 200.48,-81.15"/>
</g>
<!-- Node12 -->
<g id="node12" class="node">
<title>Node12</title>
<g id="a_node12"><a xlink:href="classtklb_1_1_heap_buffer.html#a172cd1dde86d1f3b0308fb0ce4a1758a" target="_top" xlink:title="Returns the amount of elements in the container.">
<polygon fill="none" stroke="black" points="696,-0.5 696,-19.5 818,-19.5 818,-0.5 696,-0.5"/>
<text text-anchor="middle" x="757" y="-7.5" font-family="Helvetica,sans-Serif" font-size="10.00">tklb::HeapBuffer::size</text>
</a>
</g>
</g>
<!-- Node1&#45;&gt;Node12 -->
<g id="edge16" class="edge">
<title>Node1&#45;&gt;Node12</title>
<path fill="none" stroke="midnightblue" d="M130.07,-7.38C237.14,-3.42 459.22,3.02 647,-3 659.49,-3.4 672.77,-4.06 685.6,-4.82"/>
<polygon fill="midnightblue" stroke="midnightblue" points="685.59,-8.32 695.78,-5.44 686.01,-1.33 685.59,-8.32"/>
</g>
<!-- Node3 -->
<g id="node3" class="node">
<title>Node3</title>
<g id="a_node3"><a xlink:href="classtklb_1_1_heap_buffer.html#ae41c73fc5f004efb1449d2d0a1614791" target="_top" xlink:title="The memory is no longer manager by this instance.">
<polygon fill="none" stroke="black" points="332,-218.5 332,-237.5 469,-237.5 469,-218.5 332,-218.5"/>
<text text-anchor="middle" x="400.5" y="-225.5" font-family="Helvetica,sans-Serif" font-size="10.00">tklb::HeapBuffer::disown</text>
</a>
</g>
</g>
<!-- Node2&#45;&gt;Node3 -->
<g id="edge2" class="edge">
<title>Node2&#45;&gt;Node3</title>
<path fill="none" stroke="midnightblue" d="M238.05,-101.56C252.03,-122.92 288.73,-174.92 332,-204 338.25,-208.2 345.31,-211.75 352.45,-214.73"/>
<polygon fill="midnightblue" stroke="midnightblue" points="351.59,-218.15 362.18,-218.45 354.09,-211.61 351.59,-218.15"/>
</g>
<!-- Node5 -->
<g id="node5" class="node">
<title>Node5</title>
<g id="a_node5"><a xlink:href="classtklb_1_1_heap_buffer.html#a25c9d8fce108ff905202bcf7a6038d3d" target="_top" xlink:title="Whether the memory is managed by the instance or is borrowed.">
<polygon fill="none" stroke="black" points="686,-158.5 686,-177.5 828,-177.5 828,-158.5 686,-158.5"/>
<text text-anchor="middle" x="757" y="-165.5" font-family="Helvetica,sans-Serif" font-size="10.00">tklb::HeapBuffer::injected</text>
</a>
</g>
</g>
<!-- Node2&#45;&gt;Node5 -->
<g id="edge4" class="edge">
<title>Node2&#45;&gt;Node5</title>
<path fill="none" stroke="midnightblue" d="M262.31,-101.61C312.27,-116.95 415.34,-146.52 505,-159 561.77,-166.9 626.41,-169.06 675.88,-169.29"/>
<polygon fill="midnightblue" stroke="midnightblue" points="675.87,-172.79 685.88,-169.31 675.89,-165.79 675.87,-172.79"/>
</g>
<!-- Node6 -->
<g id="node6" class="node">
<title>Node6</title>
<g id="a_node6"><a xlink:href="classtklb_1_1_heap_buffer.html#aea890defe7d21d9273e005464b04f784" target="_top" xlink:title="Resize the buffer If the memory is borrowed it will become unique and owned by this instance as soon ...">
<polygon fill="none" stroke="black" points="334.5,-82.5 334.5,-101.5 466.5,-101.5 466.5,-82.5 334.5,-82.5"/>
<text text-anchor="middle" x="400.5" y="-89.5" font-family="Helvetica,sans-Serif" font-size="10.00">tklb::HeapBuffer::resize</text>
</a>
</g>
</g>
<!-- Node2&#45;&gt;Node6 -->
<g id="edge5" class="edge">
<title>Node2&#45;&gt;Node6</title>
<path fill="none" stroke="midnightblue" d="M296.28,-92C305.43,-92 314.9,-92 324.23,-92"/>
<polygon fill="midnightblue" stroke="midnightblue" points="324.28,-95.5 334.28,-92 324.28,-88.5 324.28,-95.5"/>
</g>
<!-- Node2&#45;&gt;Node12 -->
<g id="edge15" class="edge">
<title>Node2&#45;&gt;Node12</title>
<path fill="none" stroke="midnightblue" d="M257.89,-82.46C305.83,-65.33 412.05,-29.83 505,-16 565.5,-7 635.1,-6.06 685.64,-7.05"/>
<polygon fill="midnightblue" stroke="midnightblue" points="685.72,-10.56 695.8,-7.28 685.88,-3.56 685.72,-10.56"/>
</g>
<!-- Node4 -->
<g id="node4" class="node">
<title>Node4</title>
<g id="a_node4"><a xlink:href="classtklb_1_1_heap_buffer.html#a4e6ef03e8309e273be77adba87080abf" target="_top" xlink:title=" ">
<polygon fill="none" stroke="black" points="509,-218.5 509,-237.5 643,-237.5 643,-218.5 509,-218.5"/>
<text text-anchor="middle" x="576" y="-225.5" font-family="Helvetica,sans-Serif" font-size="10.00">tklb::HeapBuffer::empty</text>
</a>
</g>
</g>
<!-- Node3&#45;&gt;Node4 -->
<g id="edge3" class="edge">
<title>Node3&#45;&gt;Node4</title>
<path fill="none" stroke="midnightblue" d="M469.08,-228C478.75,-228 488.76,-228 498.59,-228"/>
<polygon fill="midnightblue" stroke="midnightblue" points="498.75,-231.5 508.75,-228 498.75,-224.5 498.75,-231.5"/>
</g>
<!-- Node6&#45;&gt;Node5 -->
<g id="edge13" class="edge">
<title>Node6&#45;&gt;Node5</title>
<path fill="none" stroke="midnightblue" d="M421.63,-101.65C442.14,-111.07 475.1,-125.11 505,-133 561.12,-147.8 626.05,-156.64 675.81,-161.73"/>
<polygon fill="midnightblue" stroke="midnightblue" points="675.57,-165.23 685.87,-162.73 676.26,-158.26 675.57,-165.23"/>
</g>
<!-- Node7 -->
<g id="node7" class="node">
<title>Node7</title>
<g id="a_node7"><a xlink:href="classtklb_1_1_heap_buffer.html#a37d94fdca920347674a4048cdc28452d" target="_top" xlink:title="Allocated the exact size requsted and copies existing objects.">
<polygon fill="none" stroke="black" points="505,-104.5 505,-123.5 647,-123.5 647,-104.5 505,-104.5"/>
<text text-anchor="middle" x="576" y="-111.5" font-family="Helvetica,sans-Serif" font-size="10.00">tklb::HeapBuffer::allocate</text>
</a>
</g>
</g>
<!-- Node6&#45;&gt;Node7 -->
<g id="edge6" class="edge">
<title>Node6&#45;&gt;Node7</title>
<path fill="none" stroke="midnightblue" d="M466.6,-100.25C475.78,-101.42 485.3,-102.63 494.73,-103.82"/>
<polygon fill="midnightblue" stroke="midnightblue" points="494.53,-107.32 504.89,-105.11 495.41,-100.38 494.53,-107.32"/>
</g>
<!-- Node10 -->
<g id="node10" class="node">
<title>Node10</title>
<g id="a_node10"><a xlink:href="classtklb_1_1_heap_buffer.html#a682dc231ff65beb7114cb0e476affd6b" target="_top" xlink:title=" ">
<polygon fill="none" stroke="black" points="507.5,-55 507.5,-85 644.5,-85 644.5,-55 507.5,-55"/>
<text text-anchor="start" x="515.5" y="-73" font-family="Helvetica,sans-Serif" font-size="10.00">tklb::HeapBuffer::closest</text>
<text text-anchor="middle" x="576" y="-62" font-family="Helvetica,sans-Serif" font-size="10.00">ChunkSize</text>
</a>
</g>
</g>
<!-- Node6&#45;&gt;Node10 -->
<g id="edge10" class="edge">
<title>Node6&#45;&gt;Node10</title>
<path fill="none" stroke="midnightblue" d="M466.6,-83.75C476.55,-82.48 486.91,-81.17 497.1,-79.88"/>
<polygon fill="midnightblue" stroke="midnightblue" points="497.74,-83.32 507.22,-78.59 496.86,-76.38 497.74,-83.32"/>
</g>
<!-- Node6&#45;&gt;Node12 -->
<g id="edge14" class="edge">
<title>Node6&#45;&gt;Node12</title>
<path fill="none" stroke="midnightblue" d="M418.89,-82.48C439.01,-71.89 473.44,-55.09 505,-46 564.66,-28.82 634.77,-19.64 685.7,-14.87"/>
<polygon fill="midnightblue" stroke="midnightblue" points="686.3,-18.33 695.94,-13.94 685.67,-11.36 686.3,-18.33"/>
</g>
<!-- Node7&#45;&gt;Node5 -->
<g id="edge7" class="edge">
<title>Node7&#45;&gt;Node5</title>
<path fill="none" stroke="midnightblue" d="M604.3,-123.55C625.62,-130.88 656.05,-141.05 683,-149 690.86,-151.32 699.24,-153.64 707.41,-155.82"/>
<polygon fill="midnightblue" stroke="midnightblue" points="706.67,-159.24 717.23,-158.4 708.45,-152.47 706.67,-159.24"/>
</g>
<!-- Node8 -->
<g id="node8" class="node">
<title>Node8</title>
<g id="a_node8"><a xlink:href="classtklb_1_1_heap_buffer.html#a23801c62dcfb74cab62a9998de65adeb" target="_top" xlink:title=" ">
<polygon fill="none" stroke="black" points="683,-120.5 683,-139.5 831,-139.5 831,-120.5 683,-120.5"/>
<text text-anchor="middle" x="757" y="-127.5" font-family="Helvetica,sans-Serif" font-size="10.00">tklb::HeapBuffer::isAligned</text>
</a>
</g>
</g>
<!-- Node7&#45;&gt;Node8 -->
<g id="edge8" class="edge">
<title>Node7&#45;&gt;Node8</title>
<path fill="none" stroke="midnightblue" d="M647.23,-120.28C655.61,-121.03 664.22,-121.8 672.76,-122.56"/>
<polygon fill="midnightblue" stroke="midnightblue" points="672.46,-126.05 682.73,-123.45 673.08,-119.07 672.46,-126.05"/>
</g>
<!-- Node9 -->
<g id="node9" class="node">
<title>Node9</title>
<g id="a_node9"><a xlink:href="namespacetklb.html#a3080595da18d742645ec41d61828a426" target="_top" xlink:title=" ">
<polygon fill="none" stroke="black" points="727,-82.5 727,-101.5 787,-101.5 787,-82.5 727,-82.5"/>
<text text-anchor="middle" x="757" y="-89.5" font-family="Helvetica,sans-Serif" font-size="10.00">tklb::min</text>
</a>
</g>
</g>
<!-- Node7&#45;&gt;Node9 -->
<g id="edge9" class="edge">
<title>Node7&#45;&gt;Node9</title>
<path fill="none" stroke="midnightblue" d="M647.23,-105.37C670.75,-102.48 696.14,-99.36 716.46,-96.86"/>
<polygon fill="midnightblue" stroke="midnightblue" points="717.1,-100.31 726.59,-95.61 716.24,-93.36 717.1,-100.31"/>
</g>
<!-- Node11 -->
<g id="node11" class="node">
<title>Node11</title>
<g id="a_node11"><a xlink:href="namespacetklb.html#a7dc2203e89c331e3c85b9e7f16fa6763" target="_top" xlink:title=" ">
<polygon fill="none" stroke="black" points="725.5,-44.5 725.5,-63.5 788.5,-63.5 788.5,-44.5 725.5,-44.5"/>
<text text-anchor="middle" x="757" y="-51.5" font-family="Helvetica,sans-Serif" font-size="10.00">tklb::max</text>
</a>
</g>
</g>
<!-- Node10&#45;&gt;Node11 -->
<g id="edge11" class="edge">
<title>Node10&#45;&gt;Node11</title>
<path fill="none" stroke="midnightblue" d="M644.67,-63.95C668.39,-61.83 694.28,-59.52 715.12,-57.65"/>
<polygon fill="midnightblue" stroke="midnightblue" points="715.57,-61.13 725.22,-56.75 714.94,-54.16 715.57,-61.13"/>
</g>
<!-- Node10&#45;&gt;Node12 -->
<g id="edge12" class="edge">
<title>Node10&#45;&gt;Node12</title>
<path fill="none" stroke="midnightblue" d="M622.17,-54.86C651.69,-44.97 689.81,-32.19 717.81,-22.8"/>
<polygon fill="midnightblue" stroke="midnightblue" points="719.27,-26 727.64,-19.51 717.04,-19.37 719.27,-26"/>
</g>
</g>
</svg>
