<?xml version="1.0" encoding="UTF-8" standalone="no"?>
<!DOCTYPE svg PUBLIC "-//W3C//DTD SVG 1.1//EN"
 "http://www.w3.org/Graphics/SVG/1.1/DTD/svg11.dtd">
<!-- Generated by graphviz version 2.50.0 (0)
 -->
<!-- Title: vae::core::SpatialManager::createAutoEmitter Pages: 1 -->
<svg width="509pt" height="88pt"
 viewBox="0.00 0.00 509.00 88.00" xmlns="http://www.w3.org/2000/svg" xmlns:xlink="http://www.w3.org/1999/xlink">
<g id="graph0" class="graph" transform="scale(1 1) rotate(0) translate(4 84)">
<title>vae::core::SpatialManager::createAutoEmitter</title>
<!-- Node1 -->
<g id="node1" class="node">
<title>Node1</title>
<g id="a_node1"><a xlink:title=" ">
<polygon fill="#bfbfbf" stroke="black" points="0,-24.5 0,-54.5 143,-54.5 143,-24.5 0,-24.5"/>
<text text-anchor="start" x="8" y="-42.5" font-family="Helvetica,sans-Serif" font-size="10.00">vae::core::SpatialManager</text>
<text text-anchor="middle" x="71.5" y="-31.5" font-family="Helvetica,sans-Serif" font-size="10.00">::createAutoEmitter</text>
</a>
</g>
</g>
<!-- Node2 -->
<g id="node2" class="node">
<title>Node2</title>
<g id="a_node2"><a xlink:href="classvae_1_1core_1_1_spatial_manager.html#a3b7a584badb78d373db73bde20e5a85b" target="_top" xlink:title=" ">
<polygon fill="none" stroke="black" points="179,-24.5 179,-54.5 322,-54.5 322,-24.5 179,-24.5"/>
<text text-anchor="start" x="187" y="-42.5" font-family="Helvetica,sans-Serif" font-size="10.00">vae::core::SpatialManager</text>
<text text-anchor="middle" x="250.5" y="-31.5" font-family="Helvetica,sans-Serif" font-size="10.00">::createEmitter</text>
</a>
</g>
</g>
<!-- Node1&#45;&gt;Node2 -->
<g id="edge1" class="edge">
<title>Node1&#45;&gt;Node2</title>
<path fill="none" stroke="midnightblue" d="M143.22,-39.5C151.57,-39.5 160.14,-39.5 168.62,-39.5"/>
<polygon fill="midnightblue" stroke="midnightblue" points="168.89,-43 178.89,-39.5 168.89,-36 168.89,-43"/>
</g>
<!-- Node3 -->
<g id="node3" class="node">
<title>Node3</title>
<g id="a_node3"><a xlink:href="classvae_1_1core_1_1_spatial_manager.html#a3f3be0983d6adf3ea217d76477f5d43b" target="_top" xlink:title=" ">
<polygon fill="none" stroke="black" points="358,-49.5 358,-79.5 501,-79.5 501,-49.5 358,-49.5"/>
<text text-anchor="start" x="366" y="-67.5" font-family="Helvetica,sans-Serif" font-size="10.00">vae::core::SpatialManager</text>
<text text-anchor="middle" x="429.5" y="-56.5" font-family="Helvetica,sans-Serif" font-size="10.00">::addEmitter</text>
</a>
</g>
</g>
<!-- Node2&#45;&gt;Node3 -->
<g id="edge2" class="edge">
<title>Node2&#45;&gt;Node3</title>
<path fill="none" stroke="midnightblue" d="M322.22,-49.49C330.66,-50.68 339.33,-51.91 347.9,-53.12"/>
<polygon fill="midnightblue" stroke="midnightblue" points="347.5,-56.59 357.89,-54.53 348.48,-49.66 347.5,-56.59"/>
</g>
<!-- Node4 -->
<g id="node4" class="node">
<title>Node4</title>
<g id="a_node4"><a xlink:href="classvae_1_1core_1_1_spatial_manager.html#a8223349a8417dbd972f9979618849a4e" target="_top" xlink:title=" ">
<polygon fill="none" stroke="black" points="358,-0.5 358,-30.5 501,-30.5 501,-0.5 358,-0.5"/>
<text text-anchor="start" x="366" y="-18.5" font-family="Helvetica,sans-Serif" font-size="10.00">vae::core::SpatialManager</text>
<text text-anchor="middle" x="429.5" y="-7.5" font-family="Helvetica,sans-Serif" font-size="10.00">::hasEmitter</text>
</a>
</g>
</g>
<!-- Node2&#45;&gt;Node4 -->
<g id="edge3" class="edge">
<title>Node2&#45;&gt;Node4</title>
<path fill="none" stroke="midnightblue" d="M322.22,-29.91C330.66,-28.77 339.33,-27.59 347.9,-26.43"/>
<polygon fill="midnightblue" stroke="midnightblue" points="348.46,-29.89 357.89,-25.07 347.51,-22.95 348.46,-29.89"/>
</g>
</g>
</svg>
