<?xml version="1.0" encoding="UTF-8" standalone="no"?>
<!DOCTYPE svg PUBLIC "-//W3C//DTD SVG 1.1//EN"
 "http://www.w3.org/Graphics/SVG/1.1/DTD/svg11.dtd">
<!-- Generated by graphviz version 2.50.0 (0)
 -->
<!-- Title: tklb::FFTOoura::FFTOoura Pages: 1 -->
<svg width="605pt" height="127pt"
 viewBox="0.00 0.00 605.00 127.00" xmlns="http://www.w3.org/2000/svg" xmlns:xlink="http://www.w3.org/1999/xlink">
<g id="graph0" class="graph" transform="scale(1 1) rotate(0) translate(4 123)">
<title>tklb::FFTOoura::FFTOoura</title>
<!-- Node1 -->
<g id="node1" class="node">
<title>Node1</title>
<g id="a_node1"><a xlink:title=" ">
<polygon fill="#bfbfbf" stroke="black" points="0,-50 0,-69 139,-69 139,-50 0,-50"/>
<text text-anchor="middle" x="69.5" y="-57" font-family="Helvetica,sans-Serif" font-size="10.00">tklb::FFTOoura::FFTOoura</text>
</a>
</g>
</g>
<!-- Node2 -->
<g id="node2" class="node">
<title>Node2</title>
<g id="a_node2"><a xlink:href="classtklb_1_1_f_f_t_ooura.html#a16f00f5786aa1dc841e9cc645be3551c" target="_top" xlink:title=" ">
<polygon fill="none" stroke="black" points="175,-50 175,-69 297,-69 297,-50 175,-50"/>
<text text-anchor="middle" x="236" y="-57" font-family="Helvetica,sans-Serif" font-size="10.00">tklb::FFTOoura::resize</text>
</a>
</g>
</g>
<!-- Node1&#45;&gt;Node2 -->
<g id="edge1" class="edge">
<title>Node1&#45;&gt;Node2</title>
<path fill="none" stroke="midnightblue" d="M139.31,-59.5C147.7,-59.5 156.28,-59.5 164.68,-59.5"/>
<polygon fill="midnightblue" stroke="midnightblue" points="164.83,-63 174.83,-59.5 164.83,-56 164.83,-63"/>
</g>
<!-- Node3 -->
<g id="node3" class="node">
<title>Node3</title>
<g id="a_node3"><a xlink:href="classtklb_1_1_audio_buffer_tpl.html#a35b40f6d6b1fc2939613b1b84313b0bc" target="_top" xlink:title="! Will not keep the contents! Resizes the buffer to the desired length and channel count.">
<polygon fill="none" stroke="black" points="333,-44.5 333,-74.5 447,-74.5 447,-44.5 333,-44.5"/>
<text text-anchor="start" x="341" y="-62.5" font-family="Helvetica,sans-Serif" font-size="10.00">tklb::AudioBufferTpl</text>
<text text-anchor="middle" x="390" y="-51.5" font-family="Helvetica,sans-Serif" font-size="10.00">::resize</text>
</a>
</g>
</g>
<!-- Node2&#45;&gt;Node3 -->
<g id="edge2" class="edge">
<title>Node2&#45;&gt;Node3</title>
<path fill="none" stroke="midnightblue" d="M297.07,-59.5C305.45,-59.5 314.1,-59.5 322.58,-59.5"/>
<polygon fill="midnightblue" stroke="midnightblue" points="322.83,-63 332.83,-59.5 322.83,-56 322.83,-63"/>
</g>
<!-- Node4 -->
<g id="node4" class="node">
<title>Node4</title>
<g id="a_node4"><a xlink:href="classtklb_1_1_audio_buffer_tpl.html#a7859b26033cbb893c2ea7acea54d8013" target="_top" xlink:title="Returns the amount of channels.">
<polygon fill="none" stroke="black" points="483,-88.5 483,-118.5 597,-118.5 597,-88.5 483,-88.5"/>
<text text-anchor="start" x="491" y="-106.5" font-family="Helvetica,sans-Serif" font-size="10.00">tklb::AudioBufferTpl</text>
<text text-anchor="middle" x="540" y="-95.5" font-family="Helvetica,sans-Serif" font-size="10.00">::channels</text>
</a>
</g>
</g>
<!-- Node3&#45;&gt;Node4 -->
<g id="edge3" class="edge">
<title>Node3&#45;&gt;Node4</title>
<path fill="none" stroke="midnightblue" d="M441.52,-74.52C453.48,-78.07 466.35,-81.9 478.7,-85.57"/>
<polygon fill="midnightblue" stroke="midnightblue" points="477.87,-88.98 488.46,-88.47 479.87,-82.27 477.87,-88.98"/>
</g>
<!-- Node5 -->
<g id="node5" class="node">
<title>Node5</title>
<g id="a_node5"><a xlink:href="namespacetklb.html#a3080595da18d742645ec41d61828a426" target="_top" xlink:title=" ">
<polygon fill="none" stroke="black" points="510,-50 510,-69 570,-69 570,-50 510,-50"/>
<text text-anchor="middle" x="540" y="-57" font-family="Helvetica,sans-Serif" font-size="10.00">tklb::min</text>
</a>
</g>
</g>
<!-- Node3&#45;&gt;Node5 -->
<g id="edge4" class="edge">
<title>Node3&#45;&gt;Node5</title>
<path fill="none" stroke="midnightblue" d="M447.37,-59.5C464.8,-59.5 483.6,-59.5 499.62,-59.5"/>
<polygon fill="midnightblue" stroke="midnightblue" points="499.7,-63 509.7,-59.5 499.7,-56 499.7,-63"/>
</g>
<!-- Node6 -->
<g id="node6" class="node">
<title>Node6</title>
<g id="a_node6"><a xlink:href="classtklb_1_1_audio_buffer_tpl.html#af6df8d7e6840eee3f84807bd1662c3ed" target="_top" xlink:title="Returns the allocated length of the buffer.">
<polygon fill="none" stroke="black" points="483,-0.5 483,-30.5 597,-30.5 597,-0.5 483,-0.5"/>
<text text-anchor="start" x="491" y="-18.5" font-family="Helvetica,sans-Serif" font-size="10.00">tklb::AudioBufferTpl</text>
<text text-anchor="middle" x="540" y="-7.5" font-family="Helvetica,sans-Serif" font-size="10.00">::size</text>
</a>
</g>
</g>
<!-- Node3&#45;&gt;Node6 -->
<g id="edge5" class="edge">
<title>Node3&#45;&gt;Node6</title>
<path fill="none" stroke="midnightblue" d="M441.52,-44.48C453.48,-40.93 466.35,-37.1 478.7,-33.43"/>
<polygon fill="midnightblue" stroke="midnightblue" points="479.87,-36.73 488.46,-30.53 477.87,-30.02 479.87,-36.73"/>
</g>
</g>
</svg>
