<?xml version="1.0" encoding="UTF-8" standalone="no"?>
<!DOCTYPE svg PUBLIC "-//W3C//DTD SVG 1.1//EN"
 "http://www.w3.org/Graphics/SVG/1.1/DTD/svg11.dtd">
<!-- Generated by graphviz version 2.50.0 (0)
 -->
<!-- Title: vae::core::DeviceDummy::swapBufferInterleaved Pages: 1 -->
<!--zoomable 405 -->
<svg id="main" version="1.1" xmlns="http://www.w3.org/2000/svg" xmlns:xlink="http://www.w3.org/1999/xlink" xml:space="preserve" onload="init(evt)">
<style type="text/css"><![CDATA[
.edge:hover path { stroke: red; }
.edge:hover polygon { stroke: red; fill: red; }
]]></style>
<script type="text/javascript"><![CDATA[
var edges = document.getElementsByTagName('g');
if (edges && edges.length) {
  for (var i=0;i<edges.length;i++) {
    if (edges[i].id.substr(0,4)=='edge') {
      edges[i].setAttribute('class','edge');
    }
  }
}
]]></script>
        <defs>
                <circle id="rim" cx="0" cy="0" r="7"/>
                <circle id="rim2" cx="0" cy="0" r="3.5"/>
                <g id="zoomPlus">
                        <use xlink:href="#rim" fill="#404040">
                                <set attributeName="fill" to="#808080" begin="zoomplus.mouseover" end="zoomplus.mouseout"/>
                        </use>
                        <path d="M-4,0h8M0,-4v8" fill="none" stroke="white" stroke-width="1.5" pointer-events="none"/>
                </g>
                <g id="zoomMin">
                        <use xlink:href="#rim" fill="#404040">
                                <set attributeName="fill" to="#808080" begin="zoomminus.mouseover" end="zoomminus.mouseout"/>
                        </use>
                        <path d="M-4,0h8" fill="none" stroke="white" stroke-width="1.5" pointer-events="none"/>
                </g>
                <g id="dirArrow">
                        <path fill="none" stroke="white" stroke-width="1.5" d="M0,-3.0v7 M-2.5,-0.5L0,-3.0L2.5,-0.5"/>
                </g>
               <g id="resetDef">
                       <use xlink:href="#rim2" fill="#404040">
                               <set attributeName="fill" to="#808080" begin="reset.mouseover" end="reset.mouseout"/>
                       </use>
               </g>
        </defs>

<script type="text/javascript">
var viewWidth = 1077;
var viewHeight = 405;
var sectionId = 'dynsection-5';
</script>
<script xlink:href="svgpan.js"/>
<svg id="graph" class="graph">
<g id="viewport">
<title>vae::core::DeviceDummy::swapBufferInterleaved</title>
<!-- Node1 -->
<g id="node1" class="node">
<title>Node1</title>
<g id="a_node1"><a xlink:title="Simulate the callback from the audio device.">
<polygon fill="#bfbfbf" stroke="black" points="0,-134.86 0,-164.86 140,-164.86 140,-134.86 0,-134.86"/>
<text text-anchor="start" x="8" y="-152.86" font-family="Helvetica,sans-Serif" font-size="10.00">vae::core::DeviceDummy</text>
<text text-anchor="middle" x="70" y="-141.86" font-family="Helvetica,sans-Serif" font-size="10.00">::swapBufferInterleaved</text>
</a>
</g>
</g>
<!-- Node2 -->
<g id="node2" class="node">
<title>Node2</title>
<g id="a_node2"><a xlink:href="structvae_1_1core_1_1_device_1_1_audio_thread_worker.html#a1d6ad75314a363dbb773c16aecb21326" target="_top" xlink:title="Called from audio backend to push in interleaved audio data.">
<polygon fill="none" stroke="black" points="176,-129.36 176,-170.36 351,-170.36 351,-129.36 176,-129.36"/>
<text text-anchor="start" x="184" y="-158.36" font-family="Helvetica,sans-Serif" font-size="10.00">vae::core::Device::</text>
<text text-anchor="start" x="184" y="-147.36" font-family="Helvetica,sans-Serif" font-size="10.00">AudioThreadWorker::swapBuffer</text>
<text text-anchor="middle" x="263.5" y="-136.36" font-family="Helvetica,sans-Serif" font-size="10.00">Interleaved</text>
</a>
</g>
</g>
<!-- Node1&#45;&gt;Node2 -->
<g id="edge1" class="edge">
<title>Node1&#45;&gt;Node2</title>
<path fill="none" stroke="midnightblue" d="M140.14,-149.86C148.45,-149.86 157.06,-149.86 165.68,-149.86"/>
<polygon fill="midnightblue" stroke="midnightblue" points="165.78,-153.36 175.78,-149.86 165.78,-146.36 165.78,-153.36"/>
</g>
<!-- Node3 -->
<g id="node3" class="node">
<title>Node3</title>
<g id="a_node3"><a xlink:href="classtklb_1_1_resampler_speex_tpl.html#a4c850eae9c52572059bf899e672215e2" target="_top" xlink:title=" ">
<polygon fill="none" stroke="black" points="397.5,-254.86 397.5,-284.86 536.5,-284.86 536.5,-254.86 397.5,-254.86"/>
<text text-anchor="start" x="405.5" y="-272.86" font-family="Helvetica,sans-Serif" font-size="10.00">tklb::ResamplerSpeexTpl</text>
<text text-anchor="middle" x="467" y="-261.86" font-family="Helvetica,sans-Serif" font-size="10.00">::isInitialized</text>
</a>
</g>
</g>
<!-- Node2&#45;&gt;Node3 -->
<g id="edge2" class="edge">
<title>Node2&#45;&gt;Node3</title>
<path fill="none" stroke="midnightblue" d="M286.3,-170.69C309.59,-191.94 348.39,-224.61 387,-244.86 391.24,-247.08 395.7,-249.15 400.27,-251.06"/>
<polygon fill="midnightblue" stroke="midnightblue" points="399.16,-254.39 409.75,-254.78 401.72,-247.87 399.16,-254.39"/>
</g>
<!-- Node4 -->
<g id="node4" class="node">
<title>Node4</title>
<g id="a_node4"><a xlink:href="classtklb_1_1_audio_ring_buffer_tpl.html#a73b1992dd37fc22852de4a5adb6a355b" target="_top" xlink:title="Pops a number of elements in the buffer provided.">
<polygon fill="none" stroke="black" points="387,-216.36 387,-235.36 547,-235.36 547,-216.36 387,-216.36"/>
<text text-anchor="middle" x="467" y="-223.36" font-family="Helvetica,sans-Serif" font-size="10.00">tklb::AudioRingBufferTpl::pop</text>
</a>
</g>
</g>
<!-- Node2&#45;&gt;Node4 -->
<g id="edge3" class="edge">
<title>Node2&#45;&gt;Node4</title>
<path fill="none" stroke="midnightblue" d="M309.71,-170.41C332.63,-180.48 361.05,-192.44 387,-201.86 398.15,-205.91 410.35,-209.85 421.75,-213.32"/>
<polygon fill="midnightblue" stroke="midnightblue" points="420.93,-216.73 431.52,-216.25 422.94,-210.03 420.93,-216.73"/>
</g>
<!-- Node12 -->
<g id="node12" class="node">
<title>Node12</title>
<g id="a_node12"><a xlink:href="classtklb_1_1_resampler_speex_tpl.html#ad536684ea5e815d1dd7d967127ecfb95" target="_top" xlink:title="Resample function Make sure the out buffer has enough space.">
<polygon fill="none" stroke="black" points="583,-186.86 583,-216.86 722,-216.86 722,-186.86 583,-186.86"/>
<text text-anchor="start" x="591" y="-204.86" font-family="Helvetica,sans-Serif" font-size="10.00">tklb::ResamplerSpeexTpl</text>
<text text-anchor="middle" x="652.5" y="-193.86" font-family="Helvetica,sans-Serif" font-size="10.00">::process</text>
</a>
</g>
</g>
<!-- Node2&#45;&gt;Node12 -->
<g id="edge14" class="edge">
<title>Node2&#45;&gt;Node12</title>
<path fill="none" stroke="midnightblue" d="M351.35,-161.53C417.77,-170.45 508.58,-182.66 572.87,-191.29"/>
<polygon fill="midnightblue" stroke="midnightblue" points="572.57,-194.79 582.95,-192.65 573.5,-187.85 572.57,-194.79"/>
</g>
<!-- Node14 -->
<g id="node14" class="node">
<title>Node14</title>
<g id="a_node14"><a xlink:href="classtklb_1_1_audio_ring_buffer_tpl.html#a4a1f2614ea727a4c26bd8936fa9e97d9" target="_top" xlink:title="Adds validSize() amount of frames to the buffer.">
<polygon fill="none" stroke="black" points="584.5,-137.86 584.5,-167.86 720.5,-167.86 720.5,-137.86 584.5,-137.86"/>
<text text-anchor="start" x="592.5" y="-155.86" font-family="Helvetica,sans-Serif" font-size="10.00">tklb::AudioRingBufferTpl</text>
<text text-anchor="middle" x="652.5" y="-144.86" font-family="Helvetica,sans-Serif" font-size="10.00">::push</text>
</a>
</g>
</g>
<!-- Node2&#45;&gt;Node14 -->
<g id="edge19" class="edge">
<title>Node2&#45;&gt;Node14</title>
<path fill="none" stroke="midnightblue" d="M351.35,-150.53C418.3,-151.05 510.02,-151.76 574.4,-152.26"/>
<polygon fill="midnightblue" stroke="midnightblue" points="574.46,-155.76 584.49,-152.34 574.51,-148.76 574.46,-155.76"/>
</g>
<!-- Node15 -->
<g id="node15" class="node">
<title>Node15</title>
<g id="a_node15"><a xlink:href="classtklb_1_1_audio_buffer_tpl.html#a86cec40e8c99a90d93db996d92ddfece" target="_top" xlink:title="Returns the length of actually valid audio in the buffer.">
<polygon fill="none" stroke="black" points="944,-0.86 944,-30.86 1058,-30.86 1058,-0.86 944,-0.86"/>
<text text-anchor="start" x="952" y="-18.86" font-family="Helvetica,sans-Serif" font-size="10.00">tklb::AudioBufferTpl</text>
<text text-anchor="middle" x="1001" y="-7.86" font-family="Helvetica,sans-Serif" font-size="10.00">::validSize</text>
</a>
</g>
</g>
<!-- Node2&#45;&gt;Node15 -->
<g id="edge33" class="edge">
<title>Node2&#45;&gt;Node15</title>
<path fill="none" stroke="midnightblue" d="M305.42,-129.24C328.87,-117.99 359.11,-104.45 387,-94.86 547.55,-39.64 589.45,-24.23 758,-3.86 817.07,3.28 884.74,-1.13 933.47,-6.51"/>
<polygon fill="midnightblue" stroke="midnightblue" points="933.24,-10.01 943.58,-7.67 934.04,-3.05 933.24,-10.01"/>
</g>
<!-- Node16 -->
<g id="node16" class="node">
<title>Node16</title>
<g id="a_node16"><a xlink:href="classtklb_1_1_audio_buffer_tpl.html#afbd8ceec9c2a5a6818543ff2d522e060" target="_top" xlink:title="Puts the interleaved contents in the target buffer.">
<polygon fill="none" stroke="black" points="770.5,-44.86 770.5,-74.86 884.5,-74.86 884.5,-44.86 770.5,-44.86"/>
<text text-anchor="start" x="778.5" y="-62.86" font-family="Helvetica,sans-Serif" font-size="10.00">tklb::AudioBufferTpl</text>
<text text-anchor="middle" x="827.5" y="-51.86" font-family="Helvetica,sans-Serif" font-size="10.00">::putInterleaved</text>
</a>
</g>
</g>
<!-- Node2&#45;&gt;Node16 -->
<g id="edge23" class="edge">
<title>Node2&#45;&gt;Node16</title>
<path fill="none" stroke="midnightblue" d="M351.05,-131.58C363.11,-129.22 375.35,-126.91 387,-124.86 518.95,-101.66 674.16,-80.02 760.33,-68.5"/>
<polygon fill="midnightblue" stroke="midnightblue" points="761.04,-71.94 770.49,-67.15 760.12,-65 761.04,-71.94"/>
</g>
<!-- Node18 -->
<g id="node18" class="node">
<title>Node18</title>
<g id="a_node18"><a xlink:href="classtklb_1_1_audio_buffer_tpl.html#a8e7b5b551a8989f9b06a92207c75b47e" target="_top" xlink:title="Set multiple channels from an interleaved array.">
<polygon fill="none" stroke="black" points="769,-93.86 769,-123.86 886,-123.86 886,-93.86 769,-93.86"/>
<text text-anchor="start" x="777" y="-111.86" font-family="Helvetica,sans-Serif" font-size="10.00">tklb::AudioBufferTpl</text>
<text text-anchor="middle" x="827.5" y="-100.86" font-family="Helvetica,sans-Serif" font-size="10.00">::setFromInterleaved</text>
</a>
</g>
</g>
<!-- Node2&#45;&gt;Node18 -->
<g id="edge28" class="edge">
<title>Node2&#45;&gt;Node18</title>
<path fill="none" stroke="midnightblue" d="M351.08,-143.54C463.31,-135.36 656.68,-121.25 758.79,-113.8"/>
<polygon fill="midnightblue" stroke="midnightblue" points="759.26,-117.27 768.98,-113.06 758.75,-110.29 759.26,-117.27"/>
</g>
<!-- Node5 -->
<g id="node5" class="node">
<title>Node5</title>
<g id="a_node5"><a xlink:href="classtklb_1_1_audio_ring_buffer_tpl.html#a376759b29135ae4deeaa61eca9a0ea4e" target="_top" xlink:title="Puts a number of elements in the buffer provided.">
<polygon fill="none" stroke="black" points="584.5,-270.86 584.5,-300.86 720.5,-300.86 720.5,-270.86 584.5,-270.86"/>
<text text-anchor="start" x="592.5" y="-288.86" font-family="Helvetica,sans-Serif" font-size="10.00">tklb::AudioRingBufferTpl</text>
<text text-anchor="middle" x="652.5" y="-277.86" font-family="Helvetica,sans-Serif" font-size="10.00">::peek</text>
</a>
</g>
</g>
<!-- Node4&#45;&gt;Node5 -->
<g id="edge4" class="edge">
<title>Node4&#45;&gt;Node5</title>
<path fill="none" stroke="midnightblue" d="M509.67,-235.43C521.79,-238.48 535,-242.06 547,-245.86 566.38,-252 587.37,-259.8 605.42,-266.88"/>
<polygon fill="midnightblue" stroke="midnightblue" points="604.53,-270.29 615.12,-270.72 607.11,-263.78 604.53,-270.29"/>
</g>
<!-- Node6 -->
<g id="node6" class="node">
<title>Node6</title>
<g id="a_node6"><a xlink:href="classtklb_1_1_audio_buffer_tpl.html#ab6e5250746ca3784a568591a3ffdbc12" target="_top" xlink:title="Set a single channel from an array.">
<polygon fill="none" stroke="black" points="760,-181.36 760,-200.36 895,-200.36 895,-181.36 760,-181.36"/>
<text text-anchor="middle" x="827.5" y="-188.36" font-family="Helvetica,sans-Serif" font-size="10.00">tklb::AudioBufferTpl::set</text>
</a>
</g>
</g>
<!-- Node5&#45;&gt;Node6 -->
<g id="edge5" class="edge">
<title>Node5&#45;&gt;Node6</title>
<path fill="none" stroke="midnightblue" d="M680.91,-270.81C713.52,-252.9 767.58,-223.22 799.85,-205.5"/>
<polygon fill="midnightblue" stroke="midnightblue" points="801.64,-208.5 808.72,-200.62 798.27,-202.37 801.64,-208.5"/>
</g>
<!-- Node10 -->
<g id="node10" class="node">
<title>Node10</title>
<g id="a_node10"><a xlink:href="classtklb_1_1_audio_buffer_tpl.html#af6df8d7e6840eee3f84807bd1662c3ed" target="_top" xlink:title="Returns the allocated length of the buffer.">
<polygon fill="none" stroke="black" points="944,-262.86 944,-292.86 1058,-292.86 1058,-262.86 944,-262.86"/>
<text text-anchor="start" x="952" y="-280.86" font-family="Helvetica,sans-Serif" font-size="10.00">tklb::AudioBufferTpl</text>
<text text-anchor="middle" x="1001" y="-269.86" font-family="Helvetica,sans-Serif" font-size="10.00">::size</text>
</a>
</g>
</g>
<!-- Node5&#45;&gt;Node10 -->
<g id="edge13" class="edge">
<title>Node5&#45;&gt;Node10</title>
<path fill="none" stroke="midnightblue" d="M664.25,-300.89C681.21,-323.15 716.53,-363.95 758,-379.86 815.68,-401.98 839.87,-403.36 897,-379.86 935.35,-364.08 967,-326.36 984.69,-301.48"/>
<polygon fill="midnightblue" stroke="midnightblue" points="987.77,-303.18 990.56,-292.96 982.01,-299.21 987.77,-303.18"/>
</g>
<!-- Node11 -->
<g id="node11" class="node">
<title>Node11</title>
<g id="a_node11"><a xlink:href="classtklb_1_1_audio_buffer_tpl.html#ab4e27a0d2eca612dcfc2a6a1c8678428" target="_top" xlink:title="Set the amount of valid samples currently in the buffer This is mostly a convenience flag since the a...">
<polygon fill="none" stroke="black" points="770.5,-306.86 770.5,-336.86 884.5,-336.86 884.5,-306.86 770.5,-306.86"/>
<text text-anchor="start" x="778.5" y="-324.86" font-family="Helvetica,sans-Serif" font-size="10.00">tklb::AudioBufferTpl</text>
<text text-anchor="middle" x="827.5" y="-313.86" font-family="Helvetica,sans-Serif" font-size="10.00">::setValidSize</text>
</a>
</g>
</g>
<!-- Node5&#45;&gt;Node11 -->
<g id="edge10" class="edge">
<title>Node5&#45;&gt;Node11</title>
<path fill="none" stroke="midnightblue" d="M720.88,-299.88C733.96,-302.6 747.65,-305.45 760.68,-308.16"/>
<polygon fill="midnightblue" stroke="midnightblue" points="759.99,-311.59 770.49,-310.21 761.42,-304.74 759.99,-311.59"/>
</g>
<!-- Node7 -->
<g id="node7" class="node">
<title>Node7</title>
<g id="a_node7"><a xlink:href="namespacetklb_1_1memory.html#ab89ec197028f903f4ea125eae46c4a10" target="_top" xlink:title="memcpy wrapper">
<polygon fill="none" stroke="black" points="945,-181.36 945,-200.36 1057,-200.36 1057,-181.36 945,-181.36"/>
<text text-anchor="middle" x="1001" y="-188.36" font-family="Helvetica,sans-Serif" font-size="10.00">tklb::memory::copy</text>
</a>
</g>
</g>
<!-- Node6&#45;&gt;Node7 -->
<g id="edge6" class="edge">
<title>Node6&#45;&gt;Node7</title>
<path fill="none" stroke="midnightblue" d="M895.3,-190.86C908.21,-190.86 921.73,-190.86 934.59,-190.86"/>
<polygon fill="midnightblue" stroke="midnightblue" points="934.75,-194.36 944.75,-190.86 934.75,-187.36 934.75,-194.36"/>
</g>
<!-- Node8 -->
<g id="node8" class="node">
<title>Node8</title>
<g id="a_node8"><a xlink:href="classtklb_1_1_audio_buffer_tpl.html#aee0540e90ae2790f9a809917bc5a04fd" target="_top" xlink:title=" ">
<polygon fill="none" stroke="black" points="933,-99.36 933,-118.36 1069,-118.36 1069,-99.36 933,-99.36"/>
<text text-anchor="middle" x="1001" y="-106.36" font-family="Helvetica,sans-Serif" font-size="10.00">tklb::AudioBufferTpl::get</text>
</a>
</g>
</g>
<!-- Node6&#45;&gt;Node8 -->
<g id="edge7" class="edge">
<title>Node6&#45;&gt;Node8</title>
<path fill="none" stroke="midnightblue" d="M844.43,-181.24C864.61,-169.28 900.66,-148.62 933,-133.86 942.22,-129.65 952.37,-125.58 961.93,-122"/>
<polygon fill="midnightblue" stroke="midnightblue" points="963.42,-125.18 971.6,-118.44 961.01,-118.6 963.42,-125.18"/>
</g>
<!-- Node9 -->
<g id="node9" class="node">
<title>Node9</title>
<g id="a_node9"><a xlink:href="namespacetklb.html#a3080595da18d742645ec41d61828a426" target="_top" xlink:title=" ">
<polygon fill="none" stroke="black" points="971,-143.36 971,-162.36 1031,-162.36 1031,-143.36 971,-143.36"/>
<text text-anchor="middle" x="1001" y="-150.36" font-family="Helvetica,sans-Serif" font-size="10.00">tklb::min</text>
</a>
</g>
</g>
<!-- Node6&#45;&gt;Node9 -->
<g id="edge8" class="edge">
<title>Node6&#45;&gt;Node9</title>
<path fill="none" stroke="midnightblue" d="M871.78,-181.27C899.11,-175.21 934.14,-167.45 960.68,-161.57"/>
<polygon fill="midnightblue" stroke="midnightblue" points="961.76,-164.92 970.76,-159.34 960.24,-158.08 961.76,-164.92"/>
</g>
<!-- Node6&#45;&gt;Node10 -->
<g id="edge9" class="edge">
<title>Node6&#45;&gt;Node10</title>
<path fill="none" stroke="midnightblue" d="M860.09,-200.37C871.89,-204.32 885.27,-209.3 897,-214.86 922.57,-226.99 949.82,-243.85 969.86,-257.08"/>
<polygon fill="midnightblue" stroke="midnightblue" points="968,-260.04 978.26,-262.68 971.89,-254.22 968,-260.04"/>
</g>
<!-- Node11&#45;&gt;Node9 -->
<g id="edge11" class="edge">
<title>Node11&#45;&gt;Node9</title>
<path fill="none" stroke="midnightblue" d="M884.79,-307.46C889.29,-304.79 893.46,-301.62 897,-297.86 936.96,-255.49 891.78,-213 933,-171.86 940.45,-164.43 950.57,-159.85 960.69,-157.05"/>
<polygon fill="midnightblue" stroke="midnightblue" points="961.72,-160.41 970.71,-154.8 960.19,-153.58 961.72,-160.41"/>
</g>
<!-- Node11&#45;&gt;Node10 -->
<g id="edge12" class="edge">
<title>Node11&#45;&gt;Node10</title>
<path fill="none" stroke="midnightblue" d="M884.66,-307.45C900.35,-303.43 917.55,-299.01 933.77,-294.85"/>
<polygon fill="midnightblue" stroke="midnightblue" points="934.9,-298.17 943.72,-292.3 933.16,-291.39 934.9,-298.17"/>
</g>
<!-- Node12&#45;&gt;Node6 -->
<g id="edge17" class="edge">
<title>Node12&#45;&gt;Node6</title>
<path fill="none" stroke="midnightblue" d="M722.37,-197.48C731.34,-196.91 740.57,-196.32 749.66,-195.75"/>
<polygon fill="midnightblue" stroke="midnightblue" points="750.08,-199.23 759.84,-195.1 749.64,-192.24 750.08,-199.23"/>
</g>
<!-- Node12&#45;&gt;Node9 -->
<g id="edge16" class="edge">
<title>Node12&#45;&gt;Node9</title>
<path fill="none" stroke="midnightblue" d="M698.3,-186.85C716.61,-181.29 738.13,-175.45 758,-171.86 828.7,-159.07 912.57,-154.89 960.7,-153.52"/>
<polygon fill="midnightblue" stroke="midnightblue" points="960.79,-157.02 970.7,-153.26 960.61,-150.02 960.79,-157.02"/>
</g>
<!-- Node12&#45;&gt;Node10 -->
<g id="edge18" class="edge">
<title>Node12&#45;&gt;Node10</title>
<path fill="none" stroke="midnightblue" d="M675.6,-217.08C690.31,-228.13 709.22,-244.18 722,-261.86 746.04,-295.11 723.8,-324.2 758,-346.86 809.5,-380.98 837.89,-364.83 897,-346.86 927.27,-337.66 956.74,-316.27 976.35,-299.73"/>
<polygon fill="midnightblue" stroke="midnightblue" points="978.86,-302.18 984.12,-292.99 974.27,-296.9 978.86,-302.18"/>
</g>
<!-- Node13 -->
<g id="node13" class="node">
<title>Node13</title>
<g id="a_node13"><a xlink:href="classtklb_1_1_resampler_speex_tpl.html#a5b4b65f32dbcec425871cc26384d4643" target="_top" xlink:title="Estimate how many sample will be emitted in the next step.">
<polygon fill="none" stroke="black" points="758,-257.86 758,-287.86 897,-287.86 897,-257.86 758,-257.86"/>
<text text-anchor="start" x="766" y="-275.86" font-family="Helvetica,sans-Serif" font-size="10.00">tklb::ResamplerSpeexTpl</text>
<text text-anchor="middle" x="827.5" y="-264.86" font-family="Helvetica,sans-Serif" font-size="10.00">::estimateOut</text>
</a>
</g>
</g>
<!-- Node12&#45;&gt;Node13 -->
<g id="edge15" class="edge">
<title>Node12&#45;&gt;Node13</title>
<path fill="none" stroke="midnightblue" d="M690.19,-216.92C716.57,-227.74 752.32,-242.41 780.59,-254.02"/>
<polygon fill="midnightblue" stroke="midnightblue" points="779.28,-257.27 789.86,-257.82 781.94,-250.79 779.28,-257.27"/>
</g>
<!-- Node14&#45;&gt;Node6 -->
<g id="edge20" class="edge">
<title>Node14&#45;&gt;Node6</title>
<path fill="none" stroke="midnightblue" d="M720.88,-167.66C738.25,-171.47 756.69,-175.53 773.23,-179.16"/>
<polygon fill="midnightblue" stroke="midnightblue" points="772.73,-182.63 783.25,-181.36 774.23,-175.79 772.73,-182.63"/>
</g>
<!-- Node14&#45;&gt;Node10 -->
<g id="edge21" class="edge">
<title>Node14&#45;&gt;Node10</title>
<path fill="none" stroke="midnightblue" d="M702.09,-167.99C708.97,-170.87 715.8,-174.16 722,-177.86 740.38,-188.83 739.21,-199.59 758,-209.86 814.31,-240.63 835.23,-231.5 897,-248.86 909.83,-252.46 923.55,-256.33 936.66,-260.02"/>
<polygon fill="midnightblue" stroke="midnightblue" points="935.97,-263.46 946.54,-262.8 937.87,-256.72 935.97,-263.46"/>
</g>
<!-- Node14&#45;&gt;Node15 -->
<g id="edge22" class="edge">
<title>Node14&#45;&gt;Node15</title>
<path fill="none" stroke="midnightblue" d="M661.71,-137.58C676.81,-111.25 711.71,-57.92 758,-34.86 812.52,-7.7 882.63,-5.15 933.33,-8.08"/>
<polygon fill="midnightblue" stroke="midnightblue" points="933.31,-11.59 943.52,-8.76 933.78,-4.6 933.31,-11.59"/>
</g>
<!-- Node16&#45;&gt;Node8 -->
<g id="edge25" class="edge">
<title>Node16&#45;&gt;Node8</title>
<path fill="none" stroke="midnightblue" d="M880.85,-74.92C897.51,-79.71 916.03,-85.02 933,-89.86 940.6,-92.03 948.69,-94.33 956.53,-96.55"/>
<polygon fill="midnightblue" stroke="midnightblue" points="955.68,-99.95 966.25,-99.31 957.59,-93.22 955.68,-99.95"/>
</g>
<!-- Node16&#45;&gt;Node9 -->
<g id="edge26" class="edge">
<title>Node16&#45;&gt;Node9</title>
<path fill="none" stroke="midnightblue" d="M879.4,-74.98C885.59,-77.8 891.61,-81.08 897,-84.86 917.4,-99.18 912.65,-113.47 933,-127.86 941.44,-133.83 951.48,-138.56 961.18,-142.22"/>
<polygon fill="midnightblue" stroke="midnightblue" points="960.1,-145.55 970.7,-145.54 962.4,-138.94 960.1,-145.55"/>
</g>
<!-- Node16&#45;&gt;Node15 -->
<g id="edge27" class="edge">
<title>Node16&#45;&gt;Node15</title>
<path fill="none" stroke="midnightblue" d="M884.66,-45.45C900.35,-41.43 917.55,-37.01 933.77,-32.85"/>
<polygon fill="midnightblue" stroke="midnightblue" points="934.9,-36.17 943.72,-30.3 933.16,-29.39 934.9,-36.17"/>
</g>
<!-- Node17 -->
<g id="node17" class="node">
<title>Node17</title>
<g id="a_node17"><a xlink:href="classtklb_1_1_audio_buffer_tpl.html#a7859b26033cbb893c2ea7acea54d8013" target="_top" xlink:title="Returns the amount of channels.">
<polygon fill="none" stroke="black" points="944,-49.86 944,-79.86 1058,-79.86 1058,-49.86 944,-49.86"/>
<text text-anchor="start" x="952" y="-67.86" font-family="Helvetica,sans-Serif" font-size="10.00">tklb::AudioBufferTpl</text>
<text text-anchor="middle" x="1001" y="-56.86" font-family="Helvetica,sans-Serif" font-size="10.00">::channels</text>
</a>
</g>
</g>
<!-- Node16&#45;&gt;Node17 -->
<g id="edge24" class="edge">
<title>Node16&#45;&gt;Node17</title>
<path fill="none" stroke="midnightblue" d="M884.66,-61.5C900.2,-61.95 917.23,-62.45 933.31,-62.92"/>
<polygon fill="midnightblue" stroke="midnightblue" points="933.62,-66.43 943.72,-63.22 933.82,-59.43 933.62,-66.43"/>
</g>
<!-- Node18&#45;&gt;Node8 -->
<g id="edge30" class="edge">
<title>Node18&#45;&gt;Node8</title>
<path fill="none" stroke="midnightblue" d="M886.08,-108.86C897.79,-108.86 910.29,-108.86 922.55,-108.86"/>
<polygon fill="midnightblue" stroke="midnightblue" points="922.78,-112.36 932.78,-108.86 922.78,-105.36 922.78,-112.36"/>
</g>
<!-- Node18&#45;&gt;Node9 -->
<g id="edge31" class="edge">
<title>Node18&#45;&gt;Node9</title>
<path fill="none" stroke="midnightblue" d="M886.08,-123.63C910.72,-129.96 938.86,-137.17 961,-142.85"/>
<polygon fill="midnightblue" stroke="midnightblue" points="960.16,-146.25 970.72,-145.35 961.9,-139.47 960.16,-146.25"/>
</g>
<!-- Node18&#45;&gt;Node10 -->
<g id="edge32" class="edge">
<title>Node18&#45;&gt;Node10</title>
<path fill="none" stroke="midnightblue" d="M845.69,-124.08C859.73,-136.64 879.97,-155.08 897,-171.86 913.57,-188.19 916.84,-193.13 933,-209.86 947.82,-225.2 964.68,-242.31 977.78,-255.53"/>
<polygon fill="midnightblue" stroke="midnightblue" points="975.48,-258.18 985.01,-262.82 980.45,-253.25 975.48,-258.18"/>
</g>
<!-- Node18&#45;&gt;Node17 -->
<g id="edge29" class="edge">
<title>Node18&#45;&gt;Node17</title>
<path fill="none" stroke="midnightblue" d="M886.08,-94.09C901.48,-90.14 918.23,-85.84 934.03,-81.78"/>
<polygon fill="midnightblue" stroke="midnightblue" points="934.92,-85.17 943.73,-79.3 933.18,-78.39 934.92,-85.17"/>
</g>
</g>
</svg>
        <g id="navigator" transform="translate(0 0)" fill="#404254">
                <rect fill="#f2f5e9" fill-opacity="0.5" stroke="#606060" stroke-width=".5" x="0" y="0" width="60" height="60"/>
                <use id="zoomplus" xlink:href="#zoomPlus" x="17" y="9" onmousedown="handleZoom(evt,'in')"/>
                <use id="zoomminus" xlink:href="#zoomMin" x="42" y="9" onmousedown="handleZoom(evt,'out')"/>
                <use id="reset" xlink:href="#resetDef" x="30" y="36" onmousedown="handleReset()"/>
                <g id="arrowUp" xlink:href="#dirArrow" transform="translate(30 24)" onmousedown="handlePan(0,-1)">
                  <use xlink:href="#rim" fill="#404040">
                        <set attributeName="fill" to="#808080" begin="arrowUp.mouseover" end="arrowUp.mouseout"/>
                  </use>
                  <path fill="none" stroke="white" stroke-width="1.5" d="M0,-3.0v7 M-2.5,-0.5L0,-3.0L2.5,-0.5"/>
                </g>
                <g id="arrowRight" xlink:href="#dirArrow" transform="rotate(90) translate(36 -43)" onmousedown="handlePan(1,0)">
                  <use xlink:href="#rim" fill="#404040">
                        <set attributeName="fill" to="#808080" begin="arrowRight.mouseover" end="arrowRight.mouseout"/>
                  </use>
                  <path fill="none" stroke="white" stroke-width="1.5" d="M0,-3.0v7 M-2.5,-0.5L0,-3.0L2.5,-0.5"/>
                </g>
                <g id="arrowDown" xlink:href="#dirArrow" transform="rotate(180) translate(-30 -48)" onmousedown="handlePan(0,1)">
                  <use xlink:href="#rim" fill="#404040">
                        <set attributeName="fill" to="#808080" begin="arrowDown.mouseover" end="arrowDown.mouseout"/>
                  </use>
                  <path fill="none" stroke="white" stroke-width="1.5" d="M0,-3.0v7 M-2.5,-0.5L0,-3.0L2.5,-0.5"/>
                </g>
                <g id="arrowLeft" xlink:href="#dirArrow" transform="rotate(270) translate(-36 17)" onmousedown="handlePan(-1,0)">
                  <use xlink:href="#rim" fill="#404040">
                        <set attributeName="fill" to="#808080" begin="arrowLeft.mouseover" end="arrowLeft.mouseout"/>
                  </use>
                  <path fill="none" stroke="white" stroke-width="1.5" d="M0,-3.0v7 M-2.5,-0.5L0,-3.0L2.5,-0.5"/>
                </g>
        </g>
        <svg viewBox="0 0 15 15" width="100%" height="30px" preserveAspectRatio="xMaxYMin meet">
         <g id="arrow_out" transform="scale(0.3 0.3)">
          <a xlink:href="classvae_1_1core_1_1_device_dummy_ac4105d62f1ae237fd9bb8d8bd8dda6a6_cgraph_org.svg" target="_base">
           <rect id="button" ry="5" rx="5" y="6" x="6" height="38" width="38"
                fill="#f2f5e9" fill-opacity="0.5" stroke="#606060" stroke-width="1.0"/>
           <path id="arrow"
             d="M 11.500037,31.436501 C 11.940474,20.09759 22.043105,11.32322 32.158766,21.979434 L 37.068811,17.246167 C 37.068811,17.246167 37.088388,32 37.088388,32 L 22.160133,31.978069 C 22.160133,31.978069 26.997745,27.140456 26.997745,27.140456 C 18.528582,18.264221 13.291696,25.230495 11.500037,31.436501 z"
             style="fill:#404040;"/>
          </a>
         </g>
        </svg>
</svg>
