<?xml version="1.0" encoding="UTF-8" standalone="no"?>
<!DOCTYPE svg PUBLIC "-//W3C//DTD SVG 1.1//EN"
 "http://www.w3.org/Graphics/SVG/1.1/DTD/svg11.dtd">
<!-- Generated by graphviz version 2.50.0 (0)
 -->
<!-- Title: tklb::LockGuardTry&lt; T &gt; Pages: 1 -->
<svg width="155pt" height="248pt"
 viewBox="0.00 0.00 155.00 248.00" xmlns="http://www.w3.org/2000/svg" xmlns:xlink="http://www.w3.org/1999/xlink">
<g id="graph0" class="graph" transform="scale(1 1) rotate(0) translate(4 244)">
<title>tklb::LockGuardTry&lt; T &gt;</title>
<!-- Node1 -->
<g id="node1" class="node">
<title>Node1</title>
<g id="a_node1"><a xlink:title=" ">
<polygon fill="#bfbfbf" stroke="black" points="0,-0.5 0,-134.5 136,-134.5 136,-0.5 0,-0.5"/>
<text text-anchor="middle" x="68" y="-122.5" font-family="Helvetica,sans-Serif" font-size="10.00">tklb::LockGuardTry&lt; T &gt;</text>
<polyline fill="none" stroke="black" points="0,-115.5 136,-115.5 "/>
<text text-anchor="middle" x="68" y="-103.5" font-family="Helvetica,sans-Serif" font-size="10.00"> </text>
<polyline fill="none" stroke="black" points="0,-96.5 136,-96.5 "/>
<text text-anchor="start" x="8" y="-84.5" font-family="Helvetica,sans-Serif" font-size="10.00">+ LockGuardTry()</text>
<text text-anchor="start" x="8" y="-73.5" font-family="Helvetica,sans-Serif" font-size="10.00">+ LockGuardTry()</text>
<text text-anchor="start" x="8" y="-62.5" font-family="Helvetica,sans-Serif" font-size="10.00">+ LockGuardTry()</text>
<text text-anchor="start" x="8" y="-51.5" font-family="Helvetica,sans-Serif" font-size="10.00">+ operator=()</text>
<text text-anchor="start" x="8" y="-40.5" font-family="Helvetica,sans-Serif" font-size="10.00">+ operator=()</text>
<text text-anchor="start" x="8" y="-29.5" font-family="Helvetica,sans-Serif" font-size="10.00">+ LockGuardTry()</text>
<text text-anchor="start" x="8" y="-18.5" font-family="Helvetica,sans-Serif" font-size="10.00">+ isLocked()</text>
<text text-anchor="start" x="8" y="-7.5" font-family="Helvetica,sans-Serif" font-size="10.00">+ ~LockGuardTry()</text>
</a>
</g>
</g>
<!-- Node2 -->
<g id="node2" class="node">
<title>Node2</title>
<g id="a_node2"><a xlink:title=" ">
<polygon fill="none" stroke="#bfbfbf" points="16.5,-182.5 16.5,-239.5 49.5,-239.5 49.5,-182.5 16.5,-182.5"/>
<text text-anchor="middle" x="33" y="-227.5" font-family="Helvetica,sans-Serif" font-size="10.00">T &amp;</text>
<polyline fill="none" stroke="#bfbfbf" points="16.5,-220.5 49.5,-220.5 "/>
<text text-anchor="middle" x="33" y="-208.5" font-family="Helvetica,sans-Serif" font-size="10.00"> </text>
<polyline fill="none" stroke="#bfbfbf" points="16.5,-201.5 49.5,-201.5 "/>
<text text-anchor="middle" x="33" y="-189.5" font-family="Helvetica,sans-Serif" font-size="10.00"> </text>
</a>
</g>
</g>
<!-- Node2&#45;&gt;Node1 -->
<g id="edge1" class="edge">
<title>Node2&#45;&gt;Node1</title>
<path fill="none" stroke="#404040" d="M31.47,-182.24C31.49,-172.87 32.09,-162.41 34,-153 34.44,-150.83 34.93,-148.64 35.48,-146.45"/>
<polygon fill="none" stroke="#404040" points="35.53,-146.24 33.3,-139.38 38.77,-134.69 41,-141.54 35.53,-146.24"/>
<text text-anchor="middle" x="57.5" y="-156" font-family="Helvetica,sans-Serif" font-size="10.00"> &#45;mMutex</text>
</g>
<!-- Node3 -->
<g id="node3" class="node">
<title>Node3</title>
<g id="a_node3"><a xlink:title=" ">
<polygon fill="none" stroke="#bfbfbf" points="84,-182.5 84,-239.5 122,-239.5 122,-182.5 84,-182.5"/>
<text text-anchor="middle" x="103" y="-227.5" font-family="Helvetica,sans-Serif" font-size="10.00">bool</text>
<polyline fill="none" stroke="#bfbfbf" points="84,-220.5 122,-220.5 "/>
<text text-anchor="middle" x="103" y="-208.5" font-family="Helvetica,sans-Serif" font-size="10.00"> </text>
<polyline fill="none" stroke="#bfbfbf" points="84,-201.5 122,-201.5 "/>
<text text-anchor="middle" x="103" y="-189.5" font-family="Helvetica,sans-Serif" font-size="10.00"> </text>
</a>
</g>
</g>
<!-- Node3&#45;&gt;Node1 -->
<g id="edge2" class="edge">
<title>Node3&#45;&gt;Node1</title>
<path fill="none" stroke="#404040" d="M96.17,-182.38C93.58,-171.91 90.49,-159.41 87.31,-146.58"/>
<polygon fill="none" stroke="#404040" points="87.27,-146.4 81.95,-141.54 84.39,-134.75 89.71,-139.62 87.27,-146.4"/>
<text text-anchor="middle" x="118.5" y="-156" font-family="Helvetica,sans-Serif" font-size="10.00"> &#45;mGotLock</text>
</g>
</g>
</svg>
