<?xml version="1.0" encoding="UTF-8" standalone="no"?>
<!DOCTYPE svg PUBLIC "-//W3C//DTD SVG 1.1//EN"
 "http://www.w3.org/Graphics/SVG/1.1/DTD/svg11.dtd">
<!-- Generated by graphviz version 2.50.0 (0)
 -->
<!-- Title: tklb::HeapBuffer::inject Pages: 1 -->
<!--zoomable 236 -->
<svg id="main" version="1.1" xmlns="http://www.w3.org/2000/svg" xmlns:xlink="http://www.w3.org/1999/xlink" xml:space="preserve" onload="init(evt)">
<style type="text/css"><![CDATA[
.edge:hover path { stroke: red; }
.edge:hover polygon { stroke: red; fill: red; }
]]></style>
<script type="text/javascript"><![CDATA[
var edges = document.getElementsByTagName('g');
if (edges && edges.length) {
  for (var i=0;i<edges.length;i++) {
    if (edges[i].id.substr(0,4)=='edge') {
      edges[i].setAttribute('class','edge');
    }
  }
}
]]></script>
        <defs>
                <circle id="rim" cx="0" cy="0" r="7"/>
                <circle id="rim2" cx="0" cy="0" r="3.5"/>
                <g id="zoomPlus">
                        <use xlink:href="#rim" fill="#404040">
                                <set attributeName="fill" to="#808080" begin="zoomplus.mouseover" end="zoomplus.mouseout"/>
                        </use>
                        <path d="M-4,0h8M0,-4v8" fill="none" stroke="white" stroke-width="1.5" pointer-events="none"/>
                </g>
                <g id="zoomMin">
                        <use xlink:href="#rim" fill="#404040">
                                <set attributeName="fill" to="#808080" begin="zoomminus.mouseover" end="zoomminus.mouseout"/>
                        </use>
                        <path d="M-4,0h8" fill="none" stroke="white" stroke-width="1.5" pointer-events="none"/>
                </g>
                <g id="dirArrow">
                        <path fill="none" stroke="white" stroke-width="1.5" d="M0,-3.0v7 M-2.5,-0.5L0,-3.0L2.5,-0.5"/>
                </g>
               <g id="resetDef">
                       <use xlink:href="#rim2" fill="#404040">
                               <set attributeName="fill" to="#808080" begin="reset.mouseover" end="reset.mouseout"/>
                       </use>
               </g>
        </defs>

<script type="text/javascript">
var viewWidth = 673;
var viewHeight = 236;
var sectionId = 'dynsection-17';
</script>
<script xlink:href="svgpan.js"/>
<svg id="graph" class="graph">
<g id="viewport">
<title>tklb::HeapBuffer::inject</title>
<!-- Node1 -->
<g id="node1" class="node">
<title>Node1</title>
<g id="a_node1"><a xlink:title="Provide foreign memory to borrow.">
<polygon fill="#bfbfbf" stroke="black" points="0,-132.18 0,-151.18 130,-151.18 130,-132.18 0,-132.18"/>
<text text-anchor="middle" x="65" y="-139.18" font-family="Helvetica,sans-Serif" font-size="10.00">tklb::HeapBuffer::inject</text>
</a>
</g>
</g>
<!-- Node2 -->
<g id="node2" class="node">
<title>Node2</title>
<g id="a_node2"><a xlink:href="classtklb_1_1_heap_buffer.html#ae41c73fc5f004efb1449d2d0a1614791" target="_top" xlink:title="The memory is no longer manager by this instance.">
<polygon fill="none" stroke="black" points="166,-208.18 166,-227.18 303,-227.18 303,-208.18 166,-208.18"/>
<text text-anchor="middle" x="234.5" y="-215.18" font-family="Helvetica,sans-Serif" font-size="10.00">tklb::HeapBuffer::disown</text>
</a>
</g>
</g>
<!-- Node1&#45;&gt;Node2 -->
<g id="edge1" class="edge">
<title>Node1&#45;&gt;Node2</title>
<path fill="none" stroke="midnightblue" d="M82.64,-151.24C102.21,-162.26 135.86,-180.56 166,-193.68 175.06,-197.62 184.99,-201.43 194.38,-204.8"/>
<polygon fill="midnightblue" stroke="midnightblue" points="193.32,-208.14 203.92,-208.15 195.64,-201.54 193.32,-208.14"/>
</g>
<!-- Node4 -->
<g id="node4" class="node">
<title>Node4</title>
<g id="a_node4"><a xlink:href="classtklb_1_1_heap_buffer.html#a25c9d8fce108ff905202bcf7a6038d3d" target="_top" xlink:title="Whether the memory is managed by the instance or is borrowed.">
<polygon fill="none" stroke="black" points="520,-161.18 520,-180.18 662,-180.18 662,-161.18 520,-161.18"/>
<text text-anchor="middle" x="591" y="-168.18" font-family="Helvetica,sans-Serif" font-size="10.00">tklb::HeapBuffer::injected</text>
</a>
</g>
</g>
<!-- Node1&#45;&gt;Node4 -->
<g id="edge3" class="edge">
<title>Node1&#45;&gt;Node4</title>
<path fill="none" stroke="midnightblue" d="M130.25,-145.24C225.86,-150.53 405.47,-160.47 509.64,-166.23"/>
<polygon fill="midnightblue" stroke="midnightblue" points="509.61,-169.74 519.79,-166.79 510,-162.75 509.61,-169.74"/>
</g>
<!-- Node5 -->
<g id="node5" class="node">
<title>Node5</title>
<g id="a_node5"><a xlink:href="classtklb_1_1_heap_buffer.html#aea890defe7d21d9273e005464b04f784" target="_top" xlink:title="Resize the buffer If the memory is borrowed it will become unique and owned by this instance as soon ...">
<polygon fill="none" stroke="black" points="168.5,-94.18 168.5,-113.18 300.5,-113.18 300.5,-94.18 168.5,-94.18"/>
<text text-anchor="middle" x="234.5" y="-101.18" font-family="Helvetica,sans-Serif" font-size="10.00">tklb::HeapBuffer::resize</text>
</a>
</g>
</g>
<!-- Node1&#45;&gt;Node5 -->
<g id="edge4" class="edge">
<title>Node1&#45;&gt;Node5</title>
<path fill="none" stroke="midnightblue" d="M108.27,-132.09C130.57,-127.03 158.12,-120.78 181.7,-115.43"/>
<polygon fill="midnightblue" stroke="midnightblue" points="182.56,-118.83 191.54,-113.2 181.01,-112 182.56,-118.83"/>
</g>
<!-- Node11 -->
<g id="node11" class="node">
<title>Node11</title>
<g id="a_node11"><a xlink:href="classtklb_1_1_heap_buffer.html#a172cd1dde86d1f3b0308fb0ce4a1758a" target="_top" xlink:title="Returns the amount of elements in the container.">
<polygon fill="none" stroke="black" points="530,-6.18 530,-25.18 652,-25.18 652,-6.18 530,-6.18"/>
<text text-anchor="middle" x="591" y="-13.18" font-family="Helvetica,sans-Serif" font-size="10.00">tklb::HeapBuffer::size</text>
</a>
</g>
</g>
<!-- Node1&#45;&gt;Node11 -->
<g id="edge14" class="edge">
<title>Node1&#45;&gt;Node11</title>
<path fill="none" stroke="midnightblue" d="M79.32,-132.17C117.44,-105.64 231.16,-31.32 339,-8.68 399.07,3.93 468.99,0.55 519.75,-5.04"/>
<polygon fill="midnightblue" stroke="midnightblue" points="519.63,-8.55 529.96,-6.22 520.43,-1.6 519.63,-8.55"/>
</g>
<!-- Node3 -->
<g id="node3" class="node">
<title>Node3</title>
<g id="a_node3"><a xlink:href="classtklb_1_1_heap_buffer.html#a4e6ef03e8309e273be77adba87080abf" target="_top" xlink:title=" ">
<polygon fill="none" stroke="black" points="343,-208.18 343,-227.18 477,-227.18 477,-208.18 343,-208.18"/>
<text text-anchor="middle" x="410" y="-215.18" font-family="Helvetica,sans-Serif" font-size="10.00">tklb::HeapBuffer::empty</text>
</a>
</g>
</g>
<!-- Node2&#45;&gt;Node3 -->
<g id="edge2" class="edge">
<title>Node2&#45;&gt;Node3</title>
<path fill="none" stroke="midnightblue" d="M303.08,-217.68C312.75,-217.68 322.76,-217.68 332.59,-217.68"/>
<polygon fill="midnightblue" stroke="midnightblue" points="332.75,-221.18 342.75,-217.68 332.75,-214.18 332.75,-221.18"/>
</g>
<!-- Node5&#45;&gt;Node4 -->
<g id="edge12" class="edge">
<title>Node5&#45;&gt;Node4</title>
<path fill="none" stroke="midnightblue" d="M285.91,-113.21C350.01,-125.32 460.56,-146.22 529.24,-159.2"/>
<polygon fill="midnightblue" stroke="midnightblue" points="529,-162.71 539.47,-161.13 530.3,-155.83 529,-162.71"/>
</g>
<!-- Node6 -->
<g id="node6" class="node">
<title>Node6</title>
<g id="a_node6"><a xlink:href="classtklb_1_1_heap_buffer.html#a37d94fdca920347674a4048cdc28452d" target="_top" xlink:title="Allocated the exact size requsted and copies existing objects.">
<polygon fill="none" stroke="black" points="339,-94.18 339,-113.18 481,-113.18 481,-94.18 339,-94.18"/>
<text text-anchor="middle" x="410" y="-101.18" font-family="Helvetica,sans-Serif" font-size="10.00">tklb::HeapBuffer::allocate</text>
</a>
</g>
</g>
<!-- Node5&#45;&gt;Node6 -->
<g id="edge5" class="edge">
<title>Node5&#45;&gt;Node6</title>
<path fill="none" stroke="midnightblue" d="M300.6,-103.68C309.78,-103.68 319.3,-103.68 328.73,-103.68"/>
<polygon fill="midnightblue" stroke="midnightblue" points="328.89,-107.18 338.89,-103.68 328.89,-100.18 328.89,-107.18"/>
</g>
<!-- Node9 -->
<g id="node9" class="node">
<title>Node9</title>
<g id="a_node9"><a xlink:href="classtklb_1_1_heap_buffer.html#a682dc231ff65beb7114cb0e476affd6b" target="_top" xlink:title=" ">
<polygon fill="none" stroke="black" points="341.5,-44.68 341.5,-74.68 478.5,-74.68 478.5,-44.68 341.5,-44.68"/>
<text text-anchor="start" x="349.5" y="-62.68" font-family="Helvetica,sans-Serif" font-size="10.00">tklb::HeapBuffer::closest</text>
<text text-anchor="middle" x="410" y="-51.68" font-family="Helvetica,sans-Serif" font-size="10.00">ChunkSize</text>
</a>
</g>
</g>
<!-- Node5&#45;&gt;Node9 -->
<g id="edge9" class="edge">
<title>Node5&#45;&gt;Node9</title>
<path fill="none" stroke="midnightblue" d="M273.15,-94.13C292.59,-89.2 316.95,-83.02 339.65,-77.27"/>
<polygon fill="midnightblue" stroke="midnightblue" points="340.76,-80.6 349.59,-74.75 339.04,-73.81 340.76,-80.6"/>
</g>
<!-- Node5&#45;&gt;Node11 -->
<g id="edge13" class="edge">
<title>Node5&#45;&gt;Node11</title>
<path fill="none" stroke="midnightblue" d="M245.96,-93.96C263.59,-78.26 301.02,-47.76 339,-34.68 397.68,-14.46 468.51,-10.83 519.95,-11.6"/>
<polygon fill="midnightblue" stroke="midnightblue" points="519.89,-15.1 529.96,-11.81 520.04,-8.1 519.89,-15.1"/>
</g>
<!-- Node6&#45;&gt;Node4 -->
<g id="edge6" class="edge">
<title>Node6&#45;&gt;Node4</title>
<path fill="none" stroke="midnightblue" d="M444.47,-113.21C456.28,-117.08 469.48,-121.99 481,-127.68 498.24,-136.2 499.45,-143.82 517,-151.68 522.36,-154.08 528.08,-156.22 533.87,-158.13"/>
<polygon fill="midnightblue" stroke="midnightblue" points="533.05,-161.54 543.64,-161.1 535.09,-154.84 533.05,-161.54"/>
</g>
<!-- Node7 -->
<g id="node7" class="node">
<title>Node7</title>
<g id="a_node7"><a xlink:href="classtklb_1_1_heap_buffer.html#a23801c62dcfb74cab62a9998de65adeb" target="_top" xlink:title=" ">
<polygon fill="none" stroke="black" points="517,-123.18 517,-142.18 665,-142.18 665,-123.18 517,-123.18"/>
<text text-anchor="middle" x="591" y="-130.18" font-family="Helvetica,sans-Serif" font-size="10.00">tklb::HeapBuffer::isAligned</text>
</a>
</g>
</g>
<!-- Node6&#45;&gt;Node7 -->
<g id="edge7" class="edge">
<title>Node6&#45;&gt;Node7</title>
<path fill="none" stroke="midnightblue" d="M470.11,-113.26C486.38,-115.89 504.18,-118.78 520.96,-121.5"/>
<polygon fill="midnightblue" stroke="midnightblue" points="520.83,-125.02 531.26,-123.16 521.95,-118.11 520.83,-125.02"/>
</g>
<!-- Node8 -->
<g id="node8" class="node">
<title>Node8</title>
<g id="a_node8"><a xlink:href="namespacetklb.html#a3080595da18d742645ec41d61828a426" target="_top" xlink:title=" ">
<polygon fill="none" stroke="black" points="561,-85.18 561,-104.18 621,-104.18 621,-85.18 561,-85.18"/>
<text text-anchor="middle" x="591" y="-92.18" font-family="Helvetica,sans-Serif" font-size="10.00">tklb::min</text>
</a>
</g>
</g>
<!-- Node6&#45;&gt;Node8 -->
<g id="edge8" class="edge">
<title>Node6&#45;&gt;Node8</title>
<path fill="none" stroke="midnightblue" d="M481.23,-100.15C504.75,-98.97 530.14,-97.69 550.46,-96.67"/>
<polygon fill="midnightblue" stroke="midnightblue" points="550.78,-100.16 560.59,-96.16 550.43,-93.17 550.78,-100.16"/>
</g>
<!-- Node10 -->
<g id="node10" class="node">
<title>Node10</title>
<g id="a_node10"><a xlink:href="namespacetklb.html#a7dc2203e89c331e3c85b9e7f16fa6763" target="_top" xlink:title=" ">
<polygon fill="none" stroke="black" points="559.5,-47.18 559.5,-66.18 622.5,-66.18 622.5,-47.18 559.5,-47.18"/>
<text text-anchor="middle" x="591" y="-54.18" font-family="Helvetica,sans-Serif" font-size="10.00">tklb::max</text>
</a>
</g>
</g>
<!-- Node9&#45;&gt;Node10 -->
<g id="edge10" class="edge">
<title>Node9&#45;&gt;Node10</title>
<path fill="none" stroke="midnightblue" d="M478.67,-58.55C502.39,-58.15 528.28,-57.71 549.12,-57.37"/>
<polygon fill="midnightblue" stroke="midnightblue" points="549.28,-60.86 559.22,-57.2 549.16,-53.86 549.28,-60.86"/>
</g>
<!-- Node9&#45;&gt;Node11 -->
<g id="edge11" class="edge">
<title>Node9&#45;&gt;Node11</title>
<path fill="none" stroke="midnightblue" d="M472.1,-44.66C494.75,-39.09 520.1,-32.86 541.47,-27.61"/>
<polygon fill="midnightblue" stroke="midnightblue" points="542.43,-30.98 551.3,-25.19 540.76,-24.18 542.43,-30.98"/>
</g>
</g>
</svg>
        <g id="navigator" transform="translate(0 0)" fill="#404254">
                <rect fill="#f2f5e9" fill-opacity="0.5" stroke="#606060" stroke-width=".5" x="0" y="0" width="60" height="60"/>
                <use id="zoomplus" xlink:href="#zoomPlus" x="17" y="9" onmousedown="handleZoom(evt,'in')"/>
                <use id="zoomminus" xlink:href="#zoomMin" x="42" y="9" onmousedown="handleZoom(evt,'out')"/>
                <use id="reset" xlink:href="#resetDef" x="30" y="36" onmousedown="handleReset()"/>
                <g id="arrowUp" xlink:href="#dirArrow" transform="translate(30 24)" onmousedown="handlePan(0,-1)">
                  <use xlink:href="#rim" fill="#404040">
                        <set attributeName="fill" to="#808080" begin="arrowUp.mouseover" end="arrowUp.mouseout"/>
                  </use>
                  <path fill="none" stroke="white" stroke-width="1.5" d="M0,-3.0v7 M-2.5,-0.5L0,-3.0L2.5,-0.5"/>
                </g>
                <g id="arrowRight" xlink:href="#dirArrow" transform="rotate(90) translate(36 -43)" onmousedown="handlePan(1,0)">
                  <use xlink:href="#rim" fill="#404040">
                        <set attributeName="fill" to="#808080" begin="arrowRight.mouseover" end="arrowRight.mouseout"/>
                  </use>
                  <path fill="none" stroke="white" stroke-width="1.5" d="M0,-3.0v7 M-2.5,-0.5L0,-3.0L2.5,-0.5"/>
                </g>
                <g id="arrowDown" xlink:href="#dirArrow" transform="rotate(180) translate(-30 -48)" onmousedown="handlePan(0,1)">
                  <use xlink:href="#rim" fill="#404040">
                        <set attributeName="fill" to="#808080" begin="arrowDown.mouseover" end="arrowDown.mouseout"/>
                  </use>
                  <path fill="none" stroke="white" stroke-width="1.5" d="M0,-3.0v7 M-2.5,-0.5L0,-3.0L2.5,-0.5"/>
                </g>
                <g id="arrowLeft" xlink:href="#dirArrow" transform="rotate(270) translate(-36 17)" onmousedown="handlePan(-1,0)">
                  <use xlink:href="#rim" fill="#404040">
                        <set attributeName="fill" to="#808080" begin="arrowLeft.mouseover" end="arrowLeft.mouseout"/>
                  </use>
                  <path fill="none" stroke="white" stroke-width="1.5" d="M0,-3.0v7 M-2.5,-0.5L0,-3.0L2.5,-0.5"/>
                </g>
        </g>
        <svg viewBox="0 0 15 15" width="100%" height="30px" preserveAspectRatio="xMaxYMin meet">
         <g id="arrow_out" transform="scale(0.3 0.3)">
          <a xlink:href="classtklb_1_1_heap_buffer_aedbbae6aeac4dab858a9734d7c02d240_cgraph_org.svg" target="_base">
           <rect id="button" ry="5" rx="5" y="6" x="6" height="38" width="38"
                fill="#f2f5e9" fill-opacity="0.5" stroke="#606060" stroke-width="1.0"/>
           <path id="arrow"
             d="M 11.500037,31.436501 C 11.940474,20.09759 22.043105,11.32322 32.158766,21.979434 L 37.068811,17.246167 C 37.068811,17.246167 37.088388,32 37.088388,32 L 22.160133,31.978069 C 22.160133,31.978069 26.997745,27.140456 26.997745,27.140456 C 18.528582,18.264221 13.291696,25.230495 11.500037,31.436501 z"
             style="fill:#404040;"/>
          </a>
         </g>
        </svg>
</svg>
