<?xml version="1.0" encoding="UTF-8" standalone="no"?>
<!DOCTYPE svg PUBLIC "-//W3C//DTD SVG 1.1//EN"
 "http://www.w3.org/Graphics/SVG/1.1/DTD/svg11.dtd">
<!-- Generated by graphviz version 2.50.0 (0)
 -->
<!-- Title: tklb::HeapBuffer::size Pages: 1 -->
<svg width="887pt" height="575pt"
 viewBox="0.00 0.00 887.00 575.00" xmlns="http://www.w3.org/2000/svg" xmlns:xlink="http://www.w3.org/1999/xlink">
<g id="graph0" class="graph" transform="scale(1 1) rotate(0) translate(4 571)">
<title>tklb::HeapBuffer::size</title>
<!-- Node1 -->
<g id="node1" class="node">
<title>Node1</title>
<g id="a_node1"><a xlink:title="Returns the amount of elements in the container.">
<polygon fill="#bfbfbf" stroke="black" points="757,-132.5 757,-151.5 879,-151.5 879,-132.5 757,-132.5"/>
<text text-anchor="middle" x="818" y="-139.5" font-family="Helvetica,sans-Serif" font-size="10.00">tklb::HeapBuffer::size</text>
</a>
</g>
</g>
<!-- Node2 -->
<g id="node2" class="node">
<title>Node2</title>
<g id="a_node2"><a xlink:href="classtklb_1_1_heap_buffer.html#a682dc231ff65beb7114cb0e476affd6b" target="_top" xlink:title=" ">
<polygon fill="none" stroke="black" points="582.5,-274 582.5,-304 719.5,-304 719.5,-274 582.5,-274"/>
<text text-anchor="start" x="590.5" y="-292" font-family="Helvetica,sans-Serif" font-size="10.00">tklb::HeapBuffer::closest</text>
<text text-anchor="middle" x="651" y="-281" font-family="Helvetica,sans-Serif" font-size="10.00">ChunkSize</text>
</a>
</g>
</g>
<!-- Node1&#45;&gt;Node2 -->
<g id="edge1" class="edge">
<title>Node1&#45;&gt;Node2</title>
<path fill="none" stroke="midnightblue" d="M805.2,-160.41C788.77,-184.86 756.95,-228.18 721,-256 711.97,-262.99 701.22,-269.01 690.92,-273.92"/>
<polygon fill="midnightblue" stroke="midnightblue" points="808.32,-162.03 810.9,-151.75 802.48,-158.18 808.32,-162.03"/>
</g>
<!-- Node7 -->
<g id="node7" class="node">
<title>Node7</title>
<g id="a_node7"><a xlink:href="classtklb_1_1_heap_buffer.html#aea890defe7d21d9273e005464b04f784" target="_top" xlink:title="Resize the buffer If the memory is borrowed it will become unique and owned by this instance as soon ...">
<polygon fill="none" stroke="black" points="400,-279.5 400,-298.5 532,-298.5 532,-279.5 400,-279.5"/>
<text text-anchor="middle" x="466" y="-286.5" font-family="Helvetica,sans-Serif" font-size="10.00">tklb::HeapBuffer::resize</text>
</a>
</g>
</g>
<!-- Node1&#45;&gt;Node7 -->
<g id="edge21" class="edge">
<title>Node1&#45;&gt;Node7</title>
<path fill="none" stroke="midnightblue" d="M792.37,-156.57C773.25,-167.57 745.91,-182.66 721,-194 641.73,-230.08 544.38,-263.63 496.48,-279.46"/>
<polygon fill="midnightblue" stroke="midnightblue" points="794.15,-159.58 801.04,-151.53 790.64,-153.53 794.15,-159.58"/>
</g>
<!-- Node10 -->
<g id="node10" class="node">
<title>Node10</title>
<g id="a_node10"><a xlink:href="classtklb_1_1_heap_buffer.html#a219e440c13837426f4a9f03e12ad769e" target="_top" xlink:title="Setup the buffer with a size.">
<polygon fill="none" stroke="black" points="191,-169.5 191,-188.5 349,-188.5 349,-169.5 191,-169.5"/>
<text text-anchor="middle" x="270" y="-176.5" font-family="Helvetica,sans-Serif" font-size="10.00">tklb::HeapBuffer::HeapBuffer</text>
</a>
</g>
</g>
<!-- Node1&#45;&gt;Node10 -->
<g id="edge18" class="edge">
<title>Node1&#45;&gt;Node10</title>
<path fill="none" stroke="midnightblue" d="M746.8,-152.18C738.12,-153.24 729.36,-154.21 721,-155 590.92,-167.26 439.06,-173.73 349.18,-176.76"/>
<polygon fill="midnightblue" stroke="midnightblue" points="747.43,-155.62 756.91,-150.9 746.55,-148.68 747.43,-155.62"/>
</g>
<!-- Node11 -->
<g id="node11" class="node">
<title>Node11</title>
<g id="a_node11"><a xlink:href="classtklb_1_1_heap_buffer.html#aedbbae6aeac4dab858a9734d7c02d240" target="_top" xlink:title="Provide foreign memory to borrow.">
<polygon fill="none" stroke="black" points="205,-131.5 205,-150.5 335,-150.5 335,-131.5 205,-131.5"/>
<text text-anchor="middle" x="270" y="-138.5" font-family="Helvetica,sans-Serif" font-size="10.00">tklb::HeapBuffer::inject</text>
</a>
</g>
</g>
<!-- Node1&#45;&gt;Node11 -->
<g id="edge19" class="edge">
<title>Node1&#45;&gt;Node11</title>
<path fill="none" stroke="midnightblue" d="M746.71,-141.87C639.91,-141.68 438.32,-141.31 335.24,-141.12"/>
<polygon fill="midnightblue" stroke="midnightblue" points="746.74,-145.37 756.74,-141.89 746.75,-138.37 746.74,-145.37"/>
</g>
<!-- Node18 -->
<g id="node18" class="node">
<title>Node18</title>
<g id="a_node18"><a xlink:href="classtklb_1_1_event_bus.html#a64551167ab4214545bcca21bc056e7ab" target="_top" xlink:title=" ">
<polygon fill="none" stroke="black" points="582.5,-94.5 582.5,-113.5 719.5,-113.5 719.5,-94.5 582.5,-94.5"/>
<text text-anchor="middle" x="651" y="-101.5" font-family="Helvetica,sans-Serif" font-size="10.00">tklb::EventBus::fireEvent</text>
</a>
</g>
</g>
<!-- Node1&#45;&gt;Node18 -->
<g id="edge17" class="edge">
<title>Node1&#45;&gt;Node18</title>
<path fill="none" stroke="midnightblue" d="M765.35,-130.1C742.15,-124.76 715.16,-118.55 693.34,-113.52"/>
<polygon fill="midnightblue" stroke="midnightblue" points="764.83,-133.58 775.36,-132.41 766.4,-126.76 764.83,-133.58"/>
</g>
<!-- Node19 -->
<g id="node19" class="node">
<title>Node19</title>
<g id="a_node19"><a xlink:href="classtklb_1_1_heap_buffer.html#a326582325b9a8f06db3277db63a817c4" target="_top" xlink:title="Will make sure the desired space is allocated.">
<polygon fill="none" stroke="black" points="581,-56.5 581,-75.5 721,-75.5 721,-56.5 581,-56.5"/>
<text text-anchor="middle" x="651" y="-63.5" font-family="Helvetica,sans-Serif" font-size="10.00">tklb::HeapBuffer::reserve</text>
</a>
</g>
</g>
<!-- Node1&#45;&gt;Node19 -->
<g id="edge20" class="edge">
<title>Node1&#45;&gt;Node19</title>
<path fill="none" stroke="midnightblue" d="M795.16,-126.73C776.26,-114.09 747.82,-96.41 721,-85 712.43,-81.35 702.95,-78.21 693.84,-75.59"/>
<polygon fill="midnightblue" stroke="midnightblue" points="793.39,-129.75 803.62,-132.48 797.32,-123.96 793.39,-129.75"/>
</g>
<!-- Node20 -->
<g id="node20" class="node">
<title>Node20</title>
<g id="a_node20"><a xlink:href="classtklb_1_1_heap_buffer.html#abeab1bfc5f1f256fdad6ba571460fe12" target="_top" xlink:title="Resizes and copies the contents of the source Buffer This will do a memory::copy,so none of the objec...">
<polygon fill="none" stroke="black" points="592,-0.5 592,-19.5 710,-19.5 710,-0.5 592,-0.5"/>
<text text-anchor="middle" x="651" y="-7.5" font-family="Helvetica,sans-Serif" font-size="10.00">tklb::HeapBuffer::set</text>
</a>
</g>
</g>
<!-- Node1&#45;&gt;Node20 -->
<g id="edge22" class="edge">
<title>Node1&#45;&gt;Node20</title>
<path fill="none" stroke="midnightblue" d="M802.28,-124.65C784.46,-104.35 752.85,-70.53 721,-47 706.13,-36.02 687.59,-26.26 673.47,-19.53"/>
<polygon fill="midnightblue" stroke="midnightblue" points="799.84,-127.19 809.03,-132.46 805.13,-122.61 799.84,-127.19"/>
</g>
<!-- Node3 -->
<g id="node3" class="node">
<title>Node3</title>
<g id="a_node3"><a xlink:href="classtklb_1_1_heap_buffer.html#a4cde91bbb793df74ff45d47398d478ad" target="_top" xlink:title="Push the object to the back of the buffer TODO tklb move version.">
<polygon fill="none" stroke="black" points="403,-509.5 403,-528.5 529,-528.5 529,-509.5 403,-509.5"/>
<text text-anchor="middle" x="466" y="-516.5" font-family="Helvetica,sans-Serif" font-size="10.00">tklb::HeapBuffer::push</text>
</a>
</g>
</g>
<!-- Node2&#45;&gt;Node3 -->
<g id="edge2" class="edge">
<title>Node2&#45;&gt;Node3</title>
<path fill="none" stroke="midnightblue" d="M631.74,-311.94C592.64,-361.09 502.13,-474.85 474.89,-509.08"/>
<polygon fill="midnightblue" stroke="midnightblue" points="634.51,-314.1 637.99,-304.09 629.03,-309.74 634.51,-314.1"/>
</g>
<!-- Node2&#45;&gt;Node7 -->
<g id="edge6" class="edge">
<title>Node2&#45;&gt;Node7</title>
<path fill="none" stroke="midnightblue" d="M572.27,-289C558.93,-289 545.19,-289 532.21,-289"/>
<polygon fill="midnightblue" stroke="midnightblue" points="572.38,-292.5 582.38,-289 572.38,-285.5 572.38,-292.5"/>
</g>
<!-- Node4 -->
<g id="node4" class="node">
<title>Node4</title>
<g id="a_node4"><a xlink:href="classtklb_1_1_event_bus.html#a2d0bbc8013b6d7ea8ce782a95328f6f9" target="_top" xlink:title=" ">
<polygon fill="none" stroke="black" points="189,-509.5 189,-528.5 351,-528.5 351,-509.5 189,-509.5"/>
<text text-anchor="middle" x="270" y="-516.5" font-family="Helvetica,sans-Serif" font-size="10.00">tklb::EventBus::addSubscriber</text>
</a>
</g>
</g>
<!-- Node3&#45;&gt;Node4 -->
<g id="edge3" class="edge">
<title>Node3&#45;&gt;Node4</title>
<path fill="none" stroke="midnightblue" d="M392.65,-519C379.16,-519 364.98,-519 351.27,-519"/>
<polygon fill="midnightblue" stroke="midnightblue" points="392.82,-522.5 402.82,-519 392.82,-515.5 392.82,-522.5"/>
</g>
<!-- Node6 -->
<g id="node6" class="node">
<title>Node6</title>
<g id="a_node6"><a xlink:href="string_8cpp.html#ae66f6b31b5ad750f1fe042a706a4e3d4" target="_top" xlink:title=" ">
<polygon fill="none" stroke="black" points="249.5,-547.5 249.5,-566.5 290.5,-566.5 290.5,-547.5 249.5,-547.5"/>
<text text-anchor="middle" x="270" y="-554.5" font-family="Helvetica,sans-Serif" font-size="10.00">main</text>
</a>
</g>
</g>
<!-- Node3&#45;&gt;Node6 -->
<g id="edge5" class="edge">
<title>Node3&#45;&gt;Node6</title>
<path fill="none" stroke="midnightblue" d="M406.02,-530.55C366.66,-538.26 317.4,-547.91 290.59,-553.16"/>
<polygon fill="midnightblue" stroke="midnightblue" points="406.9,-533.95 416.05,-528.59 405.56,-527.08 406.9,-533.95"/>
</g>
<!-- Node5 -->
<g id="node5" class="node">
<title>Node5</title>
<g id="a_node5"><a xlink:href="classtklb_1_1_event_bus_1_1_subscription.html#a2d207145c91831a84c72acf78f4d7657" target="_top" xlink:title=" ">
<polygon fill="none" stroke="black" points="0,-504 0,-534 153,-534 153,-504 0,-504"/>
<text text-anchor="start" x="8" y="-522" font-family="Helvetica,sans-Serif" font-size="10.00">tklb::EventBus::Subscription</text>
<text text-anchor="middle" x="76.5" y="-511" font-family="Helvetica,sans-Serif" font-size="10.00">::Subscription</text>
</a>
</g>
</g>
<!-- Node4&#45;&gt;Node5 -->
<g id="edge4" class="edge">
<title>Node4&#45;&gt;Node5</title>
<path fill="none" stroke="midnightblue" d="M178.89,-519C170.33,-519 161.71,-519 153.3,-519"/>
<polygon fill="midnightblue" stroke="midnightblue" points="178.9,-522.5 188.9,-519 178.9,-515.5 178.9,-522.5"/>
</g>
<!-- Node8 -->
<g id="node8" class="node">
<title>Node8</title>
<g id="a_node8"><a xlink:href="classtklb_1_1_heap_buffer.html#ac595de86ab0e2f33c79034b9e64db0a8" target="_top" xlink:title="Clears the buffer but doesn&#39;t free the memory.">
<polygon fill="none" stroke="black" points="206.5,-257.5 206.5,-276.5 333.5,-276.5 333.5,-257.5 206.5,-257.5"/>
<text text-anchor="middle" x="270" y="-264.5" font-family="Helvetica,sans-Serif" font-size="10.00">tklb::HeapBuffer::clear</text>
</a>
</g>
</g>
<!-- Node7&#45;&gt;Node8 -->
<g id="edge7" class="edge">
<title>Node7&#45;&gt;Node8</title>
<path fill="none" stroke="midnightblue" d="M389.7,-280.46C371.17,-278.36 351.53,-276.13 333.67,-274.11"/>
<polygon fill="midnightblue" stroke="midnightblue" points="389.53,-283.96 399.86,-281.61 390.32,-277.01 389.53,-283.96"/>
</g>
<!-- Node9 -->
<g id="node9" class="node">
<title>Node9</title>
<g id="a_node9"><a xlink:href="classtklb_1_1_heap_buffer.html#a7f018ade21d320cf220186a52e256b93" target="_top" xlink:title="If T is a pointer type, delete will be called for all pointers in buffer and resize(0) is called.">
<polygon fill="none" stroke="black" points="200,-208 200,-238 340,-238 340,-208 200,-208"/>
<text text-anchor="start" x="208" y="-226" font-family="Helvetica,sans-Serif" font-size="10.00">tklb::HeapBuffer::destroy</text>
<text text-anchor="middle" x="270" y="-215" font-family="Helvetica,sans-Serif" font-size="10.00">Pointers</text>
</a>
</g>
</g>
<!-- Node7&#45;&gt;Node9 -->
<g id="edge8" class="edge">
<title>Node7&#45;&gt;Node9</title>
<path fill="none" stroke="midnightblue" d="M429.84,-275.92C407.38,-267.67 377.57,-256.93 351,-248 341.07,-244.66 330.4,-241.23 320.18,-238.01"/>
<polygon fill="midnightblue" stroke="midnightblue" points="428.71,-279.23 439.3,-279.41 431.13,-272.66 428.71,-279.23"/>
</g>
<!-- Node7&#45;&gt;Node10 -->
<g id="edge9" class="edge">
<title>Node7&#45;&gt;Node10</title>
<path fill="none" stroke="midnightblue" d="M448.49,-272.16C427.63,-251.84 389.73,-218.03 351,-199 342.26,-194.71 332.52,-191.28 322.93,-188.57"/>
<polygon fill="midnightblue" stroke="midnightblue" points="446.06,-274.67 455.62,-279.23 450.99,-269.7 446.06,-274.67"/>
</g>
<!-- Node7&#45;&gt;Node11 -->
<g id="edge10" class="edge">
<title>Node7&#45;&gt;Node11</title>
<path fill="none" stroke="midnightblue" d="M454.03,-270.55C436.16,-242.18 398.01,-188.18 351,-160 344.51,-156.11 337.28,-153.02 329.89,-150.55"/>
<polygon fill="midnightblue" stroke="midnightblue" points="451.27,-272.74 459.49,-279.43 457.23,-269.08 451.27,-272.74"/>
</g>
<!-- Node13 -->
<g id="node13" class="node">
<title>Node13</title>
<g id="a_node13"><a xlink:href="classtklb_1_1_convolver_mono_tpl.html#a67f9498b46370c1a273b47ccc4863e21" target="_top" xlink:title="Load a impulse response and prepare the convolution.">
<polygon fill="none" stroke="black" points="204,-460 204,-490 336,-490 336,-460 204,-460"/>
<text text-anchor="start" x="212" y="-478" font-family="Helvetica,sans-Serif" font-size="10.00">tklb::ConvolverMonoTpl</text>
<text text-anchor="middle" x="270" y="-467" font-family="Helvetica,sans-Serif" font-size="10.00">::load</text>
</a>
</g>
</g>
<!-- Node7&#45;&gt;Node13 -->
<g id="edge12" class="edge">
<title>Node7&#45;&gt;Node13</title>
<path fill="none" stroke="midnightblue" d="M456.75,-307.79C441.05,-341.35 403.71,-411.66 351,-450 345.7,-453.85 339.8,-457.12 333.66,-459.89"/>
<polygon fill="midnightblue" stroke="midnightblue" points="459.96,-309.18 460.91,-298.63 453.59,-306.28 459.96,-309.18"/>
</g>
<!-- Node14 -->
<g id="node14" class="node">
<title>Node14</title>
<g id="a_node14"><a xlink:href="namespacetklb_1_1ogg.html#a8a0c549ee31780a868d551ff5536c71e" target="_top" xlink:title="Decode ogg/vorbis from memory or file path.">
<polygon fill="none" stroke="black" points="227,-421.5 227,-440.5 313,-440.5 313,-421.5 227,-421.5"/>
<text text-anchor="middle" x="270" y="-428.5" font-family="Helvetica,sans-Serif" font-size="10.00">tklb::ogg::load</text>
</a>
</g>
</g>
<!-- Node7&#45;&gt;Node14 -->
<g id="edge13" class="edge">
<title>Node7&#45;&gt;Node14</title>
<path fill="none" stroke="midnightblue" d="M453.28,-307.38C434.91,-334.62 396.66,-385.35 351,-412 339.53,-418.69 325.84,-423.03 313.05,-425.84"/>
<polygon fill="midnightblue" stroke="midnightblue" points="456.35,-309.08 458.93,-298.8 450.5,-305.23 456.35,-309.08"/>
</g>
<!-- Node15 -->
<g id="node15" class="node">
<title>Node15</title>
<g id="a_node15"><a xlink:href="namespacetklb_1_1wave.html#aa283efa758de590bb8f167e32a1ba2a5" target="_top" xlink:title="Decode wav from memory or file path.">
<polygon fill="none" stroke="black" points="222.5,-383.5 222.5,-402.5 317.5,-402.5 317.5,-383.5 222.5,-383.5"/>
<text text-anchor="middle" x="270" y="-390.5" font-family="Helvetica,sans-Serif" font-size="10.00">tklb::wave::load</text>
</a>
</g>
</g>
<!-- Node7&#45;&gt;Node15 -->
<g id="edge14" class="edge">
<title>Node7&#45;&gt;Node15</title>
<path fill="none" stroke="midnightblue" d="M447.74,-305.49C426.6,-324.77 388.91,-356.29 351,-374 340.65,-378.83 328.96,-382.5 317.77,-385.26"/>
<polygon fill="midnightblue" stroke="midnightblue" points="450.29,-307.89 455.24,-298.52 445.53,-302.76 450.29,-307.89"/>
</g>
<!-- Node16 -->
<g id="node16" class="node">
<title>Node16</title>
<g id="a_node16"><a xlink:href="classtklb_1_1_heap_buffer.html#a7a9a54468dbd1fe9b3dbf02fa2b574b4" target="_top" xlink:title="Set data from array.">
<polygon fill="none" stroke="black" points="211,-345.5 211,-364.5 329,-364.5 329,-345.5 211,-345.5"/>
<text text-anchor="middle" x="270" y="-352.5" font-family="Helvetica,sans-Serif" font-size="10.00">tklb::HeapBuffer::set</text>
</a>
</g>
</g>
<!-- Node7&#45;&gt;Node16 -->
<g id="edge15" class="edge">
<title>Node7&#45;&gt;Node16</title>
<path fill="none" stroke="midnightblue" d="M435.24,-302.79C412.52,-312.94 380.24,-326.57 351,-336 340,-339.55 327.95,-342.76 316.61,-345.48"/>
<polygon fill="midnightblue" stroke="midnightblue" points="436.68,-305.98 444.36,-298.67 433.8,-299.6 436.68,-305.98"/>
</g>
<!-- Node17 -->
<g id="node17" class="node">
<title>Node17</title>
<g id="a_node17"><a xlink:href="classtklb_1_1_heap_buffer.html#a833c723b6838bb28f7b6886d6df8b65c" target="_top" xlink:title=" ">
<polygon fill="none" stroke="black" points="218.5,-296 218.5,-326 321.5,-326 321.5,-296 218.5,-296"/>
<text text-anchor="start" x="226.5" y="-314" font-family="Helvetica,sans-Serif" font-size="10.00">tklb::HeapBuffer::</text>
<text text-anchor="middle" x="270" y="-303" font-family="Helvetica,sans-Serif" font-size="10.00">~HeapBuffer</text>
</a>
</g>
</g>
<!-- Node7&#45;&gt;Node17 -->
<g id="edge16" class="edge">
<title>Node7&#45;&gt;Node17</title>
<path fill="none" stroke="midnightblue" d="M389.84,-297.52C366.97,-300.12 342.39,-302.9 321.55,-305.27"/>
<polygon fill="midnightblue" stroke="midnightblue" points="390.32,-300.99 399.86,-296.39 389.53,-294.04 390.32,-300.99"/>
</g>
<!-- Node12 -->
<g id="node12" class="node">
<title>Node12</title>
<g id="a_node12"><a xlink:href="classtklb_1_1_heap_buffer.html#a320950100dd32e8bbf4f5118f41c4533" target="_top" xlink:title="Provide const foreign memory to use Using non const accessors will cause assertions in debug mode.">
<polygon fill="none" stroke="black" points="11.5,-131.5 11.5,-150.5 141.5,-150.5 141.5,-131.5 11.5,-131.5"/>
<text text-anchor="middle" x="76.5" y="-138.5" font-family="Helvetica,sans-Serif" font-size="10.00">tklb::HeapBuffer::inject</text>
</a>
</g>
</g>
<!-- Node11&#45;&gt;Node12 -->
<g id="edge11" class="edge">
<title>Node11&#45;&gt;Node12</title>
<path fill="none" stroke="midnightblue" d="M194.8,-141C177.31,-141 158.81,-141 141.8,-141"/>
<polygon fill="midnightblue" stroke="midnightblue" points="194.97,-144.5 204.97,-141 194.97,-137.5 194.97,-144.5"/>
</g>
<!-- Node20&#45;&gt;Node20 -->
<g id="edge24" class="edge">
<title>Node20&#45;&gt;Node20</title>
<path fill="none" stroke="midnightblue" d="M682.06,-28.27C681.18,-33.74 670.82,-38 651,-38 621.5,-38 612.97,-28.57 625.41,-19.76"/>
<polygon fill="midnightblue" stroke="midnightblue" points="684.94,-26.27 676.59,-19.76 679.05,-30.06 684.94,-26.27"/>
</g>
<!-- Node21 -->
<g id="node21" class="node">
<title>Node21</title>
<g id="a_node21"><a xlink:href="classtklb_1_1_heap_buffer.html#a6ec5501329a339d0a1039e391f50c2a0" target="_top" xlink:title="Copy Constructor, calls set() Failed allocations have to be checked.">
<polygon fill="none" stroke="black" points="387,-0.5 387,-19.5 545,-19.5 545,-0.5 387,-0.5"/>
<text text-anchor="middle" x="466" y="-7.5" font-family="Helvetica,sans-Serif" font-size="10.00">tklb::HeapBuffer::HeapBuffer</text>
</a>
</g>
</g>
<!-- Node20&#45;&gt;Node21 -->
<g id="edge23" class="edge">
<title>Node20&#45;&gt;Node21</title>
<path fill="none" stroke="midnightblue" d="M581.56,-10C569.66,-10 557.21,-10 545.08,-10"/>
<polygon fill="midnightblue" stroke="midnightblue" points="581.85,-13.5 591.85,-10 581.85,-6.5 581.85,-13.5"/>
</g>
</g>
</svg>
