<?xml version="1.0" encoding="UTF-8" standalone="no"?>
<!DOCTYPE svg PUBLIC "-//W3C//DTD SVG 1.1//EN"
 "http://www.w3.org/Graphics/SVG/1.1/DTD/svg11.dtd">
<!-- Generated by graphviz version 2.50.0 (0)
 -->
<!-- Title: tklb::HeapBuffer::remove Pages: 1 -->
<svg width="555pt" height="72pt"
 viewBox="0.00 0.00 555.00 71.50" xmlns="http://www.w3.org/2000/svg" xmlns:xlink="http://www.w3.org/1999/xlink">
<g id="graph0" class="graph" transform="scale(1 1) rotate(0) translate(4 67.5)">
<title>tklb::HeapBuffer::remove</title>
<!-- Node1 -->
<g id="node1" class="node">
<title>Node1</title>
<g id="a_node1"><a xlink:title="Removes the object at a given index and fills the gap with another Will never shrink the buffer/alloc...">
<polygon fill="#bfbfbf" stroke="black" points="407,-25 407,-44 547,-44 547,-25 407,-25"/>
<text text-anchor="middle" x="477" y="-32" font-family="Helvetica,sans-Serif" font-size="10.00">tklb::HeapBuffer::remove</text>
</a>
</g>
</g>
<!-- Node2 -->
<g id="node2" class="node">
<title>Node2</title>
<g id="a_node2"><a xlink:href="classtklb_1_1_heap_buffer.html#a1be24fefb87ca72d8e6b19b215165963" target="_top" xlink:title="If a == comparisin is possible the object itself can be used.">
<polygon fill="none" stroke="black" points="210,-44 210,-63 350,-63 350,-44 210,-44"/>
<text text-anchor="middle" x="280" y="-51" font-family="Helvetica,sans-Serif" font-size="10.00">tklb::HeapBuffer::remove</text>
</a>
</g>
</g>
<!-- Node1&#45;&gt;Node2 -->
<g id="edge1" class="edge">
<title>Node1&#45;&gt;Node2</title>
<path fill="none" stroke="midnightblue" d="M396.93,-42.2C381.47,-43.71 365.37,-45.28 350.26,-46.75"/>
<polygon fill="midnightblue" stroke="midnightblue" points="397.36,-45.68 406.98,-41.23 396.68,-38.71 397.36,-45.68"/>
</g>
<!-- Node3 -->
<g id="node3" class="node">
<title>Node3</title>
<g id="a_node3"><a xlink:href="classtklb_1_1_event_bus.html#ac52a735b0aa31b6e5a19a23b3b267660" target="_top" xlink:title=" ">
<polygon fill="none" stroke="black" points="189,-6 189,-25 371,-25 371,-6 189,-6"/>
<text text-anchor="middle" x="280" y="-13" font-family="Helvetica,sans-Serif" font-size="10.00">tklb::EventBus::removeSubscriber</text>
</a>
</g>
</g>
<!-- Node1&#45;&gt;Node3 -->
<g id="edge2" class="edge">
<title>Node1&#45;&gt;Node3</title>
<path fill="none" stroke="midnightblue" d="M396.77,-26.78C388.32,-25.96 379.67,-25.11 371.11,-24.28"/>
<polygon fill="midnightblue" stroke="midnightblue" points="396.68,-30.29 406.98,-27.77 397.36,-23.32 396.68,-30.29"/>
</g>
<!-- Node4 -->
<g id="node4" class="node">
<title>Node4</title>
<g id="a_node4"><a xlink:href="classtklb_1_1_event_bus_1_1_subscription.html#ac84aefadbc8d8b70d10a6ecb47188388" target="_top" xlink:title=" ">
<polygon fill="none" stroke="black" points="0,-0.5 0,-30.5 153,-30.5 153,-0.5 0,-0.5"/>
<text text-anchor="start" x="8" y="-18.5" font-family="Helvetica,sans-Serif" font-size="10.00">tklb::EventBus::Subscription</text>
<text text-anchor="middle" x="76.5" y="-7.5" font-family="Helvetica,sans-Serif" font-size="10.00">::~Subscription</text>
</a>
</g>
</g>
<!-- Node3&#45;&gt;Node4 -->
<g id="edge3" class="edge">
<title>Node3&#45;&gt;Node4</title>
<path fill="none" stroke="midnightblue" d="M178.75,-15.5C170.12,-15.5 161.48,-15.5 153.1,-15.5"/>
<polygon fill="midnightblue" stroke="midnightblue" points="178.86,-19 188.86,-15.5 178.86,-12 178.86,-19"/>
</g>
</g>
</svg>
