<?xml version="1.0" encoding="UTF-8" standalone="no"?>
<!DOCTYPE svg PUBLIC "-//W3C//DTD SVG 1.1//EN"
 "http://www.w3.org/Graphics/SVG/1.1/DTD/svg11.dtd">
<!-- Generated by graphviz version 2.50.0 (0)
 -->
<!-- Title: vae::core::effect::VAEReverb::init Pages: 1 -->
<svg width="484pt" height="149pt"
 viewBox="0.00 0.00 484.00 148.50" xmlns="http://www.w3.org/2000/svg" xmlns:xlink="http://www.w3.org/1999/xlink">
<g id="graph0" class="graph" transform="scale(1 1) rotate(0) translate(4 144.5)">
<title>vae::core::effect::VAEReverb::init</title>
<!-- Node1 -->
<g id="node1" class="node">
<title>Node1</title>
<g id="a_node1"><a xlink:title="Init dsp and clear state.">
<polygon fill="#bfbfbf" stroke="black" points="0,-85 0,-115 102,-115 102,-85 0,-85"/>
<text text-anchor="start" x="8" y="-103" font-family="Helvetica,sans-Serif" font-size="10.00">vae::core::effect::</text>
<text text-anchor="middle" x="51" y="-92" font-family="Helvetica,sans-Serif" font-size="10.00">VAEReverb::init</text>
</a>
</g>
</g>
<!-- Node2 -->
<g id="node2" class="node">
<title>Node2</title>
<g id="a_node2"><a xlink:href="classvae_1_1core_1_1effect_1_1_v_a_e_reverb.html#a9f6e6ac5264ab2f8bec0a590792addff" target="_top" xlink:title=" ">
<polygon fill="none" stroke="black" points="146.5,-110 146.5,-140 263.5,-140 263.5,-110 146.5,-110"/>
<text text-anchor="start" x="154.5" y="-128" font-family="Helvetica,sans-Serif" font-size="10.00">vae::core::effect::</text>
<text text-anchor="middle" x="205" y="-117" font-family="Helvetica,sans-Serif" font-size="10.00">VAEReverb::classInit</text>
</a>
</g>
</g>
<!-- Node1&#45;&gt;Node2 -->
<g id="edge1" class="edge">
<title>Node1&#45;&gt;Node2</title>
<path fill="none" stroke="midnightblue" d="M102.19,-108.26C113.16,-110.06 124.94,-112 136.46,-113.89"/>
<polygon fill="midnightblue" stroke="midnightblue" points="136.06,-117.37 146.49,-115.54 137.19,-110.46 136.06,-117.37"/>
</g>
<!-- Node3 -->
<g id="node3" class="node">
<title>Node3</title>
<g id="a_node3"><a xlink:href="classvae_1_1core_1_1effect_1_1_v_a_e_reverb.html#a7587eee0cdff91d848bb8a6037dfcaaf" target="_top" xlink:title=" ">
<polygon fill="none" stroke="black" points="138,-61 138,-91 272,-91 272,-61 138,-61"/>
<text text-anchor="start" x="146" y="-79" font-family="Helvetica,sans-Serif" font-size="10.00">vae::core::effect::</text>
<text text-anchor="middle" x="205" y="-68" font-family="Helvetica,sans-Serif" font-size="10.00">VAEReverb::instanceInit</text>
</a>
</g>
</g>
<!-- Node1&#45;&gt;Node3 -->
<g id="edge2" class="edge">
<title>Node1&#45;&gt;Node3</title>
<path fill="none" stroke="midnightblue" d="M102.19,-92.07C110.4,-90.78 119.06,-89.41 127.72,-88.04"/>
<polygon fill="midnightblue" stroke="midnightblue" points="128.53,-91.46 137.87,-86.44 127.44,-84.54 128.53,-91.46"/>
</g>
<!-- Node4 -->
<g id="node4" class="node">
<title>Node4</title>
<g id="a_node4"><a xlink:href="classvae_1_1core_1_1effect_1_1_v_a_e_reverb.html#a57766590bc02dad44d0a66c3af37d6a5" target="_top" xlink:title="Reset dsp state delay lines and so on.">
<polygon fill="none" stroke="black" points="320.5,-110 320.5,-140 463.5,-140 463.5,-110 320.5,-110"/>
<text text-anchor="start" x="328.5" y="-128" font-family="Helvetica,sans-Serif" font-size="10.00">vae::core::effect::</text>
<text text-anchor="middle" x="392" y="-117" font-family="Helvetica,sans-Serif" font-size="10.00">VAEReverb::instanceClear</text>
</a>
</g>
</g>
<!-- Node3&#45;&gt;Node4 -->
<g id="edge3" class="edge">
<title>Node3&#45;&gt;Node4</title>
<path fill="none" stroke="midnightblue" d="M262.76,-91.03C282.3,-96.21 304.34,-102.05 324.58,-107.41"/>
<polygon fill="midnightblue" stroke="midnightblue" points="323.78,-110.82 334.34,-109.99 325.57,-104.05 323.78,-110.82"/>
</g>
<!-- Node5 -->
<g id="node5" class="node">
<title>Node5</title>
<g id="a_node5"><a xlink:href="classvae_1_1core_1_1effect_1_1_v_a_e_reverb.html#ab6291a5ccf43acf790b8eab1d1956f22" target="_top" xlink:title=" ">
<polygon fill="none" stroke="black" points="308.5,-61 308.5,-91 475.5,-91 475.5,-61 308.5,-61"/>
<text text-anchor="start" x="316.5" y="-79" font-family="Helvetica,sans-Serif" font-size="10.00">vae::core::effect::</text>
<text text-anchor="middle" x="392" y="-68" font-family="Helvetica,sans-Serif" font-size="10.00">VAEReverb::instanceConstants</text>
</a>
</g>
</g>
<!-- Node3&#45;&gt;Node5 -->
<g id="edge4" class="edge">
<title>Node3&#45;&gt;Node5</title>
<path fill="none" stroke="midnightblue" d="M272.01,-76C280.43,-76 289.18,-76 297.94,-76"/>
<polygon fill="midnightblue" stroke="midnightblue" points="298.2,-79.5 308.2,-76 298.2,-72.5 298.2,-79.5"/>
</g>
<!-- Node6 -->
<g id="node6" class="node">
<title>Node6</title>
<g id="a_node6"><a xlink:href="classvae_1_1core_1_1effect_1_1_v_a_e_reverb.html#a8b767747d50e482a694fbd167fa059bd" target="_top" xlink:title=" ">
<polygon fill="none" stroke="black" points="308,-0.5 308,-41.5 476,-41.5 476,-0.5 308,-0.5"/>
<text text-anchor="start" x="316" y="-29.5" font-family="Helvetica,sans-Serif" font-size="10.00">vae::core::effect::</text>
<text text-anchor="start" x="316" y="-18.5" font-family="Helvetica,sans-Serif" font-size="10.00">VAEReverb::instanceResetUser</text>
<text text-anchor="middle" x="392" y="-7.5" font-family="Helvetica,sans-Serif" font-size="10.00">Interface</text>
</a>
</g>
</g>
<!-- Node3&#45;&gt;Node6 -->
<g id="edge5" class="edge">
<title>Node3&#45;&gt;Node6</title>
<path fill="none" stroke="midnightblue" d="M256.55,-60.97C273.68,-55.88 293.24,-50.06 312.04,-44.47"/>
<polygon fill="midnightblue" stroke="midnightblue" points="313.2,-47.78 321.78,-41.58 311.2,-41.07 313.2,-47.78"/>
</g>
</g>
</svg>
