<?xml version="1.0" encoding="UTF-8" standalone="no"?>
<!DOCTYPE svg PUBLIC "-//W3C//DTD SVG 1.1//EN"
 "http://www.w3.org/Graphics/SVG/1.1/DTD/svg11.dtd">
<!-- Generated by graphviz version 2.50.0 (0)
 -->
<!-- Title: tklb::ResamplerSpeexTpl::estimateOut Pages: 1 -->
<!--zoomable 309 -->
<svg id="main" version="1.1" xmlns="http://www.w3.org/2000/svg" xmlns:xlink="http://www.w3.org/1999/xlink" xml:space="preserve" onload="init(evt)">
<style type="text/css"><![CDATA[
.edge:hover path { stroke: red; }
.edge:hover polygon { stroke: red; fill: red; }
]]></style>
<script type="text/javascript"><![CDATA[
var edges = document.getElementsByTagName('g');
if (edges && edges.length) {
  for (var i=0;i<edges.length;i++) {
    if (edges[i].id.substr(0,4)=='edge') {
      edges[i].setAttribute('class','edge');
    }
  }
}
]]></script>
        <defs>
                <circle id="rim" cx="0" cy="0" r="7"/>
                <circle id="rim2" cx="0" cy="0" r="3.5"/>
                <g id="zoomPlus">
                        <use xlink:href="#rim" fill="#404040">
                                <set attributeName="fill" to="#808080" begin="zoomplus.mouseover" end="zoomplus.mouseout"/>
                        </use>
                        <path d="M-4,0h8M0,-4v8" fill="none" stroke="white" stroke-width="1.5" pointer-events="none"/>
                </g>
                <g id="zoomMin">
                        <use xlink:href="#rim" fill="#404040">
                                <set attributeName="fill" to="#808080" begin="zoomminus.mouseover" end="zoomminus.mouseout"/>
                        </use>
                        <path d="M-4,0h8" fill="none" stroke="white" stroke-width="1.5" pointer-events="none"/>
                </g>
                <g id="dirArrow">
                        <path fill="none" stroke="white" stroke-width="1.5" d="M0,-3.0v7 M-2.5,-0.5L0,-3.0L2.5,-0.5"/>
                </g>
               <g id="resetDef">
                       <use xlink:href="#rim2" fill="#404040">
                               <set attributeName="fill" to="#808080" begin="reset.mouseover" end="reset.mouseout"/>
                       </use>
               </g>
        </defs>

<script type="text/javascript">
var viewWidth = 1069;
var viewHeight = 309;
var sectionId = 'dynsection-6';
</script>
<script xlink:href="svgpan.js"/>
<svg id="graph" class="graph">
<g id="viewport">
<title>tklb::ResamplerSpeexTpl::estimateOut</title>
<!-- Node1 -->
<g id="node1" class="node">
<title>Node1</title>
<g id="a_node1"><a xlink:title="Estimate how many sample will be emitted in the next step.">
<polygon fill="#bfbfbf" stroke="black" points="922,-105 922,-135 1061,-135 1061,-105 922,-105"/>
<text text-anchor="start" x="930" y="-123" font-family="Helvetica,sans-Serif" font-size="10.00">tklb::ResamplerSpeexTpl</text>
<text text-anchor="middle" x="991.5" y="-112" font-family="Helvetica,sans-Serif" font-size="10.00">::estimateOut</text>
</a>
</g>
</g>
<!-- Node2 -->
<g id="node2" class="node">
<title>Node2</title>
<g id="a_node2"><a xlink:href="classtklb_1_1_resampler_speex_tpl.html#a65864672c63ce1be9a251232504d8dce" target="_top" xlink:title="Calculate a buffersize fit for the resampled result.">
<polygon fill="none" stroke="black" points="747,-143 747,-173 886,-173 886,-143 747,-143"/>
<text text-anchor="start" x="755" y="-161" font-family="Helvetica,sans-Serif" font-size="10.00">tklb::ResamplerSpeexTpl</text>
<text text-anchor="middle" x="816.5" y="-150" font-family="Helvetica,sans-Serif" font-size="10.00">::calculateBufferSize</text>
</a>
</g>
</g>
<!-- Node1&#45;&gt;Node2 -->
<g id="edge1" class="edge">
<title>Node1&#45;&gt;Node2</title>
<path fill="none" stroke="midnightblue" d="M912.28,-137.18C903.49,-139.11 894.59,-141.07 885.94,-142.97"/>
<polygon fill="midnightblue" stroke="midnightblue" points="913.11,-140.58 922.13,-135.02 911.61,-133.75 913.11,-140.58"/>
</g>
<!-- Node14 -->
<g id="node14" class="node">
<title>Node14</title>
<g id="a_node14"><a xlink:href="classtklb_1_1_resampler_speex_tpl.html#ad536684ea5e815d1dd7d967127ecfb95" target="_top" xlink:title="Resample function Make sure the out buffer has enough space.">
<polygon fill="none" stroke="black" points="747,-81 747,-111 886,-111 886,-81 747,-81"/>
<text text-anchor="start" x="755" y="-99" font-family="Helvetica,sans-Serif" font-size="10.00">tklb::ResamplerSpeexTpl</text>
<text text-anchor="middle" x="816.5" y="-88" font-family="Helvetica,sans-Serif" font-size="10.00">::process</text>
</a>
</g>
</g>
<!-- Node1&#45;&gt;Node14 -->
<g id="edge15" class="edge">
<title>Node1&#45;&gt;Node14</title>
<path fill="none" stroke="midnightblue" d="M911.68,-109.07C903.16,-107.88 894.53,-106.69 886.13,-105.52"/>
<polygon fill="midnightblue" stroke="midnightblue" points="911.24,-112.54 921.63,-110.45 912.2,-105.6 911.24,-112.54"/>
</g>
<!-- Node3 -->
<g id="node3" class="node">
<title>Node3</title>
<g id="a_node3"><a xlink:href="classvae_1_1core_1_1_device.html#aaab56a24f9f040b6a4be004ff94eff40" target="_top" xlink:title="initializes buffers, queues and resamplers if needed Has to be called in openDevice once the samplera...">
<polygon fill="none" stroke="black" points="368.5,-224.5 368.5,-243.5 491.5,-243.5 491.5,-224.5 368.5,-224.5"/>
<text text-anchor="middle" x="430" y="-231.5" font-family="Helvetica,sans-Serif" font-size="10.00">vae::core::Device::init</text>
</a>
</g>
</g>
<!-- Node2&#45;&gt;Node3 -->
<g id="edge2" class="edge">
<title>Node2&#45;&gt;Node3</title>
<path fill="none" stroke="midnightblue" d="M785.88,-178.68C765.74,-191.57 737.96,-207.14 711,-215 637.68,-236.37 549.17,-238.69 491.56,-237.28"/>
<polygon fill="midnightblue" stroke="midnightblue" points="787.84,-181.58 794.29,-173.17 784.01,-175.72 787.84,-181.58"/>
</g>
<!-- Node8 -->
<g id="node8" class="node">
<title>Node8</title>
<g id="a_node8"><a xlink:href="classtklb_1_1_resampler_speex_tpl.html#a7bab4da85cc386c5d34cf8ced0bd1092" target="_top" xlink:title="setup the resampler">
<polygon fill="none" stroke="black" points="554,-175 554,-205 693,-205 693,-175 554,-175"/>
<text text-anchor="start" x="562" y="-193" font-family="Helvetica,sans-Serif" font-size="10.00">tklb::ResamplerSpeexTpl</text>
<text text-anchor="middle" x="623.5" y="-182" font-family="Helvetica,sans-Serif" font-size="10.00">::init</text>
</a>
</g>
</g>
<!-- Node2&#45;&gt;Node8 -->
<g id="edge7" class="edge">
<title>Node2&#45;&gt;Node8</title>
<path fill="none" stroke="midnightblue" d="M736.89,-171.17C722.4,-173.6 707.38,-176.11 693.22,-178.49"/>
<polygon fill="midnightblue" stroke="midnightblue" points="737.53,-174.61 746.81,-169.51 736.37,-167.71 737.53,-174.61"/>
</g>
<!-- Node9 -->
<g id="node9" class="node">
<title>Node9</title>
<g id="a_node9"><a xlink:href="classtklb_1_1_resampler_speex_tpl.html#aafe03dda374652f23a8020a7f975b8b4" target="_top" xlink:title="Resamples the provided buffer from its sampleRate to the target rate.">
<polygon fill="none" stroke="black" points="360.5,-123 360.5,-153 499.5,-153 499.5,-123 360.5,-123"/>
<text text-anchor="start" x="368.5" y="-141" font-family="Helvetica,sans-Serif" font-size="10.00">tklb::ResamplerSpeexTpl</text>
<text text-anchor="middle" x="430" y="-130" font-family="Helvetica,sans-Serif" font-size="10.00">::resample</text>
</a>
</g>
</g>
<!-- Node2&#45;&gt;Node9 -->
<g id="edge14" class="edge">
<title>Node2&#45;&gt;Node9</title>
<path fill="none" stroke="midnightblue" d="M736.71,-153.9C667,-150.28 566.31,-145.04 499.79,-141.58"/>
<polygon fill="midnightblue" stroke="midnightblue" points="736.59,-157.4 746.76,-154.42 736.95,-150.41 736.59,-157.4"/>
</g>
<!-- Node4 -->
<g id="node4" class="node">
<title>Node4</title>
<g id="a_node4"><a xlink:href="classvae_1_1core_1_1_device_dummy.html#ad85627cd3e6556da54cb511720b09f04" target="_top" xlink:title="Tries to open the default audio device whith desired in out channels.">
<polygon fill="none" stroke="black" points="180,-270 180,-300 320,-300 320,-270 180,-270"/>
<text text-anchor="start" x="188" y="-288" font-family="Helvetica,sans-Serif" font-size="10.00">vae::core::DeviceDummy</text>
<text text-anchor="middle" x="250" y="-277" font-family="Helvetica,sans-Serif" font-size="10.00">::openDevice</text>
</a>
</g>
</g>
<!-- Node3&#45;&gt;Node4 -->
<g id="edge3" class="edge">
<title>Node3&#45;&gt;Node4</title>
<path fill="none" stroke="midnightblue" d="M385.69,-246.41C360.94,-253.5 329.72,-262.44 303.58,-269.94"/>
<polygon fill="midnightblue" stroke="midnightblue" points="386.87,-249.71 395.52,-243.59 384.94,-242.98 386.87,-249.71"/>
</g>
<!-- Node6 -->
<g id="node6" class="node">
<title>Node6</title>
<g id="a_node6"><a xlink:href="classvae_1_1core_1_1_device_portaudio.html#a9a6538b4e9555085a36b67a1850f333d" target="_top" xlink:title="Opens a specific audio device.">
<polygon fill="none" stroke="black" points="176,-221 176,-251 324,-251 324,-221 176,-221"/>
<text text-anchor="start" x="184" y="-239" font-family="Helvetica,sans-Serif" font-size="10.00">vae::core::DevicePortaudio</text>
<text text-anchor="middle" x="250" y="-228" font-family="Helvetica,sans-Serif" font-size="10.00">::openDevice</text>
</a>
</g>
</g>
<!-- Node3&#45;&gt;Node6 -->
<g id="edge5" class="edge">
<title>Node3&#45;&gt;Node6</title>
<path fill="none" stroke="midnightblue" d="M358.1,-234.8C346.91,-234.92 335.33,-235.05 324.09,-235.18"/>
<polygon fill="midnightblue" stroke="midnightblue" points="358.28,-238.29 368.24,-234.68 358.2,-231.3 358.28,-238.29"/>
</g>
<!-- Node7 -->
<g id="node7" class="node">
<title>Node7</title>
<g id="a_node7"><a xlink:href="classvae_1_1core_1_1_device_rtaudio.html#a755c0aea3ee53c858f2dc3e61503de95" target="_top" xlink:title="Opens a specific audio device.">
<polygon fill="none" stroke="black" points="180.5,-172 180.5,-202 319.5,-202 319.5,-172 180.5,-172"/>
<text text-anchor="start" x="188.5" y="-190" font-family="Helvetica,sans-Serif" font-size="10.00">vae::core::DeviceRtaudio</text>
<text text-anchor="middle" x="250" y="-179" font-family="Helvetica,sans-Serif" font-size="10.00">::openDevice</text>
</a>
</g>
</g>
<!-- Node3&#45;&gt;Node7 -->
<g id="edge6" class="edge">
<title>Node3&#45;&gt;Node7</title>
<path fill="none" stroke="midnightblue" d="M383.16,-221.9C360.24,-215.85 332.28,-208.46 307.99,-202.05"/>
<polygon fill="midnightblue" stroke="midnightblue" points="382.42,-225.32 392.98,-224.49 384.2,-218.55 382.42,-225.32"/>
</g>
<!-- Node5 -->
<g id="node5" class="node">
<title>Node5</title>
<g id="a_node5"><a xlink:href="classvae_1_1core_1_1_device_dummy.html#af40b5ee7c4ac8116abfcfd41a427b7f7" target="_top" xlink:title="Opens a specific audio device.">
<polygon fill="none" stroke="black" points="0,-270 0,-300 140,-300 140,-270 0,-270"/>
<text text-anchor="start" x="8" y="-288" font-family="Helvetica,sans-Serif" font-size="10.00">vae::core::DeviceDummy</text>
<text text-anchor="middle" x="70" y="-277" font-family="Helvetica,sans-Serif" font-size="10.00">::openDevice</text>
</a>
</g>
</g>
<!-- Node4&#45;&gt;Node5 -->
<g id="edge4" class="edge">
<title>Node4&#45;&gt;Node5</title>
<path fill="none" stroke="midnightblue" d="M169.7,-285C159.81,-285 149.75,-285 140.04,-285"/>
<polygon fill="midnightblue" stroke="midnightblue" points="169.93,-288.5 179.93,-285 169.93,-281.5 169.93,-288.5"/>
</g>
<!-- Node8&#45;&gt;Node3 -->
<g id="edge8" class="edge">
<title>Node8&#45;&gt;Node3</title>
<path fill="none" stroke="midnightblue" d="M547.12,-207.32C521.68,-213.16 494.22,-219.47 472.4,-224.49"/>
<polygon fill="midnightblue" stroke="midnightblue" points="548.17,-210.67 557.13,-205.02 546.6,-203.85 548.17,-210.67"/>
</g>
<!-- Node8&#45;&gt;Node9 -->
<g id="edge9" class="edge">
<title>Node8&#45;&gt;Node9</title>
<path fill="none" stroke="midnightblue" d="M557.38,-172.32C534.26,-166.04 508.48,-159.04 486.27,-153.01"/>
<polygon fill="midnightblue" stroke="midnightblue" points="556.54,-175.72 567.11,-174.96 558.38,-168.96 556.54,-175.72"/>
</g>
<!-- Node13 -->
<g id="node13" class="node">
<title>Node13</title>
<g id="a_node13"><a xlink:href="classtklb_1_1_resampler_speex_tpl.html#a4b543867ca5bc588b886535c8b4432bc" target="_top" xlink:title=" ">
<polygon fill="none" stroke="black" points="360.5,-175 360.5,-205 499.5,-205 499.5,-175 360.5,-175"/>
<text text-anchor="start" x="368.5" y="-193" font-family="Helvetica,sans-Serif" font-size="10.00">tklb::ResamplerSpeexTpl</text>
<text text-anchor="middle" x="430" y="-182" font-family="Helvetica,sans-Serif" font-size="10.00">::ResamplerSpeexTpl</text>
</a>
</g>
</g>
<!-- Node8&#45;&gt;Node13 -->
<g id="edge13" class="edge">
<title>Node8&#45;&gt;Node13</title>
<path fill="none" stroke="midnightblue" d="M543.88,-190C529.25,-190 514.07,-190 499.76,-190"/>
<polygon fill="midnightblue" stroke="midnightblue" points="543.91,-193.5 553.91,-190 543.9,-186.5 543.91,-193.5"/>
</g>
<!-- Node10 -->
<g id="node10" class="node">
<title>Node10</title>
<g id="a_node10"><a xlink:href="classvae_1_1core_1_1_bank_manager.html#a6542180b77772f1605e211bd851f8996" target="_top" xlink:title=" ">
<polygon fill="none" stroke="black" points="183,-123 183,-153 317,-153 317,-123 183,-123"/>
<text text-anchor="start" x="191" y="-141" font-family="Helvetica,sans-Serif" font-size="10.00">vae::core::BankManager</text>
<text text-anchor="middle" x="250" y="-130" font-family="Helvetica,sans-Serif" font-size="10.00">::addSource</text>
</a>
</g>
</g>
<!-- Node9&#45;&gt;Node10 -->
<g id="edge10" class="edge">
<title>Node9&#45;&gt;Node10</title>
<path fill="none" stroke="midnightblue" d="M350.35,-138C339.28,-138 327.99,-138 317.19,-138"/>
<polygon fill="midnightblue" stroke="midnightblue" points="350.44,-141.5 360.44,-138 350.44,-134.5 350.44,-141.5"/>
</g>
<!-- Node12 -->
<g id="node12" class="node">
<title>Node12</title>
<g id="a_node12"><a xlink:href="classvae_1_1core_1_1_bank_manager.html#adbc94fb2b23a418e34a3eda7812d71a6" target="_top" xlink:title=" ">
<polygon fill="none" stroke="black" points="183,-74 183,-104 317,-104 317,-74 183,-74"/>
<text text-anchor="start" x="191" y="-92" font-family="Helvetica,sans-Serif" font-size="10.00">vae::core::BankManager</text>
<text text-anchor="middle" x="250" y="-81" font-family="Helvetica,sans-Serif" font-size="10.00">::load</text>
</a>
</g>
</g>
<!-- Node9&#45;&gt;Node12 -->
<g id="edge12" class="edge">
<title>Node9&#45;&gt;Node12</title>
<path fill="none" stroke="midnightblue" d="M364.26,-120.18C345.04,-114.89 324.19,-109.15 305.68,-104.05"/>
<polygon fill="midnightblue" stroke="midnightblue" points="363.57,-123.62 374.14,-122.9 365.43,-116.87 363.57,-123.62"/>
</g>
<!-- Node11 -->
<g id="node11" class="node">
<title>Node11</title>
<g id="a_node11"><a xlink:href="classvae_1_1core_1_1_engine.html#aba4ba7edf58f833125633e7149e4d499" target="_top" xlink:title="Add or replace a source in a bank.">
<polygon fill="none" stroke="black" points="16.5,-123 16.5,-153 123.5,-153 123.5,-123 16.5,-123"/>
<text text-anchor="start" x="24.5" y="-141" font-family="Helvetica,sans-Serif" font-size="10.00">vae::core::Engine::</text>
<text text-anchor="middle" x="70" y="-130" font-family="Helvetica,sans-Serif" font-size="10.00">addSource</text>
</a>
</g>
</g>
<!-- Node10&#45;&gt;Node11 -->
<g id="edge11" class="edge">
<title>Node10&#45;&gt;Node11</title>
<path fill="none" stroke="midnightblue" d="M172.75,-138C156.18,-138 139,-138 123.58,-138"/>
<polygon fill="midnightblue" stroke="midnightblue" points="172.97,-141.5 182.97,-138 172.97,-134.5 172.97,-141.5"/>
</g>
<!-- Node14&#45;&gt;Node9 -->
<g id="edge17" class="edge">
<title>Node14&#45;&gt;Node9</title>
<path fill="none" stroke="midnightblue" d="M736.71,-104.61C667,-112.22 566.31,-123.22 499.79,-130.49"/>
<polygon fill="midnightblue" stroke="midnightblue" points="737.2,-108.07 746.76,-103.51 736.44,-101.12 737.2,-108.07"/>
</g>
<!-- Node15 -->
<g id="node15" class="node">
<title>Node15</title>
<g id="a_node15"><a xlink:href="classvae_1_1core_1_1_device.html#a1f9109fc3f6c63034308c5b440927257" target="_top" xlink:title="Push samples to the audio device.">
<polygon fill="none" stroke="black" points="558,-60.5 558,-79.5 689,-79.5 689,-60.5 558,-60.5"/>
<text text-anchor="middle" x="623.5" y="-67.5" font-family="Helvetica,sans-Serif" font-size="10.00">vae::core::Device::push</text>
</a>
</g>
</g>
<!-- Node14&#45;&gt;Node15 -->
<g id="edge16" class="edge">
<title>Node14&#45;&gt;Node15</title>
<path fill="none" stroke="midnightblue" d="M736.54,-85.25C720.74,-83.1 704.32,-80.87 689.07,-78.79"/>
<polygon fill="midnightblue" stroke="midnightblue" points="736.43,-88.77 746.81,-86.65 737.38,-81.83 736.43,-88.77"/>
</g>
<!-- Node16 -->
<g id="node16" class="node">
<title>Node16</title>
<g id="a_node16"><a xlink:href="structvae_1_1core_1_1_device_1_1_audio_thread_worker.html#a1d6ad75314a363dbb773c16aecb21326" target="_top" xlink:title="Called from audio backend to push in interleaved audio data.">
<polygon fill="none" stroke="black" points="536,-0.5 536,-41.5 711,-41.5 711,-0.5 536,-0.5"/>
<text text-anchor="start" x="544" y="-29.5" font-family="Helvetica,sans-Serif" font-size="10.00">vae::core::Device::</text>
<text text-anchor="start" x="544" y="-18.5" font-family="Helvetica,sans-Serif" font-size="10.00">AudioThreadWorker::swapBuffer</text>
<text text-anchor="middle" x="623.5" y="-7.5" font-family="Helvetica,sans-Serif" font-size="10.00">Interleaved</text>
</a>
</g>
</g>
<!-- Node14&#45;&gt;Node16 -->
<g id="edge18" class="edge">
<title>Node14&#45;&gt;Node16</title>
<path fill="none" stroke="midnightblue" d="M773.11,-76.92C754.23,-68.63 731.64,-59.01 711,-51 702.85,-47.84 694.21,-44.65 685.67,-41.59"/>
<polygon fill="midnightblue" stroke="midnightblue" points="771.78,-80.15 782.34,-80.99 774.61,-73.75 771.78,-80.15"/>
</g>
<!-- Node17 -->
<g id="node17" class="node">
<title>Node17</title>
<g id="a_node17"><a xlink:href="classvae_1_1core_1_1_device_dummy.html#ac4105d62f1ae237fd9bb8d8bd8dda6a6" target="_top" xlink:title="Simulate the callback from the audio device.">
<polygon fill="none" stroke="black" points="360,-6 360,-36 500,-36 500,-6 360,-6"/>
<text text-anchor="start" x="368" y="-24" font-family="Helvetica,sans-Serif" font-size="10.00">vae::core::DeviceDummy</text>
<text text-anchor="middle" x="430" y="-13" font-family="Helvetica,sans-Serif" font-size="10.00">::swapBufferInterleaved</text>
</a>
</g>
</g>
<!-- Node16&#45;&gt;Node17 -->
<g id="edge19" class="edge">
<title>Node16&#45;&gt;Node17</title>
<path fill="none" stroke="midnightblue" d="M525.85,-21C517.19,-21 508.54,-21 500.19,-21"/>
<polygon fill="midnightblue" stroke="midnightblue" points="525.99,-24.5 535.99,-21 525.99,-17.5 525.99,-24.5"/>
</g>
</g>
</svg>
        <g id="navigator" transform="translate(0 0)" fill="#404254">
                <rect fill="#f2f5e9" fill-opacity="0.5" stroke="#606060" stroke-width=".5" x="0" y="0" width="60" height="60"/>
                <use id="zoomplus" xlink:href="#zoomPlus" x="17" y="9" onmousedown="handleZoom(evt,'in')"/>
                <use id="zoomminus" xlink:href="#zoomMin" x="42" y="9" onmousedown="handleZoom(evt,'out')"/>
                <use id="reset" xlink:href="#resetDef" x="30" y="36" onmousedown="handleReset()"/>
                <g id="arrowUp" xlink:href="#dirArrow" transform="translate(30 24)" onmousedown="handlePan(0,-1)">
                  <use xlink:href="#rim" fill="#404040">
                        <set attributeName="fill" to="#808080" begin="arrowUp.mouseover" end="arrowUp.mouseout"/>
                  </use>
                  <path fill="none" stroke="white" stroke-width="1.5" d="M0,-3.0v7 M-2.5,-0.5L0,-3.0L2.5,-0.5"/>
                </g>
                <g id="arrowRight" xlink:href="#dirArrow" transform="rotate(90) translate(36 -43)" onmousedown="handlePan(1,0)">
                  <use xlink:href="#rim" fill="#404040">
                        <set attributeName="fill" to="#808080" begin="arrowRight.mouseover" end="arrowRight.mouseout"/>
                  </use>
                  <path fill="none" stroke="white" stroke-width="1.5" d="M0,-3.0v7 M-2.5,-0.5L0,-3.0L2.5,-0.5"/>
                </g>
                <g id="arrowDown" xlink:href="#dirArrow" transform="rotate(180) translate(-30 -48)" onmousedown="handlePan(0,1)">
                  <use xlink:href="#rim" fill="#404040">
                        <set attributeName="fill" to="#808080" begin="arrowDown.mouseover" end="arrowDown.mouseout"/>
                  </use>
                  <path fill="none" stroke="white" stroke-width="1.5" d="M0,-3.0v7 M-2.5,-0.5L0,-3.0L2.5,-0.5"/>
                </g>
                <g id="arrowLeft" xlink:href="#dirArrow" transform="rotate(270) translate(-36 17)" onmousedown="handlePan(-1,0)">
                  <use xlink:href="#rim" fill="#404040">
                        <set attributeName="fill" to="#808080" begin="arrowLeft.mouseover" end="arrowLeft.mouseout"/>
                  </use>
                  <path fill="none" stroke="white" stroke-width="1.5" d="M0,-3.0v7 M-2.5,-0.5L0,-3.0L2.5,-0.5"/>
                </g>
        </g>
        <svg viewBox="0 0 15 15" width="100%" height="30px" preserveAspectRatio="xMaxYMin meet">
         <g id="arrow_out" transform="scale(0.3 0.3)">
          <a xlink:href="classtklb_1_1_resampler_speex_tpl_a5b4b65f32dbcec425871cc26384d4643_icgraph_org.svg" target="_base">
           <rect id="button" ry="5" rx="5" y="6" x="6" height="38" width="38"
                fill="#f2f5e9" fill-opacity="0.5" stroke="#606060" stroke-width="1.0"/>
           <path id="arrow"
             d="M 11.500037,31.436501 C 11.940474,20.09759 22.043105,11.32322 32.158766,21.979434 L 37.068811,17.246167 C 37.068811,17.246167 37.088388,32 37.088388,32 L 22.160133,31.978069 C 22.160133,31.978069 26.997745,27.140456 26.997745,27.140456 C 18.528582,18.264221 13.291696,25.230495 11.500037,31.436501 z"
             style="fill:#404040;"/>
          </a>
         </g>
        </svg>
</svg>
