<?xml version="1.0" encoding="UTF-8" standalone="no"?>
<!DOCTYPE svg PUBLIC "-//W3C//DTD SVG 1.1//EN"
 "http://www.w3.org/Graphics/SVG/1.1/DTD/svg11.dtd">
<!-- Generated by graphviz version 2.50.0 (0)
 -->
<!-- Title: tklb::HeapBuffer::push Pages: 1 -->
<svg width="521pt" height="72pt"
 viewBox="0.00 0.00 521.00 71.50" xmlns="http://www.w3.org/2000/svg" xmlns:xlink="http://www.w3.org/1999/xlink">
<g id="graph0" class="graph" transform="scale(1 1) rotate(0) translate(4 67.5)">
<title>tklb::HeapBuffer::push</title>
<!-- Node1 -->
<g id="node1" class="node">
<title>Node1</title>
<g id="a_node1"><a xlink:title="Push the object to the back of the buffer TODO tklb move version.">
<polygon fill="#bfbfbf" stroke="black" points="387,-19.5 387,-38.5 513,-38.5 513,-19.5 387,-19.5"/>
<text text-anchor="middle" x="450" y="-26.5" font-family="Helvetica,sans-Serif" font-size="10.00">tklb::HeapBuffer::push</text>
</a>
</g>
</g>
<!-- Node2 -->
<g id="node2" class="node">
<title>Node2</title>
<g id="a_node2"><a xlink:href="classtklb_1_1_event_bus.html#a2d0bbc8013b6d7ea8ce782a95328f6f9" target="_top" xlink:title=" ">
<polygon fill="none" stroke="black" points="189,-38.5 189,-57.5 351,-57.5 351,-38.5 189,-38.5"/>
<text text-anchor="middle" x="270" y="-45.5" font-family="Helvetica,sans-Serif" font-size="10.00">tklb::EventBus::addSubscriber</text>
</a>
</g>
</g>
<!-- Node1&#45;&gt;Node2 -->
<g id="edge1" class="edge">
<title>Node1&#45;&gt;Node2</title>
<path fill="none" stroke="midnightblue" d="M376.6,-36.73C368.19,-37.63 359.57,-38.55 351.05,-39.45"/>
<polygon fill="midnightblue" stroke="midnightblue" points="377.17,-40.19 386.74,-35.65 376.43,-33.23 377.17,-40.19"/>
</g>
<!-- Node4 -->
<g id="node4" class="node">
<title>Node4</title>
<g id="a_node4"><a xlink:href="string_8cpp.html#ae66f6b31b5ad750f1fe042a706a4e3d4" target="_top" xlink:title=" ">
<polygon fill="none" stroke="black" points="249.5,-0.5 249.5,-19.5 290.5,-19.5 290.5,-0.5 249.5,-0.5"/>
<text text-anchor="middle" x="270" y="-7.5" font-family="Helvetica,sans-Serif" font-size="10.00">main</text>
</a>
</g>
</g>
<!-- Node1&#45;&gt;Node4 -->
<g id="edge3" class="edge">
<title>Node1&#45;&gt;Node4</title>
<path fill="none" stroke="midnightblue" d="M376.73,-21.29C345.53,-17.96 311.49,-14.32 290.69,-12.1"/>
<polygon fill="midnightblue" stroke="midnightblue" points="376.43,-24.77 386.74,-22.35 377.17,-17.81 376.43,-24.77"/>
</g>
<!-- Node3 -->
<g id="node3" class="node">
<title>Node3</title>
<g id="a_node3"><a xlink:href="classtklb_1_1_event_bus_1_1_subscription.html#a2d207145c91831a84c72acf78f4d7657" target="_top" xlink:title=" ">
<polygon fill="none" stroke="black" points="0,-33 0,-63 153,-63 153,-33 0,-33"/>
<text text-anchor="start" x="8" y="-51" font-family="Helvetica,sans-Serif" font-size="10.00">tklb::EventBus::Subscription</text>
<text text-anchor="middle" x="76.5" y="-40" font-family="Helvetica,sans-Serif" font-size="10.00">::Subscription</text>
</a>
</g>
</g>
<!-- Node2&#45;&gt;Node3 -->
<g id="edge2" class="edge">
<title>Node2&#45;&gt;Node3</title>
<path fill="none" stroke="midnightblue" d="M178.89,-48C170.33,-48 161.71,-48 153.3,-48"/>
<polygon fill="midnightblue" stroke="midnightblue" points="178.9,-51.5 188.9,-48 178.9,-44.5 178.9,-51.5"/>
</g>
</g>
</svg>
