<?xml version="1.0" encoding="UTF-8" standalone="no"?>
<!DOCTYPE svg PUBLIC "-//W3C//DTD SVG 1.1//EN"
 "http://www.w3.org/Graphics/SVG/1.1/DTD/svg11.dtd">
<!-- Generated by graphviz version 2.50.0 (0)
 -->
<!-- Title: vae::core::Engine::removeEmitter Pages: 1 -->
<svg width="459pt" height="105pt"
 viewBox="0.00 0.00 459.00 104.50" xmlns="http://www.w3.org/2000/svg" xmlns:xlink="http://www.w3.org/1999/xlink">
<g id="graph0" class="graph" transform="scale(1 1) rotate(0) translate(4 100.5)">
<title>vae::core::Engine::removeEmitter</title>
<!-- Node1 -->
<g id="node1" class="node">
<title>Node1</title>
<g id="a_node1"><a xlink:title="Unregister a emiter an kill all its voices.">
<polygon fill="#bfbfbf" stroke="black" points="0,-41 0,-71 107,-71 107,-41 0,-41"/>
<text text-anchor="start" x="8" y="-59" font-family="Helvetica,sans-Serif" font-size="10.00">vae::core::Engine::</text>
<text text-anchor="middle" x="53.5" y="-48" font-family="Helvetica,sans-Serif" font-size="10.00">removeEmitter</text>
</a>
</g>
</g>
<!-- Node2 -->
<g id="node2" class="node">
<title>Node2</title>
<g id="a_node2"><a xlink:href="classvae_1_1core_1_1_spatial_manager.html#ad4b8d1cddd82ddec02d2551cdf9c53db" target="_top" xlink:title=" ">
<polygon fill="none" stroke="black" points="143,-66 143,-96 286,-96 286,-66 143,-66"/>
<text text-anchor="start" x="151" y="-84" font-family="Helvetica,sans-Serif" font-size="10.00">vae::core::SpatialManager</text>
<text text-anchor="middle" x="214.5" y="-73" font-family="Helvetica,sans-Serif" font-size="10.00">::removeEmitter</text>
</a>
</g>
</g>
<!-- Node1&#45;&gt;Node2 -->
<g id="edge1" class="edge">
<title>Node1&#45;&gt;Node2</title>
<path fill="none" stroke="midnightblue" d="M107,-64.26C115.35,-65.57 124.15,-66.95 132.96,-68.34"/>
<polygon fill="midnightblue" stroke="midnightblue" points="132.47,-71.8 142.9,-69.9 133.56,-64.89 132.47,-71.8"/>
</g>
<!-- Node3 -->
<g id="node3" class="node">
<title>Node3</title>
<g id="a_node3"><a xlink:href="classvae_1_1core_1_1_voice_manger.html#a51b077f535b7eebcc1e62d5ca5a0d95d" target="_top" xlink:title="Stops a voice.">
<polygon fill="none" stroke="black" points="150,-17 150,-47 279,-47 279,-17 150,-17"/>
<text text-anchor="start" x="158" y="-35" font-family="Helvetica,sans-Serif" font-size="10.00">vae::core::VoiceManger</text>
<text text-anchor="middle" x="214.5" y="-24" font-family="Helvetica,sans-Serif" font-size="10.00">::stop</text>
</a>
</g>
</g>
<!-- Node1&#45;&gt;Node3 -->
<g id="edge2" class="edge">
<title>Node1&#45;&gt;Node3</title>
<path fill="none" stroke="midnightblue" d="M107,-48.07C117.53,-46.49 128.77,-44.79 139.86,-43.11"/>
<polygon fill="midnightblue" stroke="midnightblue" points="140.62,-46.54 149.98,-41.59 139.57,-39.62 140.62,-46.54"/>
</g>
<!-- Node4 -->
<g id="node4" class="node">
<title>Node4</title>
<g id="a_node4"><a xlink:href="classvae_1_1core_1_1_voice_manger.html#abe6b6d5a07c73e1e194f24314226a19f" target="_top" xlink:title=" ">
<polygon fill="none" stroke="black" points="322,-39 322,-69 451,-69 451,-39 322,-39"/>
<text text-anchor="start" x="330" y="-57" font-family="Helvetica,sans-Serif" font-size="10.00">vae::core::VoiceManger</text>
<text text-anchor="middle" x="386.5" y="-46" font-family="Helvetica,sans-Serif" font-size="10.00">::finished</text>
</a>
</g>
</g>
<!-- Node3&#45;&gt;Node4 -->
<g id="edge3" class="edge">
<title>Node3&#45;&gt;Node4</title>
<path fill="none" stroke="midnightblue" d="M279.29,-40.25C289.85,-41.62 300.89,-43.05 311.68,-44.45"/>
<polygon fill="midnightblue" stroke="midnightblue" points="311.56,-47.96 321.92,-45.77 312.45,-41.02 311.56,-47.96"/>
</g>
<!-- Node5 -->
<g id="node5" class="node">
<title>Node5</title>
<g id="a_node5"><a xlink:href="namespacetklb.html#a7dc2203e89c331e3c85b9e7f16fa6763" target="_top" xlink:title=" ">
<polygon fill="none" stroke="black" points="355,-0.5 355,-19.5 418,-19.5 418,-0.5 355,-0.5"/>
<text text-anchor="middle" x="386.5" y="-7.5" font-family="Helvetica,sans-Serif" font-size="10.00">tklb::max</text>
</a>
</g>
</g>
<!-- Node3&#45;&gt;Node5 -->
<g id="edge4" class="edge">
<title>Node3&#45;&gt;Node5</title>
<path fill="none" stroke="midnightblue" d="M279.29,-23.75C301.17,-20.91 325.05,-17.82 344.62,-15.29"/>
<polygon fill="midnightblue" stroke="midnightblue" points="345.25,-18.74 354.72,-13.98 344.35,-11.8 345.25,-18.74"/>
</g>
</g>
</svg>
