<?xml version="1.0" encoding="UTF-8" standalone="no"?>
<!DOCTYPE svg PUBLIC "-//W3C//DTD SVG 1.1//EN"
 "http://www.w3.org/Graphics/SVG/1.1/DTD/svg11.dtd">
<!-- Generated by graphviz version 2.50.0 (0)
 -->
<!-- Title: vae::core::effect::EffectsList::instance Pages: 1 -->
<!--zoomable 149 -->
<svg id="main" version="1.1" xmlns="http://www.w3.org/2000/svg" xmlns:xlink="http://www.w3.org/1999/xlink" xml:space="preserve" onload="init(evt)">
<style type="text/css"><![CDATA[
.edge:hover path { stroke: red; }
.edge:hover polygon { stroke: red; fill: red; }
]]></style>
<script type="text/javascript"><![CDATA[
var edges = document.getElementsByTagName('g');
if (edges && edges.length) {
  for (var i=0;i<edges.length;i++) {
    if (edges[i].id.substr(0,4)=='edge') {
      edges[i].setAttribute('class','edge');
    }
  }
}
]]></script>
        <defs>
                <circle id="rim" cx="0" cy="0" r="7"/>
                <circle id="rim2" cx="0" cy="0" r="3.5"/>
                <g id="zoomPlus">
                        <use xlink:href="#rim" fill="#404040">
                                <set attributeName="fill" to="#808080" begin="zoomplus.mouseover" end="zoomplus.mouseout"/>
                        </use>
                        <path d="M-4,0h8M0,-4v8" fill="none" stroke="white" stroke-width="1.5" pointer-events="none"/>
                </g>
                <g id="zoomMin">
                        <use xlink:href="#rim" fill="#404040">
                                <set attributeName="fill" to="#808080" begin="zoomminus.mouseover" end="zoomminus.mouseout"/>
                        </use>
                        <path d="M-4,0h8" fill="none" stroke="white" stroke-width="1.5" pointer-events="none"/>
                </g>
                <g id="dirArrow">
                        <path fill="none" stroke="white" stroke-width="1.5" d="M0,-3.0v7 M-2.5,-0.5L0,-3.0L2.5,-0.5"/>
                </g>
               <g id="resetDef">
                       <use xlink:href="#rim2" fill="#404040">
                               <set attributeName="fill" to="#808080" begin="reset.mouseover" end="reset.mouseout"/>
                       </use>
               </g>
        </defs>

<script type="text/javascript">
var viewWidth = 669;
var viewHeight = 149;
var sectionId = 'dynsection-2';
</script>
<script xlink:href="svgpan.js"/>
<svg id="graph" class="graph">
<g id="viewport">
<title>vae::core::effect::EffectsList::instance</title>
<!-- Node1 -->
<g id="node1" class="node">
<title>Node1</title>
<g id="a_node1"><a xlink:title=" ">
<polygon fill="#bfbfbf" stroke="black" points="546,-61 546,-91 661,-91 661,-61 546,-61"/>
<text text-anchor="start" x="554" y="-79" font-family="Helvetica,sans-Serif" font-size="10.00">vae::core::effect::</text>
<text text-anchor="middle" x="603.5" y="-68" font-family="Helvetica,sans-Serif" font-size="10.00">EffectsList::instance</text>
</a>
</g>
</g>
<!-- Node2 -->
<g id="node2" class="node">
<title>Node2</title>
<g id="a_node2"><a xlink:href="classvae_1_1core_1_1effect_1_1_effects_factory.html#ace857f89f07cd4b9d13eb6814425180e" target="_top" xlink:title=" ">
<polygon fill="none" stroke="black" points="364,-110 364,-140 486,-140 486,-110 364,-110"/>
<text text-anchor="start" x="372" y="-128" font-family="Helvetica,sans-Serif" font-size="10.00">vae::core::effect::</text>
<text text-anchor="middle" x="425" y="-117" font-family="Helvetica,sans-Serif" font-size="10.00">EffectsFactory::create</text>
</a>
</g>
</g>
<!-- Node1&#45;&gt;Node2 -->
<g id="edge1" class="edge">
<title>Node1&#45;&gt;Node2</title>
<path fill="none" stroke="midnightblue" d="M538.31,-93.82C519.25,-99.11 498.57,-104.85 480.22,-109.95"/>
<polygon fill="midnightblue" stroke="midnightblue" points="539.4,-97.15 548.1,-91.1 537.53,-90.4 539.4,-97.15"/>
</g>
<!-- Node5 -->
<g id="node5" class="node">
<title>Node5</title>
<g id="a_node5"><a xlink:href="structvae_1_1core_1_1effect_1_1_registermydsp.html#a5fec3f318d9fd63d02ba96b89d95b96d" target="_top" xlink:title=" ">
<polygon fill="none" stroke="black" points="340,-61 340,-91 510,-91 510,-61 340,-61"/>
<text text-anchor="start" x="348" y="-79" font-family="Helvetica,sans-Serif" font-size="10.00">vae::core::effect::</text>
<text text-anchor="middle" x="425" y="-68" font-family="Helvetica,sans-Serif" font-size="10.00">Registermydsp::Registermydsp</text>
</a>
</g>
</g>
<!-- Node1&#45;&gt;Node5 -->
<g id="edge4" class="edge">
<title>Node1&#45;&gt;Node5</title>
<path fill="none" stroke="midnightblue" d="M535.63,-76C527.26,-76 518.61,-76 510.02,-76"/>
<polygon fill="midnightblue" stroke="midnightblue" points="535.68,-79.5 545.68,-76 535.68,-72.5 535.68,-79.5"/>
</g>
<!-- Node6 -->
<g id="node6" class="node">
<title>Node6</title>
<g id="a_node6"><a xlink:href="structvae_1_1core_1_1effect_1_1_register_v_a_e_reverb.html#a990fa08f1721c2402d148df6462056e1" target="_top" xlink:title=" ">
<polygon fill="none" stroke="black" points="346,-0.5 346,-41.5 504,-41.5 504,-0.5 346,-0.5"/>
<text text-anchor="start" x="354" y="-29.5" font-family="Helvetica,sans-Serif" font-size="10.00">vae::core::effect::</text>
<text text-anchor="start" x="354" y="-18.5" font-family="Helvetica,sans-Serif" font-size="10.00">RegisterVAEReverb::Register</text>
<text text-anchor="middle" x="425" y="-7.5" font-family="Helvetica,sans-Serif" font-size="10.00">VAEReverb</text>
</a>
</g>
</g>
<!-- Node1&#45;&gt;Node6 -->
<g id="edge5" class="edge">
<title>Node1&#45;&gt;Node6</title>
<path fill="none" stroke="midnightblue" d="M544.59,-57.95C527.78,-52.72 509.3,-46.96 492.04,-41.58"/>
<polygon fill="midnightblue" stroke="midnightblue" points="543.68,-61.34 554.27,-60.97 545.76,-54.65 543.68,-61.34"/>
</g>
<!-- Node3 -->
<g id="node3" class="node">
<title>Node3</title>
<g id="a_node3"><a xlink:href="classvae_1_1core_1_1_bank_manager.html#a2e7de1d8768b886383a38377dbfeeb0d" target="_top" xlink:title=" ">
<polygon fill="none" stroke="black" points="170,-110 170,-140 304,-140 304,-110 170,-110"/>
<text text-anchor="start" x="178" y="-128" font-family="Helvetica,sans-Serif" font-size="10.00">vae::core::BankManager</text>
<text text-anchor="middle" x="237" y="-117" font-family="Helvetica,sans-Serif" font-size="10.00">::initMixer</text>
</a>
</g>
</g>
<!-- Node2&#45;&gt;Node3 -->
<g id="edge2" class="edge">
<title>Node2&#45;&gt;Node3</title>
<path fill="none" stroke="midnightblue" d="M353.85,-125C337.52,-125 320.18,-125 304.04,-125"/>
<polygon fill="midnightblue" stroke="midnightblue" points="353.87,-128.5 363.87,-125 353.87,-121.5 353.87,-128.5"/>
</g>
<!-- Node4 -->
<g id="node4" class="node">
<title>Node4</title>
<g id="a_node4"><a xlink:href="classvae_1_1core_1_1_bank_manager.html#adbc94fb2b23a418e34a3eda7812d71a6" target="_top" xlink:title=" ">
<polygon fill="none" stroke="black" points="0,-110 0,-140 134,-140 134,-110 0,-110"/>
<text text-anchor="start" x="8" y="-128" font-family="Helvetica,sans-Serif" font-size="10.00">vae::core::BankManager</text>
<text text-anchor="middle" x="67" y="-117" font-family="Helvetica,sans-Serif" font-size="10.00">::load</text>
</a>
</g>
</g>
<!-- Node3&#45;&gt;Node4 -->
<g id="edge3" class="edge">
<title>Node3&#45;&gt;Node4</title>
<path fill="none" stroke="midnightblue" d="M159.41,-125C150.99,-125 142.47,-125 134.19,-125"/>
<polygon fill="midnightblue" stroke="midnightblue" points="159.6,-128.5 169.6,-125 159.6,-121.5 159.6,-128.5"/>
</g>
</g>
</svg>
        <g id="navigator" transform="translate(0 0)" fill="#404254">
                <rect fill="#f2f5e9" fill-opacity="0.5" stroke="#606060" stroke-width=".5" x="0" y="0" width="60" height="60"/>
                <use id="zoomplus" xlink:href="#zoomPlus" x="17" y="9" onmousedown="handleZoom(evt,'in')"/>
                <use id="zoomminus" xlink:href="#zoomMin" x="42" y="9" onmousedown="handleZoom(evt,'out')"/>
                <use id="reset" xlink:href="#resetDef" x="30" y="36" onmousedown="handleReset()"/>
                <g id="arrowUp" xlink:href="#dirArrow" transform="translate(30 24)" onmousedown="handlePan(0,-1)">
                  <use xlink:href="#rim" fill="#404040">
                        <set attributeName="fill" to="#808080" begin="arrowUp.mouseover" end="arrowUp.mouseout"/>
                  </use>
                  <path fill="none" stroke="white" stroke-width="1.5" d="M0,-3.0v7 M-2.5,-0.5L0,-3.0L2.5,-0.5"/>
                </g>
                <g id="arrowRight" xlink:href="#dirArrow" transform="rotate(90) translate(36 -43)" onmousedown="handlePan(1,0)">
                  <use xlink:href="#rim" fill="#404040">
                        <set attributeName="fill" to="#808080" begin="arrowRight.mouseover" end="arrowRight.mouseout"/>
                  </use>
                  <path fill="none" stroke="white" stroke-width="1.5" d="M0,-3.0v7 M-2.5,-0.5L0,-3.0L2.5,-0.5"/>
                </g>
                <g id="arrowDown" xlink:href="#dirArrow" transform="rotate(180) translate(-30 -48)" onmousedown="handlePan(0,1)">
                  <use xlink:href="#rim" fill="#404040">
                        <set attributeName="fill" to="#808080" begin="arrowDown.mouseover" end="arrowDown.mouseout"/>
                  </use>
                  <path fill="none" stroke="white" stroke-width="1.5" d="M0,-3.0v7 M-2.5,-0.5L0,-3.0L2.5,-0.5"/>
                </g>
                <g id="arrowLeft" xlink:href="#dirArrow" transform="rotate(270) translate(-36 17)" onmousedown="handlePan(-1,0)">
                  <use xlink:href="#rim" fill="#404040">
                        <set attributeName="fill" to="#808080" begin="arrowLeft.mouseover" end="arrowLeft.mouseout"/>
                  </use>
                  <path fill="none" stroke="white" stroke-width="1.5" d="M0,-3.0v7 M-2.5,-0.5L0,-3.0L2.5,-0.5"/>
                </g>
        </g>
        <svg viewBox="0 0 15 15" width="100%" height="30px" preserveAspectRatio="xMaxYMin meet">
         <g id="arrow_out" transform="scale(0.3 0.3)">
          <a xlink:href="classvae_1_1core_1_1effect_1_1_effects_list_abfa6014cdb73bfddb689127450a0707d_icgraph_org.svg" target="_base">
           <rect id="button" ry="5" rx="5" y="6" x="6" height="38" width="38"
                fill="#f2f5e9" fill-opacity="0.5" stroke="#606060" stroke-width="1.0"/>
           <path id="arrow"
             d="M 11.500037,31.436501 C 11.940474,20.09759 22.043105,11.32322 32.158766,21.979434 L 37.068811,17.246167 C 37.068811,17.246167 37.088388,32 37.088388,32 L 22.160133,31.978069 C 22.160133,31.978069 26.997745,27.140456 26.997745,27.140456 C 18.528582,18.264221 13.291696,25.230495 11.500037,31.436501 z"
             style="fill:#404040;"/>
          </a>
         </g>
        </svg>
</svg>
