<?xml version="1.0" encoding="UTF-8" standalone="no"?>
<!DOCTYPE svg PUBLIC "-//W3C//DTD SVG 1.1//EN"
 "http://www.w3.org/Graphics/SVG/1.1/DTD/svg11.dtd">
<!-- Generated by graphviz version 2.50.0 (0)
 -->
<!-- Title: tklb::HeapBuffer::push Pages: 1 -->
<svg width="682pt" height="270pt"
 viewBox="0.00 0.00 682.00 270.21" xmlns="http://www.w3.org/2000/svg" xmlns:xlink="http://www.w3.org/1999/xlink">
<g id="graph0" class="graph" transform="scale(1 1) rotate(0) translate(4 266.21)">
<title>tklb::HeapBuffer::push</title>
<!-- Node1 -->
<g id="node1" class="node">
<title>Node1</title>
<g id="a_node1"><a xlink:title="Push the object to the back of the buffer TODO tklb move version.">
<polygon fill="#bfbfbf" stroke="black" points="0,-104.5 0,-123.5 126,-123.5 126,-104.5 0,-104.5"/>
<text text-anchor="middle" x="63" y="-111.5" font-family="Helvetica,sans-Serif" font-size="10.00">tklb::HeapBuffer::push</text>
</a>
</g>
</g>
<!-- Node2 -->
<g id="node2" class="node">
<title>Node2</title>
<g id="a_node2"><a xlink:href="classtklb_1_1_heap_buffer.html#aa2212b76d383c1afe3d4da0448133299" target="_top" xlink:title="Allocated the exact size requsted and copies existing objects.">
<polygon fill="none" stroke="black" points="162,-126.5 162,-145.5 304,-145.5 304,-126.5 162,-126.5"/>
<text text-anchor="middle" x="233" y="-133.5" font-family="Helvetica,sans-Serif" font-size="10.00">tklb::HeapBuffer::allocate</text>
</a>
</g>
</g>
<!-- Node1&#45;&gt;Node2 -->
<g id="edge1" class="edge">
<title>Node1&#45;&gt;Node2</title>
<path fill="none" stroke="midnightblue" d="M126.08,-122.13C134.48,-123.23 143.19,-124.37 151.85,-125.5"/>
<polygon fill="midnightblue" stroke="midnightblue" points="151.59,-129 161.96,-126.83 152.5,-122.06 151.59,-129"/>
</g>
<!-- Node10 -->
<g id="node10" class="node">
<title>Node10</title>
<g id="a_node10"><a xlink:href="classtklb_1_1_heap_buffer.html#ad513a99105213150fe287a8c209f8bc2" target="_top" xlink:title=" ">
<polygon fill="none" stroke="black" points="164.5,-77 164.5,-107 301.5,-107 301.5,-77 164.5,-77"/>
<text text-anchor="start" x="172.5" y="-95" font-family="Helvetica,sans-Serif" font-size="10.00">tklb::HeapBuffer::closest</text>
<text text-anchor="middle" x="233" y="-84" font-family="Helvetica,sans-Serif" font-size="10.00">ChunkSize</text>
</a>
</g>
</g>
<!-- Node1&#45;&gt;Node10 -->
<g id="edge11" class="edge">
<title>Node1&#45;&gt;Node10</title>
<path fill="none" stroke="midnightblue" d="M126.08,-105.87C135.21,-104.67 144.71,-103.43 154.11,-102.2"/>
<polygon fill="midnightblue" stroke="midnightblue" points="154.78,-105.64 164.24,-100.87 153.87,-98.7 154.78,-105.64"/>
</g>
<!-- Node3 -->
<g id="node3" class="node">
<title>Node3</title>
<g id="a_node3"><a xlink:href="classtklb_1_1memory_1_1_memory_pool.html#a12db669f354ab3f2037a67db7f0a8229" target="_top" xlink:title=" ">
<polygon fill="none" stroke="black" points="525,-225 525,-255 674,-255 674,-225 525,-225"/>
<text text-anchor="start" x="533" y="-243" font-family="Helvetica,sans-Serif" font-size="10.00">tklb::memory::MemoryPool</text>
<text text-anchor="middle" x="599.5" y="-232" font-family="Helvetica,sans-Serif" font-size="10.00">::allocate</text>
</a>
</g>
</g>
<!-- Node2&#45;&gt;Node3 -->
<g id="edge2" class="edge">
<title>Node2&#45;&gt;Node3</title>
<path fill="none" stroke="midnightblue" d="M239.65,-145.56C253.44,-167.8 291.25,-222.67 340,-243 397.11,-266.81 467.68,-264.11 520.65,-256.54"/>
<polygon fill="midnightblue" stroke="midnightblue" points="521.3,-259.98 530.66,-255.02 520.25,-253.06 521.3,-259.98"/>
</g>
<!-- Node4 -->
<g id="node4" class="node">
<title>Node4</title>
<g id="a_node4"><a xlink:href="classtklb_1_1memory_1_1_memory_pool.html#a23f0f8e6cc9408d522b0165dd0f01ac2" target="_top" xlink:title="Allocate aligned if simd is enabled.">
<polygon fill="none" stroke="black" points="340,-203 340,-233 489,-233 489,-203 340,-203"/>
<text text-anchor="start" x="348" y="-221" font-family="Helvetica,sans-Serif" font-size="10.00">tklb::memory::MemoryPool</text>
<text text-anchor="middle" x="414.5" y="-210" font-family="Helvetica,sans-Serif" font-size="10.00">::allocateAligned</text>
</a>
</g>
</g>
<!-- Node2&#45;&gt;Node4 -->
<g id="edge3" class="edge">
<title>Node2&#45;&gt;Node4</title>
<path fill="none" stroke="midnightblue" d="M249.75,-145.54C270.1,-157.61 306.86,-178.57 340,-193 345.1,-195.22 350.46,-197.37 355.87,-199.42"/>
<polygon fill="midnightblue" stroke="midnightblue" points="355.02,-202.84 365.62,-203 357.43,-196.27 355.02,-202.84"/>
</g>
<!-- Node5 -->
<g id="node5" class="node">
<title>Node5</title>
<g id="a_node5"><a xlink:href="namespacetklb_1_1memory.html#ab89ec197028f903f4ea125eae46c4a10" target="_top" xlink:title="memcpy wrapper">
<polygon fill="none" stroke="black" points="358.5,-164.5 358.5,-183.5 470.5,-183.5 470.5,-164.5 358.5,-164.5"/>
<text text-anchor="middle" x="414.5" y="-171.5" font-family="Helvetica,sans-Serif" font-size="10.00">tklb::memory::copy</text>
</a>
</g>
</g>
<!-- Node2&#45;&gt;Node5 -->
<g id="edge5" class="edge">
<title>Node2&#45;&gt;Node5</title>
<path fill="none" stroke="midnightblue" d="M279.3,-145.59C303.41,-150.69 333.25,-157.01 358.67,-162.39"/>
<polygon fill="midnightblue" stroke="midnightblue" points="358.02,-165.83 368.53,-164.48 359.47,-158.98 358.02,-165.83"/>
</g>
<!-- Node6 -->
<g id="node6" class="node">
<title>Node6</title>
<g id="a_node6"><a xlink:href="classtklb_1_1memory_1_1_memory_pool.html#ae2f6e404a58380b0bcf0f3de281a7546" target="_top" xlink:title=" ">
<polygon fill="none" stroke="black" points="525,-99 525,-129 674,-129 674,-99 525,-99"/>
<text text-anchor="start" x="533" y="-117" font-family="Helvetica,sans-Serif" font-size="10.00">tklb::memory::MemoryPool</text>
<text text-anchor="middle" x="599.5" y="-106" font-family="Helvetica,sans-Serif" font-size="10.00">::deallocate</text>
</a>
</g>
</g>
<!-- Node2&#45;&gt;Node6 -->
<g id="edge6" class="edge">
<title>Node2&#45;&gt;Node6</title>
<path fill="none" stroke="midnightblue" d="M304.28,-131.76C364.47,-128.13 451.25,-122.89 514.98,-119.04"/>
<polygon fill="midnightblue" stroke="midnightblue" points="515.23,-122.53 525,-118.44 514.81,-115.55 515.23,-122.53"/>
</g>
<!-- Node7 -->
<g id="node7" class="node">
<title>Node7</title>
<g id="a_node7"><a xlink:href="classtklb_1_1memory_1_1_memory_pool.html#a7b2a7e96e64767e2cff9dfddb9085779" target="_top" xlink:title=" ">
<polygon fill="none" stroke="black" points="340,-77 340,-107 489,-107 489,-77 340,-77"/>
<text text-anchor="start" x="348" y="-95" font-family="Helvetica,sans-Serif" font-size="10.00">tklb::memory::MemoryPool</text>
<text text-anchor="middle" x="414.5" y="-84" font-family="Helvetica,sans-Serif" font-size="10.00">::deallocateAligned</text>
</a>
</g>
</g>
<!-- Node2&#45;&gt;Node7 -->
<g id="edge7" class="edge">
<title>Node2&#45;&gt;Node7</title>
<path fill="none" stroke="midnightblue" d="M272.95,-126.45C293.16,-121.5 318.49,-115.29 342.07,-109.51"/>
<polygon fill="midnightblue" stroke="midnightblue" points="343.16,-112.85 352.04,-107.07 341.49,-106.05 343.16,-112.85"/>
</g>
<!-- Node8 -->
<g id="node8" class="node">
<title>Node8</title>
<g id="a_node8"><a xlink:href="classtklb_1_1_heap_buffer.html#af3331f4c39082c6bedf37b7931b1c27a" target="_top" xlink:title="Whether the memory is managed by the instance or is borrowed.">
<polygon fill="none" stroke="black" points="343.5,-38.5 343.5,-57.5 485.5,-57.5 485.5,-38.5 343.5,-38.5"/>
<text text-anchor="middle" x="414.5" y="-45.5" font-family="Helvetica,sans-Serif" font-size="10.00">tklb::HeapBuffer::injected</text>
</a>
</g>
</g>
<!-- Node2&#45;&gt;Node8 -->
<g id="edge9" class="edge">
<title>Node2&#45;&gt;Node8</title>
<path fill="none" stroke="midnightblue" d="M283.32,-126.4C290.62,-123.73 297.77,-120.33 304,-116 326.18,-100.57 317.62,-82.15 340,-67 343.07,-64.92 346.36,-63.07 349.77,-61.42"/>
<polygon fill="midnightblue" stroke="midnightblue" points="351.2,-64.61 359.06,-57.51 348.48,-58.16 351.2,-64.61"/>
</g>
<!-- Node9 -->
<g id="node9" class="node">
<title>Node9</title>
<g id="a_node9"><a xlink:href="namespacetklb.html#a3080595da18d742645ec41d61828a426" target="_top" xlink:title=" ">
<polygon fill="none" stroke="black" points="384.5,-0.5 384.5,-19.5 444.5,-19.5 444.5,-0.5 384.5,-0.5"/>
<text text-anchor="middle" x="414.5" y="-7.5" font-family="Helvetica,sans-Serif" font-size="10.00">tklb::min</text>
</a>
</g>
</g>
<!-- Node2&#45;&gt;Node9 -->
<g id="edge10" class="edge">
<title>Node2&#45;&gt;Node9</title>
<path fill="none" stroke="midnightblue" d="M287.17,-126.47C293.3,-123.8 299.1,-120.37 304,-116 335.23,-88.14 308.42,-56.46 340,-29 349.48,-20.76 362.09,-16.02 374.18,-13.32"/>
<polygon fill="midnightblue" stroke="midnightblue" points="374.93,-16.74 384.14,-11.5 373.67,-9.85 374.93,-16.74"/>
</g>
<!-- Node4&#45;&gt;Node3 -->
<g id="edge4" class="edge">
<title>Node4&#45;&gt;Node3</title>
<path fill="none" stroke="midnightblue" d="M489.14,-226.85C497.57,-227.87 506.2,-228.9 514.74,-229.93"/>
<polygon fill="midnightblue" stroke="midnightblue" points="514.36,-233.41 524.71,-231.13 515.2,-226.46 514.36,-233.41"/>
</g>
<!-- Node7&#45;&gt;Node6 -->
<g id="edge8" class="edge">
<title>Node7&#45;&gt;Node6</title>
<path fill="none" stroke="midnightblue" d="M489.14,-100.85C497.57,-101.87 506.2,-102.9 514.74,-103.93"/>
<polygon fill="midnightblue" stroke="midnightblue" points="514.36,-107.41 524.71,-105.13 515.2,-100.46 514.36,-107.41"/>
</g>
</g>
</svg>
