<?xml version="1.0" encoding="UTF-8" standalone="no"?>
<!DOCTYPE svg PUBLIC "-//W3C//DTD SVG 1.1//EN"
 "http://www.w3.org/Graphics/SVG/1.1/DTD/svg11.dtd">
<!-- Generated by graphviz version 2.50.0 (0)
 -->
<!-- Title: vae::core::MixerProcessor::mix Pages: 1 -->
<!--zoomable 323 -->
<svg id="main" version="1.1" xmlns="http://www.w3.org/2000/svg" xmlns:xlink="http://www.w3.org/1999/xlink" xml:space="preserve" onload="init(evt)">
<style type="text/css"><![CDATA[
.edge:hover path { stroke: red; }
.edge:hover polygon { stroke: red; fill: red; }
]]></style>
<script type="text/javascript"><![CDATA[
var edges = document.getElementsByTagName('g');
if (edges && edges.length) {
  for (var i=0;i<edges.length;i++) {
    if (edges[i].id.substr(0,4)=='edge') {
      edges[i].setAttribute('class','edge');
    }
  }
}
]]></script>
        <defs>
                <circle id="rim" cx="0" cy="0" r="7"/>
                <circle id="rim2" cx="0" cy="0" r="3.5"/>
                <g id="zoomPlus">
                        <use xlink:href="#rim" fill="#404040">
                                <set attributeName="fill" to="#808080" begin="zoomplus.mouseover" end="zoomplus.mouseout"/>
                        </use>
                        <path d="M-4,0h8M0,-4v8" fill="none" stroke="white" stroke-width="1.5" pointer-events="none"/>
                </g>
                <g id="zoomMin">
                        <use xlink:href="#rim" fill="#404040">
                                <set attributeName="fill" to="#808080" begin="zoomminus.mouseover" end="zoomminus.mouseout"/>
                        </use>
                        <path d="M-4,0h8" fill="none" stroke="white" stroke-width="1.5" pointer-events="none"/>
                </g>
                <g id="dirArrow">
                        <path fill="none" stroke="white" stroke-width="1.5" d="M0,-3.0v7 M-2.5,-0.5L0,-3.0L2.5,-0.5"/>
                </g>
               <g id="resetDef">
                       <use xlink:href="#rim2" fill="#404040">
                               <set attributeName="fill" to="#808080" begin="reset.mouseover" end="reset.mouseout"/>
                       </use>
               </g>
        </defs>

<script type="text/javascript">
var viewWidth = 744;
var viewHeight = 323;
var sectionId = 'dynsection-2';
</script>
<script xlink:href="svgpan.js"/>
<svg id="graph" class="graph">
<g id="viewport">
<title>vae::core::MixerProcessor::mix</title>
<!-- Node1 -->
<g id="node1" class="node">
<title>Node1</title>
<g id="a_node1"><a xlink:title="Process the mixers for a single bank.">
<polygon fill="#bfbfbf" stroke="black" points="0,-143 0,-162 167,-162 167,-143 0,-143"/>
<text text-anchor="middle" x="83.5" y="-150" font-family="Helvetica,sans-Serif" font-size="10.00">vae::core::MixerProcessor::mix</text>
</a>
</g>
</g>
<!-- Node2 -->
<g id="node2" class="node">
<title>Node2</title>
<g id="a_node2"><a xlink:href="classvae_1_1core_1_1_effects_processor.html#a460a07e9049a636b7808d575d6d41baa" target="_top" xlink:title=" ">
<polygon fill="none" stroke="black" points="203,-143 203,-162 376,-162 376,-143 203,-143"/>
<text text-anchor="middle" x="289.5" y="-150" font-family="Helvetica,sans-Serif" font-size="10.00">vae::core::EffectsProcessor::mix</text>
</a>
</g>
</g>
<!-- Node1&#45;&gt;Node2 -->
<g id="edge1" class="edge">
<title>Node1&#45;&gt;Node2</title>
<path fill="none" stroke="midnightblue" d="M167.18,-152.5C175.5,-152.5 184,-152.5 192.45,-152.5"/>
<polygon fill="midnightblue" stroke="midnightblue" points="192.71,-156 202.71,-152.5 192.71,-149 192.71,-156"/>
</g>
<!-- Node3 -->
<g id="node3" class="node">
<title>Node3</title>
<g id="a_node3"><a xlink:href="classtklb_1_1_audio_buffer_tpl.html#a7859b26033cbb893c2ea7acea54d8013" target="_top" xlink:title="Returns the amount of channels.">
<polygon fill="none" stroke="black" points="431,-284.5 431,-314.5 545,-314.5 545,-284.5 431,-284.5"/>
<text text-anchor="start" x="439" y="-302.5" font-family="Helvetica,sans-Serif" font-size="10.00">tklb::AudioBufferTpl</text>
<text text-anchor="middle" x="488" y="-291.5" font-family="Helvetica,sans-Serif" font-size="10.00">::channels</text>
</a>
</g>
</g>
<!-- Node2&#45;&gt;Node3 -->
<g id="edge2" class="edge">
<title>Node2&#45;&gt;Node3</title>
<path fill="none" stroke="midnightblue" d="M297.29,-162.03C314.1,-184.96 360.07,-243.62 412,-275.5 415,-277.34 418.16,-279.06 421.42,-280.66"/>
<polygon fill="midnightblue" stroke="midnightblue" points="420.22,-283.96 430.78,-284.84 423.08,-277.56 420.22,-283.96"/>
</g>
<!-- Node4 -->
<g id="node4" class="node">
<title>Node4</title>
<g id="a_node4"><a xlink:href="classvae_1_1core_1_1effect_1_1_effect_base.html#a90fa165893743d102eda0d7e9d141629" target="_top" xlink:title=" ">
<polygon fill="none" stroke="black" points="416,-235.5 416,-265.5 560,-265.5 560,-235.5 416,-235.5"/>
<text text-anchor="start" x="424" y="-253.5" font-family="Helvetica,sans-Serif" font-size="10.00">vae::core::effect::</text>
<text text-anchor="middle" x="488" y="-242.5" font-family="Helvetica,sans-Serif" font-size="10.00">EffectBase::getNumInputs</text>
</a>
</g>
</g>
<!-- Node2&#45;&gt;Node4 -->
<g id="edge3" class="edge">
<title>Node2&#45;&gt;Node4</title>
<path fill="none" stroke="midnightblue" d="M303.76,-162.04C325.49,-177.33 370.44,-207.52 412,-226.5 416.1,-228.37 420.38,-230.16 424.74,-231.85"/>
<polygon fill="midnightblue" stroke="midnightblue" points="423.76,-235.22 434.35,-235.41 426.18,-228.65 423.76,-235.22"/>
</g>
<!-- Node5 -->
<g id="node5" class="node">
<title>Node5</title>
<g id="a_node5"><a xlink:href="classvae_1_1core_1_1effect_1_1_effect_base.html#abdfd93e231a018873b4487f971a382da" target="_top" xlink:title=" ">
<polygon fill="none" stroke="black" points="412,-186.5 412,-216.5 564,-216.5 564,-186.5 412,-186.5"/>
<text text-anchor="start" x="420" y="-204.5" font-family="Helvetica,sans-Serif" font-size="10.00">vae::core::effect::</text>
<text text-anchor="middle" x="488" y="-193.5" font-family="Helvetica,sans-Serif" font-size="10.00">EffectBase::getNumOutputs</text>
</a>
</g>
</g>
<!-- Node2&#45;&gt;Node5 -->
<g id="edge4" class="edge">
<title>Node2&#45;&gt;Node5</title>
<path fill="none" stroke="midnightblue" d="M328.85,-162.06C353.84,-168.29 387.18,-176.61 416.81,-184"/>
<polygon fill="midnightblue" stroke="midnightblue" points="416.15,-187.44 426.7,-186.46 417.84,-180.65 416.15,-187.44"/>
</g>
<!-- Node6 -->
<g id="node6" class="node">
<title>Node6</title>
<g id="a_node6"><a xlink:href="classvae_1_1core_1_1effect_1_1_effect_base.html#a631d433cb8e69455481d812258afe285" target="_top" xlink:title=" ">
<polygon fill="none" stroke="black" points="431.5,-137.5 431.5,-167.5 544.5,-167.5 544.5,-137.5 431.5,-137.5"/>
<text text-anchor="start" x="439.5" y="-155.5" font-family="Helvetica,sans-Serif" font-size="10.00">vae::core::effect::</text>
<text text-anchor="middle" x="488" y="-144.5" font-family="Helvetica,sans-Serif" font-size="10.00">EffectBase::process</text>
</a>
</g>
</g>
<!-- Node2&#45;&gt;Node6 -->
<g id="edge5" class="edge">
<title>Node2&#45;&gt;Node6</title>
<path fill="none" stroke="midnightblue" d="M376.12,-152.5C391.18,-152.5 406.65,-152.5 421.07,-152.5"/>
<polygon fill="midnightblue" stroke="midnightblue" points="421.36,-156 431.36,-152.5 421.36,-149 421.36,-156"/>
</g>
<!-- Node7 -->
<g id="node7" class="node">
<title>Node7</title>
<g id="a_node7"><a xlink:href="classtklb_1_1_audio_buffer_tpl.html#ab6e5250746ca3784a568591a3ffdbc12" target="_top" xlink:title="Set a single channel from an array.">
<polygon fill="none" stroke="black" points="420.5,-99 420.5,-118 555.5,-118 555.5,-99 420.5,-99"/>
<text text-anchor="middle" x="488" y="-106" font-family="Helvetica,sans-Serif" font-size="10.00">tklb::AudioBufferTpl::set</text>
</a>
</g>
</g>
<!-- Node2&#45;&gt;Node7 -->
<g id="edge6" class="edge">
<title>Node2&#45;&gt;Node7</title>
<path fill="none" stroke="midnightblue" d="M333.14,-142.95C362.88,-136.29 402.76,-127.36 434.46,-120.26"/>
<polygon fill="midnightblue" stroke="midnightblue" points="435.45,-123.63 444.45,-118.03 433.92,-116.8 435.45,-123.63"/>
</g>
<!-- Node12 -->
<g id="node12" class="node">
<title>Node12</title>
<g id="a_node12"><a xlink:href="classtklb_1_1_audio_buffer_tpl.html#ab4e27a0d2eca612dcfc2a6a1c8678428" target="_top" xlink:title="Set the amount of valid samples currently in the buffer This is mostly a convenience flag since the a...">
<polygon fill="none" stroke="black" points="431,-49.5 431,-79.5 545,-79.5 545,-49.5 431,-49.5"/>
<text text-anchor="start" x="439" y="-67.5" font-family="Helvetica,sans-Serif" font-size="10.00">tklb::AudioBufferTpl</text>
<text text-anchor="middle" x="488" y="-56.5" font-family="Helvetica,sans-Serif" font-size="10.00">::setValidSize</text>
</a>
</g>
</g>
<!-- Node2&#45;&gt;Node12 -->
<g id="edge11" class="edge">
<title>Node2&#45;&gt;Node12</title>
<path fill="none" stroke="midnightblue" d="M307,-142.88C330.01,-129.73 373.26,-105.88 412,-89.5 417.34,-87.24 422.97,-85.04 428.64,-82.95"/>
<polygon fill="midnightblue" stroke="midnightblue" points="429.94,-86.21 438.17,-79.54 427.58,-79.62 429.94,-86.21"/>
</g>
<!-- Node13 -->
<g id="node13" class="node">
<title>Node13</title>
<g id="a_node13"><a xlink:href="classtklb_1_1_audio_buffer_tpl.html#a86cec40e8c99a90d93db996d92ddfece" target="_top" xlink:title="Returns the length of actually valid audio in the buffer.">
<polygon fill="none" stroke="black" points="431,-0.5 431,-30.5 545,-30.5 545,-0.5 431,-0.5"/>
<text text-anchor="start" x="439" y="-18.5" font-family="Helvetica,sans-Serif" font-size="10.00">tklb::AudioBufferTpl</text>
<text text-anchor="middle" x="488" y="-7.5" font-family="Helvetica,sans-Serif" font-size="10.00">::validSize</text>
</a>
</g>
</g>
<!-- Node2&#45;&gt;Node13 -->
<g id="edge14" class="edge">
<title>Node2&#45;&gt;Node13</title>
<path fill="none" stroke="midnightblue" d="M298.26,-142.82C316.09,-121.2 362.27,-68.6 412,-39.5 415.04,-37.72 418.23,-36.05 421.51,-34.5"/>
<polygon fill="midnightblue" stroke="midnightblue" points="423.15,-37.6 430.93,-30.4 420.36,-31.18 423.15,-37.6"/>
</g>
<!-- Node8 -->
<g id="node8" class="node">
<title>Node8</title>
<g id="a_node8"><a xlink:href="namespacetklb_1_1memory.html#ab89ec197028f903f4ea125eae46c4a10" target="_top" xlink:title="memcpy wrapper">
<polygon fill="none" stroke="black" points="612,-156 612,-175 724,-175 724,-156 612,-156"/>
<text text-anchor="middle" x="668" y="-163" font-family="Helvetica,sans-Serif" font-size="10.00">tklb::memory::copy</text>
</a>
</g>
</g>
<!-- Node7&#45;&gt;Node8 -->
<g id="edge7" class="edge">
<title>Node7&#45;&gt;Node8</title>
<path fill="none" stroke="midnightblue" d="M530.74,-118.02C541.7,-120.96 553.41,-124.49 564,-128.5 580.73,-134.84 583.32,-140.03 600,-146.5 605.99,-148.82 612.38,-151 618.75,-152.99"/>
<polygon fill="midnightblue" stroke="midnightblue" points="618.09,-156.45 628.68,-155.97 620.1,-149.75 618.09,-156.45"/>
</g>
<!-- Node9 -->
<g id="node9" class="node">
<title>Node9</title>
<g id="a_node9"><a xlink:href="classtklb_1_1_audio_buffer_tpl.html#aee0540e90ae2790f9a809917bc5a04fd" target="_top" xlink:title=" ">
<polygon fill="none" stroke="black" points="600,-118 600,-137 736,-137 736,-118 600,-118"/>
<text text-anchor="middle" x="668" y="-125" font-family="Helvetica,sans-Serif" font-size="10.00">tklb::AudioBufferTpl::get</text>
</a>
</g>
</g>
<!-- Node7&#45;&gt;Node9 -->
<g id="edge8" class="edge">
<title>Node7&#45;&gt;Node9</title>
<path fill="none" stroke="midnightblue" d="M555.53,-115.6C566.76,-116.8 578.5,-118.05 589.97,-119.28"/>
<polygon fill="midnightblue" stroke="midnightblue" points="589.64,-122.76 599.95,-120.34 590.38,-115.8 589.64,-122.76"/>
</g>
<!-- Node10 -->
<g id="node10" class="node">
<title>Node10</title>
<g id="a_node10"><a xlink:href="namespacetklb.html#a3080595da18d742645ec41d61828a426" target="_top" xlink:title=" ">
<polygon fill="none" stroke="black" points="638,-80 638,-99 698,-99 698,-80 638,-80"/>
<text text-anchor="middle" x="668" y="-87" font-family="Helvetica,sans-Serif" font-size="10.00">tklb::min</text>
</a>
</g>
</g>
<!-- Node7&#45;&gt;Node10 -->
<g id="edge9" class="edge">
<title>Node7&#45;&gt;Node10</title>
<path fill="none" stroke="midnightblue" d="M555.53,-101.4C579.86,-98.8 606.59,-95.95 627.77,-93.69"/>
<polygon fill="midnightblue" stroke="midnightblue" points="628.42,-97.14 637.99,-92.6 627.68,-90.18 628.42,-97.14"/>
</g>
<!-- Node11 -->
<g id="node11" class="node">
<title>Node11</title>
<g id="a_node11"><a xlink:href="classtklb_1_1_audio_buffer_tpl.html#af6df8d7e6840eee3f84807bd1662c3ed" target="_top" xlink:title="Returns the allocated length of the buffer.">
<polygon fill="none" stroke="black" points="611,-30.5 611,-60.5 725,-60.5 725,-30.5 611,-30.5"/>
<text text-anchor="start" x="619" y="-48.5" font-family="Helvetica,sans-Serif" font-size="10.00">tklb::AudioBufferTpl</text>
<text text-anchor="middle" x="668" y="-37.5" font-family="Helvetica,sans-Serif" font-size="10.00">::size</text>
</a>
</g>
</g>
<!-- Node7&#45;&gt;Node11 -->
<g id="edge10" class="edge">
<title>Node7&#45;&gt;Node11</title>
<path fill="none" stroke="midnightblue" d="M530.74,-98.98C541.7,-96.04 553.41,-92.51 564,-88.5 580.73,-82.16 583.6,-77.64 600,-70.5 604.79,-68.42 609.81,-66.34 614.86,-64.33"/>
<polygon fill="midnightblue" stroke="midnightblue" points="616.5,-67.45 624.55,-60.56 613.96,-60.93 616.5,-67.45"/>
</g>
<!-- Node12&#45;&gt;Node10 -->
<g id="edge12" class="edge">
<title>Node12&#45;&gt;Node10</title>
<path fill="none" stroke="midnightblue" d="M545.32,-72.41C572.11,-76.17 603.5,-80.58 627.68,-83.98"/>
<polygon fill="midnightblue" stroke="midnightblue" points="627.52,-87.49 637.91,-85.41 628.49,-80.56 627.52,-87.49"/>
</g>
<!-- Node12&#45;&gt;Node11 -->
<g id="edge13" class="edge">
<title>Node12&#45;&gt;Node11</title>
<path fill="none" stroke="midnightblue" d="M545.32,-58.49C562.94,-56.61 582.54,-54.52 600.77,-52.57"/>
<polygon fill="midnightblue" stroke="midnightblue" points="601.17,-56.05 610.74,-51.51 600.43,-49.09 601.17,-56.05"/>
</g>
</g>
</svg>
        <g id="navigator" transform="translate(0 0)" fill="#404254">
                <rect fill="#f2f5e9" fill-opacity="0.5" stroke="#606060" stroke-width=".5" x="0" y="0" width="60" height="60"/>
                <use id="zoomplus" xlink:href="#zoomPlus" x="17" y="9" onmousedown="handleZoom(evt,'in')"/>
                <use id="zoomminus" xlink:href="#zoomMin" x="42" y="9" onmousedown="handleZoom(evt,'out')"/>
                <use id="reset" xlink:href="#resetDef" x="30" y="36" onmousedown="handleReset()"/>
                <g id="arrowUp" xlink:href="#dirArrow" transform="translate(30 24)" onmousedown="handlePan(0,-1)">
                  <use xlink:href="#rim" fill="#404040">
                        <set attributeName="fill" to="#808080" begin="arrowUp.mouseover" end="arrowUp.mouseout"/>
                  </use>
                  <path fill="none" stroke="white" stroke-width="1.5" d="M0,-3.0v7 M-2.5,-0.5L0,-3.0L2.5,-0.5"/>
                </g>
                <g id="arrowRight" xlink:href="#dirArrow" transform="rotate(90) translate(36 -43)" onmousedown="handlePan(1,0)">
                  <use xlink:href="#rim" fill="#404040">
                        <set attributeName="fill" to="#808080" begin="arrowRight.mouseover" end="arrowRight.mouseout"/>
                  </use>
                  <path fill="none" stroke="white" stroke-width="1.5" d="M0,-3.0v7 M-2.5,-0.5L0,-3.0L2.5,-0.5"/>
                </g>
                <g id="arrowDown" xlink:href="#dirArrow" transform="rotate(180) translate(-30 -48)" onmousedown="handlePan(0,1)">
                  <use xlink:href="#rim" fill="#404040">
                        <set attributeName="fill" to="#808080" begin="arrowDown.mouseover" end="arrowDown.mouseout"/>
                  </use>
                  <path fill="none" stroke="white" stroke-width="1.5" d="M0,-3.0v7 M-2.5,-0.5L0,-3.0L2.5,-0.5"/>
                </g>
                <g id="arrowLeft" xlink:href="#dirArrow" transform="rotate(270) translate(-36 17)" onmousedown="handlePan(-1,0)">
                  <use xlink:href="#rim" fill="#404040">
                        <set attributeName="fill" to="#808080" begin="arrowLeft.mouseover" end="arrowLeft.mouseout"/>
                  </use>
                  <path fill="none" stroke="white" stroke-width="1.5" d="M0,-3.0v7 M-2.5,-0.5L0,-3.0L2.5,-0.5"/>
                </g>
        </g>
        <svg viewBox="0 0 15 15" width="100%" height="30px" preserveAspectRatio="xMaxYMin meet">
         <g id="arrow_out" transform="scale(0.3 0.3)">
          <a xlink:href="classvae_1_1core_1_1_mixer_processor_a02213548c3287ac1db82ae7b3b348e5c_cgraph_org.svg" target="_base">
           <rect id="button" ry="5" rx="5" y="6" x="6" height="38" width="38"
                fill="#f2f5e9" fill-opacity="0.5" stroke="#606060" stroke-width="1.0"/>
           <path id="arrow"
             d="M 11.500037,31.436501 C 11.940474,20.09759 22.043105,11.32322 32.158766,21.979434 L 37.068811,17.246167 C 37.068811,17.246167 37.088388,32 37.088388,32 L 22.160133,31.978069 C 22.160133,31.978069 26.997745,27.140456 26.997745,27.140456 C 18.528582,18.264221 13.291696,25.230495 11.500037,31.436501 z"
             style="fill:#404040;"/>
          </a>
         </g>
        </svg>
</svg>
