<?xml version="1.0" encoding="UTF-8" standalone="no"?>
<!DOCTYPE svg PUBLIC "-//W3C//DTD SVG 1.1//EN"
 "http://www.w3.org/Graphics/SVG/1.1/DTD/svg11.dtd">
<!-- Generated by graphviz version 2.50.0 (0)
 -->
<!-- Title: vae::core::BackendRtAudio::getDevice Pages: 1 -->
<svg width="340pt" height="78pt"
 viewBox="0.00 0.00 340.00 77.50" xmlns="http://www.w3.org/2000/svg" xmlns:xlink="http://www.w3.org/1999/xlink">
<g id="graph0" class="graph" transform="scale(1 1) rotate(0) translate(4 73.5)">
<title>vae::core::BackendRtAudio::getDevice</title>
<!-- Node1 -->
<g id="node1" class="node">
<title>Node1</title>
<g id="a_node1"><a xlink:title="Returns a spefic device info for index.">
<polygon fill="#bfbfbf" stroke="black" points="0,-17 0,-47 148,-47 148,-17 0,-17"/>
<text text-anchor="start" x="8" y="-35" font-family="Helvetica,sans-Serif" font-size="10.00">vae::core::BackendRtAudio</text>
<text text-anchor="middle" x="74" y="-24" font-family="Helvetica,sans-Serif" font-size="10.00">::getDevice</text>
</a>
</g>
</g>
<!-- Node2 -->
<g id="node2" class="node">
<title>Node2</title>
<g id="a_node2"><a xlink:href="classvae_1_1core_1_1_backend_rt_audio.html#a454542f475bb75133bce70863c633fc3" target="_top" xlink:title="Returns name of the api.">
<polygon fill="none" stroke="black" points="184,-39 184,-69 332,-69 332,-39 184,-39"/>
<text text-anchor="start" x="192" y="-57" font-family="Helvetica,sans-Serif" font-size="10.00">vae::core::BackendRtAudio</text>
<text text-anchor="middle" x="258" y="-46" font-family="Helvetica,sans-Serif" font-size="10.00">::getName</text>
</a>
</g>
</g>
<!-- Node1&#45;&gt;Node2 -->
<g id="edge1" class="edge">
<title>Node1&#45;&gt;Node2</title>
<path fill="none" stroke="midnightblue" d="M148.24,-40.85C156.69,-41.87 165.35,-42.92 173.92,-43.96"/>
<polygon fill="midnightblue" stroke="midnightblue" points="173.56,-47.44 183.91,-45.16 174.4,-40.49 173.56,-47.44"/>
</g>
<!-- Node3 -->
<g id="node3" class="node">
<title>Node3</title>
<g id="a_node3"><a xlink:href="namespacetklb_1_1memory.html#a03c76a0f946284624b0bf7dc37ee311a" target="_top" xlink:title=" ">
<polygon fill="none" stroke="black" points="187.5,-0.5 187.5,-19.5 328.5,-19.5 328.5,-0.5 187.5,-0.5"/>
<text text-anchor="middle" x="258" y="-7.5" font-family="Helvetica,sans-Serif" font-size="10.00">tklb::memory::stringCopy</text>
</a>
</g>
</g>
<!-- Node1&#45;&gt;Node3 -->
<g id="edge2" class="edge">
<title>Node1&#45;&gt;Node3</title>
<path fill="none" stroke="midnightblue" d="M148.24,-23.15C157.84,-21.99 167.72,-20.79 177.42,-19.62"/>
<polygon fill="midnightblue" stroke="midnightblue" points="177.94,-23.08 187.45,-18.41 177.1,-16.13 177.94,-23.08"/>
</g>
</g>
</svg>
