<?xml version="1.0" encoding="UTF-8" standalone="no"?>
<!DOCTYPE svg PUBLIC "-//W3C//DTD SVG 1.1//EN"
 "http://www.w3.org/Graphics/SVG/1.1/DTD/svg11.dtd">
<!-- Generated by graphviz version 2.50.0 (0)
 -->
<!-- Title: vae::core::effect::VAEReverb::instanceClear Pages: 1 -->
<svg width="459pt" height="39pt"
 viewBox="0.00 0.00 459.00 39.00" xmlns="http://www.w3.org/2000/svg" xmlns:xlink="http://www.w3.org/1999/xlink">
<g id="graph0" class="graph" transform="scale(1 1) rotate(0) translate(4 35)">
<title>vae::core::effect::VAEReverb::instanceClear</title>
<!-- Node1 -->
<g id="node1" class="node">
<title>Node1</title>
<g id="a_node1"><a xlink:title="Reset dsp state delay lines and so on.">
<polygon fill="#bfbfbf" stroke="black" points="308,-0.5 308,-30.5 451,-30.5 451,-0.5 308,-0.5"/>
<text text-anchor="start" x="316" y="-18.5" font-family="Helvetica,sans-Serif" font-size="10.00">vae::core::effect::</text>
<text text-anchor="middle" x="379.5" y="-7.5" font-family="Helvetica,sans-Serif" font-size="10.00">VAEReverb::instanceClear</text>
</a>
</g>
</g>
<!-- Node2 -->
<g id="node2" class="node">
<title>Node2</title>
<g id="a_node2"><a xlink:href="classvae_1_1core_1_1effect_1_1_v_a_e_reverb.html#a7587eee0cdff91d848bb8a6037dfcaaf" target="_top" xlink:title=" ">
<polygon fill="none" stroke="black" points="138,-0.5 138,-30.5 272,-30.5 272,-0.5 138,-0.5"/>
<text text-anchor="start" x="146" y="-18.5" font-family="Helvetica,sans-Serif" font-size="10.00">vae::core::effect::</text>
<text text-anchor="middle" x="205" y="-7.5" font-family="Helvetica,sans-Serif" font-size="10.00">VAEReverb::instanceInit</text>
</a>
</g>
</g>
<!-- Node1&#45;&gt;Node2 -->
<g id="edge1" class="edge">
<title>Node1&#45;&gt;Node2</title>
<path fill="none" stroke="midnightblue" d="M297.79,-15.5C289.19,-15.5 280.51,-15.5 272.11,-15.5"/>
<polygon fill="midnightblue" stroke="midnightblue" points="297.84,-19 307.84,-15.5 297.84,-12 297.84,-19"/>
</g>
<!-- Node3 -->
<g id="node3" class="node">
<title>Node3</title>
<g id="a_node3"><a xlink:href="classvae_1_1core_1_1effect_1_1_v_a_e_reverb.html#aba24bf1a4b7c32dec24037c0c9623a02" target="_top" xlink:title="Init dsp and clear state.">
<polygon fill="none" stroke="black" points="0,-0.5 0,-30.5 102,-30.5 102,-0.5 0,-0.5"/>
<text text-anchor="start" x="8" y="-18.5" font-family="Helvetica,sans-Serif" font-size="10.00">vae::core::effect::</text>
<text text-anchor="middle" x="51" y="-7.5" font-family="Helvetica,sans-Serif" font-size="10.00">VAEReverb::init</text>
</a>
</g>
</g>
<!-- Node2&#45;&gt;Node3 -->
<g id="edge2" class="edge">
<title>Node2&#45;&gt;Node3</title>
<path fill="none" stroke="midnightblue" d="M127.6,-15.5C118.91,-15.5 110.22,-15.5 102,-15.5"/>
<polygon fill="midnightblue" stroke="midnightblue" points="127.77,-19 137.77,-15.5 127.77,-12 127.77,-19"/>
</g>
</g>
</svg>
