<?xml version="1.0" encoding="UTF-8" standalone="no"?>
<!DOCTYPE svg PUBLIC "-//W3C//DTD SVG 1.1//EN"
 "http://www.w3.org/Graphics/SVG/1.1/DTD/svg11.dtd">
<!-- Generated by graphviz version 2.50.0 (0)
 -->
<!-- Title: tklb::String::prepend Pages: 1 -->
<svg width="407pt" height="28pt"
 viewBox="0.00 0.00 407.00 28.00" xmlns="http://www.w3.org/2000/svg" xmlns:xlink="http://www.w3.org/1999/xlink">
<g id="graph0" class="graph" transform="scale(1 1) rotate(0) translate(4 24)">
<title>tklb::String::prepend</title>
<!-- Node1 -->
<g id="node1" class="node">
<title>Node1</title>
<g id="a_node1"><a xlink:title=" ">
<polygon fill="#bfbfbf" stroke="black" points="0,-0.5 0,-19.5 116,-19.5 116,-0.5 0,-0.5"/>
<text text-anchor="middle" x="58" y="-7.5" font-family="Helvetica,sans-Serif" font-size="10.00">tklb::String::prepend</text>
</a>
</g>
</g>
<!-- Node2 -->
<g id="node2" class="node">
<title>Node2</title>
<g id="a_node2"><a xlink:href="classtklb_1_1_string.html#a7c6a9f4751e09a391ca3b71ee1eb96b6" target="_top" xlink:title=" ">
<polygon fill="none" stroke="black" points="152,-0.5 152,-19.5 268,-19.5 268,-0.5 152,-0.5"/>
<text text-anchor="middle" x="210" y="-7.5" font-family="Helvetica,sans-Serif" font-size="10.00">tklb::String::prepend</text>
</a>
</g>
</g>
<!-- Node1&#45;&gt;Node2 -->
<g id="edge1" class="edge">
<title>Node1&#45;&gt;Node2</title>
<path fill="none" stroke="midnightblue" d="M116.14,-10C124.38,-10 132.92,-10 141.34,-10"/>
<polygon fill="midnightblue" stroke="midnightblue" points="141.53,-13.5 151.53,-10 141.53,-6.5 141.53,-13.5"/>
</g>
<!-- Node3 -->
<g id="node3" class="node">
<title>Node3</title>
<g id="a_node3"><a xlink:href="classtklb_1_1_string.html#a2fd6f1c6342e803119507c94cd3c6b76" target="_top" xlink:title=" ">
<polygon fill="none" stroke="black" points="304,-0.5 304,-19.5 399,-19.5 399,-0.5 304,-0.5"/>
<text text-anchor="middle" x="351.5" y="-7.5" font-family="Helvetica,sans-Serif" font-size="10.00">tklb::String::size</text>
</a>
</g>
</g>
<!-- Node2&#45;&gt;Node3 -->
<g id="edge2" class="edge">
<title>Node2&#45;&gt;Node3</title>
<path fill="none" stroke="midnightblue" d="M268.14,-10C276.59,-10 285.3,-10 293.75,-10"/>
<polygon fill="midnightblue" stroke="midnightblue" points="293.88,-13.5 303.88,-10 293.88,-6.5 293.88,-13.5"/>
</g>
</g>
</svg>
