<?xml version="1.0" encoding="UTF-8" standalone="no"?>
<!DOCTYPE svg PUBLIC "-//W3C//DTD SVG 1.1//EN"
 "http://www.w3.org/Graphics/SVG/1.1/DTD/svg11.dtd">
<!-- Generated by graphviz version 2.50.0 (0)
 -->
<!-- Title: tklb::AudioBufferTpl::AudioBufferTpl Pages: 1 -->
<svg width="422pt" height="127pt"
 viewBox="0.00 0.00 422.00 127.00" xmlns="http://www.w3.org/2000/svg" xmlns:xlink="http://www.w3.org/1999/xlink">
<g id="graph0" class="graph" transform="scale(1 1) rotate(0) translate(4 123)">
<title>tklb::AudioBufferTpl::AudioBufferTpl</title>
<!-- Node1 -->
<g id="node1" class="node">
<title>Node1</title>
<g id="a_node1"><a xlink:title="Buffer with memory allocated.">
<polygon fill="#bfbfbf" stroke="black" points="0,-66.5 0,-96.5 114,-96.5 114,-66.5 0,-66.5"/>
<text text-anchor="start" x="8" y="-84.5" font-family="Helvetica,sans-Serif" font-size="10.00">tklb::AudioBufferTpl</text>
<text text-anchor="middle" x="57" y="-73.5" font-family="Helvetica,sans-Serif" font-size="10.00">::AudioBufferTpl</text>
</a>
</g>
</g>
<!-- Node2 -->
<g id="node2" class="node">
<title>Node2</title>
<g id="a_node2"><a xlink:href="classtklb_1_1_audio_buffer_tpl.html#a9714a6b0b9ee269c551b28f830a02d57" target="_top" xlink:title="Returns the amount of channels.">
<polygon fill="none" stroke="black" points="300,-88.5 300,-118.5 414,-118.5 414,-88.5 300,-88.5"/>
<text text-anchor="start" x="308" y="-106.5" font-family="Helvetica,sans-Serif" font-size="10.00">tklb::AudioBufferTpl</text>
<text text-anchor="middle" x="357" y="-95.5" font-family="Helvetica,sans-Serif" font-size="10.00">::channels</text>
</a>
</g>
</g>
<!-- Node1&#45;&gt;Node2 -->
<g id="edge1" class="edge">
<title>Node1&#45;&gt;Node2</title>
<path fill="none" stroke="midnightblue" d="M114.05,-85.64C163.92,-89.32 236.92,-94.71 289.68,-98.6"/>
<polygon fill="midnightblue" stroke="midnightblue" points="289.72,-102.12 299.95,-99.36 290.23,-95.14 289.72,-102.12"/>
</g>
<!-- Node3 -->
<g id="node3" class="node">
<title>Node3</title>
<g id="a_node3"><a xlink:href="classtklb_1_1_audio_buffer_tpl.html#addb80823bf792039ad009baeed0a7dcb" target="_top" xlink:title="Resizes the buffer to the desired length and channel count.">
<polygon fill="none" stroke="black" points="150,-44.5 150,-74.5 264,-74.5 264,-44.5 150,-44.5"/>
<text text-anchor="start" x="158" y="-62.5" font-family="Helvetica,sans-Serif" font-size="10.00">tklb::AudioBufferTpl</text>
<text text-anchor="middle" x="207" y="-51.5" font-family="Helvetica,sans-Serif" font-size="10.00">::resize</text>
</a>
</g>
</g>
<!-- Node1&#45;&gt;Node3 -->
<g id="edge2" class="edge">
<title>Node1&#45;&gt;Node3</title>
<path fill="none" stroke="midnightblue" d="M114.37,-73.12C122.71,-71.88 131.37,-70.59 139.88,-69.33"/>
<polygon fill="midnightblue" stroke="midnightblue" points="140.41,-72.79 149.78,-67.86 139.38,-65.87 140.41,-72.79"/>
</g>
<!-- Node3&#45;&gt;Node2 -->
<g id="edge3" class="edge">
<title>Node3&#45;&gt;Node2</title>
<path fill="none" stroke="midnightblue" d="M258.52,-74.52C270.48,-78.07 283.35,-81.9 295.7,-85.57"/>
<polygon fill="midnightblue" stroke="midnightblue" points="294.87,-88.98 305.46,-88.47 296.87,-82.27 294.87,-88.98"/>
</g>
<!-- Node4 -->
<g id="node4" class="node">
<title>Node4</title>
<g id="a_node4"><a xlink:href="namespacetklb.html#a3080595da18d742645ec41d61828a426" target="_top" xlink:title=" ">
<polygon fill="none" stroke="black" points="327,-50 327,-69 387,-69 387,-50 327,-50"/>
<text text-anchor="middle" x="357" y="-57" font-family="Helvetica,sans-Serif" font-size="10.00">tklb::min</text>
</a>
</g>
</g>
<!-- Node3&#45;&gt;Node4 -->
<g id="edge4" class="edge">
<title>Node3&#45;&gt;Node4</title>
<path fill="none" stroke="midnightblue" d="M264.37,-59.5C281.8,-59.5 300.6,-59.5 316.62,-59.5"/>
<polygon fill="midnightblue" stroke="midnightblue" points="316.7,-63 326.7,-59.5 316.7,-56 316.7,-63"/>
</g>
<!-- Node5 -->
<g id="node5" class="node">
<title>Node5</title>
<g id="a_node5"><a xlink:href="classtklb_1_1_audio_buffer_tpl.html#acbe041a482f37ed4a02b99b239e53f80" target="_top" xlink:title="Returns the allocated length of the buffer.">
<polygon fill="none" stroke="black" points="300,-0.5 300,-30.5 414,-30.5 414,-0.5 300,-0.5"/>
<text text-anchor="start" x="308" y="-18.5" font-family="Helvetica,sans-Serif" font-size="10.00">tklb::AudioBufferTpl</text>
<text text-anchor="middle" x="357" y="-7.5" font-family="Helvetica,sans-Serif" font-size="10.00">::size</text>
</a>
</g>
</g>
<!-- Node3&#45;&gt;Node5 -->
<g id="edge5" class="edge">
<title>Node3&#45;&gt;Node5</title>
<path fill="none" stroke="midnightblue" d="M258.52,-44.48C270.48,-40.93 283.35,-37.1 295.7,-33.43"/>
<polygon fill="midnightblue" stroke="midnightblue" points="296.87,-36.73 305.46,-30.53 294.87,-30.02 296.87,-36.73"/>
</g>
</g>
</svg>
