<?xml version="1.0" encoding="UTF-8" standalone="no"?>
<!DOCTYPE svg PUBLIC "-//W3C//DTD SVG 1.1//EN"
 "http://www.w3.org/Graphics/SVG/1.1/DTD/svg11.dtd">
<!-- Generated by graphviz version 2.50.0 (0)
 -->
<!-- Title: vae::core::Engine::createListener Pages: 1 -->
<svg width="289pt" height="78pt"
 viewBox="0.00 0.00 289.00 77.50" xmlns="http://www.w3.org/2000/svg" xmlns:xlink="http://www.w3.org/1999/xlink">
<g id="graph0" class="graph" transform="scale(1 1) rotate(0) translate(4 73.5)">
<title>vae::core::Engine::createListener</title>
<!-- Node1 -->
<g id="node1" class="node">
<title>Node1</title>
<g id="a_node1"><a xlink:title="Create a Listener object.">
<polygon fill="#bfbfbf" stroke="black" points="174,-17 174,-47 281,-47 281,-17 174,-17"/>
<text text-anchor="start" x="182" y="-35" font-family="Helvetica,sans-Serif" font-size="10.00">vae::core::Engine::</text>
<text text-anchor="middle" x="227.5" y="-24" font-family="Helvetica,sans-Serif" font-size="10.00">createListener</text>
</a>
</g>
</g>
<!-- Node2 -->
<g id="node2" class="node">
<title>Node2</title>
<g id="a_node2"><a xlink:href="classvae_1_1_engine_pimpl.html#a4223d53843838573d2a7a6ff4128407c" target="_top" xlink:title="Create a Listener object.">
<polygon fill="none" stroke="black" points="0,-39 0,-69 138,-69 138,-39 0,-39"/>
<text text-anchor="start" x="8" y="-57" font-family="Helvetica,sans-Serif" font-size="10.00">vae::EnginePimpl::create</text>
<text text-anchor="middle" x="69" y="-46" font-family="Helvetica,sans-Serif" font-size="10.00">Listener</text>
</a>
</g>
</g>
<!-- Node1&#45;&gt;Node2 -->
<g id="edge1" class="edge">
<title>Node1&#45;&gt;Node2</title>
<path fill="none" stroke="midnightblue" d="M163.84,-40.81C155.42,-41.99 146.76,-43.21 138.25,-44.41"/>
<polygon fill="midnightblue" stroke="midnightblue" points="164.54,-44.24 173.95,-39.39 163.56,-37.31 164.54,-44.24"/>
</g>
<!-- Node3 -->
<g id="node3" class="node">
<title>Node3</title>
<g id="a_node3"><a xlink:href="main_8cpp.html#ae66f6b31b5ad750f1fe042a706a4e3d4" target="_top" xlink:title=" ">
<polygon fill="none" stroke="black" points="48.5,-0.5 48.5,-19.5 89.5,-19.5 89.5,-0.5 48.5,-0.5"/>
<text text-anchor="middle" x="69" y="-7.5" font-family="Helvetica,sans-Serif" font-size="10.00">main</text>
</a>
</g>
</g>
<!-- Node1&#45;&gt;Node3 -->
<g id="edge2" class="edge">
<title>Node1&#45;&gt;Node3</title>
<path fill="none" stroke="midnightblue" d="M163.94,-23.21C137.42,-19.48 108.39,-15.4 89.73,-12.77"/>
<polygon fill="midnightblue" stroke="midnightblue" points="163.56,-26.69 173.95,-24.61 164.54,-19.76 163.56,-26.69"/>
</g>
</g>
</svg>
