<?xml version="1.0" encoding="UTF-8" standalone="no"?>
<!DOCTYPE svg PUBLIC "-//W3C//DTD SVG 1.1//EN"
 "http://www.w3.org/Graphics/SVG/1.1/DTD/svg11.dtd">
<!-- Generated by graphviz version 2.50.0 (0)
 -->
<!-- Title: vae::core::Engine::~Engine Pages: 1 -->
<svg width="619pt" height="78pt"
 viewBox="0.00 0.00 619.00 77.50" xmlns="http://www.w3.org/2000/svg" xmlns:xlink="http://www.w3.org/1999/xlink">
<g id="graph0" class="graph" transform="scale(1 1) rotate(0) translate(4 73.5)">
<title>vae::core::Engine::~Engine</title>
<!-- Node1 -->
<g id="node1" class="node">
<title>Node1</title>
<g id="a_node1"><a xlink:title=" ">
<polygon fill="#bfbfbf" stroke="black" points="0,-22.5 0,-52.5 107,-52.5 107,-22.5 0,-22.5"/>
<text text-anchor="start" x="8" y="-40.5" font-family="Helvetica,sans-Serif" font-size="10.00">vae::core::Engine::</text>
<text text-anchor="middle" x="53.5" y="-29.5" font-family="Helvetica,sans-Serif" font-size="10.00">~Engine</text>
</a>
</g>
</g>
<!-- Node2 -->
<g id="node2" class="node">
<title>Node2</title>
<g id="a_node2"><a xlink:href="classvae_1_1core_1_1_engine.html#a92b20a72012c37bb553a9e064fbf3882" target="_top" xlink:title="Stops processing and waits for audio thead to clean up.">
<polygon fill="none" stroke="black" points="143,-50 143,-69 271,-69 271,-50 143,-50"/>
<text text-anchor="middle" x="207" y="-57" font-family="Helvetica,sans-Serif" font-size="10.00">vae::core::Engine::stop</text>
</a>
</g>
</g>
<!-- Node1&#45;&gt;Node2 -->
<g id="edge1" class="edge">
<title>Node1&#45;&gt;Node2</title>
<path fill="none" stroke="midnightblue" d="M107.06,-45.13C115.35,-46.34 124.06,-47.6 132.72,-48.86"/>
<polygon fill="midnightblue" stroke="midnightblue" points="132.44,-52.35 142.84,-50.33 133.44,-45.43 132.44,-52.35"/>
</g>
<!-- Node3 -->
<g id="node3" class="node">
<title>Node3</title>
<g id="a_node3"><a xlink:href="classvae_1_1core_1_1_engine.html#abcdc61b36efe41a370e51395af9f87cc" target="_top" xlink:title="Unload every bank and data associated with it.">
<polygon fill="none" stroke="black" points="153.5,-0.5 153.5,-30.5 260.5,-30.5 260.5,-0.5 153.5,-0.5"/>
<text text-anchor="start" x="161.5" y="-18.5" font-family="Helvetica,sans-Serif" font-size="10.00">vae::core::Engine::</text>
<text text-anchor="middle" x="207" y="-7.5" font-family="Helvetica,sans-Serif" font-size="10.00">unloadAllBanks</text>
</a>
</g>
</g>
<!-- Node1&#45;&gt;Node3 -->
<g id="edge2" class="edge">
<title>Node1&#45;&gt;Node3</title>
<path fill="none" stroke="midnightblue" d="M107.06,-29.87C118.75,-28.17 131.25,-26.36 143.29,-24.61"/>
<polygon fill="midnightblue" stroke="midnightblue" points="143.88,-28.06 153.27,-23.16 142.88,-21.13 143.88,-28.06"/>
</g>
<!-- Node4 -->
<g id="node4" class="node">
<title>Node4</title>
<g id="a_node4"><a xlink:href="classvae_1_1core_1_1_bank_manager.html#a91f354af078e406fa5f3c16f352cbb45" target="_top" xlink:title=" ">
<polygon fill="none" stroke="black" points="307,-0.5 307,-30.5 441,-30.5 441,-0.5 307,-0.5"/>
<text text-anchor="start" x="315" y="-18.5" font-family="Helvetica,sans-Serif" font-size="10.00">vae::core::BankManager</text>
<text text-anchor="middle" x="374" y="-7.5" font-family="Helvetica,sans-Serif" font-size="10.00">::unloadAll</text>
</a>
</g>
</g>
<!-- Node3&#45;&gt;Node4 -->
<g id="edge3" class="edge">
<title>Node3&#45;&gt;Node4</title>
<path fill="none" stroke="midnightblue" d="M260.66,-15.5C272.16,-15.5 284.54,-15.5 296.75,-15.5"/>
<polygon fill="midnightblue" stroke="midnightblue" points="296.93,-19 306.93,-15.5 296.93,-12 296.93,-19"/>
</g>
<!-- Node5 -->
<g id="node5" class="node">
<title>Node5</title>
<g id="a_node5"><a xlink:href="classvae_1_1core_1_1_bank_manager.html#a27efc3726af9c215c150197e2eb43c71" target="_top" xlink:title=" ">
<polygon fill="none" stroke="black" points="477,-0.5 477,-30.5 611,-30.5 611,-0.5 477,-0.5"/>
<text text-anchor="start" x="485" y="-18.5" font-family="Helvetica,sans-Serif" font-size="10.00">vae::core::BankManager</text>
<text text-anchor="middle" x="544" y="-7.5" font-family="Helvetica,sans-Serif" font-size="10.00">::unloadFromId</text>
</a>
</g>
</g>
<!-- Node4&#45;&gt;Node5 -->
<g id="edge4" class="edge">
<title>Node4&#45;&gt;Node5</title>
<path fill="none" stroke="midnightblue" d="M441.4,-15.5C449.68,-15.5 458.2,-15.5 466.62,-15.5"/>
<polygon fill="midnightblue" stroke="midnightblue" points="466.81,-19 476.81,-15.5 466.81,-12 466.81,-19"/>
</g>
</g>
</svg>
