<?xml version="1.0" encoding="UTF-8" standalone="no"?>
<!DOCTYPE svg PUBLIC "-//W3C//DTD SVG 1.1//EN"
 "http://www.w3.org/Graphics/SVG/1.1/DTD/svg11.dtd">
<!-- Generated by graphviz version 2.50.0 (0)
 -->
<!-- Title: tklb::String::size Pages: 1 -->
<!--zoomable 394 -->
<svg id="main" version="1.1" xmlns="http://www.w3.org/2000/svg" xmlns:xlink="http://www.w3.org/1999/xlink" xml:space="preserve" onload="init(evt)">
<style type="text/css"><![CDATA[
.edge:hover path { stroke: red; }
.edge:hover polygon { stroke: red; fill: red; }
]]></style>
<script type="text/javascript"><![CDATA[
var edges = document.getElementsByTagName('g');
if (edges && edges.length) {
  for (var i=0;i<edges.length;i++) {
    if (edges[i].id.substr(0,4)=='edge') {
      edges[i].setAttribute('class','edge');
    }
  }
}
]]></script>
        <defs>
                <circle id="rim" cx="0" cy="0" r="7"/>
                <circle id="rim2" cx="0" cy="0" r="3.5"/>
                <g id="zoomPlus">
                        <use xlink:href="#rim" fill="#404040">
                                <set attributeName="fill" to="#808080" begin="zoomplus.mouseover" end="zoomplus.mouseout"/>
                        </use>
                        <path d="M-4,0h8M0,-4v8" fill="none" stroke="white" stroke-width="1.5" pointer-events="none"/>
                </g>
                <g id="zoomMin">
                        <use xlink:href="#rim" fill="#404040">
                                <set attributeName="fill" to="#808080" begin="zoomminus.mouseover" end="zoomminus.mouseout"/>
                        </use>
                        <path d="M-4,0h8" fill="none" stroke="white" stroke-width="1.5" pointer-events="none"/>
                </g>
                <g id="dirArrow">
                        <path fill="none" stroke="white" stroke-width="1.5" d="M0,-3.0v7 M-2.5,-0.5L0,-3.0L2.5,-0.5"/>
                </g>
               <g id="resetDef">
                       <use xlink:href="#rim2" fill="#404040">
                               <set attributeName="fill" to="#808080" begin="reset.mouseover" end="reset.mouseout"/>
                       </use>
               </g>
        </defs>

<script type="text/javascript">
var viewWidth = 1159;
var viewHeight = 394;
var sectionId = 'dynsection-22';
</script>
<script xlink:href="svgpan.js"/>
<svg id="graph" class="graph">
<g id="viewport">
<title>tklb::String::size</title>
<!-- Node1 -->
<g id="node1" class="node">
<title>Node1</title>
<g id="a_node1"><a xlink:title=" ">
<polygon fill="#bfbfbf" stroke="black" points="1056,-209.5 1056,-228.5 1151,-228.5 1151,-209.5 1056,-209.5"/>
<text text-anchor="middle" x="1103.5" y="-216.5" font-family="Helvetica,sans-Serif" font-size="10.00">tklb::String::size</text>
</a>
</g>
</g>
<!-- Node2 -->
<g id="node2" class="node">
<title>Node2</title>
<g id="a_node2"><a xlink:href="classtklb_1_1_string.html#a94e674695ef958e3a4d7778c7235856b" target="_top" xlink:title=" ">
<polygon fill="none" stroke="black" points="906,-266.5 906,-285.5 1018,-285.5 1018,-266.5 906,-266.5"/>
<text text-anchor="middle" x="962" y="-273.5" font-family="Helvetica,sans-Serif" font-size="10.00">tklb::String::append</text>
</a>
</g>
</g>
<!-- Node1&#45;&gt;Node2 -->
<g id="edge1" class="edge">
<title>Node1&#45;&gt;Node2</title>
<path fill="none" stroke="midnightblue" d="M1069.85,-232.34C1044.26,-242.8 1009.29,-257.09 986.43,-266.43"/>
<polygon fill="midnightblue" stroke="midnightblue" points="1071.22,-235.56 1079.15,-228.54 1068.57,-229.08 1071.22,-235.56"/>
</g>
<!-- Node4 -->
<g id="node4" class="node">
<title>Node4</title>
<g id="a_node4"><a xlink:href="classvae_1_1core_1_1_bank_loader.html#a2a1f294f67b451b337f65b033dd6f0bd" target="_top" xlink:title="Load a bank.json and all wav files referenced in it.">
<polygon fill="none" stroke="black" points="561,-235 561,-265 686,-265 686,-235 561,-235"/>
<text text-anchor="start" x="569" y="-253" font-family="Helvetica,sans-Serif" font-size="10.00">vae::core::BankLoader</text>
<text text-anchor="middle" x="623.5" y="-242" font-family="Helvetica,sans-Serif" font-size="10.00">::load</text>
</a>
</g>
</g>
<!-- Node1&#45;&gt;Node4 -->
<g id="edge16" class="edge">
<title>Node1&#45;&gt;Node4</title>
<path fill="none" stroke="midnightblue" d="M1089.76,-201.16C1075.29,-182.59 1049.78,-154.62 1020,-143 901.59,-96.77 851.71,-95.04 734,-143 687.97,-161.76 650.76,-210.2 634.04,-234.96"/>
<polygon fill="midnightblue" stroke="midnightblue" points="1087.15,-203.51 1095.95,-209.41 1092.74,-199.31 1087.15,-203.51"/>
</g>
<!-- Node9 -->
<g id="node9" class="node">
<title>Node9</title>
<g id="a_node9"><a xlink:href="classvae_1_1core_1_1_h_r_t_f_loader.html#a38e07107ad81acdbaed1ac6874978534" target="_top" xlink:title=" ">
<polygon fill="none" stroke="black" points="738,-355 738,-385 864,-385 864,-355 738,-355"/>
<text text-anchor="start" x="746" y="-373" font-family="Helvetica,sans-Serif" font-size="10.00">vae::core::HRTFLoader</text>
<text text-anchor="middle" x="801" y="-362" font-family="Helvetica,sans-Serif" font-size="10.00">::load</text>
</a>
</g>
</g>
<!-- Node1&#45;&gt;Node9 -->
<g id="edge17" class="edge">
<title>Node1&#45;&gt;Node9</title>
<path fill="none" stroke="midnightblue" d="M1095.92,-238.34C1085.05,-267 1060.45,-320.05 1020,-345 973.47,-373.7 910.61,-378.08 864.34,-376.38"/>
<polygon fill="midnightblue" stroke="midnightblue" points="1099.31,-239.25 1099.41,-228.66 1092.73,-236.88 1099.31,-239.25"/>
</g>
<!-- Node13 -->
<g id="node13" class="node">
<title>Node13</title>
<g id="a_node13"><a xlink:href="structvae_1_1core_1_1_source_loader.html#a7b5866ab44cf2f34a15f3a62b40fe4f4" target="_top" xlink:title="Loads a wav file for the resource.">
<polygon fill="none" stroke="black" points="734,-191 734,-221 868,-221 868,-191 734,-191"/>
<text text-anchor="start" x="742" y="-209" font-family="Helvetica,sans-Serif" font-size="10.00">vae::core::SourceLoader</text>
<text text-anchor="middle" x="801" y="-198" font-family="Helvetica,sans-Serif" font-size="10.00">::load</text>
</a>
</g>
</g>
<!-- Node1&#45;&gt;Node13 -->
<g id="edge18" class="edge">
<title>Node1&#45;&gt;Node13</title>
<path fill="none" stroke="midnightblue" d="M1045.89,-220.9C1006.15,-221.77 951.77,-222.03 904,-219 892.42,-218.27 880.14,-217.07 868.27,-215.68"/>
<polygon fill="midnightblue" stroke="midnightblue" points="1046.01,-224.4 1055.92,-220.66 1045.84,-217.4 1046.01,-224.4"/>
</g>
<!-- Node14 -->
<g id="node14" class="node">
<title>Node14</title>
<g id="a_node14"><a xlink:href="classtklb_1_1_string.html#a7c6a9f4751e09a391ca3b71ee1eb96b6" target="_top" xlink:title=" ">
<polygon fill="none" stroke="black" points="904,-152.5 904,-171.5 1020,-171.5 1020,-152.5 904,-152.5"/>
<text text-anchor="middle" x="962" y="-159.5" font-family="Helvetica,sans-Serif" font-size="10.00">tklb::String::prepend</text>
</a>
</g>
</g>
<!-- Node1&#45;&gt;Node14 -->
<g id="edge19" class="edge">
<title>Node1&#45;&gt;Node14</title>
<path fill="none" stroke="midnightblue" d="M1074.22,-205.04C1058.44,-197.49 1038.34,-188.25 1020,-181 1011.56,-177.66 1002.28,-174.4 993.69,-171.54"/>
<polygon fill="midnightblue" stroke="midnightblue" points="1072.9,-208.29 1083.42,-209.49 1075.94,-201.98 1072.9,-208.29"/>
</g>
<!-- Node16 -->
<g id="node16" class="node">
<title>Node16</title>
<g id="a_node16"><a xlink:href="classtklb_1_1_string.html#a13d38526ab9032342f2d3ced3e6062a9" target="_top" xlink:title=" ">
<polygon fill="none" stroke="black" points="905.5,-190.5 905.5,-209.5 1018.5,-209.5 1018.5,-190.5 905.5,-190.5"/>
<text text-anchor="middle" x="962" y="-197.5" font-family="Helvetica,sans-Serif" font-size="10.00">tklb::String::reserve</text>
</a>
</g>
</g>
<!-- Node1&#45;&gt;Node16 -->
<g id="edge21" class="edge">
<title>Node1&#45;&gt;Node16</title>
<path fill="none" stroke="midnightblue" d="M1045.73,-211.27C1036.8,-210.05 1027.57,-208.79 1018.66,-207.58"/>
<polygon fill="midnightblue" stroke="midnightblue" points="1045.28,-214.74 1055.66,-212.62 1046.22,-207.8 1045.28,-214.74"/>
</g>
<!-- Node17 -->
<g id="node17" class="node">
<title>Node17</title>
<g id="a_node17"><a xlink:href="classtklb_1_1_string.html#a6106e1733cc6c09b98bd203f8a9a2653" target="_top" xlink:title=" ">
<polygon fill="none" stroke="black" points="909.5,-316.5 909.5,-335.5 1014.5,-335.5 1014.5,-316.5 909.5,-316.5"/>
<text text-anchor="middle" x="962" y="-323.5" font-family="Helvetica,sans-Serif" font-size="10.00">tklb::String::resize</text>
</a>
</g>
</g>
<!-- Node1&#45;&gt;Node17 -->
<g id="edge23" class="edge">
<title>Node1&#45;&gt;Node17</title>
<path fill="none" stroke="midnightblue" d="M1086.52,-235.97C1070.62,-252.3 1045.04,-277.08 1020,-295 1008.55,-303.2 994.69,-310.78 983.51,-316.39"/>
<polygon fill="midnightblue" stroke="midnightblue" points="1089.1,-238.34 1093.51,-228.7 1084.06,-233.49 1089.1,-238.34"/>
</g>
<!-- Node18 -->
<g id="node18" class="node">
<title>Node18</title>
<g id="a_node18"><a xlink:href="classtklb_1_1_string.html#a12a3df526b1df22b6fac627d71f8cfa6" target="_top" xlink:title=" ">
<polygon fill="none" stroke="black" points="916.5,-57.5 916.5,-76.5 1007.5,-76.5 1007.5,-57.5 916.5,-57.5"/>
<text text-anchor="middle" x="962" y="-64.5" font-family="Helvetica,sans-Serif" font-size="10.00">tklb::String::set</text>
</a>
</g>
</g>
<!-- Node1&#45;&gt;Node18 -->
<g id="edge26" class="edge">
<title>Node1&#45;&gt;Node18</title>
<path fill="none" stroke="midnightblue" d="M1090.88,-200.61C1076.04,-177.9 1048.8,-138.76 1020,-110 1007.02,-97.04 989.99,-84.69 977.94,-76.58"/>
<polygon fill="midnightblue" stroke="midnightblue" points="1088.1,-202.75 1096.45,-209.26 1093.98,-198.96 1088.1,-202.75"/>
</g>
<!-- Node3 -->
<g id="node3" class="node">
<title>Node3</title>
<g id="a_node3"><a xlink:href="classtklb_1_1_string.html#a71c2232159173c85dd97a6767c5656aa" target="_top" xlink:title=" ">
<polygon fill="none" stroke="black" points="745,-278.5 745,-297.5 857,-297.5 857,-278.5 745,-278.5"/>
<text text-anchor="middle" x="801" y="-285.5" font-family="Helvetica,sans-Serif" font-size="10.00">tklb::String::append</text>
</a>
</g>
</g>
<!-- Node2&#45;&gt;Node3 -->
<g id="edge2" class="edge">
<title>Node2&#45;&gt;Node3</title>
<path fill="none" stroke="midnightblue" d="M895.68,-280.93C882.86,-281.9 869.52,-282.9 857.07,-283.84"/>
<polygon fill="midnightblue" stroke="midnightblue" points="896.13,-284.41 905.84,-280.16 895.6,-277.43 896.13,-284.41"/>
</g>
<!-- Node2&#45;&gt;Node4 -->
<g id="edge3" class="edge">
<title>Node2&#45;&gt;Node4</title>
<path fill="none" stroke="midnightblue" d="M895.6,-270.95C835.05,-266.27 745.66,-259.36 686.29,-254.77"/>
<polygon fill="midnightblue" stroke="midnightblue" points="895.57,-274.45 905.81,-271.74 896.11,-267.48 895.57,-274.45"/>
</g>
<!-- Node2&#45;&gt;Node9 -->
<g id="edge9" class="edge">
<title>Node2&#45;&gt;Node9</title>
<path fill="none" stroke="midnightblue" d="M933.86,-290.36C924.36,-295.5 913.65,-301.4 904,-307 876.82,-322.77 846.21,-341.86 825.68,-354.86"/>
<polygon fill="midnightblue" stroke="midnightblue" points="935.73,-293.33 942.89,-285.52 932.42,-287.17 935.73,-293.33"/>
</g>
<!-- Node2&#45;&gt;Node13 -->
<g id="edge14" class="edge">
<title>Node2&#45;&gt;Node13</title>
<path fill="none" stroke="midnightblue" d="M928.49,-262.48C920.46,-259.09 911.91,-255.45 904,-252 891,-246.33 859.65,-232.17 835.11,-221.04"/>
<polygon fill="midnightblue" stroke="midnightblue" points="927.35,-265.79 937.92,-266.44 930.06,-259.34 927.35,-265.79"/>
</g>
<!-- Node5 -->
<g id="node5" class="node">
<title>Node5</title>
<g id="a_node5"><a xlink:href="classvae_1_1core_1_1_bank_manager.html#a246219d73b46775ec119e704c758dd0b" target="_top" xlink:title=" ">
<polygon fill="none" stroke="black" points="379,-254 379,-284 513,-284 513,-254 379,-254"/>
<text text-anchor="start" x="387" y="-272" font-family="Helvetica,sans-Serif" font-size="10.00">vae::core::BankManager</text>
<text text-anchor="middle" x="446" y="-261" font-family="Helvetica,sans-Serif" font-size="10.00">::load</text>
</a>
</g>
</g>
<!-- Node4&#45;&gt;Node5 -->
<g id="edge4" class="edge">
<title>Node4&#45;&gt;Node5</title>
<path fill="none" stroke="midnightblue" d="M550.38,-257.81C538.03,-259.14 525.26,-260.53 513.08,-261.85"/>
<polygon fill="midnightblue" stroke="midnightblue" points="551.06,-261.25 560.63,-256.7 550.31,-254.3 551.06,-261.25"/>
</g>
<!-- Node5&#45;&gt;Node5 -->
<g id="edge5" class="edge">
<title>Node5&#45;&gt;Node5</title>
<path fill="none" stroke="midnightblue" d="M477.27,-294.46C473.39,-299.18 462.97,-302.5 446,-302.5 418.16,-302.5 407.93,-293.56 415.33,-284.16"/>
<polygon fill="midnightblue" stroke="midnightblue" points="480.75,-293.94 476.67,-284.16 473.76,-294.35 480.75,-293.94"/>
</g>
<!-- Node6 -->
<g id="node6" class="node">
<title>Node6</title>
<g id="a_node6"><a xlink:href="classvae_1_1core_1_1_engine.html#a97b644aa0736003315870a1e05620ac3" target="_top" xlink:title="Load bank from filesystem.">
<polygon fill="none" stroke="black" points="212.5,-263 212.5,-293 319.5,-293 319.5,-263 212.5,-263"/>
<text text-anchor="start" x="220.5" y="-281" font-family="Helvetica,sans-Serif" font-size="10.00">vae::core::Engine::</text>
<text text-anchor="middle" x="266" y="-270" font-family="Helvetica,sans-Serif" font-size="10.00">loadBank</text>
</a>
</g>
</g>
<!-- Node5&#45;&gt;Node6 -->
<g id="edge6" class="edge">
<title>Node5&#45;&gt;Node6</title>
<path fill="none" stroke="midnightblue" d="M368.75,-272.86C352.18,-273.69 335,-274.56 319.58,-275.34"/>
<polygon fill="midnightblue" stroke="midnightblue" points="369.16,-276.34 378.97,-272.34 368.81,-269.35 369.16,-276.34"/>
</g>
<!-- Node7 -->
<g id="node7" class="node">
<title>Node7</title>
<g id="a_node7"><a xlink:href="classvae_1_1_engine_pimpl.html#a1843b334cf225ba8b3f85c0c64fd78bb" target="_top" xlink:title="Load bank from filesystem.">
<polygon fill="none" stroke="black" points="0,-268.5 0,-287.5 153,-287.5 153,-268.5 0,-268.5"/>
<text text-anchor="middle" x="76.5" y="-275.5" font-family="Helvetica,sans-Serif" font-size="10.00">vae::EnginePimpl::loadBank</text>
</a>
</g>
</g>
<!-- Node6&#45;&gt;Node7 -->
<g id="edge7" class="edge">
<title>Node6&#45;&gt;Node7</title>
<path fill="none" stroke="midnightblue" d="M202.17,-278C186.49,-278 169.51,-278 153.27,-278"/>
<polygon fill="midnightblue" stroke="midnightblue" points="202.27,-281.5 212.27,-278 202.27,-274.5 202.27,-281.5"/>
</g>
<!-- Node8 -->
<g id="node8" class="node">
<title>Node8</title>
<g id="a_node8"><a xlink:href="main_8cpp.html#ae66f6b31b5ad750f1fe042a706a4e3d4" target="_top" xlink:title=" ">
<polygon fill="none" stroke="black" points="56,-328.5 56,-347.5 97,-347.5 97,-328.5 56,-328.5"/>
<text text-anchor="middle" x="76.5" y="-335.5" font-family="Helvetica,sans-Serif" font-size="10.00">main</text>
</a>
</g>
</g>
<!-- Node6&#45;&gt;Node8 -->
<g id="edge8" class="edge">
<title>Node6&#45;&gt;Node8</title>
<path fill="none" stroke="midnightblue" d="M207.86,-296.28C170.31,-308.3 123.45,-323.29 97.38,-331.64"/>
<polygon fill="midnightblue" stroke="midnightblue" points="209.23,-299.52 217.69,-293.14 207.09,-292.85 209.23,-299.52"/>
</g>
<!-- Node10 -->
<g id="node10" class="node">
<title>Node10</title>
<g id="a_node10"><a xlink:href="classvae_1_1core_1_1_spatial_processor.html#ad598b5dcbe8bed69fa6cb0b726170dd3" target="_top" xlink:title=" ">
<polygon fill="none" stroke="black" points="549,-352 549,-382 698,-382 698,-352 549,-352"/>
<text text-anchor="start" x="557" y="-370" font-family="Helvetica,sans-Serif" font-size="10.00">vae::core::SpatialProcessor</text>
<text text-anchor="middle" x="623.5" y="-359" font-family="Helvetica,sans-Serif" font-size="10.00">::loadHRTF</text>
</a>
</g>
</g>
<!-- Node9&#45;&gt;Node10 -->
<g id="edge10" class="edge">
<title>Node9&#45;&gt;Node10</title>
<path fill="none" stroke="midnightblue" d="M727.59,-368.76C717.84,-368.6 707.83,-368.42 698.07,-368.26"/>
<polygon fill="midnightblue" stroke="midnightblue" points="727.57,-372.26 737.63,-368.93 727.69,-365.26 727.57,-372.26"/>
</g>
<!-- Node11 -->
<g id="node11" class="node">
<title>Node11</title>
<g id="a_node11"><a xlink:href="classvae_1_1core_1_1_engine.html#a98bb7b9ed016675701fb91069fb1a066" target="_top" xlink:title=" ">
<polygon fill="none" stroke="black" points="392.5,-350 392.5,-380 499.5,-380 499.5,-350 392.5,-350"/>
<text text-anchor="start" x="400.5" y="-368" font-family="Helvetica,sans-Serif" font-size="10.00">vae::core::Engine::</text>
<text text-anchor="middle" x="446" y="-357" font-family="Helvetica,sans-Serif" font-size="10.00">loadHRTF</text>
</a>
</g>
</g>
<!-- Node10&#45;&gt;Node11 -->
<g id="edge11" class="edge">
<title>Node10&#45;&gt;Node11</title>
<path fill="none" stroke="midnightblue" d="M538.71,-366.05C525.41,-365.89 511.99,-365.74 499.68,-365.6"/>
<polygon fill="midnightblue" stroke="midnightblue" points="538.8,-369.55 548.84,-366.16 538.88,-362.55 538.8,-369.55"/>
</g>
<!-- Node11&#45;&gt;Node8 -->
<g id="edge13" class="edge">
<title>Node11&#45;&gt;Node8</title>
<path fill="none" stroke="midnightblue" d="M382.29,-360.39C297.25,-354.14 149.89,-343.32 97.05,-339.44"/>
<polygon fill="midnightblue" stroke="midnightblue" points="382.12,-363.89 392.35,-361.13 382.63,-356.91 382.12,-363.89"/>
</g>
<!-- Node12 -->
<g id="node12" class="node">
<title>Node12</title>
<g id="a_node12"><a xlink:href="classvae_1_1_engine_pimpl.html#a27d216a0e4169074b38559d77b876748" target="_top" xlink:title=" ">
<polygon fill="none" stroke="black" points="189,-317.5 189,-336.5 343,-336.5 343,-317.5 189,-317.5"/>
<text text-anchor="middle" x="266" y="-324.5" font-family="Helvetica,sans-Serif" font-size="10.00">vae::EnginePimpl::loadHRTF</text>
</a>
</g>
</g>
<!-- Node11&#45;&gt;Node12 -->
<g id="edge12" class="edge">
<title>Node11&#45;&gt;Node12</title>
<path fill="none" stroke="midnightblue" d="M382.26,-351.61C358.94,-346.63 332.98,-341.09 311.61,-336.52"/>
<polygon fill="midnightblue" stroke="midnightblue" points="381.57,-355.04 392.08,-353.7 383.03,-348.19 381.57,-355.04"/>
</g>
<!-- Node13&#45;&gt;Node4 -->
<g id="edge15" class="edge">
<title>Node13&#45;&gt;Node4</title>
<path fill="none" stroke="midnightblue" d="M730.26,-223.49C715.09,-227.29 699.18,-231.28 684.43,-234.97"/>
<polygon fill="midnightblue" stroke="midnightblue" points="731.25,-226.85 740.09,-221.02 729.54,-220.06 731.25,-226.85"/>
</g>
<!-- Node15 -->
<g id="node15" class="node">
<title>Node15</title>
<g id="a_node15"><a xlink:href="classtklb_1_1_string.html#a2c414b31c4a2bd2f0be8dce92ebc1a8f" target="_top" xlink:title=" ">
<polygon fill="none" stroke="black" points="743,-152.5 743,-171.5 859,-171.5 859,-152.5 743,-152.5"/>
<text text-anchor="middle" x="801" y="-159.5" font-family="Helvetica,sans-Serif" font-size="10.00">tklb::String::prepend</text>
</a>
</g>
</g>
<!-- Node14&#45;&gt;Node15 -->
<g id="edge20" class="edge">
<title>Node14&#45;&gt;Node15</title>
<path fill="none" stroke="midnightblue" d="M893.25,-162C881.86,-162 870.14,-162 859.05,-162"/>
<polygon fill="midnightblue" stroke="midnightblue" points="893.6,-165.5 903.6,-162 893.6,-158.5 893.6,-165.5"/>
</g>
<!-- Node16&#45;&gt;Node13 -->
<g id="edge22" class="edge">
<title>Node16&#45;&gt;Node13</title>
<path fill="none" stroke="midnightblue" d="M895.39,-202.48C886.42,-202.81 877.21,-203.16 868.23,-203.5"/>
<polygon fill="midnightblue" stroke="midnightblue" points="895.53,-205.97 905.39,-202.1 895.26,-198.98 895.53,-205.97"/>
</g>
<!-- Node17&#45;&gt;Node4 -->
<g id="edge24" class="edge">
<title>Node17&#45;&gt;Node4</title>
<path fill="none" stroke="midnightblue" d="M899.28,-327.35C852.94,-326.82 788.39,-322.74 734,-307 701.88,-297.7 668.25,-278.57 646.87,-265.04"/>
<polygon fill="midnightblue" stroke="midnightblue" points="899.45,-330.86 909.47,-327.42 899.49,-323.86 899.45,-330.86"/>
</g>
<!-- Node17&#45;&gt;Node9 -->
<g id="edge25" class="edge">
<title>Node17&#45;&gt;Node9</title>
<path fill="none" stroke="midnightblue" d="M916.77,-338.24C898.07,-343.41 876.12,-349.49 856.44,-354.93"/>
<polygon fill="midnightblue" stroke="midnightblue" points="917.8,-341.59 926.5,-335.55 915.93,-334.84 917.8,-341.59"/>
</g>
<!-- Node19 -->
<g id="node19" class="node">
<title>Node19</title>
<g id="a_node19"><a xlink:href="string_8cpp.html#ae66f6b31b5ad750f1fe042a706a4e3d4" target="_top" xlink:title=" ">
<polygon fill="none" stroke="black" points="780.5,-0.5 780.5,-19.5 821.5,-19.5 821.5,-0.5 780.5,-0.5"/>
<text text-anchor="middle" x="801" y="-7.5" font-family="Helvetica,sans-Serif" font-size="10.00">main</text>
</a>
</g>
</g>
<!-- Node18&#45;&gt;Node19 -->
<g id="edge27" class="edge">
<title>Node18&#45;&gt;Node19</title>
<path fill="none" stroke="midnightblue" d="M930.07,-53.38C912.13,-45.73 888.99,-36.29 868,-29 852.57,-23.64 834.75,-18.58 821.52,-15.03"/>
<polygon fill="midnightblue" stroke="midnightblue" points="928.89,-56.69 939.46,-57.42 931.65,-50.26 928.89,-56.69"/>
</g>
<!-- Node20 -->
<g id="node20" class="node">
<title>Node20</title>
<g id="a_node20"><a xlink:href="classtklb_1_1_string.html#aa1b45cab3f488453ab18a45f00b08d58" target="_top" xlink:title=" ">
<polygon fill="none" stroke="black" points="738.5,-76.5 738.5,-95.5 863.5,-95.5 863.5,-76.5 738.5,-76.5"/>
<text text-anchor="middle" x="801" y="-83.5" font-family="Helvetica,sans-Serif" font-size="10.00">tklb::String::operator=</text>
</a>
</g>
</g>
<!-- Node18&#45;&gt;Node20 -->
<g id="edge28" class="edge">
<title>Node18&#45;&gt;Node20</title>
<path fill="none" stroke="midnightblue" d="M906.05,-73.57C892.35,-75.2 877.57,-76.97 863.58,-78.64"/>
<polygon fill="midnightblue" stroke="midnightblue" points="906.77,-77.01 916.29,-72.34 905.94,-70.05 906.77,-77.01"/>
</g>
<!-- Node21 -->
<g id="node21" class="node">
<title>Node21</title>
<g id="a_node21"><a xlink:href="classtklb_1_1_string.html#a4ce72cce5adcb9dd450589006f1f9c85" target="_top" xlink:title=" ">
<polygon fill="none" stroke="black" points="749,-38.5 749,-57.5 853,-57.5 853,-38.5 749,-38.5"/>
<text text-anchor="middle" x="801" y="-45.5" font-family="Helvetica,sans-Serif" font-size="10.00">tklb::String::String</text>
</a>
</g>
</g>
<!-- Node18&#45;&gt;Node21 -->
<g id="edge29" class="edge">
<title>Node18&#45;&gt;Node21</title>
<path fill="none" stroke="midnightblue" d="M906.35,-60.47C889.1,-58.41 870.1,-56.14 853.1,-54.11"/>
<polygon fill="midnightblue" stroke="midnightblue" points="905.94,-63.95 916.29,-61.66 906.77,-56.99 905.94,-63.95"/>
</g>
</g>
</svg>
        <g id="navigator" transform="translate(0 0)" fill="#404254">
                <rect fill="#f2f5e9" fill-opacity="0.5" stroke="#606060" stroke-width=".5" x="0" y="0" width="60" height="60"/>
                <use id="zoomplus" xlink:href="#zoomPlus" x="17" y="9" onmousedown="handleZoom(evt,'in')"/>
                <use id="zoomminus" xlink:href="#zoomMin" x="42" y="9" onmousedown="handleZoom(evt,'out')"/>
                <use id="reset" xlink:href="#resetDef" x="30" y="36" onmousedown="handleReset()"/>
                <g id="arrowUp" xlink:href="#dirArrow" transform="translate(30 24)" onmousedown="handlePan(0,-1)">
                  <use xlink:href="#rim" fill="#404040">
                        <set attributeName="fill" to="#808080" begin="arrowUp.mouseover" end="arrowUp.mouseout"/>
                  </use>
                  <path fill="none" stroke="white" stroke-width="1.5" d="M0,-3.0v7 M-2.5,-0.5L0,-3.0L2.5,-0.5"/>
                </g>
                <g id="arrowRight" xlink:href="#dirArrow" transform="rotate(90) translate(36 -43)" onmousedown="handlePan(1,0)">
                  <use xlink:href="#rim" fill="#404040">
                        <set attributeName="fill" to="#808080" begin="arrowRight.mouseover" end="arrowRight.mouseout"/>
                  </use>
                  <path fill="none" stroke="white" stroke-width="1.5" d="M0,-3.0v7 M-2.5,-0.5L0,-3.0L2.5,-0.5"/>
                </g>
                <g id="arrowDown" xlink:href="#dirArrow" transform="rotate(180) translate(-30 -48)" onmousedown="handlePan(0,1)">
                  <use xlink:href="#rim" fill="#404040">
                        <set attributeName="fill" to="#808080" begin="arrowDown.mouseover" end="arrowDown.mouseout"/>
                  </use>
                  <path fill="none" stroke="white" stroke-width="1.5" d="M0,-3.0v7 M-2.5,-0.5L0,-3.0L2.5,-0.5"/>
                </g>
                <g id="arrowLeft" xlink:href="#dirArrow" transform="rotate(270) translate(-36 17)" onmousedown="handlePan(-1,0)">
                  <use xlink:href="#rim" fill="#404040">
                        <set attributeName="fill" to="#808080" begin="arrowLeft.mouseover" end="arrowLeft.mouseout"/>
                  </use>
                  <path fill="none" stroke="white" stroke-width="1.5" d="M0,-3.0v7 M-2.5,-0.5L0,-3.0L2.5,-0.5"/>
                </g>
        </g>
        <svg viewBox="0 0 15 15" width="100%" height="30px" preserveAspectRatio="xMaxYMin meet">
         <g id="arrow_out" transform="scale(0.3 0.3)">
          <a xlink:href="classtklb_1_1_string_a2fd6f1c6342e803119507c94cd3c6b76_icgraph_org.svg" target="_base">
           <rect id="button" ry="5" rx="5" y="6" x="6" height="38" width="38"
                fill="#f2f5e9" fill-opacity="0.5" stroke="#606060" stroke-width="1.0"/>
           <path id="arrow"
             d="M 11.500037,31.436501 C 11.940474,20.09759 22.043105,11.32322 32.158766,21.979434 L 37.068811,17.246167 C 37.068811,17.246167 37.088388,32 37.088388,32 L 22.160133,31.978069 C 22.160133,31.978069 26.997745,27.140456 26.997745,27.140456 C 18.528582,18.264221 13.291696,25.230495 11.500037,31.436501 z"
             style="fill:#404040;"/>
          </a>
         </g>
        </svg>
</svg>
