<?xml version="1.0" encoding="UTF-8" standalone="no"?>
<!DOCTYPE svg PUBLIC "-//W3C//DTD SVG 1.1//EN"
 "http://www.w3.org/Graphics/SVG/1.1/DTD/svg11.dtd">
<!-- Generated by graphviz version 2.50.0 (0)
 -->
<!-- Title: tklb::Oversampler::process Pages: 1 -->
<svg width="612pt" height="203pt"
 viewBox="0.00 0.00 612.00 203.00" xmlns="http://www.w3.org/2000/svg" xmlns:xlink="http://www.w3.org/1999/xlink">
<g id="graph0" class="graph" transform="scale(1 1) rotate(0) translate(4 199)">
<title>tklb::Oversampler::process</title>
<!-- Node1 -->
<g id="node1" class="node">
<title>Node1</title>
<g id="a_node1"><a xlink:title=" ">
<polygon fill="#bfbfbf" stroke="black" points="0,-120.5 0,-150.5 110,-150.5 110,-120.5 0,-120.5"/>
<text text-anchor="start" x="8" y="-138.5" font-family="Helvetica,sans-Serif" font-size="10.00">tklb::Oversampler::</text>
<text text-anchor="middle" x="55" y="-127.5" font-family="Helvetica,sans-Serif" font-size="10.00">process</text>
</a>
</g>
</g>
<!-- Node2 -->
<g id="node2" class="node">
<title>Node2</title>
<g id="a_node2"><a xlink:href="classtklb_1_1_audio_buffer_tpl.html#a97728ddd08f299f5965e4e4b519d3809" target="_top" xlink:title="Fills an 2d array of size maxChannels() with pointers to each channel.">
<polygon fill="none" stroke="black" points="146,-120.5 146,-150.5 260,-150.5 260,-120.5 146,-120.5"/>
<text text-anchor="start" x="154" y="-138.5" font-family="Helvetica,sans-Serif" font-size="10.00">tklb::AudioBufferTpl</text>
<text text-anchor="middle" x="203" y="-127.5" font-family="Helvetica,sans-Serif" font-size="10.00">::getRaw</text>
</a>
</g>
</g>
<!-- Node1&#45;&gt;Node2 -->
<g id="edge1" class="edge">
<title>Node1&#45;&gt;Node2</title>
<path fill="none" stroke="midnightblue" d="M110.37,-135.5C118.55,-135.5 127.07,-135.5 135.47,-135.5"/>
<polygon fill="midnightblue" stroke="midnightblue" points="135.64,-139 145.64,-135.5 135.64,-132 135.64,-139"/>
</g>
<!-- Node3 -->
<g id="node3" class="node">
<title>Node3</title>
<g id="a_node3"><a xlink:href="classtklb_1_1_audio_buffer_tpl.html#a4e0c07e687fa445e8b058381a696d0b7" target="_top" xlink:title=" ">
<polygon fill="none" stroke="black" points="305,-164.5 305,-194.5 423,-194.5 423,-164.5 305,-164.5"/>
<text text-anchor="start" x="313" y="-182.5" font-family="Helvetica,sans-Serif" font-size="10.00">tklb::AudioBufferTpl</text>
<text text-anchor="middle" x="364" y="-171.5" font-family="Helvetica,sans-Serif" font-size="10.00">::assertOnConstMem</text>
</a>
</g>
</g>
<!-- Node2&#45;&gt;Node3 -->
<g id="edge2" class="edge">
<title>Node2&#45;&gt;Node3</title>
<path fill="none" stroke="midnightblue" d="M258.27,-150.52C271.38,-154.15 285.5,-158.05 299,-161.79"/>
<polygon fill="midnightblue" stroke="midnightblue" points="298.13,-165.18 308.7,-164.47 300,-158.43 298.13,-165.18"/>
</g>
<!-- Node4 -->
<g id="node4" class="node">
<title>Node4</title>
<g id="a_node4"><a xlink:href="classtklb_1_1_audio_buffer_tpl.html#aee0540e90ae2790f9a809917bc5a04fd" target="_top" xlink:title=" ">
<polygon fill="none" stroke="black" points="468,-126 468,-145 604,-145 604,-126 468,-126"/>
<text text-anchor="middle" x="536" y="-133" font-family="Helvetica,sans-Serif" font-size="10.00">tklb::AudioBufferTpl::get</text>
</a>
</g>
</g>
<!-- Node2&#45;&gt;Node4 -->
<g id="edge3" class="edge">
<title>Node2&#45;&gt;Node4</title>
<path fill="none" stroke="midnightblue" d="M260.15,-135.5C314.46,-135.5 397.21,-135.5 457.73,-135.5"/>
<polygon fill="midnightblue" stroke="midnightblue" points="458,-139 468,-135.5 458,-132 458,-139"/>
</g>
<!-- Node5 -->
<g id="node5" class="node">
<title>Node5</title>
<g id="a_node5"><a xlink:href="classtklb_1_1_audio_buffer_tpl.html#ad8dfcd5de2eff24076178f14474b4751" target="_top" xlink:title="Fill the provided array with the contents of this buffer.">
<polygon fill="none" stroke="black" points="296,-88 296,-107 432,-107 432,-88 296,-88"/>
<text text-anchor="middle" x="364" y="-95" font-family="Helvetica,sans-Serif" font-size="10.00">tklb::AudioBufferTpl::put</text>
</a>
</g>
</g>
<!-- Node2&#45;&gt;Node5 -->
<g id="edge4" class="edge">
<title>Node2&#45;&gt;Node5</title>
<path fill="none" stroke="midnightblue" d="M260.06,-122.1C277.24,-118 296.02,-113.51 312.78,-109.5"/>
<polygon fill="midnightblue" stroke="midnightblue" points="314.01,-112.81 322.92,-107.08 312.38,-106 314.01,-112.81"/>
</g>
<!-- Node5&#45;&gt;Node4 -->
<g id="edge6" class="edge">
<title>Node5&#45;&gt;Node4</title>
<path fill="none" stroke="midnightblue" d="M407.9,-107.09C430.53,-112.15 458.5,-118.4 482.43,-123.75"/>
<polygon fill="midnightblue" stroke="midnightblue" points="481.89,-127.21 492.41,-125.98 483.41,-120.38 481.89,-127.21"/>
</g>
<!-- Node6 -->
<g id="node6" class="node">
<title>Node6</title>
<g id="a_node6"><a xlink:href="namespacetklb_1_1memory.html#ab89ec197028f903f4ea125eae46c4a10" target="_top" xlink:title="memcpy wrapper">
<polygon fill="none" stroke="black" points="480,-88 480,-107 592,-107 592,-88 480,-88"/>
<text text-anchor="middle" x="536" y="-95" font-family="Helvetica,sans-Serif" font-size="10.00">tklb::memory::copy</text>
</a>
</g>
</g>
<!-- Node5&#45;&gt;Node6 -->
<g id="edge5" class="edge">
<title>Node5&#45;&gt;Node6</title>
<path fill="none" stroke="midnightblue" d="M432.19,-97.5C444.51,-97.5 457.36,-97.5 469.64,-97.5"/>
<polygon fill="midnightblue" stroke="midnightblue" points="469.78,-101 479.78,-97.5 469.78,-94 469.78,-101"/>
</g>
<!-- Node7 -->
<g id="node7" class="node">
<title>Node7</title>
<g id="a_node7"><a xlink:href="namespacetklb.html#a3080595da18d742645ec41d61828a426" target="_top" xlink:title=" ">
<polygon fill="none" stroke="black" points="506,-50 506,-69 566,-69 566,-50 506,-50"/>
<text text-anchor="middle" x="536" y="-57" font-family="Helvetica,sans-Serif" font-size="10.00">tklb::min</text>
</a>
</g>
</g>
<!-- Node5&#45;&gt;Node7 -->
<g id="edge7" class="edge">
<title>Node5&#45;&gt;Node7</title>
<path fill="none" stroke="midnightblue" d="M407.9,-87.91C434.9,-81.87 469.49,-74.14 495.77,-68.27"/>
<polygon fill="midnightblue" stroke="midnightblue" points="496.76,-71.63 505.76,-66.04 495.24,-64.8 496.76,-71.63"/>
</g>
<!-- Node8 -->
<g id="node8" class="node">
<title>Node8</title>
<g id="a_node8"><a xlink:href="classtklb_1_1_audio_buffer_tpl.html#a86cec40e8c99a90d93db996d92ddfece" target="_top" xlink:title="Returns the length of actually valid audio in the buffer.">
<polygon fill="none" stroke="black" points="479,-0.5 479,-30.5 593,-30.5 593,-0.5 479,-0.5"/>
<text text-anchor="start" x="487" y="-18.5" font-family="Helvetica,sans-Serif" font-size="10.00">tklb::AudioBufferTpl</text>
<text text-anchor="middle" x="536" y="-7.5" font-family="Helvetica,sans-Serif" font-size="10.00">::validSize</text>
</a>
</g>
</g>
<!-- Node5&#45;&gt;Node8 -->
<g id="edge8" class="edge">
<title>Node5&#45;&gt;Node8</title>
<path fill="none" stroke="midnightblue" d="M380.68,-87.86C400.55,-75.87 436.07,-55.2 468,-40.5 472.6,-38.38 477.44,-36.3 482.33,-34.3"/>
<polygon fill="midnightblue" stroke="midnightblue" points="483.72,-37.52 491.72,-30.57 481.14,-31.01 483.72,-37.52"/>
</g>
</g>
</svg>
