<?xml version="1.0" encoding="UTF-8" standalone="no"?>
<!DOCTYPE svg PUBLIC "-//W3C//DTD SVG 1.1//EN"
 "http://www.w3.org/Graphics/SVG/1.1/DTD/svg11.dtd">
<!-- Generated by graphviz version 2.50.0 (0)
 -->
<!-- Title: tklb::StackBuffer::set Pages: 1 -->
<svg width="267pt" height="52pt"
 viewBox="0.00 0.00 267.00 51.50" xmlns="http://www.w3.org/2000/svg" xmlns:xlink="http://www.w3.org/1999/xlink">
<g id="graph0" class="graph" transform="scale(1 1) rotate(0) translate(4 47.5)">
<title>tklb::StackBuffer::set</title>
<!-- Node1 -->
<g id="node1" class="node">
<title>Node1</title>
<g id="a_node1"><a xlink:title="Resizes and copies the contents of the source Buffer This will do a memory::copy,so none of the objec...">
<polygon fill="#bfbfbf" stroke="black" points="140,-6 140,-25 259,-25 259,-6 140,-6"/>
<text text-anchor="middle" x="199.5" y="-13" font-family="Helvetica,sans-Serif" font-size="10.00">tklb::StackBuffer::set</text>
</a>
</g>
</g>
<!-- Node1&#45;&gt;Node1 -->
<g id="edge1" class="edge">
<title>Node1&#45;&gt;Node1</title>
<path fill="none" stroke="midnightblue" d="M226.75,-34.15C225.61,-39.44 216.53,-43.5 199.5,-43.5 173.55,-43.5 166.05,-34.07 177,-25.26"/>
<polygon fill="midnightblue" stroke="midnightblue" points="229.8,-32.43 222,-25.26 223.62,-35.73 229.8,-32.43"/>
</g>
<!-- Node2 -->
<g id="node2" class="node">
<title>Node2</title>
<g id="a_node2"><a xlink:href="classtklb_1_1_stack_buffer.html#ad2b79ee683c21e8b6aa6236bf50813a3" target="_top" xlink:title="Copy Constructor, calls set() Failed allocations have to be checked.">
<polygon fill="none" stroke="black" points="0,-0.5 0,-30.5 104,-30.5 104,-0.5 0,-0.5"/>
<text text-anchor="start" x="8" y="-18.5" font-family="Helvetica,sans-Serif" font-size="10.00">tklb::StackBuffer::</text>
<text text-anchor="middle" x="52" y="-7.5" font-family="Helvetica,sans-Serif" font-size="10.00">StackBuffer</text>
</a>
</g>
</g>
<!-- Node1&#45;&gt;Node2 -->
<g id="edge2" class="edge">
<title>Node1&#45;&gt;Node2</title>
<path fill="none" stroke="midnightblue" d="M129.66,-15.5C121.03,-15.5 112.32,-15.5 104.02,-15.5"/>
<polygon fill="midnightblue" stroke="midnightblue" points="129.74,-19 139.74,-15.5 129.74,-12 129.74,-19"/>
</g>
</g>
</svg>
