<?xml version="1.0" encoding="UTF-8" standalone="no"?>
<!DOCTYPE svg PUBLIC "-//W3C//DTD SVG 1.1//EN"
 "http://www.w3.org/Graphics/SVG/1.1/DTD/svg11.dtd">
<!-- Generated by graphviz version 2.50.0 (0)
 -->
<!-- Title: vae::core::fs::File::File Pages: 1 -->
<svg width="229pt" height="66pt"
 viewBox="0.00 0.00 229.00 66.00" xmlns="http://www.w3.org/2000/svg" xmlns:xlink="http://www.w3.org/1999/xlink">
<g id="graph0" class="graph" transform="scale(1 1) rotate(0) translate(4 62)">
<title>vae::core::fs::File::File</title>
<!-- Node1 -->
<g id="node1" class="node">
<title>Node1</title>
<g id="a_node1"><a xlink:title=" ">
<polygon fill="#bfbfbf" stroke="black" points="0,-14 0,-44 100,-44 100,-14 0,-14"/>
<text text-anchor="start" x="8" y="-32" font-family="Helvetica,sans-Serif" font-size="10.00">vae::core::fs::File</text>
<text text-anchor="middle" x="50" y="-21" font-family="Helvetica,sans-Serif" font-size="10.00">::File</text>
</a>
</g>
</g>
<!-- Node2 -->
<g id="node2" class="node">
<title>Node2</title>
<g id="a_node2"><a xlink:href="vae__fs_8hpp.html#ab99c37d285fa826c50814166e9f62b50" target="_top" xlink:title=" ">
<polygon fill="none" stroke="black" points="136,-38.5 136,-57.5 221,-57.5 221,-38.5 136,-38.5"/>
<text text-anchor="middle" x="178.5" y="-45.5" font-family="Helvetica,sans-Serif" font-size="10.00">vae_file_open</text>
</a>
</g>
</g>
<!-- Node1&#45;&gt;Node2 -->
<g id="edge1" class="edge">
<title>Node1&#45;&gt;Node2</title>
<path fill="none" stroke="midnightblue" d="M100.27,-36.4C108.65,-37.66 117.38,-38.97 125.83,-40.24"/>
<polygon fill="midnightblue" stroke="midnightblue" points="125.54,-43.73 135.95,-41.76 126.58,-36.81 125.54,-43.73"/>
</g>
<!-- Node3 -->
<g id="node3" class="node">
<title>Node3</title>
<g id="a_node3"><a xlink:href="vae__fs_8hpp.html#a6ec545c846e9986b42dc13ed0aad2fca" target="_top" xlink:title="Seek and return current position.">
<polygon fill="none" stroke="black" points="136.5,-0.5 136.5,-19.5 220.5,-19.5 220.5,-0.5 136.5,-0.5"/>
<text text-anchor="middle" x="178.5" y="-7.5" font-family="Helvetica,sans-Serif" font-size="10.00">vae_file_seek</text>
</a>
</g>
</g>
<!-- Node1&#45;&gt;Node3 -->
<g id="edge2" class="edge">
<title>Node1&#45;&gt;Node3</title>
<path fill="none" stroke="midnightblue" d="M100.27,-21.6C108.85,-20.31 117.78,-18.97 126.41,-17.67"/>
<polygon fill="midnightblue" stroke="midnightblue" points="126.98,-21.13 136.35,-16.18 125.94,-14.21 126.98,-21.13"/>
</g>
</g>
</svg>
