<?xml version="1.0" encoding="UTF-8" standalone="no"?>
<!DOCTYPE svg PUBLIC "-//W3C//DTD SVG 1.1//EN"
 "http://www.w3.org/Graphics/SVG/1.1/DTD/svg11.dtd">
<!-- Generated by graphviz version 2.50.0 (0)
 -->
<!-- Title: vae::core::Engine::createAutoEmitter Pages: 1 -->
<svg width="652pt" height="88pt"
 viewBox="0.00 0.00 652.00 88.00" xmlns="http://www.w3.org/2000/svg" xmlns:xlink="http://www.w3.org/1999/xlink">
<g id="graph0" class="graph" transform="scale(1 1) rotate(0) translate(4 84)">
<title>vae::core::Engine::createAutoEmitter</title>
<!-- Node1 -->
<g id="node1" class="node">
<title>Node1</title>
<g id="a_node1"><a xlink:title="Emitter which triggers an event once a listener is close enough.">
<polygon fill="#bfbfbf" stroke="black" points="0,-24.5 0,-54.5 107,-54.5 107,-24.5 0,-24.5"/>
<text text-anchor="start" x="8" y="-42.5" font-family="Helvetica,sans-Serif" font-size="10.00">vae::core::Engine::</text>
<text text-anchor="middle" x="53.5" y="-31.5" font-family="Helvetica,sans-Serif" font-size="10.00">createAutoEmitter</text>
</a>
</g>
</g>
<!-- Node2 -->
<g id="node2" class="node">
<title>Node2</title>
<g id="a_node2"><a xlink:href="classvae_1_1core_1_1_spatial_manager.html#a5388d4c3de49b246d40dc00a799a04d4" target="_top" xlink:title=" ">
<polygon fill="none" stroke="black" points="143,-24.5 143,-54.5 286,-54.5 286,-24.5 143,-24.5"/>
<text text-anchor="start" x="151" y="-42.5" font-family="Helvetica,sans-Serif" font-size="10.00">vae::core::SpatialManager</text>
<text text-anchor="middle" x="214.5" y="-31.5" font-family="Helvetica,sans-Serif" font-size="10.00">::createAutoEmitter</text>
</a>
</g>
</g>
<!-- Node1&#45;&gt;Node2 -->
<g id="edge1" class="edge">
<title>Node1&#45;&gt;Node2</title>
<path fill="none" stroke="midnightblue" d="M107,-39.5C115.26,-39.5 123.96,-39.5 132.68,-39.5"/>
<polygon fill="midnightblue" stroke="midnightblue" points="132.9,-43 142.9,-39.5 132.9,-36 132.9,-43"/>
</g>
<!-- Node3 -->
<g id="node3" class="node">
<title>Node3</title>
<g id="a_node3"><a xlink:href="classvae_1_1core_1_1_spatial_manager.html#a3b7a584badb78d373db73bde20e5a85b" target="_top" xlink:title=" ">
<polygon fill="none" stroke="black" points="322,-24.5 322,-54.5 465,-54.5 465,-24.5 322,-24.5"/>
<text text-anchor="start" x="330" y="-42.5" font-family="Helvetica,sans-Serif" font-size="10.00">vae::core::SpatialManager</text>
<text text-anchor="middle" x="393.5" y="-31.5" font-family="Helvetica,sans-Serif" font-size="10.00">::createEmitter</text>
</a>
</g>
</g>
<!-- Node2&#45;&gt;Node3 -->
<g id="edge2" class="edge">
<title>Node2&#45;&gt;Node3</title>
<path fill="none" stroke="midnightblue" d="M286.22,-39.5C294.57,-39.5 303.14,-39.5 311.62,-39.5"/>
<polygon fill="midnightblue" stroke="midnightblue" points="311.89,-43 321.89,-39.5 311.89,-36 311.89,-43"/>
</g>
<!-- Node4 -->
<g id="node4" class="node">
<title>Node4</title>
<g id="a_node4"><a xlink:href="classvae_1_1core_1_1_spatial_manager.html#a3f3be0983d6adf3ea217d76477f5d43b" target="_top" xlink:title=" ">
<polygon fill="none" stroke="black" points="501,-49.5 501,-79.5 644,-79.5 644,-49.5 501,-49.5"/>
<text text-anchor="start" x="509" y="-67.5" font-family="Helvetica,sans-Serif" font-size="10.00">vae::core::SpatialManager</text>
<text text-anchor="middle" x="572.5" y="-56.5" font-family="Helvetica,sans-Serif" font-size="10.00">::addEmitter</text>
</a>
</g>
</g>
<!-- Node3&#45;&gt;Node4 -->
<g id="edge3" class="edge">
<title>Node3&#45;&gt;Node4</title>
<path fill="none" stroke="midnightblue" d="M465.22,-49.49C473.66,-50.68 482.33,-51.91 490.9,-53.12"/>
<polygon fill="midnightblue" stroke="midnightblue" points="490.5,-56.59 500.89,-54.53 491.48,-49.66 490.5,-56.59"/>
</g>
<!-- Node5 -->
<g id="node5" class="node">
<title>Node5</title>
<g id="a_node5"><a xlink:href="classvae_1_1core_1_1_spatial_manager.html#a8223349a8417dbd972f9979618849a4e" target="_top" xlink:title=" ">
<polygon fill="none" stroke="black" points="501,-0.5 501,-30.5 644,-30.5 644,-0.5 501,-0.5"/>
<text text-anchor="start" x="509" y="-18.5" font-family="Helvetica,sans-Serif" font-size="10.00">vae::core::SpatialManager</text>
<text text-anchor="middle" x="572.5" y="-7.5" font-family="Helvetica,sans-Serif" font-size="10.00">::hasEmitter</text>
</a>
</g>
</g>
<!-- Node3&#45;&gt;Node5 -->
<g id="edge4" class="edge">
<title>Node3&#45;&gt;Node5</title>
<path fill="none" stroke="midnightblue" d="M465.22,-29.91C473.66,-28.77 482.33,-27.59 490.9,-26.43"/>
<polygon fill="midnightblue" stroke="midnightblue" points="491.46,-29.89 500.89,-25.07 490.51,-22.95 491.46,-29.89"/>
</g>
</g>
</svg>
