<?xml version="1.0" encoding="UTF-8" standalone="no"?>
<!DOCTYPE svg PUBLIC "-//W3C//DTD SVG 1.1//EN"
 "http://www.w3.org/Graphics/SVG/1.1/DTD/svg11.dtd">
<!-- Generated by graphviz version 2.50.0 (0)
 -->
<!-- Title: vae::core::Engine::fireGlobalEvent Pages: 1 -->
<!--zoomable 282 -->
<svg id="main" version="1.1" xmlns="http://www.w3.org/2000/svg" xmlns:xlink="http://www.w3.org/1999/xlink" xml:space="preserve" onload="init(evt)">
<style type="text/css"><![CDATA[
.edge:hover path { stroke: red; }
.edge:hover polygon { stroke: red; fill: red; }
]]></style>
<script type="text/javascript"><![CDATA[
var edges = document.getElementsByTagName('g');
if (edges && edges.length) {
  for (var i=0;i<edges.length;i++) {
    if (edges[i].id.substr(0,4)=='edge') {
      edges[i].setAttribute('class','edge');
    }
  }
}
]]></script>
        <defs>
                <circle id="rim" cx="0" cy="0" r="7"/>
                <circle id="rim2" cx="0" cy="0" r="3.5"/>
                <g id="zoomPlus">
                        <use xlink:href="#rim" fill="#404040">
                                <set attributeName="fill" to="#808080" begin="zoomplus.mouseover" end="zoomplus.mouseout"/>
                        </use>
                        <path d="M-4,0h8M0,-4v8" fill="none" stroke="white" stroke-width="1.5" pointer-events="none"/>
                </g>
                <g id="zoomMin">
                        <use xlink:href="#rim" fill="#404040">
                                <set attributeName="fill" to="#808080" begin="zoomminus.mouseover" end="zoomminus.mouseout"/>
                        </use>
                        <path d="M-4,0h8" fill="none" stroke="white" stroke-width="1.5" pointer-events="none"/>
                </g>
                <g id="dirArrow">
                        <path fill="none" stroke="white" stroke-width="1.5" d="M0,-3.0v7 M-2.5,-0.5L0,-3.0L2.5,-0.5"/>
                </g>
               <g id="resetDef">
                       <use xlink:href="#rim2" fill="#404040">
                               <set attributeName="fill" to="#808080" begin="reset.mouseover" end="reset.mouseout"/>
                       </use>
               </g>
        </defs>

<script type="text/javascript">
var viewWidth = 658;
var viewHeight = 282;
var sectionId = 'dynsection-17';
</script>
<script xlink:href="svgpan.js"/>
<svg id="graph" class="graph">
<g id="viewport">
<title>vae::core::Engine::fireGlobalEvent</title>
<!-- Node1 -->
<g id="node1" class="node">
<title>Node1</title>
<g id="a_node1"><a xlink:title="Works like fireEvent but with a global Event identifier.">
<polygon fill="#bfbfbf" stroke="black" points="0,-114.5 0,-144.5 107,-144.5 107,-114.5 0,-114.5"/>
<text text-anchor="start" x="8" y="-132.5" font-family="Helvetica,sans-Serif" font-size="10.00">vae::core::Engine::</text>
<text text-anchor="middle" x="53.5" y="-121.5" font-family="Helvetica,sans-Serif" font-size="10.00">fireGlobalEvent</text>
</a>
</g>
</g>
<!-- Node2 -->
<g id="node2" class="node">
<title>Node2</title>
<g id="a_node2"><a xlink:href="classvae_1_1core_1_1_engine.html#a4721a2bf236efae669ee51ba148e193a" target="_top" xlink:title="Main mechanism to start and stop sounds.">
<polygon fill="none" stroke="black" points="163.5,-139.5 163.5,-169.5 270.5,-169.5 270.5,-139.5 163.5,-139.5"/>
<text text-anchor="start" x="171.5" y="-157.5" font-family="Helvetica,sans-Serif" font-size="10.00">vae::core::Engine::</text>
<text text-anchor="middle" x="217" y="-146.5" font-family="Helvetica,sans-Serif" font-size="10.00">fireEvent</text>
</a>
</g>
</g>
<!-- Node1&#45;&gt;Node2 -->
<g id="edge1" class="edge">
<title>Node1&#45;&gt;Node2</title>
<path fill="none" stroke="midnightblue" d="M107.38,-137.69C121.96,-139.94 137.91,-142.41 153,-144.75"/>
<polygon fill="midnightblue" stroke="midnightblue" points="152.86,-148.27 163.28,-146.34 153.93,-141.35 152.86,-148.27"/>
</g>
<!-- Node12 -->
<g id="node12" class="node">
<title>Node12</title>
<g id="a_node12"><a xlink:href="namespacevae_1_1core.html#ad8e8a092991125ada0a95f174838b1b7" target="_top" xlink:title=" ">
<polygon fill="none" stroke="black" points="143,-90.5 143,-120.5 291,-120.5 291,-90.5 143,-90.5"/>
<text text-anchor="start" x="151" y="-108.5" font-family="Helvetica,sans-Serif" font-size="10.00">vae::core::splitGlobalEvent</text>
<text text-anchor="middle" x="217" y="-97.5" font-family="Helvetica,sans-Serif" font-size="10.00">Handle</text>
</a>
</g>
</g>
<!-- Node1&#45;&gt;Node12 -->
<g id="edge13" class="edge">
<title>Node1&#45;&gt;Node12</title>
<path fill="none" stroke="midnightblue" d="M107.38,-121.64C115.51,-120.43 124.08,-119.16 132.68,-117.88"/>
<polygon fill="midnightblue" stroke="midnightblue" points="133.39,-121.31 142.77,-116.38 132.36,-114.39 133.39,-121.31"/>
</g>
<!-- Node2&#45;&gt;Node2 -->
<g id="edge2" class="edge">
<title>Node2&#45;&gt;Node2</title>
<path fill="none" stroke="midnightblue" d="M188.77,-169.66C181.96,-179.06 191.37,-188 217,-188 232.62,-188 242.21,-184.68 245.79,-179.96"/>
<polygon fill="midnightblue" stroke="midnightblue" points="249.26,-179.46 245.23,-169.66 242.27,-179.83 249.26,-179.46"/>
</g>
<!-- Node3 -->
<g id="node3" class="node">
<title>Node3</title>
<g id="a_node3"><a xlink:href="classvae_1_1core_1_1_spatial_manager.html#addd80ecf83e30b0814eaee82ae7bd700" target="_top" xlink:title=" ">
<polygon fill="none" stroke="black" points="334.5,-243.5 334.5,-273.5 477.5,-273.5 477.5,-243.5 334.5,-243.5"/>
<text text-anchor="start" x="342.5" y="-261.5" font-family="Helvetica,sans-Serif" font-size="10.00">vae::core::SpatialManager</text>
<text text-anchor="middle" x="406" y="-250.5" font-family="Helvetica,sans-Serif" font-size="10.00">::forListeners</text>
</a>
</g>
</g>
<!-- Node2&#45;&gt;Node3 -->
<g id="edge3" class="edge">
<title>Node2&#45;&gt;Node3</title>
<path fill="none" stroke="midnightblue" d="M235.37,-169.8C255.97,-187.28 291.97,-215.76 327,-233.5 331.48,-235.77 336.22,-237.89 341.04,-239.86"/>
<polygon fill="midnightblue" stroke="midnightblue" points="339.81,-243.13 350.4,-243.45 342.32,-236.6 339.81,-243.13"/>
</g>
<!-- Node4 -->
<g id="node4" class="node">
<title>Node4</title>
<g id="a_node4"><a xlink:href="classvae_1_1core_1_1_bank_manager.html#a4ec4afe30adb6e0108e799d26070a3a5" target="_top" xlink:title=" ">
<polygon fill="none" stroke="black" points="328,-205 328,-224 484,-224 484,-205 328,-205"/>
<text text-anchor="middle" x="406" y="-212" font-family="Helvetica,sans-Serif" font-size="10.00">vae::core::BankManager::get</text>
</a>
</g>
</g>
<!-- Node2&#45;&gt;Node4 -->
<g id="edge4" class="edge">
<title>Node2&#45;&gt;Node4</title>
<path fill="none" stroke="midnightblue" d="M254.95,-169.67C275.87,-177.94 302.66,-187.99 327,-195.5 335.04,-197.98 343.63,-200.35 352.05,-202.52"/>
<polygon fill="midnightblue" stroke="midnightblue" points="351.28,-205.93 361.83,-204.97 352.98,-199.14 351.28,-205.93"/>
</g>
<!-- Node5 -->
<g id="node5" class="node">
<title>Node5</title>
<g id="a_node5"><a xlink:href="classvae_1_1core_1_1_bank_manager.html#aef2d335fb63d6f4be9f5b4793e309c99" target="_top" xlink:title=" ">
<polygon fill="none" stroke="black" points="327,-167 327,-186 485,-186 485,-167 327,-167"/>
<text text-anchor="middle" x="406" y="-174" font-family="Helvetica,sans-Serif" font-size="10.00">vae::core::BankManager::has</text>
</a>
</g>
</g>
<!-- Node2&#45;&gt;Node5 -->
<g id="edge5" class="edge">
<title>Node2&#45;&gt;Node5</title>
<path fill="none" stroke="midnightblue" d="M270.59,-160.69C284.94,-162.38 300.9,-164.25 316.66,-166.11"/>
<polygon fill="midnightblue" stroke="midnightblue" points="316.63,-169.63 326.98,-167.32 317.45,-162.68 316.63,-169.63"/>
</g>
<!-- Node6 -->
<g id="node6" class="node">
<title>Node6</title>
<g id="a_node6"><a xlink:href="classvae_1_1core_1_1_spatial_manager.html#a8223349a8417dbd972f9979618849a4e" target="_top" xlink:title=" ">
<polygon fill="none" stroke="black" points="334.5,-117.5 334.5,-147.5 477.5,-147.5 477.5,-117.5 334.5,-117.5"/>
<text text-anchor="start" x="342.5" y="-135.5" font-family="Helvetica,sans-Serif" font-size="10.00">vae::core::SpatialManager</text>
<text text-anchor="middle" x="406" y="-124.5" font-family="Helvetica,sans-Serif" font-size="10.00">::hasEmitter</text>
</a>
</g>
</g>
<!-- Node2&#45;&gt;Node6 -->
<g id="edge6" class="edge">
<title>Node2&#45;&gt;Node6</title>
<path fill="none" stroke="midnightblue" d="M270.59,-148.31C287.27,-146.35 306.11,-144.13 324.3,-141.99"/>
<polygon fill="midnightblue" stroke="midnightblue" points="324.79,-145.46 334.31,-140.82 323.97,-138.51 324.79,-145.46"/>
</g>
<!-- Node7 -->
<g id="node7" class="node">
<title>Node7</title>
<g id="a_node7"><a xlink:href="classvae_1_1core_1_1_voice_manger.html#a56795adf1dfc9e96a8ef00fba1ae03ca" target="_top" xlink:title=" ">
<polygon fill="none" stroke="black" points="341.5,-68.5 341.5,-98.5 470.5,-98.5 470.5,-68.5 341.5,-68.5"/>
<text text-anchor="start" x="349.5" y="-86.5" font-family="Helvetica,sans-Serif" font-size="10.00">vae::core::VoiceManger</text>
<text text-anchor="middle" x="406" y="-75.5" font-family="Helvetica,sans-Serif" font-size="10.00">::play</text>
</a>
</g>
</g>
<!-- Node2&#45;&gt;Node7 -->
<g id="edge7" class="edge">
<title>Node2&#45;&gt;Node7</title>
<path fill="none" stroke="midnightblue" d="M268.85,-139.47C276.39,-136.76 283.98,-133.75 291,-130.5 308.02,-122.63 309.95,-116.31 327,-108.5 331.93,-106.24 337.12,-104.1 342.39,-102.1"/>
<polygon fill="midnightblue" stroke="midnightblue" points="343.7,-105.34 351.9,-98.63 341.31,-98.76 343.7,-105.34"/>
</g>
<!-- Node10 -->
<g id="node10" class="node">
<title>Node10</title>
<g id="a_node10"><a xlink:href="classvae_1_1core_1_1_voice_manger.html#a51b077f535b7eebcc1e62d5ca5a0d95d" target="_top" xlink:title="Stops a voice.">
<polygon fill="none" stroke="black" points="341.5,-19.5 341.5,-49.5 470.5,-49.5 470.5,-19.5 341.5,-19.5"/>
<text text-anchor="start" x="349.5" y="-37.5" font-family="Helvetica,sans-Serif" font-size="10.00">vae::core::VoiceManger</text>
<text text-anchor="middle" x="406" y="-26.5" font-family="Helvetica,sans-Serif" font-size="10.00">::stop</text>
</a>
</g>
</g>
<!-- Node2&#45;&gt;Node10 -->
<g id="edge10" class="edge">
<title>Node2&#45;&gt;Node10</title>
<path fill="none" stroke="midnightblue" d="M270.55,-142.85C277.93,-139.67 285.03,-135.63 291,-130.5 317.84,-107.45 300.07,-82.45 327,-59.5 328.99,-57.81 331.09,-56.22 333.29,-54.75"/>
<polygon fill="midnightblue" stroke="midnightblue" points="335.27,-57.65 342.14,-49.58 331.74,-51.6 335.27,-57.65"/>
</g>
<!-- Node8 -->
<g id="node8" class="node">
<title>Node8</title>
<g id="a_node8"><a xlink:href="classvae_1_1core_1_1_voice_manger.html#aca4814fa5ec2f09d38c7b15e92ce0cad" target="_top" xlink:title="makes provided voice virtual">
<polygon fill="none" stroke="black" points="521,-88.5 521,-118.5 650,-118.5 650,-88.5 521,-88.5"/>
<text text-anchor="start" x="529" y="-106.5" font-family="Helvetica,sans-Serif" font-size="10.00">vae::core::VoiceManger</text>
<text text-anchor="middle" x="585.5" y="-95.5" font-family="Helvetica,sans-Serif" font-size="10.00">::makeVirtual</text>
</a>
</g>
</g>
<!-- Node7&#45;&gt;Node8 -->
<g id="edge8" class="edge">
<title>Node7&#45;&gt;Node8</title>
<path fill="none" stroke="midnightblue" d="M470.58,-90.66C483.58,-92.13 497.37,-93.68 510.69,-95.18"/>
<polygon fill="midnightblue" stroke="midnightblue" points="510.44,-98.68 520.77,-96.32 511.22,-91.72 510.44,-98.68"/>
</g>
<!-- Node9 -->
<g id="node9" class="node">
<title>Node9</title>
<g id="a_node9"><a xlink:href="namespacetklb.html#a7dc2203e89c331e3c85b9e7f16fa6763" target="_top" xlink:title=" ">
<polygon fill="none" stroke="black" points="554,-50 554,-69 617,-69 617,-50 554,-50"/>
<text text-anchor="middle" x="585.5" y="-57" font-family="Helvetica,sans-Serif" font-size="10.00">tklb::max</text>
</a>
</g>
</g>
<!-- Node7&#45;&gt;Node9 -->
<g id="edge9" class="edge">
<title>Node7&#45;&gt;Node9</title>
<path fill="none" stroke="midnightblue" d="M470.58,-74.9C494.86,-71.62 521.88,-67.97 543.51,-65.04"/>
<polygon fill="midnightblue" stroke="midnightblue" points="544.21,-68.48 553.65,-63.67 543.28,-61.54 544.21,-68.48"/>
</g>
<!-- Node10&#45;&gt;Node9 -->
<g id="edge12" class="edge">
<title>Node10&#45;&gt;Node9</title>
<path fill="none" stroke="midnightblue" d="M470.58,-43.45C494.86,-46.87 521.88,-50.68 543.51,-53.73"/>
<polygon fill="midnightblue" stroke="midnightblue" points="543.26,-57.23 553.65,-55.16 544.24,-50.3 543.26,-57.23"/>
</g>
<!-- Node11 -->
<g id="node11" class="node">
<title>Node11</title>
<g id="a_node11"><a xlink:href="classvae_1_1core_1_1_voice_manger.html#abe6b6d5a07c73e1e194f24314226a19f" target="_top" xlink:title=" ">
<polygon fill="none" stroke="black" points="521,-0.5 521,-30.5 650,-30.5 650,-0.5 521,-0.5"/>
<text text-anchor="start" x="529" y="-18.5" font-family="Helvetica,sans-Serif" font-size="10.00">vae::core::VoiceManger</text>
<text text-anchor="middle" x="585.5" y="-7.5" font-family="Helvetica,sans-Serif" font-size="10.00">::finished</text>
</a>
</g>
</g>
<!-- Node10&#45;&gt;Node11 -->
<g id="edge11" class="edge">
<title>Node10&#45;&gt;Node11</title>
<path fill="none" stroke="midnightblue" d="M470.58,-27.69C483.58,-26.3 497.37,-24.83 510.69,-23.4"/>
<polygon fill="midnightblue" stroke="midnightblue" points="511.2,-26.87 520.77,-22.32 510.45,-19.91 511.2,-26.87"/>
</g>
</g>
</svg>
        <g id="navigator" transform="translate(0 0)" fill="#404254">
                <rect fill="#f2f5e9" fill-opacity="0.5" stroke="#606060" stroke-width=".5" x="0" y="0" width="60" height="60"/>
                <use id="zoomplus" xlink:href="#zoomPlus" x="17" y="9" onmousedown="handleZoom(evt,'in')"/>
                <use id="zoomminus" xlink:href="#zoomMin" x="42" y="9" onmousedown="handleZoom(evt,'out')"/>
                <use id="reset" xlink:href="#resetDef" x="30" y="36" onmousedown="handleReset()"/>
                <g id="arrowUp" xlink:href="#dirArrow" transform="translate(30 24)" onmousedown="handlePan(0,-1)">
                  <use xlink:href="#rim" fill="#404040">
                        <set attributeName="fill" to="#808080" begin="arrowUp.mouseover" end="arrowUp.mouseout"/>
                  </use>
                  <path fill="none" stroke="white" stroke-width="1.5" d="M0,-3.0v7 M-2.5,-0.5L0,-3.0L2.5,-0.5"/>
                </g>
                <g id="arrowRight" xlink:href="#dirArrow" transform="rotate(90) translate(36 -43)" onmousedown="handlePan(1,0)">
                  <use xlink:href="#rim" fill="#404040">
                        <set attributeName="fill" to="#808080" begin="arrowRight.mouseover" end="arrowRight.mouseout"/>
                  </use>
                  <path fill="none" stroke="white" stroke-width="1.5" d="M0,-3.0v7 M-2.5,-0.5L0,-3.0L2.5,-0.5"/>
                </g>
                <g id="arrowDown" xlink:href="#dirArrow" transform="rotate(180) translate(-30 -48)" onmousedown="handlePan(0,1)">
                  <use xlink:href="#rim" fill="#404040">
                        <set attributeName="fill" to="#808080" begin="arrowDown.mouseover" end="arrowDown.mouseout"/>
                  </use>
                  <path fill="none" stroke="white" stroke-width="1.5" d="M0,-3.0v7 M-2.5,-0.5L0,-3.0L2.5,-0.5"/>
                </g>
                <g id="arrowLeft" xlink:href="#dirArrow" transform="rotate(270) translate(-36 17)" onmousedown="handlePan(-1,0)">
                  <use xlink:href="#rim" fill="#404040">
                        <set attributeName="fill" to="#808080" begin="arrowLeft.mouseover" end="arrowLeft.mouseout"/>
                  </use>
                  <path fill="none" stroke="white" stroke-width="1.5" d="M0,-3.0v7 M-2.5,-0.5L0,-3.0L2.5,-0.5"/>
                </g>
        </g>
        <svg viewBox="0 0 15 15" width="100%" height="30px" preserveAspectRatio="xMaxYMin meet">
         <g id="arrow_out" transform="scale(0.3 0.3)">
          <a xlink:href="classvae_1_1core_1_1_engine_a11a6ae8ce62130f33dad382a4e4cf07e_cgraph_org.svg" target="_base">
           <rect id="button" ry="5" rx="5" y="6" x="6" height="38" width="38"
                fill="#f2f5e9" fill-opacity="0.5" stroke="#606060" stroke-width="1.0"/>
           <path id="arrow"
             d="M 11.500037,31.436501 C 11.940474,20.09759 22.043105,11.32322 32.158766,21.979434 L 37.068811,17.246167 C 37.068811,17.246167 37.088388,32 37.088388,32 L 22.160133,31.978069 C 22.160133,31.978069 26.997745,27.140456 26.997745,27.140456 C 18.528582,18.264221 13.291696,25.230495 11.500037,31.436501 z"
             style="fill:#404040;"/>
          </a>
         </g>
        </svg>
</svg>
