<?xml version="1.0" encoding="UTF-8" standalone="no"?>
<!DOCTYPE svg PUBLIC "-//W3C//DTD SVG 1.1//EN"
 "http://www.w3.org/Graphics/SVG/1.1/DTD/svg11.dtd">
<!-- Generated by graphviz version 2.50.0 (0)
 -->
<!-- Title: vae::EnginePimpl::loadBank Pages: 1 -->
<!--zoomable 480 -->
<svg id="main" version="1.1" xmlns="http://www.w3.org/2000/svg" xmlns:xlink="http://www.w3.org/1999/xlink" xml:space="preserve" onload="init(evt)">
<style type="text/css"><![CDATA[
.edge:hover path { stroke: red; }
.edge:hover polygon { stroke: red; fill: red; }
]]></style>
<script type="text/javascript"><![CDATA[
var edges = document.getElementsByTagName('g');
if (edges && edges.length) {
  for (var i=0;i<edges.length;i++) {
    if (edges[i].id.substr(0,4)=='edge') {
      edges[i].setAttribute('class','edge');
    }
  }
}
]]></script>
        <defs>
                <circle id="rim" cx="0" cy="0" r="7"/>
                <circle id="rim2" cx="0" cy="0" r="3.5"/>
                <g id="zoomPlus">
                        <use xlink:href="#rim" fill="#404040">
                                <set attributeName="fill" to="#808080" begin="zoomplus.mouseover" end="zoomplus.mouseout"/>
                        </use>
                        <path d="M-4,0h8M0,-4v8" fill="none" stroke="white" stroke-width="1.5" pointer-events="none"/>
                </g>
                <g id="zoomMin">
                        <use xlink:href="#rim" fill="#404040">
                                <set attributeName="fill" to="#808080" begin="zoomminus.mouseover" end="zoomminus.mouseout"/>
                        </use>
                        <path d="M-4,0h8" fill="none" stroke="white" stroke-width="1.5" pointer-events="none"/>
                </g>
                <g id="dirArrow">
                        <path fill="none" stroke="white" stroke-width="1.5" d="M0,-3.0v7 M-2.5,-0.5L0,-3.0L2.5,-0.5"/>
                </g>
               <g id="resetDef">
                       <use xlink:href="#rim2" fill="#404040">
                               <set attributeName="fill" to="#808080" begin="reset.mouseover" end="reset.mouseout"/>
                       </use>
               </g>
        </defs>

<script type="text/javascript">
var viewWidth = 1094;
var viewHeight = 480;
var sectionId = 'dynsection-11';
</script>
<script xlink:href="svgpan.js"/>
<svg id="graph" class="graph">
<g id="viewport">
<title>vae::EnginePimpl::loadBank</title>
<!-- Node1 -->
<g id="node1" class="node">
<title>Node1</title>
<g id="a_node1"><a xlink:title="Load bank from filesystem.">
<polygon fill="#bfbfbf" stroke="black" points="0,-197 0,-216 153,-216 153,-197 0,-197"/>
<text text-anchor="middle" x="76.5" y="-204" font-family="Helvetica,sans-Serif" font-size="10.00">vae::EnginePimpl::loadBank</text>
</a>
</g>
</g>
<!-- Node2 -->
<g id="node2" class="node">
<title>Node2</title>
<g id="a_node2"><a xlink:href="classvae_1_1core_1_1_engine.html#a97b644aa0736003315870a1e05620ac3" target="_top" xlink:title="Load bank from filesystem.">
<polygon fill="none" stroke="black" points="189,-191.5 189,-221.5 296,-221.5 296,-191.5 189,-191.5"/>
<text text-anchor="start" x="197" y="-209.5" font-family="Helvetica,sans-Serif" font-size="10.00">vae::core::Engine::</text>
<text text-anchor="middle" x="242.5" y="-198.5" font-family="Helvetica,sans-Serif" font-size="10.00">loadBank</text>
</a>
</g>
</g>
<!-- Node1&#45;&gt;Node2 -->
<g id="edge1" class="edge">
<title>Node1&#45;&gt;Node2</title>
<path fill="none" stroke="midnightblue" d="M153.26,-206.5C161.64,-206.5 170.11,-206.5 178.31,-206.5"/>
<polygon fill="midnightblue" stroke="midnightblue" points="178.53,-210 188.53,-206.5 178.53,-203 178.53,-210"/>
</g>
<!-- Node3 -->
<g id="node3" class="node">
<title>Node3</title>
<g id="a_node3"><a xlink:href="classvae_1_1core_1_1_bank_manager.html#a246219d73b46775ec119e704c758dd0b" target="_top" xlink:title=" ">
<polygon fill="none" stroke="black" points="332,-191.5 332,-221.5 466,-221.5 466,-191.5 332,-191.5"/>
<text text-anchor="start" x="340" y="-209.5" font-family="Helvetica,sans-Serif" font-size="10.00">vae::core::BankManager</text>
<text text-anchor="middle" x="399" y="-198.5" font-family="Helvetica,sans-Serif" font-size="10.00">::load</text>
</a>
</g>
</g>
<!-- Node2&#45;&gt;Node3 -->
<g id="edge2" class="edge">
<title>Node2&#45;&gt;Node3</title>
<path fill="none" stroke="midnightblue" d="M296.24,-206.5C304.47,-206.5 313.11,-206.5 321.74,-206.5"/>
<polygon fill="midnightblue" stroke="midnightblue" points="321.84,-210 331.84,-206.5 321.84,-203 321.84,-210"/>
</g>
<!-- Node3&#45;&gt;Node3 -->
<g id="edge29" class="edge">
<title>Node3&#45;&gt;Node3</title>
<path fill="none" stroke="midnightblue" d="M371.81,-221.66C365.26,-231.06 374.32,-240 399,-240 414.04,-240 423.28,-236.68 426.72,-231.96"/>
<polygon fill="midnightblue" stroke="midnightblue" points="430.2,-231.46 426.19,-221.66 423.21,-231.83 430.2,-231.46"/>
</g>
<!-- Node4 -->
<g id="node4" class="node">
<title>Node4</title>
<g id="a_node4"><a xlink:href="classvae_1_1core_1_1_bank_loader.html#a2a1f294f67b451b337f65b033dd6f0bd" target="_top" xlink:title="Load a bank.json and all wav files referenced in it.">
<polygon fill="none" stroke="black" points="502,-191.5 502,-221.5 627,-221.5 627,-191.5 502,-191.5"/>
<text text-anchor="start" x="510" y="-209.5" font-family="Helvetica,sans-Serif" font-size="10.00">vae::core::BankLoader</text>
<text text-anchor="middle" x="564.5" y="-198.5" font-family="Helvetica,sans-Serif" font-size="10.00">::load</text>
</a>
</g>
</g>
<!-- Node3&#45;&gt;Node4 -->
<g id="edge3" class="edge">
<title>Node3&#45;&gt;Node4</title>
<path fill="none" stroke="midnightblue" d="M466.03,-206.5C474.57,-206.5 483.34,-206.5 491.96,-206.5"/>
<polygon fill="midnightblue" stroke="midnightblue" points="491.98,-210 501.98,-206.5 491.98,-203 491.98,-210"/>
</g>
<!-- Node5 -->
<g id="node5" class="node">
<title>Node5</title>
<g id="a_node5"><a xlink:href="classvae_1_1core_1_1_bank_loader.html#aa6ba40f8098e00d26c335490092fa10a" target="_top" xlink:title=" ">
<polygon fill="none" stroke="black" points="667.5,-441.5 667.5,-471.5 792.5,-471.5 792.5,-441.5 667.5,-441.5"/>
<text text-anchor="start" x="675.5" y="-459.5" font-family="Helvetica,sans-Serif" font-size="10.00">vae::core::BankLoader</text>
<text text-anchor="middle" x="730" y="-448.5" font-family="Helvetica,sans-Serif" font-size="10.00">::allocate</text>
</a>
</g>
</g>
<!-- Node4&#45;&gt;Node5 -->
<g id="edge4" class="edge">
<title>Node4&#45;&gt;Node5</title>
<path fill="none" stroke="midnightblue" d="M568.33,-221.69C576.34,-260.67 602.58,-365.51 663,-426.5 666.62,-430.15 670.76,-433.4 675.17,-436.28"/>
<polygon fill="midnightblue" stroke="midnightblue" points="673.5,-439.36 683.9,-441.39 677.03,-433.32 673.5,-439.36"/>
</g>
<!-- Node8 -->
<g id="node8" class="node">
<title>Node8</title>
<g id="a_node8"><a xlink:href="classtklb_1_1_string.html#a94e674695ef958e3a4d7778c7235856b" target="_top" xlink:title=" ">
<polygon fill="none" stroke="black" points="835.5,-327 835.5,-346 947.5,-346 947.5,-327 835.5,-327"/>
<text text-anchor="middle" x="891.5" y="-334" font-family="Helvetica,sans-Serif" font-size="10.00">tklb::String::append</text>
</a>
</g>
</g>
<!-- Node4&#45;&gt;Node8 -->
<g id="edge7" class="edge">
<title>Node4&#45;&gt;Node8</title>
<path fill="none" stroke="midnightblue" d="M595.93,-221.69C615.01,-231.01 640.22,-242.94 663,-252.5 728.69,-280.06 806.93,-307.89 852.43,-323.58"/>
<polygon fill="midnightblue" stroke="midnightblue" points="851.58,-326.99 862.17,-326.93 853.85,-320.37 851.58,-326.99"/>
</g>
<!-- Node9 -->
<g id="node9" class="node">
<title>Node9</title>
<g id="a_node9"><a xlink:href="classtklb_1_1_string.html#a2fd6f1c6342e803119507c94cd3c6b76" target="_top" xlink:title=" ">
<polygon fill="none" stroke="black" points="988.5,-327 988.5,-346 1083.5,-346 1083.5,-327 988.5,-327"/>
<text text-anchor="middle" x="1036" y="-334" font-family="Helvetica,sans-Serif" font-size="10.00">tklb::String::size</text>
</a>
</g>
</g>
<!-- Node4&#45;&gt;Node9 -->
<g id="edge28" class="edge">
<title>Node4&#45;&gt;Node9</title>
<path fill="none" stroke="midnightblue" d="M568.03,-221.72C575.14,-259.02 599.13,-354.77 663,-393.5 777.25,-462.78 946.35,-385 1009.77,-350.9"/>
<polygon fill="midnightblue" stroke="midnightblue" points="1011.59,-353.9 1018.67,-346.02 1008.22,-347.76 1011.59,-353.9"/>
</g>
<!-- Node10 -->
<g id="node10" class="node">
<title>Node10</title>
<g id="a_node10"><a xlink:href="classtklb_1_1_string.html#a2551f7f99fab1486f3d13b3a363824c5" target="_top" xlink:title=" ">
<polygon fill="none" stroke="black" points="842,-175 842,-194 941,-194 941,-175 842,-175"/>
<text text-anchor="middle" x="891.5" y="-182" font-family="Helvetica,sans-Serif" font-size="10.00">tklb::String::c_str</text>
</a>
</g>
</g>
<!-- Node4&#45;&gt;Node10 -->
<g id="edge9" class="edge">
<title>Node4&#45;&gt;Node10</title>
<path fill="none" stroke="midnightblue" d="M627.01,-202.34C685.86,-198.35 773.99,-192.39 831.86,-188.47"/>
<polygon fill="midnightblue" stroke="midnightblue" points="832.21,-191.95 841.95,-187.79 831.74,-184.97 832.21,-191.95"/>
</g>
<!-- Node11 -->
<g id="node11" class="node">
<title>Node11</title>
<g id="a_node11"><a xlink:href="classtklb_1_1_string.html#af160751fb9fbb7cba71b281db77ce9e5" target="_top" xlink:title=" ">
<polygon fill="none" stroke="black" points="842.5,-137 842.5,-156 940.5,-156 940.5,-137 842.5,-137"/>
<text text-anchor="middle" x="891.5" y="-144" font-family="Helvetica,sans-Serif" font-size="10.00">tklb::String::data</text>
</a>
</g>
</g>
<!-- Node4&#45;&gt;Node11 -->
<g id="edge10" class="edge">
<title>Node4&#45;&gt;Node11</title>
<path fill="none" stroke="midnightblue" d="M627.11,-194.36C639.01,-192.05 651.39,-189.68 663,-187.5 720.39,-176.74 786.03,-164.96 832.01,-156.81"/>
<polygon fill="midnightblue" stroke="midnightblue" points="832.85,-160.21 842.09,-155.02 831.63,-153.32 832.85,-160.21"/>
</g>
<!-- Node12 -->
<g id="node12" class="node">
<title>Node12</title>
<g id="a_node12"><a xlink:href="classvae_1_1core_1_1_bank_loader.html#ac042f4214d94fbf928eb6c34689b7549" target="_top" xlink:title=" ">
<polygon fill="none" stroke="black" points="667.5,-3.5 667.5,-33.5 792.5,-33.5 792.5,-3.5 667.5,-3.5"/>
<text text-anchor="start" x="675.5" y="-21.5" font-family="Helvetica,sans-Serif" font-size="10.00">vae::core::BankLoader</text>
<text text-anchor="middle" x="730" y="-10.5" font-family="Helvetica,sans-Serif" font-size="10.00">::deallocate</text>
</a>
</g>
</g>
<!-- Node4&#45;&gt;Node12 -->
<g id="edge11" class="edge">
<title>Node4&#45;&gt;Node12</title>
<path fill="none" stroke="midnightblue" d="M571.99,-191.22C585.26,-161.44 618.1,-94.95 663,-53.5 669.03,-47.93 676.11,-42.98 683.36,-38.68"/>
<polygon fill="midnightblue" stroke="midnightblue" points="685.51,-41.49 692.55,-33.58 682.11,-35.36 685.51,-41.49"/>
</g>
<!-- Node14 -->
<g id="node14" class="node">
<title>Node14</title>
<g id="a_node14"><a xlink:href="structvae_1_1core_1_1_source_loader.html#a7b5866ab44cf2f34a15f3a62b40fe4f4" target="_top" xlink:title="Loads a wav file for the resource.">
<polygon fill="none" stroke="black" points="663,-213.5 663,-243.5 797,-243.5 797,-213.5 663,-213.5"/>
<text text-anchor="start" x="671" y="-231.5" font-family="Helvetica,sans-Serif" font-size="10.00">vae::core::SourceLoader</text>
<text text-anchor="middle" x="730" y="-220.5" font-family="Helvetica,sans-Serif" font-size="10.00">::load</text>
</a>
</g>
</g>
<!-- Node4&#45;&gt;Node14 -->
<g id="edge13" class="edge">
<title>Node4&#45;&gt;Node14</title>
<path fill="none" stroke="midnightblue" d="M627.31,-214.82C635.63,-215.94 644.24,-217.1 652.78,-218.24"/>
<polygon fill="midnightblue" stroke="midnightblue" points="652.36,-221.72 662.73,-219.58 653.29,-214.78 652.36,-221.72"/>
</g>
<!-- Node15 -->
<g id="node15" class="node">
<title>Node15</title>
<g id="a_node15"><a xlink:href="classvae_1_1core_1_1fs_1_1_file.html#a9b11ebabdce39848566a1bf4b225d7c2" target="_top" xlink:title=" ">
<polygon fill="none" stroke="black" points="841.5,-49.5 841.5,-79.5 941.5,-79.5 941.5,-49.5 841.5,-49.5"/>
<text text-anchor="start" x="849.5" y="-67.5" font-family="Helvetica,sans-Serif" font-size="10.00">vae::core::fs::File</text>
<text text-anchor="middle" x="891.5" y="-56.5" font-family="Helvetica,sans-Serif" font-size="10.00">::readAll</text>
</a>
</g>
</g>
<!-- Node4&#45;&gt;Node15 -->
<g id="edge24" class="edge">
<title>Node4&#45;&gt;Node15</title>
<path fill="none" stroke="midnightblue" d="M573.67,-191.45C588.08,-166.56 620.53,-117.31 663,-94.5 714.99,-66.58 782.99,-60.93 831.06,-61.12"/>
<polygon fill="midnightblue" stroke="midnightblue" points="831.26,-64.62 841.3,-61.25 831.35,-57.62 831.26,-64.62"/>
</g>
<!-- Node16 -->
<g id="node16" class="node">
<title>Node16</title>
<g id="a_node16"><a xlink:href="classvae_1_1core_1_1fs_1_1_file.html#a01e51acff408d0449c1b524c40596470" target="_top" xlink:title=" ">
<polygon fill="none" stroke="black" points="986,-93.5 986,-123.5 1086,-123.5 1086,-93.5 986,-93.5"/>
<text text-anchor="start" x="994" y="-111.5" font-family="Helvetica,sans-Serif" font-size="10.00">vae::core::fs::File</text>
<text text-anchor="middle" x="1036" y="-100.5" font-family="Helvetica,sans-Serif" font-size="10.00">::size</text>
</a>
</g>
</g>
<!-- Node4&#45;&gt;Node16 -->
<g id="edge27" class="edge">
<title>Node4&#45;&gt;Node16</title>
<path fill="none" stroke="midnightblue" d="M592.9,-191.31C612.04,-181.27 638.45,-168.53 663,-160.5 769.69,-125.58 901.12,-114.11 975.76,-110.34"/>
<polygon fill="midnightblue" stroke="midnightblue" points="976.08,-113.83 985.91,-109.86 975.75,-106.84 976.08,-113.83"/>
</g>
<!-- Node19 -->
<g id="node19" class="node">
<title>Node19</title>
<g id="a_node19"><a xlink:href="classtklb_1_1_string.html#a6106e1733cc6c09b98bd203f8a9a2653" target="_top" xlink:title=" ">
<polygon fill="none" stroke="black" points="677.5,-365 677.5,-384 782.5,-384 782.5,-365 677.5,-365"/>
<text text-anchor="middle" x="730" y="-372" font-family="Helvetica,sans-Serif" font-size="10.00">tklb::String::resize</text>
</a>
</g>
</g>
<!-- Node4&#45;&gt;Node19 -->
<g id="edge25" class="edge">
<title>Node4&#45;&gt;Node19</title>
<path fill="none" stroke="midnightblue" d="M577.45,-221.63C595.19,-243.77 629.98,-285.9 663,-318.5 677.39,-332.7 694.88,-347.44 708.24,-358.23"/>
<polygon fill="midnightblue" stroke="midnightblue" points="706.35,-361.21 716.35,-364.71 710.72,-355.74 706.35,-361.21"/>
</g>
<!-- Node6 -->
<g id="node6" class="node">
<title>Node6</title>
<g id="a_node6"><a xlink:href="structvae_1_1core_1_1memory_1_1_allocator.html#ab9d50dc662897c7fe691368feffa2f98" target="_top" xlink:title=" ">
<polygon fill="none" stroke="black" points="834,-441.5 834,-471.5 949,-471.5 949,-441.5 834,-441.5"/>
<text text-anchor="start" x="842" y="-459.5" font-family="Helvetica,sans-Serif" font-size="10.00">vae::core::memory::</text>
<text text-anchor="middle" x="891.5" y="-448.5" font-family="Helvetica,sans-Serif" font-size="10.00">Allocator::allocate</text>
</a>
</g>
</g>
<!-- Node5&#45;&gt;Node6 -->
<g id="edge5" class="edge">
<title>Node5&#45;&gt;Node6</title>
<path fill="none" stroke="midnightblue" d="M792.67,-456.5C802.86,-456.5 813.46,-456.5 823.77,-456.5"/>
<polygon fill="midnightblue" stroke="midnightblue" points="823.95,-460 833.95,-456.5 823.95,-453 823.95,-460"/>
</g>
<!-- Node7 -->
<g id="node7" class="node">
<title>Node7</title>
<g id="a_node7"><a xlink:href="namespacetklb.html#a7dc2203e89c331e3c85b9e7f16fa6763" target="_top" xlink:title=" ">
<polygon fill="none" stroke="black" points="1004.5,-447 1004.5,-466 1067.5,-466 1067.5,-447 1004.5,-447"/>
<text text-anchor="middle" x="1036" y="-454" font-family="Helvetica,sans-Serif" font-size="10.00">tklb::max</text>
</a>
</g>
</g>
<!-- Node6&#45;&gt;Node7 -->
<g id="edge6" class="edge">
<title>Node6&#45;&gt;Node7</title>
<path fill="none" stroke="midnightblue" d="M949.23,-456.5C964.2,-456.5 980.06,-456.5 994.01,-456.5"/>
<polygon fill="midnightblue" stroke="midnightblue" points="994.27,-460 1004.27,-456.5 994.27,-453 994.27,-460"/>
</g>
<!-- Node8&#45;&gt;Node9 -->
<g id="edge8" class="edge">
<title>Node8&#45;&gt;Node9</title>
<path fill="none" stroke="midnightblue" d="M947.59,-336.5C957.59,-336.5 968.04,-336.5 978.09,-336.5"/>
<polygon fill="midnightblue" stroke="midnightblue" points="978.38,-340 988.38,-336.5 978.38,-333 978.38,-340"/>
</g>
<!-- Node13 -->
<g id="node13" class="node">
<title>Node13</title>
<g id="a_node13"><a xlink:href="structvae_1_1core_1_1memory_1_1_allocator.html#ad43fb821d811e939ff461747efcaca6e" target="_top" xlink:title=" ">
<polygon fill="none" stroke="black" points="833,-0.5 833,-30.5 950,-30.5 950,-0.5 833,-0.5"/>
<text text-anchor="start" x="841" y="-18.5" font-family="Helvetica,sans-Serif" font-size="10.00">vae::core::memory::</text>
<text text-anchor="middle" x="891.5" y="-7.5" font-family="Helvetica,sans-Serif" font-size="10.00">Allocator::deallocate</text>
</a>
</g>
</g>
<!-- Node12&#45;&gt;Node13 -->
<g id="edge12" class="edge">
<title>Node12&#45;&gt;Node13</title>
<path fill="none" stroke="midnightblue" d="M792.67,-17.34C802.49,-17.16 812.7,-16.96 822.66,-16.78"/>
<polygon fill="midnightblue" stroke="midnightblue" points="822.99,-20.27 832.92,-16.58 822.85,-13.27 822.99,-20.27"/>
</g>
<!-- Node14&#45;&gt;Node8 -->
<g id="edge14" class="edge">
<title>Node14&#45;&gt;Node8</title>
<path fill="none" stroke="midnightblue" d="M746.49,-243.76C765.58,-261.94 799.59,-292.38 833,-312.5 839.43,-316.38 846.61,-319.91 853.65,-323.01"/>
<polygon fill="midnightblue" stroke="midnightblue" points="852.5,-326.33 863.08,-326.96 855.21,-319.87 852.5,-326.33"/>
</g>
<!-- Node14&#45;&gt;Node9 -->
<g id="edge23" class="edge">
<title>Node14&#45;&gt;Node9</title>
<path fill="none" stroke="midnightblue" d="M757.64,-243.56C777.86,-254.56 806.6,-269.28 833,-279.5 882.6,-298.7 941.31,-314.54 982.61,-324.6"/>
<polygon fill="midnightblue" stroke="midnightblue" points="981.92,-328.04 992.46,-326.97 983.56,-321.23 981.92,-328.04"/>
</g>
<!-- Node14&#45;&gt;Node10 -->
<g id="edge15" class="edge">
<title>Node14&#45;&gt;Node10</title>
<path fill="none" stroke="midnightblue" d="M785.44,-213.48C805.18,-208.04 827.22,-201.96 846,-196.78"/>
<polygon fill="midnightblue" stroke="midnightblue" points="847.07,-200.11 855.78,-194.08 845.21,-193.36 847.07,-200.11"/>
</g>
<!-- Node14&#45;&gt;Node11 -->
<g id="edge16" class="edge">
<title>Node14&#45;&gt;Node11</title>
<path fill="none" stroke="midnightblue" d="M752.06,-213.45C772.13,-199.61 803.57,-179.22 833,-165.5 837.65,-163.33 842.61,-161.3 847.6,-159.44"/>
<polygon fill="midnightblue" stroke="midnightblue" points="848.89,-162.69 857.15,-156.05 846.55,-156.09 848.89,-162.69"/>
</g>
<!-- Node14&#45;&gt;Node15 -->
<g id="edge17" class="edge">
<title>Node14&#45;&gt;Node15</title>
<path fill="none" stroke="midnightblue" d="M745.72,-213.37C773.85,-184.44 835.38,-121.17 868.44,-87.18"/>
<polygon fill="midnightblue" stroke="midnightblue" points="871.35,-89.21 875.82,-79.6 866.33,-84.33 871.35,-89.21"/>
</g>
<!-- Node14&#45;&gt;Node16 -->
<g id="edge22" class="edge">
<title>Node14&#45;&gt;Node16</title>
<path fill="none" stroke="midnightblue" d="M797.3,-232.92C842.68,-233.17 902.92,-227.85 950,-203.5 981.1,-187.42 1006.22,-154.93 1020.88,-132.46"/>
<polygon fill="midnightblue" stroke="midnightblue" points="1023.96,-134.14 1026.33,-123.81 1018.04,-130.4 1023.96,-134.14"/>
</g>
<!-- Node18 -->
<g id="node18" class="node">
<title>Node18</title>
<g id="a_node18"><a xlink:href="classtklb_1_1_string.html#a13d38526ab9032342f2d3ced3e6062a9" target="_top" xlink:title=" ">
<polygon fill="none" stroke="black" points="835,-251 835,-270 948,-270 948,-251 835,-251"/>
<text text-anchor="middle" x="891.5" y="-258" font-family="Helvetica,sans-Serif" font-size="10.00">tklb::String::reserve</text>
</a>
</g>
</g>
<!-- Node14&#45;&gt;Node18 -->
<g id="edge20" class="edge">
<title>Node14&#45;&gt;Node18</title>
<path fill="none" stroke="midnightblue" d="M797.26,-241.79C809.04,-244.16 821.23,-246.6 832.75,-248.91"/>
<polygon fill="midnightblue" stroke="midnightblue" points="832.19,-252.37 842.68,-250.91 833.56,-245.51 832.19,-252.37"/>
</g>
<!-- Node15&#45;&gt;Node16 -->
<g id="edge18" class="edge">
<title>Node15&#45;&gt;Node16</title>
<path fill="none" stroke="midnightblue" d="M941.14,-79.52C952.48,-83.02 964.67,-86.78 976.39,-90.4"/>
<polygon fill="midnightblue" stroke="midnightblue" points="975.51,-93.79 986.09,-93.4 977.57,-87.1 975.51,-93.79"/>
</g>
<!-- Node17 -->
<g id="node17" class="node">
<title>Node17</title>
<g id="a_node17"><a xlink:href="vae__fs_8hpp.html#a82978d110bb709013681115bb44e48ae" target="_top" xlink:title=" ">
<polygon fill="none" stroke="black" points="994.5,-55 994.5,-74 1077.5,-74 1077.5,-55 994.5,-55"/>
<text text-anchor="middle" x="1036" y="-62" font-family="Helvetica,sans-Serif" font-size="10.00">vae_file_read</text>
</a>
</g>
</g>
<!-- Node15&#45;&gt;Node17 -->
<g id="edge19" class="edge">
<title>Node15&#45;&gt;Node17</title>
<path fill="none" stroke="midnightblue" d="M941.54,-64.5C955.27,-64.5 970.22,-64.5 984.06,-64.5"/>
<polygon fill="midnightblue" stroke="midnightblue" points="984.38,-68 994.38,-64.5 984.38,-61 984.38,-68"/>
</g>
<!-- Node18&#45;&gt;Node9 -->
<g id="edge21" class="edge">
<title>Node18&#45;&gt;Node9</title>
<path fill="none" stroke="midnightblue" d="M917.79,-270.08C927.96,-274.18 939.69,-279.24 950,-284.5 971.84,-295.65 995.55,-310.4 1012.37,-321.34"/>
<polygon fill="midnightblue" stroke="midnightblue" points="1010.67,-324.41 1020.95,-326.98 1014.51,-318.56 1010.67,-324.41"/>
</g>
<!-- Node19&#45;&gt;Node9 -->
<g id="edge26" class="edge">
<title>Node19&#45;&gt;Node9</title>
<path fill="none" stroke="midnightblue" d="M782.56,-371.97C827.09,-369.33 893.05,-364.3 950,-355.5 962.26,-353.61 975.39,-350.98 987.57,-348.27"/>
<polygon fill="midnightblue" stroke="midnightblue" points="988.57,-351.64 997.55,-346 987.02,-344.81 988.57,-351.64"/>
</g>
</g>
</svg>
        <g id="navigator" transform="translate(0 0)" fill="#404254">
                <rect fill="#f2f5e9" fill-opacity="0.5" stroke="#606060" stroke-width=".5" x="0" y="0" width="60" height="60"/>
                <use id="zoomplus" xlink:href="#zoomPlus" x="17" y="9" onmousedown="handleZoom(evt,'in')"/>
                <use id="zoomminus" xlink:href="#zoomMin" x="42" y="9" onmousedown="handleZoom(evt,'out')"/>
                <use id="reset" xlink:href="#resetDef" x="30" y="36" onmousedown="handleReset()"/>
                <g id="arrowUp" xlink:href="#dirArrow" transform="translate(30 24)" onmousedown="handlePan(0,-1)">
                  <use xlink:href="#rim" fill="#404040">
                        <set attributeName="fill" to="#808080" begin="arrowUp.mouseover" end="arrowUp.mouseout"/>
                  </use>
                  <path fill="none" stroke="white" stroke-width="1.5" d="M0,-3.0v7 M-2.5,-0.5L0,-3.0L2.5,-0.5"/>
                </g>
                <g id="arrowRight" xlink:href="#dirArrow" transform="rotate(90) translate(36 -43)" onmousedown="handlePan(1,0)">
                  <use xlink:href="#rim" fill="#404040">
                        <set attributeName="fill" to="#808080" begin="arrowRight.mouseover" end="arrowRight.mouseout"/>
                  </use>
                  <path fill="none" stroke="white" stroke-width="1.5" d="M0,-3.0v7 M-2.5,-0.5L0,-3.0L2.5,-0.5"/>
                </g>
                <g id="arrowDown" xlink:href="#dirArrow" transform="rotate(180) translate(-30 -48)" onmousedown="handlePan(0,1)">
                  <use xlink:href="#rim" fill="#404040">
                        <set attributeName="fill" to="#808080" begin="arrowDown.mouseover" end="arrowDown.mouseout"/>
                  </use>
                  <path fill="none" stroke="white" stroke-width="1.5" d="M0,-3.0v7 M-2.5,-0.5L0,-3.0L2.5,-0.5"/>
                </g>
                <g id="arrowLeft" xlink:href="#dirArrow" transform="rotate(270) translate(-36 17)" onmousedown="handlePan(-1,0)">
                  <use xlink:href="#rim" fill="#404040">
                        <set attributeName="fill" to="#808080" begin="arrowLeft.mouseover" end="arrowLeft.mouseout"/>
                  </use>
                  <path fill="none" stroke="white" stroke-width="1.5" d="M0,-3.0v7 M-2.5,-0.5L0,-3.0L2.5,-0.5"/>
                </g>
        </g>
        <svg viewBox="0 0 15 15" width="100%" height="30px" preserveAspectRatio="xMaxYMin meet">
         <g id="arrow_out" transform="scale(0.3 0.3)">
          <a xlink:href="classvae_1_1_engine_pimpl_a1843b334cf225ba8b3f85c0c64fd78bb_cgraph_org.svg" target="_base">
           <rect id="button" ry="5" rx="5" y="6" x="6" height="38" width="38"
                fill="#f2f5e9" fill-opacity="0.5" stroke="#606060" stroke-width="1.0"/>
           <path id="arrow"
             d="M 11.500037,31.436501 C 11.940474,20.09759 22.043105,11.32322 32.158766,21.979434 L 37.068811,17.246167 C 37.068811,17.246167 37.088388,32 37.088388,32 L 22.160133,31.978069 C 22.160133,31.978069 26.997745,27.140456 26.997745,27.140456 C 18.528582,18.264221 13.291696,25.230495 11.500037,31.436501 z"
             style="fill:#404040;"/>
          </a>
         </g>
        </svg>
</svg>
