<?xml version="1.0" encoding="UTF-8" standalone="no"?>
<!DOCTYPE svg PUBLIC "-//W3C//DTD SVG 1.1//EN"
 "http://www.w3.org/Graphics/SVG/1.1/DTD/svg11.dtd">
<!-- Generated by graphviz version 2.50.0 (0)
 -->
<!-- Title: tklb::AudioRingBufferTpl::pop Pages: 1 -->
<svg width="683pt" height="154pt"
 viewBox="0.00 0.00 683.00 153.50" xmlns="http://www.w3.org/2000/svg" xmlns:xlink="http://www.w3.org/1999/xlink">
<g id="graph0" class="graph" transform="scale(1 1) rotate(0) translate(4 149.5)">
<title>tklb::AudioRingBufferTpl::pop</title>
<!-- Node1 -->
<g id="node1" class="node">
<title>Node1</title>
<g id="a_node1"><a xlink:title="Pops a number of elements in the buffer provided.">
<polygon fill="#bfbfbf" stroke="black" points="0,-44 0,-63 160,-63 160,-44 0,-44"/>
<text text-anchor="middle" x="80" y="-51" font-family="Helvetica,sans-Serif" font-size="10.00">tklb::AudioRingBufferTpl::pop</text>
</a>
</g>
</g>
<!-- Node2 -->
<g id="node2" class="node">
<title>Node2</title>
<g id="a_node2"><a xlink:href="classtklb_1_1_audio_ring_buffer_tpl.html#a376759b29135ae4deeaa61eca9a0ea4e" target="_top" xlink:title="Puts a number of elements in the buffer provided.">
<polygon fill="none" stroke="black" points="196,-38.5 196,-68.5 332,-68.5 332,-38.5 196,-38.5"/>
<text text-anchor="start" x="204" y="-56.5" font-family="Helvetica,sans-Serif" font-size="10.00">tklb::AudioRingBufferTpl</text>
<text text-anchor="middle" x="264" y="-45.5" font-family="Helvetica,sans-Serif" font-size="10.00">::peek</text>
</a>
</g>
</g>
<!-- Node1&#45;&gt;Node2 -->
<g id="edge1" class="edge">
<title>Node1&#45;&gt;Node2</title>
<path fill="none" stroke="midnightblue" d="M160.03,-53.5C168.49,-53.5 177.09,-53.5 185.53,-53.5"/>
<polygon fill="midnightblue" stroke="midnightblue" points="185.72,-57 195.72,-53.5 185.72,-50 185.72,-57"/>
</g>
<!-- Node3 -->
<g id="node3" class="node">
<title>Node3</title>
<g id="a_node3"><a xlink:href="classtklb_1_1_audio_buffer_tpl.html#ab6e5250746ca3784a568591a3ffdbc12" target="_top" xlink:title="Set a single channel from an array.">
<polygon fill="none" stroke="black" points="368,-88 368,-107 503,-107 503,-88 368,-88"/>
<text text-anchor="middle" x="435.5" y="-95" font-family="Helvetica,sans-Serif" font-size="10.00">tklb::AudioBufferTpl::set</text>
</a>
</g>
</g>
<!-- Node2&#45;&gt;Node3 -->
<g id="edge2" class="edge">
<title>Node2&#45;&gt;Node3</title>
<path fill="none" stroke="midnightblue" d="M322.86,-68.52C344.11,-74.04 367.87,-80.2 388,-85.43"/>
<polygon fill="midnightblue" stroke="midnightblue" points="387.3,-88.86 397.86,-87.99 389.06,-82.09 387.3,-88.86"/>
</g>
<!-- Node7 -->
<g id="node7" class="node">
<title>Node7</title>
<g id="a_node7"><a xlink:href="classtklb_1_1_audio_buffer_tpl.html#af6df8d7e6840eee3f84807bd1662c3ed" target="_top" xlink:title="Returns the allocated length of the buffer.">
<polygon fill="none" stroke="black" points="550,-0.5 550,-30.5 664,-30.5 664,-0.5 550,-0.5"/>
<text text-anchor="start" x="558" y="-18.5" font-family="Helvetica,sans-Serif" font-size="10.00">tklb::AudioBufferTpl</text>
<text text-anchor="middle" x="607" y="-7.5" font-family="Helvetica,sans-Serif" font-size="10.00">::size</text>
</a>
</g>
</g>
<!-- Node2&#45;&gt;Node7 -->
<g id="edge10" class="edge">
<title>Node2&#45;&gt;Node7</title>
<path fill="none" stroke="midnightblue" d="M318.89,-38.45C334.61,-34.6 351.89,-30.87 368,-28.5 425.59,-20.01 491.76,-16.93 539.68,-15.87"/>
<polygon fill="midnightblue" stroke="midnightblue" points="540,-19.36 549.93,-15.67 539.86,-12.37 540,-19.36"/>
</g>
<!-- Node8 -->
<g id="node8" class="node">
<title>Node8</title>
<g id="a_node8"><a xlink:href="classtklb_1_1_audio_buffer_tpl.html#ab4e27a0d2eca612dcfc2a6a1c8678428" target="_top" xlink:title="Set the amount of valid samples currently in the buffer This is mostly a convenience flag since the a...">
<polygon fill="none" stroke="black" points="378.5,-38.5 378.5,-68.5 492.5,-68.5 492.5,-38.5 378.5,-38.5"/>
<text text-anchor="start" x="386.5" y="-56.5" font-family="Helvetica,sans-Serif" font-size="10.00">tklb::AudioBufferTpl</text>
<text text-anchor="middle" x="435.5" y="-45.5" font-family="Helvetica,sans-Serif" font-size="10.00">::setValidSize</text>
</a>
</g>
</g>
<!-- Node2&#45;&gt;Node8 -->
<g id="edge7" class="edge">
<title>Node2&#45;&gt;Node8</title>
<path fill="none" stroke="midnightblue" d="M332.48,-53.5C344.26,-53.5 356.51,-53.5 368.25,-53.5"/>
<polygon fill="midnightblue" stroke="midnightblue" points="368.43,-57 378.43,-53.5 368.43,-50 368.43,-57"/>
</g>
<!-- Node4 -->
<g id="node4" class="node">
<title>Node4</title>
<g id="a_node4"><a xlink:href="namespacetklb_1_1memory.html#ab89ec197028f903f4ea125eae46c4a10" target="_top" xlink:title="memcpy wrapper">
<polygon fill="none" stroke="black" points="551,-126 551,-145 663,-145 663,-126 551,-126"/>
<text text-anchor="middle" x="607" y="-133" font-family="Helvetica,sans-Serif" font-size="10.00">tklb::memory::copy</text>
</a>
</g>
</g>
<!-- Node3&#45;&gt;Node4 -->
<g id="edge3" class="edge">
<title>Node3&#45;&gt;Node4</title>
<path fill="none" stroke="midnightblue" d="M479.27,-107.09C501.84,-112.15 529.72,-118.4 553.58,-123.75"/>
<polygon fill="midnightblue" stroke="midnightblue" points="553.01,-127.21 563.54,-125.98 554.54,-120.38 553.01,-127.21"/>
</g>
<!-- Node5 -->
<g id="node5" class="node">
<title>Node5</title>
<g id="a_node5"><a xlink:href="classtklb_1_1_audio_buffer_tpl.html#aee0540e90ae2790f9a809917bc5a04fd" target="_top" xlink:title=" ">
<polygon fill="none" stroke="black" points="539,-88 539,-107 675,-107 675,-88 539,-88"/>
<text text-anchor="middle" x="607" y="-95" font-family="Helvetica,sans-Serif" font-size="10.00">tklb::AudioBufferTpl::get</text>
</a>
</g>
</g>
<!-- Node3&#45;&gt;Node5 -->
<g id="edge4" class="edge">
<title>Node3&#45;&gt;Node5</title>
<path fill="none" stroke="midnightblue" d="M503,-97.5C511.47,-97.5 520.19,-97.5 528.81,-97.5"/>
<polygon fill="midnightblue" stroke="midnightblue" points="528.85,-101 538.85,-97.5 528.85,-94 528.85,-101"/>
</g>
<!-- Node6 -->
<g id="node6" class="node">
<title>Node6</title>
<g id="a_node6"><a xlink:href="namespacetklb.html#a3080595da18d742645ec41d61828a426" target="_top" xlink:title=" ">
<polygon fill="none" stroke="black" points="577,-50 577,-69 637,-69 637,-50 577,-50"/>
<text text-anchor="middle" x="607" y="-57" font-family="Helvetica,sans-Serif" font-size="10.00">tklb::min</text>
</a>
</g>
</g>
<!-- Node3&#45;&gt;Node6 -->
<g id="edge5" class="edge">
<title>Node3&#45;&gt;Node6</title>
<path fill="none" stroke="midnightblue" d="M479.27,-87.91C506.2,-81.87 540.69,-74.14 566.89,-68.27"/>
<polygon fill="midnightblue" stroke="midnightblue" points="567.85,-71.64 576.84,-66.04 566.32,-64.81 567.85,-71.64"/>
</g>
<!-- Node3&#45;&gt;Node7 -->
<g id="edge6" class="edge">
<title>Node3&#45;&gt;Node7</title>
<path fill="none" stroke="midnightblue" d="M482.22,-87.96C489.45,-85.47 496.64,-82.36 503,-78.5 522.89,-66.43 519.6,-53.34 539,-40.5 541.94,-38.56 545.04,-36.74 548.25,-35.04"/>
<polygon fill="midnightblue" stroke="midnightblue" points="550.01,-38.07 557.48,-30.56 546.95,-31.78 550.01,-38.07"/>
</g>
<!-- Node8&#45;&gt;Node6 -->
<g id="edge8" class="edge">
<title>Node8&#45;&gt;Node6</title>
<path fill="none" stroke="midnightblue" d="M492.94,-55.5C517.11,-56.35 544.74,-57.33 566.64,-58.11"/>
<polygon fill="midnightblue" stroke="midnightblue" points="566.77,-61.61 576.89,-58.47 567.02,-54.62 566.77,-61.61"/>
</g>
<!-- Node8&#45;&gt;Node7 -->
<g id="edge9" class="edge">
<title>Node8&#45;&gt;Node7</title>
<path fill="none" stroke="midnightblue" d="M492.94,-40.85C507.95,-37.48 524.3,-33.82 539.78,-30.35"/>
<polygon fill="midnightblue" stroke="midnightblue" points="540.81,-33.7 549.81,-28.1 539.28,-26.87 540.81,-33.7"/>
</g>
</g>
</svg>
