<?xml version="1.0" encoding="UTF-8" standalone="no"?>
<!DOCTYPE svg PUBLIC "-//W3C//DTD SVG 1.1//EN"
 "http://www.w3.org/Graphics/SVG/1.1/DTD/svg11.dtd">
<!-- Generated by graphviz version 2.50.0 (0)
 -->
<!-- Title: vae::core::VoiceManger::stopEmitter Pages: 1 -->
<svg width="480pt" height="88pt"
 viewBox="0.00 0.00 480.00 88.00" xmlns="http://www.w3.org/2000/svg" xmlns:xlink="http://www.w3.org/1999/xlink">
<g id="graph0" class="graph" transform="scale(1 1) rotate(0) translate(4 84)">
<title>vae::core::VoiceManger::stopEmitter</title>
<!-- Node1 -->
<g id="node1" class="node">
<title>Node1</title>
<g id="a_node1"><a xlink:title="Stop all voice from a emitter.">
<polygon fill="#bfbfbf" stroke="black" points="343,-24.5 343,-54.5 472,-54.5 472,-24.5 343,-24.5"/>
<text text-anchor="start" x="351" y="-42.5" font-family="Helvetica,sans-Serif" font-size="10.00">vae::core::VoiceManger</text>
<text text-anchor="middle" x="407.5" y="-31.5" font-family="Helvetica,sans-Serif" font-size="10.00">::stopEmitter</text>
</a>
</g>
</g>
<!-- Node2 -->
<g id="node2" class="node">
<title>Node2</title>
<g id="a_node2"><a xlink:href="classvae_1_1core_1_1_engine.html#abb865b15d89996cc1fe51bcd9089443f" target="_top" xlink:title=" ">
<polygon fill="none" stroke="black" points="200,-49.5 200,-79.5 307,-79.5 307,-49.5 200,-49.5"/>
<text text-anchor="start" x="208" y="-67.5" font-family="Helvetica,sans-Serif" font-size="10.00">vae::core::Engine::</text>
<text text-anchor="middle" x="253.5" y="-56.5" font-family="Helvetica,sans-Serif" font-size="10.00">removeEmitter</text>
</a>
</g>
</g>
<!-- Node1&#45;&gt;Node2 -->
<g id="edge1" class="edge">
<title>Node1&#45;&gt;Node2</title>
<path fill="none" stroke="midnightblue" d="M332.83,-51.62C324.19,-53.04 315.51,-54.47 307.24,-55.83"/>
<polygon fill="midnightblue" stroke="midnightblue" points="333.62,-55.03 342.92,-49.96 332.48,-48.13 333.62,-55.03"/>
</g>
<!-- Node4 -->
<g id="node4" class="node">
<title>Node4</title>
<g id="a_node4"><a xlink:href="classvae_1_1core_1_1_engine.html#afbff0864c479d3e2d12ff92ab23429ae" target="_top" xlink:title="Stop all voices from emitter.">
<polygon fill="none" stroke="black" points="200,-0.5 200,-30.5 307,-30.5 307,-0.5 200,-0.5"/>
<text text-anchor="start" x="208" y="-18.5" font-family="Helvetica,sans-Serif" font-size="10.00">vae::core::Engine::</text>
<text text-anchor="middle" x="253.5" y="-7.5" font-family="Helvetica,sans-Serif" font-size="10.00">stopEmitter</text>
</a>
</g>
</g>
<!-- Node1&#45;&gt;Node4 -->
<g id="edge3" class="edge">
<title>Node1&#45;&gt;Node4</title>
<path fill="none" stroke="midnightblue" d="M332.83,-27.87C324.19,-26.5 315.51,-25.13 307.24,-23.83"/>
<polygon fill="midnightblue" stroke="midnightblue" points="332.5,-31.36 342.92,-29.46 333.59,-24.44 332.5,-31.36"/>
</g>
<!-- Node3 -->
<g id="node3" class="node">
<title>Node3</title>
<g id="a_node3"><a xlink:href="classvae_1_1_engine_pimpl.html#ac099c7622ce0ac5cf6b7bd78e79e5d27" target="_top" xlink:title=" ">
<polygon fill="none" stroke="black" points="9.5,-49.5 9.5,-79.5 154.5,-79.5 154.5,-49.5 9.5,-49.5"/>
<text text-anchor="start" x="17.5" y="-67.5" font-family="Helvetica,sans-Serif" font-size="10.00">vae::EnginePimpl::remove</text>
<text text-anchor="middle" x="82" y="-56.5" font-family="Helvetica,sans-Serif" font-size="10.00">Emitter</text>
</a>
</g>
</g>
<!-- Node2&#45;&gt;Node3 -->
<g id="edge2" class="edge">
<title>Node2&#45;&gt;Node3</title>
<path fill="none" stroke="midnightblue" d="M189.54,-64.5C178.18,-64.5 166.25,-64.5 154.66,-64.5"/>
<polygon fill="midnightblue" stroke="midnightblue" points="189.8,-68 199.8,-64.5 189.8,-61 189.8,-68"/>
</g>
<!-- Node5 -->
<g id="node5" class="node">
<title>Node5</title>
<g id="a_node5"><a xlink:href="classvae_1_1_engine_pimpl.html#add7390f50b78d7ace8ccebc9fa84f6bc" target="_top" xlink:title="Stop all voices from emitter.">
<polygon fill="none" stroke="black" points="0,-6 0,-25 164,-25 164,-6 0,-6"/>
<text text-anchor="middle" x="82" y="-13" font-family="Helvetica,sans-Serif" font-size="10.00">vae::EnginePimpl::stopEmitter</text>
</a>
</g>
</g>
<!-- Node4&#45;&gt;Node5 -->
<g id="edge4" class="edge">
<title>Node4&#45;&gt;Node5</title>
<path fill="none" stroke="midnightblue" d="M189.55,-15.5C181.31,-15.5 172.78,-15.5 164.3,-15.5"/>
<polygon fill="midnightblue" stroke="midnightblue" points="189.8,-19 199.8,-15.5 189.8,-12 189.8,-19"/>
</g>
</g>
</svg>
