<?xml version="1.0" encoding="UTF-8" standalone="no"?>
<!DOCTYPE svg PUBLIC "-//W3C//DTD SVG 1.1//EN"
 "http://www.w3.org/Graphics/SVG/1.1/DTD/svg11.dtd">
<!-- Generated by graphviz version 2.50.0 (0)
 -->
<!-- Title: tklb::HeapBuffer::injected Pages: 1 -->
<svg width="891pt" height="444pt"
 viewBox="0.00 0.00 891.00 443.50" xmlns="http://www.w3.org/2000/svg" xmlns:xlink="http://www.w3.org/1999/xlink">
<g id="graph0" class="graph" transform="scale(1 1) rotate(0) translate(4 439.5)">
<title>tklb::HeapBuffer::injected</title>
<!-- Node1 -->
<g id="node1" class="node">
<title>Node1</title>
<g id="a_node1"><a xlink:title="Whether the memory is managed by the instance or is borrowed.">
<polygon fill="#bfbfbf" stroke="black" points="741,-120 741,-139 883,-139 883,-120 741,-120"/>
<text text-anchor="middle" x="812" y="-127" font-family="Helvetica,sans-Serif" font-size="10.00">tklb::HeapBuffer::injected</text>
</a>
</g>
</g>
<!-- Node2 -->
<g id="node2" class="node">
<title>Node2</title>
<g id="a_node2"><a xlink:href="classtklb_1_1_heap_buffer.html#a37d94fdca920347674a4048cdc28452d" target="_top" xlink:title="Allocated the exact size requsted and copies existing objects.">
<polygon fill="none" stroke="black" points="563,-206 563,-225 705,-225 705,-206 563,-206"/>
<text text-anchor="middle" x="634" y="-213" font-family="Helvetica,sans-Serif" font-size="10.00">tklb::HeapBuffer::allocate</text>
</a>
</g>
</g>
<!-- Node1&#45;&gt;Node2 -->
<g id="edge1" class="edge">
<title>Node1&#45;&gt;Node2</title>
<path fill="none" stroke="midnightblue" d="M782.49,-143.43C746.55,-160.99 685.71,-190.72 654.59,-205.93"/>
<polygon fill="midnightblue" stroke="midnightblue" points="784.04,-146.57 791.49,-139.03 780.97,-140.28 784.04,-146.57"/>
</g>
<!-- Node8 -->
<g id="node8" class="node">
<title>Node8</title>
<g id="a_node8"><a xlink:href="classtklb_1_1_heap_buffer.html#aea890defe7d21d9273e005464b04f784" target="_top" xlink:title="Resize the buffer If the memory is borrowed it will become unique and owned by this instance as soon ...">
<polygon fill="none" stroke="black" points="391,-176 391,-195 523,-195 523,-176 391,-176"/>
<text text-anchor="middle" x="457" y="-183" font-family="Helvetica,sans-Serif" font-size="10.00">tklb::HeapBuffer::resize</text>
</a>
</g>
</g>
<!-- Node1&#45;&gt;Node8 -->
<g id="edge19" class="edge">
<title>Node1&#45;&gt;Node8</title>
<path fill="none" stroke="midnightblue" d="M740.54,-140.68C675.39,-151.01 579.62,-166.21 518.03,-175.98"/>
<polygon fill="midnightblue" stroke="midnightblue" points="741.39,-144.09 750.72,-139.06 740.29,-137.17 741.39,-144.09"/>
</g>
<!-- Node12 -->
<g id="node12" class="node">
<title>Node12</title>
<g id="a_node12"><a xlink:href="classtklb_1_1_heap_buffer.html#aedbbae6aeac4dab858a9734d7c02d240" target="_top" xlink:title="Provide foreign memory to borrow.">
<polygon fill="none" stroke="black" points="205,-50 205,-69 335,-69 335,-50 205,-50"/>
<text text-anchor="middle" x="270" y="-57" font-family="Helvetica,sans-Serif" font-size="10.00">tklb::HeapBuffer::inject</text>
</a>
</g>
</g>
<!-- Node1&#45;&gt;Node12 -->
<g id="edge18" class="edge">
<title>Node1&#45;&gt;Node12</title>
<path fill="none" stroke="midnightblue" d="M730.79,-119.1C623.06,-105.14 433.78,-80.6 335.03,-67.8"/>
<polygon fill="midnightblue" stroke="midnightblue" points="730.59,-122.61 740.96,-120.42 731.49,-115.66 730.59,-122.61"/>
</g>
<!-- Node18 -->
<g id="node18" class="node">
<title>Node18</title>
<g id="a_node18"><a xlink:href="classtklb_1_1_heap_buffer.html#a833c723b6838bb28f7b6886d6df8b65c" target="_top" xlink:title=" ">
<polygon fill="none" stroke="black" points="218.5,-0.5 218.5,-30.5 321.5,-30.5 321.5,-0.5 218.5,-0.5"/>
<text text-anchor="start" x="226.5" y="-18.5" font-family="Helvetica,sans-Serif" font-size="10.00">tklb::HeapBuffer::</text>
<text text-anchor="middle" x="270" y="-7.5" font-family="Helvetica,sans-Serif" font-size="10.00">~HeapBuffer</text>
</a>
</g>
</g>
<!-- Node1&#45;&gt;Node18 -->
<g id="edge20" class="edge">
<title>Node1&#45;&gt;Node18</title>
<path fill="none" stroke="midnightblue" d="M777.35,-116.2C756.73,-108.44 729.63,-98.94 705,-92.5 568.4,-56.79 403.27,-32.56 321.69,-21.81"/>
<polygon fill="midnightblue" stroke="midnightblue" points="776.33,-119.56 786.92,-119.85 778.83,-113.02 776.33,-119.56"/>
</g>
<!-- Node3 -->
<g id="node3" class="node">
<title>Node3</title>
<g id="a_node3"><a xlink:href="classtklb_1_1_heap_buffer.html#a4cde91bbb793df74ff45d47398d478ad" target="_top" xlink:title="Push the object to the back of the buffer TODO tklb move version.">
<polygon fill="none" stroke="black" points="394,-296 394,-315 520,-315 520,-296 394,-296"/>
<text text-anchor="middle" x="457" y="-303" font-family="Helvetica,sans-Serif" font-size="10.00">tklb::HeapBuffer::push</text>
</a>
</g>
</g>
<!-- Node2&#45;&gt;Node3 -->
<g id="edge2" class="edge">
<title>Node2&#45;&gt;Node3</title>
<path fill="none" stroke="midnightblue" d="M605.28,-229.75C569.29,-248.27 507.42,-280.08 476.59,-295.94"/>
<polygon fill="midnightblue" stroke="midnightblue" points="606.98,-232.82 614.27,-225.13 603.78,-226.59 606.98,-232.82"/>
</g>
<!-- Node7 -->
<g id="node7" class="node">
<title>Node7</title>
<g id="a_node7"><a xlink:href="classtklb_1_1_heap_buffer.html#a326582325b9a8f06db3277db63a817c4" target="_top" xlink:title="Will make sure the desired space is allocated.">
<polygon fill="none" stroke="black" points="387,-334 387,-353 527,-353 527,-334 387,-334"/>
<text text-anchor="middle" x="457" y="-341" font-family="Helvetica,sans-Serif" font-size="10.00">tklb::HeapBuffer::reserve</text>
</a>
</g>
</g>
<!-- Node2&#45;&gt;Node7 -->
<g id="edge6" class="edge">
<title>Node2&#45;&gt;Node7</title>
<path fill="none" stroke="midnightblue" d="M620.54,-233.3C602.63,-257.55 567.29,-300.67 527,-324.5 520.48,-328.36 513.14,-331.46 505.76,-333.94"/>
<polygon fill="midnightblue" stroke="midnightblue" points="623.51,-235.16 626.53,-225.01 617.83,-231.07 623.51,-235.16"/>
</g>
<!-- Node2&#45;&gt;Node8 -->
<g id="edge7" class="edge">
<title>Node2&#45;&gt;Node8</title>
<path fill="none" stroke="midnightblue" d="M566.96,-204.18C549.39,-201.17 530.58,-197.94 513.62,-195.04"/>
<polygon fill="midnightblue" stroke="midnightblue" points="566.7,-207.69 577.15,-205.93 567.88,-200.79 566.7,-207.69"/>
</g>
<!-- Node4 -->
<g id="node4" class="node">
<title>Node4</title>
<g id="a_node4"><a xlink:href="classtklb_1_1_event_bus.html#a2d0bbc8013b6d7ea8ce782a95328f6f9" target="_top" xlink:title=" ">
<polygon fill="none" stroke="black" points="189,-378 189,-397 351,-397 351,-378 189,-378"/>
<text text-anchor="middle" x="270" y="-385" font-family="Helvetica,sans-Serif" font-size="10.00">tklb::EventBus::addSubscriber</text>
</a>
</g>
</g>
<!-- Node3&#45;&gt;Node4 -->
<g id="edge3" class="edge">
<title>Node3&#45;&gt;Node4</title>
<path fill="none" stroke="midnightblue" d="M397.02,-318.98C393.53,-320.62 390.15,-322.45 387,-324.5 365.82,-338.28 372.42,-355.1 351,-368.5 344.83,-372.36 337.94,-375.44 330.87,-377.89"/>
<polygon fill="midnightblue" stroke="midnightblue" points="398.58,-322.13 406.5,-315.09 395.92,-315.65 398.58,-322.13"/>
</g>
<!-- Node6 -->
<g id="node6" class="node">
<title>Node6</title>
<g id="a_node6"><a xlink:href="string_8cpp.html#ae66f6b31b5ad750f1fe042a706a4e3d4" target="_top" xlink:title=" ">
<polygon fill="none" stroke="black" points="249.5,-416 249.5,-435 290.5,-435 290.5,-416 249.5,-416"/>
<text text-anchor="middle" x="270" y="-423" font-family="Helvetica,sans-Serif" font-size="10.00">main</text>
</a>
</g>
</g>
<!-- Node3&#45;&gt;Node6 -->
<g id="edge5" class="edge">
<title>Node3&#45;&gt;Node6</title>
<path fill="none" stroke="midnightblue" d="M393.31,-319.82C391.09,-321.24 388.97,-322.79 387,-324.5 356.89,-350.53 381.57,-381.01 351,-406.5 334.01,-420.67 308.26,-424.65 290.6,-425.58"/>
<polygon fill="midnightblue" stroke="midnightblue" points="395.13,-322.82 402.3,-315.02 391.83,-316.64 395.13,-322.82"/>
</g>
<!-- Node5 -->
<g id="node5" class="node">
<title>Node5</title>
<g id="a_node5"><a xlink:href="classtklb_1_1_event_bus_1_1_subscription.html#a2d207145c91831a84c72acf78f4d7657" target="_top" xlink:title=" ">
<polygon fill="none" stroke="black" points="0,-372.5 0,-402.5 153,-402.5 153,-372.5 0,-372.5"/>
<text text-anchor="start" x="8" y="-390.5" font-family="Helvetica,sans-Serif" font-size="10.00">tklb::EventBus::Subscription</text>
<text text-anchor="middle" x="76.5" y="-379.5" font-family="Helvetica,sans-Serif" font-size="10.00">::Subscription</text>
</a>
</g>
</g>
<!-- Node4&#45;&gt;Node5 -->
<g id="edge4" class="edge">
<title>Node4&#45;&gt;Node5</title>
<path fill="none" stroke="midnightblue" d="M178.89,-387.5C170.33,-387.5 161.71,-387.5 153.3,-387.5"/>
<polygon fill="midnightblue" stroke="midnightblue" points="178.9,-391 188.9,-387.5 178.9,-384 178.9,-391"/>
</g>
<!-- Node9 -->
<g id="node9" class="node">
<title>Node9</title>
<g id="a_node9"><a xlink:href="classtklb_1_1_heap_buffer.html#ac595de86ab0e2f33c79034b9e64db0a8" target="_top" xlink:title="Clears the buffer but doesn&#39;t free the memory.">
<polygon fill="none" stroke="black" points="206.5,-138 206.5,-157 333.5,-157 333.5,-138 206.5,-138"/>
<text text-anchor="middle" x="270" y="-145" font-family="Helvetica,sans-Serif" font-size="10.00">tklb::HeapBuffer::clear</text>
</a>
</g>
</g>
<!-- Node8&#45;&gt;Node9 -->
<g id="edge8" class="edge">
<title>Node8&#45;&gt;Node9</title>
<path fill="none" stroke="midnightblue" d="M399.48,-173.89C373.17,-168.49 342.26,-162.14 317.35,-157.02"/>
<polygon fill="midnightblue" stroke="midnightblue" points="398.82,-177.33 409.32,-175.91 400.23,-170.47 398.82,-177.33"/>
</g>
<!-- Node10 -->
<g id="node10" class="node">
<title>Node10</title>
<g id="a_node10"><a xlink:href="classtklb_1_1_heap_buffer.html#a7f018ade21d320cf220186a52e256b93" target="_top" xlink:title="If T is a pointer type, delete will be called for all pointers in buffer and resize(0) is called.">
<polygon fill="none" stroke="black" points="200,-88.5 200,-118.5 340,-118.5 340,-88.5 200,-88.5"/>
<text text-anchor="start" x="208" y="-106.5" font-family="Helvetica,sans-Serif" font-size="10.00">tklb::HeapBuffer::destroy</text>
<text text-anchor="middle" x="270" y="-95.5" font-family="Helvetica,sans-Serif" font-size="10.00">Pointers</text>
</a>
</g>
</g>
<!-- Node8&#45;&gt;Node10 -->
<g id="edge9" class="edge">
<title>Node8&#45;&gt;Node10</title>
<path fill="none" stroke="midnightblue" d="M431.65,-170.51C410.79,-158.11 379.66,-140.62 351,-128.5 342.56,-124.93 333.42,-121.6 324.45,-118.61"/>
<polygon fill="midnightblue" stroke="midnightblue" points="430.09,-173.66 440.47,-175.82 433.7,-167.66 430.09,-173.66"/>
</g>
<!-- Node11 -->
<g id="node11" class="node">
<title>Node11</title>
<g id="a_node11"><a xlink:href="classtklb_1_1_heap_buffer.html#a219e440c13837426f4a9f03e12ad769e" target="_top" xlink:title="Setup the buffer with a size.">
<polygon fill="none" stroke="black" points="191,-340 191,-359 349,-359 349,-340 191,-340"/>
<text text-anchor="middle" x="270" y="-347" font-family="Helvetica,sans-Serif" font-size="10.00">tklb::HeapBuffer::HeapBuffer</text>
</a>
</g>
</g>
<!-- Node8&#45;&gt;Node11 -->
<g id="edge10" class="edge">
<title>Node8&#45;&gt;Node11</title>
<path fill="none" stroke="midnightblue" d="M443.97,-203.54C419.21,-240.48 363.75,-321.99 351,-330.5 345.18,-334.38 338.66,-337.48 331.92,-339.94"/>
<polygon fill="midnightblue" stroke="midnightblue" points="446.92,-205.44 449.57,-195.18 441.1,-201.55 446.92,-205.44"/>
</g>
<!-- Node8&#45;&gt;Node12 -->
<g id="edge11" class="edge">
<title>Node8&#45;&gt;Node12</title>
<path fill="none" stroke="midnightblue" d="M443.39,-167.71C425.57,-143.92 390.72,-102.11 351,-79.5 343.41,-75.18 334.9,-71.78 326.33,-69.11"/>
<polygon fill="midnightblue" stroke="midnightblue" points="440.63,-169.87 449.36,-175.87 446.28,-165.73 440.63,-169.87"/>
</g>
<!-- Node14 -->
<g id="node14" class="node">
<title>Node14</title>
<g id="a_node14"><a xlink:href="classtklb_1_1_convolver_mono_tpl.html#a67f9498b46370c1a273b47ccc4863e21" target="_top" xlink:title="Load a impulse response and prepare the convolution.">
<polygon fill="none" stroke="black" points="204,-290.5 204,-320.5 336,-320.5 336,-290.5 204,-290.5"/>
<text text-anchor="start" x="212" y="-308.5" font-family="Helvetica,sans-Serif" font-size="10.00">tklb::ConvolverMonoTpl</text>
<text text-anchor="middle" x="270" y="-297.5" font-family="Helvetica,sans-Serif" font-size="10.00">::load</text>
</a>
</g>
</g>
<!-- Node8&#45;&gt;Node14 -->
<g id="edge13" class="edge">
<title>Node8&#45;&gt;Node14</title>
<path fill="none" stroke="midnightblue" d="M441.41,-202.64C422.55,-223.79 387.74,-259.5 351,-280.5 344.3,-284.33 336.95,-287.64 329.5,-290.49"/>
<polygon fill="midnightblue" stroke="midnightblue" points="444.09,-204.89 448.05,-195.06 438.83,-200.28 444.09,-204.89"/>
</g>
<!-- Node15 -->
<g id="node15" class="node">
<title>Node15</title>
<g id="a_node15"><a xlink:href="namespacetklb_1_1ogg.html#a8a0c549ee31780a868d551ff5536c71e" target="_top" xlink:title="Decode ogg/vorbis from memory or file path.">
<polygon fill="none" stroke="black" points="227,-252 227,-271 313,-271 313,-252 227,-252"/>
<text text-anchor="middle" x="270" y="-259" font-family="Helvetica,sans-Serif" font-size="10.00">tklb::ogg::load</text>
</a>
</g>
</g>
<!-- Node8&#45;&gt;Node15 -->
<g id="edge14" class="edge">
<title>Node8&#45;&gt;Node15</title>
<path fill="none" stroke="midnightblue" d="M432.57,-200.56C411.84,-213.31 380.4,-231.26 351,-242.5 339,-247.09 325.55,-250.8 313.15,-253.68"/>
<polygon fill="midnightblue" stroke="midnightblue" points="434.67,-203.38 441.3,-195.11 430.96,-197.44 434.67,-203.38"/>
</g>
<!-- Node16 -->
<g id="node16" class="node">
<title>Node16</title>
<g id="a_node16"><a xlink:href="namespacetklb_1_1wave.html#aa283efa758de590bb8f167e32a1ba2a5" target="_top" xlink:title="Decode wav from memory or file path.">
<polygon fill="none" stroke="black" points="222.5,-214 222.5,-233 317.5,-233 317.5,-214 222.5,-214"/>
<text text-anchor="middle" x="270" y="-221" font-family="Helvetica,sans-Serif" font-size="10.00">tklb::wave::load</text>
</a>
</g>
</g>
<!-- Node8&#45;&gt;Node16 -->
<g id="edge15" class="edge">
<title>Node8&#45;&gt;Node16</title>
<path fill="none" stroke="midnightblue" d="M399.48,-197.11C373.17,-202.51 342.26,-208.86 317.35,-213.98"/>
<polygon fill="midnightblue" stroke="midnightblue" points="400.23,-200.53 409.32,-195.09 398.82,-193.67 400.23,-200.53"/>
</g>
<!-- Node17 -->
<g id="node17" class="node">
<title>Node17</title>
<g id="a_node17"><a xlink:href="classtklb_1_1_heap_buffer.html#a7a9a54468dbd1fe9b3dbf02fa2b574b4" target="_top" xlink:title="Set data from array.">
<polygon fill="none" stroke="black" points="211,-176 211,-195 329,-195 329,-176 211,-176"/>
<text text-anchor="middle" x="270" y="-183" font-family="Helvetica,sans-Serif" font-size="10.00">tklb::HeapBuffer::set</text>
</a>
</g>
</g>
<!-- Node8&#45;&gt;Node17 -->
<g id="edge16" class="edge">
<title>Node8&#45;&gt;Node17</title>
<path fill="none" stroke="midnightblue" d="M380.76,-185.5C363.56,-185.5 345.53,-185.5 329.17,-185.5"/>
<polygon fill="midnightblue" stroke="midnightblue" points="380.78,-189 390.78,-185.5 380.78,-182 380.78,-189"/>
</g>
<!-- Node8&#45;&gt;Node18 -->
<g id="edge17" class="edge">
<title>Node8&#45;&gt;Node18</title>
<path fill="none" stroke="midnightblue" d="M447.26,-166.46C432.09,-135.49 397.93,-74.25 351,-40.5 342.26,-34.21 331.89,-29.47 321.56,-25.91"/>
<polygon fill="midnightblue" stroke="midnightblue" points="444.21,-168.2 451.67,-175.73 450.53,-165.19 444.21,-168.2"/>
</g>
<!-- Node13 -->
<g id="node13" class="node">
<title>Node13</title>
<g id="a_node13"><a xlink:href="classtklb_1_1_heap_buffer.html#a320950100dd32e8bbf4f5118f41c4533" target="_top" xlink:title="Provide const foreign memory to use Using non const accessors will cause assertions in debug mode.">
<polygon fill="none" stroke="black" points="11.5,-50 11.5,-69 141.5,-69 141.5,-50 11.5,-50"/>
<text text-anchor="middle" x="76.5" y="-57" font-family="Helvetica,sans-Serif" font-size="10.00">tklb::HeapBuffer::inject</text>
</a>
</g>
</g>
<!-- Node12&#45;&gt;Node13 -->
<g id="edge12" class="edge">
<title>Node12&#45;&gt;Node13</title>
<path fill="none" stroke="midnightblue" d="M194.8,-59.5C177.31,-59.5 158.81,-59.5 141.8,-59.5"/>
<polygon fill="midnightblue" stroke="midnightblue" points="194.97,-63 204.97,-59.5 194.97,-56 194.97,-63"/>
</g>
</g>
</svg>
