<?xml version="1.0" encoding="UTF-8" standalone="no"?>
<!DOCTYPE svg PUBLIC "-//W3C//DTD SVG 1.1//EN"
 "http://www.w3.org/Graphics/SVG/1.1/DTD/svg11.dtd">
<!-- Generated by graphviz version 2.50.0 (0)
 -->
<!-- Title: vae::core::BankManager::addSource Pages: 1 -->
<svg width="842pt" height="280pt"
 viewBox="0.00 0.00 842.00 279.50" xmlns="http://www.w3.org/2000/svg" xmlns:xlink="http://www.w3.org/1999/xlink">
<g id="graph0" class="graph" transform="scale(1 1) rotate(0) translate(4 275.5)">
<title>vae::core::BankManager::addSource</title>
<!-- Node1 -->
<g id="node1" class="node">
<title>Node1</title>
<g id="a_node1"><a xlink:title=" ">
<polygon fill="#bfbfbf" stroke="black" points="0,-130 0,-160 134,-160 134,-130 0,-130"/>
<text text-anchor="start" x="8" y="-148" font-family="Helvetica,sans-Serif" font-size="10.00">vae::core::BankManager</text>
<text text-anchor="middle" x="67" y="-137" font-family="Helvetica,sans-Serif" font-size="10.00">::addSource</text>
</a>
</g>
</g>
<!-- Node2 -->
<g id="node2" class="node">
<title>Node2</title>
<g id="a_node2"><a xlink:href="classtklb_1_1_resampler_speex_tpl.html#aafe03dda374652f23a8020a7f975b8b4" target="_top" xlink:title="Resamples the provided buffer from its sampleRate to the target rate.">
<polygon fill="none" stroke="black" points="170,-130 170,-160 309,-160 309,-130 170,-130"/>
<text text-anchor="start" x="178" y="-148" font-family="Helvetica,sans-Serif" font-size="10.00">tklb::ResamplerSpeexTpl</text>
<text text-anchor="middle" x="239.5" y="-137" font-family="Helvetica,sans-Serif" font-size="10.00">::resample</text>
</a>
</g>
</g>
<!-- Node1&#45;&gt;Node2 -->
<g id="edge1" class="edge">
<title>Node1&#45;&gt;Node2</title>
<path fill="none" stroke="midnightblue" d="M134.41,-145C142.65,-145 151.14,-145 159.55,-145"/>
<polygon fill="midnightblue" stroke="midnightblue" points="159.74,-148.5 169.74,-145 159.74,-141.5 159.74,-148.5"/>
</g>
<!-- Node3 -->
<g id="node3" class="node">
<title>Node3</title>
<g id="a_node3"><a xlink:href="classtklb_1_1_resampler_speex_tpl.html#a65864672c63ce1be9a251232504d8dce" target="_top" xlink:title="Calculate a buffersize fit for the resampled result.">
<polygon fill="none" stroke="black" points="520,-241 520,-271 659,-271 659,-241 520,-241"/>
<text text-anchor="start" x="528" y="-259" font-family="Helvetica,sans-Serif" font-size="10.00">tklb::ResamplerSpeexTpl</text>
<text text-anchor="middle" x="589.5" y="-248" font-family="Helvetica,sans-Serif" font-size="10.00">::calculateBufferSize</text>
</a>
</g>
</g>
<!-- Node2&#45;&gt;Node3 -->
<g id="edge2" class="edge">
<title>Node2&#45;&gt;Node3</title>
<path fill="none" stroke="midnightblue" d="M268.23,-160.15C288.92,-170.99 318.13,-185.32 345,-195 398.88,-214.41 461.6,-229.97 509.89,-240.51"/>
<polygon fill="midnightblue" stroke="midnightblue" points="509.46,-244 519.97,-242.69 510.93,-237.16 509.46,-244"/>
</g>
<!-- Node5 -->
<g id="node5" class="node">
<title>Node5</title>
<g id="a_node5"><a xlink:href="namespacetklb_1_1memory.html#ab89ec197028f903f4ea125eae46c4a10" target="_top" xlink:title="memcpy wrapper">
<polygon fill="none" stroke="black" points="708.5,-0.5 708.5,-19.5 820.5,-19.5 820.5,-0.5 708.5,-0.5"/>
<text text-anchor="middle" x="764.5" y="-7.5" font-family="Helvetica,sans-Serif" font-size="10.00">tklb::memory::copy</text>
</a>
</g>
</g>
<!-- Node2&#45;&gt;Node5 -->
<g id="edge4" class="edge">
<title>Node2&#45;&gt;Node5</title>
<path fill="none" stroke="midnightblue" d="M271.33,-129.82C292,-119.83 319.92,-106.66 345,-96 421.64,-63.41 438.76,-47.32 520,-29 579.28,-15.63 648.49,-11.28 697.95,-10.03"/>
<polygon fill="midnightblue" stroke="midnightblue" points="698.27,-13.53 708.19,-9.81 698.11,-6.53 698.27,-13.53"/>
</g>
<!-- Node6 -->
<g id="node6" class="node">
<title>Node6</title>
<g id="a_node6"><a xlink:href="classtklb_1_1_resampler_speex_tpl.html#a7bab4da85cc386c5d34cf8ced0bd1092" target="_top" xlink:title="setup the resampler">
<polygon fill="none" stroke="black" points="345,-155 345,-185 484,-185 484,-155 345,-155"/>
<text text-anchor="start" x="353" y="-173" font-family="Helvetica,sans-Serif" font-size="10.00">tklb::ResamplerSpeexTpl</text>
<text text-anchor="middle" x="414.5" y="-162" font-family="Helvetica,sans-Serif" font-size="10.00">::init</text>
</a>
</g>
</g>
<!-- Node2&#45;&gt;Node6 -->
<g id="edge5" class="edge">
<title>Node2&#45;&gt;Node6</title>
<path fill="none" stroke="midnightblue" d="M309.37,-154.95C317.77,-156.17 326.4,-157.41 334.92,-158.65"/>
<polygon fill="midnightblue" stroke="midnightblue" points="334.47,-162.12 344.87,-160.08 335.47,-155.19 334.47,-162.12"/>
</g>
<!-- Node11 -->
<g id="node11" class="node">
<title>Node11</title>
<g id="a_node11"><a xlink:href="classtklb_1_1_resampler_speex_tpl.html#ad536684ea5e815d1dd7d967127ecfb95" target="_top" xlink:title="Resample function Make sure the out buffer has enough space.">
<polygon fill="none" stroke="black" points="345,-106 345,-136 484,-136 484,-106 345,-106"/>
<text text-anchor="start" x="353" y="-124" font-family="Helvetica,sans-Serif" font-size="10.00">tklb::ResamplerSpeexTpl</text>
<text text-anchor="middle" x="414.5" y="-113" font-family="Helvetica,sans-Serif" font-size="10.00">::process</text>
</a>
</g>
</g>
<!-- Node2&#45;&gt;Node11 -->
<g id="edge11" class="edge">
<title>Node2&#45;&gt;Node11</title>
<path fill="none" stroke="midnightblue" d="M309.37,-135.45C317.77,-134.28 326.4,-133.08 334.92,-131.9"/>
<polygon fill="midnightblue" stroke="midnightblue" points="335.44,-135.36 344.87,-130.52 334.48,-128.43 335.44,-135.36"/>
</g>
<!-- Node4 -->
<g id="node4" class="node">
<title>Node4</title>
<g id="a_node4"><a xlink:href="classtklb_1_1_resampler_speex_tpl.html#a5b4b65f32dbcec425871cc26384d4643" target="_top" xlink:title="Estimate how many sample will be emitted in the next step.">
<polygon fill="none" stroke="black" points="695,-227 695,-257 834,-257 834,-227 695,-227"/>
<text text-anchor="start" x="703" y="-245" font-family="Helvetica,sans-Serif" font-size="10.00">tklb::ResamplerSpeexTpl</text>
<text text-anchor="middle" x="764.5" y="-234" font-family="Helvetica,sans-Serif" font-size="10.00">::estimateOut</text>
</a>
</g>
</g>
<!-- Node3&#45;&gt;Node4 -->
<g id="edge3" class="edge">
<title>Node3&#45;&gt;Node4</title>
<path fill="none" stroke="midnightblue" d="M659.37,-250.43C667.68,-249.75 676.21,-249.06 684.65,-248.38"/>
<polygon fill="midnightblue" stroke="midnightblue" points="685.18,-251.85 694.87,-247.55 684.62,-244.87 685.18,-251.85"/>
</g>
<!-- Node6&#45;&gt;Node3 -->
<g id="edge6" class="edge">
<title>Node6&#45;&gt;Node3</title>
<path fill="none" stroke="midnightblue" d="M442.26,-185.1C463.2,-196.72 493.16,-212.95 520,-226 527.47,-229.63 535.49,-233.32 543.31,-236.81"/>
<polygon fill="midnightblue" stroke="midnightblue" points="542.14,-240.12 552.7,-240.96 544.97,-233.72 542.14,-240.12"/>
</g>
<!-- Node7 -->
<g id="node7" class="node">
<title>Node7</title>
<g id="a_node7"><a xlink:href="classtklb_1_1_audio_buffer_tpl.html#a35b40f6d6b1fc2939613b1b84313b0bc" target="_top" xlink:title="! Will not keep the contents! Resizes the buffer to the desired length and channel count.">
<polygon fill="none" stroke="black" points="532.5,-153 532.5,-183 646.5,-183 646.5,-153 532.5,-153"/>
<text text-anchor="start" x="540.5" y="-171" font-family="Helvetica,sans-Serif" font-size="10.00">tklb::AudioBufferTpl</text>
<text text-anchor="middle" x="589.5" y="-160" font-family="Helvetica,sans-Serif" font-size="10.00">::resize</text>
</a>
</g>
</g>
<!-- Node6&#45;&gt;Node7 -->
<g id="edge7" class="edge">
<title>Node6&#45;&gt;Node7</title>
<path fill="none" stroke="midnightblue" d="M484.37,-169.2C496.81,-169.06 509.76,-168.91 522.13,-168.77"/>
<polygon fill="midnightblue" stroke="midnightblue" points="522.4,-172.26 532.36,-168.65 522.32,-165.26 522.4,-172.26"/>
</g>
<!-- Node8 -->
<g id="node8" class="node">
<title>Node8</title>
<g id="a_node8"><a xlink:href="classtklb_1_1_audio_buffer_tpl.html#a7859b26033cbb893c2ea7acea54d8013" target="_top" xlink:title="Returns the amount of channels.">
<polygon fill="none" stroke="black" points="707.5,-164 707.5,-194 821.5,-194 821.5,-164 707.5,-164"/>
<text text-anchor="start" x="715.5" y="-182" font-family="Helvetica,sans-Serif" font-size="10.00">tklb::AudioBufferTpl</text>
<text text-anchor="middle" x="764.5" y="-171" font-family="Helvetica,sans-Serif" font-size="10.00">::channels</text>
</a>
</g>
</g>
<!-- Node7&#45;&gt;Node8 -->
<g id="edge8" class="edge">
<title>Node7&#45;&gt;Node8</title>
<path fill="none" stroke="midnightblue" d="M646.67,-171.57C662.76,-172.59 680.46,-173.72 697.11,-174.78"/>
<polygon fill="midnightblue" stroke="midnightblue" points="697.12,-178.29 707.32,-175.43 697.56,-171.3 697.12,-178.29"/>
</g>
<!-- Node9 -->
<g id="node9" class="node">
<title>Node9</title>
<g id="a_node9"><a xlink:href="namespacetklb.html#a3080595da18d742645ec41d61828a426" target="_top" xlink:title=" ">
<polygon fill="none" stroke="black" points="734.5,-76.5 734.5,-95.5 794.5,-95.5 794.5,-76.5 734.5,-76.5"/>
<text text-anchor="middle" x="764.5" y="-83.5" font-family="Helvetica,sans-Serif" font-size="10.00">tklb::min</text>
</a>
</g>
</g>
<!-- Node7&#45;&gt;Node9 -->
<g id="edge9" class="edge">
<title>Node7&#45;&gt;Node9</title>
<path fill="none" stroke="midnightblue" d="M611.59,-152.92C632.07,-138.87 664.45,-118.15 695,-105 704.25,-101.02 714.57,-97.64 724.34,-94.89"/>
<polygon fill="midnightblue" stroke="midnightblue" points="725.48,-98.21 734.24,-92.25 723.68,-91.44 725.48,-98.21"/>
</g>
<!-- Node10 -->
<g id="node10" class="node">
<title>Node10</title>
<g id="a_node10"><a xlink:href="classtklb_1_1_audio_buffer_tpl.html#af6df8d7e6840eee3f84807bd1662c3ed" target="_top" xlink:title="Returns the allocated length of the buffer.">
<polygon fill="none" stroke="black" points="707.5,-115 707.5,-145 821.5,-145 821.5,-115 707.5,-115"/>
<text text-anchor="start" x="715.5" y="-133" font-family="Helvetica,sans-Serif" font-size="10.00">tklb::AudioBufferTpl</text>
<text text-anchor="middle" x="764.5" y="-122" font-family="Helvetica,sans-Serif" font-size="10.00">::size</text>
</a>
</g>
</g>
<!-- Node7&#45;&gt;Node10 -->
<g id="edge10" class="edge">
<title>Node7&#45;&gt;Node10</title>
<path fill="none" stroke="midnightblue" d="M646.67,-155.66C662.76,-152.13 680.46,-148.24 697.11,-144.58"/>
<polygon fill="midnightblue" stroke="midnightblue" points="698.3,-147.9 707.32,-142.34 696.8,-141.07 698.3,-147.9"/>
</g>
<!-- Node11&#45;&gt;Node4 -->
<g id="edge12" class="edge">
<title>Node11&#45;&gt;Node4</title>
<path fill="none" stroke="midnightblue" d="M468.72,-136.04C474.12,-138.61 479.32,-141.57 484,-145 505.51,-160.76 497.45,-178.77 520,-193 547.07,-210.09 624.66,-223.84 685.05,-232.37"/>
<polygon fill="midnightblue" stroke="midnightblue" points="684.58,-235.84 694.97,-233.75 685.54,-228.91 684.58,-235.84"/>
</g>
<!-- Node11&#45;&gt;Node9 -->
<g id="edge13" class="edge">
<title>Node11&#45;&gt;Node9</title>
<path fill="none" stroke="midnightblue" d="M484.25,-114.09C555.86,-106.88 665.56,-95.85 723.86,-89.99"/>
<polygon fill="midnightblue" stroke="midnightblue" points="724.53,-93.44 734.13,-88.95 723.83,-86.47 724.53,-93.44"/>
</g>
<!-- Node11&#45;&gt;Node10 -->
<g id="edge19" class="edge">
<title>Node11&#45;&gt;Node10</title>
<path fill="none" stroke="midnightblue" d="M484.25,-122.78C545.95,-124.37 635.93,-126.7 696.95,-128.28"/>
<polygon fill="midnightblue" stroke="midnightblue" points="697.15,-131.79 707.23,-128.54 697.33,-124.79 697.15,-131.79"/>
</g>
<!-- Node12 -->
<g id="node12" class="node">
<title>Node12</title>
<g id="a_node12"><a xlink:href="classtklb_1_1_audio_buffer_tpl.html#ab6e5250746ca3784a568591a3ffdbc12" target="_top" xlink:title="Set a single channel from an array.">
<polygon fill="none" stroke="black" points="522,-38.5 522,-57.5 657,-57.5 657,-38.5 522,-38.5"/>
<text text-anchor="middle" x="589.5" y="-45.5" font-family="Helvetica,sans-Serif" font-size="10.00">tklb::AudioBufferTpl::set</text>
</a>
</g>
</g>
<!-- Node11&#45;&gt;Node12 -->
<g id="edge14" class="edge">
<title>Node11&#45;&gt;Node12</title>
<path fill="none" stroke="midnightblue" d="M445.77,-105.81C466.44,-95.68 494.59,-82.38 520,-72 529.54,-68.11 539.97,-64.25 549.75,-60.81"/>
<polygon fill="midnightblue" stroke="midnightblue" points="550.95,-64.09 559.26,-57.52 548.66,-57.48 550.95,-64.09"/>
</g>
<!-- Node12&#45;&gt;Node5 -->
<g id="edge15" class="edge">
<title>Node12&#45;&gt;Node5</title>
<path fill="none" stroke="midnightblue" d="M634.16,-38.41C657.29,-33.33 685.9,-27.04 710.33,-21.68"/>
<polygon fill="midnightblue" stroke="midnightblue" points="711.14,-25.08 720.16,-19.52 709.64,-18.25 711.14,-25.08"/>
</g>
<!-- Node12&#45;&gt;Node9 -->
<g id="edge17" class="edge">
<title>Node12&#45;&gt;Node9</title>
<path fill="none" stroke="midnightblue" d="M634.16,-57.59C661.94,-63.69 697.61,-71.53 724.45,-77.42"/>
<polygon fill="midnightblue" stroke="midnightblue" points="723.75,-80.85 734.27,-79.58 725.25,-74.02 723.75,-80.85"/>
</g>
<!-- Node12&#45;&gt;Node10 -->
<g id="edge18" class="edge">
<title>Node12&#45;&gt;Node10</title>
<path fill="none" stroke="midnightblue" d="M606.41,-57.65C626.57,-69.66 662.61,-90.36 695,-105 699.71,-107.13 704.66,-109.22 709.65,-111.22"/>
<polygon fill="midnightblue" stroke="midnightblue" points="708.67,-114.59 719.26,-114.96 711.21,-108.07 708.67,-114.59"/>
</g>
<!-- Node13 -->
<g id="node13" class="node">
<title>Node13</title>
<g id="a_node13"><a xlink:href="classtklb_1_1_audio_buffer_tpl.html#aee0540e90ae2790f9a809917bc5a04fd" target="_top" xlink:title=" ">
<polygon fill="none" stroke="black" points="696.5,-38.5 696.5,-57.5 832.5,-57.5 832.5,-38.5 696.5,-38.5"/>
<text text-anchor="middle" x="764.5" y="-45.5" font-family="Helvetica,sans-Serif" font-size="10.00">tklb::AudioBufferTpl::get</text>
</a>
</g>
</g>
<!-- Node12&#45;&gt;Node13 -->
<g id="edge16" class="edge">
<title>Node12&#45;&gt;Node13</title>
<path fill="none" stroke="midnightblue" d="M657.39,-48C666.74,-48 676.42,-48 685.96,-48"/>
<polygon fill="midnightblue" stroke="midnightblue" points="686.22,-51.5 696.22,-48 686.22,-44.5 686.22,-51.5"/>
</g>
</g>
</svg>
