<?xml version="1.0" encoding="UTF-8" standalone="no"?>
<!DOCTYPE svg PUBLIC "-//W3C//DTD SVG 1.1//EN"
 "http://www.w3.org/Graphics/SVG/1.1/DTD/svg11.dtd">
<!-- Generated by graphviz version 2.50.0 (0)
 -->
<!-- Title: vae::core::EffectsProcessor::mix Pages: 1 -->
<svg width="541pt" height="323pt"
 viewBox="0.00 0.00 541.00 323.00" xmlns="http://www.w3.org/2000/svg" xmlns:xlink="http://www.w3.org/1999/xlink">
<g id="graph0" class="graph" transform="scale(1 1) rotate(0) translate(4 319)">
<title>vae::core::EffectsProcessor::mix</title>
<!-- Node1 -->
<g id="node1" class="node">
<title>Node1</title>
<g id="a_node1"><a xlink:title=" ">
<polygon fill="#bfbfbf" stroke="black" points="0,-143 0,-162 173,-162 173,-143 0,-143"/>
<text text-anchor="middle" x="86.5" y="-150" font-family="Helvetica,sans-Serif" font-size="10.00">vae::core::EffectsProcessor::mix</text>
</a>
</g>
</g>
<!-- Node2 -->
<g id="node2" class="node">
<title>Node2</title>
<g id="a_node2"><a xlink:href="classtklb_1_1_audio_buffer_tpl.html#a7859b26033cbb893c2ea7acea54d8013" target="_top" xlink:title="Returns the amount of channels.">
<polygon fill="none" stroke="black" points="228,-284.5 228,-314.5 342,-314.5 342,-284.5 228,-284.5"/>
<text text-anchor="start" x="236" y="-302.5" font-family="Helvetica,sans-Serif" font-size="10.00">tklb::AudioBufferTpl</text>
<text text-anchor="middle" x="285" y="-291.5" font-family="Helvetica,sans-Serif" font-size="10.00">::channels</text>
</a>
</g>
</g>
<!-- Node1&#45;&gt;Node2 -->
<g id="edge1" class="edge">
<title>Node1&#45;&gt;Node2</title>
<path fill="none" stroke="midnightblue" d="M94.29,-162.03C111.1,-184.96 157.07,-243.62 209,-275.5 212,-277.34 215.16,-279.06 218.42,-280.66"/>
<polygon fill="midnightblue" stroke="midnightblue" points="217.22,-283.96 227.78,-284.84 220.08,-277.56 217.22,-283.96"/>
</g>
<!-- Node3 -->
<g id="node3" class="node">
<title>Node3</title>
<g id="a_node3"><a xlink:href="classvae_1_1core_1_1effect_1_1_effect_base.html#a90fa165893743d102eda0d7e9d141629" target="_top" xlink:title=" ">
<polygon fill="none" stroke="black" points="213,-235.5 213,-265.5 357,-265.5 357,-235.5 213,-235.5"/>
<text text-anchor="start" x="221" y="-253.5" font-family="Helvetica,sans-Serif" font-size="10.00">vae::core::effect::</text>
<text text-anchor="middle" x="285" y="-242.5" font-family="Helvetica,sans-Serif" font-size="10.00">EffectBase::getNumInputs</text>
</a>
</g>
</g>
<!-- Node1&#45;&gt;Node3 -->
<g id="edge2" class="edge">
<title>Node1&#45;&gt;Node3</title>
<path fill="none" stroke="midnightblue" d="M100.76,-162.04C122.49,-177.33 167.44,-207.52 209,-226.5 213.1,-228.37 217.38,-230.16 221.74,-231.85"/>
<polygon fill="midnightblue" stroke="midnightblue" points="220.76,-235.22 231.35,-235.41 223.18,-228.65 220.76,-235.22"/>
</g>
<!-- Node4 -->
<g id="node4" class="node">
<title>Node4</title>
<g id="a_node4"><a xlink:href="classvae_1_1core_1_1effect_1_1_effect_base.html#abdfd93e231a018873b4487f971a382da" target="_top" xlink:title=" ">
<polygon fill="none" stroke="black" points="209,-186.5 209,-216.5 361,-216.5 361,-186.5 209,-186.5"/>
<text text-anchor="start" x="217" y="-204.5" font-family="Helvetica,sans-Serif" font-size="10.00">vae::core::effect::</text>
<text text-anchor="middle" x="285" y="-193.5" font-family="Helvetica,sans-Serif" font-size="10.00">EffectBase::getNumOutputs</text>
</a>
</g>
</g>
<!-- Node1&#45;&gt;Node4 -->
<g id="edge3" class="edge">
<title>Node1&#45;&gt;Node4</title>
<path fill="none" stroke="midnightblue" d="M125.85,-162.06C150.84,-168.29 184.18,-176.61 213.81,-184"/>
<polygon fill="midnightblue" stroke="midnightblue" points="213.15,-187.44 223.7,-186.46 214.84,-180.65 213.15,-187.44"/>
</g>
<!-- Node5 -->
<g id="node5" class="node">
<title>Node5</title>
<g id="a_node5"><a xlink:href="classvae_1_1core_1_1effect_1_1_effect_base.html#a631d433cb8e69455481d812258afe285" target="_top" xlink:title=" ">
<polygon fill="none" stroke="black" points="228.5,-137.5 228.5,-167.5 341.5,-167.5 341.5,-137.5 228.5,-137.5"/>
<text text-anchor="start" x="236.5" y="-155.5" font-family="Helvetica,sans-Serif" font-size="10.00">vae::core::effect::</text>
<text text-anchor="middle" x="285" y="-144.5" font-family="Helvetica,sans-Serif" font-size="10.00">EffectBase::process</text>
</a>
</g>
</g>
<!-- Node1&#45;&gt;Node5 -->
<g id="edge4" class="edge">
<title>Node1&#45;&gt;Node5</title>
<path fill="none" stroke="midnightblue" d="M173.12,-152.5C188.18,-152.5 203.65,-152.5 218.07,-152.5"/>
<polygon fill="midnightblue" stroke="midnightblue" points="218.36,-156 228.36,-152.5 218.36,-149 218.36,-156"/>
</g>
<!-- Node6 -->
<g id="node6" class="node">
<title>Node6</title>
<g id="a_node6"><a xlink:href="classtklb_1_1_audio_buffer_tpl.html#ab6e5250746ca3784a568591a3ffdbc12" target="_top" xlink:title="Set a single channel from an array.">
<polygon fill="none" stroke="black" points="217.5,-99 217.5,-118 352.5,-118 352.5,-99 217.5,-99"/>
<text text-anchor="middle" x="285" y="-106" font-family="Helvetica,sans-Serif" font-size="10.00">tklb::AudioBufferTpl::set</text>
</a>
</g>
</g>
<!-- Node1&#45;&gt;Node6 -->
<g id="edge5" class="edge">
<title>Node1&#45;&gt;Node6</title>
<path fill="none" stroke="midnightblue" d="M130.14,-142.95C159.88,-136.29 199.76,-127.36 231.46,-120.26"/>
<polygon fill="midnightblue" stroke="midnightblue" points="232.45,-123.63 241.45,-118.03 230.92,-116.8 232.45,-123.63"/>
</g>
<!-- Node11 -->
<g id="node11" class="node">
<title>Node11</title>
<g id="a_node11"><a xlink:href="classtklb_1_1_audio_buffer_tpl.html#ab4e27a0d2eca612dcfc2a6a1c8678428" target="_top" xlink:title="Set the amount of valid samples currently in the buffer This is mostly a convenience flag since the a...">
<polygon fill="none" stroke="black" points="228,-49.5 228,-79.5 342,-79.5 342,-49.5 228,-49.5"/>
<text text-anchor="start" x="236" y="-67.5" font-family="Helvetica,sans-Serif" font-size="10.00">tklb::AudioBufferTpl</text>
<text text-anchor="middle" x="285" y="-56.5" font-family="Helvetica,sans-Serif" font-size="10.00">::setValidSize</text>
</a>
</g>
</g>
<!-- Node1&#45;&gt;Node11 -->
<g id="edge10" class="edge">
<title>Node1&#45;&gt;Node11</title>
<path fill="none" stroke="midnightblue" d="M104,-142.88C127.01,-129.73 170.26,-105.88 209,-89.5 214.34,-87.24 219.97,-85.04 225.64,-82.95"/>
<polygon fill="midnightblue" stroke="midnightblue" points="226.94,-86.21 235.17,-79.54 224.58,-79.62 226.94,-86.21"/>
</g>
<!-- Node12 -->
<g id="node12" class="node">
<title>Node12</title>
<g id="a_node12"><a xlink:href="classtklb_1_1_audio_buffer_tpl.html#a86cec40e8c99a90d93db996d92ddfece" target="_top" xlink:title="Returns the length of actually valid audio in the buffer.">
<polygon fill="none" stroke="black" points="228,-0.5 228,-30.5 342,-30.5 342,-0.5 228,-0.5"/>
<text text-anchor="start" x="236" y="-18.5" font-family="Helvetica,sans-Serif" font-size="10.00">tklb::AudioBufferTpl</text>
<text text-anchor="middle" x="285" y="-7.5" font-family="Helvetica,sans-Serif" font-size="10.00">::validSize</text>
</a>
</g>
</g>
<!-- Node1&#45;&gt;Node12 -->
<g id="edge13" class="edge">
<title>Node1&#45;&gt;Node12</title>
<path fill="none" stroke="midnightblue" d="M95.26,-142.82C113.09,-121.2 159.27,-68.6 209,-39.5 212.04,-37.72 215.23,-36.05 218.51,-34.5"/>
<polygon fill="midnightblue" stroke="midnightblue" points="220.15,-37.6 227.93,-30.4 217.36,-31.18 220.15,-37.6"/>
</g>
<!-- Node7 -->
<g id="node7" class="node">
<title>Node7</title>
<g id="a_node7"><a xlink:href="namespacetklb_1_1memory.html#ab89ec197028f903f4ea125eae46c4a10" target="_top" xlink:title="memcpy wrapper">
<polygon fill="none" stroke="black" points="409,-156 409,-175 521,-175 521,-156 409,-156"/>
<text text-anchor="middle" x="465" y="-163" font-family="Helvetica,sans-Serif" font-size="10.00">tklb::memory::copy</text>
</a>
</g>
</g>
<!-- Node6&#45;&gt;Node7 -->
<g id="edge6" class="edge">
<title>Node6&#45;&gt;Node7</title>
<path fill="none" stroke="midnightblue" d="M327.74,-118.02C338.7,-120.96 350.41,-124.49 361,-128.5 377.73,-134.84 380.32,-140.03 397,-146.5 402.99,-148.82 409.38,-151 415.75,-152.99"/>
<polygon fill="midnightblue" stroke="midnightblue" points="415.09,-156.45 425.68,-155.97 417.1,-149.75 415.09,-156.45"/>
</g>
<!-- Node8 -->
<g id="node8" class="node">
<title>Node8</title>
<g id="a_node8"><a xlink:href="classtklb_1_1_audio_buffer_tpl.html#aee0540e90ae2790f9a809917bc5a04fd" target="_top" xlink:title=" ">
<polygon fill="none" stroke="black" points="397,-118 397,-137 533,-137 533,-118 397,-118"/>
<text text-anchor="middle" x="465" y="-125" font-family="Helvetica,sans-Serif" font-size="10.00">tklb::AudioBufferTpl::get</text>
</a>
</g>
</g>
<!-- Node6&#45;&gt;Node8 -->
<g id="edge7" class="edge">
<title>Node6&#45;&gt;Node8</title>
<path fill="none" stroke="midnightblue" d="M352.53,-115.6C363.76,-116.8 375.5,-118.05 386.97,-119.28"/>
<polygon fill="midnightblue" stroke="midnightblue" points="386.64,-122.76 396.95,-120.34 387.38,-115.8 386.64,-122.76"/>
</g>
<!-- Node9 -->
<g id="node9" class="node">
<title>Node9</title>
<g id="a_node9"><a xlink:href="namespacetklb.html#a3080595da18d742645ec41d61828a426" target="_top" xlink:title=" ">
<polygon fill="none" stroke="black" points="435,-80 435,-99 495,-99 495,-80 435,-80"/>
<text text-anchor="middle" x="465" y="-87" font-family="Helvetica,sans-Serif" font-size="10.00">tklb::min</text>
</a>
</g>
</g>
<!-- Node6&#45;&gt;Node9 -->
<g id="edge8" class="edge">
<title>Node6&#45;&gt;Node9</title>
<path fill="none" stroke="midnightblue" d="M352.53,-101.4C376.86,-98.8 403.59,-95.95 424.77,-93.69"/>
<polygon fill="midnightblue" stroke="midnightblue" points="425.42,-97.14 434.99,-92.6 424.68,-90.18 425.42,-97.14"/>
</g>
<!-- Node10 -->
<g id="node10" class="node">
<title>Node10</title>
<g id="a_node10"><a xlink:href="classtklb_1_1_audio_buffer_tpl.html#af6df8d7e6840eee3f84807bd1662c3ed" target="_top" xlink:title="Returns the allocated length of the buffer.">
<polygon fill="none" stroke="black" points="408,-30.5 408,-60.5 522,-60.5 522,-30.5 408,-30.5"/>
<text text-anchor="start" x="416" y="-48.5" font-family="Helvetica,sans-Serif" font-size="10.00">tklb::AudioBufferTpl</text>
<text text-anchor="middle" x="465" y="-37.5" font-family="Helvetica,sans-Serif" font-size="10.00">::size</text>
</a>
</g>
</g>
<!-- Node6&#45;&gt;Node10 -->
<g id="edge9" class="edge">
<title>Node6&#45;&gt;Node10</title>
<path fill="none" stroke="midnightblue" d="M327.74,-98.98C338.7,-96.04 350.41,-92.51 361,-88.5 377.73,-82.16 380.6,-77.64 397,-70.5 401.79,-68.42 406.81,-66.34 411.86,-64.33"/>
<polygon fill="midnightblue" stroke="midnightblue" points="413.5,-67.45 421.55,-60.56 410.96,-60.93 413.5,-67.45"/>
</g>
<!-- Node11&#45;&gt;Node9 -->
<g id="edge11" class="edge">
<title>Node11&#45;&gt;Node9</title>
<path fill="none" stroke="midnightblue" d="M342.32,-72.41C369.11,-76.17 400.5,-80.58 424.68,-83.98"/>
<polygon fill="midnightblue" stroke="midnightblue" points="424.52,-87.49 434.91,-85.41 425.49,-80.56 424.52,-87.49"/>
</g>
<!-- Node11&#45;&gt;Node10 -->
<g id="edge12" class="edge">
<title>Node11&#45;&gt;Node10</title>
<path fill="none" stroke="midnightblue" d="M342.32,-58.49C359.94,-56.61 379.54,-54.52 397.77,-52.57"/>
<polygon fill="midnightblue" stroke="midnightblue" points="398.17,-56.05 407.74,-51.51 397.43,-49.09 398.17,-56.05"/>
</g>
</g>
</svg>
