<?xml version="1.0" encoding="UTF-8" standalone="no"?>
<!DOCTYPE svg PUBLIC "-//W3C//DTD SVG 1.1//EN"
 "http://www.w3.org/Graphics/SVG/1.1/DTD/svg11.dtd">
<!-- Generated by graphviz version 2.50.0 (0)
 -->
<!-- Title: tklb::EventBus&lt; EVENT_COUNT, EventId, MutexType &gt; Pages: 1 -->
<!--zoomable 1014 -->
<svg id="main" version="1.1" xmlns="http://www.w3.org/2000/svg" xmlns:xlink="http://www.w3.org/1999/xlink" xml:space="preserve" onload="init(evt)">
<style type="text/css"><![CDATA[
.edge:hover path { stroke: red; }
.edge:hover polygon { stroke: red; fill: red; }
]]></style>
<script type="text/javascript"><![CDATA[
var edges = document.getElementsByTagName('g');
if (edges && edges.length) {
  for (var i=0;i<edges.length;i++) {
    if (edges[i].id.substr(0,4)=='edge') {
      edges[i].setAttribute('class','edge');
    }
  }
}
]]></script>
        <defs>
                <circle id="rim" cx="0" cy="0" r="7"/>
                <circle id="rim2" cx="0" cy="0" r="3.5"/>
                <g id="zoomPlus">
                        <use xlink:href="#rim" fill="#404040">
                                <set attributeName="fill" to="#808080" begin="zoomplus.mouseover" end="zoomplus.mouseout"/>
                        </use>
                        <path d="M-4,0h8M0,-4v8" fill="none" stroke="white" stroke-width="1.5" pointer-events="none"/>
                </g>
                <g id="zoomMin">
                        <use xlink:href="#rim" fill="#404040">
                                <set attributeName="fill" to="#808080" begin="zoomminus.mouseover" end="zoomminus.mouseout"/>
                        </use>
                        <path d="M-4,0h8" fill="none" stroke="white" stroke-width="1.5" pointer-events="none"/>
                </g>
                <g id="dirArrow">
                        <path fill="none" stroke="white" stroke-width="1.5" d="M0,-3.0v7 M-2.5,-0.5L0,-3.0L2.5,-0.5"/>
                </g>
               <g id="resetDef">
                       <use xlink:href="#rim2" fill="#404040">
                               <set attributeName="fill" to="#808080" begin="reset.mouseover" end="reset.mouseout"/>
                       </use>
               </g>
        </defs>

<script type="text/javascript">
var viewWidth = 403;
var viewHeight = 1014;
var sectionId = 'dynsection-0';
</script>
<script xlink:href="svgpan.js"/>
<svg id="graph" class="graph">
<g id="viewport">
<title>tklb::EventBus&lt; EVENT_COUNT, EventId, MutexType &gt;</title>
<!-- Node1 -->
<g id="node1" class="node">
<title>Node1</title>
<g id="a_node1"><a xlink:title=" ">
<polygon fill="#bfbfbf" stroke="black" points="209.5,-0.5 209.5,-112.5 379.5,-112.5 379.5,-0.5 209.5,-0.5"/>
<text text-anchor="start" x="217.5" y="-100.5" font-family="Helvetica,sans-Serif" font-size="10.00">tklb::EventBus&lt; EVENT</text>
<text text-anchor="middle" x="294.5" y="-89.5" font-family="Helvetica,sans-Serif" font-size="10.00">_COUNT, EventId, MutexType &gt;</text>
<polyline fill="none" stroke="black" points="209.5,-82.5 379.5,-82.5 "/>
<text text-anchor="middle" x="294.5" y="-70.5" font-family="Helvetica,sans-Serif" font-size="10.00"> </text>
<polyline fill="none" stroke="black" points="209.5,-63.5 379.5,-63.5 "/>
<text text-anchor="start" x="217.5" y="-51.5" font-family="Helvetica,sans-Serif" font-size="10.00">+ EventBus()</text>
<text text-anchor="start" x="217.5" y="-40.5" font-family="Helvetica,sans-Serif" font-size="10.00">+ ~EventBus()</text>
<text text-anchor="start" x="217.5" y="-29.5" font-family="Helvetica,sans-Serif" font-size="10.00">+ fireEvent()</text>
<text text-anchor="start" x="217.5" y="-18.5" font-family="Helvetica,sans-Serif" font-size="10.00">&#45; addSubscriber()</text>
<text text-anchor="start" x="217.5" y="-7.5" font-family="Helvetica,sans-Serif" font-size="10.00">&#45; removeSubscriber()</text>
</a>
</g>
</g>
<!-- Node2 -->
<g id="node2" class="node">
<title>Node2</title>
<g id="a_node2"><a xlink:href="classtklb_1_1_heap_buffer.html" target="_top" xlink:title=" ">
<polygon fill="none" stroke="black" points="54.5,-160.5 54.5,-415.5 266.5,-415.5 266.5,-160.5 54.5,-160.5"/>
<text text-anchor="middle" x="160.5" y="-403.5" font-family="Helvetica,sans-Serif" font-size="10.00">tklb::HeapBuffer&lt; BaseSubscription * &gt;</text>
<polyline fill="none" stroke="black" points="54.5,-396.5 266.5,-396.5 "/>
<text text-anchor="start" x="62.5" y="-384.5" font-family="Helvetica,sans-Serif" font-size="10.00">+ Alignment</text>
<text text-anchor="start" x="62.5" y="-373.5" font-family="Helvetica,sans-Serif" font-size="10.00">+ ChunkSize</text>
<text text-anchor="start" x="62.5" y="-362.5" font-family="Helvetica,sans-Serif" font-size="10.00">&#45; mAllocator</text>
<text text-anchor="start" x="62.5" y="-351.5" font-family="Helvetica,sans-Serif" font-size="10.00">&#45; mBuf</text>
<text text-anchor="start" x="62.5" y="-340.5" font-family="Helvetica,sans-Serif" font-size="10.00">&#45; mSize</text>
<text text-anchor="start" x="62.5" y="-329.5" font-family="Helvetica,sans-Serif" font-size="10.00">&#45; mRealSize</text>
<polyline fill="none" stroke="black" points="54.5,-322.5 266.5,-322.5 "/>
<text text-anchor="start" x="62.5" y="-310.5" font-family="Helvetica,sans-Serif" font-size="10.00">+ HeapBuffer()</text>
<text text-anchor="start" x="62.5" y="-299.5" font-family="Helvetica,sans-Serif" font-size="10.00">+ HeapBuffer()</text>
<text text-anchor="start" x="62.5" y="-288.5" font-family="Helvetica,sans-Serif" font-size="10.00">+ HeapBuffer()</text>
<text text-anchor="start" x="62.5" y="-277.5" font-family="Helvetica,sans-Serif" font-size="10.00">+ HeapBuffer()</text>
<text text-anchor="start" x="62.5" y="-266.5" font-family="Helvetica,sans-Serif" font-size="10.00">+ HeapBuffer()</text>
<text text-anchor="start" x="62.5" y="-255.5" font-family="Helvetica,sans-Serif" font-size="10.00">+ HeapBuffer()</text>
<text text-anchor="start" x="62.5" y="-244.5" font-family="Helvetica,sans-Serif" font-size="10.00">+ operator=()</text>
<text text-anchor="start" x="62.5" y="-233.5" font-family="Helvetica,sans-Serif" font-size="10.00">+ operator=()</text>
<text text-anchor="start" x="62.5" y="-222.5" font-family="Helvetica,sans-Serif" font-size="10.00">+ ~HeapBuffer()</text>
<text text-anchor="start" x="62.5" y="-211.5" font-family="Helvetica,sans-Serif" font-size="10.00">+ set()</text>
<text text-anchor="start" x="62.5" y="-200.5" font-family="Helvetica,sans-Serif" font-size="10.00">and 28 more...</text>
<text text-anchor="start" x="62.5" y="-189.5" font-family="Helvetica,sans-Serif" font-size="10.00">+ closestChunkSize()</text>
<text text-anchor="start" x="62.5" y="-178.5" font-family="Helvetica,sans-Serif" font-size="10.00">+ isAligned()</text>
<text text-anchor="start" x="62.5" y="-167.5" font-family="Helvetica,sans-Serif" font-size="10.00">&#45; allocate()</text>
</a>
</g>
</g>
<!-- Node2&#45;&gt;Node1 -->
<g id="edge1" class="edge">
<title>Node2&#45;&gt;Node1</title>
<path fill="none" stroke="#404040" d="M234.55,-160.17C242.02,-147.39 249.36,-134.81 256.21,-123.08"/>
<polygon fill="none" stroke="#404040" points="256.3,-122.93 255.87,-115.73 262.35,-112.56 262.78,-119.76 256.3,-122.93"/>
<text text-anchor="middle" x="276.5" y="-134" font-family="Helvetica,sans-Serif" font-size="10.00"> &#45;mEvents</text>
</g>
<!-- Node3 -->
<g id="node3" class="node">
<title>Node3</title>
<g id="a_node3"><a xlink:href="classtklb_1_1_heap_buffer.html" target="_top" xlink:title="Basically a bad std::vector without exceptions which can also work with foreign memory.">
<polygon fill="none" stroke="black" points="89,-463.5 89,-685.5 232,-685.5 232,-463.5 89,-463.5"/>
<text text-anchor="start" x="97" y="-673.5" font-family="Helvetica,sans-Serif" font-size="10.00">tklb::HeapBuffer&lt; T,</text>
<text text-anchor="start" x="97" y="-662.5" font-family="Helvetica,sans-Serif" font-size="10.00"> ALIGNMENT, ALLOCATOR,</text>
<text text-anchor="middle" x="160.5" y="-651.5" font-family="Helvetica,sans-Serif" font-size="10.00"> SIZE &gt;</text>
<polyline fill="none" stroke="black" points="89,-644.5 232,-644.5 "/>
<text text-anchor="middle" x="160.5" y="-632.5" font-family="Helvetica,sans-Serif" font-size="10.00"> </text>
<polyline fill="none" stroke="black" points="89,-625.5 232,-625.5 "/>
<text text-anchor="start" x="97" y="-613.5" font-family="Helvetica,sans-Serif" font-size="10.00">+ HeapBuffer()</text>
<text text-anchor="start" x="97" y="-602.5" font-family="Helvetica,sans-Serif" font-size="10.00">+ HeapBuffer()</text>
<text text-anchor="start" x="97" y="-591.5" font-family="Helvetica,sans-Serif" font-size="10.00">+ HeapBuffer()</text>
<text text-anchor="start" x="97" y="-580.5" font-family="Helvetica,sans-Serif" font-size="10.00">+ HeapBuffer()</text>
<text text-anchor="start" x="97" y="-569.5" font-family="Helvetica,sans-Serif" font-size="10.00">+ HeapBuffer()</text>
<text text-anchor="start" x="97" y="-558.5" font-family="Helvetica,sans-Serif" font-size="10.00">+ operator=()</text>
<text text-anchor="start" x="97" y="-547.5" font-family="Helvetica,sans-Serif" font-size="10.00">+ operator=()</text>
<text text-anchor="start" x="97" y="-536.5" font-family="Helvetica,sans-Serif" font-size="10.00">+ HeapBuffer()</text>
<text text-anchor="start" x="97" y="-525.5" font-family="Helvetica,sans-Serif" font-size="10.00">+ ~HeapBuffer()</text>
<text text-anchor="start" x="97" y="-514.5" font-family="Helvetica,sans-Serif" font-size="10.00">+ set()</text>
<text text-anchor="start" x="97" y="-503.5" font-family="Helvetica,sans-Serif" font-size="10.00">and 28 more...</text>
<text text-anchor="start" x="97" y="-492.5" font-family="Helvetica,sans-Serif" font-size="10.00">+ closestChunkSize()</text>
<text text-anchor="start" x="97" y="-481.5" font-family="Helvetica,sans-Serif" font-size="10.00">+ isAligned()</text>
<text text-anchor="start" x="97" y="-470.5" font-family="Helvetica,sans-Serif" font-size="10.00">&#45; allocate()</text>
</a>
</g>
</g>
<!-- Node3&#45;&gt;Node2 -->
<g id="edge2" class="edge">
<title>Node3&#45;&gt;Node2</title>
<path fill="none" stroke="orange" d="M160.5,-452.88C160.5,-440.65 160.5,-428.2 160.5,-415.9"/>
<polygon fill="orange" stroke="orange" points="157,-453.1 160.5,-463.1 164,-453.1 157,-453.1"/>
<text text-anchor="middle" x="219.5" y="-437" font-family="Helvetica,sans-Serif" font-size="10.00"> &lt; BaseSubscription * &gt;</text>
</g>
<!-- Node4 -->
<g id="node4" class="node">
<title>Node4</title>
<g id="a_node4"><a xlink:title=" ">
<polygon fill="none" stroke="#bfbfbf" points="0,-772 0,-829 45,-829 45,-772 0,-772"/>
<text text-anchor="middle" x="22.5" y="-817" font-family="Helvetica,sans-Serif" font-size="10.00">size_t</text>
<polyline fill="none" stroke="#bfbfbf" points="0,-810 45,-810 "/>
<text text-anchor="middle" x="22.5" y="-798" font-family="Helvetica,sans-Serif" font-size="10.00"> </text>
<polyline fill="none" stroke="#bfbfbf" points="0,-791 45,-791 "/>
<text text-anchor="middle" x="22.5" y="-779" font-family="Helvetica,sans-Serif" font-size="10.00"> </text>
</a>
</g>
</g>
<!-- Node4&#45;&gt;Node3 -->
<g id="edge3" class="edge">
<title>Node4&#45;&gt;Node3</title>
<path fill="none" stroke="#404040" d="M28.57,-771.61C33.55,-751.93 41.71,-725.37 53.5,-704 61.46,-689.58 71.14,-675.24 81.39,-661.65"/>
<polygon fill="none" stroke="#404040" points="81.6,-661.39 82.11,-654.2 88.95,-651.9 88.44,-659.1 81.6,-661.39"/>
<text text-anchor="middle" x="84.5" y="-718" font-family="Helvetica,sans-Serif" font-size="10.00"> +Alignment</text>
<text text-anchor="middle" x="84.5" y="-707" font-family="Helvetica,sans-Serif" font-size="10.00">+ChunkSize</text>
</g>
<!-- Node5 -->
<g id="node5" class="node">
<title>Node5</title>
<g id="a_node5"><a xlink:href="structtklb_1_1_std_allocator.html" target="_top" xlink:title=" ">
<polygon fill="none" stroke="black" points="63,-744.5 63,-856.5 170,-856.5 170,-744.5 63,-744.5"/>
<text text-anchor="start" x="71" y="-844.5" font-family="Helvetica,sans-Serif" font-size="10.00">tklb::StdAllocator</text>
<text text-anchor="middle" x="116.5" y="-833.5" font-family="Helvetica,sans-Serif" font-size="10.00">&lt; unsigned char &gt;</text>
<polyline fill="none" stroke="black" points="63,-826.5 170,-826.5 "/>
<text text-anchor="middle" x="116.5" y="-814.5" font-family="Helvetica,sans-Serif" font-size="10.00"> </text>
<polyline fill="none" stroke="black" points="63,-807.5 170,-807.5 "/>
<text text-anchor="start" x="71" y="-795.5" font-family="Helvetica,sans-Serif" font-size="10.00">+ StdAllocator()</text>
<text text-anchor="start" x="71" y="-784.5" font-family="Helvetica,sans-Serif" font-size="10.00">+ StdAllocator()</text>
<text text-anchor="start" x="71" y="-773.5" font-family="Helvetica,sans-Serif" font-size="10.00">+ StdAllocator()</text>
<text text-anchor="start" x="71" y="-762.5" font-family="Helvetica,sans-Serif" font-size="10.00">+ allocate()</text>
<text text-anchor="start" x="71" y="-751.5" font-family="Helvetica,sans-Serif" font-size="10.00">+ deallocate()</text>
</a>
</g>
</g>
<!-- Node5&#45;&gt;Node3 -->
<g id="edge4" class="edge">
<title>Node5&#45;&gt;Node3</title>
<path fill="none" stroke="#404040" d="M117.1,-744.45C117.88,-731.14 119.22,-717 121.5,-704 121.86,-701.95 122.24,-699.88 122.64,-697.81"/>
<polygon fill="none" stroke="#404040" points="122.69,-697.58 120.01,-690.88 125.16,-685.83 127.84,-692.53 122.69,-697.58"/>
<text text-anchor="middle" x="152" y="-712.5" font-family="Helvetica,sans-Serif" font-size="10.00"> &#45;mAllocator</text>
</g>
<!-- Node6 -->
<g id="node6" class="node">
<title>Node6</title>
<g id="a_node6"><a xlink:href="structtklb_1_1_std_allocator.html" target="_top" xlink:title=" ">
<polygon fill="none" stroke="black" points="52,-904.5 52,-1005.5 181,-1005.5 181,-904.5 52,-904.5"/>
<text text-anchor="middle" x="116.5" y="-993.5" font-family="Helvetica,sans-Serif" font-size="10.00">tklb::StdAllocator&lt; T &gt;</text>
<polyline fill="none" stroke="black" points="52,-986.5 181,-986.5 "/>
<text text-anchor="middle" x="116.5" y="-974.5" font-family="Helvetica,sans-Serif" font-size="10.00"> </text>
<polyline fill="none" stroke="black" points="52,-967.5 181,-967.5 "/>
<text text-anchor="start" x="60" y="-955.5" font-family="Helvetica,sans-Serif" font-size="10.00">+ StdAllocator()</text>
<text text-anchor="start" x="60" y="-944.5" font-family="Helvetica,sans-Serif" font-size="10.00">+ StdAllocator()</text>
<text text-anchor="start" x="60" y="-933.5" font-family="Helvetica,sans-Serif" font-size="10.00">+ StdAllocator()</text>
<text text-anchor="start" x="60" y="-922.5" font-family="Helvetica,sans-Serif" font-size="10.00">+ allocate()</text>
<text text-anchor="start" x="60" y="-911.5" font-family="Helvetica,sans-Serif" font-size="10.00">+ deallocate()</text>
</a>
</g>
</g>
<!-- Node6&#45;&gt;Node5 -->
<g id="edge5" class="edge">
<title>Node6&#45;&gt;Node5</title>
<path fill="none" stroke="orange" d="M116.5,-894.24C116.5,-881.83 116.5,-868.8 116.5,-856.57"/>
<polygon fill="orange" stroke="orange" points="113,-894.49 116.5,-904.49 120,-894.49 113,-894.49"/>
<text text-anchor="middle" x="163.5" y="-878" font-family="Helvetica,sans-Serif" font-size="10.00"> &lt; unsigned char &gt;</text>
</g>
<!-- Node7 -->
<g id="node7" class="node">
<title>Node7</title>
<g id="a_node7"><a xlink:title=" ">
<polygon fill="none" stroke="#bfbfbf" points="188,-772 188,-829 219,-829 219,-772 188,-772"/>
<text text-anchor="middle" x="203.5" y="-817" font-family="Helvetica,sans-Serif" font-size="10.00">T *</text>
<polyline fill="none" stroke="#bfbfbf" points="188,-810 219,-810 "/>
<text text-anchor="middle" x="203.5" y="-798" font-family="Helvetica,sans-Serif" font-size="10.00"> </text>
<polyline fill="none" stroke="#bfbfbf" points="188,-791 219,-791 "/>
<text text-anchor="middle" x="203.5" y="-779" font-family="Helvetica,sans-Serif" font-size="10.00"> </text>
</a>
</g>
</g>
<!-- Node7&#45;&gt;Node3 -->
<g id="edge6" class="edge">
<title>Node7&#45;&gt;Node3</title>
<path fill="none" stroke="#404040" d="M198.14,-771.58C194.46,-752.39 189.28,-725.44 183.95,-697.65"/>
<polygon fill="none" stroke="#404040" points="183.92,-697.49 178.86,-692.36 181.66,-685.71 186.72,-690.85 183.92,-697.49"/>
<text text-anchor="middle" x="205.5" y="-712.5" font-family="Helvetica,sans-Serif" font-size="10.00"> &#45;mBuf</text>
</g>
<!-- Node8 -->
<g id="node8" class="node">
<title>Node8</title>
<g id="a_node8"><a xlink:title=" ">
<polygon fill="none" stroke="#bfbfbf" points="237,-772 237,-829 314,-829 314,-772 237,-772"/>
<text text-anchor="middle" x="275.5" y="-817" font-family="Helvetica,sans-Serif" font-size="10.00">unsigned int</text>
<polyline fill="none" stroke="#bfbfbf" points="237,-810 314,-810 "/>
<text text-anchor="middle" x="275.5" y="-798" font-family="Helvetica,sans-Serif" font-size="10.00"> </text>
<polyline fill="none" stroke="#bfbfbf" points="237,-791 314,-791 "/>
<text text-anchor="middle" x="275.5" y="-779" font-family="Helvetica,sans-Serif" font-size="10.00"> </text>
</a>
</g>
</g>
<!-- Node8&#45;&gt;Node3 -->
<g id="edge7" class="edge">
<title>Node8&#45;&gt;Node3</title>
<path fill="none" stroke="#404040" d="M261.35,-771.92C251.57,-752.84 238.24,-726.88 226.5,-704 225.2,-701.46 223.88,-698.89 222.55,-696.3"/>
<polygon fill="none" stroke="#404040" points="222.51,-696.23 216.21,-692.72 217.03,-685.55 223.33,-689.06 222.51,-696.23"/>
<text text-anchor="middle" x="267" y="-718" font-family="Helvetica,sans-Serif" font-size="10.00"> &#45;mRealSize</text>
<text text-anchor="middle" x="267" y="-707" font-family="Helvetica,sans-Serif" font-size="10.00">&#45;mSize</text>
</g>
<!-- Node9 -->
<g id="node9" class="node">
<title>Node9</title>
<g id="a_node9"><a xlink:href="classtklb_1_1_mutex_dummy.html" target="_top" xlink:title="Dummy Mutex which doesn&#39;t synchronise a all.">
<polygon fill="none" stroke="black" points="284.5,-215.5 284.5,-360.5 394.5,-360.5 394.5,-215.5 284.5,-215.5"/>
<text text-anchor="middle" x="339.5" y="-348.5" font-family="Helvetica,sans-Serif" font-size="10.00">tklb::MutexDummy</text>
<polyline fill="none" stroke="black" points="284.5,-341.5 394.5,-341.5 "/>
<text text-anchor="middle" x="339.5" y="-329.5" font-family="Helvetica,sans-Serif" font-size="10.00"> </text>
<polyline fill="none" stroke="black" points="284.5,-322.5 394.5,-322.5 "/>
<text text-anchor="start" x="292.5" y="-310.5" font-family="Helvetica,sans-Serif" font-size="10.00">+ MutexDummy()</text>
<text text-anchor="start" x="292.5" y="-299.5" font-family="Helvetica,sans-Serif" font-size="10.00">+ MutexDummy()</text>
<text text-anchor="start" x="292.5" y="-288.5" font-family="Helvetica,sans-Serif" font-size="10.00">+ MutexDummy()</text>
<text text-anchor="start" x="292.5" y="-277.5" font-family="Helvetica,sans-Serif" font-size="10.00">+ operator=()</text>
<text text-anchor="start" x="292.5" y="-266.5" font-family="Helvetica,sans-Serif" font-size="10.00">+ operator=()</text>
<text text-anchor="start" x="292.5" y="-255.5" font-family="Helvetica,sans-Serif" font-size="10.00">+ MutexDummy()</text>
<text text-anchor="start" x="292.5" y="-244.5" font-family="Helvetica,sans-Serif" font-size="10.00">+ lock()</text>
<text text-anchor="start" x="292.5" y="-233.5" font-family="Helvetica,sans-Serif" font-size="10.00">+ unlock()</text>
<text text-anchor="start" x="292.5" y="-222.5" font-family="Helvetica,sans-Serif" font-size="10.00">+ try_lock()</text>
</a>
</g>
</g>
<!-- Node9&#45;&gt;Node1 -->
<g id="edge8" class="edge">
<title>Node9&#45;&gt;Node1</title>
<path fill="none" stroke="#404040" d="M325.45,-215.33C319.76,-186.33 313.23,-153.03 307.64,-124.52"/>
<polygon fill="none" stroke="#404040" points="307.62,-124.4 302.54,-119.28 305.31,-112.62 310.39,-117.74 307.62,-124.4"/>
<text text-anchor="middle" x="334" y="-134" font-family="Helvetica,sans-Serif" font-size="10.00"> &#45;mMutex</text>
</g>
</g>
</svg>
        <g id="navigator" transform="translate(0 0)" fill="#404254">
                <rect fill="#f2f5e9" fill-opacity="0.5" stroke="#606060" stroke-width=".5" x="0" y="0" width="60" height="60"/>
                <use id="zoomplus" xlink:href="#zoomPlus" x="17" y="9" onmousedown="handleZoom(evt,'in')"/>
                <use id="zoomminus" xlink:href="#zoomMin" x="42" y="9" onmousedown="handleZoom(evt,'out')"/>
                <use id="reset" xlink:href="#resetDef" x="30" y="36" onmousedown="handleReset()"/>
                <g id="arrowUp" xlink:href="#dirArrow" transform="translate(30 24)" onmousedown="handlePan(0,-1)">
                  <use xlink:href="#rim" fill="#404040">
                        <set attributeName="fill" to="#808080" begin="arrowUp.mouseover" end="arrowUp.mouseout"/>
                  </use>
                  <path fill="none" stroke="white" stroke-width="1.5" d="M0,-3.0v7 M-2.5,-0.5L0,-3.0L2.5,-0.5"/>
                </g>
                <g id="arrowRight" xlink:href="#dirArrow" transform="rotate(90) translate(36 -43)" onmousedown="handlePan(1,0)">
                  <use xlink:href="#rim" fill="#404040">
                        <set attributeName="fill" to="#808080" begin="arrowRight.mouseover" end="arrowRight.mouseout"/>
                  </use>
                  <path fill="none" stroke="white" stroke-width="1.5" d="M0,-3.0v7 M-2.5,-0.5L0,-3.0L2.5,-0.5"/>
                </g>
                <g id="arrowDown" xlink:href="#dirArrow" transform="rotate(180) translate(-30 -48)" onmousedown="handlePan(0,1)">
                  <use xlink:href="#rim" fill="#404040">
                        <set attributeName="fill" to="#808080" begin="arrowDown.mouseover" end="arrowDown.mouseout"/>
                  </use>
                  <path fill="none" stroke="white" stroke-width="1.5" d="M0,-3.0v7 M-2.5,-0.5L0,-3.0L2.5,-0.5"/>
                </g>
                <g id="arrowLeft" xlink:href="#dirArrow" transform="rotate(270) translate(-36 17)" onmousedown="handlePan(-1,0)">
                  <use xlink:href="#rim" fill="#404040">
                        <set attributeName="fill" to="#808080" begin="arrowLeft.mouseover" end="arrowLeft.mouseout"/>
                  </use>
                  <path fill="none" stroke="white" stroke-width="1.5" d="M0,-3.0v7 M-2.5,-0.5L0,-3.0L2.5,-0.5"/>
                </g>
        </g>
        <svg viewBox="0 0 15 15" width="100%" height="30px" preserveAspectRatio="xMaxYMin meet">
         <g id="arrow_out" transform="scale(0.3 0.3)">
          <a xlink:href="classtklb_1_1_event_bus__coll__graph_org.svg" target="_base">
           <rect id="button" ry="5" rx="5" y="6" x="6" height="38" width="38"
                fill="#f2f5e9" fill-opacity="0.5" stroke="#606060" stroke-width="1.0"/>
           <path id="arrow"
             d="M 11.500037,31.436501 C 11.940474,20.09759 22.043105,11.32322 32.158766,21.979434 L 37.068811,17.246167 C 37.068811,17.246167 37.088388,32 37.088388,32 L 22.160133,31.978069 C 22.160133,31.978069 26.997745,27.140456 26.997745,27.140456 C 18.528582,18.264221 13.291696,25.230495 11.500037,31.436501 z"
             style="fill:#404040;"/>
          </a>
         </g>
        </svg>
</svg>
