<?xml version="1.0" encoding="UTF-8" standalone="no"?>
<!DOCTYPE svg PUBLIC "-//W3C//DTD SVG 1.1//EN"
 "http://www.w3.org/Graphics/SVG/1.1/DTD/svg11.dtd">
<!-- Generated by graphviz version 2.50.0 (0)
 -->
<!-- Title: tklb::StackBuffer::size Pages: 1 -->
<svg width="460pt" height="275pt"
 viewBox="0.00 0.00 460.00 275.00" xmlns="http://www.w3.org/2000/svg" xmlns:xlink="http://www.w3.org/1999/xlink">
<g id="graph0" class="graph" transform="scale(1 1) rotate(0) translate(4 271)">
<title>tklb::StackBuffer::size</title>
<!-- Node1 -->
<g id="node1" class="node">
<title>Node1</title>
<g id="a_node1"><a xlink:title="Returns the amount of elements in the container.">
<polygon fill="#bfbfbf" stroke="black" points="328,-106 328,-125 452,-125 452,-106 328,-106"/>
<text text-anchor="middle" x="390" y="-113" font-family="Helvetica,sans-Serif" font-size="10.00">tklb::StackBuffer::size</text>
</a>
</g>
</g>
<!-- Node2 -->
<g id="node2" class="node">
<title>Node2</title>
<g id="a_node2"><a xlink:href="classtklb_1_1_event_bus.html#a64551167ab4214545bcca21bc056e7ab" target="_top" xlink:title=" ">
<polygon fill="none" stroke="black" points="155,-199 155,-218 292,-218 292,-199 155,-199"/>
<text text-anchor="middle" x="223.5" y="-206" font-family="Helvetica,sans-Serif" font-size="10.00">tklb::EventBus::fireEvent</text>
</a>
</g>
</g>
<!-- Node1&#45;&gt;Node2 -->
<g id="edge1" class="edge">
<title>Node1&#45;&gt;Node2</title>
<path fill="none" stroke="midnightblue" d="M371.55,-132.12C353.12,-148.83 322.57,-174.24 292,-189.5 284.48,-193.25 276.12,-196.36 267.9,-198.9"/>
<polygon fill="midnightblue" stroke="midnightblue" points="374.15,-134.48 379.12,-125.13 369.4,-129.34 374.15,-134.48"/>
</g>
<!-- Node3 -->
<g id="node3" class="node">
<title>Node3</title>
<g id="a_node3"><a xlink:href="classtklb_1_1_stack_buffer.html#a28d2735cec547bed463b7fe53f64d964" target="_top" xlink:title="! Doesn&#39;t do anything">
<polygon fill="none" stroke="black" points="171.5,-149.5 171.5,-179.5 275.5,-179.5 275.5,-149.5 171.5,-149.5"/>
<text text-anchor="start" x="179.5" y="-167.5" font-family="Helvetica,sans-Serif" font-size="10.00">tklb::StackBuffer::</text>
<text text-anchor="middle" x="223.5" y="-156.5" font-family="Helvetica,sans-Serif" font-size="10.00">reserve</text>
</a>
</g>
</g>
<!-- Node1&#45;&gt;Node3 -->
<g id="edge2" class="edge">
<title>Node1&#45;&gt;Node3</title>
<path fill="none" stroke="midnightblue" d="M347.19,-127.95C325.22,-134.5 298.12,-142.57 274.98,-149.46"/>
<polygon fill="midnightblue" stroke="midnightblue" points="348.31,-131.27 356.89,-125.06 346.31,-124.56 348.31,-131.27"/>
</g>
<!-- Node4 -->
<g id="node4" class="node">
<title>Node4</title>
<g id="a_node4"><a xlink:href="classtklb_1_1_stack_buffer.html#a0bc626a85358bcfd1f950be8aa983033" target="_top" xlink:title="Resize the buffer If the memory is borrowed it will become unique and owned by this instance as soon ...">
<polygon fill="none" stroke="black" points="171.5,-100.5 171.5,-130.5 275.5,-130.5 275.5,-100.5 171.5,-100.5"/>
<text text-anchor="start" x="179.5" y="-118.5" font-family="Helvetica,sans-Serif" font-size="10.00">tklb::StackBuffer::</text>
<text text-anchor="middle" x="223.5" y="-107.5" font-family="Helvetica,sans-Serif" font-size="10.00">resize</text>
</a>
</g>
</g>
<!-- Node1&#45;&gt;Node4 -->
<g id="edge3" class="edge">
<title>Node1&#45;&gt;Node4</title>
<path fill="none" stroke="midnightblue" d="M317.56,-115.5C303.43,-115.5 288.87,-115.5 275.58,-115.5"/>
<polygon fill="midnightblue" stroke="midnightblue" points="317.75,-119 327.75,-115.5 317.75,-112 317.75,-119"/>
</g>
<!-- Node8 -->
<g id="node8" class="node">
<title>Node8</title>
<g id="a_node8"><a xlink:href="classtklb_1_1_stack_buffer.html#a009f35b399fd54fd358d101f2b3ccb80" target="_top" xlink:title="Setup the buffer with a size.">
<polygon fill="none" stroke="black" points="7.5,-50.5 7.5,-80.5 111.5,-80.5 111.5,-50.5 7.5,-50.5"/>
<text text-anchor="start" x="15.5" y="-68.5" font-family="Helvetica,sans-Serif" font-size="10.00">tklb::StackBuffer::</text>
<text text-anchor="middle" x="59.5" y="-57.5" font-family="Helvetica,sans-Serif" font-size="10.00">StackBuffer</text>
</a>
</g>
</g>
<!-- Node1&#45;&gt;Node8 -->
<g id="edge12" class="edge">
<title>Node1&#45;&gt;Node8</title>
<path fill="none" stroke="midnightblue" d="M345.17,-103.37C328.61,-99.12 309.54,-94.64 292,-91.5 230.49,-80.49 158.91,-73.3 111.81,-69.33"/>
<polygon fill="midnightblue" stroke="midnightblue" points="344.56,-106.82 355.12,-105.96 346.32,-100.05 344.56,-106.82"/>
</g>
<!-- Node10 -->
<g id="node10" class="node">
<title>Node10</title>
<g id="a_node10"><a xlink:href="classtklb_1_1_stack_buffer.html#aba85db83485537c7932e78ce6e14f14b" target="_top" xlink:title="Resizes and copies the contents of the source Buffer This will do a memory::copy,so none of the objec...">
<polygon fill="none" stroke="black" points="164,-6 164,-25 283,-25 283,-6 164,-6"/>
<text text-anchor="middle" x="223.5" y="-13" font-family="Helvetica,sans-Serif" font-size="10.00">tklb::StackBuffer::set</text>
</a>
</g>
</g>
<!-- Node1&#45;&gt;Node10 -->
<g id="edge9" class="edge">
<title>Node1&#45;&gt;Node10</title>
<path fill="none" stroke="midnightblue" d="M364.34,-100.51C330.14,-79.72 269.28,-42.72 240.47,-25.21"/>
<polygon fill="midnightblue" stroke="midnightblue" points="362.86,-103.71 373.23,-105.91 366.5,-97.73 362.86,-103.71"/>
</g>
<!-- Node5 -->
<g id="node5" class="node">
<title>Node5</title>
<g id="a_node5"><a xlink:href="classtklb_1_1_stack_buffer.html#ac65d8fac750e16fe0408f4db13a129fa" target="_top" xlink:title="Clears the buffer but doesn&#39;t free the memory.">
<polygon fill="none" stroke="black" points="7.5,-236.5 7.5,-266.5 111.5,-266.5 111.5,-236.5 7.5,-236.5"/>
<text text-anchor="start" x="15.5" y="-254.5" font-family="Helvetica,sans-Serif" font-size="10.00">tklb::StackBuffer::</text>
<text text-anchor="middle" x="59.5" y="-243.5" font-family="Helvetica,sans-Serif" font-size="10.00">clear</text>
</a>
</g>
</g>
<!-- Node4&#45;&gt;Node5 -->
<g id="edge4" class="edge">
<title>Node4&#45;&gt;Node5</title>
<path fill="none" stroke="midnightblue" d="M162.77,-134.21C160,-136.11 157.39,-138.2 155,-140.5 124.86,-169.53 148.63,-197.95 119,-227.5 115.58,-230.91 111.61,-233.86 107.37,-236.4"/>
<polygon fill="midnightblue" stroke="midnightblue" points="164.66,-137.17 171.48,-129.06 161.09,-131.14 164.66,-137.17"/>
</g>
<!-- Node6 -->
<g id="node6" class="node">
<title>Node6</title>
<g id="a_node6"><a xlink:href="classtklb_1_1_stack_buffer.html#af94f2cf470e5657c94d94b27b31544cd" target="_top" xlink:title="If T is a pointer type, delete will be called for all pointers in buffer and resize(0) is called.">
<polygon fill="none" stroke="black" points="7.5,-187.5 7.5,-217.5 111.5,-217.5 111.5,-187.5 7.5,-187.5"/>
<text text-anchor="start" x="15.5" y="-205.5" font-family="Helvetica,sans-Serif" font-size="10.00">tklb::StackBuffer::</text>
<text text-anchor="middle" x="59.5" y="-194.5" font-family="Helvetica,sans-Serif" font-size="10.00">destroyPointers</text>
</a>
</g>
</g>
<!-- Node4&#45;&gt;Node6 -->
<g id="edge5" class="edge">
<title>Node4&#45;&gt;Node6</title>
<path fill="none" stroke="midnightblue" d="M164.35,-135.06C161.11,-136.76 157.97,-138.57 155,-140.5 135.77,-153.01 137.92,-164.52 119,-177.5 113.63,-181.19 107.62,-184.5 101.57,-187.42"/>
<polygon fill="midnightblue" stroke="midnightblue" points="166.16,-138.08 173.66,-130.6 163.13,-131.76 166.16,-138.08"/>
</g>
<!-- Node7 -->
<g id="node7" class="node">
<title>Node7</title>
<g id="a_node7"><a xlink:href="classtklb_1_1_stack_buffer.html#a9d4bc70afedaeb36aa5743a86382d145" target="_top" xlink:title="Set data from array.">
<polygon fill="none" stroke="black" points="0,-149 0,-168 119,-168 119,-149 0,-149"/>
<text text-anchor="middle" x="59.5" y="-156" font-family="Helvetica,sans-Serif" font-size="10.00">tklb::StackBuffer::set</text>
</a>
</g>
</g>
<!-- Node4&#45;&gt;Node7 -->
<g id="edge6" class="edge">
<title>Node4&#45;&gt;Node7</title>
<path fill="none" stroke="midnightblue" d="M161.33,-131.74C139.39,-137.56 115.39,-143.93 96.3,-149"/>
<polygon fill="midnightblue" stroke="midnightblue" points="162.47,-135.05 171.24,-129.11 160.68,-128.29 162.47,-135.05"/>
</g>
<!-- Node4&#45;&gt;Node8 -->
<g id="edge7" class="edge">
<title>Node4&#45;&gt;Node8</title>
<path fill="none" stroke="midnightblue" d="M164.11,-97.48C146.16,-91.94 126.59,-85.9 109.35,-80.58"/>
<polygon fill="midnightblue" stroke="midnightblue" points="163.31,-100.89 173.89,-100.5 165.37,-94.2 163.31,-100.89"/>
</g>
<!-- Node9 -->
<g id="node9" class="node">
<title>Node9</title>
<g id="a_node9"><a xlink:href="classtklb_1_1_stack_buffer.html#a989ca33fdbf9932a81b683f33bf071d5" target="_top" xlink:title=" ">
<polygon fill="none" stroke="black" points="7.5,-99.5 7.5,-129.5 111.5,-129.5 111.5,-99.5 7.5,-99.5"/>
<text text-anchor="start" x="15.5" y="-117.5" font-family="Helvetica,sans-Serif" font-size="10.00">tklb::StackBuffer::</text>
<text text-anchor="middle" x="59.5" y="-106.5" font-family="Helvetica,sans-Serif" font-size="10.00">~StackBuffer</text>
</a>
</g>
</g>
<!-- Node4&#45;&gt;Node9 -->
<g id="edge8" class="edge">
<title>Node4&#45;&gt;Node9</title>
<path fill="none" stroke="midnightblue" d="M160.78,-115.12C144.58,-115.02 127.29,-114.91 111.7,-114.82"/>
<polygon fill="midnightblue" stroke="midnightblue" points="161.22,-118.62 171.24,-115.18 161.26,-111.62 161.22,-118.62"/>
</g>
<!-- Node10&#45;&gt;Node10 -->
<g id="edge10" class="edge">
<title>Node10&#45;&gt;Node10</title>
<path fill="none" stroke="midnightblue" d="M254.19,-33.77C253.31,-39.24 243.08,-43.5 223.5,-43.5 194.35,-43.5 185.93,-34.07 198.22,-25.26"/>
<polygon fill="midnightblue" stroke="midnightblue" points="257.09,-31.82 248.78,-25.26 251.19,-35.57 257.09,-31.82"/>
</g>
<!-- Node11 -->
<g id="node11" class="node">
<title>Node11</title>
<g id="a_node11"><a xlink:href="classtklb_1_1_stack_buffer.html#ad2b79ee683c21e8b6aa6236bf50813a3" target="_top" xlink:title="Copy Constructor, calls set() Failed allocations have to be checked.">
<polygon fill="none" stroke="black" points="7.5,-0.5 7.5,-30.5 111.5,-30.5 111.5,-0.5 7.5,-0.5"/>
<text text-anchor="start" x="15.5" y="-18.5" font-family="Helvetica,sans-Serif" font-size="10.00">tklb::StackBuffer::</text>
<text text-anchor="middle" x="59.5" y="-7.5" font-family="Helvetica,sans-Serif" font-size="10.00">StackBuffer</text>
</a>
</g>
</g>
<!-- Node10&#45;&gt;Node11 -->
<g id="edge11" class="edge">
<title>Node10&#45;&gt;Node11</title>
<path fill="none" stroke="midnightblue" d="M153.45,-15.5C139.43,-15.5 124.91,-15.5 111.64,-15.5"/>
<polygon fill="midnightblue" stroke="midnightblue" points="153.56,-19 163.56,-15.5 153.56,-12 153.56,-19"/>
</g>
</g>
</svg>
