<?xml version="1.0" encoding="UTF-8" standalone="no"?>
<!DOCTYPE svg PUBLIC "-//W3C//DTD SVG 1.1//EN"
 "http://www.w3.org/Graphics/SVG/1.1/DTD/svg11.dtd">
<!-- Generated by graphviz version 2.50.0 (0)
 -->
<!-- Title: vae::core::Engine::setSpeed Pages: 1 -->
<svg width="380pt" height="66pt"
 viewBox="0.00 0.00 380.00 66.00" xmlns="http://www.w3.org/2000/svg" xmlns:xlink="http://www.w3.org/1999/xlink">
<g id="graph0" class="graph" transform="scale(1 1) rotate(0) translate(4 62)">
<title>vae::core::Engine::setSpeed</title>
<!-- Node1 -->
<g id="node1" class="node">
<title>Node1</title>
<g id="a_node1"><a xlink:title="Set the playback speed.">
<polygon fill="#bfbfbf" stroke="black" points="265,-14 265,-44 372,-44 372,-14 265,-14"/>
<text text-anchor="start" x="273" y="-32" font-family="Helvetica,sans-Serif" font-size="10.00">vae::core::Engine::</text>
<text text-anchor="middle" x="318.5" y="-21" font-family="Helvetica,sans-Serif" font-size="10.00">setSpeed</text>
</a>
</g>
</g>
<!-- Node2 -->
<g id="node2" class="node">
<title>Node2</title>
<g id="a_node2"><a xlink:href="main_8cpp.html#afe1c3ff6204d9b675caf60b5545e3e54" target="_top" xlink:title=" ">
<polygon fill="none" stroke="black" points="123.5,-38.5 123.5,-57.5 182.5,-57.5 182.5,-38.5 123.5,-38.5"/>
<text text-anchor="middle" x="153" y="-45.5" font-family="Helvetica,sans-Serif" font-size="10.00">filterTest</text>
</a>
</g>
</g>
<!-- Node1&#45;&gt;Node2 -->
<g id="edge1" class="edge">
<title>Node1&#45;&gt;Node2</title>
<path fill="none" stroke="midnightblue" d="M254.77,-36.29C229.94,-39.17 202.64,-42.35 182.72,-44.66"/>
<polygon fill="midnightblue" stroke="midnightblue" points="255.34,-39.75 264.87,-35.12 254.53,-32.79 255.34,-39.75"/>
</g>
<!-- Node4 -->
<g id="node4" class="node">
<title>Node4</title>
<g id="a_node4"><a xlink:href="classvae_1_1_engine_pimpl.html#aa1d281cbc38abb9612849d5e333f1f6c" target="_top" xlink:title="Set the playback speed.">
<polygon fill="none" stroke="black" points="77,-0.5 77,-19.5 229,-19.5 229,-0.5 77,-0.5"/>
<text text-anchor="middle" x="153" y="-7.5" font-family="Helvetica,sans-Serif" font-size="10.00">vae::EnginePimpl::setSpeed</text>
</a>
</g>
</g>
<!-- Node1&#45;&gt;Node4 -->
<g id="edge3" class="edge">
<title>Node1&#45;&gt;Node4</title>
<path fill="none" stroke="midnightblue" d="M254.8,-21.71C246.41,-20.74 237.74,-19.73 229.16,-18.73"/>
<polygon fill="midnightblue" stroke="midnightblue" points="254.53,-25.21 264.87,-22.88 255.34,-18.25 254.53,-25.21"/>
</g>
<!-- Node3 -->
<g id="node3" class="node">
<title>Node3</title>
<g id="a_node3"><a xlink:href="main_8cpp.html#ae66f6b31b5ad750f1fe042a706a4e3d4" target="_top" xlink:title=" ">
<polygon fill="none" stroke="black" points="0,-38.5 0,-57.5 41,-57.5 41,-38.5 0,-38.5"/>
<text text-anchor="middle" x="20.5" y="-45.5" font-family="Helvetica,sans-Serif" font-size="10.00">main</text>
</a>
</g>
</g>
<!-- Node2&#45;&gt;Node3 -->
<g id="edge2" class="edge">
<title>Node2&#45;&gt;Node3</title>
<path fill="none" stroke="midnightblue" d="M113.26,-48C89.54,-48 60.2,-48 41.18,-48"/>
<polygon fill="midnightblue" stroke="midnightblue" points="113.36,-51.5 123.36,-48 113.36,-44.5 113.36,-51.5"/>
</g>
</g>
</svg>
