<?xml version="1.0" encoding="UTF-8" standalone="no"?>
<!DOCTYPE svg PUBLIC "-//W3C//DTD SVG 1.1//EN"
 "http://www.w3.org/Graphics/SVG/1.1/DTD/svg11.dtd">
<!-- Generated by graphviz version 2.50.0 (0)
 -->
<!-- Title: vae::core::effect::EffectsList::instance Pages: 1 -->
<svg width="669pt" height="149pt"
 viewBox="0.00 0.00 669.00 148.50" xmlns="http://www.w3.org/2000/svg" xmlns:xlink="http://www.w3.org/1999/xlink">
<g id="graph0" class="graph" transform="scale(1 1) rotate(0) translate(4 144.5)">
<title>vae::core::effect::EffectsList::instance</title>
<!-- Node1 -->
<g id="node1" class="node">
<title>Node1</title>
<g id="a_node1"><a xlink:title=" ">
<polygon fill="#bfbfbf" stroke="black" points="546,-61 546,-91 661,-91 661,-61 546,-61"/>
<text text-anchor="start" x="554" y="-79" font-family="Helvetica,sans-Serif" font-size="10.00">vae::core::effect::</text>
<text text-anchor="middle" x="603.5" y="-68" font-family="Helvetica,sans-Serif" font-size="10.00">EffectsList::instance</text>
</a>
</g>
</g>
<!-- Node2 -->
<g id="node2" class="node">
<title>Node2</title>
<g id="a_node2"><a xlink:href="classvae_1_1core_1_1effect_1_1_effects_factory.html#ace857f89f07cd4b9d13eb6814425180e" target="_top" xlink:title=" ">
<polygon fill="none" stroke="black" points="364,-110 364,-140 486,-140 486,-110 364,-110"/>
<text text-anchor="start" x="372" y="-128" font-family="Helvetica,sans-Serif" font-size="10.00">vae::core::effect::</text>
<text text-anchor="middle" x="425" y="-117" font-family="Helvetica,sans-Serif" font-size="10.00">EffectsFactory::create</text>
</a>
</g>
</g>
<!-- Node1&#45;&gt;Node2 -->
<g id="edge1" class="edge">
<title>Node1&#45;&gt;Node2</title>
<path fill="none" stroke="midnightblue" d="M538.31,-93.82C519.25,-99.11 498.57,-104.85 480.22,-109.95"/>
<polygon fill="midnightblue" stroke="midnightblue" points="539.4,-97.15 548.1,-91.1 537.53,-90.4 539.4,-97.15"/>
</g>
<!-- Node5 -->
<g id="node5" class="node">
<title>Node5</title>
<g id="a_node5"><a xlink:href="structvae_1_1core_1_1effect_1_1_registermydsp.html#a5fec3f318d9fd63d02ba96b89d95b96d" target="_top" xlink:title=" ">
<polygon fill="none" stroke="black" points="340,-61 340,-91 510,-91 510,-61 340,-61"/>
<text text-anchor="start" x="348" y="-79" font-family="Helvetica,sans-Serif" font-size="10.00">vae::core::effect::</text>
<text text-anchor="middle" x="425" y="-68" font-family="Helvetica,sans-Serif" font-size="10.00">Registermydsp::Registermydsp</text>
</a>
</g>
</g>
<!-- Node1&#45;&gt;Node5 -->
<g id="edge4" class="edge">
<title>Node1&#45;&gt;Node5</title>
<path fill="none" stroke="midnightblue" d="M535.63,-76C527.26,-76 518.61,-76 510.02,-76"/>
<polygon fill="midnightblue" stroke="midnightblue" points="535.68,-79.5 545.68,-76 535.68,-72.5 535.68,-79.5"/>
</g>
<!-- Node6 -->
<g id="node6" class="node">
<title>Node6</title>
<g id="a_node6"><a xlink:href="structvae_1_1core_1_1effect_1_1_register_v_a_e_reverb.html#a990fa08f1721c2402d148df6462056e1" target="_top" xlink:title=" ">
<polygon fill="none" stroke="black" points="346,-0.5 346,-41.5 504,-41.5 504,-0.5 346,-0.5"/>
<text text-anchor="start" x="354" y="-29.5" font-family="Helvetica,sans-Serif" font-size="10.00">vae::core::effect::</text>
<text text-anchor="start" x="354" y="-18.5" font-family="Helvetica,sans-Serif" font-size="10.00">RegisterVAEReverb::Register</text>
<text text-anchor="middle" x="425" y="-7.5" font-family="Helvetica,sans-Serif" font-size="10.00">VAEReverb</text>
</a>
</g>
</g>
<!-- Node1&#45;&gt;Node6 -->
<g id="edge5" class="edge">
<title>Node1&#45;&gt;Node6</title>
<path fill="none" stroke="midnightblue" d="M544.59,-57.95C527.78,-52.72 509.3,-46.96 492.04,-41.58"/>
<polygon fill="midnightblue" stroke="midnightblue" points="543.68,-61.34 554.27,-60.97 545.76,-54.65 543.68,-61.34"/>
</g>
<!-- Node3 -->
<g id="node3" class="node">
<title>Node3</title>
<g id="a_node3"><a xlink:href="classvae_1_1core_1_1_bank_manager.html#a2e7de1d8768b886383a38377dbfeeb0d" target="_top" xlink:title=" ">
<polygon fill="none" stroke="black" points="170,-110 170,-140 304,-140 304,-110 170,-110"/>
<text text-anchor="start" x="178" y="-128" font-family="Helvetica,sans-Serif" font-size="10.00">vae::core::BankManager</text>
<text text-anchor="middle" x="237" y="-117" font-family="Helvetica,sans-Serif" font-size="10.00">::initMixer</text>
</a>
</g>
</g>
<!-- Node2&#45;&gt;Node3 -->
<g id="edge2" class="edge">
<title>Node2&#45;&gt;Node3</title>
<path fill="none" stroke="midnightblue" d="M353.85,-125C337.52,-125 320.18,-125 304.04,-125"/>
<polygon fill="midnightblue" stroke="midnightblue" points="353.87,-128.5 363.87,-125 353.87,-121.5 353.87,-128.5"/>
</g>
<!-- Node4 -->
<g id="node4" class="node">
<title>Node4</title>
<g id="a_node4"><a xlink:href="classvae_1_1core_1_1_bank_manager.html#adbc94fb2b23a418e34a3eda7812d71a6" target="_top" xlink:title=" ">
<polygon fill="none" stroke="black" points="0,-110 0,-140 134,-140 134,-110 0,-110"/>
<text text-anchor="start" x="8" y="-128" font-family="Helvetica,sans-Serif" font-size="10.00">vae::core::BankManager</text>
<text text-anchor="middle" x="67" y="-117" font-family="Helvetica,sans-Serif" font-size="10.00">::load</text>
</a>
</g>
</g>
<!-- Node3&#45;&gt;Node4 -->
<g id="edge3" class="edge">
<title>Node3&#45;&gt;Node4</title>
<path fill="none" stroke="midnightblue" d="M159.41,-125C150.99,-125 142.47,-125 134.19,-125"/>
<polygon fill="midnightblue" stroke="midnightblue" points="159.6,-128.5 169.6,-125 159.6,-121.5 159.6,-128.5"/>
</g>
</g>
</svg>
