<?xml version="1.0" encoding="UTF-8" standalone="no"?>
<!DOCTYPE svg PUBLIC "-//W3C//DTD SVG 1.1//EN"
 "http://www.w3.org/Graphics/SVG/1.1/DTD/svg11.dtd">
<!-- Generated by graphviz version 2.50.0 (0)
 -->
<!-- Title: tklb::AudioBufferTpl::resize Pages: 1 -->
<!--zoomable 645 -->
<svg id="main" version="1.1" xmlns="http://www.w3.org/2000/svg" xmlns:xlink="http://www.w3.org/1999/xlink" xml:space="preserve" onload="init(evt)">
<style type="text/css"><![CDATA[
.edge:hover path { stroke: red; }
.edge:hover polygon { stroke: red; fill: red; }
]]></style>
<script type="text/javascript"><![CDATA[
var edges = document.getElementsByTagName('g');
if (edges && edges.length) {
  for (var i=0;i<edges.length;i++) {
    if (edges[i].id.substr(0,4)=='edge') {
      edges[i].setAttribute('class','edge');
    }
  }
}
]]></script>
        <defs>
                <circle id="rim" cx="0" cy="0" r="7"/>
                <circle id="rim2" cx="0" cy="0" r="3.5"/>
                <g id="zoomPlus">
                        <use xlink:href="#rim" fill="#404040">
                                <set attributeName="fill" to="#808080" begin="zoomplus.mouseover" end="zoomplus.mouseout"/>
                        </use>
                        <path d="M-4,0h8M0,-4v8" fill="none" stroke="white" stroke-width="1.5" pointer-events="none"/>
                </g>
                <g id="zoomMin">
                        <use xlink:href="#rim" fill="#404040">
                                <set attributeName="fill" to="#808080" begin="zoomminus.mouseover" end="zoomminus.mouseout"/>
                        </use>
                        <path d="M-4,0h8" fill="none" stroke="white" stroke-width="1.5" pointer-events="none"/>
                </g>
                <g id="dirArrow">
                        <path fill="none" stroke="white" stroke-width="1.5" d="M0,-3.0v7 M-2.5,-0.5L0,-3.0L2.5,-0.5"/>
                </g>
               <g id="resetDef">
                       <use xlink:href="#rim2" fill="#404040">
                               <set attributeName="fill" to="#808080" begin="reset.mouseover" end="reset.mouseout"/>
                       </use>
               </g>
        </defs>

<script type="text/javascript">
var viewWidth = 866;
var viewHeight = 645;
var sectionId = 'dynsection-30';
</script>
<script xlink:href="svgpan.js"/>
<svg id="graph" class="graph">
<g id="viewport">
<title>tklb::AudioBufferTpl::resize</title>
<!-- Node1 -->
<g id="node1" class="node">
<title>Node1</title>
<g id="a_node1"><a xlink:title="! Will not keep the contents! Resizes the buffer to the desired length and channel count.">
<polygon fill="#bfbfbf" stroke="black" points="744,-317.5 744,-347.5 858,-347.5 858,-317.5 744,-317.5"/>
<text text-anchor="start" x="752" y="-335.5" font-family="Helvetica,sans-Serif" font-size="10.00">tklb::AudioBufferTpl</text>
<text text-anchor="middle" x="801" y="-324.5" font-family="Helvetica,sans-Serif" font-size="10.00">::resize</text>
</a>
</g>
</g>
<!-- Node2 -->
<g id="node2" class="node">
<title>Node2</title>
<g id="a_node2"><a xlink:href="classvae_1_1core_1_1_bank_manager.html#a34933194ccfcbdfa8713dbc7fd923540" target="_top" xlink:title=" ">
<polygon fill="none" stroke="black" points="566.5,-606.5 566.5,-636.5 700.5,-636.5 700.5,-606.5 566.5,-606.5"/>
<text text-anchor="start" x="574.5" y="-624.5" font-family="Helvetica,sans-Serif" font-size="10.00">vae::core::BankManager</text>
<text text-anchor="middle" x="633.5" y="-613.5" font-family="Helvetica,sans-Serif" font-size="10.00">::addMixer</text>
</a>
</g>
</g>
<!-- Node1&#45;&gt;Node2 -->
<g id="edge1" class="edge">
<title>Node1&#45;&gt;Node2</title>
<path fill="none" stroke="midnightblue" d="M798.5,-357.54C794.04,-409.61 776.46,-530.3 708,-597.5 704.46,-600.98 700.4,-603.95 696.06,-606.5"/>
<polygon fill="midnightblue" stroke="midnightblue" points="802,-357.75 799.27,-347.51 795.02,-357.22 802,-357.75"/>
</g>
<!-- Node4 -->
<g id="node4" class="node">
<title>Node4</title>
<g id="a_node4"><a xlink:href="classtklb_1_1_audio_buffer_tpl.html#aaa35dba92bace862a6198a7b3202758f" target="_top" xlink:title="Buffer with memory allocated.">
<polygon fill="none" stroke="black" points="576.5,-557.5 576.5,-587.5 690.5,-587.5 690.5,-557.5 576.5,-557.5"/>
<text text-anchor="start" x="584.5" y="-575.5" font-family="Helvetica,sans-Serif" font-size="10.00">tklb::AudioBufferTpl</text>
<text text-anchor="middle" x="633.5" y="-564.5" font-family="Helvetica,sans-Serif" font-size="10.00">::AudioBufferTpl</text>
</a>
</g>
</g>
<!-- Node1&#45;&gt;Node4 -->
<g id="edge3" class="edge">
<title>Node1&#45;&gt;Node4</title>
<path fill="none" stroke="midnightblue" d="M796.23,-357.52C788.19,-402.23 765.18,-496.09 708,-548.5 702.95,-553.13 697,-556.86 690.7,-559.88"/>
<polygon fill="midnightblue" stroke="midnightblue" points="799.71,-357.95 797.93,-347.51 792.81,-356.78 799.71,-357.95"/>
</g>
<!-- Node5 -->
<g id="node5" class="node">
<title>Node5</title>
<g id="a_node5"><a xlink:href="classtklb_1_1_audio_buffer_tpl.html#a0d525b2972694ac9ab4028190467de18" target="_top" xlink:title="Match the size of the provided buffer and copy the contents.">
<polygon fill="none" stroke="black" points="576.5,-508.5 576.5,-538.5 690.5,-538.5 690.5,-508.5 576.5,-508.5"/>
<text text-anchor="start" x="584.5" y="-526.5" font-family="Helvetica,sans-Serif" font-size="10.00">tklb::AudioBufferTpl</text>
<text text-anchor="middle" x="633.5" y="-515.5" font-family="Helvetica,sans-Serif" font-size="10.00">::clone</text>
</a>
</g>
</g>
<!-- Node1&#45;&gt;Node5 -->
<g id="edge4" class="edge">
<title>Node1&#45;&gt;Node5</title>
<path fill="none" stroke="midnightblue" d="M792.67,-357.74C780.8,-394.22 753.95,-461.46 708,-499.5 702.83,-503.78 696.88,-507.3 690.64,-510.2"/>
<polygon fill="midnightblue" stroke="midnightblue" points="796.1,-358.49 795.75,-347.9 789.42,-356.4 796.1,-358.49"/>
</g>
<!-- Node6 -->
<g id="node6" class="node">
<title>Node6</title>
<g id="a_node6"><a xlink:href="classvae_1_1core_1_1_effects_processor.html#ac3ac18c642115e7d7046d3bbc2a0dd41" target="_top" xlink:title=" ">
<polygon fill="none" stroke="black" points="559,-459.5 559,-489.5 708,-489.5 708,-459.5 559,-459.5"/>
<text text-anchor="start" x="567" y="-477.5" font-family="Helvetica,sans-Serif" font-size="10.00">vae::core::EffectsProcessor</text>
<text text-anchor="middle" x="633.5" y="-466.5" font-family="Helvetica,sans-Serif" font-size="10.00">::init</text>
</a>
</g>
</g>
<!-- Node1&#45;&gt;Node6 -->
<g id="edge5" class="edge">
<title>Node1&#45;&gt;Node6</title>
<path fill="none" stroke="midnightblue" d="M787.12,-356.55C771.68,-383.18 743.41,-425.64 708,-450.5 703.17,-453.89 697.82,-456.83 692.29,-459.37"/>
<polygon fill="midnightblue" stroke="midnightblue" points="790.35,-357.94 792.22,-347.51 784.26,-354.5 790.35,-357.94"/>
</g>
<!-- Node8 -->
<g id="node8" class="node">
<title>Node8</title>
<g id="a_node8"><a xlink:href="classvae_1_1core_1_1_processor.html#ad11cb5dfd5941df82fec0265d80dff2f" target="_top" xlink:title=" ">
<polygon fill="none" stroke="black" points="576,-410.5 576,-440.5 691,-440.5 691,-410.5 576,-410.5"/>
<text text-anchor="start" x="584" y="-428.5" font-family="Helvetica,sans-Serif" font-size="10.00">vae::core::Processor</text>
<text text-anchor="middle" x="633.5" y="-417.5" font-family="Helvetica,sans-Serif" font-size="10.00">::init</text>
</a>
</g>
</g>
<!-- Node1&#45;&gt;Node8 -->
<g id="edge7" class="edge">
<title>Node1&#45;&gt;Node8</title>
<path fill="none" stroke="midnightblue" d="M775.91,-354.06C758.16,-369.04 732.88,-388.56 708,-401.5 701.69,-404.78 694.84,-407.73 687.95,-410.35"/>
<polygon fill="midnightblue" stroke="midnightblue" points="778.2,-356.71 783.5,-347.54 773.64,-351.4 778.2,-356.71"/>
</g>
<!-- Node9 -->
<g id="node9" class="node">
<title>Node9</title>
<g id="a_node9"><a xlink:href="classvae_1_1core_1_1_spatial_processor.html#ae4626b4677a83dd59ca2e84adcce1900" target="_top" xlink:title=" ">
<polygon fill="none" stroke="black" points="559,-361.5 559,-391.5 708,-391.5 708,-361.5 559,-361.5"/>
<text text-anchor="start" x="567" y="-379.5" font-family="Helvetica,sans-Serif" font-size="10.00">vae::core::SpatialProcessor</text>
<text text-anchor="middle" x="633.5" y="-368.5" font-family="Helvetica,sans-Serif" font-size="10.00">::init</text>
</a>
</g>
</g>
<!-- Node1&#45;&gt;Node9 -->
<g id="edge8" class="edge">
<title>Node1&#45;&gt;Node9</title>
<path fill="none" stroke="midnightblue" d="M734.21,-349.99C719.92,-353.79 704.93,-357.78 691.04,-361.47"/>
<polygon fill="midnightblue" stroke="midnightblue" points="735.2,-353.35 743.97,-347.4 733.41,-346.58 735.2,-353.35"/>
</g>
<!-- Node10 -->
<g id="node10" class="node">
<title>Node10</title>
<g id="a_node10"><a xlink:href="classvae_1_1core_1_1_device.html#aaab56a24f9f040b6a4be004ff94eff40" target="_top" xlink:title="initializes buffers, queues and resamplers if needed Has to be called in openDevice once the samplera...">
<polygon fill="none" stroke="black" points="387,-328 387,-347 510,-347 510,-328 387,-328"/>
<text text-anchor="middle" x="448.5" y="-335" font-family="Helvetica,sans-Serif" font-size="10.00">vae::core::Device::init</text>
</a>
</g>
</g>
<!-- Node1&#45;&gt;Node10 -->
<g id="edge9" class="edge">
<title>Node1&#45;&gt;Node10</title>
<path fill="none" stroke="midnightblue" d="M733.64,-333.45C669.27,-334.36 572.43,-335.75 510.09,-336.64"/>
<polygon fill="midnightblue" stroke="midnightblue" points="733.74,-336.95 743.69,-333.3 733.64,-329.95 733.74,-336.95"/>
</g>
<!-- Node15 -->
<g id="node15" class="node">
<title>Node15</title>
<g id="a_node15"><a xlink:href="classtklb_1_1_resampler_speex_tpl.html#a7bab4da85cc386c5d34cf8ced0bd1092" target="_top" xlink:title="setup the resampler">
<polygon fill="none" stroke="black" points="564,-273.5 564,-303.5 703,-303.5 703,-273.5 564,-273.5"/>
<text text-anchor="start" x="572" y="-291.5" font-family="Helvetica,sans-Serif" font-size="10.00">tklb::ResamplerSpeexTpl</text>
<text text-anchor="middle" x="633.5" y="-280.5" font-family="Helvetica,sans-Serif" font-size="10.00">::init</text>
</a>
</g>
</g>
<!-- Node1&#45;&gt;Node15 -->
<g id="edge14" class="edge">
<title>Node1&#45;&gt;Node15</title>
<path fill="none" stroke="midnightblue" d="M734.21,-315.01C719.92,-311.21 704.93,-307.22 691.04,-303.53"/>
<polygon fill="midnightblue" stroke="midnightblue" points="733.41,-318.42 743.97,-317.6 735.2,-311.65 733.41,-318.42"/>
</g>
<!-- Node21 -->
<g id="node21" class="node">
<title>Node21</title>
<g id="a_node21"><a xlink:href="classvae_1_1core_1_1_h_r_t_f_loader.html#a38e07107ad81acdbaed1ac6874978534" target="_top" xlink:title=" ">
<polygon fill="none" stroke="black" points="570.5,-224.5 570.5,-254.5 696.5,-254.5 696.5,-224.5 570.5,-224.5"/>
<text text-anchor="start" x="578.5" y="-242.5" font-family="Helvetica,sans-Serif" font-size="10.00">vae::core::HRTFLoader</text>
<text text-anchor="middle" x="633.5" y="-231.5" font-family="Helvetica,sans-Serif" font-size="10.00">::load</text>
</a>
</g>
</g>
<!-- Node1&#45;&gt;Node21 -->
<g id="edge21" class="edge">
<title>Node1&#45;&gt;Node21</title>
<path fill="none" stroke="midnightblue" d="M775,-310.69C757.25,-296.07 732.35,-277.24 708,-264.5 700.95,-260.81 693.25,-257.5 685.57,-254.58"/>
<polygon fill="midnightblue" stroke="midnightblue" points="773.19,-313.74 783.1,-317.48 777.68,-308.38 773.19,-313.74"/>
</g>
<!-- Node26 -->
<g id="node26" class="node">
<title>Node26</title>
<g id="a_node26"><a xlink:href="classtklb_1_1_oversampler.html#a40d54629ec65a9ac831fd6ff0dd7cf50" target="_top" xlink:title=" ">
<polygon fill="none" stroke="black" points="578.5,-175.5 578.5,-205.5 688.5,-205.5 688.5,-175.5 578.5,-175.5"/>
<text text-anchor="start" x="586.5" y="-193.5" font-family="Helvetica,sans-Serif" font-size="10.00">tklb::Oversampler::</text>
<text text-anchor="middle" x="633.5" y="-182.5" font-family="Helvetica,sans-Serif" font-size="10.00">Oversampler</text>
</a>
</g>
</g>
<!-- Node1&#45;&gt;Node26 -->
<g id="edge26" class="edge">
<title>Node1&#45;&gt;Node26</title>
<path fill="none" stroke="midnightblue" d="M786.77,-308.31C771.18,-281.95 742.93,-240.24 708,-215.5 702.17,-211.37 695.6,-207.88 688.86,-204.94"/>
<polygon fill="midnightblue" stroke="midnightblue" points="783.9,-310.35 791.92,-317.27 789.97,-306.86 783.9,-310.35"/>
</g>
<!-- Node27 -->
<g id="node27" class="node">
<title>Node27</title>
<g id="a_node27"><a xlink:href="classtklb_1_1_audio_buffer_tpl.html#aa499f1955434db5b9a50811c47b7e6ba" target="_top" xlink:title="Resize to the provided length and keep the channelcount.">
<polygon fill="none" stroke="black" points="576.5,-126.5 576.5,-156.5 690.5,-156.5 690.5,-126.5 576.5,-126.5"/>
<text text-anchor="start" x="584.5" y="-144.5" font-family="Helvetica,sans-Serif" font-size="10.00">tklb::AudioBufferTpl</text>
<text text-anchor="middle" x="633.5" y="-133.5" font-family="Helvetica,sans-Serif" font-size="10.00">::resize</text>
</a>
</g>
</g>
<!-- Node1&#45;&gt;Node27 -->
<g id="edge27" class="edge">
<title>Node1&#45;&gt;Node27</title>
<path fill="none" stroke="midnightblue" d="M792.56,-307.48C780.56,-271.31 753.56,-204.58 708,-166.5 702.83,-162.18 696.87,-158.59 690.64,-155.62"/>
<polygon fill="midnightblue" stroke="midnightblue" points="789.3,-308.78 795.68,-317.24 795.97,-306.65 789.3,-308.78"/>
</g>
<!-- Node28 -->
<g id="node28" class="node">
<title>Node28</title>
<g id="a_node28"><a xlink:href="classtklb_1_1_f_f_t_ooura.html#a16f00f5786aa1dc841e9cc645be3551c" target="_top" xlink:title=" ">
<polygon fill="none" stroke="black" points="572.5,-88 572.5,-107 694.5,-107 694.5,-88 572.5,-88"/>
<text text-anchor="middle" x="633.5" y="-95" font-family="Helvetica,sans-Serif" font-size="10.00">tklb::FFTOoura::resize</text>
</a>
</g>
</g>
<!-- Node1&#45;&gt;Node28 -->
<g id="edge28" class="edge">
<title>Node1&#45;&gt;Node28</title>
<path fill="none" stroke="midnightblue" d="M796.45,-307.31C788.76,-262.35 766.29,-168.22 708,-117.5 703.01,-113.16 697.17,-109.75 690.99,-107.08"/>
<polygon fill="midnightblue" stroke="midnightblue" points="793.02,-308.06 798.06,-317.38 799.94,-306.95 793.02,-308.06"/>
</g>
<!-- Node30 -->
<g id="node30" class="node">
<title>Node30</title>
<g id="a_node30"><a xlink:href="classtklb_1_1_f_f_tpffft.html#aa000aaef03d17f700739512621a04f7a" target="_top" xlink:title=" ">
<polygon fill="none" stroke="black" points="576.5,-50 576.5,-69 690.5,-69 690.5,-50 576.5,-50"/>
<text text-anchor="middle" x="633.5" y="-57" font-family="Helvetica,sans-Serif" font-size="10.00">tklb::FFTpffft::resize</text>
</a>
</g>
</g>
<!-- Node1&#45;&gt;Node30 -->
<g id="edge30" class="edge">
<title>Node1&#45;&gt;Node30</title>
<path fill="none" stroke="midnightblue" d="M798.39,-307.1C793.74,-255.96 775.88,-140.24 708,-78.5 703.03,-73.98 697.12,-70.5 690.85,-67.84"/>
<polygon fill="midnightblue" stroke="midnightblue" points="794.92,-307.58 799.21,-317.26 801.89,-307.01 794.92,-307.58"/>
</g>
<!-- Node3 -->
<g id="node3" class="node">
<title>Node3</title>
<g id="a_node3"><a xlink:href="classvae_1_1core_1_1_engine.html#a076e09fed38f307d533a94570d08d763" target="_top" xlink:title=" ">
<polygon fill="none" stroke="black" points="395,-606.5 395,-636.5 502,-636.5 502,-606.5 395,-606.5"/>
<text text-anchor="start" x="403" y="-624.5" font-family="Helvetica,sans-Serif" font-size="10.00">vae::core::Engine::</text>
<text text-anchor="middle" x="448.5" y="-613.5" font-family="Helvetica,sans-Serif" font-size="10.00">addMixer</text>
</a>
</g>
</g>
<!-- Node2&#45;&gt;Node3 -->
<g id="edge2" class="edge">
<title>Node2&#45;&gt;Node3</title>
<path fill="none" stroke="midnightblue" d="M556.42,-621.5C538.21,-621.5 519.17,-621.5 502.28,-621.5"/>
<polygon fill="midnightblue" stroke="midnightblue" points="556.43,-625 566.43,-621.5 556.43,-618 556.43,-625"/>
</g>
<!-- Node7 -->
<g id="node7" class="node">
<title>Node7</title>
<g id="a_node7"><a xlink:href="classvae_1_1core_1_1_mixer_processor.html#acac3aba19b52d4686d3f776314fcdfec" target="_top" xlink:title=" ">
<polygon fill="none" stroke="black" points="377.5,-459.5 377.5,-489.5 519.5,-489.5 519.5,-459.5 377.5,-459.5"/>
<text text-anchor="start" x="385.5" y="-477.5" font-family="Helvetica,sans-Serif" font-size="10.00">vae::core::MixerProcessor</text>
<text text-anchor="middle" x="448.5" y="-466.5" font-family="Helvetica,sans-Serif" font-size="10.00">::init</text>
</a>
</g>
</g>
<!-- Node6&#45;&gt;Node7 -->
<g id="edge6" class="edge">
<title>Node6&#45;&gt;Node7</title>
<path fill="none" stroke="midnightblue" d="M548.79,-474.5C539.07,-474.5 529.24,-474.5 519.73,-474.5"/>
<polygon fill="midnightblue" stroke="midnightblue" points="548.86,-478 558.86,-474.5 548.86,-471 548.86,-478"/>
</g>
<!-- Node11 -->
<g id="node11" class="node">
<title>Node11</title>
<g id="a_node11"><a xlink:href="classvae_1_1core_1_1_device_dummy.html#ad85627cd3e6556da54cb511720b09f04" target="_top" xlink:title="Tries to open the default audio device whith desired in out channels.">
<polygon fill="none" stroke="black" points="194,-420.5 194,-450.5 334,-450.5 334,-420.5 194,-420.5"/>
<text text-anchor="start" x="202" y="-438.5" font-family="Helvetica,sans-Serif" font-size="10.00">vae::core::DeviceDummy</text>
<text text-anchor="middle" x="264" y="-427.5" font-family="Helvetica,sans-Serif" font-size="10.00">::openDevice</text>
</a>
</g>
</g>
<!-- Node10&#45;&gt;Node11 -->
<g id="edge10" class="edge">
<title>Node10&#45;&gt;Node11</title>
<path fill="none" stroke="midnightblue" d="M427.78,-353.3C406.62,-369.66 371.5,-395.07 338,-411.5 331.29,-414.79 324.03,-417.79 316.77,-420.47"/>
<polygon fill="midnightblue" stroke="midnightblue" points="429.98,-356.03 435.7,-347.11 425.67,-350.52 429.98,-356.03"/>
</g>
<!-- Node13 -->
<g id="node13" class="node">
<title>Node13</title>
<g id="a_node13"><a xlink:href="classvae_1_1core_1_1_device_portaudio.html#a9a6538b4e9555085a36b67a1850f333d" target="_top" xlink:title="Opens a specific audio device.">
<polygon fill="none" stroke="black" points="190,-371.5 190,-401.5 338,-401.5 338,-371.5 190,-371.5"/>
<text text-anchor="start" x="198" y="-389.5" font-family="Helvetica,sans-Serif" font-size="10.00">vae::core::DevicePortaudio</text>
<text text-anchor="middle" x="264" y="-378.5" font-family="Helvetica,sans-Serif" font-size="10.00">::openDevice</text>
</a>
</g>
</g>
<!-- Node10&#45;&gt;Node13 -->
<g id="edge12" class="edge">
<title>Node10&#45;&gt;Node13</title>
<path fill="none" stroke="midnightblue" d="M402.1,-349.69C377.55,-356.28 347.02,-364.48 321.01,-371.46"/>
<polygon fill="midnightblue" stroke="midnightblue" points="403.13,-353.04 411.88,-347.06 401.31,-346.28 403.13,-353.04"/>
</g>
<!-- Node14 -->
<g id="node14" class="node">
<title>Node14</title>
<g id="a_node14"><a xlink:href="classvae_1_1core_1_1_device_rtaudio.html#a755c0aea3ee53c858f2dc3e61503de95" target="_top" xlink:title="Opens a specific audio device.">
<polygon fill="none" stroke="black" points="194.5,-322.5 194.5,-352.5 333.5,-352.5 333.5,-322.5 194.5,-322.5"/>
<text text-anchor="start" x="202.5" y="-340.5" font-family="Helvetica,sans-Serif" font-size="10.00">vae::core::DeviceRtaudio</text>
<text text-anchor="middle" x="264" y="-329.5" font-family="Helvetica,sans-Serif" font-size="10.00">::openDevice</text>
</a>
</g>
</g>
<!-- Node10&#45;&gt;Node14 -->
<g id="edge13" class="edge">
<title>Node10&#45;&gt;Node14</title>
<path fill="none" stroke="midnightblue" d="M376.79,-337.5C362.58,-337.5 347.68,-337.5 333.55,-337.5"/>
<polygon fill="midnightblue" stroke="midnightblue" points="376.98,-341 386.98,-337.5 376.98,-334 376.98,-341"/>
</g>
<!-- Node12 -->
<g id="node12" class="node">
<title>Node12</title>
<g id="a_node12"><a xlink:href="classvae_1_1core_1_1_device_dummy.html#af40b5ee7c4ac8116abfcfd41a427b7f7" target="_top" xlink:title="Opens a specific audio device.">
<polygon fill="none" stroke="black" points="7,-420.5 7,-450.5 147,-450.5 147,-420.5 7,-420.5"/>
<text text-anchor="start" x="15" y="-438.5" font-family="Helvetica,sans-Serif" font-size="10.00">vae::core::DeviceDummy</text>
<text text-anchor="middle" x="77" y="-427.5" font-family="Helvetica,sans-Serif" font-size="10.00">::openDevice</text>
</a>
</g>
</g>
<!-- Node11&#45;&gt;Node12 -->
<g id="edge11" class="edge">
<title>Node11&#45;&gt;Node12</title>
<path fill="none" stroke="midnightblue" d="M183.7,-435.5C171.51,-435.5 159.01,-435.5 147.07,-435.5"/>
<polygon fill="midnightblue" stroke="midnightblue" points="183.85,-439 193.85,-435.5 183.85,-432 183.85,-439"/>
</g>
<!-- Node15&#45;&gt;Node10 -->
<g id="edge15" class="edge">
<title>Node15&#45;&gt;Node10</title>
<path fill="none" stroke="midnightblue" d="M566.16,-306.26C538.72,-313.61 508.01,-321.83 484.99,-328"/>
<polygon fill="midnightblue" stroke="midnightblue" points="567.35,-309.57 576.1,-303.6 565.54,-302.81 567.35,-309.57"/>
</g>
<!-- Node16 -->
<g id="node16" class="node">
<title>Node16</title>
<g id="a_node16"><a xlink:href="classtklb_1_1_resampler_speex_tpl.html#aafe03dda374652f23a8020a7f975b8b4" target="_top" xlink:title="Resamples the provided buffer from its sampleRate to the target rate.">
<polygon fill="none" stroke="black" points="379,-273.5 379,-303.5 518,-303.5 518,-273.5 379,-273.5"/>
<text text-anchor="start" x="387" y="-291.5" font-family="Helvetica,sans-Serif" font-size="10.00">tklb::ResamplerSpeexTpl</text>
<text text-anchor="middle" x="448.5" y="-280.5" font-family="Helvetica,sans-Serif" font-size="10.00">::resample</text>
</a>
</g>
</g>
<!-- Node15&#45;&gt;Node16 -->
<g id="edge16" class="edge">
<title>Node15&#45;&gt;Node16</title>
<path fill="none" stroke="midnightblue" d="M553.59,-288.5C541.83,-288.5 529.78,-288.5 518.24,-288.5"/>
<polygon fill="midnightblue" stroke="midnightblue" points="553.84,-292 563.84,-288.5 553.84,-285 553.84,-292"/>
</g>
<!-- Node20 -->
<g id="node20" class="node">
<title>Node20</title>
<g id="a_node20"><a xlink:href="classtklb_1_1_resampler_speex_tpl.html#a4b543867ca5bc588b886535c8b4432bc" target="_top" xlink:title=" ">
<polygon fill="none" stroke="black" points="379,-224.5 379,-254.5 518,-254.5 518,-224.5 379,-224.5"/>
<text text-anchor="start" x="387" y="-242.5" font-family="Helvetica,sans-Serif" font-size="10.00">tklb::ResamplerSpeexTpl</text>
<text text-anchor="middle" x="448.5" y="-231.5" font-family="Helvetica,sans-Serif" font-size="10.00">::ResamplerSpeexTpl</text>
</a>
</g>
</g>
<!-- Node15&#45;&gt;Node20 -->
<g id="edge20" class="edge">
<title>Node15&#45;&gt;Node20</title>
<path fill="none" stroke="midnightblue" d="M566.21,-270.75C546.38,-265.44 524.83,-259.67 505.71,-254.55"/>
<polygon fill="midnightblue" stroke="midnightblue" points="565.54,-274.19 576.1,-273.4 567.35,-267.43 565.54,-274.19"/>
</g>
<!-- Node17 -->
<g id="node17" class="node">
<title>Node17</title>
<g id="a_node17"><a xlink:href="classvae_1_1core_1_1_bank_manager.html#a6542180b77772f1605e211bd851f8996" target="_top" xlink:title=" ">
<polygon fill="none" stroke="black" points="197,-273.5 197,-303.5 331,-303.5 331,-273.5 197,-273.5"/>
<text text-anchor="start" x="205" y="-291.5" font-family="Helvetica,sans-Serif" font-size="10.00">vae::core::BankManager</text>
<text text-anchor="middle" x="264" y="-280.5" font-family="Helvetica,sans-Serif" font-size="10.00">::addSource</text>
</a>
</g>
</g>
<!-- Node16&#45;&gt;Node17 -->
<g id="edge17" class="edge">
<title>Node16&#45;&gt;Node17</title>
<path fill="none" stroke="midnightblue" d="M368.44,-288.5C356.04,-288.5 343.33,-288.5 331.26,-288.5"/>
<polygon fill="midnightblue" stroke="midnightblue" points="368.76,-292 378.76,-288.5 368.76,-285 368.76,-292"/>
</g>
<!-- Node19 -->
<g id="node19" class="node">
<title>Node19</title>
<g id="a_node19"><a xlink:href="classvae_1_1core_1_1_bank_manager.html#adbc94fb2b23a418e34a3eda7812d71a6" target="_top" xlink:title=" ">
<polygon fill="none" stroke="black" points="197,-224.5 197,-254.5 331,-254.5 331,-224.5 197,-224.5"/>
<text text-anchor="start" x="205" y="-242.5" font-family="Helvetica,sans-Serif" font-size="10.00">vae::core::BankManager</text>
<text text-anchor="middle" x="264" y="-231.5" font-family="Helvetica,sans-Serif" font-size="10.00">::load</text>
</a>
</g>
</g>
<!-- Node16&#45;&gt;Node19 -->
<g id="edge19" class="edge">
<title>Node16&#45;&gt;Node19</title>
<path fill="none" stroke="midnightblue" d="M381.4,-270.75C361.62,-265.44 340.13,-259.67 321.06,-254.55"/>
<polygon fill="midnightblue" stroke="midnightblue" points="380.69,-274.19 391.25,-273.4 382.5,-267.43 380.69,-274.19"/>
</g>
<!-- Node18 -->
<g id="node18" class="node">
<title>Node18</title>
<g id="a_node18"><a xlink:href="classvae_1_1core_1_1_engine.html#aba4ba7edf58f833125633e7149e4d499" target="_top" xlink:title="Add or replace a source in a bank.">
<polygon fill="none" stroke="black" points="23.5,-273.5 23.5,-303.5 130.5,-303.5 130.5,-273.5 23.5,-273.5"/>
<text text-anchor="start" x="31.5" y="-291.5" font-family="Helvetica,sans-Serif" font-size="10.00">vae::core::Engine::</text>
<text text-anchor="middle" x="77" y="-280.5" font-family="Helvetica,sans-Serif" font-size="10.00">addSource</text>
</a>
</g>
</g>
<!-- Node17&#45;&gt;Node18 -->
<g id="edge18" class="edge">
<title>Node17&#45;&gt;Node18</title>
<path fill="none" stroke="midnightblue" d="M186.9,-288.5C167.99,-288.5 148.12,-288.5 130.62,-288.5"/>
<polygon fill="midnightblue" stroke="midnightblue" points="186.99,-292 196.99,-288.5 186.99,-285 186.99,-292"/>
</g>
<!-- Node22 -->
<g id="node22" class="node">
<title>Node22</title>
<g id="a_node22"><a xlink:href="classvae_1_1core_1_1_spatial_processor.html#ad598b5dcbe8bed69fa6cb0b726170dd3" target="_top" xlink:title=" ">
<polygon fill="none" stroke="black" points="374,-175.5 374,-205.5 523,-205.5 523,-175.5 374,-175.5"/>
<text text-anchor="start" x="382" y="-193.5" font-family="Helvetica,sans-Serif" font-size="10.00">vae::core::SpatialProcessor</text>
<text text-anchor="middle" x="448.5" y="-182.5" font-family="Helvetica,sans-Serif" font-size="10.00">::loadHRTF</text>
</a>
</g>
</g>
<!-- Node21&#45;&gt;Node22 -->
<g id="edge22" class="edge">
<title>Node21&#45;&gt;Node22</title>
<path fill="none" stroke="midnightblue" d="M566.21,-221.75C546.38,-216.44 524.83,-210.67 505.71,-205.55"/>
<polygon fill="midnightblue" stroke="midnightblue" points="565.54,-225.19 576.1,-224.4 567.35,-218.43 565.54,-225.19"/>
</g>
<!-- Node23 -->
<g id="node23" class="node">
<title>Node23</title>
<g id="a_node23"><a xlink:href="classvae_1_1core_1_1_engine.html#a98bb7b9ed016675701fb91069fb1a066" target="_top" xlink:title=" ">
<polygon fill="none" stroke="black" points="210.5,-175.5 210.5,-205.5 317.5,-205.5 317.5,-175.5 210.5,-175.5"/>
<text text-anchor="start" x="218.5" y="-193.5" font-family="Helvetica,sans-Serif" font-size="10.00">vae::core::Engine::</text>
<text text-anchor="middle" x="264" y="-182.5" font-family="Helvetica,sans-Serif" font-size="10.00">loadHRTF</text>
</a>
</g>
</g>
<!-- Node22&#45;&gt;Node23 -->
<g id="edge23" class="edge">
<title>Node22&#45;&gt;Node23</title>
<path fill="none" stroke="midnightblue" d="M363.58,-190.5C347.95,-190.5 332.03,-190.5 317.67,-190.5"/>
<polygon fill="midnightblue" stroke="midnightblue" points="363.8,-194 373.8,-190.5 363.8,-187 363.8,-194"/>
</g>
<!-- Node24 -->
<g id="node24" class="node">
<title>Node24</title>
<g id="a_node24"><a xlink:href="classvae_1_1_engine_pimpl.html#a27d216a0e4169074b38559d77b876748" target="_top" xlink:title=" ">
<polygon fill="none" stroke="black" points="0,-200 0,-219 154,-219 154,-200 0,-200"/>
<text text-anchor="middle" x="77" y="-207" font-family="Helvetica,sans-Serif" font-size="10.00">vae::EnginePimpl::loadHRTF</text>
</a>
</g>
</g>
<!-- Node23&#45;&gt;Node24 -->
<g id="edge24" class="edge">
<title>Node23&#45;&gt;Node24</title>
<path fill="none" stroke="midnightblue" d="M200.4,-196.93C185.54,-198.46 169.52,-200.1 154.13,-201.68"/>
<polygon fill="midnightblue" stroke="midnightblue" points="200.89,-200.4 210.48,-195.89 200.18,-193.43 200.89,-200.4"/>
</g>
<!-- Node25 -->
<g id="node25" class="node">
<title>Node25</title>
<g id="a_node25"><a xlink:href="main_8cpp.html#ae66f6b31b5ad750f1fe042a706a4e3d4" target="_top" xlink:title=" ">
<polygon fill="none" stroke="black" points="56.5,-162 56.5,-181 97.5,-181 97.5,-162 56.5,-162"/>
<text text-anchor="middle" x="77" y="-169" font-family="Helvetica,sans-Serif" font-size="10.00">main</text>
</a>
</g>
</g>
<!-- Node23&#45;&gt;Node25 -->
<g id="edge25" class="edge">
<title>Node23&#45;&gt;Node25</title>
<path fill="none" stroke="midnightblue" d="M200.11,-184.04C164.34,-180.37 121.97,-176.02 97.71,-173.52"/>
<polygon fill="midnightblue" stroke="midnightblue" points="200.18,-187.57 210.48,-185.11 200.89,-180.6 200.18,-187.57"/>
</g>
<!-- Node29 -->
<g id="node29" class="node">
<title>Node29</title>
<g id="a_node29"><a xlink:href="classtklb_1_1_f_f_t_ooura.html#af07aa531353ef86ebedab86e25aacdee" target="_top" xlink:title=" ">
<polygon fill="none" stroke="black" points="379,-88 379,-107 518,-107 518,-88 379,-88"/>
<text text-anchor="middle" x="448.5" y="-95" font-family="Helvetica,sans-Serif" font-size="10.00">tklb::FFTOoura::FFTOoura</text>
</a>
</g>
</g>
<!-- Node28&#45;&gt;Node29 -->
<g id="edge29" class="edge">
<title>Node28&#45;&gt;Node29</title>
<path fill="none" stroke="midnightblue" d="M562.02,-97.5C547.66,-97.5 532.57,-97.5 518.27,-97.5"/>
<polygon fill="midnightblue" stroke="midnightblue" points="562.33,-101 572.33,-97.5 562.33,-94 562.33,-101"/>
</g>
<!-- Node31 -->
<g id="node31" class="node">
<title>Node31</title>
<g id="a_node31"><a xlink:href="classtklb_1_1_f_f_tpffft.html#af5dd4092c8ba0877c1adf3da5644ce1a" target="_top" xlink:title=" ">
<polygon fill="none" stroke="black" points="387.5,-50 387.5,-69 509.5,-69 509.5,-50 387.5,-50"/>
<text text-anchor="middle" x="448.5" y="-57" font-family="Helvetica,sans-Serif" font-size="10.00">tklb::FFTpffft::FFTpffft</text>
</a>
</g>
</g>
<!-- Node30&#45;&gt;Node31 -->
<g id="edge31" class="edge">
<title>Node30&#45;&gt;Node31</title>
<path fill="none" stroke="midnightblue" d="M566.01,-59.5C547.54,-59.5 527.6,-59.5 509.52,-59.5"/>
<polygon fill="midnightblue" stroke="midnightblue" points="566.1,-63 576.1,-59.5 566.1,-56 566.1,-63"/>
</g>
<!-- Node32 -->
<g id="node32" class="node">
<title>Node32</title>
<g id="a_node32"><a xlink:href="classtklb_1_1_convolver_mono_tpl.html#a67f9498b46370c1a273b47ccc4863e21" target="_top" xlink:title="Load a impulse response and prepare the convolution.">
<polygon fill="none" stroke="black" points="382.5,-0.5 382.5,-30.5 514.5,-30.5 514.5,-0.5 382.5,-0.5"/>
<text text-anchor="start" x="390.5" y="-18.5" font-family="Helvetica,sans-Serif" font-size="10.00">tklb::ConvolverMonoTpl</text>
<text text-anchor="middle" x="448.5" y="-7.5" font-family="Helvetica,sans-Serif" font-size="10.00">::load</text>
</a>
</g>
</g>
<!-- Node30&#45;&gt;Node32 -->
<g id="edge32" class="edge">
<title>Node30&#45;&gt;Node32</title>
<path fill="none" stroke="midnightblue" d="M582.78,-47.54C561.01,-42.31 535.22,-36.11 512.16,-30.57"/>
<polygon fill="midnightblue" stroke="midnightblue" points="582.25,-51.02 592.79,-49.95 583.89,-44.21 582.25,-51.02"/>
</g>
</g>
</svg>
        <g id="navigator" transform="translate(0 0)" fill="#404254">
                <rect fill="#f2f5e9" fill-opacity="0.5" stroke="#606060" stroke-width=".5" x="0" y="0" width="60" height="60"/>
                <use id="zoomplus" xlink:href="#zoomPlus" x="17" y="9" onmousedown="handleZoom(evt,'in')"/>
                <use id="zoomminus" xlink:href="#zoomMin" x="42" y="9" onmousedown="handleZoom(evt,'out')"/>
                <use id="reset" xlink:href="#resetDef" x="30" y="36" onmousedown="handleReset()"/>
                <g id="arrowUp" xlink:href="#dirArrow" transform="translate(30 24)" onmousedown="handlePan(0,-1)">
                  <use xlink:href="#rim" fill="#404040">
                        <set attributeName="fill" to="#808080" begin="arrowUp.mouseover" end="arrowUp.mouseout"/>
                  </use>
                  <path fill="none" stroke="white" stroke-width="1.5" d="M0,-3.0v7 M-2.5,-0.5L0,-3.0L2.5,-0.5"/>
                </g>
                <g id="arrowRight" xlink:href="#dirArrow" transform="rotate(90) translate(36 -43)" onmousedown="handlePan(1,0)">
                  <use xlink:href="#rim" fill="#404040">
                        <set attributeName="fill" to="#808080" begin="arrowRight.mouseover" end="arrowRight.mouseout"/>
                  </use>
                  <path fill="none" stroke="white" stroke-width="1.5" d="M0,-3.0v7 M-2.5,-0.5L0,-3.0L2.5,-0.5"/>
                </g>
                <g id="arrowDown" xlink:href="#dirArrow" transform="rotate(180) translate(-30 -48)" onmousedown="handlePan(0,1)">
                  <use xlink:href="#rim" fill="#404040">
                        <set attributeName="fill" to="#808080" begin="arrowDown.mouseover" end="arrowDown.mouseout"/>
                  </use>
                  <path fill="none" stroke="white" stroke-width="1.5" d="M0,-3.0v7 M-2.5,-0.5L0,-3.0L2.5,-0.5"/>
                </g>
                <g id="arrowLeft" xlink:href="#dirArrow" transform="rotate(270) translate(-36 17)" onmousedown="handlePan(-1,0)">
                  <use xlink:href="#rim" fill="#404040">
                        <set attributeName="fill" to="#808080" begin="arrowLeft.mouseover" end="arrowLeft.mouseout"/>
                  </use>
                  <path fill="none" stroke="white" stroke-width="1.5" d="M0,-3.0v7 M-2.5,-0.5L0,-3.0L2.5,-0.5"/>
                </g>
        </g>
        <svg viewBox="0 0 15 15" width="100%" height="30px" preserveAspectRatio="xMaxYMin meet">
         <g id="arrow_out" transform="scale(0.3 0.3)">
          <a xlink:href="classtklb_1_1_audio_buffer_tpl_a35b40f6d6b1fc2939613b1b84313b0bc_icgraph_org.svg" target="_base">
           <rect id="button" ry="5" rx="5" y="6" x="6" height="38" width="38"
                fill="#f2f5e9" fill-opacity="0.5" stroke="#606060" stroke-width="1.0"/>
           <path id="arrow"
             d="M 11.500037,31.436501 C 11.940474,20.09759 22.043105,11.32322 32.158766,21.979434 L 37.068811,17.246167 C 37.068811,17.246167 37.088388,32 37.088388,32 L 22.160133,31.978069 C 22.160133,31.978069 26.997745,27.140456 26.997745,27.140456 C 18.528582,18.264221 13.291696,25.230495 11.500037,31.436501 z"
             style="fill:#404040;"/>
          </a>
         </g>
        </svg>
</svg>
