<?xml version="1.0" encoding="UTF-8" standalone="no"?>
<!DOCTYPE svg PUBLIC "-//W3C//DTD SVG 1.1//EN"
 "http://www.w3.org/Graphics/SVG/1.1/DTD/svg11.dtd">
<!-- Generated by graphviz version 2.50.0 (0)
 -->
<!-- Title: vae::core::Device::push Pages: 1 -->
<!--zoomable 241 -->
<svg id="main" version="1.1" xmlns="http://www.w3.org/2000/svg" xmlns:xlink="http://www.w3.org/1999/xlink" xml:space="preserve" onload="init(evt)">
<style type="text/css"><![CDATA[
.edge:hover path { stroke: red; }
.edge:hover polygon { stroke: red; fill: red; }
]]></style>
<script type="text/javascript"><![CDATA[
var edges = document.getElementsByTagName('g');
if (edges && edges.length) {
  for (var i=0;i<edges.length;i++) {
    if (edges[i].id.substr(0,4)=='edge') {
      edges[i].setAttribute('class','edge');
    }
  }
}
]]></script>
        <defs>
                <circle id="rim" cx="0" cy="0" r="7"/>
                <circle id="rim2" cx="0" cy="0" r="3.5"/>
                <g id="zoomPlus">
                        <use xlink:href="#rim" fill="#404040">
                                <set attributeName="fill" to="#808080" begin="zoomplus.mouseover" end="zoomplus.mouseout"/>
                        </use>
                        <path d="M-4,0h8M0,-4v8" fill="none" stroke="white" stroke-width="1.5" pointer-events="none"/>
                </g>
                <g id="zoomMin">
                        <use xlink:href="#rim" fill="#404040">
                                <set attributeName="fill" to="#808080" begin="zoomminus.mouseover" end="zoomminus.mouseout"/>
                        </use>
                        <path d="M-4,0h8" fill="none" stroke="white" stroke-width="1.5" pointer-events="none"/>
                </g>
                <g id="dirArrow">
                        <path fill="none" stroke="white" stroke-width="1.5" d="M0,-3.0v7 M-2.5,-0.5L0,-3.0L2.5,-0.5"/>
                </g>
               <g id="resetDef">
                       <use xlink:href="#rim2" fill="#404040">
                               <set attributeName="fill" to="#808080" begin="reset.mouseover" end="reset.mouseout"/>
                       </use>
               </g>
        </defs>

<script type="text/javascript">
var viewWidth = 661;
var viewHeight = 241;
var sectionId = 'dynsection-11';
</script>
<script xlink:href="svgpan.js"/>
<svg id="graph" class="graph">
<g id="viewport">
<title>vae::core::Device::push</title>
<!-- Node1 -->
<g id="node1" class="node">
<title>Node1</title>
<g id="a_node1"><a xlink:title="Push samples to the audio device.">
<polygon fill="#bfbfbf" stroke="black" points="0,-94 0,-113 131,-113 131,-94 0,-94"/>
<text text-anchor="middle" x="65.5" y="-101" font-family="Helvetica,sans-Serif" font-size="10.00">vae::core::Device::push</text>
</a>
</g>
</g>
<!-- Node2 -->
<g id="node2" class="node">
<title>Node2</title>
<g id="a_node2"><a xlink:href="classtklb_1_1_resampler_speex_tpl.html#a4c850eae9c52572059bf899e672215e2" target="_top" xlink:title=" ">
<polygon fill="none" stroke="black" points="167,-165.5 167,-195.5 306,-195.5 306,-165.5 167,-165.5"/>
<text text-anchor="start" x="175" y="-183.5" font-family="Helvetica,sans-Serif" font-size="10.00">tklb::ResamplerSpeexTpl</text>
<text text-anchor="middle" x="236.5" y="-172.5" font-family="Helvetica,sans-Serif" font-size="10.00">::isInitialized</text>
</a>
</g>
</g>
<!-- Node1&#45;&gt;Node2 -->
<g id="edge1" class="edge">
<title>Node1&#45;&gt;Node2</title>
<path fill="none" stroke="midnightblue" d="M82.84,-113.09C102.43,-124.35 136.44,-143.18 167,-156.5 171.14,-158.31 175.46,-160.08 179.84,-161.78"/>
<polygon fill="midnightblue" stroke="midnightblue" points="178.85,-165.15 189.45,-165.42 181.33,-158.61 178.85,-165.15"/>
</g>
<!-- Node3 -->
<g id="node3" class="node">
<title>Node3</title>
<g id="a_node3"><a xlink:href="classtklb_1_1_resampler_speex_tpl.html#ad536684ea5e815d1dd7d967127ecfb95" target="_top" xlink:title="Resample function Make sure the out buffer has enough space.">
<polygon fill="none" stroke="black" points="167,-116.5 167,-146.5 306,-146.5 306,-116.5 167,-116.5"/>
<text text-anchor="start" x="175" y="-134.5" font-family="Helvetica,sans-Serif" font-size="10.00">tklb::ResamplerSpeexTpl</text>
<text text-anchor="middle" x="236.5" y="-123.5" font-family="Helvetica,sans-Serif" font-size="10.00">::process</text>
</a>
</g>
</g>
<!-- Node1&#45;&gt;Node3 -->
<g id="edge2" class="edge">
<title>Node1&#45;&gt;Node3</title>
<path fill="none" stroke="midnightblue" d="M124.19,-113.06C134.73,-114.8 145.89,-116.65 156.92,-118.48"/>
<polygon fill="midnightblue" stroke="midnightblue" points="156.55,-121.97 166.99,-120.15 157.7,-115.06 156.55,-121.97"/>
</g>
<!-- Node10 -->
<g id="node10" class="node">
<title>Node10</title>
<g id="a_node10"><a xlink:href="classtklb_1_1_audio_ring_buffer_tpl.html#a4a1f2614ea727a4c26bd8936fa9e97d9" target="_top" xlink:title="Adds validSize() amount of frames to the buffer.">
<polygon fill="none" stroke="black" points="168.5,-64.5 168.5,-94.5 304.5,-94.5 304.5,-64.5 168.5,-64.5"/>
<text text-anchor="start" x="176.5" y="-82.5" font-family="Helvetica,sans-Serif" font-size="10.00">tklb::AudioRingBufferTpl</text>
<text text-anchor="middle" x="236.5" y="-71.5" font-family="Helvetica,sans-Serif" font-size="10.00">::push</text>
</a>
</g>
</g>
<!-- Node1&#45;&gt;Node10 -->
<g id="edge11" class="edge">
<title>Node1&#45;&gt;Node10</title>
<path fill="none" stroke="midnightblue" d="M131.36,-94.29C140.15,-93.04 149.24,-91.75 158.22,-90.47"/>
<polygon fill="midnightblue" stroke="midnightblue" points="158.89,-93.91 168.3,-89.04 157.9,-86.98 158.89,-93.91"/>
</g>
<!-- Node11 -->
<g id="node11" class="node">
<title>Node11</title>
<g id="a_node11"><a xlink:href="classtklb_1_1_audio_buffer_tpl.html#a86cec40e8c99a90d93db996d92ddfece" target="_top" xlink:title="Returns the length of actually valid audio in the buffer.">
<polygon fill="none" stroke="black" points="354.5,-0.5 354.5,-30.5 468.5,-30.5 468.5,-0.5 354.5,-0.5"/>
<text text-anchor="start" x="362.5" y="-18.5" font-family="Helvetica,sans-Serif" font-size="10.00">tklb::AudioBufferTpl</text>
<text text-anchor="middle" x="411.5" y="-7.5" font-family="Helvetica,sans-Serif" font-size="10.00">::validSize</text>
</a>
</g>
</g>
<!-- Node1&#45;&gt;Node11 -->
<g id="edge15" class="edge">
<title>Node1&#45;&gt;Node11</title>
<path fill="none" stroke="midnightblue" d="M82.98,-93.83C102.41,-82.86 136.01,-65.23 167,-55.5 225.51,-37.13 294.71,-26.8 344.36,-21.26"/>
<polygon fill="midnightblue" stroke="midnightblue" points="344.77,-24.74 354.34,-20.18 344.02,-17.78 344.77,-24.74"/>
</g>
<!-- Node4 -->
<g id="node4" class="node">
<title>Node4</title>
<g id="a_node4"><a xlink:href="classtklb_1_1_resampler_speex_tpl.html#a5b4b65f32dbcec425871cc26384d4643" target="_top" xlink:title="Estimate how many sample will be emitted in the next step.">
<polygon fill="none" stroke="black" points="342,-202.5 342,-232.5 481,-232.5 481,-202.5 342,-202.5"/>
<text text-anchor="start" x="350" y="-220.5" font-family="Helvetica,sans-Serif" font-size="10.00">tklb::ResamplerSpeexTpl</text>
<text text-anchor="middle" x="411.5" y="-209.5" font-family="Helvetica,sans-Serif" font-size="10.00">::estimateOut</text>
</a>
</g>
</g>
<!-- Node3&#45;&gt;Node4 -->
<g id="edge3" class="edge">
<title>Node3&#45;&gt;Node4</title>
<path fill="none" stroke="midnightblue" d="M285.68,-146.57C292.69,-149.47 299.67,-152.79 306,-156.5 324.21,-167.18 324.13,-176.25 342,-187.5 348.12,-191.35 354.82,-194.95 361.55,-198.22"/>
<polygon fill="midnightblue" stroke="midnightblue" points="360.17,-201.43 370.71,-202.46 363.11,-195.08 360.17,-201.43"/>
</g>
<!-- Node5 -->
<g id="node5" class="node">
<title>Node5</title>
<g id="a_node5"><a xlink:href="namespacetklb.html#a3080595da18d742645ec41d61828a426" target="_top" xlink:title=" ">
<polygon fill="none" stroke="black" points="555,-170 555,-189 615,-189 615,-170 555,-170"/>
<text text-anchor="middle" x="585" y="-177" font-family="Helvetica,sans-Serif" font-size="10.00">tklb::min</text>
</a>
</g>
</g>
<!-- Node3&#45;&gt;Node5 -->
<g id="edge4" class="edge">
<title>Node3&#45;&gt;Node5</title>
<path fill="none" stroke="midnightblue" d="M300.27,-146.53C313.97,-149.47 328.43,-152.31 342,-154.5 412.94,-165.93 496.48,-173.21 544.53,-176.81"/>
<polygon fill="midnightblue" stroke="midnightblue" points="544.57,-180.32 554.8,-177.56 545.09,-173.34 544.57,-180.32"/>
</g>
<!-- Node6 -->
<g id="node6" class="node">
<title>Node6</title>
<g id="a_node6"><a xlink:href="classtklb_1_1_audio_buffer_tpl.html#ab6e5250746ca3784a568591a3ffdbc12" target="_top" xlink:title="Set a single channel from an array.">
<polygon fill="none" stroke="black" points="344,-126 344,-145 479,-145 479,-126 344,-126"/>
<text text-anchor="middle" x="411.5" y="-133" font-family="Helvetica,sans-Serif" font-size="10.00">tklb::AudioBufferTpl::set</text>
</a>
</g>
</g>
<!-- Node3&#45;&gt;Node6 -->
<g id="edge5" class="edge">
<title>Node3&#45;&gt;Node6</title>
<path fill="none" stroke="midnightblue" d="M306.37,-133.09C315.34,-133.3 324.57,-133.51 333.66,-133.72"/>
<polygon fill="midnightblue" stroke="midnightblue" points="333.76,-137.23 343.84,-133.96 333.92,-130.23 333.76,-137.23"/>
</g>
<!-- Node9 -->
<g id="node9" class="node">
<title>Node9</title>
<g id="a_node9"><a xlink:href="classtklb_1_1_audio_buffer_tpl.html#af6df8d7e6840eee3f84807bd1662c3ed" target="_top" xlink:title="Returns the allocated length of the buffer.">
<polygon fill="none" stroke="black" points="528,-44.5 528,-74.5 642,-74.5 642,-44.5 528,-44.5"/>
<text text-anchor="start" x="536" y="-62.5" font-family="Helvetica,sans-Serif" font-size="10.00">tklb::AudioBufferTpl</text>
<text text-anchor="middle" x="585" y="-51.5" font-family="Helvetica,sans-Serif" font-size="10.00">::size</text>
</a>
</g>
</g>
<!-- Node3&#45;&gt;Node9 -->
<g id="edge10" class="edge">
<title>Node3&#45;&gt;Node9</title>
<path fill="none" stroke="midnightblue" d="M306.11,-118.63C354.97,-109.3 422.13,-96.16 481,-83.5 493.04,-80.91 505.84,-78.03 518.18,-75.19"/>
<polygon fill="midnightblue" stroke="midnightblue" points="519,-78.59 527.95,-72.93 517.42,-71.78 519,-78.59"/>
</g>
<!-- Node6&#45;&gt;Node5 -->
<g id="edge8" class="edge">
<title>Node6&#45;&gt;Node5</title>
<path fill="none" stroke="midnightblue" d="M449.71,-145.05C477.79,-152.25 516.22,-162.11 544.77,-169.44"/>
<polygon fill="midnightblue" stroke="midnightblue" points="544.25,-172.92 554.81,-172.01 545.99,-166.14 544.25,-172.92"/>
</g>
<!-- Node7 -->
<g id="node7" class="node">
<title>Node7</title>
<g id="a_node7"><a xlink:href="namespacetklb_1_1memory.html#ab89ec197028f903f4ea125eae46c4a10" target="_top" xlink:title="memcpy wrapper">
<polygon fill="none" stroke="black" points="529,-94 529,-113 641,-113 641,-94 529,-94"/>
<text text-anchor="middle" x="585" y="-101" font-family="Helvetica,sans-Serif" font-size="10.00">tklb::memory::copy</text>
</a>
</g>
</g>
<!-- Node6&#45;&gt;Node7 -->
<g id="edge6" class="edge">
<title>Node6&#45;&gt;Node7</title>
<path fill="none" stroke="midnightblue" d="M463.49,-125.99C482.16,-122.5 503.47,-118.53 522.93,-114.9"/>
<polygon fill="midnightblue" stroke="midnightblue" points="523.72,-118.31 532.91,-113.03 522.44,-111.43 523.72,-118.31"/>
</g>
<!-- Node8 -->
<g id="node8" class="node">
<title>Node8</title>
<g id="a_node8"><a xlink:href="classtklb_1_1_audio_buffer_tpl.html#aee0540e90ae2790f9a809917bc5a04fd" target="_top" xlink:title=" ">
<polygon fill="none" stroke="black" points="517,-132 517,-151 653,-151 653,-132 517,-132"/>
<text text-anchor="middle" x="585" y="-139" font-family="Helvetica,sans-Serif" font-size="10.00">tklb::AudioBufferTpl::get</text>
</a>
</g>
</g>
<!-- Node6&#45;&gt;Node8 -->
<g id="edge7" class="edge">
<title>Node6&#45;&gt;Node8</title>
<path fill="none" stroke="midnightblue" d="M479.3,-137.84C488.25,-138.15 497.49,-138.47 506.61,-138.79"/>
<polygon fill="midnightblue" stroke="midnightblue" points="506.7,-142.3 516.82,-139.15 506.95,-135.3 506.7,-142.3"/>
</g>
<!-- Node6&#45;&gt;Node9 -->
<g id="edge9" class="edge">
<title>Node6&#45;&gt;Node9</title>
<path fill="none" stroke="midnightblue" d="M446.47,-125.89C457.77,-122.09 470.22,-117.26 481,-111.5 498.64,-102.08 499.45,-94.09 517,-84.5 520.74,-82.46 524.68,-80.51 528.7,-78.68"/>
<polygon fill="midnightblue" stroke="midnightblue" points="530.37,-81.77 538.17,-74.59 527.6,-75.34 530.37,-81.77"/>
</g>
<!-- Node10&#45;&gt;Node6 -->
<g id="edge12" class="edge">
<title>Node10&#45;&gt;Node6</title>
<path fill="none" stroke="midnightblue" d="M283.86,-94.51C311.28,-103.38 345.62,-114.5 371.62,-122.92"/>
<polygon fill="midnightblue" stroke="midnightblue" points="370.56,-126.25 381.15,-126 372.71,-119.59 370.56,-126.25"/>
</g>
<!-- Node10&#45;&gt;Node9 -->
<g id="edge13" class="edge">
<title>Node10&#45;&gt;Node9</title>
<path fill="none" stroke="midnightblue" d="M304.72,-75.62C366.11,-72.08 456.37,-66.87 517.53,-63.34"/>
<polygon fill="midnightblue" stroke="midnightblue" points="518.06,-66.81 527.84,-62.74 517.65,-59.82 518.06,-66.81"/>
</g>
<!-- Node10&#45;&gt;Node11 -->
<g id="edge14" class="edge">
<title>Node10&#45;&gt;Node11</title>
<path fill="none" stroke="midnightblue" d="M278.06,-64.49C302.59,-55.42 334.07,-43.78 360.18,-34.12"/>
<polygon fill="midnightblue" stroke="midnightblue" points="361.73,-37.27 369.89,-30.52 359.3,-30.71 361.73,-37.27"/>
</g>
</g>
</svg>
        <g id="navigator" transform="translate(0 0)" fill="#404254">
                <rect fill="#f2f5e9" fill-opacity="0.5" stroke="#606060" stroke-width=".5" x="0" y="0" width="60" height="60"/>
                <use id="zoomplus" xlink:href="#zoomPlus" x="17" y="9" onmousedown="handleZoom(evt,'in')"/>
                <use id="zoomminus" xlink:href="#zoomMin" x="42" y="9" onmousedown="handleZoom(evt,'out')"/>
                <use id="reset" xlink:href="#resetDef" x="30" y="36" onmousedown="handleReset()"/>
                <g id="arrowUp" xlink:href="#dirArrow" transform="translate(30 24)" onmousedown="handlePan(0,-1)">
                  <use xlink:href="#rim" fill="#404040">
                        <set attributeName="fill" to="#808080" begin="arrowUp.mouseover" end="arrowUp.mouseout"/>
                  </use>
                  <path fill="none" stroke="white" stroke-width="1.5" d="M0,-3.0v7 M-2.5,-0.5L0,-3.0L2.5,-0.5"/>
                </g>
                <g id="arrowRight" xlink:href="#dirArrow" transform="rotate(90) translate(36 -43)" onmousedown="handlePan(1,0)">
                  <use xlink:href="#rim" fill="#404040">
                        <set attributeName="fill" to="#808080" begin="arrowRight.mouseover" end="arrowRight.mouseout"/>
                  </use>
                  <path fill="none" stroke="white" stroke-width="1.5" d="M0,-3.0v7 M-2.5,-0.5L0,-3.0L2.5,-0.5"/>
                </g>
                <g id="arrowDown" xlink:href="#dirArrow" transform="rotate(180) translate(-30 -48)" onmousedown="handlePan(0,1)">
                  <use xlink:href="#rim" fill="#404040">
                        <set attributeName="fill" to="#808080" begin="arrowDown.mouseover" end="arrowDown.mouseout"/>
                  </use>
                  <path fill="none" stroke="white" stroke-width="1.5" d="M0,-3.0v7 M-2.5,-0.5L0,-3.0L2.5,-0.5"/>
                </g>
                <g id="arrowLeft" xlink:href="#dirArrow" transform="rotate(270) translate(-36 17)" onmousedown="handlePan(-1,0)">
                  <use xlink:href="#rim" fill="#404040">
                        <set attributeName="fill" to="#808080" begin="arrowLeft.mouseover" end="arrowLeft.mouseout"/>
                  </use>
                  <path fill="none" stroke="white" stroke-width="1.5" d="M0,-3.0v7 M-2.5,-0.5L0,-3.0L2.5,-0.5"/>
                </g>
        </g>
        <svg viewBox="0 0 15 15" width="100%" height="30px" preserveAspectRatio="xMaxYMin meet">
         <g id="arrow_out" transform="scale(0.3 0.3)">
          <a xlink:href="classvae_1_1core_1_1_device_ab7e14bd42af297434a88e73aa03bb7b2_cgraph_org.svg" target="_base">
           <rect id="button" ry="5" rx="5" y="6" x="6" height="38" width="38"
                fill="#f2f5e9" fill-opacity="0.5" stroke="#606060" stroke-width="1.0"/>
           <path id="arrow"
             d="M 11.500037,31.436501 C 11.940474,20.09759 22.043105,11.32322 32.158766,21.979434 L 37.068811,17.246167 C 37.068811,17.246167 37.088388,32 37.088388,32 L 22.160133,31.978069 C 22.160133,31.978069 26.997745,27.140456 26.997745,27.140456 C 18.528582,18.264221 13.291696,25.230495 11.500037,31.436501 z"
             style="fill:#404040;"/>
          </a>
         </g>
        </svg>
</svg>
