<?xml version="1.0" encoding="UTF-8" standalone="no"?>
<!DOCTYPE svg PUBLIC "-//W3C//DTD SVG 1.1//EN"
 "http://www.w3.org/Graphics/SVG/1.1/DTD/svg11.dtd">
<!-- Generated by graphviz version 2.50.0 (0)
 -->
<!-- Title: tklb::FFTpffft Pages: 1 -->
<svg width="601pt" height="1587pt"
 viewBox="0.00 0.00 601.00 1587.00" xmlns="http://www.w3.org/2000/svg" xmlns:xlink="http://www.w3.org/1999/xlink">
<g id="graph0" class="graph" transform="scale(1 1) rotate(0) translate(4 1583)">
<title>tklb::FFTpffft</title>
<!-- Node1 -->
<g id="node1" class="node">
<title>Node1</title>
<g id="a_node1"><a xlink:title=" ">
<polygon fill="#bfbfbf" stroke="black" points="150,-0.5 150,-101.5 231,-101.5 231,-0.5 150,-0.5"/>
<text text-anchor="middle" x="190.5" y="-89.5" font-family="Helvetica,sans-Serif" font-size="10.00">tklb::FFTpffft</text>
<polyline fill="none" stroke="black" points="150,-82.5 231,-82.5 "/>
<text text-anchor="middle" x="190.5" y="-70.5" font-family="Helvetica,sans-Serif" font-size="10.00"> </text>
<polyline fill="none" stroke="black" points="150,-63.5 231,-63.5 "/>
<text text-anchor="start" x="158" y="-51.5" font-family="Helvetica,sans-Serif" font-size="10.00">+ FFTpffft()</text>
<text text-anchor="start" x="158" y="-40.5" font-family="Helvetica,sans-Serif" font-size="10.00">+ ~FFTpffft()</text>
<text text-anchor="start" x="158" y="-29.5" font-family="Helvetica,sans-Serif" font-size="10.00">+ resize()</text>
<text text-anchor="start" x="158" y="-18.5" font-family="Helvetica,sans-Serif" font-size="10.00">+ forward()</text>
<text text-anchor="start" x="158" y="-7.5" font-family="Helvetica,sans-Serif" font-size="10.00">+ back()</text>
</a>
</g>
</g>
<!-- Node2 -->
<g id="node2" class="node">
<title>Node2</title>
<g id="a_node2"><a xlink:title=" ">
<polygon fill="none" stroke="#bfbfbf" points="0,-1345 0,-1402 77,-1402 77,-1345 0,-1345"/>
<text text-anchor="middle" x="38.5" y="-1390" font-family="Helvetica,sans-Serif" font-size="10.00">unsigned int</text>
<polyline fill="none" stroke="#bfbfbf" points="0,-1383 77,-1383 "/>
<text text-anchor="middle" x="38.5" y="-1371" font-family="Helvetica,sans-Serif" font-size="10.00"> </text>
<polyline fill="none" stroke="#bfbfbf" points="0,-1364 77,-1364 "/>
<text text-anchor="middle" x="38.5" y="-1352" font-family="Helvetica,sans-Serif" font-size="10.00"> </text>
</a>
</g>
</g>
<!-- Node2&#45;&gt;Node1 -->
<g id="edge1" class="edge">
<title>Node2&#45;&gt;Node1</title>
<path fill="none" stroke="#404040" d="M34.45,-1344.98C28.61,-1302.8 18.5,-1219.56 18.5,-1148.5 18.5,-1148.5 18.5,-1148.5 18.5,-287 18.5,-203.88 89.44,-130.6 140.2,-88.8"/>
<polygon fill="none" stroke="#404040" points="140.39,-88.65 142.56,-81.77 149.74,-81.12 147.57,-88 140.39,-88.65"/>
<text text-anchor="middle" x="37" y="-696" font-family="Helvetica,sans-Serif" font-size="10.00"> &#45;mSize</text>
</g>
<!-- Node8 -->
<g id="node8" class="node">
<title>Node8</title>
<g id="a_node8"><a xlink:href="classtklb_1_1_heap_buffer.html" target="_top" xlink:title="Basically a bad std::vector without exceptions which can also work with foreign memory.">
<polygon fill="none" stroke="black" points="62,-1036.5 62,-1258.5 205,-1258.5 205,-1036.5 62,-1036.5"/>
<text text-anchor="start" x="70" y="-1246.5" font-family="Helvetica,sans-Serif" font-size="10.00">tklb::HeapBuffer&lt; T,</text>
<text text-anchor="start" x="70" y="-1235.5" font-family="Helvetica,sans-Serif" font-size="10.00"> ALIGNMENT, ALLOCATOR,</text>
<text text-anchor="middle" x="133.5" y="-1224.5" font-family="Helvetica,sans-Serif" font-size="10.00"> SIZE &gt;</text>
<polyline fill="none" stroke="black" points="62,-1217.5 205,-1217.5 "/>
<text text-anchor="middle" x="133.5" y="-1205.5" font-family="Helvetica,sans-Serif" font-size="10.00"> </text>
<polyline fill="none" stroke="black" points="62,-1198.5 205,-1198.5 "/>
<text text-anchor="start" x="70" y="-1186.5" font-family="Helvetica,sans-Serif" font-size="10.00">+ HeapBuffer()</text>
<text text-anchor="start" x="70" y="-1175.5" font-family="Helvetica,sans-Serif" font-size="10.00">+ HeapBuffer()</text>
<text text-anchor="start" x="70" y="-1164.5" font-family="Helvetica,sans-Serif" font-size="10.00">+ HeapBuffer()</text>
<text text-anchor="start" x="70" y="-1153.5" font-family="Helvetica,sans-Serif" font-size="10.00">+ HeapBuffer()</text>
<text text-anchor="start" x="70" y="-1142.5" font-family="Helvetica,sans-Serif" font-size="10.00">+ HeapBuffer()</text>
<text text-anchor="start" x="70" y="-1131.5" font-family="Helvetica,sans-Serif" font-size="10.00">+ operator=()</text>
<text text-anchor="start" x="70" y="-1120.5" font-family="Helvetica,sans-Serif" font-size="10.00">+ operator=()</text>
<text text-anchor="start" x="70" y="-1109.5" font-family="Helvetica,sans-Serif" font-size="10.00">+ HeapBuffer()</text>
<text text-anchor="start" x="70" y="-1098.5" font-family="Helvetica,sans-Serif" font-size="10.00">+ ~HeapBuffer()</text>
<text text-anchor="start" x="70" y="-1087.5" font-family="Helvetica,sans-Serif" font-size="10.00">+ set()</text>
<text text-anchor="start" x="70" y="-1076.5" font-family="Helvetica,sans-Serif" font-size="10.00">and 28 more...</text>
<text text-anchor="start" x="70" y="-1065.5" font-family="Helvetica,sans-Serif" font-size="10.00">+ closestChunkSize()</text>
<text text-anchor="start" x="70" y="-1054.5" font-family="Helvetica,sans-Serif" font-size="10.00">+ isAligned()</text>
<text text-anchor="start" x="70" y="-1043.5" font-family="Helvetica,sans-Serif" font-size="10.00">&#45; allocate()</text>
</a>
</g>
</g>
<!-- Node2&#45;&gt;Node8 -->
<g id="edge12" class="edge">
<title>Node2&#45;&gt;Node8</title>
<path fill="none" stroke="#404040" d="M46.26,-1344.94C51.98,-1325.66 60.33,-1299.43 69.5,-1277 70.46,-1274.66 71.44,-1272.3 72.44,-1269.93"/>
<polygon fill="none" stroke="#404040" points="72.51,-1269.78 71.23,-1262.68 77.28,-1258.77 78.57,-1265.86 72.51,-1269.78"/>
<text text-anchor="middle" x="99" y="-1291" font-family="Helvetica,sans-Serif" font-size="10.00"> &#45;mRealSize</text>
<text text-anchor="middle" x="99" y="-1280" font-family="Helvetica,sans-Serif" font-size="10.00">&#45;mSize</text>
</g>
<!-- Node3 -->
<g id="node3" class="node">
<title>Node3</title>
<g id="a_node3"><a xlink:title=" ">
<polygon fill="none" stroke="#bfbfbf" points="274.5,-259.5 274.5,-316.5 360.5,-316.5 360.5,-259.5 274.5,-259.5"/>
<text text-anchor="middle" x="317.5" y="-304.5" font-family="Helvetica,sans-Serif" font-size="10.00">PFFFT_Setup *</text>
<polyline fill="none" stroke="#bfbfbf" points="274.5,-297.5 360.5,-297.5 "/>
<text text-anchor="middle" x="317.5" y="-285.5" font-family="Helvetica,sans-Serif" font-size="10.00"> </text>
<polyline fill="none" stroke="#bfbfbf" points="274.5,-278.5 360.5,-278.5 "/>
<text text-anchor="middle" x="317.5" y="-266.5" font-family="Helvetica,sans-Serif" font-size="10.00"> </text>
</a>
</g>
</g>
<!-- Node3&#45;&gt;Node1 -->
<g id="edge2" class="edge">
<title>Node3&#45;&gt;Node1</title>
<path fill="none" stroke="#404040" d="M307.52,-259.21C297.82,-233.12 282.15,-193.23 265.5,-160 256.21,-141.46 253.07,-137.2 241.5,-120 239.67,-117.28 237.78,-114.52 235.84,-111.75"/>
<polygon fill="none" stroke="#404040" points="235.65,-111.49 228.92,-108.92 228.7,-101.71 235.43,-104.28 235.65,-111.49"/>
<text text-anchor="middle" x="278" y="-128.5" font-family="Helvetica,sans-Serif" font-size="10.00"> &#45;mSetup</text>
</g>
<!-- Node4 -->
<g id="node4" class="node">
<title>Node4</title>
<g id="a_node4"><a xlink:href="classtklb_1_1_audio_buffer_tpl.html" target="_top" xlink:title=" ">
<polygon fill="none" stroke="black" points="124.5,-160.5 124.5,-415.5 256.5,-415.5 256.5,-160.5 124.5,-160.5"/>
<text text-anchor="start" x="132.5" y="-403.5" font-family="Helvetica,sans-Serif" font-size="10.00">tklb::AudioBufferTpl</text>
<text text-anchor="middle" x="190.5" y="-392.5" font-family="Helvetica,sans-Serif" font-size="10.00">&lt; float &gt;</text>
<polyline fill="none" stroke="black" points="124.5,-385.5 256.5,-385.5 "/>
<text text-anchor="start" x="132.5" y="-373.5" font-family="Helvetica,sans-Serif" font-size="10.00">+ sampleRate</text>
<text text-anchor="start" x="132.5" y="-362.5" font-family="Helvetica,sans-Serif" font-size="10.00">+ Stride</text>
<text text-anchor="start" x="132.5" y="-351.5" font-family="Helvetica,sans-Serif" font-size="10.00">&#45; mBuffer</text>
<text text-anchor="start" x="132.5" y="-340.5" font-family="Helvetica,sans-Serif" font-size="10.00">&#45; mValidSize</text>
<text text-anchor="start" x="132.5" y="-329.5" font-family="Helvetica,sans-Serif" font-size="10.00">&#45; mChannels</text>
<polyline fill="none" stroke="black" points="124.5,-322.5 256.5,-322.5 "/>
<text text-anchor="start" x="132.5" y="-310.5" font-family="Helvetica,sans-Serif" font-size="10.00">+ AudioBufferTpl()</text>
<text text-anchor="start" x="132.5" y="-299.5" font-family="Helvetica,sans-Serif" font-size="10.00">+ AudioBufferTpl()</text>
<text text-anchor="start" x="132.5" y="-288.5" font-family="Helvetica,sans-Serif" font-size="10.00">+ AudioBufferTpl()</text>
<text text-anchor="start" x="132.5" y="-277.5" font-family="Helvetica,sans-Serif" font-size="10.00">+ AudioBufferTpl()</text>
<text text-anchor="start" x="132.5" y="-266.5" font-family="Helvetica,sans-Serif" font-size="10.00">+ AudioBufferTpl()</text>
<text text-anchor="start" x="132.5" y="-255.5" font-family="Helvetica,sans-Serif" font-size="10.00">+ ~AudioBufferTpl()</text>
<text text-anchor="start" x="132.5" y="-244.5" font-family="Helvetica,sans-Serif" font-size="10.00">+ operator=()</text>
<text text-anchor="start" x="132.5" y="-233.5" font-family="Helvetica,sans-Serif" font-size="10.00">+ operator=()</text>
<text text-anchor="start" x="132.5" y="-222.5" font-family="Helvetica,sans-Serif" font-size="10.00">+ set()</text>
<text text-anchor="start" x="132.5" y="-211.5" font-family="Helvetica,sans-Serif" font-size="10.00">+ set()</text>
<text text-anchor="start" x="132.5" y="-200.5" font-family="Helvetica,sans-Serif" font-size="10.00">and 26 more...</text>
<text text-anchor="start" x="132.5" y="-189.5" font-family="Helvetica,sans-Serif" font-size="10.00">+ needsScaling()</text>
<text text-anchor="start" x="132.5" y="-178.5" font-family="Helvetica,sans-Serif" font-size="10.00">+ getConversionScale()</text>
<text text-anchor="start" x="132.5" y="-167.5" font-family="Helvetica,sans-Serif" font-size="10.00">&#45; assertOnConstMem()</text>
</a>
</g>
</g>
<!-- Node4&#45;&gt;Node1 -->
<g id="edge3" class="edge">
<title>Node4&#45;&gt;Node1</title>
<path fill="none" stroke="#404040" d="M190.5,-160.21C190.5,-144.12 190.5,-128.26 190.5,-113.85"/>
<polygon fill="none" stroke="#404040" points="190.5,-113.59 186.5,-107.59 190.5,-101.59 194.5,-107.59 190.5,-113.59"/>
<text text-anchor="middle" x="214" y="-134" font-family="Helvetica,sans-Serif" font-size="10.00"> &#45;mBuffer</text>
<text text-anchor="middle" x="214" y="-123" font-family="Helvetica,sans-Serif" font-size="10.00">&#45;mRc</text>
</g>
<!-- Node5 -->
<g id="node5" class="node">
<title>Node5</title>
<g id="a_node5"><a xlink:href="classtklb_1_1_audio_buffer_tpl.html" target="_top" xlink:title="Class for handling the most basic audio needs.">
<polygon fill="none" stroke="black" points="247.5,-463.5 247.5,-674.5 379.5,-674.5 379.5,-463.5 247.5,-463.5"/>
<text text-anchor="start" x="255.5" y="-662.5" font-family="Helvetica,sans-Serif" font-size="10.00">tklb::AudioBufferTpl</text>
<text text-anchor="middle" x="313.5" y="-651.5" font-family="Helvetica,sans-Serif" font-size="10.00">&lt; T, STORAGE &gt;</text>
<polyline fill="none" stroke="black" points="247.5,-644.5 379.5,-644.5 "/>
<text text-anchor="middle" x="313.5" y="-632.5" font-family="Helvetica,sans-Serif" font-size="10.00"> </text>
<polyline fill="none" stroke="black" points="247.5,-625.5 379.5,-625.5 "/>
<text text-anchor="start" x="255.5" y="-613.5" font-family="Helvetica,sans-Serif" font-size="10.00">+ AudioBufferTpl()</text>
<text text-anchor="start" x="255.5" y="-602.5" font-family="Helvetica,sans-Serif" font-size="10.00">+ AudioBufferTpl()</text>
<text text-anchor="start" x="255.5" y="-591.5" font-family="Helvetica,sans-Serif" font-size="10.00">+ ~AudioBufferTpl()</text>
<text text-anchor="start" x="255.5" y="-580.5" font-family="Helvetica,sans-Serif" font-size="10.00">+ AudioBufferTpl()</text>
<text text-anchor="start" x="255.5" y="-569.5" font-family="Helvetica,sans-Serif" font-size="10.00">+ operator=()</text>
<text text-anchor="start" x="255.5" y="-558.5" font-family="Helvetica,sans-Serif" font-size="10.00">+ operator=()</text>
<text text-anchor="start" x="255.5" y="-547.5" font-family="Helvetica,sans-Serif" font-size="10.00">+ AudioBufferTpl()</text>
<text text-anchor="start" x="255.5" y="-536.5" font-family="Helvetica,sans-Serif" font-size="10.00">+ AudioBufferTpl()</text>
<text text-anchor="start" x="255.5" y="-525.5" font-family="Helvetica,sans-Serif" font-size="10.00">+ set()</text>
<text text-anchor="start" x="255.5" y="-514.5" font-family="Helvetica,sans-Serif" font-size="10.00">+ set()</text>
<text text-anchor="start" x="255.5" y="-503.5" font-family="Helvetica,sans-Serif" font-size="10.00">and 26 more...</text>
<text text-anchor="start" x="255.5" y="-492.5" font-family="Helvetica,sans-Serif" font-size="10.00">+ needsScaling()</text>
<text text-anchor="start" x="255.5" y="-481.5" font-family="Helvetica,sans-Serif" font-size="10.00">+ getConversionScale()</text>
<text text-anchor="start" x="255.5" y="-470.5" font-family="Helvetica,sans-Serif" font-size="10.00">&#45; assertOnConstMem()</text>
</a>
</g>
</g>
<!-- Node5&#45;&gt;Node4 -->
<g id="edge4" class="edge">
<title>Node5&#45;&gt;Node4</title>
<path fill="none" stroke="orange" d="M263.17,-453.83C257.66,-441.33 252.03,-428.56 246.46,-415.93"/>
<polygon fill="orange" stroke="orange" points="260.11,-455.58 267.35,-463.32 266.52,-452.75 260.11,-455.58"/>
<text text-anchor="middle" x="280" y="-437" font-family="Helvetica,sans-Serif" font-size="10.00"> &lt; float &gt;</text>
</g>
<!-- Node6 -->
<g id="node6" class="node">
<title>Node6</title>
<g id="a_node6"><a xlink:title=" ">
<polygon fill="none" stroke="#bfbfbf" points="209.5,-827 209.5,-884 327.5,-884 327.5,-827 209.5,-827"/>
<text text-anchor="middle" x="268.5" y="-872" font-family="Helvetica,sans-Serif" font-size="10.00">static constexpr Size</text>
<polyline fill="none" stroke="#bfbfbf" points="209.5,-865 327.5,-865 "/>
<text text-anchor="middle" x="268.5" y="-853" font-family="Helvetica,sans-Serif" font-size="10.00"> </text>
<polyline fill="none" stroke="#bfbfbf" points="209.5,-846 327.5,-846 "/>
<text text-anchor="middle" x="268.5" y="-834" font-family="Helvetica,sans-Serif" font-size="10.00"> </text>
</a>
</g>
</g>
<!-- Node6&#45;&gt;Node5 -->
<g id="edge5" class="edge">
<title>Node6&#45;&gt;Node5</title>
<path fill="none" stroke="#404040" d="M272.86,-826.96C278,-794.43 286.9,-738.18 295.06,-686.59"/>
<polygon fill="none" stroke="#404040" points="295.08,-686.48 292.06,-679.93 296.95,-674.63 299.96,-681.18 295.08,-686.48"/>
<text text-anchor="middle" x="313.5" y="-696" font-family="Helvetica,sans-Serif" font-size="10.00"> +Stride</text>
</g>
<!-- Node7 -->
<g id="node7" class="node">
<title>Node7</title>
<g id="a_node7"><a xlink:href="classtklb_1_1_heap_buffer.html" target="_top" xlink:title=" ">
<polygon fill="none" stroke="black" points="56,-722.5 56,-988.5 191,-988.5 191,-722.5 56,-722.5"/>
<text text-anchor="start" x="64" y="-976.5" font-family="Helvetica,sans-Serif" font-size="10.00">tklb::HeapBuffer&lt; T,</text>
<text text-anchor="middle" x="123.5" y="-965.5" font-family="Helvetica,sans-Serif" font-size="10.00"> DEFAULT_ALIGNMENT &gt;</text>
<polyline fill="none" stroke="black" points="56,-958.5 191,-958.5 "/>
<text text-anchor="start" x="64" y="-946.5" font-family="Helvetica,sans-Serif" font-size="10.00">+ Alignment</text>
<text text-anchor="start" x="64" y="-935.5" font-family="Helvetica,sans-Serif" font-size="10.00">+ ChunkSize</text>
<text text-anchor="start" x="64" y="-924.5" font-family="Helvetica,sans-Serif" font-size="10.00">&#45; mAllocator</text>
<text text-anchor="start" x="64" y="-913.5" font-family="Helvetica,sans-Serif" font-size="10.00">&#45; mBuf</text>
<text text-anchor="start" x="64" y="-902.5" font-family="Helvetica,sans-Serif" font-size="10.00">&#45; mSize</text>
<text text-anchor="start" x="64" y="-891.5" font-family="Helvetica,sans-Serif" font-size="10.00">&#45; mRealSize</text>
<polyline fill="none" stroke="black" points="56,-884.5 191,-884.5 "/>
<text text-anchor="start" x="64" y="-872.5" font-family="Helvetica,sans-Serif" font-size="10.00">+ HeapBuffer()</text>
<text text-anchor="start" x="64" y="-861.5" font-family="Helvetica,sans-Serif" font-size="10.00">+ HeapBuffer()</text>
<text text-anchor="start" x="64" y="-850.5" font-family="Helvetica,sans-Serif" font-size="10.00">+ HeapBuffer()</text>
<text text-anchor="start" x="64" y="-839.5" font-family="Helvetica,sans-Serif" font-size="10.00">+ HeapBuffer()</text>
<text text-anchor="start" x="64" y="-828.5" font-family="Helvetica,sans-Serif" font-size="10.00">+ HeapBuffer()</text>
<text text-anchor="start" x="64" y="-817.5" font-family="Helvetica,sans-Serif" font-size="10.00">+ HeapBuffer()</text>
<text text-anchor="start" x="64" y="-806.5" font-family="Helvetica,sans-Serif" font-size="10.00">+ operator=()</text>
<text text-anchor="start" x="64" y="-795.5" font-family="Helvetica,sans-Serif" font-size="10.00">+ operator=()</text>
<text text-anchor="start" x="64" y="-784.5" font-family="Helvetica,sans-Serif" font-size="10.00">+ ~HeapBuffer()</text>
<text text-anchor="start" x="64" y="-773.5" font-family="Helvetica,sans-Serif" font-size="10.00">+ set()</text>
<text text-anchor="start" x="64" y="-762.5" font-family="Helvetica,sans-Serif" font-size="10.00">and 28 more...</text>
<text text-anchor="start" x="64" y="-751.5" font-family="Helvetica,sans-Serif" font-size="10.00">+ closestChunkSize()</text>
<text text-anchor="start" x="64" y="-740.5" font-family="Helvetica,sans-Serif" font-size="10.00">+ isAligned()</text>
<text text-anchor="start" x="64" y="-729.5" font-family="Helvetica,sans-Serif" font-size="10.00">&#45; allocate()</text>
</a>
</g>
</g>
<!-- Node7&#45;&gt;Node5 -->
<g id="edge6" class="edge">
<title>Node7&#45;&gt;Node5</title>
<path fill="none" stroke="#404040" d="M191.04,-736.67C194.19,-731.68 197.35,-726.78 200.5,-722 212.77,-703.38 226.47,-683.96 239.98,-665.47"/>
<polygon fill="none" stroke="#404040" points="240.13,-665.27 240.46,-658.07 247.24,-655.6 246.91,-662.81 240.13,-665.27"/>
<text text-anchor="middle" x="241" y="-696" font-family="Helvetica,sans-Serif" font-size="10.00"> &#45;mBuffer</text>
</g>
<!-- Node8&#45;&gt;Node7 -->
<g id="edge7" class="edge">
<title>Node8&#45;&gt;Node7</title>
<path fill="none" stroke="orange" d="M129.35,-1026.18C128.93,-1013.87 128.49,-1001.32 128.07,-988.89"/>
<polygon fill="orange" stroke="orange" points="125.86,-1026.58 129.71,-1036.45 132.86,-1026.34 125.86,-1026.58"/>
<text text-anchor="middle" x="200.5" y="-1010" font-family="Helvetica,sans-Serif" font-size="10.00"> &lt; T, DEFAULT_ALIGNMENT &gt;</text>
</g>
<!-- Node9 -->
<g id="node9" class="node">
<title>Node9</title>
<g id="a_node9"><a xlink:title=" ">
<polygon fill="none" stroke="#bfbfbf" points="108,-1345 108,-1402 153,-1402 153,-1345 108,-1345"/>
<text text-anchor="middle" x="130.5" y="-1390" font-family="Helvetica,sans-Serif" font-size="10.00">size_t</text>
<polyline fill="none" stroke="#bfbfbf" points="108,-1383 153,-1383 "/>
<text text-anchor="middle" x="130.5" y="-1371" font-family="Helvetica,sans-Serif" font-size="10.00"> </text>
<polyline fill="none" stroke="#bfbfbf" points="108,-1364 153,-1364 "/>
<text text-anchor="middle" x="130.5" y="-1352" font-family="Helvetica,sans-Serif" font-size="10.00"> </text>
</a>
</g>
</g>
<!-- Node9&#45;&gt;Node8 -->
<g id="edge8" class="edge">
<title>Node9&#45;&gt;Node8</title>
<path fill="none" stroke="#404040" d="M130.87,-1344.58C131.13,-1325.48 131.49,-1298.68 131.86,-1271.02"/>
<polygon fill="none" stroke="#404040" points="131.86,-1270.71 127.94,-1264.66 132.02,-1258.71 135.94,-1264.76 131.86,-1270.71"/>
<text text-anchor="middle" x="163.5" y="-1291" font-family="Helvetica,sans-Serif" font-size="10.00"> +Alignment</text>
<text text-anchor="middle" x="163.5" y="-1280" font-family="Helvetica,sans-Serif" font-size="10.00">+ChunkSize</text>
</g>
<!-- Node10 -->
<g id="node10" class="node">
<title>Node10</title>
<g id="a_node10"><a xlink:href="structtklb_1_1_std_allocator.html" target="_top" xlink:title=" ">
<polygon fill="none" stroke="black" points="171,-1317.5 171,-1429.5 278,-1429.5 278,-1317.5 171,-1317.5"/>
<text text-anchor="start" x="179" y="-1417.5" font-family="Helvetica,sans-Serif" font-size="10.00">tklb::StdAllocator</text>
<text text-anchor="middle" x="224.5" y="-1406.5" font-family="Helvetica,sans-Serif" font-size="10.00">&lt; unsigned char &gt;</text>
<polyline fill="none" stroke="black" points="171,-1399.5 278,-1399.5 "/>
<text text-anchor="middle" x="224.5" y="-1387.5" font-family="Helvetica,sans-Serif" font-size="10.00"> </text>
<polyline fill="none" stroke="black" points="171,-1380.5 278,-1380.5 "/>
<text text-anchor="start" x="179" y="-1368.5" font-family="Helvetica,sans-Serif" font-size="10.00">+ StdAllocator()</text>
<text text-anchor="start" x="179" y="-1357.5" font-family="Helvetica,sans-Serif" font-size="10.00">+ StdAllocator()</text>
<text text-anchor="start" x="179" y="-1346.5" font-family="Helvetica,sans-Serif" font-size="10.00">+ StdAllocator()</text>
<text text-anchor="start" x="179" y="-1335.5" font-family="Helvetica,sans-Serif" font-size="10.00">+ allocate()</text>
<text text-anchor="start" x="179" y="-1324.5" font-family="Helvetica,sans-Serif" font-size="10.00">+ deallocate()</text>
</a>
</g>
</g>
<!-- Node10&#45;&gt;Node8 -->
<g id="edge9" class="edge">
<title>Node10&#45;&gt;Node8</title>
<path fill="none" stroke="#404040" d="M211.53,-1317.34C207.82,-1303.97 203.43,-1289.83 198.5,-1277 197.59,-1274.63 196.65,-1272.25 195.68,-1269.85"/>
<polygon fill="none" stroke="#404040" points="195.6,-1269.67 189.6,-1265.68 190.98,-1258.6 196.98,-1262.59 195.6,-1269.67"/>
<text text-anchor="middle" x="237" y="-1285.5" font-family="Helvetica,sans-Serif" font-size="10.00"> &#45;mAllocator</text>
</g>
<!-- Node11 -->
<g id="node11" class="node">
<title>Node11</title>
<g id="a_node11"><a xlink:href="structtklb_1_1_std_allocator.html" target="_top" xlink:title=" ">
<polygon fill="none" stroke="black" points="160,-1477.5 160,-1578.5 289,-1578.5 289,-1477.5 160,-1477.5"/>
<text text-anchor="middle" x="224.5" y="-1566.5" font-family="Helvetica,sans-Serif" font-size="10.00">tklb::StdAllocator&lt; T &gt;</text>
<polyline fill="none" stroke="black" points="160,-1559.5 289,-1559.5 "/>
<text text-anchor="middle" x="224.5" y="-1547.5" font-family="Helvetica,sans-Serif" font-size="10.00"> </text>
<polyline fill="none" stroke="black" points="160,-1540.5 289,-1540.5 "/>
<text text-anchor="start" x="168" y="-1528.5" font-family="Helvetica,sans-Serif" font-size="10.00">+ StdAllocator()</text>
<text text-anchor="start" x="168" y="-1517.5" font-family="Helvetica,sans-Serif" font-size="10.00">+ StdAllocator()</text>
<text text-anchor="start" x="168" y="-1506.5" font-family="Helvetica,sans-Serif" font-size="10.00">+ StdAllocator()</text>
<text text-anchor="start" x="168" y="-1495.5" font-family="Helvetica,sans-Serif" font-size="10.00">+ allocate()</text>
<text text-anchor="start" x="168" y="-1484.5" font-family="Helvetica,sans-Serif" font-size="10.00">+ deallocate()</text>
</a>
</g>
</g>
<!-- Node11&#45;&gt;Node10 -->
<g id="edge10" class="edge">
<title>Node11&#45;&gt;Node10</title>
<path fill="none" stroke="orange" d="M224.5,-1467.24C224.5,-1454.83 224.5,-1441.8 224.5,-1429.57"/>
<polygon fill="orange" stroke="orange" points="221,-1467.49 224.5,-1477.49 228,-1467.49 221,-1467.49"/>
<text text-anchor="middle" x="271.5" y="-1451" font-family="Helvetica,sans-Serif" font-size="10.00"> &lt; unsigned char &gt;</text>
</g>
<!-- Node12 -->
<g id="node12" class="node">
<title>Node12</title>
<g id="a_node12"><a xlink:title=" ">
<polygon fill="none" stroke="#bfbfbf" points="296,-1345 296,-1402 327,-1402 327,-1345 296,-1345"/>
<text text-anchor="middle" x="311.5" y="-1390" font-family="Helvetica,sans-Serif" font-size="10.00">T *</text>
<polyline fill="none" stroke="#bfbfbf" points="296,-1383 327,-1383 "/>
<text text-anchor="middle" x="311.5" y="-1371" font-family="Helvetica,sans-Serif" font-size="10.00"> </text>
<polyline fill="none" stroke="#bfbfbf" points="296,-1364 327,-1364 "/>
<text text-anchor="middle" x="311.5" y="-1352" font-family="Helvetica,sans-Serif" font-size="10.00"> </text>
</a>
</g>
</g>
<!-- Node12&#45;&gt;Node8 -->
<g id="edge11" class="edge">
<title>Node12&#45;&gt;Node8</title>
<path fill="none" stroke="#404040" d="M303.31,-1344.59C296.66,-1324.65 286,-1297.79 271.5,-1277 255.52,-1254.08 234.85,-1232.15 214.4,-1213.11"/>
<polygon fill="none" stroke="#404040" points="214.21,-1212.94 207.08,-1211.85 205.35,-1204.85 212.47,-1205.94 214.21,-1212.94"/>
<text text-anchor="middle" x="300.5" y="-1285.5" font-family="Helvetica,sans-Serif" font-size="10.00"> &#45;mBuf</text>
</g>
<!-- Node13 -->
<g id="node13" class="node">
<title>Node13</title>
<g id="a_node13"><a xlink:title=" ">
<polygon fill="none" stroke="#bfbfbf" points="346,-827 346,-884 383,-884 383,-827 346,-827"/>
<text text-anchor="middle" x="364.5" y="-872" font-family="Helvetica,sans-Serif" font-size="10.00">Size</text>
<polyline fill="none" stroke="#bfbfbf" points="346,-865 383,-865 "/>
<text text-anchor="middle" x="364.5" y="-853" font-family="Helvetica,sans-Serif" font-size="10.00"> </text>
<polyline fill="none" stroke="#bfbfbf" points="346,-846 383,-846 "/>
<text text-anchor="middle" x="364.5" y="-834" font-family="Helvetica,sans-Serif" font-size="10.00"> </text>
</a>
</g>
</g>
<!-- Node13&#45;&gt;Node5 -->
<g id="edge13" class="edge">
<title>Node13&#45;&gt;Node5</title>
<path fill="none" stroke="#404040" d="M360.09,-826.74C354.93,-794.53 345.99,-739.85 337.5,-693 337.11,-690.85 336.71,-688.67 336.31,-686.48"/>
<polygon fill="none" stroke="#404040" points="336.3,-686.44 331.28,-681.27 334.12,-674.64 339.14,-679.81 336.3,-686.44"/>
<text text-anchor="middle" x="369" y="-696" font-family="Helvetica,sans-Serif" font-size="10.00"> &#45;mValidSize</text>
</g>
<!-- Node14 -->
<g id="node14" class="node">
<title>Node14</title>
<g id="a_node14"><a xlink:title=" ">
<polygon fill="none" stroke="#bfbfbf" points="401,-827 401,-884 486,-884 486,-827 401,-827"/>
<text text-anchor="middle" x="443.5" y="-872" font-family="Helvetica,sans-Serif" font-size="10.00">unsigned char</text>
<polyline fill="none" stroke="#bfbfbf" points="401,-865 486,-865 "/>
<text text-anchor="middle" x="443.5" y="-853" font-family="Helvetica,sans-Serif" font-size="10.00"> </text>
<polyline fill="none" stroke="#bfbfbf" points="401,-846 486,-846 "/>
<text text-anchor="middle" x="443.5" y="-834" font-family="Helvetica,sans-Serif" font-size="10.00"> </text>
</a>
</g>
</g>
<!-- Node14&#45;&gt;Node5 -->
<g id="edge14" class="edge">
<title>Node14&#45;&gt;Node5</title>
<path fill="none" stroke="#404040" d="M439.99,-826.84C435.05,-793.77 424.23,-737.35 403.5,-693 398.54,-682.39 392.61,-671.78 386.19,-661.47"/>
<polygon fill="none" stroke="#404040" points="386.12,-661.37 379.51,-658.5 379.62,-651.29 386.23,-654.16 386.12,-661.37"/>
<text text-anchor="middle" x="437.5" y="-696" font-family="Helvetica,sans-Serif" font-size="10.00"> &#45;mChannels</text>
</g>
<!-- Node15 -->
<g id="node15" class="node">
<title>Node15</title>
<g id="a_node15"><a xlink:title=" ">
<polygon fill="none" stroke="#bfbfbf" points="504,-827 504,-884 593,-884 593,-827 504,-827"/>
<text text-anchor="middle" x="548.5" y="-872" font-family="Helvetica,sans-Serif" font-size="10.00">unsigned short</text>
<polyline fill="none" stroke="#bfbfbf" points="504,-865 593,-865 "/>
<text text-anchor="middle" x="548.5" y="-853" font-family="Helvetica,sans-Serif" font-size="10.00"> </text>
<polyline fill="none" stroke="#bfbfbf" points="504,-846 593,-846 "/>
<text text-anchor="middle" x="548.5" y="-834" font-family="Helvetica,sans-Serif" font-size="10.00"> </text>
</a>
</g>
</g>
<!-- Node15&#45;&gt;Node5 -->
<g id="edge15" class="edge">
<title>Node15&#45;&gt;Node5</title>
<path fill="none" stroke="#404040" d="M540.04,-826.78C531.02,-799.21 515.32,-756.18 495.5,-722 470.19,-678.36 427.41,-641.67 389.68,-615.27"/>
<polygon fill="none" stroke="#404040" points="389.6,-615.22 382.39,-615.14 379.7,-608.45 386.91,-608.53 389.6,-615.22"/>
<text text-anchor="middle" x="515.5" y="-696" font-family="Helvetica,sans-Serif" font-size="10.00"> +sampleRate</text>
</g>
</g>
</svg>
