<?xml version="1.0" encoding="UTF-8" standalone="no"?>
<!DOCTYPE svg PUBLIC "-//W3C//DTD SVG 1.1//EN"
 "http://www.w3.org/Graphics/SVG/1.1/DTD/svg11.dtd">
<!-- Generated by graphviz version 2.50.0 (0)
 -->
<!-- Title: tklb::ConvolverRefTpl&lt; T &gt; Pages: 1 -->
<svg width="382pt" height="204pt"
 viewBox="0.00 0.00 381.50 204.00" xmlns="http://www.w3.org/2000/svg" xmlns:xlink="http://www.w3.org/1999/xlink">
<g id="graph0" class="graph" transform="scale(1 1) rotate(0) translate(4 200)">
<title>tklb::ConvolverRefTpl&lt; T &gt;</title>
<!-- Node1 -->
<g id="node1" class="node">
<title>Node1</title>
<g id="a_node1"><a xlink:title="Wraps up the FttConvolver to support type conversion.">
<polygon fill="#bfbfbf" stroke="black" points="120.5,-0.5 120.5,-90.5 271.5,-90.5 271.5,-0.5 120.5,-0.5"/>
<text text-anchor="middle" x="196" y="-78.5" font-family="Helvetica,sans-Serif" font-size="10.00">tklb::ConvolverRefTpl&lt; T &gt;</text>
<polyline fill="none" stroke="black" points="120.5,-71.5 271.5,-71.5 "/>
<text text-anchor="middle" x="196" y="-59.5" font-family="Helvetica,sans-Serif" font-size="10.00"> </text>
<polyline fill="none" stroke="black" points="120.5,-52.5 271.5,-52.5 "/>
<text text-anchor="start" x="128.5" y="-40.5" font-family="Helvetica,sans-Serif" font-size="10.00">+ ConvolverRefTpl()</text>
<text text-anchor="start" x="128.5" y="-29.5" font-family="Helvetica,sans-Serif" font-size="10.00">+ load()</text>
<text text-anchor="start" x="128.5" y="-18.5" font-family="Helvetica,sans-Serif" font-size="10.00">+ process()</text>
<text text-anchor="start" x="128.5" y="-7.5" font-family="Helvetica,sans-Serif" font-size="10.00">+ getLicense()</text>
</a>
</g>
</g>
<!-- Node2 -->
<g id="node2" class="node">
<title>Node2</title>
<g id="a_node2"><a xlink:title=" ">
<polygon fill="none" stroke="#bfbfbf" points="0,-138.5 0,-195.5 82,-195.5 82,-138.5 0,-138.5"/>
<text text-anchor="middle" x="41" y="-183.5" font-family="Helvetica,sans-Serif" font-size="10.00">FFTConvolver</text>
<polyline fill="none" stroke="#bfbfbf" points="0,-176.5 82,-176.5 "/>
<text text-anchor="middle" x="41" y="-164.5" font-family="Helvetica,sans-Serif" font-size="10.00"> </text>
<polyline fill="none" stroke="#bfbfbf" points="0,-157.5 82,-157.5 "/>
<text text-anchor="middle" x="41" y="-145.5" font-family="Helvetica,sans-Serif" font-size="10.00"> </text>
</a>
</g>
</g>
<!-- Node2&#45;&gt;Node1 -->
<g id="edge1" class="edge">
<title>Node2&#45;&gt;Node1</title>
<path fill="none" stroke="#404040" d="M51.24,-138.48C56.06,-128.28 62.61,-117.22 71,-109 82.19,-98.04 95.68,-88.64 109.61,-80.7"/>
<polygon fill="none" stroke="#404040" points="109.75,-80.62 113.13,-74.25 120.31,-74.91 116.93,-81.28 109.75,-80.62"/>
<text text-anchor="middle" x="107" y="-112" font-family="Helvetica,sans-Serif" font-size="10.00"> &#45;mConvolvers</text>
</g>
<!-- Node3 -->
<g id="node3" class="node">
<title>Node3</title>
<g id="a_node3"><a xlink:title=" ">
<polygon fill="none" stroke="#bfbfbf" points="100,-138.5 100,-195.5 198,-195.5 198,-138.5 100,-138.5"/>
<text text-anchor="middle" x="149" y="-183.5" font-family="Helvetica,sans-Serif" font-size="10.00">AudioBufferTpl&lt;</text>
<polyline fill="none" stroke="#bfbfbf" points="100,-176.5 198,-176.5 "/>
<text text-anchor="middle" x="149" y="-164.5" font-family="Helvetica,sans-Serif" font-size="10.00"> </text>
<polyline fill="none" stroke="#bfbfbf" points="100,-157.5 198,-157.5 "/>
<text text-anchor="middle" x="149" y="-145.5" font-family="Helvetica,sans-Serif" font-size="10.00"> </text>
</a>
</g>
</g>
<!-- Node3&#45;&gt;Node1 -->
<g id="edge2" class="edge">
<title>Node3&#45;&gt;Node1</title>
<path fill="none" stroke="#404040" d="M146.13,-138.45C146,-128.91 146.86,-118.28 150,-109 150.86,-106.46 151.86,-103.94 152.98,-101.44"/>
<polygon fill="none" stroke="#404040" points="153.01,-101.38 152.24,-94.21 158.56,-90.74 159.33,-97.91 153.01,-101.38"/>
<text text-anchor="middle" x="186" y="-112" font-family="Helvetica,sans-Serif" font-size="10.00"> &#45;mConversion</text>
</g>
<!-- Node4 -->
<g id="node4" class="node">
<title>Node4</title>
<g id="a_node4"><a xlink:title=" ">
<polygon fill="none" stroke="#bfbfbf" points="225.5,-138.5 225.5,-195.5 262.5,-195.5 262.5,-138.5 225.5,-138.5"/>
<text text-anchor="middle" x="244" y="-183.5" font-family="Helvetica,sans-Serif" font-size="10.00">Size</text>
<polyline fill="none" stroke="#bfbfbf" points="225.5,-176.5 262.5,-176.5 "/>
<text text-anchor="middle" x="244" y="-164.5" font-family="Helvetica,sans-Serif" font-size="10.00"> </text>
<polyline fill="none" stroke="#bfbfbf" points="225.5,-157.5 262.5,-157.5 "/>
<text text-anchor="middle" x="244" y="-145.5" font-family="Helvetica,sans-Serif" font-size="10.00"> </text>
</a>
</g>
</g>
<!-- Node4&#45;&gt;Node1 -->
<g id="edge3" class="edge">
<title>Node4&#45;&gt;Node1</title>
<path fill="none" stroke="#404040" d="M233.51,-138.4C229.91,-129.05 225.83,-118.55 222,-109 221.08,-106.7 220.13,-104.35 219.17,-101.98"/>
<polygon fill="none" stroke="#404040" points="219.15,-101.93 213.18,-97.9 214.61,-90.83 220.58,-94.87 219.15,-101.93"/>
<text text-anchor="middle" x="258" y="-112" font-family="Helvetica,sans-Serif" font-size="10.00"> &#45;mBlockSize</text>
</g>
<!-- Node5 -->
<g id="node5" class="node">
<title>Node5</title>
<g id="a_node5"><a xlink:title=" ">
<polygon fill="none" stroke="#bfbfbf" points="288.5,-138.5 288.5,-195.5 373.5,-195.5 373.5,-138.5 288.5,-138.5"/>
<text text-anchor="middle" x="331" y="-183.5" font-family="Helvetica,sans-Serif" font-size="10.00">unsigned char</text>
<polyline fill="none" stroke="#bfbfbf" points="288.5,-176.5 373.5,-176.5 "/>
<text text-anchor="middle" x="331" y="-164.5" font-family="Helvetica,sans-Serif" font-size="10.00"> </text>
<polyline fill="none" stroke="#bfbfbf" points="288.5,-157.5 373.5,-157.5 "/>
<text text-anchor="middle" x="331" y="-145.5" font-family="Helvetica,sans-Serif" font-size="10.00"> </text>
</a>
</g>
</g>
<!-- Node5&#45;&gt;Node1 -->
<g id="edge4" class="edge">
<title>Node5&#45;&gt;Node1</title>
<path fill="none" stroke="#404040" d="M316.39,-138.43C310.3,-128.46 302.63,-117.56 294,-109 289.96,-104.99 285.62,-101.11 281.1,-97.37"/>
<polygon fill="none" stroke="#404040" points="281.03,-97.32 273.84,-96.76 271.59,-89.91 278.78,-90.47 281.03,-97.32"/>
<text text-anchor="middle" x="336.5" y="-112" font-family="Helvetica,sans-Serif" font-size="10.00"> &#45;mIrChannels</text>
</g>
</g>
</svg>
