<?xml version="1.0" encoding="UTF-8" standalone="no"?>
<!DOCTYPE svg PUBLIC "-//W3C//DTD SVG 1.1//EN"
 "http://www.w3.org/Graphics/SVG/1.1/DTD/svg11.dtd">
<!-- Generated by graphviz version 2.50.0 (0)
 -->
<!-- Title: vae::core::SpatialManager Pages: 1 -->
<svg width="259pt" height="452pt"
 viewBox="0.00 0.00 258.50 452.00" xmlns="http://www.w3.org/2000/svg" xmlns:xlink="http://www.w3.org/1999/xlink">
<g id="graph0" class="graph" transform="scale(1 1) rotate(0) translate(4 448)">
<title>vae::core::SpatialManager</title>
<!-- Node1 -->
<g id="node1" class="node">
<title>Node1</title>
<g id="a_node1"><a xlink:title=" ">
<polygon fill="#bfbfbf" stroke="black" points="0,-0.5 0,-211.5 143,-211.5 143,-0.5 0,-0.5"/>
<text text-anchor="middle" x="71.5" y="-199.5" font-family="Helvetica,sans-Serif" font-size="10.00">vae::core::SpatialManager</text>
<polyline fill="none" stroke="black" points="0,-192.5 143,-192.5 "/>
<text text-anchor="middle" x="71.5" y="-180.5" font-family="Helvetica,sans-Serif" font-size="10.00"> </text>
<polyline fill="none" stroke="black" points="0,-173.5 143,-173.5 "/>
<text text-anchor="start" x="8" y="-161.5" font-family="Helvetica,sans-Serif" font-size="10.00">+ init()</text>
<text text-anchor="start" x="8" y="-150.5" font-family="Helvetica,sans-Serif" font-size="10.00">+ addEmitter()</text>
<text text-anchor="start" x="8" y="-139.5" font-family="Helvetica,sans-Serif" font-size="10.00">+ createEmitter()</text>
<text text-anchor="start" x="8" y="-128.5" font-family="Helvetica,sans-Serif" font-size="10.00">+ createAutoEmitter()</text>
<text text-anchor="start" x="8" y="-117.5" font-family="Helvetica,sans-Serif" font-size="10.00">+ removeEmitter()</text>
<text text-anchor="start" x="8" y="-106.5" font-family="Helvetica,sans-Serif" font-size="10.00">+ getEmitter()</text>
<text text-anchor="start" x="8" y="-95.5" font-family="Helvetica,sans-Serif" font-size="10.00">+ hasEmitter()</text>
<text text-anchor="start" x="8" y="-84.5" font-family="Helvetica,sans-Serif" font-size="10.00">+ compact()</text>
<text text-anchor="start" x="8" y="-73.5" font-family="Helvetica,sans-Serif" font-size="10.00">+ setEmitter()</text>
<text text-anchor="start" x="8" y="-62.5" font-family="Helvetica,sans-Serif" font-size="10.00">+ getListeners()</text>
<text text-anchor="start" x="8" y="-51.5" font-family="Helvetica,sans-Serif" font-size="10.00">+ forListeners()</text>
<text text-anchor="start" x="8" y="-40.5" font-family="Helvetica,sans-Serif" font-size="10.00">+ createListener()</text>
<text text-anchor="start" x="8" y="-29.5" font-family="Helvetica,sans-Serif" font-size="10.00">+ setListener()</text>
<text text-anchor="start" x="8" y="-18.5" font-family="Helvetica,sans-Serif" font-size="10.00">+ removeListener()</text>
<text text-anchor="start" x="8" y="-7.5" font-family="Helvetica,sans-Serif" font-size="10.00">+ update()</text>
</a>
</g>
</g>
<!-- Node2 -->
<g id="node2" class="node">
<title>Node2</title>
<g id="a_node2"><a xlink:title=" ">
<polygon fill="none" stroke="#bfbfbf" points="9,-259.5 9,-316.5 54,-316.5 54,-259.5 9,-259.5"/>
<text text-anchor="middle" x="31.5" y="-304.5" font-family="Helvetica,sans-Serif" font-size="10.00">Map&lt;</text>
<polyline fill="none" stroke="#bfbfbf" points="9,-297.5 54,-297.5 "/>
<text text-anchor="middle" x="31.5" y="-285.5" font-family="Helvetica,sans-Serif" font-size="10.00"> </text>
<polyline fill="none" stroke="#bfbfbf" points="9,-278.5 54,-278.5 "/>
<text text-anchor="middle" x="31.5" y="-266.5" font-family="Helvetica,sans-Serif" font-size="10.00"> </text>
</a>
</g>
</g>
<!-- Node2&#45;&gt;Node1 -->
<g id="edge1" class="edge">
<title>Node2&#45;&gt;Node1</title>
<path fill="none" stroke="#404040" d="M34.11,-259.33C35.2,-249.98 36.65,-239.49 38.5,-230 38.92,-227.86 39.35,-225.69 39.8,-223.52"/>
<polygon fill="none" stroke="#404040" points="39.8,-223.51 37.16,-216.8 42.34,-211.78 44.98,-218.49 39.8,-223.51"/>
<text text-anchor="middle" x="67.5" y="-233" font-family="Helvetica,sans-Serif" font-size="10.00"> &#45;mEmitters</text>
</g>
<!-- Node3 -->
<g id="node3" class="node">
<title>Node3</title>
<g id="a_node3"><a xlink:href="structvae_1_1core_1_1_listener.html" target="_top" xlink:title=" ">
<polygon fill="none" stroke="black" points="72,-259.5 72,-316.5 179,-316.5 179,-259.5 72,-259.5"/>
<text text-anchor="middle" x="125.5" y="-304.5" font-family="Helvetica,sans-Serif" font-size="10.00">vae::core::Listener</text>
<polyline fill="none" stroke="black" points="72,-297.5 179,-297.5 "/>
<text text-anchor="middle" x="125.5" y="-285.5" font-family="Helvetica,sans-Serif" font-size="10.00"> </text>
<polyline fill="none" stroke="black" points="72,-278.5 179,-278.5 "/>
<text text-anchor="middle" x="125.5" y="-266.5" font-family="Helvetica,sans-Serif" font-size="10.00"> </text>
</a>
</g>
</g>
<!-- Node3&#45;&gt;Node1 -->
<g id="edge2" class="edge">
<title>Node3&#45;&gt;Node1</title>
<path fill="none" stroke="#404040" d="M117.18,-259.27C114.11,-249.05 110.42,-236.73 106.47,-223.57"/>
<polygon fill="none" stroke="#404040" points="106.4,-223.32 100.84,-218.73 102.95,-211.83 108.5,-216.43 106.4,-223.32"/>
<text text-anchor="middle" x="141" y="-233" font-family="Helvetica,sans-Serif" font-size="10.00"> &#45;mListeners</text>
</g>
<!-- Node4 -->
<g id="node4" class="node">
<title>Node4</title>
<g id="a_node4"><a xlink:title=" ">
<polygon fill="none" stroke="#bfbfbf" points="24.5,-386.5 24.5,-443.5 64.5,-443.5 64.5,-386.5 24.5,-386.5"/>
<text text-anchor="middle" x="44.5" y="-431.5" font-family="Helvetica,sans-Serif" font-size="10.00">vec3</text>
<polyline fill="none" stroke="#bfbfbf" points="24.5,-424.5 64.5,-424.5 "/>
<text text-anchor="middle" x="44.5" y="-412.5" font-family="Helvetica,sans-Serif" font-size="10.00"> </text>
<polyline fill="none" stroke="#bfbfbf" points="24.5,-405.5 64.5,-405.5 "/>
<text text-anchor="middle" x="44.5" y="-393.5" font-family="Helvetica,sans-Serif" font-size="10.00"> </text>
</a>
</g>
</g>
<!-- Node4&#45;&gt;Node3 -->
<g id="edge3" class="edge">
<title>Node4&#45;&gt;Node3</title>
<path fill="none" stroke="#404040" d="M50.98,-386.45C55.59,-370.5 62.87,-350.56 73.5,-335 75.74,-331.72 78.27,-328.51 80.98,-325.43"/>
<polygon fill="none" stroke="#404040" points="81.19,-325.2 82.46,-318.11 89.5,-316.55 88.23,-323.65 81.19,-325.2"/>
<text text-anchor="middle" x="97.5" y="-360" font-family="Helvetica,sans-Serif" font-size="10.00"> +front</text>
<text text-anchor="middle" x="97.5" y="-349" font-family="Helvetica,sans-Serif" font-size="10.00">+position</text>
<text text-anchor="middle" x="97.5" y="-338" font-family="Helvetica,sans-Serif" font-size="10.00">+up</text>
</g>
<!-- Node5 -->
<g id="node5" class="node">
<title>Node5</title>
<g id="a_node5"><a xlink:title=" ">
<polygon fill="none" stroke="#bfbfbf" points="83,-386.5 83,-443.5 168,-443.5 168,-386.5 83,-386.5"/>
<text text-anchor="middle" x="125.5" y="-431.5" font-family="Helvetica,sans-Serif" font-size="10.00">unsigned char</text>
<polyline fill="none" stroke="#bfbfbf" points="83,-424.5 168,-424.5 "/>
<text text-anchor="middle" x="125.5" y="-412.5" font-family="Helvetica,sans-Serif" font-size="10.00"> </text>
<polyline fill="none" stroke="#bfbfbf" points="83,-405.5 168,-405.5 "/>
<text text-anchor="middle" x="125.5" y="-393.5" font-family="Helvetica,sans-Serif" font-size="10.00"> </text>
</a>
</g>
</g>
<!-- Node5&#45;&gt;Node3 -->
<g id="edge4" class="edge">
<title>Node5&#45;&gt;Node3</title>
<path fill="none" stroke="#404040" d="M125.5,-386.26C125.5,-369.35 125.5,-347.46 125.5,-328.73"/>
<polygon fill="none" stroke="#404040" points="125.5,-328.66 121.5,-322.66 125.5,-316.66 129.5,-322.66 125.5,-328.66"/>
<text text-anchor="middle" x="136" y="-349" font-family="Helvetica,sans-Serif" font-size="10.00"> +id</text>
</g>
<!-- Node6 -->
<g id="node6" class="node">
<title>Node6</title>
<g id="a_node6"><a xlink:title=" ">
<polygon fill="none" stroke="#bfbfbf" points="186.5,-386.5 186.5,-443.5 224.5,-443.5 224.5,-386.5 186.5,-386.5"/>
<text text-anchor="middle" x="205.5" y="-431.5" font-family="Helvetica,sans-Serif" font-size="10.00">char</text>
<polyline fill="none" stroke="#bfbfbf" points="186.5,-424.5 224.5,-424.5 "/>
<text text-anchor="middle" x="205.5" y="-412.5" font-family="Helvetica,sans-Serif" font-size="10.00"> </text>
<polyline fill="none" stroke="#bfbfbf" points="186.5,-405.5 224.5,-405.5 "/>
<text text-anchor="middle" x="205.5" y="-393.5" font-family="Helvetica,sans-Serif" font-size="10.00"> </text>
</a>
</g>
</g>
<!-- Node6&#45;&gt;Node3 -->
<g id="edge5" class="edge">
<title>Node6&#45;&gt;Node3</title>
<path fill="none" stroke="#404040" d="M187.75,-386.26C176.56,-368.78 161.97,-345.99 149.73,-326.86"/>
<polygon fill="none" stroke="#404040" points="149.67,-326.77 143.07,-323.87 143.2,-316.66 149.81,-319.56 149.67,-326.77"/>
<text text-anchor="middle" x="212.5" y="-349" font-family="Helvetica,sans-Serif" font-size="10.00"> +configuration</text>
</g>
</g>
</svg>
