<?xml version="1.0" encoding="UTF-8" standalone="no"?>
<!DOCTYPE svg PUBLIC "-//W3C//DTD SVG 1.1//EN"
 "http://www.w3.org/Graphics/SVG/1.1/DTD/svg11.dtd">
<!-- Generated by graphviz version 2.50.0 (0)
 -->
<!-- Title: tklb::ResamplerCosineTpl::init Pages: 1 -->
<svg width="328pt" height="88pt"
 viewBox="0.00 0.00 328.00 88.00" xmlns="http://www.w3.org/2000/svg" xmlns:xlink="http://www.w3.org/1999/xlink">
<g id="graph0" class="graph" transform="scale(1 1) rotate(0) translate(4 84)">
<title>tklb::ResamplerCosineTpl::init</title>
<!-- Node1 -->
<g id="node1" class="node">
<title>Node1</title>
<g id="a_node1"><a xlink:title="setup the resampler">
<polygon fill="#bfbfbf" stroke="black" points="178,-24.5 178,-54.5 320,-54.5 320,-24.5 178,-24.5"/>
<text text-anchor="start" x="186" y="-42.5" font-family="Helvetica,sans-Serif" font-size="10.00">tklb::ResamplerCosineTpl</text>
<text text-anchor="middle" x="249" y="-31.5" font-family="Helvetica,sans-Serif" font-size="10.00">::init</text>
</a>
</g>
</g>
<!-- Node2 -->
<g id="node2" class="node">
<title>Node2</title>
<g id="a_node2"><a xlink:href="classtklb_1_1_resampler_cosine_tpl.html#a8ae142b3a8d74bd35d9a94e751db4ae8" target="_top" xlink:title="Resamples the provided buffer from its sampleRate to the target rate.">
<polygon fill="none" stroke="black" points="0,-49.5 0,-79.5 142,-79.5 142,-49.5 0,-49.5"/>
<text text-anchor="start" x="8" y="-67.5" font-family="Helvetica,sans-Serif" font-size="10.00">tklb::ResamplerCosineTpl</text>
<text text-anchor="middle" x="71" y="-56.5" font-family="Helvetica,sans-Serif" font-size="10.00">::resample</text>
</a>
</g>
</g>
<!-- Node1&#45;&gt;Node2 -->
<g id="edge1" class="edge">
<title>Node1&#45;&gt;Node2</title>
<path fill="none" stroke="midnightblue" d="M167.9,-50.88C159.29,-52.1 150.59,-53.34 142.11,-54.54"/>
<polygon fill="midnightblue" stroke="midnightblue" points="168.53,-54.32 177.93,-49.45 167.54,-47.39 168.53,-54.32"/>
</g>
<!-- Node3 -->
<g id="node3" class="node">
<title>Node3</title>
<g id="a_node3"><a xlink:href="classtklb_1_1_resampler_cosine_tpl.html#a74a269a1f67e9f6e6ee5f45146252707" target="_top" xlink:title=" ">
<polygon fill="none" stroke="black" points="0,-0.5 0,-30.5 142,-30.5 142,-0.5 0,-0.5"/>
<text text-anchor="start" x="8" y="-18.5" font-family="Helvetica,sans-Serif" font-size="10.00">tklb::ResamplerCosineTpl</text>
<text text-anchor="middle" x="71" y="-7.5" font-family="Helvetica,sans-Serif" font-size="10.00">::ResamplerCosineTpl</text>
</a>
</g>
</g>
<!-- Node1&#45;&gt;Node3 -->
<g id="edge2" class="edge">
<title>Node1&#45;&gt;Node3</title>
<path fill="none" stroke="midnightblue" d="M167.9,-28.58C159.29,-27.4 150.59,-26.22 142.11,-25.06"/>
<polygon fill="midnightblue" stroke="midnightblue" points="167.55,-32.06 177.93,-29.95 168.5,-25.13 167.55,-32.06"/>
</g>
</g>
</svg>
