<?xml version="1.0" encoding="UTF-8" standalone="no"?>
<!DOCTYPE svg PUBLIC "-//W3C//DTD SVG 1.1//EN"
 "http://www.w3.org/Graphics/SVG/1.1/DTD/svg11.dtd">
<!-- Generated by graphviz version 2.50.0 (0)
 -->
<!-- Title: vae::core::Device::canPush Pages: 1 -->
<svg width="440pt" height="137pt"
 viewBox="0.00 0.00 440.00 137.00" xmlns="http://www.w3.org/2000/svg" xmlns:xlink="http://www.w3.org/1999/xlink">
<g id="graph0" class="graph" transform="scale(1 1) rotate(0) translate(4 133)">
<title>vae::core::Device::canPush</title>
<!-- Node1 -->
<g id="node1" class="node">
<title>Node1</title>
<g id="a_node1"><a xlink:title="Return amount of audio frames which can be pushed in buffer ! this is an estimate when resampling !">
<polygon fill="#bfbfbf" stroke="black" points="0,-49.5 0,-79.5 107,-79.5 107,-49.5 0,-49.5"/>
<text text-anchor="start" x="8" y="-67.5" font-family="Helvetica,sans-Serif" font-size="10.00">vae::core::Device::</text>
<text text-anchor="middle" x="53.5" y="-56.5" font-family="Helvetica,sans-Serif" font-size="10.00">canPush</text>
</a>
</g>
</g>
<!-- Node2 -->
<g id="node2" class="node">
<title>Node2</title>
<g id="a_node2"><a xlink:href="classtklb_1_1_resampler_speex_tpl.html#a3dfae294ace115762f407fdb183f7170" target="_top" xlink:title="Estimate how many samples need to be put in to get n samples out.">
<polygon fill="none" stroke="black" points="143,-98.5 143,-128.5 282,-128.5 282,-98.5 143,-98.5"/>
<text text-anchor="start" x="151" y="-116.5" font-family="Helvetica,sans-Serif" font-size="10.00">tklb::ResamplerSpeexTpl</text>
<text text-anchor="middle" x="212.5" y="-105.5" font-family="Helvetica,sans-Serif" font-size="10.00">::estimateNeed</text>
</a>
</g>
</g>
<!-- Node1&#45;&gt;Node2 -->
<g id="edge1" class="edge">
<title>Node1&#45;&gt;Node2</title>
<path fill="none" stroke="midnightblue" d="M102.89,-79.6C118.93,-84.61 136.95,-90.23 153.63,-95.44"/>
<polygon fill="midnightblue" stroke="midnightblue" points="152.68,-98.81 163.27,-98.45 154.77,-92.13 152.68,-98.81"/>
</g>
<!-- Node3 -->
<g id="node3" class="node">
<title>Node3</title>
<g id="a_node3"><a xlink:href="classtklb_1_1_resampler_speex_tpl.html#a4c850eae9c52572059bf899e672215e2" target="_top" xlink:title=" ">
<polygon fill="none" stroke="black" points="143,-49.5 143,-79.5 282,-79.5 282,-49.5 143,-49.5"/>
<text text-anchor="start" x="151" y="-67.5" font-family="Helvetica,sans-Serif" font-size="10.00">tklb::ResamplerSpeexTpl</text>
<text text-anchor="middle" x="212.5" y="-56.5" font-family="Helvetica,sans-Serif" font-size="10.00">::isInitialized</text>
</a>
</g>
</g>
<!-- Node1&#45;&gt;Node3 -->
<g id="edge2" class="edge">
<title>Node1&#45;&gt;Node3</title>
<path fill="none" stroke="midnightblue" d="M107.22,-64.5C115.41,-64.5 124.03,-64.5 132.65,-64.5"/>
<polygon fill="midnightblue" stroke="midnightblue" points="132.75,-68 142.75,-64.5 132.75,-61 132.75,-68"/>
</g>
<!-- Node4 -->
<g id="node4" class="node">
<title>Node4</title>
<g id="a_node4"><a xlink:href="classtklb_1_1_audio_ring_buffer_tpl.html#a13e4276a05149a5f9c9d26524938bd26" target="_top" xlink:title="Returns how many more elements the buffer can hold.">
<polygon fill="none" stroke="black" points="144.5,-0.5 144.5,-30.5 280.5,-30.5 280.5,-0.5 144.5,-0.5"/>
<text text-anchor="start" x="152.5" y="-18.5" font-family="Helvetica,sans-Serif" font-size="10.00">tklb::AudioRingBufferTpl</text>
<text text-anchor="middle" x="212.5" y="-7.5" font-family="Helvetica,sans-Serif" font-size="10.00">::remaining</text>
</a>
</g>
</g>
<!-- Node1&#45;&gt;Node4 -->
<g id="edge3" class="edge">
<title>Node1&#45;&gt;Node4</title>
<path fill="none" stroke="midnightblue" d="M102.89,-49.4C118.93,-44.39 136.95,-38.77 153.63,-33.56"/>
<polygon fill="midnightblue" stroke="midnightblue" points="154.77,-36.87 163.27,-30.55 152.68,-30.19 154.77,-36.87"/>
</g>
<!-- Node5 -->
<g id="node5" class="node">
<title>Node5</title>
<g id="a_node5"><a xlink:href="classtklb_1_1_audio_buffer_tpl.html#af6df8d7e6840eee3f84807bd1662c3ed" target="_top" xlink:title="Returns the allocated length of the buffer.">
<polygon fill="none" stroke="black" points="318,-0.5 318,-30.5 432,-30.5 432,-0.5 318,-0.5"/>
<text text-anchor="start" x="326" y="-18.5" font-family="Helvetica,sans-Serif" font-size="10.00">tklb::AudioBufferTpl</text>
<text text-anchor="middle" x="375" y="-7.5" font-family="Helvetica,sans-Serif" font-size="10.00">::size</text>
</a>
</g>
</g>
<!-- Node4&#45;&gt;Node5 -->
<g id="edge4" class="edge">
<title>Node4&#45;&gt;Node5</title>
<path fill="none" stroke="midnightblue" d="M280.64,-15.5C289.62,-15.5 298.84,-15.5 307.81,-15.5"/>
<polygon fill="midnightblue" stroke="midnightblue" points="307.81,-19 317.81,-15.5 307.81,-12 307.81,-19"/>
</g>
</g>
</svg>
