<?xml version="1.0" encoding="UTF-8" standalone="no"?>
<!DOCTYPE svg PUBLIC "-//W3C//DTD SVG 1.1//EN"
 "http://www.w3.org/Graphics/SVG/1.1/DTD/svg11.dtd">
<!-- Generated by graphviz version 2.50.0 (0)
 -->
<!-- Title: tklb::FFTOoura::forward Pages: 1 -->
<svg width="482pt" height="154pt"
 viewBox="0.00 0.00 482.00 153.50" xmlns="http://www.w3.org/2000/svg" xmlns:xlink="http://www.w3.org/1999/xlink">
<g id="graph0" class="graph" transform="scale(1 1) rotate(0) translate(4 149.5)">
<title>tklb::FFTOoura::forward</title>
<!-- Node1 -->
<g id="node1" class="node">
<title>Node1</title>
<g id="a_node1"><a xlink:title="timedomain to frequency domain">
<polygon fill="#bfbfbf" stroke="black" points="0,-47 0,-66 131,-66 131,-47 0,-47"/>
<text text-anchor="middle" x="65.5" y="-54" font-family="Helvetica,sans-Serif" font-size="10.00">tklb::FFTOoura::forward</text>
</a>
</g>
</g>
<!-- Node2 -->
<g id="node2" class="node">
<title>Node2</title>
<g id="a_node2"><a xlink:href="classtklb_1_1_audio_buffer_tpl.html#ab6e5250746ca3784a568591a3ffdbc12" target="_top" xlink:title="Set a single channel from an array.">
<polygon fill="none" stroke="black" points="167,-69 167,-88 302,-88 302,-69 167,-69"/>
<text text-anchor="middle" x="234.5" y="-76" font-family="Helvetica,sans-Serif" font-size="10.00">tklb::AudioBufferTpl::set</text>
</a>
</g>
</g>
<!-- Node1&#45;&gt;Node2 -->
<g id="edge1" class="edge">
<title>Node1&#45;&gt;Node2</title>
<path fill="none" stroke="midnightblue" d="M131.07,-65.01C139.51,-66.12 148.23,-67.27 156.85,-68.4"/>
<polygon fill="midnightblue" stroke="midnightblue" points="156.53,-71.89 166.9,-69.73 157.44,-64.95 156.53,-71.89"/>
</g>
<!-- Node7 -->
<g id="node7" class="node">
<title>Node7</title>
<g id="a_node7"><a xlink:href="classtklb_1_1_audio_buffer_tpl.html#a86cec40e8c99a90d93db996d92ddfece" target="_top" xlink:title="Returns the length of actually valid audio in the buffer.">
<polygon fill="none" stroke="black" points="177.5,-19.5 177.5,-49.5 291.5,-49.5 291.5,-19.5 177.5,-19.5"/>
<text text-anchor="start" x="185.5" y="-37.5" font-family="Helvetica,sans-Serif" font-size="10.00">tklb::AudioBufferTpl</text>
<text text-anchor="middle" x="234.5" y="-26.5" font-family="Helvetica,sans-Serif" font-size="10.00">::validSize</text>
</a>
</g>
</g>
<!-- Node1&#45;&gt;Node7 -->
<g id="edge6" class="edge">
<title>Node1&#45;&gt;Node7</title>
<path fill="none" stroke="midnightblue" d="M131.07,-47.99C142.85,-46.44 155.17,-44.82 167.01,-43.26"/>
<polygon fill="midnightblue" stroke="midnightblue" points="167.8,-46.68 177.26,-41.91 166.89,-39.74 167.8,-46.68"/>
</g>
<!-- Node3 -->
<g id="node3" class="node">
<title>Node3</title>
<g id="a_node3"><a xlink:href="namespacetklb_1_1memory.html#ab89ec197028f903f4ea125eae46c4a10" target="_top" xlink:title="memcpy wrapper">
<polygon fill="none" stroke="black" points="350,-126 350,-145 462,-145 462,-126 350,-126"/>
<text text-anchor="middle" x="406" y="-133" font-family="Helvetica,sans-Serif" font-size="10.00">tklb::memory::copy</text>
</a>
</g>
</g>
<!-- Node2&#45;&gt;Node3 -->
<g id="edge2" class="edge">
<title>Node2&#45;&gt;Node3</title>
<path fill="none" stroke="midnightblue" d="M259.75,-88.1C280.4,-96.13 310.94,-107.66 338,-116.5 344.95,-118.77 352.36,-121.03 359.62,-123.16"/>
<polygon fill="midnightblue" stroke="midnightblue" points="358.8,-126.56 369.38,-125.96 360.73,-119.83 358.8,-126.56"/>
</g>
<!-- Node4 -->
<g id="node4" class="node">
<title>Node4</title>
<g id="a_node4"><a xlink:href="classtklb_1_1_audio_buffer_tpl.html#aee0540e90ae2790f9a809917bc5a04fd" target="_top" xlink:title=" ">
<polygon fill="none" stroke="black" points="338,-88 338,-107 474,-107 474,-88 338,-88"/>
<text text-anchor="middle" x="406" y="-95" font-family="Helvetica,sans-Serif" font-size="10.00">tklb::AudioBufferTpl::get</text>
</a>
</g>
</g>
<!-- Node2&#45;&gt;Node4 -->
<g id="edge3" class="edge">
<title>Node2&#45;&gt;Node4</title>
<path fill="none" stroke="midnightblue" d="M302,-85.95C310.47,-86.9 319.19,-87.88 327.81,-88.85"/>
<polygon fill="midnightblue" stroke="midnightblue" points="327.52,-92.34 337.85,-89.97 328.3,-85.38 327.52,-92.34"/>
</g>
<!-- Node5 -->
<g id="node5" class="node">
<title>Node5</title>
<g id="a_node5"><a xlink:href="namespacetklb.html#a3080595da18d742645ec41d61828a426" target="_top" xlink:title=" ">
<polygon fill="none" stroke="black" points="376,-50 376,-69 436,-69 436,-50 376,-50"/>
<text text-anchor="middle" x="406" y="-57" font-family="Helvetica,sans-Serif" font-size="10.00">tklb::min</text>
</a>
</g>
</g>
<!-- Node2&#45;&gt;Node5 -->
<g id="edge4" class="edge">
<title>Node2&#45;&gt;Node5</title>
<path fill="none" stroke="midnightblue" d="M302,-71.05C323.6,-68.62 346.86,-66.02 365.8,-63.89"/>
<polygon fill="midnightblue" stroke="midnightblue" points="366.29,-67.36 375.84,-62.77 365.51,-60.4 366.29,-67.36"/>
</g>
<!-- Node6 -->
<g id="node6" class="node">
<title>Node6</title>
<g id="a_node6"><a xlink:href="classtklb_1_1_audio_buffer_tpl.html#af6df8d7e6840eee3f84807bd1662c3ed" target="_top" xlink:title="Returns the allocated length of the buffer.">
<polygon fill="none" stroke="black" points="349,-0.5 349,-30.5 463,-30.5 463,-0.5 349,-0.5"/>
<text text-anchor="start" x="357" y="-18.5" font-family="Helvetica,sans-Serif" font-size="10.00">tklb::AudioBufferTpl</text>
<text text-anchor="middle" x="406" y="-7.5" font-family="Helvetica,sans-Serif" font-size="10.00">::size</text>
</a>
</g>
</g>
<!-- Node2&#45;&gt;Node6 -->
<g id="edge5" class="edge">
<title>Node2&#45;&gt;Node6</title>
<path fill="none" stroke="midnightblue" d="M273.94,-68.98C283.25,-66.28 293.09,-63.08 302,-59.5 318.79,-52.76 321.49,-47.9 338,-40.5 342.69,-38.4 347.62,-36.32 352.59,-34.31"/>
<polygon fill="midnightblue" stroke="midnightblue" points="354.11,-37.48 362.13,-30.56 351.55,-30.96 354.11,-37.48"/>
</g>
</g>
</svg>
