<?xml version="1.0" encoding="UTF-8" standalone="no"?>
<!DOCTYPE svg PUBLIC "-//W3C//DTD SVG 1.1//EN"
 "http://www.w3.org/Graphics/SVG/1.1/DTD/svg11.dtd">
<!-- Generated by graphviz version 2.50.0 (0)
 -->
<!-- Title: tklb::StackBuffer::data Pages: 1 -->
<svg width="429pt" height="96pt"
 viewBox="0.00 0.00 429.00 95.50" xmlns="http://www.w3.org/2000/svg" xmlns:xlink="http://www.w3.org/1999/xlink">
<g id="graph0" class="graph" transform="scale(1 1) rotate(0) translate(4 91.5)">
<title>tklb::StackBuffer::data</title>
<!-- Node1 -->
<g id="node1" class="node">
<title>Node1</title>
<g id="a_node1"><a xlink:title=" ">
<polygon fill="#bfbfbf" stroke="black" points="295,-28 295,-47 421,-47 421,-28 295,-28"/>
<text text-anchor="middle" x="358" y="-35" font-family="Helvetica,sans-Serif" font-size="10.00">tklb::StackBuffer::data</text>
</a>
</g>
</g>
<!-- Node2 -->
<g id="node2" class="node">
<title>Node2</title>
<g id="a_node2"><a xlink:href="classtklb_1_1_stack_buffer.html#aba85db83485537c7932e78ce6e14f14b" target="_top" xlink:title="Resizes and copies the contents of the source Buffer This will do a memory::copy,so none of the objec...">
<polygon fill="none" stroke="black" points="140,-50 140,-69 259,-69 259,-50 140,-50"/>
<text text-anchor="middle" x="199.5" y="-57" font-family="Helvetica,sans-Serif" font-size="10.00">tklb::StackBuffer::set</text>
</a>
</g>
</g>
<!-- Node1&#45;&gt;Node2 -->
<g id="edge1" class="edge">
<title>Node1&#45;&gt;Node2</title>
<path fill="none" stroke="midnightblue" d="M284.68,-47.67C276.08,-48.87 267.39,-50.1 259.03,-51.27"/>
<polygon fill="midnightblue" stroke="midnightblue" points="285.28,-51.12 294.7,-46.26 284.31,-44.18 285.28,-51.12"/>
</g>
<!-- Node4 -->
<g id="node4" class="node">
<title>Node4</title>
<g id="a_node4"><a xlink:href="classtklb_1_1_stack_buffer.html#a89b2de2769b4e5fba8a374e1ae3f2814" target="_top" xlink:title=" ">
<polygon fill="none" stroke="black" points="147.5,-0.5 147.5,-30.5 251.5,-30.5 251.5,-0.5 147.5,-0.5"/>
<text text-anchor="start" x="155.5" y="-18.5" font-family="Helvetica,sans-Serif" font-size="10.00">tklb::StackBuffer::</text>
<text text-anchor="middle" x="199.5" y="-7.5" font-family="Helvetica,sans-Serif" font-size="10.00">StackBuffer</text>
</a>
</g>
</g>
<!-- Node1&#45;&gt;Node4 -->
<g id="edge4" class="edge">
<title>Node1&#45;&gt;Node4</title>
<path fill="none" stroke="midnightblue" d="M284.53,-27.31C273.39,-25.75 262.08,-24.16 251.53,-22.67"/>
<polygon fill="midnightblue" stroke="midnightblue" points="284.31,-30.82 294.7,-28.74 285.28,-23.88 284.31,-30.82"/>
</g>
<!-- Node2&#45;&gt;Node2 -->
<g id="edge2" class="edge">
<title>Node2&#45;&gt;Node2</title>
<path fill="none" stroke="midnightblue" d="M226.75,-78.15C225.61,-83.44 216.53,-87.5 199.5,-87.5 173.55,-87.5 166.05,-78.07 177,-69.26"/>
<polygon fill="midnightblue" stroke="midnightblue" points="229.8,-76.43 222,-69.26 223.62,-79.73 229.8,-76.43"/>
</g>
<!-- Node3 -->
<g id="node3" class="node">
<title>Node3</title>
<g id="a_node3"><a xlink:href="classtklb_1_1_stack_buffer.html#ad2b79ee683c21e8b6aa6236bf50813a3" target="_top" xlink:title="Copy Constructor, calls set() Failed allocations have to be checked.">
<polygon fill="none" stroke="black" points="0,-44.5 0,-74.5 104,-74.5 104,-44.5 0,-44.5"/>
<text text-anchor="start" x="8" y="-62.5" font-family="Helvetica,sans-Serif" font-size="10.00">tklb::StackBuffer::</text>
<text text-anchor="middle" x="52" y="-51.5" font-family="Helvetica,sans-Serif" font-size="10.00">StackBuffer</text>
</a>
</g>
</g>
<!-- Node2&#45;&gt;Node3 -->
<g id="edge3" class="edge">
<title>Node2&#45;&gt;Node3</title>
<path fill="none" stroke="midnightblue" d="M129.66,-59.5C121.03,-59.5 112.32,-59.5 104.02,-59.5"/>
<polygon fill="midnightblue" stroke="midnightblue" points="129.74,-63 139.74,-59.5 129.74,-56 129.74,-63"/>
</g>
</g>
</svg>
