<?xml version="1.0" encoding="UTF-8" standalone="no"?>
<!DOCTYPE svg PUBLIC "-//W3C//DTD SVG 1.1//EN"
 "http://www.w3.org/Graphics/SVG/1.1/DTD/svg11.dtd">
<!-- Generated by graphviz version 2.50.0 (0)
 -->
<!-- Title: tklb::SectionTimer Pages: 1 -->
<svg width="359pt" height="237pt"
 viewBox="0.00 0.00 358.50 237.00" xmlns="http://www.w3.org/2000/svg" xmlns:xlink="http://www.w3.org/1999/xlink">
<g id="graph0" class="graph" transform="scale(1 1) rotate(0) translate(4 233)">
<title>tklb::SectionTimer</title>
<!-- Node1 -->
<g id="node1" class="node">
<title>Node1</title>
<g id="a_node1"><a xlink:title=" ">
<polygon fill="#bfbfbf" stroke="black" points="79.5,-0.5 79.5,-112.5 187.5,-112.5 187.5,-0.5 79.5,-0.5"/>
<text text-anchor="middle" x="133.5" y="-100.5" font-family="Helvetica,sans-Serif" font-size="10.00">tklb::SectionTimer</text>
<polyline fill="none" stroke="black" points="79.5,-93.5 187.5,-93.5 "/>
<text text-anchor="middle" x="133.5" y="-81.5" font-family="Helvetica,sans-Serif" font-size="10.00"> </text>
<polyline fill="none" stroke="black" points="79.5,-74.5 187.5,-74.5 "/>
<text text-anchor="start" x="87.5" y="-62.5" font-family="Helvetica,sans-Serif" font-size="10.00">+ SectionTimer()</text>
<text text-anchor="start" x="87.5" y="-51.5" font-family="Helvetica,sans-Serif" font-size="10.00">+ ~SectionTimer()</text>
<text text-anchor="start" x="87.5" y="-40.5" font-family="Helvetica,sans-Serif" font-size="10.00">+ current()</text>
<text text-anchor="start" x="87.5" y="-29.5" font-family="Helvetica,sans-Serif" font-size="10.00">+ getMsSince()</text>
<text text-anchor="start" x="87.5" y="-18.5" font-family="Helvetica,sans-Serif" font-size="10.00">+ getUsSince()</text>
<text text-anchor="start" x="87.5" y="-7.5" font-family="Helvetica,sans-Serif" font-size="10.00">+ getNsSince()</text>
</a>
</g>
</g>
<!-- Node2 -->
<g id="node2" class="node">
<title>Node2</title>
<g id="a_node2"><a xlink:title=" ">
<polygon fill="none" stroke="#bfbfbf" points="0,-166 0,-223 37,-223 37,-166 0,-166"/>
<text text-anchor="middle" x="18.5" y="-211" font-family="Helvetica,sans-Serif" font-size="10.00">Unit</text>
<polyline fill="none" stroke="#bfbfbf" points="0,-204 37,-204 "/>
<text text-anchor="middle" x="18.5" y="-192" font-family="Helvetica,sans-Serif" font-size="10.00"> </text>
<polyline fill="none" stroke="#bfbfbf" points="0,-185 37,-185 "/>
<text text-anchor="middle" x="18.5" y="-173" font-family="Helvetica,sans-Serif" font-size="10.00"> </text>
</a>
</g>
</g>
<!-- Node2&#45;&gt;Node1 -->
<g id="edge1" class="edge">
<title>Node2&#45;&gt;Node1</title>
<path fill="none" stroke="#404040" d="M26.72,-165.84C30.93,-154.39 36.81,-141.39 44.5,-131 51.82,-121.11 60.75,-111.74 70.09,-103.21"/>
<polygon fill="none" stroke="#404040" points="70.1,-103.2 71.98,-96.23 79.13,-95.29 77.25,-102.26 70.1,-103.2"/>
<text text-anchor="middle" x="65.5" y="-134" font-family="Helvetica,sans-Serif" font-size="10.00"> +mUnit</text>
</g>
<!-- Node3 -->
<g id="node3" class="node">
<title>Node3</title>
<g id="a_node3"><a xlink:title=" ">
<polygon fill="none" stroke="#bfbfbf" points="55,-166 55,-223 130,-223 130,-166 55,-166"/>
<text text-anchor="middle" x="92.5" y="-211" font-family="Helvetica,sans-Serif" font-size="10.00">const char *</text>
<polyline fill="none" stroke="#bfbfbf" points="55,-204 130,-204 "/>
<text text-anchor="middle" x="92.5" y="-192" font-family="Helvetica,sans-Serif" font-size="10.00"> </text>
<polyline fill="none" stroke="#bfbfbf" points="55,-185 130,-185 "/>
<text text-anchor="middle" x="92.5" y="-173" font-family="Helvetica,sans-Serif" font-size="10.00"> </text>
</a>
</g>
</g>
<!-- Node3&#45;&gt;Node1 -->
<g id="edge2" class="edge">
<title>Node3&#45;&gt;Node1</title>
<path fill="none" stroke="#404040" d="M90.11,-165.73C89.9,-154.75 90.57,-142.12 93.5,-131 94.14,-128.59 94.87,-126.16 95.67,-123.75"/>
<polygon fill="none" stroke="#404040" points="95.69,-123.72 94.1,-116.68 99.98,-112.51 101.57,-119.55 95.69,-123.72"/>
<text text-anchor="middle" x="123.5" y="-134" font-family="Helvetica,sans-Serif" font-size="10.00"> &#45;mMessage</text>
</g>
<!-- Node4 -->
<g id="node4" class="node">
<title>Node4</title>
<g id="a_node4"><a xlink:title=" ">
<polygon fill="none" stroke="#bfbfbf" points="153,-166 153,-223 198,-223 198,-166 153,-166"/>
<text text-anchor="middle" x="175.5" y="-211" font-family="Helvetica,sans-Serif" font-size="10.00">size_t</text>
<polyline fill="none" stroke="#bfbfbf" points="153,-204 198,-204 "/>
<text text-anchor="middle" x="175.5" y="-192" font-family="Helvetica,sans-Serif" font-size="10.00"> </text>
<polyline fill="none" stroke="#bfbfbf" points="153,-185 198,-185 "/>
<text text-anchor="middle" x="175.5" y="-173" font-family="Helvetica,sans-Serif" font-size="10.00"> </text>
</a>
</g>
</g>
<!-- Node4&#45;&gt;Node1 -->
<g id="edge3" class="edge">
<title>Node4&#45;&gt;Node1</title>
<path fill="none" stroke="#404040" d="M167,-165.98C163.26,-153.85 158.68,-139.03 154.12,-124.28"/>
<polygon fill="none" stroke="#404040" points="154.03,-123.98 148.44,-119.43 150.49,-112.52 156.08,-117.07 154.03,-123.98"/>
<text text-anchor="middle" x="184.5" y="-134" font-family="Helvetica,sans-Serif" font-size="10.00"> &#45;mDivider</text>
</g>
<!-- Node5 -->
<g id="node5" class="node">
<title>Node5</title>
<g id="a_node5"><a xlink:title=" ">
<polygon fill="none" stroke="#bfbfbf" points="216.5,-160.5 216.5,-228.5 350.5,-228.5 350.5,-160.5 216.5,-160.5"/>
<text text-anchor="start" x="224.5" y="-216.5" font-family="Helvetica,sans-Serif" font-size="10.00">time_point&lt; std::chrono</text>
<text text-anchor="middle" x="283.5" y="-205.5" font-family="Helvetica,sans-Serif" font-size="10.00">::steady_clock &gt;</text>
<polyline fill="none" stroke="#bfbfbf" points="216.5,-198.5 350.5,-198.5 "/>
<text text-anchor="middle" x="283.5" y="-186.5" font-family="Helvetica,sans-Serif" font-size="10.00"> </text>
<polyline fill="none" stroke="#bfbfbf" points="216.5,-179.5 350.5,-179.5 "/>
<text text-anchor="middle" x="283.5" y="-167.5" font-family="Helvetica,sans-Serif" font-size="10.00"> </text>
</a>
</g>
</g>
<!-- Node5&#45;&gt;Node1 -->
<g id="edge4" class="edge">
<title>Node5&#45;&gt;Node1</title>
<path fill="none" stroke="#404040" d="M246.81,-160.23C231.8,-146.63 214.01,-130.49 197.01,-115.09"/>
<polygon fill="none" stroke="#404040" points="196.57,-114.68 189.44,-113.62 187.68,-106.62 194.81,-107.69 196.57,-114.68"/>
<text text-anchor="middle" x="245.5" y="-134" font-family="Helvetica,sans-Serif" font-size="10.00"> &#45;mStart</text>
</g>
</g>
</svg>
