<?xml version="1.0" encoding="UTF-8" standalone="no"?>
<!DOCTYPE svg PUBLIC "-//W3C//DTD SVG 1.1//EN"
 "http://www.w3.org/Graphics/SVG/1.1/DTD/svg11.dtd">
<!-- Generated by graphviz version 2.50.0 (0)
 -->
<!-- Title: vae::core::Engine::addSource Pages: 1 -->
<svg width="985pt" height="280pt"
 viewBox="0.00 0.00 985.00 279.50" xmlns="http://www.w3.org/2000/svg" xmlns:xlink="http://www.w3.org/1999/xlink">
<g id="graph0" class="graph" transform="scale(1 1) rotate(0) translate(4 275.5)">
<title>vae::core::Engine::addSource</title>
<!-- Node1 -->
<g id="node1" class="node">
<title>Node1</title>
<g id="a_node1"><a xlink:title="Add or replace a source in a bank.">
<polygon fill="#bfbfbf" stroke="black" points="0,-130 0,-160 107,-160 107,-130 0,-130"/>
<text text-anchor="start" x="8" y="-148" font-family="Helvetica,sans-Serif" font-size="10.00">vae::core::Engine::</text>
<text text-anchor="middle" x="53.5" y="-137" font-family="Helvetica,sans-Serif" font-size="10.00">addSource</text>
</a>
</g>
</g>
<!-- Node2 -->
<g id="node2" class="node">
<title>Node2</title>
<g id="a_node2"><a xlink:href="classvae_1_1core_1_1_bank_manager.html#a6542180b77772f1605e211bd851f8996" target="_top" xlink:title=" ">
<polygon fill="none" stroke="black" points="143,-130 143,-160 277,-160 277,-130 143,-130"/>
<text text-anchor="start" x="151" y="-148" font-family="Helvetica,sans-Serif" font-size="10.00">vae::core::BankManager</text>
<text text-anchor="middle" x="210" y="-137" font-family="Helvetica,sans-Serif" font-size="10.00">::addSource</text>
</a>
</g>
</g>
<!-- Node1&#45;&gt;Node2 -->
<g id="edge1" class="edge">
<title>Node1&#45;&gt;Node2</title>
<path fill="none" stroke="midnightblue" d="M107.24,-145C115.47,-145 124.11,-145 132.74,-145"/>
<polygon fill="midnightblue" stroke="midnightblue" points="132.84,-148.5 142.84,-145 132.84,-141.5 132.84,-148.5"/>
</g>
<!-- Node3 -->
<g id="node3" class="node">
<title>Node3</title>
<g id="a_node3"><a xlink:href="classtklb_1_1_resampler_speex_tpl.html#aafe03dda374652f23a8020a7f975b8b4" target="_top" xlink:title="Resamples the provided buffer from its sampleRate to the target rate.">
<polygon fill="none" stroke="black" points="313,-130 313,-160 452,-160 452,-130 313,-130"/>
<text text-anchor="start" x="321" y="-148" font-family="Helvetica,sans-Serif" font-size="10.00">tklb::ResamplerSpeexTpl</text>
<text text-anchor="middle" x="382.5" y="-137" font-family="Helvetica,sans-Serif" font-size="10.00">::resample</text>
</a>
</g>
</g>
<!-- Node2&#45;&gt;Node3 -->
<g id="edge2" class="edge">
<title>Node2&#45;&gt;Node3</title>
<path fill="none" stroke="midnightblue" d="M277.41,-145C285.65,-145 294.14,-145 302.55,-145"/>
<polygon fill="midnightblue" stroke="midnightblue" points="302.74,-148.5 312.74,-145 302.74,-141.5 302.74,-148.5"/>
</g>
<!-- Node4 -->
<g id="node4" class="node">
<title>Node4</title>
<g id="a_node4"><a xlink:href="classtklb_1_1_resampler_speex_tpl.html#a65864672c63ce1be9a251232504d8dce" target="_top" xlink:title="Calculate a buffersize fit for the resampled result.">
<polygon fill="none" stroke="black" points="663,-241 663,-271 802,-271 802,-241 663,-241"/>
<text text-anchor="start" x="671" y="-259" font-family="Helvetica,sans-Serif" font-size="10.00">tklb::ResamplerSpeexTpl</text>
<text text-anchor="middle" x="732.5" y="-248" font-family="Helvetica,sans-Serif" font-size="10.00">::calculateBufferSize</text>
</a>
</g>
</g>
<!-- Node3&#45;&gt;Node4 -->
<g id="edge3" class="edge">
<title>Node3&#45;&gt;Node4</title>
<path fill="none" stroke="midnightblue" d="M411.23,-160.15C431.92,-170.99 461.13,-185.32 488,-195 541.88,-214.41 604.6,-229.97 652.89,-240.51"/>
<polygon fill="midnightblue" stroke="midnightblue" points="652.46,-244 662.97,-242.69 653.93,-237.16 652.46,-244"/>
</g>
<!-- Node6 -->
<g id="node6" class="node">
<title>Node6</title>
<g id="a_node6"><a xlink:href="namespacetklb_1_1memory.html#ab89ec197028f903f4ea125eae46c4a10" target="_top" xlink:title="memcpy wrapper">
<polygon fill="none" stroke="black" points="851.5,-0.5 851.5,-19.5 963.5,-19.5 963.5,-0.5 851.5,-0.5"/>
<text text-anchor="middle" x="907.5" y="-7.5" font-family="Helvetica,sans-Serif" font-size="10.00">tklb::memory::copy</text>
</a>
</g>
</g>
<!-- Node3&#45;&gt;Node6 -->
<g id="edge5" class="edge">
<title>Node3&#45;&gt;Node6</title>
<path fill="none" stroke="midnightblue" d="M414.33,-129.82C435,-119.83 462.92,-106.66 488,-96 564.64,-63.41 581.76,-47.32 663,-29 722.28,-15.63 791.49,-11.28 840.95,-10.03"/>
<polygon fill="midnightblue" stroke="midnightblue" points="841.27,-13.53 851.19,-9.81 841.11,-6.53 841.27,-13.53"/>
</g>
<!-- Node7 -->
<g id="node7" class="node">
<title>Node7</title>
<g id="a_node7"><a xlink:href="classtklb_1_1_resampler_speex_tpl.html#a7bab4da85cc386c5d34cf8ced0bd1092" target="_top" xlink:title="setup the resampler">
<polygon fill="none" stroke="black" points="488,-155 488,-185 627,-185 627,-155 488,-155"/>
<text text-anchor="start" x="496" y="-173" font-family="Helvetica,sans-Serif" font-size="10.00">tklb::ResamplerSpeexTpl</text>
<text text-anchor="middle" x="557.5" y="-162" font-family="Helvetica,sans-Serif" font-size="10.00">::init</text>
</a>
</g>
</g>
<!-- Node3&#45;&gt;Node7 -->
<g id="edge6" class="edge">
<title>Node3&#45;&gt;Node7</title>
<path fill="none" stroke="midnightblue" d="M452.37,-154.95C460.77,-156.17 469.4,-157.41 477.92,-158.65"/>
<polygon fill="midnightblue" stroke="midnightblue" points="477.47,-162.12 487.87,-160.08 478.47,-155.19 477.47,-162.12"/>
</g>
<!-- Node12 -->
<g id="node12" class="node">
<title>Node12</title>
<g id="a_node12"><a xlink:href="classtklb_1_1_resampler_speex_tpl.html#ad536684ea5e815d1dd7d967127ecfb95" target="_top" xlink:title="Resample function Make sure the out buffer has enough space.">
<polygon fill="none" stroke="black" points="488,-106 488,-136 627,-136 627,-106 488,-106"/>
<text text-anchor="start" x="496" y="-124" font-family="Helvetica,sans-Serif" font-size="10.00">tklb::ResamplerSpeexTpl</text>
<text text-anchor="middle" x="557.5" y="-113" font-family="Helvetica,sans-Serif" font-size="10.00">::process</text>
</a>
</g>
</g>
<!-- Node3&#45;&gt;Node12 -->
<g id="edge12" class="edge">
<title>Node3&#45;&gt;Node12</title>
<path fill="none" stroke="midnightblue" d="M452.37,-135.45C460.77,-134.28 469.4,-133.08 477.92,-131.9"/>
<polygon fill="midnightblue" stroke="midnightblue" points="478.44,-135.36 487.87,-130.52 477.48,-128.43 478.44,-135.36"/>
</g>
<!-- Node5 -->
<g id="node5" class="node">
<title>Node5</title>
<g id="a_node5"><a xlink:href="classtklb_1_1_resampler_speex_tpl.html#a5b4b65f32dbcec425871cc26384d4643" target="_top" xlink:title="Estimate how many sample will be emitted in the next step.">
<polygon fill="none" stroke="black" points="838,-227 838,-257 977,-257 977,-227 838,-227"/>
<text text-anchor="start" x="846" y="-245" font-family="Helvetica,sans-Serif" font-size="10.00">tklb::ResamplerSpeexTpl</text>
<text text-anchor="middle" x="907.5" y="-234" font-family="Helvetica,sans-Serif" font-size="10.00">::estimateOut</text>
</a>
</g>
</g>
<!-- Node4&#45;&gt;Node5 -->
<g id="edge4" class="edge">
<title>Node4&#45;&gt;Node5</title>
<path fill="none" stroke="midnightblue" d="M802.37,-250.43C810.68,-249.75 819.21,-249.06 827.65,-248.38"/>
<polygon fill="midnightblue" stroke="midnightblue" points="828.18,-251.85 837.87,-247.55 827.62,-244.87 828.18,-251.85"/>
</g>
<!-- Node7&#45;&gt;Node4 -->
<g id="edge7" class="edge">
<title>Node7&#45;&gt;Node4</title>
<path fill="none" stroke="midnightblue" d="M585.26,-185.1C606.2,-196.72 636.16,-212.95 663,-226 670.47,-229.63 678.49,-233.32 686.31,-236.81"/>
<polygon fill="midnightblue" stroke="midnightblue" points="685.14,-240.12 695.7,-240.96 687.97,-233.72 685.14,-240.12"/>
</g>
<!-- Node8 -->
<g id="node8" class="node">
<title>Node8</title>
<g id="a_node8"><a xlink:href="classtklb_1_1_audio_buffer_tpl.html#a35b40f6d6b1fc2939613b1b84313b0bc" target="_top" xlink:title="! Will not keep the contents! Resizes the buffer to the desired length and channel count.">
<polygon fill="none" stroke="black" points="675.5,-153 675.5,-183 789.5,-183 789.5,-153 675.5,-153"/>
<text text-anchor="start" x="683.5" y="-171" font-family="Helvetica,sans-Serif" font-size="10.00">tklb::AudioBufferTpl</text>
<text text-anchor="middle" x="732.5" y="-160" font-family="Helvetica,sans-Serif" font-size="10.00">::resize</text>
</a>
</g>
</g>
<!-- Node7&#45;&gt;Node8 -->
<g id="edge8" class="edge">
<title>Node7&#45;&gt;Node8</title>
<path fill="none" stroke="midnightblue" d="M627.37,-169.2C639.81,-169.06 652.76,-168.91 665.13,-168.77"/>
<polygon fill="midnightblue" stroke="midnightblue" points="665.4,-172.26 675.36,-168.65 665.32,-165.26 665.4,-172.26"/>
</g>
<!-- Node9 -->
<g id="node9" class="node">
<title>Node9</title>
<g id="a_node9"><a xlink:href="classtklb_1_1_audio_buffer_tpl.html#a7859b26033cbb893c2ea7acea54d8013" target="_top" xlink:title="Returns the amount of channels.">
<polygon fill="none" stroke="black" points="850.5,-164 850.5,-194 964.5,-194 964.5,-164 850.5,-164"/>
<text text-anchor="start" x="858.5" y="-182" font-family="Helvetica,sans-Serif" font-size="10.00">tklb::AudioBufferTpl</text>
<text text-anchor="middle" x="907.5" y="-171" font-family="Helvetica,sans-Serif" font-size="10.00">::channels</text>
</a>
</g>
</g>
<!-- Node8&#45;&gt;Node9 -->
<g id="edge9" class="edge">
<title>Node8&#45;&gt;Node9</title>
<path fill="none" stroke="midnightblue" d="M789.67,-171.57C805.76,-172.59 823.46,-173.72 840.11,-174.78"/>
<polygon fill="midnightblue" stroke="midnightblue" points="840.12,-178.29 850.32,-175.43 840.56,-171.3 840.12,-178.29"/>
</g>
<!-- Node10 -->
<g id="node10" class="node">
<title>Node10</title>
<g id="a_node10"><a xlink:href="namespacetklb.html#a3080595da18d742645ec41d61828a426" target="_top" xlink:title=" ">
<polygon fill="none" stroke="black" points="877.5,-76.5 877.5,-95.5 937.5,-95.5 937.5,-76.5 877.5,-76.5"/>
<text text-anchor="middle" x="907.5" y="-83.5" font-family="Helvetica,sans-Serif" font-size="10.00">tklb::min</text>
</a>
</g>
</g>
<!-- Node8&#45;&gt;Node10 -->
<g id="edge10" class="edge">
<title>Node8&#45;&gt;Node10</title>
<path fill="none" stroke="midnightblue" d="M754.59,-152.92C775.07,-138.87 807.45,-118.15 838,-105 847.25,-101.02 857.57,-97.64 867.34,-94.89"/>
<polygon fill="midnightblue" stroke="midnightblue" points="868.48,-98.21 877.24,-92.25 866.68,-91.44 868.48,-98.21"/>
</g>
<!-- Node11 -->
<g id="node11" class="node">
<title>Node11</title>
<g id="a_node11"><a xlink:href="classtklb_1_1_audio_buffer_tpl.html#af6df8d7e6840eee3f84807bd1662c3ed" target="_top" xlink:title="Returns the allocated length of the buffer.">
<polygon fill="none" stroke="black" points="850.5,-115 850.5,-145 964.5,-145 964.5,-115 850.5,-115"/>
<text text-anchor="start" x="858.5" y="-133" font-family="Helvetica,sans-Serif" font-size="10.00">tklb::AudioBufferTpl</text>
<text text-anchor="middle" x="907.5" y="-122" font-family="Helvetica,sans-Serif" font-size="10.00">::size</text>
</a>
</g>
</g>
<!-- Node8&#45;&gt;Node11 -->
<g id="edge11" class="edge">
<title>Node8&#45;&gt;Node11</title>
<path fill="none" stroke="midnightblue" d="M789.67,-155.66C805.76,-152.13 823.46,-148.24 840.11,-144.58"/>
<polygon fill="midnightblue" stroke="midnightblue" points="841.3,-147.9 850.32,-142.34 839.8,-141.07 841.3,-147.9"/>
</g>
<!-- Node12&#45;&gt;Node5 -->
<g id="edge13" class="edge">
<title>Node12&#45;&gt;Node5</title>
<path fill="none" stroke="midnightblue" d="M611.72,-136.04C617.12,-138.61 622.32,-141.57 627,-145 648.51,-160.76 640.45,-178.77 663,-193 690.07,-210.09 767.66,-223.84 828.05,-232.37"/>
<polygon fill="midnightblue" stroke="midnightblue" points="827.58,-235.84 837.97,-233.75 828.54,-228.91 827.58,-235.84"/>
</g>
<!-- Node12&#45;&gt;Node10 -->
<g id="edge14" class="edge">
<title>Node12&#45;&gt;Node10</title>
<path fill="none" stroke="midnightblue" d="M627.25,-114.09C698.86,-106.88 808.56,-95.85 866.86,-89.99"/>
<polygon fill="midnightblue" stroke="midnightblue" points="867.53,-93.44 877.13,-88.95 866.83,-86.47 867.53,-93.44"/>
</g>
<!-- Node12&#45;&gt;Node11 -->
<g id="edge20" class="edge">
<title>Node12&#45;&gt;Node11</title>
<path fill="none" stroke="midnightblue" d="M627.25,-122.78C688.95,-124.37 778.93,-126.7 839.95,-128.28"/>
<polygon fill="midnightblue" stroke="midnightblue" points="840.15,-131.79 850.23,-128.54 840.33,-124.79 840.15,-131.79"/>
</g>
<!-- Node13 -->
<g id="node13" class="node">
<title>Node13</title>
<g id="a_node13"><a xlink:href="classtklb_1_1_audio_buffer_tpl.html#ab6e5250746ca3784a568591a3ffdbc12" target="_top" xlink:title="Set a single channel from an array.">
<polygon fill="none" stroke="black" points="665,-38.5 665,-57.5 800,-57.5 800,-38.5 665,-38.5"/>
<text text-anchor="middle" x="732.5" y="-45.5" font-family="Helvetica,sans-Serif" font-size="10.00">tklb::AudioBufferTpl::set</text>
</a>
</g>
</g>
<!-- Node12&#45;&gt;Node13 -->
<g id="edge15" class="edge">
<title>Node12&#45;&gt;Node13</title>
<path fill="none" stroke="midnightblue" d="M588.77,-105.81C609.44,-95.68 637.59,-82.38 663,-72 672.54,-68.11 682.97,-64.25 692.75,-60.81"/>
<polygon fill="midnightblue" stroke="midnightblue" points="693.95,-64.09 702.26,-57.52 691.66,-57.48 693.95,-64.09"/>
</g>
<!-- Node13&#45;&gt;Node6 -->
<g id="edge16" class="edge">
<title>Node13&#45;&gt;Node6</title>
<path fill="none" stroke="midnightblue" d="M777.16,-38.41C800.29,-33.33 828.9,-27.04 853.33,-21.68"/>
<polygon fill="midnightblue" stroke="midnightblue" points="854.14,-25.08 863.16,-19.52 852.64,-18.25 854.14,-25.08"/>
</g>
<!-- Node13&#45;&gt;Node10 -->
<g id="edge18" class="edge">
<title>Node13&#45;&gt;Node10</title>
<path fill="none" stroke="midnightblue" d="M777.16,-57.59C804.94,-63.69 840.61,-71.53 867.45,-77.42"/>
<polygon fill="midnightblue" stroke="midnightblue" points="866.75,-80.85 877.27,-79.58 868.25,-74.02 866.75,-80.85"/>
</g>
<!-- Node13&#45;&gt;Node11 -->
<g id="edge19" class="edge">
<title>Node13&#45;&gt;Node11</title>
<path fill="none" stroke="midnightblue" d="M749.41,-57.65C769.57,-69.66 805.61,-90.36 838,-105 842.71,-107.13 847.66,-109.22 852.65,-111.22"/>
<polygon fill="midnightblue" stroke="midnightblue" points="851.67,-114.59 862.26,-114.96 854.21,-108.07 851.67,-114.59"/>
</g>
<!-- Node14 -->
<g id="node14" class="node">
<title>Node14</title>
<g id="a_node14"><a xlink:href="classtklb_1_1_audio_buffer_tpl.html#aee0540e90ae2790f9a809917bc5a04fd" target="_top" xlink:title=" ">
<polygon fill="none" stroke="black" points="839.5,-38.5 839.5,-57.5 975.5,-57.5 975.5,-38.5 839.5,-38.5"/>
<text text-anchor="middle" x="907.5" y="-45.5" font-family="Helvetica,sans-Serif" font-size="10.00">tklb::AudioBufferTpl::get</text>
</a>
</g>
</g>
<!-- Node13&#45;&gt;Node14 -->
<g id="edge17" class="edge">
<title>Node13&#45;&gt;Node14</title>
<path fill="none" stroke="midnightblue" d="M800.39,-48C809.74,-48 819.42,-48 828.96,-48"/>
<polygon fill="midnightblue" stroke="midnightblue" points="829.22,-51.5 839.22,-48 829.22,-44.5 829.22,-51.5"/>
</g>
</g>
</svg>
