<?xml version="1.0" encoding="UTF-8" standalone="no"?>
<!DOCTYPE svg PUBLIC "-//W3C//DTD SVG 1.1//EN"
 "http://www.w3.org/Graphics/SVG/1.1/DTD/svg11.dtd">
<!-- Generated by graphviz version 2.50.0 (0)
 -->
<!-- Title: tklb::AudioRingBufferTpl&lt; T, STORAGE &gt; Pages: 1 -->
<svg width="547pt" height="1653pt"
 viewBox="0.00 0.00 546.50 1653.00" xmlns="http://www.w3.org/2000/svg" xmlns:xlink="http://www.w3.org/1999/xlink">
<g id="graph0" class="graph" transform="scale(1 1) rotate(0) translate(4 1649)">
<title>tklb::AudioRingBufferTpl&lt; T, STORAGE &gt;</title>
<!-- Node1 -->
<g id="node1" class="node">
<title>Node1</title>
<g id="a_node1"><a xlink:title=" ">
<polygon fill="#bfbfbf" stroke="black" points="295,-0.5 295,-145.5 431,-145.5 431,-0.5 295,-0.5"/>
<text text-anchor="start" x="303" y="-133.5" font-family="Helvetica,sans-Serif" font-size="10.00">tklb::AudioRingBufferTpl</text>
<text text-anchor="middle" x="363" y="-122.5" font-family="Helvetica,sans-Serif" font-size="10.00">&lt; T, STORAGE &gt;</text>
<polyline fill="none" stroke="black" points="295,-115.5 431,-115.5 "/>
<text text-anchor="middle" x="363" y="-103.5" font-family="Helvetica,sans-Serif" font-size="10.00"> </text>
<polyline fill="none" stroke="black" points="295,-96.5 431,-96.5 "/>
<text text-anchor="start" x="303" y="-84.5" font-family="Helvetica,sans-Serif" font-size="10.00">+ AudioRingBufferTpl()</text>
<text text-anchor="start" x="303" y="-73.5" font-family="Helvetica,sans-Serif" font-size="10.00">+ AudioRingBufferTpl()</text>
<text text-anchor="start" x="303" y="-62.5" font-family="Helvetica,sans-Serif" font-size="10.00">+ reset()</text>
<text text-anchor="start" x="303" y="-51.5" font-family="Helvetica,sans-Serif" font-size="10.00">+ peek()</text>
<text text-anchor="start" x="303" y="-40.5" font-family="Helvetica,sans-Serif" font-size="10.00">+ pop()</text>
<text text-anchor="start" x="303" y="-29.5" font-family="Helvetica,sans-Serif" font-size="10.00">+ push()</text>
<text text-anchor="start" x="303" y="-18.5" font-family="Helvetica,sans-Serif" font-size="10.00">+ remaining()</text>
<text text-anchor="start" x="303" y="-7.5" font-family="Helvetica,sans-Serif" font-size="10.00">+ filled()</text>
</a>
</g>
</g>
<!-- Node2 -->
<g id="node2" class="node">
<title>Node2</title>
<g id="a_node2"><a xlink:href="classtklb_1_1_audio_buffer_tpl.html" target="_top" xlink:title=" ">
<polygon fill="none" stroke="black" points="225,-204.5 225,-470.5 385,-470.5 385,-204.5 225,-204.5"/>
<text text-anchor="start" x="233" y="-458.5" font-family="Helvetica,sans-Serif" font-size="10.00">tklb::AudioBufferTpl</text>
<text text-anchor="start" x="233" y="-447.5" font-family="Helvetica,sans-Serif" font-size="10.00">&lt; T, HeapBuffer&lt; T, DEFAULT</text>
<text text-anchor="middle" x="305" y="-436.5" font-family="Helvetica,sans-Serif" font-size="10.00">_ALIGNMENT &gt; &gt;</text>
<polyline fill="none" stroke="black" points="225,-429.5 385,-429.5 "/>
<text text-anchor="start" x="233" y="-417.5" font-family="Helvetica,sans-Serif" font-size="10.00">+ sampleRate</text>
<text text-anchor="start" x="233" y="-406.5" font-family="Helvetica,sans-Serif" font-size="10.00">+ Stride</text>
<text text-anchor="start" x="233" y="-395.5" font-family="Helvetica,sans-Serif" font-size="10.00">&#45; mBuffer</text>
<text text-anchor="start" x="233" y="-384.5" font-family="Helvetica,sans-Serif" font-size="10.00">&#45; mValidSize</text>
<text text-anchor="start" x="233" y="-373.5" font-family="Helvetica,sans-Serif" font-size="10.00">&#45; mChannels</text>
<polyline fill="none" stroke="black" points="225,-366.5 385,-366.5 "/>
<text text-anchor="start" x="233" y="-354.5" font-family="Helvetica,sans-Serif" font-size="10.00">+ AudioBufferTpl()</text>
<text text-anchor="start" x="233" y="-343.5" font-family="Helvetica,sans-Serif" font-size="10.00">+ AudioBufferTpl()</text>
<text text-anchor="start" x="233" y="-332.5" font-family="Helvetica,sans-Serif" font-size="10.00">+ AudioBufferTpl()</text>
<text text-anchor="start" x="233" y="-321.5" font-family="Helvetica,sans-Serif" font-size="10.00">+ AudioBufferTpl()</text>
<text text-anchor="start" x="233" y="-310.5" font-family="Helvetica,sans-Serif" font-size="10.00">+ AudioBufferTpl()</text>
<text text-anchor="start" x="233" y="-299.5" font-family="Helvetica,sans-Serif" font-size="10.00">+ ~AudioBufferTpl()</text>
<text text-anchor="start" x="233" y="-288.5" font-family="Helvetica,sans-Serif" font-size="10.00">+ operator=()</text>
<text text-anchor="start" x="233" y="-277.5" font-family="Helvetica,sans-Serif" font-size="10.00">+ operator=()</text>
<text text-anchor="start" x="233" y="-266.5" font-family="Helvetica,sans-Serif" font-size="10.00">+ set()</text>
<text text-anchor="start" x="233" y="-255.5" font-family="Helvetica,sans-Serif" font-size="10.00">+ set()</text>
<text text-anchor="start" x="233" y="-244.5" font-family="Helvetica,sans-Serif" font-size="10.00">and 26 more...</text>
<text text-anchor="start" x="233" y="-233.5" font-family="Helvetica,sans-Serif" font-size="10.00">+ needsScaling()</text>
<text text-anchor="start" x="233" y="-222.5" font-family="Helvetica,sans-Serif" font-size="10.00">+ getConversionScale()</text>
<text text-anchor="start" x="233" y="-211.5" font-family="Helvetica,sans-Serif" font-size="10.00">&#45; assertOnConstMem()</text>
</a>
</g>
</g>
<!-- Node2&#45;&gt;Node1 -->
<g id="edge1" class="edge">
<title>Node2&#45;&gt;Node1</title>
<path fill="none" stroke="midnightblue" d="M336.38,-194.5C340.11,-177.58 343.8,-160.9 347.18,-145.6"/>
<polygon fill="none" stroke="midnightblue" points="332.91,-193.96 334.17,-204.48 339.75,-195.47 332.91,-193.96"/>
</g>
<!-- Node3 -->
<g id="node3" class="node">
<title>Node3</title>
<g id="a_node3"><a xlink:href="classtklb_1_1_audio_buffer_tpl.html" target="_top" xlink:title="Class for handling the most basic audio needs.">
<polygon fill="none" stroke="black" points="239,-529.5 239,-740.5 371,-740.5 371,-529.5 239,-529.5"/>
<text text-anchor="start" x="247" y="-728.5" font-family="Helvetica,sans-Serif" font-size="10.00">tklb::AudioBufferTpl</text>
<text text-anchor="middle" x="305" y="-717.5" font-family="Helvetica,sans-Serif" font-size="10.00">&lt; T, STORAGE &gt;</text>
<polyline fill="none" stroke="black" points="239,-710.5 371,-710.5 "/>
<text text-anchor="middle" x="305" y="-698.5" font-family="Helvetica,sans-Serif" font-size="10.00"> </text>
<polyline fill="none" stroke="black" points="239,-691.5 371,-691.5 "/>
<text text-anchor="start" x="247" y="-679.5" font-family="Helvetica,sans-Serif" font-size="10.00">+ AudioBufferTpl()</text>
<text text-anchor="start" x="247" y="-668.5" font-family="Helvetica,sans-Serif" font-size="10.00">+ AudioBufferTpl()</text>
<text text-anchor="start" x="247" y="-657.5" font-family="Helvetica,sans-Serif" font-size="10.00">+ ~AudioBufferTpl()</text>
<text text-anchor="start" x="247" y="-646.5" font-family="Helvetica,sans-Serif" font-size="10.00">+ AudioBufferTpl()</text>
<text text-anchor="start" x="247" y="-635.5" font-family="Helvetica,sans-Serif" font-size="10.00">+ operator=()</text>
<text text-anchor="start" x="247" y="-624.5" font-family="Helvetica,sans-Serif" font-size="10.00">+ operator=()</text>
<text text-anchor="start" x="247" y="-613.5" font-family="Helvetica,sans-Serif" font-size="10.00">+ AudioBufferTpl()</text>
<text text-anchor="start" x="247" y="-602.5" font-family="Helvetica,sans-Serif" font-size="10.00">+ AudioBufferTpl()</text>
<text text-anchor="start" x="247" y="-591.5" font-family="Helvetica,sans-Serif" font-size="10.00">+ set()</text>
<text text-anchor="start" x="247" y="-580.5" font-family="Helvetica,sans-Serif" font-size="10.00">+ set()</text>
<text text-anchor="start" x="247" y="-569.5" font-family="Helvetica,sans-Serif" font-size="10.00">and 26 more...</text>
<text text-anchor="start" x="247" y="-558.5" font-family="Helvetica,sans-Serif" font-size="10.00">+ needsScaling()</text>
<text text-anchor="start" x="247" y="-547.5" font-family="Helvetica,sans-Serif" font-size="10.00">+ getConversionScale()</text>
<text text-anchor="start" x="247" y="-536.5" font-family="Helvetica,sans-Serif" font-size="10.00">&#45; assertOnConstMem()</text>
</a>
</g>
</g>
<!-- Node3&#45;&gt;Node2 -->
<g id="edge2" class="edge">
<title>Node3&#45;&gt;Node2</title>
<path fill="none" stroke="orange" d="M305,-519.06C305,-503.2 305,-486.8 305,-470.66"/>
<polygon fill="orange" stroke="orange" points="301.5,-519.4 305,-529.4 308.5,-519.4 301.5,-519.4"/>
<text text-anchor="start" x="305" y="-503" font-family="Helvetica,sans-Serif" font-size="10.00"> &lt; T, HeapBuffer&lt; T,</text>
<text text-anchor="middle" x="370" y="-492" font-family="Helvetica,sans-Serif" font-size="10.00"> DEFAULT_ALIGNMENT &gt; &gt;</text>
</g>
<!-- Node4 -->
<g id="node4" class="node">
<title>Node4</title>
<g id="a_node4"><a xlink:title=" ">
<polygon fill="none" stroke="#bfbfbf" points="0,-893 0,-950 118,-950 118,-893 0,-893"/>
<text text-anchor="middle" x="59" y="-938" font-family="Helvetica,sans-Serif" font-size="10.00">static constexpr Size</text>
<polyline fill="none" stroke="#bfbfbf" points="0,-931 118,-931 "/>
<text text-anchor="middle" x="59" y="-919" font-family="Helvetica,sans-Serif" font-size="10.00"> </text>
<polyline fill="none" stroke="#bfbfbf" points="0,-912 118,-912 "/>
<text text-anchor="middle" x="59" y="-900" font-family="Helvetica,sans-Serif" font-size="10.00"> </text>
</a>
</g>
</g>
<!-- Node4&#45;&gt;Node3 -->
<g id="edge3" class="edge">
<title>Node4&#45;&gt;Node3</title>
<path fill="none" stroke="#404040" d="M69.48,-892.79C80.94,-864.64 101.18,-820.65 127,-788 156.15,-751.14 195.28,-716.57 229.43,-689.74"/>
<polygon fill="none" stroke="#404040" points="229.43,-689.74 231.72,-682.9 238.91,-682.38 236.62,-689.22 229.43,-689.74"/>
<text text-anchor="middle" x="173" y="-762" font-family="Helvetica,sans-Serif" font-size="10.00"> +Stride</text>
</g>
<!-- Node5 -->
<g id="node5" class="node">
<title>Node5</title>
<g id="a_node5"><a xlink:href="classtklb_1_1_heap_buffer.html" target="_top" xlink:title=" ">
<polygon fill="none" stroke="black" points="136.5,-788.5 136.5,-1054.5 271.5,-1054.5 271.5,-788.5 136.5,-788.5"/>
<text text-anchor="start" x="144.5" y="-1042.5" font-family="Helvetica,sans-Serif" font-size="10.00">tklb::HeapBuffer&lt; T,</text>
<text text-anchor="middle" x="204" y="-1031.5" font-family="Helvetica,sans-Serif" font-size="10.00"> DEFAULT_ALIGNMENT &gt;</text>
<polyline fill="none" stroke="black" points="136.5,-1024.5 271.5,-1024.5 "/>
<text text-anchor="start" x="144.5" y="-1012.5" font-family="Helvetica,sans-Serif" font-size="10.00">+ Alignment</text>
<text text-anchor="start" x="144.5" y="-1001.5" font-family="Helvetica,sans-Serif" font-size="10.00">+ ChunkSize</text>
<text text-anchor="start" x="144.5" y="-990.5" font-family="Helvetica,sans-Serif" font-size="10.00">&#45; mAllocator</text>
<text text-anchor="start" x="144.5" y="-979.5" font-family="Helvetica,sans-Serif" font-size="10.00">&#45; mBuf</text>
<text text-anchor="start" x="144.5" y="-968.5" font-family="Helvetica,sans-Serif" font-size="10.00">&#45; mSize</text>
<text text-anchor="start" x="144.5" y="-957.5" font-family="Helvetica,sans-Serif" font-size="10.00">&#45; mRealSize</text>
<polyline fill="none" stroke="black" points="136.5,-950.5 271.5,-950.5 "/>
<text text-anchor="start" x="144.5" y="-938.5" font-family="Helvetica,sans-Serif" font-size="10.00">+ HeapBuffer()</text>
<text text-anchor="start" x="144.5" y="-927.5" font-family="Helvetica,sans-Serif" font-size="10.00">+ HeapBuffer()</text>
<text text-anchor="start" x="144.5" y="-916.5" font-family="Helvetica,sans-Serif" font-size="10.00">+ HeapBuffer()</text>
<text text-anchor="start" x="144.5" y="-905.5" font-family="Helvetica,sans-Serif" font-size="10.00">+ HeapBuffer()</text>
<text text-anchor="start" x="144.5" y="-894.5" font-family="Helvetica,sans-Serif" font-size="10.00">+ HeapBuffer()</text>
<text text-anchor="start" x="144.5" y="-883.5" font-family="Helvetica,sans-Serif" font-size="10.00">+ HeapBuffer()</text>
<text text-anchor="start" x="144.5" y="-872.5" font-family="Helvetica,sans-Serif" font-size="10.00">+ operator=()</text>
<text text-anchor="start" x="144.5" y="-861.5" font-family="Helvetica,sans-Serif" font-size="10.00">+ operator=()</text>
<text text-anchor="start" x="144.5" y="-850.5" font-family="Helvetica,sans-Serif" font-size="10.00">+ ~HeapBuffer()</text>
<text text-anchor="start" x="144.5" y="-839.5" font-family="Helvetica,sans-Serif" font-size="10.00">+ set()</text>
<text text-anchor="start" x="144.5" y="-828.5" font-family="Helvetica,sans-Serif" font-size="10.00">and 28 more...</text>
<text text-anchor="start" x="144.5" y="-817.5" font-family="Helvetica,sans-Serif" font-size="10.00">+ closestChunkSize()</text>
<text text-anchor="start" x="144.5" y="-806.5" font-family="Helvetica,sans-Serif" font-size="10.00">+ isAligned()</text>
<text text-anchor="start" x="144.5" y="-795.5" font-family="Helvetica,sans-Serif" font-size="10.00">&#45; allocate()</text>
</a>
</g>
</g>
<!-- Node5&#45;&gt;Node3 -->
<g id="edge4" class="edge">
<title>Node5&#45;&gt;Node3</title>
<path fill="none" stroke="#404040" d="M244.74,-788.44C248.12,-778.45 251.56,-768.54 255,-759 255.81,-756.76 256.63,-754.51 257.46,-752.24"/>
<polygon fill="none" stroke="#404040" points="257.54,-752.03 255.9,-745.01 261.75,-740.79 263.39,-747.81 257.54,-752.03"/>
<text text-anchor="middle" x="278.5" y="-762" font-family="Helvetica,sans-Serif" font-size="10.00"> &#45;mBuffer</text>
</g>
<!-- Node6 -->
<g id="node6" class="node">
<title>Node6</title>
<g id="a_node6"><a xlink:href="classtklb_1_1_heap_buffer.html" target="_top" xlink:title="Basically a bad std::vector without exceptions which can also work with foreign memory.">
<polygon fill="none" stroke="black" points="132.5,-1102.5 132.5,-1324.5 275.5,-1324.5 275.5,-1102.5 132.5,-1102.5"/>
<text text-anchor="start" x="140.5" y="-1312.5" font-family="Helvetica,sans-Serif" font-size="10.00">tklb::HeapBuffer&lt; T,</text>
<text text-anchor="start" x="140.5" y="-1301.5" font-family="Helvetica,sans-Serif" font-size="10.00"> ALIGNMENT, ALLOCATOR,</text>
<text text-anchor="middle" x="204" y="-1290.5" font-family="Helvetica,sans-Serif" font-size="10.00"> SIZE &gt;</text>
<polyline fill="none" stroke="black" points="132.5,-1283.5 275.5,-1283.5 "/>
<text text-anchor="middle" x="204" y="-1271.5" font-family="Helvetica,sans-Serif" font-size="10.00"> </text>
<polyline fill="none" stroke="black" points="132.5,-1264.5 275.5,-1264.5 "/>
<text text-anchor="start" x="140.5" y="-1252.5" font-family="Helvetica,sans-Serif" font-size="10.00">+ HeapBuffer()</text>
<text text-anchor="start" x="140.5" y="-1241.5" font-family="Helvetica,sans-Serif" font-size="10.00">+ HeapBuffer()</text>
<text text-anchor="start" x="140.5" y="-1230.5" font-family="Helvetica,sans-Serif" font-size="10.00">+ HeapBuffer()</text>
<text text-anchor="start" x="140.5" y="-1219.5" font-family="Helvetica,sans-Serif" font-size="10.00">+ HeapBuffer()</text>
<text text-anchor="start" x="140.5" y="-1208.5" font-family="Helvetica,sans-Serif" font-size="10.00">+ HeapBuffer()</text>
<text text-anchor="start" x="140.5" y="-1197.5" font-family="Helvetica,sans-Serif" font-size="10.00">+ operator=()</text>
<text text-anchor="start" x="140.5" y="-1186.5" font-family="Helvetica,sans-Serif" font-size="10.00">+ operator=()</text>
<text text-anchor="start" x="140.5" y="-1175.5" font-family="Helvetica,sans-Serif" font-size="10.00">+ HeapBuffer()</text>
<text text-anchor="start" x="140.5" y="-1164.5" font-family="Helvetica,sans-Serif" font-size="10.00">+ ~HeapBuffer()</text>
<text text-anchor="start" x="140.5" y="-1153.5" font-family="Helvetica,sans-Serif" font-size="10.00">+ set()</text>
<text text-anchor="start" x="140.5" y="-1142.5" font-family="Helvetica,sans-Serif" font-size="10.00">and 28 more...</text>
<text text-anchor="start" x="140.5" y="-1131.5" font-family="Helvetica,sans-Serif" font-size="10.00">+ closestChunkSize()</text>
<text text-anchor="start" x="140.5" y="-1120.5" font-family="Helvetica,sans-Serif" font-size="10.00">+ isAligned()</text>
<text text-anchor="start" x="140.5" y="-1109.5" font-family="Helvetica,sans-Serif" font-size="10.00">&#45; allocate()</text>
</a>
</g>
</g>
<!-- Node6&#45;&gt;Node5 -->
<g id="edge5" class="edge">
<title>Node6&#45;&gt;Node5</title>
<path fill="none" stroke="orange" d="M204,-1092.18C204,-1079.87 204,-1067.32 204,-1054.89"/>
<polygon fill="orange" stroke="orange" points="200.5,-1092.45 204,-1102.45 207.5,-1092.45 200.5,-1092.45"/>
<text text-anchor="middle" x="275" y="-1076" font-family="Helvetica,sans-Serif" font-size="10.00"> &lt; T, DEFAULT_ALIGNMENT &gt;</text>
</g>
<!-- Node7 -->
<g id="node7" class="node">
<title>Node7</title>
<g id="a_node7"><a xlink:title=" ">
<polygon fill="none" stroke="#bfbfbf" points="43.5,-1411 43.5,-1468 88.5,-1468 88.5,-1411 43.5,-1411"/>
<text text-anchor="middle" x="66" y="-1456" font-family="Helvetica,sans-Serif" font-size="10.00">size_t</text>
<polyline fill="none" stroke="#bfbfbf" points="43.5,-1449 88.5,-1449 "/>
<text text-anchor="middle" x="66" y="-1437" font-family="Helvetica,sans-Serif" font-size="10.00"> </text>
<polyline fill="none" stroke="#bfbfbf" points="43.5,-1430 88.5,-1430 "/>
<text text-anchor="middle" x="66" y="-1418" font-family="Helvetica,sans-Serif" font-size="10.00"> </text>
</a>
</g>
</g>
<!-- Node7&#45;&gt;Node6 -->
<g id="edge6" class="edge">
<title>Node7&#45;&gt;Node6</title>
<path fill="none" stroke="#404040" d="M72.07,-1410.61C77.05,-1390.93 85.21,-1364.37 97,-1343 104.96,-1328.58 114.64,-1314.24 124.89,-1300.65"/>
<polygon fill="none" stroke="#404040" points="125.1,-1300.39 125.61,-1293.2 132.45,-1290.9 131.94,-1298.1 125.1,-1300.39"/>
<text text-anchor="middle" x="128" y="-1357" font-family="Helvetica,sans-Serif" font-size="10.00"> +Alignment</text>
<text text-anchor="middle" x="128" y="-1346" font-family="Helvetica,sans-Serif" font-size="10.00">+ChunkSize</text>
</g>
<!-- Node8 -->
<g id="node8" class="node">
<title>Node8</title>
<g id="a_node8"><a xlink:href="structtklb_1_1_std_allocator.html" target="_top" xlink:title=" ">
<polygon fill="none" stroke="black" points="106.5,-1383.5 106.5,-1495.5 213.5,-1495.5 213.5,-1383.5 106.5,-1383.5"/>
<text text-anchor="start" x="114.5" y="-1483.5" font-family="Helvetica,sans-Serif" font-size="10.00">tklb::StdAllocator</text>
<text text-anchor="middle" x="160" y="-1472.5" font-family="Helvetica,sans-Serif" font-size="10.00">&lt; unsigned char &gt;</text>
<polyline fill="none" stroke="black" points="106.5,-1465.5 213.5,-1465.5 "/>
<text text-anchor="middle" x="160" y="-1453.5" font-family="Helvetica,sans-Serif" font-size="10.00"> </text>
<polyline fill="none" stroke="black" points="106.5,-1446.5 213.5,-1446.5 "/>
<text text-anchor="start" x="114.5" y="-1434.5" font-family="Helvetica,sans-Serif" font-size="10.00">+ StdAllocator()</text>
<text text-anchor="start" x="114.5" y="-1423.5" font-family="Helvetica,sans-Serif" font-size="10.00">+ StdAllocator()</text>
<text text-anchor="start" x="114.5" y="-1412.5" font-family="Helvetica,sans-Serif" font-size="10.00">+ StdAllocator()</text>
<text text-anchor="start" x="114.5" y="-1401.5" font-family="Helvetica,sans-Serif" font-size="10.00">+ allocate()</text>
<text text-anchor="start" x="114.5" y="-1390.5" font-family="Helvetica,sans-Serif" font-size="10.00">+ deallocate()</text>
</a>
</g>
</g>
<!-- Node8&#45;&gt;Node6 -->
<g id="edge7" class="edge">
<title>Node8&#45;&gt;Node6</title>
<path fill="none" stroke="#404040" d="M160.6,-1383.45C161.38,-1370.14 162.72,-1356 165,-1343 165.36,-1340.95 165.74,-1338.88 166.14,-1336.81"/>
<polygon fill="none" stroke="#404040" points="166.19,-1336.58 163.51,-1329.88 168.66,-1324.83 171.34,-1331.53 166.19,-1336.58"/>
<text text-anchor="middle" x="195.5" y="-1351.5" font-family="Helvetica,sans-Serif" font-size="10.00"> &#45;mAllocator</text>
</g>
<!-- Node9 -->
<g id="node9" class="node">
<title>Node9</title>
<g id="a_node9"><a xlink:href="structtklb_1_1_std_allocator.html" target="_top" xlink:title=" ">
<polygon fill="none" stroke="black" points="95.5,-1543.5 95.5,-1644.5 224.5,-1644.5 224.5,-1543.5 95.5,-1543.5"/>
<text text-anchor="middle" x="160" y="-1632.5" font-family="Helvetica,sans-Serif" font-size="10.00">tklb::StdAllocator&lt; T &gt;</text>
<polyline fill="none" stroke="black" points="95.5,-1625.5 224.5,-1625.5 "/>
<text text-anchor="middle" x="160" y="-1613.5" font-family="Helvetica,sans-Serif" font-size="10.00"> </text>
<polyline fill="none" stroke="black" points="95.5,-1606.5 224.5,-1606.5 "/>
<text text-anchor="start" x="103.5" y="-1594.5" font-family="Helvetica,sans-Serif" font-size="10.00">+ StdAllocator()</text>
<text text-anchor="start" x="103.5" y="-1583.5" font-family="Helvetica,sans-Serif" font-size="10.00">+ StdAllocator()</text>
<text text-anchor="start" x="103.5" y="-1572.5" font-family="Helvetica,sans-Serif" font-size="10.00">+ StdAllocator()</text>
<text text-anchor="start" x="103.5" y="-1561.5" font-family="Helvetica,sans-Serif" font-size="10.00">+ allocate()</text>
<text text-anchor="start" x="103.5" y="-1550.5" font-family="Helvetica,sans-Serif" font-size="10.00">+ deallocate()</text>
</a>
</g>
</g>
<!-- Node9&#45;&gt;Node8 -->
<g id="edge8" class="edge">
<title>Node9&#45;&gt;Node8</title>
<path fill="none" stroke="orange" d="M160,-1533.24C160,-1520.83 160,-1507.8 160,-1495.57"/>
<polygon fill="orange" stroke="orange" points="156.5,-1533.49 160,-1543.49 163.5,-1533.49 156.5,-1533.49"/>
<text text-anchor="middle" x="207" y="-1517" font-family="Helvetica,sans-Serif" font-size="10.00"> &lt; unsigned char &gt;</text>
</g>
<!-- Node10 -->
<g id="node10" class="node">
<title>Node10</title>
<g id="a_node10"><a xlink:title=" ">
<polygon fill="none" stroke="#bfbfbf" points="231.5,-1411 231.5,-1468 262.5,-1468 262.5,-1411 231.5,-1411"/>
<text text-anchor="middle" x="247" y="-1456" font-family="Helvetica,sans-Serif" font-size="10.00">T *</text>
<polyline fill="none" stroke="#bfbfbf" points="231.5,-1449 262.5,-1449 "/>
<text text-anchor="middle" x="247" y="-1437" font-family="Helvetica,sans-Serif" font-size="10.00"> </text>
<polyline fill="none" stroke="#bfbfbf" points="231.5,-1430 262.5,-1430 "/>
<text text-anchor="middle" x="247" y="-1418" font-family="Helvetica,sans-Serif" font-size="10.00"> </text>
</a>
</g>
</g>
<!-- Node10&#45;&gt;Node6 -->
<g id="edge9" class="edge">
<title>Node10&#45;&gt;Node6</title>
<path fill="none" stroke="#404040" d="M241.64,-1410.58C237.96,-1391.39 232.78,-1364.44 227.45,-1336.65"/>
<polygon fill="none" stroke="#404040" points="227.42,-1336.49 222.36,-1331.36 225.16,-1324.71 230.22,-1329.85 227.42,-1336.49"/>
<text text-anchor="middle" x="249" y="-1351.5" font-family="Helvetica,sans-Serif" font-size="10.00"> &#45;mBuf</text>
</g>
<!-- Node11 -->
<g id="node11" class="node">
<title>Node11</title>
<g id="a_node11"><a xlink:title=" ">
<polygon fill="none" stroke="#bfbfbf" points="280.5,-1411 280.5,-1468 357.5,-1468 357.5,-1411 280.5,-1411"/>
<text text-anchor="middle" x="319" y="-1456" font-family="Helvetica,sans-Serif" font-size="10.00">unsigned int</text>
<polyline fill="none" stroke="#bfbfbf" points="280.5,-1449 357.5,-1449 "/>
<text text-anchor="middle" x="319" y="-1437" font-family="Helvetica,sans-Serif" font-size="10.00"> </text>
<polyline fill="none" stroke="#bfbfbf" points="280.5,-1430 357.5,-1430 "/>
<text text-anchor="middle" x="319" y="-1418" font-family="Helvetica,sans-Serif" font-size="10.00"> </text>
</a>
</g>
</g>
<!-- Node11&#45;&gt;Node6 -->
<g id="edge10" class="edge">
<title>Node11&#45;&gt;Node6</title>
<path fill="none" stroke="#404040" d="M304.85,-1410.92C295.07,-1391.84 281.74,-1365.88 270,-1343 268.7,-1340.46 267.38,-1337.89 266.05,-1335.3"/>
<polygon fill="none" stroke="#404040" points="266.01,-1335.23 259.71,-1331.72 260.53,-1324.55 266.83,-1328.06 266.01,-1335.23"/>
<text text-anchor="middle" x="310.5" y="-1357" font-family="Helvetica,sans-Serif" font-size="10.00"> &#45;mRealSize</text>
<text text-anchor="middle" x="310.5" y="-1346" font-family="Helvetica,sans-Serif" font-size="10.00">&#45;mSize</text>
</g>
<!-- Node12 -->
<g id="node12" class="node">
<title>Node12</title>
<g id="a_node12"><a xlink:title=" ">
<polygon fill="none" stroke="#bfbfbf" points="289.5,-893 289.5,-950 326.5,-950 326.5,-893 289.5,-893"/>
<text text-anchor="middle" x="308" y="-938" font-family="Helvetica,sans-Serif" font-size="10.00">Size</text>
<polyline fill="none" stroke="#bfbfbf" points="289.5,-931 326.5,-931 "/>
<text text-anchor="middle" x="308" y="-919" font-family="Helvetica,sans-Serif" font-size="10.00"> </text>
<polyline fill="none" stroke="#bfbfbf" points="289.5,-912 326.5,-912 "/>
<text text-anchor="middle" x="308" y="-900" font-family="Helvetica,sans-Serif" font-size="10.00"> </text>
</a>
</g>
</g>
<!-- Node12&#45;&gt;Node3 -->
<g id="edge11" class="edge">
<title>Node12&#45;&gt;Node3</title>
<path fill="none" stroke="#404040" d="M307.58,-892.76C307.14,-862.57 306.44,-812.85 306,-770 305.94,-764.34 305.88,-758.54 305.83,-752.68"/>
<polygon fill="none" stroke="#404040" points="305.83,-752.61 301.78,-746.64 305.72,-740.61 309.78,-746.57 305.83,-752.61"/>
<text text-anchor="middle" x="336.5" y="-762" font-family="Helvetica,sans-Serif" font-size="10.00"> &#45;mValidSize</text>
</g>
<!-- Node13 -->
<g id="node13" class="node">
<title>Node13</title>
<g id="a_node13"><a xlink:title=" ">
<polygon fill="none" stroke="#bfbfbf" points="346.5,-893 346.5,-950 431.5,-950 431.5,-893 346.5,-893"/>
<text text-anchor="middle" x="389" y="-938" font-family="Helvetica,sans-Serif" font-size="10.00">unsigned char</text>
<polyline fill="none" stroke="#bfbfbf" points="346.5,-931 431.5,-931 "/>
<text text-anchor="middle" x="389" y="-919" font-family="Helvetica,sans-Serif" font-size="10.00"> </text>
<polyline fill="none" stroke="#bfbfbf" points="346.5,-912 431.5,-912 "/>
<text text-anchor="middle" x="389" y="-900" font-family="Helvetica,sans-Serif" font-size="10.00"> </text>
</a>
</g>
</g>
<!-- Node13&#45;&gt;Node3 -->
<g id="edge12" class="edge">
<title>Node13&#45;&gt;Node3</title>
<path fill="none" stroke="#404040" d="M388,-892.75C386.2,-860.09 381.14,-804.53 367,-759 366.3,-756.73 365.55,-754.45 364.77,-752.17"/>
<polygon fill="none" stroke="#404040" points="364.71,-752 358.9,-747.73 360.61,-740.73 366.42,-745 364.71,-752"/>
<text text-anchor="middle" x="401" y="-762" font-family="Helvetica,sans-Serif" font-size="10.00"> &#45;mChannels</text>
</g>
<!-- Node14 -->
<g id="node14" class="node">
<title>Node14</title>
<g id="a_node14"><a xlink:title=" ">
<polygon fill="none" stroke="#bfbfbf" points="449.5,-893 449.5,-950 538.5,-950 538.5,-893 449.5,-893"/>
<text text-anchor="middle" x="494" y="-938" font-family="Helvetica,sans-Serif" font-size="10.00">unsigned short</text>
<polyline fill="none" stroke="#bfbfbf" points="449.5,-931 538.5,-931 "/>
<text text-anchor="middle" x="494" y="-919" font-family="Helvetica,sans-Serif" font-size="10.00"> </text>
<polyline fill="none" stroke="#bfbfbf" points="449.5,-912 538.5,-912 "/>
<text text-anchor="middle" x="494" y="-900" font-family="Helvetica,sans-Serif" font-size="10.00"> </text>
</a>
</g>
</g>
<!-- Node14&#45;&gt;Node3 -->
<g id="edge13" class="edge">
<title>Node14&#45;&gt;Node3</title>
<path fill="none" stroke="#404040" d="M488.31,-893C480.44,-859.34 463.95,-801.59 436,-759 420.79,-735.83 400.36,-713.92 380.16,-695.2"/>
<polygon fill="none" stroke="#404040" points="380.12,-695.16 372.99,-694.09 371.23,-687.1 378.36,-688.17 380.12,-695.16"/>
<text text-anchor="middle" x="475" y="-762" font-family="Helvetica,sans-Serif" font-size="10.00"> +sampleRate</text>
</g>
<!-- Node15 -->
<g id="node15" class="node">
<title>Node15</title>
<g id="a_node15"><a xlink:title=" ">
<polygon fill="none" stroke="#bfbfbf" points="403.5,-309 403.5,-366 440.5,-366 440.5,-309 403.5,-309"/>
<text text-anchor="middle" x="422" y="-354" font-family="Helvetica,sans-Serif" font-size="10.00">Size</text>
<polyline fill="none" stroke="#bfbfbf" points="403.5,-347 440.5,-347 "/>
<text text-anchor="middle" x="422" y="-335" font-family="Helvetica,sans-Serif" font-size="10.00"> </text>
<polyline fill="none" stroke="#bfbfbf" points="403.5,-328 440.5,-328 "/>
<text text-anchor="middle" x="422" y="-316" font-family="Helvetica,sans-Serif" font-size="10.00"> </text>
</a>
</g>
</g>
<!-- Node15&#45;&gt;Node1 -->
<g id="edge14" class="edge">
<title>Node15&#45;&gt;Node1</title>
<path fill="none" stroke="#404040" d="M416.36,-308.79C410.85,-281.96 402.12,-240.13 394,-204 390.61,-188.94 386.89,-172.92 383.24,-157.47"/>
<polygon fill="none" stroke="#404040" points="383.24,-157.46 377.96,-152.55 380.47,-145.78 385.75,-150.7 383.24,-157.46"/>
<text text-anchor="middle" x="410.5" y="-178" font-family="Helvetica,sans-Serif" font-size="10.00"> &#45;mHead</text>
<text text-anchor="middle" x="410.5" y="-167" font-family="Helvetica,sans-Serif" font-size="10.00">&#45;mTail</text>
</g>
</g>
</svg>
