<?xml version="1.0" encoding="UTF-8" standalone="no"?>
<!DOCTYPE svg PUBLIC "-//W3C//DTD SVG 1.1//EN"
 "http://www.w3.org/Graphics/SVG/1.1/DTD/svg11.dtd">
<!-- Generated by graphviz version 2.50.0 (0)
 -->
<!-- Title: vae::core::SpatialManager::getEmitter Pages: 1 -->
<!--zoomable 249 -->
<svg id="main" version="1.1" xmlns="http://www.w3.org/2000/svg" xmlns:xlink="http://www.w3.org/1999/xlink" xml:space="preserve" onload="init(evt)">
<style type="text/css"><![CDATA[
.edge:hover path { stroke: red; }
.edge:hover polygon { stroke: red; fill: red; }
]]></style>
<script type="text/javascript"><![CDATA[
var edges = document.getElementsByTagName('g');
if (edges && edges.length) {
  for (var i=0;i<edges.length;i++) {
    if (edges[i].id.substr(0,4)=='edge') {
      edges[i].setAttribute('class','edge');
    }
  }
}
]]></script>
        <defs>
                <circle id="rim" cx="0" cy="0" r="7"/>
                <circle id="rim2" cx="0" cy="0" r="3.5"/>
                <g id="zoomPlus">
                        <use xlink:href="#rim" fill="#404040">
                                <set attributeName="fill" to="#808080" begin="zoomplus.mouseover" end="zoomplus.mouseout"/>
                        </use>
                        <path d="M-4,0h8M0,-4v8" fill="none" stroke="white" stroke-width="1.5" pointer-events="none"/>
                </g>
                <g id="zoomMin">
                        <use xlink:href="#rim" fill="#404040">
                                <set attributeName="fill" to="#808080" begin="zoomminus.mouseover" end="zoomminus.mouseout"/>
                        </use>
                        <path d="M-4,0h8" fill="none" stroke="white" stroke-width="1.5" pointer-events="none"/>
                </g>
                <g id="dirArrow">
                        <path fill="none" stroke="white" stroke-width="1.5" d="M0,-3.0v7 M-2.5,-0.5L0,-3.0L2.5,-0.5"/>
                </g>
               <g id="resetDef">
                       <use xlink:href="#rim2" fill="#404040">
                               <set attributeName="fill" to="#808080" begin="reset.mouseover" end="reset.mouseout"/>
                       </use>
               </g>
        </defs>

<script type="text/javascript">
var viewWidth = 1040;
var viewHeight = 249;
var sectionId = 'dynsection-8';
</script>
<script xlink:href="svgpan.js"/>
<svg id="graph" class="graph">
<g id="viewport">
<title>vae::core::SpatialManager::getEmitter</title>
<!-- Node1 -->
<g id="node1" class="node">
<title>Node1</title>
<g id="a_node1"><a xlink:title=" ">
<polygon fill="#bfbfbf" stroke="black" points="889,-116 889,-146 1032,-146 1032,-116 889,-116"/>
<text text-anchor="start" x="897" y="-134" font-family="Helvetica,sans-Serif" font-size="10.00">vae::core::SpatialManager</text>
<text text-anchor="middle" x="960.5" y="-123" font-family="Helvetica,sans-Serif" font-size="10.00">::getEmitter</text>
</a>
</g>
</g>
<!-- Node2 -->
<g id="node2" class="node">
<title>Node2</title>
<g id="a_node2"><a xlink:href="classvae_1_1core_1_1_spatial_processor.html#a9acbf42573db468c02381dadb81f3fcd" target="_top" xlink:title="Process a single bank.">
<polygon fill="none" stroke="black" points="680,-167.5 680,-186.5 853,-186.5 853,-167.5 680,-167.5"/>
<text text-anchor="middle" x="766.5" y="-174.5" font-family="Helvetica,sans-Serif" font-size="10.00">vae::core::SpatialProcessor::mix</text>
</a>
</g>
</g>
<!-- Node1&#45;&gt;Node2 -->
<g id="edge1" class="edge">
<title>Node1&#45;&gt;Node2</title>
<path fill="none" stroke="midnightblue" d="M886.83,-148.41C859.84,-154.88 830.24,-161.97 807.27,-167.47"/>
<polygon fill="midnightblue" stroke="midnightblue" points="887.72,-151.8 896.63,-146.06 886.09,-144.99 887.72,-151.8"/>
</g>
<!-- Node9 -->
<g id="node9" class="node">
<title>Node9</title>
<g id="a_node9"><a xlink:href="classvae_1_1core_1_1_spatial_manager.html#abaac63e2c14e2ef21be7e4babdce44be" target="_top" xlink:title=" ">
<polygon fill="none" stroke="black" points="695,-116 695,-146 838,-146 838,-116 695,-116"/>
<text text-anchor="start" x="703" y="-134" font-family="Helvetica,sans-Serif" font-size="10.00">vae::core::SpatialManager</text>
<text text-anchor="middle" x="766.5" y="-123" font-family="Helvetica,sans-Serif" font-size="10.00">::setEmitter</text>
</a>
</g>
</g>
<!-- Node1&#45;&gt;Node9 -->
<g id="edge10" class="edge">
<title>Node1&#45;&gt;Node9</title>
<path fill="none" stroke="midnightblue" d="M878.61,-131C865.12,-131 851.23,-131 838.03,-131"/>
<polygon fill="midnightblue" stroke="midnightblue" points="878.82,-134.5 888.82,-131 878.82,-127.5 878.82,-134.5"/>
</g>
<!-- Node13 -->
<g id="node13" class="node">
<title>Node13</title>
<g id="a_node13"><a xlink:href="classvae_1_1core_1_1_engine.html#adb4e1cb3bd1ea11bb9d3b806d552fb75" target="_top" xlink:title="Update function needs to be called regularly to handle outbound events and other housekeeping.">
<polygon fill="none" stroke="black" points="713,-67 713,-97 820,-97 820,-67 713,-67"/>
<text text-anchor="start" x="721" y="-85" font-family="Helvetica,sans-Serif" font-size="10.00">vae::core::Engine::</text>
<text text-anchor="middle" x="766.5" y="-74" font-family="Helvetica,sans-Serif" font-size="10.00">update</text>
</a>
</g>
</g>
<!-- Node1&#45;&gt;Node13 -->
<g id="edge14" class="edge">
<title>Node1&#45;&gt;Node13</title>
<path fill="none" stroke="midnightblue" d="M890.78,-113.46C867.51,-107.52 841.92,-100.99 820.11,-95.43"/>
<polygon fill="midnightblue" stroke="midnightblue" points="890.03,-116.88 900.59,-115.97 891.76,-110.1 890.03,-116.88"/>
</g>
<!-- Node2&#45;&gt;Node2 -->
<g id="edge2" class="edge">
<title>Node2&#45;&gt;Node2</title>
<path fill="none" stroke="midnightblue" d="M802.5,-194.5C802.49,-200.34 790.49,-205 766.5,-205 732.38,-205 722.51,-195.57 736.91,-186.76"/>
<polygon fill="midnightblue" stroke="midnightblue" points="805.16,-192.23 796.09,-186.76 799.77,-196.69 805.16,-192.23"/>
</g>
<!-- Node3 -->
<g id="node3" class="node">
<title>Node3</title>
<g id="a_node3"><a xlink:href="classvae_1_1core_1_1_engine.html#afecf53f2eaf92d13a933c05c821b3819" target="_top" xlink:title="Main processing function.">
<polygon fill="none" stroke="black" points="520,-164 520,-194 627,-194 627,-164 520,-164"/>
<text text-anchor="start" x="528" y="-182" font-family="Helvetica,sans-Serif" font-size="10.00">vae::core::Engine::</text>
<text text-anchor="middle" x="573.5" y="-171" font-family="Helvetica,sans-Serif" font-size="10.00">process</text>
</a>
</g>
</g>
<!-- Node2&#45;&gt;Node3 -->
<g id="edge3" class="edge">
<title>Node2&#45;&gt;Node3</title>
<path fill="none" stroke="midnightblue" d="M669.65,-178C655,-178.16 640.35,-178.31 627.1,-178.45"/>
<polygon fill="midnightblue" stroke="midnightblue" points="669.81,-181.5 679.78,-177.9 669.74,-174.5 669.81,-181.5"/>
</g>
<!-- Node4 -->
<g id="node4" class="node">
<title>Node4</title>
<g id="a_node4"><a xlink:href="classvae_1_1core_1_1_engine.html#ab31b2381a1d916efdcffe8db7971ce15" target="_top" xlink:title="Called from audio device when it needs more audio.">
<polygon fill="none" stroke="black" points="334.5,-210 334.5,-240 441.5,-240 441.5,-210 334.5,-210"/>
<text text-anchor="start" x="342.5" y="-228" font-family="Helvetica,sans-Serif" font-size="10.00">vae::core::Engine::</text>
<text text-anchor="middle" x="388" y="-217" font-family="Helvetica,sans-Serif" font-size="10.00">onBufferSwap</text>
</a>
</g>
</g>
<!-- Node3&#45;&gt;Node4 -->
<g id="edge4" class="edge">
<title>Node3&#45;&gt;Node4</title>
<path fill="none" stroke="midnightblue" d="M510.2,-194.62C487.9,-200.21 463,-206.45 441.59,-211.82"/>
<polygon fill="midnightblue" stroke="midnightblue" points="511.07,-198.01 519.92,-192.18 509.37,-191.22 511.07,-198.01"/>
</g>
<!-- Node8 -->
<g id="node8" class="node">
<title>Node8</title>
<g id="a_node8"><a xlink:href="classvae_1_1core_1_1_engine.html#aca852d5c0e30b0641582f175bf95fbea" target="_top" xlink:title="Called from own audio thread, not the device.">
<polygon fill="none" stroke="black" points="334.5,-161 334.5,-191 441.5,-191 441.5,-161 334.5,-161"/>
<text text-anchor="start" x="342.5" y="-179" font-family="Helvetica,sans-Serif" font-size="10.00">vae::core::Engine::</text>
<text text-anchor="middle" x="388" y="-168" font-family="Helvetica,sans-Serif" font-size="10.00">threadedProcess</text>
</a>
</g>
</g>
<!-- Node3&#45;&gt;Node8 -->
<g id="edge8" class="edge">
<title>Node3&#45;&gt;Node8</title>
<path fill="none" stroke="midnightblue" d="M509.9,-177.98C487.68,-177.61 462.9,-177.21 441.59,-176.86"/>
<polygon fill="midnightblue" stroke="midnightblue" points="509.86,-181.48 519.92,-178.14 509.97,-174.48 509.86,-181.48"/>
</g>
<!-- Node5 -->
<g id="node5" class="node">
<title>Node5</title>
<g id="a_node5"><a xlink:href="classvae_1_1core_1_1_engine.html#aa974f739b3f2dc8004eede720d01d229" target="_top" xlink:title="Tries to open default device and start audio thread.">
<polygon fill="none" stroke="black" points="166,-185 166,-215 273,-215 273,-185 166,-185"/>
<text text-anchor="start" x="174" y="-203" font-family="Helvetica,sans-Serif" font-size="10.00">vae::core::Engine::</text>
<text text-anchor="middle" x="219.5" y="-192" font-family="Helvetica,sans-Serif" font-size="10.00">start</text>
</a>
</g>
</g>
<!-- Node4&#45;&gt;Node5 -->
<g id="edge5" class="edge">
<title>Node4&#45;&gt;Node5</title>
<path fill="none" stroke="midnightblue" d="M324.04,-215.55C307.26,-213.03 289.29,-210.33 273.12,-207.9"/>
<polygon fill="midnightblue" stroke="midnightblue" points="323.91,-219.07 334.32,-217.09 324.95,-212.14 323.91,-219.07"/>
</g>
<!-- Node6 -->
<g id="node6" class="node">
<title>Node6</title>
<g id="a_node6"><a xlink:href="main_8cpp.html#ae66f6b31b5ad750f1fe042a706a4e3d4" target="_top" xlink:title=" ">
<polygon fill="none" stroke="black" points="44.5,-209.5 44.5,-228.5 85.5,-228.5 85.5,-209.5 44.5,-209.5"/>
<text text-anchor="middle" x="65" y="-216.5" font-family="Helvetica,sans-Serif" font-size="10.00">main</text>
</a>
</g>
</g>
<!-- Node5&#45;&gt;Node6 -->
<g id="edge6" class="edge">
<title>Node5&#45;&gt;Node6</title>
<path fill="none" stroke="midnightblue" d="M155.36,-207.87C130.26,-210.99 103.2,-214.36 85.52,-216.57"/>
<polygon fill="midnightblue" stroke="midnightblue" points="156.1,-211.3 165.59,-206.59 155.23,-204.36 156.1,-211.3"/>
</g>
<!-- Node7 -->
<g id="node7" class="node">
<title>Node7</title>
<g id="a_node7"><a xlink:href="classvae_1_1_engine_pimpl.html#af773bc095b97e185c17b23a702572479" target="_top" xlink:title="Tries to open default device and start audio thread.">
<polygon fill="none" stroke="black" points="0,-171.5 0,-190.5 130,-190.5 130,-171.5 0,-171.5"/>
<text text-anchor="middle" x="65" y="-178.5" font-family="Helvetica,sans-Serif" font-size="10.00">vae::EnginePimpl::start</text>
</a>
</g>
</g>
<!-- Node5&#45;&gt;Node7 -->
<g id="edge7" class="edge">
<title>Node5&#45;&gt;Node7</title>
<path fill="none" stroke="midnightblue" d="M155.5,-192.15C147.12,-191.11 138.52,-190.03 130.11,-188.99"/>
<polygon fill="midnightblue" stroke="midnightblue" points="155.23,-195.64 165.59,-193.41 156.1,-188.7 155.23,-195.64"/>
</g>
<!-- Node8&#45;&gt;Node5 -->
<g id="edge9" class="edge">
<title>Node8&#45;&gt;Node5</title>
<path fill="none" stroke="midnightblue" d="M324.04,-185.07C307.26,-187.49 289.29,-190.08 273.12,-192.41"/>
<polygon fill="midnightblue" stroke="midnightblue" points="324.92,-188.48 334.32,-183.59 323.92,-181.56 324.92,-188.48"/>
</g>
<!-- Node10 -->
<g id="node10" class="node">
<title>Node10</title>
<g id="a_node10"><a xlink:href="classvae_1_1core_1_1_engine.html#af815d78009973b30babdc575fd127978" target="_top" xlink:title="Set the Emitter position, orientation and spread.">
<polygon fill="none" stroke="black" points="520,-115 520,-145 627,-145 627,-115 520,-115"/>
<text text-anchor="start" x="528" y="-133" font-family="Helvetica,sans-Serif" font-size="10.00">vae::core::Engine::</text>
<text text-anchor="middle" x="573.5" y="-122" font-family="Helvetica,sans-Serif" font-size="10.00">setEmitter</text>
</a>
</g>
</g>
<!-- Node9&#45;&gt;Node10 -->
<g id="edge11" class="edge">
<title>Node9&#45;&gt;Node10</title>
<path fill="none" stroke="midnightblue" d="M684.82,-130.58C665.33,-130.48 645,-130.37 627.17,-130.28"/>
<polygon fill="midnightblue" stroke="midnightblue" points="684.9,-134.08 694.92,-130.63 684.94,-127.08 684.9,-134.08"/>
</g>
<!-- Node11 -->
<g id="node11" class="node">
<title>Node11</title>
<g id="a_node11"><a xlink:href="main_8cpp.html#a7b09579eb01449ba8f8ac324485001c2" target="_top" xlink:title=" ">
<polygon fill="none" stroke="black" points="352.5,-79.5 352.5,-98.5 423.5,-98.5 423.5,-79.5 352.5,-79.5"/>
<text text-anchor="middle" x="388" y="-86.5" font-family="Helvetica,sans-Serif" font-size="10.00">benchmark</text>
</a>
</g>
</g>
<!-- Node10&#45;&gt;Node11 -->
<g id="edge12" class="edge">
<title>Node10&#45;&gt;Node11</title>
<path fill="none" stroke="midnightblue" d="M509.91,-116.02C481.05,-109.57 447.9,-102.16 423.61,-96.73"/>
<polygon fill="midnightblue" stroke="midnightblue" points="509.39,-119.49 519.92,-118.25 510.92,-112.65 509.39,-119.49"/>
</g>
<!-- Node12 -->
<g id="node12" class="node">
<title>Node12</title>
<g id="a_node12"><a xlink:href="classvae_1_1_engine_pimpl.html#ac2937d09e2e24c7fec6631e0b97a0040" target="_top" xlink:title="Set the Emitter position, orientation and spread.">
<polygon fill="none" stroke="black" points="309,-120.5 309,-139.5 467,-139.5 467,-120.5 309,-120.5"/>
<text text-anchor="middle" x="388" y="-127.5" font-family="Helvetica,sans-Serif" font-size="10.00">vae::EnginePimpl::setEmitter</text>
</a>
</g>
</g>
<!-- Node10&#45;&gt;Node12 -->
<g id="edge13" class="edge">
<title>Node10&#45;&gt;Node12</title>
<path fill="none" stroke="midnightblue" d="M509.68,-130C496.02,-130 481.41,-130 467.24,-130"/>
<polygon fill="midnightblue" stroke="midnightblue" points="509.92,-133.5 519.92,-130 509.92,-126.5 509.92,-133.5"/>
</g>
<!-- Node13&#45;&gt;Node3 -->
<g id="edge17" class="edge">
<title>Node13&#45;&gt;Node3</title>
<path fill="none" stroke="midnightblue" d="M703.24,-94.23C695.03,-97.32 687.04,-101.18 680,-106 658,-121.07 665.45,-138.15 644,-154 638.84,-157.81 633.05,-161.09 627.06,-163.89"/>
<polygon fill="midnightblue" stroke="midnightblue" points="704.57,-97.48 712.92,-90.95 702.32,-90.85 704.57,-97.48"/>
</g>
<!-- Node13&#45;&gt;Node11 -->
<g id="edge15" class="edge">
<title>Node13&#45;&gt;Node11</title>
<path fill="none" stroke="midnightblue" d="M702.31,-83.17C622.25,-84.66 487.07,-87.18 423.72,-88.35"/>
<polygon fill="midnightblue" stroke="midnightblue" points="702.82,-86.67 712.75,-82.98 702.69,-79.67 702.82,-86.67"/>
</g>
<!-- Node14 -->
<g id="node14" class="node">
<title>Node14</title>
<g id="a_node14"><a xlink:href="main_8cpp.html#a6f5c91847864279624ba2247527e3cea" target="_top" xlink:title=" ">
<polygon fill="none" stroke="black" points="512,-38.5 512,-57.5 635,-57.5 635,-38.5 512,-38.5"/>
<text text-anchor="middle" x="573.5" y="-45.5" font-family="Helvetica,sans-Serif" font-size="10.00">benchmarkBasicVoice</text>
</a>
</g>
</g>
<!-- Node13&#45;&gt;Node14 -->
<g id="edge16" class="edge">
<title>Node13&#45;&gt;Node14</title>
<path fill="none" stroke="midnightblue" d="M702.67,-70.82C678.52,-66.52 651.21,-61.66 628.02,-57.53"/>
<polygon fill="midnightblue" stroke="midnightblue" points="702.34,-74.31 712.8,-72.62 703.57,-67.42 702.34,-74.31"/>
</g>
<!-- Node15 -->
<g id="node15" class="node">
<title>Node15</title>
<g id="a_node15"><a xlink:href="classvae_1_1_engine_pimpl.html#a8e9296021147373d9b8c415c460fe842" target="_top" xlink:title="Update function needs to be called regularly to handle outbound events and other housekeeping.">
<polygon fill="none" stroke="black" points="503,-0.5 503,-19.5 644,-19.5 644,-0.5 503,-0.5"/>
<text text-anchor="middle" x="573.5" y="-7.5" font-family="Helvetica,sans-Serif" font-size="10.00">vae::EnginePimpl::update</text>
</a>
</g>
</g>
<!-- Node13&#45;&gt;Node15 -->
<g id="edge18" class="edge">
<title>Node13&#45;&gt;Node15</title>
<path fill="none" stroke="midnightblue" d="M725.04,-62.6C701.68,-51.84 671.56,-38.72 644,-29 634.21,-25.55 623.46,-22.34 613.41,-19.57"/>
<polygon fill="midnightblue" stroke="midnightblue" points="723.74,-65.85 734.28,-66.89 726.68,-59.5 723.74,-65.85"/>
</g>
</g>
</svg>
        <g id="navigator" transform="translate(0 0)" fill="#404254">
                <rect fill="#f2f5e9" fill-opacity="0.5" stroke="#606060" stroke-width=".5" x="0" y="0" width="60" height="60"/>
                <use id="zoomplus" xlink:href="#zoomPlus" x="17" y="9" onmousedown="handleZoom(evt,'in')"/>
                <use id="zoomminus" xlink:href="#zoomMin" x="42" y="9" onmousedown="handleZoom(evt,'out')"/>
                <use id="reset" xlink:href="#resetDef" x="30" y="36" onmousedown="handleReset()"/>
                <g id="arrowUp" xlink:href="#dirArrow" transform="translate(30 24)" onmousedown="handlePan(0,-1)">
                  <use xlink:href="#rim" fill="#404040">
                        <set attributeName="fill" to="#808080" begin="arrowUp.mouseover" end="arrowUp.mouseout"/>
                  </use>
                  <path fill="none" stroke="white" stroke-width="1.5" d="M0,-3.0v7 M-2.5,-0.5L0,-3.0L2.5,-0.5"/>
                </g>
                <g id="arrowRight" xlink:href="#dirArrow" transform="rotate(90) translate(36 -43)" onmousedown="handlePan(1,0)">
                  <use xlink:href="#rim" fill="#404040">
                        <set attributeName="fill" to="#808080" begin="arrowRight.mouseover" end="arrowRight.mouseout"/>
                  </use>
                  <path fill="none" stroke="white" stroke-width="1.5" d="M0,-3.0v7 M-2.5,-0.5L0,-3.0L2.5,-0.5"/>
                </g>
                <g id="arrowDown" xlink:href="#dirArrow" transform="rotate(180) translate(-30 -48)" onmousedown="handlePan(0,1)">
                  <use xlink:href="#rim" fill="#404040">
                        <set attributeName="fill" to="#808080" begin="arrowDown.mouseover" end="arrowDown.mouseout"/>
                  </use>
                  <path fill="none" stroke="white" stroke-width="1.5" d="M0,-3.0v7 M-2.5,-0.5L0,-3.0L2.5,-0.5"/>
                </g>
                <g id="arrowLeft" xlink:href="#dirArrow" transform="rotate(270) translate(-36 17)" onmousedown="handlePan(-1,0)">
                  <use xlink:href="#rim" fill="#404040">
                        <set attributeName="fill" to="#808080" begin="arrowLeft.mouseover" end="arrowLeft.mouseout"/>
                  </use>
                  <path fill="none" stroke="white" stroke-width="1.5" d="M0,-3.0v7 M-2.5,-0.5L0,-3.0L2.5,-0.5"/>
                </g>
        </g>
        <svg viewBox="0 0 15 15" width="100%" height="30px" preserveAspectRatio="xMaxYMin meet">
         <g id="arrow_out" transform="scale(0.3 0.3)">
          <a xlink:href="classvae_1_1core_1_1_spatial_manager_afc5a2274a1d6098a64d6cb9d124bb7ed_icgraph_org.svg" target="_base">
           <rect id="button" ry="5" rx="5" y="6" x="6" height="38" width="38"
                fill="#f2f5e9" fill-opacity="0.5" stroke="#606060" stroke-width="1.0"/>
           <path id="arrow"
             d="M 11.500037,31.436501 C 11.940474,20.09759 22.043105,11.32322 32.158766,21.979434 L 37.068811,17.246167 C 37.068811,17.246167 37.088388,32 37.088388,32 L 22.160133,31.978069 C 22.160133,31.978069 26.997745,27.140456 26.997745,27.140456 C 18.528582,18.264221 13.291696,25.230495 11.500037,31.436501 z"
             style="fill:#404040;"/>
          </a>
         </g>
        </svg>
</svg>
