<?xml version="1.0" encoding="UTF-8" standalone="no"?>
<!DOCTYPE svg PUBLIC "-//W3C//DTD SVG 1.1//EN"
 "http://www.w3.org/Graphics/SVG/1.1/DTD/svg11.dtd">
<!-- Generated by graphviz version 2.50.0 (0)
 -->
<!-- Title: vae::EnginePimpl::setLowpass Pages: 1 -->
<svg width="480pt" height="39pt"
 viewBox="0.00 0.00 480.00 39.00" xmlns="http://www.w3.org/2000/svg" xmlns:xlink="http://www.w3.org/1999/xlink">
<g id="graph0" class="graph" transform="scale(1 1) rotate(0) translate(4 35)">
<title>vae::EnginePimpl::setLowpass</title>
<!-- Node1 -->
<g id="node1" class="node">
<title>Node1</title>
<g id="a_node1"><a xlink:title="Simple lowpass filter for the voices.">
<polygon fill="#bfbfbf" stroke="black" points="0,-6 0,-25 164,-25 164,-6 0,-6"/>
<text text-anchor="middle" x="82" y="-13" font-family="Helvetica,sans-Serif" font-size="10.00">vae::EnginePimpl::setLowpass</text>
</a>
</g>
</g>
<!-- Node2 -->
<g id="node2" class="node">
<title>Node2</title>
<g id="a_node2"><a xlink:href="classvae_1_1core_1_1_engine.html#a68add9a99442059f97d8a7b18fa46f1f" target="_top" xlink:title="Simple lowpass filter for the voices.">
<polygon fill="none" stroke="black" points="200,-0.5 200,-30.5 307,-30.5 307,-0.5 200,-0.5"/>
<text text-anchor="start" x="208" y="-18.5" font-family="Helvetica,sans-Serif" font-size="10.00">vae::core::Engine::</text>
<text text-anchor="middle" x="253.5" y="-7.5" font-family="Helvetica,sans-Serif" font-size="10.00">setLowpass</text>
</a>
</g>
</g>
<!-- Node1&#45;&gt;Node2 -->
<g id="edge1" class="edge">
<title>Node1&#45;&gt;Node2</title>
<path fill="none" stroke="midnightblue" d="M164.27,-15.5C172.76,-15.5 181.29,-15.5 189.52,-15.5"/>
<polygon fill="midnightblue" stroke="midnightblue" points="189.77,-19 199.77,-15.5 189.77,-12 189.77,-19"/>
</g>
<!-- Node3 -->
<g id="node3" class="node">
<title>Node3</title>
<g id="a_node3"><a xlink:href="classvae_1_1core_1_1_voice_manger.html#a7ee41f2edab0bd34a0dc436aa9e214ae" target="_top" xlink:title=" ">
<polygon fill="none" stroke="black" points="343,-0.5 343,-30.5 472,-30.5 472,-0.5 343,-0.5"/>
<text text-anchor="start" x="351" y="-18.5" font-family="Helvetica,sans-Serif" font-size="10.00">vae::core::VoiceManger</text>
<text text-anchor="middle" x="407.5" y="-7.5" font-family="Helvetica,sans-Serif" font-size="10.00">::setVoiceProperty</text>
</a>
</g>
</g>
<!-- Node2&#45;&gt;Node3 -->
<g id="edge2" class="edge">
<title>Node2&#45;&gt;Node3</title>
<path fill="none" stroke="midnightblue" d="M307.24,-15.5C315.49,-15.5 324.16,-15.5 332.78,-15.5"/>
<polygon fill="midnightblue" stroke="midnightblue" points="332.86,-19 342.86,-15.5 332.86,-12 332.86,-19"/>
</g>
</g>
</svg>
