<?xml version="1.0" encoding="UTF-8" standalone="no"?>
<!DOCTYPE svg PUBLIC "-//W3C//DTD SVG 1.1//EN"
 "http://www.w3.org/Graphics/SVG/1.1/DTD/svg11.dtd">
<!-- Generated by graphviz version 2.50.0 (0)
 -->
<!-- Title: vae::core::SpatialManager::addEmitter Pages: 1 -->
<svg width="875pt" height="233pt"
 viewBox="0.00 0.00 875.00 232.50" xmlns="http://www.w3.org/2000/svg" xmlns:xlink="http://www.w3.org/1999/xlink">
<g id="graph0" class="graph" transform="scale(1 1) rotate(0) translate(4 228.5)">
<title>vae::core::SpatialManager::addEmitter</title>
<!-- Node1 -->
<g id="node1" class="node">
<title>Node1</title>
<g id="a_node1"><a xlink:title=" ">
<polygon fill="#bfbfbf" stroke="black" points="724,-169 724,-199 867,-199 867,-169 724,-169"/>
<text text-anchor="start" x="732" y="-187" font-family="Helvetica,sans-Serif" font-size="10.00">vae::core::SpatialManager</text>
<text text-anchor="middle" x="795.5" y="-176" font-family="Helvetica,sans-Serif" font-size="10.00">::addEmitter</text>
</a>
</g>
</g>
<!-- Node2 -->
<g id="node2" class="node">
<title>Node2</title>
<g id="a_node2"><a xlink:href="classvae_1_1core_1_1_engine.html#a1573d1be8740581800210e938a6c329d" target="_top" xlink:title="Adds an emitter with a custom handle, can be an internal ID for example.">
<polygon fill="none" stroke="black" points="563,-194 563,-224 670,-224 670,-194 563,-194"/>
<text text-anchor="start" x="571" y="-212" font-family="Helvetica,sans-Serif" font-size="10.00">vae::core::Engine::</text>
<text text-anchor="middle" x="616.5" y="-201" font-family="Helvetica,sans-Serif" font-size="10.00">addEmitter</text>
</a>
</g>
</g>
<!-- Node1&#45;&gt;Node2 -->
<g id="edge1" class="edge">
<title>Node1&#45;&gt;Node2</title>
<path fill="none" stroke="midnightblue" d="M713.62,-195.42C698.85,-197.51 683.79,-199.64 670.11,-201.57"/>
<polygon fill="midnightblue" stroke="midnightblue" points="714.37,-198.85 723.78,-193.99 713.39,-191.92 714.37,-198.85"/>
</g>
<!-- Node4 -->
<g id="node4" class="node">
<title>Node4</title>
<g id="a_node4"><a xlink:href="classvae_1_1core_1_1_spatial_manager.html#a3b7a584badb78d373db73bde20e5a85b" target="_top" xlink:title=" ">
<polygon fill="none" stroke="black" points="545,-145 545,-175 688,-175 688,-145 545,-145"/>
<text text-anchor="start" x="553" y="-163" font-family="Helvetica,sans-Serif" font-size="10.00">vae::core::SpatialManager</text>
<text text-anchor="middle" x="616.5" y="-152" font-family="Helvetica,sans-Serif" font-size="10.00">::createEmitter</text>
</a>
</g>
</g>
<!-- Node1&#45;&gt;Node4 -->
<g id="edge3" class="edge">
<title>Node1&#45;&gt;Node4</title>
<path fill="none" stroke="midnightblue" d="M713.79,-173.06C705.22,-171.89 696.55,-170.72 688.11,-169.57"/>
<polygon fill="midnightblue" stroke="midnightblue" points="713.4,-176.54 723.78,-174.41 714.34,-169.6 713.4,-176.54"/>
</g>
<!-- Node3 -->
<g id="node3" class="node">
<title>Node3</title>
<g id="a_node3"><a xlink:href="classvae_1_1_engine_pimpl.html#a29fdfdc193c0665b762a3ab26e49ea69" target="_top" xlink:title="Adds an emitter with a custom handle, can be an internal ID for example.">
<polygon fill="none" stroke="black" points="348,-199.5 348,-218.5 509,-218.5 509,-199.5 348,-199.5"/>
<text text-anchor="middle" x="428.5" y="-206.5" font-family="Helvetica,sans-Serif" font-size="10.00">vae::EnginePimpl::addEmitter</text>
</a>
</g>
</g>
<!-- Node2&#45;&gt;Node3 -->
<g id="edge2" class="edge">
<title>Node2&#45;&gt;Node3</title>
<path fill="none" stroke="midnightblue" d="M552.31,-209C538.45,-209 523.6,-209 509.19,-209"/>
<polygon fill="midnightblue" stroke="midnightblue" points="552.7,-212.5 562.7,-209 552.7,-205.5 552.7,-212.5"/>
</g>
<!-- Node5 -->
<g id="node5" class="node">
<title>Node5</title>
<g id="a_node5"><a xlink:href="classvae_1_1core_1_1_spatial_manager.html#a5388d4c3de49b246d40dc00a799a04d4" target="_top" xlink:title=" ">
<polygon fill="none" stroke="black" points="357,-148 357,-178 500,-178 500,-148 357,-148"/>
<text text-anchor="start" x="365" y="-166" font-family="Helvetica,sans-Serif" font-size="10.00">vae::core::SpatialManager</text>
<text text-anchor="middle" x="428.5" y="-155" font-family="Helvetica,sans-Serif" font-size="10.00">::createAutoEmitter</text>
</a>
</g>
</g>
<!-- Node4&#45;&gt;Node5 -->
<g id="edge4" class="edge">
<title>Node4&#45;&gt;Node5</title>
<path fill="none" stroke="midnightblue" d="M534.82,-161.3C523.24,-161.49 511.4,-161.68 500.04,-161.86"/>
<polygon fill="midnightblue" stroke="midnightblue" points="534.97,-164.8 544.92,-161.14 534.86,-157.8 534.97,-164.8"/>
</g>
<!-- Node8 -->
<g id="node8" class="node">
<title>Node8</title>
<g id="a_node8"><a xlink:href="classvae_1_1core_1_1_engine.html#a400114c6a78c8f77d34567004b471bb3" target="_top" xlink:title="Creates an emitter and returns the handle.">
<polygon fill="none" stroke="black" points="375,-83 375,-113 482,-113 482,-83 375,-83"/>
<text text-anchor="start" x="383" y="-101" font-family="Helvetica,sans-Serif" font-size="10.00">vae::core::Engine::</text>
<text text-anchor="middle" x="428.5" y="-90" font-family="Helvetica,sans-Serif" font-size="10.00">createEmitter</text>
</a>
</g>
</g>
<!-- Node4&#45;&gt;Node8 -->
<g id="edge7" class="edge">
<title>Node4&#45;&gt;Node8</title>
<path fill="none" stroke="midnightblue" d="M560.66,-141.72C533.32,-132.61 500.65,-121.72 474.76,-113.09"/>
<polygon fill="midnightblue" stroke="midnightblue" points="559.88,-145.15 570.47,-144.99 562.09,-138.51 559.88,-145.15"/>
</g>
<!-- Node6 -->
<g id="node6" class="node">
<title>Node6</title>
<g id="a_node6"><a xlink:href="classvae_1_1core_1_1_engine.html#aa95114981da90cd3395d48c4bd5cf407" target="_top" xlink:title="Emitter which triggers an event once a listener is close enough.">
<polygon fill="none" stroke="black" points="189.5,-165 189.5,-195 296.5,-195 296.5,-165 189.5,-165"/>
<text text-anchor="start" x="197.5" y="-183" font-family="Helvetica,sans-Serif" font-size="10.00">vae::core::Engine::</text>
<text text-anchor="middle" x="243" y="-172" font-family="Helvetica,sans-Serif" font-size="10.00">createAutoEmitter</text>
</a>
</g>
</g>
<!-- Node5&#45;&gt;Node6 -->
<g id="edge5" class="edge">
<title>Node5&#45;&gt;Node6</title>
<path fill="none" stroke="midnightblue" d="M346.4,-170.51C329.55,-172.07 312.21,-173.68 296.69,-175.12"/>
<polygon fill="midnightblue" stroke="midnightblue" points="347.18,-173.96 356.82,-169.55 346.54,-166.99 347.18,-173.96"/>
</g>
<!-- Node7 -->
<g id="node7" class="node">
<title>Node7</title>
<g id="a_node7"><a xlink:href="classvae_1_1_engine_pimpl.html#a1e36c49dc56f13537413d5480ca61045" target="_top" xlink:title="Emitter which triggers an event once a listener is close enough.">
<polygon fill="none" stroke="black" points="0,-165 0,-195 138,-195 138,-165 0,-165"/>
<text text-anchor="start" x="8" y="-183" font-family="Helvetica,sans-Serif" font-size="10.00">vae::EnginePimpl::create</text>
<text text-anchor="middle" x="69" y="-172" font-family="Helvetica,sans-Serif" font-size="10.00">AutoEmitter</text>
</a>
</g>
</g>
<!-- Node6&#45;&gt;Node7 -->
<g id="edge6" class="edge">
<title>Node6&#45;&gt;Node7</title>
<path fill="none" stroke="midnightblue" d="M179.38,-180C165.95,-180 151.71,-180 138.09,-180"/>
<polygon fill="midnightblue" stroke="midnightblue" points="179.46,-183.5 189.46,-180 179.46,-176.5 179.46,-183.5"/>
</g>
<!-- Node9 -->
<g id="node9" class="node">
<title>Node9</title>
<g id="a_node9"><a xlink:href="main_8cpp.html#a7b09579eb01449ba8f8ac324485001c2" target="_top" xlink:title=" ">
<polygon fill="none" stroke="black" points="207.5,-126.5 207.5,-145.5 278.5,-145.5 278.5,-126.5 207.5,-126.5"/>
<text text-anchor="middle" x="243" y="-133.5" font-family="Helvetica,sans-Serif" font-size="10.00">benchmark</text>
</a>
</g>
</g>
<!-- Node8&#45;&gt;Node9 -->
<g id="edge8" class="edge">
<title>Node8&#45;&gt;Node9</title>
<path fill="none" stroke="midnightblue" d="M364.91,-110.96C336.05,-116.94 302.9,-123.8 278.61,-128.83"/>
<polygon fill="midnightblue" stroke="midnightblue" points="365.83,-114.34 374.92,-108.89 364.41,-107.49 365.83,-114.34"/>
</g>
<!-- Node10 -->
<g id="node10" class="node">
<title>Node10</title>
<g id="a_node10"><a xlink:href="main_8cpp.html#a6f5c91847864279624ba2247527e3cea" target="_top" xlink:title=" ">
<polygon fill="none" stroke="black" points="181.5,-88.5 181.5,-107.5 304.5,-107.5 304.5,-88.5 181.5,-88.5"/>
<text text-anchor="middle" x="243" y="-95.5" font-family="Helvetica,sans-Serif" font-size="10.00">benchmarkBasicVoice</text>
</a>
</g>
</g>
<!-- Node8&#45;&gt;Node10 -->
<g id="edge9" class="edge">
<title>Node8&#45;&gt;Node10</title>
<path fill="none" stroke="midnightblue" d="M364.66,-98C345.26,-98 323.94,-98 304.68,-98"/>
<polygon fill="midnightblue" stroke="midnightblue" points="364.92,-101.5 374.92,-98 364.92,-94.5 364.92,-101.5"/>
</g>
<!-- Node11 -->
<g id="node11" class="node">
<title>Node11</title>
<g id="a_node11"><a xlink:href="classvae_1_1_engine_pimpl.html#a277ff894edce0324148c68cb2d5785ea" target="_top" xlink:title="Creates an emitter and returns the handle.">
<polygon fill="none" stroke="black" points="174,-39 174,-69 312,-69 312,-39 174,-39"/>
<text text-anchor="start" x="182" y="-57" font-family="Helvetica,sans-Serif" font-size="10.00">vae::EnginePimpl::create</text>
<text text-anchor="middle" x="243" y="-46" font-family="Helvetica,sans-Serif" font-size="10.00">Emitter</text>
</a>
</g>
</g>
<!-- Node8&#45;&gt;Node11 -->
<g id="edge10" class="edge">
<title>Node8&#45;&gt;Node11</title>
<path fill="none" stroke="midnightblue" d="M364.97,-83.01C346.15,-78.49 325.5,-73.54 306.67,-69.03"/>
<polygon fill="midnightblue" stroke="midnightblue" points="364.38,-86.46 374.92,-85.39 366.01,-79.66 364.38,-86.46"/>
</g>
<!-- Node12 -->
<g id="node12" class="node">
<title>Node12</title>
<g id="a_node12"><a xlink:href="main_8cpp.html#afe1c3ff6204d9b675caf60b5545e3e54" target="_top" xlink:title=" ">
<polygon fill="none" stroke="black" points="213.5,-0.5 213.5,-19.5 272.5,-19.5 272.5,-0.5 213.5,-0.5"/>
<text text-anchor="middle" x="243" y="-7.5" font-family="Helvetica,sans-Serif" font-size="10.00">filterTest</text>
</a>
</g>
</g>
<!-- Node8&#45;&gt;Node12 -->
<g id="edge11" class="edge">
<title>Node8&#45;&gt;Node12</title>
<path fill="none" stroke="midnightblue" d="M397.8,-77.24C375.14,-62.17 342.7,-42.18 312,-29 299.5,-23.63 285.05,-19.35 272.7,-16.22"/>
<polygon fill="midnightblue" stroke="midnightblue" points="396.03,-80.27 406.28,-82.96 399.95,-74.47 396.03,-80.27"/>
</g>
<!-- Node13 -->
<g id="node13" class="node">
<title>Node13</title>
<g id="a_node13"><a xlink:href="main_8cpp.html#ae66f6b31b5ad750f1fe042a706a4e3d4" target="_top" xlink:title=" ">
<polygon fill="none" stroke="black" points="48.5,-0.5 48.5,-19.5 89.5,-19.5 89.5,-0.5 48.5,-0.5"/>
<text text-anchor="middle" x="69" y="-7.5" font-family="Helvetica,sans-Serif" font-size="10.00">main</text>
</a>
</g>
</g>
<!-- Node12&#45;&gt;Node13 -->
<g id="edge12" class="edge">
<title>Node12&#45;&gt;Node13</title>
<path fill="none" stroke="midnightblue" d="M202.8,-10C167.55,-10 117.23,-10 89.76,-10"/>
<polygon fill="midnightblue" stroke="midnightblue" points="203.21,-13.5 213.21,-10 203.21,-6.5 203.21,-13.5"/>
</g>
</g>
</svg>
