<?xml version="1.0" encoding="UTF-8" standalone="no"?>
<!DOCTYPE svg PUBLIC "-//W3C//DTD SVG 1.1//EN"
 "http://www.w3.org/Graphics/SVG/1.1/DTD/svg11.dtd">
<!-- Generated by graphviz version 2.50.0 (0)
 -->
<!-- Title: tklb::SectionTimer::current Pages: 1 -->
<svg width="398pt" height="186pt"
 viewBox="0.00 0.00 398.00 186.00" xmlns="http://www.w3.org/2000/svg" xmlns:xlink="http://www.w3.org/1999/xlink">
<g id="graph0" class="graph" transform="scale(1 1) rotate(0) translate(4 182)">
<title>tklb::SectionTimer::current</title>
<!-- Node1 -->
<g id="node1" class="node">
<title>Node1</title>
<g id="a_node1"><a xlink:title=" ">
<polygon fill="#bfbfbf" stroke="black" points="284,-73.5 284,-103.5 390,-103.5 390,-73.5 284,-73.5"/>
<text text-anchor="start" x="292" y="-91.5" font-family="Helvetica,sans-Serif" font-size="10.00">tklb::SectionTimer</text>
<text text-anchor="middle" x="337" y="-80.5" font-family="Helvetica,sans-Serif" font-size="10.00">::current</text>
</a>
</g>
</g>
<!-- Node2 -->
<g id="node2" class="node">
<title>Node2</title>
<g id="a_node2"><a xlink:href="classtklb_1_1_section_timer.html#aa3089817f9d0e6ceeeaa75cc8975966e" target="_top" xlink:title=" ">
<polygon fill="none" stroke="black" points="142,-147.5 142,-177.5 248,-177.5 248,-147.5 142,-147.5"/>
<text text-anchor="start" x="150" y="-165.5" font-family="Helvetica,sans-Serif" font-size="10.00">tklb::SectionTimer</text>
<text text-anchor="middle" x="195" y="-154.5" font-family="Helvetica,sans-Serif" font-size="10.00">::getMsSince</text>
</a>
</g>
</g>
<!-- Node1&#45;&gt;Node2 -->
<g id="edge1" class="edge">
<title>Node1&#45;&gt;Node2</title>
<path fill="none" stroke="midnightblue" d="M301.83,-108.8C285.68,-118.17 266.03,-129.24 248,-138.5 242.16,-141.5 235.88,-144.55 229.77,-147.42"/>
<polygon fill="midnightblue" stroke="midnightblue" points="304.02,-111.58 310.89,-103.51 300.49,-105.53 304.02,-111.58"/>
</g>
<!-- Node4 -->
<g id="node4" class="node">
<title>Node4</title>
<g id="a_node4"><a xlink:href="classtklb_1_1_section_timer.html#afc25a6ca081e21795f88d63a4a7aac7e" target="_top" xlink:title=" ">
<polygon fill="none" stroke="black" points="142,-98.5 142,-128.5 248,-128.5 248,-98.5 142,-98.5"/>
<text text-anchor="start" x="150" y="-116.5" font-family="Helvetica,sans-Serif" font-size="10.00">tklb::SectionTimer</text>
<text text-anchor="middle" x="195" y="-105.5" font-family="Helvetica,sans-Serif" font-size="10.00">::getNsSince</text>
</a>
</g>
</g>
<!-- Node1&#45;&gt;Node4 -->
<g id="edge3" class="edge">
<title>Node1&#45;&gt;Node4</title>
<path fill="none" stroke="midnightblue" d="M273.89,-99.59C265.31,-101.12 256.56,-102.69 248.17,-104.18"/>
<polygon fill="midnightblue" stroke="midnightblue" points="274.64,-103.01 283.87,-97.81 273.41,-96.12 274.64,-103.01"/>
</g>
<!-- Node5 -->
<g id="node5" class="node">
<title>Node5</title>
<g id="a_node5"><a xlink:href="classtklb_1_1_section_timer.html#aaafe709161f1a0b932b632bcdb0debd7" target="_top" xlink:title=" ">
<polygon fill="none" stroke="black" points="142,-49.5 142,-79.5 248,-79.5 248,-49.5 142,-49.5"/>
<text text-anchor="start" x="150" y="-67.5" font-family="Helvetica,sans-Serif" font-size="10.00">tklb::SectionTimer</text>
<text text-anchor="middle" x="195" y="-56.5" font-family="Helvetica,sans-Serif" font-size="10.00">::getUsSince</text>
</a>
</g>
</g>
<!-- Node1&#45;&gt;Node5 -->
<g id="edge5" class="edge">
<title>Node1&#45;&gt;Node5</title>
<path fill="none" stroke="midnightblue" d="M273.89,-77.85C265.31,-76.38 256.56,-74.88 248.17,-73.44"/>
<polygon fill="midnightblue" stroke="midnightblue" points="273.42,-81.32 283.87,-79.56 274.6,-74.42 273.42,-81.32"/>
</g>
<!-- Node6 -->
<g id="node6" class="node">
<title>Node6</title>
<g id="a_node6"><a xlink:href="classtklb_1_1_section_timer.html#abf83aa22efe897ea730614f10b9bf166" target="_top" xlink:title=" ">
<polygon fill="none" stroke="black" points="142,-0.5 142,-30.5 248,-30.5 248,-0.5 142,-0.5"/>
<text text-anchor="start" x="150" y="-18.5" font-family="Helvetica,sans-Serif" font-size="10.00">tklb::SectionTimer</text>
<text text-anchor="middle" x="195" y="-7.5" font-family="Helvetica,sans-Serif" font-size="10.00">::SectionTimer</text>
</a>
</g>
</g>
<!-- Node1&#45;&gt;Node6 -->
<g id="edge7" class="edge">
<title>Node1&#45;&gt;Node6</title>
<path fill="none" stroke="midnightblue" d="M300.26,-68.47C284.36,-59.69 265.35,-49.39 248,-40.5 241.58,-37.21 234.66,-33.79 228.03,-30.58"/>
<polygon fill="midnightblue" stroke="midnightblue" points="298.79,-71.65 309.23,-73.43 302.18,-65.53 298.79,-71.65"/>
</g>
<!-- Node3 -->
<g id="node3" class="node">
<title>Node3</title>
<g id="a_node3"><a xlink:href="classtklb_1_1_section_timer.html#a3b4e41ccadbf357893f0fc8406062d89" target="_top" xlink:title=" ">
<polygon fill="none" stroke="black" points="0,-98.5 0,-128.5 106,-128.5 106,-98.5 0,-98.5"/>
<text text-anchor="start" x="8" y="-116.5" font-family="Helvetica,sans-Serif" font-size="10.00">tklb::SectionTimer</text>
<text text-anchor="middle" x="53" y="-105.5" font-family="Helvetica,sans-Serif" font-size="10.00">::~SectionTimer</text>
</a>
</g>
</g>
<!-- Node2&#45;&gt;Node3 -->
<g id="edge2" class="edge">
<title>Node2&#45;&gt;Node3</title>
<path fill="none" stroke="midnightblue" d="M141.04,-143.96C126.58,-138.9 111.09,-133.48 97.25,-128.64"/>
<polygon fill="midnightblue" stroke="midnightblue" points="140.26,-147.4 150.85,-147.4 142.57,-140.79 140.26,-147.4"/>
</g>
<!-- Node4&#45;&gt;Node3 -->
<g id="edge4" class="edge">
<title>Node4&#45;&gt;Node3</title>
<path fill="none" stroke="midnightblue" d="M131.61,-113.5C123.12,-113.5 114.47,-113.5 106.17,-113.5"/>
<polygon fill="midnightblue" stroke="midnightblue" points="131.87,-117 141.87,-113.5 131.87,-110 131.87,-117"/>
</g>
<!-- Node5&#45;&gt;Node3 -->
<g id="edge6" class="edge">
<title>Node5&#45;&gt;Node3</title>
<path fill="none" stroke="midnightblue" d="M141.04,-83.04C126.58,-88.1 111.09,-93.52 97.25,-98.36"/>
<polygon fill="midnightblue" stroke="midnightblue" points="142.57,-86.21 150.85,-79.6 140.26,-79.6 142.57,-86.21"/>
</g>
</g>
</svg>
