<?xml version="1.0" encoding="UTF-8" standalone="no"?>
<!DOCTYPE svg PUBLIC "-//W3C//DTD SVG 1.1//EN"
 "http://www.w3.org/Graphics/SVG/1.1/DTD/svg11.dtd">
<!-- Generated by graphviz version 2.50.0 (0)
 -->
<!-- Title: tklb::AudioBufferTpl::getRaw Pages: 1 -->
<svg width="466pt" height="154pt"
 viewBox="0.00 0.00 466.00 153.50" xmlns="http://www.w3.org/2000/svg" xmlns:xlink="http://www.w3.org/1999/xlink">
<g id="graph0" class="graph" transform="scale(1 1) rotate(0) translate(4 149.5)">
<title>tklb::AudioBufferTpl::getRaw</title>
<!-- Node1 -->
<g id="node1" class="node">
<title>Node1</title>
<g id="a_node1"><a xlink:title="Fills an 2d array of size maxChannels() with pointers to each channel.">
<polygon fill="#bfbfbf" stroke="black" points="0,-101.5 0,-131.5 114,-131.5 114,-101.5 0,-101.5"/>
<text text-anchor="start" x="8" y="-119.5" font-family="Helvetica,sans-Serif" font-size="10.00">tklb::AudioBufferTpl</text>
<text text-anchor="middle" x="57" y="-108.5" font-family="Helvetica,sans-Serif" font-size="10.00">::getRaw</text>
</a>
</g>
</g>
<!-- Node2 -->
<g id="node2" class="node">
<title>Node2</title>
<g id="a_node2"><a xlink:href="classtklb_1_1_audio_buffer_tpl.html#aee0540e90ae2790f9a809917bc5a04fd" target="_top" xlink:title=" ">
<polygon fill="none" stroke="black" points="322,-126 322,-145 458,-145 458,-126 322,-126"/>
<text text-anchor="middle" x="390" y="-133" font-family="Helvetica,sans-Serif" font-size="10.00">tklb::AudioBufferTpl::get</text>
</a>
</g>
</g>
<!-- Node1&#45;&gt;Node2 -->
<g id="edge1" class="edge">
<title>Node1&#45;&gt;Node2</title>
<path fill="none" stroke="midnightblue" d="M114.15,-119.72C168.46,-122.84 251.21,-127.59 311.73,-131.06"/>
<polygon fill="midnightblue" stroke="midnightblue" points="311.81,-134.57 322,-131.65 312.21,-127.59 311.81,-134.57"/>
</g>
<!-- Node3 -->
<g id="node3" class="node">
<title>Node3</title>
<g id="a_node3"><a xlink:href="classtklb_1_1_audio_buffer_tpl.html#ad8dfcd5de2eff24076178f14474b4751" target="_top" xlink:title="Fill the provided array with the contents of this buffer.">
<polygon fill="none" stroke="black" points="150,-88 150,-107 286,-107 286,-88 150,-88"/>
<text text-anchor="middle" x="218" y="-95" font-family="Helvetica,sans-Serif" font-size="10.00">tklb::AudioBufferTpl::put</text>
</a>
</g>
</g>
<!-- Node1&#45;&gt;Node3 -->
<g id="edge2" class="edge">
<title>Node1&#45;&gt;Node3</title>
<path fill="none" stroke="midnightblue" d="M114.06,-109.8C122.35,-108.81 131.01,-107.78 139.64,-106.74"/>
<polygon fill="midnightblue" stroke="midnightblue" points="140.22,-110.2 149.73,-105.54 139.39,-103.25 140.22,-110.2"/>
</g>
<!-- Node3&#45;&gt;Node2 -->
<g id="edge4" class="edge">
<title>Node3&#45;&gt;Node2</title>
<path fill="none" stroke="midnightblue" d="M261.9,-107.09C284.53,-112.15 312.5,-118.4 336.43,-123.75"/>
<polygon fill="midnightblue" stroke="midnightblue" points="335.89,-127.21 346.41,-125.98 337.41,-120.38 335.89,-127.21"/>
</g>
<!-- Node4 -->
<g id="node4" class="node">
<title>Node4</title>
<g id="a_node4"><a xlink:href="namespacetklb_1_1memory.html#ab89ec197028f903f4ea125eae46c4a10" target="_top" xlink:title="memcpy wrapper">
<polygon fill="none" stroke="black" points="334,-88 334,-107 446,-107 446,-88 334,-88"/>
<text text-anchor="middle" x="390" y="-95" font-family="Helvetica,sans-Serif" font-size="10.00">tklb::memory::copy</text>
</a>
</g>
</g>
<!-- Node3&#45;&gt;Node4 -->
<g id="edge3" class="edge">
<title>Node3&#45;&gt;Node4</title>
<path fill="none" stroke="midnightblue" d="M286.19,-97.5C298.51,-97.5 311.36,-97.5 323.64,-97.5"/>
<polygon fill="midnightblue" stroke="midnightblue" points="323.78,-101 333.78,-97.5 323.78,-94 323.78,-101"/>
</g>
<!-- Node5 -->
<g id="node5" class="node">
<title>Node5</title>
<g id="a_node5"><a xlink:href="namespacetklb.html#a3080595da18d742645ec41d61828a426" target="_top" xlink:title=" ">
<polygon fill="none" stroke="black" points="360,-50 360,-69 420,-69 420,-50 360,-50"/>
<text text-anchor="middle" x="390" y="-57" font-family="Helvetica,sans-Serif" font-size="10.00">tklb::min</text>
</a>
</g>
</g>
<!-- Node3&#45;&gt;Node5 -->
<g id="edge5" class="edge">
<title>Node3&#45;&gt;Node5</title>
<path fill="none" stroke="midnightblue" d="M261.9,-87.91C288.9,-81.87 323.49,-74.14 349.77,-68.27"/>
<polygon fill="midnightblue" stroke="midnightblue" points="350.76,-71.63 359.76,-66.04 349.24,-64.8 350.76,-71.63"/>
</g>
<!-- Node6 -->
<g id="node6" class="node">
<title>Node6</title>
<g id="a_node6"><a xlink:href="classtklb_1_1_audio_buffer_tpl.html#a86cec40e8c99a90d93db996d92ddfece" target="_top" xlink:title="Returns the length of actually valid audio in the buffer.">
<polygon fill="none" stroke="black" points="333,-0.5 333,-30.5 447,-30.5 447,-0.5 333,-0.5"/>
<text text-anchor="start" x="341" y="-18.5" font-family="Helvetica,sans-Serif" font-size="10.00">tklb::AudioBufferTpl</text>
<text text-anchor="middle" x="390" y="-7.5" font-family="Helvetica,sans-Serif" font-size="10.00">::validSize</text>
</a>
</g>
</g>
<!-- Node3&#45;&gt;Node6 -->
<g id="edge6" class="edge">
<title>Node3&#45;&gt;Node6</title>
<path fill="none" stroke="midnightblue" d="M234.68,-87.86C254.55,-75.87 290.07,-55.2 322,-40.5 326.6,-38.38 331.44,-36.3 336.33,-34.3"/>
<polygon fill="midnightblue" stroke="midnightblue" points="337.72,-37.52 345.72,-30.57 335.14,-31.01 337.72,-37.52"/>
</g>
</g>
</svg>
