<?xml version="1.0" encoding="UTF-8" standalone="no"?>
<!DOCTYPE svg PUBLIC "-//W3C//DTD SVG 1.1//EN"
 "http://www.w3.org/Graphics/SVG/1.1/DTD/svg11.dtd">
<!-- Generated by graphviz version 2.50.0 (0)
 -->
<!-- Title: tklb::AudioBufferTpl::put Pages: 1 -->
<svg width="462pt" height="121pt"
 viewBox="0.00 0.00 462.00 120.50" xmlns="http://www.w3.org/2000/svg" xmlns:xlink="http://www.w3.org/1999/xlink">
<g id="graph0" class="graph" transform="scale(1 1) rotate(0) translate(4 116.5)">
<title>tklb::AudioBufferTpl::put</title>
<!-- Node1 -->
<g id="node1" class="node">
<title>Node1</title>
<g id="a_node1"><a xlink:title="Fill the provided array with the contents of this buffer.">
<polygon fill="#bfbfbf" stroke="black" points="318,-44.5 318,-63.5 454,-63.5 454,-44.5 318,-44.5"/>
<text text-anchor="middle" x="386" y="-51.5" font-family="Helvetica,sans-Serif" font-size="10.00">tklb::AudioBufferTpl::put</text>
</a>
</g>
</g>
<!-- Node2 -->
<g id="node2" class="node">
<title>Node2</title>
<g id="a_node2"><a xlink:href="classtklb_1_1_f_f_t_ooura.html#acd5e14dc5e02b37dc6fd9c817f1e4b95" target="_top" xlink:title="Frequency domain back to time domain.">
<polygon fill="none" stroke="black" points="156,-88.5 156,-107.5 272,-107.5 272,-88.5 156,-88.5"/>
<text text-anchor="middle" x="214" y="-95.5" font-family="Helvetica,sans-Serif" font-size="10.00">tklb::FFTOoura::back</text>
</a>
</g>
</g>
<!-- Node1&#45;&gt;Node2 -->
<g id="edge1" class="edge">
<title>Node1&#45;&gt;Node2</title>
<path fill="none" stroke="midnightblue" d="M338.4,-66.06C311.13,-73.12 277.2,-81.9 251.82,-88.47"/>
<polygon fill="midnightblue" stroke="midnightblue" points="339.31,-69.44 348.11,-63.55 337.55,-62.66 339.31,-69.44"/>
</g>
<!-- Node3 -->
<g id="node3" class="node">
<title>Node3</title>
<g id="a_node3"><a xlink:href="classtklb_1_1_audio_buffer_tpl.html#a97728ddd08f299f5965e4e4b519d3809" target="_top" xlink:title="Fills an 2d array of size maxChannels() with pointers to each channel.">
<polygon fill="none" stroke="black" points="157,-39 157,-69 271,-69 271,-39 157,-39"/>
<text text-anchor="start" x="165" y="-57" font-family="Helvetica,sans-Serif" font-size="10.00">tklb::AudioBufferTpl</text>
<text text-anchor="middle" x="214" y="-46" font-family="Helvetica,sans-Serif" font-size="10.00">::getRaw</text>
</a>
</g>
</g>
<!-- Node1&#45;&gt;Node3 -->
<g id="edge2" class="edge">
<title>Node1&#45;&gt;Node3</title>
<path fill="none" stroke="midnightblue" d="M307.54,-54C295.23,-54 282.71,-54 271.02,-54"/>
<polygon fill="midnightblue" stroke="midnightblue" points="307.81,-57.5 317.81,-54 307.81,-50.5 307.81,-57.5"/>
</g>
<!-- Node6 -->
<g id="node6" class="node">
<title>Node6</title>
<g id="a_node6"><a xlink:href="classtklb_1_1_audio_buffer_tpl.html#a4a38184ead33936e8d4ea6e58f457ba2" target="_top" xlink:title="Fill the provided 2D array with the contents of this buffer.">
<polygon fill="none" stroke="black" points="146,-0.5 146,-19.5 282,-19.5 282,-0.5 146,-0.5"/>
<text text-anchor="middle" x="214" y="-7.5" font-family="Helvetica,sans-Serif" font-size="10.00">tklb::AudioBufferTpl::put</text>
</a>
</g>
</g>
<!-- Node1&#45;&gt;Node6 -->
<g id="edge6" class="edge">
<title>Node1&#45;&gt;Node6</title>
<path fill="none" stroke="midnightblue" d="M338.4,-41.94C311.13,-34.88 277.2,-26.1 251.82,-19.53"/>
<polygon fill="midnightblue" stroke="midnightblue" points="337.55,-45.34 348.11,-44.45 339.31,-38.56 337.55,-45.34"/>
</g>
<!-- Node4 -->
<g id="node4" class="node">
<title>Node4</title>
<g id="a_node4"><a xlink:href="classtklb_1_1_oversampler.html#a938eddcfffbe34cbb91eca96c35693b4" target="_top" xlink:title=" ">
<polygon fill="none" stroke="black" points="0,-64 0,-94 110,-94 110,-64 0,-64"/>
<text text-anchor="start" x="8" y="-82" font-family="Helvetica,sans-Serif" font-size="10.00">tklb::Oversampler::</text>
<text text-anchor="middle" x="55" y="-71" font-family="Helvetica,sans-Serif" font-size="10.00">process</text>
</a>
</g>
</g>
<!-- Node3&#45;&gt;Node4 -->
<g id="edge3" class="edge">
<title>Node3&#45;&gt;Node4</title>
<path fill="none" stroke="midnightblue" d="M146.63,-64.57C134.41,-66.51 121.8,-68.52 110.01,-70.4"/>
<polygon fill="midnightblue" stroke="midnightblue" points="147.44,-67.98 156.76,-62.95 146.34,-61.07 147.44,-67.98"/>
</g>
<!-- Node5 -->
<g id="node5" class="node">
<title>Node5</title>
<g id="a_node5"><a xlink:href="classvae_1_1core_1_1effect_1_1_faust_base.html#a70f2dc6cc7c3fd4f740c0e5017389434" target="_top" xlink:title=" ">
<polygon fill="none" stroke="black" points="0.5,-15 0.5,-45 109.5,-45 109.5,-15 0.5,-15"/>
<text text-anchor="start" x="8.5" y="-33" font-family="Helvetica,sans-Serif" font-size="10.00">vae::core::effect::</text>
<text text-anchor="middle" x="55" y="-22" font-family="Helvetica,sans-Serif" font-size="10.00">FaustBase::process</text>
</a>
</g>
</g>
<!-- Node3&#45;&gt;Node5 -->
<g id="edge5" class="edge">
<title>Node3&#45;&gt;Node5</title>
<path fill="none" stroke="midnightblue" d="M146.57,-43.84C134.28,-41.97 121.59,-40.03 109.74,-38.22"/>
<polygon fill="midnightblue" stroke="midnightblue" points="146.35,-47.35 156.76,-45.4 147.41,-40.43 146.35,-47.35"/>
</g>
<!-- Node4&#45;&gt;Node4 -->
<g id="edge4" class="edge">
<title>Node4&#45;&gt;Node4</title>
<path fill="none" stroke="midnightblue" d="M83.07,-104.46C79.59,-109.18 70.23,-112.5 55,-112.5 30,-112.5 20.83,-103.56 27.47,-94.16"/>
<polygon fill="midnightblue" stroke="midnightblue" points="86.55,-103.96 82.53,-94.16 79.56,-104.33 86.55,-103.96"/>
</g>
</g>
</svg>
