<?xml version="1.0" encoding="UTF-8" standalone="no"?>
<!DOCTYPE svg PUBLIC "-//W3C//DTD SVG 1.1//EN"
 "http://www.w3.org/Graphics/SVG/1.1/DTD/svg11.dtd">
<!-- Generated by graphviz version 2.50.0 (0)
 -->
<!-- Title: tklb::HeapBuffer::closestChunkSize Pages: 1 -->
<svg width="700pt" height="449pt"
 viewBox="0.00 0.00 700.00 449.00" xmlns="http://www.w3.org/2000/svg" xmlns:xlink="http://www.w3.org/1999/xlink">
<g id="graph0" class="graph" transform="scale(1 1) rotate(0) translate(4 445)">
<title>tklb::HeapBuffer::closestChunkSize</title>
<!-- Node1 -->
<g id="node1" class="node">
<title>Node1</title>
<g id="a_node1"><a xlink:title=" ">
<polygon fill="#bfbfbf" stroke="black" points="555,-268.5 555,-298.5 692,-298.5 692,-268.5 555,-268.5"/>
<text text-anchor="start" x="563" y="-286.5" font-family="Helvetica,sans-Serif" font-size="10.00">tklb::HeapBuffer::closest</text>
<text text-anchor="middle" x="623.5" y="-275.5" font-family="Helvetica,sans-Serif" font-size="10.00">ChunkSize</text>
</a>
</g>
</g>
<!-- Node2 -->
<g id="node2" class="node">
<title>Node2</title>
<g id="a_node2"><a xlink:href="classtklb_1_1_heap_buffer.html#a4cde91bbb793df74ff45d47398d478ad" target="_top" xlink:title="Push the object to the back of the buffer TODO tklb move version.">
<polygon fill="none" stroke="black" points="390,-378 390,-397 516,-397 516,-378 390,-378"/>
<text text-anchor="middle" x="453" y="-385" font-family="Helvetica,sans-Serif" font-size="10.00">tklb::HeapBuffer::push</text>
</a>
</g>
</g>
<!-- Node1&#45;&gt;Node2 -->
<g id="edge1" class="edge">
<title>Node1&#45;&gt;Node2</title>
<path fill="none" stroke="midnightblue" d="M589.25,-304.03C552.98,-326.41 496.52,-361.26 469.47,-377.95"/>
<polygon fill="midnightblue" stroke="midnightblue" points="591.33,-306.85 598,-298.62 587.65,-300.9 591.33,-306.85"/>
</g>
<!-- Node6 -->
<g id="node6" class="node">
<title>Node6</title>
<g id="a_node6"><a xlink:href="classtklb_1_1_heap_buffer.html#aea890defe7d21d9273e005464b04f784" target="_top" xlink:title="Resize the buffer If the memory is borrowed it will become unique and owned by this instance as soon ...">
<polygon fill="none" stroke="black" points="387,-192 387,-211 519,-211 519,-192 387,-192"/>
<text text-anchor="middle" x="453" y="-199" font-family="Helvetica,sans-Serif" font-size="10.00">tklb::HeapBuffer::resize</text>
</a>
</g>
</g>
<!-- Node1&#45;&gt;Node6 -->
<g id="edge5" class="edge">
<title>Node1&#45;&gt;Node6</title>
<path fill="none" stroke="midnightblue" d="M582.31,-263.94C548.02,-247.25 500.17,-223.97 473.65,-211.06"/>
<polygon fill="midnightblue" stroke="midnightblue" points="581.07,-267.23 591.59,-268.46 584.13,-260.94 581.07,-267.23"/>
</g>
<!-- Node3 -->
<g id="node3" class="node">
<title>Node3</title>
<g id="a_node3"><a xlink:href="classtklb_1_1_event_bus.html#a2d0bbc8013b6d7ea8ce782a95328f6f9" target="_top" xlink:title=" ">
<polygon fill="none" stroke="black" points="189,-416 189,-435 351,-435 351,-416 189,-416"/>
<text text-anchor="middle" x="270" y="-423" font-family="Helvetica,sans-Serif" font-size="10.00">tklb::EventBus::addSubscriber</text>
</a>
</g>
</g>
<!-- Node2&#45;&gt;Node3 -->
<g id="edge2" class="edge">
<title>Node2&#45;&gt;Node3</title>
<path fill="none" stroke="midnightblue" d="M396.36,-399.18C370.69,-404.57 340.61,-410.89 316.35,-415.98"/>
<polygon fill="midnightblue" stroke="midnightblue" points="397.26,-402.57 406.33,-397.09 395.82,-395.72 397.26,-402.57"/>
</g>
<!-- Node5 -->
<g id="node5" class="node">
<title>Node5</title>
<g id="a_node5"><a xlink:href="string_8cpp.html#ae66f6b31b5ad750f1fe042a706a4e3d4" target="_top" xlink:title=" ">
<polygon fill="none" stroke="black" points="249.5,-378 249.5,-397 290.5,-397 290.5,-378 249.5,-378"/>
<text text-anchor="middle" x="270" y="-385" font-family="Helvetica,sans-Serif" font-size="10.00">main</text>
</a>
</g>
</g>
<!-- Node2&#45;&gt;Node5 -->
<g id="edge4" class="edge">
<title>Node2&#45;&gt;Node5</title>
<path fill="none" stroke="midnightblue" d="M379.67,-387.5C347.57,-387.5 312.29,-387.5 290.9,-387.5"/>
<polygon fill="midnightblue" stroke="midnightblue" points="379.96,-391 389.96,-387.5 379.96,-384 379.96,-391"/>
</g>
<!-- Node4 -->
<g id="node4" class="node">
<title>Node4</title>
<g id="a_node4"><a xlink:href="classtklb_1_1_event_bus_1_1_subscription.html#a2d207145c91831a84c72acf78f4d7657" target="_top" xlink:title=" ">
<polygon fill="none" stroke="black" points="0,-410.5 0,-440.5 153,-440.5 153,-410.5 0,-410.5"/>
<text text-anchor="start" x="8" y="-428.5" font-family="Helvetica,sans-Serif" font-size="10.00">tklb::EventBus::Subscription</text>
<text text-anchor="middle" x="76.5" y="-417.5" font-family="Helvetica,sans-Serif" font-size="10.00">::Subscription</text>
</a>
</g>
</g>
<!-- Node3&#45;&gt;Node4 -->
<g id="edge3" class="edge">
<title>Node3&#45;&gt;Node4</title>
<path fill="none" stroke="midnightblue" d="M178.89,-425.5C170.33,-425.5 161.71,-425.5 153.3,-425.5"/>
<polygon fill="midnightblue" stroke="midnightblue" points="178.9,-429 188.9,-425.5 178.9,-422 178.9,-429"/>
</g>
<!-- Node7 -->
<g id="node7" class="node">
<title>Node7</title>
<g id="a_node7"><a xlink:href="classtklb_1_1_heap_buffer.html#ac595de86ab0e2f33c79034b9e64db0a8" target="_top" xlink:title="Clears the buffer but doesn&#39;t free the memory.">
<polygon fill="none" stroke="black" points="206.5,-340 206.5,-359 333.5,-359 333.5,-340 206.5,-340"/>
<text text-anchor="middle" x="270" y="-347" font-family="Helvetica,sans-Serif" font-size="10.00">tklb::HeapBuffer::clear</text>
</a>
</g>
</g>
<!-- Node6&#45;&gt;Node7 -->
<g id="edge6" class="edge">
<title>Node6&#45;&gt;Node7</title>
<path fill="none" stroke="midnightblue" d="M442.63,-220.33C427.45,-248.81 394.73,-302.48 351,-330.5 344.99,-334.35 338.28,-337.42 331.36,-339.87"/>
<polygon fill="midnightblue" stroke="midnightblue" points="445.94,-221.56 447.42,-211.07 439.72,-218.35 445.94,-221.56"/>
</g>
<!-- Node8 -->
<g id="node8" class="node">
<title>Node8</title>
<g id="a_node8"><a xlink:href="classtklb_1_1_heap_buffer.html#a7f018ade21d320cf220186a52e256b93" target="_top" xlink:title="If T is a pointer type, delete will be called for all pointers in buffer and resize(0) is called.">
<polygon fill="none" stroke="black" points="200,-290.5 200,-320.5 340,-320.5 340,-290.5 200,-290.5"/>
<text text-anchor="start" x="208" y="-308.5" font-family="Helvetica,sans-Serif" font-size="10.00">tklb::HeapBuffer::destroy</text>
<text text-anchor="middle" x="270" y="-297.5" font-family="Helvetica,sans-Serif" font-size="10.00">Pointers</text>
</a>
</g>
</g>
<!-- Node6&#45;&gt;Node8 -->
<g id="edge7" class="edge">
<title>Node6&#45;&gt;Node8</title>
<path fill="none" stroke="midnightblue" d="M434.94,-218.04C415.88,-235.71 383.43,-263.48 351,-280.5 343.78,-284.29 335.9,-287.61 327.98,-290.5"/>
<polygon fill="midnightblue" stroke="midnightblue" points="437.38,-220.55 442.25,-211.14 432.58,-215.46 437.38,-220.55"/>
</g>
<!-- Node9 -->
<g id="node9" class="node">
<title>Node9</title>
<g id="a_node9"><a xlink:href="classtklb_1_1_heap_buffer.html#a219e440c13837426f4a9f03e12ad769e" target="_top" xlink:title="Setup the buffer with a size.">
<polygon fill="none" stroke="black" points="191,-252 191,-271 349,-271 349,-252 191,-252"/>
<text text-anchor="middle" x="270" y="-259" font-family="Helvetica,sans-Serif" font-size="10.00">tklb::HeapBuffer::HeapBuffer</text>
</a>
</g>
</g>
<!-- Node6&#45;&gt;Node9 -->
<g id="edge8" class="edge">
<title>Node6&#45;&gt;Node9</title>
<path fill="none" stroke="midnightblue" d="M421.64,-215.24C401.82,-223.86 375.21,-234.76 351,-242.5 339.99,-246.02 327.93,-249.22 316.6,-251.94"/>
<polygon fill="midnightblue" stroke="midnightblue" points="423.32,-218.32 431.07,-211.09 420.5,-211.92 423.32,-218.32"/>
</g>
<!-- Node10 -->
<g id="node10" class="node">
<title>Node10</title>
<g id="a_node10"><a xlink:href="classtklb_1_1_heap_buffer.html#aedbbae6aeac4dab858a9734d7c02d240" target="_top" xlink:title="Provide foreign memory to borrow.">
<polygon fill="none" stroke="black" points="205,-214 205,-233 335,-233 335,-214 205,-214"/>
<text text-anchor="middle" x="270" y="-221" font-family="Helvetica,sans-Serif" font-size="10.00">tklb::HeapBuffer::inject</text>
</a>
</g>
</g>
<!-- Node6&#45;&gt;Node10 -->
<g id="edge9" class="edge">
<title>Node6&#45;&gt;Node10</title>
<path fill="none" stroke="midnightblue" d="M376.93,-210.62C363.07,-212.31 348.71,-214.05 335.21,-215.7"/>
<polygon fill="midnightblue" stroke="midnightblue" points="377.41,-214.09 386.91,-209.41 376.56,-207.14 377.41,-214.09"/>
</g>
<!-- Node12 -->
<g id="node12" class="node">
<title>Node12</title>
<g id="a_node12"><a xlink:href="classtklb_1_1_convolver_mono_tpl.html#a67f9498b46370c1a273b47ccc4863e21" target="_top" xlink:title="Load a impulse response and prepare the convolution.">
<polygon fill="none" stroke="black" points="204,-164.5 204,-194.5 336,-194.5 336,-164.5 204,-164.5"/>
<text text-anchor="start" x="212" y="-182.5" font-family="Helvetica,sans-Serif" font-size="10.00">tklb::ConvolverMonoTpl</text>
<text text-anchor="middle" x="270" y="-171.5" font-family="Helvetica,sans-Serif" font-size="10.00">::load</text>
</a>
</g>
</g>
<!-- Node6&#45;&gt;Node12 -->
<g id="edge11" class="edge">
<title>Node6&#45;&gt;Node12</title>
<path fill="none" stroke="midnightblue" d="M376.71,-192.35C363.23,-190.71 349.29,-189.02 336.12,-187.42"/>
<polygon fill="midnightblue" stroke="midnightblue" points="376.56,-195.86 386.91,-193.59 377.41,-188.91 376.56,-195.86"/>
</g>
<!-- Node13 -->
<g id="node13" class="node">
<title>Node13</title>
<g id="a_node13"><a xlink:href="namespacetklb_1_1ogg.html#a8a0c549ee31780a868d551ff5536c71e" target="_top" xlink:title="Decode ogg/vorbis from memory or file path.">
<polygon fill="none" stroke="black" points="227,-126 227,-145 313,-145 313,-126 227,-126"/>
<text text-anchor="middle" x="270" y="-133" font-family="Helvetica,sans-Serif" font-size="10.00">tklb::ogg::load</text>
</a>
</g>
</g>
<!-- Node6&#45;&gt;Node13 -->
<g id="edge12" class="edge">
<title>Node6&#45;&gt;Node13</title>
<path fill="none" stroke="midnightblue" d="M424.67,-187.4C404.66,-177.49 376.64,-164.46 351,-155.5 338.97,-151.3 325.64,-147.6 313.36,-144.56"/>
<polygon fill="midnightblue" stroke="midnightblue" points="423.29,-190.63 433.8,-191.99 426.43,-184.37 423.29,-190.63"/>
</g>
<!-- Node14 -->
<g id="node14" class="node">
<title>Node14</title>
<g id="a_node14"><a xlink:href="namespacetklb_1_1wave.html#aa283efa758de590bb8f167e32a1ba2a5" target="_top" xlink:title="Decode wav from memory or file path.">
<polygon fill="none" stroke="black" points="222.5,-88 222.5,-107 317.5,-107 317.5,-88 222.5,-88"/>
<text text-anchor="middle" x="270" y="-95" font-family="Helvetica,sans-Serif" font-size="10.00">tklb::wave::load</text>
</a>
</g>
</g>
<!-- Node6&#45;&gt;Node14 -->
<g id="edge13" class="edge">
<title>Node6&#45;&gt;Node14</title>
<path fill="none" stroke="midnightblue" d="M436.59,-184.41C418.14,-165.01 385.39,-133.81 351,-116.5 340.67,-111.3 328.87,-107.49 317.56,-104.71"/>
<polygon fill="midnightblue" stroke="midnightblue" points="434.21,-186.99 443.59,-191.93 439.34,-182.22 434.21,-186.99"/>
</g>
<!-- Node15 -->
<g id="node15" class="node">
<title>Node15</title>
<g id="a_node15"><a xlink:href="classtklb_1_1_heap_buffer.html#a7a9a54468dbd1fe9b3dbf02fa2b574b4" target="_top" xlink:title="Set data from array.">
<polygon fill="none" stroke="black" points="211,-50 211,-69 329,-69 329,-50 211,-50"/>
<text text-anchor="middle" x="270" y="-57" font-family="Helvetica,sans-Serif" font-size="10.00">tklb::HeapBuffer::set</text>
</a>
</g>
</g>
<!-- Node6&#45;&gt;Node15 -->
<g id="edge14" class="edge">
<title>Node6&#45;&gt;Node15</title>
<path fill="none" stroke="midnightblue" d="M441.94,-182.74C426.27,-155.4 393.37,-104.96 351,-78.5 344.34,-74.34 336.85,-71.09 329.19,-68.55"/>
<polygon fill="midnightblue" stroke="midnightblue" points="439,-184.65 446.92,-191.69 445.12,-181.25 439,-184.65"/>
</g>
<!-- Node16 -->
<g id="node16" class="node">
<title>Node16</title>
<g id="a_node16"><a xlink:href="classtklb_1_1_heap_buffer.html#a833c723b6838bb28f7b6886d6df8b65c" target="_top" xlink:title=" ">
<polygon fill="none" stroke="black" points="218.5,-0.5 218.5,-30.5 321.5,-30.5 321.5,-0.5 218.5,-0.5"/>
<text text-anchor="start" x="226.5" y="-18.5" font-family="Helvetica,sans-Serif" font-size="10.00">tklb::HeapBuffer::</text>
<text text-anchor="middle" x="270" y="-7.5" font-family="Helvetica,sans-Serif" font-size="10.00">~HeapBuffer</text>
</a>
</g>
</g>
<!-- Node6&#45;&gt;Node16 -->
<g id="edge15" class="edge">
<title>Node6&#45;&gt;Node16</title>
<path fill="none" stroke="midnightblue" d="M445.12,-182.28C432.07,-148.55 400.52,-78.67 351,-40.5 342.47,-33.93 332.19,-29.06 321.88,-25.47"/>
<polygon fill="midnightblue" stroke="midnightblue" points="441.92,-183.73 448.7,-191.87 448.48,-181.28 441.92,-183.73"/>
</g>
<!-- Node11 -->
<g id="node11" class="node">
<title>Node11</title>
<g id="a_node11"><a xlink:href="classtklb_1_1_heap_buffer.html#a320950100dd32e8bbf4f5118f41c4533" target="_top" xlink:title="Provide const foreign memory to use Using non const accessors will cause assertions in debug mode.">
<polygon fill="none" stroke="black" points="11.5,-214 11.5,-233 141.5,-233 141.5,-214 11.5,-214"/>
<text text-anchor="middle" x="76.5" y="-221" font-family="Helvetica,sans-Serif" font-size="10.00">tklb::HeapBuffer::inject</text>
</a>
</g>
</g>
<!-- Node10&#45;&gt;Node11 -->
<g id="edge10" class="edge">
<title>Node10&#45;&gt;Node11</title>
<path fill="none" stroke="midnightblue" d="M194.8,-223.5C177.31,-223.5 158.81,-223.5 141.8,-223.5"/>
<polygon fill="midnightblue" stroke="midnightblue" points="194.97,-227 204.97,-223.5 194.97,-220 194.97,-227"/>
</g>
</g>
</svg>
