<?xml version="1.0" encoding="UTF-8" standalone="no"?>
<!DOCTYPE svg PUBLIC "-//W3C//DTD SVG 1.1//EN"
 "http://www.w3.org/Graphics/SVG/1.1/DTD/svg11.dtd">
<!-- Generated by graphviz version 2.50.0 (0)
 -->
<!-- Title: vae::core::VoiceManger::stopVoice Pages: 1 -->
<svg width="1319pt" height="404pt"
 viewBox="0.00 0.00 1319.00 404.05" xmlns="http://www.w3.org/2000/svg" xmlns:xlink="http://www.w3.org/1999/xlink">
<g id="graph0" class="graph" transform="scale(1 1) rotate(0) translate(4 400.05)">
<title>vae::core::VoiceManger::stopVoice</title>
<!-- Node1 -->
<g id="node1" class="node">
<title>Node1</title>
<g id="a_node1"><a xlink:title="Stops a voice.">
<polygon fill="#bfbfbf" stroke="black" points="1182,-150.05 1182,-180.05 1311,-180.05 1311,-150.05 1182,-150.05"/>
<text text-anchor="start" x="1190" y="-168.05" font-family="Helvetica,sans-Serif" font-size="10.00">vae::core::VoiceManger</text>
<text text-anchor="middle" x="1246.5" y="-157.05" font-family="Helvetica,sans-Serif" font-size="10.00">::stopVoice</text>
</a>
</g>
</g>
<!-- Node2 -->
<g id="node2" class="node">
<title>Node2</title>
<g id="a_node2"><a xlink:href="classvae_1_1core_1_1_voice_manger.html#a9df59537b8863e7f8add0eb11553942a" target="_top" xlink:title="Callback provided to iterate voices, needs to return a bool to indicate when a voice needs to be stop...">
<polygon fill="none" stroke="black" points="852,-308.05 852,-338.05 981,-338.05 981,-308.05 852,-308.05"/>
<text text-anchor="start" x="860" y="-326.05" font-family="Helvetica,sans-Serif" font-size="10.00">vae::core::VoiceManger</text>
<text text-anchor="middle" x="916.5" y="-315.05" font-family="Helvetica,sans-Serif" font-size="10.00">::forEachVoice</text>
</a>
</g>
</g>
<!-- Node1&#45;&gt;Node2 -->
<g id="edge1" class="edge">
<title>Node1&#45;&gt;Node2</title>
<path fill="none" stroke="midnightblue" d="M1228.18,-188.4C1210.13,-211.07 1179.8,-244.8 1146,-264.05 1094.74,-293.25 1028.84,-308.27 981,-315.82"/>
<polygon fill="midnightblue" stroke="midnightblue" points="1231.1,-190.35 1234.48,-180.31 1225.57,-186.05 1231.1,-190.35"/>
</g>
<!-- Node11 -->
<g id="node11" class="node">
<title>Node11</title>
<g id="a_node11"><a xlink:href="classvae_1_1core_1_1_voice_manger.html#a5e6b281c17ccd9924c7d52bc7b2c986b" target="_top" xlink:title="Stop all voice from a emitter.">
<polygon fill="none" stroke="black" points="1017,-224.05 1017,-254.05 1146,-254.05 1146,-224.05 1017,-224.05"/>
<text text-anchor="start" x="1025" y="-242.05" font-family="Helvetica,sans-Serif" font-size="10.00">vae::core::VoiceManger</text>
<text text-anchor="middle" x="1081.5" y="-231.05" font-family="Helvetica,sans-Serif" font-size="10.00">::stopEmitter</text>
</a>
</g>
</g>
<!-- Node1&#45;&gt;Node11 -->
<g id="edge14" class="edge">
<title>Node1&#45;&gt;Node11</title>
<path fill="none" stroke="midnightblue" d="M1207.67,-184.6C1189.24,-193.88 1166.64,-204.92 1146,-214.05 1138.41,-217.4 1130.23,-220.79 1122.34,-223.95"/>
<polygon fill="midnightblue" stroke="midnightblue" points="1209.29,-187.7 1216.63,-180.05 1206.13,-181.45 1209.29,-187.7"/>
</g>
<!-- Node16 -->
<g id="node16" class="node">
<title>Node16</title>
<g id="a_node16"><a xlink:href="classvae_1_1core_1_1_voice_manger.html#ae03a6c084583b2f871a3f4353e8f5cfa" target="_top" xlink:title=" ">
<polygon fill="none" stroke="black" points="1017,-28.05 1017,-58.05 1146,-58.05 1146,-28.05 1017,-28.05"/>
<text text-anchor="start" x="1025" y="-46.05" font-family="Helvetica,sans-Serif" font-size="10.00">vae::core::VoiceManger</text>
<text text-anchor="middle" x="1081.5" y="-35.05" font-family="Helvetica,sans-Serif" font-size="10.00">::stopFromBank</text>
</a>
</g>
</g>
<!-- Node1&#45;&gt;Node16 -->
<g id="edge19" class="edge">
<title>Node1&#45;&gt;Node16</title>
<path fill="none" stroke="midnightblue" d="M1227.05,-141.98C1208.54,-120.13 1178.23,-87.69 1146,-67.05 1140.84,-63.75 1135.15,-60.79 1129.37,-58.19"/>
<polygon fill="midnightblue" stroke="midnightblue" points="1224.45,-144.33 1233.54,-149.78 1229.84,-139.86 1224.45,-144.33"/>
</g>
<!-- Node19 -->
<g id="node19" class="node">
<title>Node19</title>
<g id="a_node19"><a xlink:href="classvae_1_1core_1_1_voice_manger.html#a0f68bf12dcd5218ed0d597fcf94daeb5" target="_top" xlink:title="Stops all voice triggered from event.">
<polygon fill="none" stroke="black" points="1017,-175.05 1017,-205.05 1146,-205.05 1146,-175.05 1017,-175.05"/>
<text text-anchor="start" x="1025" y="-193.05" font-family="Helvetica,sans-Serif" font-size="10.00">vae::core::VoiceManger</text>
<text text-anchor="middle" x="1081.5" y="-182.05" font-family="Helvetica,sans-Serif" font-size="10.00">::stopFromEvent</text>
</a>
</g>
</g>
<!-- Node1&#45;&gt;Node19 -->
<g id="edge23" class="edge">
<title>Node1&#45;&gt;Node19</title>
<path fill="none" stroke="midnightblue" d="M1171.59,-176.39C1163.05,-177.7 1154.39,-179.02 1146,-180.31"/>
<polygon fill="midnightblue" stroke="midnightblue" points="1172.19,-179.83 1181.55,-174.86 1171.13,-172.92 1172.19,-179.83"/>
</g>
<!-- Node28 -->
<g id="node28" class="node">
<title>Node28</title>
<g id="a_node28"><a xlink:href="classvae_1_1core_1_1_voice_manger.html#a9e77e56a773f3b2f6a90209a16aba07c" target="_top" xlink:title="Kills all voices in mixer channel.">
<polygon fill="none" stroke="black" points="1017,-126.05 1017,-156.05 1146,-156.05 1146,-126.05 1017,-126.05"/>
<text text-anchor="start" x="1025" y="-144.05" font-family="Helvetica,sans-Serif" font-size="10.00">vae::core::VoiceManger</text>
<text text-anchor="middle" x="1081.5" y="-133.05" font-family="Helvetica,sans-Serif" font-size="10.00">::stopFromMixer</text>
</a>
</g>
</g>
<!-- Node1&#45;&gt;Node28 -->
<g id="edge36" class="edge">
<title>Node1&#45;&gt;Node28</title>
<path fill="none" stroke="midnightblue" d="M1171.59,-154.17C1163.05,-152.91 1154.39,-151.64 1146,-150.4"/>
<polygon fill="midnightblue" stroke="midnightblue" points="1171.14,-157.64 1181.55,-155.63 1172.16,-150.71 1171.14,-157.64"/>
</g>
<!-- Node29 -->
<g id="node29" class="node">
<title>Node29</title>
<g id="a_node29"><a xlink:href="classvae_1_1core_1_1_voice_manger.html#ab4d6480e9ee2c5bc1283f85255740854" target="_top" xlink:title="Stop every voice started from a source and emitter if provided.">
<polygon fill="none" stroke="black" points="1017,-77.05 1017,-107.05 1146,-107.05 1146,-77.05 1017,-77.05"/>
<text text-anchor="start" x="1025" y="-95.05" font-family="Helvetica,sans-Serif" font-size="10.00">vae::core::VoiceManger</text>
<text text-anchor="middle" x="1081.5" y="-84.05" font-family="Helvetica,sans-Serif" font-size="10.00">::stopFromSource</text>
</a>
</g>
</g>
<!-- Node1&#45;&gt;Node29 -->
<g id="edge38" class="edge">
<title>Node1&#45;&gt;Node29</title>
<path fill="none" stroke="midnightblue" d="M1207.72,-145.38C1189.3,-136.06 1166.7,-125.03 1146,-116.05 1138.97,-113 1131.42,-109.95 1124.06,-107.1"/>
<polygon fill="midnightblue" stroke="midnightblue" points="1206.18,-148.52 1216.68,-149.94 1209.35,-142.28 1206.18,-148.52"/>
</g>
<!-- Node3 -->
<g id="node3" class="node">
<title>Node3</title>
<g id="a_node3"><a xlink:href="structvae_1_1core_1_1_processor.html#a3ad452ff4deb16a37907fd5fd6390f85" target="_top" xlink:title="Process a single bank.">
<polygon fill="none" stroke="black" points="659.5,-358.55 659.5,-377.55 799.5,-377.55 799.5,-358.55 659.5,-358.55"/>
<text text-anchor="middle" x="729.5" y="-365.55" font-family="Helvetica,sans-Serif" font-size="10.00">vae::core::Processor::mix</text>
</a>
</g>
</g>
<!-- Node2&#45;&gt;Node3 -->
<g id="edge2" class="edge">
<title>Node2&#45;&gt;Node3</title>
<path fill="none" stroke="midnightblue" d="M849.77,-340.59C838.52,-343.49 826.94,-346.41 816,-349.05 802.7,-352.27 788.18,-355.57 774.95,-358.5"/>
<polygon fill="midnightblue" stroke="midnightblue" points="850.75,-343.95 859.55,-338.06 848.99,-337.18 850.75,-343.95"/>
</g>
<!-- Node10 -->
<g id="node10" class="node">
<title>Node10</title>
<g id="a_node10"><a xlink:href="classvae_1_1core_1_1_spatial_processor.html#a9acbf42573db468c02381dadb81f3fcd" target="_top" xlink:title="Process a single bank.">
<polygon fill="none" stroke="black" points="643,-302.55 643,-321.55 816,-321.55 816,-302.55 643,-302.55"/>
<text text-anchor="middle" x="729.5" y="-309.55" font-family="Helvetica,sans-Serif" font-size="10.00">vae::core::SpatialProcessor::mix</text>
</a>
</g>
</g>
<!-- Node2&#45;&gt;Node10 -->
<g id="edge11" class="edge">
<title>Node2&#45;&gt;Node10</title>
<path fill="none" stroke="midnightblue" d="M841.72,-318.66C833.32,-318.16 824.71,-317.65 816.18,-317.14"/>
<polygon fill="midnightblue" stroke="midnightblue" points="841.64,-322.16 851.83,-319.26 842.06,-315.18 841.64,-322.16"/>
</g>
<!-- Node3&#45;&gt;Node3 -->
<g id="edge3" class="edge">
<title>Node3&#45;&gt;Node3</title>
<path fill="none" stroke="midnightblue" d="M764.36,-385.94C763.85,-391.59 752.23,-396.05 729.5,-396.05 696.44,-396.05 686.89,-386.62 700.83,-377.81"/>
<polygon fill="midnightblue" stroke="midnightblue" points="767.01,-383.65 758.17,-377.81 761.44,-387.88 767.01,-383.65"/>
</g>
<!-- Node4 -->
<g id="node4" class="node">
<title>Node4</title>
<g id="a_node4"><a xlink:href="classvae_1_1core_1_1_engine.html#afecf53f2eaf92d13a933c05c821b3819" target="_top" xlink:title="Main processing function.">
<polygon fill="none" stroke="black" points="476,-253.05 476,-283.05 583,-283.05 583,-253.05 476,-253.05"/>
<text text-anchor="start" x="484" y="-271.05" font-family="Helvetica,sans-Serif" font-size="10.00">vae::core::Engine::</text>
<text text-anchor="middle" x="529.5" y="-260.05" font-family="Helvetica,sans-Serif" font-size="10.00">process</text>
</a>
</g>
</g>
<!-- Node3&#45;&gt;Node4 -->
<g id="edge4" class="edge">
<title>Node3&#45;&gt;Node4</title>
<path fill="none" stroke="midnightblue" d="M660.77,-355.71C654.66,-353.79 648.65,-351.58 643,-349.05 605.44,-332.22 567.87,-301.73 547.05,-283.34"/>
<polygon fill="midnightblue" stroke="midnightblue" points="659.86,-359.09 670.44,-358.5 661.8,-352.36 659.86,-359.09"/>
</g>
<!-- Node5 -->
<g id="node5" class="node">
<title>Node5</title>
<g id="a_node5"><a xlink:href="classvae_1_1core_1_1_engine.html#ab31b2381a1d916efdcffe8db7971ce15" target="_top" xlink:title="Called from audio device when it needs more audio.">
<polygon fill="none" stroke="black" points="309,-253.05 309,-283.05 416,-283.05 416,-253.05 309,-253.05"/>
<text text-anchor="start" x="317" y="-271.05" font-family="Helvetica,sans-Serif" font-size="10.00">vae::core::Engine::</text>
<text text-anchor="middle" x="362.5" y="-260.05" font-family="Helvetica,sans-Serif" font-size="10.00">onBufferSwap</text>
</a>
</g>
</g>
<!-- Node4&#45;&gt;Node5 -->
<g id="edge5" class="edge">
<title>Node4&#45;&gt;Node5</title>
<path fill="none" stroke="midnightblue" d="M465.82,-268.05C449.47,-268.05 432.01,-268.05 416.23,-268.05"/>
<polygon fill="midnightblue" stroke="midnightblue" points="465.84,-271.55 475.84,-268.05 465.84,-264.55 465.84,-271.55"/>
</g>
<!-- Node9 -->
<g id="node9" class="node">
<title>Node9</title>
<g id="a_node9"><a xlink:href="classvae_1_1core_1_1_engine.html#aca852d5c0e30b0641582f175bf95fbea" target="_top" xlink:title="Called from own audio thread, not the device.">
<polygon fill="none" stroke="black" points="309,-204.05 309,-234.05 416,-234.05 416,-204.05 309,-204.05"/>
<text text-anchor="start" x="317" y="-222.05" font-family="Helvetica,sans-Serif" font-size="10.00">vae::core::Engine::</text>
<text text-anchor="middle" x="362.5" y="-211.05" font-family="Helvetica,sans-Serif" font-size="10.00">threadedProcess</text>
</a>
</g>
</g>
<!-- Node4&#45;&gt;Node9 -->
<g id="edge9" class="edge">
<title>Node4&#45;&gt;Node9</title>
<path fill="none" stroke="midnightblue" d="M468,-250.08C450.32,-244.83 431.19,-239.15 414.18,-234.1"/>
<polygon fill="midnightblue" stroke="midnightblue" points="467.07,-253.46 477.65,-252.95 469.06,-246.75 467.07,-253.46"/>
</g>
<!-- Node6 -->
<g id="node6" class="node">
<title>Node6</title>
<g id="a_node6"><a xlink:href="classvae_1_1core_1_1_engine.html#aa974f739b3f2dc8004eede720d01d229" target="_top" xlink:title="Tries to open default device and start audio thread.">
<polygon fill="none" stroke="black" points="166,-204.05 166,-234.05 273,-234.05 273,-204.05 166,-204.05"/>
<text text-anchor="start" x="174" y="-222.05" font-family="Helvetica,sans-Serif" font-size="10.00">vae::core::Engine::</text>
<text text-anchor="middle" x="219.5" y="-211.05" font-family="Helvetica,sans-Serif" font-size="10.00">start</text>
</a>
</g>
</g>
<!-- Node5&#45;&gt;Node6 -->
<g id="edge6" class="edge">
<title>Node5&#45;&gt;Node6</title>
<path fill="none" stroke="midnightblue" d="M308.58,-249.66C293.9,-244.56 278.13,-239.08 264.05,-234.19"/>
<polygon fill="midnightblue" stroke="midnightblue" points="307.45,-252.97 318.04,-252.95 309.75,-246.36 307.45,-252.97"/>
</g>
<!-- Node7 -->
<g id="node7" class="node">
<title>Node7</title>
<g id="a_node7"><a xlink:href="main_8cpp.html#ae66f6b31b5ad750f1fe042a706a4e3d4" target="_top" xlink:title=" ">
<polygon fill="none" stroke="black" points="44.5,-86.55 44.5,-105.55 85.5,-105.55 85.5,-86.55 44.5,-86.55"/>
<text text-anchor="middle" x="65" y="-93.55" font-family="Helvetica,sans-Serif" font-size="10.00">main</text>
</a>
</g>
</g>
<!-- Node6&#45;&gt;Node7 -->
<g id="edge7" class="edge">
<title>Node6&#45;&gt;Node7</title>
<path fill="none" stroke="midnightblue" d="M191.79,-197.51C158.25,-170.46 102.16,-125.21 77.84,-105.6"/>
<polygon fill="midnightblue" stroke="midnightblue" points="189.82,-200.41 199.8,-203.97 194.21,-194.97 189.82,-200.41"/>
</g>
<!-- Node8 -->
<g id="node8" class="node">
<title>Node8</title>
<g id="a_node8"><a xlink:href="classvae_1_1_engine_pimpl.html#af773bc095b97e185c17b23a702572479" target="_top" xlink:title="Tries to open default device and start audio thread.">
<polygon fill="none" stroke="black" points="0,-209.55 0,-228.55 130,-228.55 130,-209.55 0,-209.55"/>
<text text-anchor="middle" x="65" y="-216.55" font-family="Helvetica,sans-Serif" font-size="10.00">vae::EnginePimpl::start</text>
</a>
</g>
</g>
<!-- Node6&#45;&gt;Node8 -->
<g id="edge8" class="edge">
<title>Node6&#45;&gt;Node8</title>
<path fill="none" stroke="midnightblue" d="M155.5,-219.05C147.12,-219.05 138.52,-219.05 130.11,-219.05"/>
<polygon fill="midnightblue" stroke="midnightblue" points="155.59,-222.55 165.59,-219.05 155.59,-215.55 155.59,-222.55"/>
</g>
<!-- Node9&#45;&gt;Node6 -->
<g id="edge10" class="edge">
<title>Node9&#45;&gt;Node6</title>
<path fill="none" stroke="midnightblue" d="M298.95,-219.05C290.3,-219.05 281.49,-219.05 273.05,-219.05"/>
<polygon fill="midnightblue" stroke="midnightblue" points="299,-222.55 309,-219.05 299,-215.55 299,-222.55"/>
</g>
<!-- Node10&#45;&gt;Node4 -->
<g id="edge13" class="edge">
<title>Node10&#45;&gt;Node4</title>
<path fill="none" stroke="midnightblue" d="M675.72,-300.32C647.11,-293.96 611.86,-286.13 583.25,-279.77"/>
<polygon fill="midnightblue" stroke="midnightblue" points="675.02,-303.75 685.54,-302.5 676.53,-296.92 675.02,-303.75"/>
</g>
<!-- Node10&#45;&gt;Node10 -->
<g id="edge12" class="edge">
<title>Node10&#45;&gt;Node10</title>
<path fill="none" stroke="midnightblue" d="M764.36,-329.94C763.85,-335.59 752.23,-340.05 729.5,-340.05 696.44,-340.05 686.89,-330.62 700.83,-321.81"/>
<polygon fill="midnightblue" stroke="midnightblue" points="767.01,-327.65 758.17,-321.81 761.44,-331.88 767.01,-327.65"/>
</g>
<!-- Node12 -->
<g id="node12" class="node">
<title>Node12</title>
<g id="a_node12"><a xlink:href="classvae_1_1core_1_1_engine.html#abb865b15d89996cc1fe51bcd9089443f" target="_top" xlink:title=" ">
<polygon fill="none" stroke="black" points="863,-210.05 863,-240.05 970,-240.05 970,-210.05 863,-210.05"/>
<text text-anchor="start" x="871" y="-228.05" font-family="Helvetica,sans-Serif" font-size="10.00">vae::core::Engine::</text>
<text text-anchor="middle" x="916.5" y="-217.05" font-family="Helvetica,sans-Serif" font-size="10.00">removeEmitter</text>
</a>
</g>
</g>
<!-- Node11&#45;&gt;Node12 -->
<g id="edge15" class="edge">
<title>Node11&#45;&gt;Node12</title>
<path fill="none" stroke="midnightblue" d="M1006.38,-232.68C994.18,-231.64 981.76,-230.57 970.23,-229.58"/>
<polygon fill="midnightblue" stroke="midnightblue" points="1006.28,-236.19 1016.55,-233.56 1006.88,-229.21 1006.28,-236.19"/>
</g>
<!-- Node14 -->
<g id="node14" class="node">
<title>Node14</title>
<g id="a_node14"><a xlink:href="classvae_1_1core_1_1_engine.html#afbff0864c479d3e2d12ff92ab23429ae" target="_top" xlink:title="Stop all voices from emitter.">
<polygon fill="none" stroke="black" points="863,-259.05 863,-289.05 970,-289.05 970,-259.05 863,-259.05"/>
<text text-anchor="start" x="871" y="-277.05" font-family="Helvetica,sans-Serif" font-size="10.00">vae::core::Engine::</text>
<text text-anchor="middle" x="916.5" y="-266.05" font-family="Helvetica,sans-Serif" font-size="10.00">stopEmitter</text>
</a>
</g>
</g>
<!-- Node11&#45;&gt;Node14 -->
<g id="edge17" class="edge">
<title>Node11&#45;&gt;Node14</title>
<path fill="none" stroke="midnightblue" d="M1006.74,-254.89C994.43,-257.53 981.88,-260.23 970.23,-262.73"/>
<polygon fill="midnightblue" stroke="midnightblue" points="1007.5,-258.3 1016.55,-252.78 1006.03,-251.46 1007.5,-258.3"/>
</g>
<!-- Node13 -->
<g id="node13" class="node">
<title>Node13</title>
<g id="a_node13"><a xlink:href="classvae_1_1_engine_pimpl.html#ac099c7622ce0ac5cf6b7bd78e79e5d27" target="_top" xlink:title=" ">
<polygon fill="none" stroke="black" points="657,-215.05 657,-245.05 802,-245.05 802,-215.05 657,-215.05"/>
<text text-anchor="start" x="665" y="-233.05" font-family="Helvetica,sans-Serif" font-size="10.00">vae::EnginePimpl::remove</text>
<text text-anchor="middle" x="729.5" y="-222.05" font-family="Helvetica,sans-Serif" font-size="10.00">Emitter</text>
</a>
</g>
</g>
<!-- Node12&#45;&gt;Node13 -->
<g id="edge16" class="edge">
<title>Node12&#45;&gt;Node13</title>
<path fill="none" stroke="midnightblue" d="M852.55,-226.75C836.33,-227.19 818.77,-227.66 802.15,-228.11"/>
<polygon fill="midnightblue" stroke="midnightblue" points="853.08,-230.24 862.98,-226.47 852.89,-223.24 853.08,-230.24"/>
</g>
<!-- Node15 -->
<g id="node15" class="node">
<title>Node15</title>
<g id="a_node15"><a xlink:href="classvae_1_1_engine_pimpl.html#add7390f50b78d7ace8ccebc9fa84f6bc" target="_top" xlink:title="Stop all voices from emitter.">
<polygon fill="none" stroke="black" points="647.5,-264.55 647.5,-283.55 811.5,-283.55 811.5,-264.55 647.5,-264.55"/>
<text text-anchor="middle" x="729.5" y="-271.55" font-family="Helvetica,sans-Serif" font-size="10.00">vae::EnginePimpl::stopEmitter</text>
</a>
</g>
</g>
<!-- Node14&#45;&gt;Node15 -->
<g id="edge18" class="edge">
<title>Node14&#45;&gt;Node15</title>
<path fill="none" stroke="midnightblue" d="M852.6,-274.05C839.39,-274.05 825.27,-274.05 811.5,-274.05"/>
<polygon fill="midnightblue" stroke="midnightblue" points="852.98,-277.55 862.98,-274.05 852.98,-270.55 852.98,-277.55"/>
</g>
<!-- Node17 -->
<g id="node17" class="node">
<title>Node17</title>
<g id="a_node17"><a xlink:href="classvae_1_1core_1_1_engine.html#abea30c08570fa87a026542a8c2abdc4e" target="_top" xlink:title="Unload bank from handle.">
<polygon fill="none" stroke="black" points="863,-28.05 863,-58.05 970,-58.05 970,-28.05 863,-28.05"/>
<text text-anchor="start" x="871" y="-46.05" font-family="Helvetica,sans-Serif" font-size="10.00">vae::core::Engine::</text>
<text text-anchor="middle" x="916.5" y="-35.05" font-family="Helvetica,sans-Serif" font-size="10.00">unloadBankFromId</text>
</a>
</g>
</g>
<!-- Node16&#45;&gt;Node17 -->
<g id="edge20" class="edge">
<title>Node16&#45;&gt;Node17</title>
<path fill="none" stroke="midnightblue" d="M1006.38,-43.05C994.18,-43.05 981.76,-43.05 970.23,-43.05"/>
<polygon fill="midnightblue" stroke="midnightblue" points="1006.55,-46.55 1016.55,-43.05 1006.55,-39.55 1006.55,-46.55"/>
</g>
<!-- Node17&#45;&gt;Node7 -->
<g id="edge21" class="edge">
<title>Node17&#45;&gt;Node7</title>
<path fill="none" stroke="midnightblue" d="M852.85,-26.23C840.7,-23.45 828.01,-20.88 816,-19.05 690.29,0.15 657.67,-0.05 530.5,-0.05 530.5,-0.05 530.5,-0.05 361.5,-0.05 250.38,-0.05 126.75,-62.21 82.7,-86.49"/>
<polygon fill="midnightblue" stroke="midnightblue" points="852.37,-29.71 862.9,-28.6 853.97,-22.9 852.37,-29.71"/>
</g>
<!-- Node18 -->
<g id="node18" class="node">
<title>Node18</title>
<g id="a_node18"><a xlink:href="classvae_1_1_engine_pimpl.html#ac6486cc1ff31aeacf852766bb6890f10" target="_top" xlink:title="Unload bank from handle.">
<polygon fill="none" stroke="black" points="659.5,-29.05 659.5,-59.05 799.5,-59.05 799.5,-29.05 659.5,-29.05"/>
<text text-anchor="start" x="667.5" y="-47.05" font-family="Helvetica,sans-Serif" font-size="10.00">vae::EnginePimpl::unload</text>
<text text-anchor="middle" x="729.5" y="-36.05" font-family="Helvetica,sans-Serif" font-size="10.00">BankFromId</text>
</a>
</g>
</g>
<!-- Node17&#45;&gt;Node18 -->
<g id="edge22" class="edge">
<title>Node17&#45;&gt;Node18</title>
<path fill="none" stroke="midnightblue" d="M852.61,-43.39C835.59,-43.48 817.09,-43.58 799.75,-43.68"/>
<polygon fill="midnightblue" stroke="midnightblue" points="853,-46.89 862.98,-43.33 852.96,-39.89 853,-46.89"/>
</g>
<!-- Node20 -->
<g id="node20" class="node">
<title>Node20</title>
<g id="a_node20"><a xlink:href="classvae_1_1core_1_1_engine.html#a4721a2bf236efae669ee51ba148e193a" target="_top" xlink:title="Main mechanism to start and stop sounds.">
<polygon fill="none" stroke="black" points="863,-124.05 863,-154.05 970,-154.05 970,-124.05 863,-124.05"/>
<text text-anchor="start" x="871" y="-142.05" font-family="Helvetica,sans-Serif" font-size="10.00">vae::core::Engine::</text>
<text text-anchor="middle" x="916.5" y="-131.05" font-family="Helvetica,sans-Serif" font-size="10.00">fireEvent</text>
</a>
</g>
</g>
<!-- Node19&#45;&gt;Node20 -->
<g id="edge24" class="edge">
<title>Node19&#45;&gt;Node20</title>
<path fill="none" stroke="midnightblue" d="M1022.85,-172.01C1004.08,-166.14 983.45,-159.68 965.46,-154.06"/>
<polygon fill="midnightblue" stroke="midnightblue" points="1021.89,-175.38 1032.48,-175.02 1023.98,-168.7 1021.89,-175.38"/>
</g>
<!-- Node20&#45;&gt;Node20 -->
<g id="edge26" class="edge">
<title>Node20&#45;&gt;Node20</title>
<path fill="none" stroke="midnightblue" d="M945.64,-164.51C942.02,-169.23 932.31,-172.55 916.5,-172.55 890.55,-172.55 881.03,-163.61 887.92,-154.21"/>
<polygon fill="midnightblue" stroke="midnightblue" points="949.12,-164 945.08,-154.21 942.13,-164.38 949.12,-164"/>
</g>
<!-- Node21 -->
<g id="node21" class="node">
<title>Node21</title>
<g id="a_node21"><a xlink:href="classvae_1_1_engine_pimpl.html#ad8012513afde9dd3bb976b5440858bef" target="_top" xlink:title="Main mechanism to start and stop sounds.">
<polygon fill="none" stroke="black" points="653.5,-127.55 653.5,-146.55 805.5,-146.55 805.5,-127.55 653.5,-127.55"/>
<text text-anchor="middle" x="729.5" y="-134.55" font-family="Helvetica,sans-Serif" font-size="10.00">vae::EnginePimpl::fireEvent</text>
</a>
</g>
</g>
<!-- Node20&#45;&gt;Node21 -->
<g id="edge25" class="edge">
<title>Node20&#45;&gt;Node21</title>
<path fill="none" stroke="midnightblue" d="M852.71,-138.37C837.57,-138.21 821.24,-138.03 805.59,-137.86"/>
<polygon fill="midnightblue" stroke="midnightblue" points="852.94,-141.87 862.98,-138.48 853.02,-134.87 852.94,-141.87"/>
</g>
<!-- Node22 -->
<g id="node22" class="node">
<title>Node22</title>
<g id="a_node22"><a xlink:href="classvae_1_1core_1_1_engine.html#a11a6ae8ce62130f33dad382a4e4cf07e" target="_top" xlink:title="Works like fireEvent but with a global Event identifier.">
<polygon fill="none" stroke="black" points="676,-78.05 676,-108.05 783,-108.05 783,-78.05 676,-78.05"/>
<text text-anchor="start" x="684" y="-96.05" font-family="Helvetica,sans-Serif" font-size="10.00">vae::core::Engine::</text>
<text text-anchor="middle" x="729.5" y="-85.05" font-family="Helvetica,sans-Serif" font-size="10.00">fireGlobalEvent</text>
</a>
</g>
</g>
<!-- Node20&#45;&gt;Node22 -->
<g id="edge27" class="edge">
<title>Node20&#45;&gt;Node22</title>
<path fill="none" stroke="midnightblue" d="M853.09,-123.53C830.38,-117.88 804.94,-111.56 783.15,-106.14"/>
<polygon fill="midnightblue" stroke="midnightblue" points="852.43,-126.98 862.98,-125.99 854.12,-120.18 852.43,-126.98"/>
</g>
<!-- Node26 -->
<g id="node26" class="node">
<title>Node26</title>
<g id="a_node26"><a xlink:href="classvae_1_1core_1_1_engine.html#adb4e1cb3bd1ea11bb9d3b806d552fb75" target="_top" xlink:title="Update function needs to be called regularly to handle outbound events.">
<polygon fill="none" stroke="black" points="676,-166.05 676,-196.05 783,-196.05 783,-166.05 676,-166.05"/>
<text text-anchor="start" x="684" y="-184.05" font-family="Helvetica,sans-Serif" font-size="10.00">vae::core::Engine::</text>
<text text-anchor="middle" x="729.5" y="-173.05" font-family="Helvetica,sans-Serif" font-size="10.00">update</text>
</a>
</g>
</g>
<!-- Node20&#45;&gt;Node26 -->
<g id="edge32" class="edge">
<title>Node20&#45;&gt;Node26</title>
<path fill="none" stroke="midnightblue" d="M853.09,-153.22C830.38,-158.38 804.94,-164.15 783.15,-169.1"/>
<polygon fill="midnightblue" stroke="midnightblue" points="854,-156.6 862.98,-150.97 852.45,-149.77 854,-156.6"/>
</g>
<!-- Node23 -->
<g id="node23" class="node">
<title>Node23</title>
<g id="a_node23"><a xlink:href="main_8cpp.html#a7b09579eb01449ba8f8ac324485001c2" target="_top" xlink:title=" ">
<polygon fill="none" stroke="black" points="494,-127.55 494,-146.55 565,-146.55 565,-127.55 494,-127.55"/>
<text text-anchor="middle" x="529.5" y="-134.55" font-family="Helvetica,sans-Serif" font-size="10.00">benchmark</text>
</a>
</g>
</g>
<!-- Node22&#45;&gt;Node23 -->
<g id="edge28" class="edge">
<title>Node22&#45;&gt;Node23</title>
<path fill="none" stroke="midnightblue" d="M665.85,-106.97C632.57,-114.37 592.92,-123.18 565.17,-129.35"/>
<polygon fill="midnightblue" stroke="midnightblue" points="666.96,-110.31 675.96,-104.73 665.44,-103.48 666.96,-110.31"/>
</g>
<!-- Node24 -->
<g id="node24" class="node">
<title>Node24</title>
<g id="a_node24"><a xlink:href="main_8cpp.html#afe1c3ff6204d9b675caf60b5545e3e54" target="_top" xlink:title=" ">
<polygon fill="none" stroke="black" points="190,-86.55 190,-105.55 249,-105.55 249,-86.55 190,-86.55"/>
<text text-anchor="middle" x="219.5" y="-93.55" font-family="Helvetica,sans-Serif" font-size="10.00">filterTest</text>
</a>
</g>
</g>
<!-- Node22&#45;&gt;Node24 -->
<g id="edge29" class="edge">
<title>Node22&#45;&gt;Node24</title>
<path fill="none" stroke="midnightblue" d="M665.54,-93.42C554.74,-94.08 329.07,-95.41 249.25,-95.88"/>
<polygon fill="midnightblue" stroke="midnightblue" points="665.59,-96.92 675.57,-93.36 665.55,-89.92 665.59,-96.92"/>
</g>
<!-- Node25 -->
<g id="node25" class="node">
<title>Node25</title>
<g id="a_node25"><a xlink:href="classvae_1_1_engine_pimpl.html#aee133a1fa8e89e70b4f7414c10d58c62" target="_top" xlink:title="Works like fireEvent but with a global Event identifier.">
<polygon fill="none" stroke="black" points="452,-37.05 452,-67.05 607,-67.05 607,-37.05 452,-37.05"/>
<text text-anchor="start" x="460" y="-55.05" font-family="Helvetica,sans-Serif" font-size="10.00">vae::EnginePimpl::fireGlobal</text>
<text text-anchor="middle" x="529.5" y="-44.05" font-family="Helvetica,sans-Serif" font-size="10.00">Event</text>
</a>
</g>
</g>
<!-- Node22&#45;&gt;Node25 -->
<g id="edge31" class="edge">
<title>Node22&#45;&gt;Node25</title>
<path fill="none" stroke="midnightblue" d="M666.04,-80.12C646.03,-75.97 623.7,-71.35 603.04,-67.07"/>
<polygon fill="midnightblue" stroke="midnightblue" points="665.46,-83.57 675.96,-82.17 666.88,-76.72 665.46,-83.57"/>
</g>
<!-- Node24&#45;&gt;Node7 -->
<g id="edge30" class="edge">
<title>Node24&#45;&gt;Node7</title>
<path fill="none" stroke="midnightblue" d="M179.69,-96.05C149.73,-96.05 109.52,-96.05 85.82,-96.05"/>
<polygon fill="midnightblue" stroke="midnightblue" points="179.82,-99.55 189.82,-96.05 179.82,-92.55 179.82,-99.55"/>
</g>
<!-- Node26&#45;&gt;Node4 -->
<g id="edge34" class="edge">
<title>Node26&#45;&gt;Node4</title>
<path fill="none" stroke="midnightblue" d="M666.22,-196.66C658.3,-199.19 650.39,-201.99 643,-205.05 610.73,-218.39 576.01,-238.87 553.81,-252.83"/>
<polygon fill="midnightblue" stroke="midnightblue" points="667.3,-199.99 675.84,-193.72 665.25,-193.3 667.3,-199.99"/>
</g>
<!-- Node26&#45;&gt;Node23 -->
<g id="edge33" class="edge">
<title>Node26&#45;&gt;Node23</title>
<path fill="none" stroke="midnightblue" d="M665.85,-167.13C632.57,-159.73 592.92,-150.92 565.17,-144.75"/>
<polygon fill="midnightblue" stroke="midnightblue" points="665.44,-170.62 675.96,-169.37 666.96,-163.79 665.44,-170.62"/>
</g>
<!-- Node27 -->
<g id="node27" class="node">
<title>Node27</title>
<g id="a_node27"><a xlink:href="classvae_1_1_engine_pimpl.html#a8e9296021147373d9b8c415c460fe842" target="_top" xlink:title="Update function needs to be called regularly to handle outbound events.">
<polygon fill="none" stroke="black" points="459,-171.55 459,-190.55 600,-190.55 600,-171.55 459,-171.55"/>
<text text-anchor="middle" x="529.5" y="-178.55" font-family="Helvetica,sans-Serif" font-size="10.00">vae::EnginePimpl::update</text>
</a>
</g>
</g>
<!-- Node26&#45;&gt;Node27 -->
<g id="edge35" class="edge">
<title>Node26&#45;&gt;Node27</title>
<path fill="none" stroke="midnightblue" d="M665.91,-181.05C644.97,-181.05 621.51,-181.05 600.08,-181.05"/>
<polygon fill="midnightblue" stroke="midnightblue" points="665.96,-184.55 675.96,-181.05 665.96,-177.55 665.96,-184.55"/>
</g>
<!-- Node28&#45;&gt;Node20 -->
<g id="edge37" class="edge">
<title>Node28&#45;&gt;Node20</title>
<path fill="none" stroke="midnightblue" d="M1006.38,-140.14C994.18,-139.99 981.76,-139.84 970.23,-139.7"/>
<polygon fill="midnightblue" stroke="midnightblue" points="1006.5,-143.64 1016.55,-140.27 1006.59,-136.64 1006.5,-143.64"/>
</g>
<!-- Node29&#45;&gt;Node20 -->
<g id="edge39" class="edge">
<title>Node29&#45;&gt;Node20</title>
<path fill="none" stroke="midnightblue" d="M1018.58,-109.9C1002.43,-114.56 985.18,-119.54 969.59,-124.03"/>
<polygon fill="midnightblue" stroke="midnightblue" points="1019.84,-113.18 1028.48,-107.05 1017.9,-106.46 1019.84,-113.18"/>
</g>
</g>
</svg>
