<?xml version="1.0" encoding="UTF-8" standalone="no"?>
<!DOCTYPE svg PUBLIC "-//W3C//DTD SVG 1.1//EN"
 "http://www.w3.org/Graphics/SVG/1.1/DTD/svg11.dtd">
<!-- Generated by graphviz version 2.50.0 (0)
 -->
<!-- Title: vae::core::BackendRtAudio Pages: 1 -->
<svg width="236pt" height="314pt"
 viewBox="0.00 0.00 235.50 314.00" xmlns="http://www.w3.org/2000/svg" xmlns:xlink="http://www.w3.org/1999/xlink">
<g id="graph0" class="graph" transform="scale(1 1) rotate(0) translate(4 310)">
<title>vae::core::BackendRtAudio</title>
<!-- Node1 -->
<g id="node1" class="node">
<title>Node1</title>
<g id="a_node1"><a xlink:title=" ">
<polygon fill="#bfbfbf" stroke="black" points="61,-0.5 61,-145.5 215,-145.5 215,-0.5 61,-0.5"/>
<text text-anchor="middle" x="138" y="-133.5" font-family="Helvetica,sans-Serif" font-size="10.00">vae::core::BackendRtAudio</text>
<polyline fill="none" stroke="black" points="61,-126.5 215,-126.5 "/>
<text text-anchor="middle" x="138" y="-114.5" font-family="Helvetica,sans-Serif" font-size="10.00"> </text>
<polyline fill="none" stroke="black" points="61,-107.5 215,-107.5 "/>
<text text-anchor="start" x="69" y="-95.5" font-family="Helvetica,sans-Serif" font-size="10.00">+ getDeviceCount()</text>
<text text-anchor="start" x="69" y="-84.5" font-family="Helvetica,sans-Serif" font-size="10.00">+ getDevice()</text>
<text text-anchor="start" x="69" y="-73.5" font-family="Helvetica,sans-Serif" font-size="10.00">+ getName()</text>
<text text-anchor="start" x="69" y="-62.5" font-family="Helvetica,sans-Serif" font-size="10.00">+ getDefaultInputDevice()</text>
<text text-anchor="start" x="69" y="-51.5" font-family="Helvetica,sans-Serif" font-size="10.00">+ getDefaultOutputDevice()</text>
<text text-anchor="start" x="69" y="-40.5" font-family="Helvetica,sans-Serif" font-size="10.00">+ createDevice()</text>
<text text-anchor="start" x="69" y="-29.5" font-family="Helvetica,sans-Serif" font-size="10.00">+ instance()</text>
<text text-anchor="start" x="69" y="-18.5" font-family="Helvetica,sans-Serif" font-size="10.00">&#45; BackendRtAudio()</text>
<text text-anchor="start" x="69" y="-7.5" font-family="Helvetica,sans-Serif" font-size="10.00">&#45; ~BackendRtAudio()</text>
</a>
</g>
</g>
<!-- Node2 -->
<g id="node2" class="node">
<title>Node2</title>
<g id="a_node2"><a xlink:href="classvae_1_1core_1_1_backend.html" target="_top" xlink:title="Backend interface used to query devices before creating a actual device object.">
<polygon fill="none" stroke="black" points="0,-193.5 0,-305.5 154,-305.5 154,-193.5 0,-193.5"/>
<text text-anchor="middle" x="77" y="-293.5" font-family="Helvetica,sans-Serif" font-size="10.00">vae::core::Backend</text>
<polyline fill="none" stroke="black" points="0,-286.5 154,-286.5 "/>
<text text-anchor="middle" x="77" y="-274.5" font-family="Helvetica,sans-Serif" font-size="10.00"> </text>
<polyline fill="none" stroke="black" points="0,-267.5 154,-267.5 "/>
<text text-anchor="start" x="8" y="-255.5" font-family="Helvetica,sans-Serif" font-size="10.00">+ getName()</text>
<text text-anchor="start" x="8" y="-244.5" font-family="Helvetica,sans-Serif" font-size="10.00">+ getDeviceCount()</text>
<text text-anchor="start" x="8" y="-233.5" font-family="Helvetica,sans-Serif" font-size="10.00">+ getDevice()</text>
<text text-anchor="start" x="8" y="-222.5" font-family="Helvetica,sans-Serif" font-size="10.00">+ getDefaultInputDevice()</text>
<text text-anchor="start" x="8" y="-211.5" font-family="Helvetica,sans-Serif" font-size="10.00">+ getDefaultOutputDevice()</text>
<text text-anchor="start" x="8" y="-200.5" font-family="Helvetica,sans-Serif" font-size="10.00">+ createDevice()</text>
</a>
</g>
</g>
<!-- Node2&#45;&gt;Node1 -->
<g id="edge1" class="edge">
<title>Node2&#45;&gt;Node1</title>
<path fill="none" stroke="midnightblue" d="M99.7,-183.57C104,-171.26 108.53,-158.31 112.9,-145.79"/>
<polygon fill="none" stroke="midnightblue" points="96.3,-182.69 96.3,-193.29 102.9,-185 96.3,-182.69"/>
</g>
<!-- Node3 -->
<g id="node3" class="node">
<title>Node3</title>
<g id="a_node3"><a xlink:title=" ">
<polygon fill="none" stroke="#bfbfbf" points="172.5,-221 172.5,-278 227.5,-278 227.5,-221 172.5,-221"/>
<text text-anchor="middle" x="200" y="-266" font-family="Helvetica,sans-Serif" font-size="10.00">RtAudio</text>
<polyline fill="none" stroke="#bfbfbf" points="172.5,-259 227.5,-259 "/>
<text text-anchor="middle" x="200" y="-247" font-family="Helvetica,sans-Serif" font-size="10.00"> </text>
<polyline fill="none" stroke="#bfbfbf" points="172.5,-240 227.5,-240 "/>
<text text-anchor="middle" x="200" y="-228" font-family="Helvetica,sans-Serif" font-size="10.00"> </text>
</a>
</g>
</g>
<!-- Node3&#45;&gt;Node1 -->
<g id="edge2" class="edge">
<title>Node3&#45;&gt;Node1</title>
<path fill="none" stroke="#404040" d="M190.18,-220.85C184.01,-203.5 175.71,-180.14 167.54,-157.15"/>
<polygon fill="none" stroke="#404040" points="167.44,-156.87 161.67,-152.55 163.43,-145.56 169.2,-149.88 167.44,-156.87"/>
<text text-anchor="middle" x="194.5" y="-167" font-family="Helvetica,sans-Serif" font-size="10.00"> &#45;mAudio</text>
</g>
</g>
</svg>
