<?xml version="1.0" encoding="UTF-8" standalone="no"?>
<!DOCTYPE svg PUBLIC "-//W3C//DTD SVG 1.1//EN"
 "http://www.w3.org/Graphics/SVG/1.1/DTD/svg11.dtd">
<!-- Generated by graphviz version 2.50.0 (0)
 -->
<!-- Title: vae::core::VoiceManger::stopFromBank Pages: 1 -->
<svg width="456pt" height="78pt"
 viewBox="0.00 0.00 456.00 77.50" xmlns="http://www.w3.org/2000/svg" xmlns:xlink="http://www.w3.org/1999/xlink">
<g id="graph0" class="graph" transform="scale(1 1) rotate(0) translate(4 73.5)">
<title>vae::core::VoiceManger::stopFromBank</title>
<!-- Node1 -->
<g id="node1" class="node">
<title>Node1</title>
<g id="a_node1"><a xlink:title=" ">
<polygon fill="#bfbfbf" stroke="black" points="319,-22.5 319,-52.5 448,-52.5 448,-22.5 319,-22.5"/>
<text text-anchor="start" x="327" y="-40.5" font-family="Helvetica,sans-Serif" font-size="10.00">vae::core::VoiceManger</text>
<text text-anchor="middle" x="383.5" y="-29.5" font-family="Helvetica,sans-Serif" font-size="10.00">::stopFromBank</text>
</a>
</g>
</g>
<!-- Node2 -->
<g id="node2" class="node">
<title>Node2</title>
<g id="a_node2"><a xlink:href="classvae_1_1core_1_1_engine.html#abea30c08570fa87a026542a8c2abdc4e" target="_top" xlink:title="Unload bank from handle.">
<polygon fill="none" stroke="black" points="176,-22.5 176,-52.5 283,-52.5 283,-22.5 176,-22.5"/>
<text text-anchor="start" x="184" y="-40.5" font-family="Helvetica,sans-Serif" font-size="10.00">vae::core::Engine::</text>
<text text-anchor="middle" x="229.5" y="-29.5" font-family="Helvetica,sans-Serif" font-size="10.00">unloadBankFromId</text>
</a>
</g>
</g>
<!-- Node1&#45;&gt;Node2 -->
<g id="edge1" class="edge">
<title>Node1&#45;&gt;Node2</title>
<path fill="none" stroke="midnightblue" d="M308.83,-37.5C300.19,-37.5 291.51,-37.5 283.24,-37.5"/>
<polygon fill="midnightblue" stroke="midnightblue" points="308.92,-41 318.92,-37.5 308.92,-34 308.92,-41"/>
</g>
<!-- Node3 -->
<g id="node3" class="node">
<title>Node3</title>
<g id="a_node3"><a xlink:href="main_8cpp.html#ae66f6b31b5ad750f1fe042a706a4e3d4" target="_top" xlink:title=" ">
<polygon fill="none" stroke="black" points="49.5,-50 49.5,-69 90.5,-69 90.5,-50 49.5,-50"/>
<text text-anchor="middle" x="70" y="-57" font-family="Helvetica,sans-Serif" font-size="10.00">main</text>
</a>
</g>
</g>
<!-- Node2&#45;&gt;Node3 -->
<g id="edge2" class="edge">
<title>Node2&#45;&gt;Node3</title>
<path fill="none" stroke="midnightblue" d="M165.54,-46.29C138.85,-50.02 109.64,-54.1 90.85,-56.73"/>
<polygon fill="midnightblue" stroke="midnightblue" points="166.2,-49.74 175.62,-44.89 165.23,-42.8 166.2,-49.74"/>
</g>
<!-- Node4 -->
<g id="node4" class="node">
<title>Node4</title>
<g id="a_node4"><a xlink:href="classvae_1_1_engine_pimpl.html#ac6486cc1ff31aeacf852766bb6890f10" target="_top" xlink:title="Unload bank from handle.">
<polygon fill="none" stroke="black" points="0,-0.5 0,-30.5 140,-30.5 140,-0.5 0,-0.5"/>
<text text-anchor="start" x="8" y="-18.5" font-family="Helvetica,sans-Serif" font-size="10.00">vae::EnginePimpl::unload</text>
<text text-anchor="middle" x="70" y="-7.5" font-family="Helvetica,sans-Serif" font-size="10.00">BankFromId</text>
</a>
</g>
</g>
<!-- Node2&#45;&gt;Node4 -->
<g id="edge3" class="edge">
<title>Node2&#45;&gt;Node4</title>
<path fill="none" stroke="midnightblue" d="M165.6,-28.71C157.26,-27.55 148.68,-26.35 140.25,-25.17"/>
<polygon fill="midnightblue" stroke="midnightblue" points="165.23,-32.2 175.62,-30.11 166.2,-25.26 165.23,-32.2"/>
</g>
</g>
</svg>
