<?xml version="1.0" encoding="UTF-8" standalone="no"?>
<!DOCTYPE svg PUBLIC "-//W3C//DTD SVG 1.1//EN"
 "http://www.w3.org/Graphics/SVG/1.1/DTD/svg11.dtd">
<!-- Generated by graphviz version 2.50.0 (0)
 -->
<!-- Title: tklb::Logger::print Pages: 1 -->
<svg width="269pt" height="218pt"
 viewBox="0.00 0.00 269.00 218.00" xmlns="http://www.w3.org/2000/svg" xmlns:xlink="http://www.w3.org/1999/xlink">
<g id="graph0" class="graph" transform="scale(1 1) rotate(0) translate(4 214)">
<title>tklb::Logger::print</title>
<!-- Node1 -->
<g id="node1" class="node">
<title>Node1</title>
<g id="a_node1"><a xlink:title=" ">
<polygon fill="#bfbfbf" stroke="black" points="158,-95.5 158,-114.5 261,-114.5 261,-95.5 158,-95.5"/>
<text text-anchor="middle" x="209.5" y="-102.5" font-family="Helvetica,sans-Serif" font-size="10.00">tklb::Logger::print</text>
</a>
</g>
</g>
<!-- Node2 -->
<g id="node2" class="node">
<title>Node2</title>
<g id="a_node2"><a xlink:href="classtklb_1_1_logger.html#a7c18161ae4467708117ced923a0a205c" target="_top" xlink:title=" ">
<polygon fill="none" stroke="black" points="4.5,-190.5 4.5,-209.5 117.5,-209.5 117.5,-190.5 4.5,-190.5"/>
<text text-anchor="middle" x="61" y="-197.5" font-family="Helvetica,sans-Serif" font-size="10.00">tklb::Logger::critical</text>
</a>
</g>
</g>
<!-- Node1&#45;&gt;Node2 -->
<g id="edge1" class="edge">
<title>Node1&#45;&gt;Node2</title>
<path fill="none" stroke="midnightblue" d="M193.1,-122.19C176.92,-139.3 149.98,-165.21 122,-181 115.34,-184.76 107.83,-187.88 100.45,-190.44"/>
<polygon fill="midnightblue" stroke="midnightblue" points="195.91,-124.3 200.13,-114.58 190.77,-119.55 195.91,-124.3"/>
</g>
<!-- Node3 -->
<g id="node3" class="node">
<title>Node3</title>
<g id="a_node3"><a xlink:href="classtklb_1_1_logger.html#a3e584c4b7b514a65e23e2c508f729840" target="_top" xlink:title=" ">
<polygon fill="none" stroke="black" points="6,-152.5 6,-171.5 116,-171.5 116,-152.5 6,-152.5"/>
<text text-anchor="middle" x="61" y="-159.5" font-family="Helvetica,sans-Serif" font-size="10.00">tklb::Logger::debug</text>
</a>
</g>
</g>
<!-- Node1&#45;&gt;Node3 -->
<g id="edge2" class="edge">
<title>Node1&#45;&gt;Node3</title>
<path fill="none" stroke="midnightblue" d="M179.29,-118.77C162.67,-126.36 141.37,-135.7 122,-143 113.1,-146.35 103.33,-149.62 94.29,-152.47"/>
<polygon fill="midnightblue" stroke="midnightblue" points="180.87,-121.89 188.48,-114.53 177.93,-115.54 180.87,-121.89"/>
</g>
<!-- Node4 -->
<g id="node4" class="node">
<title>Node4</title>
<g id="a_node4"><a xlink:href="classtklb_1_1_logger.html#ac3c9ffc20dec28e99e25fdd0e87a54eb" target="_top" xlink:title=" ">
<polygon fill="none" stroke="black" points="9,-114.5 9,-133.5 113,-133.5 113,-114.5 9,-114.5"/>
<text text-anchor="middle" x="61" y="-121.5" font-family="Helvetica,sans-Serif" font-size="10.00">tklb::Logger::error</text>
</a>
</g>
</g>
<!-- Node1&#45;&gt;Node4 -->
<g id="edge3" class="edge">
<title>Node1&#45;&gt;Node4</title>
<path fill="none" stroke="midnightblue" d="M147.73,-112.88C136.26,-114.37 124.37,-115.91 113.23,-117.36"/>
<polygon fill="midnightblue" stroke="midnightblue" points="148.21,-116.35 157.67,-111.59 147.31,-109.41 148.21,-116.35"/>
</g>
<!-- Node5 -->
<g id="node5" class="node">
<title>Node5</title>
<g id="a_node5"><a xlink:href="classtklb_1_1_logger.html#a6b044b5ca08c3a0ce68061574017f81f" target="_top" xlink:title=" ">
<polygon fill="none" stroke="black" points="11.5,-76.5 11.5,-95.5 110.5,-95.5 110.5,-76.5 11.5,-76.5"/>
<text text-anchor="middle" x="61" y="-83.5" font-family="Helvetica,sans-Serif" font-size="10.00">tklb::Logger::info</text>
</a>
</g>
</g>
<!-- Node1&#45;&gt;Node5 -->
<g id="edge4" class="edge">
<title>Node1&#45;&gt;Node5</title>
<path fill="none" stroke="midnightblue" d="M147.52,-97.09C135.26,-95.5 122.54,-93.85 110.76,-92.32"/>
<polygon fill="midnightblue" stroke="midnightblue" points="147.31,-100.59 157.67,-98.41 148.21,-93.65 147.31,-100.59"/>
</g>
<!-- Node6 -->
<g id="node6" class="node">
<title>Node6</title>
<g id="a_node6"><a xlink:href="classtklb_1_1_logger.html#aab79fc16fa76701a43d46a9c98dd5cad" target="_top" xlink:title=" ">
<polygon fill="none" stroke="black" points="9,-38.5 9,-57.5 113,-57.5 113,-38.5 9,-38.5"/>
<text text-anchor="middle" x="61" y="-45.5" font-family="Helvetica,sans-Serif" font-size="10.00">tklb::Logger::warn</text>
</a>
</g>
</g>
<!-- Node1&#45;&gt;Node6 -->
<g id="edge5" class="edge">
<title>Node1&#45;&gt;Node6</title>
<path fill="none" stroke="midnightblue" d="M179.29,-91.23C162.67,-83.64 141.37,-74.3 122,-67 113.1,-63.65 103.33,-60.38 94.29,-57.53"/>
<polygon fill="midnightblue" stroke="midnightblue" points="177.93,-94.46 188.48,-95.47 180.87,-88.11 177.93,-94.46"/>
</g>
<!-- Node7 -->
<g id="node7" class="node">
<title>Node7</title>
<g id="a_node7"><a xlink:href="classtklb_1_1_logger.html#ab3fc0faa5e9a55d73aea037b943263db" target="_top" xlink:title=" ">
<polygon fill="none" stroke="black" points="0,-0.5 0,-19.5 122,-19.5 122,-0.5 0,-0.5"/>
<text text-anchor="middle" x="61" y="-7.5" font-family="Helvetica,sans-Serif" font-size="10.00">tklb::Logger::~Logger</text>
</a>
</g>
</g>
<!-- Node1&#45;&gt;Node7 -->
<g id="edge6" class="edge">
<title>Node1&#45;&gt;Node7</title>
<path fill="none" stroke="midnightblue" d="M193.1,-87.81C176.92,-70.7 149.98,-44.79 122,-29 115.34,-25.24 107.83,-22.12 100.45,-19.56"/>
<polygon fill="midnightblue" stroke="midnightblue" points="190.77,-90.45 200.13,-95.42 195.91,-85.7 190.77,-90.45"/>
</g>
</g>
</svg>
