<?xml version="1.0" encoding="UTF-8" standalone="no"?>
<!DOCTYPE svg PUBLIC "-//W3C//DTD SVG 1.1//EN"
 "http://www.w3.org/Graphics/SVG/1.1/DTD/svg11.dtd">
<!-- Generated by graphviz version 2.50.0 (0)
 -->
<!-- Title: vae::core::DeviceDummy::openDevice Pages: 1 -->
<svg width="1008pt" height="313pt"
 viewBox="0.00 0.00 1008.00 312.50" xmlns="http://www.w3.org/2000/svg" xmlns:xlink="http://www.w3.org/1999/xlink">
<g id="graph0" class="graph" transform="scale(1 1) rotate(0) translate(4 308.5)">
<title>vae::core::DeviceDummy::openDevice</title>
<!-- Node1 -->
<g id="node1" class="node">
<title>Node1</title>
<g id="a_node1"><a xlink:title="Opens a specific audio device.">
<polygon fill="#bfbfbf" stroke="black" points="0,-66.5 0,-96.5 140,-96.5 140,-66.5 0,-66.5"/>
<text text-anchor="start" x="8" y="-84.5" font-family="Helvetica,sans-Serif" font-size="10.00">vae::core::DeviceDummy</text>
<text text-anchor="middle" x="70" y="-73.5" font-family="Helvetica,sans-Serif" font-size="10.00">::openDevice</text>
</a>
</g>
</g>
<!-- Node2 -->
<g id="node2" class="node">
<title>Node2</title>
<g id="a_node2"><a xlink:href="classvae_1_1core_1_1_device_dummy.html#ad85627cd3e6556da54cb511720b09f04" target="_top" xlink:title="Tries to open the default audio device whith desired in out channels.">
<polygon fill="none" stroke="black" points="176,-66.5 176,-96.5 316,-96.5 316,-66.5 176,-66.5"/>
<text text-anchor="start" x="184" y="-84.5" font-family="Helvetica,sans-Serif" font-size="10.00">vae::core::DeviceDummy</text>
<text text-anchor="middle" x="246" y="-73.5" font-family="Helvetica,sans-Serif" font-size="10.00">::openDevice</text>
</a>
</g>
</g>
<!-- Node1&#45;&gt;Node2 -->
<g id="edge1" class="edge">
<title>Node1&#45;&gt;Node2</title>
<path fill="none" stroke="midnightblue" d="M140.02,-81.5C148.48,-81.5 157.17,-81.5 165.76,-81.5"/>
<polygon fill="midnightblue" stroke="midnightblue" points="165.78,-85 175.78,-81.5 165.78,-78 165.78,-85"/>
</g>
<!-- Node3 -->
<g id="node3" class="node">
<title>Node3</title>
<g id="a_node3"><a xlink:href="classvae_1_1core_1_1_device.html#aaab56a24f9f040b6a4be004ff94eff40" target="_top" xlink:title="initializes buffers, queues and resamplers if needed Has to be called in openDevice once the samplera...">
<polygon fill="none" stroke="black" points="352,-116 352,-135 475,-135 475,-116 352,-116"/>
<text text-anchor="middle" x="413.5" y="-123" font-family="Helvetica,sans-Serif" font-size="10.00">vae::core::Device::init</text>
</a>
</g>
</g>
<!-- Node2&#45;&gt;Node3 -->
<g id="edge2" class="edge">
<title>Node2&#45;&gt;Node3</title>
<path fill="none" stroke="midnightblue" d="M303.49,-96.52C324.07,-101.99 347.05,-108.1 366.6,-113.3"/>
<polygon fill="midnightblue" stroke="midnightblue" points="365.91,-116.73 376.47,-115.92 367.71,-109.97 365.91,-116.73"/>
</g>
<!-- Node15 -->
<g id="node15" class="node">
<title>Node15</title>
<g id="a_node15"><a xlink:href="classvae_1_1core_1_1_device.html#aeafbeab17370280f5fb9cc8e2b0f4e70" target="_top" xlink:title=" ">
<polygon fill="none" stroke="black" points="360,-44.5 360,-74.5 467,-74.5 467,-44.5 360,-44.5"/>
<text text-anchor="start" x="368" y="-62.5" font-family="Helvetica,sans-Serif" font-size="10.00">vae::core::Device::</text>
<text text-anchor="middle" x="413.5" y="-51.5" font-family="Helvetica,sans-Serif" font-size="10.00">postInit</text>
</a>
</g>
</g>
<!-- Node2&#45;&gt;Node15 -->
<g id="edge18" class="edge">
<title>Node2&#45;&gt;Node15</title>
<path fill="none" stroke="midnightblue" d="M316.23,-72.3C327.42,-70.81 338.95,-69.28 349.97,-67.81"/>
<polygon fill="midnightblue" stroke="midnightblue" points="350.47,-71.28 359.92,-66.49 349.54,-64.34 350.47,-71.28"/>
</g>
<!-- Node4 -->
<g id="node4" class="node">
<title>Node4</title>
<g id="a_node4"><a xlink:href="classtklb_1_1_resampler_speex_tpl.html#a65864672c63ce1be9a251232504d8dce" target="_top" xlink:title="Calculate a buffersize fit for the resampled result.">
<polygon fill="none" stroke="black" points="686,-50.5 686,-80.5 825,-80.5 825,-50.5 686,-50.5"/>
<text text-anchor="start" x="694" y="-68.5" font-family="Helvetica,sans-Serif" font-size="10.00">tklb::ResamplerSpeexTpl</text>
<text text-anchor="middle" x="755.5" y="-57.5" font-family="Helvetica,sans-Serif" font-size="10.00">::calculateBufferSize</text>
</a>
</g>
</g>
<!-- Node3&#45;&gt;Node4 -->
<g id="edge3" class="edge">
<title>Node3&#45;&gt;Node4</title>
<path fill="none" stroke="midnightblue" d="M429.47,-115.84C447.84,-104.56 480.33,-86.44 511,-78.5 564.85,-64.56 627.58,-61.51 675.88,-61.83"/>
<polygon fill="midnightblue" stroke="midnightblue" points="675.91,-65.34 685.95,-61.95 676,-58.34 675.91,-65.34"/>
</g>
<!-- Node6 -->
<g id="node6" class="node">
<title>Node6</title>
<g id="a_node6"><a xlink:href="classtklb_1_1_resampler_speex_tpl.html#a7bab4da85cc386c5d34cf8ced0bd1092" target="_top" xlink:title="setup the resampler">
<polygon fill="none" stroke="black" points="511,-88.5 511,-118.5 650,-118.5 650,-88.5 511,-88.5"/>
<text text-anchor="start" x="519" y="-106.5" font-family="Helvetica,sans-Serif" font-size="10.00">tklb::ResamplerSpeexTpl</text>
<text text-anchor="middle" x="580.5" y="-95.5" font-family="Helvetica,sans-Serif" font-size="10.00">::init</text>
</a>
</g>
</g>
<!-- Node3&#45;&gt;Node6 -->
<g id="edge5" class="edge">
<title>Node3&#45;&gt;Node6</title>
<path fill="none" stroke="midnightblue" d="M475,-117.43C483.4,-116.31 492.12,-115.15 500.79,-113.99"/>
<polygon fill="midnightblue" stroke="midnightblue" points="501.47,-117.44 510.92,-112.64 500.54,-110.5 501.47,-117.44"/>
</g>
<!-- Node7 -->
<g id="node7" class="node">
<title>Node7</title>
<g id="a_node7"><a xlink:href="classtklb_1_1_audio_buffer_tpl.html#a35b40f6d6b1fc2939613b1b84313b0bc" target="_top" xlink:title="! Will not keep the contents! Resizes the buffer to the desired length and channel count.">
<polygon fill="none" stroke="black" points="698.5,-159.5 698.5,-189.5 812.5,-189.5 812.5,-159.5 698.5,-159.5"/>
<text text-anchor="start" x="706.5" y="-177.5" font-family="Helvetica,sans-Serif" font-size="10.00">tklb::AudioBufferTpl</text>
<text text-anchor="middle" x="755.5" y="-166.5" font-family="Helvetica,sans-Serif" font-size="10.00">::resize</text>
</a>
</g>
</g>
<!-- Node3&#45;&gt;Node7 -->
<g id="edge12" class="edge">
<title>Node3&#45;&gt;Node7</title>
<path fill="none" stroke="midnightblue" d="M431.64,-135.09C450.44,-145.05 481.85,-160.06 511,-166.5 569.8,-179.48 638.51,-180.5 687.92,-178.84"/>
<polygon fill="midnightblue" stroke="midnightblue" points="688.31,-182.33 698.17,-178.45 688.04,-175.34 688.31,-182.33"/>
</g>
<!-- Node11 -->
<g id="node11" class="node">
<title>Node11</title>
<g id="a_node11"><a xlink:href="namespacetklb.html#a7dc2203e89c331e3c85b9e7f16fa6763" target="_top" xlink:title=" ">
<polygon fill="none" stroke="black" points="549,-138 549,-157 612,-157 612,-138 549,-138"/>
<text text-anchor="middle" x="580.5" y="-145" font-family="Helvetica,sans-Serif" font-size="10.00">tklb::max</text>
</a>
</g>
</g>
<!-- Node3&#45;&gt;Node11 -->
<g id="edge11" class="edge">
<title>Node3&#45;&gt;Node11</title>
<path fill="none" stroke="midnightblue" d="M475,-133.57C496.21,-136.39 519.51,-139.5 538.71,-142.06"/>
<polygon fill="midnightblue" stroke="midnightblue" points="538.26,-145.53 548.63,-143.38 539.18,-138.59 538.26,-145.53"/>
</g>
<!-- Node12 -->
<g id="node12" class="node">
<title>Node12</title>
<g id="a_node12"><a xlink:href="classtklb_1_1_audio_buffer_tpl.html#ab6e5250746ca3784a568591a3ffdbc12" target="_top" xlink:title="Set a single channel from an array.">
<polygon fill="none" stroke="black" points="688,-214 688,-233 823,-233 823,-214 688,-214"/>
<text text-anchor="middle" x="755.5" y="-221" font-family="Helvetica,sans-Serif" font-size="10.00">tklb::AudioBufferTpl::set</text>
</a>
</g>
</g>
<!-- Node3&#45;&gt;Node12 -->
<g id="edge13" class="edge">
<title>Node3&#45;&gt;Node12</title>
<path fill="none" stroke="midnightblue" d="M426.13,-135.14C443.45,-148.93 477.58,-174.02 511,-186.5 564.57,-206.5 628.63,-215.7 677.59,-219.93"/>
<polygon fill="midnightblue" stroke="midnightblue" points="677.55,-223.44 687.8,-220.76 678.12,-216.46 677.55,-223.44"/>
</g>
<!-- Node5 -->
<g id="node5" class="node">
<title>Node5</title>
<g id="a_node5"><a xlink:href="classtklb_1_1_resampler_speex_tpl.html#a5b4b65f32dbcec425871cc26384d4643" target="_top" xlink:title="Estimate how many sample will be emitted in the next step.">
<polygon fill="none" stroke="black" points="861,-50.5 861,-80.5 1000,-80.5 1000,-50.5 861,-50.5"/>
<text text-anchor="start" x="869" y="-68.5" font-family="Helvetica,sans-Serif" font-size="10.00">tklb::ResamplerSpeexTpl</text>
<text text-anchor="middle" x="930.5" y="-57.5" font-family="Helvetica,sans-Serif" font-size="10.00">::estimateOut</text>
</a>
</g>
</g>
<!-- Node4&#45;&gt;Node5 -->
<g id="edge4" class="edge">
<title>Node4&#45;&gt;Node5</title>
<path fill="none" stroke="midnightblue" d="M825.37,-65.5C833.68,-65.5 842.21,-65.5 850.65,-65.5"/>
<polygon fill="midnightblue" stroke="midnightblue" points="850.87,-69 860.87,-65.5 850.87,-62 850.87,-69"/>
</g>
<!-- Node6&#45;&gt;Node4 -->
<g id="edge6" class="edge">
<title>Node6&#45;&gt;Node4</title>
<path fill="none" stroke="midnightblue" d="M649.87,-88.48C658.52,-86.58 667.42,-84.63 676.2,-82.7"/>
<polygon fill="midnightblue" stroke="midnightblue" points="677.04,-86.1 686.06,-80.53 675.54,-79.26 677.04,-86.1"/>
</g>
<!-- Node6&#45;&gt;Node7 -->
<g id="edge7" class="edge">
<title>Node6&#45;&gt;Node7</title>
<path fill="none" stroke="midnightblue" d="M624.05,-118.54C632.68,-121.73 641.66,-125.15 650,-128.5 670.77,-136.85 693.55,-146.78 712.52,-155.28"/>
<polygon fill="midnightblue" stroke="midnightblue" points="711.23,-158.54 721.79,-159.45 714.1,-152.15 711.23,-158.54"/>
</g>
<!-- Node8 -->
<g id="node8" class="node">
<title>Node8</title>
<g id="a_node8"><a xlink:href="classtklb_1_1_audio_buffer_tpl.html#a7859b26033cbb893c2ea7acea54d8013" target="_top" xlink:title="Returns the amount of channels.">
<polygon fill="none" stroke="black" points="873.5,-110.5 873.5,-140.5 987.5,-140.5 987.5,-110.5 873.5,-110.5"/>
<text text-anchor="start" x="881.5" y="-128.5" font-family="Helvetica,sans-Serif" font-size="10.00">tklb::AudioBufferTpl</text>
<text text-anchor="middle" x="930.5" y="-117.5" font-family="Helvetica,sans-Serif" font-size="10.00">::channels</text>
</a>
</g>
</g>
<!-- Node7&#45;&gt;Node8 -->
<g id="edge8" class="edge">
<title>Node7&#45;&gt;Node8</title>
<path fill="none" stroke="midnightblue" d="M809.82,-159.4C827.74,-154.32 847.91,-148.61 866.51,-143.34"/>
<polygon fill="midnightblue" stroke="midnightblue" points="867.69,-146.64 876.36,-140.55 865.78,-139.91 867.69,-146.64"/>
</g>
<!-- Node9 -->
<g id="node9" class="node">
<title>Node9</title>
<g id="a_node9"><a xlink:href="namespacetklb.html#a3080595da18d742645ec41d61828a426" target="_top" xlink:title=" ">
<polygon fill="none" stroke="black" points="900.5,-209 900.5,-228 960.5,-228 960.5,-209 900.5,-209"/>
<text text-anchor="middle" x="930.5" y="-216" font-family="Helvetica,sans-Serif" font-size="10.00">tklb::min</text>
</a>
</g>
</g>
<!-- Node7&#45;&gt;Node9 -->
<g id="edge9" class="edge">
<title>Node7&#45;&gt;Node9</title>
<path fill="none" stroke="midnightblue" d="M812.67,-188.79C838.11,-195.26 867.55,-202.75 890.52,-208.59"/>
<polygon fill="midnightblue" stroke="midnightblue" points="889.7,-211.99 900.26,-211.06 891.43,-205.21 889.7,-211.99"/>
</g>
<!-- Node10 -->
<g id="node10" class="node">
<title>Node10</title>
<g id="a_node10"><a xlink:href="classtklb_1_1_audio_buffer_tpl.html#af6df8d7e6840eee3f84807bd1662c3ed" target="_top" xlink:title="Returns the allocated length of the buffer.">
<polygon fill="none" stroke="black" points="873.5,-159.5 873.5,-189.5 987.5,-189.5 987.5,-159.5 873.5,-159.5"/>
<text text-anchor="start" x="881.5" y="-177.5" font-family="Helvetica,sans-Serif" font-size="10.00">tklb::AudioBufferTpl</text>
<text text-anchor="middle" x="930.5" y="-166.5" font-family="Helvetica,sans-Serif" font-size="10.00">::size</text>
</a>
</g>
</g>
<!-- Node7&#45;&gt;Node10 -->
<g id="edge10" class="edge">
<title>Node7&#45;&gt;Node10</title>
<path fill="none" stroke="midnightblue" d="M812.67,-174.5C828.76,-174.5 846.46,-174.5 863.11,-174.5"/>
<polygon fill="midnightblue" stroke="midnightblue" points="863.32,-178 873.32,-174.5 863.32,-171 863.32,-178"/>
</g>
<!-- Node12&#45;&gt;Node9 -->
<g id="edge16" class="edge">
<title>Node12&#45;&gt;Node9</title>
<path fill="none" stroke="midnightblue" d="M823.39,-221.57C845.95,-220.91 870.4,-220.21 890.14,-219.64"/>
<polygon fill="midnightblue" stroke="midnightblue" points="890.39,-223.13 900.28,-219.34 890.18,-216.13 890.39,-223.13"/>
</g>
<!-- Node12&#45;&gt;Node10 -->
<g id="edge17" class="edge">
<title>Node12&#45;&gt;Node10</title>
<path fill="none" stroke="midnightblue" d="M790.27,-213.94C811.98,-207.79 840.86,-199.61 866.68,-192.29"/>
<polygon fill="midnightblue" stroke="midnightblue" points="867.74,-195.63 876.41,-189.54 865.83,-188.89 867.74,-195.63"/>
</g>
<!-- Node13 -->
<g id="node13" class="node">
<title>Node13</title>
<g id="a_node13"><a xlink:href="namespacetklb_1_1memory.html#ab89ec197028f903f4ea125eae46c4a10" target="_top" xlink:title="memcpy wrapper">
<polygon fill="none" stroke="black" points="874.5,-285 874.5,-304 986.5,-304 986.5,-285 874.5,-285"/>
<text text-anchor="middle" x="930.5" y="-292" font-family="Helvetica,sans-Serif" font-size="10.00">tklb::memory::copy</text>
</a>
</g>
</g>
<!-- Node12&#45;&gt;Node13 -->
<g id="edge14" class="edge">
<title>Node12&#45;&gt;Node13</title>
<path fill="none" stroke="midnightblue" d="M773.42,-233.19C793.72,-244.5 829.02,-263.24 861,-275.5 867.05,-277.82 873.5,-279.99 879.93,-281.97"/>
<polygon fill="midnightblue" stroke="midnightblue" points="879.38,-285.45 889.96,-284.92 881.35,-278.74 879.38,-285.45"/>
</g>
<!-- Node14 -->
<g id="node14" class="node">
<title>Node14</title>
<g id="a_node14"><a xlink:href="classtklb_1_1_audio_buffer_tpl.html#aee0540e90ae2790f9a809917bc5a04fd" target="_top" xlink:title=" ">
<polygon fill="none" stroke="black" points="862.5,-247 862.5,-266 998.5,-266 998.5,-247 862.5,-247"/>
<text text-anchor="middle" x="930.5" y="-254" font-family="Helvetica,sans-Serif" font-size="10.00">tklb::AudioBufferTpl::get</text>
</a>
</g>
</g>
<!-- Node12&#45;&gt;Node14 -->
<g id="edge15" class="edge">
<title>Node12&#45;&gt;Node14</title>
<path fill="none" stroke="midnightblue" d="M806.54,-233.04C826.26,-236.81 849.08,-241.16 869.67,-245.09"/>
<polygon fill="midnightblue" stroke="midnightblue" points="869.09,-248.54 879.57,-246.98 870.41,-241.66 869.09,-248.54"/>
</g>
<!-- Node16 -->
<g id="node16" class="node">
<title>Node16</title>
<g id="a_node16"><a xlink:href="classvae_1_1core_1_1_backend.html#a27327edc7742e3c5ed32772706d0ef30" target="_top" xlink:title="Returns name of the api.">
<polygon fill="none" stroke="black" points="525.5,-0.5 525.5,-30.5 635.5,-30.5 635.5,-0.5 525.5,-0.5"/>
<text text-anchor="start" x="533.5" y="-18.5" font-family="Helvetica,sans-Serif" font-size="10.00">vae::core::Backend</text>
<text text-anchor="middle" x="580.5" y="-7.5" font-family="Helvetica,sans-Serif" font-size="10.00">::getName</text>
</a>
</g>
</g>
<!-- Node15&#45;&gt;Node16 -->
<g id="edge19" class="edge">
<title>Node15&#45;&gt;Node16</title>
<path fill="none" stroke="midnightblue" d="M467.16,-45.46C482.55,-41.35 499.53,-36.82 515.54,-32.56"/>
<polygon fill="midnightblue" stroke="midnightblue" points="516.59,-35.9 525.35,-29.94 514.79,-29.13 516.59,-35.9"/>
</g>
</g>
</svg>
