<?xml version="1.0" encoding="UTF-8" standalone="no"?>
<!DOCTYPE svg PUBLIC "-//W3C//DTD SVG 1.1//EN"
 "http://www.w3.org/Graphics/SVG/1.1/DTD/svg11.dtd">
<!-- Generated by graphviz version 2.50.0 (0)
 -->
<!-- Title: tklb::AudioRingBufferTpl::reset Pages: 1 -->
<svg width="487pt" height="154pt"
 viewBox="0.00 0.00 487.00 153.50" xmlns="http://www.w3.org/2000/svg" xmlns:xlink="http://www.w3.org/1999/xlink">
<g id="graph0" class="graph" transform="scale(1 1) rotate(0) translate(4 149.5)">
<title>tklb::AudioRingBufferTpl::reset</title>
<!-- Node1 -->
<g id="node1" class="node">
<title>Node1</title>
<g id="a_node1"><a xlink:title=" ">
<polygon fill="#bfbfbf" stroke="black" points="0,-63.5 0,-93.5 136,-93.5 136,-63.5 0,-63.5"/>
<text text-anchor="start" x="8" y="-81.5" font-family="Helvetica,sans-Serif" font-size="10.00">tklb::AudioRingBufferTpl</text>
<text text-anchor="middle" x="68" y="-70.5" font-family="Helvetica,sans-Serif" font-size="10.00">::reset</text>
</a>
</g>
</g>
<!-- Node2 -->
<g id="node2" class="node">
<title>Node2</title>
<g id="a_node2"><a xlink:href="classtklb_1_1_audio_buffer_tpl.html#ab6e5250746ca3784a568591a3ffdbc12" target="_top" xlink:title="Set a single channel from an array.">
<polygon fill="none" stroke="black" points="172,-69 172,-88 307,-88 307,-69 172,-69"/>
<text text-anchor="middle" x="239.5" y="-76" font-family="Helvetica,sans-Serif" font-size="10.00">tklb::AudioBufferTpl::set</text>
</a>
</g>
</g>
<!-- Node1&#45;&gt;Node2 -->
<g id="edge1" class="edge">
<title>Node1&#45;&gt;Node2</title>
<path fill="none" stroke="midnightblue" d="M136.48,-78.5C144.75,-78.5 153.25,-78.5 161.64,-78.5"/>
<polygon fill="midnightblue" stroke="midnightblue" points="161.81,-82 171.81,-78.5 161.81,-75 161.81,-82"/>
</g>
<!-- Node3 -->
<g id="node3" class="node">
<title>Node3</title>
<g id="a_node3"><a xlink:href="namespacetklb_1_1memory.html#ab89ec197028f903f4ea125eae46c4a10" target="_top" xlink:title="memcpy wrapper">
<polygon fill="none" stroke="black" points="355,-126 355,-145 467,-145 467,-126 355,-126"/>
<text text-anchor="middle" x="411" y="-133" font-family="Helvetica,sans-Serif" font-size="10.00">tklb::memory::copy</text>
</a>
</g>
</g>
<!-- Node2&#45;&gt;Node3 -->
<g id="edge2" class="edge">
<title>Node2&#45;&gt;Node3</title>
<path fill="none" stroke="midnightblue" d="M264.75,-88.1C285.4,-96.13 315.94,-107.66 343,-116.5 349.95,-118.77 357.36,-121.03 364.62,-123.16"/>
<polygon fill="midnightblue" stroke="midnightblue" points="363.8,-126.56 374.38,-125.96 365.73,-119.83 363.8,-126.56"/>
</g>
<!-- Node4 -->
<g id="node4" class="node">
<title>Node4</title>
<g id="a_node4"><a xlink:href="classtklb_1_1_audio_buffer_tpl.html#aee0540e90ae2790f9a809917bc5a04fd" target="_top" xlink:title=" ">
<polygon fill="none" stroke="black" points="343,-88 343,-107 479,-107 479,-88 343,-88"/>
<text text-anchor="middle" x="411" y="-95" font-family="Helvetica,sans-Serif" font-size="10.00">tklb::AudioBufferTpl::get</text>
</a>
</g>
</g>
<!-- Node2&#45;&gt;Node4 -->
<g id="edge3" class="edge">
<title>Node2&#45;&gt;Node4</title>
<path fill="none" stroke="midnightblue" d="M307,-85.95C315.47,-86.9 324.19,-87.88 332.81,-88.85"/>
<polygon fill="midnightblue" stroke="midnightblue" points="332.52,-92.34 342.85,-89.97 333.3,-85.38 332.52,-92.34"/>
</g>
<!-- Node5 -->
<g id="node5" class="node">
<title>Node5</title>
<g id="a_node5"><a xlink:href="namespacetklb.html#a3080595da18d742645ec41d61828a426" target="_top" xlink:title=" ">
<polygon fill="none" stroke="black" points="381,-50 381,-69 441,-69 441,-50 381,-50"/>
<text text-anchor="middle" x="411" y="-57" font-family="Helvetica,sans-Serif" font-size="10.00">tklb::min</text>
</a>
</g>
</g>
<!-- Node2&#45;&gt;Node5 -->
<g id="edge4" class="edge">
<title>Node2&#45;&gt;Node5</title>
<path fill="none" stroke="midnightblue" d="M307,-71.05C328.6,-68.62 351.86,-66.02 370.8,-63.89"/>
<polygon fill="midnightblue" stroke="midnightblue" points="371.29,-67.36 380.84,-62.77 370.51,-60.4 371.29,-67.36"/>
</g>
<!-- Node6 -->
<g id="node6" class="node">
<title>Node6</title>
<g id="a_node6"><a xlink:href="classtklb_1_1_audio_buffer_tpl.html#af6df8d7e6840eee3f84807bd1662c3ed" target="_top" xlink:title="Returns the allocated length of the buffer.">
<polygon fill="none" stroke="black" points="354,-0.5 354,-30.5 468,-30.5 468,-0.5 354,-0.5"/>
<text text-anchor="start" x="362" y="-18.5" font-family="Helvetica,sans-Serif" font-size="10.00">tklb::AudioBufferTpl</text>
<text text-anchor="middle" x="411" y="-7.5" font-family="Helvetica,sans-Serif" font-size="10.00">::size</text>
</a>
</g>
</g>
<!-- Node2&#45;&gt;Node6 -->
<g id="edge5" class="edge">
<title>Node2&#45;&gt;Node6</title>
<path fill="none" stroke="midnightblue" d="M266.24,-68.93C290.98,-59.74 329.03,-45.6 359.77,-34.17"/>
<polygon fill="midnightblue" stroke="midnightblue" points="361.31,-37.33 369.47,-30.57 358.87,-30.77 361.31,-37.33"/>
</g>
</g>
</svg>
