<?xml version="1.0" encoding="UTF-8" standalone="no"?>
<!DOCTYPE svg PUBLIC "-//W3C//DTD SVG 1.1//EN"
 "http://www.w3.org/Graphics/SVG/1.1/DTD/svg11.dtd">
<!-- Generated by graphviz version 2.50.0 (0)
 -->
<!-- Title: vae::core::Engine::onBufferSwap Pages: 1 -->
<svg width="424pt" height="66pt"
 viewBox="0.00 0.00 424.00 66.00" xmlns="http://www.w3.org/2000/svg" xmlns:xlink="http://www.w3.org/1999/xlink">
<g id="graph0" class="graph" transform="scale(1 1) rotate(0) translate(4 62)">
<title>vae::core::Engine::onBufferSwap</title>
<!-- Node1 -->
<g id="node1" class="node">
<title>Node1</title>
<g id="a_node1"><a xlink:title="Called from audio device when it needs more audio.">
<polygon fill="#bfbfbf" stroke="black" points="309,-14 309,-44 416,-44 416,-14 309,-14"/>
<text text-anchor="start" x="317" y="-32" font-family="Helvetica,sans-Serif" font-size="10.00">vae::core::Engine::</text>
<text text-anchor="middle" x="362.5" y="-21" font-family="Helvetica,sans-Serif" font-size="10.00">onBufferSwap</text>
</a>
</g>
</g>
<!-- Node2 -->
<g id="node2" class="node">
<title>Node2</title>
<g id="a_node2"><a xlink:href="classvae_1_1core_1_1_engine.html#aa974f739b3f2dc8004eede720d01d229" target="_top" xlink:title="Tries to open default device and start audio thread.">
<polygon fill="none" stroke="black" points="166,-14 166,-44 273,-44 273,-14 166,-14"/>
<text text-anchor="start" x="174" y="-32" font-family="Helvetica,sans-Serif" font-size="10.00">vae::core::Engine::</text>
<text text-anchor="middle" x="219.5" y="-21" font-family="Helvetica,sans-Serif" font-size="10.00">start</text>
</a>
</g>
</g>
<!-- Node1&#45;&gt;Node2 -->
<g id="edge1" class="edge">
<title>Node1&#45;&gt;Node2</title>
<path fill="none" stroke="midnightblue" d="M298.95,-29C290.3,-29 281.49,-29 273.05,-29"/>
<polygon fill="midnightblue" stroke="midnightblue" points="299,-32.5 309,-29 299,-25.5 299,-32.5"/>
</g>
<!-- Node3 -->
<g id="node3" class="node">
<title>Node3</title>
<g id="a_node3"><a xlink:href="main_8cpp.html#ae66f6b31b5ad750f1fe042a706a4e3d4" target="_top" xlink:title=" ">
<polygon fill="none" stroke="black" points="44.5,-38.5 44.5,-57.5 85.5,-57.5 85.5,-38.5 44.5,-38.5"/>
<text text-anchor="middle" x="65" y="-45.5" font-family="Helvetica,sans-Serif" font-size="10.00">main</text>
</a>
</g>
</g>
<!-- Node2&#45;&gt;Node3 -->
<g id="edge2" class="edge">
<title>Node2&#45;&gt;Node3</title>
<path fill="none" stroke="midnightblue" d="M155.36,-36.87C130.26,-39.99 103.2,-43.36 85.52,-45.57"/>
<polygon fill="midnightblue" stroke="midnightblue" points="156.1,-40.3 165.59,-35.59 155.23,-33.36 156.1,-40.3"/>
</g>
<!-- Node4 -->
<g id="node4" class="node">
<title>Node4</title>
<g id="a_node4"><a xlink:href="classvae_1_1_engine_pimpl.html#af773bc095b97e185c17b23a702572479" target="_top" xlink:title="Tries to open default device and start audio thread.">
<polygon fill="none" stroke="black" points="0,-0.5 0,-19.5 130,-19.5 130,-0.5 0,-0.5"/>
<text text-anchor="middle" x="65" y="-7.5" font-family="Helvetica,sans-Serif" font-size="10.00">vae::EnginePimpl::start</text>
</a>
</g>
</g>
<!-- Node2&#45;&gt;Node4 -->
<g id="edge3" class="edge">
<title>Node2&#45;&gt;Node4</title>
<path fill="none" stroke="midnightblue" d="M155.5,-21.15C147.12,-20.11 138.52,-19.03 130.11,-17.99"/>
<polygon fill="midnightblue" stroke="midnightblue" points="155.23,-24.64 165.59,-22.41 156.1,-17.7 155.23,-24.64"/>
</g>
</g>
</svg>
