<?xml version="1.0" encoding="UTF-8" standalone="no"?>
<!DOCTYPE svg PUBLIC "-//W3C//DTD SVG 1.1//EN"
 "http://www.w3.org/Graphics/SVG/1.1/DTD/svg11.dtd">
<!-- Generated by graphviz version 2.50.0 (0)
 -->
<!-- Title: vae::core::VoiceManger::stopFromMixer Pages: 1 -->
<!--zoomable 194 -->
<svg id="main" version="1.1" xmlns="http://www.w3.org/2000/svg" xmlns:xlink="http://www.w3.org/1999/xlink" xml:space="preserve" onload="init(evt)">
<style type="text/css"><![CDATA[
.edge:hover path { stroke: red; }
.edge:hover polygon { stroke: red; fill: red; }
]]></style>
<script type="text/javascript"><![CDATA[
var edges = document.getElementsByTagName('g');
if (edges && edges.length) {
  for (var i=0;i<edges.length;i++) {
    if (edges[i].id.substr(0,4)=='edge') {
      edges[i].setAttribute('class','edge');
    }
  }
}
]]></script>
        <defs>
                <circle id="rim" cx="0" cy="0" r="7"/>
                <circle id="rim2" cx="0" cy="0" r="3.5"/>
                <g id="zoomPlus">
                        <use xlink:href="#rim" fill="#404040">
                                <set attributeName="fill" to="#808080" begin="zoomplus.mouseover" end="zoomplus.mouseout"/>
                        </use>
                        <path d="M-4,0h8M0,-4v8" fill="none" stroke="white" stroke-width="1.5" pointer-events="none"/>
                </g>
                <g id="zoomMin">
                        <use xlink:href="#rim" fill="#404040">
                                <set attributeName="fill" to="#808080" begin="zoomminus.mouseover" end="zoomminus.mouseout"/>
                        </use>
                        <path d="M-4,0h8" fill="none" stroke="white" stroke-width="1.5" pointer-events="none"/>
                </g>
                <g id="dirArrow">
                        <path fill="none" stroke="white" stroke-width="1.5" d="M0,-3.0v7 M-2.5,-0.5L0,-3.0L2.5,-0.5"/>
                </g>
               <g id="resetDef">
                       <use xlink:href="#rim2" fill="#404040">
                               <set attributeName="fill" to="#808080" begin="reset.mouseover" end="reset.mouseout"/>
                       </use>
               </g>
        </defs>

<script type="text/javascript">
var viewWidth = 1111;
var viewHeight = 194;
var sectionId = 'dynsection-19';
</script>
<script xlink:href="svgpan.js"/>
<svg id="graph" class="graph">
<g id="viewport">
<title>vae::core::VoiceManger::stopFromMixer</title>
<!-- Node1 -->
<g id="node1" class="node">
<title>Node1</title>
<g id="a_node1"><a xlink:title="Kills all voices in mixer channel.">
<polygon fill="#bfbfbf" stroke="black" points="974,-117 974,-147 1103,-147 1103,-117 974,-117"/>
<text text-anchor="start" x="982" y="-135" font-family="Helvetica,sans-Serif" font-size="10.00">vae::core::VoiceManger</text>
<text text-anchor="middle" x="1038.5" y="-124" font-family="Helvetica,sans-Serif" font-size="10.00">::stopFromMixer</text>
</a>
</g>
</g>
<!-- Node2 -->
<g id="node2" class="node">
<title>Node2</title>
<g id="a_node2"><a xlink:href="classvae_1_1core_1_1_engine.html#a4721a2bf236efae669ee51ba148e193a" target="_top" xlink:title="Main mechanism to start and stop sounds.">
<polygon fill="none" stroke="black" points="831,-117 831,-147 938,-147 938,-117 831,-117"/>
<text text-anchor="start" x="839" y="-135" font-family="Helvetica,sans-Serif" font-size="10.00">vae::core::Engine::</text>
<text text-anchor="middle" x="884.5" y="-124" font-family="Helvetica,sans-Serif" font-size="10.00">fireEvent</text>
</a>
</g>
</g>
<!-- Node1&#45;&gt;Node2 -->
<g id="edge1" class="edge">
<title>Node1&#45;&gt;Node2</title>
<path fill="none" stroke="midnightblue" d="M963.83,-132C955.19,-132 946.51,-132 938.24,-132"/>
<polygon fill="midnightblue" stroke="midnightblue" points="963.92,-135.5 973.92,-132 963.92,-128.5 963.92,-135.5"/>
</g>
<!-- Node2&#45;&gt;Node2 -->
<g id="edge3" class="edge">
<title>Node2&#45;&gt;Node2</title>
<path fill="none" stroke="midnightblue" d="M911.86,-157.46C908.47,-162.18 899.35,-165.5 884.5,-165.5 860.14,-165.5 851.19,-156.56 857.66,-147.16"/>
<polygon fill="midnightblue" stroke="midnightblue" points="915.34,-156.97 911.34,-147.16 908.35,-157.32 915.34,-156.97"/>
</g>
<!-- Node3 -->
<g id="node3" class="node">
<title>Node3</title>
<g id="a_node3"><a xlink:href="classvae_1_1_engine_pimpl.html#ad8012513afde9dd3bb976b5440858bef" target="_top" xlink:title="Main mechanism to start and stop sounds.">
<polygon fill="none" stroke="black" points="643,-166.5 643,-185.5 795,-185.5 795,-166.5 643,-166.5"/>
<text text-anchor="middle" x="719" y="-173.5" font-family="Helvetica,sans-Serif" font-size="10.00">vae::EnginePimpl::fireEvent</text>
</a>
</g>
</g>
<!-- Node2&#45;&gt;Node3 -->
<g id="edge2" class="edge">
<title>Node2&#45;&gt;Node3</title>
<path fill="none" stroke="midnightblue" d="M820.89,-149.01C812.2,-151.37 803.38,-153.75 795,-156 782.25,-159.43 768.27,-163.16 755.87,-166.47"/>
<polygon fill="midnightblue" stroke="midnightblue" points="821.89,-152.37 830.63,-146.38 820.06,-145.61 821.89,-152.37"/>
</g>
<!-- Node4 -->
<g id="node4" class="node">
<title>Node4</title>
<g id="a_node4"><a xlink:href="classvae_1_1core_1_1_engine.html#a11a6ae8ce62130f33dad382a4e4cf07e" target="_top" xlink:title="Works like fireEvent but with a global Event identifier.">
<polygon fill="none" stroke="black" points="665.5,-117 665.5,-147 772.5,-147 772.5,-117 665.5,-117"/>
<text text-anchor="start" x="673.5" y="-135" font-family="Helvetica,sans-Serif" font-size="10.00">vae::core::Engine::</text>
<text text-anchor="middle" x="719" y="-124" font-family="Helvetica,sans-Serif" font-size="10.00">fireGlobalEvent</text>
</a>
</g>
</g>
<!-- Node2&#45;&gt;Node4 -->
<g id="edge4" class="edge">
<title>Node2&#45;&gt;Node4</title>
<path fill="none" stroke="midnightblue" d="M820.6,-132C804.73,-132 787.84,-132 772.53,-132"/>
<polygon fill="midnightblue" stroke="midnightblue" points="820.87,-135.5 830.87,-132 820.87,-128.5 820.87,-135.5"/>
</g>
<!-- Node9 -->
<g id="node9" class="node">
<title>Node9</title>
<g id="a_node9"><a xlink:href="classvae_1_1core_1_1_engine.html#adb4e1cb3bd1ea11bb9d3b806d552fb75" target="_top" xlink:title="Update function needs to be called regularly to handle outbound events.">
<polygon fill="none" stroke="black" points="665.5,-58 665.5,-88 772.5,-88 772.5,-58 665.5,-58"/>
<text text-anchor="start" x="673.5" y="-76" font-family="Helvetica,sans-Serif" font-size="10.00">vae::core::Engine::</text>
<text text-anchor="middle" x="719" y="-65" font-family="Helvetica,sans-Serif" font-size="10.00">update</text>
</a>
</g>
</g>
<!-- Node2&#45;&gt;Node9 -->
<g id="edge9" class="edge">
<title>Node2&#45;&gt;Node9</title>
<path fill="none" stroke="midnightblue" d="M832.32,-113.53C809.56,-105.32 783.12,-95.78 761.6,-88.01"/>
<polygon fill="midnightblue" stroke="midnightblue" points="831.22,-116.86 841.82,-116.96 833.6,-110.27 831.22,-116.86"/>
</g>
<!-- Node5 -->
<g id="node5" class="node">
<title>Node5</title>
<g id="a_node5"><a xlink:href="main_8cpp.html#a7b09579eb01449ba8f8ac324485001c2" target="_top" xlink:title=" ">
<polygon fill="none" stroke="black" points="494,-88.5 494,-107.5 565,-107.5 565,-88.5 494,-88.5"/>
<text text-anchor="middle" x="529.5" y="-95.5" font-family="Helvetica,sans-Serif" font-size="10.00">benchmark</text>
</a>
</g>
</g>
<!-- Node4&#45;&gt;Node5 -->
<g id="edge5" class="edge">
<title>Node4&#45;&gt;Node5</title>
<path fill="none" stroke="midnightblue" d="M655.28,-120.63C625.2,-115.17 590.32,-108.85 565.1,-104.27"/>
<polygon fill="midnightblue" stroke="midnightblue" points="654.81,-124.1 665.27,-122.44 656.06,-117.21 654.81,-124.1"/>
</g>
<!-- Node6 -->
<g id="node6" class="node">
<title>Node6</title>
<g id="a_node6"><a xlink:href="main_8cpp.html#afe1c3ff6204d9b675caf60b5545e3e54" target="_top" xlink:title=" ">
<polygon fill="none" stroke="black" points="190,-156.5 190,-175.5 249,-175.5 249,-156.5 190,-156.5"/>
<text text-anchor="middle" x="219.5" y="-163.5" font-family="Helvetica,sans-Serif" font-size="10.00">filterTest</text>
</a>
</g>
</g>
<!-- Node4&#45;&gt;Node6 -->
<g id="edge6" class="edge">
<title>Node4&#45;&gt;Node6</title>
<path fill="none" stroke="midnightblue" d="M662.69,-150.26C637.96,-158.26 613.02,-166.07 607,-167 474.69,-187.37 313.88,-175.38 249.33,-169.1"/>
<polygon fill="midnightblue" stroke="midnightblue" points="664.05,-153.49 672.48,-147.07 661.88,-146.84 664.05,-153.49"/>
</g>
<!-- Node8 -->
<g id="node8" class="node">
<title>Node8</title>
<g id="a_node8"><a xlink:href="classvae_1_1_engine_pimpl.html#aee133a1fa8e89e70b4f7414c10d58c62" target="_top" xlink:title="Works like fireEvent but with a global Event identifier.">
<polygon fill="none" stroke="black" points="452,-127 452,-157 607,-157 607,-127 452,-127"/>
<text text-anchor="start" x="460" y="-145" font-family="Helvetica,sans-Serif" font-size="10.00">vae::EnginePimpl::fireGlobal</text>
<text text-anchor="middle" x="529.5" y="-134" font-family="Helvetica,sans-Serif" font-size="10.00">Event</text>
</a>
</g>
</g>
<!-- Node4&#45;&gt;Node8 -->
<g id="edge8" class="edge">
<title>Node4&#45;&gt;Node8</title>
<path fill="none" stroke="midnightblue" d="M654.92,-135.36C639.64,-136.18 623.15,-137.06 607.32,-137.9"/>
<polygon fill="midnightblue" stroke="midnightblue" points="655.47,-138.84 665.27,-134.81 655.1,-131.85 655.47,-138.84"/>
</g>
<!-- Node7 -->
<g id="node7" class="node">
<title>Node7</title>
<g id="a_node7"><a xlink:href="main_8cpp.html#ae66f6b31b5ad750f1fe042a706a4e3d4" target="_top" xlink:title=" ">
<polygon fill="none" stroke="black" points="44.5,-134.5 44.5,-153.5 85.5,-153.5 85.5,-134.5 44.5,-134.5"/>
<text text-anchor="middle" x="65" y="-141.5" font-family="Helvetica,sans-Serif" font-size="10.00">main</text>
</a>
</g>
</g>
<!-- Node6&#45;&gt;Node7 -->
<g id="edge7" class="edge">
<title>Node6&#45;&gt;Node7</title>
<path fill="none" stroke="midnightblue" d="M179.69,-160.4C149.73,-156.08 109.52,-150.28 85.82,-146.86"/>
<polygon fill="midnightblue" stroke="midnightblue" points="179.42,-163.9 189.82,-161.86 180.42,-156.97 179.42,-163.9"/>
</g>
<!-- Node9&#45;&gt;Node5 -->
<g id="edge10" class="edge">
<title>Node9&#45;&gt;Node5</title>
<path fill="none" stroke="midnightblue" d="M655.28,-81.36C625.2,-85.37 590.32,-90.02 565.1,-93.39"/>
<polygon fill="midnightblue" stroke="midnightblue" points="655.82,-84.82 665.27,-80.03 654.9,-77.88 655.82,-84.82"/>
</g>
<!-- Node10 -->
<g id="node10" class="node">
<title>Node10</title>
<g id="a_node10"><a xlink:href="classvae_1_1core_1_1_engine.html#afecf53f2eaf92d13a933c05c821b3819" target="_top" xlink:title="Main processing function.">
<polygon fill="none" stroke="black" points="476,-39 476,-69 583,-69 583,-39 476,-39"/>
<text text-anchor="start" x="484" y="-57" font-family="Helvetica,sans-Serif" font-size="10.00">vae::core::Engine::</text>
<text text-anchor="middle" x="529.5" y="-46" font-family="Helvetica,sans-Serif" font-size="10.00">process</text>
</a>
</g>
</g>
<!-- Node9&#45;&gt;Node10 -->
<g id="edge11" class="edge">
<title>Node9&#45;&gt;Node10</title>
<path fill="none" stroke="midnightblue" d="M655.11,-66.63C631.75,-64.26 605.51,-61.6 583.16,-59.34"/>
<polygon fill="midnightblue" stroke="midnightblue" points="654.97,-70.13 665.27,-67.66 655.68,-63.17 654.97,-70.13"/>
</g>
<!-- Node15 -->
<g id="node15" class="node">
<title>Node15</title>
<g id="a_node15"><a xlink:href="classvae_1_1_engine_pimpl.html#a8e9296021147373d9b8c415c460fe842" target="_top" xlink:title="Update function needs to be called regularly to handle outbound events.">
<polygon fill="none" stroke="black" points="459,-0.5 459,-19.5 600,-19.5 600,-0.5 459,-0.5"/>
<text text-anchor="middle" x="529.5" y="-7.5" font-family="Helvetica,sans-Serif" font-size="10.00">vae::EnginePimpl::update</text>
</a>
</g>
</g>
<!-- Node9&#45;&gt;Node15 -->
<g id="edge18" class="edge">
<title>Node9&#45;&gt;Node15</title>
<path fill="none" stroke="midnightblue" d="M674.18,-54.06C653.96,-45.73 629.49,-36.22 607,-29 596.18,-25.53 584.34,-22.31 573.27,-19.55"/>
<polygon fill="midnightblue" stroke="midnightblue" points="672.86,-57.3 683.44,-57.91 675.55,-50.84 672.86,-57.3"/>
</g>
<!-- Node11 -->
<g id="node11" class="node">
<title>Node11</title>
<g id="a_node11"><a xlink:href="classvae_1_1core_1_1_engine.html#ab31b2381a1d916efdcffe8db7971ce15" target="_top" xlink:title="Called from audio device when it needs more audio.">
<polygon fill="none" stroke="black" points="309,-88 309,-118 416,-118 416,-88 309,-88"/>
<text text-anchor="start" x="317" y="-106" font-family="Helvetica,sans-Serif" font-size="10.00">vae::core::Engine::</text>
<text text-anchor="middle" x="362.5" y="-95" font-family="Helvetica,sans-Serif" font-size="10.00">onBufferSwap</text>
</a>
</g>
</g>
<!-- Node10&#45;&gt;Node11 -->
<g id="edge12" class="edge">
<title>Node10&#45;&gt;Node11</title>
<path fill="none" stroke="midnightblue" d="M468,-71.97C450.32,-77.22 431.19,-82.9 414.18,-87.95"/>
<polygon fill="midnightblue" stroke="midnightblue" points="469.06,-75.3 477.65,-69.1 467.07,-68.59 469.06,-75.3"/>
</g>
<!-- Node14 -->
<g id="node14" class="node">
<title>Node14</title>
<g id="a_node14"><a xlink:href="classvae_1_1core_1_1_engine.html#aca852d5c0e30b0641582f175bf95fbea" target="_top" xlink:title="Called from own audio thread, not the device.">
<polygon fill="none" stroke="black" points="309,-39 309,-69 416,-69 416,-39 309,-39"/>
<text text-anchor="start" x="317" y="-57" font-family="Helvetica,sans-Serif" font-size="10.00">vae::core::Engine::</text>
<text text-anchor="middle" x="362.5" y="-46" font-family="Helvetica,sans-Serif" font-size="10.00">threadedProcess</text>
</a>
</g>
</g>
<!-- Node10&#45;&gt;Node14 -->
<g id="edge16" class="edge">
<title>Node10&#45;&gt;Node14</title>
<path fill="none" stroke="midnightblue" d="M465.82,-54C449.47,-54 432.01,-54 416.23,-54"/>
<polygon fill="midnightblue" stroke="midnightblue" points="465.84,-57.5 475.84,-54 465.84,-50.5 465.84,-57.5"/>
</g>
<!-- Node12 -->
<g id="node12" class="node">
<title>Node12</title>
<g id="a_node12"><a xlink:href="classvae_1_1core_1_1_engine.html#aa974f739b3f2dc8004eede720d01d229" target="_top" xlink:title="Tries to open default device and start audio thread.">
<polygon fill="none" stroke="black" points="166,-88 166,-118 273,-118 273,-88 166,-88"/>
<text text-anchor="start" x="174" y="-106" font-family="Helvetica,sans-Serif" font-size="10.00">vae::core::Engine::</text>
<text text-anchor="middle" x="219.5" y="-95" font-family="Helvetica,sans-Serif" font-size="10.00">start</text>
</a>
</g>
</g>
<!-- Node11&#45;&gt;Node12 -->
<g id="edge13" class="edge">
<title>Node11&#45;&gt;Node12</title>
<path fill="none" stroke="midnightblue" d="M298.95,-103C290.3,-103 281.49,-103 273.05,-103"/>
<polygon fill="midnightblue" stroke="midnightblue" points="299,-106.5 309,-103 299,-99.5 299,-106.5"/>
</g>
<!-- Node12&#45;&gt;Node7 -->
<g id="edge14" class="edge">
<title>Node12&#45;&gt;Node7</title>
<path fill="none" stroke="midnightblue" d="M155.69,-119.89C130.5,-126.66 103.28,-133.98 85.52,-138.75"/>
<polygon fill="midnightblue" stroke="midnightblue" points="156.84,-123.2 165.59,-117.22 155.03,-116.44 156.84,-123.2"/>
</g>
<!-- Node13 -->
<g id="node13" class="node">
<title>Node13</title>
<g id="a_node13"><a xlink:href="classvae_1_1_engine_pimpl.html#af773bc095b97e185c17b23a702572479" target="_top" xlink:title="Tries to open default device and start audio thread.">
<polygon fill="none" stroke="black" points="0,-93.5 0,-112.5 130,-112.5 130,-93.5 0,-93.5"/>
<text text-anchor="middle" x="65" y="-100.5" font-family="Helvetica,sans-Serif" font-size="10.00">vae::EnginePimpl::start</text>
</a>
</g>
</g>
<!-- Node12&#45;&gt;Node13 -->
<g id="edge15" class="edge">
<title>Node12&#45;&gt;Node13</title>
<path fill="none" stroke="midnightblue" d="M155.5,-103C147.12,-103 138.52,-103 130.11,-103"/>
<polygon fill="midnightblue" stroke="midnightblue" points="155.59,-106.5 165.59,-103 155.59,-99.5 155.59,-106.5"/>
</g>
<!-- Node14&#45;&gt;Node12 -->
<g id="edge17" class="edge">
<title>Node14&#45;&gt;Node12</title>
<path fill="none" stroke="midnightblue" d="M308.58,-72.39C293.9,-77.49 278.13,-82.97 264.05,-87.86"/>
<polygon fill="midnightblue" stroke="midnightblue" points="309.75,-75.69 318.04,-69.1 307.45,-69.08 309.75,-75.69"/>
</g>
</g>
</svg>
        <g id="navigator" transform="translate(0 0)" fill="#404254">
                <rect fill="#f2f5e9" fill-opacity="0.5" stroke="#606060" stroke-width=".5" x="0" y="0" width="60" height="60"/>
                <use id="zoomplus" xlink:href="#zoomPlus" x="17" y="9" onmousedown="handleZoom(evt,'in')"/>
                <use id="zoomminus" xlink:href="#zoomMin" x="42" y="9" onmousedown="handleZoom(evt,'out')"/>
                <use id="reset" xlink:href="#resetDef" x="30" y="36" onmousedown="handleReset()"/>
                <g id="arrowUp" xlink:href="#dirArrow" transform="translate(30 24)" onmousedown="handlePan(0,-1)">
                  <use xlink:href="#rim" fill="#404040">
                        <set attributeName="fill" to="#808080" begin="arrowUp.mouseover" end="arrowUp.mouseout"/>
                  </use>
                  <path fill="none" stroke="white" stroke-width="1.5" d="M0,-3.0v7 M-2.5,-0.5L0,-3.0L2.5,-0.5"/>
                </g>
                <g id="arrowRight" xlink:href="#dirArrow" transform="rotate(90) translate(36 -43)" onmousedown="handlePan(1,0)">
                  <use xlink:href="#rim" fill="#404040">
                        <set attributeName="fill" to="#808080" begin="arrowRight.mouseover" end="arrowRight.mouseout"/>
                  </use>
                  <path fill="none" stroke="white" stroke-width="1.5" d="M0,-3.0v7 M-2.5,-0.5L0,-3.0L2.5,-0.5"/>
                </g>
                <g id="arrowDown" xlink:href="#dirArrow" transform="rotate(180) translate(-30 -48)" onmousedown="handlePan(0,1)">
                  <use xlink:href="#rim" fill="#404040">
                        <set attributeName="fill" to="#808080" begin="arrowDown.mouseover" end="arrowDown.mouseout"/>
                  </use>
                  <path fill="none" stroke="white" stroke-width="1.5" d="M0,-3.0v7 M-2.5,-0.5L0,-3.0L2.5,-0.5"/>
                </g>
                <g id="arrowLeft" xlink:href="#dirArrow" transform="rotate(270) translate(-36 17)" onmousedown="handlePan(-1,0)">
                  <use xlink:href="#rim" fill="#404040">
                        <set attributeName="fill" to="#808080" begin="arrowLeft.mouseover" end="arrowLeft.mouseout"/>
                  </use>
                  <path fill="none" stroke="white" stroke-width="1.5" d="M0,-3.0v7 M-2.5,-0.5L0,-3.0L2.5,-0.5"/>
                </g>
        </g>
        <svg viewBox="0 0 15 15" width="100%" height="30px" preserveAspectRatio="xMaxYMin meet">
         <g id="arrow_out" transform="scale(0.3 0.3)">
          <a xlink:href="classvae_1_1core_1_1_voice_manger_a9e77e56a773f3b2f6a90209a16aba07c_icgraph_org.svg" target="_base">
           <rect id="button" ry="5" rx="5" y="6" x="6" height="38" width="38"
                fill="#f2f5e9" fill-opacity="0.5" stroke="#606060" stroke-width="1.0"/>
           <path id="arrow"
             d="M 11.500037,31.436501 C 11.940474,20.09759 22.043105,11.32322 32.158766,21.979434 L 37.068811,17.246167 C 37.068811,17.246167 37.088388,32 37.088388,32 L 22.160133,31.978069 C 22.160133,31.978069 26.997745,27.140456 26.997745,27.140456 C 18.528582,18.264221 13.291696,25.230495 11.500037,31.436501 z"
             style="fill:#404040;"/>
          </a>
         </g>
        </svg>
</svg>
