<?xml version="1.0" encoding="UTF-8" standalone="no"?>
<!DOCTYPE svg PUBLIC "-//W3C//DTD SVG 1.1//EN"
 "http://www.w3.org/Graphics/SVG/1.1/DTD/svg11.dtd">
<!-- Generated by graphviz version 2.50.0 (0)
 -->
<!-- Title: tklb::HeapBuffer::clear Pages: 1 -->
<!--zoomable 180 -->
<svg id="main" version="1.1" xmlns="http://www.w3.org/2000/svg" xmlns:xlink="http://www.w3.org/1999/xlink" xml:space="preserve" onload="init(evt)">
<style type="text/css"><![CDATA[
.edge:hover path { stroke: red; }
.edge:hover polygon { stroke: red; fill: red; }
]]></style>
<script type="text/javascript"><![CDATA[
var edges = document.getElementsByTagName('g');
if (edges && edges.length) {
  for (var i=0;i<edges.length;i++) {
    if (edges[i].id.substr(0,4)=='edge') {
      edges[i].setAttribute('class','edge');
    }
  }
}
]]></script>
        <defs>
                <circle id="rim" cx="0" cy="0" r="7"/>
                <circle id="rim2" cx="0" cy="0" r="3.5"/>
                <g id="zoomPlus">
                        <use xlink:href="#rim" fill="#404040">
                                <set attributeName="fill" to="#808080" begin="zoomplus.mouseover" end="zoomplus.mouseout"/>
                        </use>
                        <path d="M-4,0h8M0,-4v8" fill="none" stroke="white" stroke-width="1.5" pointer-events="none"/>
                </g>
                <g id="zoomMin">
                        <use xlink:href="#rim" fill="#404040">
                                <set attributeName="fill" to="#808080" begin="zoomminus.mouseover" end="zoomminus.mouseout"/>
                        </use>
                        <path d="M-4,0h8" fill="none" stroke="white" stroke-width="1.5" pointer-events="none"/>
                </g>
                <g id="dirArrow">
                        <path fill="none" stroke="white" stroke-width="1.5" d="M0,-3.0v7 M-2.5,-0.5L0,-3.0L2.5,-0.5"/>
                </g>
               <g id="resetDef">
                       <use xlink:href="#rim2" fill="#404040">
                               <set attributeName="fill" to="#808080" begin="reset.mouseover" end="reset.mouseout"/>
                       </use>
               </g>
        </defs>

<script type="text/javascript">
var viewWidth = 665;
var viewHeight = 180;
var sectionId = 'dynsection-8';
</script>
<script xlink:href="svgpan.js"/>
<svg id="graph" class="graph">
<g id="viewport">
<title>tklb::HeapBuffer::clear</title>
<!-- Node1 -->
<g id="node1" class="node">
<title>Node1</title>
<g id="a_node1"><a xlink:title="Clears the buffer but doesn&#39;t free the memory.">
<polygon fill="#bfbfbf" stroke="black" points="0,-66.5 0,-85.5 127,-85.5 127,-66.5 0,-66.5"/>
<text text-anchor="middle" x="63.5" y="-73.5" font-family="Helvetica,sans-Serif" font-size="10.00">tklb::HeapBuffer::clear</text>
</a>
</g>
</g>
<!-- Node2 -->
<g id="node2" class="node">
<title>Node2</title>
<g id="a_node2"><a xlink:href="classtklb_1_1_heap_buffer.html#aea890defe7d21d9273e005464b04f784" target="_top" xlink:title="Resize the buffer If the memory is borrowed it will become unique and owned by this instance as soon ...">
<polygon fill="none" stroke="black" points="163,-66.5 163,-85.5 295,-85.5 295,-66.5 163,-66.5"/>
<text text-anchor="middle" x="229" y="-73.5" font-family="Helvetica,sans-Serif" font-size="10.00">tklb::HeapBuffer::resize</text>
</a>
</g>
</g>
<!-- Node1&#45;&gt;Node2 -->
<g id="edge1" class="edge">
<title>Node1&#45;&gt;Node2</title>
<path fill="none" stroke="midnightblue" d="M127.25,-76C135.66,-76 144.36,-76 152.96,-76"/>
<polygon fill="midnightblue" stroke="midnightblue" points="152.98,-79.5 162.98,-76 152.98,-72.5 152.98,-79.5"/>
</g>
<!-- Node3 -->
<g id="node3" class="node">
<title>Node3</title>
<g id="a_node3"><a xlink:href="classtklb_1_1_heap_buffer.html#a37d94fdca920347674a4048cdc28452d" target="_top" xlink:title="Allocated the exact size requsted and copies existing objects.">
<polygon fill="none" stroke="black" points="331,-101.5 331,-120.5 473,-120.5 473,-101.5 331,-101.5"/>
<text text-anchor="middle" x="402" y="-108.5" font-family="Helvetica,sans-Serif" font-size="10.00">tklb::HeapBuffer::allocate</text>
</a>
</g>
</g>
<!-- Node2&#45;&gt;Node3 -->
<g id="edge2" class="edge">
<title>Node2&#45;&gt;Node3</title>
<path fill="none" stroke="midnightblue" d="M276.73,-85.56C297.65,-89.85 322.5,-94.93 344.47,-99.43"/>
<polygon fill="midnightblue" stroke="midnightblue" points="343.83,-102.87 354.33,-101.45 345.23,-96.01 343.83,-102.87"/>
</g>
<!-- Node4 -->
<g id="node4" class="node">
<title>Node4</title>
<g id="a_node4"><a xlink:href="classtklb_1_1_heap_buffer.html#a25c9d8fce108ff905202bcf7a6038d3d" target="_top" xlink:title="Whether the memory is managed by the instance or is borrowed.">
<polygon fill="none" stroke="black" points="512,-152.5 512,-171.5 654,-171.5 654,-152.5 512,-152.5"/>
<text text-anchor="middle" x="583" y="-159.5" font-family="Helvetica,sans-Serif" font-size="10.00">tklb::HeapBuffer::injected</text>
</a>
</g>
</g>
<!-- Node2&#45;&gt;Node4 -->
<g id="edge9" class="edge">
<title>Node2&#45;&gt;Node4</title>
<path fill="none" stroke="midnightblue" d="M243.98,-85.62C262.83,-98.07 297.85,-119.42 331,-130 386.4,-147.68 451.62,-155.63 501.69,-159.19"/>
<polygon fill="midnightblue" stroke="midnightblue" points="501.61,-162.69 511.82,-159.86 502.07,-155.71 501.61,-162.69"/>
</g>
<!-- Node7 -->
<g id="node7" class="node">
<title>Node7</title>
<g id="a_node7"><a xlink:href="classtklb_1_1_heap_buffer.html#a682dc231ff65beb7114cb0e476affd6b" target="_top" xlink:title=" ">
<polygon fill="none" stroke="black" points="333.5,-39 333.5,-69 470.5,-69 470.5,-39 333.5,-39"/>
<text text-anchor="start" x="341.5" y="-57" font-family="Helvetica,sans-Serif" font-size="10.00">tklb::HeapBuffer::closest</text>
<text text-anchor="middle" x="402" y="-46" font-family="Helvetica,sans-Serif" font-size="10.00">ChunkSize</text>
</a>
</g>
</g>
<!-- Node2&#45;&gt;Node7 -->
<g id="edge6" class="edge">
<title>Node2&#45;&gt;Node7</title>
<path fill="none" stroke="midnightblue" d="M295.14,-67.62C304.35,-66.43 313.91,-65.2 323.33,-63.99"/>
<polygon fill="midnightblue" stroke="midnightblue" points="324.02,-67.43 333.49,-62.69 323.13,-60.49 324.02,-67.43"/>
</g>
<!-- Node9 -->
<g id="node9" class="node">
<title>Node9</title>
<g id="a_node9"><a xlink:href="classtklb_1_1_heap_buffer.html#a172cd1dde86d1f3b0308fb0ce4a1758a" target="_top" xlink:title="Returns the amount of elements in the container.">
<polygon fill="none" stroke="black" points="522,-0.5 522,-19.5 644,-19.5 644,-0.5 522,-0.5"/>
<text text-anchor="middle" x="583" y="-7.5" font-family="Helvetica,sans-Serif" font-size="10.00">tklb::HeapBuffer::size</text>
</a>
</g>
</g>
<!-- Node2&#45;&gt;Node9 -->
<g id="edge10" class="edge">
<title>Node2&#45;&gt;Node9</title>
<path fill="none" stroke="midnightblue" d="M245.77,-66.47C265.09,-55.31 299.19,-37.31 331,-29 390.63,-13.42 460.74,-9.24 511.68,-8.63"/>
<polygon fill="midnightblue" stroke="midnightblue" points="511.96,-12.13 521.93,-8.55 511.9,-5.13 511.96,-12.13"/>
</g>
<!-- Node3&#45;&gt;Node4 -->
<g id="edge3" class="edge">
<title>Node3&#45;&gt;Node4</title>
<path fill="none" stroke="midnightblue" d="M433.52,-120.56C454.65,-127.09 483.46,-135.82 509,-143 517.16,-145.29 525.85,-147.64 534.29,-149.87"/>
<polygon fill="midnightblue" stroke="midnightblue" points="533.48,-153.27 544.04,-152.42 535.25,-146.5 533.48,-153.27"/>
</g>
<!-- Node5 -->
<g id="node5" class="node">
<title>Node5</title>
<g id="a_node5"><a xlink:href="classtklb_1_1_heap_buffer.html#a23801c62dcfb74cab62a9998de65adeb" target="_top" xlink:title=" ">
<polygon fill="none" stroke="black" points="509,-114.5 509,-133.5 657,-133.5 657,-114.5 509,-114.5"/>
<text text-anchor="middle" x="583" y="-121.5" font-family="Helvetica,sans-Serif" font-size="10.00">tklb::HeapBuffer::isAligned</text>
</a>
</g>
</g>
<!-- Node3&#45;&gt;Node5 -->
<g id="edge4" class="edge">
<title>Node3&#45;&gt;Node5</title>
<path fill="none" stroke="midnightblue" d="M473.23,-116.1C481.52,-116.7 490.04,-117.32 498.48,-117.93"/>
<polygon fill="midnightblue" stroke="midnightblue" points="498.5,-121.44 508.73,-118.68 499.01,-114.46 498.5,-121.44"/>
</g>
<!-- Node6 -->
<g id="node6" class="node">
<title>Node6</title>
<g id="a_node6"><a xlink:href="namespacetklb.html#a3080595da18d742645ec41d61828a426" target="_top" xlink:title=" ">
<polygon fill="none" stroke="black" points="553,-76.5 553,-95.5 613,-95.5 613,-76.5 553,-76.5"/>
<text text-anchor="middle" x="583" y="-83.5" font-family="Helvetica,sans-Serif" font-size="10.00">tklb::min</text>
</a>
</g>
</g>
<!-- Node3&#45;&gt;Node6 -->
<g id="edge5" class="edge">
<title>Node3&#45;&gt;Node6</title>
<path fill="none" stroke="midnightblue" d="M471.18,-101.48C495.36,-98.1 521.73,-94.42 542.68,-91.49"/>
<polygon fill="midnightblue" stroke="midnightblue" points="543.38,-94.93 552.8,-90.08 542.42,-87.99 543.38,-94.93"/>
</g>
<!-- Node8 -->
<g id="node8" class="node">
<title>Node8</title>
<g id="a_node8"><a xlink:href="namespacetklb.html#a7dc2203e89c331e3c85b9e7f16fa6763" target="_top" xlink:title=" ">
<polygon fill="none" stroke="black" points="551.5,-38.5 551.5,-57.5 614.5,-57.5 614.5,-38.5 551.5,-38.5"/>
<text text-anchor="middle" x="583" y="-45.5" font-family="Helvetica,sans-Serif" font-size="10.00">tklb::max</text>
</a>
</g>
</g>
<!-- Node7&#45;&gt;Node8 -->
<g id="edge7" class="edge">
<title>Node7&#45;&gt;Node8</title>
<path fill="none" stroke="midnightblue" d="M470.67,-51.73C494.39,-50.94 520.28,-50.07 541.12,-49.37"/>
<polygon fill="midnightblue" stroke="midnightblue" points="541.34,-52.87 551.22,-49.03 541.1,-45.87 541.34,-52.87"/>
</g>
<!-- Node7&#45;&gt;Node9 -->
<g id="edge8" class="edge">
<title>Node7&#45;&gt;Node9</title>
<path fill="none" stroke="midnightblue" d="M464.1,-38.98C486.75,-33.41 512.1,-27.18 533.47,-21.93"/>
<polygon fill="midnightblue" stroke="midnightblue" points="534.43,-25.3 543.3,-19.51 532.76,-18.5 534.43,-25.3"/>
</g>
</g>
</svg>
        <g id="navigator" transform="translate(0 0)" fill="#404254">
                <rect fill="#f2f5e9" fill-opacity="0.5" stroke="#606060" stroke-width=".5" x="0" y="0" width="60" height="60"/>
                <use id="zoomplus" xlink:href="#zoomPlus" x="17" y="9" onmousedown="handleZoom(evt,'in')"/>
                <use id="zoomminus" xlink:href="#zoomMin" x="42" y="9" onmousedown="handleZoom(evt,'out')"/>
                <use id="reset" xlink:href="#resetDef" x="30" y="36" onmousedown="handleReset()"/>
                <g id="arrowUp" xlink:href="#dirArrow" transform="translate(30 24)" onmousedown="handlePan(0,-1)">
                  <use xlink:href="#rim" fill="#404040">
                        <set attributeName="fill" to="#808080" begin="arrowUp.mouseover" end="arrowUp.mouseout"/>
                  </use>
                  <path fill="none" stroke="white" stroke-width="1.5" d="M0,-3.0v7 M-2.5,-0.5L0,-3.0L2.5,-0.5"/>
                </g>
                <g id="arrowRight" xlink:href="#dirArrow" transform="rotate(90) translate(36 -43)" onmousedown="handlePan(1,0)">
                  <use xlink:href="#rim" fill="#404040">
                        <set attributeName="fill" to="#808080" begin="arrowRight.mouseover" end="arrowRight.mouseout"/>
                  </use>
                  <path fill="none" stroke="white" stroke-width="1.5" d="M0,-3.0v7 M-2.5,-0.5L0,-3.0L2.5,-0.5"/>
                </g>
                <g id="arrowDown" xlink:href="#dirArrow" transform="rotate(180) translate(-30 -48)" onmousedown="handlePan(0,1)">
                  <use xlink:href="#rim" fill="#404040">
                        <set attributeName="fill" to="#808080" begin="arrowDown.mouseover" end="arrowDown.mouseout"/>
                  </use>
                  <path fill="none" stroke="white" stroke-width="1.5" d="M0,-3.0v7 M-2.5,-0.5L0,-3.0L2.5,-0.5"/>
                </g>
                <g id="arrowLeft" xlink:href="#dirArrow" transform="rotate(270) translate(-36 17)" onmousedown="handlePan(-1,0)">
                  <use xlink:href="#rim" fill="#404040">
                        <set attributeName="fill" to="#808080" begin="arrowLeft.mouseover" end="arrowLeft.mouseout"/>
                  </use>
                  <path fill="none" stroke="white" stroke-width="1.5" d="M0,-3.0v7 M-2.5,-0.5L0,-3.0L2.5,-0.5"/>
                </g>
        </g>
        <svg viewBox="0 0 15 15" width="100%" height="30px" preserveAspectRatio="xMaxYMin meet">
         <g id="arrow_out" transform="scale(0.3 0.3)">
          <a xlink:href="classtklb_1_1_heap_buffer_ac595de86ab0e2f33c79034b9e64db0a8_cgraph_org.svg" target="_base">
           <rect id="button" ry="5" rx="5" y="6" x="6" height="38" width="38"
                fill="#f2f5e9" fill-opacity="0.5" stroke="#606060" stroke-width="1.0"/>
           <path id="arrow"
             d="M 11.500037,31.436501 C 11.940474,20.09759 22.043105,11.32322 32.158766,21.979434 L 37.068811,17.246167 C 37.068811,17.246167 37.088388,32 37.088388,32 L 22.160133,31.978069 C 22.160133,31.978069 26.997745,27.140456 26.997745,27.140456 C 18.528582,18.264221 13.291696,25.230495 11.500037,31.436501 z"
             style="fill:#404040;"/>
          </a>
         </g>
        </svg>
</svg>
