<?xml version="1.0" encoding="UTF-8" standalone="no"?>
<!DOCTYPE svg PUBLIC "-//W3C//DTD SVG 1.1//EN"
 "http://www.w3.org/Graphics/SVG/1.1/DTD/svg11.dtd">
<!-- Generated by graphviz version 2.50.0 (0)
 -->
<!-- Title: tklb::memory::MemoryPoolStack Pages: 1 -->
<svg width="365pt" height="784pt"
 viewBox="0.00 0.00 364.50 784.00" xmlns="http://www.w3.org/2000/svg" xmlns:xlink="http://www.w3.org/1999/xlink">
<g id="graph0" class="graph" transform="scale(1 1) rotate(0) translate(4 780)">
<title>tklb::memory::MemoryPoolStack</title>
<!-- Node1 -->
<g id="node1" class="node">
<title>Node1</title>
<g id="a_node1"><a xlink:title="Stack based pool.">
<polygon fill="#bfbfbf" stroke="black" points="39.5,-0.5 39.5,-101.5 188.5,-101.5 188.5,-0.5 39.5,-0.5"/>
<text text-anchor="start" x="47.5" y="-89.5" font-family="Helvetica,sans-Serif" font-size="10.00">tklb::memory::MemoryPool</text>
<text text-anchor="middle" x="114" y="-78.5" font-family="Helvetica,sans-Serif" font-size="10.00">Stack</text>
<polyline fill="none" stroke="black" points="39.5,-71.5 188.5,-71.5 "/>
<text text-anchor="middle" x="114" y="-59.5" font-family="Helvetica,sans-Serif" font-size="10.00"> </text>
<polyline fill="none" stroke="black" points="39.5,-52.5 188.5,-52.5 "/>
<text text-anchor="start" x="47.5" y="-40.5" font-family="Helvetica,sans-Serif" font-size="10.00">+ MemoryPoolStack()</text>
<text text-anchor="start" x="47.5" y="-29.5" font-family="Helvetica,sans-Serif" font-size="10.00">+ allocate()</text>
<text text-anchor="start" x="47.5" y="-18.5" font-family="Helvetica,sans-Serif" font-size="10.00">+ deallocate()</text>
<text text-anchor="start" x="47.5" y="-7.5" font-family="Helvetica,sans-Serif" font-size="10.00">+ reallocate()</text>
</a>
</g>
</g>
<!-- Node2 -->
<g id="node2" class="node">
<title>Node2</title>
<g id="a_node2"><a xlink:href="classtklb_1_1memory_1_1_memory_pool.html" target="_top" xlink:title="Memory pool interface.">
<polygon fill="none" stroke="black" points="39.5,-139.5 39.5,-339.5 188.5,-339.5 188.5,-139.5 39.5,-139.5"/>
<text text-anchor="middle" x="114" y="-327.5" font-family="Helvetica,sans-Serif" font-size="10.00">tklb::memory::MemoryPool</text>
<polyline fill="none" stroke="black" points="39.5,-320.5 188.5,-320.5 "/>
<text text-anchor="middle" x="114" y="-308.5" font-family="Helvetica,sans-Serif" font-size="10.00"> </text>
<polyline fill="none" stroke="black" points="39.5,-301.5 188.5,-301.5 "/>
<text text-anchor="start" x="47.5" y="-289.5" font-family="Helvetica,sans-Serif" font-size="10.00">+ MemoryPool()</text>
<text text-anchor="start" x="47.5" y="-278.5" font-family="Helvetica,sans-Serif" font-size="10.00">+ ~MemoryPool()</text>
<text text-anchor="start" x="47.5" y="-267.5" font-family="Helvetica,sans-Serif" font-size="10.00">+ getAllocated()</text>
<text text-anchor="start" x="47.5" y="-256.5" font-family="Helvetica,sans-Serif" font-size="10.00">+ getTotalSize()</text>
<text text-anchor="start" x="47.5" y="-245.5" font-family="Helvetica,sans-Serif" font-size="10.00">+ allocate()</text>
<text text-anchor="start" x="47.5" y="-234.5" font-family="Helvetica,sans-Serif" font-size="10.00">+ deallocate()</text>
<text text-anchor="start" x="47.5" y="-223.5" font-family="Helvetica,sans-Serif" font-size="10.00">+ reallocate()</text>
<text text-anchor="start" x="47.5" y="-212.5" font-family="Helvetica,sans-Serif" font-size="10.00">+ clearallocate()</text>
<text text-anchor="start" x="47.5" y="-201.5" font-family="Helvetica,sans-Serif" font-size="10.00">+ create()</text>
<text text-anchor="start" x="47.5" y="-190.5" font-family="Helvetica,sans-Serif" font-size="10.00">+ createArray()</text>
<text text-anchor="start" x="47.5" y="-179.5" font-family="Helvetica,sans-Serif" font-size="10.00">+ dispose()</text>
<text text-anchor="start" x="47.5" y="-168.5" font-family="Helvetica,sans-Serif" font-size="10.00">+ disposeArray()</text>
<text text-anchor="start" x="47.5" y="-157.5" font-family="Helvetica,sans-Serif" font-size="10.00">+ deallocateAligned()</text>
<text text-anchor="start" x="47.5" y="-146.5" font-family="Helvetica,sans-Serif" font-size="10.00">+ allocateAligned()</text>
</a>
</g>
</g>
<!-- Node2&#45;&gt;Node1 -->
<g id="edge1" class="edge">
<title>Node2&#45;&gt;Node1</title>
<path fill="none" stroke="midnightblue" d="M114,-129.2C114,-119.63 114,-110.29 114,-101.6"/>
<polygon fill="none" stroke="midnightblue" points="110.5,-129.24 114,-139.24 117.5,-129.24 110.5,-129.24"/>
</g>
<!-- Node3 -->
<g id="node3" class="node">
<title>Node3</title>
<g id="a_node3"><a xlink:title=" ">
<polygon fill="none" stroke="#bfbfbf" points="0,-393 0,-450 118,-450 118,-393 0,-393"/>
<text text-anchor="middle" x="59" y="-438" font-family="Helvetica,sans-Serif" font-size="10.00">static constexpr Size</text>
<polyline fill="none" stroke="#bfbfbf" points="0,-431 118,-431 "/>
<text text-anchor="middle" x="59" y="-419" font-family="Helvetica,sans-Serif" font-size="10.00"> </text>
<polyline fill="none" stroke="#bfbfbf" points="0,-412 118,-412 "/>
<text text-anchor="middle" x="59" y="-400" font-family="Helvetica,sans-Serif" font-size="10.00"> </text>
</a>
</g>
</g>
<!-- Node3&#45;&gt;Node2 -->
<g id="edge2" class="edge">
<title>Node3&#45;&gt;Node2</title>
<path fill="none" stroke="#404040" d="M67.47,-392.77C71.03,-381.14 75.41,-366.79 80.06,-351.58"/>
<polygon fill="none" stroke="#404040" points="80.14,-351.3 78.07,-344.39 83.65,-339.82 85.72,-346.73 80.14,-351.3"/>
<text text-anchor="middle" x="121" y="-361" font-family="Helvetica,sans-Serif" font-size="10.00"> #DEFAULT_ALIGN</text>
</g>
<!-- Node4 -->
<g id="node4" class="node">
<title>Node4</title>
<g id="a_node4"><a xlink:href="structtklb_1_1memory_1_1_memory_pool_1_1_shared_pool.html" target="_top" xlink:title="Pools can share the same space, but use it differently.">
<polygon fill="none" stroke="black" points="136.5,-387.5 136.5,-455.5 285.5,-455.5 285.5,-387.5 136.5,-387.5"/>
<text text-anchor="start" x="144.5" y="-443.5" font-family="Helvetica,sans-Serif" font-size="10.00">tklb::memory::MemoryPool</text>
<text text-anchor="middle" x="211" y="-432.5" font-family="Helvetica,sans-Serif" font-size="10.00">::SharedPool</text>
<polyline fill="none" stroke="black" points="136.5,-425.5 285.5,-425.5 "/>
<text text-anchor="middle" x="211" y="-413.5" font-family="Helvetica,sans-Serif" font-size="10.00"> </text>
<polyline fill="none" stroke="black" points="136.5,-406.5 285.5,-406.5 "/>
<text text-anchor="middle" x="211" y="-394.5" font-family="Helvetica,sans-Serif" font-size="10.00"> </text>
</a>
</g>
</g>
<!-- Node4&#45;&gt;Node2 -->
<g id="edge3" class="edge">
<title>Node4&#45;&gt;Node2</title>
<path fill="none" stroke="#404040" d="M193.21,-387.49C187.34,-376.59 180.45,-363.81 173.23,-350.41"/>
<polygon fill="none" stroke="#404040" points="173.07,-350.11 166.7,-346.73 167.38,-339.55 173.74,-342.93 173.07,-350.11"/>
<text text-anchor="middle" x="203.5" y="-361" font-family="Helvetica,sans-Serif" font-size="10.00"> #mPool</text>
</g>
<!-- Node5 -->
<g id="node5" class="node">
<title>Node5</title>
<g id="a_node5"><a xlink:title=" ">
<polygon fill="none" stroke="#bfbfbf" points="92,-569.5 92,-626.5 150,-626.5 150,-569.5 92,-569.5"/>
<text text-anchor="middle" x="121" y="-614.5" font-family="Helvetica,sans-Serif" font-size="10.00">uintptr_t</text>
<polyline fill="none" stroke="#bfbfbf" points="92,-607.5 150,-607.5 "/>
<text text-anchor="middle" x="121" y="-595.5" font-family="Helvetica,sans-Serif" font-size="10.00"> </text>
<polyline fill="none" stroke="#bfbfbf" points="92,-588.5 150,-588.5 "/>
<text text-anchor="middle" x="121" y="-576.5" font-family="Helvetica,sans-Serif" font-size="10.00"> </text>
</a>
</g>
</g>
<!-- Node5&#45;&gt;Node4 -->
<g id="edge4" class="edge">
<title>Node5&#45;&gt;Node4</title>
<path fill="none" stroke="#404040" d="M122.57,-569.21C125.15,-542.97 131.98,-503.35 150,-474 151.97,-470.8 154.2,-467.69 156.63,-464.71"/>
<polygon fill="none" stroke="#404040" points="156.85,-464.46 157.92,-457.33 164.92,-455.57 163.84,-462.7 156.85,-464.46"/>
<text text-anchor="middle" x="178.5" y="-499" font-family="Helvetica,sans-Serif" font-size="10.00"> +allocated</text>
<text text-anchor="middle" x="178.5" y="-488" font-family="Helvetica,sans-Serif" font-size="10.00">+size</text>
<text text-anchor="middle" x="178.5" y="-477" font-family="Helvetica,sans-Serif" font-size="10.00">+users</text>
</g>
<!-- Node6 -->
<g id="node6" class="node">
<title>Node6</title>
<g id="a_node6"><a xlink:href="classtklb_1_1_spin_lock.html" target="_top" xlink:title="Spinlock ! probably not thread safe.">
<polygon fill="none" stroke="black" points="168.5,-525.5 168.5,-670.5 253.5,-670.5 253.5,-525.5 168.5,-525.5"/>
<text text-anchor="middle" x="211" y="-658.5" font-family="Helvetica,sans-Serif" font-size="10.00">tklb::SpinLock</text>
<polyline fill="none" stroke="black" points="168.5,-651.5 253.5,-651.5 "/>
<text text-anchor="middle" x="211" y="-639.5" font-family="Helvetica,sans-Serif" font-size="10.00"> </text>
<polyline fill="none" stroke="black" points="168.5,-632.5 253.5,-632.5 "/>
<text text-anchor="start" x="176.5" y="-620.5" font-family="Helvetica,sans-Serif" font-size="10.00">+ SpinLock()</text>
<text text-anchor="start" x="176.5" y="-609.5" font-family="Helvetica,sans-Serif" font-size="10.00">+ SpinLock()</text>
<text text-anchor="start" x="176.5" y="-598.5" font-family="Helvetica,sans-Serif" font-size="10.00">+ SpinLock()</text>
<text text-anchor="start" x="176.5" y="-587.5" font-family="Helvetica,sans-Serif" font-size="10.00">+ operator=()</text>
<text text-anchor="start" x="176.5" y="-576.5" font-family="Helvetica,sans-Serif" font-size="10.00">+ operator=()</text>
<text text-anchor="start" x="176.5" y="-565.5" font-family="Helvetica,sans-Serif" font-size="10.00">+ SpinLock()</text>
<text text-anchor="start" x="176.5" y="-554.5" font-family="Helvetica,sans-Serif" font-size="10.00">+ lock()</text>
<text text-anchor="start" x="176.5" y="-543.5" font-family="Helvetica,sans-Serif" font-size="10.00">+ unlock()</text>
<text text-anchor="start" x="176.5" y="-532.5" font-family="Helvetica,sans-Serif" font-size="10.00">+ try_lock()</text>
</a>
</g>
</g>
<!-- Node6&#45;&gt;Node4 -->
<g id="edge5" class="edge">
<title>Node6&#45;&gt;Node4</title>
<path fill="none" stroke="#404040" d="M211,-525.27C211,-505.9 211,-485.49 211,-468"/>
<polygon fill="none" stroke="#404040" points="211,-467.84 207,-461.84 211,-455.84 215,-461.84 211,-467.84"/>
<text text-anchor="middle" x="232.5" y="-488" font-family="Helvetica,sans-Serif" font-size="10.00"> +mutex</text>
</g>
<!-- Node7 -->
<g id="node7" class="node">
<title>Node7</title>
<g id="a_node7"><a xlink:title=" ">
<polygon fill="none" stroke="#bfbfbf" points="192,-718.5 192,-775.5 230,-775.5 230,-718.5 192,-718.5"/>
<text text-anchor="middle" x="211" y="-763.5" font-family="Helvetica,sans-Serif" font-size="10.00">bool</text>
<polyline fill="none" stroke="#bfbfbf" points="192,-756.5 230,-756.5 "/>
<text text-anchor="middle" x="211" y="-744.5" font-family="Helvetica,sans-Serif" font-size="10.00"> </text>
<polyline fill="none" stroke="#bfbfbf" points="192,-737.5 230,-737.5 "/>
<text text-anchor="middle" x="211" y="-725.5" font-family="Helvetica,sans-Serif" font-size="10.00"> </text>
</a>
</g>
</g>
<!-- Node7&#45;&gt;Node6 -->
<g id="edge6" class="edge">
<title>Node7&#45;&gt;Node6</title>
<path fill="none" stroke="#404040" d="M211,-718.35C211,-708.01 211,-695.66 211,-682.89"/>
<polygon fill="none" stroke="#404040" points="211,-682.56 207,-676.56 211,-670.56 215,-676.56 211,-682.56"/>
<text text-anchor="middle" x="241.5" y="-692" font-family="Helvetica,sans-Serif" font-size="10.00"> &#45;mSpinLock</text>
</g>
<!-- Node8 -->
<g id="node8" class="node">
<title>Node8</title>
<g id="a_node8"><a xlink:title=" ">
<polygon fill="none" stroke="#bfbfbf" points="271.5,-569.5 271.5,-626.5 356.5,-626.5 356.5,-569.5 271.5,-569.5"/>
<text text-anchor="middle" x="314" y="-614.5" font-family="Helvetica,sans-Serif" font-size="10.00">unsigned char</text>
<polyline fill="none" stroke="#bfbfbf" points="271.5,-607.5 356.5,-607.5 "/>
<text text-anchor="middle" x="314" y="-595.5" font-family="Helvetica,sans-Serif" font-size="10.00"> </text>
<polyline fill="none" stroke="#bfbfbf" points="271.5,-588.5 356.5,-588.5 "/>
<text text-anchor="middle" x="314" y="-576.5" font-family="Helvetica,sans-Serif" font-size="10.00"> </text>
</a>
</g>
</g>
<!-- Node8&#45;&gt;Node4 -->
<g id="edge7" class="edge">
<title>Node8&#45;&gt;Node4</title>
<path fill="none" stroke="#404040" d="M304.27,-569.34C294.55,-543.54 278.17,-504.55 258,-474 256,-470.97 253.82,-467.94 251.53,-464.95"/>
<polygon fill="none" stroke="#404040" points="251.51,-464.92 244.62,-462.79 243.94,-455.61 250.83,-457.74 251.51,-464.92"/>
<text text-anchor="middle" x="302.5" y="-488" font-family="Helvetica,sans-Serif" font-size="10.00"> +memory</text>
</g>
</g>
</svg>
