<?xml version="1.0" encoding="UTF-8" standalone="no"?>
<!DOCTYPE svg PUBLIC "-//W3C//DTD SVG 1.1//EN"
 "http://www.w3.org/Graphics/SVG/1.1/DTD/svg11.dtd">
<!-- Generated by graphviz version 2.50.0 (0)
 -->
<!-- Title: vae::core::SpatialProcessor Pages: 1 -->
<!--zoomable 1620 -->
<svg id="main" version="1.1" xmlns="http://www.w3.org/2000/svg" xmlns:xlink="http://www.w3.org/1999/xlink" xml:space="preserve" onload="init(evt)">
<style type="text/css"><![CDATA[
.edge:hover path { stroke: red; }
.edge:hover polygon { stroke: red; fill: red; }
]]></style>
<script type="text/javascript"><![CDATA[
var edges = document.getElementsByTagName('g');
if (edges && edges.length) {
  for (var i=0;i<edges.length;i++) {
    if (edges[i].id.substr(0,4)=='edge') {
      edges[i].setAttribute('class','edge');
    }
  }
}
]]></script>
        <defs>
                <circle id="rim" cx="0" cy="0" r="7"/>
                <circle id="rim2" cx="0" cy="0" r="3.5"/>
                <g id="zoomPlus">
                        <use xlink:href="#rim" fill="#404040">
                                <set attributeName="fill" to="#808080" begin="zoomplus.mouseover" end="zoomplus.mouseout"/>
                        </use>
                        <path d="M-4,0h8M0,-4v8" fill="none" stroke="white" stroke-width="1.5" pointer-events="none"/>
                </g>
                <g id="zoomMin">
                        <use xlink:href="#rim" fill="#404040">
                                <set attributeName="fill" to="#808080" begin="zoomminus.mouseover" end="zoomminus.mouseout"/>
                        </use>
                        <path d="M-4,0h8" fill="none" stroke="white" stroke-width="1.5" pointer-events="none"/>
                </g>
                <g id="dirArrow">
                        <path fill="none" stroke="white" stroke-width="1.5" d="M0,-3.0v7 M-2.5,-0.5L0,-3.0L2.5,-0.5"/>
                </g>
               <g id="resetDef">
                       <use xlink:href="#rim2" fill="#404040">
                               <set attributeName="fill" to="#808080" begin="reset.mouseover" end="reset.mouseout"/>
                       </use>
               </g>
        </defs>

<script type="text/javascript">
var viewWidth = 731;
var viewHeight = 1620;
var sectionId = 'dynsection-0';
</script>
<script xlink:href="svgpan.js"/>
<svg id="graph" class="graph">
<g id="viewport">
<title>vae::core::SpatialProcessor</title>
<!-- Node1 -->
<g id="node1" class="node">
<title>Node1</title>
<g id="a_node1"><a xlink:title=" ">
<polygon fill="#bfbfbf" stroke="black" points="199.23,-0.5 199.23,-79.5 348.23,-79.5 348.23,-0.5 199.23,-0.5"/>
<text text-anchor="middle" x="273.73" y="-67.5" font-family="Helvetica,sans-Serif" font-size="10.00">vae::core::SpatialProcessor</text>
<polyline fill="none" stroke="black" points="199.23,-60.5 348.23,-60.5 "/>
<text text-anchor="middle" x="273.73" y="-48.5" font-family="Helvetica,sans-Serif" font-size="10.00"> </text>
<polyline fill="none" stroke="black" points="199.23,-41.5 348.23,-41.5 "/>
<text text-anchor="start" x="207.23" y="-29.5" font-family="Helvetica,sans-Serif" font-size="10.00">+ init()</text>
<text text-anchor="start" x="207.23" y="-18.5" font-family="Helvetica,sans-Serif" font-size="10.00">+ mix()</text>
<text text-anchor="start" x="207.23" y="-7.5" font-family="Helvetica,sans-Serif" font-size="10.00">+ loadHRTF()</text>
</a>
</g>
</g>
<!-- Node2 -->
<g id="node2" class="node">
<title>Node2</title>
<g id="a_node2"><a xlink:href="structvae_1_1core_1_1_h_r_t_f.html" target="_top" xlink:title=" ">
<polygon fill="none" stroke="black" points="132.23,-243 132.23,-300 225.23,-300 225.23,-243 132.23,-243"/>
<text text-anchor="middle" x="178.73" y="-288" font-family="Helvetica,sans-Serif" font-size="10.00">vae::core::HRTF</text>
<polyline fill="none" stroke="black" points="132.23,-281 225.23,-281 "/>
<text text-anchor="middle" x="178.73" y="-269" font-family="Helvetica,sans-Serif" font-size="10.00"> </text>
<polyline fill="none" stroke="black" points="132.23,-262 225.23,-262 "/>
<text text-anchor="middle" x="178.73" y="-250" font-family="Helvetica,sans-Serif" font-size="10.00"> </text>
</a>
</g>
</g>
<!-- Node2&#45;&gt;Node1 -->
<g id="edge1" class="edge">
<title>Node2&#45;&gt;Node1</title>
<path fill="none" stroke="#404040" d="M185.44,-242.72C194.4,-207.87 211.96,-146.76 235.73,-98 236.98,-95.43 238.34,-92.84 239.76,-90.25"/>
<polygon fill="none" stroke="#404040" points="239.86,-90.09 239.44,-82.89 245.93,-79.73 246.34,-86.93 239.86,-90.09"/>
<text text-anchor="middle" x="257.23" y="-101" font-family="Helvetica,sans-Serif" font-size="10.00"> &#45;mHRTF</text>
</g>
<!-- Node3 -->
<g id="node3" class="node">
<title>Node3</title>
<g id="a_node3"><a xlink:title=" ">
<polygon fill="none" stroke="#bfbfbf" points="23.73,-573.5 23.73,-630.5 103.73,-630.5 103.73,-573.5 23.73,-573.5"/>
<text text-anchor="middle" x="63.73" y="-618.5" font-family="Helvetica,sans-Serif" font-size="10.00">HeapBuffer&lt;</text>
<polyline fill="none" stroke="#bfbfbf" points="23.73,-611.5 103.73,-611.5 "/>
<text text-anchor="middle" x="63.73" y="-599.5" font-family="Helvetica,sans-Serif" font-size="10.00"> </text>
<polyline fill="none" stroke="#bfbfbf" points="23.73,-592.5 103.73,-592.5 "/>
<text text-anchor="middle" x="63.73" y="-580.5" font-family="Helvetica,sans-Serif" font-size="10.00"> </text>
</a>
</g>
</g>
<!-- Node3&#45;&gt;Node1 -->
<g id="edge5" class="edge">
<title>Node3&#45;&gt;Node1</title>
<path fill="none" stroke="#404040" d="M52.63,-573.28C23.28,-495 -47.72,-268.81 49.73,-127 80.52,-82.2 138.12,-60.73 187.2,-50.44"/>
<polygon fill="none" stroke="#404040" points="187.37,-50.41 192.49,-45.34 199.15,-48.12 194.02,-53.19 187.37,-50.41"/>
<text text-anchor="middle" x="86.23" y="-269" font-family="Helvetica,sans-Serif" font-size="10.00"> &#45;mVoiceHRTFs</text>
</g>
<!-- Node3&#45;&gt;Node2 -->
<g id="edge2" class="edge">
<title>Node3&#45;&gt;Node2</title>
<path fill="none" stroke="#404040" d="M72.47,-573.41C83.06,-540.21 101.63,-482.83 118.73,-434 133.48,-391.89 151.42,-344.01 163.81,-311.39"/>
<polygon fill="none" stroke="#404040" points="163.84,-311.32 162.24,-304.29 168.11,-300.11 169.72,-307.14 163.84,-311.32"/>
<text text-anchor="middle" x="146.73" y="-453.5" font-family="Helvetica,sans-Serif" font-size="10.00"> +positions</text>
</g>
<!-- Node4 -->
<g id="node4" class="node">
<title>Node4</title>
<g id="a_node4"><a xlink:title=" ">
<polygon fill="none" stroke="#bfbfbf" points="164.23,-573.5 164.23,-630.5 193.23,-630.5 193.23,-573.5 164.23,-573.5"/>
<text text-anchor="middle" x="178.73" y="-618.5" font-family="Helvetica,sans-Serif" font-size="10.00">int</text>
<polyline fill="none" stroke="#bfbfbf" points="164.23,-611.5 193.23,-611.5 "/>
<text text-anchor="middle" x="178.73" y="-599.5" font-family="Helvetica,sans-Serif" font-size="10.00"> </text>
<polyline fill="none" stroke="#bfbfbf" points="164.23,-592.5 193.23,-592.5 "/>
<text text-anchor="middle" x="178.73" y="-580.5" font-family="Helvetica,sans-Serif" font-size="10.00"> </text>
</a>
</g>
</g>
<!-- Node4&#45;&gt;Node2 -->
<g id="edge3" class="edge">
<title>Node4&#45;&gt;Node2</title>
<path fill="none" stroke="#404040" d="M178.73,-573.28C178.73,-515 178.73,-379.65 178.73,-312.19"/>
<polygon fill="none" stroke="#404040" points="178.73,-312.03 174.73,-306.03 178.73,-300.03 182.73,-306.03 178.73,-312.03"/>
<text text-anchor="middle" x="212.73" y="-464.5" font-family="Helvetica,sans-Serif" font-size="10.00"> +irLength</text>
<text text-anchor="middle" x="212.73" y="-453.5" font-family="Helvetica,sans-Serif" font-size="10.00">+originalRate</text>
<text text-anchor="middle" x="212.73" y="-442.5" font-family="Helvetica,sans-Serif" font-size="10.00">+rate</text>
</g>
<!-- Node5 -->
<g id="node5" class="node">
<title>Node5</title>
<g id="a_node5"><a xlink:href="classvae_1_1core_1_1_h_r_t_f_loader.html" target="_top" xlink:title=" ">
<polygon fill="none" stroke="black" points="243.73,-232 243.73,-311 369.73,-311 369.73,-232 243.73,-232"/>
<text text-anchor="middle" x="306.73" y="-299" font-family="Helvetica,sans-Serif" font-size="10.00">vae::core::HRTFLoader</text>
<polyline fill="none" stroke="black" points="243.73,-292 369.73,-292 "/>
<text text-anchor="middle" x="306.73" y="-280" font-family="Helvetica,sans-Serif" font-size="10.00"> </text>
<polyline fill="none" stroke="black" points="243.73,-273 369.73,-273 "/>
<text text-anchor="start" x="251.73" y="-261" font-family="Helvetica,sans-Serif" font-size="10.00">+ load()</text>
<text text-anchor="start" x="251.73" y="-250" font-family="Helvetica,sans-Serif" font-size="10.00">&#45; allocate()</text>
<text text-anchor="start" x="251.73" y="-239" font-family="Helvetica,sans-Serif" font-size="10.00">&#45; deallocate()</text>
</a>
</g>
</g>
<!-- Node5&#45;&gt;Node1 -->
<g id="edge4" class="edge">
<title>Node5&#45;&gt;Node1</title>
<path fill="none" stroke="#404040" d="M301.17,-231.83C295.64,-193.34 287.11,-134.08 281.04,-91.81"/>
<polygon fill="none" stroke="#404040" points="281.02,-91.71 276.21,-86.34 279.31,-79.83 284.13,-85.2 281.02,-91.71"/>
<text text-anchor="middle" x="321.73" y="-101" font-family="Helvetica,sans-Serif" font-size="10.00"> &#45;mHRTFLoader</text>
</g>
<!-- Node6 -->
<g id="node6" class="node">
<title>Node6</title>
<g id="a_node6"><a xlink:href="classtklb_1_1_audio_buffer_tpl.html" target="_top" xlink:title=" ">
<polygon fill="none" stroke="black" points="388.23,-127.5 388.23,-415.5 591.23,-415.5 591.23,-127.5 388.23,-127.5"/>
<text text-anchor="start" x="396.23" y="-403.5" font-family="Helvetica,sans-Serif" font-size="10.00">tklb::AudioBufferTpl</text>
<text text-anchor="start" x="396.23" y="-392.5" font-family="Helvetica,sans-Serif" font-size="10.00">&lt; Sample, tklb::HeapBuffer</text>
<text text-anchor="start" x="396.23" y="-381.5" font-family="Helvetica,sans-Serif" font-size="10.00">&lt; Sample, tklb::DEFAULT_ALIGNMENT,</text>
<text text-anchor="start" x="396.23" y="-370.5" font-family="Helvetica,sans-Serif" font-size="10.00"> memory::AllocatorScratch&lt; unsigned</text>
<text text-anchor="middle" x="489.73" y="-359.5" font-family="Helvetica,sans-Serif" font-size="10.00"> char &gt; &gt; &gt;</text>
<polyline fill="none" stroke="black" points="388.23,-352.5 591.23,-352.5 "/>
<text text-anchor="start" x="396.23" y="-340.5" font-family="Helvetica,sans-Serif" font-size="10.00">+ sampleRate</text>
<text text-anchor="start" x="396.23" y="-329.5" font-family="Helvetica,sans-Serif" font-size="10.00">+ Stride</text>
<text text-anchor="start" x="396.23" y="-318.5" font-family="Helvetica,sans-Serif" font-size="10.00">&#45; mBuffer</text>
<text text-anchor="start" x="396.23" y="-307.5" font-family="Helvetica,sans-Serif" font-size="10.00">&#45; mValidSize</text>
<text text-anchor="start" x="396.23" y="-296.5" font-family="Helvetica,sans-Serif" font-size="10.00">&#45; mChannels</text>
<polyline fill="none" stroke="black" points="388.23,-289.5 591.23,-289.5 "/>
<text text-anchor="start" x="396.23" y="-277.5" font-family="Helvetica,sans-Serif" font-size="10.00">+ AudioBufferTpl()</text>
<text text-anchor="start" x="396.23" y="-266.5" font-family="Helvetica,sans-Serif" font-size="10.00">+ AudioBufferTpl()</text>
<text text-anchor="start" x="396.23" y="-255.5" font-family="Helvetica,sans-Serif" font-size="10.00">+ AudioBufferTpl()</text>
<text text-anchor="start" x="396.23" y="-244.5" font-family="Helvetica,sans-Serif" font-size="10.00">+ AudioBufferTpl()</text>
<text text-anchor="start" x="396.23" y="-233.5" font-family="Helvetica,sans-Serif" font-size="10.00">+ AudioBufferTpl()</text>
<text text-anchor="start" x="396.23" y="-222.5" font-family="Helvetica,sans-Serif" font-size="10.00">+ ~AudioBufferTpl()</text>
<text text-anchor="start" x="396.23" y="-211.5" font-family="Helvetica,sans-Serif" font-size="10.00">+ operator=()</text>
<text text-anchor="start" x="396.23" y="-200.5" font-family="Helvetica,sans-Serif" font-size="10.00">+ operator=()</text>
<text text-anchor="start" x="396.23" y="-189.5" font-family="Helvetica,sans-Serif" font-size="10.00">+ set()</text>
<text text-anchor="start" x="396.23" y="-178.5" font-family="Helvetica,sans-Serif" font-size="10.00">+ set()</text>
<text text-anchor="start" x="396.23" y="-167.5" font-family="Helvetica,sans-Serif" font-size="10.00">and 26 more...</text>
<text text-anchor="start" x="396.23" y="-156.5" font-family="Helvetica,sans-Serif" font-size="10.00">+ needsScaling()</text>
<text text-anchor="start" x="396.23" y="-145.5" font-family="Helvetica,sans-Serif" font-size="10.00">+ getConversionScale()</text>
<text text-anchor="start" x="396.23" y="-134.5" font-family="Helvetica,sans-Serif" font-size="10.00">&#45; assertOnConstMem()</text>
</a>
</g>
</g>
<!-- Node6&#45;&gt;Node1 -->
<g id="edge6" class="edge">
<title>Node6&#45;&gt;Node1</title>
<path fill="none" stroke="#404040" d="M392.1,-127.49C382.98,-117.09 373.48,-107.12 363.73,-98 359.75,-94.27 355.49,-90.65 351.07,-87.15"/>
<polygon fill="none" stroke="#404040" points="350.78,-86.93 343.58,-86.52 341.19,-79.72 348.39,-80.13 350.78,-86.93"/>
<text text-anchor="middle" x="414.23" y="-101" font-family="Helvetica,sans-Serif" font-size="10.00"> &#45;mScratchBuffer</text>
</g>
<!-- Node7 -->
<g id="node7" class="node">
<title>Node7</title>
<g id="a_node7"><a xlink:href="classtklb_1_1_audio_buffer_tpl.html" target="_top" xlink:title="Class for handling the most basic audio needs.">
<polygon fill="none" stroke="black" points="423.73,-496.5 423.73,-707.5 555.73,-707.5 555.73,-496.5 423.73,-496.5"/>
<text text-anchor="start" x="431.73" y="-695.5" font-family="Helvetica,sans-Serif" font-size="10.00">tklb::AudioBufferTpl</text>
<text text-anchor="middle" x="489.73" y="-684.5" font-family="Helvetica,sans-Serif" font-size="10.00">&lt; T, STORAGE &gt;</text>
<polyline fill="none" stroke="black" points="423.73,-677.5 555.73,-677.5 "/>
<text text-anchor="middle" x="489.73" y="-665.5" font-family="Helvetica,sans-Serif" font-size="10.00"> </text>
<polyline fill="none" stroke="black" points="423.73,-658.5 555.73,-658.5 "/>
<text text-anchor="start" x="431.73" y="-646.5" font-family="Helvetica,sans-Serif" font-size="10.00">+ AudioBufferTpl()</text>
<text text-anchor="start" x="431.73" y="-635.5" font-family="Helvetica,sans-Serif" font-size="10.00">+ AudioBufferTpl()</text>
<text text-anchor="start" x="431.73" y="-624.5" font-family="Helvetica,sans-Serif" font-size="10.00">+ ~AudioBufferTpl()</text>
<text text-anchor="start" x="431.73" y="-613.5" font-family="Helvetica,sans-Serif" font-size="10.00">+ AudioBufferTpl()</text>
<text text-anchor="start" x="431.73" y="-602.5" font-family="Helvetica,sans-Serif" font-size="10.00">+ operator=()</text>
<text text-anchor="start" x="431.73" y="-591.5" font-family="Helvetica,sans-Serif" font-size="10.00">+ operator=()</text>
<text text-anchor="start" x="431.73" y="-580.5" font-family="Helvetica,sans-Serif" font-size="10.00">+ AudioBufferTpl()</text>
<text text-anchor="start" x="431.73" y="-569.5" font-family="Helvetica,sans-Serif" font-size="10.00">+ AudioBufferTpl()</text>
<text text-anchor="start" x="431.73" y="-558.5" font-family="Helvetica,sans-Serif" font-size="10.00">+ set()</text>
<text text-anchor="start" x="431.73" y="-547.5" font-family="Helvetica,sans-Serif" font-size="10.00">+ set()</text>
<text text-anchor="start" x="431.73" y="-536.5" font-family="Helvetica,sans-Serif" font-size="10.00">and 26 more...</text>
<text text-anchor="start" x="431.73" y="-525.5" font-family="Helvetica,sans-Serif" font-size="10.00">+ needsScaling()</text>
<text text-anchor="start" x="431.73" y="-514.5" font-family="Helvetica,sans-Serif" font-size="10.00">+ getConversionScale()</text>
<text text-anchor="start" x="431.73" y="-503.5" font-family="Helvetica,sans-Serif" font-size="10.00">&#45; assertOnConstMem()</text>
</a>
</g>
</g>
<!-- Node7&#45;&gt;Node6 -->
<g id="edge7" class="edge">
<title>Node7&#45;&gt;Node6</title>
<path fill="none" stroke="orange" d="M489.73,-486.14C489.73,-463.36 489.73,-439.18 489.73,-415.59"/>
<polygon fill="orange" stroke="orange" points="486.23,-486.16 489.73,-496.16 493.23,-486.16 486.23,-486.16"/>
<text text-anchor="start" x="489.73" y="-470" font-family="Helvetica,sans-Serif" font-size="10.00"> &lt; Sample, tklb::HeapBuffer</text>
<text text-anchor="start" x="489.73" y="-459" font-family="Helvetica,sans-Serif" font-size="10.00">&lt; Sample, tklb::DEFAULT</text>
<text text-anchor="start" x="489.73" y="-448" font-family="Helvetica,sans-Serif" font-size="10.00">_ALIGNMENT, memory::AllocatorScratch</text>
<text text-anchor="middle" x="587.73" y="-437" font-family="Helvetica,sans-Serif" font-size="10.00">&lt; unsigned char &gt; &gt; &gt;</text>
</g>
<!-- Node8 -->
<g id="node8" class="node">
<title>Node8</title>
<g id="a_node8"><a xlink:title=" ">
<polygon fill="none" stroke="#bfbfbf" points="184.73,-860 184.73,-917 302.73,-917 302.73,-860 184.73,-860"/>
<text text-anchor="middle" x="243.73" y="-905" font-family="Helvetica,sans-Serif" font-size="10.00">static constexpr Size</text>
<polyline fill="none" stroke="#bfbfbf" points="184.73,-898 302.73,-898 "/>
<text text-anchor="middle" x="243.73" y="-886" font-family="Helvetica,sans-Serif" font-size="10.00"> </text>
<polyline fill="none" stroke="#bfbfbf" points="184.73,-879 302.73,-879 "/>
<text text-anchor="middle" x="243.73" y="-867" font-family="Helvetica,sans-Serif" font-size="10.00"> </text>
</a>
</g>
</g>
<!-- Node8&#45;&gt;Node7 -->
<g id="edge8" class="edge">
<title>Node8&#45;&gt;Node7</title>
<path fill="none" stroke="#404040" d="M254.21,-859.79C265.67,-831.64 285.91,-787.65 311.73,-755 340.88,-718.14 380.01,-683.57 414.16,-656.74"/>
<polygon fill="none" stroke="#404040" points="414.16,-656.74 416.45,-649.9 423.64,-649.38 421.35,-656.22 414.16,-656.74"/>
<text text-anchor="middle" x="357.73" y="-729" font-family="Helvetica,sans-Serif" font-size="10.00"> +Stride</text>
</g>
<!-- Node9 -->
<g id="node9" class="node">
<title>Node9</title>
<g id="a_node9"><a xlink:href="classtklb_1_1_heap_buffer.html" target="_top" xlink:title=" ">
<polygon fill="none" stroke="black" points="321.23,-755.5 321.23,-1021.5 456.23,-1021.5 456.23,-755.5 321.23,-755.5"/>
<text text-anchor="start" x="329.23" y="-1009.5" font-family="Helvetica,sans-Serif" font-size="10.00">tklb::HeapBuffer&lt; T,</text>
<text text-anchor="middle" x="388.73" y="-998.5" font-family="Helvetica,sans-Serif" font-size="10.00"> DEFAULT_ALIGNMENT &gt;</text>
<polyline fill="none" stroke="black" points="321.23,-991.5 456.23,-991.5 "/>
<text text-anchor="start" x="329.23" y="-979.5" font-family="Helvetica,sans-Serif" font-size="10.00">+ Alignment</text>
<text text-anchor="start" x="329.23" y="-968.5" font-family="Helvetica,sans-Serif" font-size="10.00">+ ChunkSize</text>
<text text-anchor="start" x="329.23" y="-957.5" font-family="Helvetica,sans-Serif" font-size="10.00">&#45; mAllocator</text>
<text text-anchor="start" x="329.23" y="-946.5" font-family="Helvetica,sans-Serif" font-size="10.00">&#45; mBuf</text>
<text text-anchor="start" x="329.23" y="-935.5" font-family="Helvetica,sans-Serif" font-size="10.00">&#45; mSize</text>
<text text-anchor="start" x="329.23" y="-924.5" font-family="Helvetica,sans-Serif" font-size="10.00">&#45; mRealSize</text>
<polyline fill="none" stroke="black" points="321.23,-917.5 456.23,-917.5 "/>
<text text-anchor="start" x="329.23" y="-905.5" font-family="Helvetica,sans-Serif" font-size="10.00">+ HeapBuffer()</text>
<text text-anchor="start" x="329.23" y="-894.5" font-family="Helvetica,sans-Serif" font-size="10.00">+ HeapBuffer()</text>
<text text-anchor="start" x="329.23" y="-883.5" font-family="Helvetica,sans-Serif" font-size="10.00">+ HeapBuffer()</text>
<text text-anchor="start" x="329.23" y="-872.5" font-family="Helvetica,sans-Serif" font-size="10.00">+ HeapBuffer()</text>
<text text-anchor="start" x="329.23" y="-861.5" font-family="Helvetica,sans-Serif" font-size="10.00">+ HeapBuffer()</text>
<text text-anchor="start" x="329.23" y="-850.5" font-family="Helvetica,sans-Serif" font-size="10.00">+ HeapBuffer()</text>
<text text-anchor="start" x="329.23" y="-839.5" font-family="Helvetica,sans-Serif" font-size="10.00">+ operator=()</text>
<text text-anchor="start" x="329.23" y="-828.5" font-family="Helvetica,sans-Serif" font-size="10.00">+ operator=()</text>
<text text-anchor="start" x="329.23" y="-817.5" font-family="Helvetica,sans-Serif" font-size="10.00">+ ~HeapBuffer()</text>
<text text-anchor="start" x="329.23" y="-806.5" font-family="Helvetica,sans-Serif" font-size="10.00">+ set()</text>
<text text-anchor="start" x="329.23" y="-795.5" font-family="Helvetica,sans-Serif" font-size="10.00">and 28 more...</text>
<text text-anchor="start" x="329.23" y="-784.5" font-family="Helvetica,sans-Serif" font-size="10.00">+ closestChunkSize()</text>
<text text-anchor="start" x="329.23" y="-773.5" font-family="Helvetica,sans-Serif" font-size="10.00">+ isAligned()</text>
<text text-anchor="start" x="329.23" y="-762.5" font-family="Helvetica,sans-Serif" font-size="10.00">&#45; allocate()</text>
</a>
</g>
</g>
<!-- Node9&#45;&gt;Node7 -->
<g id="edge9" class="edge">
<title>Node9&#45;&gt;Node7</title>
<path fill="none" stroke="#404040" d="M428.52,-755.4C431.87,-745.41 435.29,-735.52 438.73,-726 439.54,-723.76 440.37,-721.5 441.21,-719.22"/>
<polygon fill="none" stroke="#404040" points="441.3,-718.99 439.67,-711.96 445.53,-707.76 447.16,-714.78 441.3,-718.99"/>
<text text-anchor="middle" x="462.23" y="-729" font-family="Helvetica,sans-Serif" font-size="10.00"> &#45;mBuffer</text>
</g>
<!-- Node10 -->
<g id="node10" class="node">
<title>Node10</title>
<g id="a_node10"><a xlink:href="classtklb_1_1_heap_buffer.html" target="_top" xlink:title="Basically a bad std::vector without exceptions which can also work with foreign memory.">
<polygon fill="none" stroke="black" points="317.23,-1069.5 317.23,-1291.5 460.23,-1291.5 460.23,-1069.5 317.23,-1069.5"/>
<text text-anchor="start" x="325.23" y="-1279.5" font-family="Helvetica,sans-Serif" font-size="10.00">tklb::HeapBuffer&lt; T,</text>
<text text-anchor="start" x="325.23" y="-1268.5" font-family="Helvetica,sans-Serif" font-size="10.00"> ALIGNMENT, ALLOCATOR,</text>
<text text-anchor="middle" x="388.73" y="-1257.5" font-family="Helvetica,sans-Serif" font-size="10.00"> SIZE &gt;</text>
<polyline fill="none" stroke="black" points="317.23,-1250.5 460.23,-1250.5 "/>
<text text-anchor="middle" x="388.73" y="-1238.5" font-family="Helvetica,sans-Serif" font-size="10.00"> </text>
<polyline fill="none" stroke="black" points="317.23,-1231.5 460.23,-1231.5 "/>
<text text-anchor="start" x="325.23" y="-1219.5" font-family="Helvetica,sans-Serif" font-size="10.00">+ HeapBuffer()</text>
<text text-anchor="start" x="325.23" y="-1208.5" font-family="Helvetica,sans-Serif" font-size="10.00">+ HeapBuffer()</text>
<text text-anchor="start" x="325.23" y="-1197.5" font-family="Helvetica,sans-Serif" font-size="10.00">+ HeapBuffer()</text>
<text text-anchor="start" x="325.23" y="-1186.5" font-family="Helvetica,sans-Serif" font-size="10.00">+ HeapBuffer()</text>
<text text-anchor="start" x="325.23" y="-1175.5" font-family="Helvetica,sans-Serif" font-size="10.00">+ HeapBuffer()</text>
<text text-anchor="start" x="325.23" y="-1164.5" font-family="Helvetica,sans-Serif" font-size="10.00">+ operator=()</text>
<text text-anchor="start" x="325.23" y="-1153.5" font-family="Helvetica,sans-Serif" font-size="10.00">+ operator=()</text>
<text text-anchor="start" x="325.23" y="-1142.5" font-family="Helvetica,sans-Serif" font-size="10.00">+ HeapBuffer()</text>
<text text-anchor="start" x="325.23" y="-1131.5" font-family="Helvetica,sans-Serif" font-size="10.00">+ ~HeapBuffer()</text>
<text text-anchor="start" x="325.23" y="-1120.5" font-family="Helvetica,sans-Serif" font-size="10.00">+ set()</text>
<text text-anchor="start" x="325.23" y="-1109.5" font-family="Helvetica,sans-Serif" font-size="10.00">and 28 more...</text>
<text text-anchor="start" x="325.23" y="-1098.5" font-family="Helvetica,sans-Serif" font-size="10.00">+ closestChunkSize()</text>
<text text-anchor="start" x="325.23" y="-1087.5" font-family="Helvetica,sans-Serif" font-size="10.00">+ isAligned()</text>
<text text-anchor="start" x="325.23" y="-1076.5" font-family="Helvetica,sans-Serif" font-size="10.00">&#45; allocate()</text>
</a>
</g>
</g>
<!-- Node10&#45;&gt;Node9 -->
<g id="edge10" class="edge">
<title>Node10&#45;&gt;Node9</title>
<path fill="none" stroke="orange" d="M388.73,-1059.18C388.73,-1046.87 388.73,-1034.32 388.73,-1021.89"/>
<polygon fill="orange" stroke="orange" points="385.23,-1059.45 388.73,-1069.45 392.23,-1059.45 385.23,-1059.45"/>
<text text-anchor="middle" x="459.73" y="-1043" font-family="Helvetica,sans-Serif" font-size="10.00"> &lt; T, DEFAULT_ALIGNMENT &gt;</text>
</g>
<!-- Node11 -->
<g id="node11" class="node">
<title>Node11</title>
<g id="a_node11"><a xlink:title=" ">
<polygon fill="none" stroke="#bfbfbf" points="228.23,-1378 228.23,-1435 273.23,-1435 273.23,-1378 228.23,-1378"/>
<text text-anchor="middle" x="250.73" y="-1423" font-family="Helvetica,sans-Serif" font-size="10.00">size_t</text>
<polyline fill="none" stroke="#bfbfbf" points="228.23,-1416 273.23,-1416 "/>
<text text-anchor="middle" x="250.73" y="-1404" font-family="Helvetica,sans-Serif" font-size="10.00"> </text>
<polyline fill="none" stroke="#bfbfbf" points="228.23,-1397 273.23,-1397 "/>
<text text-anchor="middle" x="250.73" y="-1385" font-family="Helvetica,sans-Serif" font-size="10.00"> </text>
</a>
</g>
</g>
<!-- Node11&#45;&gt;Node10 -->
<g id="edge11" class="edge">
<title>Node11&#45;&gt;Node10</title>
<path fill="none" stroke="#404040" d="M256.42,-1377.59C261.16,-1357.89 269.03,-1331.33 280.73,-1310 288.93,-1295.05 299.02,-1280.23 309.71,-1266.25"/>
<polygon fill="none" stroke="#404040" points="309.78,-1266.15 310.34,-1258.96 317.19,-1256.71 316.63,-1263.9 309.78,-1266.15"/>
<text text-anchor="middle" x="311.73" y="-1324" font-family="Helvetica,sans-Serif" font-size="10.00"> +Alignment</text>
<text text-anchor="middle" x="311.73" y="-1313" font-family="Helvetica,sans-Serif" font-size="10.00">+ChunkSize</text>
</g>
<!-- Node12 -->
<g id="node12" class="node">
<title>Node12</title>
<g id="a_node12"><a xlink:href="structtklb_1_1_std_allocator.html" target="_top" xlink:title=" ">
<polygon fill="none" stroke="black" points="291.23,-1350.5 291.23,-1462.5 398.23,-1462.5 398.23,-1350.5 291.23,-1350.5"/>
<text text-anchor="start" x="299.23" y="-1450.5" font-family="Helvetica,sans-Serif" font-size="10.00">tklb::StdAllocator</text>
<text text-anchor="middle" x="344.73" y="-1439.5" font-family="Helvetica,sans-Serif" font-size="10.00">&lt; unsigned char &gt;</text>
<polyline fill="none" stroke="black" points="291.23,-1432.5 398.23,-1432.5 "/>
<text text-anchor="middle" x="344.73" y="-1420.5" font-family="Helvetica,sans-Serif" font-size="10.00"> </text>
<polyline fill="none" stroke="black" points="291.23,-1413.5 398.23,-1413.5 "/>
<text text-anchor="start" x="299.23" y="-1401.5" font-family="Helvetica,sans-Serif" font-size="10.00">+ StdAllocator()</text>
<text text-anchor="start" x="299.23" y="-1390.5" font-family="Helvetica,sans-Serif" font-size="10.00">+ StdAllocator()</text>
<text text-anchor="start" x="299.23" y="-1379.5" font-family="Helvetica,sans-Serif" font-size="10.00">+ StdAllocator()</text>
<text text-anchor="start" x="299.23" y="-1368.5" font-family="Helvetica,sans-Serif" font-size="10.00">+ allocate()</text>
<text text-anchor="start" x="299.23" y="-1357.5" font-family="Helvetica,sans-Serif" font-size="10.00">+ deallocate()</text>
</a>
</g>
</g>
<!-- Node12&#45;&gt;Node10 -->
<g id="edge12" class="edge">
<title>Node12&#45;&gt;Node10</title>
<path fill="none" stroke="#404040" d="M344.6,-1350.45C345.23,-1337.13 346.48,-1323 348.73,-1310 349.09,-1307.94 349.47,-1305.87 349.87,-1303.79"/>
<polygon fill="none" stroke="#404040" points="349.92,-1303.54 347.25,-1296.84 352.4,-1291.8 355.08,-1298.49 349.92,-1303.54"/>
<text text-anchor="middle" x="379.23" y="-1318.5" font-family="Helvetica,sans-Serif" font-size="10.00"> &#45;mAllocator</text>
</g>
<!-- Node13 -->
<g id="node13" class="node">
<title>Node13</title>
<g id="a_node13"><a xlink:href="structtklb_1_1_std_allocator.html" target="_top" xlink:title=" ">
<polygon fill="none" stroke="black" points="280.23,-1510.5 280.23,-1611.5 409.23,-1611.5 409.23,-1510.5 280.23,-1510.5"/>
<text text-anchor="middle" x="344.73" y="-1599.5" font-family="Helvetica,sans-Serif" font-size="10.00">tklb::StdAllocator&lt; T &gt;</text>
<polyline fill="none" stroke="black" points="280.23,-1592.5 409.23,-1592.5 "/>
<text text-anchor="middle" x="344.73" y="-1580.5" font-family="Helvetica,sans-Serif" font-size="10.00"> </text>
<polyline fill="none" stroke="black" points="280.23,-1573.5 409.23,-1573.5 "/>
<text text-anchor="start" x="288.23" y="-1561.5" font-family="Helvetica,sans-Serif" font-size="10.00">+ StdAllocator()</text>
<text text-anchor="start" x="288.23" y="-1550.5" font-family="Helvetica,sans-Serif" font-size="10.00">+ StdAllocator()</text>
<text text-anchor="start" x="288.23" y="-1539.5" font-family="Helvetica,sans-Serif" font-size="10.00">+ StdAllocator()</text>
<text text-anchor="start" x="288.23" y="-1528.5" font-family="Helvetica,sans-Serif" font-size="10.00">+ allocate()</text>
<text text-anchor="start" x="288.23" y="-1517.5" font-family="Helvetica,sans-Serif" font-size="10.00">+ deallocate()</text>
</a>
</g>
</g>
<!-- Node13&#45;&gt;Node12 -->
<g id="edge13" class="edge">
<title>Node13&#45;&gt;Node12</title>
<path fill="none" stroke="orange" d="M344.73,-1500.24C344.73,-1487.83 344.73,-1474.8 344.73,-1462.57"/>
<polygon fill="orange" stroke="orange" points="341.23,-1500.49 344.73,-1510.49 348.23,-1500.49 341.23,-1500.49"/>
<text text-anchor="middle" x="391.73" y="-1484" font-family="Helvetica,sans-Serif" font-size="10.00"> &lt; unsigned char &gt;</text>
</g>
<!-- Node14 -->
<g id="node14" class="node">
<title>Node14</title>
<g id="a_node14"><a xlink:title=" ">
<polygon fill="none" stroke="#bfbfbf" points="416.23,-1378 416.23,-1435 447.23,-1435 447.23,-1378 416.23,-1378"/>
<text text-anchor="middle" x="431.73" y="-1423" font-family="Helvetica,sans-Serif" font-size="10.00">T *</text>
<polyline fill="none" stroke="#bfbfbf" points="416.23,-1416 447.23,-1416 "/>
<text text-anchor="middle" x="431.73" y="-1404" font-family="Helvetica,sans-Serif" font-size="10.00"> </text>
<polyline fill="none" stroke="#bfbfbf" points="416.23,-1397 447.23,-1397 "/>
<text text-anchor="middle" x="431.73" y="-1385" font-family="Helvetica,sans-Serif" font-size="10.00"> </text>
</a>
</g>
</g>
<!-- Node14&#45;&gt;Node10 -->
<g id="edge14" class="edge">
<title>Node14&#45;&gt;Node10</title>
<path fill="none" stroke="#404040" d="M426.37,-1377.58C422.69,-1358.39 417.51,-1331.44 412.18,-1303.65"/>
<polygon fill="none" stroke="#404040" points="412.15,-1303.49 407.09,-1298.36 409.89,-1291.71 414.95,-1296.85 412.15,-1303.49"/>
<text text-anchor="middle" x="432.73" y="-1318.5" font-family="Helvetica,sans-Serif" font-size="10.00"> &#45;mBuf</text>
</g>
<!-- Node15 -->
<g id="node15" class="node">
<title>Node15</title>
<g id="a_node15"><a xlink:title=" ">
<polygon fill="none" stroke="#bfbfbf" points="465.23,-1378 465.23,-1435 542.23,-1435 542.23,-1378 465.23,-1378"/>
<text text-anchor="middle" x="503.73" y="-1423" font-family="Helvetica,sans-Serif" font-size="10.00">unsigned int</text>
<polyline fill="none" stroke="#bfbfbf" points="465.23,-1416 542.23,-1416 "/>
<text text-anchor="middle" x="503.73" y="-1404" font-family="Helvetica,sans-Serif" font-size="10.00"> </text>
<polyline fill="none" stroke="#bfbfbf" points="465.23,-1397 542.23,-1397 "/>
<text text-anchor="middle" x="503.73" y="-1385" font-family="Helvetica,sans-Serif" font-size="10.00"> </text>
</a>
</g>
</g>
<!-- Node15&#45;&gt;Node10 -->
<g id="edge15" class="edge">
<title>Node15&#45;&gt;Node10</title>
<path fill="none" stroke="#404040" d="M489.4,-1377.58C479.41,-1358.14 465.34,-1330.72 450.87,-1302.53"/>
<polygon fill="none" stroke="#404040" points="450.79,-1302.38 444.49,-1298.87 445.31,-1291.71 451.61,-1295.22 450.79,-1302.38"/>
<text text-anchor="middle" x="492.23" y="-1324" font-family="Helvetica,sans-Serif" font-size="10.00"> &#45;mRealSize</text>
<text text-anchor="middle" x="492.23" y="-1313" font-family="Helvetica,sans-Serif" font-size="10.00">&#45;mSize</text>
</g>
<!-- Node16 -->
<g id="node16" class="node">
<title>Node16</title>
<g id="a_node16"><a xlink:title=" ">
<polygon fill="none" stroke="#bfbfbf" points="474.23,-860 474.23,-917 511.23,-917 511.23,-860 474.23,-860"/>
<text text-anchor="middle" x="492.73" y="-905" font-family="Helvetica,sans-Serif" font-size="10.00">Size</text>
<polyline fill="none" stroke="#bfbfbf" points="474.23,-898 511.23,-898 "/>
<text text-anchor="middle" x="492.73" y="-886" font-family="Helvetica,sans-Serif" font-size="10.00"> </text>
<polyline fill="none" stroke="#bfbfbf" points="474.23,-879 511.23,-879 "/>
<text text-anchor="middle" x="492.73" y="-867" font-family="Helvetica,sans-Serif" font-size="10.00"> </text>
</a>
</g>
</g>
<!-- Node16&#45;&gt;Node7 -->
<g id="edge16" class="edge">
<title>Node16&#45;&gt;Node7</title>
<path fill="none" stroke="#404040" d="M492.31,-859.76C491.87,-829.57 491.18,-779.85 490.73,-737 490.67,-731.34 490.62,-725.54 490.56,-719.68"/>
<polygon fill="none" stroke="#404040" points="490.56,-719.61 486.51,-713.64 490.45,-707.61 494.51,-713.57 490.56,-719.61"/>
<text text-anchor="middle" x="521.23" y="-729" font-family="Helvetica,sans-Serif" font-size="10.00"> &#45;mValidSize</text>
</g>
<!-- Node17 -->
<g id="node17" class="node">
<title>Node17</title>
<g id="a_node17"><a xlink:title=" ">
<polygon fill="none" stroke="#bfbfbf" points="531.23,-860 531.23,-917 616.23,-917 616.23,-860 531.23,-860"/>
<text text-anchor="middle" x="573.73" y="-905" font-family="Helvetica,sans-Serif" font-size="10.00">unsigned char</text>
<polyline fill="none" stroke="#bfbfbf" points="531.23,-898 616.23,-898 "/>
<text text-anchor="middle" x="573.73" y="-886" font-family="Helvetica,sans-Serif" font-size="10.00"> </text>
<polyline fill="none" stroke="#bfbfbf" points="531.23,-879 616.23,-879 "/>
<text text-anchor="middle" x="573.73" y="-867" font-family="Helvetica,sans-Serif" font-size="10.00"> </text>
</a>
</g>
</g>
<!-- Node17&#45;&gt;Node7 -->
<g id="edge17" class="edge">
<title>Node17&#45;&gt;Node7</title>
<path fill="none" stroke="#404040" d="M572.73,-859.75C570.93,-827.09 565.87,-771.53 551.73,-726 551.03,-723.73 550.28,-721.45 549.5,-719.17"/>
<polygon fill="none" stroke="#404040" points="549.44,-719 543.63,-714.73 545.34,-707.73 551.15,-712 549.44,-719"/>
<text text-anchor="middle" x="584.73" y="-729" font-family="Helvetica,sans-Serif" font-size="10.00"> &#45;mChannels</text>
</g>
<!-- Node18 -->
<g id="node18" class="node">
<title>Node18</title>
<g id="a_node18"><a xlink:title=" ">
<polygon fill="none" stroke="#bfbfbf" points="634.23,-860 634.23,-917 723.23,-917 723.23,-860 634.23,-860"/>
<text text-anchor="middle" x="678.73" y="-905" font-family="Helvetica,sans-Serif" font-size="10.00">unsigned short</text>
<polyline fill="none" stroke="#bfbfbf" points="634.23,-898 723.23,-898 "/>
<text text-anchor="middle" x="678.73" y="-886" font-family="Helvetica,sans-Serif" font-size="10.00"> </text>
<polyline fill="none" stroke="#bfbfbf" points="634.23,-879 723.23,-879 "/>
<text text-anchor="middle" x="678.73" y="-867" font-family="Helvetica,sans-Serif" font-size="10.00"> </text>
</a>
</g>
</g>
<!-- Node18&#45;&gt;Node7 -->
<g id="edge18" class="edge">
<title>Node18&#45;&gt;Node7</title>
<path fill="none" stroke="#404040" d="M672.74,-859.72C664.58,-826.04 647.69,-768.53 619.73,-726 604.78,-703.26 584.84,-681.68 565.08,-663.14"/>
<polygon fill="none" stroke="#404040" points="564.87,-662.95 557.75,-661.84 556.03,-654.83 563.16,-655.94 564.87,-662.95"/>
<text text-anchor="middle" x="658.73" y="-729" font-family="Helvetica,sans-Serif" font-size="10.00"> +sampleRate</text>
</g>
</g>
</svg>
        <g id="navigator" transform="translate(0 0)" fill="#404254">
                <rect fill="#f2f5e9" fill-opacity="0.5" stroke="#606060" stroke-width=".5" x="0" y="0" width="60" height="60"/>
                <use id="zoomplus" xlink:href="#zoomPlus" x="17" y="9" onmousedown="handleZoom(evt,'in')"/>
                <use id="zoomminus" xlink:href="#zoomMin" x="42" y="9" onmousedown="handleZoom(evt,'out')"/>
                <use id="reset" xlink:href="#resetDef" x="30" y="36" onmousedown="handleReset()"/>
                <g id="arrowUp" xlink:href="#dirArrow" transform="translate(30 24)" onmousedown="handlePan(0,-1)">
                  <use xlink:href="#rim" fill="#404040">
                        <set attributeName="fill" to="#808080" begin="arrowUp.mouseover" end="arrowUp.mouseout"/>
                  </use>
                  <path fill="none" stroke="white" stroke-width="1.5" d="M0,-3.0v7 M-2.5,-0.5L0,-3.0L2.5,-0.5"/>
                </g>
                <g id="arrowRight" xlink:href="#dirArrow" transform="rotate(90) translate(36 -43)" onmousedown="handlePan(1,0)">
                  <use xlink:href="#rim" fill="#404040">
                        <set attributeName="fill" to="#808080" begin="arrowRight.mouseover" end="arrowRight.mouseout"/>
                  </use>
                  <path fill="none" stroke="white" stroke-width="1.5" d="M0,-3.0v7 M-2.5,-0.5L0,-3.0L2.5,-0.5"/>
                </g>
                <g id="arrowDown" xlink:href="#dirArrow" transform="rotate(180) translate(-30 -48)" onmousedown="handlePan(0,1)">
                  <use xlink:href="#rim" fill="#404040">
                        <set attributeName="fill" to="#808080" begin="arrowDown.mouseover" end="arrowDown.mouseout"/>
                  </use>
                  <path fill="none" stroke="white" stroke-width="1.5" d="M0,-3.0v7 M-2.5,-0.5L0,-3.0L2.5,-0.5"/>
                </g>
                <g id="arrowLeft" xlink:href="#dirArrow" transform="rotate(270) translate(-36 17)" onmousedown="handlePan(-1,0)">
                  <use xlink:href="#rim" fill="#404040">
                        <set attributeName="fill" to="#808080" begin="arrowLeft.mouseover" end="arrowLeft.mouseout"/>
                  </use>
                  <path fill="none" stroke="white" stroke-width="1.5" d="M0,-3.0v7 M-2.5,-0.5L0,-3.0L2.5,-0.5"/>
                </g>
        </g>
        <svg viewBox="0 0 15 15" width="100%" height="30px" preserveAspectRatio="xMaxYMin meet">
         <g id="arrow_out" transform="scale(0.3 0.3)">
          <a xlink:href="classvae_1_1core_1_1_spatial_processor__coll__graph_org.svg" target="_base">
           <rect id="button" ry="5" rx="5" y="6" x="6" height="38" width="38"
                fill="#f2f5e9" fill-opacity="0.5" stroke="#606060" stroke-width="1.0"/>
           <path id="arrow"
             d="M 11.500037,31.436501 C 11.940474,20.09759 22.043105,11.32322 32.158766,21.979434 L 37.068811,17.246167 C 37.068811,17.246167 37.088388,32 37.088388,32 L 22.160133,31.978069 C 22.160133,31.978069 26.997745,27.140456 26.997745,27.140456 C 18.528582,18.264221 13.291696,25.230495 11.500037,31.436501 z"
             style="fill:#404040;"/>
          </a>
         </g>
        </svg>
</svg>
