<?xml version="1.0" encoding="UTF-8" standalone="no"?>
<!DOCTYPE svg PUBLIC "-//W3C//DTD SVG 1.1//EN"
 "http://www.w3.org/Graphics/SVG/1.1/DTD/svg11.dtd">
<!-- Generated by graphviz version 2.50.0 (0)
 -->
<!-- Title: tklb::HeapBuffer::resize Pages: 1 -->
<svg width="500pt" height="368pt"
 viewBox="0.00 0.00 500.00 367.50" xmlns="http://www.w3.org/2000/svg" xmlns:xlink="http://www.w3.org/1999/xlink">
<g id="graph0" class="graph" transform="scale(1 1) rotate(0) translate(4 363.5)">
<title>tklb::HeapBuffer::resize</title>
<!-- Node1 -->
<g id="node1" class="node">
<title>Node1</title>
<g id="a_node1"><a xlink:title="Resize the buffer If the memory is borrowed it will become unique and owned by this instance as soon ...">
<polygon fill="#bfbfbf" stroke="black" points="360,-170 360,-189 492,-189 492,-170 360,-170"/>
<text text-anchor="middle" x="426" y="-177" font-family="Helvetica,sans-Serif" font-size="10.00">tklb::HeapBuffer::resize</text>
</a>
</g>
</g>
<!-- Node2 -->
<g id="node2" class="node">
<title>Node2</title>
<g id="a_node2"><a xlink:href="classtklb_1_1_heap_buffer.html#ac595de86ab0e2f33c79034b9e64db0a8" target="_top" xlink:title="Clears the buffer but doesn&#39;t free the memory.">
<polygon fill="none" stroke="black" points="181.5,-340 181.5,-359 308.5,-359 308.5,-340 181.5,-340"/>
<text text-anchor="middle" x="245" y="-347" font-family="Helvetica,sans-Serif" font-size="10.00">tklb::HeapBuffer::clear</text>
</a>
</g>
</g>
<!-- Node1&#45;&gt;Node2 -->
<g id="edge1" class="edge">
<title>Node1&#45;&gt;Node2</title>
<path fill="none" stroke="midnightblue" d="M417.64,-198.73C404.21,-231.17 372.54,-296.57 324,-330.5 318.4,-334.41 312.09,-337.52 305.54,-340"/>
<polygon fill="midnightblue" stroke="midnightblue" points="421.04,-199.67 421.5,-189.08 414.54,-197.07 421.04,-199.67"/>
</g>
<!-- Node3 -->
<g id="node3" class="node">
<title>Node3</title>
<g id="a_node3"><a xlink:href="classtklb_1_1_heap_buffer.html#a7f018ade21d320cf220186a52e256b93" target="_top" xlink:title="If T is a pointer type, delete will be called for all pointers in buffer and resize(0) is called.">
<polygon fill="none" stroke="black" points="175,-290.5 175,-320.5 315,-320.5 315,-290.5 175,-290.5"/>
<text text-anchor="start" x="183" y="-308.5" font-family="Helvetica,sans-Serif" font-size="10.00">tklb::HeapBuffer::destroy</text>
<text text-anchor="middle" x="245" y="-297.5" font-family="Helvetica,sans-Serif" font-size="10.00">Pointers</text>
</a>
</g>
</g>
<!-- Node1&#45;&gt;Node3 -->
<g id="edge2" class="edge">
<title>Node1&#45;&gt;Node3</title>
<path fill="none" stroke="midnightblue" d="M411.86,-197.07C394.22,-219.48 360.82,-258.04 324,-280.5 317.81,-284.28 310.99,-287.54 304.04,-290.35"/>
<polygon fill="midnightblue" stroke="midnightblue" points="414.69,-199.13 418.02,-189.07 409.15,-194.85 414.69,-199.13"/>
</g>
<!-- Node4 -->
<g id="node4" class="node">
<title>Node4</title>
<g id="a_node4"><a xlink:href="classtklb_1_1_heap_buffer.html#a219e440c13837426f4a9f03e12ad769e" target="_top" xlink:title="Setup the buffer with a size.">
<polygon fill="none" stroke="black" points="166,-252 166,-271 324,-271 324,-252 166,-252"/>
<text text-anchor="middle" x="245" y="-259" font-family="Helvetica,sans-Serif" font-size="10.00">tklb::HeapBuffer::HeapBuffer</text>
</a>
</g>
</g>
<!-- Node1&#45;&gt;Node4 -->
<g id="edge3" class="edge">
<title>Node1&#45;&gt;Node4</title>
<path fill="none" stroke="midnightblue" d="M404.44,-195.08C384.76,-209.31 353.73,-229.99 324,-242.5 315.01,-246.28 305.1,-249.42 295.45,-251.98"/>
<polygon fill="midnightblue" stroke="midnightblue" points="406.66,-197.79 412.65,-189.05 402.52,-192.15 406.66,-197.79"/>
</g>
<!-- Node5 -->
<g id="node5" class="node">
<title>Node5</title>
<g id="a_node5"><a xlink:href="classtklb_1_1_heap_buffer.html#aedbbae6aeac4dab858a9734d7c02d240" target="_top" xlink:title="Provide foreign memory to borrow.">
<polygon fill="none" stroke="black" points="180,-214 180,-233 310,-233 310,-214 180,-214"/>
<text text-anchor="middle" x="245" y="-221" font-family="Helvetica,sans-Serif" font-size="10.00">tklb::HeapBuffer::inject</text>
</a>
</g>
</g>
<!-- Node1&#45;&gt;Node5 -->
<g id="edge4" class="edge">
<title>Node1&#45;&gt;Node5</title>
<path fill="none" stroke="midnightblue" d="M376.57,-191.53C359.91,-195.65 341.14,-200.29 324,-204.5 311.41,-207.59 297.68,-210.94 285.29,-213.96"/>
<polygon fill="midnightblue" stroke="midnightblue" points="377.78,-194.83 386.64,-189.03 376.09,-188.04 377.78,-194.83"/>
</g>
<!-- Node7 -->
<g id="node7" class="node">
<title>Node7</title>
<g id="a_node7"><a xlink:href="classtklb_1_1_convolver_mono_tpl.html#a67f9498b46370c1a273b47ccc4863e21" target="_top" xlink:title="Load a impulse response and prepare the convolution.">
<polygon fill="none" stroke="black" points="179,-164.5 179,-194.5 311,-194.5 311,-164.5 179,-164.5"/>
<text text-anchor="start" x="187" y="-182.5" font-family="Helvetica,sans-Serif" font-size="10.00">tklb::ConvolverMonoTpl</text>
<text text-anchor="middle" x="245" y="-171.5" font-family="Helvetica,sans-Serif" font-size="10.00">::load</text>
</a>
</g>
</g>
<!-- Node1&#45;&gt;Node7 -->
<g id="edge6" class="edge">
<title>Node1&#45;&gt;Node7</title>
<path fill="none" stroke="midnightblue" d="M349.69,-179.5C336.85,-179.5 323.62,-179.5 311.08,-179.5"/>
<polygon fill="midnightblue" stroke="midnightblue" points="349.87,-183 359.87,-179.5 349.87,-176 349.87,-183"/>
</g>
<!-- Node8 -->
<g id="node8" class="node">
<title>Node8</title>
<g id="a_node8"><a xlink:href="namespacetklb_1_1ogg.html#a8a0c549ee31780a868d551ff5536c71e" target="_top" xlink:title="Decode ogg/vorbis from memory or file path.">
<polygon fill="none" stroke="black" points="202,-126 202,-145 288,-145 288,-126 202,-126"/>
<text text-anchor="middle" x="245" y="-133" font-family="Helvetica,sans-Serif" font-size="10.00">tklb::ogg::load</text>
</a>
</g>
</g>
<!-- Node1&#45;&gt;Node8 -->
<g id="edge7" class="edge">
<title>Node1&#45;&gt;Node8</title>
<path fill="none" stroke="midnightblue" d="M376.31,-167.53C347.54,-160.46 311.61,-151.63 284.76,-145.03"/>
<polygon fill="midnightblue" stroke="midnightblue" points="375.61,-170.96 386.16,-169.95 377.28,-164.17 375.61,-170.96"/>
</g>
<!-- Node9 -->
<g id="node9" class="node">
<title>Node9</title>
<g id="a_node9"><a xlink:href="namespacetklb_1_1wave.html#aa283efa758de590bb8f167e32a1ba2a5" target="_top" xlink:title="Decode wav from memory or file path.">
<polygon fill="none" stroke="black" points="197.5,-88 197.5,-107 292.5,-107 292.5,-88 197.5,-88"/>
<text text-anchor="middle" x="245" y="-95" font-family="Helvetica,sans-Serif" font-size="10.00">tklb::wave::load</text>
</a>
</g>
</g>
<!-- Node1&#45;&gt;Node9 -->
<g id="edge8" class="edge">
<title>Node1&#45;&gt;Node9</title>
<path fill="none" stroke="midnightblue" d="M404.44,-163.92C384.76,-149.69 353.73,-129.01 324,-116.5 314.11,-112.34 303.11,-108.96 292.57,-106.27"/>
<polygon fill="midnightblue" stroke="midnightblue" points="402.52,-166.85 412.65,-169.95 406.66,-161.21 402.52,-166.85"/>
</g>
<!-- Node10 -->
<g id="node10" class="node">
<title>Node10</title>
<g id="a_node10"><a xlink:href="classtklb_1_1_heap_buffer.html#a7a9a54468dbd1fe9b3dbf02fa2b574b4" target="_top" xlink:title="Set data from array.">
<polygon fill="none" stroke="black" points="186,-50 186,-69 304,-69 304,-50 186,-50"/>
<text text-anchor="middle" x="245" y="-57" font-family="Helvetica,sans-Serif" font-size="10.00">tklb::HeapBuffer::set</text>
</a>
</g>
</g>
<!-- Node1&#45;&gt;Node10 -->
<g id="edge9" class="edge">
<title>Node1&#45;&gt;Node10</title>
<path fill="none" stroke="midnightblue" d="M412.1,-161.53C394.72,-138.67 361.59,-99.64 324,-78.5 317.07,-74.61 309.37,-71.51 301.57,-69.04"/>
<polygon fill="midnightblue" stroke="midnightblue" points="409.39,-163.75 418.16,-169.69 415.01,-159.58 409.39,-163.75"/>
</g>
<!-- Node11 -->
<g id="node11" class="node">
<title>Node11</title>
<g id="a_node11"><a xlink:href="classtklb_1_1_heap_buffer.html#a833c723b6838bb28f7b6886d6df8b65c" target="_top" xlink:title=" ">
<polygon fill="none" stroke="black" points="193.5,-0.5 193.5,-30.5 296.5,-30.5 296.5,-0.5 193.5,-0.5"/>
<text text-anchor="start" x="201.5" y="-18.5" font-family="Helvetica,sans-Serif" font-size="10.00">tklb::HeapBuffer::</text>
<text text-anchor="middle" x="245" y="-7.5" font-family="Helvetica,sans-Serif" font-size="10.00">~HeapBuffer</text>
</a>
</g>
</g>
<!-- Node1&#45;&gt;Node11 -->
<g id="edge10" class="edge">
<title>Node1&#45;&gt;Node11</title>
<path fill="none" stroke="midnightblue" d="M416.15,-160.47C401.29,-130.58 368.54,-72.72 324,-40.5 315.82,-34.58 306.18,-30.02 296.51,-26.53"/>
<polygon fill="midnightblue" stroke="midnightblue" points="413.14,-162.3 420.64,-169.79 419.45,-159.26 413.14,-162.3"/>
</g>
<!-- Node6 -->
<g id="node6" class="node">
<title>Node6</title>
<g id="a_node6"><a xlink:href="classtklb_1_1_heap_buffer.html#a320950100dd32e8bbf4f5118f41c4533" target="_top" xlink:title="Provide const foreign memory to use Using non const accessors will cause assertions in debug mode.">
<polygon fill="none" stroke="black" points="0,-214 0,-233 130,-233 130,-214 0,-214"/>
<text text-anchor="middle" x="65" y="-221" font-family="Helvetica,sans-Serif" font-size="10.00">tklb::HeapBuffer::inject</text>
</a>
</g>
</g>
<!-- Node5&#45;&gt;Node6 -->
<g id="edge5" class="edge">
<title>Node5&#45;&gt;Node6</title>
<path fill="none" stroke="midnightblue" d="M169.96,-223.5C156.7,-223.5 142.99,-223.5 130.04,-223.5"/>
<polygon fill="midnightblue" stroke="midnightblue" points="169.99,-227 179.99,-223.5 169.99,-220 169.99,-227"/>
</g>
</g>
</svg>
