<?xml version="1.0" encoding="UTF-8" standalone="no"?>
<!DOCTYPE svg PUBLIC "-//W3C//DTD SVG 1.1//EN"
 "http://www.w3.org/Graphics/SVG/1.1/DTD/svg11.dtd">
<!-- Generated by graphviz version 2.50.0 (0)
 -->
<!-- Title: tklb::HeapBuffer::destroyPointers Pages: 1 -->
<svg width="678pt" height="180pt"
 viewBox="0.00 0.00 678.00 180.00" xmlns="http://www.w3.org/2000/svg" xmlns:xlink="http://www.w3.org/1999/xlink">
<g id="graph0" class="graph" transform="scale(1 1) rotate(0) translate(4 176)">
<title>tklb::HeapBuffer::destroyPointers</title>
<!-- Node1 -->
<g id="node1" class="node">
<title>Node1</title>
<g id="a_node1"><a xlink:title="If T is a pointer type, delete will be called for all pointers in buffer and resize(0) is called.">
<polygon fill="#bfbfbf" stroke="black" points="0,-61 0,-91 140,-91 140,-61 0,-61"/>
<text text-anchor="start" x="8" y="-79" font-family="Helvetica,sans-Serif" font-size="10.00">tklb::HeapBuffer::destroy</text>
<text text-anchor="middle" x="70" y="-68" font-family="Helvetica,sans-Serif" font-size="10.00">Pointers</text>
</a>
</g>
</g>
<!-- Node2 -->
<g id="node2" class="node">
<title>Node2</title>
<g id="a_node2"><a xlink:href="classtklb_1_1_heap_buffer.html#aea890defe7d21d9273e005464b04f784" target="_top" xlink:title="Resize the buffer If the memory is borrowed it will become unique and owned by this instance as soon ...">
<polygon fill="none" stroke="black" points="176,-66.5 176,-85.5 308,-85.5 308,-66.5 176,-66.5"/>
<text text-anchor="middle" x="242" y="-73.5" font-family="Helvetica,sans-Serif" font-size="10.00">tklb::HeapBuffer::resize</text>
</a>
</g>
</g>
<!-- Node1&#45;&gt;Node2 -->
<g id="edge1" class="edge">
<title>Node1&#45;&gt;Node2</title>
<path fill="none" stroke="midnightblue" d="M140.15,-76C148.51,-76 157.09,-76 165.54,-76"/>
<polygon fill="midnightblue" stroke="midnightblue" points="165.76,-79.5 175.76,-76 165.76,-72.5 165.76,-79.5"/>
</g>
<!-- Node3 -->
<g id="node3" class="node">
<title>Node3</title>
<g id="a_node3"><a xlink:href="classtklb_1_1_heap_buffer.html#a37d94fdca920347674a4048cdc28452d" target="_top" xlink:title="Allocated the exact size requsted and copies existing objects.">
<polygon fill="none" stroke="black" points="344,-101.5 344,-120.5 486,-120.5 486,-101.5 344,-101.5"/>
<text text-anchor="middle" x="415" y="-108.5" font-family="Helvetica,sans-Serif" font-size="10.00">tklb::HeapBuffer::allocate</text>
</a>
</g>
</g>
<!-- Node2&#45;&gt;Node3 -->
<g id="edge2" class="edge">
<title>Node2&#45;&gt;Node3</title>
<path fill="none" stroke="midnightblue" d="M289.73,-85.56C310.65,-89.85 335.5,-94.93 357.47,-99.43"/>
<polygon fill="midnightblue" stroke="midnightblue" points="356.83,-102.87 367.33,-101.45 358.23,-96.01 356.83,-102.87"/>
</g>
<!-- Node4 -->
<g id="node4" class="node">
<title>Node4</title>
<g id="a_node4"><a xlink:href="classtklb_1_1_heap_buffer.html#a25c9d8fce108ff905202bcf7a6038d3d" target="_top" xlink:title="Whether the memory is managed by the instance or is borrowed.">
<polygon fill="none" stroke="black" points="525,-152.5 525,-171.5 667,-171.5 667,-152.5 525,-152.5"/>
<text text-anchor="middle" x="596" y="-159.5" font-family="Helvetica,sans-Serif" font-size="10.00">tklb::HeapBuffer::injected</text>
</a>
</g>
</g>
<!-- Node2&#45;&gt;Node4 -->
<g id="edge9" class="edge">
<title>Node2&#45;&gt;Node4</title>
<path fill="none" stroke="midnightblue" d="M256.98,-85.62C275.83,-98.07 310.85,-119.42 344,-130 399.4,-147.68 464.62,-155.63 514.69,-159.19"/>
<polygon fill="midnightblue" stroke="midnightblue" points="514.61,-162.69 524.82,-159.86 515.07,-155.71 514.61,-162.69"/>
</g>
<!-- Node7 -->
<g id="node7" class="node">
<title>Node7</title>
<g id="a_node7"><a xlink:href="classtklb_1_1_heap_buffer.html#a682dc231ff65beb7114cb0e476affd6b" target="_top" xlink:title=" ">
<polygon fill="none" stroke="black" points="346.5,-39 346.5,-69 483.5,-69 483.5,-39 346.5,-39"/>
<text text-anchor="start" x="354.5" y="-57" font-family="Helvetica,sans-Serif" font-size="10.00">tklb::HeapBuffer::closest</text>
<text text-anchor="middle" x="415" y="-46" font-family="Helvetica,sans-Serif" font-size="10.00">ChunkSize</text>
</a>
</g>
</g>
<!-- Node2&#45;&gt;Node7 -->
<g id="edge6" class="edge">
<title>Node2&#45;&gt;Node7</title>
<path fill="none" stroke="midnightblue" d="M308.14,-67.62C317.35,-66.43 326.91,-65.2 336.33,-63.99"/>
<polygon fill="midnightblue" stroke="midnightblue" points="337.02,-67.43 346.49,-62.69 336.13,-60.49 337.02,-67.43"/>
</g>
<!-- Node9 -->
<g id="node9" class="node">
<title>Node9</title>
<g id="a_node9"><a xlink:href="classtklb_1_1_heap_buffer.html#a172cd1dde86d1f3b0308fb0ce4a1758a" target="_top" xlink:title="Returns the amount of elements in the container.">
<polygon fill="none" stroke="black" points="535,-0.5 535,-19.5 657,-19.5 657,-0.5 535,-0.5"/>
<text text-anchor="middle" x="596" y="-7.5" font-family="Helvetica,sans-Serif" font-size="10.00">tklb::HeapBuffer::size</text>
</a>
</g>
</g>
<!-- Node2&#45;&gt;Node9 -->
<g id="edge10" class="edge">
<title>Node2&#45;&gt;Node9</title>
<path fill="none" stroke="midnightblue" d="M258.77,-66.47C278.09,-55.31 312.19,-37.31 344,-29 403.63,-13.42 473.74,-9.24 524.68,-8.63"/>
<polygon fill="midnightblue" stroke="midnightblue" points="524.96,-12.13 534.93,-8.55 524.9,-5.13 524.96,-12.13"/>
</g>
<!-- Node3&#45;&gt;Node4 -->
<g id="edge3" class="edge">
<title>Node3&#45;&gt;Node4</title>
<path fill="none" stroke="midnightblue" d="M446.52,-120.56C467.65,-127.09 496.46,-135.82 522,-143 530.16,-145.29 538.85,-147.64 547.29,-149.87"/>
<polygon fill="midnightblue" stroke="midnightblue" points="546.48,-153.27 557.04,-152.42 548.25,-146.5 546.48,-153.27"/>
</g>
<!-- Node5 -->
<g id="node5" class="node">
<title>Node5</title>
<g id="a_node5"><a xlink:href="classtklb_1_1_heap_buffer.html#a23801c62dcfb74cab62a9998de65adeb" target="_top" xlink:title=" ">
<polygon fill="none" stroke="black" points="522,-114.5 522,-133.5 670,-133.5 670,-114.5 522,-114.5"/>
<text text-anchor="middle" x="596" y="-121.5" font-family="Helvetica,sans-Serif" font-size="10.00">tklb::HeapBuffer::isAligned</text>
</a>
</g>
</g>
<!-- Node3&#45;&gt;Node5 -->
<g id="edge4" class="edge">
<title>Node3&#45;&gt;Node5</title>
<path fill="none" stroke="midnightblue" d="M486.23,-116.1C494.52,-116.7 503.04,-117.32 511.48,-117.93"/>
<polygon fill="midnightblue" stroke="midnightblue" points="511.5,-121.44 521.73,-118.68 512.01,-114.46 511.5,-121.44"/>
</g>
<!-- Node6 -->
<g id="node6" class="node">
<title>Node6</title>
<g id="a_node6"><a xlink:href="namespacetklb.html#a3080595da18d742645ec41d61828a426" target="_top" xlink:title=" ">
<polygon fill="none" stroke="black" points="566,-76.5 566,-95.5 626,-95.5 626,-76.5 566,-76.5"/>
<text text-anchor="middle" x="596" y="-83.5" font-family="Helvetica,sans-Serif" font-size="10.00">tklb::min</text>
</a>
</g>
</g>
<!-- Node3&#45;&gt;Node6 -->
<g id="edge5" class="edge">
<title>Node3&#45;&gt;Node6</title>
<path fill="none" stroke="midnightblue" d="M484.18,-101.48C508.36,-98.1 534.73,-94.42 555.68,-91.49"/>
<polygon fill="midnightblue" stroke="midnightblue" points="556.38,-94.93 565.8,-90.08 555.42,-87.99 556.38,-94.93"/>
</g>
<!-- Node8 -->
<g id="node8" class="node">
<title>Node8</title>
<g id="a_node8"><a xlink:href="namespacetklb.html#a7dc2203e89c331e3c85b9e7f16fa6763" target="_top" xlink:title=" ">
<polygon fill="none" stroke="black" points="564.5,-38.5 564.5,-57.5 627.5,-57.5 627.5,-38.5 564.5,-38.5"/>
<text text-anchor="middle" x="596" y="-45.5" font-family="Helvetica,sans-Serif" font-size="10.00">tklb::max</text>
</a>
</g>
</g>
<!-- Node7&#45;&gt;Node8 -->
<g id="edge7" class="edge">
<title>Node7&#45;&gt;Node8</title>
<path fill="none" stroke="midnightblue" d="M483.67,-51.73C507.39,-50.94 533.28,-50.07 554.12,-49.37"/>
<polygon fill="midnightblue" stroke="midnightblue" points="554.34,-52.87 564.22,-49.03 554.1,-45.87 554.34,-52.87"/>
</g>
<!-- Node7&#45;&gt;Node9 -->
<g id="edge8" class="edge">
<title>Node7&#45;&gt;Node9</title>
<path fill="none" stroke="midnightblue" d="M477.1,-38.98C499.75,-33.41 525.1,-27.18 546.47,-21.93"/>
<polygon fill="midnightblue" stroke="midnightblue" points="547.43,-25.3 556.3,-19.51 545.76,-18.5 547.43,-25.3"/>
</g>
</g>
</svg>
