<?xml version="1.0" encoding="UTF-8" standalone="no"?>
<!DOCTYPE svg PUBLIC "-//W3C//DTD SVG 1.1//EN"
 "http://www.w3.org/Graphics/SVG/1.1/DTD/svg11.dtd">
<!-- Generated by graphviz version 2.50.0 (0)
 -->
<!-- Title: tklb::ResamplerSpeexTpl::init Pages: 1 -->
<svg width="497pt" height="176pt"
 viewBox="0.00 0.00 497.00 176.00" xmlns="http://www.w3.org/2000/svg" xmlns:xlink="http://www.w3.org/1999/xlink">
<g id="graph0" class="graph" transform="scale(1 1) rotate(0) translate(4 172)">
<title>tklb::ResamplerSpeexTpl::init</title>
<!-- Node1 -->
<g id="node1" class="node">
<title>Node1</title>
<g id="a_node1"><a xlink:title="setup the resampler">
<polygon fill="#bfbfbf" stroke="black" points="0,-90.5 0,-120.5 139,-120.5 139,-90.5 0,-90.5"/>
<text text-anchor="start" x="8" y="-108.5" font-family="Helvetica,sans-Serif" font-size="10.00">tklb::ResamplerSpeexTpl</text>
<text text-anchor="middle" x="69.5" y="-97.5" font-family="Helvetica,sans-Serif" font-size="10.00">::init</text>
</a>
</g>
</g>
<!-- Node2 -->
<g id="node2" class="node">
<title>Node2</title>
<g id="a_node2"><a xlink:href="classtklb_1_1_resampler_speex_tpl.html#a3f862fb81338fdd8d23edfbf4cd3fbc5" target="_top" xlink:title="Calculate a buffersize fit for the resampled result.">
<polygon fill="none" stroke="black" points="175,-126.5 175,-156.5 314,-156.5 314,-126.5 175,-126.5"/>
<text text-anchor="start" x="183" y="-144.5" font-family="Helvetica,sans-Serif" font-size="10.00">tklb::ResamplerSpeexTpl</text>
<text text-anchor="middle" x="244.5" y="-133.5" font-family="Helvetica,sans-Serif" font-size="10.00">::calculateBufferSize</text>
</a>
</g>
</g>
<!-- Node1&#45;&gt;Node2 -->
<g id="edge1" class="edge">
<title>Node1&#45;&gt;Node2</title>
<path fill="none" stroke="midnightblue" d="M139.37,-119.83C147.77,-121.58 156.4,-123.37 164.92,-125.15"/>
<polygon fill="midnightblue" stroke="midnightblue" points="164.36,-128.61 174.87,-127.22 165.79,-121.75 164.36,-128.61"/>
</g>
<!-- Node4 -->
<g id="node4" class="node">
<title>Node4</title>
<g id="a_node4"><a xlink:href="classtklb_1_1_audio_buffer_tpl.html#addb80823bf792039ad009baeed0a7dcb" target="_top" xlink:title="Resizes the buffer to the desired length and channel count.">
<polygon fill="none" stroke="black" points="187.5,-66.5 187.5,-96.5 301.5,-96.5 301.5,-66.5 187.5,-66.5"/>
<text text-anchor="start" x="195.5" y="-84.5" font-family="Helvetica,sans-Serif" font-size="10.00">tklb::AudioBufferTpl</text>
<text text-anchor="middle" x="244.5" y="-73.5" font-family="Helvetica,sans-Serif" font-size="10.00">::resize</text>
</a>
</g>
</g>
<!-- Node1&#45;&gt;Node4 -->
<g id="edge3" class="edge">
<title>Node1&#45;&gt;Node4</title>
<path fill="none" stroke="midnightblue" d="M139.37,-95.95C151.81,-94.22 164.76,-92.42 177.13,-90.71"/>
<polygon fill="midnightblue" stroke="midnightblue" points="177.93,-94.13 187.36,-89.29 176.97,-87.2 177.93,-94.13"/>
</g>
<!-- Node3 -->
<g id="node3" class="node">
<title>Node3</title>
<g id="a_node3"><a xlink:href="classtklb_1_1_resampler_speex_tpl.html#a7e0cfe94c073cecfaca12b50401a7815" target="_top" xlink:title="Estimate how many sample will be emitted in the next step.">
<polygon fill="none" stroke="black" points="350,-137.5 350,-167.5 489,-167.5 489,-137.5 350,-137.5"/>
<text text-anchor="start" x="358" y="-155.5" font-family="Helvetica,sans-Serif" font-size="10.00">tklb::ResamplerSpeexTpl</text>
<text text-anchor="middle" x="419.5" y="-144.5" font-family="Helvetica,sans-Serif" font-size="10.00">::estimateOut</text>
</a>
</g>
</g>
<!-- Node2&#45;&gt;Node3 -->
<g id="edge2" class="edge">
<title>Node2&#45;&gt;Node3</title>
<path fill="none" stroke="midnightblue" d="M314.37,-145.88C322.68,-146.41 331.21,-146.95 339.65,-147.49"/>
<polygon fill="midnightblue" stroke="midnightblue" points="339.66,-150.99 349.87,-148.14 340.11,-144.01 339.66,-150.99"/>
</g>
<!-- Node5 -->
<g id="node5" class="node">
<title>Node5</title>
<g id="a_node5"><a xlink:href="classtklb_1_1_audio_buffer_tpl.html#a9714a6b0b9ee269c551b28f830a02d57" target="_top" xlink:title="Returns the amount of channels.">
<polygon fill="none" stroke="black" points="362.5,-88.5 362.5,-118.5 476.5,-118.5 476.5,-88.5 362.5,-88.5"/>
<text text-anchor="start" x="370.5" y="-106.5" font-family="Helvetica,sans-Serif" font-size="10.00">tklb::AudioBufferTpl</text>
<text text-anchor="middle" x="419.5" y="-95.5" font-family="Helvetica,sans-Serif" font-size="10.00">::channels</text>
</a>
</g>
</g>
<!-- Node4&#45;&gt;Node5 -->
<g id="edge4" class="edge">
<title>Node4&#45;&gt;Node5</title>
<path fill="none" stroke="midnightblue" d="M301.67,-88.64C317.76,-90.69 335.46,-92.94 352.11,-95.06"/>
<polygon fill="midnightblue" stroke="midnightblue" points="351.96,-98.57 362.32,-96.36 352.84,-91.62 351.96,-98.57"/>
</g>
<!-- Node6 -->
<g id="node6" class="node">
<title>Node6</title>
<g id="a_node6"><a xlink:href="namespacetklb.html#a3080595da18d742645ec41d61828a426" target="_top" xlink:title=" ">
<polygon fill="none" stroke="black" points="389.5,-50 389.5,-69 449.5,-69 449.5,-50 389.5,-50"/>
<text text-anchor="middle" x="419.5" y="-57" font-family="Helvetica,sans-Serif" font-size="10.00">tklb::min</text>
</a>
</g>
</g>
<!-- Node4&#45;&gt;Node6 -->
<g id="edge5" class="edge">
<title>Node4&#45;&gt;Node6</title>
<path fill="none" stroke="midnightblue" d="M301.67,-74.36C326.99,-71.14 356.29,-67.41 379.21,-64.5"/>
<polygon fill="midnightblue" stroke="midnightblue" points="379.78,-67.95 389.26,-63.22 378.9,-61.01 379.78,-67.95"/>
</g>
<!-- Node7 -->
<g id="node7" class="node">
<title>Node7</title>
<g id="a_node7"><a xlink:href="classtklb_1_1_audio_buffer_tpl.html#acbe041a482f37ed4a02b99b239e53f80" target="_top" xlink:title="Returns the allocated length of the buffer.">
<polygon fill="none" stroke="black" points="362.5,-0.5 362.5,-30.5 476.5,-30.5 476.5,-0.5 362.5,-0.5"/>
<text text-anchor="start" x="370.5" y="-18.5" font-family="Helvetica,sans-Serif" font-size="10.00">tklb::AudioBufferTpl</text>
<text text-anchor="middle" x="419.5" y="-7.5" font-family="Helvetica,sans-Serif" font-size="10.00">::size</text>
</a>
</g>
</g>
<!-- Node4&#45;&gt;Node7 -->
<g id="edge6" class="edge">
<title>Node4&#45;&gt;Node7</title>
<path fill="none" stroke="midnightblue" d="M283.14,-66.48C302.99,-58.62 327.76,-48.92 350,-40.5 355.54,-38.4 361.34,-36.24 367.12,-34.1"/>
<polygon fill="midnightblue" stroke="midnightblue" points="368.61,-37.28 376.78,-30.54 366.19,-30.71 368.61,-37.28"/>
</g>
</g>
</svg>
