<?xml version="1.0" encoding="UTF-8" standalone="no"?>
<!DOCTYPE svg PUBLIC "-//W3C//DTD SVG 1.1//EN"
 "http://www.w3.org/Graphics/SVG/1.1/DTD/svg11.dtd">
<!-- Generated by graphviz version 2.50.0 (0)
 -->
<!-- Title: tklb::memory::MemoryPool Pages: 1 -->
<!--zoomable 645 -->
<svg id="main" version="1.1" xmlns="http://www.w3.org/2000/svg" xmlns:xlink="http://www.w3.org/1999/xlink" xml:space="preserve" onload="init(evt)">
<style type="text/css"><![CDATA[
.edge:hover path { stroke: red; }
.edge:hover polygon { stroke: red; fill: red; }
]]></style>
<script type="text/javascript"><![CDATA[
var edges = document.getElementsByTagName('g');
if (edges && edges.length) {
  for (var i=0;i<edges.length;i++) {
    if (edges[i].id.substr(0,4)=='edge') {
      edges[i].setAttribute('class','edge');
    }
  }
}
]]></script>
        <defs>
                <circle id="rim" cx="0" cy="0" r="7"/>
                <circle id="rim2" cx="0" cy="0" r="3.5"/>
                <g id="zoomPlus">
                        <use xlink:href="#rim" fill="#404040">
                                <set attributeName="fill" to="#808080" begin="zoomplus.mouseover" end="zoomplus.mouseout"/>
                        </use>
                        <path d="M-4,0h8M0,-4v8" fill="none" stroke="white" stroke-width="1.5" pointer-events="none"/>
                </g>
                <g id="zoomMin">
                        <use xlink:href="#rim" fill="#404040">
                                <set attributeName="fill" to="#808080" begin="zoomminus.mouseover" end="zoomminus.mouseout"/>
                        </use>
                        <path d="M-4,0h8" fill="none" stroke="white" stroke-width="1.5" pointer-events="none"/>
                </g>
                <g id="dirArrow">
                        <path fill="none" stroke="white" stroke-width="1.5" d="M0,-3.0v7 M-2.5,-0.5L0,-3.0L2.5,-0.5"/>
                </g>
               <g id="resetDef">
                       <use xlink:href="#rim2" fill="#404040">
                               <set attributeName="fill" to="#808080" begin="reset.mouseover" end="reset.mouseout"/>
                       </use>
               </g>
        </defs>

<script type="text/javascript">
var viewWidth = 365;
var viewHeight = 645;
var sectionId = 'dynsection-1';
</script>
<script xlink:href="svgpan.js"/>
<svg id="graph" class="graph">
<g id="viewport">
<title>tklb::memory::MemoryPool</title>
<!-- Node1 -->
<g id="node1" class="node">
<title>Node1</title>
<g id="a_node1"><a xlink:title="Memory pool interface.">
<polygon fill="#bfbfbf" stroke="black" points="39.5,-0.5 39.5,-200.5 188.5,-200.5 188.5,-0.5 39.5,-0.5"/>
<text text-anchor="middle" x="114" y="-188.5" font-family="Helvetica,sans-Serif" font-size="10.00">tklb::memory::MemoryPool</text>
<polyline fill="none" stroke="black" points="39.5,-181.5 188.5,-181.5 "/>
<text text-anchor="middle" x="114" y="-169.5" font-family="Helvetica,sans-Serif" font-size="10.00"> </text>
<polyline fill="none" stroke="black" points="39.5,-162.5 188.5,-162.5 "/>
<text text-anchor="start" x="47.5" y="-150.5" font-family="Helvetica,sans-Serif" font-size="10.00">+ MemoryPool()</text>
<text text-anchor="start" x="47.5" y="-139.5" font-family="Helvetica,sans-Serif" font-size="10.00">+ ~MemoryPool()</text>
<text text-anchor="start" x="47.5" y="-128.5" font-family="Helvetica,sans-Serif" font-size="10.00">+ getAllocated()</text>
<text text-anchor="start" x="47.5" y="-117.5" font-family="Helvetica,sans-Serif" font-size="10.00">+ getTotalSize()</text>
<text text-anchor="start" x="47.5" y="-106.5" font-family="Helvetica,sans-Serif" font-size="10.00">+ allocate()</text>
<text text-anchor="start" x="47.5" y="-95.5" font-family="Helvetica,sans-Serif" font-size="10.00">+ deallocate()</text>
<text text-anchor="start" x="47.5" y="-84.5" font-family="Helvetica,sans-Serif" font-size="10.00">+ reallocate()</text>
<text text-anchor="start" x="47.5" y="-73.5" font-family="Helvetica,sans-Serif" font-size="10.00">+ clearallocate()</text>
<text text-anchor="start" x="47.5" y="-62.5" font-family="Helvetica,sans-Serif" font-size="10.00">+ create()</text>
<text text-anchor="start" x="47.5" y="-51.5" font-family="Helvetica,sans-Serif" font-size="10.00">+ createArray()</text>
<text text-anchor="start" x="47.5" y="-40.5" font-family="Helvetica,sans-Serif" font-size="10.00">+ dispose()</text>
<text text-anchor="start" x="47.5" y="-29.5" font-family="Helvetica,sans-Serif" font-size="10.00">+ disposeArray()</text>
<text text-anchor="start" x="47.5" y="-18.5" font-family="Helvetica,sans-Serif" font-size="10.00">+ deallocateAligned()</text>
<text text-anchor="start" x="47.5" y="-7.5" font-family="Helvetica,sans-Serif" font-size="10.00">+ allocateAligned()</text>
</a>
</g>
</g>
<!-- Node2 -->
<g id="node2" class="node">
<title>Node2</title>
<g id="a_node2"><a xlink:title=" ">
<polygon fill="none" stroke="#bfbfbf" points="0,-254 0,-311 118,-311 118,-254 0,-254"/>
<text text-anchor="middle" x="59" y="-299" font-family="Helvetica,sans-Serif" font-size="10.00">static constexpr Size</text>
<polyline fill="none" stroke="#bfbfbf" points="0,-292 118,-292 "/>
<text text-anchor="middle" x="59" y="-280" font-family="Helvetica,sans-Serif" font-size="10.00"> </text>
<polyline fill="none" stroke="#bfbfbf" points="0,-273 118,-273 "/>
<text text-anchor="middle" x="59" y="-261" font-family="Helvetica,sans-Serif" font-size="10.00"> </text>
</a>
</g>
</g>
<!-- Node2&#45;&gt;Node1 -->
<g id="edge1" class="edge">
<title>Node2&#45;&gt;Node1</title>
<path fill="none" stroke="#404040" d="M67.47,-253.77C71.03,-242.14 75.41,-227.79 80.06,-212.58"/>
<polygon fill="none" stroke="#404040" points="80.14,-212.3 78.07,-205.39 83.65,-200.82 85.72,-207.73 80.14,-212.3"/>
<text text-anchor="middle" x="121" y="-222" font-family="Helvetica,sans-Serif" font-size="10.00"> #DEFAULT_ALIGN</text>
</g>
<!-- Node3 -->
<g id="node3" class="node">
<title>Node3</title>
<g id="a_node3"><a xlink:href="structtklb_1_1memory_1_1_memory_pool_1_1_shared_pool.html" target="_top" xlink:title="Pools can share the same space, but use it differently.">
<polygon fill="none" stroke="black" points="136.5,-248.5 136.5,-316.5 285.5,-316.5 285.5,-248.5 136.5,-248.5"/>
<text text-anchor="start" x="144.5" y="-304.5" font-family="Helvetica,sans-Serif" font-size="10.00">tklb::memory::MemoryPool</text>
<text text-anchor="middle" x="211" y="-293.5" font-family="Helvetica,sans-Serif" font-size="10.00">::SharedPool</text>
<polyline fill="none" stroke="black" points="136.5,-286.5 285.5,-286.5 "/>
<text text-anchor="middle" x="211" y="-274.5" font-family="Helvetica,sans-Serif" font-size="10.00"> </text>
<polyline fill="none" stroke="black" points="136.5,-267.5 285.5,-267.5 "/>
<text text-anchor="middle" x="211" y="-255.5" font-family="Helvetica,sans-Serif" font-size="10.00"> </text>
</a>
</g>
</g>
<!-- Node3&#45;&gt;Node1 -->
<g id="edge2" class="edge">
<title>Node3&#45;&gt;Node1</title>
<path fill="none" stroke="#404040" d="M193.21,-248.49C187.34,-237.59 180.45,-224.81 173.23,-211.41"/>
<polygon fill="none" stroke="#404040" points="173.07,-211.11 166.7,-207.73 167.38,-200.55 173.74,-203.93 173.07,-211.11"/>
<text text-anchor="middle" x="203.5" y="-222" font-family="Helvetica,sans-Serif" font-size="10.00"> #mPool</text>
</g>
<!-- Node4 -->
<g id="node4" class="node">
<title>Node4</title>
<g id="a_node4"><a xlink:title=" ">
<polygon fill="none" stroke="#bfbfbf" points="92,-430.5 92,-487.5 150,-487.5 150,-430.5 92,-430.5"/>
<text text-anchor="middle" x="121" y="-475.5" font-family="Helvetica,sans-Serif" font-size="10.00">uintptr_t</text>
<polyline fill="none" stroke="#bfbfbf" points="92,-468.5 150,-468.5 "/>
<text text-anchor="middle" x="121" y="-456.5" font-family="Helvetica,sans-Serif" font-size="10.00"> </text>
<polyline fill="none" stroke="#bfbfbf" points="92,-449.5 150,-449.5 "/>
<text text-anchor="middle" x="121" y="-437.5" font-family="Helvetica,sans-Serif" font-size="10.00"> </text>
</a>
</g>
</g>
<!-- Node4&#45;&gt;Node3 -->
<g id="edge3" class="edge">
<title>Node4&#45;&gt;Node3</title>
<path fill="none" stroke="#404040" d="M122.57,-430.21C125.15,-403.97 131.98,-364.35 150,-335 151.97,-331.8 154.2,-328.69 156.63,-325.71"/>
<polygon fill="none" stroke="#404040" points="156.85,-325.46 157.92,-318.33 164.92,-316.57 163.84,-323.7 156.85,-325.46"/>
<text text-anchor="middle" x="178.5" y="-360" font-family="Helvetica,sans-Serif" font-size="10.00"> +allocated</text>
<text text-anchor="middle" x="178.5" y="-349" font-family="Helvetica,sans-Serif" font-size="10.00">+size</text>
<text text-anchor="middle" x="178.5" y="-338" font-family="Helvetica,sans-Serif" font-size="10.00">+users</text>
</g>
<!-- Node5 -->
<g id="node5" class="node">
<title>Node5</title>
<g id="a_node5"><a xlink:href="classtklb_1_1_spin_lock.html" target="_top" xlink:title="Spinlock ! probably not thread safe.">
<polygon fill="none" stroke="black" points="168.5,-386.5 168.5,-531.5 253.5,-531.5 253.5,-386.5 168.5,-386.5"/>
<text text-anchor="middle" x="211" y="-519.5" font-family="Helvetica,sans-Serif" font-size="10.00">tklb::SpinLock</text>
<polyline fill="none" stroke="black" points="168.5,-512.5 253.5,-512.5 "/>
<text text-anchor="middle" x="211" y="-500.5" font-family="Helvetica,sans-Serif" font-size="10.00"> </text>
<polyline fill="none" stroke="black" points="168.5,-493.5 253.5,-493.5 "/>
<text text-anchor="start" x="176.5" y="-481.5" font-family="Helvetica,sans-Serif" font-size="10.00">+ SpinLock()</text>
<text text-anchor="start" x="176.5" y="-470.5" font-family="Helvetica,sans-Serif" font-size="10.00">+ SpinLock()</text>
<text text-anchor="start" x="176.5" y="-459.5" font-family="Helvetica,sans-Serif" font-size="10.00">+ SpinLock()</text>
<text text-anchor="start" x="176.5" y="-448.5" font-family="Helvetica,sans-Serif" font-size="10.00">+ operator=()</text>
<text text-anchor="start" x="176.5" y="-437.5" font-family="Helvetica,sans-Serif" font-size="10.00">+ operator=()</text>
<text text-anchor="start" x="176.5" y="-426.5" font-family="Helvetica,sans-Serif" font-size="10.00">+ SpinLock()</text>
<text text-anchor="start" x="176.5" y="-415.5" font-family="Helvetica,sans-Serif" font-size="10.00">+ lock()</text>
<text text-anchor="start" x="176.5" y="-404.5" font-family="Helvetica,sans-Serif" font-size="10.00">+ unlock()</text>
<text text-anchor="start" x="176.5" y="-393.5" font-family="Helvetica,sans-Serif" font-size="10.00">+ try_lock()</text>
</a>
</g>
</g>
<!-- Node5&#45;&gt;Node3 -->
<g id="edge4" class="edge">
<title>Node5&#45;&gt;Node3</title>
<path fill="none" stroke="#404040" d="M211,-386.27C211,-366.9 211,-346.49 211,-329"/>
<polygon fill="none" stroke="#404040" points="211,-328.84 207,-322.84 211,-316.84 215,-322.84 211,-328.84"/>
<text text-anchor="middle" x="232.5" y="-349" font-family="Helvetica,sans-Serif" font-size="10.00"> +mutex</text>
</g>
<!-- Node6 -->
<g id="node6" class="node">
<title>Node6</title>
<g id="a_node6"><a xlink:title=" ">
<polygon fill="none" stroke="#bfbfbf" points="192,-579.5 192,-636.5 230,-636.5 230,-579.5 192,-579.5"/>
<text text-anchor="middle" x="211" y="-624.5" font-family="Helvetica,sans-Serif" font-size="10.00">bool</text>
<polyline fill="none" stroke="#bfbfbf" points="192,-617.5 230,-617.5 "/>
<text text-anchor="middle" x="211" y="-605.5" font-family="Helvetica,sans-Serif" font-size="10.00"> </text>
<polyline fill="none" stroke="#bfbfbf" points="192,-598.5 230,-598.5 "/>
<text text-anchor="middle" x="211" y="-586.5" font-family="Helvetica,sans-Serif" font-size="10.00"> </text>
</a>
</g>
</g>
<!-- Node6&#45;&gt;Node5 -->
<g id="edge5" class="edge">
<title>Node6&#45;&gt;Node5</title>
<path fill="none" stroke="#404040" d="M211,-579.35C211,-569.01 211,-556.66 211,-543.89"/>
<polygon fill="none" stroke="#404040" points="211,-543.56 207,-537.56 211,-531.56 215,-537.56 211,-543.56"/>
<text text-anchor="middle" x="241.5" y="-553" font-family="Helvetica,sans-Serif" font-size="10.00"> &#45;mSpinLock</text>
</g>
<!-- Node7 -->
<g id="node7" class="node">
<title>Node7</title>
<g id="a_node7"><a xlink:title=" ">
<polygon fill="none" stroke="#bfbfbf" points="271.5,-430.5 271.5,-487.5 356.5,-487.5 356.5,-430.5 271.5,-430.5"/>
<text text-anchor="middle" x="314" y="-475.5" font-family="Helvetica,sans-Serif" font-size="10.00">unsigned char</text>
<polyline fill="none" stroke="#bfbfbf" points="271.5,-468.5 356.5,-468.5 "/>
<text text-anchor="middle" x="314" y="-456.5" font-family="Helvetica,sans-Serif" font-size="10.00"> </text>
<polyline fill="none" stroke="#bfbfbf" points="271.5,-449.5 356.5,-449.5 "/>
<text text-anchor="middle" x="314" y="-437.5" font-family="Helvetica,sans-Serif" font-size="10.00"> </text>
</a>
</g>
</g>
<!-- Node7&#45;&gt;Node3 -->
<g id="edge6" class="edge">
<title>Node7&#45;&gt;Node3</title>
<path fill="none" stroke="#404040" d="M304.27,-430.34C294.55,-404.54 278.17,-365.55 258,-335 256,-331.97 253.82,-328.94 251.53,-325.95"/>
<polygon fill="none" stroke="#404040" points="251.51,-325.92 244.62,-323.79 243.94,-316.61 250.83,-318.74 251.51,-325.92"/>
<text text-anchor="middle" x="302.5" y="-349" font-family="Helvetica,sans-Serif" font-size="10.00"> +memory</text>
</g>
</g>
</svg>
        <g id="navigator" transform="translate(0 0)" fill="#404254">
                <rect fill="#f2f5e9" fill-opacity="0.5" stroke="#606060" stroke-width=".5" x="0" y="0" width="60" height="60"/>
                <use id="zoomplus" xlink:href="#zoomPlus" x="17" y="9" onmousedown="handleZoom(evt,'in')"/>
                <use id="zoomminus" xlink:href="#zoomMin" x="42" y="9" onmousedown="handleZoom(evt,'out')"/>
                <use id="reset" xlink:href="#resetDef" x="30" y="36" onmousedown="handleReset()"/>
                <g id="arrowUp" xlink:href="#dirArrow" transform="translate(30 24)" onmousedown="handlePan(0,-1)">
                  <use xlink:href="#rim" fill="#404040">
                        <set attributeName="fill" to="#808080" begin="arrowUp.mouseover" end="arrowUp.mouseout"/>
                  </use>
                  <path fill="none" stroke="white" stroke-width="1.5" d="M0,-3.0v7 M-2.5,-0.5L0,-3.0L2.5,-0.5"/>
                </g>
                <g id="arrowRight" xlink:href="#dirArrow" transform="rotate(90) translate(36 -43)" onmousedown="handlePan(1,0)">
                  <use xlink:href="#rim" fill="#404040">
                        <set attributeName="fill" to="#808080" begin="arrowRight.mouseover" end="arrowRight.mouseout"/>
                  </use>
                  <path fill="none" stroke="white" stroke-width="1.5" d="M0,-3.0v7 M-2.5,-0.5L0,-3.0L2.5,-0.5"/>
                </g>
                <g id="arrowDown" xlink:href="#dirArrow" transform="rotate(180) translate(-30 -48)" onmousedown="handlePan(0,1)">
                  <use xlink:href="#rim" fill="#404040">
                        <set attributeName="fill" to="#808080" begin="arrowDown.mouseover" end="arrowDown.mouseout"/>
                  </use>
                  <path fill="none" stroke="white" stroke-width="1.5" d="M0,-3.0v7 M-2.5,-0.5L0,-3.0L2.5,-0.5"/>
                </g>
                <g id="arrowLeft" xlink:href="#dirArrow" transform="rotate(270) translate(-36 17)" onmousedown="handlePan(-1,0)">
                  <use xlink:href="#rim" fill="#404040">
                        <set attributeName="fill" to="#808080" begin="arrowLeft.mouseover" end="arrowLeft.mouseout"/>
                  </use>
                  <path fill="none" stroke="white" stroke-width="1.5" d="M0,-3.0v7 M-2.5,-0.5L0,-3.0L2.5,-0.5"/>
                </g>
        </g>
        <svg viewBox="0 0 15 15" width="100%" height="30px" preserveAspectRatio="xMaxYMin meet">
         <g id="arrow_out" transform="scale(0.3 0.3)">
          <a xlink:href="classtklb_1_1memory_1_1_memory_pool__coll__graph_org.svg" target="_base">
           <rect id="button" ry="5" rx="5" y="6" x="6" height="38" width="38"
                fill="#f2f5e9" fill-opacity="0.5" stroke="#606060" stroke-width="1.0"/>
           <path id="arrow"
             d="M 11.500037,31.436501 C 11.940474,20.09759 22.043105,11.32322 32.158766,21.979434 L 37.068811,17.246167 C 37.068811,17.246167 37.088388,32 37.088388,32 L 22.160133,31.978069 C 22.160133,31.978069 26.997745,27.140456 26.997745,27.140456 C 18.528582,18.264221 13.291696,25.230495 11.500037,31.436501 z"
             style="fill:#404040;"/>
          </a>
         </g>
        </svg>
</svg>
