<?xml version="1.0" encoding="UTF-8" standalone="no"?>
<!DOCTYPE svg PUBLIC "-//W3C//DTD SVG 1.1//EN"
 "http://www.w3.org/Graphics/SVG/1.1/DTD/svg11.dtd">
<!-- Generated by graphviz version 2.50.0 (0)
 -->
<!-- Title: tklb::Logger Pages: 1 -->
<svg width="280pt" height="694pt"
 viewBox="0.00 0.00 280.00 694.00" xmlns="http://www.w3.org/2000/svg" xmlns:xlink="http://www.w3.org/1999/xlink">
<g id="graph0" class="graph" transform="scale(1 1) rotate(0) translate(4 690)">
<title>tklb::Logger</title>
<!-- Node1 -->
<g id="node1" class="node">
<title>Node1</title>
<g id="a_node1"><a xlink:title=" ">
<polygon fill="#bfbfbf" stroke="black" points="118,-0.5 118,-178.5 198,-178.5 198,-0.5 118,-0.5"/>
<text text-anchor="middle" x="158" y="-166.5" font-family="Helvetica,sans-Serif" font-size="10.00">tklb::Logger</text>
<polyline fill="none" stroke="black" points="118,-159.5 198,-159.5 "/>
<text text-anchor="middle" x="158" y="-147.5" font-family="Helvetica,sans-Serif" font-size="10.00"> </text>
<polyline fill="none" stroke="black" points="118,-140.5 198,-140.5 "/>
<text text-anchor="start" x="126" y="-128.5" font-family="Helvetica,sans-Serif" font-size="10.00">+ setLevel()</text>
<text text-anchor="start" x="126" y="-117.5" font-family="Helvetica,sans-Serif" font-size="10.00">+ debug()</text>
<text text-anchor="start" x="126" y="-106.5" font-family="Helvetica,sans-Serif" font-size="10.00">+ info()</text>
<text text-anchor="start" x="126" y="-95.5" font-family="Helvetica,sans-Serif" font-size="10.00">+ warn()</text>
<text text-anchor="start" x="126" y="-84.5" font-family="Helvetica,sans-Serif" font-size="10.00">+ error()</text>
<text text-anchor="start" x="126" y="-73.5" font-family="Helvetica,sans-Serif" font-size="10.00">+ critical()</text>
<text text-anchor="start" x="126" y="-62.5" font-family="Helvetica,sans-Serif" font-size="10.00">&#45; Logger()</text>
<text text-anchor="start" x="126" y="-51.5" font-family="Helvetica,sans-Serif" font-size="10.00">&#45; ~Logger()</text>
<text text-anchor="start" x="126" y="-40.5" font-family="Helvetica,sans-Serif" font-size="10.00">&#45; Logger()</text>
<text text-anchor="start" x="126" y="-29.5" font-family="Helvetica,sans-Serif" font-size="10.00">&#45; operator=()</text>
<text text-anchor="start" x="126" y="-18.5" font-family="Helvetica,sans-Serif" font-size="10.00">&#45; instance()</text>
<text text-anchor="start" x="126" y="-7.5" font-family="Helvetica,sans-Serif" font-size="10.00">&#45; print()</text>
</a>
</g>
</g>
<!-- Node2 -->
<g id="node2" class="node">
<title>Node2</title>
<g id="a_node2"><a xlink:title=" ">
<polygon fill="none" stroke="#bfbfbf" points="23,-226.5 23,-283.5 105,-283.5 105,-226.5 23,-226.5"/>
<text text-anchor="middle" x="64" y="-271.5" font-family="Helvetica,sans-Serif" font-size="10.00">std::ofstream</text>
<polyline fill="none" stroke="#bfbfbf" points="23,-264.5 105,-264.5 "/>
<text text-anchor="middle" x="64" y="-252.5" font-family="Helvetica,sans-Serif" font-size="10.00"> </text>
<polyline fill="none" stroke="#bfbfbf" points="23,-245.5 105,-245.5 "/>
<text text-anchor="middle" x="64" y="-233.5" font-family="Helvetica,sans-Serif" font-size="10.00"> </text>
</a>
</g>
</g>
<!-- Node2&#45;&gt;Node1 -->
<g id="edge1" class="edge">
<title>Node2&#45;&gt;Node1</title>
<path fill="none" stroke="#404040" d="M79.95,-226.26C88.82,-210.83 100.37,-190.73 111.86,-170.76"/>
<polygon fill="none" stroke="#404040" points="111.86,-170.76 111.38,-163.56 117.84,-160.35 118.32,-167.55 111.86,-170.76"/>
<text text-anchor="middle" x="120" y="-200" font-family="Helvetica,sans-Serif" font-size="10.00"> &#45;mLogFile</text>
</g>
<!-- Node3 -->
<g id="node3" class="node">
<title>Node3</title>
<g id="a_node3"><a xlink:title=" ">
<polygon fill="none" stroke="#bfbfbf" points="7.5,-321.5 7.5,-389.5 120.5,-389.5 120.5,-321.5 7.5,-321.5"/>
<text text-anchor="start" x="15.5" y="-377.5" font-family="Helvetica,sans-Serif" font-size="10.00">std::basic_ofstream</text>
<text text-anchor="middle" x="64" y="-366.5" font-family="Helvetica,sans-Serif" font-size="10.00">&lt; Char &gt;</text>
<polyline fill="none" stroke="#bfbfbf" points="7.5,-359.5 120.5,-359.5 "/>
<text text-anchor="middle" x="64" y="-347.5" font-family="Helvetica,sans-Serif" font-size="10.00"> </text>
<polyline fill="none" stroke="#bfbfbf" points="7.5,-340.5 120.5,-340.5 "/>
<text text-anchor="middle" x="64" y="-328.5" font-family="Helvetica,sans-Serif" font-size="10.00"> </text>
</a>
</g>
</g>
<!-- Node3&#45;&gt;Node2 -->
<g id="edge2" class="edge">
<title>Node3&#45;&gt;Node2</title>
<path fill="none" stroke="midnightblue" d="M64,-311.38C64,-301.94 64,-292.2 64,-283.57"/>
<polygon fill="none" stroke="midnightblue" points="60.5,-311.43 64,-321.43 67.5,-311.43 60.5,-311.43"/>
</g>
<!-- Node4 -->
<g id="node4" class="node">
<title>Node4</title>
<g id="a_node4"><a xlink:title=" ">
<polygon fill="none" stroke="#bfbfbf" points="9.5,-427.5 9.5,-495.5 118.5,-495.5 118.5,-427.5 9.5,-427.5"/>
<text text-anchor="start" x="17.5" y="-483.5" font-family="Helvetica,sans-Serif" font-size="10.00">std::basic_ostream</text>
<text text-anchor="middle" x="64" y="-472.5" font-family="Helvetica,sans-Serif" font-size="10.00">&lt; Char &gt;</text>
<polyline fill="none" stroke="#bfbfbf" points="9.5,-465.5 118.5,-465.5 "/>
<text text-anchor="middle" x="64" y="-453.5" font-family="Helvetica,sans-Serif" font-size="10.00"> </text>
<polyline fill="none" stroke="#bfbfbf" points="9.5,-446.5 118.5,-446.5 "/>
<text text-anchor="middle" x="64" y="-434.5" font-family="Helvetica,sans-Serif" font-size="10.00"> </text>
</a>
</g>
</g>
<!-- Node4&#45;&gt;Node3 -->
<g id="edge3" class="edge">
<title>Node4&#45;&gt;Node3</title>
<path fill="none" stroke="midnightblue" d="M64,-417.17C64,-408 64,-398.46 64,-389.73"/>
<polygon fill="none" stroke="midnightblue" points="60.5,-417.31 64,-427.31 67.5,-417.31 60.5,-417.31"/>
</g>
<!-- Node5 -->
<g id="node5" class="node">
<title>Node5</title>
<g id="a_node5"><a xlink:title=" ">
<polygon fill="none" stroke="#bfbfbf" points="0,-533.5 0,-590.5 128,-590.5 128,-533.5 0,-533.5"/>
<text text-anchor="middle" x="64" y="-578.5" font-family="Helvetica,sans-Serif" font-size="10.00">std::basic_ios&lt; Char &gt;</text>
<polyline fill="none" stroke="#bfbfbf" points="0,-571.5 128,-571.5 "/>
<text text-anchor="middle" x="64" y="-559.5" font-family="Helvetica,sans-Serif" font-size="10.00"> </text>
<polyline fill="none" stroke="#bfbfbf" points="0,-552.5 128,-552.5 "/>
<text text-anchor="middle" x="64" y="-540.5" font-family="Helvetica,sans-Serif" font-size="10.00"> </text>
</a>
</g>
</g>
<!-- Node5&#45;&gt;Node4 -->
<g id="edge4" class="edge">
<title>Node5&#45;&gt;Node4</title>
<path fill="none" stroke="midnightblue" d="M64,-523.01C64,-513.96 64,-504.38 64,-495.58"/>
<polygon fill="none" stroke="midnightblue" points="60.5,-523.3 64,-533.3 67.5,-523.3 60.5,-523.3"/>
</g>
<!-- Node6 -->
<g id="node6" class="node">
<title>Node6</title>
<g id="a_node6"><a xlink:title=" ">
<polygon fill="none" stroke="#bfbfbf" points="24,-628.5 24,-685.5 104,-685.5 104,-628.5 24,-628.5"/>
<text text-anchor="middle" x="64" y="-673.5" font-family="Helvetica,sans-Serif" font-size="10.00">std::ios_base</text>
<polyline fill="none" stroke="#bfbfbf" points="24,-666.5 104,-666.5 "/>
<text text-anchor="middle" x="64" y="-654.5" font-family="Helvetica,sans-Serif" font-size="10.00"> </text>
<polyline fill="none" stroke="#bfbfbf" points="24,-647.5 104,-647.5 "/>
<text text-anchor="middle" x="64" y="-635.5" font-family="Helvetica,sans-Serif" font-size="10.00"> </text>
</a>
</g>
</g>
<!-- Node6&#45;&gt;Node5 -->
<g id="edge5" class="edge">
<title>Node6&#45;&gt;Node5</title>
<path fill="none" stroke="midnightblue" d="M64,-618.24C64,-609.03 64,-599.35 64,-590.71"/>
<polygon fill="none" stroke="midnightblue" points="60.5,-618.35 64,-628.35 67.5,-618.35 60.5,-618.35"/>
</g>
<!-- Node7 -->
<g id="node7" class="node">
<title>Node7</title>
<g id="a_node7"><a xlink:title=" ">
<polygon fill="none" stroke="#bfbfbf" points="123.5,-226.5 123.5,-283.5 192.5,-283.5 192.5,-226.5 123.5,-226.5"/>
<text text-anchor="middle" x="158" y="-271.5" font-family="Helvetica,sans-Serif" font-size="10.00">std::mutex</text>
<polyline fill="none" stroke="#bfbfbf" points="123.5,-264.5 192.5,-264.5 "/>
<text text-anchor="middle" x="158" y="-252.5" font-family="Helvetica,sans-Serif" font-size="10.00"> </text>
<polyline fill="none" stroke="#bfbfbf" points="123.5,-245.5 192.5,-245.5 "/>
<text text-anchor="middle" x="158" y="-233.5" font-family="Helvetica,sans-Serif" font-size="10.00"> </text>
</a>
</g>
</g>
<!-- Node7&#45;&gt;Node1 -->
<g id="edge6" class="edge">
<title>Node7&#45;&gt;Node1</title>
<path fill="none" stroke="#404040" d="M158,-226.26C158,-216.01 158,-203.7 158,-190.74"/>
<polygon fill="none" stroke="#404040" points="158,-190.7 154,-184.7 158,-178.7 162,-184.7 158,-190.7"/>
<text text-anchor="middle" x="191" y="-200" font-family="Helvetica,sans-Serif" font-size="10.00"> &#45;mWriteLock</text>
</g>
<!-- Node8 -->
<g id="node8" class="node">
<title>Node8</title>
<g id="a_node8"><a xlink:title=" ">
<polygon fill="none" stroke="#bfbfbf" points="225.5,-226.5 225.5,-283.5 268.5,-283.5 268.5,-226.5 225.5,-226.5"/>
<text text-anchor="middle" x="247" y="-271.5" font-family="Helvetica,sans-Serif" font-size="10.00">Level</text>
<polyline fill="none" stroke="#bfbfbf" points="225.5,-264.5 268.5,-264.5 "/>
<text text-anchor="middle" x="247" y="-252.5" font-family="Helvetica,sans-Serif" font-size="10.00"> </text>
<polyline fill="none" stroke="#bfbfbf" points="225.5,-245.5 268.5,-245.5 "/>
<text text-anchor="middle" x="247" y="-233.5" font-family="Helvetica,sans-Serif" font-size="10.00"> </text>
</a>
</g>
</g>
<!-- Node8&#45;&gt;Node1 -->
<g id="edge7" class="edge">
<title>Node8&#45;&gt;Node1</title>
<path fill="none" stroke="#404040" d="M237.53,-226.28C233.98,-216.82 229.66,-206.29 225,-197 218.9,-184.84 211.81,-172.3 204.56,-160.28"/>
<polygon fill="none" stroke="#404040" points="204.45,-160.1 197.9,-157.08 198.17,-149.87 204.72,-152.89 204.45,-160.1"/>
<text text-anchor="middle" x="250.5" y="-200" font-family="Helvetica,sans-Serif" font-size="10.00"> &#45;mLevel</text>
</g>
</g>
</svg>
