<?xml version="1.0" encoding="UTF-8" standalone="no"?>
<!DOCTYPE svg PUBLIC "-//W3C//DTD SVG 1.1//EN"
 "http://www.w3.org/Graphics/SVG/1.1/DTD/svg11.dtd">
<!-- Generated by graphviz version 2.50.0 (0)
 -->
<!-- Title: vae::core::Engine::loadHRTF Pages: 1 -->
<svg width="876pt" height="544pt"
 viewBox="0.00 0.00 876.00 544.00" xmlns="http://www.w3.org/2000/svg" xmlns:xlink="http://www.w3.org/1999/xlink">
<g id="graph0" class="graph" transform="scale(1 1) rotate(0) translate(4 540)">
<title>vae::core::Engine::loadHRTF</title>
<!-- Node1 -->
<g id="node1" class="node">
<title>Node1</title>
<g id="a_node1"><a xlink:title=" ">
<polygon fill="#bfbfbf" stroke="black" points="0,-309.5 0,-339.5 107,-339.5 107,-309.5 0,-309.5"/>
<text text-anchor="start" x="8" y="-327.5" font-family="Helvetica,sans-Serif" font-size="10.00">vae::core::Engine::</text>
<text text-anchor="middle" x="53.5" y="-316.5" font-family="Helvetica,sans-Serif" font-size="10.00">loadHRTF</text>
</a>
</g>
</g>
<!-- Node2 -->
<g id="node2" class="node">
<title>Node2</title>
<g id="a_node2"><a xlink:href="classvae_1_1core_1_1_spatial_processor.html#ad598b5dcbe8bed69fa6cb0b726170dd3" target="_top" xlink:title=" ">
<polygon fill="none" stroke="black" points="143,-309.5 143,-339.5 292,-339.5 292,-309.5 143,-309.5"/>
<text text-anchor="start" x="151" y="-327.5" font-family="Helvetica,sans-Serif" font-size="10.00">vae::core::SpatialProcessor</text>
<text text-anchor="middle" x="217.5" y="-316.5" font-family="Helvetica,sans-Serif" font-size="10.00">::loadHRTF</text>
</a>
</g>
</g>
<!-- Node1&#45;&gt;Node2 -->
<g id="edge1" class="edge">
<title>Node1&#45;&gt;Node2</title>
<path fill="none" stroke="midnightblue" d="M107.1,-324.5C115.33,-324.5 124.01,-324.5 132.74,-324.5"/>
<polygon fill="midnightblue" stroke="midnightblue" points="132.98,-328 142.98,-324.5 132.98,-321 132.98,-328"/>
</g>
<!-- Node3 -->
<g id="node3" class="node">
<title>Node3</title>
<g id="a_node3"><a xlink:href="classvae_1_1core_1_1_h_r_t_f_loader.html#a38e07107ad81acdbaed1ac6874978534" target="_top" xlink:title=" ">
<polygon fill="none" stroke="black" points="328,-309.5 328,-339.5 454,-339.5 454,-309.5 328,-309.5"/>
<text text-anchor="start" x="336" y="-327.5" font-family="Helvetica,sans-Serif" font-size="10.00">vae::core::HRTFLoader</text>
<text text-anchor="middle" x="391" y="-316.5" font-family="Helvetica,sans-Serif" font-size="10.00">::load</text>
</a>
</g>
</g>
<!-- Node2&#45;&gt;Node3 -->
<g id="edge2" class="edge">
<title>Node2&#45;&gt;Node3</title>
<path fill="none" stroke="midnightblue" d="M292.23,-324.5C300.68,-324.5 309.3,-324.5 317.73,-324.5"/>
<polygon fill="midnightblue" stroke="midnightblue" points="317.91,-328 327.91,-324.5 317.91,-321 317.91,-328"/>
</g>
<!-- Node4 -->
<g id="node4" class="node">
<title>Node4</title>
<g id="a_node4"><a xlink:href="classvae_1_1core_1_1_h_r_t_f_loader.html#a7c489c0405f35d7b636509be7ed302fb" target="_top" xlink:title=" ">
<polygon fill="none" stroke="black" points="490,-505.5 490,-535.5 616,-535.5 616,-505.5 490,-505.5"/>
<text text-anchor="start" x="498" y="-523.5" font-family="Helvetica,sans-Serif" font-size="10.00">vae::core::HRTFLoader</text>
<text text-anchor="middle" x="553" y="-512.5" font-family="Helvetica,sans-Serif" font-size="10.00">::allocate</text>
</a>
</g>
</g>
<!-- Node3&#45;&gt;Node4 -->
<g id="edge3" class="edge">
<title>Node3&#45;&gt;Node4</title>
<path fill="none" stroke="midnightblue" d="M397.49,-339.77C409.61,-371.62 441.49,-445.85 490,-490.5 494.01,-494.2 498.57,-497.53 503.34,-500.51"/>
<polygon fill="midnightblue" stroke="midnightblue" points="501.67,-503.58 512.09,-505.49 505.14,-497.5 501.67,-503.58"/>
</g>
<!-- Node6 -->
<g id="node6" class="node">
<title>Node6</title>
<g id="a_node6"><a xlink:href="namespacetklb.html#a7dc2203e89c331e3c85b9e7f16fa6763" target="_top" xlink:title=" ">
<polygon fill="none" stroke="black" points="805,-489 805,-508 868,-508 868,-489 805,-489"/>
<text text-anchor="middle" x="836.5" y="-496" font-family="Helvetica,sans-Serif" font-size="10.00">tklb::max</text>
</a>
</g>
</g>
<!-- Node3&#45;&gt;Node6 -->
<g id="edge12" class="edge">
<title>Node3&#45;&gt;Node6</title>
<path fill="none" stroke="midnightblue" d="M398.19,-339.64C410.75,-368.2 442.15,-429.66 490,-457.5 515.87,-472.55 708.84,-488.88 794.61,-495.48"/>
<polygon fill="midnightblue" stroke="midnightblue" points="794.53,-498.98 804.77,-496.25 795.06,-492 794.53,-498.98"/>
</g>
<!-- Node7 -->
<g id="node7" class="node">
<title>Node7</title>
<g id="a_node7"><a xlink:href="classtklb_1_1_string.html#a94e674695ef958e3a4d7778c7235856b" target="_top" xlink:title=" ">
<polygon fill="none" stroke="black" points="497,-429 497,-448 609,-448 609,-429 497,-429"/>
<text text-anchor="middle" x="553" y="-436" font-family="Helvetica,sans-Serif" font-size="10.00">tklb::String::append</text>
</a>
</g>
</g>
<!-- Node3&#45;&gt;Node7 -->
<g id="edge6" class="edge">
<title>Node3&#45;&gt;Node7</title>
<path fill="none" stroke="midnightblue" d="M405.22,-339.76C422.86,-359.33 455.86,-393.28 490,-414.5 496.47,-418.52 503.72,-422.06 510.93,-425.11"/>
<polygon fill="midnightblue" stroke="midnightblue" points="510.06,-428.53 520.65,-428.95 512.63,-422.02 510.06,-428.53"/>
</g>
<!-- Node8 -->
<g id="node8" class="node">
<title>Node8</title>
<g id="a_node8"><a xlink:href="classtklb_1_1_string.html#a2fd6f1c6342e803119507c94cd3c6b76" target="_top" xlink:title=" ">
<polygon fill="none" stroke="black" points="663,-391 663,-410 758,-410 758,-391 663,-391"/>
<text text-anchor="middle" x="710.5" y="-398" font-family="Helvetica,sans-Serif" font-size="10.00">tklb::String::size</text>
</a>
</g>
</g>
<!-- Node3&#45;&gt;Node8 -->
<g id="edge23" class="edge">
<title>Node3&#45;&gt;Node8</title>
<path fill="none" stroke="midnightblue" d="M411.78,-339.56C430.74,-353.09 460.73,-372.23 490,-381.5 543.45,-398.42 607.66,-402.19 652.78,-402.33"/>
<polygon fill="midnightblue" stroke="midnightblue" points="652.97,-405.83 662.96,-402.3 652.95,-398.83 652.97,-405.83"/>
</g>
<!-- Node9 -->
<g id="node9" class="node">
<title>Node9</title>
<g id="a_node9"><a xlink:href="classtklb_1_1_string.html#a2551f7f99fab1486f3d13b3a363824c5" target="_top" xlink:title=" ">
<polygon fill="none" stroke="black" points="503.5,-353 503.5,-372 602.5,-372 602.5,-353 503.5,-353"/>
<text text-anchor="middle" x="553" y="-360" font-family="Helvetica,sans-Serif" font-size="10.00">tklb::String::c_str</text>
</a>
</g>
</g>
<!-- Node3&#45;&gt;Node9 -->
<g id="edge8" class="edge">
<title>Node3&#45;&gt;Node9</title>
<path fill="none" stroke="midnightblue" d="M454.32,-339.3C470,-343.03 486.64,-346.98 501.66,-350.54"/>
<polygon fill="midnightblue" stroke="midnightblue" points="501.22,-354.04 511.76,-352.94 502.84,-347.23 501.22,-354.04"/>
</g>
<!-- Node10 -->
<g id="node10" class="node">
<title>Node10</title>
<g id="a_node10"><a xlink:href="classtklb_1_1_string.html#af160751fb9fbb7cba71b281db77ce9e5" target="_top" xlink:title=" ">
<polygon fill="none" stroke="black" points="504,-315 504,-334 602,-334 602,-315 504,-315"/>
<text text-anchor="middle" x="553" y="-322" font-family="Helvetica,sans-Serif" font-size="10.00">tklb::String::data</text>
</a>
</g>
</g>
<!-- Node3&#45;&gt;Node10 -->
<g id="edge9" class="edge">
<title>Node3&#45;&gt;Node10</title>
<path fill="none" stroke="midnightblue" d="M454.32,-324.5C467.33,-324.5 481.01,-324.5 493.87,-324.5"/>
<polygon fill="midnightblue" stroke="midnightblue" points="493.97,-328 503.97,-324.5 493.97,-321 493.97,-328"/>
</g>
<!-- Node11 -->
<g id="node11" class="node">
<title>Node11</title>
<g id="a_node11"><a xlink:href="classvae_1_1core_1_1_h_r_t_f_loader.html#a8107c8a30a0d31c631e1149c614cd1e2" target="_top" xlink:title=" ">
<polygon fill="none" stroke="black" points="490,-227.5 490,-257.5 616,-257.5 616,-227.5 490,-227.5"/>
<text text-anchor="start" x="498" y="-245.5" font-family="Helvetica,sans-Serif" font-size="10.00">vae::core::HRTFLoader</text>
<text text-anchor="middle" x="553" y="-234.5" font-family="Helvetica,sans-Serif" font-size="10.00">::deallocate</text>
</a>
</g>
</g>
<!-- Node3&#45;&gt;Node11 -->
<g id="edge10" class="edge">
<title>Node3&#45;&gt;Node11</title>
<path fill="none" stroke="midnightblue" d="M415.64,-309.46C435.17,-297.35 463.83,-280.3 490,-267.5 494.1,-265.49 498.4,-263.52 502.75,-261.6"/>
<polygon fill="midnightblue" stroke="midnightblue" points="504.45,-264.68 512.27,-257.53 501.7,-258.24 504.45,-264.68"/>
</g>
<!-- Node13 -->
<g id="node13" class="node">
<title>Node13</title>
<g id="a_node13"><a xlink:href="classvae_1_1core_1_1fs_1_1_file.html#a9b11ebabdce39848566a1bf4b225d7c2" target="_top" xlink:title=" ">
<polygon fill="none" stroke="black" points="503,-178.5 503,-208.5 603,-208.5 603,-178.5 503,-178.5"/>
<text text-anchor="start" x="511" y="-196.5" font-family="Helvetica,sans-Serif" font-size="10.00">vae::core::fs::File</text>
<text text-anchor="middle" x="553" y="-185.5" font-family="Helvetica,sans-Serif" font-size="10.00">::readAll</text>
</a>
</g>
</g>
<!-- Node3&#45;&gt;Node13 -->
<g id="edge13" class="edge">
<title>Node3&#45;&gt;Node13</title>
<path fill="none" stroke="midnightblue" d="M402.69,-309.17C419.13,-286.58 452.66,-244.26 490,-218.5 492.72,-216.62 495.61,-214.85 498.58,-213.19"/>
<polygon fill="midnightblue" stroke="midnightblue" points="500.41,-216.19 507.72,-208.52 497.23,-209.95 500.41,-216.19"/>
</g>
<!-- Node14 -->
<g id="node14" class="node">
<title>Node14</title>
<g id="a_node14"><a xlink:href="classvae_1_1core_1_1fs_1_1_file.html#a01e51acff408d0449c1b524c40596470" target="_top" xlink:title=" ">
<polygon fill="none" stroke="black" points="660.5,-137.5 660.5,-167.5 760.5,-167.5 760.5,-137.5 660.5,-137.5"/>
<text text-anchor="start" x="668.5" y="-155.5" font-family="Helvetica,sans-Serif" font-size="10.00">vae::core::fs::File</text>
<text text-anchor="middle" x="710.5" y="-144.5" font-family="Helvetica,sans-Serif" font-size="10.00">::size</text>
</a>
</g>
</g>
<!-- Node3&#45;&gt;Node14 -->
<g id="edge22" class="edge">
<title>Node3&#45;&gt;Node14</title>
<path fill="none" stroke="midnightblue" d="M396.5,-309.25C406.91,-276.96 436,-202.03 490,-169.5 538.19,-140.47 603.54,-139.2 650.37,-143.37"/>
<polygon fill="midnightblue" stroke="midnightblue" points="650.07,-146.86 660.37,-144.37 650.77,-139.89 650.07,-146.86"/>
</g>
<!-- Node16 -->
<g id="node16" class="node">
<title>Node16</title>
<g id="a_node16"><a xlink:href="classtklb_1_1_audio_buffer_tpl.html#a35b40f6d6b1fc2939613b1b84313b0bc" target="_top" xlink:title="! Will not keep the contents! Resizes the buffer to the desired length and channel count.">
<polygon fill="none" stroke="black" points="496,-68.5 496,-98.5 610,-98.5 610,-68.5 496,-68.5"/>
<text text-anchor="start" x="504" y="-86.5" font-family="Helvetica,sans-Serif" font-size="10.00">tklb::AudioBufferTpl</text>
<text text-anchor="middle" x="553" y="-75.5" font-family="Helvetica,sans-Serif" font-size="10.00">::resize</text>
</a>
</g>
</g>
<!-- Node3&#45;&gt;Node16 -->
<g id="edge16" class="edge">
<title>Node3&#45;&gt;Node16</title>
<path fill="none" stroke="midnightblue" d="M397.47,-309.35C410.13,-275.68 443.89,-193.04 490,-135.5 499.1,-124.14 510.99,-113.46 521.92,-104.77"/>
<polygon fill="midnightblue" stroke="midnightblue" points="524.23,-107.41 530.03,-98.53 519.97,-101.86 524.23,-107.41"/>
</g>
<!-- Node20 -->
<g id="node20" class="node">
<title>Node20</title>
<g id="a_node20"><a xlink:href="classtklb_1_1_string.html#a6106e1733cc6c09b98bd203f8a9a2653" target="_top" xlink:title=" ">
<polygon fill="none" stroke="black" points="500.5,-277 500.5,-296 605.5,-296 605.5,-277 500.5,-277"/>
<text text-anchor="middle" x="553" y="-284" font-family="Helvetica,sans-Serif" font-size="10.00">tklb::String::resize</text>
</a>
</g>
</g>
<!-- Node3&#45;&gt;Node20 -->
<g id="edge20" class="edge">
<title>Node3&#45;&gt;Node20</title>
<path fill="none" stroke="midnightblue" d="M454.32,-309.7C470,-305.97 486.64,-302.02 501.66,-298.46"/>
<polygon fill="midnightblue" stroke="midnightblue" points="502.84,-301.77 511.76,-296.06 501.22,-294.96 502.84,-301.77"/>
</g>
<!-- Node5 -->
<g id="node5" class="node">
<title>Node5</title>
<g id="a_node5"><a xlink:href="structvae_1_1core_1_1memory_1_1_allocator.html#ab9d50dc662897c7fe691368feffa2f98" target="_top" xlink:title=" ">
<polygon fill="none" stroke="black" points="653,-505.5 653,-535.5 768,-535.5 768,-505.5 653,-505.5"/>
<text text-anchor="start" x="661" y="-523.5" font-family="Helvetica,sans-Serif" font-size="10.00">vae::core::memory::</text>
<text text-anchor="middle" x="710.5" y="-512.5" font-family="Helvetica,sans-Serif" font-size="10.00">Allocator::allocate</text>
</a>
</g>
</g>
<!-- Node4&#45;&gt;Node5 -->
<g id="edge4" class="edge">
<title>Node4&#45;&gt;Node5</title>
<path fill="none" stroke="midnightblue" d="M616.35,-520.5C624.98,-520.5 633.86,-520.5 642.57,-520.5"/>
<polygon fill="midnightblue" stroke="midnightblue" points="642.67,-524 652.67,-520.5 642.67,-517 642.67,-524"/>
</g>
<!-- Node5&#45;&gt;Node6 -->
<g id="edge5" class="edge">
<title>Node5&#45;&gt;Node6</title>
<path fill="none" stroke="midnightblue" d="M768.06,-510.47C777.05,-508.87 786.19,-507.25 794.73,-505.73"/>
<polygon fill="midnightblue" stroke="midnightblue" points="795.55,-509.14 804.78,-503.95 794.33,-502.25 795.55,-509.14"/>
</g>
<!-- Node7&#45;&gt;Node8 -->
<g id="edge7" class="edge">
<title>Node7&#45;&gt;Node8</title>
<path fill="none" stroke="midnightblue" d="M593.24,-428.91C613.76,-423.9 639.07,-417.71 660.83,-412.39"/>
<polygon fill="midnightblue" stroke="midnightblue" points="661.66,-415.79 670.54,-410.02 660,-408.99 661.66,-415.79"/>
</g>
<!-- Node12 -->
<g id="node12" class="node">
<title>Node12</title>
<g id="a_node12"><a xlink:href="structvae_1_1core_1_1memory_1_1_allocator.html#ad43fb821d811e939ff461747efcaca6e" target="_top" xlink:title=" ">
<polygon fill="none" stroke="black" points="652,-227.5 652,-257.5 769,-257.5 769,-227.5 652,-227.5"/>
<text text-anchor="start" x="660" y="-245.5" font-family="Helvetica,sans-Serif" font-size="10.00">vae::core::memory::</text>
<text text-anchor="middle" x="710.5" y="-234.5" font-family="Helvetica,sans-Serif" font-size="10.00">Allocator::deallocate</text>
</a>
</g>
</g>
<!-- Node11&#45;&gt;Node12 -->
<g id="edge11" class="edge">
<title>Node11&#45;&gt;Node12</title>
<path fill="none" stroke="midnightblue" d="M616.35,-242.5C624.7,-242.5 633.3,-242.5 641.74,-242.5"/>
<polygon fill="midnightblue" stroke="midnightblue" points="641.92,-246 651.92,-242.5 641.92,-239 641.92,-246"/>
</g>
<!-- Node13&#45;&gt;Node14 -->
<g id="edge14" class="edge">
<title>Node13&#45;&gt;Node14</title>
<path fill="none" stroke="midnightblue" d="M603.2,-180.53C618.16,-176.58 634.77,-172.21 650.31,-168.11"/>
<polygon fill="midnightblue" stroke="midnightblue" points="651.58,-171.39 660.35,-165.46 649.79,-164.62 651.58,-171.39"/>
</g>
<!-- Node15 -->
<g id="node15" class="node">
<title>Node15</title>
<g id="a_node15"><a xlink:href="vae__fs_8hpp.html#a82978d110bb709013681115bb44e48ae" target="_top" xlink:title=" ">
<polygon fill="none" stroke="black" points="669,-187 669,-206 752,-206 752,-187 669,-187"/>
<text text-anchor="middle" x="710.5" y="-194" font-family="Helvetica,sans-Serif" font-size="10.00">vae_file_read</text>
</a>
</g>
</g>
<!-- Node13&#45;&gt;Node15 -->
<g id="edge15" class="edge">
<title>Node13&#45;&gt;Node15</title>
<path fill="none" stroke="midnightblue" d="M603.2,-194.45C620.9,-194.79 640.9,-195.18 658.73,-195.52"/>
<polygon fill="midnightblue" stroke="midnightblue" points="658.88,-199.02 668.95,-195.72 659.02,-192.03 658.88,-199.02"/>
</g>
<!-- Node17 -->
<g id="node17" class="node">
<title>Node17</title>
<g id="a_node17"><a xlink:href="classtklb_1_1_audio_buffer_tpl.html#a7859b26033cbb893c2ea7acea54d8013" target="_top" xlink:title="Returns the amount of channels.">
<polygon fill="none" stroke="black" points="653.5,-88.5 653.5,-118.5 767.5,-118.5 767.5,-88.5 653.5,-88.5"/>
<text text-anchor="start" x="661.5" y="-106.5" font-family="Helvetica,sans-Serif" font-size="10.00">tklb::AudioBufferTpl</text>
<text text-anchor="middle" x="710.5" y="-95.5" font-family="Helvetica,sans-Serif" font-size="10.00">::channels</text>
</a>
</g>
</g>
<!-- Node16&#45;&gt;Node17 -->
<g id="edge17" class="edge">
<title>Node16&#45;&gt;Node17</title>
<path fill="none" stroke="midnightblue" d="M610.14,-90.72C620.93,-92.11 632.32,-93.57 643.39,-95"/>
<polygon fill="midnightblue" stroke="midnightblue" points="643.08,-98.49 653.44,-96.29 643.97,-91.54 643.08,-98.49"/>
</g>
<!-- Node18 -->
<g id="node18" class="node">
<title>Node18</title>
<g id="a_node18"><a xlink:href="namespacetklb.html#a3080595da18d742645ec41d61828a426" target="_top" xlink:title=" ">
<polygon fill="none" stroke="black" points="680.5,-50 680.5,-69 740.5,-69 740.5,-50 680.5,-50"/>
<text text-anchor="middle" x="710.5" y="-57" font-family="Helvetica,sans-Serif" font-size="10.00">tklb::min</text>
</a>
</g>
</g>
<!-- Node16&#45;&gt;Node18 -->
<g id="edge18" class="edge">
<title>Node16&#45;&gt;Node18</title>
<path fill="none" stroke="midnightblue" d="M610.14,-74.84C630.01,-71.77 651.93,-68.39 670.11,-65.58"/>
<polygon fill="midnightblue" stroke="midnightblue" points="670.72,-69.03 680.07,-64.04 669.65,-62.11 670.72,-69.03"/>
</g>
<!-- Node19 -->
<g id="node19" class="node">
<title>Node19</title>
<g id="a_node19"><a xlink:href="classtklb_1_1_audio_buffer_tpl.html#af6df8d7e6840eee3f84807bd1662c3ed" target="_top" xlink:title="Returns the allocated length of the buffer.">
<polygon fill="none" stroke="black" points="653.5,-0.5 653.5,-30.5 767.5,-30.5 767.5,-0.5 653.5,-0.5"/>
<text text-anchor="start" x="661.5" y="-18.5" font-family="Helvetica,sans-Serif" font-size="10.00">tklb::AudioBufferTpl</text>
<text text-anchor="middle" x="710.5" y="-7.5" font-family="Helvetica,sans-Serif" font-size="10.00">::size</text>
</a>
</g>
</g>
<!-- Node16&#45;&gt;Node19 -->
<g id="edge19" class="edge">
<title>Node16&#45;&gt;Node19</title>
<path fill="none" stroke="midnightblue" d="M588.46,-68.35C607.23,-60.1 630.89,-49.72 652,-40.5 656.38,-38.59 660.96,-36.59 665.52,-34.6"/>
<polygon fill="midnightblue" stroke="midnightblue" points="667.06,-37.75 674.83,-30.55 664.26,-31.33 667.06,-37.75"/>
</g>
<!-- Node20&#45;&gt;Node8 -->
<g id="edge21" class="edge">
<title>Node20&#45;&gt;Node8</title>
<path fill="none" stroke="midnightblue" d="M595.59,-296.11C602.67,-298.61 609.74,-301.7 616,-305.5 649.76,-325.98 680.05,-361.36 696.5,-382.68"/>
<polygon fill="midnightblue" stroke="midnightblue" points="693.86,-385 702.68,-390.88 699.45,-380.78 693.86,-385"/>
</g>
</g>
</svg>
