<?xml version="1.0" encoding="UTF-8" standalone="no"?>
<!DOCTYPE svg PUBLIC "-//W3C//DTD SVG 1.1//EN"
 "http://www.w3.org/Graphics/SVG/1.1/DTD/svg11.dtd">
<!-- Generated by graphviz version 2.50.0 (0)
 -->
<!-- Title: vae::core::BackendDummy::getDefaultOutputDevice Pages: 1 -->
<svg width="527pt" height="78pt"
 viewBox="0.00 0.00 527.00 77.50" xmlns="http://www.w3.org/2000/svg" xmlns:xlink="http://www.w3.org/1999/xlink">
<g id="graph0" class="graph" transform="scale(1 1) rotate(0) translate(4 73.5)">
<title>vae::core::BackendDummy::getDefaultOutputDevice</title>
<!-- Node1 -->
<g id="node1" class="node">
<title>Node1</title>
<g id="a_node1"><a xlink:title=" ">
<polygon fill="#bfbfbf" stroke="black" points="0,-17 0,-47 149,-47 149,-17 0,-17"/>
<text text-anchor="start" x="8" y="-35" font-family="Helvetica,sans-Serif" font-size="10.00">vae::core::BackendDummy</text>
<text text-anchor="middle" x="74.5" y="-24" font-family="Helvetica,sans-Serif" font-size="10.00">::getDefaultOutputDevice</text>
</a>
</g>
</g>
<!-- Node2 -->
<g id="node2" class="node">
<title>Node2</title>
<g id="a_node2"><a xlink:href="classvae_1_1core_1_1_backend_dummy.html#a99e644e3c0830be83f598ac386030277" target="_top" xlink:title="Returns a spefic device info for index.">
<polygon fill="none" stroke="black" points="185,-17 185,-47 334,-47 334,-17 185,-17"/>
<text text-anchor="start" x="193" y="-35" font-family="Helvetica,sans-Serif" font-size="10.00">vae::core::BackendDummy</text>
<text text-anchor="middle" x="259.5" y="-24" font-family="Helvetica,sans-Serif" font-size="10.00">::getDevice</text>
</a>
</g>
</g>
<!-- Node1&#45;&gt;Node2 -->
<g id="edge1" class="edge">
<title>Node1&#45;&gt;Node2</title>
<path fill="none" stroke="midnightblue" d="M149.14,-32C157.47,-32 166.01,-32 174.46,-32"/>
<polygon fill="midnightblue" stroke="midnightblue" points="174.71,-35.5 184.71,-32 174.71,-28.5 174.71,-35.5"/>
</g>
<!-- Node3 -->
<g id="node3" class="node">
<title>Node3</title>
<g id="a_node3"><a xlink:href="classvae_1_1core_1_1_backend_dummy.html#aa0d4785bd54cfd7bb2e718bd42db67ce" target="_top" xlink:title="Returns name of the api.">
<polygon fill="none" stroke="black" points="370,-39 370,-69 519,-69 519,-39 370,-39"/>
<text text-anchor="start" x="378" y="-57" font-family="Helvetica,sans-Serif" font-size="10.00">vae::core::BackendDummy</text>
<text text-anchor="middle" x="444.5" y="-46" font-family="Helvetica,sans-Serif" font-size="10.00">::getName</text>
</a>
</g>
</g>
<!-- Node2&#45;&gt;Node3 -->
<g id="edge2" class="edge">
<title>Node2&#45;&gt;Node3</title>
<path fill="none" stroke="midnightblue" d="M334.14,-40.85C342.57,-41.87 351.2,-42.9 359.74,-43.93"/>
<polygon fill="midnightblue" stroke="midnightblue" points="359.36,-47.41 369.71,-45.13 360.2,-40.46 359.36,-47.41"/>
</g>
<!-- Node4 -->
<g id="node4" class="node">
<title>Node4</title>
<g id="a_node4"><a xlink:href="namespacetklb_1_1memory.html#a03c76a0f946284624b0bf7dc37ee311a" target="_top" xlink:title=" ">
<polygon fill="none" stroke="black" points="374,-0.5 374,-19.5 515,-19.5 515,-0.5 374,-0.5"/>
<text text-anchor="middle" x="444.5" y="-7.5" font-family="Helvetica,sans-Serif" font-size="10.00">tklb::memory::stringCopy</text>
</a>
</g>
</g>
<!-- Node2&#45;&gt;Node4 -->
<g id="edge3" class="edge">
<title>Node2&#45;&gt;Node4</title>
<path fill="none" stroke="midnightblue" d="M334.14,-23.15C343.87,-21.98 353.88,-20.77 363.71,-19.59"/>
<polygon fill="midnightblue" stroke="midnightblue" points="364.35,-23.04 373.86,-18.37 363.52,-16.09 364.35,-23.04"/>
</g>
</g>
</svg>
