<?xml version="1.0" encoding="UTF-8" standalone="no"?>
<!DOCTYPE svg PUBLIC "-//W3C//DTD SVG 1.1//EN"
 "http://www.w3.org/Graphics/SVG/1.1/DTD/svg11.dtd">
<!-- Generated by graphviz version 2.50.0 (0)
 -->
<!-- Title: vae::core::BankManager::init Pages: 1 -->
<svg width="1510pt" height="466pt"
 viewBox="0.00 0.00 1510.00 466.49" xmlns="http://www.w3.org/2000/svg" xmlns:xlink="http://www.w3.org/1999/xlink">
<g id="graph0" class="graph" transform="scale(1 1) rotate(0) translate(4 462.49)">
<title>vae::core::BankManager::init</title>
<!-- Node1 -->
<g id="node1" class="node">
<title>Node1</title>
<g id="a_node1"><a xlink:title="Will reload all the banks.">
<polygon fill="#bfbfbf" stroke="black" points="0,-235.99 0,-265.99 134,-265.99 134,-235.99 0,-235.99"/>
<text text-anchor="start" x="8" y="-253.99" font-family="Helvetica,sans-Serif" font-size="10.00">vae::core::BankManager</text>
<text text-anchor="middle" x="67" y="-242.99" font-family="Helvetica,sans-Serif" font-size="10.00">::init</text>
</a>
</g>
</g>
<!-- Node2 -->
<g id="node2" class="node">
<title>Node2</title>
<g id="a_node2"><a xlink:href="classvae_1_1core_1_1_bank_manager.html#ab06ae4e1f8106811c8149dd73bef6bd0" target="_top" xlink:title=" ">
<polygon fill="none" stroke="black" points="170,-260.99 170,-290.99 304,-290.99 304,-260.99 170,-260.99"/>
<text text-anchor="start" x="178" y="-278.99" font-family="Helvetica,sans-Serif" font-size="10.00">vae::core::BankManager</text>
<text text-anchor="middle" x="237" y="-267.99" font-family="Helvetica,sans-Serif" font-size="10.00">::load</text>
</a>
</g>
</g>
<!-- Node1&#45;&gt;Node2 -->
<g id="edge1" class="edge">
<title>Node1&#45;&gt;Node2</title>
<path fill="none" stroke="midnightblue" d="M134.4,-260.87C142.77,-262.12 151.39,-263.4 159.89,-264.66"/>
<polygon fill="midnightblue" stroke="midnightblue" points="159.4,-268.13 169.81,-266.14 160.43,-261.2 159.4,-268.13"/>
</g>
<!-- Node32 -->
<g id="node32" class="node">
<title>Node32</title>
<g id="a_node32"><a xlink:href="classvae_1_1core_1_1_bank_manager.html#a27efc3726af9c215c150197e2eb43c71" target="_top" xlink:title=" ">
<polygon fill="none" stroke="black" points="170,-211.99 170,-241.99 304,-241.99 304,-211.99 170,-211.99"/>
<text text-anchor="start" x="178" y="-229.99" font-family="Helvetica,sans-Serif" font-size="10.00">vae::core::BankManager</text>
<text text-anchor="middle" x="237" y="-218.99" font-family="Helvetica,sans-Serif" font-size="10.00">::unloadFromId</text>
</a>
</g>
</g>
<!-- Node1&#45;&gt;Node32 -->
<g id="edge48" class="edge">
<title>Node1&#45;&gt;Node32</title>
<path fill="none" stroke="midnightblue" d="M134.4,-241.5C142.77,-240.31 151.39,-239.08 159.89,-237.86"/>
<polygon fill="midnightblue" stroke="midnightblue" points="160.4,-241.32 169.81,-236.44 159.41,-234.39 160.4,-241.32"/>
</g>
<!-- Node2&#45;&gt;Node2 -->
<g id="edge47" class="edge">
<title>Node2&#45;&gt;Node2</title>
<path fill="none" stroke="midnightblue" d="M208.42,-291.15C201.53,-300.55 211.05,-309.49 237,-309.49 252.81,-309.49 262.52,-306.17 266.14,-301.45"/>
<polygon fill="midnightblue" stroke="midnightblue" points="269.62,-300.94 265.58,-291.15 262.63,-301.32 269.62,-300.94"/>
</g>
<!-- Node3 -->
<g id="node3" class="node">
<title>Node3</title>
<g id="a_node3"><a xlink:href="classvae_1_1core_1_1_bank_loader.html#a0c168e922d02dbe23ec42ebfde4d97a2" target="_top" xlink:title="Load a bank.json and all wav files referenced in it.">
<polygon fill="none" stroke="black" points="340,-260.99 340,-290.99 465,-290.99 465,-260.99 340,-260.99"/>
<text text-anchor="start" x="348" y="-278.99" font-family="Helvetica,sans-Serif" font-size="10.00">vae::core::BankLoader</text>
<text text-anchor="middle" x="402.5" y="-267.99" font-family="Helvetica,sans-Serif" font-size="10.00">::load</text>
</a>
</g>
</g>
<!-- Node2&#45;&gt;Node3 -->
<g id="edge2" class="edge">
<title>Node2&#45;&gt;Node3</title>
<path fill="none" stroke="midnightblue" d="M304.03,-275.99C312.57,-275.99 321.34,-275.99 329.96,-275.99"/>
<polygon fill="midnightblue" stroke="midnightblue" points="329.98,-279.49 339.98,-275.99 329.98,-272.49 329.98,-279.49"/>
</g>
<!-- Node4 -->
<g id="node4" class="node">
<title>Node4</title>
<g id="a_node4"><a xlink:href="structvae_1_1core_1_1_source_loader.html#a2341f89c2b79148066369e8d50d98597" target="_top" xlink:title="Loads a wav file for the resource.">
<polygon fill="none" stroke="black" points="501,-260.99 501,-290.99 635,-290.99 635,-260.99 501,-260.99"/>
<text text-anchor="start" x="509" y="-278.99" font-family="Helvetica,sans-Serif" font-size="10.00">vae::core::SourceLoader</text>
<text text-anchor="middle" x="568" y="-267.99" font-family="Helvetica,sans-Serif" font-size="10.00">::load</text>
</a>
</g>
</g>
<!-- Node3&#45;&gt;Node4 -->
<g id="edge3" class="edge">
<title>Node3&#45;&gt;Node4</title>
<path fill="none" stroke="midnightblue" d="M465.31,-275.99C473.54,-275.99 482.06,-275.99 490.5,-275.99"/>
<polygon fill="midnightblue" stroke="midnightblue" points="490.73,-279.49 500.73,-275.99 490.73,-272.49 490.73,-279.49"/>
</g>
<!-- Node5 -->
<g id="node5" class="node">
<title>Node5</title>
<g id="a_node5"><a xlink:href="namespacetklb_1_1ogg.html#a61b130503ea6c0157f584d36dec61371" target="_top" xlink:title="Decode ogg/vorbis from memory or file path.">
<polygon fill="none" stroke="black" points="675.5,-345.49 675.5,-364.49 761.5,-364.49 761.5,-345.49 675.5,-345.49"/>
<text text-anchor="middle" x="718.5" y="-352.49" font-family="Helvetica,sans-Serif" font-size="10.00">tklb::ogg::load</text>
</a>
</g>
</g>
<!-- Node4&#45;&gt;Node5 -->
<g id="edge4" class="edge">
<title>Node4&#45;&gt;Node5</title>
<path fill="none" stroke="midnightblue" d="M597.28,-291.03C624.11,-305.31 664.15,-326.61 690.54,-340.64"/>
<polygon fill="midnightblue" stroke="midnightblue" points="689.12,-343.85 699.59,-345.46 692.41,-337.67 689.12,-343.85"/>
</g>
<!-- Node18 -->
<g id="node18" class="node">
<title>Node18</title>
<g id="a_node18"><a xlink:href="namespacetklb_1_1wave.html#a0eea36d8e07b1520ce77191e081c45bb" target="_top" xlink:title="Decode wav from memory or file path.">
<polygon fill="none" stroke="black" points="671,-206.49 671,-225.49 766,-225.49 766,-206.49 671,-206.49"/>
<text text-anchor="middle" x="718.5" y="-213.49" font-family="Helvetica,sans-Serif" font-size="10.00">tklb::wave::load</text>
</a>
</g>
</g>
<!-- Node4&#45;&gt;Node18 -->
<g id="edge23" class="edge">
<title>Node4&#45;&gt;Node18</title>
<path fill="none" stroke="midnightblue" d="M606.47,-260.85C630.53,-251.13 661.48,-238.62 684.59,-229.29"/>
<polygon fill="midnightblue" stroke="midnightblue" points="686.01,-232.49 693.97,-225.5 683.39,-226 686.01,-232.49"/>
</g>
<!-- Node6 -->
<g id="node6" class="node">
<title>Node6</title>
<g id="a_node6"><a xlink:href="classtklb_1_1_audio_buffer_tpl.html#a2cf39ec8b1c8b109e5d4d006b1385391" target="_top" xlink:title="Fills an 2d array of size maxChannels() with pointers to each channel.">
<polygon fill="none" stroke="black" points="821,-427.99 821,-457.99 935,-457.99 935,-427.99 821,-427.99"/>
<text text-anchor="start" x="829" y="-445.99" font-family="Helvetica,sans-Serif" font-size="10.00">tklb::AudioBufferTpl</text>
<text text-anchor="middle" x="878" y="-434.99" font-family="Helvetica,sans-Serif" font-size="10.00">::getRaw</text>
</a>
</g>
</g>
<!-- Node5&#45;&gt;Node6 -->
<g id="edge5" class="edge">
<title>Node5&#45;&gt;Node6</title>
<path fill="none" stroke="midnightblue" d="M731.23,-364.56C746.73,-376.9 775.22,-398.47 802,-412.99 809.19,-416.88 816.99,-420.56 824.76,-423.92"/>
<polygon fill="midnightblue" stroke="midnightblue" points="823.59,-427.22 834.17,-427.84 826.29,-420.76 823.59,-427.22"/>
</g>
<!-- Node13 -->
<g id="node13" class="node">
<title>Node13</title>
<g id="a_node13"><a xlink:href="classtklb_1_1_audio_buffer_tpl.html#addb80823bf792039ad009baeed0a7dcb" target="_top" xlink:title="Resizes the buffer to the desired length and channel count.">
<polygon fill="none" stroke="black" points="1004,-208.99 1004,-238.99 1118,-238.99 1118,-208.99 1004,-208.99"/>
<text text-anchor="start" x="1012" y="-226.99" font-family="Helvetica,sans-Serif" font-size="10.00">tklb::AudioBufferTpl</text>
<text text-anchor="middle" x="1061" y="-215.99" font-family="Helvetica,sans-Serif" font-size="10.00">::resize</text>
</a>
</g>
</g>
<!-- Node5&#45;&gt;Node13 -->
<g id="edge12" class="edge">
<title>Node5&#45;&gt;Node13</title>
<path fill="none" stroke="midnightblue" d="M743.29,-345.39C790.27,-326.48 898.36,-283.3 990,-248.99 995.57,-246.9 1001.41,-244.76 1007.24,-242.64"/>
<polygon fill="midnightblue" stroke="midnightblue" points="1008.77,-245.81 1016.98,-239.12 1006.39,-239.22 1008.77,-245.81"/>
</g>
<!-- Node16 -->
<g id="node16" class="node">
<title>Node16</title>
<g id="a_node16"><a xlink:href="classtklb_1_1_audio_buffer_tpl.html#aa11a79c75ab7aa4e7bb0a70a87bd743d" target="_top" xlink:title="Set a single channel from an array.">
<polygon fill="none" stroke="black" points="993.5,-345.49 993.5,-364.49 1128.5,-364.49 1128.5,-345.49 993.5,-345.49"/>
<text text-anchor="middle" x="1061" y="-352.49" font-family="Helvetica,sans-Serif" font-size="10.00">tklb::AudioBufferTpl::set</text>
</a>
</g>
</g>
<!-- Node5&#45;&gt;Node16 -->
<g id="edge16" class="edge">
<title>Node5&#45;&gt;Node16</title>
<path fill="none" stroke="midnightblue" d="M744.34,-364.61C760.49,-370.34 782.16,-377.05 802,-379.99 868.83,-389.89 886.9,-387.79 954,-379.99 975.43,-377.5 998.82,-372.26 1018.16,-367.22"/>
<polygon fill="midnightblue" stroke="midnightblue" points="1019.12,-370.58 1027.87,-364.62 1017.31,-363.82 1019.12,-370.58"/>
</g>
<!-- Node17 -->
<g id="node17" class="node">
<title>Node17</title>
<g id="a_node17"><a xlink:href="classtklb_1_1_audio_buffer_tpl.html#ae6bac549ffef997e42354d8e4870afe4" target="_top" xlink:title="Set the amount of valid samples currently in the buffer This is mostly a convenience flag since the a...">
<polygon fill="none" stroke="black" points="821,-339.99 821,-369.99 935,-369.99 935,-339.99 821,-339.99"/>
<text text-anchor="start" x="829" y="-357.99" font-family="Helvetica,sans-Serif" font-size="10.00">tklb::AudioBufferTpl</text>
<text text-anchor="middle" x="878" y="-346.99" font-family="Helvetica,sans-Serif" font-size="10.00">::setValidSize</text>
</a>
</g>
</g>
<!-- Node5&#45;&gt;Node17 -->
<g id="edge21" class="edge">
<title>Node5&#45;&gt;Node17</title>
<path fill="none" stroke="midnightblue" d="M761.71,-354.99C776.72,-354.99 794.02,-354.99 810.57,-354.99"/>
<polygon fill="midnightblue" stroke="midnightblue" points="810.75,-358.49 820.75,-354.99 810.75,-351.49 810.75,-358.49"/>
</g>
<!-- Node7 -->
<g id="node7" class="node">
<title>Node7</title>
<g id="a_node7"><a xlink:href="classtklb_1_1_audio_buffer_tpl.html#ac59e6eb1a408c183b9e360f473786aec" target="_top" xlink:title=" ">
<polygon fill="none" stroke="black" points="1002,-383.99 1002,-413.99 1120,-413.99 1120,-383.99 1002,-383.99"/>
<text text-anchor="start" x="1010" y="-401.99" font-family="Helvetica,sans-Serif" font-size="10.00">tklb::AudioBufferTpl</text>
<text text-anchor="middle" x="1061" y="-390.99" font-family="Helvetica,sans-Serif" font-size="10.00">::assertOnConstMem</text>
</a>
</g>
</g>
<!-- Node6&#45;&gt;Node7 -->
<g id="edge6" class="edge">
<title>Node6&#45;&gt;Node7</title>
<path fill="none" stroke="midnightblue" d="M935.28,-429.31C953.22,-424.95 973.27,-420.07 991.96,-415.53"/>
<polygon fill="midnightblue" stroke="midnightblue" points="992.99,-418.88 1001.88,-413.12 991.34,-412.08 992.99,-418.88"/>
</g>
<!-- Node8 -->
<g id="node8" class="node">
<title>Node8</title>
<g id="a_node8"><a xlink:href="classtklb_1_1_audio_buffer_tpl.html#a613104aae947423f0fac79142a8bcaf0" target="_top" xlink:title="Fill the provided array with the contents of this buffer.">
<polygon fill="none" stroke="black" points="993,-433.49 993,-452.49 1129,-452.49 1129,-433.49 993,-433.49"/>
<text text-anchor="middle" x="1061" y="-440.49" font-family="Helvetica,sans-Serif" font-size="10.00">tklb::AudioBufferTpl::put</text>
</a>
</g>
</g>
<!-- Node6&#45;&gt;Node8 -->
<g id="edge7" class="edge">
<title>Node6&#45;&gt;Node8</title>
<path fill="none" stroke="midnightblue" d="M935.28,-442.99C950.26,-442.99 966.71,-442.99 982.61,-442.99"/>
<polygon fill="midnightblue" stroke="midnightblue" points="982.96,-446.49 992.96,-442.99 982.96,-439.49 982.96,-446.49"/>
</g>
<!-- Node9 -->
<g id="node9" class="node">
<title>Node9</title>
<g id="a_node9"><a xlink:href="namespacetklb_1_1memory.html#ab89ec197028f903f4ea125eae46c4a10" target="_top" xlink:title="memcpy wrapper">
<polygon fill="none" stroke="black" points="1186.5,-346.49 1186.5,-365.49 1298.5,-365.49 1298.5,-346.49 1186.5,-346.49"/>
<text text-anchor="middle" x="1242.5" y="-353.49" font-family="Helvetica,sans-Serif" font-size="10.00">tklb::memory::copy</text>
</a>
</g>
</g>
<!-- Node8&#45;&gt;Node9 -->
<g id="edge8" class="edge">
<title>Node8&#45;&gt;Node9</title>
<path fill="none" stroke="midnightblue" d="M1113.13,-433.49C1119.8,-431.02 1126.29,-427.91 1132,-423.99 1154.29,-408.71 1145.62,-390.14 1168,-374.99 1171.07,-372.91 1174.36,-371.06 1177.77,-369.41"/>
<polygon fill="midnightblue" stroke="midnightblue" points="1179.2,-372.6 1187.06,-365.5 1176.48,-366.15 1179.2,-372.6"/>
</g>
<!-- Node10 -->
<g id="node10" class="node">
<title>Node10</title>
<g id="a_node10"><a xlink:href="classtklb_1_1_audio_buffer_tpl.html#a839371a414e21aea2101d9404e3be9c5" target="_top" xlink:title=" ">
<polygon fill="none" stroke="black" points="1174.5,-384.49 1174.5,-403.49 1310.5,-403.49 1310.5,-384.49 1174.5,-384.49"/>
<text text-anchor="middle" x="1242.5" y="-391.49" font-family="Helvetica,sans-Serif" font-size="10.00">tklb::AudioBufferTpl::get</text>
</a>
</g>
</g>
<!-- Node8&#45;&gt;Node10 -->
<g id="edge9" class="edge">
<title>Node8&#45;&gt;Node10</title>
<path fill="none" stroke="midnightblue" d="M1097.26,-433.44C1108.37,-430.42 1120.7,-427.07 1132,-423.99 1153.31,-418.18 1176.95,-411.7 1196.79,-406.26"/>
<polygon fill="midnightblue" stroke="midnightblue" points="1197.77,-409.62 1206.49,-403.6 1195.92,-402.87 1197.77,-409.62"/>
</g>
<!-- Node11 -->
<g id="node11" class="node">
<title>Node11</title>
<g id="a_node11"><a xlink:href="namespacetklb.html#a3080595da18d742645ec41d61828a426" target="_top" xlink:title=" ">
<polygon fill="none" stroke="black" points="1212.5,-258.49 1212.5,-277.49 1272.5,-277.49 1272.5,-258.49 1212.5,-258.49"/>
<text text-anchor="middle" x="1242.5" y="-265.49" font-family="Helvetica,sans-Serif" font-size="10.00">tklb::min</text>
</a>
</g>
</g>
<!-- Node8&#45;&gt;Node11 -->
<g id="edge10" class="edge">
<title>Node8&#45;&gt;Node11</title>
<path fill="none" stroke="midnightblue" d="M1118.81,-433.39C1123.67,-430.92 1128.18,-427.83 1132,-423.99 1176.07,-379.64 1123.94,-332.35 1168,-287.99 1177.03,-278.9 1189.75,-273.82 1202.07,-271.03"/>
<polygon fill="midnightblue" stroke="midnightblue" points="1203.03,-274.41 1212.24,-269.18 1201.78,-267.52 1203.03,-274.41"/>
</g>
<!-- Node12 -->
<g id="node12" class="node">
<title>Node12</title>
<g id="a_node12"><a xlink:href="classtklb_1_1_audio_buffer_tpl.html#a37f13531bbfb64cff87ab6473f5bea14" target="_top" xlink:title="fReturns the length of actually valid audio in the buffer.">
<polygon fill="none" stroke="black" points="1185.5,-427.99 1185.5,-457.99 1299.5,-457.99 1299.5,-427.99 1185.5,-427.99"/>
<text text-anchor="start" x="1193.5" y="-445.99" font-family="Helvetica,sans-Serif" font-size="10.00">tklb::AudioBufferTpl</text>
<text text-anchor="middle" x="1242.5" y="-434.99" font-family="Helvetica,sans-Serif" font-size="10.00">::validSize</text>
</a>
</g>
</g>
<!-- Node8&#45;&gt;Node12 -->
<g id="edge11" class="edge">
<title>Node8&#45;&gt;Node12</title>
<path fill="none" stroke="midnightblue" d="M1129.09,-442.99C1144.14,-442.99 1160.1,-442.99 1175.12,-442.99"/>
<polygon fill="midnightblue" stroke="midnightblue" points="1175.35,-446.49 1185.35,-442.99 1175.35,-439.49 1175.35,-446.49"/>
</g>
<!-- Node13&#45;&gt;Node11 -->
<g id="edge14" class="edge">
<title>Node13&#45;&gt;Node11</title>
<path fill="none" stroke="midnightblue" d="M1118.3,-237.79C1145.77,-244.52 1178.12,-252.45 1202.78,-258.5"/>
<polygon fill="midnightblue" stroke="midnightblue" points="1201.95,-261.9 1212.5,-260.88 1203.62,-255.1 1201.95,-261.9"/>
</g>
<!-- Node14 -->
<g id="node14" class="node">
<title>Node14</title>
<g id="a_node14"><a xlink:href="classtklb_1_1_audio_buffer_tpl.html#a9714a6b0b9ee269c551b28f830a02d57" target="_top" xlink:title="Returns the amount of channels.">
<polygon fill="none" stroke="black" points="1185.5,-208.99 1185.5,-238.99 1299.5,-238.99 1299.5,-208.99 1185.5,-208.99"/>
<text text-anchor="start" x="1193.5" y="-226.99" font-family="Helvetica,sans-Serif" font-size="10.00">tklb::AudioBufferTpl</text>
<text text-anchor="middle" x="1242.5" y="-215.99" font-family="Helvetica,sans-Serif" font-size="10.00">::channels</text>
</a>
</g>
</g>
<!-- Node13&#45;&gt;Node14 -->
<g id="edge13" class="edge">
<title>Node13&#45;&gt;Node14</title>
<path fill="none" stroke="midnightblue" d="M1118.3,-223.99C1136.35,-223.99 1156.5,-223.99 1175.19,-223.99"/>
<polygon fill="midnightblue" stroke="midnightblue" points="1175.4,-227.49 1185.4,-223.99 1175.4,-220.49 1175.4,-227.49"/>
</g>
<!-- Node15 -->
<g id="node15" class="node">
<title>Node15</title>
<g id="a_node15"><a xlink:href="classtklb_1_1_audio_buffer_tpl.html#acbe041a482f37ed4a02b99b239e53f80" target="_top" xlink:title="Returns the allocated length of the buffer.">
<polygon fill="none" stroke="black" points="1185.5,-296.99 1185.5,-326.99 1299.5,-326.99 1299.5,-296.99 1185.5,-296.99"/>
<text text-anchor="start" x="1193.5" y="-314.99" font-family="Helvetica,sans-Serif" font-size="10.00">tklb::AudioBufferTpl</text>
<text text-anchor="middle" x="1242.5" y="-303.99" font-family="Helvetica,sans-Serif" font-size="10.00">::size</text>
</a>
</g>
</g>
<!-- Node13&#45;&gt;Node15 -->
<g id="edge15" class="edge">
<title>Node13&#45;&gt;Node15</title>
<path fill="none" stroke="midnightblue" d="M1113.07,-239.01C1119.67,-241.87 1126.16,-245.18 1132,-248.99 1151.49,-261.69 1148.42,-274.43 1168,-286.99 1171.13,-289 1174.45,-290.87 1177.87,-292.6"/>
<polygon fill="midnightblue" stroke="midnightblue" points="1176.56,-295.85 1187.11,-296.87 1179.5,-289.5 1176.56,-295.85"/>
</g>
<!-- Node16&#45;&gt;Node9 -->
<g id="edge17" class="edge">
<title>Node16&#45;&gt;Node9</title>
<path fill="none" stroke="midnightblue" d="M1128.58,-355.36C1144.22,-355.45 1160.86,-355.54 1176.42,-355.63"/>
<polygon fill="midnightblue" stroke="midnightblue" points="1176.45,-359.13 1186.47,-355.68 1176.49,-352.13 1176.45,-359.13"/>
</g>
<!-- Node16&#45;&gt;Node10 -->
<g id="edge18" class="edge">
<title>Node16&#45;&gt;Node10</title>
<path fill="none" stroke="midnightblue" d="M1105.91,-364.53C1130.56,-369.88 1161.51,-376.61 1187.62,-382.28"/>
<polygon fill="midnightblue" stroke="midnightblue" points="1187.22,-385.78 1197.73,-384.48 1188.7,-378.94 1187.22,-385.78"/>
</g>
<!-- Node16&#45;&gt;Node11 -->
<g id="edge19" class="edge">
<title>Node16&#45;&gt;Node11</title>
<path fill="none" stroke="midnightblue" d="M1074.36,-345.43C1093.46,-331.08 1131.74,-303.95 1168,-287.99 1178.75,-283.26 1190.89,-279.4 1202.15,-276.38"/>
<polygon fill="midnightblue" stroke="midnightblue" points="1203.36,-279.69 1212.19,-273.85 1201.64,-272.9 1203.36,-279.69"/>
</g>
<!-- Node16&#45;&gt;Node15 -->
<g id="edge20" class="edge">
<title>Node16&#45;&gt;Node15</title>
<path fill="none" stroke="midnightblue" d="M1101.84,-345.45C1123.44,-340.27 1150.71,-333.74 1175.4,-327.82"/>
<polygon fill="midnightblue" stroke="midnightblue" points="1176.53,-331.15 1185.44,-325.42 1174.9,-324.35 1176.53,-331.15"/>
</g>
<!-- Node17&#45;&gt;Node15 -->
<g id="edge22" class="edge">
<title>Node17&#45;&gt;Node15</title>
<path fill="none" stroke="midnightblue" d="M935.06,-344.56C952.61,-341.52 972.07,-338.37 990,-335.99 1052.64,-327.65 1124.43,-321.1 1175.23,-316.96"/>
<polygon fill="midnightblue" stroke="midnightblue" points="1175.74,-320.43 1185.43,-316.14 1175.18,-313.45 1175.74,-320.43"/>
</g>
<!-- Node18&#45;&gt;Node13 -->
<g id="edge27" class="edge">
<title>Node18&#45;&gt;Node13</title>
<path fill="none" stroke="midnightblue" d="M734.91,-206.42C750.96,-197.05 777.2,-183.43 802,-177.99 867.99,-163.52 887.86,-164.26 954,-177.99 967.18,-180.72 995.67,-193.23 1019.79,-204.51"/>
<polygon fill="midnightblue" stroke="midnightblue" points="1018.59,-207.81 1029.12,-208.92 1021.57,-201.48 1018.59,-207.81"/>
</g>
<!-- Node18&#45;&gt;Node17 -->
<g id="edge46" class="edge">
<title>Node18&#45;&gt;Node17</title>
<path fill="none" stroke="midnightblue" d="M730.33,-225.54C755.23,-247.52 817.1,-302.12 852.01,-332.93"/>
<polygon fill="midnightblue" stroke="midnightblue" points="850.04,-335.86 859.85,-339.85 854.67,-330.61 850.04,-335.86"/>
</g>
<!-- Node19 -->
<g id="node19" class="node">
<title>Node19</title>
<g id="a_node19"><a xlink:href="classtklb_1_1_heap_buffer.html#afcce6d234f25d074818cdd35e2d33daa" target="_top" xlink:title=" ">
<polygon fill="none" stroke="black" points="815.5,-225.49 815.5,-244.49 940.5,-244.49 940.5,-225.49 815.5,-225.49"/>
<text text-anchor="middle" x="878" y="-232.49" font-family="Helvetica,sans-Serif" font-size="10.00">tklb::HeapBuffer::data</text>
</a>
</g>
</g>
<!-- Node18&#45;&gt;Node19 -->
<g id="edge24" class="edge">
<title>Node18&#45;&gt;Node19</title>
<path fill="none" stroke="midnightblue" d="M766.33,-221.64C778.61,-223.12 792.14,-224.75 805.4,-226.35"/>
<polygon fill="midnightblue" stroke="midnightblue" points="805.12,-229.84 815.46,-227.57 805.95,-222.89 805.12,-229.84"/>
</g>
<!-- Node20 -->
<g id="node20" class="node">
<title>Node20</title>
<g id="a_node20"><a xlink:href="namespacetklb_1_1wave_1_1__.html#a505c3965a632ba8e5aa1e0f5bd5a4d97" target="_top" xlink:title=" ">
<polygon fill="none" stroke="black" points="807.5,-187.49 807.5,-206.49 948.5,-206.49 948.5,-187.49 807.5,-187.49"/>
<text text-anchor="middle" x="878" y="-194.49" font-family="Helvetica,sans-Serif" font-size="10.00">tklb::wave::_::drwaveFree</text>
</a>
</g>
</g>
<!-- Node18&#45;&gt;Node20 -->
<g id="edge25" class="edge">
<title>Node18&#45;&gt;Node20</title>
<path fill="none" stroke="midnightblue" d="M766.33,-210.34C776.09,-209.16 786.63,-207.89 797.2,-206.62"/>
<polygon fill="midnightblue" stroke="midnightblue" points="797.81,-210.07 807.32,-205.39 796.97,-203.12 797.81,-210.07"/>
</g>
<!-- Node21 -->
<g id="node21" class="node">
<title>Node21</title>
<g id="a_node21"><a xlink:href="namespacetklb_1_1wave_1_1__.html#a2785c54e80d6c817bdde01724b8c11cc" target="_top" xlink:title=" ">
<polygon fill="none" stroke="black" points="802,-111.49 802,-130.49 954,-130.49 954,-111.49 802,-111.49"/>
<text text-anchor="middle" x="878" y="-118.49" font-family="Helvetica,sans-Serif" font-size="10.00">tklb::wave::_::drwaveMalloc</text>
</a>
</g>
</g>
<!-- Node18&#45;&gt;Node21 -->
<g id="edge26" class="edge">
<title>Node18&#45;&gt;Node21</title>
<path fill="none" stroke="midnightblue" d="M728.21,-206.33C742.31,-191.22 771.66,-161.97 802,-144.99 809.8,-140.62 818.51,-136.92 827.16,-133.83"/>
<polygon fill="midnightblue" stroke="midnightblue" points="828.46,-137.08 836.84,-130.6 826.24,-130.45 828.46,-137.08"/>
</g>
<!-- Node22 -->
<g id="node22" class="node">
<title>Node22</title>
<g id="a_node22"><a xlink:href="classtklb_1_1_heap_buffer.html#ab37e6c1fc8d124b5737cfdef69b051d1" target="_top" xlink:title="Resize the buffer If the memory is borrowed it will become unique and owned by this instance as soon ...">
<polygon fill="none" stroke="black" points="812,-73.49 812,-92.49 944,-92.49 944,-73.49 812,-73.49"/>
<text text-anchor="middle" x="878" y="-80.49" font-family="Helvetica,sans-Serif" font-size="10.00">tklb::HeapBuffer::resize</text>
</a>
</g>
</g>
<!-- Node18&#45;&gt;Node22 -->
<g id="edge28" class="edge">
<title>Node18&#45;&gt;Node22</title>
<path fill="none" stroke="midnightblue" d="M723.66,-206.28C733.68,-184.11 761.37,-129.56 802,-101.99 804.92,-100.01 808.04,-98.23 811.27,-96.64"/>
<polygon fill="midnightblue" stroke="midnightblue" points="812.83,-99.78 820.65,-92.63 810.08,-93.34 812.83,-99.78"/>
</g>
<!-- Node31 -->
<g id="node31" class="node">
<title>Node31</title>
<g id="a_node31"><a xlink:href="classtklb_1_1_audio_buffer_tpl.html#aa7f380c81a409e3362ceee8a57094ee4" target="_top" xlink:title="Set multiple channels from an interleaved array.">
<polygon fill="none" stroke="black" points="1002.5,-257.99 1002.5,-287.99 1119.5,-287.99 1119.5,-257.99 1002.5,-257.99"/>
<text text-anchor="start" x="1010.5" y="-275.99" font-family="Helvetica,sans-Serif" font-size="10.00">tklb::AudioBufferTpl</text>
<text text-anchor="middle" x="1061" y="-264.99" font-family="Helvetica,sans-Serif" font-size="10.00">::setFromInterleaved</text>
</a>
</g>
</g>
<!-- Node18&#45;&gt;Node31 -->
<g id="edge41" class="edge">
<title>Node18&#45;&gt;Node31</title>
<path fill="none" stroke="midnightblue" d="M735.6,-225.52C751.78,-234.58 777.72,-247.72 802,-253.99 865.09,-270.27 939.53,-274.2 992.2,-274.55"/>
<polygon fill="midnightblue" stroke="midnightblue" points="992.42,-278.05 1002.43,-274.57 992.44,-271.05 992.42,-278.05"/>
</g>
<!-- Node23 -->
<g id="node23" class="node">
<title>Node23</title>
<g id="a_node23"><a xlink:href="classtklb_1_1_heap_buffer.html#aa2212b76d383c1afe3d4da0448133299" target="_top" xlink:title="Allocated the exact size requsted and copies existing objects.">
<polygon fill="none" stroke="black" points="990,-73.49 990,-92.49 1132,-92.49 1132,-73.49 990,-73.49"/>
<text text-anchor="middle" x="1061" y="-80.49" font-family="Helvetica,sans-Serif" font-size="10.00">tklb::HeapBuffer::allocate</text>
</a>
</g>
</g>
<!-- Node22&#45;&gt;Node23 -->
<g id="edge29" class="edge">
<title>Node22&#45;&gt;Node23</title>
<path fill="none" stroke="midnightblue" d="M944.09,-82.99C955.73,-82.99 967.98,-82.99 979.98,-82.99"/>
<polygon fill="midnightblue" stroke="midnightblue" points="979.98,-86.49 989.98,-82.99 979.98,-79.49 979.98,-86.49"/>
</g>
<!-- Node29 -->
<g id="node29" class="node">
<title>Node29</title>
<g id="a_node29"><a xlink:href="classtklb_1_1_heap_buffer.html#ad513a99105213150fe287a8c209f8bc2" target="_top" xlink:title=" ">
<polygon fill="none" stroke="black" points="992.5,-111.99 992.5,-141.99 1129.5,-141.99 1129.5,-111.99 992.5,-111.99"/>
<text text-anchor="start" x="1000.5" y="-129.99" font-family="Helvetica,sans-Serif" font-size="10.00">tklb::HeapBuffer::closest</text>
<text text-anchor="middle" x="1061" y="-118.99" font-family="Helvetica,sans-Serif" font-size="10.00">ChunkSize</text>
</a>
</g>
</g>
<!-- Node22&#45;&gt;Node29 -->
<g id="edge39" class="edge">
<title>Node22&#45;&gt;Node29</title>
<path fill="none" stroke="midnightblue" d="M918.27,-92.54C938.74,-97.51 964.43,-103.76 988.29,-109.56"/>
<polygon fill="midnightblue" stroke="midnightblue" points="987.48,-112.96 998.03,-111.92 989.14,-106.16 987.48,-112.96"/>
</g>
<!-- Node30 -->
<g id="node30" class="node">
<title>Node30</title>
<g id="a_node30"><a xlink:href="classtklb_1_1_heap_buffer.html#a5ec4892e352b8df099fa1c75cfbf328c" target="_top" xlink:title="Returns the amount of elements in the container.">
<polygon fill="none" stroke="black" points="1000,-161.49 1000,-180.49 1122,-180.49 1122,-161.49 1000,-161.49"/>
<text text-anchor="middle" x="1061" y="-168.49" font-family="Helvetica,sans-Serif" font-size="10.00">tklb::HeapBuffer::size</text>
</a>
</g>
</g>
<!-- Node22&#45;&gt;Node30 -->
<g id="edge40" class="edge">
<title>Node22&#45;&gt;Node30</title>
<path fill="none" stroke="midnightblue" d="M934.94,-92.52C941.67,-94.99 948.21,-98.09 954,-101.99 976.42,-117.08 967.82,-135.56 990,-150.99 993.5,-153.42 997.3,-155.57 1001.25,-157.45"/>
<polygon fill="midnightblue" stroke="midnightblue" points="1000.1,-160.76 1010.68,-161.38 1002.8,-154.3 1000.1,-160.76"/>
</g>
<!-- Node23&#45;&gt;Node9 -->
<g id="edge33" class="edge">
<title>Node23&#45;&gt;Node9</title>
<path fill="none" stroke="midnightblue" d="M1119.91,-92.53C1124.43,-95.03 1128.56,-98.14 1132,-101.99 1202.38,-180.8 1097.15,-258.6 1168,-336.99 1170.75,-340.04 1173.93,-342.62 1177.38,-344.82"/>
<polygon fill="midnightblue" stroke="midnightblue" points="1175.95,-348.02 1186.44,-349.5 1179.16,-341.8 1175.95,-348.02"/>
</g>
<!-- Node23&#45;&gt;Node11 -->
<g id="edge38" class="edge">
<title>Node23&#45;&gt;Node11</title>
<path fill="none" stroke="midnightblue" d="M1118.89,-92.51C1123.73,-95 1128.22,-98.11 1132,-101.99 1178.97,-150.14 1120.74,-201.12 1168,-248.99 1176.97,-258.07 1189.68,-263 1202.01,-265.62"/>
<polygon fill="midnightblue" stroke="midnightblue" points="1201.75,-269.13 1212.19,-267.32 1202.9,-262.22 1201.75,-269.13"/>
</g>
<!-- Node24 -->
<g id="node24" class="node">
<title>Node24</title>
<g id="a_node24"><a xlink:href="classtklb_1_1memory_1_1_memory_pool.html#a12db669f354ab3f2037a67db7f0a8229" target="_top" xlink:title=" ">
<polygon fill="none" stroke="black" points="1353,-1.99 1353,-31.99 1502,-31.99 1502,-1.99 1353,-1.99"/>
<text text-anchor="start" x="1361" y="-19.99" font-family="Helvetica,sans-Serif" font-size="10.00">tklb::memory::MemoryPool</text>
<text text-anchor="middle" x="1427.5" y="-8.99" font-family="Helvetica,sans-Serif" font-size="10.00">::allocate</text>
</a>
</g>
</g>
<!-- Node23&#45;&gt;Node24 -->
<g id="edge30" class="edge">
<title>Node23&#45;&gt;Node24</title>
<path fill="none" stroke="midnightblue" d="M1072.09,-73.46C1089.81,-57.44 1128.42,-25.73 1168,-13.99 1224.57,2.8 1291.22,1.55 1342.68,-3.63"/>
<polygon fill="midnightblue" stroke="midnightblue" points="1342.44,-7.13 1352.76,-4.72 1343.19,-0.17 1342.44,-7.13"/>
</g>
<!-- Node25 -->
<g id="node25" class="node">
<title>Node25</title>
<g id="a_node25"><a xlink:href="classtklb_1_1memory_1_1_memory_pool.html#a23f0f8e6cc9408d522b0165dd0f01ac2" target="_top" xlink:title="Allocate aligned if simd is enabled.">
<polygon fill="none" stroke="black" points="1168,-23.99 1168,-53.99 1317,-53.99 1317,-23.99 1168,-23.99"/>
<text text-anchor="start" x="1176" y="-41.99" font-family="Helvetica,sans-Serif" font-size="10.00">tklb::memory::MemoryPool</text>
<text text-anchor="middle" x="1242.5" y="-30.99" font-family="Helvetica,sans-Serif" font-size="10.00">::allocateAligned</text>
</a>
</g>
</g>
<!-- Node23&#45;&gt;Node25 -->
<g id="edge31" class="edge">
<title>Node23&#45;&gt;Node25</title>
<path fill="none" stroke="midnightblue" d="M1100.95,-73.44C1121.16,-68.49 1146.49,-62.28 1170.07,-56.5"/>
<polygon fill="midnightblue" stroke="midnightblue" points="1171.16,-59.83 1180.04,-54.05 1169.49,-53.04 1171.16,-59.83"/>
</g>
<!-- Node26 -->
<g id="node26" class="node">
<title>Node26</title>
<g id="a_node26"><a xlink:href="classtklb_1_1memory_1_1_memory_pool.html#ae2f6e404a58380b0bcf0f3de281a7546" target="_top" xlink:title=" ">
<polygon fill="none" stroke="black" points="1353,-133.99 1353,-163.99 1502,-163.99 1502,-133.99 1353,-133.99"/>
<text text-anchor="start" x="1361" y="-151.99" font-family="Helvetica,sans-Serif" font-size="10.00">tklb::memory::MemoryPool</text>
<text text-anchor="middle" x="1427.5" y="-140.99" font-family="Helvetica,sans-Serif" font-size="10.00">::deallocate</text>
</a>
</g>
</g>
<!-- Node23&#45;&gt;Node26 -->
<g id="edge34" class="edge">
<title>Node23&#45;&gt;Node26</title>
<path fill="none" stroke="midnightblue" d="M1113.13,-92.49C1119.8,-94.96 1126.29,-98.07 1132,-101.99 1154.29,-117.27 1143.89,-138.78 1168,-150.99 1226.99,-180.85 1303.7,-175.68 1358.2,-165.91"/>
<polygon fill="midnightblue" stroke="midnightblue" points="1358.93,-169.33 1368.1,-164.04 1357.63,-162.45 1358.93,-169.33"/>
</g>
<!-- Node27 -->
<g id="node27" class="node">
<title>Node27</title>
<g id="a_node27"><a xlink:href="classtklb_1_1memory_1_1_memory_pool.html#a7b2a7e96e64767e2cff9dfddb9085779" target="_top" xlink:title=" ">
<polygon fill="none" stroke="black" points="1168,-111.99 1168,-141.99 1317,-141.99 1317,-111.99 1168,-111.99"/>
<text text-anchor="start" x="1176" y="-129.99" font-family="Helvetica,sans-Serif" font-size="10.00">tklb::memory::MemoryPool</text>
<text text-anchor="middle" x="1242.5" y="-118.99" font-family="Helvetica,sans-Serif" font-size="10.00">::deallocateAligned</text>
</a>
</g>
</g>
<!-- Node23&#45;&gt;Node27 -->
<g id="edge35" class="edge">
<title>Node23&#45;&gt;Node27</title>
<path fill="none" stroke="midnightblue" d="M1100.95,-92.54C1121.16,-97.49 1146.49,-103.7 1170.07,-109.48"/>
<polygon fill="midnightblue" stroke="midnightblue" points="1169.49,-112.94 1180.04,-111.92 1171.16,-106.14 1169.49,-112.94"/>
</g>
<!-- Node28 -->
<g id="node28" class="node">
<title>Node28</title>
<g id="a_node28"><a xlink:href="classtklb_1_1_heap_buffer.html#af3331f4c39082c6bedf37b7931b1c27a" target="_top" xlink:title="Whether the memory is managed by the instance or is borrowed.">
<polygon fill="none" stroke="black" points="1171.5,-73.49 1171.5,-92.49 1313.5,-92.49 1313.5,-73.49 1171.5,-73.49"/>
<text text-anchor="middle" x="1242.5" y="-80.49" font-family="Helvetica,sans-Serif" font-size="10.00">tklb::HeapBuffer::injected</text>
</a>
</g>
</g>
<!-- Node23&#45;&gt;Node28 -->
<g id="edge37" class="edge">
<title>Node23&#45;&gt;Node28</title>
<path fill="none" stroke="midnightblue" d="M1132.17,-82.99C1141.73,-82.99 1151.6,-82.99 1161.32,-82.99"/>
<polygon fill="midnightblue" stroke="midnightblue" points="1161.38,-86.49 1171.38,-82.99 1161.38,-79.49 1161.38,-86.49"/>
</g>
<!-- Node25&#45;&gt;Node24 -->
<g id="edge32" class="edge">
<title>Node25&#45;&gt;Node24</title>
<path fill="none" stroke="midnightblue" d="M1317.14,-30.14C1325.57,-29.12 1334.2,-28.08 1342.74,-27.06"/>
<polygon fill="midnightblue" stroke="midnightblue" points="1343.2,-30.53 1352.71,-25.86 1342.36,-23.58 1343.2,-30.53"/>
</g>
<!-- Node27&#45;&gt;Node26 -->
<g id="edge36" class="edge">
<title>Node27&#45;&gt;Node26</title>
<path fill="none" stroke="midnightblue" d="M1317.14,-135.84C1325.57,-136.85 1334.2,-137.89 1342.74,-138.92"/>
<polygon fill="midnightblue" stroke="midnightblue" points="1342.36,-142.4 1352.71,-140.12 1343.2,-135.45 1342.36,-142.4"/>
</g>
<!-- Node31&#45;&gt;Node10 -->
<g id="edge43" class="edge">
<title>Node31&#45;&gt;Node10</title>
<path fill="none" stroke="midnightblue" d="M1079.67,-288.09C1094.08,-300.59 1114.78,-318.99 1132,-335.99 1148.78,-352.56 1147.76,-362.88 1168,-374.99 1171.63,-377.16 1175.5,-379.08 1179.49,-380.79"/>
<polygon fill="midnightblue" stroke="midnightblue" points="1178.4,-384.12 1189,-384.39 1180.88,-377.57 1178.4,-384.12"/>
</g>
<!-- Node31&#45;&gt;Node11 -->
<g id="edge44" class="edge">
<title>Node31&#45;&gt;Node11</title>
<path fill="none" stroke="midnightblue" d="M1119.78,-271.38C1146.74,-270.63 1178.13,-269.75 1202.28,-269.08"/>
<polygon fill="midnightblue" stroke="midnightblue" points="1202.59,-272.57 1212.49,-268.8 1202.4,-265.58 1202.59,-272.57"/>
</g>
<!-- Node31&#45;&gt;Node14 -->
<g id="edge42" class="edge">
<title>Node31&#45;&gt;Node14</title>
<path fill="none" stroke="midnightblue" d="M1117.32,-257.89C1136.09,-252.76 1157.23,-246.99 1176.67,-241.69"/>
<polygon fill="midnightblue" stroke="midnightblue" points="1177.64,-245.05 1186.36,-239.04 1175.79,-238.3 1177.64,-245.05"/>
</g>
<!-- Node31&#45;&gt;Node15 -->
<g id="edge45" class="edge">
<title>Node31&#45;&gt;Node15</title>
<path fill="none" stroke="midnightblue" d="M1119.78,-285.54C1137.51,-289.39 1157.15,-293.66 1175.39,-297.62"/>
<polygon fill="midnightblue" stroke="midnightblue" points="1174.84,-301.09 1185.36,-299.79 1176.33,-294.25 1174.84,-301.09"/>
</g>
</g>
</svg>
