<?xml version="1.0" encoding="UTF-8" standalone="no"?>
<!DOCTYPE svg PUBLIC "-//W3C//DTD SVG 1.1//EN"
 "http://www.w3.org/Graphics/SVG/1.1/DTD/svg11.dtd">
<!-- Generated by graphviz version 2.50.0 (0)
 -->
<!-- Title: vae::core::Engine::fireEvent Pages: 1 -->
<svg width="639pt" height="361pt"
 viewBox="0.00 0.00 639.00 361.00" xmlns="http://www.w3.org/2000/svg" xmlns:xlink="http://www.w3.org/1999/xlink">
<g id="graph0" class="graph" transform="scale(1 1) rotate(0) translate(4 357)">
<title>vae::core::Engine::fireEvent</title>
<!-- Node1 -->
<g id="node1" class="node">
<title>Node1</title>
<g id="a_node1"><a xlink:title="Main mechanism to start and stop sounds.">
<polygon fill="#bfbfbf" stroke="black" points="0,-171.5 0,-201.5 107,-201.5 107,-171.5 0,-171.5"/>
<text text-anchor="start" x="8" y="-189.5" font-family="Helvetica,sans-Serif" font-size="10.00">vae::core::Engine::</text>
<text text-anchor="middle" x="53.5" y="-178.5" font-family="Helvetica,sans-Serif" font-size="10.00">fireEvent</text>
</a>
</g>
</g>
<!-- Node1&#45;&gt;Node1 -->
<g id="edge1" class="edge">
<title>Node1&#45;&gt;Node1</title>
<path fill="none" stroke="midnightblue" d="M24.22,-201.66C17.16,-211.06 26.92,-220 53.5,-220 69.7,-220 79.65,-216.68 83.35,-211.96"/>
<polygon fill="midnightblue" stroke="midnightblue" points="86.83,-211.45 82.78,-201.66 79.84,-211.84 86.83,-211.45"/>
</g>
<!-- Node2 -->
<g id="node2" class="node">
<title>Node2</title>
<g id="a_node2"><a xlink:href="classvae_1_1core_1_1_spatial_manager.html#addd80ecf83e30b0814eaee82ae7bd700" target="_top" xlink:title=" ">
<polygon fill="none" stroke="black" points="150.5,-322.5 150.5,-352.5 293.5,-352.5 293.5,-322.5 150.5,-322.5"/>
<text text-anchor="start" x="158.5" y="-340.5" font-family="Helvetica,sans-Serif" font-size="10.00">vae::core::SpatialManager</text>
<text text-anchor="middle" x="222" y="-329.5" font-family="Helvetica,sans-Serif" font-size="10.00">::forListeners</text>
</a>
</g>
</g>
<!-- Node1&#45;&gt;Node2 -->
<g id="edge2" class="edge">
<title>Node1&#45;&gt;Node2</title>
<path fill="none" stroke="midnightblue" d="M61.15,-201.72C73.46,-228.15 102.31,-282.56 143,-312.5 145.63,-314.44 148.43,-316.23 151.32,-317.89"/>
<polygon fill="midnightblue" stroke="midnightblue" points="149.79,-321.03 160.29,-322.46 152.97,-314.8 149.79,-321.03"/>
</g>
<!-- Node3 -->
<g id="node3" class="node">
<title>Node3</title>
<g id="a_node3"><a xlink:href="classvae_1_1core_1_1_bank_manager.html#a4ec4afe30adb6e0108e799d26070a3a5" target="_top" xlink:title=" ">
<polygon fill="none" stroke="black" points="144,-284 144,-303 300,-303 300,-284 144,-284"/>
<text text-anchor="middle" x="222" y="-291" font-family="Helvetica,sans-Serif" font-size="10.00">vae::core::BankManager::get</text>
</a>
</g>
</g>
<!-- Node1&#45;&gt;Node3 -->
<g id="edge3" class="edge">
<title>Node1&#45;&gt;Node3</title>
<path fill="none" stroke="midnightblue" d="M65.54,-201.79C80.71,-221.65 109.92,-255.96 143,-274.5 147.01,-276.75 151.27,-278.73 155.67,-280.48"/>
<polygon fill="midnightblue" stroke="midnightblue" points="154.85,-283.9 165.44,-283.95 157.19,-277.3 154.85,-283.9"/>
</g>
<!-- Node4 -->
<g id="node4" class="node">
<title>Node4</title>
<g id="a_node4"><a xlink:href="classvae_1_1core_1_1_bank_manager.html#aef2d335fb63d6f4be9f5b4793e309c99" target="_top" xlink:title=" ">
<polygon fill="none" stroke="black" points="143,-246 143,-265 301,-265 301,-246 143,-246"/>
<text text-anchor="middle" x="222" y="-253" font-family="Helvetica,sans-Serif" font-size="10.00">vae::core::BankManager::has</text>
</a>
</g>
</g>
<!-- Node1&#45;&gt;Node4 -->
<g id="edge4" class="edge">
<title>Node1&#45;&gt;Node4</title>
<path fill="none" stroke="midnightblue" d="M77.29,-201.7C94.67,-212.71 119.53,-227.22 143,-236.5 149.36,-239.01 156.14,-241.26 162.96,-243.25"/>
<polygon fill="midnightblue" stroke="midnightblue" points="162.34,-246.72 172.91,-245.99 164.2,-239.97 162.34,-246.72"/>
</g>
<!-- Node5 -->
<g id="node5" class="node">
<title>Node5</title>
<g id="a_node5"><a xlink:href="classvae_1_1core_1_1_spatial_manager.html#a8223349a8417dbd972f9979618849a4e" target="_top" xlink:title=" ">
<polygon fill="none" stroke="black" points="150.5,-196.5 150.5,-226.5 293.5,-226.5 293.5,-196.5 150.5,-196.5"/>
<text text-anchor="start" x="158.5" y="-214.5" font-family="Helvetica,sans-Serif" font-size="10.00">vae::core::SpatialManager</text>
<text text-anchor="middle" x="222" y="-203.5" font-family="Helvetica,sans-Serif" font-size="10.00">::hasEmitter</text>
</a>
</g>
</g>
<!-- Node1&#45;&gt;Node5 -->
<g id="edge5" class="edge">
<title>Node1&#45;&gt;Node5</title>
<path fill="none" stroke="midnightblue" d="M107.18,-194.41C117.79,-196 129.17,-197.71 140.49,-199.41"/>
<polygon fill="midnightblue" stroke="midnightblue" points="139.98,-202.87 150.39,-200.9 141.02,-195.95 139.98,-202.87"/>
</g>
<!-- Node6 -->
<g id="node6" class="node">
<title>Node6</title>
<g id="a_node6"><a xlink:href="classvae_1_1core_1_1_voice_manger.html#a56795adf1dfc9e96a8ef00fba1ae03ca" target="_top" xlink:title=" ">
<polygon fill="none" stroke="black" points="157.5,-147.5 157.5,-177.5 286.5,-177.5 286.5,-147.5 157.5,-147.5"/>
<text text-anchor="start" x="165.5" y="-165.5" font-family="Helvetica,sans-Serif" font-size="10.00">vae::core::VoiceManger</text>
<text text-anchor="middle" x="222" y="-154.5" font-family="Helvetica,sans-Serif" font-size="10.00">::play</text>
</a>
</g>
</g>
<!-- Node1&#45;&gt;Node6 -->
<g id="edge6" class="edge">
<title>Node1&#45;&gt;Node6</title>
<path fill="none" stroke="midnightblue" d="M107.18,-178.91C119.86,-177.08 133.64,-175.09 147.09,-173.15"/>
<polygon fill="midnightblue" stroke="midnightblue" points="147.88,-176.58 157.28,-171.68 146.88,-169.65 147.88,-176.58"/>
</g>
<!-- Node9 -->
<g id="node9" class="node">
<title>Node9</title>
<g id="a_node9"><a xlink:href="classvae_1_1core_1_1_voice_manger.html#a0f68bf12dcd5218ed0d597fcf94daeb5" target="_top" xlink:title="Stops all voice triggered from event.">
<polygon fill="none" stroke="black" points="157.5,-98.5 157.5,-128.5 286.5,-128.5 286.5,-98.5 157.5,-98.5"/>
<text text-anchor="start" x="165.5" y="-116.5" font-family="Helvetica,sans-Serif" font-size="10.00">vae::core::VoiceManger</text>
<text text-anchor="middle" x="222" y="-105.5" font-family="Helvetica,sans-Serif" font-size="10.00">::stopFromEvent</text>
</a>
</g>
</g>
<!-- Node1&#45;&gt;Node9 -->
<g id="edge9" class="edge">
<title>Node1&#45;&gt;Node9</title>
<path fill="none" stroke="midnightblue" d="M79.44,-171.34C96.83,-161.18 120.82,-147.97 143,-138.5 148.36,-136.21 154.01,-134.01 159.71,-131.94"/>
<polygon fill="midnightblue" stroke="midnightblue" points="161.04,-135.18 169.31,-128.56 158.72,-128.58 161.04,-135.18"/>
</g>
<!-- Node12 -->
<g id="node12" class="node">
<title>Node12</title>
<g id="a_node12"><a xlink:href="classvae_1_1core_1_1_voice_manger.html#a9e77e56a773f3b2f6a90209a16aba07c" target="_top" xlink:title="Kills all voices in mixer channel.">
<polygon fill="none" stroke="black" points="157.5,-49.5 157.5,-79.5 286.5,-79.5 286.5,-49.5 157.5,-49.5"/>
<text text-anchor="start" x="165.5" y="-67.5" font-family="Helvetica,sans-Serif" font-size="10.00">vae::core::VoiceManger</text>
<text text-anchor="middle" x="222" y="-56.5" font-family="Helvetica,sans-Serif" font-size="10.00">::stopFromMixer</text>
</a>
</g>
</g>
<!-- Node1&#45;&gt;Node12 -->
<g id="edge13" class="edge">
<title>Node1&#45;&gt;Node12</title>
<path fill="none" stroke="midnightblue" d="M64.38,-171.44C79.07,-150.18 108.66,-111.54 143,-89.5 146.18,-87.46 149.54,-85.57 153,-83.83"/>
<polygon fill="midnightblue" stroke="midnightblue" points="154.74,-86.89 162.39,-79.55 151.84,-80.52 154.74,-86.89"/>
</g>
<!-- Node13 -->
<g id="node13" class="node">
<title>Node13</title>
<g id="a_node13"><a xlink:href="classvae_1_1core_1_1_voice_manger.html#ab4d6480e9ee2c5bc1283f85255740854" target="_top" xlink:title="Stop every voice started from a source and emitter if provided.">
<polygon fill="none" stroke="black" points="157.5,-0.5 157.5,-30.5 286.5,-30.5 286.5,-0.5 157.5,-0.5"/>
<text text-anchor="start" x="165.5" y="-18.5" font-family="Helvetica,sans-Serif" font-size="10.00">vae::core::VoiceManger</text>
<text text-anchor="middle" x="222" y="-7.5" font-family="Helvetica,sans-Serif" font-size="10.00">::stopFromSource</text>
</a>
</g>
</g>
<!-- Node1&#45;&gt;Node13 -->
<g id="edge15" class="edge">
<title>Node1&#45;&gt;Node13</title>
<path fill="none" stroke="midnightblue" d="M59.55,-171.07C70.13,-141.16 97.48,-75.1 143,-39.5 144.77,-38.12 146.62,-36.81 148.53,-35.58"/>
<polygon fill="midnightblue" stroke="midnightblue" points="150.27,-38.62 157.26,-30.66 146.83,-32.52 150.27,-38.62"/>
</g>
<!-- Node7 -->
<g id="node7" class="node">
<title>Node7</title>
<g id="a_node7"><a xlink:href="classvae_1_1core_1_1_voice_manger.html#aca4814fa5ec2f09d38c7b15e92ce0cad" target="_top" xlink:title="makes provided voice virtual">
<polygon fill="none" stroke="black" points="337,-147.5 337,-177.5 466,-177.5 466,-147.5 337,-147.5"/>
<text text-anchor="start" x="345" y="-165.5" font-family="Helvetica,sans-Serif" font-size="10.00">vae::core::VoiceManger</text>
<text text-anchor="middle" x="401.5" y="-154.5" font-family="Helvetica,sans-Serif" font-size="10.00">::makeVirtual</text>
</a>
</g>
</g>
<!-- Node6&#45;&gt;Node7 -->
<g id="edge7" class="edge">
<title>Node6&#45;&gt;Node7</title>
<path fill="none" stroke="midnightblue" d="M286.58,-162.5C299.58,-162.5 313.37,-162.5 326.69,-162.5"/>
<polygon fill="midnightblue" stroke="midnightblue" points="326.77,-166 336.77,-162.5 326.77,-159 326.77,-166"/>
</g>
<!-- Node8 -->
<g id="node8" class="node">
<title>Node8</title>
<g id="a_node8"><a xlink:href="namespacetklb.html#a7dc2203e89c331e3c85b9e7f16fa6763" target="_top" xlink:title=" ">
<polygon fill="none" stroke="black" points="535,-102 535,-121 598,-121 598,-102 535,-102"/>
<text text-anchor="middle" x="566.5" y="-109" font-family="Helvetica,sans-Serif" font-size="10.00">tklb::max</text>
</a>
</g>
</g>
<!-- Node6&#45;&gt;Node8 -->
<g id="edge8" class="edge">
<title>Node6&#45;&gt;Node8</title>
<path fill="none" stroke="midnightblue" d="M286.72,-148.03C303.06,-144.61 320.63,-141.18 337,-138.5 402.28,-127.79 478.72,-119.64 524.56,-115.22"/>
<polygon fill="midnightblue" stroke="midnightblue" points="525.08,-118.68 534.7,-114.25 524.41,-111.72 525.08,-118.68"/>
</g>
<!-- Node10 -->
<g id="node10" class="node">
<title>Node10</title>
<g id="a_node10"><a xlink:href="classvae_1_1core_1_1_voice_manger.html#a05cac4208804674ffdb173cc54fb5bd2" target="_top" xlink:title="Stops a voice.">
<polygon fill="none" stroke="black" points="337,-52.5 337,-82.5 466,-82.5 466,-52.5 337,-52.5"/>
<text text-anchor="start" x="345" y="-70.5" font-family="Helvetica,sans-Serif" font-size="10.00">vae::core::VoiceManger</text>
<text text-anchor="middle" x="401.5" y="-59.5" font-family="Helvetica,sans-Serif" font-size="10.00">::stopVoice</text>
</a>
</g>
</g>
<!-- Node9&#45;&gt;Node10 -->
<g id="edge10" class="edge">
<title>Node9&#45;&gt;Node10</title>
<path fill="none" stroke="midnightblue" d="M281.12,-98.44C297.6,-94.17 315.69,-89.48 332.69,-85.07"/>
<polygon fill="midnightblue" stroke="midnightblue" points="333.75,-88.41 342.55,-82.52 331.99,-81.64 333.75,-88.41"/>
</g>
<!-- Node10&#45;&gt;Node8 -->
<g id="edge12" class="edge">
<title>Node10&#45;&gt;Node8</title>
<path fill="none" stroke="midnightblue" d="M458.14,-82.52C480.07,-88.44 504.79,-95.11 524.98,-100.56"/>
<polygon fill="midnightblue" stroke="midnightblue" points="524.22,-103.98 534.79,-103.21 526.05,-97.22 524.22,-103.98"/>
</g>
<!-- Node11 -->
<g id="node11" class="node">
<title>Node11</title>
<g id="a_node11"><a xlink:href="classvae_1_1core_1_1_voice_manger.html#abe6b6d5a07c73e1e194f24314226a19f" target="_top" xlink:title=" ">
<polygon fill="none" stroke="black" points="502,-52.5 502,-82.5 631,-82.5 631,-52.5 502,-52.5"/>
<text text-anchor="start" x="510" y="-70.5" font-family="Helvetica,sans-Serif" font-size="10.00">vae::core::VoiceManger</text>
<text text-anchor="middle" x="566.5" y="-59.5" font-family="Helvetica,sans-Serif" font-size="10.00">::finished</text>
</a>
</g>
</g>
<!-- Node10&#45;&gt;Node11 -->
<g id="edge11" class="edge">
<title>Node10&#45;&gt;Node11</title>
<path fill="none" stroke="midnightblue" d="M466.45,-67.5C474.76,-67.5 483.32,-67.5 491.77,-67.5"/>
<polygon fill="midnightblue" stroke="midnightblue" points="492,-71 502,-67.5 492,-64 492,-71"/>
</g>
<!-- Node12&#45;&gt;Node10 -->
<g id="edge14" class="edge">
<title>Node12&#45;&gt;Node10</title>
<path fill="none" stroke="midnightblue" d="M286.58,-65.57C299.58,-65.79 313.37,-66.03 326.69,-66.25"/>
<polygon fill="midnightblue" stroke="midnightblue" points="326.71,-69.75 336.77,-66.42 326.83,-62.75 326.71,-69.75"/>
</g>
<!-- Node13&#45;&gt;Node10 -->
<g id="edge16" class="edge">
<title>Node13&#45;&gt;Node10</title>
<path fill="none" stroke="midnightblue" d="M274.34,-30.54C294.67,-36.5 318.2,-43.39 339.4,-49.6"/>
<polygon fill="midnightblue" stroke="midnightblue" points="338.69,-53.04 349.28,-52.49 340.66,-46.32 338.69,-53.04"/>
</g>
</g>
</svg>
