<?xml version="1.0" encoding="UTF-8" standalone="no"?>
<!DOCTYPE svg PUBLIC "-//W3C//DTD SVG 1.1//EN"
 "http://www.w3.org/Graphics/SVG/1.1/DTD/svg11.dtd">
<!-- Generated by graphviz version 2.50.0 (0)
 -->
<!-- Title: tklb::StackBuffer::remove Pages: 1 -->
<svg width="519pt" height="83pt"
 viewBox="0.00 0.00 519.00 83.00" xmlns="http://www.w3.org/2000/svg" xmlns:xlink="http://www.w3.org/1999/xlink">
<g id="graph0" class="graph" transform="scale(1 1) rotate(0) translate(4 79)">
<title>tklb::StackBuffer::remove</title>
<!-- Node1 -->
<g id="node1" class="node">
<title>Node1</title>
<g id="a_node1"><a xlink:title="Removes the object at a given index and fills the gap with another Will never shrink the buffer/alloc...">
<polygon fill="#bfbfbf" stroke="black" points="407,-22.5 407,-52.5 511,-52.5 511,-22.5 407,-22.5"/>
<text text-anchor="start" x="415" y="-40.5" font-family="Helvetica,sans-Serif" font-size="10.00">tklb::StackBuffer::</text>
<text text-anchor="middle" x="459" y="-29.5" font-family="Helvetica,sans-Serif" font-size="10.00">remove</text>
</a>
</g>
</g>
<!-- Node2 -->
<g id="node2" class="node">
<title>Node2</title>
<g id="a_node2"><a xlink:href="classtklb_1_1_stack_buffer.html#af921d6172cc6ae1e13e102c02f95faf2" target="_top" xlink:title="If a == comparisin is possible the object itself can be used.">
<polygon fill="none" stroke="black" points="228,-44.5 228,-74.5 332,-74.5 332,-44.5 228,-44.5"/>
<text text-anchor="start" x="236" y="-62.5" font-family="Helvetica,sans-Serif" font-size="10.00">tklb::StackBuffer::</text>
<text text-anchor="middle" x="280" y="-51.5" font-family="Helvetica,sans-Serif" font-size="10.00">remove</text>
</a>
</g>
</g>
<!-- Node1&#45;&gt;Node2 -->
<g id="edge1" class="edge">
<title>Node1&#45;&gt;Node2</title>
<path fill="none" stroke="midnightblue" d="M396.67,-45.12C375.6,-47.74 352.25,-50.64 332.08,-53.15"/>
<polygon fill="midnightblue" stroke="midnightblue" points="397.31,-48.57 406.8,-43.86 396.45,-41.62 397.31,-48.57"/>
</g>
<!-- Node3 -->
<g id="node3" class="node">
<title>Node3</title>
<g id="a_node3"><a xlink:href="classtklb_1_1_event_bus.html#ac52a735b0aa31b6e5a19a23b3b267660" target="_top" xlink:title=" ">
<polygon fill="none" stroke="black" points="189,-6 189,-25 371,-25 371,-6 189,-6"/>
<text text-anchor="middle" x="280" y="-13" font-family="Helvetica,sans-Serif" font-size="10.00">tklb::EventBus::removeSubscriber</text>
</a>
</g>
</g>
<!-- Node1&#45;&gt;Node3 -->
<g id="edge2" class="edge">
<title>Node1&#45;&gt;Node3</title>
<path fill="none" stroke="midnightblue" d="M396.82,-29.9C384.13,-28.32 370.6,-26.64 357.44,-25"/>
<polygon fill="midnightblue" stroke="midnightblue" points="396.45,-33.38 406.8,-31.14 397.31,-26.43 396.45,-33.38"/>
</g>
<!-- Node4 -->
<g id="node4" class="node">
<title>Node4</title>
<g id="a_node4"><a xlink:href="classtklb_1_1_event_bus_1_1_subscription.html#ac84aefadbc8d8b70d10a6ecb47188388" target="_top" xlink:title=" ">
<polygon fill="none" stroke="black" points="0,-0.5 0,-30.5 153,-30.5 153,-0.5 0,-0.5"/>
<text text-anchor="start" x="8" y="-18.5" font-family="Helvetica,sans-Serif" font-size="10.00">tklb::EventBus::Subscription</text>
<text text-anchor="middle" x="76.5" y="-7.5" font-family="Helvetica,sans-Serif" font-size="10.00">::~Subscription</text>
</a>
</g>
</g>
<!-- Node3&#45;&gt;Node4 -->
<g id="edge3" class="edge">
<title>Node3&#45;&gt;Node4</title>
<path fill="none" stroke="midnightblue" d="M178.75,-15.5C170.12,-15.5 161.48,-15.5 153.1,-15.5"/>
<polygon fill="midnightblue" stroke="midnightblue" points="178.86,-19 188.86,-15.5 178.86,-12 178.86,-19"/>
</g>
</g>
</svg>
