<?xml version="1.0" encoding="UTF-8" standalone="no"?>
<!DOCTYPE svg PUBLIC "-//W3C//DTD SVG 1.1//EN"
 "http://www.w3.org/Graphics/SVG/1.1/DTD/svg11.dtd">
<!-- Generated by graphviz version 2.50.0 (0)
 -->
<!-- Title: tklb::AudioBufferTpl::put Pages: 1 -->
<!--zoomable 134 -->
<svg id="main" version="1.1" xmlns="http://www.w3.org/2000/svg" xmlns:xlink="http://www.w3.org/1999/xlink" xml:space="preserve" onload="init(evt)">
<style type="text/css"><![CDATA[
.edge:hover path { stroke: red; }
.edge:hover polygon { stroke: red; fill: red; }
]]></style>
<script type="text/javascript"><![CDATA[
var edges = document.getElementsByTagName('g');
if (edges && edges.length) {
  for (var i=0;i<edges.length;i++) {
    if (edges[i].id.substr(0,4)=='edge') {
      edges[i].setAttribute('class','edge');
    }
  }
}
]]></script>
        <defs>
                <circle id="rim" cx="0" cy="0" r="7"/>
                <circle id="rim2" cx="0" cy="0" r="3.5"/>
                <g id="zoomPlus">
                        <use xlink:href="#rim" fill="#404040">
                                <set attributeName="fill" to="#808080" begin="zoomplus.mouseover" end="zoomplus.mouseout"/>
                        </use>
                        <path d="M-4,0h8M0,-4v8" fill="none" stroke="white" stroke-width="1.5" pointer-events="none"/>
                </g>
                <g id="zoomMin">
                        <use xlink:href="#rim" fill="#404040">
                                <set attributeName="fill" to="#808080" begin="zoomminus.mouseover" end="zoomminus.mouseout"/>
                        </use>
                        <path d="M-4,0h8" fill="none" stroke="white" stroke-width="1.5" pointer-events="none"/>
                </g>
                <g id="dirArrow">
                        <path fill="none" stroke="white" stroke-width="1.5" d="M0,-3.0v7 M-2.5,-0.5L0,-3.0L2.5,-0.5"/>
                </g>
               <g id="resetDef">
                       <use xlink:href="#rim2" fill="#404040">
                               <set attributeName="fill" to="#808080" begin="reset.mouseover" end="reset.mouseout"/>
                       </use>
               </g>
        </defs>

<script type="text/javascript">
var viewWidth = 1322;
var viewHeight = 134;
var sectionId = 'dynsection-22';
</script>
<script xlink:href="svgpan.js"/>
<svg id="graph" class="graph">
<g id="viewport">
<title>tklb::AudioBufferTpl::put</title>
<!-- Node1 -->
<g id="node1" class="node">
<title>Node1</title>
<g id="a_node1"><a xlink:title="Fill the provided array with the contents of this buffer.">
<polygon fill="#bfbfbf" stroke="black" points="1178,-44.5 1178,-63.5 1314,-63.5 1314,-44.5 1178,-44.5"/>
<text text-anchor="middle" x="1246" y="-51.5" font-family="Helvetica,sans-Serif" font-size="10.00">tklb::AudioBufferTpl::put</text>
</a>
</g>
</g>
<!-- Node2 -->
<g id="node2" class="node">
<title>Node2</title>
<g id="a_node2"><a xlink:href="classtklb_1_1_f_f_t_ooura.html#acd5e14dc5e02b37dc6fd9c817f1e4b95" target="_top" xlink:title="Frequency domain back to time domain.">
<polygon fill="none" stroke="black" points="1016,-88.5 1016,-107.5 1132,-107.5 1132,-88.5 1016,-88.5"/>
<text text-anchor="middle" x="1074" y="-95.5" font-family="Helvetica,sans-Serif" font-size="10.00">tklb::FFTOoura::back</text>
</a>
</g>
</g>
<!-- Node1&#45;&gt;Node2 -->
<g id="edge1" class="edge">
<title>Node1&#45;&gt;Node2</title>
<path fill="none" stroke="midnightblue" d="M1198.4,-66.06C1171.13,-73.12 1137.2,-81.9 1111.82,-88.47"/>
<polygon fill="midnightblue" stroke="midnightblue" points="1199.31,-69.44 1208.11,-63.55 1197.55,-62.66 1199.31,-69.44"/>
</g>
<!-- Node3 -->
<g id="node3" class="node">
<title>Node3</title>
<g id="a_node3"><a xlink:href="classtklb_1_1_audio_buffer_tpl.html#a2cf39ec8b1c8b109e5d4d006b1385391" target="_top" xlink:title="Fills an 2d array of size maxChannels() with pointers to each channel.">
<polygon fill="none" stroke="black" points="1017,-39 1017,-69 1131,-69 1131,-39 1017,-39"/>
<text text-anchor="start" x="1025" y="-57" font-family="Helvetica,sans-Serif" font-size="10.00">tklb::AudioBufferTpl</text>
<text text-anchor="middle" x="1074" y="-46" font-family="Helvetica,sans-Serif" font-size="10.00">::getRaw</text>
</a>
</g>
</g>
<!-- Node1&#45;&gt;Node3 -->
<g id="edge2" class="edge">
<title>Node1&#45;&gt;Node3</title>
<path fill="none" stroke="midnightblue" d="M1167.54,-54C1155.23,-54 1142.71,-54 1131.02,-54"/>
<polygon fill="midnightblue" stroke="midnightblue" points="1167.81,-57.5 1177.81,-54 1167.81,-50.5 1167.81,-57.5"/>
</g>
<!-- Node13 -->
<g id="node13" class="node">
<title>Node13</title>
<g id="a_node13"><a xlink:href="classtklb_1_1_audio_buffer_tpl.html#af62d46068dffe661c953e86f39c49357" target="_top" xlink:title="Fill the provided 2D array with the contents of this buffer.">
<polygon fill="none" stroke="black" points="1006,-0.5 1006,-19.5 1142,-19.5 1142,-0.5 1006,-0.5"/>
<text text-anchor="middle" x="1074" y="-7.5" font-family="Helvetica,sans-Serif" font-size="10.00">tklb::AudioBufferTpl::put</text>
</a>
</g>
</g>
<!-- Node1&#45;&gt;Node13 -->
<g id="edge14" class="edge">
<title>Node1&#45;&gt;Node13</title>
<path fill="none" stroke="midnightblue" d="M1198.4,-41.94C1171.13,-34.88 1137.2,-26.1 1111.82,-19.53"/>
<polygon fill="midnightblue" stroke="midnightblue" points="1197.55,-45.34 1208.11,-44.45 1199.31,-38.56 1197.55,-45.34"/>
</g>
<!-- Node4 -->
<g id="node4" class="node">
<title>Node4</title>
<g id="a_node4"><a xlink:href="namespacetklb_1_1ogg.html#a61b130503ea6c0157f584d36dec61371" target="_top" xlink:title="Decode ogg/vorbis from memory or file path.">
<polygon fill="none" stroke="black" points="872,-75.5 872,-94.5 958,-94.5 958,-75.5 872,-75.5"/>
<text text-anchor="middle" x="915" y="-82.5" font-family="Helvetica,sans-Serif" font-size="10.00">tklb::ogg::load</text>
</a>
</g>
</g>
<!-- Node3&#45;&gt;Node4 -->
<g id="edge3" class="edge">
<title>Node3&#45;&gt;Node4</title>
<path fill="none" stroke="midnightblue" d="M1006.63,-67.1C990.17,-70.35 972.98,-73.75 958.05,-76.7"/>
<polygon fill="midnightblue" stroke="midnightblue" points="1007.63,-70.48 1016.76,-65.1 1006.27,-63.61 1007.63,-70.48"/>
</g>
<!-- Node12 -->
<g id="node12" class="node">
<title>Node12</title>
<g id="a_node12"><a xlink:href="classtklb_1_1_oversampler.html#a938eddcfffbe34cbb91eca96c35693b4" target="_top" xlink:title=" ">
<polygon fill="none" stroke="black" points="860,-8 860,-38 970,-38 970,-8 860,-8"/>
<text text-anchor="start" x="868" y="-26" font-family="Helvetica,sans-Serif" font-size="10.00">tklb::Oversampler::</text>
<text text-anchor="middle" x="915" y="-15" font-family="Helvetica,sans-Serif" font-size="10.00">process</text>
</a>
</g>
</g>
<!-- Node3&#45;&gt;Node12 -->
<g id="edge12" class="edge">
<title>Node3&#45;&gt;Node12</title>
<path fill="none" stroke="midnightblue" d="M1006.63,-40.89C994.41,-38.48 981.8,-35.99 970.01,-33.66"/>
<polygon fill="midnightblue" stroke="midnightblue" points="1006.27,-44.39 1016.76,-42.9 1007.63,-37.52 1006.27,-44.39"/>
</g>
<!-- Node5 -->
<g id="node5" class="node">
<title>Node5</title>
<g id="a_node5"><a xlink:href="structvae_1_1core_1_1_source_loader.html#a2341f89c2b79148066369e8d50d98597" target="_top" xlink:title="Loads a wav file for the resource.">
<polygon fill="none" stroke="black" points="690,-70 690,-100 824,-100 824,-70 690,-70"/>
<text text-anchor="start" x="698" y="-88" font-family="Helvetica,sans-Serif" font-size="10.00">vae::core::SourceLoader</text>
<text text-anchor="middle" x="757" y="-77" font-family="Helvetica,sans-Serif" font-size="10.00">::load</text>
</a>
</g>
</g>
<!-- Node4&#45;&gt;Node5 -->
<g id="edge4" class="edge">
<title>Node4&#45;&gt;Node5</title>
<path fill="none" stroke="midnightblue" d="M861.49,-85C849.47,-85 836.54,-85 824.03,-85"/>
<polygon fill="midnightblue" stroke="midnightblue" points="861.78,-88.5 871.78,-85 861.78,-81.5 861.78,-88.5"/>
</g>
<!-- Node6 -->
<g id="node6" class="node">
<title>Node6</title>
<g id="a_node6"><a xlink:href="classvae_1_1core_1_1_bank_loader.html#a0c168e922d02dbe23ec42ebfde4d97a2" target="_top" xlink:title="Load a bank.json and all wav files referenced in it.">
<polygon fill="none" stroke="black" points="529,-70 529,-100 654,-100 654,-70 529,-70"/>
<text text-anchor="start" x="537" y="-88" font-family="Helvetica,sans-Serif" font-size="10.00">vae::core::BankLoader</text>
<text text-anchor="middle" x="591.5" y="-77" font-family="Helvetica,sans-Serif" font-size="10.00">::load</text>
</a>
</g>
</g>
<!-- Node5&#45;&gt;Node6 -->
<g id="edge5" class="edge">
<title>Node5&#45;&gt;Node6</title>
<path fill="none" stroke="midnightblue" d="M679.86,-85C671.2,-85 662.46,-85 654.02,-85"/>
<polygon fill="midnightblue" stroke="midnightblue" points="679.97,-88.5 689.97,-85 679.97,-81.5 679.97,-88.5"/>
</g>
<!-- Node7 -->
<g id="node7" class="node">
<title>Node7</title>
<g id="a_node7"><a xlink:href="classvae_1_1core_1_1_bank_manager.html#ab06ae4e1f8106811c8149dd73bef6bd0" target="_top" xlink:title=" ">
<polygon fill="none" stroke="black" points="359,-70 359,-100 493,-100 493,-70 359,-70"/>
<text text-anchor="start" x="367" y="-88" font-family="Helvetica,sans-Serif" font-size="10.00">vae::core::BankManager</text>
<text text-anchor="middle" x="426" y="-77" font-family="Helvetica,sans-Serif" font-size="10.00">::load</text>
</a>
</g>
</g>
<!-- Node6&#45;&gt;Node7 -->
<g id="edge6" class="edge">
<title>Node6&#45;&gt;Node7</title>
<path fill="none" stroke="midnightblue" d="M518.53,-85C510.13,-85 501.59,-85 493.27,-85"/>
<polygon fill="midnightblue" stroke="midnightblue" points="518.69,-88.5 528.69,-85 518.69,-81.5 518.69,-88.5"/>
</g>
<!-- Node7&#45;&gt;Node7 -->
<g id="edge8" class="edge">
<title>Node7&#45;&gt;Node7</title>
<path fill="none" stroke="midnightblue" d="M455.14,-110.46C451.52,-115.18 441.81,-118.5 426,-118.5 400.05,-118.5 390.53,-109.56 397.42,-100.16"/>
<polygon fill="midnightblue" stroke="midnightblue" points="458.62,-109.95 454.58,-100.16 451.63,-110.33 458.62,-109.95"/>
</g>
<!-- Node8 -->
<g id="node8" class="node">
<title>Node8</title>
<g id="a_node8"><a xlink:href="classvae_1_1core_1_1_bank_manager.html#ae04256d1f2f2df47d3239993c9bbf12c" target="_top" xlink:title="Will reload all the banks.">
<polygon fill="none" stroke="black" points="189,-95 189,-125 323,-125 323,-95 189,-95"/>
<text text-anchor="start" x="197" y="-113" font-family="Helvetica,sans-Serif" font-size="10.00">vae::core::BankManager</text>
<text text-anchor="middle" x="256" y="-102" font-family="Helvetica,sans-Serif" font-size="10.00">::init</text>
</a>
</g>
</g>
<!-- Node7&#45;&gt;Node8 -->
<g id="edge7" class="edge">
<title>Node7&#45;&gt;Node8</title>
<path fill="none" stroke="midnightblue" d="M348.68,-96.36C340.17,-97.62 331.56,-98.9 323.19,-100.15"/>
<polygon fill="midnightblue" stroke="midnightblue" points="349.23,-99.81 358.6,-94.88 348.2,-92.89 349.23,-99.81"/>
</g>
<!-- Node9 -->
<g id="node9" class="node">
<title>Node9</title>
<g id="a_node9"><a xlink:href="classvae_1_1core_1_1_engine.html#a4af5733f9975fe1c746e75958bc39d23" target="_top" xlink:title="Load bank from filesystem.">
<polygon fill="none" stroke="black" points="202.5,-46 202.5,-76 309.5,-76 309.5,-46 202.5,-46"/>
<text text-anchor="start" x="210.5" y="-64" font-family="Helvetica,sans-Serif" font-size="10.00">vae::core::Engine::</text>
<text text-anchor="middle" x="256" y="-53" font-family="Helvetica,sans-Serif" font-size="10.00">loadBank</text>
</a>
</g>
</g>
<!-- Node7&#45;&gt;Node9 -->
<g id="edge9" class="edge">
<title>Node7&#45;&gt;Node9</title>
<path fill="none" stroke="midnightblue" d="M348.62,-74.09C335.47,-72.21 322.07,-70.3 309.72,-68.53"/>
<polygon fill="midnightblue" stroke="midnightblue" points="348.21,-77.57 358.6,-75.51 349.2,-70.64 348.21,-77.57"/>
</g>
<!-- Node10 -->
<g id="node10" class="node">
<title>Node10</title>
<g id="a_node10"><a xlink:href="classvae_1_1_engine_pimpl.html#adec77e6ef0f00d52c634611cb6822443" target="_top" xlink:title="Load bank from filesystem.">
<polygon fill="none" stroke="black" points="0,-70.5 0,-89.5 153,-89.5 153,-70.5 0,-70.5"/>
<text text-anchor="middle" x="76.5" y="-77.5" font-family="Helvetica,sans-Serif" font-size="10.00">vae::EnginePimpl::loadBank</text>
</a>
</g>
</g>
<!-- Node9&#45;&gt;Node10 -->
<g id="edge10" class="edge">
<title>Node9&#45;&gt;Node10</title>
<path fill="none" stroke="midnightblue" d="M192.25,-67.72C179.57,-69.07 166.12,-70.51 153.06,-71.91"/>
<polygon fill="midnightblue" stroke="midnightblue" points="192.65,-71.19 202.22,-66.65 191.91,-64.23 192.65,-71.19"/>
</g>
<!-- Node11 -->
<g id="node11" class="node">
<title>Node11</title>
<g id="a_node11"><a xlink:href="main_8cpp.html#ae66f6b31b5ad750f1fe042a706a4e3d4" target="_top" xlink:title=" ">
<polygon fill="none" stroke="black" points="56,-32.5 56,-51.5 97,-51.5 97,-32.5 56,-32.5"/>
<text text-anchor="middle" x="76.5" y="-39.5" font-family="Helvetica,sans-Serif" font-size="10.00">main</text>
</a>
</g>
</g>
<!-- Node9&#45;&gt;Node11 -->
<g id="edge11" class="edge">
<title>Node9&#45;&gt;Node11</title>
<path fill="none" stroke="midnightblue" d="M192.06,-54.26C158.69,-50.69 119.98,-46.55 97.18,-44.11"/>
<polygon fill="midnightblue" stroke="midnightblue" points="191.91,-57.77 202.22,-55.35 192.65,-50.81 191.91,-57.77"/>
</g>
<!-- Node12&#45;&gt;Node12 -->
<g id="edge13" class="edge">
<title>Node12&#45;&gt;Node12</title>
<path fill="none" stroke="midnightblue" d="M943.07,-48.46C939.59,-53.18 930.23,-56.5 915,-56.5 890,-56.5 880.83,-47.56 887.47,-38.16"/>
<polygon fill="midnightblue" stroke="midnightblue" points="946.55,-47.96 942.53,-38.16 939.56,-48.33 946.55,-47.96"/>
</g>
</g>
</svg>
        <g id="navigator" transform="translate(0 0)" fill="#404254">
                <rect fill="#f2f5e9" fill-opacity="0.5" stroke="#606060" stroke-width=".5" x="0" y="0" width="60" height="60"/>
                <use id="zoomplus" xlink:href="#zoomPlus" x="17" y="9" onmousedown="handleZoom(evt,'in')"/>
                <use id="zoomminus" xlink:href="#zoomMin" x="42" y="9" onmousedown="handleZoom(evt,'out')"/>
                <use id="reset" xlink:href="#resetDef" x="30" y="36" onmousedown="handleReset()"/>
                <g id="arrowUp" xlink:href="#dirArrow" transform="translate(30 24)" onmousedown="handlePan(0,-1)">
                  <use xlink:href="#rim" fill="#404040">
                        <set attributeName="fill" to="#808080" begin="arrowUp.mouseover" end="arrowUp.mouseout"/>
                  </use>
                  <path fill="none" stroke="white" stroke-width="1.5" d="M0,-3.0v7 M-2.5,-0.5L0,-3.0L2.5,-0.5"/>
                </g>
                <g id="arrowRight" xlink:href="#dirArrow" transform="rotate(90) translate(36 -43)" onmousedown="handlePan(1,0)">
                  <use xlink:href="#rim" fill="#404040">
                        <set attributeName="fill" to="#808080" begin="arrowRight.mouseover" end="arrowRight.mouseout"/>
                  </use>
                  <path fill="none" stroke="white" stroke-width="1.5" d="M0,-3.0v7 M-2.5,-0.5L0,-3.0L2.5,-0.5"/>
                </g>
                <g id="arrowDown" xlink:href="#dirArrow" transform="rotate(180) translate(-30 -48)" onmousedown="handlePan(0,1)">
                  <use xlink:href="#rim" fill="#404040">
                        <set attributeName="fill" to="#808080" begin="arrowDown.mouseover" end="arrowDown.mouseout"/>
                  </use>
                  <path fill="none" stroke="white" stroke-width="1.5" d="M0,-3.0v7 M-2.5,-0.5L0,-3.0L2.5,-0.5"/>
                </g>
                <g id="arrowLeft" xlink:href="#dirArrow" transform="rotate(270) translate(-36 17)" onmousedown="handlePan(-1,0)">
                  <use xlink:href="#rim" fill="#404040">
                        <set attributeName="fill" to="#808080" begin="arrowLeft.mouseover" end="arrowLeft.mouseout"/>
                  </use>
                  <path fill="none" stroke="white" stroke-width="1.5" d="M0,-3.0v7 M-2.5,-0.5L0,-3.0L2.5,-0.5"/>
                </g>
        </g>
        <svg viewBox="0 0 15 15" width="100%" height="30px" preserveAspectRatio="xMaxYMin meet">
         <g id="arrow_out" transform="scale(0.3 0.3)">
          <a xlink:href="classtklb_1_1_audio_buffer_tpl_a613104aae947423f0fac79142a8bcaf0_icgraph_org.svg" target="_base">
           <rect id="button" ry="5" rx="5" y="6" x="6" height="38" width="38"
                fill="#f2f5e9" fill-opacity="0.5" stroke="#606060" stroke-width="1.0"/>
           <path id="arrow"
             d="M 11.500037,31.436501 C 11.940474,20.09759 22.043105,11.32322 32.158766,21.979434 L 37.068811,17.246167 C 37.068811,17.246167 37.088388,32 37.088388,32 L 22.160133,31.978069 C 22.160133,31.978069 26.997745,27.140456 26.997745,27.140456 C 18.528582,18.264221 13.291696,25.230495 11.500037,31.436501 z"
             style="fill:#404040;"/>
          </a>
         </g>
        </svg>
</svg>
