<?xml version="1.0" encoding="UTF-8" standalone="no"?>
<!DOCTYPE svg PUBLIC "-//W3C//DTD SVG 1.1//EN"
 "http://www.w3.org/Graphics/SVG/1.1/DTD/svg11.dtd">
<!-- Generated by graphviz version 2.50.0 (0)
 -->
<!-- Title: tklb::HeapBuffer::allocate Pages: 1 -->
<!--zoomable 449 -->
<svg id="main" version="1.1" xmlns="http://www.w3.org/2000/svg" xmlns:xlink="http://www.w3.org/1999/xlink" xml:space="preserve" onload="init(evt)">
<style type="text/css"><![CDATA[
.edge:hover path { stroke: red; }
.edge:hover polygon { stroke: red; fill: red; }
]]></style>
<script type="text/javascript"><![CDATA[
var edges = document.getElementsByTagName('g');
if (edges && edges.length) {
  for (var i=0;i<edges.length;i++) {
    if (edges[i].id.substr(0,4)=='edge') {
      edges[i].setAttribute('class','edge');
    }
  }
}
]]></script>
        <defs>
                <circle id="rim" cx="0" cy="0" r="7"/>
                <circle id="rim2" cx="0" cy="0" r="3.5"/>
                <g id="zoomPlus">
                        <use xlink:href="#rim" fill="#404040">
                                <set attributeName="fill" to="#808080" begin="zoomplus.mouseover" end="zoomplus.mouseout"/>
                        </use>
                        <path d="M-4,0h8M0,-4v8" fill="none" stroke="white" stroke-width="1.5" pointer-events="none"/>
                </g>
                <g id="zoomMin">
                        <use xlink:href="#rim" fill="#404040">
                                <set attributeName="fill" to="#808080" begin="zoomminus.mouseover" end="zoomminus.mouseout"/>
                        </use>
                        <path d="M-4,0h8" fill="none" stroke="white" stroke-width="1.5" pointer-events="none"/>
                </g>
                <g id="dirArrow">
                        <path fill="none" stroke="white" stroke-width="1.5" d="M0,-3.0v7 M-2.5,-0.5L0,-3.0L2.5,-0.5"/>
                </g>
               <g id="resetDef">
                       <use xlink:href="#rim2" fill="#404040">
                               <set attributeName="fill" to="#808080" begin="reset.mouseover" end="reset.mouseout"/>
                       </use>
               </g>
        </defs>

<script type="text/javascript">
var viewWidth = 713;
var viewHeight = 449;
var sectionId = 'dynsection-7';
</script>
<script xlink:href="svgpan.js"/>
<svg id="graph" class="graph">
<g id="viewport">
<title>tklb::HeapBuffer::allocate</title>
<!-- Node1 -->
<g id="node1" class="node">
<title>Node1</title>
<g id="a_node1"><a xlink:title="Allocated the exact size requsted and copies existing objects.">
<polygon fill="#bfbfbf" stroke="black" points="563,-285 563,-304 705,-304 705,-285 563,-285"/>
<text text-anchor="middle" x="634" y="-292" font-family="Helvetica,sans-Serif" font-size="10.00">tklb::HeapBuffer::allocate</text>
</a>
</g>
</g>
<!-- Node2 -->
<g id="node2" class="node">
<title>Node2</title>
<g id="a_node2"><a xlink:href="classtklb_1_1_heap_buffer.html#a4cde91bbb793df74ff45d47398d478ad" target="_top" xlink:title="Push the object to the back of the buffer TODO tklb move version.">
<polygon fill="none" stroke="black" points="394,-378 394,-397 520,-397 520,-378 394,-378"/>
<text text-anchor="middle" x="457" y="-385" font-family="Helvetica,sans-Serif" font-size="10.00">tklb::HeapBuffer::push</text>
</a>
</g>
</g>
<!-- Node1&#45;&gt;Node2 -->
<g id="edge1" class="edge">
<title>Node1&#45;&gt;Node2</title>
<path fill="none" stroke="midnightblue" d="M605.93,-308.89C569.79,-328.09 506.77,-361.58 475.97,-377.95"/>
<polygon fill="midnightblue" stroke="midnightblue" points="607.74,-311.89 614.93,-304.1 604.46,-305.7 607.74,-311.89"/>
</g>
<!-- Node6 -->
<g id="node6" class="node">
<title>Node6</title>
<g id="a_node6"><a xlink:href="classtklb_1_1_heap_buffer.html#a326582325b9a8f06db3277db63a817c4" target="_top" xlink:title="Will make sure the desired space is allocated.">
<polygon fill="none" stroke="black" points="387,-285 387,-304 527,-304 527,-285 387,-285"/>
<text text-anchor="middle" x="457" y="-292" font-family="Helvetica,sans-Serif" font-size="10.00">tklb::HeapBuffer::reserve</text>
</a>
</g>
</g>
<!-- Node1&#45;&gt;Node6 -->
<g id="edge5" class="edge">
<title>Node1&#45;&gt;Node6</title>
<path fill="none" stroke="midnightblue" d="M552.8,-294.5C544.2,-294.5 535.5,-294.5 527.05,-294.5"/>
<polygon fill="midnightblue" stroke="midnightblue" points="552.83,-298 562.83,-294.5 552.83,-291 552.83,-298"/>
</g>
<!-- Node7 -->
<g id="node7" class="node">
<title>Node7</title>
<g id="a_node7"><a xlink:href="classtklb_1_1_heap_buffer.html#aea890defe7d21d9273e005464b04f784" target="_top" xlink:title="Resize the buffer If the memory is borrowed it will become unique and owned by this instance as soon ...">
<polygon fill="none" stroke="black" points="391,-192 391,-211 523,-211 523,-192 391,-192"/>
<text text-anchor="middle" x="457" y="-199" font-family="Helvetica,sans-Serif" font-size="10.00">tklb::HeapBuffer::resize</text>
</a>
</g>
</g>
<!-- Node1&#45;&gt;Node7 -->
<g id="edge6" class="edge">
<title>Node1&#45;&gt;Node7</title>
<path fill="none" stroke="midnightblue" d="M605.93,-280.11C569.79,-260.91 506.77,-227.42 475.97,-211.05"/>
<polygon fill="midnightblue" stroke="midnightblue" points="604.46,-283.3 614.93,-284.9 607.74,-277.11 604.46,-283.3"/>
</g>
<!-- Node3 -->
<g id="node3" class="node">
<title>Node3</title>
<g id="a_node3"><a xlink:href="classtklb_1_1_event_bus.html#a2d0bbc8013b6d7ea8ce782a95328f6f9" target="_top" xlink:title=" ">
<polygon fill="none" stroke="black" points="189,-416 189,-435 351,-435 351,-416 189,-416"/>
<text text-anchor="middle" x="270" y="-423" font-family="Helvetica,sans-Serif" font-size="10.00">tklb::EventBus::addSubscriber</text>
</a>
</g>
</g>
<!-- Node2&#45;&gt;Node3 -->
<g id="edge2" class="edge">
<title>Node2&#45;&gt;Node3</title>
<path fill="none" stroke="midnightblue" d="M399.48,-399.11C373.17,-404.51 342.26,-410.86 317.35,-415.98"/>
<polygon fill="midnightblue" stroke="midnightblue" points="400.23,-402.53 409.32,-397.09 398.82,-395.67 400.23,-402.53"/>
</g>
<!-- Node5 -->
<g id="node5" class="node">
<title>Node5</title>
<g id="a_node5"><a xlink:href="string_8cpp.html#ae66f6b31b5ad750f1fe042a706a4e3d4" target="_top" xlink:title=" ">
<polygon fill="none" stroke="black" points="249.5,-378 249.5,-397 290.5,-397 290.5,-378 249.5,-378"/>
<text text-anchor="middle" x="270" y="-385" font-family="Helvetica,sans-Serif" font-size="10.00">main</text>
</a>
</g>
</g>
<!-- Node2&#45;&gt;Node5 -->
<g id="edge4" class="edge">
<title>Node2&#45;&gt;Node5</title>
<path fill="none" stroke="midnightblue" d="M383.63,-387.5C350.13,-387.5 312.92,-387.5 290.77,-387.5"/>
<polygon fill="midnightblue" stroke="midnightblue" points="383.88,-391 393.88,-387.5 383.88,-384 383.88,-391"/>
</g>
<!-- Node4 -->
<g id="node4" class="node">
<title>Node4</title>
<g id="a_node4"><a xlink:href="classtklb_1_1_event_bus_1_1_subscription.html#a2d207145c91831a84c72acf78f4d7657" target="_top" xlink:title=" ">
<polygon fill="none" stroke="black" points="0,-410.5 0,-440.5 153,-440.5 153,-410.5 0,-410.5"/>
<text text-anchor="start" x="8" y="-428.5" font-family="Helvetica,sans-Serif" font-size="10.00">tklb::EventBus::Subscription</text>
<text text-anchor="middle" x="76.5" y="-417.5" font-family="Helvetica,sans-Serif" font-size="10.00">::Subscription</text>
</a>
</g>
</g>
<!-- Node3&#45;&gt;Node4 -->
<g id="edge3" class="edge">
<title>Node3&#45;&gt;Node4</title>
<path fill="none" stroke="midnightblue" d="M178.89,-425.5C170.33,-425.5 161.71,-425.5 153.3,-425.5"/>
<polygon fill="midnightblue" stroke="midnightblue" points="178.9,-429 188.9,-425.5 178.9,-422 178.9,-429"/>
</g>
<!-- Node8 -->
<g id="node8" class="node">
<title>Node8</title>
<g id="a_node8"><a xlink:href="classtklb_1_1_heap_buffer.html#ac595de86ab0e2f33c79034b9e64db0a8" target="_top" xlink:title="Clears the buffer but doesn&#39;t free the memory.">
<polygon fill="none" stroke="black" points="206.5,-340 206.5,-359 333.5,-359 333.5,-340 206.5,-340"/>
<text text-anchor="middle" x="270" y="-347" font-family="Helvetica,sans-Serif" font-size="10.00">tklb::HeapBuffer::clear</text>
</a>
</g>
</g>
<!-- Node7&#45;&gt;Node8 -->
<g id="edge7" class="edge">
<title>Node7&#45;&gt;Node8</title>
<path fill="none" stroke="midnightblue" d="M438.72,-218.34C424.21,-232.87 403.28,-254.74 387,-275.5 368.97,-298.49 374.91,-313.71 351,-330.5 345.51,-334.36 339.34,-337.44 332.92,-339.9"/>
<polygon fill="midnightblue" stroke="midnightblue" points="441.42,-220.59 446.06,-211.07 436.49,-215.62 441.42,-220.59"/>
</g>
<!-- Node9 -->
<g id="node9" class="node">
<title>Node9</title>
<g id="a_node9"><a xlink:href="classtklb_1_1_heap_buffer.html#a7f018ade21d320cf220186a52e256b93" target="_top" xlink:title="If T is a pointer type, delete will be called for all pointers in buffer and resize(0) is called.">
<polygon fill="none" stroke="black" points="200,-290.5 200,-320.5 340,-320.5 340,-290.5 200,-290.5"/>
<text text-anchor="start" x="208" y="-308.5" font-family="Helvetica,sans-Serif" font-size="10.00">tklb::HeapBuffer::destroy</text>
<text text-anchor="middle" x="270" y="-297.5" font-family="Helvetica,sans-Serif" font-size="10.00">Pointers</text>
</a>
</g>
</g>
<!-- Node7&#45;&gt;Node9 -->
<g id="edge8" class="edge">
<title>Node7&#45;&gt;Node9</title>
<path fill="none" stroke="midnightblue" d="M438.14,-218C418.22,-235.64 384.39,-263.37 351,-280.5 343.75,-284.22 335.84,-287.51 327.91,-290.38"/>
<polygon fill="midnightblue" stroke="midnightblue" points="440.7,-220.41 445.79,-211.12 436.01,-215.21 440.7,-220.41"/>
</g>
<!-- Node10 -->
<g id="node10" class="node">
<title>Node10</title>
<g id="a_node10"><a xlink:href="classtklb_1_1_heap_buffer.html#a219e440c13837426f4a9f03e12ad769e" target="_top" xlink:title="Setup the buffer with a size.">
<polygon fill="none" stroke="black" points="191,-252 191,-271 349,-271 349,-252 191,-252"/>
<text text-anchor="middle" x="270" y="-259" font-family="Helvetica,sans-Serif" font-size="10.00">tklb::HeapBuffer::HeapBuffer</text>
</a>
</g>
</g>
<!-- Node7&#45;&gt;Node10 -->
<g id="edge9" class="edge">
<title>Node7&#45;&gt;Node10</title>
<path fill="none" stroke="midnightblue" d="M424.95,-214.94C404.26,-223.57 376.32,-234.59 351,-242.5 339.83,-245.99 327.6,-249.19 316.15,-251.94"/>
<polygon fill="midnightblue" stroke="midnightblue" points="426.34,-218.15 434.19,-211.04 423.62,-211.7 426.34,-218.15"/>
</g>
<!-- Node11 -->
<g id="node11" class="node">
<title>Node11</title>
<g id="a_node11"><a xlink:href="classtklb_1_1_heap_buffer.html#aedbbae6aeac4dab858a9734d7c02d240" target="_top" xlink:title="Provide foreign memory to borrow.">
<polygon fill="none" stroke="black" points="205,-214 205,-233 335,-233 335,-214 205,-214"/>
<text text-anchor="middle" x="270" y="-221" font-family="Helvetica,sans-Serif" font-size="10.00">tklb::HeapBuffer::inject</text>
</a>
</g>
</g>
<!-- Node7&#45;&gt;Node11 -->
<g id="edge10" class="edge">
<title>Node7&#45;&gt;Node11</title>
<path fill="none" stroke="midnightblue" d="M380.45,-210.48C365.37,-212.28 349.66,-214.15 335.01,-215.89"/>
<polygon fill="midnightblue" stroke="midnightblue" points="381.26,-213.91 390.78,-209.26 380.43,-206.96 381.26,-213.91"/>
</g>
<!-- Node13 -->
<g id="node13" class="node">
<title>Node13</title>
<g id="a_node13"><a xlink:href="classtklb_1_1_convolver_mono_tpl.html#a67f9498b46370c1a273b47ccc4863e21" target="_top" xlink:title="Load a impulse response and prepare the convolution.">
<polygon fill="none" stroke="black" points="204,-164.5 204,-194.5 336,-194.5 336,-164.5 204,-164.5"/>
<text text-anchor="start" x="212" y="-182.5" font-family="Helvetica,sans-Serif" font-size="10.00">tklb::ConvolverMonoTpl</text>
<text text-anchor="middle" x="270" y="-171.5" font-family="Helvetica,sans-Serif" font-size="10.00">::load</text>
</a>
</g>
</g>
<!-- Node7&#45;&gt;Node13 -->
<g id="edge12" class="edge">
<title>Node7&#45;&gt;Node13</title>
<path fill="none" stroke="midnightblue" d="M380.69,-192.54C365.96,-190.79 350.63,-188.97 336.26,-187.26"/>
<polygon fill="midnightblue" stroke="midnightblue" points="380.43,-196.04 390.78,-193.74 381.26,-189.09 380.43,-196.04"/>
</g>
<!-- Node14 -->
<g id="node14" class="node">
<title>Node14</title>
<g id="a_node14"><a xlink:href="namespacetklb_1_1ogg.html#a8a0c549ee31780a868d551ff5536c71e" target="_top" xlink:title="Decode ogg/vorbis from memory or file path.">
<polygon fill="none" stroke="black" points="227,-126 227,-145 313,-145 313,-126 227,-126"/>
<text text-anchor="middle" x="270" y="-133" font-family="Helvetica,sans-Serif" font-size="10.00">tklb::ogg::load</text>
</a>
</g>
</g>
<!-- Node7&#45;&gt;Node14 -->
<g id="edge13" class="edge">
<title>Node7&#45;&gt;Node14</title>
<path fill="none" stroke="midnightblue" d="M427.42,-187.42C406.59,-177.55 377.5,-164.55 351,-155.5 338.94,-151.38 325.6,-147.71 313.32,-144.67"/>
<polygon fill="midnightblue" stroke="midnightblue" points="426.12,-190.68 436.65,-191.85 429.15,-184.37 426.12,-190.68"/>
</g>
<!-- Node15 -->
<g id="node15" class="node">
<title>Node15</title>
<g id="a_node15"><a xlink:href="namespacetklb_1_1wave.html#aa283efa758de590bb8f167e32a1ba2a5" target="_top" xlink:title="Decode wav from memory or file path.">
<polygon fill="none" stroke="black" points="222.5,-88 222.5,-107 317.5,-107 317.5,-88 222.5,-88"/>
<text text-anchor="middle" x="270" y="-95" font-family="Helvetica,sans-Serif" font-size="10.00">tklb::wave::load</text>
</a>
</g>
</g>
<!-- Node7&#45;&gt;Node15 -->
<g id="edge14" class="edge">
<title>Node7&#45;&gt;Node15</title>
<path fill="none" stroke="midnightblue" d="M440.1,-184.69C420.84,-165.33 386.52,-133.96 351,-116.5 340.75,-111.46 329.1,-107.72 317.91,-104.95"/>
<polygon fill="midnightblue" stroke="midnightblue" points="437.68,-187.23 447.17,-191.94 442.7,-182.34 437.68,-187.23"/>
</g>
<!-- Node16 -->
<g id="node16" class="node">
<title>Node16</title>
<g id="a_node16"><a xlink:href="classtklb_1_1_heap_buffer.html#a7a9a54468dbd1fe9b3dbf02fa2b574b4" target="_top" xlink:title="Set data from array.">
<polygon fill="none" stroke="black" points="211,-50 211,-69 329,-69 329,-50 211,-50"/>
<text text-anchor="middle" x="270" y="-57" font-family="Helvetica,sans-Serif" font-size="10.00">tklb::HeapBuffer::set</text>
</a>
</g>
</g>
<!-- Node7&#45;&gt;Node16 -->
<g id="edge15" class="edge">
<title>Node7&#45;&gt;Node16</title>
<path fill="none" stroke="midnightblue" d="M445.35,-182.75C428.82,-155.4 394.31,-104.98 351,-78.5 344.3,-74.41 336.79,-71.19 329.12,-68.67"/>
<polygon fill="midnightblue" stroke="midnightblue" points="442.53,-184.85 450.62,-191.69 448.56,-181.3 442.53,-184.85"/>
</g>
<!-- Node17 -->
<g id="node17" class="node">
<title>Node17</title>
<g id="a_node17"><a xlink:href="classtklb_1_1_heap_buffer.html#a833c723b6838bb28f7b6886d6df8b65c" target="_top" xlink:title=" ">
<polygon fill="none" stroke="black" points="218.5,-0.5 218.5,-30.5 321.5,-30.5 321.5,-0.5 218.5,-0.5"/>
<text text-anchor="start" x="226.5" y="-18.5" font-family="Helvetica,sans-Serif" font-size="10.00">tklb::HeapBuffer::</text>
<text text-anchor="middle" x="270" y="-7.5" font-family="Helvetica,sans-Serif" font-size="10.00">~HeapBuffer</text>
</a>
</g>
</g>
<!-- Node7&#45;&gt;Node17 -->
<g id="edge16" class="edge">
<title>Node7&#45;&gt;Node17</title>
<path fill="none" stroke="midnightblue" d="M448.63,-182.27C434.73,-148.54 401.42,-78.66 351,-40.5 342.41,-34 332.11,-29.17 321.79,-25.59"/>
<polygon fill="midnightblue" stroke="midnightblue" points="445.5,-183.88 452.46,-191.87 452,-181.28 445.5,-183.88"/>
</g>
<!-- Node12 -->
<g id="node12" class="node">
<title>Node12</title>
<g id="a_node12"><a xlink:href="classtklb_1_1_heap_buffer.html#a320950100dd32e8bbf4f5118f41c4533" target="_top" xlink:title="Provide const foreign memory to use Using non const accessors will cause assertions in debug mode.">
<polygon fill="none" stroke="black" points="11.5,-214 11.5,-233 141.5,-233 141.5,-214 11.5,-214"/>
<text text-anchor="middle" x="76.5" y="-221" font-family="Helvetica,sans-Serif" font-size="10.00">tklb::HeapBuffer::inject</text>
</a>
</g>
</g>
<!-- Node11&#45;&gt;Node12 -->
<g id="edge11" class="edge">
<title>Node11&#45;&gt;Node12</title>
<path fill="none" stroke="midnightblue" d="M194.8,-223.5C177.31,-223.5 158.81,-223.5 141.8,-223.5"/>
<polygon fill="midnightblue" stroke="midnightblue" points="194.97,-227 204.97,-223.5 194.97,-220 194.97,-227"/>
</g>
</g>
</svg>
        <g id="navigator" transform="translate(0 0)" fill="#404254">
                <rect fill="#f2f5e9" fill-opacity="0.5" stroke="#606060" stroke-width=".5" x="0" y="0" width="60" height="60"/>
                <use id="zoomplus" xlink:href="#zoomPlus" x="17" y="9" onmousedown="handleZoom(evt,'in')"/>
                <use id="zoomminus" xlink:href="#zoomMin" x="42" y="9" onmousedown="handleZoom(evt,'out')"/>
                <use id="reset" xlink:href="#resetDef" x="30" y="36" onmousedown="handleReset()"/>
                <g id="arrowUp" xlink:href="#dirArrow" transform="translate(30 24)" onmousedown="handlePan(0,-1)">
                  <use xlink:href="#rim" fill="#404040">
                        <set attributeName="fill" to="#808080" begin="arrowUp.mouseover" end="arrowUp.mouseout"/>
                  </use>
                  <path fill="none" stroke="white" stroke-width="1.5" d="M0,-3.0v7 M-2.5,-0.5L0,-3.0L2.5,-0.5"/>
                </g>
                <g id="arrowRight" xlink:href="#dirArrow" transform="rotate(90) translate(36 -43)" onmousedown="handlePan(1,0)">
                  <use xlink:href="#rim" fill="#404040">
                        <set attributeName="fill" to="#808080" begin="arrowRight.mouseover" end="arrowRight.mouseout"/>
                  </use>
                  <path fill="none" stroke="white" stroke-width="1.5" d="M0,-3.0v7 M-2.5,-0.5L0,-3.0L2.5,-0.5"/>
                </g>
                <g id="arrowDown" xlink:href="#dirArrow" transform="rotate(180) translate(-30 -48)" onmousedown="handlePan(0,1)">
                  <use xlink:href="#rim" fill="#404040">
                        <set attributeName="fill" to="#808080" begin="arrowDown.mouseover" end="arrowDown.mouseout"/>
                  </use>
                  <path fill="none" stroke="white" stroke-width="1.5" d="M0,-3.0v7 M-2.5,-0.5L0,-3.0L2.5,-0.5"/>
                </g>
                <g id="arrowLeft" xlink:href="#dirArrow" transform="rotate(270) translate(-36 17)" onmousedown="handlePan(-1,0)">
                  <use xlink:href="#rim" fill="#404040">
                        <set attributeName="fill" to="#808080" begin="arrowLeft.mouseover" end="arrowLeft.mouseout"/>
                  </use>
                  <path fill="none" stroke="white" stroke-width="1.5" d="M0,-3.0v7 M-2.5,-0.5L0,-3.0L2.5,-0.5"/>
                </g>
        </g>
        <svg viewBox="0 0 15 15" width="100%" height="30px" preserveAspectRatio="xMaxYMin meet">
         <g id="arrow_out" transform="scale(0.3 0.3)">
          <a xlink:href="classtklb_1_1_heap_buffer_a37d94fdca920347674a4048cdc28452d_icgraph_org.svg" target="_base">
           <rect id="button" ry="5" rx="5" y="6" x="6" height="38" width="38"
                fill="#f2f5e9" fill-opacity="0.5" stroke="#606060" stroke-width="1.0"/>
           <path id="arrow"
             d="M 11.500037,31.436501 C 11.940474,20.09759 22.043105,11.32322 32.158766,21.979434 L 37.068811,17.246167 C 37.068811,17.246167 37.088388,32 37.088388,32 L 22.160133,31.978069 C 22.160133,31.978069 26.997745,27.140456 26.997745,27.140456 C 18.528582,18.264221 13.291696,25.230495 11.500037,31.436501 z"
             style="fill:#404040;"/>
          </a>
         </g>
        </svg>
</svg>
