<?xml version="1.0" encoding="UTF-8" standalone="no"?>
<!DOCTYPE svg PUBLIC "-//W3C//DTD SVG 1.1//EN"
 "http://www.w3.org/Graphics/SVG/1.1/DTD/svg11.dtd">
<!-- Generated by graphviz version 2.50.0 (0)
 -->
<!-- Title: tklb::Oversampler&lt; CHANNELS, MAX_BLOCK &gt; Pages: 1 -->
<svg width="842pt" height="1686pt"
 viewBox="0.00 0.00 842.00 1686.00" xmlns="http://www.w3.org/2000/svg" xmlns:xlink="http://www.w3.org/1999/xlink">
<g id="graph0" class="graph" transform="scale(1 1) rotate(0) translate(4 1682)">
<title>tklb::Oversampler&lt; CHANNELS, MAX_BLOCK &gt;</title>
<!-- Node1 -->
<g id="node1" class="node">
<title>Node1</title>
<g id="a_node1"><a xlink:title="Super simple wrapper for the hiir up and down samplers It only goes up to 4x oversampling Its type is...">
<polygon fill="#bfbfbf" stroke="black" points="542.5,-0.5 542.5,-178.5 712.5,-178.5 712.5,-0.5 542.5,-0.5"/>
<text text-anchor="start" x="550.5" y="-166.5" font-family="Helvetica,sans-Serif" font-size="10.00">tklb::Oversampler&lt;</text>
<text text-anchor="middle" x="627.5" y="-155.5" font-family="Helvetica,sans-Serif" font-size="10.00"> CHANNELS, MAX_BLOCK &gt;</text>
<polyline fill="none" stroke="black" points="542.5,-148.5 712.5,-148.5 "/>
<text text-anchor="middle" x="627.5" y="-136.5" font-family="Helvetica,sans-Serif" font-size="10.00"> </text>
<polyline fill="none" stroke="black" points="542.5,-129.5 712.5,-129.5 "/>
<text text-anchor="start" x="550.5" y="-117.5" font-family="Helvetica,sans-Serif" font-size="10.00">+ Oversampler()</text>
<text text-anchor="start" x="550.5" y="-106.5" font-family="Helvetica,sans-Serif" font-size="10.00">+ setProcessFunc()</text>
<text text-anchor="start" x="550.5" y="-95.5" font-family="Helvetica,sans-Serif" font-size="10.00">+ setFactor()</text>
<text text-anchor="start" x="550.5" y="-84.5" font-family="Helvetica,sans-Serif" font-size="10.00">+ getFactor()</text>
<text text-anchor="start" x="550.5" y="-73.5" font-family="Helvetica,sans-Serif" font-size="10.00">+ process()</text>
<text text-anchor="start" x="550.5" y="-62.5" font-family="Helvetica,sans-Serif" font-size="10.00">+ process()</text>
<text text-anchor="start" x="550.5" y="-51.5" font-family="Helvetica,sans-Serif" font-size="10.00">+ getLicense()</text>
<text text-anchor="start" x="550.5" y="-40.5" font-family="Helvetica,sans-Serif" font-size="10.00">&#45; TKLB_OVERSAMPLER_UP()</text>
<text text-anchor="start" x="550.5" y="-29.5" font-family="Helvetica,sans-Serif" font-size="10.00">&#45; TKLB_OVERSAMPLER_UP()</text>
<text text-anchor="start" x="550.5" y="-18.5" font-family="Helvetica,sans-Serif" font-size="10.00">&#45; TKLB_OVERSAMPLER_DOWN()</text>
<text text-anchor="start" x="550.5" y="-7.5" font-family="Helvetica,sans-Serif" font-size="10.00">&#45; TKLB_OVERSAMPLER_DOWN()</text>
</a>
</g>
</g>
<!-- Node2 -->
<g id="node2" class="node">
<title>Node2</title>
<g id="a_node2"><a xlink:href="classtklb_1_1_audio_buffer_tpl.html" target="_top" xlink:title=" ">
<polygon fill="none" stroke="black" points="414.5,-259.5 414.5,-514.5 546.5,-514.5 546.5,-259.5 414.5,-259.5"/>
<text text-anchor="start" x="422.5" y="-502.5" font-family="Helvetica,sans-Serif" font-size="10.00">tklb::AudioBufferTpl</text>
<text text-anchor="middle" x="480.5" y="-491.5" font-family="Helvetica,sans-Serif" font-size="10.00">&lt; double &gt;</text>
<polyline fill="none" stroke="black" points="414.5,-484.5 546.5,-484.5 "/>
<text text-anchor="start" x="422.5" y="-472.5" font-family="Helvetica,sans-Serif" font-size="10.00">+ sampleRate</text>
<text text-anchor="start" x="422.5" y="-461.5" font-family="Helvetica,sans-Serif" font-size="10.00">+ Stride</text>
<text text-anchor="start" x="422.5" y="-450.5" font-family="Helvetica,sans-Serif" font-size="10.00">&#45; mBuffer</text>
<text text-anchor="start" x="422.5" y="-439.5" font-family="Helvetica,sans-Serif" font-size="10.00">&#45; mValidSize</text>
<text text-anchor="start" x="422.5" y="-428.5" font-family="Helvetica,sans-Serif" font-size="10.00">&#45; mChannels</text>
<polyline fill="none" stroke="black" points="414.5,-421.5 546.5,-421.5 "/>
<text text-anchor="start" x="422.5" y="-409.5" font-family="Helvetica,sans-Serif" font-size="10.00">+ AudioBufferTpl()</text>
<text text-anchor="start" x="422.5" y="-398.5" font-family="Helvetica,sans-Serif" font-size="10.00">+ AudioBufferTpl()</text>
<text text-anchor="start" x="422.5" y="-387.5" font-family="Helvetica,sans-Serif" font-size="10.00">+ AudioBufferTpl()</text>
<text text-anchor="start" x="422.5" y="-376.5" font-family="Helvetica,sans-Serif" font-size="10.00">+ AudioBufferTpl()</text>
<text text-anchor="start" x="422.5" y="-365.5" font-family="Helvetica,sans-Serif" font-size="10.00">+ AudioBufferTpl()</text>
<text text-anchor="start" x="422.5" y="-354.5" font-family="Helvetica,sans-Serif" font-size="10.00">+ ~AudioBufferTpl()</text>
<text text-anchor="start" x="422.5" y="-343.5" font-family="Helvetica,sans-Serif" font-size="10.00">+ operator=()</text>
<text text-anchor="start" x="422.5" y="-332.5" font-family="Helvetica,sans-Serif" font-size="10.00">+ operator=()</text>
<text text-anchor="start" x="422.5" y="-321.5" font-family="Helvetica,sans-Serif" font-size="10.00">+ set()</text>
<text text-anchor="start" x="422.5" y="-310.5" font-family="Helvetica,sans-Serif" font-size="10.00">+ set()</text>
<text text-anchor="start" x="422.5" y="-299.5" font-family="Helvetica,sans-Serif" font-size="10.00">and 26 more...</text>
<text text-anchor="start" x="422.5" y="-288.5" font-family="Helvetica,sans-Serif" font-size="10.00">+ needsScaling()</text>
<text text-anchor="start" x="422.5" y="-277.5" font-family="Helvetica,sans-Serif" font-size="10.00">+ getConversionScale()</text>
<text text-anchor="start" x="422.5" y="-266.5" font-family="Helvetica,sans-Serif" font-size="10.00">&#45; assertOnConstMem()</text>
</a>
</g>
</g>
<!-- Node2&#45;&gt;Node1 -->
<g id="edge1" class="edge">
<title>Node2&#45;&gt;Node1</title>
<path fill="none" stroke="#404040" d="M485.31,-259.04C489.62,-237.49 496.31,-215.97 506.5,-197 513.66,-183.67 523.19,-171.23 533.77,-159.88"/>
<polygon fill="none" stroke="#404040" points="534.05,-159.59 535.39,-152.51 542.45,-151.03 541.11,-158.11 534.05,-159.59"/>
<text text-anchor="middle" x="543" y="-233" font-family="Helvetica,sans-Serif" font-size="10.00"> &#45;mBuf2xDown</text>
<text text-anchor="middle" x="543" y="-222" font-family="Helvetica,sans-Serif" font-size="10.00">&#45;mBuf2xUp</text>
<text text-anchor="middle" x="543" y="-211" font-family="Helvetica,sans-Serif" font-size="10.00">&#45;mBuf4xDown</text>
<text text-anchor="middle" x="543" y="-200" font-family="Helvetica,sans-Serif" font-size="10.00">&#45;mBuf4xUp</text>
</g>
<!-- Node3 -->
<g id="node3" class="node">
<title>Node3</title>
<g id="a_node3"><a xlink:href="classtklb_1_1_audio_buffer_tpl.html" target="_top" xlink:title="Class for handling the most basic audio needs.">
<polygon fill="none" stroke="black" points="325.5,-562.5 325.5,-773.5 457.5,-773.5 457.5,-562.5 325.5,-562.5"/>
<text text-anchor="start" x="333.5" y="-761.5" font-family="Helvetica,sans-Serif" font-size="10.00">tklb::AudioBufferTpl</text>
<text text-anchor="middle" x="391.5" y="-750.5" font-family="Helvetica,sans-Serif" font-size="10.00">&lt; T, STORAGE &gt;</text>
<polyline fill="none" stroke="black" points="325.5,-743.5 457.5,-743.5 "/>
<text text-anchor="middle" x="391.5" y="-731.5" font-family="Helvetica,sans-Serif" font-size="10.00"> </text>
<polyline fill="none" stroke="black" points="325.5,-724.5 457.5,-724.5 "/>
<text text-anchor="start" x="333.5" y="-712.5" font-family="Helvetica,sans-Serif" font-size="10.00">+ AudioBufferTpl()</text>
<text text-anchor="start" x="333.5" y="-701.5" font-family="Helvetica,sans-Serif" font-size="10.00">+ AudioBufferTpl()</text>
<text text-anchor="start" x="333.5" y="-690.5" font-family="Helvetica,sans-Serif" font-size="10.00">+ ~AudioBufferTpl()</text>
<text text-anchor="start" x="333.5" y="-679.5" font-family="Helvetica,sans-Serif" font-size="10.00">+ AudioBufferTpl()</text>
<text text-anchor="start" x="333.5" y="-668.5" font-family="Helvetica,sans-Serif" font-size="10.00">+ operator=()</text>
<text text-anchor="start" x="333.5" y="-657.5" font-family="Helvetica,sans-Serif" font-size="10.00">+ operator=()</text>
<text text-anchor="start" x="333.5" y="-646.5" font-family="Helvetica,sans-Serif" font-size="10.00">+ AudioBufferTpl()</text>
<text text-anchor="start" x="333.5" y="-635.5" font-family="Helvetica,sans-Serif" font-size="10.00">+ AudioBufferTpl()</text>
<text text-anchor="start" x="333.5" y="-624.5" font-family="Helvetica,sans-Serif" font-size="10.00">+ set()</text>
<text text-anchor="start" x="333.5" y="-613.5" font-family="Helvetica,sans-Serif" font-size="10.00">+ set()</text>
<text text-anchor="start" x="333.5" y="-602.5" font-family="Helvetica,sans-Serif" font-size="10.00">and 26 more...</text>
<text text-anchor="start" x="333.5" y="-591.5" font-family="Helvetica,sans-Serif" font-size="10.00">+ needsScaling()</text>
<text text-anchor="start" x="333.5" y="-580.5" font-family="Helvetica,sans-Serif" font-size="10.00">+ getConversionScale()</text>
<text text-anchor="start" x="333.5" y="-569.5" font-family="Helvetica,sans-Serif" font-size="10.00">&#45; assertOnConstMem()</text>
</a>
</g>
</g>
<!-- Node3&#45;&gt;Node2 -->
<g id="edge2" class="edge">
<title>Node3&#45;&gt;Node2</title>
<path fill="none" stroke="orange" d="M428.04,-552.46C431.99,-540.08 436.02,-527.44 440.01,-514.93"/>
<polygon fill="orange" stroke="orange" points="424.6,-551.73 424.89,-562.32 431.27,-553.85 424.6,-551.73"/>
<text text-anchor="middle" x="463" y="-536" font-family="Helvetica,sans-Serif" font-size="10.00"> &lt; double &gt;</text>
</g>
<!-- Node4 -->
<g id="node4" class="node">
<title>Node4</title>
<g id="a_node4"><a xlink:title=" ">
<polygon fill="none" stroke="#bfbfbf" points="301.5,-926 301.5,-983 419.5,-983 419.5,-926 301.5,-926"/>
<text text-anchor="middle" x="360.5" y="-971" font-family="Helvetica,sans-Serif" font-size="10.00">static constexpr Size</text>
<polyline fill="none" stroke="#bfbfbf" points="301.5,-964 419.5,-964 "/>
<text text-anchor="middle" x="360.5" y="-952" font-family="Helvetica,sans-Serif" font-size="10.00"> </text>
<polyline fill="none" stroke="#bfbfbf" points="301.5,-945 419.5,-945 "/>
<text text-anchor="middle" x="360.5" y="-933" font-family="Helvetica,sans-Serif" font-size="10.00"> </text>
</a>
</g>
</g>
<!-- Node4&#45;&gt;Node3 -->
<g id="edge3" class="edge">
<title>Node4&#45;&gt;Node3</title>
<path fill="none" stroke="#404040" d="M358.73,-925.94C357.11,-893.69 355.73,-838.75 361.5,-792 361.75,-789.94 362.03,-787.86 362.33,-785.77"/>
<polygon fill="none" stroke="#404040" points="362.36,-785.56 359.35,-779.01 364.23,-773.71 367.25,-780.26 362.36,-785.56"/>
<text text-anchor="middle" x="381.5" y="-795" font-family="Helvetica,sans-Serif" font-size="10.00"> +Stride</text>
</g>
<!-- Node5 -->
<g id="node5" class="node">
<title>Node5</title>
<g id="a_node5"><a xlink:href="classtklb_1_1_heap_buffer.html" target="_top" xlink:title=" ">
<polygon fill="none" stroke="black" points="93,-821.5 93,-1087.5 228,-1087.5 228,-821.5 93,-821.5"/>
<text text-anchor="start" x="101" y="-1075.5" font-family="Helvetica,sans-Serif" font-size="10.00">tklb::HeapBuffer&lt; T,</text>
<text text-anchor="middle" x="160.5" y="-1064.5" font-family="Helvetica,sans-Serif" font-size="10.00"> DEFAULT_ALIGNMENT &gt;</text>
<polyline fill="none" stroke="black" points="93,-1057.5 228,-1057.5 "/>
<text text-anchor="start" x="101" y="-1045.5" font-family="Helvetica,sans-Serif" font-size="10.00">+ Alignment</text>
<text text-anchor="start" x="101" y="-1034.5" font-family="Helvetica,sans-Serif" font-size="10.00">+ ChunkSize</text>
<text text-anchor="start" x="101" y="-1023.5" font-family="Helvetica,sans-Serif" font-size="10.00">&#45; mAllocator</text>
<text text-anchor="start" x="101" y="-1012.5" font-family="Helvetica,sans-Serif" font-size="10.00">&#45; mBuf</text>
<text text-anchor="start" x="101" y="-1001.5" font-family="Helvetica,sans-Serif" font-size="10.00">&#45; mSize</text>
<text text-anchor="start" x="101" y="-990.5" font-family="Helvetica,sans-Serif" font-size="10.00">&#45; mRealSize</text>
<polyline fill="none" stroke="black" points="93,-983.5 228,-983.5 "/>
<text text-anchor="start" x="101" y="-971.5" font-family="Helvetica,sans-Serif" font-size="10.00">+ HeapBuffer()</text>
<text text-anchor="start" x="101" y="-960.5" font-family="Helvetica,sans-Serif" font-size="10.00">+ HeapBuffer()</text>
<text text-anchor="start" x="101" y="-949.5" font-family="Helvetica,sans-Serif" font-size="10.00">+ HeapBuffer()</text>
<text text-anchor="start" x="101" y="-938.5" font-family="Helvetica,sans-Serif" font-size="10.00">+ HeapBuffer()</text>
<text text-anchor="start" x="101" y="-927.5" font-family="Helvetica,sans-Serif" font-size="10.00">+ HeapBuffer()</text>
<text text-anchor="start" x="101" y="-916.5" font-family="Helvetica,sans-Serif" font-size="10.00">+ HeapBuffer()</text>
<text text-anchor="start" x="101" y="-905.5" font-family="Helvetica,sans-Serif" font-size="10.00">+ operator=()</text>
<text text-anchor="start" x="101" y="-894.5" font-family="Helvetica,sans-Serif" font-size="10.00">+ operator=()</text>
<text text-anchor="start" x="101" y="-883.5" font-family="Helvetica,sans-Serif" font-size="10.00">+ ~HeapBuffer()</text>
<text text-anchor="start" x="101" y="-872.5" font-family="Helvetica,sans-Serif" font-size="10.00">+ set()</text>
<text text-anchor="start" x="101" y="-861.5" font-family="Helvetica,sans-Serif" font-size="10.00">and 28 more...</text>
<text text-anchor="start" x="101" y="-850.5" font-family="Helvetica,sans-Serif" font-size="10.00">+ closestChunkSize()</text>
<text text-anchor="start" x="101" y="-839.5" font-family="Helvetica,sans-Serif" font-size="10.00">+ isAligned()</text>
<text text-anchor="start" x="101" y="-828.5" font-family="Helvetica,sans-Serif" font-size="10.00">&#45; allocate()</text>
</a>
</g>
</g>
<!-- Node5&#45;&gt;Node3 -->
<g id="edge4" class="edge">
<title>Node5&#45;&gt;Node3</title>
<path fill="none" stroke="#404040" d="M221.63,-821.5C228.16,-811.18 235.13,-801.2 242.5,-792 263.32,-766 290.41,-741.66 315.78,-721.61"/>
<polygon fill="none" stroke="#404040" points="315.92,-721.5 318.2,-714.66 325.4,-714.14 323.11,-720.98 315.92,-721.5"/>
<text text-anchor="middle" x="266" y="-795" font-family="Helvetica,sans-Serif" font-size="10.00"> &#45;mBuffer</text>
</g>
<!-- Node6 -->
<g id="node6" class="node">
<title>Node6</title>
<g id="a_node6"><a xlink:href="classtklb_1_1_heap_buffer.html" target="_top" xlink:title="Basically a bad std::vector without exceptions which can also work with foreign memory.">
<polygon fill="none" stroke="black" points="89,-1135.5 89,-1357.5 232,-1357.5 232,-1135.5 89,-1135.5"/>
<text text-anchor="start" x="97" y="-1345.5" font-family="Helvetica,sans-Serif" font-size="10.00">tklb::HeapBuffer&lt; T,</text>
<text text-anchor="start" x="97" y="-1334.5" font-family="Helvetica,sans-Serif" font-size="10.00"> ALIGNMENT, ALLOCATOR,</text>
<text text-anchor="middle" x="160.5" y="-1323.5" font-family="Helvetica,sans-Serif" font-size="10.00"> SIZE &gt;</text>
<polyline fill="none" stroke="black" points="89,-1316.5 232,-1316.5 "/>
<text text-anchor="middle" x="160.5" y="-1304.5" font-family="Helvetica,sans-Serif" font-size="10.00"> </text>
<polyline fill="none" stroke="black" points="89,-1297.5 232,-1297.5 "/>
<text text-anchor="start" x="97" y="-1285.5" font-family="Helvetica,sans-Serif" font-size="10.00">+ HeapBuffer()</text>
<text text-anchor="start" x="97" y="-1274.5" font-family="Helvetica,sans-Serif" font-size="10.00">+ HeapBuffer()</text>
<text text-anchor="start" x="97" y="-1263.5" font-family="Helvetica,sans-Serif" font-size="10.00">+ HeapBuffer()</text>
<text text-anchor="start" x="97" y="-1252.5" font-family="Helvetica,sans-Serif" font-size="10.00">+ HeapBuffer()</text>
<text text-anchor="start" x="97" y="-1241.5" font-family="Helvetica,sans-Serif" font-size="10.00">+ HeapBuffer()</text>
<text text-anchor="start" x="97" y="-1230.5" font-family="Helvetica,sans-Serif" font-size="10.00">+ operator=()</text>
<text text-anchor="start" x="97" y="-1219.5" font-family="Helvetica,sans-Serif" font-size="10.00">+ operator=()</text>
<text text-anchor="start" x="97" y="-1208.5" font-family="Helvetica,sans-Serif" font-size="10.00">+ HeapBuffer()</text>
<text text-anchor="start" x="97" y="-1197.5" font-family="Helvetica,sans-Serif" font-size="10.00">+ ~HeapBuffer()</text>
<text text-anchor="start" x="97" y="-1186.5" font-family="Helvetica,sans-Serif" font-size="10.00">+ set()</text>
<text text-anchor="start" x="97" y="-1175.5" font-family="Helvetica,sans-Serif" font-size="10.00">and 28 more...</text>
<text text-anchor="start" x="97" y="-1164.5" font-family="Helvetica,sans-Serif" font-size="10.00">+ closestChunkSize()</text>
<text text-anchor="start" x="97" y="-1153.5" font-family="Helvetica,sans-Serif" font-size="10.00">+ isAligned()</text>
<text text-anchor="start" x="97" y="-1142.5" font-family="Helvetica,sans-Serif" font-size="10.00">&#45; allocate()</text>
</a>
</g>
</g>
<!-- Node6&#45;&gt;Node5 -->
<g id="edge5" class="edge">
<title>Node6&#45;&gt;Node5</title>
<path fill="none" stroke="orange" d="M160.5,-1125.18C160.5,-1112.87 160.5,-1100.32 160.5,-1087.89"/>
<polygon fill="orange" stroke="orange" points="157,-1125.45 160.5,-1135.45 164,-1125.45 157,-1125.45"/>
<text text-anchor="middle" x="231.5" y="-1109" font-family="Helvetica,sans-Serif" font-size="10.00"> &lt; T, DEFAULT_ALIGNMENT &gt;</text>
</g>
<!-- Node7 -->
<g id="node7" class="node">
<title>Node7</title>
<g id="a_node7"><a xlink:title=" ">
<polygon fill="none" stroke="#bfbfbf" points="0,-1444 0,-1501 45,-1501 45,-1444 0,-1444"/>
<text text-anchor="middle" x="22.5" y="-1489" font-family="Helvetica,sans-Serif" font-size="10.00">size_t</text>
<polyline fill="none" stroke="#bfbfbf" points="0,-1482 45,-1482 "/>
<text text-anchor="middle" x="22.5" y="-1470" font-family="Helvetica,sans-Serif" font-size="10.00"> </text>
<polyline fill="none" stroke="#bfbfbf" points="0,-1463 45,-1463 "/>
<text text-anchor="middle" x="22.5" y="-1451" font-family="Helvetica,sans-Serif" font-size="10.00"> </text>
</a>
</g>
</g>
<!-- Node7&#45;&gt;Node6 -->
<g id="edge6" class="edge">
<title>Node7&#45;&gt;Node6</title>
<path fill="none" stroke="#404040" d="M28.57,-1443.61C33.55,-1423.93 41.71,-1397.37 53.5,-1376 61.46,-1361.58 71.14,-1347.24 81.39,-1333.65"/>
<polygon fill="none" stroke="#404040" points="81.6,-1333.39 82.11,-1326.2 88.95,-1323.9 88.44,-1331.1 81.6,-1333.39"/>
<text text-anchor="middle" x="84.5" y="-1390" font-family="Helvetica,sans-Serif" font-size="10.00"> +Alignment</text>
<text text-anchor="middle" x="84.5" y="-1379" font-family="Helvetica,sans-Serif" font-size="10.00">+ChunkSize</text>
</g>
<!-- Node8 -->
<g id="node8" class="node">
<title>Node8</title>
<g id="a_node8"><a xlink:href="structtklb_1_1_std_allocator.html" target="_top" xlink:title=" ">
<polygon fill="none" stroke="black" points="63,-1416.5 63,-1528.5 170,-1528.5 170,-1416.5 63,-1416.5"/>
<text text-anchor="start" x="71" y="-1516.5" font-family="Helvetica,sans-Serif" font-size="10.00">tklb::StdAllocator</text>
<text text-anchor="middle" x="116.5" y="-1505.5" font-family="Helvetica,sans-Serif" font-size="10.00">&lt; unsigned char &gt;</text>
<polyline fill="none" stroke="black" points="63,-1498.5 170,-1498.5 "/>
<text text-anchor="middle" x="116.5" y="-1486.5" font-family="Helvetica,sans-Serif" font-size="10.00"> </text>
<polyline fill="none" stroke="black" points="63,-1479.5 170,-1479.5 "/>
<text text-anchor="start" x="71" y="-1467.5" font-family="Helvetica,sans-Serif" font-size="10.00">+ StdAllocator()</text>
<text text-anchor="start" x="71" y="-1456.5" font-family="Helvetica,sans-Serif" font-size="10.00">+ StdAllocator()</text>
<text text-anchor="start" x="71" y="-1445.5" font-family="Helvetica,sans-Serif" font-size="10.00">+ StdAllocator()</text>
<text text-anchor="start" x="71" y="-1434.5" font-family="Helvetica,sans-Serif" font-size="10.00">+ allocate()</text>
<text text-anchor="start" x="71" y="-1423.5" font-family="Helvetica,sans-Serif" font-size="10.00">+ deallocate()</text>
</a>
</g>
</g>
<!-- Node8&#45;&gt;Node6 -->
<g id="edge7" class="edge">
<title>Node8&#45;&gt;Node6</title>
<path fill="none" stroke="#404040" d="M117.1,-1416.45C117.88,-1403.14 119.22,-1389 121.5,-1376 121.86,-1373.95 122.24,-1371.88 122.64,-1369.81"/>
<polygon fill="none" stroke="#404040" points="122.69,-1369.58 120.01,-1362.88 125.16,-1357.83 127.84,-1364.53 122.69,-1369.58"/>
<text text-anchor="middle" x="152" y="-1384.5" font-family="Helvetica,sans-Serif" font-size="10.00"> &#45;mAllocator</text>
</g>
<!-- Node9 -->
<g id="node9" class="node">
<title>Node9</title>
<g id="a_node9"><a xlink:href="structtklb_1_1_std_allocator.html" target="_top" xlink:title=" ">
<polygon fill="none" stroke="black" points="52,-1576.5 52,-1677.5 181,-1677.5 181,-1576.5 52,-1576.5"/>
<text text-anchor="middle" x="116.5" y="-1665.5" font-family="Helvetica,sans-Serif" font-size="10.00">tklb::StdAllocator&lt; T &gt;</text>
<polyline fill="none" stroke="black" points="52,-1658.5 181,-1658.5 "/>
<text text-anchor="middle" x="116.5" y="-1646.5" font-family="Helvetica,sans-Serif" font-size="10.00"> </text>
<polyline fill="none" stroke="black" points="52,-1639.5 181,-1639.5 "/>
<text text-anchor="start" x="60" y="-1627.5" font-family="Helvetica,sans-Serif" font-size="10.00">+ StdAllocator()</text>
<text text-anchor="start" x="60" y="-1616.5" font-family="Helvetica,sans-Serif" font-size="10.00">+ StdAllocator()</text>
<text text-anchor="start" x="60" y="-1605.5" font-family="Helvetica,sans-Serif" font-size="10.00">+ StdAllocator()</text>
<text text-anchor="start" x="60" y="-1594.5" font-family="Helvetica,sans-Serif" font-size="10.00">+ allocate()</text>
<text text-anchor="start" x="60" y="-1583.5" font-family="Helvetica,sans-Serif" font-size="10.00">+ deallocate()</text>
</a>
</g>
</g>
<!-- Node9&#45;&gt;Node8 -->
<g id="edge8" class="edge">
<title>Node9&#45;&gt;Node8</title>
<path fill="none" stroke="orange" d="M116.5,-1566.24C116.5,-1553.83 116.5,-1540.8 116.5,-1528.57"/>
<polygon fill="orange" stroke="orange" points="113,-1566.49 116.5,-1576.49 120,-1566.49 113,-1566.49"/>
<text text-anchor="middle" x="163.5" y="-1550" font-family="Helvetica,sans-Serif" font-size="10.00"> &lt; unsigned char &gt;</text>
</g>
<!-- Node10 -->
<g id="node10" class="node">
<title>Node10</title>
<g id="a_node10"><a xlink:title=" ">
<polygon fill="none" stroke="#bfbfbf" points="188,-1444 188,-1501 219,-1501 219,-1444 188,-1444"/>
<text text-anchor="middle" x="203.5" y="-1489" font-family="Helvetica,sans-Serif" font-size="10.00">T *</text>
<polyline fill="none" stroke="#bfbfbf" points="188,-1482 219,-1482 "/>
<text text-anchor="middle" x="203.5" y="-1470" font-family="Helvetica,sans-Serif" font-size="10.00"> </text>
<polyline fill="none" stroke="#bfbfbf" points="188,-1463 219,-1463 "/>
<text text-anchor="middle" x="203.5" y="-1451" font-family="Helvetica,sans-Serif" font-size="10.00"> </text>
</a>
</g>
</g>
<!-- Node10&#45;&gt;Node6 -->
<g id="edge9" class="edge">
<title>Node10&#45;&gt;Node6</title>
<path fill="none" stroke="#404040" d="M198.14,-1443.58C194.46,-1424.39 189.28,-1397.44 183.95,-1369.65"/>
<polygon fill="none" stroke="#404040" points="183.92,-1369.49 178.86,-1364.36 181.66,-1357.71 186.72,-1362.85 183.92,-1369.49"/>
<text text-anchor="middle" x="205.5" y="-1384.5" font-family="Helvetica,sans-Serif" font-size="10.00"> &#45;mBuf</text>
</g>
<!-- Node11 -->
<g id="node11" class="node">
<title>Node11</title>
<g id="a_node11"><a xlink:title=" ">
<polygon fill="none" stroke="#bfbfbf" points="237,-1444 237,-1501 314,-1501 314,-1444 237,-1444"/>
<text text-anchor="middle" x="275.5" y="-1489" font-family="Helvetica,sans-Serif" font-size="10.00">unsigned int</text>
<polyline fill="none" stroke="#bfbfbf" points="237,-1482 314,-1482 "/>
<text text-anchor="middle" x="275.5" y="-1470" font-family="Helvetica,sans-Serif" font-size="10.00"> </text>
<polyline fill="none" stroke="#bfbfbf" points="237,-1463 314,-1463 "/>
<text text-anchor="middle" x="275.5" y="-1451" font-family="Helvetica,sans-Serif" font-size="10.00"> </text>
</a>
</g>
</g>
<!-- Node11&#45;&gt;Node6 -->
<g id="edge10" class="edge">
<title>Node11&#45;&gt;Node6</title>
<path fill="none" stroke="#404040" d="M261.35,-1443.92C251.57,-1424.84 238.24,-1398.88 226.5,-1376 225.2,-1373.46 223.88,-1370.89 222.55,-1368.3"/>
<polygon fill="none" stroke="#404040" points="222.51,-1368.23 216.21,-1364.72 217.03,-1357.55 223.33,-1361.06 222.51,-1368.23"/>
<text text-anchor="middle" x="267" y="-1390" font-family="Helvetica,sans-Serif" font-size="10.00"> &#45;mRealSize</text>
<text text-anchor="middle" x="267" y="-1379" font-family="Helvetica,sans-Serif" font-size="10.00">&#45;mSize</text>
</g>
<!-- Node12 -->
<g id="node12" class="node">
<title>Node12</title>
<g id="a_node12"><a xlink:title=" ">
<polygon fill="none" stroke="#bfbfbf" points="246,-926 246,-983 283,-983 283,-926 246,-926"/>
<text text-anchor="middle" x="264.5" y="-971" font-family="Helvetica,sans-Serif" font-size="10.00">Size</text>
<polyline fill="none" stroke="#bfbfbf" points="246,-964 283,-964 "/>
<text text-anchor="middle" x="264.5" y="-952" font-family="Helvetica,sans-Serif" font-size="10.00"> </text>
<polyline fill="none" stroke="#bfbfbf" points="246,-945 283,-945 "/>
<text text-anchor="middle" x="264.5" y="-933" font-family="Helvetica,sans-Serif" font-size="10.00"> </text>
</a>
</g>
</g>
<!-- Node12&#45;&gt;Node3 -->
<g id="edge11" class="edge">
<title>Node12&#45;&gt;Node3</title>
<path fill="none" stroke="#404040" d="M266.12,-925.75C268.92,-892.61 276.45,-836.11 296.5,-792 302.43,-778.95 309.99,-766.02 318.25,-753.72"/>
<polygon fill="none" stroke="#404040" points="318.48,-753.4 318.62,-746.19 325.33,-743.55 325.19,-750.76 318.48,-753.4"/>
<text text-anchor="middle" x="327" y="-795" font-family="Helvetica,sans-Serif" font-size="10.00"> &#45;mValidSize</text>
</g>
<!-- Node13 -->
<g id="node13" class="node">
<title>Node13</title>
<g id="a_node13"><a xlink:title=" ">
<polygon fill="none" stroke="#bfbfbf" points="548,-926 548,-983 633,-983 633,-926 548,-926"/>
<text text-anchor="middle" x="590.5" y="-971" font-family="Helvetica,sans-Serif" font-size="10.00">unsigned char</text>
<polyline fill="none" stroke="#bfbfbf" points="548,-964 633,-964 "/>
<text text-anchor="middle" x="590.5" y="-952" font-family="Helvetica,sans-Serif" font-size="10.00"> </text>
<polyline fill="none" stroke="#bfbfbf" points="548,-945 633,-945 "/>
<text text-anchor="middle" x="590.5" y="-933" font-family="Helvetica,sans-Serif" font-size="10.00"> </text>
</a>
</g>
</g>
<!-- Node13&#45;&gt;Node1 -->
<g id="edge15" class="edge">
<title>Node13&#45;&gt;Node1</title>
<path fill="none" stroke="#404040" d="M590.92,-925.69C592.46,-831.8 598.46,-517.94 613.5,-259 614.78,-236.89 616.53,-213.18 618.35,-190.73"/>
<polygon fill="none" stroke="#404040" points="618.35,-190.73 614.85,-184.42 619.33,-178.77 622.83,-185.07 618.35,-190.73"/>
<text text-anchor="middle" x="623.5" y="-536" font-family="Helvetica,sans-Serif" font-size="10.00"> &#45;mFactor</text>
</g>
<!-- Node13&#45;&gt;Node3 -->
<g id="edge12" class="edge">
<title>Node13&#45;&gt;Node3</title>
<path fill="none" stroke="#404040" d="M582.53,-925.81C573.7,-897.87 557.72,-854.23 535.5,-821 529.21,-811.6 525.38,-811.12 517.5,-803 500.84,-785.82 483.14,-767.22 466.43,-749.49"/>
<polygon fill="none" stroke="#404040" points="466.02,-749.06 458.99,-747.43 457.8,-740.32 464.82,-741.95 466.02,-749.06"/>
<text text-anchor="middle" x="548.5" y="-795" font-family="Helvetica,sans-Serif" font-size="10.00"> &#45;mChannels</text>
</g>
<!-- Node14 -->
<g id="node14" class="node">
<title>Node14</title>
<g id="a_node14"><a xlink:title=" ">
<polygon fill="none" stroke="#bfbfbf" points="438,-926 438,-983 527,-983 527,-926 438,-926"/>
<text text-anchor="middle" x="482.5" y="-971" font-family="Helvetica,sans-Serif" font-size="10.00">unsigned short</text>
<polyline fill="none" stroke="#bfbfbf" points="438,-964 527,-964 "/>
<text text-anchor="middle" x="482.5" y="-952" font-family="Helvetica,sans-Serif" font-size="10.00"> </text>
<polyline fill="none" stroke="#bfbfbf" points="438,-945 527,-945 "/>
<text text-anchor="middle" x="482.5" y="-933" font-family="Helvetica,sans-Serif" font-size="10.00"> </text>
</a>
</g>
</g>
<!-- Node14&#45;&gt;Node3 -->
<g id="edge13" class="edge">
<title>Node14&#45;&gt;Node3</title>
<path fill="none" stroke="#404040" d="M470.63,-925.86C458.08,-895.95 438.23,-846.67 424.5,-803 422.68,-797.22 420.9,-791.27 419.17,-785.25"/>
<polygon fill="none" stroke="#404040" points="419.14,-785.15 413.67,-780.46 415.9,-773.6 421.37,-778.3 419.14,-785.15"/>
<text text-anchor="middle" x="459.5" y="-795" font-family="Helvetica,sans-Serif" font-size="10.00"> +sampleRate</text>
</g>
<!-- Node15 -->
<g id="node15" class="node">
<title>Node15</title>
<g id="a_node15"><a xlink:title=" ">
<polygon fill="none" stroke="#bfbfbf" points="622,-358.5 622,-415.5 701,-415.5 701,-358.5 622,-358.5"/>
<text text-anchor="middle" x="661.5" y="-403.5" font-family="Helvetica,sans-Serif" font-size="10.00">const double</text>
<polyline fill="none" stroke="#bfbfbf" points="622,-396.5 701,-396.5 "/>
<text text-anchor="middle" x="661.5" y="-384.5" font-family="Helvetica,sans-Serif" font-size="10.00"> </text>
<polyline fill="none" stroke="#bfbfbf" points="622,-377.5 701,-377.5 "/>
<text text-anchor="middle" x="661.5" y="-365.5" font-family="Helvetica,sans-Serif" font-size="10.00"> </text>
</a>
</g>
</g>
<!-- Node15&#45;&gt;Node1 -->
<g id="edge14" class="edge">
<title>Node15&#45;&gt;Node1</title>
<path fill="none" stroke="#404040" d="M658.33,-358.47C653.96,-320.46 645.84,-249.93 639.04,-190.76"/>
<polygon fill="none" stroke="#404040" points="639.02,-190.63 634.36,-185.12 637.65,-178.71 642.31,-184.21 639.02,-190.63"/>
<text text-anchor="middle" x="669" y="-222" font-family="Helvetica,sans-Serif" font-size="10.00"> &#45;coeffs2x</text>
<text text-anchor="middle" x="669" y="-211" font-family="Helvetica,sans-Serif" font-size="10.00">&#45;coeffs4x</text>
</g>
<!-- Node16 -->
<g id="node16" class="node">
<title>Node16</title>
<g id="a_node16"><a xlink:title=" ">
<polygon fill="none" stroke="#bfbfbf" points="719,-353 719,-421 834,-421 834,-353 719,-353"/>
<text text-anchor="start" x="727" y="-409" font-family="Helvetica,sans-Serif" font-size="10.00">function&lt; void(T **,</text>
<text text-anchor="middle" x="776.5" y="-398" font-family="Helvetica,sans-Serif" font-size="10.00"> T **, Size)&gt;</text>
<polyline fill="none" stroke="#bfbfbf" points="719,-391 834,-391 "/>
<text text-anchor="middle" x="776.5" y="-379" font-family="Helvetica,sans-Serif" font-size="10.00"> </text>
<polyline fill="none" stroke="#bfbfbf" points="719,-372 834,-372 "/>
<text text-anchor="middle" x="776.5" y="-360" font-family="Helvetica,sans-Serif" font-size="10.00"> </text>
</a>
</g>
</g>
<!-- Node16&#45;&gt;Node1 -->
<g id="edge16" class="edge">
<title>Node16&#45;&gt;Node1</title>
<path fill="none" stroke="#404040" d="M764.73,-352.71C750.66,-314.28 725.47,-249.6 697.5,-197 696.14,-194.45 694.74,-191.87 693.3,-189.29"/>
<polygon fill="none" stroke="#404040" points="693.17,-189.07 686.72,-185.85 687.21,-178.66 693.66,-181.88 693.17,-189.07"/>
<text text-anchor="middle" x="735.5" y="-216.5" font-family="Helvetica,sans-Serif" font-size="10.00"> &#45;mProc</text>
</g>
</g>
</svg>
