<?xml version="1.0" encoding="UTF-8" standalone="no"?>
<!DOCTYPE svg PUBLIC "-//W3C//DTD SVG 1.1//EN"
 "http://www.w3.org/Graphics/SVG/1.1/DTD/svg11.dtd">
<!-- Generated by graphviz version 2.50.0 (0)
 -->
<!-- Title: tklb::AudioBufferTpl::set Pages: 1 -->
<svg width="486pt" height="154pt"
 viewBox="0.00 0.00 486.00 153.50" xmlns="http://www.w3.org/2000/svg" xmlns:xlink="http://www.w3.org/1999/xlink">
<g id="graph0" class="graph" transform="scale(1 1) rotate(0) translate(4 149.5)">
<title>tklb::AudioBufferTpl::set</title>
<!-- Node1 -->
<g id="node1" class="node">
<title>Node1</title>
<g id="a_node1"><a xlink:title="Set from another buffer object, will not adjust size and channel count! Use clone() instead.">
<polygon fill="#bfbfbf" stroke="black" points="0,-69 0,-88 135,-88 135,-69 0,-69"/>
<text text-anchor="middle" x="67.5" y="-76" font-family="Helvetica,sans-Serif" font-size="10.00">tklb::AudioBufferTpl::set</text>
</a>
</g>
</g>
<!-- Node2 -->
<g id="node2" class="node">
<title>Node2</title>
<g id="a_node2"><a xlink:href="classtklb_1_1_audio_buffer_tpl.html#a7859b26033cbb893c2ea7acea54d8013" target="_top" xlink:title="Returns the amount of channels.">
<polygon fill="none" stroke="black" points="181.5,-107.5 181.5,-137.5 295.5,-137.5 295.5,-107.5 181.5,-107.5"/>
<text text-anchor="start" x="189.5" y="-125.5" font-family="Helvetica,sans-Serif" font-size="10.00">tklb::AudioBufferTpl</text>
<text text-anchor="middle" x="238.5" y="-114.5" font-family="Helvetica,sans-Serif" font-size="10.00">::channels</text>
</a>
</g>
</g>
<!-- Node1&#45;&gt;Node2 -->
<g id="edge1" class="edge">
<title>Node1&#45;&gt;Node2</title>
<path fill="none" stroke="midnightblue" d="M105.17,-88.05C124.54,-93.09 148.9,-99.43 171.42,-105.3"/>
<polygon fill="midnightblue" stroke="midnightblue" points="170.72,-108.73 181.28,-107.86 172.49,-101.96 170.72,-108.73"/>
</g>
<!-- Node3 -->
<g id="node3" class="node">
<title>Node3</title>
<g id="a_node3"><a xlink:href="classtklb_1_1_audio_buffer_tpl.html#ab6e5250746ca3784a568591a3ffdbc12" target="_top" xlink:title="Set a single channel from an array.">
<polygon fill="none" stroke="black" points="171,-69 171,-88 306,-88 306,-69 171,-69"/>
<text text-anchor="middle" x="238.5" y="-76" font-family="Helvetica,sans-Serif" font-size="10.00">tklb::AudioBufferTpl::set</text>
</a>
</g>
</g>
<!-- Node1&#45;&gt;Node3 -->
<g id="edge2" class="edge">
<title>Node1&#45;&gt;Node3</title>
<path fill="none" stroke="midnightblue" d="M135.29,-78.5C143.62,-78.5 152.19,-78.5 160.66,-78.5"/>
<polygon fill="midnightblue" stroke="midnightblue" points="160.92,-82 170.92,-78.5 160.92,-75 160.92,-82"/>
</g>
<!-- Node8 -->
<g id="node8" class="node">
<title>Node8</title>
<g id="a_node8"><a xlink:href="classtklb_1_1_audio_buffer_tpl.html#a86cec40e8c99a90d93db996d92ddfece" target="_top" xlink:title="Returns the length of actually valid audio in the buffer.">
<polygon fill="none" stroke="black" points="181.5,-19.5 181.5,-49.5 295.5,-49.5 295.5,-19.5 181.5,-19.5"/>
<text text-anchor="start" x="189.5" y="-37.5" font-family="Helvetica,sans-Serif" font-size="10.00">tklb::AudioBufferTpl</text>
<text text-anchor="middle" x="238.5" y="-26.5" font-family="Helvetica,sans-Serif" font-size="10.00">::validSize</text>
</a>
</g>
</g>
<!-- Node1&#45;&gt;Node8 -->
<g id="edge7" class="edge">
<title>Node1&#45;&gt;Node8</title>
<path fill="none" stroke="midnightblue" d="M105.17,-68.95C124.54,-63.91 148.9,-57.57 171.42,-51.7"/>
<polygon fill="midnightblue" stroke="midnightblue" points="172.49,-55.04 181.28,-49.14 170.72,-48.27 172.49,-55.04"/>
</g>
<!-- Node4 -->
<g id="node4" class="node">
<title>Node4</title>
<g id="a_node4"><a xlink:href="namespacetklb_1_1memory.html#ab89ec197028f903f4ea125eae46c4a10" target="_top" xlink:title="memcpy wrapper">
<polygon fill="none" stroke="black" points="354,-126 354,-145 466,-145 466,-126 354,-126"/>
<text text-anchor="middle" x="410" y="-133" font-family="Helvetica,sans-Serif" font-size="10.00">tklb::memory::copy</text>
</a>
</g>
</g>
<!-- Node3&#45;&gt;Node4 -->
<g id="edge3" class="edge">
<title>Node3&#45;&gt;Node4</title>
<path fill="none" stroke="midnightblue" d="M275.43,-88.08C285.45,-91.08 296.25,-94.63 306,-98.5 322.63,-105.1 325.32,-110.03 342,-116.5 347.99,-118.82 354.38,-121 360.75,-122.99"/>
<polygon fill="midnightblue" stroke="midnightblue" points="360.09,-126.45 370.68,-125.97 362.1,-119.75 360.09,-126.45"/>
</g>
<!-- Node5 -->
<g id="node5" class="node">
<title>Node5</title>
<g id="a_node5"><a xlink:href="classtklb_1_1_audio_buffer_tpl.html#aee0540e90ae2790f9a809917bc5a04fd" target="_top" xlink:title=" ">
<polygon fill="none" stroke="black" points="342,-88 342,-107 478,-107 478,-88 342,-88"/>
<text text-anchor="middle" x="410" y="-95" font-family="Helvetica,sans-Serif" font-size="10.00">tklb::AudioBufferTpl::get</text>
</a>
</g>
</g>
<!-- Node3&#45;&gt;Node5 -->
<g id="edge4" class="edge">
<title>Node3&#45;&gt;Node5</title>
<path fill="none" stroke="midnightblue" d="M306,-85.95C314.47,-86.9 323.19,-87.88 331.81,-88.85"/>
<polygon fill="midnightblue" stroke="midnightblue" points="331.52,-92.34 341.85,-89.97 332.3,-85.38 331.52,-92.34"/>
</g>
<!-- Node6 -->
<g id="node6" class="node">
<title>Node6</title>
<g id="a_node6"><a xlink:href="namespacetklb.html#a3080595da18d742645ec41d61828a426" target="_top" xlink:title=" ">
<polygon fill="none" stroke="black" points="380,-50 380,-69 440,-69 440,-50 380,-50"/>
<text text-anchor="middle" x="410" y="-57" font-family="Helvetica,sans-Serif" font-size="10.00">tklb::min</text>
</a>
</g>
</g>
<!-- Node3&#45;&gt;Node6 -->
<g id="edge5" class="edge">
<title>Node3&#45;&gt;Node6</title>
<path fill="none" stroke="midnightblue" d="M306,-71.05C327.6,-68.62 350.86,-66.02 369.8,-63.89"/>
<polygon fill="midnightblue" stroke="midnightblue" points="370.29,-67.36 379.84,-62.77 369.51,-60.4 370.29,-67.36"/>
</g>
<!-- Node7 -->
<g id="node7" class="node">
<title>Node7</title>
<g id="a_node7"><a xlink:href="classtklb_1_1_audio_buffer_tpl.html#af6df8d7e6840eee3f84807bd1662c3ed" target="_top" xlink:title="Returns the allocated length of the buffer.">
<polygon fill="none" stroke="black" points="353,-0.5 353,-30.5 467,-30.5 467,-0.5 353,-0.5"/>
<text text-anchor="start" x="361" y="-18.5" font-family="Helvetica,sans-Serif" font-size="10.00">tklb::AudioBufferTpl</text>
<text text-anchor="middle" x="410" y="-7.5" font-family="Helvetica,sans-Serif" font-size="10.00">::size</text>
</a>
</g>
</g>
<!-- Node3&#45;&gt;Node7 -->
<g id="edge6" class="edge">
<title>Node3&#45;&gt;Node7</title>
<path fill="none" stroke="midnightblue" d="M277.94,-68.98C287.25,-66.28 297.09,-63.08 306,-59.5 322.79,-52.76 325.49,-47.9 342,-40.5 346.69,-38.4 351.62,-36.32 356.59,-34.31"/>
<polygon fill="midnightblue" stroke="midnightblue" points="358.11,-37.48 366.13,-30.56 355.55,-30.96 358.11,-37.48"/>
</g>
</g>
</svg>
