<?xml version="1.0" encoding="UTF-8" standalone="no"?>
<!DOCTYPE svg PUBLIC "-//W3C//DTD SVG 1.1//EN"
 "http://www.w3.org/Graphics/SVG/1.1/DTD/svg11.dtd">
<!-- Generated by graphviz version 2.50.0 (0)
 -->
<!-- Title: tklb::memory::MemoryPoolStd Pages: 1 -->
<svg width="374pt" height="794pt"
 viewBox="0.00 0.00 373.50 794.00" xmlns="http://www.w3.org/2000/svg" xmlns:xlink="http://www.w3.org/1999/xlink">
<g id="graph0" class="graph" transform="scale(1 1) rotate(0) translate(4 790)">
<title>tklb::memory::MemoryPoolStd</title>
<!-- Node1 -->
<g id="node1" class="node">
<title>Node1</title>
<g id="a_node1"><a xlink:title="Pool which proxies allocations to the stdlib.">
<polygon fill="#bfbfbf" stroke="black" points="142.5,-0.5 142.5,-101.5 307.5,-101.5 307.5,-0.5 142.5,-0.5"/>
<text text-anchor="middle" x="225" y="-89.5" font-family="Helvetica,sans-Serif" font-size="10.00">tklb::memory::MemoryPoolStd</text>
<polyline fill="none" stroke="black" points="142.5,-82.5 307.5,-82.5 "/>
<text text-anchor="middle" x="225" y="-70.5" font-family="Helvetica,sans-Serif" font-size="10.00"> </text>
<polyline fill="none" stroke="black" points="142.5,-63.5 307.5,-63.5 "/>
<text text-anchor="start" x="150.5" y="-51.5" font-family="Helvetica,sans-Serif" font-size="10.00">+ allocate()</text>
<text text-anchor="start" x="150.5" y="-40.5" font-family="Helvetica,sans-Serif" font-size="10.00">+ deallocate()</text>
<text text-anchor="start" x="150.5" y="-29.5" font-family="Helvetica,sans-Serif" font-size="10.00">+ reallocate()</text>
<text text-anchor="start" x="150.5" y="-18.5" font-family="Helvetica,sans-Serif" font-size="10.00">+ instance()</text>
<text text-anchor="start" x="150.5" y="-7.5" font-family="Helvetica,sans-Serif" font-size="10.00">&#45; MemoryPoolStd()</text>
</a>
</g>
</g>
<!-- Node2 -->
<g id="node2" class="node">
<title>Node2</title>
<g id="a_node2"><a xlink:href="classtklb_1_1memory_1_1_memory_pool.html" target="_top" xlink:title="Memory pool interface.">
<polygon fill="none" stroke="black" points="39.5,-149.5 39.5,-349.5 188.5,-349.5 188.5,-149.5 39.5,-149.5"/>
<text text-anchor="middle" x="114" y="-337.5" font-family="Helvetica,sans-Serif" font-size="10.00">tklb::memory::MemoryPool</text>
<polyline fill="none" stroke="black" points="39.5,-330.5 188.5,-330.5 "/>
<text text-anchor="middle" x="114" y="-318.5" font-family="Helvetica,sans-Serif" font-size="10.00"> </text>
<polyline fill="none" stroke="black" points="39.5,-311.5 188.5,-311.5 "/>
<text text-anchor="start" x="47.5" y="-299.5" font-family="Helvetica,sans-Serif" font-size="10.00">+ MemoryPool()</text>
<text text-anchor="start" x="47.5" y="-288.5" font-family="Helvetica,sans-Serif" font-size="10.00">+ ~MemoryPool()</text>
<text text-anchor="start" x="47.5" y="-277.5" font-family="Helvetica,sans-Serif" font-size="10.00">+ getAllocated()</text>
<text text-anchor="start" x="47.5" y="-266.5" font-family="Helvetica,sans-Serif" font-size="10.00">+ getTotalSize()</text>
<text text-anchor="start" x="47.5" y="-255.5" font-family="Helvetica,sans-Serif" font-size="10.00">+ allocate()</text>
<text text-anchor="start" x="47.5" y="-244.5" font-family="Helvetica,sans-Serif" font-size="10.00">+ deallocate()</text>
<text text-anchor="start" x="47.5" y="-233.5" font-family="Helvetica,sans-Serif" font-size="10.00">+ reallocate()</text>
<text text-anchor="start" x="47.5" y="-222.5" font-family="Helvetica,sans-Serif" font-size="10.00">+ clearallocate()</text>
<text text-anchor="start" x="47.5" y="-211.5" font-family="Helvetica,sans-Serif" font-size="10.00">+ create()</text>
<text text-anchor="start" x="47.5" y="-200.5" font-family="Helvetica,sans-Serif" font-size="10.00">+ createArray()</text>
<text text-anchor="start" x="47.5" y="-189.5" font-family="Helvetica,sans-Serif" font-size="10.00">+ dispose()</text>
<text text-anchor="start" x="47.5" y="-178.5" font-family="Helvetica,sans-Serif" font-size="10.00">+ disposeArray()</text>
<text text-anchor="start" x="47.5" y="-167.5" font-family="Helvetica,sans-Serif" font-size="10.00">+ deallocateAligned()</text>
<text text-anchor="start" x="47.5" y="-156.5" font-family="Helvetica,sans-Serif" font-size="10.00">+ allocateAligned()</text>
</a>
</g>
</g>
<!-- Node2&#45;&gt;Node1 -->
<g id="edge1" class="edge">
<title>Node2&#45;&gt;Node1</title>
<path fill="none" stroke="midnightblue" d="M175.03,-140.45C182.69,-126.9 190.21,-113.6 196.99,-101.59"/>
<polygon fill="none" stroke="midnightblue" points="171.86,-138.96 169.99,-149.39 177.95,-142.4 171.86,-138.96"/>
</g>
<!-- Node3 -->
<g id="node3" class="node">
<title>Node3</title>
<g id="a_node3"><a xlink:title=" ">
<polygon fill="none" stroke="#bfbfbf" points="0,-403 0,-460 118,-460 118,-403 0,-403"/>
<text text-anchor="middle" x="59" y="-448" font-family="Helvetica,sans-Serif" font-size="10.00">static constexpr Size</text>
<polyline fill="none" stroke="#bfbfbf" points="0,-441 118,-441 "/>
<text text-anchor="middle" x="59" y="-429" font-family="Helvetica,sans-Serif" font-size="10.00"> </text>
<polyline fill="none" stroke="#bfbfbf" points="0,-422 118,-422 "/>
<text text-anchor="middle" x="59" y="-410" font-family="Helvetica,sans-Serif" font-size="10.00"> </text>
</a>
</g>
</g>
<!-- Node3&#45;&gt;Node2 -->
<g id="edge2" class="edge">
<title>Node3&#45;&gt;Node2</title>
<path fill="none" stroke="#404040" d="M67.47,-402.77C71.03,-391.14 75.41,-376.79 80.06,-361.58"/>
<polygon fill="none" stroke="#404040" points="80.14,-361.3 78.07,-354.39 83.65,-349.82 85.72,-356.73 80.14,-361.3"/>
<text text-anchor="middle" x="121" y="-371" font-family="Helvetica,sans-Serif" font-size="10.00"> #DEFAULT_ALIGN</text>
</g>
<!-- Node4 -->
<g id="node4" class="node">
<title>Node4</title>
<g id="a_node4"><a xlink:href="structtklb_1_1memory_1_1_memory_pool_1_1_shared_pool.html" target="_top" xlink:title="Pools can share the same space, but use it differently.">
<polygon fill="none" stroke="black" points="136.5,-397.5 136.5,-465.5 285.5,-465.5 285.5,-397.5 136.5,-397.5"/>
<text text-anchor="start" x="144.5" y="-453.5" font-family="Helvetica,sans-Serif" font-size="10.00">tklb::memory::MemoryPool</text>
<text text-anchor="middle" x="211" y="-442.5" font-family="Helvetica,sans-Serif" font-size="10.00">::SharedPool</text>
<polyline fill="none" stroke="black" points="136.5,-435.5 285.5,-435.5 "/>
<text text-anchor="middle" x="211" y="-423.5" font-family="Helvetica,sans-Serif" font-size="10.00"> </text>
<polyline fill="none" stroke="black" points="136.5,-416.5 285.5,-416.5 "/>
<text text-anchor="middle" x="211" y="-404.5" font-family="Helvetica,sans-Serif" font-size="10.00"> </text>
</a>
</g>
</g>
<!-- Node4&#45;&gt;Node2 -->
<g id="edge3" class="edge">
<title>Node4&#45;&gt;Node2</title>
<path fill="none" stroke="#404040" d="M193.21,-397.49C187.34,-386.59 180.45,-373.81 173.23,-360.41"/>
<polygon fill="none" stroke="#404040" points="173.07,-360.11 166.7,-356.73 167.38,-349.55 173.74,-352.93 173.07,-360.11"/>
<text text-anchor="middle" x="204.5" y="-371" font-family="Helvetica,sans-Serif" font-size="10.00"> #mPool</text>
</g>
<!-- Node5 -->
<g id="node5" class="node">
<title>Node5</title>
<g id="a_node5"><a xlink:title=" ">
<polygon fill="none" stroke="#bfbfbf" points="92,-579.5 92,-636.5 150,-636.5 150,-579.5 92,-579.5"/>
<text text-anchor="middle" x="121" y="-624.5" font-family="Helvetica,sans-Serif" font-size="10.00">uintptr_t</text>
<polyline fill="none" stroke="#bfbfbf" points="92,-617.5 150,-617.5 "/>
<text text-anchor="middle" x="121" y="-605.5" font-family="Helvetica,sans-Serif" font-size="10.00"> </text>
<polyline fill="none" stroke="#bfbfbf" points="92,-598.5 150,-598.5 "/>
<text text-anchor="middle" x="121" y="-586.5" font-family="Helvetica,sans-Serif" font-size="10.00"> </text>
</a>
</g>
</g>
<!-- Node5&#45;&gt;Node4 -->
<g id="edge4" class="edge">
<title>Node5&#45;&gt;Node4</title>
<path fill="none" stroke="#404040" d="M122.57,-579.21C125.15,-552.97 131.98,-513.35 150,-484 151.97,-480.8 154.2,-477.69 156.63,-474.71"/>
<polygon fill="none" stroke="#404040" points="156.85,-474.46 157.92,-467.33 164.92,-465.57 163.84,-472.7 156.85,-474.46"/>
<text text-anchor="middle" x="178.5" y="-509" font-family="Helvetica,sans-Serif" font-size="10.00"> +allocated</text>
<text text-anchor="middle" x="178.5" y="-498" font-family="Helvetica,sans-Serif" font-size="10.00">+size</text>
<text text-anchor="middle" x="178.5" y="-487" font-family="Helvetica,sans-Serif" font-size="10.00">+users</text>
</g>
<!-- Node6 -->
<g id="node6" class="node">
<title>Node6</title>
<g id="a_node6"><a xlink:href="classtklb_1_1_spin_lock.html" target="_top" xlink:title="Spinlock ! probably not thread safe.">
<polygon fill="none" stroke="black" points="168.5,-535.5 168.5,-680.5 253.5,-680.5 253.5,-535.5 168.5,-535.5"/>
<text text-anchor="middle" x="211" y="-668.5" font-family="Helvetica,sans-Serif" font-size="10.00">tklb::SpinLock</text>
<polyline fill="none" stroke="black" points="168.5,-661.5 253.5,-661.5 "/>
<text text-anchor="middle" x="211" y="-649.5" font-family="Helvetica,sans-Serif" font-size="10.00"> </text>
<polyline fill="none" stroke="black" points="168.5,-642.5 253.5,-642.5 "/>
<text text-anchor="start" x="176.5" y="-630.5" font-family="Helvetica,sans-Serif" font-size="10.00">+ SpinLock()</text>
<text text-anchor="start" x="176.5" y="-619.5" font-family="Helvetica,sans-Serif" font-size="10.00">+ SpinLock()</text>
<text text-anchor="start" x="176.5" y="-608.5" font-family="Helvetica,sans-Serif" font-size="10.00">+ SpinLock()</text>
<text text-anchor="start" x="176.5" y="-597.5" font-family="Helvetica,sans-Serif" font-size="10.00">+ operator=()</text>
<text text-anchor="start" x="176.5" y="-586.5" font-family="Helvetica,sans-Serif" font-size="10.00">+ operator=()</text>
<text text-anchor="start" x="176.5" y="-575.5" font-family="Helvetica,sans-Serif" font-size="10.00">+ SpinLock()</text>
<text text-anchor="start" x="176.5" y="-564.5" font-family="Helvetica,sans-Serif" font-size="10.00">+ lock()</text>
<text text-anchor="start" x="176.5" y="-553.5" font-family="Helvetica,sans-Serif" font-size="10.00">+ unlock()</text>
<text text-anchor="start" x="176.5" y="-542.5" font-family="Helvetica,sans-Serif" font-size="10.00">+ try_lock()</text>
</a>
</g>
</g>
<!-- Node6&#45;&gt;Node4 -->
<g id="edge5" class="edge">
<title>Node6&#45;&gt;Node4</title>
<path fill="none" stroke="#404040" d="M211,-535.27C211,-515.9 211,-495.49 211,-478"/>
<polygon fill="none" stroke="#404040" points="211,-477.84 207,-471.84 211,-465.84 215,-471.84 211,-477.84"/>
<text text-anchor="middle" x="232.5" y="-498" font-family="Helvetica,sans-Serif" font-size="10.00"> +mutex</text>
</g>
<!-- Node7 -->
<g id="node7" class="node">
<title>Node7</title>
<g id="a_node7"><a xlink:title=" ">
<polygon fill="none" stroke="#bfbfbf" points="192,-728.5 192,-785.5 230,-785.5 230,-728.5 192,-728.5"/>
<text text-anchor="middle" x="211" y="-773.5" font-family="Helvetica,sans-Serif" font-size="10.00">bool</text>
<polyline fill="none" stroke="#bfbfbf" points="192,-766.5 230,-766.5 "/>
<text text-anchor="middle" x="211" y="-754.5" font-family="Helvetica,sans-Serif" font-size="10.00"> </text>
<polyline fill="none" stroke="#bfbfbf" points="192,-747.5 230,-747.5 "/>
<text text-anchor="middle" x="211" y="-735.5" font-family="Helvetica,sans-Serif" font-size="10.00"> </text>
</a>
</g>
</g>
<!-- Node7&#45;&gt;Node6 -->
<g id="edge6" class="edge">
<title>Node7&#45;&gt;Node6</title>
<path fill="none" stroke="#404040" d="M211,-728.35C211,-718.01 211,-705.66 211,-692.89"/>
<polygon fill="none" stroke="#404040" points="211,-692.56 207,-686.56 211,-680.56 215,-686.56 211,-692.56"/>
<text text-anchor="middle" x="241.5" y="-702" font-family="Helvetica,sans-Serif" font-size="10.00"> &#45;mSpinLock</text>
</g>
<!-- Node8 -->
<g id="node8" class="node">
<title>Node8</title>
<g id="a_node8"><a xlink:title=" ">
<polygon fill="none" stroke="#bfbfbf" points="271.5,-579.5 271.5,-636.5 356.5,-636.5 356.5,-579.5 271.5,-579.5"/>
<text text-anchor="middle" x="314" y="-624.5" font-family="Helvetica,sans-Serif" font-size="10.00">unsigned char</text>
<polyline fill="none" stroke="#bfbfbf" points="271.5,-617.5 356.5,-617.5 "/>
<text text-anchor="middle" x="314" y="-605.5" font-family="Helvetica,sans-Serif" font-size="10.00"> </text>
<polyline fill="none" stroke="#bfbfbf" points="271.5,-598.5 356.5,-598.5 "/>
<text text-anchor="middle" x="314" y="-586.5" font-family="Helvetica,sans-Serif" font-size="10.00"> </text>
</a>
</g>
</g>
<!-- Node8&#45;&gt;Node4 -->
<g id="edge7" class="edge">
<title>Node8&#45;&gt;Node4</title>
<path fill="none" stroke="#404040" d="M304.27,-579.34C294.55,-553.54 278.17,-514.55 258,-484 256,-480.97 253.82,-477.94 251.53,-474.95"/>
<polygon fill="none" stroke="#404040" points="251.51,-474.92 244.62,-472.79 243.94,-465.61 250.83,-467.74 251.51,-474.92"/>
<text text-anchor="middle" x="302.5" y="-498" font-family="Helvetica,sans-Serif" font-size="10.00"> +memory</text>
</g>
<!-- Node9 -->
<g id="node9" class="node">
<title>Node9</title>
<g id="a_node9"><a xlink:title=" ">
<polygon fill="none" stroke="#bfbfbf" points="206,-221 206,-278 244,-278 244,-221 206,-221"/>
<text text-anchor="middle" x="225" y="-266" font-family="Helvetica,sans-Serif" font-size="10.00">char</text>
<polyline fill="none" stroke="#bfbfbf" points="206,-259 244,-259 "/>
<text text-anchor="middle" x="225" y="-247" font-family="Helvetica,sans-Serif" font-size="10.00"> </text>
<polyline fill="none" stroke="#bfbfbf" points="206,-240 244,-240 "/>
<text text-anchor="middle" x="225" y="-228" font-family="Helvetica,sans-Serif" font-size="10.00"> </text>
</a>
</g>
</g>
<!-- Node9&#45;&gt;Node1 -->
<g id="edge8" class="edge">
<title>Node9&#45;&gt;Node1</title>
<path fill="none" stroke="#404040" d="M225,-220.76C225,-193.13 225,-149.77 225,-113.92"/>
<polygon fill="none" stroke="#404040" points="225,-113.59 221,-107.59 225,-101.59 229,-107.59 225,-113.59"/>
<text text-anchor="middle" x="263.5" y="-123" font-family="Helvetica,sans-Serif" font-size="10.00"> &#45;mDummyPool</text>
</g>
<!-- Node10 -->
<g id="node10" class="node">
<title>Node10</title>
<g id="a_node10"><a xlink:title=" ">
<polygon fill="none" stroke="#bfbfbf" points="284.5,-221 284.5,-278 365.5,-278 365.5,-221 284.5,-221"/>
<text text-anchor="middle" x="325" y="-266" font-family="Helvetica,sans-Serif" font-size="10.00">void *(*const</text>
<polyline fill="none" stroke="#bfbfbf" points="284.5,-259 365.5,-259 "/>
<text text-anchor="middle" x="325" y="-247" font-family="Helvetica,sans-Serif" font-size="10.00"> </text>
<polyline fill="none" stroke="#bfbfbf" points="284.5,-240 365.5,-240 "/>
<text text-anchor="middle" x="325" y="-228" font-family="Helvetica,sans-Serif" font-size="10.00"> </text>
</a>
</g>
</g>
<!-- Node10&#45;&gt;Node1 -->
<g id="edge9" class="edge">
<title>Node10&#45;&gt;Node1</title>
<path fill="none" stroke="#404040" d="M325.51,-220.91C324.87,-193.61 320.68,-151.48 303,-120 301.37,-117.09 299.56,-114.24 297.61,-111.47"/>
<polygon fill="none" stroke="#404040" points="297.39,-111.19 290.55,-108.93 290.01,-101.74 296.85,-104 297.39,-111.19"/>
<text text-anchor="middle" x="335.5" y="-123" font-family="Helvetica,sans-Serif" font-size="10.00"> &#45;mAllocate</text>
</g>
</g>
</svg>
