<?xml version="1.0" encoding="UTF-8" standalone="no"?>
<!DOCTYPE svg PUBLIC "-//W3C//DTD SVG 1.1//EN"
 "http://www.w3.org/Graphics/SVG/1.1/DTD/svg11.dtd">
<!-- Generated by graphviz version 2.50.0 (0)
 -->
<!-- Title: tklb::FFTOoura::back Pages: 1 -->
<svg width="468pt" height="203pt"
 viewBox="0.00 0.00 468.00 203.00" xmlns="http://www.w3.org/2000/svg" xmlns:xlink="http://www.w3.org/1999/xlink">
<g id="graph0" class="graph" transform="scale(1 1) rotate(0) translate(4 199)">
<title>tklb::FFTOoura::back</title>
<!-- Node1 -->
<g id="node1" class="node">
<title>Node1</title>
<g id="a_node1"><a xlink:title="Frequency domain back to time domain.">
<polygon fill="#bfbfbf" stroke="black" points="0,-50 0,-69 116,-69 116,-50 0,-50"/>
<text text-anchor="middle" x="58" y="-57" font-family="Helvetica,sans-Serif" font-size="10.00">tklb::FFTOoura::back</text>
</a>
</g>
</g>
<!-- Node2 -->
<g id="node2" class="node">
<title>Node2</title>
<g id="a_node2"><a xlink:href="classtklb_1_1_audio_buffer_tpl.html#a08517af96ac560ed4fc96db9c1c7c2b3" target="_top" xlink:title="Multiply two buffers.">
<polygon fill="none" stroke="black" points="163,-88.5 163,-118.5 277,-118.5 277,-88.5 163,-88.5"/>
<text text-anchor="start" x="171" y="-106.5" font-family="Helvetica,sans-Serif" font-size="10.00">tklb::AudioBufferTpl</text>
<text text-anchor="middle" x="220" y="-95.5" font-family="Helvetica,sans-Serif" font-size="10.00">::multiply</text>
</a>
</g>
</g>
<!-- Node1&#45;&gt;Node2 -->
<g id="edge1" class="edge">
<title>Node1&#45;&gt;Node2</title>
<path fill="none" stroke="midnightblue" d="M93.72,-69.05C111.49,-73.93 133.71,-80.05 154.48,-85.76"/>
<polygon fill="midnightblue" stroke="midnightblue" points="153.65,-89.16 164.22,-88.43 155.5,-82.41 153.65,-89.16"/>
</g>
<!-- Node6 -->
<g id="node6" class="node">
<title>Node6</title>
<g id="a_node6"><a xlink:href="classtklb_1_1_audio_buffer_tpl.html#a86cec40e8c99a90d93db996d92ddfece" target="_top" xlink:title="Returns the length of actually valid audio in the buffer.">
<polygon fill="none" stroke="black" points="335,-0.5 335,-30.5 449,-30.5 449,-0.5 335,-0.5"/>
<text text-anchor="start" x="343" y="-18.5" font-family="Helvetica,sans-Serif" font-size="10.00">tklb::AudioBufferTpl</text>
<text text-anchor="middle" x="392" y="-7.5" font-family="Helvetica,sans-Serif" font-size="10.00">::validSize</text>
</a>
</g>
</g>
<!-- Node1&#45;&gt;Node6 -->
<g id="edge11" class="edge">
<title>Node1&#45;&gt;Node6</title>
<path fill="none" stroke="midnightblue" d="M101.44,-49.92C117.25,-46.6 135.39,-43.06 152,-40.5 210.13,-31.54 276.71,-24.87 324.81,-20.68"/>
<polygon fill="midnightblue" stroke="midnightblue" points="325.12,-24.17 334.78,-19.83 324.52,-17.19 325.12,-24.17"/>
</g>
<!-- Node7 -->
<g id="node7" class="node">
<title>Node7</title>
<g id="a_node7"><a xlink:href="classtklb_1_1_audio_buffer_tpl.html#ad8dfcd5de2eff24076178f14474b4751" target="_top" xlink:title="Fill the provided array with the contents of this buffer.">
<polygon fill="none" stroke="black" points="152,-50 152,-69 288,-69 288,-50 152,-50"/>
<text text-anchor="middle" x="220" y="-57" font-family="Helvetica,sans-Serif" font-size="10.00">tklb::AudioBufferTpl::put</text>
</a>
</g>
</g>
<!-- Node1&#45;&gt;Node7 -->
<g id="edge6" class="edge">
<title>Node1&#45;&gt;Node7</title>
<path fill="none" stroke="midnightblue" d="M116.31,-59.5C124.56,-59.5 133.16,-59.5 141.72,-59.5"/>
<polygon fill="midnightblue" stroke="midnightblue" points="141.73,-63 151.73,-59.5 141.73,-56 141.73,-63"/>
</g>
<!-- Node3 -->
<g id="node3" class="node">
<title>Node3</title>
<g id="a_node3"><a xlink:href="classtklb_1_1_audio_buffer_tpl.html#a7859b26033cbb893c2ea7acea54d8013" target="_top" xlink:title="Returns the amount of channels.">
<polygon fill="none" stroke="black" points="335,-164.5 335,-194.5 449,-194.5 449,-164.5 335,-164.5"/>
<text text-anchor="start" x="343" y="-182.5" font-family="Helvetica,sans-Serif" font-size="10.00">tklb::AudioBufferTpl</text>
<text text-anchor="middle" x="392" y="-171.5" font-family="Helvetica,sans-Serif" font-size="10.00">::channels</text>
</a>
</g>
</g>
<!-- Node2&#45;&gt;Node3 -->
<g id="edge2" class="edge">
<title>Node2&#45;&gt;Node3</title>
<path fill="none" stroke="midnightblue" d="M249.49,-118.59C269.96,-129.19 298.36,-143.4 324,-154.5 328.79,-156.57 333.82,-158.64 338.87,-160.65"/>
<polygon fill="midnightblue" stroke="midnightblue" points="337.97,-164.05 348.56,-164.42 340.51,-157.53 337.97,-164.05"/>
</g>
<!-- Node4 -->
<g id="node4" class="node">
<title>Node4</title>
<g id="a_node4"><a xlink:href="classtklb_1_1_audio_buffer_tpl.html#aee0540e90ae2790f9a809917bc5a04fd" target="_top" xlink:title=" ">
<polygon fill="none" stroke="black" points="324,-88 324,-107 460,-107 460,-88 324,-88"/>
<text text-anchor="middle" x="392" y="-95" font-family="Helvetica,sans-Serif" font-size="10.00">tklb::AudioBufferTpl::get</text>
</a>
</g>
</g>
<!-- Node2&#45;&gt;Node4 -->
<g id="edge3" class="edge">
<title>Node2&#45;&gt;Node4</title>
<path fill="none" stroke="midnightblue" d="M277.14,-101.52C288.85,-101.11 301.39,-100.66 313.71,-100.23"/>
<polygon fill="midnightblue" stroke="midnightblue" points="314.12,-103.72 323.99,-99.87 313.87,-96.72 314.12,-103.72"/>
</g>
<!-- Node5 -->
<g id="node5" class="node">
<title>Node5</title>
<g id="a_node5"><a xlink:href="namespacetklb.html#a3080595da18d742645ec41d61828a426" target="_top" xlink:title=" ">
<polygon fill="none" stroke="black" points="362,-126 362,-145 422,-145 422,-126 362,-126"/>
<text text-anchor="middle" x="392" y="-133" font-family="Helvetica,sans-Serif" font-size="10.00">tklb::min</text>
</a>
</g>
</g>
<!-- Node2&#45;&gt;Node5 -->
<g id="edge4" class="edge">
<title>Node2&#45;&gt;Node5</title>
<path fill="none" stroke="midnightblue" d="M277.14,-114.07C301.51,-118.66 329.49,-123.92 351.61,-128.09"/>
<polygon fill="midnightblue" stroke="midnightblue" points="351.16,-131.56 361.64,-129.97 352.46,-124.68 351.16,-131.56"/>
</g>
<!-- Node2&#45;&gt;Node6 -->
<g id="edge5" class="edge">
<title>Node2&#45;&gt;Node6</title>
<path fill="none" stroke="midnightblue" d="M269.52,-88.44C275.97,-85.57 282.31,-82.27 288,-78.5 307.4,-65.66 304.6,-53.34 324,-40.5 326.94,-38.56 330.04,-36.74 333.25,-35.04"/>
<polygon fill="midnightblue" stroke="midnightblue" points="335.01,-38.07 342.48,-30.56 331.95,-31.78 335.01,-38.07"/>
</g>
<!-- Node7&#45;&gt;Node4 -->
<g id="edge8" class="edge">
<title>Node7&#45;&gt;Node4</title>
<path fill="none" stroke="midnightblue" d="M263.9,-69.09C286.53,-74.15 314.5,-80.4 338.43,-85.75"/>
<polygon fill="midnightblue" stroke="midnightblue" points="337.89,-89.21 348.41,-87.98 339.41,-82.38 337.89,-89.21"/>
</g>
<!-- Node7&#45;&gt;Node5 -->
<g id="edge9" class="edge">
<title>Node7&#45;&gt;Node5</title>
<path fill="none" stroke="midnightblue" d="M264.91,-69.1C272.9,-71.81 280.94,-75.22 288,-79.5 307.62,-91.39 304.29,-104.75 324,-116.5 332.55,-121.6 342.54,-125.39 352.15,-128.18"/>
<polygon fill="midnightblue" stroke="midnightblue" points="351.4,-131.6 361.96,-130.73 353.17,-124.82 351.4,-131.6"/>
</g>
<!-- Node7&#45;&gt;Node6 -->
<g id="edge10" class="edge">
<title>Node7&#45;&gt;Node6</title>
<path fill="none" stroke="midnightblue" d="M257.89,-49.95C277.45,-44.89 302.09,-38.51 324.83,-32.63"/>
<polygon fill="midnightblue" stroke="midnightblue" points="325.98,-35.95 334.78,-30.05 324.22,-29.17 325.98,-35.95"/>
</g>
<!-- Node8 -->
<g id="node8" class="node">
<title>Node8</title>
<g id="a_node8"><a xlink:href="namespacetklb_1_1memory.html#ab89ec197028f903f4ea125eae46c4a10" target="_top" xlink:title="memcpy wrapper">
<polygon fill="none" stroke="black" points="336,-50 336,-69 448,-69 448,-50 336,-50"/>
<text text-anchor="middle" x="392" y="-57" font-family="Helvetica,sans-Serif" font-size="10.00">tklb::memory::copy</text>
</a>
</g>
</g>
<!-- Node7&#45;&gt;Node8 -->
<g id="edge7" class="edge">
<title>Node7&#45;&gt;Node8</title>
<path fill="none" stroke="midnightblue" d="M288.19,-59.5C300.51,-59.5 313.36,-59.5 325.64,-59.5"/>
<polygon fill="midnightblue" stroke="midnightblue" points="325.78,-63 335.78,-59.5 325.78,-56 325.78,-63"/>
</g>
</g>
</svg>
