<?xml version="1.0" encoding="UTF-8" standalone="no"?>
<!DOCTYPE svg PUBLIC "-//W3C//DTD SVG 1.1//EN"
 "http://www.w3.org/Graphics/SVG/1.1/DTD/svg11.dtd">
<!-- Generated by graphviz version 2.50.0 (0)
 -->
<!-- Title: tklb::String::append Pages: 1 -->
<svg width="399pt" height="28pt"
 viewBox="0.00 0.00 399.00 28.00" xmlns="http://www.w3.org/2000/svg" xmlns:xlink="http://www.w3.org/1999/xlink">
<g id="graph0" class="graph" transform="scale(1 1) rotate(0) translate(4 24)">
<title>tklb::String::append</title>
<!-- Node1 -->
<g id="node1" class="node">
<title>Node1</title>
<g id="a_node1"><a xlink:title=" ">
<polygon fill="#bfbfbf" stroke="black" points="0,-0.5 0,-19.5 112,-19.5 112,-0.5 0,-0.5"/>
<text text-anchor="middle" x="56" y="-7.5" font-family="Helvetica,sans-Serif" font-size="10.00">tklb::String::append</text>
</a>
</g>
</g>
<!-- Node2 -->
<g id="node2" class="node">
<title>Node2</title>
<g id="a_node2"><a xlink:href="classtklb_1_1_string.html#a94e674695ef958e3a4d7778c7235856b" target="_top" xlink:title=" ">
<polygon fill="none" stroke="black" points="148,-0.5 148,-19.5 260,-19.5 260,-0.5 148,-0.5"/>
<text text-anchor="middle" x="204" y="-7.5" font-family="Helvetica,sans-Serif" font-size="10.00">tklb::String::append</text>
</a>
</g>
</g>
<!-- Node1&#45;&gt;Node2 -->
<g id="edge1" class="edge">
<title>Node1&#45;&gt;Node2</title>
<path fill="none" stroke="midnightblue" d="M112.2,-10C120.46,-10 129.05,-10 137.51,-10"/>
<polygon fill="midnightblue" stroke="midnightblue" points="137.73,-13.5 147.73,-10 137.73,-6.5 137.73,-13.5"/>
</g>
<!-- Node3 -->
<g id="node3" class="node">
<title>Node3</title>
<g id="a_node3"><a xlink:href="classtklb_1_1_string.html#a2fd6f1c6342e803119507c94cd3c6b76" target="_top" xlink:title=" ">
<polygon fill="none" stroke="black" points="296,-0.5 296,-19.5 391,-19.5 391,-0.5 296,-0.5"/>
<text text-anchor="middle" x="343.5" y="-7.5" font-family="Helvetica,sans-Serif" font-size="10.00">tklb::String::size</text>
</a>
</g>
</g>
<!-- Node2&#45;&gt;Node3 -->
<g id="edge2" class="edge">
<title>Node2&#45;&gt;Node3</title>
<path fill="none" stroke="midnightblue" d="M260.13,-10C268.53,-10 277.2,-10 285.63,-10"/>
<polygon fill="midnightblue" stroke="midnightblue" points="285.75,-13.5 295.75,-10 285.75,-6.5 285.75,-13.5"/>
</g>
</g>
</svg>
