<?xml version="1.0" encoding="UTF-8" standalone="no"?>
<!DOCTYPE svg PUBLIC "-//W3C//DTD SVG 1.1//EN"
 "http://www.w3.org/Graphics/SVG/1.1/DTD/svg11.dtd">
<!-- Generated by graphviz version 2.50.0 (0)
 -->
<!-- Title: tklb::Logger::debug Pages: 1 -->
<svg width="415pt" height="28pt"
 viewBox="0.00 0.00 415.00 28.00" xmlns="http://www.w3.org/2000/svg" xmlns:xlink="http://www.w3.org/1999/xlink">
<g id="graph0" class="graph" transform="scale(1 1) rotate(0) translate(4 24)">
<title>tklb::Logger::debug</title>
<!-- Node1 -->
<g id="node1" class="node">
<title>Node1</title>
<g id="a_node1"><a xlink:title=" ">
<polygon fill="#bfbfbf" stroke="black" points="0,-0.5 0,-19.5 110,-19.5 110,-0.5 0,-0.5"/>
<text text-anchor="middle" x="55" y="-7.5" font-family="Helvetica,sans-Serif" font-size="10.00">tklb::Logger::debug</text>
</a>
</g>
</g>
<!-- Node2 -->
<g id="node2" class="node">
<title>Node2</title>
<g id="a_node2"><a xlink:href="classtklb_1_1_logger.html#af780d751b57d558597a4f36920b1f74a" target="_top" xlink:title=" ">
<polygon fill="none" stroke="black" points="146,-0.5 146,-19.5 249,-19.5 249,-0.5 146,-0.5"/>
<text text-anchor="middle" x="197.5" y="-7.5" font-family="Helvetica,sans-Serif" font-size="10.00">tklb::Logger::print</text>
</a>
</g>
</g>
<!-- Node1&#45;&gt;Node2 -->
<g id="edge1" class="edge">
<title>Node1&#45;&gt;Node2</title>
<path fill="none" stroke="midnightblue" d="M110.32,-10C118.56,-10 127.1,-10 135.46,-10"/>
<polygon fill="midnightblue" stroke="midnightblue" points="135.55,-13.5 145.55,-10 135.55,-6.5 135.55,-13.5"/>
</g>
<!-- Node3 -->
<g id="node3" class="node">
<title>Node3</title>
<g id="a_node3"><a xlink:href="classtklb_1_1_logger.html#a118d2a2b0287bb001cb32268fac6084b" target="_top" xlink:title=" ">
<polygon fill="none" stroke="black" points="285,-0.5 285,-19.5 407,-19.5 407,-0.5 285,-0.5"/>
<text text-anchor="middle" x="346" y="-7.5" font-family="Helvetica,sans-Serif" font-size="10.00">tklb::Logger::instance</text>
</a>
</g>
</g>
<!-- Node2&#45;&gt;Node3 -->
<g id="edge2" class="edge">
<title>Node2&#45;&gt;Node3</title>
<path fill="none" stroke="midnightblue" d="M249.33,-10C257.58,-10 266.26,-10 274.88,-10"/>
<polygon fill="midnightblue" stroke="midnightblue" points="274.94,-13.5 284.94,-10 274.94,-6.5 274.94,-13.5"/>
</g>
</g>
</svg>
