<?xml version="1.0" encoding="UTF-8" standalone="no"?>
<!DOCTYPE svg PUBLIC "-//W3C//DTD SVG 1.1//EN"
 "http://www.w3.org/Graphics/SVG/1.1/DTD/svg11.dtd">
<!-- Generated by graphviz version 2.50.0 (0)
 -->
<!-- Title: tklb::SectionClock Pages: 1 -->
<svg width="154pt" height="182pt"
 viewBox="0.00 0.00 154.00 182.00" xmlns="http://www.w3.org/2000/svg" xmlns:xlink="http://www.w3.org/1999/xlink">
<g id="graph0" class="graph" transform="scale(1 1) rotate(0) translate(4 178)">
<title>tklb::SectionClock</title>
<!-- Node1 -->
<g id="node1" class="node">
<title>Node1</title>
<g id="a_node1"><a xlink:title=" ">
<polygon fill="#bfbfbf" stroke="black" points="25,-0.5 25,-68.5 132,-68.5 132,-0.5 25,-0.5"/>
<text text-anchor="middle" x="78.5" y="-56.5" font-family="Helvetica,sans-Serif" font-size="10.00">tklb::SectionClock</text>
<polyline fill="none" stroke="black" points="25,-49.5 132,-49.5 "/>
<text text-anchor="middle" x="78.5" y="-37.5" font-family="Helvetica,sans-Serif" font-size="10.00"> </text>
<polyline fill="none" stroke="black" points="25,-30.5 132,-30.5 "/>
<text text-anchor="start" x="33" y="-18.5" font-family="Helvetica,sans-Serif" font-size="10.00">+ SectionClock()</text>
<text text-anchor="start" x="33" y="-7.5" font-family="Helvetica,sans-Serif" font-size="10.00">+ ~SectionClock()</text>
</a>
</g>
</g>
<!-- Node2 -->
<g id="node2" class="node">
<title>Node2</title>
<g id="a_node2"><a xlink:title=" ">
<polygon fill="none" stroke="#bfbfbf" points="0,-116.5 0,-173.5 75,-173.5 75,-116.5 0,-116.5"/>
<text text-anchor="middle" x="37.5" y="-161.5" font-family="Helvetica,sans-Serif" font-size="10.00">const char *</text>
<polyline fill="none" stroke="#bfbfbf" points="0,-154.5 75,-154.5 "/>
<text text-anchor="middle" x="37.5" y="-142.5" font-family="Helvetica,sans-Serif" font-size="10.00"> </text>
<polyline fill="none" stroke="#bfbfbf" points="0,-135.5 75,-135.5 "/>
<text text-anchor="middle" x="37.5" y="-123.5" font-family="Helvetica,sans-Serif" font-size="10.00"> </text>
</a>
</g>
</g>
<!-- Node2&#45;&gt;Node1 -->
<g id="edge1" class="edge">
<title>Node2&#45;&gt;Node1</title>
<path fill="none" stroke="#404040" d="M34.49,-116.41C34.35,-106.86 35.24,-96.24 38.5,-87 39.45,-84.3 40.61,-81.63 41.92,-79.01"/>
<polygon fill="none" stroke="#404040" points="41.96,-78.93 41.55,-71.73 48.03,-68.57 48.45,-75.77 41.96,-78.93"/>
<text text-anchor="middle" x="68.5" y="-90" font-family="Helvetica,sans-Serif" font-size="10.00"> &#45;mMessage</text>
</g>
<!-- Node3 -->
<g id="node3" class="node">
<title>Node3</title>
<g id="a_node3"><a xlink:title=" ">
<polygon fill="none" stroke="#bfbfbf" points="95,-116.5 95,-173.5 146,-173.5 146,-116.5 95,-116.5"/>
<text text-anchor="middle" x="120.5" y="-161.5" font-family="Helvetica,sans-Serif" font-size="10.00">clock_t</text>
<polyline fill="none" stroke="#bfbfbf" points="95,-154.5 146,-154.5 "/>
<text text-anchor="middle" x="120.5" y="-142.5" font-family="Helvetica,sans-Serif" font-size="10.00"> </text>
<polyline fill="none" stroke="#bfbfbf" points="95,-135.5 146,-135.5 "/>
<text text-anchor="middle" x="120.5" y="-123.5" font-family="Helvetica,sans-Serif" font-size="10.00"> </text>
</a>
</g>
</g>
<!-- Node3&#45;&gt;Node1 -->
<g id="edge2" class="edge">
<title>Node3&#45;&gt;Node1</title>
<path fill="none" stroke="#404040" d="M109.88,-116.45C106.27,-107.1 102.21,-96.6 98.5,-87 97.61,-84.69 96.69,-82.33 95.77,-79.94"/>
<polygon fill="none" stroke="#404040" points="95.76,-79.93 89.86,-75.78 91.42,-68.74 97.32,-72.89 95.76,-79.93"/>
<text text-anchor="middle" x="122.5" y="-90" font-family="Helvetica,sans-Serif" font-size="10.00"> &#45;mStart</text>
</g>
</g>
</svg>
