<?xml version="1.0" encoding="UTF-8" standalone="no"?>
<!DOCTYPE svg PUBLIC "-//W3C//DTD SVG 1.1//EN"
 "http://www.w3.org/Graphics/SVG/1.1/DTD/svg11.dtd">
<!-- Generated by graphviz version 2.50.0 (0)
 -->
<!-- Title: tklb::AudioBufferTpl::getRaw Pages: 1 -->
<svg width="466pt" height="154pt"
 viewBox="0.00 0.00 466.00 153.50" xmlns="http://www.w3.org/2000/svg" xmlns:xlink="http://www.w3.org/1999/xlink">
<g id="graph0" class="graph" transform="scale(1 1) rotate(0) translate(4 149.5)">
<title>tklb::AudioBufferTpl::getRaw</title>
<!-- Node1 -->
<g id="node1" class="node">
<title>Node1</title>
<g id="a_node1"><a xlink:title="Fills an 2d array of size maxChannels() with pointers to each channel.">
<polygon fill="#bfbfbf" stroke="black" points="0,-85.5 0,-115.5 114,-115.5 114,-85.5 0,-85.5"/>
<text text-anchor="start" x="8" y="-103.5" font-family="Helvetica,sans-Serif" font-size="10.00">tklb::AudioBufferTpl</text>
<text text-anchor="middle" x="57" y="-92.5" font-family="Helvetica,sans-Serif" font-size="10.00">::getRaw</text>
</a>
</g>
</g>
<!-- Node2 -->
<g id="node2" class="node">
<title>Node2</title>
<g id="a_node2"><a xlink:href="classtklb_1_1_audio_buffer_tpl.html#ac59e6eb1a408c183b9e360f473786aec" target="_top" xlink:title=" ">
<polygon fill="none" stroke="black" points="159,-107.5 159,-137.5 277,-137.5 277,-107.5 159,-107.5"/>
<text text-anchor="start" x="167" y="-125.5" font-family="Helvetica,sans-Serif" font-size="10.00">tklb::AudioBufferTpl</text>
<text text-anchor="middle" x="218" y="-114.5" font-family="Helvetica,sans-Serif" font-size="10.00">::assertOnConstMem</text>
</a>
</g>
</g>
<!-- Node1&#45;&gt;Node2 -->
<g id="edge1" class="edge">
<title>Node1&#45;&gt;Node2</title>
<path fill="none" stroke="midnightblue" d="M114.06,-108.26C125.26,-109.81 137.14,-111.45 148.71,-113.05"/>
<polygon fill="midnightblue" stroke="midnightblue" points="148.37,-116.54 158.76,-114.44 149.33,-109.6 148.37,-116.54"/>
</g>
<!-- Node3 -->
<g id="node3" class="node">
<title>Node3</title>
<g id="a_node3"><a xlink:href="classtklb_1_1_audio_buffer_tpl.html#a613104aae947423f0fac79142a8bcaf0" target="_top" xlink:title="Fill the provided array with the contents of this buffer.">
<polygon fill="none" stroke="black" points="150,-69 150,-88 286,-88 286,-69 150,-69"/>
<text text-anchor="middle" x="218" y="-76" font-family="Helvetica,sans-Serif" font-size="10.00">tklb::AudioBufferTpl::put</text>
</a>
</g>
</g>
<!-- Node1&#45;&gt;Node3 -->
<g id="edge2" class="edge">
<title>Node1&#45;&gt;Node3</title>
<path fill="none" stroke="midnightblue" d="M114.06,-92.74C122.35,-91.6 131.01,-90.4 139.64,-89.2"/>
<polygon fill="midnightblue" stroke="midnightblue" points="140.3,-92.65 149.73,-87.81 139.35,-85.71 140.3,-92.65"/>
</g>
<!-- Node4 -->
<g id="node4" class="node">
<title>Node4</title>
<g id="a_node4"><a xlink:href="namespacetklb_1_1memory.html#ab89ec197028f903f4ea125eae46c4a10" target="_top" xlink:title="memcpy wrapper">
<polygon fill="none" stroke="black" points="334,-126 334,-145 446,-145 446,-126 334,-126"/>
<text text-anchor="middle" x="390" y="-133" font-family="Helvetica,sans-Serif" font-size="10.00">tklb::memory::copy</text>
</a>
</g>
</g>
<!-- Node3&#45;&gt;Node4 -->
<g id="edge3" class="edge">
<title>Node3&#45;&gt;Node4</title>
<path fill="none" stroke="midnightblue" d="M255.21,-88.06C265.3,-91.06 276.18,-94.61 286,-98.5 302.63,-105.08 305.32,-110.03 322,-116.5 327.99,-118.82 334.38,-121 340.75,-122.99"/>
<polygon fill="midnightblue" stroke="midnightblue" points="340.09,-126.45 350.68,-125.97 342.1,-119.75 340.09,-126.45"/>
</g>
<!-- Node5 -->
<g id="node5" class="node">
<title>Node5</title>
<g id="a_node5"><a xlink:href="classtklb_1_1_audio_buffer_tpl.html#a839371a414e21aea2101d9404e3be9c5" target="_top" xlink:title=" ">
<polygon fill="none" stroke="black" points="322,-88 322,-107 458,-107 458,-88 322,-88"/>
<text text-anchor="middle" x="390" y="-95" font-family="Helvetica,sans-Serif" font-size="10.00">tklb::AudioBufferTpl::get</text>
</a>
</g>
</g>
<!-- Node3&#45;&gt;Node5 -->
<g id="edge4" class="edge">
<title>Node3&#45;&gt;Node5</title>
<path fill="none" stroke="midnightblue" d="M286.19,-86.01C294.59,-86.95 303.24,-87.92 311.78,-88.87"/>
<polygon fill="midnightblue" stroke="midnightblue" points="311.42,-92.35 321.74,-89.98 312.19,-85.39 311.42,-92.35"/>
</g>
<!-- Node6 -->
<g id="node6" class="node">
<title>Node6</title>
<g id="a_node6"><a xlink:href="namespacetklb.html#a3080595da18d742645ec41d61828a426" target="_top" xlink:title=" ">
<polygon fill="none" stroke="black" points="360,-50 360,-69 420,-69 420,-50 360,-50"/>
<text text-anchor="middle" x="390" y="-57" font-family="Helvetica,sans-Serif" font-size="10.00">tklb::min</text>
</a>
</g>
</g>
<!-- Node3&#45;&gt;Node6 -->
<g id="edge5" class="edge">
<title>Node3&#45;&gt;Node6</title>
<path fill="none" stroke="midnightblue" d="M286.19,-70.99C307.8,-68.58 331.02,-65.98 349.92,-63.87"/>
<polygon fill="midnightblue" stroke="midnightblue" points="350.38,-67.34 359.93,-62.75 349.61,-60.38 350.38,-67.34"/>
</g>
<!-- Node7 -->
<g id="node7" class="node">
<title>Node7</title>
<g id="a_node7"><a xlink:href="classtklb_1_1_audio_buffer_tpl.html#a37f13531bbfb64cff87ab6473f5bea14" target="_top" xlink:title="fReturns the length of actually valid audio in the buffer.">
<polygon fill="none" stroke="black" points="333,-0.5 333,-30.5 447,-30.5 447,-0.5 333,-0.5"/>
<text text-anchor="start" x="341" y="-18.5" font-family="Helvetica,sans-Serif" font-size="10.00">tklb::AudioBufferTpl</text>
<text text-anchor="middle" x="390" y="-7.5" font-family="Helvetica,sans-Serif" font-size="10.00">::validSize</text>
</a>
</g>
</g>
<!-- Node3&#45;&gt;Node7 -->
<g id="edge6" class="edge">
<title>Node3&#45;&gt;Node7</title>
<path fill="none" stroke="midnightblue" d="M244.82,-68.93C269.63,-59.74 307.79,-45.6 338.62,-34.17"/>
<polygon fill="midnightblue" stroke="midnightblue" points="340.19,-37.32 348.35,-30.57 337.76,-30.76 340.19,-37.32"/>
</g>
</g>
</svg>
