<?xml version="1.0" encoding="UTF-8" standalone="no"?>
<!DOCTYPE svg PUBLIC "-//W3C//DTD SVG 1.1//EN"
 "http://www.w3.org/Graphics/SVG/1.1/DTD/svg11.dtd">
<!-- Generated by graphviz version 2.50.0 (0)
 -->
<!-- Title: vae::core::BankManager::has Pages: 1 -->
<!--zoomable 239 -->
<svg id="main" version="1.1" xmlns="http://www.w3.org/2000/svg" xmlns:xlink="http://www.w3.org/1999/xlink" xml:space="preserve" onload="init(evt)">
<style type="text/css"><![CDATA[
.edge:hover path { stroke: red; }
.edge:hover polygon { stroke: red; fill: red; }
]]></style>
<script type="text/javascript"><![CDATA[
var edges = document.getElementsByTagName('g');
if (edges && edges.length) {
  for (var i=0;i<edges.length;i++) {
    if (edges[i].id.substr(0,4)=='edge') {
      edges[i].setAttribute('class','edge');
    }
  }
}
]]></script>
        <defs>
                <circle id="rim" cx="0" cy="0" r="7"/>
                <circle id="rim2" cx="0" cy="0" r="3.5"/>
                <g id="zoomPlus">
                        <use xlink:href="#rim" fill="#404040">
                                <set attributeName="fill" to="#808080" begin="zoomplus.mouseover" end="zoomplus.mouseout"/>
                        </use>
                        <path d="M-4,0h8M0,-4v8" fill="none" stroke="white" stroke-width="1.5" pointer-events="none"/>
                </g>
                <g id="zoomMin">
                        <use xlink:href="#rim" fill="#404040">
                                <set attributeName="fill" to="#808080" begin="zoomminus.mouseover" end="zoomminus.mouseout"/>
                        </use>
                        <path d="M-4,0h8" fill="none" stroke="white" stroke-width="1.5" pointer-events="none"/>
                </g>
                <g id="dirArrow">
                        <path fill="none" stroke="white" stroke-width="1.5" d="M0,-3.0v7 M-2.5,-0.5L0,-3.0L2.5,-0.5"/>
                </g>
               <g id="resetDef">
                       <use xlink:href="#rim2" fill="#404040">
                               <set attributeName="fill" to="#808080" begin="reset.mouseover" end="reset.mouseout"/>
                       </use>
               </g>
        </defs>

<script type="text/javascript">
var viewWidth = 1140;
var viewHeight = 239;
var sectionId = 'dynsection-9';
</script>
<script xlink:href="svgpan.js"/>
<svg id="graph" class="graph">
<g id="viewport">
<title>vae::core::BankManager::has</title>
<!-- Node1 -->
<g id="node1" class="node">
<title>Node1</title>
<g id="a_node1"><a xlink:title=" ">
<polygon fill="#bfbfbf" stroke="black" points="974,-131.5 974,-150.5 1132,-150.5 1132,-131.5 974,-131.5"/>
<text text-anchor="middle" x="1053" y="-138.5" font-family="Helvetica,sans-Serif" font-size="10.00">vae::core::BankManager::has</text>
</a>
</g>
</g>
<!-- Node2 -->
<g id="node2" class="node">
<title>Node2</title>
<g id="a_node2"><a xlink:href="classvae_1_1core_1_1_engine.html#a4721a2bf236efae669ee51ba148e193a" target="_top" xlink:title="Main mechanism to start and stop sounds.">
<polygon fill="none" stroke="black" points="831,-126 831,-156 938,-156 938,-126 831,-126"/>
<text text-anchor="start" x="839" y="-144" font-family="Helvetica,sans-Serif" font-size="10.00">vae::core::Engine::</text>
<text text-anchor="middle" x="884.5" y="-133" font-family="Helvetica,sans-Serif" font-size="10.00">fireEvent</text>
</a>
</g>
</g>
<!-- Node1&#45;&gt;Node2 -->
<g id="edge1" class="edge">
<title>Node1&#45;&gt;Node2</title>
<path fill="none" stroke="midnightblue" d="M963.51,-141C954.9,-141 946.37,-141 938.29,-141"/>
<polygon fill="midnightblue" stroke="midnightblue" points="963.63,-144.5 973.63,-141 963.63,-137.5 963.63,-144.5"/>
</g>
<!-- Node2&#45;&gt;Node2 -->
<g id="edge3" class="edge">
<title>Node2&#45;&gt;Node2</title>
<path fill="none" stroke="midnightblue" d="M913.64,-166.46C910.02,-171.18 900.31,-174.5 884.5,-174.5 858.55,-174.5 849.03,-165.56 855.92,-156.16"/>
<polygon fill="midnightblue" stroke="midnightblue" points="917.12,-165.95 913.08,-156.16 910.13,-166.33 917.12,-165.95"/>
</g>
<!-- Node3 -->
<g id="node3" class="node">
<title>Node3</title>
<g id="a_node3"><a xlink:href="classvae_1_1_engine_pimpl.html#ad8012513afde9dd3bb976b5440858bef" target="_top" xlink:title="Main mechanism to start and stop sounds.">
<polygon fill="none" stroke="black" points="643,-175.5 643,-194.5 795,-194.5 795,-175.5 643,-175.5"/>
<text text-anchor="middle" x="719" y="-182.5" font-family="Helvetica,sans-Serif" font-size="10.00">vae::EnginePimpl::fireEvent</text>
</a>
</g>
</g>
<!-- Node2&#45;&gt;Node3 -->
<g id="edge2" class="edge">
<title>Node2&#45;&gt;Node3</title>
<path fill="none" stroke="midnightblue" d="M821.29,-158.8C812.48,-161.26 803.52,-163.72 795,-166 783.19,-169.16 770.3,-172.48 758.59,-175.44"/>
<polygon fill="midnightblue" stroke="midnightblue" points="822.47,-162.11 831.15,-156.04 820.58,-155.37 822.47,-162.11"/>
</g>
<!-- Node4 -->
<g id="node4" class="node">
<title>Node4</title>
<g id="a_node4"><a xlink:href="classvae_1_1core_1_1_engine.html#a11a6ae8ce62130f33dad382a4e4cf07e" target="_top" xlink:title="Works like fireEvent but with a global Event identifier.">
<polygon fill="none" stroke="black" points="665.5,-126 665.5,-156 772.5,-156 772.5,-126 665.5,-126"/>
<text text-anchor="start" x="673.5" y="-144" font-family="Helvetica,sans-Serif" font-size="10.00">vae::core::Engine::</text>
<text text-anchor="middle" x="719" y="-133" font-family="Helvetica,sans-Serif" font-size="10.00">fireGlobalEvent</text>
</a>
</g>
</g>
<!-- Node2&#45;&gt;Node4 -->
<g id="edge4" class="edge">
<title>Node2&#45;&gt;Node4</title>
<path fill="none" stroke="midnightblue" d="M820.6,-141C804.73,-141 787.84,-141 772.53,-141"/>
<polygon fill="midnightblue" stroke="midnightblue" points="820.87,-144.5 830.87,-141 820.87,-137.5 820.87,-144.5"/>
</g>
<!-- Node10 -->
<g id="node10" class="node">
<title>Node10</title>
<g id="a_node10"><a xlink:href="classvae_1_1core_1_1_engine.html#adb4e1cb3bd1ea11bb9d3b806d552fb75" target="_top" xlink:title="Update function needs to be called regularly to handle outbound events and other housekeeping.">
<polygon fill="none" stroke="black" points="665.5,-77 665.5,-107 772.5,-107 772.5,-77 665.5,-77"/>
<text text-anchor="start" x="673.5" y="-95" font-family="Helvetica,sans-Serif" font-size="10.00">vae::core::Engine::</text>
<text text-anchor="middle" x="719" y="-84" font-family="Helvetica,sans-Serif" font-size="10.00">update</text>
</a>
</g>
</g>
<!-- Node2&#45;&gt;Node10 -->
<g id="edge10" class="edge">
<title>Node2&#45;&gt;Node10</title>
<path fill="none" stroke="midnightblue" d="M823.06,-122.89C805.68,-117.68 786.92,-112.05 770.22,-107.05"/>
<polygon fill="midnightblue" stroke="midnightblue" points="822.53,-126.38 833.11,-125.9 824.54,-119.68 822.53,-126.38"/>
</g>
<!-- Node5 -->
<g id="node5" class="node">
<title>Node5</title>
<g id="a_node5"><a xlink:href="main_8cpp.html#a7b09579eb01449ba8f8ac324485001c2" target="_top" xlink:title=" ">
<polygon fill="none" stroke="black" points="494,-126.5 494,-145.5 565,-145.5 565,-126.5 494,-126.5"/>
<text text-anchor="middle" x="529.5" y="-133.5" font-family="Helvetica,sans-Serif" font-size="10.00">benchmark</text>
</a>
</g>
</g>
<!-- Node4&#45;&gt;Node5 -->
<g id="edge5" class="edge">
<title>Node4&#45;&gt;Node5</title>
<path fill="none" stroke="midnightblue" d="M654.88,-139.32C624.9,-138.52 590.21,-137.59 565.1,-136.92"/>
<polygon fill="midnightblue" stroke="midnightblue" points="655.18,-142.83 665.27,-139.59 655.37,-135.83 655.18,-142.83"/>
</g>
<!-- Node6 -->
<g id="node6" class="node">
<title>Node6</title>
<g id="a_node6"><a xlink:href="main_8cpp.html#a6f5c91847864279624ba2247527e3cea" target="_top" xlink:title=" ">
<polygon fill="none" stroke="black" points="468,-88.5 468,-107.5 591,-107.5 591,-88.5 468,-88.5"/>
<text text-anchor="middle" x="529.5" y="-95.5" font-family="Helvetica,sans-Serif" font-size="10.00">benchmarkBasicVoice</text>
</a>
</g>
</g>
<!-- Node4&#45;&gt;Node6 -->
<g id="edge6" class="edge">
<title>Node4&#45;&gt;Node6</title>
<path fill="none" stroke="midnightblue" d="M655.38,-126.64C628,-120.36 596.61,-113.16 572.16,-107.55"/>
<polygon fill="midnightblue" stroke="midnightblue" points="654.74,-130.08 665.27,-128.91 656.31,-123.26 654.74,-130.08"/>
</g>
<!-- Node7 -->
<g id="node7" class="node">
<title>Node7</title>
<g id="a_node7"><a xlink:href="main_8cpp.html#afe1c3ff6204d9b675caf60b5545e3e54" target="_top" xlink:title=" ">
<polygon fill="none" stroke="black" points="190,-175.5 190,-194.5 249,-194.5 249,-175.5 190,-175.5"/>
<text text-anchor="middle" x="219.5" y="-182.5" font-family="Helvetica,sans-Serif" font-size="10.00">filterTest</text>
</a>
</g>
</g>
<!-- Node4&#45;&gt;Node7 -->
<g id="edge7" class="edge">
<title>Node4&#45;&gt;Node7</title>
<path fill="none" stroke="midnightblue" d="M655.86,-158.89C651.38,-161.03 647.04,-163.39 643,-166 623.19,-178.8 628.61,-195.54 607,-205 482.67,-259.44 313.91,-215.51 248.24,-194.56"/>
<polygon fill="midnightblue" stroke="midnightblue" points="657.43,-162.02 665.2,-154.82 654.63,-155.61 657.43,-162.02"/>
</g>
<!-- Node9 -->
<g id="node9" class="node">
<title>Node9</title>
<g id="a_node9"><a xlink:href="classvae_1_1_engine_pimpl.html#aee133a1fa8e89e70b4f7414c10d58c62" target="_top" xlink:title="Works like fireEvent but with a global Event identifier.">
<polygon fill="none" stroke="black" points="452,-165 452,-195 607,-195 607,-165 452,-165"/>
<text text-anchor="start" x="460" y="-183" font-family="Helvetica,sans-Serif" font-size="10.00">vae::EnginePimpl::fireGlobal</text>
<text text-anchor="middle" x="529.5" y="-172" font-family="Helvetica,sans-Serif" font-size="10.00">Event</text>
</a>
</g>
</g>
<!-- Node4&#45;&gt;Node9 -->
<g id="edge9" class="edge">
<title>Node4&#45;&gt;Node9</title>
<path fill="none" stroke="midnightblue" d="M655.04,-154.1C638.26,-157.59 620,-161.38 602.77,-164.97"/>
<polygon fill="midnightblue" stroke="midnightblue" points="656.19,-157.43 665.27,-151.97 654.77,-150.58 656.19,-157.43"/>
</g>
<!-- Node8 -->
<g id="node8" class="node">
<title>Node8</title>
<g id="a_node8"><a xlink:href="main_8cpp.html#ae66f6b31b5ad750f1fe042a706a4e3d4" target="_top" xlink:title=" ">
<polygon fill="none" stroke="black" points="44.5,-134.5 44.5,-153.5 85.5,-153.5 85.5,-134.5 44.5,-134.5"/>
<text text-anchor="middle" x="65" y="-141.5" font-family="Helvetica,sans-Serif" font-size="10.00">main</text>
</a>
</g>
</g>
<!-- Node7&#45;&gt;Node8 -->
<g id="edge8" class="edge">
<title>Node7&#45;&gt;Node8</title>
<path fill="none" stroke="midnightblue" d="M180.08,-174.67C150.08,-166.61 109.62,-155.73 85.82,-149.33"/>
<polygon fill="midnightblue" stroke="midnightblue" points="179.25,-178.07 189.82,-177.29 181.07,-171.31 179.25,-178.07"/>
</g>
<!-- Node10&#45;&gt;Node5 -->
<g id="edge11" class="edge">
<title>Node10&#45;&gt;Node5</title>
<path fill="none" stroke="midnightblue" d="M655.28,-106.72C625.2,-113.78 590.32,-121.96 565.1,-127.88"/>
<polygon fill="midnightblue" stroke="midnightblue" points="656.34,-110.07 665.27,-104.37 654.74,-103.25 656.34,-110.07"/>
</g>
<!-- Node10&#45;&gt;Node6 -->
<g id="edge12" class="edge">
<title>Node10&#45;&gt;Node6</title>
<path fill="none" stroke="midnightblue" d="M655.03,-94.01C634.41,-94.67 611.55,-95.41 591.1,-96.06"/>
<polygon fill="midnightblue" stroke="midnightblue" points="655.39,-97.51 665.27,-93.69 655.16,-90.51 655.39,-97.51"/>
</g>
<!-- Node11 -->
<g id="node11" class="node">
<title>Node11</title>
<g id="a_node11"><a xlink:href="classvae_1_1core_1_1_engine.html#afecf53f2eaf92d13a933c05c821b3819" target="_top" xlink:title="Main processing function.">
<polygon fill="none" stroke="black" points="476,-39 476,-69 583,-69 583,-39 476,-39"/>
<text text-anchor="start" x="484" y="-57" font-family="Helvetica,sans-Serif" font-size="10.00">vae::core::Engine::</text>
<text text-anchor="middle" x="529.5" y="-46" font-family="Helvetica,sans-Serif" font-size="10.00">process</text>
</a>
</g>
</g>
<!-- Node10&#45;&gt;Node11 -->
<g id="edge13" class="edge">
<title>Node10&#45;&gt;Node11</title>
<path fill="none" stroke="midnightblue" d="M655.43,-79.32C631.99,-74.57 605.61,-69.22 583.16,-64.67"/>
<polygon fill="midnightblue" stroke="midnightblue" points="654.78,-82.76 665.27,-81.31 656.17,-75.9 654.78,-82.76"/>
</g>
<!-- Node16 -->
<g id="node16" class="node">
<title>Node16</title>
<g id="a_node16"><a xlink:href="classvae_1_1_engine_pimpl.html#a8e9296021147373d9b8c415c460fe842" target="_top" xlink:title="Update function needs to be called regularly to handle outbound events and other housekeeping.">
<polygon fill="none" stroke="black" points="459,-0.5 459,-19.5 600,-19.5 600,-0.5 459,-0.5"/>
<text text-anchor="middle" x="529.5" y="-7.5" font-family="Helvetica,sans-Serif" font-size="10.00">vae::EnginePimpl::update</text>
</a>
</g>
</g>
<!-- Node10&#45;&gt;Node16 -->
<g id="edge20" class="edge">
<title>Node10&#45;&gt;Node16</title>
<path fill="none" stroke="midnightblue" d="M687.09,-71.41C665.43,-57.76 635.4,-40.34 607,-29 597.72,-25.3 587.52,-22.16 577.66,-19.57"/>
<polygon fill="midnightblue" stroke="midnightblue" points="685.22,-74.37 695.53,-76.81 689,-68.47 685.22,-74.37"/>
</g>
<!-- Node12 -->
<g id="node12" class="node">
<title>Node12</title>
<g id="a_node12"><a xlink:href="classvae_1_1core_1_1_engine.html#ab31b2381a1d916efdcffe8db7971ce15" target="_top" xlink:title="Called from audio device when it needs more audio.">
<polygon fill="none" stroke="black" points="309,-88 309,-118 416,-118 416,-88 309,-88"/>
<text text-anchor="start" x="317" y="-106" font-family="Helvetica,sans-Serif" font-size="10.00">vae::core::Engine::</text>
<text text-anchor="middle" x="362.5" y="-95" font-family="Helvetica,sans-Serif" font-size="10.00">onBufferSwap</text>
</a>
</g>
</g>
<!-- Node11&#45;&gt;Node12 -->
<g id="edge14" class="edge">
<title>Node11&#45;&gt;Node12</title>
<path fill="none" stroke="midnightblue" d="M468,-71.97C450.32,-77.22 431.19,-82.9 414.18,-87.95"/>
<polygon fill="midnightblue" stroke="midnightblue" points="469.06,-75.3 477.65,-69.1 467.07,-68.59 469.06,-75.3"/>
</g>
<!-- Node15 -->
<g id="node15" class="node">
<title>Node15</title>
<g id="a_node15"><a xlink:href="classvae_1_1core_1_1_engine.html#aca852d5c0e30b0641582f175bf95fbea" target="_top" xlink:title="Called from own audio thread, not the device.">
<polygon fill="none" stroke="black" points="309,-39 309,-69 416,-69 416,-39 309,-39"/>
<text text-anchor="start" x="317" y="-57" font-family="Helvetica,sans-Serif" font-size="10.00">vae::core::Engine::</text>
<text text-anchor="middle" x="362.5" y="-46" font-family="Helvetica,sans-Serif" font-size="10.00">threadedProcess</text>
</a>
</g>
</g>
<!-- Node11&#45;&gt;Node15 -->
<g id="edge18" class="edge">
<title>Node11&#45;&gt;Node15</title>
<path fill="none" stroke="midnightblue" d="M465.82,-54C449.47,-54 432.01,-54 416.23,-54"/>
<polygon fill="midnightblue" stroke="midnightblue" points="465.84,-57.5 475.84,-54 465.84,-50.5 465.84,-57.5"/>
</g>
<!-- Node13 -->
<g id="node13" class="node">
<title>Node13</title>
<g id="a_node13"><a xlink:href="classvae_1_1core_1_1_engine.html#aa974f739b3f2dc8004eede720d01d229" target="_top" xlink:title="Tries to open default device and start audio thread.">
<polygon fill="none" stroke="black" points="166,-88 166,-118 273,-118 273,-88 166,-88"/>
<text text-anchor="start" x="174" y="-106" font-family="Helvetica,sans-Serif" font-size="10.00">vae::core::Engine::</text>
<text text-anchor="middle" x="219.5" y="-95" font-family="Helvetica,sans-Serif" font-size="10.00">start</text>
</a>
</g>
</g>
<!-- Node12&#45;&gt;Node13 -->
<g id="edge15" class="edge">
<title>Node12&#45;&gt;Node13</title>
<path fill="none" stroke="midnightblue" d="M298.95,-103C290.3,-103 281.49,-103 273.05,-103"/>
<polygon fill="midnightblue" stroke="midnightblue" points="299,-106.5 309,-103 299,-99.5 299,-106.5"/>
</g>
<!-- Node13&#45;&gt;Node8 -->
<g id="edge16" class="edge">
<title>Node13&#45;&gt;Node8</title>
<path fill="none" stroke="midnightblue" d="M155.69,-119.89C130.5,-126.66 103.28,-133.98 85.52,-138.75"/>
<polygon fill="midnightblue" stroke="midnightblue" points="156.84,-123.2 165.59,-117.22 155.03,-116.44 156.84,-123.2"/>
</g>
<!-- Node14 -->
<g id="node14" class="node">
<title>Node14</title>
<g id="a_node14"><a xlink:href="classvae_1_1_engine_pimpl.html#af773bc095b97e185c17b23a702572479" target="_top" xlink:title="Tries to open default device and start audio thread.">
<polygon fill="none" stroke="black" points="0,-93.5 0,-112.5 130,-112.5 130,-93.5 0,-93.5"/>
<text text-anchor="middle" x="65" y="-100.5" font-family="Helvetica,sans-Serif" font-size="10.00">vae::EnginePimpl::start</text>
</a>
</g>
</g>
<!-- Node13&#45;&gt;Node14 -->
<g id="edge17" class="edge">
<title>Node13&#45;&gt;Node14</title>
<path fill="none" stroke="midnightblue" d="M155.5,-103C147.12,-103 138.52,-103 130.11,-103"/>
<polygon fill="midnightblue" stroke="midnightblue" points="155.59,-106.5 165.59,-103 155.59,-99.5 155.59,-106.5"/>
</g>
<!-- Node15&#45;&gt;Node13 -->
<g id="edge19" class="edge">
<title>Node15&#45;&gt;Node13</title>
<path fill="none" stroke="midnightblue" d="M308.58,-72.39C293.9,-77.49 278.13,-82.97 264.05,-87.86"/>
<polygon fill="midnightblue" stroke="midnightblue" points="309.75,-75.69 318.04,-69.1 307.45,-69.08 309.75,-75.69"/>
</g>
</g>
</svg>
        <g id="navigator" transform="translate(0 0)" fill="#404254">
                <rect fill="#f2f5e9" fill-opacity="0.5" stroke="#606060" stroke-width=".5" x="0" y="0" width="60" height="60"/>
                <use id="zoomplus" xlink:href="#zoomPlus" x="17" y="9" onmousedown="handleZoom(evt,'in')"/>
                <use id="zoomminus" xlink:href="#zoomMin" x="42" y="9" onmousedown="handleZoom(evt,'out')"/>
                <use id="reset" xlink:href="#resetDef" x="30" y="36" onmousedown="handleReset()"/>
                <g id="arrowUp" xlink:href="#dirArrow" transform="translate(30 24)" onmousedown="handlePan(0,-1)">
                  <use xlink:href="#rim" fill="#404040">
                        <set attributeName="fill" to="#808080" begin="arrowUp.mouseover" end="arrowUp.mouseout"/>
                  </use>
                  <path fill="none" stroke="white" stroke-width="1.5" d="M0,-3.0v7 M-2.5,-0.5L0,-3.0L2.5,-0.5"/>
                </g>
                <g id="arrowRight" xlink:href="#dirArrow" transform="rotate(90) translate(36 -43)" onmousedown="handlePan(1,0)">
                  <use xlink:href="#rim" fill="#404040">
                        <set attributeName="fill" to="#808080" begin="arrowRight.mouseover" end="arrowRight.mouseout"/>
                  </use>
                  <path fill="none" stroke="white" stroke-width="1.5" d="M0,-3.0v7 M-2.5,-0.5L0,-3.0L2.5,-0.5"/>
                </g>
                <g id="arrowDown" xlink:href="#dirArrow" transform="rotate(180) translate(-30 -48)" onmousedown="handlePan(0,1)">
                  <use xlink:href="#rim" fill="#404040">
                        <set attributeName="fill" to="#808080" begin="arrowDown.mouseover" end="arrowDown.mouseout"/>
                  </use>
                  <path fill="none" stroke="white" stroke-width="1.5" d="M0,-3.0v7 M-2.5,-0.5L0,-3.0L2.5,-0.5"/>
                </g>
                <g id="arrowLeft" xlink:href="#dirArrow" transform="rotate(270) translate(-36 17)" onmousedown="handlePan(-1,0)">
                  <use xlink:href="#rim" fill="#404040">
                        <set attributeName="fill" to="#808080" begin="arrowLeft.mouseover" end="arrowLeft.mouseout"/>
                  </use>
                  <path fill="none" stroke="white" stroke-width="1.5" d="M0,-3.0v7 M-2.5,-0.5L0,-3.0L2.5,-0.5"/>
                </g>
        </g>
        <svg viewBox="0 0 15 15" width="100%" height="30px" preserveAspectRatio="xMaxYMin meet">
         <g id="arrow_out" transform="scale(0.3 0.3)">
          <a xlink:href="classvae_1_1core_1_1_bank_manager_aef2d335fb63d6f4be9f5b4793e309c99_icgraph_org.svg" target="_base">
           <rect id="button" ry="5" rx="5" y="6" x="6" height="38" width="38"
                fill="#f2f5e9" fill-opacity="0.5" stroke="#606060" stroke-width="1.0"/>
           <path id="arrow"
             d="M 11.500037,31.436501 C 11.940474,20.09759 22.043105,11.32322 32.158766,21.979434 L 37.068811,17.246167 C 37.068811,17.246167 37.088388,32 37.088388,32 L 22.160133,31.978069 C 22.160133,31.978069 26.997745,27.140456 26.997745,27.140456 C 18.528582,18.264221 13.291696,25.230495 11.500037,31.436501 z"
             style="fill:#404040;"/>
          </a>
         </g>
        </svg>
</svg>
