<?xml version="1.0" encoding="UTF-8" standalone="no"?>
<!DOCTYPE svg PUBLIC "-//W3C//DTD SVG 1.1//EN"
 "http://www.w3.org/Graphics/SVG/1.1/DTD/svg11.dtd">
<!-- Generated by graphviz version 2.50.0 (0)
 -->
<!-- Title: vae::core::effect::EffectsList::add Pages: 1 -->
<svg width="316pt" height="100pt"
 viewBox="0.00 0.00 316.00 99.50" xmlns="http://www.w3.org/2000/svg" xmlns:xlink="http://www.w3.org/1999/xlink">
<g id="graph0" class="graph" transform="scale(1 1) rotate(0) translate(4 95.5)">
<title>vae::core::effect::EffectsList::add</title>
<!-- Node1 -->
<g id="node1" class="node">
<title>Node1</title>
<g id="a_node1"><a xlink:title=" ">
<polygon fill="#bfbfbf" stroke="black" points="206,-33 206,-63 308,-63 308,-33 206,-33"/>
<text text-anchor="start" x="214" y="-51" font-family="Helvetica,sans-Serif" font-size="10.00">vae::core::effect::</text>
<text text-anchor="middle" x="257" y="-40" font-family="Helvetica,sans-Serif" font-size="10.00">EffectsList::add</text>
</a>
</g>
</g>
<!-- Node2 -->
<g id="node2" class="node">
<title>Node2</title>
<g id="a_node2"><a xlink:href="structvae_1_1core_1_1effect_1_1_registermydsp.html#a5fec3f318d9fd63d02ba96b89d95b96d" target="_top" xlink:title=" ">
<polygon fill="none" stroke="black" points="0,-61 0,-91 170,-91 170,-61 0,-61"/>
<text text-anchor="start" x="8" y="-79" font-family="Helvetica,sans-Serif" font-size="10.00">vae::core::effect::</text>
<text text-anchor="middle" x="85" y="-68" font-family="Helvetica,sans-Serif" font-size="10.00">Registermydsp::Registermydsp</text>
</a>
</g>
</g>
<!-- Node1&#45;&gt;Node2 -->
<g id="edge1" class="edge">
<title>Node1&#45;&gt;Node2</title>
<path fill="none" stroke="midnightblue" d="M195.92,-57.9C187.57,-59.27 178.86,-60.71 170.17,-62.14"/>
<polygon fill="midnightblue" stroke="midnightblue" points="196.62,-61.33 205.91,-56.25 195.48,-54.42 196.62,-61.33"/>
</g>
<!-- Node3 -->
<g id="node3" class="node">
<title>Node3</title>
<g id="a_node3"><a xlink:href="structvae_1_1core_1_1effect_1_1_register_v_a_e_reverb.html#a990fa08f1721c2402d148df6462056e1" target="_top" xlink:title=" ">
<polygon fill="none" stroke="black" points="6,-0.5 6,-41.5 164,-41.5 164,-0.5 6,-0.5"/>
<text text-anchor="start" x="14" y="-29.5" font-family="Helvetica,sans-Serif" font-size="10.00">vae::core::effect::</text>
<text text-anchor="start" x="14" y="-18.5" font-family="Helvetica,sans-Serif" font-size="10.00">RegisterVAEReverb::Register</text>
<text text-anchor="middle" x="85" y="-7.5" font-family="Helvetica,sans-Serif" font-size="10.00">VAEReverb</text>
</a>
</g>
</g>
<!-- Node1&#45;&gt;Node3 -->
<g id="edge2" class="edge">
<title>Node1&#45;&gt;Node3</title>
<path fill="none" stroke="midnightblue" d="M195.84,-38.45C185.57,-36.81 174.77,-35.1 164.11,-33.41"/>
<polygon fill="midnightblue" stroke="midnightblue" points="195.49,-41.93 205.91,-40.05 196.59,-35.02 195.49,-41.93"/>
</g>
</g>
</svg>
