<?xml version="1.0" encoding="UTF-8" standalone="no"?>
<!DOCTYPE svg PUBLIC "-//W3C//DTD SVG 1.1//EN"
 "http://www.w3.org/Graphics/SVG/1.1/DTD/svg11.dtd">
<!-- Generated by graphviz version 2.50.0 (0)
 -->
<!-- Title: tklb::BaseDelegate&lt; Parameters &gt; Pages: 1 -->
<svg width="158pt" height="376pt"
 viewBox="0.00 0.00 158.00 376.00" xmlns="http://www.w3.org/2000/svg" xmlns:xlink="http://www.w3.org/1999/xlink">
<g id="graph0" class="graph" transform="scale(1 1) rotate(0) translate(4 372)">
<title>tklb::BaseDelegate&lt; Parameters &gt;</title>
<!-- Node1 -->
<g id="node1" class="node">
<title>Node1</title>
<g id="a_node1"><a xlink:title="Stripped down version of this delegate implementation https://github.com/marcmo/delegates/tree/f0938d...">
<polygon fill="#bfbfbf" stroke="black" points="4,-266.5 4,-367.5 114,-367.5 114,-266.5 4,-266.5"/>
<text text-anchor="start" x="12" y="-355.5" font-family="Helvetica,sans-Serif" font-size="10.00">tklb::BaseDelegate</text>
<text text-anchor="middle" x="59" y="-344.5" font-family="Helvetica,sans-Serif" font-size="10.00">&lt; Parameters &gt;</text>
<polyline fill="none" stroke="black" points="4,-337.5 114,-337.5 "/>
<text text-anchor="start" x="12" y="-325.5" font-family="Helvetica,sans-Serif" font-size="10.00"># mContext</text>
<text text-anchor="start" x="12" y="-314.5" font-family="Helvetica,sans-Serif" font-size="10.00"># mCallback</text>
<polyline fill="none" stroke="black" points="4,-307.5 114,-307.5 "/>
<text text-anchor="start" x="12" y="-295.5" font-family="Helvetica,sans-Serif" font-size="10.00">+ BaseDelegate()</text>
<text text-anchor="start" x="12" y="-284.5" font-family="Helvetica,sans-Serif" font-size="10.00">+ operator()()</text>
<text text-anchor="start" x="12" y="-273.5" font-family="Helvetica,sans-Serif" font-size="10.00">+ valid()</text>
</a>
</g>
</g>
<!-- Node2 -->
<g id="node2" class="node">
<title>Node2</title>
<g id="a_node2"><a xlink:href="classtklb_1_1_base_delegate.html" target="_top" xlink:title=" ">
<polygon fill="none" stroke="black" points="4,-117.5 4,-218.5 114,-218.5 114,-117.5 4,-117.5"/>
<text text-anchor="start" x="12" y="-206.5" font-family="Helvetica,sans-Serif" font-size="10.00">tklb::BaseDelegate</text>
<text text-anchor="middle" x="59" y="-195.5" font-family="Helvetica,sans-Serif" font-size="10.00">&lt; Parameters... &gt;</text>
<polyline fill="none" stroke="black" points="4,-188.5 114,-188.5 "/>
<text text-anchor="start" x="12" y="-176.5" font-family="Helvetica,sans-Serif" font-size="10.00"># mContext</text>
<text text-anchor="start" x="12" y="-165.5" font-family="Helvetica,sans-Serif" font-size="10.00"># mCallback</text>
<polyline fill="none" stroke="black" points="4,-158.5 114,-158.5 "/>
<text text-anchor="start" x="12" y="-146.5" font-family="Helvetica,sans-Serif" font-size="10.00">+ BaseDelegate()</text>
<text text-anchor="start" x="12" y="-135.5" font-family="Helvetica,sans-Serif" font-size="10.00">+ operator()()</text>
<text text-anchor="start" x="12" y="-124.5" font-family="Helvetica,sans-Serif" font-size="10.00">+ valid()</text>
</a>
</g>
</g>
<!-- Node1&#45;&gt;Node2 -->
<g id="edge1" class="edge">
<title>Node1&#45;&gt;Node2</title>
<path fill="none" stroke="orange" d="M59,-255.99C59,-243.6 59,-230.69 59,-218.72"/>
<polygon fill="orange" stroke="orange" points="55.5,-256.23 59,-266.23 62.5,-256.23 55.5,-256.23"/>
<text text-anchor="middle" x="104.5" y="-240" font-family="Helvetica,sans-Serif" font-size="10.00"> &lt; Parameters... &gt;</text>
</g>
<!-- Node3 -->
<g id="node3" class="node">
<title>Node3</title>
<g id="a_node3"><a xlink:href="structtklb_1_1_delegate_3_01void_07_parameters_8_8_8_08_4.html" target="_top" xlink:title=" ">
<polygon fill="none" stroke="black" points="0,-0.5 0,-79.5 118,-79.5 118,-0.5 0,-0.5"/>
<text text-anchor="start" x="8" y="-67.5" font-family="Helvetica,sans-Serif" font-size="10.00">tklb::Delegate&lt; void</text>
<text text-anchor="middle" x="59" y="-56.5" font-family="Helvetica,sans-Serif" font-size="10.00">(Parameters...)&gt;</text>
<polyline fill="none" stroke="black" points="0,-49.5 118,-49.5 "/>
<text text-anchor="middle" x="59" y="-37.5" font-family="Helvetica,sans-Serif" font-size="10.00"> </text>
<polyline fill="none" stroke="black" points="0,-30.5 118,-30.5 "/>
<text text-anchor="start" x="8" y="-18.5" font-family="Helvetica,sans-Serif" font-size="10.00">+ Delegate()</text>
<text text-anchor="start" x="8" y="-7.5" font-family="Helvetica,sans-Serif" font-size="10.00">+ Delegate()</text>
</a>
</g>
</g>
<!-- Node2&#45;&gt;Node3 -->
<g id="edge2" class="edge">
<title>Node2&#45;&gt;Node3</title>
<path fill="none" stroke="midnightblue" d="M59,-107.11C59,-97.74 59,-88.28 59,-79.56"/>
<polygon fill="none" stroke="midnightblue" points="55.5,-107.2 59,-117.2 62.5,-107.2 55.5,-107.2"/>
</g>
</g>
</svg>
