<?xml version="1.0" encoding="UTF-8" standalone="no"?>
<!DOCTYPE svg PUBLIC "-//W3C//DTD SVG 1.1//EN"
 "http://www.w3.org/Graphics/SVG/1.1/DTD/svg11.dtd">
<!-- Generated by graphviz version 2.50.0 (0)
 -->
<!-- Title: vae::core::DevicePortaudio::openDevice Pages: 1 -->
<svg width="865pt" height="313pt"
 viewBox="0.00 0.00 865.00 312.50" xmlns="http://www.w3.org/2000/svg" xmlns:xlink="http://www.w3.org/1999/xlink">
<g id="graph0" class="graph" transform="scale(1 1) rotate(0) translate(4 308.5)">
<title>vae::core::DevicePortaudio::openDevice</title>
<!-- Node1 -->
<g id="node1" class="node">
<title>Node1</title>
<g id="a_node1"><a xlink:title="Opens a specific audio device.">
<polygon fill="#bfbfbf" stroke="black" points="0,-110.5 0,-140.5 148,-140.5 148,-110.5 0,-110.5"/>
<text text-anchor="start" x="8" y="-128.5" font-family="Helvetica,sans-Serif" font-size="10.00">vae::core::DevicePortaudio</text>
<text text-anchor="middle" x="74" y="-117.5" font-family="Helvetica,sans-Serif" font-size="10.00">::openDevice</text>
</a>
</g>
</g>
<!-- Node2 -->
<g id="node2" class="node">
<title>Node2</title>
<g id="a_node2"><a xlink:href="classvae_1_1core_1_1_device_portaudio.html#aba133c5030ad89a04ac7d2024f7eeee0" target="_top" xlink:title="Function called from the PortAudio thread.">
<polygon fill="none" stroke="black" points="184,-203.5 184,-233.5 332,-233.5 332,-203.5 184,-203.5"/>
<text text-anchor="start" x="192" y="-221.5" font-family="Helvetica,sans-Serif" font-size="10.00">vae::core::DevicePortaudio</text>
<text text-anchor="middle" x="258" y="-210.5" font-family="Helvetica,sans-Serif" font-size="10.00">::AudioCallback</text>
</a>
</g>
</g>
<!-- Node1&#45;&gt;Node2 -->
<g id="edge1" class="edge">
<title>Node1&#45;&gt;Node2</title>
<path fill="none" stroke="midnightblue" d="M95.42,-140.6C116.69,-155.79 151.39,-179.11 184,-194.5 187.87,-196.33 191.91,-198.07 196.03,-199.73"/>
<polygon fill="midnightblue" stroke="midnightblue" points="195.12,-203.13 205.71,-203.42 197.62,-196.59 195.12,-203.13"/>
</g>
<!-- Node3 -->
<g id="node3" class="node">
<title>Node3</title>
<g id="a_node3"><a xlink:href="classvae_1_1core_1_1_device_portaudio.html#a1b57895bf5a931a42b73ab6bfa9bb5e7" target="_top" xlink:title=" ">
<polygon fill="none" stroke="black" points="184,-154.5 184,-184.5 332,-184.5 332,-154.5 184,-154.5"/>
<text text-anchor="start" x="192" y="-172.5" font-family="Helvetica,sans-Serif" font-size="10.00">vae::core::DevicePortaudio</text>
<text text-anchor="middle" x="258" y="-161.5" font-family="Helvetica,sans-Serif" font-size="10.00">::cleanUp</text>
</a>
</g>
</g>
<!-- Node1&#45;&gt;Node3 -->
<g id="edge2" class="edge">
<title>Node1&#45;&gt;Node3</title>
<path fill="none" stroke="midnightblue" d="M137.13,-140.52C152.56,-144.25 169.23,-148.28 185.09,-152.12"/>
<polygon fill="midnightblue" stroke="midnightblue" points="184.3,-155.53 194.85,-154.47 185.95,-148.72 184.3,-155.53"/>
</g>
<!-- Node4 -->
<g id="node4" class="node">
<title>Node4</title>
<g id="a_node4"><a xlink:href="classvae_1_1core_1_1_device.html#aaab56a24f9f040b6a4be004ff94eff40" target="_top" xlink:title="initializes buffers, queues and resamplers if needed Has to be called in openDevice once the samplera...">
<polygon fill="none" stroke="black" points="196.5,-116 196.5,-135 319.5,-135 319.5,-116 196.5,-116"/>
<text text-anchor="middle" x="258" y="-123" font-family="Helvetica,sans-Serif" font-size="10.00">vae::core::Device::init</text>
</a>
</g>
</g>
<!-- Node1&#45;&gt;Node4 -->
<g id="edge3" class="edge">
<title>Node1&#45;&gt;Node4</title>
<path fill="none" stroke="midnightblue" d="M148.24,-125.5C160.74,-125.5 173.71,-125.5 186.15,-125.5"/>
<polygon fill="midnightblue" stroke="midnightblue" points="186.45,-129 196.45,-125.5 186.45,-122 186.45,-129"/>
</g>
<!-- Node16 -->
<g id="node16" class="node">
<title>Node16</title>
<g id="a_node16"><a xlink:href="classvae_1_1core_1_1_device.html#aeafbeab17370280f5fb9cc8e2b0f4e70" target="_top" xlink:title=" ">
<polygon fill="none" stroke="black" points="204.5,-66.5 204.5,-96.5 311.5,-96.5 311.5,-66.5 204.5,-66.5"/>
<text text-anchor="start" x="212.5" y="-84.5" font-family="Helvetica,sans-Serif" font-size="10.00">vae::core::Device::</text>
<text text-anchor="middle" x="258" y="-73.5" font-family="Helvetica,sans-Serif" font-size="10.00">postInit</text>
</a>
</g>
</g>
<!-- Node1&#45;&gt;Node16 -->
<g id="edge19" class="edge">
<title>Node1&#45;&gt;Node16</title>
<path fill="none" stroke="midnightblue" d="M137.13,-110.48C155.63,-106.01 175.91,-101.1 194.45,-96.62"/>
<polygon fill="midnightblue" stroke="midnightblue" points="195.35,-100.01 204.25,-94.25 193.7,-93.2 195.35,-100.01"/>
</g>
<!-- Node18 -->
<g id="node18" class="node">
<title>Node18</title>
<g id="a_node18"><a xlink:href="classvae_1_1core_1_1_device_portaudio.html#a353f06026713d93bf65caa70d416f6c4" target="_top" xlink:title=" ">
<polygon fill="none" stroke="black" points="184,-17.5 184,-47.5 332,-47.5 332,-17.5 184,-17.5"/>
<text text-anchor="start" x="192" y="-35.5" font-family="Helvetica,sans-Serif" font-size="10.00">vae::core::DevicePortaudio</text>
<text text-anchor="middle" x="258" y="-24.5" font-family="Helvetica,sans-Serif" font-size="10.00">::StreamFinished</text>
</a>
</g>
</g>
<!-- Node1&#45;&gt;Node18 -->
<g id="edge21" class="edge">
<title>Node1&#45;&gt;Node18</title>
<path fill="none" stroke="midnightblue" d="M95.42,-110.4C116.69,-95.21 151.39,-71.89 184,-56.5 187.87,-54.67 191.91,-52.93 196.03,-51.27"/>
<polygon fill="midnightblue" stroke="midnightblue" points="197.62,-54.41 205.71,-47.58 195.12,-47.87 197.62,-54.41"/>
</g>
<!-- Node5 -->
<g id="node5" class="node">
<title>Node5</title>
<g id="a_node5"><a xlink:href="classtklb_1_1_resampler_speex_tpl.html#a65864672c63ce1be9a251232504d8dce" target="_top" xlink:title="Calculate a buffersize fit for the resampled result.">
<polygon fill="none" stroke="black" points="543,-50.5 543,-80.5 682,-80.5 682,-50.5 543,-50.5"/>
<text text-anchor="start" x="551" y="-68.5" font-family="Helvetica,sans-Serif" font-size="10.00">tklb::ResamplerSpeexTpl</text>
<text text-anchor="middle" x="612.5" y="-57.5" font-family="Helvetica,sans-Serif" font-size="10.00">::calculateBufferSize</text>
</a>
</g>
</g>
<!-- Node4&#45;&gt;Node5 -->
<g id="edge4" class="edge">
<title>Node4&#45;&gt;Node5</title>
<path fill="none" stroke="midnightblue" d="M304.37,-115.92C313.75,-113.16 323.39,-109.72 332,-105.5 349.96,-96.7 349.2,-85.33 368,-78.5 420.66,-59.37 483.94,-56.55 532.8,-58.28"/>
<polygon fill="midnightblue" stroke="midnightblue" points="532.85,-61.79 542.99,-58.71 533.15,-54.79 532.85,-61.79"/>
</g>
<!-- Node7 -->
<g id="node7" class="node">
<title>Node7</title>
<g id="a_node7"><a xlink:href="classtklb_1_1_resampler_speex_tpl.html#a7bab4da85cc386c5d34cf8ced0bd1092" target="_top" xlink:title="setup the resampler">
<polygon fill="none" stroke="black" points="368,-88.5 368,-118.5 507,-118.5 507,-88.5 368,-88.5"/>
<text text-anchor="start" x="376" y="-106.5" font-family="Helvetica,sans-Serif" font-size="10.00">tklb::ResamplerSpeexTpl</text>
<text text-anchor="middle" x="437.5" y="-95.5" font-family="Helvetica,sans-Serif" font-size="10.00">::init</text>
</a>
</g>
</g>
<!-- Node4&#45;&gt;Node7 -->
<g id="edge6" class="edge">
<title>Node4&#45;&gt;Node7</title>
<path fill="none" stroke="midnightblue" d="M319.59,-117.99C331.87,-116.47 344.96,-114.85 357.76,-113.26"/>
<polygon fill="midnightblue" stroke="midnightblue" points="358.46,-116.7 367.95,-112 357.6,-109.75 358.46,-116.7"/>
</g>
<!-- Node8 -->
<g id="node8" class="node">
<title>Node8</title>
<g id="a_node8"><a xlink:href="classtklb_1_1_audio_buffer_tpl.html#a35b40f6d6b1fc2939613b1b84313b0bc" target="_top" xlink:title="! Will not keep the contents! Resizes the buffer to the desired length and channel count.">
<polygon fill="none" stroke="black" points="555.5,-159.5 555.5,-189.5 669.5,-189.5 669.5,-159.5 555.5,-159.5"/>
<text text-anchor="start" x="563.5" y="-177.5" font-family="Helvetica,sans-Serif" font-size="10.00">tklb::AudioBufferTpl</text>
<text text-anchor="middle" x="612.5" y="-166.5" font-family="Helvetica,sans-Serif" font-size="10.00">::resize</text>
</a>
</g>
</g>
<!-- Node4&#45;&gt;Node8 -->
<g id="edge13" class="edge">
<title>Node4&#45;&gt;Node8</title>
<path fill="none" stroke="midnightblue" d="M301.33,-135.09C311.54,-137.95 322.31,-141.43 332,-145.5 349.08,-152.67 350.2,-161.37 368,-166.5 426.18,-183.26 495.42,-183.78 545.17,-180.98"/>
<polygon fill="midnightblue" stroke="midnightblue" points="545.4,-184.47 555.17,-180.36 544.97,-177.48 545.4,-184.47"/>
</g>
<!-- Node12 -->
<g id="node12" class="node">
<title>Node12</title>
<g id="a_node12"><a xlink:href="namespacetklb.html#a7dc2203e89c331e3c85b9e7f16fa6763" target="_top" xlink:title=" ">
<polygon fill="none" stroke="black" points="406,-138 406,-157 469,-157 469,-138 406,-138"/>
<text text-anchor="middle" x="437.5" y="-145" font-family="Helvetica,sans-Serif" font-size="10.00">tklb::max</text>
</a>
</g>
</g>
<!-- Node4&#45;&gt;Node12 -->
<g id="edge12" class="edge">
<title>Node4&#45;&gt;Node12</title>
<path fill="none" stroke="midnightblue" d="M319.59,-133.01C344.56,-136.1 372.85,-139.61 395.34,-142.4"/>
<polygon fill="midnightblue" stroke="midnightblue" points="395.2,-145.91 405.56,-143.66 396.06,-138.96 395.2,-145.91"/>
</g>
<!-- Node13 -->
<g id="node13" class="node">
<title>Node13</title>
<g id="a_node13"><a xlink:href="classtklb_1_1_audio_buffer_tpl.html#ab6e5250746ca3784a568591a3ffdbc12" target="_top" xlink:title="Set a single channel from an array.">
<polygon fill="none" stroke="black" points="545,-214 545,-233 680,-233 680,-214 545,-214"/>
<text text-anchor="middle" x="612.5" y="-221" font-family="Helvetica,sans-Serif" font-size="10.00">tklb::AudioBufferTpl::set</text>
</a>
</g>
</g>
<!-- Node4&#45;&gt;Node13 -->
<g id="edge14" class="edge">
<title>Node4&#45;&gt;Node13</title>
<path fill="none" stroke="midnightblue" d="M309.37,-135.04C317.29,-137.72 325.12,-141.14 332,-145.5 352.77,-158.66 346.48,-175.62 368,-187.5 418.92,-215.62 484.54,-224.01 534.82,-225.71"/>
<polygon fill="midnightblue" stroke="midnightblue" points="534.9,-229.21 544.99,-225.97 535.08,-222.21 534.9,-229.21"/>
</g>
<!-- Node6 -->
<g id="node6" class="node">
<title>Node6</title>
<g id="a_node6"><a xlink:href="classtklb_1_1_resampler_speex_tpl.html#a5b4b65f32dbcec425871cc26384d4643" target="_top" xlink:title="Estimate how many sample will be emitted in the next step.">
<polygon fill="none" stroke="black" points="718,-50.5 718,-80.5 857,-80.5 857,-50.5 718,-50.5"/>
<text text-anchor="start" x="726" y="-68.5" font-family="Helvetica,sans-Serif" font-size="10.00">tklb::ResamplerSpeexTpl</text>
<text text-anchor="middle" x="787.5" y="-57.5" font-family="Helvetica,sans-Serif" font-size="10.00">::estimateOut</text>
</a>
</g>
</g>
<!-- Node5&#45;&gt;Node6 -->
<g id="edge5" class="edge">
<title>Node5&#45;&gt;Node6</title>
<path fill="none" stroke="midnightblue" d="M682.37,-65.5C690.68,-65.5 699.21,-65.5 707.65,-65.5"/>
<polygon fill="midnightblue" stroke="midnightblue" points="707.87,-69 717.87,-65.5 707.87,-62 707.87,-69"/>
</g>
<!-- Node7&#45;&gt;Node5 -->
<g id="edge7" class="edge">
<title>Node7&#45;&gt;Node5</title>
<path fill="none" stroke="midnightblue" d="M506.87,-88.48C515.52,-86.58 524.42,-84.63 533.2,-82.7"/>
<polygon fill="midnightblue" stroke="midnightblue" points="534.04,-86.1 543.06,-80.53 532.54,-79.26 534.04,-86.1"/>
</g>
<!-- Node7&#45;&gt;Node8 -->
<g id="edge8" class="edge">
<title>Node7&#45;&gt;Node8</title>
<path fill="none" stroke="midnightblue" d="M481.05,-118.54C489.68,-121.73 498.66,-125.15 507,-128.5 527.77,-136.85 550.55,-146.78 569.52,-155.28"/>
<polygon fill="midnightblue" stroke="midnightblue" points="568.23,-158.54 578.79,-159.45 571.1,-152.15 568.23,-158.54"/>
</g>
<!-- Node9 -->
<g id="node9" class="node">
<title>Node9</title>
<g id="a_node9"><a xlink:href="classtklb_1_1_audio_buffer_tpl.html#a7859b26033cbb893c2ea7acea54d8013" target="_top" xlink:title="Returns the amount of channels.">
<polygon fill="none" stroke="black" points="730.5,-110.5 730.5,-140.5 844.5,-140.5 844.5,-110.5 730.5,-110.5"/>
<text text-anchor="start" x="738.5" y="-128.5" font-family="Helvetica,sans-Serif" font-size="10.00">tklb::AudioBufferTpl</text>
<text text-anchor="middle" x="787.5" y="-117.5" font-family="Helvetica,sans-Serif" font-size="10.00">::channels</text>
</a>
</g>
</g>
<!-- Node8&#45;&gt;Node9 -->
<g id="edge9" class="edge">
<title>Node8&#45;&gt;Node9</title>
<path fill="none" stroke="midnightblue" d="M666.82,-159.4C684.74,-154.32 704.91,-148.61 723.51,-143.34"/>
<polygon fill="midnightblue" stroke="midnightblue" points="724.69,-146.64 733.36,-140.55 722.78,-139.91 724.69,-146.64"/>
</g>
<!-- Node10 -->
<g id="node10" class="node">
<title>Node10</title>
<g id="a_node10"><a xlink:href="namespacetklb.html#a3080595da18d742645ec41d61828a426" target="_top" xlink:title=" ">
<polygon fill="none" stroke="black" points="757.5,-209 757.5,-228 817.5,-228 817.5,-209 757.5,-209"/>
<text text-anchor="middle" x="787.5" y="-216" font-family="Helvetica,sans-Serif" font-size="10.00">tklb::min</text>
</a>
</g>
</g>
<!-- Node8&#45;&gt;Node10 -->
<g id="edge10" class="edge">
<title>Node8&#45;&gt;Node10</title>
<path fill="none" stroke="midnightblue" d="M669.67,-188.79C695.11,-195.26 724.55,-202.75 747.52,-208.59"/>
<polygon fill="midnightblue" stroke="midnightblue" points="746.7,-211.99 757.26,-211.06 748.43,-205.21 746.7,-211.99"/>
</g>
<!-- Node11 -->
<g id="node11" class="node">
<title>Node11</title>
<g id="a_node11"><a xlink:href="classtklb_1_1_audio_buffer_tpl.html#af6df8d7e6840eee3f84807bd1662c3ed" target="_top" xlink:title="Returns the allocated length of the buffer.">
<polygon fill="none" stroke="black" points="730.5,-159.5 730.5,-189.5 844.5,-189.5 844.5,-159.5 730.5,-159.5"/>
<text text-anchor="start" x="738.5" y="-177.5" font-family="Helvetica,sans-Serif" font-size="10.00">tklb::AudioBufferTpl</text>
<text text-anchor="middle" x="787.5" y="-166.5" font-family="Helvetica,sans-Serif" font-size="10.00">::size</text>
</a>
</g>
</g>
<!-- Node8&#45;&gt;Node11 -->
<g id="edge11" class="edge">
<title>Node8&#45;&gt;Node11</title>
<path fill="none" stroke="midnightblue" d="M669.67,-174.5C685.76,-174.5 703.46,-174.5 720.11,-174.5"/>
<polygon fill="midnightblue" stroke="midnightblue" points="720.32,-178 730.32,-174.5 720.32,-171 720.32,-178"/>
</g>
<!-- Node13&#45;&gt;Node10 -->
<g id="edge17" class="edge">
<title>Node13&#45;&gt;Node10</title>
<path fill="none" stroke="midnightblue" d="M680.39,-221.57C702.95,-220.91 727.4,-220.21 747.14,-219.64"/>
<polygon fill="midnightblue" stroke="midnightblue" points="747.39,-223.13 757.28,-219.34 747.18,-216.13 747.39,-223.13"/>
</g>
<!-- Node13&#45;&gt;Node11 -->
<g id="edge18" class="edge">
<title>Node13&#45;&gt;Node11</title>
<path fill="none" stroke="midnightblue" d="M647.27,-213.94C668.98,-207.79 697.86,-199.61 723.68,-192.29"/>
<polygon fill="midnightblue" stroke="midnightblue" points="724.74,-195.63 733.41,-189.54 722.83,-188.89 724.74,-195.63"/>
</g>
<!-- Node14 -->
<g id="node14" class="node">
<title>Node14</title>
<g id="a_node14"><a xlink:href="namespacetklb_1_1memory.html#ab89ec197028f903f4ea125eae46c4a10" target="_top" xlink:title="memcpy wrapper">
<polygon fill="none" stroke="black" points="731.5,-285 731.5,-304 843.5,-304 843.5,-285 731.5,-285"/>
<text text-anchor="middle" x="787.5" y="-292" font-family="Helvetica,sans-Serif" font-size="10.00">tklb::memory::copy</text>
</a>
</g>
</g>
<!-- Node13&#45;&gt;Node14 -->
<g id="edge15" class="edge">
<title>Node13&#45;&gt;Node14</title>
<path fill="none" stroke="midnightblue" d="M630.42,-233.19C650.72,-244.5 686.02,-263.24 718,-275.5 724.05,-277.82 730.5,-279.99 736.93,-281.97"/>
<polygon fill="midnightblue" stroke="midnightblue" points="736.38,-285.45 746.96,-284.92 738.35,-278.74 736.38,-285.45"/>
</g>
<!-- Node15 -->
<g id="node15" class="node">
<title>Node15</title>
<g id="a_node15"><a xlink:href="classtklb_1_1_audio_buffer_tpl.html#aee0540e90ae2790f9a809917bc5a04fd" target="_top" xlink:title=" ">
<polygon fill="none" stroke="black" points="719.5,-247 719.5,-266 855.5,-266 855.5,-247 719.5,-247"/>
<text text-anchor="middle" x="787.5" y="-254" font-family="Helvetica,sans-Serif" font-size="10.00">tklb::AudioBufferTpl::get</text>
</a>
</g>
</g>
<!-- Node13&#45;&gt;Node15 -->
<g id="edge16" class="edge">
<title>Node13&#45;&gt;Node15</title>
<path fill="none" stroke="midnightblue" d="M663.54,-233.04C683.26,-236.81 706.08,-241.16 726.67,-245.09"/>
<polygon fill="midnightblue" stroke="midnightblue" points="726.09,-248.54 736.57,-246.98 727.41,-241.66 726.09,-248.54"/>
</g>
<!-- Node17 -->
<g id="node17" class="node">
<title>Node17</title>
<g id="a_node17"><a xlink:href="classvae_1_1core_1_1_backend.html#a27327edc7742e3c5ed32772706d0ef30" target="_top" xlink:title="Returns name of the api.">
<polygon fill="none" stroke="black" points="382.5,-0.5 382.5,-30.5 492.5,-30.5 492.5,-0.5 382.5,-0.5"/>
<text text-anchor="start" x="390.5" y="-18.5" font-family="Helvetica,sans-Serif" font-size="10.00">vae::core::Backend</text>
<text text-anchor="middle" x="437.5" y="-7.5" font-family="Helvetica,sans-Serif" font-size="10.00">::getName</text>
</a>
</g>
</g>
<!-- Node16&#45;&gt;Node17 -->
<g id="edge20" class="edge">
<title>Node16&#45;&gt;Node17</title>
<path fill="none" stroke="midnightblue" d="M303.89,-66.47C313.21,-63.26 322.95,-59.82 332,-56.5 350.99,-49.53 371.75,-41.47 389.74,-34.35"/>
<polygon fill="midnightblue" stroke="midnightblue" points="391.41,-37.46 399.41,-30.51 388.83,-30.95 391.41,-37.46"/>
</g>
</g>
</svg>
