<?xml version="1.0" encoding="UTF-8" standalone="no"?>
<!DOCTYPE svg PUBLIC "-//W3C//DTD SVG 1.1//EN"
 "http://www.w3.org/Graphics/SVG/1.1/DTD/svg11.dtd">
<!-- Generated by graphviz version 2.50.0 (0)
 -->
<!-- Title: tklb::AudioRingBufferTpl::peek Pages: 1 -->
<svg width="487pt" height="154pt"
 viewBox="0.00 0.00 487.00 153.50" xmlns="http://www.w3.org/2000/svg" xmlns:xlink="http://www.w3.org/1999/xlink">
<g id="graph0" class="graph" transform="scale(1 1) rotate(0) translate(4 149.5)">
<title>tklb::AudioRingBufferTpl::peek</title>
<!-- Node1 -->
<g id="node1" class="node">
<title>Node1</title>
<g id="a_node1"><a xlink:title="Puts a number of elements in the buffer provided.">
<polygon fill="#bfbfbf" stroke="black" points="0,-38.5 0,-68.5 136,-68.5 136,-38.5 0,-38.5"/>
<text text-anchor="start" x="8" y="-56.5" font-family="Helvetica,sans-Serif" font-size="10.00">tklb::AudioRingBufferTpl</text>
<text text-anchor="middle" x="68" y="-45.5" font-family="Helvetica,sans-Serif" font-size="10.00">::peek</text>
</a>
</g>
</g>
<!-- Node2 -->
<g id="node2" class="node">
<title>Node2</title>
<g id="a_node2"><a xlink:href="classtklb_1_1_audio_buffer_tpl.html#ab6e5250746ca3784a568591a3ffdbc12" target="_top" xlink:title="Set a single channel from an array.">
<polygon fill="none" stroke="black" points="172,-88 172,-107 307,-107 307,-88 172,-88"/>
<text text-anchor="middle" x="239.5" y="-95" font-family="Helvetica,sans-Serif" font-size="10.00">tklb::AudioBufferTpl::set</text>
</a>
</g>
</g>
<!-- Node1&#45;&gt;Node2 -->
<g id="edge1" class="edge">
<title>Node1&#45;&gt;Node2</title>
<path fill="none" stroke="midnightblue" d="M126.86,-68.52C148.11,-74.04 171.87,-80.2 192,-85.43"/>
<polygon fill="midnightblue" stroke="midnightblue" points="191.3,-88.86 201.86,-87.99 193.06,-82.09 191.3,-88.86"/>
</g>
<!-- Node6 -->
<g id="node6" class="node">
<title>Node6</title>
<g id="a_node6"><a xlink:href="classtklb_1_1_audio_buffer_tpl.html#af6df8d7e6840eee3f84807bd1662c3ed" target="_top" xlink:title="Returns the allocated length of the buffer.">
<polygon fill="none" stroke="black" points="354,-0.5 354,-30.5 468,-30.5 468,-0.5 354,-0.5"/>
<text text-anchor="start" x="362" y="-18.5" font-family="Helvetica,sans-Serif" font-size="10.00">tklb::AudioBufferTpl</text>
<text text-anchor="middle" x="411" y="-7.5" font-family="Helvetica,sans-Serif" font-size="10.00">::size</text>
</a>
</g>
</g>
<!-- Node1&#45;&gt;Node6 -->
<g id="edge9" class="edge">
<title>Node1&#45;&gt;Node6</title>
<path fill="none" stroke="midnightblue" d="M122.89,-38.45C138.61,-34.6 155.89,-30.87 172,-28.5 229.59,-20.01 295.76,-16.93 343.68,-15.87"/>
<polygon fill="midnightblue" stroke="midnightblue" points="344,-19.36 353.93,-15.67 343.86,-12.37 344,-19.36"/>
</g>
<!-- Node7 -->
<g id="node7" class="node">
<title>Node7</title>
<g id="a_node7"><a xlink:href="classtklb_1_1_audio_buffer_tpl.html#ab4e27a0d2eca612dcfc2a6a1c8678428" target="_top" xlink:title="Set the amount of valid samples currently in the buffer This is mostly a convenience flag since the a...">
<polygon fill="none" stroke="black" points="182.5,-38.5 182.5,-68.5 296.5,-68.5 296.5,-38.5 182.5,-38.5"/>
<text text-anchor="start" x="190.5" y="-56.5" font-family="Helvetica,sans-Serif" font-size="10.00">tklb::AudioBufferTpl</text>
<text text-anchor="middle" x="239.5" y="-45.5" font-family="Helvetica,sans-Serif" font-size="10.00">::setValidSize</text>
</a>
</g>
</g>
<!-- Node1&#45;&gt;Node7 -->
<g id="edge6" class="edge">
<title>Node1&#45;&gt;Node7</title>
<path fill="none" stroke="midnightblue" d="M136.48,-53.5C148.26,-53.5 160.51,-53.5 172.25,-53.5"/>
<polygon fill="midnightblue" stroke="midnightblue" points="172.43,-57 182.43,-53.5 172.43,-50 172.43,-57"/>
</g>
<!-- Node3 -->
<g id="node3" class="node">
<title>Node3</title>
<g id="a_node3"><a xlink:href="namespacetklb_1_1memory.html#ab89ec197028f903f4ea125eae46c4a10" target="_top" xlink:title="memcpy wrapper">
<polygon fill="none" stroke="black" points="355,-126 355,-145 467,-145 467,-126 355,-126"/>
<text text-anchor="middle" x="411" y="-133" font-family="Helvetica,sans-Serif" font-size="10.00">tklb::memory::copy</text>
</a>
</g>
</g>
<!-- Node2&#45;&gt;Node3 -->
<g id="edge2" class="edge">
<title>Node2&#45;&gt;Node3</title>
<path fill="none" stroke="midnightblue" d="M283.27,-107.09C305.84,-112.15 333.72,-118.4 357.58,-123.75"/>
<polygon fill="midnightblue" stroke="midnightblue" points="357.01,-127.21 367.54,-125.98 358.54,-120.38 357.01,-127.21"/>
</g>
<!-- Node4 -->
<g id="node4" class="node">
<title>Node4</title>
<g id="a_node4"><a xlink:href="classtklb_1_1_audio_buffer_tpl.html#aee0540e90ae2790f9a809917bc5a04fd" target="_top" xlink:title=" ">
<polygon fill="none" stroke="black" points="343,-88 343,-107 479,-107 479,-88 343,-88"/>
<text text-anchor="middle" x="411" y="-95" font-family="Helvetica,sans-Serif" font-size="10.00">tklb::AudioBufferTpl::get</text>
</a>
</g>
</g>
<!-- Node2&#45;&gt;Node4 -->
<g id="edge3" class="edge">
<title>Node2&#45;&gt;Node4</title>
<path fill="none" stroke="midnightblue" d="M307,-97.5C315.47,-97.5 324.19,-97.5 332.81,-97.5"/>
<polygon fill="midnightblue" stroke="midnightblue" points="332.85,-101 342.85,-97.5 332.85,-94 332.85,-101"/>
</g>
<!-- Node5 -->
<g id="node5" class="node">
<title>Node5</title>
<g id="a_node5"><a xlink:href="namespacetklb.html#a3080595da18d742645ec41d61828a426" target="_top" xlink:title=" ">
<polygon fill="none" stroke="black" points="381,-50 381,-69 441,-69 441,-50 381,-50"/>
<text text-anchor="middle" x="411" y="-57" font-family="Helvetica,sans-Serif" font-size="10.00">tklb::min</text>
</a>
</g>
</g>
<!-- Node2&#45;&gt;Node5 -->
<g id="edge4" class="edge">
<title>Node2&#45;&gt;Node5</title>
<path fill="none" stroke="midnightblue" d="M283.27,-87.91C310.2,-81.87 344.69,-74.14 370.89,-68.27"/>
<polygon fill="midnightblue" stroke="midnightblue" points="371.85,-71.64 380.84,-66.04 370.32,-64.81 371.85,-71.64"/>
</g>
<!-- Node2&#45;&gt;Node6 -->
<g id="edge5" class="edge">
<title>Node2&#45;&gt;Node6</title>
<path fill="none" stroke="midnightblue" d="M286.22,-87.96C293.45,-85.47 300.64,-82.36 307,-78.5 326.89,-66.43 323.6,-53.34 343,-40.5 345.94,-38.56 349.04,-36.74 352.25,-35.04"/>
<polygon fill="midnightblue" stroke="midnightblue" points="354.01,-38.07 361.48,-30.56 350.95,-31.78 354.01,-38.07"/>
</g>
<!-- Node7&#45;&gt;Node5 -->
<g id="edge7" class="edge">
<title>Node7&#45;&gt;Node5</title>
<path fill="none" stroke="midnightblue" d="M296.94,-55.5C321.11,-56.35 348.74,-57.33 370.64,-58.11"/>
<polygon fill="midnightblue" stroke="midnightblue" points="370.77,-61.61 380.89,-58.47 371.02,-54.62 370.77,-61.61"/>
</g>
<!-- Node7&#45;&gt;Node6 -->
<g id="edge8" class="edge">
<title>Node7&#45;&gt;Node6</title>
<path fill="none" stroke="midnightblue" d="M296.94,-40.85C311.95,-37.48 328.3,-33.82 343.78,-30.35"/>
<polygon fill="midnightblue" stroke="midnightblue" points="344.81,-33.7 353.81,-28.1 343.28,-26.87 344.81,-33.7"/>
</g>
</g>
</svg>
