<?xml version="1.0" encoding="UTF-8" standalone="no"?>
<!DOCTYPE svg PUBLIC "-//W3C//DTD SVG 1.1//EN"
 "http://www.w3.org/Graphics/SVG/1.1/DTD/svg11.dtd">
<!-- Generated by graphviz version 2.50.0 (0)
 -->
<!-- Title: dev Pages: 1 -->
<svg width="238pt" height="204pt"
 viewBox="0.00 0.00 238.00 204.00" xmlns="http://www.w3.org/2000/svg" xmlns:xlink="http://www.w3.org/1999/xlink">
<g id="graph0" class="graph" transform="scale(1 1) rotate(0) translate(4 200)">
<title>dev</title>
<g id="clust1" class="cluster">
<title>clusterdir_5fc0168d11760b9445bd29fa15d9290f</title>
<g id="a_clust1"><a xlink:href="dir_5fc0168d11760b9445bd29fa15d9290f.html" target="_top">
<polygon fill="#eeeeff" stroke="black" points="8,-136 8,-188 222,-188 222,-136 8,-136"/>
</a>
</g>
</g>
<!-- dir_5fc0168d11760b9445bd29fa15d9290f -->
<g id="node1" class="node">
<title>dir_5fc0168d11760b9445bd29fa15d9290f</title>
<text text-anchor="middle" x="187" y="-159.5" font-family="Helvetica,sans-Serif" font-size="10.00">dev</text>
</g>
<!-- dir_68267d1309a1af8e8297ef4c3efbcdba -->
<g id="node4" class="node">
<title>dir_68267d1309a1af8e8297ef4c3efbcdba</title>
<g id="a_node4"><a xlink:href="dir_68267d1309a1af8e8297ef4c3efbcdba.html" target="_top" xlink:title="src">
<polygon fill="none" stroke="red" points="186,-108 132,-108 132,-72 186,-72 186,-108"/>
<text text-anchor="middle" x="159" y="-87.5" font-family="Helvetica,sans-Serif" font-size="10.00">src</text>
</a>
</g>
</g>
<!-- dir_5fc0168d11760b9445bd29fa15d9290f&#45;&gt;dir_68267d1309a1af8e8297ef4c3efbcdba -->
<g id="edge1" class="edge">
<title>dir_5fc0168d11760b9445bd29fa15d9290f&#45;&gt;dir_68267d1309a1af8e8297ef4c3efbcdba</title>
<path fill="none" stroke="black" d="M180.08,-143.7C176.93,-135.81 173.12,-126.3 169.62,-117.55"/>
<polygon fill="black" stroke="black" points="172.81,-116.09 165.84,-108.1 166.31,-118.69 172.81,-116.09"/>
<g id="a_edge1&#45;headlabel"><a xlink:href="dir_000000_000014.html" target="_top" xlink:title="1">
<text text-anchor="middle" x="176.78" y="-115.87" font-family="Helvetica,sans-Serif" font-size="10.00">1</text>
</a>
</g>
</g>
<!-- dir_d44c64559bbebec7f509842c48db8b23 -->
<g id="node5" class="node">
<title>dir_d44c64559bbebec7f509842c48db8b23</title>
<g id="a_node5"><a xlink:href="dir_d44c64559bbebec7f509842c48db8b23.html" target="_top" xlink:title="include">
<polygon fill="none" stroke="red" points="213,-36 159,-36 159,0 213,0 213,-36"/>
<text text-anchor="middle" x="186" y="-15.5" font-family="Helvetica,sans-Serif" font-size="10.00">include</text>
</a>
</g>
</g>
<!-- dir_5fc0168d11760b9445bd29fa15d9290f&#45;&gt;dir_d44c64559bbebec7f509842c48db8b23 -->
<g id="edge2" class="edge">
<title>dir_5fc0168d11760b9445bd29fa15d9290f&#45;&gt;dir_d44c64559bbebec7f509842c48db8b23</title>
<path fill="none" stroke="black" d="M190.25,-143.89C192.05,-133.54 194.09,-120.06 195,-108 196.2,-92.04 196.34,-87.94 195,-72 194.28,-63.5 192.93,-54.31 191.49,-46.01"/>
<polygon fill="black" stroke="black" points="194.91,-45.29 189.65,-36.09 188.03,-46.56 194.91,-45.29"/>
<g id="a_edge2&#45;headlabel"><a xlink:href="dir_000000_000012.html" target="_top" xlink:title="1">
<text text-anchor="middle" x="198.36" y="-45.81" font-family="Helvetica,sans-Serif" font-size="10.00">1</text>
</a>
</g>
</g>
<!-- dir_cf5356248fac2d03f73aaca4d313a525 -->
<g id="node2" class="node">
<title>dir_cf5356248fac2d03f73aaca4d313a525</title>
<g id="a_node2"><a xlink:href="dir_cf5356248fac2d03f73aaca4d313a525.html" target="_top" xlink:title="bank1">
<polygon fill="white" stroke="black" points="142,-180 88,-180 88,-144 142,-144 142,-180"/>
<text text-anchor="middle" x="115" y="-159.5" font-family="Helvetica,sans-Serif" font-size="10.00">bank1</text>
</a>
</g>
</g>
<!-- dir_afb1c48ea0a53f0f89317766002e149d -->
<g id="node3" class="node">
<title>dir_afb1c48ea0a53f0f89317766002e149d</title>
<g id="a_node3"><a xlink:href="dir_afb1c48ea0a53f0f89317766002e149d.html" target="_top" xlink:title="bank2">
<polygon fill="white" stroke="black" points="70,-180 16,-180 16,-144 70,-144 70,-180"/>
<text text-anchor="middle" x="43" y="-159.5" font-family="Helvetica,sans-Serif" font-size="10.00">bank2</text>
</a>
</g>
</g>
<!-- dir_68267d1309a1af8e8297ef4c3efbcdba&#45;&gt;dir_d44c64559bbebec7f509842c48db8b23 -->
<g id="edge3" class="edge">
<title>dir_68267d1309a1af8e8297ef4c3efbcdba&#45;&gt;dir_d44c64559bbebec7f509842c48db8b23</title>
<path fill="none" stroke="black" d="M165.67,-71.7C168.71,-63.81 172.38,-54.3 175.76,-45.55"/>
<polygon fill="black" stroke="black" points="179.07,-46.69 179.4,-36.1 172.54,-44.17 179.07,-46.69"/>
<g id="a_edge3&#45;headlabel"><a xlink:href="dir_000014_000012.html" target="_top" xlink:title="8">
<text text-anchor="middle" x="180.42" y="-48.57" font-family="Helvetica,sans-Serif" font-size="10.00">8</text>
</a>
</g>
</g>
</g>
</svg>
