<?xml version="1.0" encoding="UTF-8" standalone="no"?>
<!DOCTYPE svg PUBLIC "-//W3C//DTD SVG 1.1//EN"
 "http://www.w3.org/Graphics/SVG/1.1/DTD/svg11.dtd">
<!-- Generated by graphviz version 2.50.0 (0)
 -->
<!-- Title: memory Pages: 1 -->
<svg width="114pt" height="239pt"
 viewBox="0.00 0.00 114.00 239.00" xmlns="http://www.w3.org/2000/svg" xmlns:xlink="http://www.w3.org/1999/xlink">
<g id="graph0" class="graph" transform="scale(1 1) rotate(0) translate(4 235)">
<title>memory</title>
<g id="clust1" class="cluster">
<title>clusterdir_c7f531cac10487cfde7f715e165b4d2c</title>
<g id="a_clust1"><a xlink:href="dir_c7f531cac10487cfde7f715e165b4d2c.html" target="_top" xlink:title="src">
<polygon fill="#ddddee" stroke="black" points="8,-8 8,-223 98,-223 98,-8 8,-8"/>
<text text-anchor="middle" x="53" y="-211" font-family="Helvetica,sans-Serif" font-size="10.00">src</text>
</a>
</g>
</g>
<!-- dir_b2b9fc2977bbb15a0a0b2b94568aebee -->
<g id="node1" class="node">
<title>dir_b2b9fc2977bbb15a0a0b2b94568aebee</title>
<g id="a_node1"><a xlink:href="dir_b2b9fc2977bbb15a0a0b2b94568aebee.html" target="_top" xlink:title="types">
<polygon fill="none" stroke="red" points="70,-124 16,-124 16,-88 70,-88 70,-124"/>
<text text-anchor="middle" x="43" y="-103.5" font-family="Helvetica,sans-Serif" font-size="10.00">types</text>
</a>
</g>
</g>
<!-- dir_f79f9e60c8fdd0febc8e637fa468e62f -->
<g id="node2" class="node">
<title>dir_f79f9e60c8fdd0febc8e637fa468e62f</title>
<g id="a_node2"><a xlink:href="dir_f79f9e60c8fdd0febc8e637fa468e62f.html" target="_top" xlink:title="util">
<polygon fill="none" stroke="black" points="80,-52 26,-52 26,-16 80,-16 80,-52"/>
<text text-anchor="middle" x="53" y="-31.5" font-family="Helvetica,sans-Serif" font-size="10.00">util</text>
</a>
</g>
</g>
<!-- dir_b2b9fc2977bbb15a0a0b2b94568aebee&#45;&gt;dir_f79f9e60c8fdd0febc8e637fa468e62f -->
<g id="edge3" class="edge">
<title>dir_b2b9fc2977bbb15a0a0b2b94568aebee&#45;&gt;dir_f79f9e60c8fdd0febc8e637fa468e62f</title>
<path fill="none" stroke="black" d="M45.47,-87.7C46.57,-79.98 47.9,-70.71 49.13,-62.11"/>
<polygon fill="black" stroke="black" points="52.61,-62.5 50.56,-52.1 45.68,-61.51 52.61,-62.5"/>
<g id="a_edge3&#45;headlabel"><a xlink:href="dir_000006_000011.html" target="_top" xlink:title="11">
<text text-anchor="middle" x="54.91" y="-63.96" font-family="Helvetica,sans-Serif" font-size="10.00">11</text>
</a>
</g>
</g>
<!-- dir_3e6b63f3878752d86c3a9ab5e5b5de68 -->
<g id="node3" class="node">
<title>dir_3e6b63f3878752d86c3a9ab5e5b5de68</title>
<g id="a_node3"><a xlink:href="dir_3e6b63f3878752d86c3a9ab5e5b5de68.html" target="_top" xlink:title="memory">
<polygon fill="#eeeeff" stroke="black" points="82,-196 24,-196 24,-160 82,-160 82,-196"/>
<text text-anchor="middle" x="53" y="-175.5" font-family="Helvetica,sans-Serif" font-size="10.00">memory</text>
</a>
</g>
</g>
<!-- dir_3e6b63f3878752d86c3a9ab5e5b5de68&#45;&gt;dir_b2b9fc2977bbb15a0a0b2b94568aebee -->
<g id="edge1" class="edge">
<title>dir_3e6b63f3878752d86c3a9ab5e5b5de68&#45;&gt;dir_b2b9fc2977bbb15a0a0b2b94568aebee</title>
<path fill="none" stroke="black" d="M50.53,-159.7C49.43,-151.98 48.1,-142.71 46.87,-134.11"/>
<polygon fill="black" stroke="black" points="50.32,-133.51 45.44,-124.1 43.39,-134.5 50.32,-133.51"/>
<g id="a_edge1&#45;headlabel"><a xlink:href="dir_000005_000006.html" target="_top" xlink:title="3">
<text text-anchor="middle" x="53.64" y="-134.17" font-family="Helvetica,sans-Serif" font-size="10.00">3</text>
</a>
</g>
</g>
<!-- dir_3e6b63f3878752d86c3a9ab5e5b5de68&#45;&gt;dir_f79f9e60c8fdd0febc8e637fa468e62f -->
<g id="edge2" class="edge">
<title>dir_3e6b63f3878752d86c3a9ab5e5b5de68&#45;&gt;dir_f79f9e60c8fdd0febc8e637fa468e62f</title>
<path fill="none" stroke="black" d="M64.05,-159.61C69.74,-149.62 76.08,-136.58 79,-124 82.62,-108.41 82.62,-103.59 79,-88 76.9,-78.96 73.03,-69.68 68.91,-61.47"/>
<polygon fill="black" stroke="black" points="71.86,-59.55 64.05,-52.39 65.69,-62.86 71.86,-59.55"/>
<g id="a_edge2&#45;headlabel"><a xlink:href="dir_000005_000011.html" target="_top" xlink:title="5">
<text text-anchor="middle" x="76.06" y="-58.88" font-family="Helvetica,sans-Serif" font-size="10.00">5</text>
</a>
</g>
</g>
</g>
</svg>
