<?xml version="1.0" encoding="UTF-8" standalone="no"?>
<!DOCTYPE svg PUBLIC "-//W3C//DTD SVG 1.1//EN"
 "http://www.w3.org/Graphics/SVG/1.1/DTD/svg11.dtd">
<!-- Generated by graphviz version 2.50.0 (0)
 -->
<!-- Title: resampler Pages: 1 -->
<svg width="115pt" height="223pt"
 viewBox="0.00 0.00 115.00 223.00" xmlns="http://www.w3.org/2000/svg" xmlns:xlink="http://www.w3.org/1999/xlink">
<g id="graph0" class="graph" transform="scale(1 1) rotate(0) translate(4 219)">
<title>resampler</title>
<g id="clust1" class="cluster">
<title>clusterdir_9f68f0c418992f28f13463c13982ef2c</title>
<g id="a_clust1"><a xlink:href="dir_9f68f0c418992f28f13463c13982ef2c.html" target="_top" xlink:title="audio">
<polygon fill="#ddddee" stroke="black" points="17,-136 17,-207 99,-207 99,-136 17,-136"/>
<text text-anchor="middle" x="58" y="-195" font-family="Helvetica,sans-Serif" font-size="10.00">audio</text>
</a>
</g>
</g>
<!-- dir_38bcf04d90206a0c33a8a894ba971acc -->
<g id="node1" class="node">
<title>dir_38bcf04d90206a0c33a8a894ba971acc</title>
<g id="a_node1"><a xlink:href="dir_38bcf04d90206a0c33a8a894ba971acc.html" target="_top" xlink:title="resampler">
<polygon fill="#eeeeff" stroke="black" points="91,-180 25,-180 25,-144 91,-144 91,-180"/>
<text text-anchor="middle" x="58" y="-159.5" font-family="Helvetica,sans-Serif" font-size="10.00">resampler</text>
</a>
</g>
</g>
<!-- dir_3e6b63f3878752d86c3a9ab5e5b5de68 -->
<g id="node2" class="node">
<title>dir_3e6b63f3878752d86c3a9ab5e5b5de68</title>
<g id="a_node2"><a xlink:href="dir_3e6b63f3878752d86c3a9ab5e5b5de68.html" target="_top" xlink:title="memory">
<polygon fill="none" stroke="black" points="58,-108 0,-108 0,-72 58,-72 58,-108"/>
<text text-anchor="middle" x="29" y="-87.5" font-family="Helvetica,sans-Serif" font-size="10.00">memory</text>
</a>
</g>
</g>
<!-- dir_38bcf04d90206a0c33a8a894ba971acc&#45;&gt;dir_3e6b63f3878752d86c3a9ab5e5b5de68 -->
<g id="edge1" class="edge">
<title>dir_38bcf04d90206a0c33a8a894ba971acc&#45;&gt;dir_3e6b63f3878752d86c3a9ab5e5b5de68</title>
<path fill="none" stroke="black" d="M50.83,-143.7C47.57,-135.81 43.63,-126.3 40,-117.55"/>
<polygon fill="black" stroke="black" points="43.15,-116 36.09,-108.1 36.68,-118.68 43.15,-116"/>
<g id="a_edge1&#45;headlabel"><a xlink:href="dir_000010_000005.html" target="_top" xlink:title="1">
<text text-anchor="middle" x="47.15" y="-115.74" font-family="Helvetica,sans-Serif" font-size="10.00">1</text>
</a>
</g>
</g>
<!-- dir_f79f9e60c8fdd0febc8e637fa468e62f -->
<g id="node3" class="node">
<title>dir_f79f9e60c8fdd0febc8e637fa468e62f</title>
<g id="a_node3"><a xlink:href="dir_f79f9e60c8fdd0febc8e637fa468e62f.html" target="_top" xlink:title="util">
<polygon fill="none" stroke="black" points="84,-36 30,-36 30,0 84,0 84,-36"/>
<text text-anchor="middle" x="57" y="-15.5" font-family="Helvetica,sans-Serif" font-size="10.00">util</text>
</a>
</g>
</g>
<!-- dir_38bcf04d90206a0c33a8a894ba971acc&#45;&gt;dir_f79f9e60c8fdd0febc8e637fa468e62f -->
<g id="edge2" class="edge">
<title>dir_38bcf04d90206a0c33a8a894ba971acc&#45;&gt;dir_f79f9e60c8fdd0febc8e637fa468e62f</title>
<path fill="none" stroke="black" d="M61.65,-143.91C63.68,-133.57 65.98,-120.09 67,-108 68.34,-92.06 68.49,-87.93 67,-72 66.2,-63.48 64.7,-54.28 63.1,-45.99"/>
<polygon fill="black" stroke="black" points="66.5,-45.16 61.06,-36.07 59.64,-46.57 66.5,-45.16"/>
<g id="a_edge2&#45;headlabel"><a xlink:href="dir_000010_000011.html" target="_top" xlink:title="1">
<text text-anchor="middle" x="70.01" y="-45.61" font-family="Helvetica,sans-Serif" font-size="10.00">1</text>
</a>
</g>
</g>
<!-- dir_3e6b63f3878752d86c3a9ab5e5b5de68&#45;&gt;dir_f79f9e60c8fdd0febc8e637fa468e62f -->
<g id="edge3" class="edge">
<title>dir_3e6b63f3878752d86c3a9ab5e5b5de68&#45;&gt;dir_f79f9e60c8fdd0febc8e637fa468e62f</title>
<path fill="none" stroke="black" d="M35.92,-71.7C39.07,-63.81 42.88,-54.3 46.38,-45.55"/>
<polygon fill="black" stroke="black" points="49.69,-46.69 50.16,-36.1 43.19,-44.09 49.69,-46.69"/>
<g id="a_edge3&#45;headlabel"><a xlink:href="dir_000005_000011.html" target="_top" xlink:title="5">
<text text-anchor="middle" x="51" y="-48.58" font-family="Helvetica,sans-Serif" font-size="10.00">5</text>
</a>
</g>
</g>
</g>
</svg>
