<?xml version="1.0" encoding="UTF-8" standalone="no"?>
<!DOCTYPE svg PUBLIC "-//W3C//DTD SVG 1.1//EN"
 "http://www.w3.org/Graphics/SVG/1.1/DTD/svg11.dtd">
<!-- Generated by graphviz version 2.50.0 (0)
 -->
<!-- Title: core Pages: 1 -->
<svg width="429pt" height="327pt"
 viewBox="0.00 0.00 428.66 327.00" xmlns="http://www.w3.org/2000/svg" xmlns:xlink="http://www.w3.org/1999/xlink">
<g id="graph0" class="graph" transform="scale(1 1) rotate(0) translate(4 323)">
<title>core</title>
<g id="clust1" class="cluster">
<title>clusterdir_68267d1309a1af8e8297ef4c3efbcdba</title>
<g id="a_clust1"><a xlink:href="dir_68267d1309a1af8e8297ef4c3efbcdba.html" target="_top" xlink:title="src">
<polygon fill="#ddddee" stroke="black" points="8,-8 8,-311 346,-311 346,-8 8,-8"/>
<text text-anchor="middle" x="177" y="-299" font-family="Helvetica,sans-Serif" font-size="10.00">src</text>
</a>
</g>
</g>
<g id="clust2" class="cluster">
<title>clusterdir_aebb8dcc11953d78e620bbef0b9e2183</title>
<g id="a_clust2"><a xlink:href="dir_aebb8dcc11953d78e620bbef0b9e2183.html" target="_top">
<polygon fill="#eeeeff" stroke="black" points="16,-16 16,-284 270,-284 270,-16 16,-16"/>
</a>
</g>
</g>
<!-- dir_7340f4486b54b76d80e8ea0a84f61c55 -->
<g id="node1" class="node">
<title>dir_7340f4486b54b76d80e8ea0a84f61c55</title>
<g id="a_node1"><a xlink:href="dir_7340f4486b54b76d80e8ea0a84f61c55.html" target="_top" xlink:title="wrapped">
<polygon fill="none" stroke="black" points="337.5,-60 278.5,-60 278.5,-24 337.5,-24 337.5,-60"/>
<text text-anchor="middle" x="308" y="-39.5" font-family="Helvetica,sans-Serif" font-size="10.00">wrapped</text>
</a>
</g>
</g>
<!-- dir_aebb8dcc11953d78e620bbef0b9e2183 -->
<g id="node2" class="node">
<title>dir_aebb8dcc11953d78e620bbef0b9e2183</title>
<text text-anchor="middle" x="235" y="-255.5" font-family="Helvetica,sans-Serif" font-size="10.00">core</text>
</g>
<!-- dir_aebb8dcc11953d78e620bbef0b9e2183&#45;&gt;dir_7340f4486b54b76d80e8ea0a84f61c55 -->
<g id="edge8" class="edge">
<title>dir_aebb8dcc11953d78e620bbef0b9e2183&#45;&gt;dir_7340f4486b54b76d80e8ea0a84f61c55</title>
<path fill="none" stroke="black" d="M249.09,-239.82C256.59,-229.89 265.4,-216.85 271,-204 290.47,-159.36 300.39,-103.11 304.86,-70.28"/>
<polygon fill="black" stroke="black" points="308.37,-70.47 306.18,-60.1 301.43,-69.57 308.37,-70.47"/>
<g id="a_edge8&#45;headlabel"><a xlink:href="dir_000016_000028.html" target="_top" xlink:title="8">
<text text-anchor="middle" x="310.72" y="-71.9" font-family="Helvetica,sans-Serif" font-size="10.00">8</text>
</a>
</g>
</g>
<!-- dir_82037213e05c7748ea2cdf8fdb5c5467 -->
<g id="node4" class="node">
<title>dir_82037213e05c7748ea2cdf8fdb5c5467</title>
<g id="a_node4"><a xlink:href="dir_82037213e05c7748ea2cdf8fdb5c5467.html" target="_top" xlink:title="device">
<polygon fill="white" stroke="black" points="262,-204 208,-204 208,-168 262,-168 262,-204"/>
<text text-anchor="middle" x="235" y="-183.5" font-family="Helvetica,sans-Serif" font-size="10.00">device</text>
</a>
</g>
</g>
<!-- dir_aebb8dcc11953d78e620bbef0b9e2183&#45;&gt;dir_82037213e05c7748ea2cdf8fdb5c5467 -->
<g id="edge9" class="edge">
<title>dir_aebb8dcc11953d78e620bbef0b9e2183&#45;&gt;dir_82037213e05c7748ea2cdf8fdb5c5467</title>
<path fill="none" stroke="black" d="M235,-239.7C235,-231.98 235,-222.71 235,-214.11"/>
<polygon fill="black" stroke="black" points="238.5,-214.1 235,-204.1 231.5,-214.1 238.5,-214.1"/>
<g id="a_edge9&#45;headlabel"><a xlink:href="dir_000016_000018.html" target="_top" xlink:title="1">
<text text-anchor="middle" x="241.34" y="-215.2" font-family="Helvetica,sans-Serif" font-size="10.00">1</text>
</a>
</g>
</g>
<!-- dir_9eb355ec3f647b7a2d73a2942ed8fd08 -->
<g id="node5" class="node">
<title>dir_9eb355ec3f647b7a2d73a2942ed8fd08</title>
<g id="a_node5"><a xlink:href="dir_9eb355ec3f647b7a2d73a2942ed8fd08.html" target="_top" xlink:title="dsp">
<polygon fill="white" stroke="red" points="190,-132 136,-132 136,-96 190,-96 190,-132"/>
<text text-anchor="middle" x="163" y="-111.5" font-family="Helvetica,sans-Serif" font-size="10.00">dsp</text>
</a>
</g>
</g>
<!-- dir_aebb8dcc11953d78e620bbef0b9e2183&#45;&gt;dir_9eb355ec3f647b7a2d73a2942ed8fd08 -->
<g id="edge10" class="edge">
<title>dir_aebb8dcc11953d78e620bbef0b9e2183&#45;&gt;dir_9eb355ec3f647b7a2d73a2942ed8fd08</title>
<path fill="none" stroke="black" d="M218.09,-239.55C209.33,-229.74 199.02,-216.91 192,-204 181.35,-184.43 173.79,-160.3 169.07,-142.1"/>
<polygon fill="black" stroke="black" points="172.4,-141.02 166.61,-132.15 165.61,-142.7 172.4,-141.02"/>
<g id="a_edge10&#45;headlabel"><a xlink:href="dir_000016_000019.html" target="_top" xlink:title="3">
<text text-anchor="middle" x="176.02" y="-141.33" font-family="Helvetica,sans-Serif" font-size="10.00">3</text>
</a>
</g>
</g>
<!-- dir_dd67e4128c47c3819848d7cb1daba9a5 -->
<g id="node6" class="node">
<title>dir_dd67e4128c47c3819848d7cb1daba9a5</title>
<g id="a_node6"><a xlink:href="dir_dd67e4128c47c3819848d7cb1daba9a5.html" target="_top" xlink:title="fs">
<polygon fill="white" stroke="black" points="262,-132 208,-132 208,-96 262,-96 262,-132"/>
<text text-anchor="middle" x="235" y="-111.5" font-family="Helvetica,sans-Serif" font-size="10.00">fs</text>
</a>
</g>
</g>
<!-- dir_aebb8dcc11953d78e620bbef0b9e2183&#45;&gt;dir_dd67e4128c47c3819848d7cb1daba9a5 -->
<g id="edge13" class="edge">
<title>dir_aebb8dcc11953d78e620bbef0b9e2183&#45;&gt;dir_dd67e4128c47c3819848d7cb1daba9a5</title>
<path fill="none" stroke="black" d="M219.39,-239.77C211.63,-230.03 203.05,-217.18 199,-204 194.3,-188.71 194.3,-183.29 199,-168 202.01,-158.22 207.51,-148.62 213.32,-140.33"/>
<polygon fill="black" stroke="black" points="216.19,-142.33 219.39,-132.23 210.59,-138.13 216.19,-142.33"/>
<g id="a_edge13&#45;headlabel"><a xlink:href="dir_000016_000021.html" target="_top" xlink:title="2">
<text text-anchor="middle" x="216.31" y="-144.41" font-family="Helvetica,sans-Serif" font-size="10.00">2</text>
</a>
</g>
</g>
<!-- dir_b42f66d1e687c5f3131c356050d7cb28 -->
<g id="node8" class="node">
<title>dir_b42f66d1e687c5f3131c356050d7cb28</title>
<g id="a_node8"><a xlink:href="dir_b42f66d1e687c5f3131c356050d7cb28.html" target="_top" xlink:title="processor">
<polygon fill="white" stroke="black" points="150,-204 86,-204 86,-168 150,-168 150,-204"/>
<text text-anchor="middle" x="118" y="-183.5" font-family="Helvetica,sans-Serif" font-size="10.00">processor</text>
</a>
</g>
</g>
<!-- dir_aebb8dcc11953d78e620bbef0b9e2183&#45;&gt;dir_b42f66d1e687c5f3131c356050d7cb28 -->
<g id="edge11" class="edge">
<title>dir_aebb8dcc11953d78e620bbef0b9e2183&#45;&gt;dir_b42f66d1e687c5f3131c356050d7cb28</title>
<path fill="none" stroke="black" d="M207.86,-240.76C192.23,-231.41 172.35,-219.52 155.26,-209.29"/>
<polygon fill="black" stroke="black" points="157,-206.25 146.62,-204.12 153.41,-212.26 157,-206.25"/>
<g id="a_edge11&#45;headlabel"><a xlink:href="dir_000016_000023.html" target="_top" xlink:title="3">
<text text-anchor="middle" x="161.54" y="-203.16" font-family="Helvetica,sans-Serif" font-size="10.00">3</text>
</a>
</g>
</g>
<!-- dir_397d9aeee4af8edecac90968d93b57df -->
<g id="node10" class="node">
<title>dir_397d9aeee4af8edecac90968d93b57df</title>
<g id="a_node10"><a xlink:href="dir_397d9aeee4af8edecac90968d93b57df.html" target="_top" xlink:title="external">
<polygon fill="none" stroke="red" points="412.5,-60 355.5,-60 355.5,-24 412.5,-24 412.5,-60"/>
<text text-anchor="middle" x="384" y="-39.5" font-family="Helvetica,sans-Serif" font-size="10.00">external</text>
</a>
</g>
</g>
<!-- dir_aebb8dcc11953d78e620bbef0b9e2183&#45;&gt;dir_397d9aeee4af8edecac90968d93b57df -->
<g id="edge7" class="edge">
<title>dir_aebb8dcc11953d78e620bbef0b9e2183&#45;&gt;dir_397d9aeee4af8edecac90968d93b57df</title>
<path fill="none" stroke="black" d="M262.16,-250.15C289.42,-242.3 331.63,-227.42 362,-204 393.89,-179.41 404.1,-170.15 417,-132 422.13,-116.84 421.4,-111.38 417,-96 414.29,-86.51 409.33,-77.06 404.07,-68.83"/>
<polygon fill="black" stroke="black" points="406.86,-66.72 398.33,-60.43 401.08,-70.67 406.86,-66.72"/>
<g id="a_edge7&#45;headlabel"><a xlink:href="dir_000016_000001.html" target="_top" xlink:title="11">
<text text-anchor="middle" x="411.23" y="-65.58" font-family="Helvetica,sans-Serif" font-size="10.00">11</text>
</a>
</g>
</g>
<!-- dir_d44c64559bbebec7f509842c48db8b23 -->
<g id="node11" class="node">
<title>dir_d44c64559bbebec7f509842c48db8b23</title>
<g id="a_node11"><a xlink:href="dir_d44c64559bbebec7f509842c48db8b23.html" target="_top" xlink:title="include">
<polygon fill="none" stroke="red" points="408,-132 354,-132 354,-96 408,-96 408,-132"/>
<text text-anchor="middle" x="381" y="-111.5" font-family="Helvetica,sans-Serif" font-size="10.00">include</text>
</a>
</g>
</g>
<!-- dir_aebb8dcc11953d78e620bbef0b9e2183&#45;&gt;dir_d44c64559bbebec7f509842c48db8b23 -->
<g id="edge12" class="edge">
<title>dir_aebb8dcc11953d78e620bbef0b9e2183&#45;&gt;dir_d44c64559bbebec7f509842c48db8b23</title>
<path fill="none" stroke="black" d="M262.33,-247.98C284.48,-239.53 315.29,-225.02 336,-204 353.2,-186.54 365.14,-161.17 372.37,-141.99"/>
<polygon fill="black" stroke="black" points="375.76,-142.92 375.82,-132.32 369.16,-140.56 375.76,-142.92"/>
<g id="a_edge12&#45;headlabel"><a xlink:href="dir_000016_000012.html" target="_top" xlink:title="6">
<text text-anchor="middle" x="377.22" y="-144.76" font-family="Helvetica,sans-Serif" font-size="10.00">6</text>
</a>
</g>
</g>
<!-- dir_7493cc11b1cba56f1d61eb30404f1421 -->
<g id="node3" class="node">
<title>dir_7493cc11b1cba56f1d61eb30404f1421</title>
<g id="a_node3"><a xlink:href="dir_7493cc11b1cba56f1d61eb30404f1421.html" target="_top" xlink:title="algo">
<polygon fill="white" stroke="black" points="98,-132 44,-132 44,-96 98,-96 98,-132"/>
<text text-anchor="middle" x="71" y="-111.5" font-family="Helvetica,sans-Serif" font-size="10.00">algo</text>
</a>
</g>
</g>
<!-- dir_8d178eff61fd9051d0a6349aa081a778 -->
<g id="node7" class="node">
<title>dir_8d178eff61fd9051d0a6349aa081a778</title>
<g id="a_node7"><a xlink:href="dir_8d178eff61fd9051d0a6349aa081a778.html" target="_top" xlink:title="pod">
<polygon fill="white" stroke="black" points="175,-60 121,-60 121,-24 175,-24 175,-60"/>
<text text-anchor="middle" x="148" y="-39.5" font-family="Helvetica,sans-Serif" font-size="10.00">pod</text>
</a>
</g>
</g>
<!-- dir_7493cc11b1cba56f1d61eb30404f1421&#45;&gt;dir_8d178eff61fd9051d0a6349aa081a778 -->
<g id="edge1" class="edge">
<title>dir_7493cc11b1cba56f1d61eb30404f1421&#45;&gt;dir_8d178eff61fd9051d0a6349aa081a778</title>
<path fill="none" stroke="black" d="M90.03,-95.7C99.54,-87.05 111.21,-76.45 121.57,-67.03"/>
<polygon fill="black" stroke="black" points="124.14,-69.42 129.19,-60.1 119.43,-64.24 124.14,-69.42"/>
<g id="a_edge1&#45;headlabel"><a xlink:href="dir_000017_000022.html" target="_top" xlink:title="1">
<text text-anchor="middle" x="123.39" y="-71.44" font-family="Helvetica,sans-Serif" font-size="10.00">1</text>
</a>
</g>
</g>
<!-- dir_cfe09e883df77b3d057069625758d6d8 -->
<g id="node9" class="node">
<title>dir_cfe09e883df77b3d057069625758d6d8</title>
<g id="a_node9"><a xlink:href="dir_cfe09e883df77b3d057069625758d6d8.html" target="_top" xlink:title="voices">
<polygon fill="white" stroke="black" points="88,-60 34,-60 34,-24 88,-24 88,-60"/>
<text text-anchor="middle" x="61" y="-39.5" font-family="Helvetica,sans-Serif" font-size="10.00">voices</text>
</a>
</g>
</g>
<!-- dir_7493cc11b1cba56f1d61eb30404f1421&#45;&gt;dir_cfe09e883df77b3d057069625758d6d8 -->
<g id="edge2" class="edge">
<title>dir_7493cc11b1cba56f1d61eb30404f1421&#45;&gt;dir_cfe09e883df77b3d057069625758d6d8</title>
<path fill="none" stroke="black" d="M68.53,-95.7C67.43,-87.98 66.1,-78.71 64.87,-70.11"/>
<polygon fill="black" stroke="black" points="68.32,-69.51 63.44,-60.1 61.39,-70.5 68.32,-69.51"/>
<g id="a_edge2&#45;headlabel"><a xlink:href="dir_000017_000024.html" target="_top" xlink:title="1">
<text text-anchor="middle" x="71.64" y="-70.17" font-family="Helvetica,sans-Serif" font-size="10.00">1</text>
</a>
</g>
</g>
<!-- dir_82037213e05c7748ea2cdf8fdb5c5467&#45;&gt;dir_397d9aeee4af8edecac90968d93b57df -->
<g id="edge3" class="edge">
<title>dir_82037213e05c7748ea2cdf8fdb5c5467&#45;&gt;dir_397d9aeee4af8edecac90968d93b57df</title>
<path fill="none" stroke="black" d="M252.97,-167.87C279.26,-142.82 328.33,-96.05 358.39,-67.41"/>
<polygon fill="black" stroke="black" points="361.14,-69.62 365.96,-60.19 356.31,-64.55 361.14,-69.62"/>
<g id="a_edge3&#45;headlabel"><a xlink:href="dir_000018_000001.html" target="_top" xlink:title="2">
<text text-anchor="middle" x="360.5" y="-71.66" font-family="Helvetica,sans-Serif" font-size="10.00">2</text>
</a>
</g>
</g>
<!-- dir_82037213e05c7748ea2cdf8fdb5c5467&#45;&gt;dir_d44c64559bbebec7f509842c48db8b23 -->
<g id="edge4" class="edge">
<title>dir_82037213e05c7748ea2cdf8fdb5c5467&#45;&gt;dir_d44c64559bbebec7f509842c48db8b23</title>
<path fill="none" stroke="black" d="M262.12,-172C285.33,-160.87 318.94,-144.75 344.51,-132.5"/>
<polygon fill="black" stroke="black" points="346.03,-135.65 353.53,-128.17 343,-129.34 346.03,-135.65"/>
<g id="a_edge4&#45;headlabel"><a xlink:href="dir_000018_000012.html" target="_top" xlink:title="2">
<text text-anchor="middle" x="344.01" y="-137.26" font-family="Helvetica,sans-Serif" font-size="10.00">2</text>
</a>
</g>
</g>
<!-- dir_9eb355ec3f647b7a2d73a2942ed8fd08&#45;&gt;dir_7340f4486b54b76d80e8ea0a84f61c55 -->
<g id="edge5" class="edge">
<title>dir_9eb355ec3f647b7a2d73a2942ed8fd08&#45;&gt;dir_7340f4486b54b76d80e8ea0a84f61c55</title>
<path fill="none" stroke="black" d="M190.44,-100.07C210.83,-90.42 239.57,-76.75 269.15,-62.35"/>
<polygon fill="black" stroke="black" points="270.89,-65.4 278.35,-57.87 267.82,-59.1 270.89,-65.4"/>
<g id="a_edge5&#45;headlabel"><a xlink:href="dir_000019_000028.html" target="_top" xlink:title="2">
<text text-anchor="middle" x="268.91" y="-67.02" font-family="Helvetica,sans-Serif" font-size="10.00">2</text>
</a>
</g>
</g>
<!-- dir_9eb355ec3f647b7a2d73a2942ed8fd08&#45;&gt;dir_8d178eff61fd9051d0a6349aa081a778 -->
<g id="edge6" class="edge">
<title>dir_9eb355ec3f647b7a2d73a2942ed8fd08&#45;&gt;dir_8d178eff61fd9051d0a6349aa081a778</title>
<path fill="none" stroke="black" d="M159.29,-95.7C157.64,-87.98 155.65,-78.71 153.81,-70.11"/>
<polygon fill="black" stroke="black" points="157.18,-69.15 151.67,-60.1 150.34,-70.62 157.18,-69.15"/>
<g id="a_edge6&#45;headlabel"><a xlink:href="dir_000019_000022.html" target="_top" xlink:title="1">
<text text-anchor="middle" x="160.71" y="-69.57" font-family="Helvetica,sans-Serif" font-size="10.00">1</text>
</a>
</g>
</g>
<!-- dir_dd67e4128c47c3819848d7cb1daba9a5&#45;&gt;dir_7340f4486b54b76d80e8ea0a84f61c55 -->
<g id="edge20" class="edge">
<title>dir_dd67e4128c47c3819848d7cb1daba9a5&#45;&gt;dir_7340f4486b54b76d80e8ea0a84f61c55</title>
<path fill="none" stroke="black" d="M253.04,-95.7C262.06,-87.05 273.12,-76.45 282.94,-67.03"/>
<polygon fill="black" stroke="black" points="285.37,-69.55 290.16,-60.1 280.52,-64.5 285.37,-69.55"/>
<g id="a_edge20&#45;headlabel"><a xlink:href="dir_000021_000028.html" target="_top" xlink:title="3">
<text text-anchor="middle" x="284.74" y="-71.59" font-family="Helvetica,sans-Serif" font-size="10.00">3</text>
</a>
</g>
</g>
<!-- dir_dd67e4128c47c3819848d7cb1daba9a5&#45;&gt;dir_8d178eff61fd9051d0a6349aa081a778 -->
<g id="edge21" class="edge">
<title>dir_dd67e4128c47c3819848d7cb1daba9a5&#45;&gt;dir_8d178eff61fd9051d0a6349aa081a778</title>
<path fill="none" stroke="black" d="M213.49,-95.7C202.54,-86.88 189.05,-76.03 177.18,-66.47"/>
<polygon fill="black" stroke="black" points="179.24,-63.65 169.26,-60.1 174.86,-69.1 179.24,-63.65"/>
<g id="a_edge21&#45;headlabel"><a xlink:href="dir_000021_000022.html" target="_top" xlink:title="5">
<text text-anchor="middle" x="183.82" y="-61.19" font-family="Helvetica,sans-Serif" font-size="10.00">5</text>
</a>
</g>
</g>
<!-- dir_dd67e4128c47c3819848d7cb1daba9a5&#45;&gt;dir_397d9aeee4af8edecac90968d93b57df -->
<g id="edge19" class="edge">
<title>dir_dd67e4128c47c3819848d7cb1daba9a5&#45;&gt;dir_397d9aeee4af8edecac90968d93b57df</title>
<path fill="none" stroke="black" d="M262.07,-100.82C283.43,-91.14 314.21,-77.06 346.36,-61.71"/>
<polygon fill="black" stroke="black" points="347.96,-64.83 355.46,-57.35 344.93,-58.51 347.96,-64.83"/>
<g id="a_edge19&#45;headlabel"><a xlink:href="dir_000021_000001.html" target="_top" xlink:title="2">
<text text-anchor="middle" x="345.94" y="-66.44" font-family="Helvetica,sans-Serif" font-size="10.00">2</text>
</a>
</g>
</g>
<!-- dir_b42f66d1e687c5f3131c356050d7cb28&#45;&gt;dir_7493cc11b1cba56f1d61eb30404f1421 -->
<g id="edge14" class="edge">
<title>dir_b42f66d1e687c5f3131c356050d7cb28&#45;&gt;dir_7493cc11b1cba56f1d61eb30404f1421</title>
<path fill="none" stroke="black" d="M106.38,-167.7C100.86,-159.47 94.15,-149.48 88.07,-140.42"/>
<polygon fill="black" stroke="black" points="90.96,-138.46 82.48,-132.1 85.15,-142.36 90.96,-138.46"/>
<g id="a_edge14&#45;headlabel"><a xlink:href="dir_000023_000017.html" target="_top" xlink:title="2">
<text text-anchor="middle" x="95.33" y="-137.36" font-family="Helvetica,sans-Serif" font-size="10.00">2</text>
</a>
</g>
</g>
<!-- dir_b42f66d1e687c5f3131c356050d7cb28&#45;&gt;dir_9eb355ec3f647b7a2d73a2942ed8fd08 -->
<g id="edge16" class="edge">
<title>dir_b42f66d1e687c5f3131c356050d7cb28&#45;&gt;dir_9eb355ec3f647b7a2d73a2942ed8fd08</title>
<path fill="none" stroke="black" d="M129.12,-167.7C134.36,-159.56 140.7,-149.69 146.48,-140.7"/>
<polygon fill="black" stroke="black" points="149.54,-142.41 152,-132.1 143.65,-138.62 149.54,-142.41"/>
<g id="a_edge16&#45;headlabel"><a xlink:href="dir_000023_000019.html" target="_top" xlink:title="1">
<text text-anchor="middle" x="149.99" y="-144.47" font-family="Helvetica,sans-Serif" font-size="10.00">1</text>
</a>
</g>
</g>
<!-- dir_b42f66d1e687c5f3131c356050d7cb28&#45;&gt;dir_dd67e4128c47c3819848d7cb1daba9a5 -->
<g id="edge18" class="edge">
<title>dir_b42f66d1e687c5f3131c356050d7cb28&#45;&gt;dir_dd67e4128c47c3819848d7cb1daba9a5</title>
<path fill="none" stroke="black" d="M146.62,-167.88C162.38,-158.45 182.08,-146.66 198.89,-136.61"/>
<polygon fill="black" stroke="black" points="201.1,-139.36 207.88,-131.23 197.5,-133.36 201.1,-139.36"/>
<g id="a_edge18&#45;headlabel"><a xlink:href="dir_000023_000021.html" target="_top" xlink:title="1">
<text text-anchor="middle" x="199.47" y="-141.15" font-family="Helvetica,sans-Serif" font-size="10.00">1</text>
</a>
</g>
</g>
<!-- dir_b42f66d1e687c5f3131c356050d7cb28&#45;&gt;dir_8d178eff61fd9051d0a6349aa081a778 -->
<g id="edge15" class="edge">
<title>dir_b42f66d1e687c5f3131c356050d7cb28&#45;&gt;dir_8d178eff61fd9051d0a6349aa081a778</title>
<path fill="none" stroke="black" d="M118.34,-167.7C119.02,-149.59 121.04,-120.44 127,-96 129.16,-87.15 132.47,-77.82 135.84,-69.49"/>
<polygon fill="black" stroke="black" points="139.07,-70.84 139.75,-60.27 132.63,-68.11 139.07,-70.84"/>
<g id="a_edge15&#45;headlabel"><a xlink:href="dir_000023_000022.html" target="_top" xlink:title="6">
<text text-anchor="middle" x="140.28" y="-72.76" font-family="Helvetica,sans-Serif" font-size="10.00">6</text>
</a>
</g>
</g>
<!-- dir_b42f66d1e687c5f3131c356050d7cb28&#45;&gt;dir_cfe09e883df77b3d057069625758d6d8 -->
<g id="edge17" class="edge">
<title>dir_b42f66d1e687c5f3131c356050d7cb28&#45;&gt;dir_cfe09e883df77b3d057069625758d6d8</title>
<path fill="none" stroke="black" d="M85.66,-173.48C67.24,-165.06 45.76,-151.64 35,-132 24.15,-112.19 33,-87.37 43.22,-68.97"/>
<polygon fill="black" stroke="black" points="46.3,-70.63 48.42,-60.25 40.29,-67.04 46.3,-70.63"/>
<g id="a_edge17&#45;headlabel"><a xlink:href="dir_000023_000024.html" target="_top" xlink:title="7">
<text text-anchor="middle" x="46.9" y="-72.67" font-family="Helvetica,sans-Serif" font-size="10.00">7</text>
</a>
</g>
</g>
</g>
</svg>
