<?xml version="1.0" encoding="UTF-8" standalone="no"?>
<!DOCTYPE svg PUBLIC "-//W3C//DTD SVG 1.1//EN"
 "http://www.w3.org/Graphics/SVG/1.1/DTD/svg11.dtd">
<!-- Generated by graphviz version 2.50.0 (0)
 -->
<!-- Title: experiments Pages: 1 -->
<svg width="118pt" height="167pt"
 viewBox="0.00 0.00 118.00 167.00" xmlns="http://www.w3.org/2000/svg" xmlns:xlink="http://www.w3.org/1999/xlink">
<g id="graph0" class="graph" transform="scale(1 1) rotate(0) translate(4 163)">
<title>experiments</title>
<g id="clust1" class="cluster">
<title>clusterdir_1878f15b5ec11442f9b61cb37225148b</title>
<g id="a_clust1"><a xlink:href="dir_1878f15b5ec11442f9b61cb37225148b.html" target="_top" xlink:title="tklb">
<polygon fill="#ddddee" stroke="black" points="8,-8 8,-151 102,-151 102,-8 8,-8"/>
<text text-anchor="middle" x="55" y="-139" font-family="Helvetica,sans-Serif" font-size="10.00">tklb</text>
</a>
</g>
</g>
<!-- dir_c7f531cac10487cfde7f715e165b4d2c -->
<g id="node1" class="node">
<title>dir_c7f531cac10487cfde7f715e165b4d2c</title>
<g id="a_node1"><a xlink:href="dir_c7f531cac10487cfde7f715e165b4d2c.html" target="_top" xlink:title="src">
<polygon fill="none" stroke="red" points="82,-52 28,-52 28,-16 82,-16 82,-52"/>
<text text-anchor="middle" x="55" y="-31.5" font-family="Helvetica,sans-Serif" font-size="10.00">src</text>
</a>
</g>
</g>
<!-- dir_8399d9a78d571d378bda7af44b107519 -->
<g id="node2" class="node">
<title>dir_8399d9a78d571d378bda7af44b107519</title>
<g id="a_node2"><a xlink:href="dir_8399d9a78d571d378bda7af44b107519.html" target="_top" xlink:title="experiments">
<polygon fill="#eeeeff" stroke="black" points="94,-124 16,-124 16,-88 94,-88 94,-124"/>
<text text-anchor="middle" x="55" y="-103.5" font-family="Helvetica,sans-Serif" font-size="10.00">experiments</text>
</a>
</g>
</g>
<!-- dir_8399d9a78d571d378bda7af44b107519&#45;&gt;dir_c7f531cac10487cfde7f715e165b4d2c -->
<g id="edge1" class="edge">
<title>dir_8399d9a78d571d378bda7af44b107519&#45;&gt;dir_c7f531cac10487cfde7f715e165b4d2c</title>
<path fill="none" stroke="black" d="M55,-87.7C55,-79.98 55,-70.71 55,-62.11"/>
<polygon fill="black" stroke="black" points="58.5,-62.1 55,-52.1 51.5,-62.1 58.5,-62.1"/>
<g id="a_edge1&#45;headlabel"><a xlink:href="dir_000003_000004.html" target="_top" xlink:title="2">
<text text-anchor="middle" x="61.34" y="-63.2" font-family="Helvetica,sans-Serif" font-size="10.00">2</text>
</a>
</g>
</g>
</g>
</svg>
