<?xml version="1.0" encoding="UTF-8" standalone="no"?>
<!DOCTYPE svg PUBLIC "-//W3C//DTD SVG 1.1//EN"
 "http://www.w3.org/Graphics/SVG/1.1/DTD/svg11.dtd">
<!-- Generated by graphviz version 2.50.0 (0)
 -->
<!-- Title: algo Pages: 1 -->
<svg width="166pt" height="167pt"
 viewBox="0.00 0.00 166.00 167.00" xmlns="http://www.w3.org/2000/svg" xmlns:xlink="http://www.w3.org/1999/xlink">
<g id="graph0" class="graph" transform="scale(1 1) rotate(0) translate(4 163)">
<title>algo</title>
<g id="clust1" class="cluster">
<title>clusterdir_aebb8dcc11953d78e620bbef0b9e2183</title>
<g id="a_clust1"><a xlink:href="dir_aebb8dcc11953d78e620bbef0b9e2183.html" target="_top" xlink:title="core">
<polygon fill="#ddddee" stroke="black" points="8,-8 8,-151 150,-151 150,-8 8,-8"/>
<text text-anchor="middle" x="79" y="-139" font-family="Helvetica,sans-Serif" font-size="10.00">core</text>
</a>
</g>
</g>
<!-- dir_8d178eff61fd9051d0a6349aa081a778 -->
<g id="node1" class="node">
<title>dir_8d178eff61fd9051d0a6349aa081a778</title>
<g id="a_node1"><a xlink:href="dir_8d178eff61fd9051d0a6349aa081a778.html" target="_top" xlink:title="pod">
<polygon fill="none" stroke="black" points="70,-52 16,-52 16,-16 70,-16 70,-52"/>
<text text-anchor="middle" x="43" y="-31.5" font-family="Helvetica,sans-Serif" font-size="10.00">pod</text>
</a>
</g>
</g>
<!-- dir_cfe09e883df77b3d057069625758d6d8 -->
<g id="node2" class="node">
<title>dir_cfe09e883df77b3d057069625758d6d8</title>
<g id="a_node2"><a xlink:href="dir_cfe09e883df77b3d057069625758d6d8.html" target="_top" xlink:title="voices">
<polygon fill="none" stroke="black" points="142,-52 88,-52 88,-16 142,-16 142,-52"/>
<text text-anchor="middle" x="115" y="-31.5" font-family="Helvetica,sans-Serif" font-size="10.00">voices</text>
</a>
</g>
</g>
<!-- dir_7493cc11b1cba56f1d61eb30404f1421 -->
<g id="node3" class="node">
<title>dir_7493cc11b1cba56f1d61eb30404f1421</title>
<g id="a_node3"><a xlink:href="dir_7493cc11b1cba56f1d61eb30404f1421.html" target="_top" xlink:title="algo">
<polygon fill="#eeeeff" stroke="black" points="106,-124 52,-124 52,-88 106,-88 106,-124"/>
<text text-anchor="middle" x="79" y="-103.5" font-family="Helvetica,sans-Serif" font-size="10.00">algo</text>
</a>
</g>
</g>
<!-- dir_7493cc11b1cba56f1d61eb30404f1421&#45;&gt;dir_8d178eff61fd9051d0a6349aa081a778 -->
<g id="edge1" class="edge">
<title>dir_7493cc11b1cba56f1d61eb30404f1421&#45;&gt;dir_8d178eff61fd9051d0a6349aa081a778</title>
<path fill="none" stroke="black" d="M70.1,-87.7C66,-79.73 61.05,-70.1 56.51,-61.26"/>
<polygon fill="black" stroke="black" points="59.48,-59.4 51.8,-52.1 53.26,-62.6 59.48,-59.4"/>
<g id="a_edge1&#45;headlabel"><a xlink:href="dir_000017_000022.html" target="_top" xlink:title="1">
<text text-anchor="middle" x="63.65" y="-58.79" font-family="Helvetica,sans-Serif" font-size="10.00">1</text>
</a>
</g>
</g>
<!-- dir_7493cc11b1cba56f1d61eb30404f1421&#45;&gt;dir_cfe09e883df77b3d057069625758d6d8 -->
<g id="edge2" class="edge">
<title>dir_7493cc11b1cba56f1d61eb30404f1421&#45;&gt;dir_cfe09e883df77b3d057069625758d6d8</title>
<path fill="none" stroke="black" d="M87.9,-87.7C92,-79.73 96.95,-70.1 101.49,-61.26"/>
<polygon fill="black" stroke="black" points="104.74,-62.6 106.2,-52.1 98.52,-59.4 104.74,-62.6"/>
<g id="a_edge2&#45;headlabel"><a xlink:href="dir_000017_000024.html" target="_top" xlink:title="1">
<text text-anchor="middle" x="105.62" y="-64.59" font-family="Helvetica,sans-Serif" font-size="10.00">1</text>
</a>
</g>
</g>
</g>
</svg>
