<?xml version="1.0" encoding="UTF-8" standalone="no"?>
<!DOCTYPE svg PUBLIC "-//W3C//DTD SVG 1.1//EN"
 "http://www.w3.org/Graphics/SVG/1.1/DTD/svg11.dtd">
<!-- Generated by graphviz version 2.50.0 (0)
 -->
<!-- Title: convolver Pages: 1 -->
<svg width="160pt" height="167pt"
 viewBox="0.00 0.00 160.00 167.00" xmlns="http://www.w3.org/2000/svg" xmlns:xlink="http://www.w3.org/1999/xlink">
<g id="graph0" class="graph" transform="scale(1 1) rotate(0) translate(4 163)">
<title>convolver</title>
<g id="clust1" class="cluster">
<title>clusterdir_9f68f0c418992f28f13463c13982ef2c</title>
<g id="a_clust1"><a xlink:href="dir_9f68f0c418992f28f13463c13982ef2c.html" target="_top" xlink:title="audio">
<polygon fill="#ddddee" stroke="black" points="8,-8 8,-151 90,-151 90,-8 8,-8"/>
<text text-anchor="middle" x="49" y="-139" font-family="Helvetica,sans-Serif" font-size="10.00">audio</text>
</a>
</g>
</g>
<!-- dir_169e44f6736c1c4608c9d4289abea401 -->
<g id="node1" class="node">
<title>dir_169e44f6736c1c4608c9d4289abea401</title>
<g id="a_node1"><a xlink:href="dir_169e44f6736c1c4608c9d4289abea401.html" target="_top" xlink:title="fft">
<polygon fill="none" stroke="black" points="76,-52 22,-52 22,-16 76,-16 76,-52"/>
<text text-anchor="middle" x="49" y="-31.5" font-family="Helvetica,sans-Serif" font-size="10.00">fft</text>
</a>
</g>
</g>
<!-- dir_2b451d480adb581af85845cda3e94901 -->
<g id="node2" class="node">
<title>dir_2b451d480adb581af85845cda3e94901</title>
<g id="a_node2"><a xlink:href="dir_2b451d480adb581af85845cda3e94901.html" target="_top" xlink:title="convolver">
<polygon fill="#eeeeff" stroke="black" points="81.5,-124 16.5,-124 16.5,-88 81.5,-88 81.5,-124"/>
<text text-anchor="middle" x="49" y="-103.5" font-family="Helvetica,sans-Serif" font-size="10.00">convolver</text>
</a>
</g>
</g>
<!-- dir_2b451d480adb581af85845cda3e94901&#45;&gt;dir_169e44f6736c1c4608c9d4289abea401 -->
<g id="edge1" class="edge">
<title>dir_2b451d480adb581af85845cda3e94901&#45;&gt;dir_169e44f6736c1c4608c9d4289abea401</title>
<path fill="none" stroke="black" d="M49,-87.7C49,-79.98 49,-70.71 49,-62.11"/>
<polygon fill="black" stroke="black" points="52.5,-62.1 49,-52.1 45.5,-62.1 52.5,-62.1"/>
<g id="a_edge1&#45;headlabel"><a xlink:href="dir_000008_000009.html" target="_top" xlink:title="1">
<text text-anchor="middle" x="55.34" y="-63.2" font-family="Helvetica,sans-Serif" font-size="10.00">1</text>
</a>
</g>
</g>
<!-- dir_f79f9e60c8fdd0febc8e637fa468e62f -->
<g id="node3" class="node">
<title>dir_f79f9e60c8fdd0febc8e637fa468e62f</title>
<g id="a_node3"><a xlink:href="dir_f79f9e60c8fdd0febc8e637fa468e62f.html" target="_top" xlink:title="util">
<polygon fill="none" stroke="black" points="152,-52 98,-52 98,-16 152,-16 152,-52"/>
<text text-anchor="middle" x="125" y="-31.5" font-family="Helvetica,sans-Serif" font-size="10.00">util</text>
</a>
</g>
</g>
<!-- dir_2b451d480adb581af85845cda3e94901&#45;&gt;dir_f79f9e60c8fdd0febc8e637fa468e62f -->
<g id="edge2" class="edge">
<title>dir_2b451d480adb581af85845cda3e94901&#45;&gt;dir_f79f9e60c8fdd0febc8e637fa468e62f</title>
<path fill="none" stroke="black" d="M67.79,-87.7C77.17,-79.05 88.68,-68.45 98.91,-59.03"/>
<polygon fill="black" stroke="black" points="101.45,-61.45 106.43,-52.1 96.7,-56.3 101.45,-61.45"/>
<g id="a_edge2&#45;headlabel"><a xlink:href="dir_000008_000011.html" target="_top" xlink:title="5">
<text text-anchor="middle" x="100.72" y="-63.48" font-family="Helvetica,sans-Serif" font-size="10.00">5</text>
</a>
</g>
</g>
</g>
</svg>
