<?xml version="1.0" encoding="UTF-8" standalone="no"?>
<!DOCTYPE svg PUBLIC "-//W3C//DTD SVG 1.1//EN"
 "http://www.w3.org/Graphics/SVG/1.1/DTD/svg11.dtd">
<!-- Generated by graphviz version 2.50.0 (0)
 -->
<!-- Title: src Pages: 1 -->
<svg width="296pt" height="220pt"
 viewBox="0.00 0.00 296.00 220.00" xmlns="http://www.w3.org/2000/svg" xmlns:xlink="http://www.w3.org/1999/xlink">
<g id="graph0" class="graph" transform="scale(1 1) rotate(0) translate(4 216)">
<title>src</title>
<g id="clust1" class="cluster">
<title>clusterdir_68267d1309a1af8e8297ef4c3efbcdba</title>
<g id="a_clust1"><a xlink:href="dir_68267d1309a1af8e8297ef4c3efbcdba.html" target="_top">
<polygon fill="#eeeeff" stroke="black" points="8,-8 8,-204 150,-204 150,-8 8,-8"/>
</a>
</g>
</g>
<!-- dir_68267d1309a1af8e8297ef4c3efbcdba -->
<g id="node1" class="node">
<title>dir_68267d1309a1af8e8297ef4c3efbcdba</title>
<text text-anchor="middle" x="115" y="-175.5" font-family="Helvetica,sans-Serif" font-size="10.00">src</text>
</g>
<!-- dir_da61e3e9a357748887e3ca8d7c5a0c16 -->
<g id="node2" class="node">
<title>dir_da61e3e9a357748887e3ca8d7c5a0c16</title>
<g id="a_node2"><a xlink:href="dir_da61e3e9a357748887e3ca8d7c5a0c16.html" target="_top" xlink:title="api">
<polygon fill="white" stroke="black" points="70,-196 16,-196 16,-160 70,-160 70,-196"/>
<text text-anchor="middle" x="43" y="-175.5" font-family="Helvetica,sans-Serif" font-size="10.00">api</text>
</a>
</g>
</g>
<!-- dir_aebb8dcc11953d78e620bbef0b9e2183 -->
<g id="node3" class="node">
<title>dir_aebb8dcc11953d78e620bbef0b9e2183</title>
<g id="a_node3"><a xlink:href="dir_aebb8dcc11953d78e620bbef0b9e2183.html" target="_top" xlink:title="core">
<polygon fill="white" stroke="red" points="140,-124 86,-124 86,-88 140,-88 140,-124"/>
<text text-anchor="middle" x="113" y="-103.5" font-family="Helvetica,sans-Serif" font-size="10.00">core</text>
</a>
</g>
</g>
<!-- dir_da61e3e9a357748887e3ca8d7c5a0c16&#45;&gt;dir_aebb8dcc11953d78e620bbef0b9e2183 -->
<g id="edge4" class="edge">
<title>dir_da61e3e9a357748887e3ca8d7c5a0c16&#45;&gt;dir_aebb8dcc11953d78e620bbef0b9e2183</title>
<path fill="none" stroke="black" d="M60.3,-159.7C68.86,-151.14 79.34,-140.66 88.7,-131.3"/>
<polygon fill="black" stroke="black" points="91.3,-133.65 95.9,-124.1 86.35,-128.7 91.3,-133.65"/>
<g id="a_edge4&#45;headlabel"><a xlink:href="dir_000015_000016.html" target="_top" xlink:title="1">
<text text-anchor="middle" x="90.77" y="-135.7" font-family="Helvetica,sans-Serif" font-size="10.00">1</text>
</a>
</g>
</g>
<!-- dir_d44c64559bbebec7f509842c48db8b23 -->
<g id="node6" class="node">
<title>dir_d44c64559bbebec7f509842c48db8b23</title>
<g id="a_node6"><a xlink:href="dir_d44c64559bbebec7f509842c48db8b23.html" target="_top" xlink:title="include">
<polygon fill="none" stroke="red" points="288,-52 234,-52 234,-16 288,-16 288,-52"/>
<text text-anchor="middle" x="261" y="-31.5" font-family="Helvetica,sans-Serif" font-size="10.00">include</text>
</a>
</g>
</g>
<!-- dir_da61e3e9a357748887e3ca8d7c5a0c16&#45;&gt;dir_d44c64559bbebec7f509842c48db8b23 -->
<g id="edge5" class="edge">
<title>dir_da61e3e9a357748887e3ca8d7c5a0c16&#45;&gt;dir_d44c64559bbebec7f509842c48db8b23</title>
<path fill="none" stroke="black" d="M70.19,-164.2C96.71,-151.57 135.03,-132.9 149,-124 179.96,-104.26 212.52,-77.64 234.5,-58.66"/>
<polygon fill="black" stroke="black" points="236.85,-61.26 242.1,-52.05 232.26,-55.98 236.85,-61.26"/>
<g id="a_edge5&#45;headlabel"><a xlink:href="dir_000015_000012.html" target="_top" xlink:title="1">
<text text-anchor="middle" x="236.01" y="-63.26" font-family="Helvetica,sans-Serif" font-size="10.00">1</text>
</a>
</g>
</g>
<!-- dir_7340f4486b54b76d80e8ea0a84f61c55 -->
<g id="node4" class="node">
<title>dir_7340f4486b54b76d80e8ea0a84f61c55</title>
<g id="a_node4"><a xlink:href="dir_7340f4486b54b76d80e8ea0a84f61c55.html" target="_top" xlink:title="wrapped">
<polygon fill="white" stroke="black" points="140.5,-52 81.5,-52 81.5,-16 140.5,-16 140.5,-52"/>
<text text-anchor="middle" x="111" y="-31.5" font-family="Helvetica,sans-Serif" font-size="10.00">wrapped</text>
</a>
</g>
</g>
<!-- dir_aebb8dcc11953d78e620bbef0b9e2183&#45;&gt;dir_7340f4486b54b76d80e8ea0a84f61c55 -->
<g id="edge2" class="edge">
<title>dir_aebb8dcc11953d78e620bbef0b9e2183&#45;&gt;dir_7340f4486b54b76d80e8ea0a84f61c55</title>
<path fill="none" stroke="black" d="M112.51,-87.7C112.29,-79.98 112.02,-70.71 111.77,-62.11"/>
<polygon fill="black" stroke="black" points="115.27,-62 111.49,-52.1 108.28,-62.2 115.27,-62"/>
<g id="a_edge2&#45;headlabel"><a xlink:href="dir_000016_000028.html" target="_top" xlink:title="9">
<text text-anchor="middle" x="118.21" y="-63.01" font-family="Helvetica,sans-Serif" font-size="10.00">9</text>
</a>
</g>
</g>
<!-- dir_397d9aeee4af8edecac90968d93b57df -->
<g id="node5" class="node">
<title>dir_397d9aeee4af8edecac90968d93b57df</title>
<g id="a_node5"><a xlink:href="dir_397d9aeee4af8edecac90968d93b57df.html" target="_top" xlink:title="external">
<polygon fill="none" stroke="red" points="215.5,-52 158.5,-52 158.5,-16 215.5,-16 215.5,-52"/>
<text text-anchor="middle" x="187" y="-31.5" font-family="Helvetica,sans-Serif" font-size="10.00">external</text>
</a>
</g>
</g>
<!-- dir_aebb8dcc11953d78e620bbef0b9e2183&#45;&gt;dir_397d9aeee4af8edecac90968d93b57df -->
<g id="edge1" class="edge">
<title>dir_aebb8dcc11953d78e620bbef0b9e2183&#45;&gt;dir_397d9aeee4af8edecac90968d93b57df</title>
<path fill="none" stroke="black" d="M131.29,-87.7C140.43,-79.05 151.64,-68.45 161.6,-59.03"/>
<polygon fill="black" stroke="black" points="164.06,-61.52 168.92,-52.1 159.25,-56.43 164.06,-61.52"/>
<g id="a_edge1&#45;headlabel"><a xlink:href="dir_000016_000001.html" target="_top" xlink:title="11">
<text text-anchor="middle" x="163.4" y="-63.55" font-family="Helvetica,sans-Serif" font-size="10.00">11</text>
</a>
</g>
</g>
<!-- dir_aebb8dcc11953d78e620bbef0b9e2183&#45;&gt;dir_d44c64559bbebec7f509842c48db8b23 -->
<g id="edge3" class="edge">
<title>dir_aebb8dcc11953d78e620bbef0b9e2183&#45;&gt;dir_d44c64559bbebec7f509842c48db8b23</title>
<path fill="none" stroke="black" d="M140.15,-92.16C163.85,-80.95 198.46,-64.58 224.58,-52.23"/>
<polygon fill="black" stroke="black" points="226.23,-55.32 233.78,-47.88 223.24,-48.99 226.23,-55.32"/>
<g id="a_edge3&#45;headlabel"><a xlink:href="dir_000016_000012.html" target="_top" xlink:title="7">
<text text-anchor="middle" x="224.2" y="-56.92" font-family="Helvetica,sans-Serif" font-size="10.00">7</text>
</a>
</g>
</g>
</g>
</svg>
