<?xml version="1.0" encoding="UTF-8" standalone="no"?>
<!DOCTYPE svg PUBLIC "-//W3C//DTD SVG 1.1//EN"
 "http://www.w3.org/Graphics/SVG/1.1/DTD/svg11.dtd">
<!-- Generated by graphviz version 2.50.0 (0)
 -->
<!-- Title: generated Pages: 1 -->
<svg width="106pt" height="151pt"
 viewBox="0.00 0.00 106.00 151.00" xmlns="http://www.w3.org/2000/svg" xmlns:xlink="http://www.w3.org/1999/xlink">
<g id="graph0" class="graph" transform="scale(1 1) rotate(0) translate(4 147)">
<title>generated</title>
<g id="clust1" class="cluster">
<title>clusterdir_9eb355ec3f647b7a2d73a2942ed8fd08</title>
<g id="a_clust1"><a xlink:href="dir_9eb355ec3f647b7a2d73a2942ed8fd08.html" target="_top" xlink:title="dsp">
<polygon fill="#ddddee" stroke="black" points="8,-64 8,-135 90,-135 90,-64 8,-64"/>
<text text-anchor="middle" x="49" y="-123" font-family="Helvetica,sans-Serif" font-size="10.00">dsp</text>
</a>
</g>
</g>
<!-- dir_0a4a63f5945216e2c2a1a48c4c718d1e -->
<g id="node1" class="node">
<title>dir_0a4a63f5945216e2c2a1a48c4c718d1e</title>
<g id="a_node1"><a xlink:href="dir_0a4a63f5945216e2c2a1a48c4c718d1e.html" target="_top" xlink:title="generated">
<polygon fill="#eeeeff" stroke="black" points="82,-108 16,-108 16,-72 82,-72 82,-108"/>
<text text-anchor="middle" x="49" y="-87.5" font-family="Helvetica,sans-Serif" font-size="10.00">generated</text>
</a>
</g>
</g>
<!-- dir_7340f4486b54b76d80e8ea0a84f61c55 -->
<g id="node2" class="node">
<title>dir_7340f4486b54b76d80e8ea0a84f61c55</title>
<g id="a_node2"><a xlink:href="dir_7340f4486b54b76d80e8ea0a84f61c55.html" target="_top" xlink:title="wrapped">
<polygon fill="none" stroke="black" points="78.5,-36 19.5,-36 19.5,0 78.5,0 78.5,-36"/>
<text text-anchor="middle" x="49" y="-15.5" font-family="Helvetica,sans-Serif" font-size="10.00">wrapped</text>
</a>
</g>
</g>
<!-- dir_0a4a63f5945216e2c2a1a48c4c718d1e&#45;&gt;dir_7340f4486b54b76d80e8ea0a84f61c55 -->
<g id="edge1" class="edge">
<title>dir_0a4a63f5945216e2c2a1a48c4c718d1e&#45;&gt;dir_7340f4486b54b76d80e8ea0a84f61c55</title>
<path fill="none" stroke="black" d="M49,-71.7C49,-63.98 49,-54.71 49,-46.11"/>
<polygon fill="black" stroke="black" points="52.5,-46.1 49,-36.1 45.5,-46.1 52.5,-46.1"/>
<g id="a_edge1&#45;headlabel"><a xlink:href="dir_000020_000028.html" target="_top" xlink:title="1">
<text text-anchor="middle" x="55.34" y="-47.2" font-family="Helvetica,sans-Serif" font-size="10.00">1</text>
</a>
</g>
</g>
</g>
</svg>
