<?xml version="1.0" encoding="UTF-8" standalone="no"?>
<!DOCTYPE svg PUBLIC "-//W3C//DTD SVG 1.1//EN"
 "http://www.w3.org/Graphics/SVG/1.1/DTD/svg11.dtd">
<!-- Generated by graphviz version 2.50.0 (0)
 -->
<!-- Title: device Pages: 1 -->
<svg width="138pt" height="151pt"
 viewBox="0.00 0.00 137.50 151.00" xmlns="http://www.w3.org/2000/svg" xmlns:xlink="http://www.w3.org/1999/xlink">
<g id="graph0" class="graph" transform="scale(1 1) rotate(0) translate(4 147)">
<title>device</title>
<g id="clust1" class="cluster">
<title>clusterdir_aebb8dcc11953d78e620bbef0b9e2183</title>
<g id="a_clust1"><a xlink:href="dir_aebb8dcc11953d78e620bbef0b9e2183.html" target="_top" xlink:title="core">
<polygon fill="#ddddee" stroke="black" points="30.5,-64 30.5,-135 100.5,-135 100.5,-64 30.5,-64"/>
<text text-anchor="middle" x="65.5" y="-123" font-family="Helvetica,sans-Serif" font-size="10.00">core</text>
</a>
</g>
</g>
<!-- dir_82037213e05c7748ea2cdf8fdb5c5467 -->
<g id="node1" class="node">
<title>dir_82037213e05c7748ea2cdf8fdb5c5467</title>
<g id="a_node1"><a xlink:href="dir_82037213e05c7748ea2cdf8fdb5c5467.html" target="_top" xlink:title="device">
<polygon fill="#eeeeff" stroke="black" points="92.5,-108 38.5,-108 38.5,-72 92.5,-72 92.5,-108"/>
<text text-anchor="middle" x="65.5" y="-87.5" font-family="Helvetica,sans-Serif" font-size="10.00">device</text>
</a>
</g>
</g>
<!-- dir_397d9aeee4af8edecac90968d93b57df -->
<g id="node2" class="node">
<title>dir_397d9aeee4af8edecac90968d93b57df</title>
<g id="a_node2"><a xlink:href="dir_397d9aeee4af8edecac90968d93b57df.html" target="_top" xlink:title="external">
<polygon fill="none" stroke="red" points="57,-36 0,-36 0,0 57,0 57,-36"/>
<text text-anchor="middle" x="28.5" y="-15.5" font-family="Helvetica,sans-Serif" font-size="10.00">external</text>
</a>
</g>
</g>
<!-- dir_82037213e05c7748ea2cdf8fdb5c5467&#45;&gt;dir_397d9aeee4af8edecac90968d93b57df -->
<g id="edge1" class="edge">
<title>dir_82037213e05c7748ea2cdf8fdb5c5467&#45;&gt;dir_397d9aeee4af8edecac90968d93b57df</title>
<path fill="none" stroke="black" d="M56.35,-71.7C52.1,-63.64 46.94,-53.89 42.23,-44.98"/>
<polygon fill="black" stroke="black" points="45.31,-43.31 37.54,-36.1 39.12,-46.58 45.31,-43.31"/>
<g id="a_edge1&#45;headlabel"><a xlink:href="dir_000018_000001.html" target="_top" xlink:title="2">
<text text-anchor="middle" x="49.5" y="-42.66" font-family="Helvetica,sans-Serif" font-size="10.00">2</text>
</a>
</g>
</g>
<!-- dir_d44c64559bbebec7f509842c48db8b23 -->
<g id="node3" class="node">
<title>dir_d44c64559bbebec7f509842c48db8b23</title>
<g id="a_node3"><a xlink:href="dir_d44c64559bbebec7f509842c48db8b23.html" target="_top" xlink:title="include">
<polygon fill="none" stroke="red" points="129.5,-36 75.5,-36 75.5,0 129.5,0 129.5,-36"/>
<text text-anchor="middle" x="102.5" y="-15.5" font-family="Helvetica,sans-Serif" font-size="10.00">include</text>
</a>
</g>
</g>
<!-- dir_82037213e05c7748ea2cdf8fdb5c5467&#45;&gt;dir_d44c64559bbebec7f509842c48db8b23 -->
<g id="edge2" class="edge">
<title>dir_82037213e05c7748ea2cdf8fdb5c5467&#45;&gt;dir_d44c64559bbebec7f509842c48db8b23</title>
<path fill="none" stroke="black" d="M74.65,-71.7C78.9,-63.64 84.06,-53.89 88.77,-44.98"/>
<polygon fill="black" stroke="black" points="91.88,-46.58 93.46,-36.1 85.69,-43.31 91.88,-46.58"/>
<g id="a_edge2&#45;headlabel"><a xlink:href="dir_000018_000012.html" target="_top" xlink:title="2">
<text text-anchor="middle" x="92.71" y="-48.59" font-family="Helvetica,sans-Serif" font-size="10.00">2</text>
</a>
</g>
</g>
</g>
</svg>
