<?xml version="1.0" encoding="UTF-8" standalone="no"?>
<!DOCTYPE svg PUBLIC "-//W3C//DTD SVG 1.1//EN"
 "http://www.w3.org/Graphics/SVG/1.1/DTD/svg11.dtd">
<!-- Generated by graphviz version 2.50.0 (0)
 -->
<!-- Title: fs Pages: 1 -->
<svg width="231pt" height="167pt"
 viewBox="0.00 0.00 230.50 167.00" xmlns="http://www.w3.org/2000/svg" xmlns:xlink="http://www.w3.org/1999/xlink">
<g id="graph0" class="graph" transform="scale(1 1) rotate(0) translate(4 163)">
<title>fs</title>
<g id="clust1" class="cluster">
<title>clusterdir_aebb8dcc11953d78e620bbef0b9e2183</title>
<g id="a_clust1"><a xlink:href="dir_aebb8dcc11953d78e620bbef0b9e2183.html" target="_top" xlink:title="core">
<polygon fill="#ddddee" stroke="black" points="8,-8 8,-151 78,-151 78,-8 8,-8"/>
<text text-anchor="middle" x="43" y="-139" font-family="Helvetica,sans-Serif" font-size="10.00">core</text>
</a>
</g>
</g>
<!-- dir_8d178eff61fd9051d0a6349aa081a778 -->
<g id="node1" class="node">
<title>dir_8d178eff61fd9051d0a6349aa081a778</title>
<g id="a_node1"><a xlink:href="dir_8d178eff61fd9051d0a6349aa081a778.html" target="_top" xlink:title="pod">
<polygon fill="none" stroke="black" points="70,-52 16,-52 16,-16 70,-16 70,-52"/>
<text text-anchor="middle" x="43" y="-31.5" font-family="Helvetica,sans-Serif" font-size="10.00">pod</text>
</a>
</g>
</g>
<!-- dir_dd67e4128c47c3819848d7cb1daba9a5 -->
<g id="node2" class="node">
<title>dir_dd67e4128c47c3819848d7cb1daba9a5</title>
<g id="a_node2"><a xlink:href="dir_dd67e4128c47c3819848d7cb1daba9a5.html" target="_top" xlink:title="fs">
<polygon fill="#eeeeff" stroke="black" points="70,-124 16,-124 16,-88 70,-88 70,-124"/>
<text text-anchor="middle" x="43" y="-103.5" font-family="Helvetica,sans-Serif" font-size="10.00">fs</text>
</a>
</g>
</g>
<!-- dir_dd67e4128c47c3819848d7cb1daba9a5&#45;&gt;dir_8d178eff61fd9051d0a6349aa081a778 -->
<g id="edge3" class="edge">
<title>dir_dd67e4128c47c3819848d7cb1daba9a5&#45;&gt;dir_8d178eff61fd9051d0a6349aa081a778</title>
<path fill="none" stroke="black" d="M43,-87.7C43,-79.98 43,-70.71 43,-62.11"/>
<polygon fill="black" stroke="black" points="46.5,-62.1 43,-52.1 39.5,-62.1 46.5,-62.1"/>
<g id="a_edge3&#45;headlabel"><a xlink:href="dir_000021_000022.html" target="_top" xlink:title="5">
<text text-anchor="middle" x="49.34" y="-63.2" font-family="Helvetica,sans-Serif" font-size="10.00">5</text>
</a>
</g>
</g>
<!-- dir_397d9aeee4af8edecac90968d93b57df -->
<g id="node3" class="node">
<title>dir_397d9aeee4af8edecac90968d93b57df</title>
<g id="a_node3"><a xlink:href="dir_397d9aeee4af8edecac90968d93b57df.html" target="_top" xlink:title="external">
<polygon fill="none" stroke="red" points="145.5,-52 88.5,-52 88.5,-16 145.5,-16 145.5,-52"/>
<text text-anchor="middle" x="117" y="-31.5" font-family="Helvetica,sans-Serif" font-size="10.00">external</text>
</a>
</g>
</g>
<!-- dir_dd67e4128c47c3819848d7cb1daba9a5&#45;&gt;dir_397d9aeee4af8edecac90968d93b57df -->
<g id="edge1" class="edge">
<title>dir_dd67e4128c47c3819848d7cb1daba9a5&#45;&gt;dir_397d9aeee4af8edecac90968d93b57df</title>
<path fill="none" stroke="black" d="M61.29,-87.7C70.43,-79.05 81.64,-68.45 91.6,-59.03"/>
<polygon fill="black" stroke="black" points="94.06,-61.52 98.92,-52.1 89.25,-56.43 94.06,-61.52"/>
<g id="a_edge1&#45;headlabel"><a xlink:href="dir_000021_000001.html" target="_top" xlink:title="2">
<text text-anchor="middle" x="93.4" y="-63.55" font-family="Helvetica,sans-Serif" font-size="10.00">2</text>
</a>
</g>
</g>
<!-- dir_7340f4486b54b76d80e8ea0a84f61c55 -->
<g id="node4" class="node">
<title>dir_7340f4486b54b76d80e8ea0a84f61c55</title>
<g id="a_node4"><a xlink:href="dir_7340f4486b54b76d80e8ea0a84f61c55.html" target="_top" xlink:title="wrapped">
<polygon fill="none" stroke="black" points="222.5,-52 163.5,-52 163.5,-16 222.5,-16 222.5,-52"/>
<text text-anchor="middle" x="193" y="-31.5" font-family="Helvetica,sans-Serif" font-size="10.00">wrapped</text>
</a>
</g>
</g>
<!-- dir_dd67e4128c47c3819848d7cb1daba9a5&#45;&gt;dir_7340f4486b54b76d80e8ea0a84f61c55 -->
<g id="edge2" class="edge">
<title>dir_dd67e4128c47c3819848d7cb1daba9a5&#45;&gt;dir_7340f4486b54b76d80e8ea0a84f61c55</title>
<path fill="none" stroke="black" d="M70.16,-92.32C93.62,-81.38 127.8,-65.43 154.15,-53.13"/>
<polygon fill="black" stroke="black" points="155.89,-56.18 163.47,-48.78 152.93,-49.84 155.89,-56.18"/>
<g id="a_edge2&#45;headlabel"><a xlink:href="dir_000021_000028.html" target="_top" xlink:title="3">
<text text-anchor="middle" x="153.83" y="-57.77" font-family="Helvetica,sans-Serif" font-size="10.00">3</text>
</a>
</g>
</g>
</g>
</svg>
