<?xml version="1.0" encoding="UTF-8" standalone="no"?>
<!DOCTYPE svg PUBLIC "-//W3C//DTD SVG 1.1//EN"
 "http://www.w3.org/Graphics/SVG/1.1/DTD/svg11.dtd">
<!-- Generated by graphviz version 2.50.0 (0)
 -->
<!-- Title: filterTest Pages: 1 -->
<!--zoomable 331 -->
<svg id="main" version="1.1" xmlns="http://www.w3.org/2000/svg" xmlns:xlink="http://www.w3.org/1999/xlink" xml:space="preserve" onload="init(evt)">
<style type="text/css"><![CDATA[
.edge:hover path { stroke: red; }
.edge:hover polygon { stroke: red; fill: red; }
]]></style>
<script type="text/javascript"><![CDATA[
var edges = document.getElementsByTagName('g');
if (edges && edges.length) {
  for (var i=0;i<edges.length;i++) {
    if (edges[i].id.substr(0,4)=='edge') {
      edges[i].setAttribute('class','edge');
    }
  }
}
]]></script>
        <defs>
                <circle id="rim" cx="0" cy="0" r="7"/>
                <circle id="rim2" cx="0" cy="0" r="3.5"/>
                <g id="zoomPlus">
                        <use xlink:href="#rim" fill="#404040">
                                <set attributeName="fill" to="#808080" begin="zoomplus.mouseover" end="zoomplus.mouseout"/>
                        </use>
                        <path d="M-4,0h8M0,-4v8" fill="none" stroke="white" stroke-width="1.5" pointer-events="none"/>
                </g>
                <g id="zoomMin">
                        <use xlink:href="#rim" fill="#404040">
                                <set attributeName="fill" to="#808080" begin="zoomminus.mouseover" end="zoomminus.mouseout"/>
                        </use>
                        <path d="M-4,0h8" fill="none" stroke="white" stroke-width="1.5" pointer-events="none"/>
                </g>
                <g id="dirArrow">
                        <path fill="none" stroke="white" stroke-width="1.5" d="M0,-3.0v7 M-2.5,-0.5L0,-3.0L2.5,-0.5"/>
                </g>
               <g id="resetDef">
                       <use xlink:href="#rim2" fill="#404040">
                               <set attributeName="fill" to="#808080" begin="reset.mouseover" end="reset.mouseout"/>
                       </use>
               </g>
        </defs>

<script type="text/javascript">
var viewWidth = 753;
var viewHeight = 331;
var sectionId = 'dynsection-4';
</script>
<script xlink:href="svgpan.js"/>
<svg id="graph" class="graph">
<g id="viewport">
<title>filterTest</title>
<!-- Node1 -->
<g id="node1" class="node">
<title>Node1</title>
<g id="a_node1"><a xlink:title=" ">
<polygon fill="#bfbfbf" stroke="black" points="0,-156 0,-175 59,-175 59,-156 0,-156"/>
<text text-anchor="middle" x="29.5" y="-163" font-family="Helvetica,sans-Serif" font-size="10.00">filterTest</text>
</a>
</g>
</g>
<!-- Node2 -->
<g id="node2" class="node">
<title>Node2</title>
<g id="a_node2"><a xlink:href="classvae_1_1core_1_1_engine.html#a400114c6a78c8f77d34567004b471bb3" target="_top" xlink:title="Creates an emitter and returns the handle.">
<polygon fill="none" stroke="black" points="95,-221.5 95,-251.5 202,-251.5 202,-221.5 95,-221.5"/>
<text text-anchor="start" x="103" y="-239.5" font-family="Helvetica,sans-Serif" font-size="10.00">vae::core::Engine::</text>
<text text-anchor="middle" x="148.5" y="-228.5" font-family="Helvetica,sans-Serif" font-size="10.00">createEmitter</text>
</a>
</g>
</g>
<!-- Node1&#45;&gt;Node2 -->
<g id="edge1" class="edge">
<title>Node1&#45;&gt;Node2</title>
<path fill="none" stroke="midnightblue" d="M46.28,-175.08C63.49,-185.52 91.56,-202.55 113.78,-216.03"/>
<polygon fill="midnightblue" stroke="midnightblue" points="112.22,-219.18 122.58,-221.38 115.85,-213.2 112.22,-219.18"/>
</g>
<!-- Node6 -->
<g id="node6" class="node">
<title>Node6</title>
<g id="a_node6"><a xlink:href="classvae_1_1core_1_1_engine.html#a11a6ae8ce62130f33dad382a4e4cf07e" target="_top" xlink:title="Works like fireEvent but with a global Event identifier.">
<polygon fill="none" stroke="black" points="95,-150.5 95,-180.5 202,-180.5 202,-150.5 95,-150.5"/>
<text text-anchor="start" x="103" y="-168.5" font-family="Helvetica,sans-Serif" font-size="10.00">vae::core::Engine::</text>
<text text-anchor="middle" x="148.5" y="-157.5" font-family="Helvetica,sans-Serif" font-size="10.00">fireGlobalEvent</text>
</a>
</g>
</g>
<!-- Node1&#45;&gt;Node6 -->
<g id="edge5" class="edge">
<title>Node1&#45;&gt;Node6</title>
<path fill="none" stroke="midnightblue" d="M59.12,-165.5C66.99,-165.5 75.84,-165.5 84.82,-165.5"/>
<polygon fill="midnightblue" stroke="midnightblue" points="84.97,-169 94.97,-165.5 84.97,-162 84.97,-169"/>
</g>
<!-- Node17 -->
<g id="node17" class="node">
<title>Node17</title>
<g id="a_node17"><a xlink:href="main_8cpp.html#aa3381590c1ef33c08000c2fbb2bf0dd0" target="_top" xlink:title=" ">
<polygon fill="none" stroke="black" points="127,-112 127,-131 170,-131 170,-112 127,-112"/>
<text text-anchor="middle" x="148.5" y="-119" font-family="Helvetica,sans-Serif" font-size="10.00">sleep</text>
</a>
</g>
</g>
<!-- Node1&#45;&gt;Node17 -->
<g id="edge19" class="edge">
<title>Node1&#45;&gt;Node17</title>
<path fill="none" stroke="midnightblue" d="M55.89,-155.95C73.97,-149.15 98.35,-139.98 117.42,-132.81"/>
<polygon fill="midnightblue" stroke="midnightblue" points="118.71,-136.07 126.84,-129.27 116.25,-129.51 118.71,-136.07"/>
</g>
<!-- Node3 -->
<g id="node3" class="node">
<title>Node3</title>
<g id="a_node3"><a xlink:href="classvae_1_1core_1_1_spatial_manager.html#a3b7a584badb78d373db73bde20e5a85b" target="_top" xlink:title=" ">
<polygon fill="none" stroke="black" points="240.5,-243.5 240.5,-273.5 383.5,-273.5 383.5,-243.5 240.5,-243.5"/>
<text text-anchor="start" x="248.5" y="-261.5" font-family="Helvetica,sans-Serif" font-size="10.00">vae::core::SpatialManager</text>
<text text-anchor="middle" x="312" y="-250.5" font-family="Helvetica,sans-Serif" font-size="10.00">::createEmitter</text>
</a>
</g>
</g>
<!-- Node2&#45;&gt;Node3 -->
<g id="edge2" class="edge">
<title>Node2&#45;&gt;Node3</title>
<path fill="none" stroke="midnightblue" d="M202.38,-243.7C211.39,-244.93 220.93,-246.23 230.47,-247.53"/>
<polygon fill="midnightblue" stroke="midnightblue" points="230,-251 240.38,-248.88 230.95,-244.06 230,-251"/>
</g>
<!-- Node4 -->
<g id="node4" class="node">
<title>Node4</title>
<g id="a_node4"><a xlink:href="classvae_1_1core_1_1_spatial_manager.html#a3f3be0983d6adf3ea217d76477f5d43b" target="_top" xlink:title=" ">
<polygon fill="none" stroke="black" points="429.5,-292.5 429.5,-322.5 572.5,-322.5 572.5,-292.5 429.5,-292.5"/>
<text text-anchor="start" x="437.5" y="-310.5" font-family="Helvetica,sans-Serif" font-size="10.00">vae::core::SpatialManager</text>
<text text-anchor="middle" x="501" y="-299.5" font-family="Helvetica,sans-Serif" font-size="10.00">::addEmitter</text>
</a>
</g>
</g>
<!-- Node3&#45;&gt;Node4 -->
<g id="edge3" class="edge">
<title>Node3&#45;&gt;Node4</title>
<path fill="none" stroke="midnightblue" d="M370.38,-273.53C390.12,-278.71 412.41,-284.55 432.86,-289.91"/>
<polygon fill="midnightblue" stroke="midnightblue" points="432.17,-293.34 442.73,-292.49 433.95,-286.57 432.17,-293.34"/>
</g>
<!-- Node5 -->
<g id="node5" class="node">
<title>Node5</title>
<g id="a_node5"><a xlink:href="classvae_1_1core_1_1_spatial_manager.html#a8223349a8417dbd972f9979618849a4e" target="_top" xlink:title=" ">
<polygon fill="none" stroke="black" points="429.5,-243.5 429.5,-273.5 572.5,-273.5 572.5,-243.5 429.5,-243.5"/>
<text text-anchor="start" x="437.5" y="-261.5" font-family="Helvetica,sans-Serif" font-size="10.00">vae::core::SpatialManager</text>
<text text-anchor="middle" x="501" y="-250.5" font-family="Helvetica,sans-Serif" font-size="10.00">::hasEmitter</text>
</a>
</g>
</g>
<!-- Node3&#45;&gt;Node5 -->
<g id="edge4" class="edge">
<title>Node3&#45;&gt;Node5</title>
<path fill="none" stroke="midnightblue" d="M383.7,-258.5C395.22,-258.5 407.23,-258.5 418.97,-258.5"/>
<polygon fill="midnightblue" stroke="midnightblue" points="419.2,-262 429.2,-258.5 419.2,-255 419.2,-262"/>
</g>
<!-- Node7 -->
<g id="node7" class="node">
<title>Node7</title>
<g id="a_node7"><a xlink:href="classvae_1_1core_1_1_engine.html#a4721a2bf236efae669ee51ba148e193a" target="_top" xlink:title="Main mechanism to start and stop sounds.">
<polygon fill="none" stroke="black" points="258.5,-150.5 258.5,-180.5 365.5,-180.5 365.5,-150.5 258.5,-150.5"/>
<text text-anchor="start" x="266.5" y="-168.5" font-family="Helvetica,sans-Serif" font-size="10.00">vae::core::Engine::</text>
<text text-anchor="middle" x="312" y="-157.5" font-family="Helvetica,sans-Serif" font-size="10.00">fireEvent</text>
</a>
</g>
</g>
<!-- Node6&#45;&gt;Node7 -->
<g id="edge6" class="edge">
<title>Node6&#45;&gt;Node7</title>
<path fill="none" stroke="midnightblue" d="M202.38,-165.5C216.96,-165.5 232.91,-165.5 248,-165.5"/>
<polygon fill="midnightblue" stroke="midnightblue" points="248.28,-169 258.28,-165.5 248.28,-162 248.28,-169"/>
</g>
<!-- Node16 -->
<g id="node16" class="node">
<title>Node16</title>
<g id="a_node16"><a xlink:href="namespacevae_1_1core.html#ad8e8a092991125ada0a95f174838b1b7" target="_top" xlink:title=" ">
<polygon fill="none" stroke="black" points="238,-101.5 238,-131.5 386,-131.5 386,-101.5 238,-101.5"/>
<text text-anchor="start" x="246" y="-119.5" font-family="Helvetica,sans-Serif" font-size="10.00">vae::core::splitGlobalEvent</text>
<text text-anchor="middle" x="312" y="-108.5" font-family="Helvetica,sans-Serif" font-size="10.00">Handle</text>
</a>
</g>
</g>
<!-- Node6&#45;&gt;Node16 -->
<g id="edge18" class="edge">
<title>Node6&#45;&gt;Node16</title>
<path fill="none" stroke="midnightblue" d="M199.27,-150.4C215.78,-145.39 234.31,-139.77 251.47,-134.56"/>
<polygon fill="midnightblue" stroke="midnightblue" points="252.84,-137.8 261.39,-131.55 250.81,-131.11 252.84,-137.8"/>
</g>
<!-- Node7&#45;&gt;Node5 -->
<g id="edge11" class="edge">
<title>Node7&#45;&gt;Node5</title>
<path fill="none" stroke="midnightblue" d="M333.36,-180.72C354.58,-196.02 389.25,-219.42 422,-234.5 426.09,-236.38 430.37,-238.17 434.73,-239.85"/>
<polygon fill="midnightblue" stroke="midnightblue" points="433.75,-243.22 444.34,-243.37 436.16,-236.65 433.75,-243.22"/>
</g>
<!-- Node7&#45;&gt;Node7 -->
<g id="edge7" class="edge">
<title>Node7&#45;&gt;Node7</title>
<path fill="none" stroke="midnightblue" d="M283.77,-180.66C276.96,-190.06 286.37,-199 312,-199 327.62,-199 337.21,-195.68 340.79,-190.96"/>
<polygon fill="midnightblue" stroke="midnightblue" points="344.26,-190.46 340.23,-180.66 337.27,-190.83 344.26,-190.46"/>
</g>
<!-- Node8 -->
<g id="node8" class="node">
<title>Node8</title>
<g id="a_node8"><a xlink:href="classvae_1_1core_1_1_spatial_manager.html#addd80ecf83e30b0814eaee82ae7bd700" target="_top" xlink:title=" ">
<polygon fill="none" stroke="black" points="429.5,-194.5 429.5,-224.5 572.5,-224.5 572.5,-194.5 429.5,-194.5"/>
<text text-anchor="start" x="437.5" y="-212.5" font-family="Helvetica,sans-Serif" font-size="10.00">vae::core::SpatialManager</text>
<text text-anchor="middle" x="501" y="-201.5" font-family="Helvetica,sans-Serif" font-size="10.00">::forListeners</text>
</a>
</g>
</g>
<!-- Node7&#45;&gt;Node8 -->
<g id="edge8" class="edge">
<title>Node7&#45;&gt;Node8</title>
<path fill="none" stroke="midnightblue" d="M365.59,-177.87C384.43,-182.31 406.04,-187.39 426.34,-192.17"/>
<polygon fill="midnightblue" stroke="midnightblue" points="425.65,-195.6 436.18,-194.48 427.25,-188.79 425.65,-195.6"/>
</g>
<!-- Node9 -->
<g id="node9" class="node">
<title>Node9</title>
<g id="a_node9"><a xlink:href="classvae_1_1core_1_1_bank_manager.html#a4ec4afe30adb6e0108e799d26070a3a5" target="_top" xlink:title=" ">
<polygon fill="none" stroke="black" points="423,-156 423,-175 579,-175 579,-156 423,-156"/>
<text text-anchor="middle" x="501" y="-163" font-family="Helvetica,sans-Serif" font-size="10.00">vae::core::BankManager::get</text>
</a>
</g>
</g>
<!-- Node7&#45;&gt;Node9 -->
<g id="edge9" class="edge">
<title>Node7&#45;&gt;Node9</title>
<path fill="none" stroke="midnightblue" d="M365.59,-165.5C380.12,-165.5 396.3,-165.5 412.25,-165.5"/>
<polygon fill="midnightblue" stroke="midnightblue" points="412.68,-169 422.68,-165.5 412.68,-162 412.68,-169"/>
</g>
<!-- Node10 -->
<g id="node10" class="node">
<title>Node10</title>
<g id="a_node10"><a xlink:href="classvae_1_1core_1_1_bank_manager.html#aef2d335fb63d6f4be9f5b4793e309c99" target="_top" xlink:title=" ">
<polygon fill="none" stroke="black" points="422,-118 422,-137 580,-137 580,-118 422,-118"/>
<text text-anchor="middle" x="501" y="-125" font-family="Helvetica,sans-Serif" font-size="10.00">vae::core::BankManager::has</text>
</a>
</g>
</g>
<!-- Node7&#45;&gt;Node10 -->
<g id="edge10" class="edge">
<title>Node7&#45;&gt;Node10</title>
<path fill="none" stroke="midnightblue" d="M365.59,-154.81C389.8,-149.89 418.57,-144.05 443.27,-139.03"/>
<polygon fill="midnightblue" stroke="midnightblue" points="444.12,-142.43 453.22,-137.01 442.73,-135.57 444.12,-142.43"/>
</g>
<!-- Node11 -->
<g id="node11" class="node">
<title>Node11</title>
<g id="a_node11"><a xlink:href="classvae_1_1core_1_1_voice_manger.html#a56795adf1dfc9e96a8ef00fba1ae03ca" target="_top" xlink:title=" ">
<polygon fill="none" stroke="black" points="436.5,-68.5 436.5,-98.5 565.5,-98.5 565.5,-68.5 436.5,-68.5"/>
<text text-anchor="start" x="444.5" y="-86.5" font-family="Helvetica,sans-Serif" font-size="10.00">vae::core::VoiceManger</text>
<text text-anchor="middle" x="501" y="-75.5" font-family="Helvetica,sans-Serif" font-size="10.00">::play</text>
</a>
</g>
</g>
<!-- Node7&#45;&gt;Node11 -->
<g id="edge12" class="edge">
<title>Node7&#45;&gt;Node11</title>
<path fill="none" stroke="midnightblue" d="M365.63,-151.21C372.69,-148.43 379.67,-145.21 386,-141.5 404.73,-130.53 403.23,-119.4 422,-108.5 425.67,-106.37 429.54,-104.4 433.51,-102.58"/>
<polygon fill="midnightblue" stroke="midnightblue" points="435.09,-105.71 442.94,-98.59 432.37,-99.26 435.09,-105.71"/>
</g>
<!-- Node14 -->
<g id="node14" class="node">
<title>Node14</title>
<g id="a_node14"><a xlink:href="classvae_1_1core_1_1_voice_manger.html#a51b077f535b7eebcc1e62d5ca5a0d95d" target="_top" xlink:title="Stops a voice.">
<polygon fill="none" stroke="black" points="436.5,-19.5 436.5,-49.5 565.5,-49.5 565.5,-19.5 436.5,-19.5"/>
<text text-anchor="start" x="444.5" y="-37.5" font-family="Helvetica,sans-Serif" font-size="10.00">vae::core::VoiceManger</text>
<text text-anchor="middle" x="501" y="-26.5" font-family="Helvetica,sans-Serif" font-size="10.00">::stop</text>
</a>
</g>
</g>
<!-- Node7&#45;&gt;Node14 -->
<g id="edge15" class="edge">
<title>Node7&#45;&gt;Node14</title>
<path fill="none" stroke="midnightblue" d="M365.82,-154.16C373.17,-150.94 380.19,-146.81 386,-141.5 415.7,-114.4 392.04,-85.32 422,-58.5 423.72,-56.96 425.53,-55.53 427.42,-54.18"/>
<polygon fill="midnightblue" stroke="midnightblue" points="429.43,-57.05 436.14,-48.85 425.78,-51.08 429.43,-57.05"/>
</g>
<!-- Node12 -->
<g id="node12" class="node">
<title>Node12</title>
<g id="a_node12"><a xlink:href="classvae_1_1core_1_1_voice_manger.html#aca4814fa5ec2f09d38c7b15e92ce0cad" target="_top" xlink:title="makes provided voice virtual">
<polygon fill="none" stroke="black" points="616,-88.5 616,-118.5 745,-118.5 745,-88.5 616,-88.5"/>
<text text-anchor="start" x="624" y="-106.5" font-family="Helvetica,sans-Serif" font-size="10.00">vae::core::VoiceManger</text>
<text text-anchor="middle" x="680.5" y="-95.5" font-family="Helvetica,sans-Serif" font-size="10.00">::makeVirtual</text>
</a>
</g>
</g>
<!-- Node11&#45;&gt;Node12 -->
<g id="edge13" class="edge">
<title>Node11&#45;&gt;Node12</title>
<path fill="none" stroke="midnightblue" d="M565.58,-90.66C578.58,-92.13 592.37,-93.68 605.69,-95.18"/>
<polygon fill="midnightblue" stroke="midnightblue" points="605.44,-98.68 615.77,-96.32 606.22,-91.72 605.44,-98.68"/>
</g>
<!-- Node13 -->
<g id="node13" class="node">
<title>Node13</title>
<g id="a_node13"><a xlink:href="namespacetklb.html#a7dc2203e89c331e3c85b9e7f16fa6763" target="_top" xlink:title=" ">
<polygon fill="none" stroke="black" points="649,-50 649,-69 712,-69 712,-50 649,-50"/>
<text text-anchor="middle" x="680.5" y="-57" font-family="Helvetica,sans-Serif" font-size="10.00">tklb::max</text>
</a>
</g>
</g>
<!-- Node11&#45;&gt;Node13 -->
<g id="edge14" class="edge">
<title>Node11&#45;&gt;Node13</title>
<path fill="none" stroke="midnightblue" d="M565.58,-74.9C589.86,-71.62 616.88,-67.97 638.51,-65.04"/>
<polygon fill="midnightblue" stroke="midnightblue" points="639.21,-68.48 648.65,-63.67 638.28,-61.54 639.21,-68.48"/>
</g>
<!-- Node14&#45;&gt;Node13 -->
<g id="edge17" class="edge">
<title>Node14&#45;&gt;Node13</title>
<path fill="none" stroke="midnightblue" d="M565.58,-43.45C589.86,-46.87 616.88,-50.68 638.51,-53.73"/>
<polygon fill="midnightblue" stroke="midnightblue" points="638.26,-57.23 648.65,-55.16 639.24,-50.3 638.26,-57.23"/>
</g>
<!-- Node15 -->
<g id="node15" class="node">
<title>Node15</title>
<g id="a_node15"><a xlink:href="classvae_1_1core_1_1_voice_manger.html#abe6b6d5a07c73e1e194f24314226a19f" target="_top" xlink:title=" ">
<polygon fill="none" stroke="black" points="616,-0.5 616,-30.5 745,-30.5 745,-0.5 616,-0.5"/>
<text text-anchor="start" x="624" y="-18.5" font-family="Helvetica,sans-Serif" font-size="10.00">vae::core::VoiceManger</text>
<text text-anchor="middle" x="680.5" y="-7.5" font-family="Helvetica,sans-Serif" font-size="10.00">::finished</text>
</a>
</g>
</g>
<!-- Node14&#45;&gt;Node15 -->
<g id="edge16" class="edge">
<title>Node14&#45;&gt;Node15</title>
<path fill="none" stroke="midnightblue" d="M565.58,-27.69C578.58,-26.3 592.37,-24.83 605.69,-23.4"/>
<polygon fill="midnightblue" stroke="midnightblue" points="606.2,-26.87 615.77,-22.32 605.45,-19.91 606.2,-26.87"/>
</g>
</g>
</svg>
        <g id="navigator" transform="translate(0 0)" fill="#404254">
                <rect fill="#f2f5e9" fill-opacity="0.5" stroke="#606060" stroke-width=".5" x="0" y="0" width="60" height="60"/>
                <use id="zoomplus" xlink:href="#zoomPlus" x="17" y="9" onmousedown="handleZoom(evt,'in')"/>
                <use id="zoomminus" xlink:href="#zoomMin" x="42" y="9" onmousedown="handleZoom(evt,'out')"/>
                <use id="reset" xlink:href="#resetDef" x="30" y="36" onmousedown="handleReset()"/>
                <g id="arrowUp" xlink:href="#dirArrow" transform="translate(30 24)" onmousedown="handlePan(0,-1)">
                  <use xlink:href="#rim" fill="#404040">
                        <set attributeName="fill" to="#808080" begin="arrowUp.mouseover" end="arrowUp.mouseout"/>
                  </use>
                  <path fill="none" stroke="white" stroke-width="1.5" d="M0,-3.0v7 M-2.5,-0.5L0,-3.0L2.5,-0.5"/>
                </g>
                <g id="arrowRight" xlink:href="#dirArrow" transform="rotate(90) translate(36 -43)" onmousedown="handlePan(1,0)">
                  <use xlink:href="#rim" fill="#404040">
                        <set attributeName="fill" to="#808080" begin="arrowRight.mouseover" end="arrowRight.mouseout"/>
                  </use>
                  <path fill="none" stroke="white" stroke-width="1.5" d="M0,-3.0v7 M-2.5,-0.5L0,-3.0L2.5,-0.5"/>
                </g>
                <g id="arrowDown" xlink:href="#dirArrow" transform="rotate(180) translate(-30 -48)" onmousedown="handlePan(0,1)">
                  <use xlink:href="#rim" fill="#404040">
                        <set attributeName="fill" to="#808080" begin="arrowDown.mouseover" end="arrowDown.mouseout"/>
                  </use>
                  <path fill="none" stroke="white" stroke-width="1.5" d="M0,-3.0v7 M-2.5,-0.5L0,-3.0L2.5,-0.5"/>
                </g>
                <g id="arrowLeft" xlink:href="#dirArrow" transform="rotate(270) translate(-36 17)" onmousedown="handlePan(-1,0)">
                  <use xlink:href="#rim" fill="#404040">
                        <set attributeName="fill" to="#808080" begin="arrowLeft.mouseover" end="arrowLeft.mouseout"/>
                  </use>
                  <path fill="none" stroke="white" stroke-width="1.5" d="M0,-3.0v7 M-2.5,-0.5L0,-3.0L2.5,-0.5"/>
                </g>
        </g>
        <svg viewBox="0 0 15 15" width="100%" height="30px" preserveAspectRatio="xMaxYMin meet">
         <g id="arrow_out" transform="scale(0.3 0.3)">
          <a xlink:href="main_8cpp_afe1c3ff6204d9b675caf60b5545e3e54_cgraph_org.svg" target="_base">
           <rect id="button" ry="5" rx="5" y="6" x="6" height="38" width="38"
                fill="#f2f5e9" fill-opacity="0.5" stroke="#606060" stroke-width="1.0"/>
           <path id="arrow"
             d="M 11.500037,31.436501 C 11.940474,20.09759 22.043105,11.32322 32.158766,21.979434 L 37.068811,17.246167 C 37.068811,17.246167 37.088388,32 37.088388,32 L 22.160133,31.978069 C 22.160133,31.978069 26.997745,27.140456 26.997745,27.140456 C 18.528582,18.264221 13.291696,25.230495 11.500037,31.436501 z"
             style="fill:#404040;"/>
          </a>
         </g>
        </svg>
</svg>
