<?xml version="1.0" encoding="UTF-8" standalone="no"?>
<!DOCTYPE svg PUBLIC "-//W3C//DTD SVG 1.1//EN"
 "http://www.w3.org/Graphics/SVG/1.1/DTD/svg11.dtd">
<!-- Generated by graphviz version 2.50.0 (0)
 -->
<!-- Title: sleep Pages: 1 -->
<svg width="287pt" height="104pt"
 viewBox="0.00 0.00 287.00 104.00" xmlns="http://www.w3.org/2000/svg" xmlns:xlink="http://www.w3.org/1999/xlink">
<g id="graph0" class="graph" transform="scale(1 1) rotate(0) translate(4 100)">
<title>sleep</title>
<!-- Node1 -->
<g id="node1" class="node">
<title>Node1</title>
<g id="a_node1"><a xlink:title=" ">
<polygon fill="#bfbfbf" stroke="black" points="236,-38.5 236,-57.5 279,-57.5 279,-38.5 236,-38.5"/>
<text text-anchor="middle" x="257.5" y="-45.5" font-family="Helvetica,sans-Serif" font-size="10.00">sleep</text>
</a>
</g>
</g>
<!-- Node2 -->
<g id="node2" class="node">
<title>Node2</title>
<g id="a_node2"><a xlink:href="main_8cpp.html#a7b09579eb01449ba8f8ac324485001c2" target="_top" xlink:title=" ">
<polygon fill="none" stroke="black" points="103,-76.5 103,-95.5 174,-95.5 174,-76.5 103,-76.5"/>
<text text-anchor="middle" x="138.5" y="-83.5" font-family="Helvetica,sans-Serif" font-size="10.00">benchmark</text>
</a>
</g>
</g>
<!-- Node1&#45;&gt;Node2 -->
<g id="edge1" class="edge">
<title>Node1&#45;&gt;Node2</title>
<path fill="none" stroke="midnightblue" d="M226.33,-58.27C217.82,-61.13 208.56,-64.22 200,-67 190.37,-70.13 179.85,-73.47 170.32,-76.45"/>
<polygon fill="midnightblue" stroke="midnightblue" points="227.52,-61.56 235.87,-55.05 225.28,-54.93 227.52,-61.56"/>
</g>
<!-- Node3 -->
<g id="node3" class="node">
<title>Node3</title>
<g id="a_node3"><a xlink:href="main_8cpp.html#a6f5c91847864279624ba2247527e3cea" target="_top" xlink:title=" ">
<polygon fill="none" stroke="black" points="77,-38.5 77,-57.5 200,-57.5 200,-38.5 77,-38.5"/>
<text text-anchor="middle" x="138.5" y="-45.5" font-family="Helvetica,sans-Serif" font-size="10.00">benchmarkBasicVoice</text>
</a>
</g>
</g>
<!-- Node1&#45;&gt;Node3 -->
<g id="edge2" class="edge">
<title>Node1&#45;&gt;Node3</title>
<path fill="none" stroke="midnightblue" d="M225.68,-48C217.77,-48 208.98,-48 200.13,-48"/>
<polygon fill="midnightblue" stroke="midnightblue" points="225.85,-51.5 235.85,-48 225.85,-44.5 225.85,-51.5"/>
</g>
<!-- Node4 -->
<g id="node4" class="node">
<title>Node4</title>
<g id="a_node4"><a xlink:href="main_8cpp.html#afe1c3ff6204d9b675caf60b5545e3e54" target="_top" xlink:title=" ">
<polygon fill="none" stroke="black" points="109,-0.5 109,-19.5 168,-19.5 168,-0.5 109,-0.5"/>
<text text-anchor="middle" x="138.5" y="-7.5" font-family="Helvetica,sans-Serif" font-size="10.00">filterTest</text>
</a>
</g>
</g>
<!-- Node1&#45;&gt;Node4 -->
<g id="edge3" class="edge">
<title>Node1&#45;&gt;Node4</title>
<path fill="none" stroke="midnightblue" d="M226.33,-37.73C217.82,-34.87 208.56,-31.78 200,-29 189.63,-25.63 178.24,-22.03 168.16,-18.87"/>
<polygon fill="midnightblue" stroke="midnightblue" points="225.28,-41.07 235.87,-40.95 227.52,-34.44 225.28,-41.07"/>
</g>
<!-- Node5 -->
<g id="node5" class="node">
<title>Node5</title>
<g id="a_node5"><a xlink:href="main_8cpp.html#ae66f6b31b5ad750f1fe042a706a4e3d4" target="_top" xlink:title=" ">
<polygon fill="none" stroke="black" points="0,-0.5 0,-19.5 41,-19.5 41,-0.5 0,-0.5"/>
<text text-anchor="middle" x="20.5" y="-7.5" font-family="Helvetica,sans-Serif" font-size="10.00">main</text>
</a>
</g>
</g>
<!-- Node4&#45;&gt;Node5 -->
<g id="edge4" class="edge">
<title>Node4&#45;&gt;Node5</title>
<path fill="none" stroke="midnightblue" d="M98.77,-10C79.43,-10 56.86,-10 41.13,-10"/>
<polygon fill="midnightblue" stroke="midnightblue" points="98.83,-13.5 108.83,-10 98.83,-6.5 98.83,-13.5"/>
</g>
</g>
</svg>
