<?xml version="1.0" encoding="UTF-8" standalone="no"?>
<!DOCTYPE svg PUBLIC "-//W3C//DTD SVG 1.1//EN"
 "http://www.w3.org/Graphics/SVG/1.1/DTD/svg11.dtd">
<!-- Generated by graphviz version 2.50.0 (0)
 -->
<!-- Title: filterTest Pages: 1 -->
<!--zoomable 380 -->
<svg id="main" version="1.1" xmlns="http://www.w3.org/2000/svg" xmlns:xlink="http://www.w3.org/1999/xlink" xml:space="preserve" onload="init(evt)">
<style type="text/css"><![CDATA[
.edge:hover path { stroke: red; }
.edge:hover polygon { stroke: red; fill: red; }
]]></style>
<script type="text/javascript"><![CDATA[
var edges = document.getElementsByTagName('g');
if (edges && edges.length) {
  for (var i=0;i<edges.length;i++) {
    if (edges[i].id.substr(0,4)=='edge') {
      edges[i].setAttribute('class','edge');
    }
  }
}
]]></script>
        <defs>
                <circle id="rim" cx="0" cy="0" r="7"/>
                <circle id="rim2" cx="0" cy="0" r="3.5"/>
                <g id="zoomPlus">
                        <use xlink:href="#rim" fill="#404040">
                                <set attributeName="fill" to="#808080" begin="zoomplus.mouseover" end="zoomplus.mouseout"/>
                        </use>
                        <path d="M-4,0h8M0,-4v8" fill="none" stroke="white" stroke-width="1.5" pointer-events="none"/>
                </g>
                <g id="zoomMin">
                        <use xlink:href="#rim" fill="#404040">
                                <set attributeName="fill" to="#808080" begin="zoomminus.mouseover" end="zoomminus.mouseout"/>
                        </use>
                        <path d="M-4,0h8" fill="none" stroke="white" stroke-width="1.5" pointer-events="none"/>
                </g>
                <g id="dirArrow">
                        <path fill="none" stroke="white" stroke-width="1.5" d="M0,-3.0v7 M-2.5,-0.5L0,-3.0L2.5,-0.5"/>
                </g>
               <g id="resetDef">
                       <use xlink:href="#rim2" fill="#404040">
                               <set attributeName="fill" to="#808080" begin="reset.mouseover" end="reset.mouseout"/>
                       </use>
               </g>
        </defs>

<script type="text/javascript">
var viewWidth = 753;
var viewHeight = 380;
var sectionId = 'dynsection-4';
</script>
<script xlink:href="svgpan.js"/>
<svg id="graph" class="graph">
<g id="viewport">
<title>filterTest</title>
<!-- Node1 -->
<g id="node1" class="node">
<title>Node1</title>
<g id="a_node1"><a xlink:title=" ">
<polygon fill="#bfbfbf" stroke="black" points="0,-88.5 0,-107.5 59,-107.5 59,-88.5 0,-88.5"/>
<text text-anchor="middle" x="29.5" y="-95.5" font-family="Helvetica,sans-Serif" font-size="10.00">filterTest</text>
</a>
</g>
</g>
<!-- Node2 -->
<g id="node2" class="node">
<title>Node2</title>
<g id="a_node2"><a xlink:href="classvae_1_1core_1_1_engine.html#a400114c6a78c8f77d34567004b471bb3" target="_top" xlink:title="Creates an emitter and returns the handle.">
<polygon fill="none" stroke="black" points="95,-245 95,-275 202,-275 202,-245 95,-245"/>
<text text-anchor="start" x="103" y="-263" font-family="Helvetica,sans-Serif" font-size="10.00">vae::core::Engine::</text>
<text text-anchor="middle" x="148.5" y="-252" font-family="Helvetica,sans-Serif" font-size="10.00">createEmitter</text>
</a>
</g>
</g>
<!-- Node1&#45;&gt;Node2 -->
<g id="edge1" class="edge">
<title>Node1&#45;&gt;Node2</title>
<path fill="none" stroke="midnightblue" d="M37.47,-107.65C55.56,-132.7 104.45,-200.39 130.54,-236.52"/>
<polygon fill="midnightblue" stroke="midnightblue" points="127.96,-238.93 136.66,-244.98 133.64,-234.83 127.96,-238.93"/>
</g>
<!-- Node6 -->
<g id="node6" class="node">
<title>Node6</title>
<g id="a_node6"><a xlink:href="classvae_1_1core_1_1_engine.html#a11a6ae8ce62130f33dad382a4e4cf07e" target="_top" xlink:title="Works like fireEvent but with a global Event identifier.">
<polygon fill="none" stroke="black" points="95,-130 95,-160 202,-160 202,-130 95,-130"/>
<text text-anchor="start" x="103" y="-148" font-family="Helvetica,sans-Serif" font-size="10.00">vae::core::Engine::</text>
<text text-anchor="middle" x="148.5" y="-137" font-family="Helvetica,sans-Serif" font-size="10.00">fireGlobalEvent</text>
</a>
</g>
</g>
<!-- Node1&#45;&gt;Node6 -->
<g id="edge5" class="edge">
<title>Node1&#45;&gt;Node6</title>
<path fill="none" stroke="midnightblue" d="M54.18,-107.51C67.45,-112.84 84.48,-119.68 100.35,-126.06"/>
<polygon fill="midnightblue" stroke="midnightblue" points="99.45,-129.47 110.04,-129.95 102.06,-122.98 99.45,-129.47"/>
</g>
<!-- Node17 -->
<g id="node17" class="node">
<title>Node17</title>
<g id="a_node17"><a xlink:href="classvae_1_1core_1_1_engine.html#a2da8c1525acd01fff95261cc45f5b2f4" target="_top" xlink:title="Set the Mixer Effect Parameter.">
<polygon fill="none" stroke="black" points="243,-81 243,-111 381,-111 381,-81 243,-81"/>
<text text-anchor="start" x="251" y="-99" font-family="Helvetica,sans-Serif" font-size="10.00">vae::core::Engine::</text>
<text text-anchor="middle" x="312" y="-88" font-family="Helvetica,sans-Serif" font-size="10.00">setMixerEffectParameter</text>
</a>
</g>
</g>
<!-- Node1&#45;&gt;Node17 -->
<g id="edge19" class="edge">
<title>Node1&#45;&gt;Node17</title>
<path fill="none" stroke="midnightblue" d="M59.2,-97.8C99.64,-97.51 174.89,-96.97 232.64,-96.56"/>
<polygon fill="midnightblue" stroke="midnightblue" points="232.87,-100.06 242.84,-96.49 232.82,-93.06 232.87,-100.06"/>
</g>
<!-- Node18 -->
<g id="node18" class="node">
<title>Node18</title>
<g id="a_node18"><a xlink:href="classvae_1_1core_1_1_engine.html#a3a1e07d802edf42c2777066bb493a7ee" target="_top" xlink:title="Set the playback speed.">
<polygon fill="none" stroke="black" points="95,-39 95,-69 202,-69 202,-39 95,-39"/>
<text text-anchor="start" x="103" y="-57" font-family="Helvetica,sans-Serif" font-size="10.00">vae::core::Engine::</text>
<text text-anchor="middle" x="148.5" y="-46" font-family="Helvetica,sans-Serif" font-size="10.00">setSpeed</text>
</a>
</g>
</g>
<!-- Node1&#45;&gt;Node18 -->
<g id="edge21" class="edge">
<title>Node1&#45;&gt;Node18</title>
<path fill="none" stroke="midnightblue" d="M55.89,-88.45C68.24,-83.81 83.52,-78.06 98.04,-72.6"/>
<polygon fill="midnightblue" stroke="midnightblue" points="99.31,-75.86 107.44,-69.07 96.85,-69.31 99.31,-75.86"/>
</g>
<!-- Node20 -->
<g id="node20" class="node">
<title>Node20</title>
<g id="a_node20"><a xlink:href="main_8cpp.html#aa3381590c1ef33c08000c2fbb2bf0dd0" target="_top" xlink:title=" ">
<polygon fill="none" stroke="black" points="127,-0.5 127,-19.5 170,-19.5 170,-0.5 127,-0.5"/>
<text text-anchor="middle" x="148.5" y="-7.5" font-family="Helvetica,sans-Serif" font-size="10.00">sleep</text>
</a>
</g>
</g>
<!-- Node1&#45;&gt;Node20 -->
<g id="edge23" class="edge">
<title>Node1&#45;&gt;Node20</title>
<path fill="none" stroke="midnightblue" d="M37.31,-88.16C48,-73.38 70.09,-45.43 95,-29 101.69,-24.58 109.55,-21.04 117.11,-18.26"/>
<polygon fill="midnightblue" stroke="midnightblue" points="118.38,-21.53 126.76,-15.04 116.16,-14.88 118.38,-21.53"/>
</g>
<!-- Node3 -->
<g id="node3" class="node">
<title>Node3</title>
<g id="a_node3"><a xlink:href="classvae_1_1core_1_1_spatial_manager.html#a3b7a584badb78d373db73bde20e5a85b" target="_top" xlink:title=" ">
<polygon fill="none" stroke="black" points="240.5,-292 240.5,-322 383.5,-322 383.5,-292 240.5,-292"/>
<text text-anchor="start" x="248.5" y="-310" font-family="Helvetica,sans-Serif" font-size="10.00">vae::core::SpatialManager</text>
<text text-anchor="middle" x="312" y="-299" font-family="Helvetica,sans-Serif" font-size="10.00">::createEmitter</text>
</a>
</g>
</g>
<!-- Node2&#45;&gt;Node3 -->
<g id="edge2" class="edge">
<title>Node2&#45;&gt;Node3</title>
<path fill="none" stroke="midnightblue" d="M201.04,-275C216.49,-279.49 233.57,-284.47 249.59,-289.13"/>
<polygon fill="midnightblue" stroke="midnightblue" points="248.81,-292.55 259.39,-291.98 250.77,-285.83 248.81,-292.55"/>
</g>
<!-- Node4 -->
<g id="node4" class="node">
<title>Node4</title>
<g id="a_node4"><a xlink:href="classvae_1_1core_1_1_spatial_manager.html#a3f3be0983d6adf3ea217d76477f5d43b" target="_top" xlink:title=" ">
<polygon fill="none" stroke="black" points="429.5,-341 429.5,-371 572.5,-371 572.5,-341 429.5,-341"/>
<text text-anchor="start" x="437.5" y="-359" font-family="Helvetica,sans-Serif" font-size="10.00">vae::core::SpatialManager</text>
<text text-anchor="middle" x="501" y="-348" font-family="Helvetica,sans-Serif" font-size="10.00">::addEmitter</text>
</a>
</g>
</g>
<!-- Node3&#45;&gt;Node4 -->
<g id="edge3" class="edge">
<title>Node3&#45;&gt;Node4</title>
<path fill="none" stroke="midnightblue" d="M370.38,-322.03C390.12,-327.21 412.41,-333.05 432.86,-338.41"/>
<polygon fill="midnightblue" stroke="midnightblue" points="432.17,-341.84 442.73,-340.99 433.95,-335.07 432.17,-341.84"/>
</g>
<!-- Node5 -->
<g id="node5" class="node">
<title>Node5</title>
<g id="a_node5"><a xlink:href="classvae_1_1core_1_1_spatial_manager.html#a8223349a8417dbd972f9979618849a4e" target="_top" xlink:title=" ">
<polygon fill="none" stroke="black" points="429.5,-292 429.5,-322 572.5,-322 572.5,-292 429.5,-292"/>
<text text-anchor="start" x="437.5" y="-310" font-family="Helvetica,sans-Serif" font-size="10.00">vae::core::SpatialManager</text>
<text text-anchor="middle" x="501" y="-299" font-family="Helvetica,sans-Serif" font-size="10.00">::hasEmitter</text>
</a>
</g>
</g>
<!-- Node3&#45;&gt;Node5 -->
<g id="edge4" class="edge">
<title>Node3&#45;&gt;Node5</title>
<path fill="none" stroke="midnightblue" d="M383.7,-307C395.22,-307 407.23,-307 418.97,-307"/>
<polygon fill="midnightblue" stroke="midnightblue" points="419.2,-310.5 429.2,-307 419.2,-303.5 419.2,-310.5"/>
</g>
<!-- Node7 -->
<g id="node7" class="node">
<title>Node7</title>
<g id="a_node7"><a xlink:href="classvae_1_1core_1_1_engine.html#a4721a2bf236efae669ee51ba148e193a" target="_top" xlink:title="Main mechanism to start and stop sounds.">
<polygon fill="none" stroke="black" points="258.5,-179 258.5,-209 365.5,-209 365.5,-179 258.5,-179"/>
<text text-anchor="start" x="266.5" y="-197" font-family="Helvetica,sans-Serif" font-size="10.00">vae::core::Engine::</text>
<text text-anchor="middle" x="312" y="-186" font-family="Helvetica,sans-Serif" font-size="10.00">fireEvent</text>
</a>
</g>
</g>
<!-- Node6&#45;&gt;Node7 -->
<g id="edge6" class="edge">
<title>Node6&#45;&gt;Node7</title>
<path fill="none" stroke="midnightblue" d="M199.27,-160.1C215.78,-165.11 234.31,-170.73 251.47,-175.94"/>
<polygon fill="midnightblue" stroke="midnightblue" points="250.81,-179.39 261.39,-178.95 252.84,-172.7 250.81,-179.39"/>
</g>
<!-- Node16 -->
<g id="node16" class="node">
<title>Node16</title>
<g id="a_node16"><a xlink:href="namespacevae_1_1core.html#ad8e8a092991125ada0a95f174838b1b7" target="_top" xlink:title=" ">
<polygon fill="none" stroke="black" points="238,-130 238,-160 386,-160 386,-130 238,-130"/>
<text text-anchor="start" x="246" y="-148" font-family="Helvetica,sans-Serif" font-size="10.00">vae::core::splitGlobalEvent</text>
<text text-anchor="middle" x="312" y="-137" font-family="Helvetica,sans-Serif" font-size="10.00">Handle</text>
</a>
</g>
</g>
<!-- Node6&#45;&gt;Node16 -->
<g id="edge18" class="edge">
<title>Node6&#45;&gt;Node16</title>
<path fill="none" stroke="midnightblue" d="M202.38,-145C210.51,-145 219.08,-145 227.68,-145"/>
<polygon fill="midnightblue" stroke="midnightblue" points="227.77,-148.5 237.77,-145 227.77,-141.5 227.77,-148.5"/>
</g>
<!-- Node7&#45;&gt;Node5 -->
<g id="edge11" class="edge">
<title>Node7&#45;&gt;Node5</title>
<path fill="none" stroke="midnightblue" d="M327.51,-209.03C347.21,-228.64 384.31,-262.82 422,-283 425.32,-284.78 428.79,-286.44 432.34,-288"/>
<polygon fill="midnightblue" stroke="midnightblue" points="431.31,-291.36 441.9,-291.88 433.95,-284.88 431.31,-291.36"/>
</g>
<!-- Node7&#45;&gt;Node7 -->
<g id="edge7" class="edge">
<title>Node7&#45;&gt;Node7</title>
<path fill="none" stroke="midnightblue" d="M283.77,-209.16C276.96,-218.56 286.37,-227.5 312,-227.5 327.62,-227.5 337.21,-224.18 340.79,-219.46"/>
<polygon fill="midnightblue" stroke="midnightblue" points="344.26,-218.96 340.23,-209.16 337.27,-219.33 344.26,-218.96"/>
</g>
<!-- Node8 -->
<g id="node8" class="node">
<title>Node8</title>
<g id="a_node8"><a xlink:href="classvae_1_1core_1_1_spatial_manager.html#addd80ecf83e30b0814eaee82ae7bd700" target="_top" xlink:title=" ">
<polygon fill="none" stroke="black" points="429.5,-243 429.5,-273 572.5,-273 572.5,-243 429.5,-243"/>
<text text-anchor="start" x="437.5" y="-261" font-family="Helvetica,sans-Serif" font-size="10.00">vae::core::SpatialManager</text>
<text text-anchor="middle" x="501" y="-250" font-family="Helvetica,sans-Serif" font-size="10.00">::forListeners</text>
</a>
</g>
</g>
<!-- Node7&#45;&gt;Node8 -->
<g id="edge8" class="edge">
<title>Node7&#45;&gt;Node8</title>
<path fill="none" stroke="midnightblue" d="M354.04,-209.05C374.42,-216.43 399.44,-225.35 422,-233 428.51,-235.21 435.35,-237.48 442.16,-239.7"/>
<polygon fill="midnightblue" stroke="midnightblue" points="441.47,-243.16 452.07,-242.92 443.64,-236.5 441.47,-243.16"/>
</g>
<!-- Node9 -->
<g id="node9" class="node">
<title>Node9</title>
<g id="a_node9"><a xlink:href="classvae_1_1core_1_1_bank_manager.html#a4ec4afe30adb6e0108e799d26070a3a5" target="_top" xlink:title=" ">
<polygon fill="none" stroke="black" points="423,-67.5 423,-86.5 579,-86.5 579,-67.5 423,-67.5"/>
<text text-anchor="middle" x="501" y="-74.5" font-family="Helvetica,sans-Serif" font-size="10.00">vae::core::BankManager::get</text>
</a>
</g>
</g>
<!-- Node7&#45;&gt;Node9 -->
<g id="edge9" class="edge">
<title>Node7&#45;&gt;Node9</title>
<path fill="none" stroke="midnightblue" d="M365.62,-182.43C373,-179.24 380.07,-175.18 386,-170 413.55,-145.94 393.53,-118.95 422,-96 424.09,-94.32 426.3,-92.78 428.62,-91.37"/>
<polygon fill="midnightblue" stroke="midnightblue" points="430.64,-94.27 437.94,-86.59 427.45,-88.04 430.64,-94.27"/>
</g>
<!-- Node10 -->
<g id="node10" class="node">
<title>Node10</title>
<g id="a_node10"><a xlink:href="classvae_1_1core_1_1_bank_manager.html#aef2d335fb63d6f4be9f5b4793e309c99" target="_top" xlink:title=" ">
<polygon fill="none" stroke="black" points="422,-204.5 422,-223.5 580,-223.5 580,-204.5 422,-204.5"/>
<text text-anchor="middle" x="501" y="-211.5" font-family="Helvetica,sans-Serif" font-size="10.00">vae::core::BankManager::has</text>
</a>
</g>
</g>
<!-- Node7&#45;&gt;Node10 -->
<g id="edge10" class="edge">
<title>Node7&#45;&gt;Node10</title>
<path fill="none" stroke="midnightblue" d="M365.59,-199.62C379.94,-201.16 395.9,-202.87 411.66,-204.55"/>
<polygon fill="midnightblue" stroke="midnightblue" points="411.66,-208.07 421.98,-205.66 412.4,-201.11 411.66,-208.07"/>
</g>
<!-- Node11 -->
<g id="node11" class="node">
<title>Node11</title>
<g id="a_node11"><a xlink:href="classvae_1_1core_1_1_voice_manger.html#a56795adf1dfc9e96a8ef00fba1ae03ca" target="_top" xlink:title=" ">
<polygon fill="none" stroke="black" points="436.5,-155 436.5,-185 565.5,-185 565.5,-155 436.5,-155"/>
<text text-anchor="start" x="444.5" y="-173" font-family="Helvetica,sans-Serif" font-size="10.00">vae::core::VoiceManger</text>
<text text-anchor="middle" x="501" y="-162" font-family="Helvetica,sans-Serif" font-size="10.00">::play</text>
</a>
</g>
</g>
<!-- Node7&#45;&gt;Node11 -->
<g id="edge12" class="edge">
<title>Node7&#45;&gt;Node11</title>
<path fill="none" stroke="midnightblue" d="M365.59,-187.25C384.35,-184.84 405.84,-182.08 426.06,-179.49"/>
<polygon fill="midnightblue" stroke="midnightblue" points="426.71,-182.93 436.18,-178.19 425.82,-175.99 426.71,-182.93"/>
</g>
<!-- Node14 -->
<g id="node14" class="node">
<title>Node14</title>
<g id="a_node14"><a xlink:href="classvae_1_1core_1_1_voice_manger.html#a51b077f535b7eebcc1e62d5ca5a0d95d" target="_top" xlink:title="Stops a voice.">
<polygon fill="none" stroke="black" points="436.5,-106 436.5,-136 565.5,-136 565.5,-106 436.5,-106"/>
<text text-anchor="start" x="444.5" y="-124" font-family="Helvetica,sans-Serif" font-size="10.00">vae::core::VoiceManger</text>
<text text-anchor="middle" x="501" y="-113" font-family="Helvetica,sans-Serif" font-size="10.00">::stop</text>
</a>
</g>
</g>
<!-- Node7&#45;&gt;Node14 -->
<g id="edge15" class="edge">
<title>Node7&#45;&gt;Node14</title>
<path fill="none" stroke="midnightblue" d="M364.75,-178.93C372.01,-176.26 379.28,-173.27 386,-170 403.29,-161.59 404.68,-154.35 422,-146 426.68,-143.74 431.62,-141.62 436.64,-139.64"/>
<polygon fill="midnightblue" stroke="midnightblue" points="438.22,-142.79 446.36,-136.01 435.77,-136.23 438.22,-142.79"/>
</g>
<!-- Node12 -->
<g id="node12" class="node">
<title>Node12</title>
<g id="a_node12"><a xlink:href="classvae_1_1core_1_1_voice_manger.html#aca4814fa5ec2f09d38c7b15e92ce0cad" target="_top" xlink:title="makes provided voice virtual">
<polygon fill="none" stroke="black" points="616,-175 616,-205 745,-205 745,-175 616,-175"/>
<text text-anchor="start" x="624" y="-193" font-family="Helvetica,sans-Serif" font-size="10.00">vae::core::VoiceManger</text>
<text text-anchor="middle" x="680.5" y="-182" font-family="Helvetica,sans-Serif" font-size="10.00">::makeVirtual</text>
</a>
</g>
</g>
<!-- Node11&#45;&gt;Node12 -->
<g id="edge13" class="edge">
<title>Node11&#45;&gt;Node12</title>
<path fill="none" stroke="midnightblue" d="M565.58,-177.16C578.58,-178.63 592.37,-180.18 605.69,-181.68"/>
<polygon fill="midnightblue" stroke="midnightblue" points="605.44,-185.18 615.77,-182.82 606.22,-178.22 605.44,-185.18"/>
</g>
<!-- Node13 -->
<g id="node13" class="node">
<title>Node13</title>
<g id="a_node13"><a xlink:href="namespacetklb.html#a7dc2203e89c331e3c85b9e7f16fa6763" target="_top" xlink:title=" ">
<polygon fill="none" stroke="black" points="649,-136.5 649,-155.5 712,-155.5 712,-136.5 649,-136.5"/>
<text text-anchor="middle" x="680.5" y="-143.5" font-family="Helvetica,sans-Serif" font-size="10.00">tklb::max</text>
</a>
</g>
</g>
<!-- Node11&#45;&gt;Node13 -->
<g id="edge14" class="edge">
<title>Node11&#45;&gt;Node13</title>
<path fill="none" stroke="midnightblue" d="M565.58,-161.4C589.86,-158.12 616.88,-154.47 638.51,-151.54"/>
<polygon fill="midnightblue" stroke="midnightblue" points="639.21,-154.98 648.65,-150.17 638.28,-148.04 639.21,-154.98"/>
</g>
<!-- Node14&#45;&gt;Node13 -->
<g id="edge17" class="edge">
<title>Node14&#45;&gt;Node13</title>
<path fill="none" stroke="midnightblue" d="M565.58,-129.95C589.86,-133.37 616.88,-137.18 638.51,-140.23"/>
<polygon fill="midnightblue" stroke="midnightblue" points="638.26,-143.73 648.65,-141.66 639.24,-136.8 638.26,-143.73"/>
</g>
<!-- Node15 -->
<g id="node15" class="node">
<title>Node15</title>
<g id="a_node15"><a xlink:href="classvae_1_1core_1_1_voice_manger.html#abe6b6d5a07c73e1e194f24314226a19f" target="_top" xlink:title=" ">
<polygon fill="none" stroke="black" points="616,-87 616,-117 745,-117 745,-87 616,-87"/>
<text text-anchor="start" x="624" y="-105" font-family="Helvetica,sans-Serif" font-size="10.00">vae::core::VoiceManger</text>
<text text-anchor="middle" x="680.5" y="-94" font-family="Helvetica,sans-Serif" font-size="10.00">::finished</text>
</a>
</g>
</g>
<!-- Node14&#45;&gt;Node15 -->
<g id="edge16" class="edge">
<title>Node14&#45;&gt;Node15</title>
<path fill="none" stroke="midnightblue" d="M565.58,-114.19C578.58,-112.8 592.37,-111.33 605.69,-109.9"/>
<polygon fill="midnightblue" stroke="midnightblue" points="606.2,-113.37 615.77,-108.82 605.45,-106.41 606.2,-113.37"/>
</g>
<!-- Node17&#45;&gt;Node9 -->
<g id="edge20" class="edge">
<title>Node17&#45;&gt;Node9</title>
<path fill="none" stroke="midnightblue" d="M381.04,-89.09C391.33,-88.04 402.06,-86.95 412.69,-85.87"/>
<polygon fill="midnightblue" stroke="midnightblue" points="413.23,-89.33 422.82,-84.84 412.52,-82.37 413.23,-89.33"/>
</g>
<!-- Node19 -->
<g id="node19" class="node">
<title>Node19</title>
<g id="a_node19"><a xlink:href="classvae_1_1core_1_1_voice_manger.html#a7ee41f2edab0bd34a0dc436aa9e214ae" target="_top" xlink:title=" ">
<polygon fill="none" stroke="black" points="247.5,-32 247.5,-62 376.5,-62 376.5,-32 247.5,-32"/>
<text text-anchor="start" x="255.5" y="-50" font-family="Helvetica,sans-Serif" font-size="10.00">vae::core::VoiceManger</text>
<text text-anchor="middle" x="312" y="-39" font-family="Helvetica,sans-Serif" font-size="10.00">::setVoiceProperty</text>
</a>
</g>
</g>
<!-- Node18&#45;&gt;Node19 -->
<g id="edge22" class="edge">
<title>Node18&#45;&gt;Node19</title>
<path fill="none" stroke="midnightblue" d="M202.38,-51.71C213.48,-51.23 225.38,-50.71 237.09,-50.2"/>
<polygon fill="midnightblue" stroke="midnightblue" points="237.46,-53.69 247.3,-49.76 237.16,-46.7 237.46,-53.69"/>
</g>
</g>
</svg>
        <g id="navigator" transform="translate(0 0)" fill="#404254">
                <rect fill="#f2f5e9" fill-opacity="0.5" stroke="#606060" stroke-width=".5" x="0" y="0" width="60" height="60"/>
                <use id="zoomplus" xlink:href="#zoomPlus" x="17" y="9" onmousedown="handleZoom(evt,'in')"/>
                <use id="zoomminus" xlink:href="#zoomMin" x="42" y="9" onmousedown="handleZoom(evt,'out')"/>
                <use id="reset" xlink:href="#resetDef" x="30" y="36" onmousedown="handleReset()"/>
                <g id="arrowUp" xlink:href="#dirArrow" transform="translate(30 24)" onmousedown="handlePan(0,-1)">
                  <use xlink:href="#rim" fill="#404040">
                        <set attributeName="fill" to="#808080" begin="arrowUp.mouseover" end="arrowUp.mouseout"/>
                  </use>
                  <path fill="none" stroke="white" stroke-width="1.5" d="M0,-3.0v7 M-2.5,-0.5L0,-3.0L2.5,-0.5"/>
                </g>
                <g id="arrowRight" xlink:href="#dirArrow" transform="rotate(90) translate(36 -43)" onmousedown="handlePan(1,0)">
                  <use xlink:href="#rim" fill="#404040">
                        <set attributeName="fill" to="#808080" begin="arrowRight.mouseover" end="arrowRight.mouseout"/>
                  </use>
                  <path fill="none" stroke="white" stroke-width="1.5" d="M0,-3.0v7 M-2.5,-0.5L0,-3.0L2.5,-0.5"/>
                </g>
                <g id="arrowDown" xlink:href="#dirArrow" transform="rotate(180) translate(-30 -48)" onmousedown="handlePan(0,1)">
                  <use xlink:href="#rim" fill="#404040">
                        <set attributeName="fill" to="#808080" begin="arrowDown.mouseover" end="arrowDown.mouseout"/>
                  </use>
                  <path fill="none" stroke="white" stroke-width="1.5" d="M0,-3.0v7 M-2.5,-0.5L0,-3.0L2.5,-0.5"/>
                </g>
                <g id="arrowLeft" xlink:href="#dirArrow" transform="rotate(270) translate(-36 17)" onmousedown="handlePan(-1,0)">
                  <use xlink:href="#rim" fill="#404040">
                        <set attributeName="fill" to="#808080" begin="arrowLeft.mouseover" end="arrowLeft.mouseout"/>
                  </use>
                  <path fill="none" stroke="white" stroke-width="1.5" d="M0,-3.0v7 M-2.5,-0.5L0,-3.0L2.5,-0.5"/>
                </g>
        </g>
        <svg viewBox="0 0 15 15" width="100%" height="30px" preserveAspectRatio="xMaxYMin meet">
         <g id="arrow_out" transform="scale(0.3 0.3)">
          <a xlink:href="main_8cpp_afe1c3ff6204d9b675caf60b5545e3e54_cgraph_org.svg" target="_base">
           <rect id="button" ry="5" rx="5" y="6" x="6" height="38" width="38"
                fill="#f2f5e9" fill-opacity="0.5" stroke="#606060" stroke-width="1.0"/>
           <path id="arrow"
             d="M 11.500037,31.436501 C 11.940474,20.09759 22.043105,11.32322 32.158766,21.979434 L 37.068811,17.246167 C 37.068811,17.246167 37.088388,32 37.088388,32 L 22.160133,31.978069 C 22.160133,31.978069 26.997745,27.140456 26.997745,27.140456 C 18.528582,18.264221 13.291696,25.230495 11.500037,31.436501 z"
             style="fill:#404040;"/>
          </a>
         </g>
        </svg>
</svg>
