<?xml version="1.0" encoding="UTF-8" standalone="no"?>
<!DOCTYPE svg PUBLIC "-//W3C//DTD SVG 1.1//EN"
 "http://www.w3.org/Graphics/SVG/1.1/DTD/svg11.dtd">
<!-- Generated by graphviz version 2.50.0 (0)
 -->
<!-- Title: tklb::wave::load Pages: 1 -->
<svg width="839pt" height="448pt"
 viewBox="0.00 0.00 839.00 447.50" xmlns="http://www.w3.org/2000/svg" xmlns:xlink="http://www.w3.org/1999/xlink">
<g id="graph0" class="graph" transform="scale(1 1) rotate(0) translate(4 443.5)">
<title>tklb::wave::load</title>
<!-- Node1 -->
<g id="node1" class="node">
<title>Node1</title>
<g id="a_node1"><a xlink:title="Decode wav from memory or file path.">
<polygon fill="#bfbfbf" stroke="black" points="0,-300 0,-319 95,-319 95,-300 0,-300"/>
<text text-anchor="middle" x="47.5" y="-307" font-family="Helvetica,sans-Serif" font-size="10.00">tklb::wave::load</text>
</a>
</g>
</g>
<!-- Node2 -->
<g id="node2" class="node">
<title>Node2</title>
<g id="a_node2"><a xlink:href="classtklb_1_1_heap_buffer.html#afcce6d234f25d074818cdd35e2d33daa" target="_top" xlink:title=" ">
<polygon fill="none" stroke="black" points="144.5,-420 144.5,-439 269.5,-439 269.5,-420 144.5,-420"/>
<text text-anchor="middle" x="207" y="-427" font-family="Helvetica,sans-Serif" font-size="10.00">tklb::HeapBuffer::data</text>
</a>
</g>
</g>
<!-- Node1&#45;&gt;Node2 -->
<g id="edge1" class="edge">
<title>Node1&#45;&gt;Node2</title>
<path fill="none" stroke="midnightblue" d="M53.63,-319.3C64.8,-339.65 93.38,-386.54 131,-410.5 134.35,-412.63 137.92,-414.52 141.62,-416.2"/>
<polygon fill="midnightblue" stroke="midnightblue" points="140.45,-419.5 151.03,-419.96 143.04,-413 140.45,-419.5"/>
</g>
<!-- Node3 -->
<g id="node3" class="node">
<title>Node3</title>
<g id="a_node3"><a xlink:href="namespacetklb_1_1wave_1_1__.html#a505c3965a632ba8e5aa1e0f5bd5a4d97" target="_top" xlink:title=" ">
<polygon fill="none" stroke="black" points="136.5,-382 136.5,-401 277.5,-401 277.5,-382 136.5,-382"/>
<text text-anchor="middle" x="207" y="-389" font-family="Helvetica,sans-Serif" font-size="10.00">tklb::wave::_::drwaveFree</text>
</a>
</g>
</g>
<!-- Node1&#45;&gt;Node3 -->
<g id="edge2" class="edge">
<title>Node1&#45;&gt;Node3</title>
<path fill="none" stroke="midnightblue" d="M58.27,-319.13C72.87,-332.97 101.79,-358.39 131,-372.5 135.91,-374.87 141.16,-376.97 146.5,-378.83"/>
<polygon fill="midnightblue" stroke="midnightblue" points="145.59,-382.21 156.18,-381.9 147.71,-375.54 145.59,-382.21"/>
</g>
<!-- Node4 -->
<g id="node4" class="node">
<title>Node4</title>
<g id="a_node4"><a xlink:href="namespacetklb_1_1wave_1_1__.html#a2785c54e80d6c817bdde01724b8c11cc" target="_top" xlink:title=" ">
<polygon fill="none" stroke="black" points="131,-344 131,-363 283,-363 283,-344 131,-344"/>
<text text-anchor="middle" x="207" y="-351" font-family="Helvetica,sans-Serif" font-size="10.00">tklb::wave::_::drwaveMalloc</text>
</a>
</g>
</g>
<!-- Node1&#45;&gt;Node4 -->
<g id="edge3" class="edge">
<title>Node1&#45;&gt;Node4</title>
<path fill="none" stroke="midnightblue" d="M78.96,-319.1C94.49,-323.9 113.7,-329.69 131,-334.5 139.46,-336.85 148.5,-339.24 157.25,-341.5"/>
<polygon fill="midnightblue" stroke="midnightblue" points="156.43,-344.9 166.98,-343.98 158.16,-338.12 156.43,-344.9"/>
</g>
<!-- Node5 -->
<g id="node5" class="node">
<title>Node5</title>
<g id="a_node5"><a xlink:href="classtklb_1_1_audio_buffer_tpl.html#addb80823bf792039ad009baeed0a7dcb" target="_top" xlink:title="Resizes the buffer to the desired length and channel count.">
<polygon fill="none" stroke="black" points="150,-294.5 150,-324.5 264,-324.5 264,-294.5 150,-294.5"/>
<text text-anchor="start" x="158" y="-312.5" font-family="Helvetica,sans-Serif" font-size="10.00">tklb::AudioBufferTpl</text>
<text text-anchor="middle" x="207" y="-301.5" font-family="Helvetica,sans-Serif" font-size="10.00">::resize</text>
</a>
</g>
</g>
<!-- Node1&#45;&gt;Node5 -->
<g id="edge4" class="edge">
<title>Node1&#45;&gt;Node5</title>
<path fill="none" stroke="midnightblue" d="M95.33,-309.5C109.25,-309.5 124.78,-309.5 139.7,-309.5"/>
<polygon fill="midnightblue" stroke="midnightblue" points="139.9,-313 149.9,-309.5 139.9,-306 139.9,-313"/>
</g>
<!-- Node9 -->
<g id="node9" class="node">
<title>Node9</title>
<g id="a_node9"><a xlink:href="classtklb_1_1_heap_buffer.html#ab37e6c1fc8d124b5737cfdef69b051d1" target="_top" xlink:title="Resize the buffer If the memory is borrowed it will become unique and owned by this instance as soon ...">
<polygon fill="none" stroke="black" points="141,-104 141,-123 273,-123 273,-104 141,-104"/>
<text text-anchor="middle" x="207" y="-111" font-family="Helvetica,sans-Serif" font-size="10.00">tklb::HeapBuffer::resize</text>
</a>
</g>
</g>
<!-- Node1&#45;&gt;Node9 -->
<g id="edge8" class="edge">
<title>Node1&#45;&gt;Node9</title>
<path fill="none" stroke="midnightblue" d="M54.11,-299.87C66.67,-278.65 98.48,-226.63 131,-187.5 148.62,-166.3 171.49,-144.41 187.32,-129.99"/>
<polygon fill="midnightblue" stroke="midnightblue" points="189.8,-132.47 194.89,-123.18 185.12,-127.27 189.8,-132.47"/>
</g>
<!-- Node19 -->
<g id="node19" class="node">
<title>Node19</title>
<g id="a_node19"><a xlink:href="classtklb_1_1_audio_buffer_tpl.html#aa7f380c81a409e3362ceee8a57094ee4" target="_top" xlink:title="Set multiple channels from an interleaved array.">
<polygon fill="none" stroke="black" points="148.5,-196.5 148.5,-226.5 265.5,-226.5 265.5,-196.5 148.5,-196.5"/>
<text text-anchor="start" x="156.5" y="-214.5" font-family="Helvetica,sans-Serif" font-size="10.00">tklb::AudioBufferTpl</text>
<text text-anchor="middle" x="207" y="-203.5" font-family="Helvetica,sans-Serif" font-size="10.00">::setFromInterleaved</text>
</a>
</g>
</g>
<!-- Node1&#45;&gt;Node19 -->
<g id="edge21" class="edge">
<title>Node1&#45;&gt;Node19</title>
<path fill="none" stroke="midnightblue" d="M57.17,-299.6C71.23,-284.1 100.52,-254.08 131,-236.5 134.68,-234.38 138.56,-232.41 142.55,-230.57"/>
<polygon fill="midnightblue" stroke="midnightblue" points="144.16,-233.69 151.99,-226.56 141.42,-227.25 144.16,-233.69"/>
</g>
<!-- Node21 -->
<g id="node21" class="node">
<title>Node21</title>
<g id="a_node21"><a xlink:href="classtklb_1_1_audio_buffer_tpl.html#ae6bac549ffef997e42354d8e4870afe4" target="_top" xlink:title="Set the amount of valid samples currently in the buffer This is mostly a convenience flag since the a...">
<polygon fill="none" stroke="black" points="150,-245.5 150,-275.5 264,-275.5 264,-245.5 150,-245.5"/>
<text text-anchor="start" x="158" y="-263.5" font-family="Helvetica,sans-Serif" font-size="10.00">tklb::AudioBufferTpl</text>
<text text-anchor="middle" x="207" y="-252.5" font-family="Helvetica,sans-Serif" font-size="10.00">::setValidSize</text>
</a>
</g>
</g>
<!-- Node1&#45;&gt;Node21 -->
<g id="edge26" class="edge">
<title>Node1&#45;&gt;Node21</title>
<path fill="none" stroke="midnightblue" d="M79.24,-299.94C98.75,-293.87 124.6,-285.82 147.88,-278.58"/>
<polygon fill="midnightblue" stroke="midnightblue" points="149.16,-281.85 157.67,-275.54 147.08,-275.17 149.16,-281.85"/>
</g>
<!-- Node6 -->
<g id="node6" class="node">
<title>Node6</title>
<g id="a_node6"><a xlink:href="classtklb_1_1_audio_buffer_tpl.html#a9714a6b0b9ee269c551b28f830a02d57" target="_top" xlink:title="Returns the amount of channels.">
<polygon fill="none" stroke="black" points="333,-240.5 333,-270.5 447,-270.5 447,-240.5 333,-240.5"/>
<text text-anchor="start" x="341" y="-258.5" font-family="Helvetica,sans-Serif" font-size="10.00">tklb::AudioBufferTpl</text>
<text text-anchor="middle" x="390" y="-247.5" font-family="Helvetica,sans-Serif" font-size="10.00">::channels</text>
</a>
</g>
</g>
<!-- Node5&#45;&gt;Node6 -->
<g id="edge5" class="edge">
<title>Node5&#45;&gt;Node6</title>
<path fill="none" stroke="midnightblue" d="M258.42,-294.46C280.29,-287.93 306.08,-280.24 328.94,-273.42"/>
<polygon fill="midnightblue" stroke="midnightblue" points="329.96,-276.77 338.54,-270.55 327.95,-270.06 329.96,-276.77"/>
</g>
<!-- Node7 -->
<g id="node7" class="node">
<title>Node7</title>
<g id="a_node7"><a xlink:href="namespacetklb.html#a3080595da18d742645ec41d61828a426" target="_top" xlink:title=" ">
<polygon fill="none" stroke="black" points="541.5,-252 541.5,-271 601.5,-271 601.5,-252 541.5,-252"/>
<text text-anchor="middle" x="571.5" y="-259" font-family="Helvetica,sans-Serif" font-size="10.00">tklb::min</text>
</a>
</g>
</g>
<!-- Node5&#45;&gt;Node7 -->
<g id="edge6" class="edge">
<title>Node5&#45;&gt;Node7</title>
<path fill="none" stroke="midnightblue" d="M261.9,-324.56C313.88,-336.58 394.27,-348.54 461,-329.5 496.21,-319.46 531.14,-294.47 551.77,-277.75"/>
<polygon fill="midnightblue" stroke="midnightblue" points="554.25,-280.24 559.69,-271.16 549.77,-274.86 554.25,-280.24"/>
</g>
<!-- Node8 -->
<g id="node8" class="node">
<title>Node8</title>
<g id="a_node8"><a xlink:href="classtklb_1_1_audio_buffer_tpl.html#acbe041a482f37ed4a02b99b239e53f80" target="_top" xlink:title="Returns the allocated length of the buffer.">
<polygon fill="none" stroke="black" points="333,-289.5 333,-319.5 447,-319.5 447,-289.5 333,-289.5"/>
<text text-anchor="start" x="341" y="-307.5" font-family="Helvetica,sans-Serif" font-size="10.00">tklb::AudioBufferTpl</text>
<text text-anchor="middle" x="390" y="-296.5" font-family="Helvetica,sans-Serif" font-size="10.00">::size</text>
</a>
</g>
</g>
<!-- Node5&#45;&gt;Node8 -->
<g id="edge7" class="edge">
<title>Node5&#45;&gt;Node8</title>
<path fill="none" stroke="midnightblue" d="M264.28,-307.95C282.75,-307.44 303.45,-306.86 322.6,-306.33"/>
<polygon fill="midnightblue" stroke="midnightblue" points="322.86,-309.83 332.76,-306.05 322.66,-302.83 322.86,-309.83"/>
</g>
<!-- Node10 -->
<g id="node10" class="node">
<title>Node10</title>
<g id="a_node10"><a xlink:href="classtklb_1_1_heap_buffer.html#aa2212b76d383c1afe3d4da0448133299" target="_top" xlink:title="Allocated the exact size requsted and copies existing objects.">
<polygon fill="none" stroke="black" points="319,-126 319,-145 461,-145 461,-126 319,-126"/>
<text text-anchor="middle" x="390" y="-133" font-family="Helvetica,sans-Serif" font-size="10.00">tklb::HeapBuffer::allocate</text>
</a>
</g>
</g>
<!-- Node9&#45;&gt;Node10 -->
<g id="edge9" class="edge">
<title>Node9&#45;&gt;Node10</title>
<path fill="none" stroke="midnightblue" d="M273.09,-121.41C284.73,-122.83 296.98,-124.32 308.98,-125.77"/>
<polygon fill="midnightblue" stroke="midnightblue" points="308.63,-129.26 318.98,-126.99 309.48,-122.31 308.63,-129.26"/>
</g>
<!-- Node17 -->
<g id="node17" class="node">
<title>Node17</title>
<g id="a_node17"><a xlink:href="classtklb_1_1_heap_buffer.html#ad513a99105213150fe287a8c209f8bc2" target="_top" xlink:title=" ">
<polygon fill="none" stroke="black" points="321.5,-76.5 321.5,-106.5 458.5,-106.5 458.5,-76.5 321.5,-76.5"/>
<text text-anchor="start" x="329.5" y="-94.5" font-family="Helvetica,sans-Serif" font-size="10.00">tklb::HeapBuffer::closest</text>
<text text-anchor="middle" x="390" y="-83.5" font-family="Helvetica,sans-Serif" font-size="10.00">ChunkSize</text>
</a>
</g>
</g>
<!-- Node9&#45;&gt;Node17 -->
<g id="edge19" class="edge">
<title>Node9&#45;&gt;Node17</title>
<path fill="none" stroke="midnightblue" d="M273.09,-105.59C285.48,-104.08 298.57,-102.49 311.31,-100.94"/>
<polygon fill="midnightblue" stroke="midnightblue" points="311.93,-104.39 321.44,-99.71 311.09,-97.44 311.93,-104.39"/>
</g>
<!-- Node18 -->
<g id="node18" class="node">
<title>Node18</title>
<g id="a_node18"><a xlink:href="classtklb_1_1_heap_buffer.html#a5ec4892e352b8df099fa1c75cfbf328c" target="_top" xlink:title="Returns the amount of elements in the container.">
<polygon fill="none" stroke="black" points="329,-38 329,-57 451,-57 451,-38 329,-38"/>
<text text-anchor="middle" x="390" y="-45" font-family="Helvetica,sans-Serif" font-size="10.00">tklb::HeapBuffer::size</text>
</a>
</g>
</g>
<!-- Node9&#45;&gt;Node18 -->
<g id="edge20" class="edge">
<title>Node9&#45;&gt;Node18</title>
<path fill="none" stroke="midnightblue" d="M228.14,-104C250.13,-93.85 286.56,-77.71 319,-66.5 325.87,-64.12 333.21,-61.85 340.45,-59.76"/>
<polygon fill="midnightblue" stroke="midnightblue" points="341.52,-63.1 350.2,-57.03 339.63,-56.36 341.52,-63.1"/>
</g>
<!-- Node10&#45;&gt;Node7 -->
<g id="edge18" class="edge">
<title>Node10&#45;&gt;Node7</title>
<path fill="none" stroke="midnightblue" d="M446.27,-145.14C451.62,-147.59 456.66,-150.66 461,-154.5 492.66,-182.48 465.17,-214.71 497,-242.5 506.54,-250.83 519.27,-255.58 531.46,-258.27"/>
<polygon fill="midnightblue" stroke="midnightblue" points="531.02,-261.75 541.49,-260.08 532.27,-254.86 531.02,-261.75"/>
</g>
<!-- Node11 -->
<g id="node11" class="node">
<title>Node11</title>
<g id="a_node11"><a xlink:href="classtklb_1_1memory_1_1_memory_pool.html#a12db669f354ab3f2037a67db7f0a8229" target="_top" xlink:title=" ">
<polygon fill="none" stroke="black" points="682,-143.5 682,-173.5 831,-173.5 831,-143.5 682,-143.5"/>
<text text-anchor="start" x="690" y="-161.5" font-family="Helvetica,sans-Serif" font-size="10.00">tklb::memory::MemoryPool</text>
<text text-anchor="middle" x="756.5" y="-150.5" font-family="Helvetica,sans-Serif" font-size="10.00">::allocate</text>
</a>
</g>
</g>
<!-- Node10&#45;&gt;Node11 -->
<g id="edge10" class="edge">
<title>Node10&#45;&gt;Node11</title>
<path fill="none" stroke="midnightblue" d="M461.28,-139.93C521.47,-143.73 608.25,-149.21 671.98,-153.23"/>
<polygon fill="midnightblue" stroke="midnightblue" points="671.8,-156.73 682,-153.86 672.24,-149.74 671.8,-156.73"/>
</g>
<!-- Node12 -->
<g id="node12" class="node">
<title>Node12</title>
<g id="a_node12"><a xlink:href="classtklb_1_1memory_1_1_memory_pool.html#a23f0f8e6cc9408d522b0165dd0f01ac2" target="_top" xlink:title="Allocate aligned if simd is enabled.">
<polygon fill="none" stroke="black" points="497,-202.5 497,-232.5 646,-232.5 646,-202.5 497,-202.5"/>
<text text-anchor="start" x="505" y="-220.5" font-family="Helvetica,sans-Serif" font-size="10.00">tklb::memory::MemoryPool</text>
<text text-anchor="middle" x="571.5" y="-209.5" font-family="Helvetica,sans-Serif" font-size="10.00">::allocateAligned</text>
</a>
</g>
</g>
<!-- Node10&#45;&gt;Node12 -->
<g id="edge11" class="edge">
<title>Node10&#45;&gt;Node12</title>
<path fill="none" stroke="midnightblue" d="M439.86,-145.04C447.22,-147.52 454.51,-150.62 461,-154.5 480.97,-166.44 477.42,-179.94 497,-192.5 500.13,-194.51 503.45,-196.38 506.87,-198.11"/>
<polygon fill="midnightblue" stroke="midnightblue" points="505.56,-201.36 516.11,-202.38 508.5,-195.01 505.56,-201.36"/>
</g>
<!-- Node13 -->
<g id="node13" class="node">
<title>Node13</title>
<g id="a_node13"><a xlink:href="namespacetklb_1_1memory.html#ab89ec197028f903f4ea125eae46c4a10" target="_top" xlink:title="memcpy wrapper">
<polygon fill="none" stroke="black" points="515.5,-50 515.5,-69 627.5,-69 627.5,-50 515.5,-50"/>
<text text-anchor="middle" x="571.5" y="-57" font-family="Helvetica,sans-Serif" font-size="10.00">tklb::memory::copy</text>
</a>
</g>
</g>
<!-- Node10&#45;&gt;Node13 -->
<g id="edge13" class="edge">
<title>Node10&#45;&gt;Node13</title>
<path fill="none" stroke="midnightblue" d="M435.88,-125.92C444.5,-123.19 453.25,-119.76 461,-115.5 479.76,-105.19 478.43,-94.16 497,-83.5 504.61,-79.13 513.13,-75.43 521.6,-72.33"/>
<polygon fill="midnightblue" stroke="midnightblue" points="522.75,-75.64 531.08,-69.1 520.49,-69.01 522.75,-75.64"/>
</g>
<!-- Node14 -->
<g id="node14" class="node">
<title>Node14</title>
<g id="a_node14"><a xlink:href="classtklb_1_1memory_1_1_memory_pool.html#ae2f6e404a58380b0bcf0f3de281a7546" target="_top" xlink:title=" ">
<polygon fill="none" stroke="black" points="682,-59.5 682,-89.5 831,-89.5 831,-59.5 682,-59.5"/>
<text text-anchor="start" x="690" y="-77.5" font-family="Helvetica,sans-Serif" font-size="10.00">tklb::memory::MemoryPool</text>
<text text-anchor="middle" x="756.5" y="-66.5" font-family="Helvetica,sans-Serif" font-size="10.00">::deallocate</text>
</a>
</g>
</g>
<!-- Node10&#45;&gt;Node14 -->
<g id="edge14" class="edge">
<title>Node10&#45;&gt;Node14</title>
<path fill="none" stroke="midnightblue" d="M447.95,-125.97C508.07,-115.91 603.43,-99.95 672.04,-88.47"/>
<polygon fill="midnightblue" stroke="midnightblue" points="672.67,-91.91 681.96,-86.81 671.52,-85.01 672.67,-91.91"/>
</g>
<!-- Node15 -->
<g id="node15" class="node">
<title>Node15</title>
<g id="a_node15"><a xlink:href="classtklb_1_1memory_1_1_memory_pool.html#a7b2a7e96e64767e2cff9dfddb9085779" target="_top" xlink:title=" ">
<polygon fill="none" stroke="black" points="497,-0.5 497,-30.5 646,-30.5 646,-0.5 497,-0.5"/>
<text text-anchor="start" x="505" y="-18.5" font-family="Helvetica,sans-Serif" font-size="10.00">tklb::memory::MemoryPool</text>
<text text-anchor="middle" x="571.5" y="-7.5" font-family="Helvetica,sans-Serif" font-size="10.00">::deallocateAligned</text>
</a>
</g>
</g>
<!-- Node10&#45;&gt;Node15 -->
<g id="edge15" class="edge">
<title>Node10&#45;&gt;Node15</title>
<path fill="none" stroke="midnightblue" d="M443.58,-125.86C449.88,-123.21 455.88,-119.82 461,-115.5 489.26,-91.66 469.34,-65.03 497,-40.5 498.76,-38.94 500.62,-37.47 502.57,-36.1"/>
<polygon fill="midnightblue" stroke="midnightblue" points="504.81,-38.83 511.53,-30.63 501.17,-32.85 504.81,-38.83"/>
</g>
<!-- Node16 -->
<g id="node16" class="node">
<title>Node16</title>
<g id="a_node16"><a xlink:href="classtklb_1_1_heap_buffer.html#af3331f4c39082c6bedf37b7931b1c27a" target="_top" xlink:title="Whether the memory is managed by the instance or is borrowed.">
<polygon fill="none" stroke="black" points="500.5,-164 500.5,-183 642.5,-183 642.5,-164 500.5,-164"/>
<text text-anchor="middle" x="571.5" y="-171" font-family="Helvetica,sans-Serif" font-size="10.00">tklb::HeapBuffer::injected</text>
</a>
</g>
</g>
<!-- Node10&#45;&gt;Node16 -->
<g id="edge17" class="edge">
<title>Node10&#45;&gt;Node16</title>
<path fill="none" stroke="midnightblue" d="M436.3,-145.09C460.41,-150.19 490.25,-156.51 515.67,-161.89"/>
<polygon fill="midnightblue" stroke="midnightblue" points="515.02,-165.33 525.53,-163.98 516.47,-158.48 515.02,-165.33"/>
</g>
<!-- Node12&#45;&gt;Node11 -->
<g id="edge12" class="edge">
<title>Node12&#45;&gt;Node11</title>
<path fill="none" stroke="midnightblue" d="M619.15,-202.46C643.57,-194.59 673.64,-184.89 699.32,-176.61"/>
<polygon fill="midnightblue" stroke="midnightblue" points="700.49,-179.91 708.93,-173.51 698.34,-173.25 700.49,-179.91"/>
</g>
<!-- Node15&#45;&gt;Node14 -->
<g id="edge16" class="edge">
<title>Node15&#45;&gt;Node14</title>
<path fill="none" stroke="midnightblue" d="M619.15,-30.54C643.57,-38.41 673.64,-48.11 699.32,-56.39"/>
<polygon fill="midnightblue" stroke="midnightblue" points="698.34,-59.75 708.93,-59.49 700.49,-53.09 698.34,-59.75"/>
</g>
<!-- Node19&#45;&gt;Node6 -->
<g id="edge22" class="edge">
<title>Node19&#45;&gt;Node6</title>
<path fill="none" stroke="midnightblue" d="M265.77,-225.54C283.92,-229.96 304.1,-234.86 322.8,-239.41"/>
<polygon fill="midnightblue" stroke="midnightblue" points="322.16,-242.85 332.71,-241.82 323.82,-236.05 322.16,-242.85"/>
</g>
<!-- Node19&#45;&gt;Node7 -->
<g id="edge24" class="edge">
<title>Node19&#45;&gt;Node7</title>
<path fill="none" stroke="midnightblue" d="M265.75,-212.5C317.34,-214.23 394.77,-218.92 461,-231.5 477.44,-234.62 480.9,-237.96 497,-242.5 508.17,-245.65 520.35,-248.88 531.52,-251.76"/>
<polygon fill="midnightblue" stroke="midnightblue" points="530.89,-255.21 541.45,-254.3 532.63,-248.43 530.89,-255.21"/>
</g>
<!-- Node19&#45;&gt;Node8 -->
<g id="edge25" class="edge">
<title>Node19&#45;&gt;Node8</title>
<path fill="none" stroke="midnightblue" d="M264.95,-226.62C271.3,-229.41 277.46,-232.68 283,-236.5 303.8,-250.84 298.26,-266.07 319,-280.5 321.12,-281.98 323.34,-283.37 325.64,-284.68"/>
<polygon fill="midnightblue" stroke="midnightblue" points="324.27,-287.91 334.76,-289.36 327.46,-281.68 324.27,-287.91"/>
</g>
<!-- Node20 -->
<g id="node20" class="node">
<title>Node20</title>
<g id="a_node20"><a xlink:href="classtklb_1_1_audio_buffer_tpl.html#a839371a414e21aea2101d9404e3be9c5" target="_top" xlink:title=" ">
<polygon fill="none" stroke="black" points="322,-164 322,-183 458,-183 458,-164 322,-164"/>
<text text-anchor="middle" x="390" y="-171" font-family="Helvetica,sans-Serif" font-size="10.00">tklb::AudioBufferTpl::get</text>
</a>
</g>
</g>
<!-- Node19&#45;&gt;Node20 -->
<g id="edge23" class="edge">
<title>Node19&#45;&gt;Node20</title>
<path fill="none" stroke="midnightblue" d="M265.77,-199.37C287.47,-194.82 312.08,-189.65 333.56,-185.14"/>
<polygon fill="midnightblue" stroke="midnightblue" points="334.45,-188.53 343.51,-183.05 333.01,-181.68 334.45,-188.53"/>
</g>
<!-- Node21&#45;&gt;Node8 -->
<g id="edge27" class="edge">
<title>Node21&#45;&gt;Node8</title>
<path fill="none" stroke="midnightblue" d="M264.28,-274.18C282.84,-278.69 303.64,-283.75 322.87,-288.42"/>
<polygon fill="midnightblue" stroke="midnightblue" points="322.21,-291.87 332.76,-290.83 323.87,-285.06 322.21,-291.87"/>
</g>
</g>
</svg>
