<?xml version="1.0" encoding="UTF-8" standalone="no"?>
<!DOCTYPE svg PUBLIC "-//W3C//DTD SVG 1.1//EN"
 "http://www.w3.org/Graphics/SVG/1.1/DTD/svg11.dtd">
<!-- Generated by graphviz version 2.50.0 (0)
 -->
<!-- Title: tklb::tklbRealloc Pages: 1 -->
<svg width="232pt" height="66pt"
 viewBox="0.00 0.00 232.00 66.00" xmlns="http://www.w3.org/2000/svg" xmlns:xlink="http://www.w3.org/1999/xlink">
<g id="graph0" class="graph" transform="scale(1 1) rotate(0) translate(4 62)">
<title>tklb::tklbRealloc</title>
<!-- Node1 -->
<g id="node1" class="node">
<title>Node1</title>
<g id="a_node1"><a xlink:title=" ">
<polygon fill="#bfbfbf" stroke="black" points="0,-19.5 0,-38.5 96,-38.5 96,-19.5 0,-19.5"/>
<text text-anchor="middle" x="48" y="-26.5" font-family="Helvetica,sans-Serif" font-size="10.00">tklb::tklbRealloc</text>
</a>
</g>
</g>
<!-- Node2 -->
<g id="node2" class="node">
<title>Node2</title>
<g id="a_node2"><a xlink:href="namespacetklb.html#a209cacf7f3304de23bc8ffe28af11c23" target="_top" xlink:title=" ">
<polygon fill="none" stroke="black" points="138,-38.5 138,-57.5 218,-57.5 218,-38.5 138,-38.5"/>
<text text-anchor="middle" x="178" y="-45.5" font-family="Helvetica,sans-Serif" font-size="10.00">tklb::tklbFree</text>
</a>
</g>
</g>
<!-- Node1&#45;&gt;Node2 -->
<g id="edge1" class="edge">
<title>Node1&#45;&gt;Node2</title>
<path fill="none" stroke="midnightblue" d="M96.3,-36.02C106.55,-37.54 117.42,-39.16 127.75,-40.69"/>
<polygon fill="midnightblue" stroke="midnightblue" points="127.45,-44.18 137.86,-42.19 128.48,-37.26 127.45,-44.18"/>
</g>
<!-- Node3 -->
<g id="node3" class="node">
<title>Node3</title>
<g id="a_node3"><a xlink:href="namespacetklb.html#ab0ba2f16f378d5d2c4e0bc136c1adf47" target="_top" xlink:title=" ">
<polygon fill="none" stroke="black" points="132,-0.5 132,-19.5 224,-19.5 224,-0.5 132,-0.5"/>
<text text-anchor="middle" x="178" y="-7.5" font-family="Helvetica,sans-Serif" font-size="10.00">tklb::tklbMalloc</text>
</a>
</g>
</g>
<!-- Node1&#45;&gt;Node3 -->
<g id="edge2" class="edge">
<title>Node1&#45;&gt;Node3</title>
<path fill="none" stroke="midnightblue" d="M96.3,-21.98C104.5,-20.76 113.1,-19.49 121.49,-18.24"/>
<polygon fill="midnightblue" stroke="midnightblue" points="122.22,-21.67 131.6,-16.74 121.19,-14.75 122.22,-21.67"/>
</g>
</g>
</svg>
