<?xml version="1.0" encoding="UTF-8" standalone="no"?>
<!DOCTYPE svg PUBLIC "-//W3C//DTD SVG 1.1//EN"
 "http://www.w3.org/Graphics/SVG/1.1/DTD/svg11.dtd">
<!-- Generated by graphviz version 2.50.0 (0)
 -->
<!-- Title: tklb::tklbMalloc Pages: 1 -->
<svg width="232pt" height="142pt"
 viewBox="0.00 0.00 232.00 142.00" xmlns="http://www.w3.org/2000/svg" xmlns:xlink="http://www.w3.org/1999/xlink">
<g id="graph0" class="graph" transform="scale(1 1) rotate(0) translate(4 138)">
<title>tklb::tklbMalloc</title>
<!-- Node1 -->
<g id="node1" class="node">
<title>Node1</title>
<g id="a_node1"><a xlink:title=" ">
<polygon fill="#bfbfbf" stroke="black" points="132,-57.5 132,-76.5 224,-76.5 224,-57.5 132,-57.5"/>
<text text-anchor="middle" x="178" y="-64.5" font-family="Helvetica,sans-Serif" font-size="10.00">tklb::tklbMalloc</text>
</a>
</g>
</g>
<!-- Node2 -->
<g id="node2" class="node">
<title>Node2</title>
<g id="a_node2"><a xlink:href="_t_leak_checker_8h.html#a160dcabc54bbecfc69484678cafadb81" target="_top" xlink:title="http://stevehanov.ca/blog/?id=10">
<polygon fill="none" stroke="black" points="7.5,-114.5 7.5,-133.5 88.5,-133.5 88.5,-114.5 7.5,-114.5"/>
<text text-anchor="middle" x="48" y="-121.5" font-family="Helvetica,sans-Serif" font-size="10.00">operator new</text>
</a>
</g>
</g>
<!-- Node1&#45;&gt;Node2 -->
<g id="edge1" class="edge">
<title>Node1&#45;&gt;Node2</title>
<path fill="none" stroke="midnightblue" d="M148.45,-80.86C133.02,-88.23 113.57,-97.34 96,-105 88.74,-108.17 80.78,-111.46 73.5,-114.39"/>
<polygon fill="midnightblue" stroke="midnightblue" points="150,-84 157.5,-76.52 146.97,-77.69 150,-84"/>
</g>
<!-- Node3 -->
<g id="node3" class="node">
<title>Node3</title>
<g id="a_node3"><a xlink:href="_t_leak_checker_8h.html#af2243bb4c2126b7b2b393e06090fbe59" target="_top" xlink:title=" ">
<polygon fill="none" stroke="black" points="3.5,-76.5 3.5,-95.5 92.5,-95.5 92.5,-76.5 3.5,-76.5"/>
<text text-anchor="middle" x="48" y="-83.5" font-family="Helvetica,sans-Serif" font-size="10.00">operator new[]</text>
</a>
</g>
</g>
<!-- Node1&#45;&gt;Node3 -->
<g id="edge2" class="edge">
<title>Node1&#45;&gt;Node3</title>
<path fill="none" stroke="midnightblue" d="M121.9,-75.18C112.19,-76.62 102.21,-78.1 92.86,-79.49"/>
<polygon fill="midnightblue" stroke="midnightblue" points="122.49,-78.63 131.87,-73.7 121.47,-71.7 122.49,-78.63"/>
</g>
<!-- Node4 -->
<g id="node4" class="node">
<title>Node4</title>
<g id="a_node4"><a xlink:href="namespacetklb.html#abb10504507e615da5fa5b4d40b37aa72" target="_top" xlink:title=" ">
<polygon fill="none" stroke="black" points="3,-38.5 3,-57.5 93,-57.5 93,-38.5 3,-38.5"/>
<text text-anchor="middle" x="48" y="-45.5" font-family="Helvetica,sans-Serif" font-size="10.00">tklb::tklbCalloc</text>
</a>
</g>
</g>
<!-- Node1&#45;&gt;Node4 -->
<g id="edge3" class="edge">
<title>Node1&#45;&gt;Node4</title>
<path fill="none" stroke="midnightblue" d="M121.71,-58.79C112.21,-57.38 102.45,-55.93 93.29,-54.57"/>
<polygon fill="midnightblue" stroke="midnightblue" points="121.47,-62.3 131.87,-60.3 122.49,-55.37 121.47,-62.3"/>
</g>
<!-- Node5 -->
<g id="node5" class="node">
<title>Node5</title>
<g id="a_node5"><a xlink:href="namespacetklb.html#a80d5e1a1f62d506aee082dc70ecdac62" target="_top" xlink:title=" ">
<polygon fill="none" stroke="black" points="0,-0.5 0,-19.5 96,-19.5 96,-0.5 0,-0.5"/>
<text text-anchor="middle" x="48" y="-7.5" font-family="Helvetica,sans-Serif" font-size="10.00">tklb::tklbRealloc</text>
</a>
</g>
</g>
<!-- Node1&#45;&gt;Node5 -->
<g id="edge4" class="edge">
<title>Node1&#45;&gt;Node5</title>
<path fill="none" stroke="midnightblue" d="M148.45,-53.14C133.02,-45.77 113.57,-36.66 96,-29 88.74,-25.83 80.78,-22.54 73.5,-19.61"/>
<polygon fill="midnightblue" stroke="midnightblue" points="146.97,-56.31 157.5,-57.48 150,-50 146.97,-56.31"/>
</g>
</g>
</svg>
