<?xml version="1.0" encoding="UTF-8" standalone="no"?>
<!DOCTYPE svg PUBLIC "-//W3C//DTD SVG 1.1//EN"
 "http://www.w3.org/Graphics/SVG/1.1/DTD/svg11.dtd">
<!-- Generated by graphviz version 2.50.0 (0)
 -->
<!-- Title: tklb::ogg::load Pages: 1 -->
<svg width="624pt" height="180pt"
 viewBox="0.00 0.00 624.00 180.00" xmlns="http://www.w3.org/2000/svg" xmlns:xlink="http://www.w3.org/1999/xlink">
<g id="graph0" class="graph" transform="scale(1 1) rotate(0) translate(4 176)">
<title>tklb::ogg::load</title>
<!-- Node1 -->
<g id="node1" class="node">
<title>Node1</title>
<g id="a_node1"><a xlink:title="Decode ogg/vorbis from memory or file path.">
<polygon fill="#bfbfbf" stroke="black" points="0,-85.5 0,-104.5 86,-104.5 86,-85.5 0,-85.5"/>
<text text-anchor="middle" x="43" y="-92.5" font-family="Helvetica,sans-Serif" font-size="10.00">tklb::ogg::load</text>
</a>
</g>
</g>
<!-- Node2 -->
<g id="node2" class="node">
<title>Node2</title>
<g id="a_node2"><a xlink:href="classtklb_1_1_heap_buffer.html#ad4af395796fe08eb735bb13f62e9245f" target="_top" xlink:title=" ">
<polygon fill="none" stroke="black" points="125.5,-104.5 125.5,-123.5 250.5,-123.5 250.5,-104.5 125.5,-104.5"/>
<text text-anchor="middle" x="188" y="-111.5" font-family="Helvetica,sans-Serif" font-size="10.00">tklb::HeapBuffer::data</text>
</a>
</g>
</g>
<!-- Node1&#45;&gt;Node2 -->
<g id="edge1" class="edge">
<title>Node1&#45;&gt;Node2</title>
<path fill="none" stroke="midnightblue" d="M86.13,-100.6C95.34,-101.82 105.33,-103.15 115.33,-104.48"/>
<polygon fill="midnightblue" stroke="midnightblue" points="114.92,-107.95 125.3,-105.8 115.85,-101.02 114.92,-107.95"/>
</g>
<!-- Node3 -->
<g id="node3" class="node">
<title>Node3</title>
<g id="a_node3"><a xlink:href="classtklb_1_1_heap_buffer.html#aea890defe7d21d9273e005464b04f784" target="_top" xlink:title="Resize the buffer If the memory is borrowed it will become unique and owned by this instance as soon ...">
<polygon fill="none" stroke="black" points="122,-66.5 122,-85.5 254,-85.5 254,-66.5 122,-66.5"/>
<text text-anchor="middle" x="188" y="-73.5" font-family="Helvetica,sans-Serif" font-size="10.00">tklb::HeapBuffer::resize</text>
</a>
</g>
</g>
<!-- Node1&#45;&gt;Node3 -->
<g id="edge2" class="edge">
<title>Node1&#45;&gt;Node3</title>
<path fill="none" stroke="midnightblue" d="M86.13,-89.4C94.27,-88.32 103.03,-87.16 111.86,-85.98"/>
<polygon fill="midnightblue" stroke="midnightblue" points="112.38,-89.45 121.83,-84.66 111.46,-82.51 112.38,-89.45"/>
</g>
<!-- Node4 -->
<g id="node4" class="node">
<title>Node4</title>
<g id="a_node4"><a xlink:href="classtklb_1_1_heap_buffer.html#a37d94fdca920347674a4048cdc28452d" target="_top" xlink:title="Allocated the exact size requsted and copies existing objects.">
<polygon fill="none" stroke="black" points="290,-101.5 290,-120.5 432,-120.5 432,-101.5 290,-101.5"/>
<text text-anchor="middle" x="361" y="-108.5" font-family="Helvetica,sans-Serif" font-size="10.00">tklb::HeapBuffer::allocate</text>
</a>
</g>
</g>
<!-- Node3&#45;&gt;Node4 -->
<g id="edge3" class="edge">
<title>Node3&#45;&gt;Node4</title>
<path fill="none" stroke="midnightblue" d="M235.73,-85.56C256.65,-89.85 281.5,-94.93 303.47,-99.43"/>
<polygon fill="midnightblue" stroke="midnightblue" points="302.83,-102.87 313.33,-101.45 304.23,-96.01 302.83,-102.87"/>
</g>
<!-- Node5 -->
<g id="node5" class="node">
<title>Node5</title>
<g id="a_node5"><a xlink:href="classtklb_1_1_heap_buffer.html#a25c9d8fce108ff905202bcf7a6038d3d" target="_top" xlink:title="Whether the memory is managed by the instance or is borrowed.">
<polygon fill="none" stroke="black" points="471,-152.5 471,-171.5 613,-171.5 613,-152.5 471,-152.5"/>
<text text-anchor="middle" x="542" y="-159.5" font-family="Helvetica,sans-Serif" font-size="10.00">tklb::HeapBuffer::injected</text>
</a>
</g>
</g>
<!-- Node3&#45;&gt;Node5 -->
<g id="edge10" class="edge">
<title>Node3&#45;&gt;Node5</title>
<path fill="none" stroke="midnightblue" d="M232.53,-85.52C239.96,-88.03 247.4,-91.15 254,-95 273.28,-106.24 269.9,-120.31 290,-130 343.15,-155.61 409.61,-163.16 460.79,-164.54"/>
<polygon fill="midnightblue" stroke="midnightblue" points="460.74,-168.04 470.81,-164.74 460.88,-161.05 460.74,-168.04"/>
</g>
<!-- Node8 -->
<g id="node8" class="node">
<title>Node8</title>
<g id="a_node8"><a xlink:href="classtklb_1_1_heap_buffer.html#a682dc231ff65beb7114cb0e476affd6b" target="_top" xlink:title=" ">
<polygon fill="none" stroke="black" points="292.5,-39 292.5,-69 429.5,-69 429.5,-39 292.5,-39"/>
<text text-anchor="start" x="300.5" y="-57" font-family="Helvetica,sans-Serif" font-size="10.00">tklb::HeapBuffer::closest</text>
<text text-anchor="middle" x="361" y="-46" font-family="Helvetica,sans-Serif" font-size="10.00">ChunkSize</text>
</a>
</g>
</g>
<!-- Node3&#45;&gt;Node8 -->
<g id="edge7" class="edge">
<title>Node3&#45;&gt;Node8</title>
<path fill="none" stroke="midnightblue" d="M254.14,-67.62C263.35,-66.43 272.91,-65.2 282.33,-63.99"/>
<polygon fill="midnightblue" stroke="midnightblue" points="283.02,-67.43 292.49,-62.69 282.13,-60.49 283.02,-67.43"/>
</g>
<!-- Node10 -->
<g id="node10" class="node">
<title>Node10</title>
<g id="a_node10"><a xlink:href="classtklb_1_1_heap_buffer.html#a172cd1dde86d1f3b0308fb0ce4a1758a" target="_top" xlink:title="Returns the amount of elements in the container.">
<polygon fill="none" stroke="black" points="481,-0.5 481,-19.5 603,-19.5 603,-0.5 481,-0.5"/>
<text text-anchor="middle" x="542" y="-7.5" font-family="Helvetica,sans-Serif" font-size="10.00">tklb::HeapBuffer::size</text>
</a>
</g>
</g>
<!-- Node3&#45;&gt;Node10 -->
<g id="edge11" class="edge">
<title>Node3&#45;&gt;Node10</title>
<path fill="none" stroke="midnightblue" d="M204.77,-66.47C224.09,-55.31 258.19,-37.31 290,-29 349.63,-13.42 419.74,-9.24 470.68,-8.63"/>
<polygon fill="midnightblue" stroke="midnightblue" points="470.96,-12.13 480.93,-8.55 470.9,-5.13 470.96,-12.13"/>
</g>
<!-- Node4&#45;&gt;Node5 -->
<g id="edge4" class="edge">
<title>Node4&#45;&gt;Node5</title>
<path fill="none" stroke="midnightblue" d="M392.52,-120.56C413.65,-127.09 442.46,-135.82 468,-143 476.16,-145.29 484.85,-147.64 493.29,-149.87"/>
<polygon fill="midnightblue" stroke="midnightblue" points="492.48,-153.27 503.04,-152.42 494.25,-146.5 492.48,-153.27"/>
</g>
<!-- Node6 -->
<g id="node6" class="node">
<title>Node6</title>
<g id="a_node6"><a xlink:href="classtklb_1_1_heap_buffer.html#a23801c62dcfb74cab62a9998de65adeb" target="_top" xlink:title=" ">
<polygon fill="none" stroke="black" points="468,-114.5 468,-133.5 616,-133.5 616,-114.5 468,-114.5"/>
<text text-anchor="middle" x="542" y="-121.5" font-family="Helvetica,sans-Serif" font-size="10.00">tklb::HeapBuffer::isAligned</text>
</a>
</g>
</g>
<!-- Node4&#45;&gt;Node6 -->
<g id="edge5" class="edge">
<title>Node4&#45;&gt;Node6</title>
<path fill="none" stroke="midnightblue" d="M432.23,-116.1C440.52,-116.7 449.04,-117.32 457.48,-117.93"/>
<polygon fill="midnightblue" stroke="midnightblue" points="457.5,-121.44 467.73,-118.68 458.01,-114.46 457.5,-121.44"/>
</g>
<!-- Node7 -->
<g id="node7" class="node">
<title>Node7</title>
<g id="a_node7"><a xlink:href="namespacetklb.html#a3080595da18d742645ec41d61828a426" target="_top" xlink:title=" ">
<polygon fill="none" stroke="black" points="512,-76.5 512,-95.5 572,-95.5 572,-76.5 512,-76.5"/>
<text text-anchor="middle" x="542" y="-83.5" font-family="Helvetica,sans-Serif" font-size="10.00">tklb::min</text>
</a>
</g>
</g>
<!-- Node4&#45;&gt;Node7 -->
<g id="edge6" class="edge">
<title>Node4&#45;&gt;Node7</title>
<path fill="none" stroke="midnightblue" d="M430.18,-101.48C454.36,-98.1 480.73,-94.42 501.68,-91.49"/>
<polygon fill="midnightblue" stroke="midnightblue" points="502.38,-94.93 511.8,-90.08 501.42,-87.99 502.38,-94.93"/>
</g>
<!-- Node9 -->
<g id="node9" class="node">
<title>Node9</title>
<g id="a_node9"><a xlink:href="namespacetklb.html#a7dc2203e89c331e3c85b9e7f16fa6763" target="_top" xlink:title=" ">
<polygon fill="none" stroke="black" points="510.5,-38.5 510.5,-57.5 573.5,-57.5 573.5,-38.5 510.5,-38.5"/>
<text text-anchor="middle" x="542" y="-45.5" font-family="Helvetica,sans-Serif" font-size="10.00">tklb::max</text>
</a>
</g>
</g>
<!-- Node8&#45;&gt;Node9 -->
<g id="edge8" class="edge">
<title>Node8&#45;&gt;Node9</title>
<path fill="none" stroke="midnightblue" d="M429.67,-51.73C453.39,-50.94 479.28,-50.07 500.12,-49.37"/>
<polygon fill="midnightblue" stroke="midnightblue" points="500.34,-52.87 510.22,-49.03 500.1,-45.87 500.34,-52.87"/>
</g>
<!-- Node8&#45;&gt;Node10 -->
<g id="edge9" class="edge">
<title>Node8&#45;&gt;Node10</title>
<path fill="none" stroke="midnightblue" d="M423.1,-38.98C445.75,-33.41 471.1,-27.18 492.47,-21.93"/>
<polygon fill="midnightblue" stroke="midnightblue" points="493.43,-25.3 502.3,-19.51 491.76,-18.5 493.43,-25.3"/>
</g>
</g>
</svg>
