<?xml version="1.0" encoding="UTF-8" standalone="no"?>
<!DOCTYPE svg PUBLIC "-//W3C//DTD SVG 1.1//EN"
 "http://www.w3.org/Graphics/SVG/1.1/DTD/svg11.dtd">
<!-- Generated by graphviz version 2.50.0 (0)
 -->
<!-- Title: tklb::memory::tracer::deallocateAlignedTrace Pages: 1 -->
<svg width="617pt" height="88pt"
 viewBox="0.00 0.00 617.00 88.00" xmlns="http://www.w3.org/2000/svg" xmlns:xlink="http://www.w3.org/1999/xlink">
<g id="graph0" class="graph" transform="scale(1 1) rotate(0) translate(4 84)">
<title>tklb::memory::tracer::deallocateAlignedTrace</title>
<!-- Node1 -->
<g id="node1" class="node">
<title>Node1</title>
<g id="a_node1"><a xlink:title=" ">
<polygon fill="#bfbfbf" stroke="black" points="0,-24.5 0,-54.5 136,-54.5 136,-24.5 0,-24.5"/>
<text text-anchor="start" x="8" y="-42.5" font-family="Helvetica,sans-Serif" font-size="10.00">tklb::memory::tracer</text>
<text text-anchor="middle" x="68" y="-31.5" font-family="Helvetica,sans-Serif" font-size="10.00">::deallocateAlignedTrace</text>
</a>
</g>
</g>
<!-- Node2 -->
<g id="node2" class="node">
<title>Node2</title>
<g id="a_node2"><a xlink:href="structtklb_1_1memory_1_1tracer_1_1_magic_block.html#ac3781e28e0b7cf54161f1bb26e523ca5" target="_top" xlink:title=" ">
<polygon fill="none" stroke="black" points="172,-24.5 172,-54.5 293,-54.5 293,-24.5 172,-24.5"/>
<text text-anchor="start" x="180" y="-42.5" font-family="Helvetica,sans-Serif" font-size="10.00">tklb::memory::tracer</text>
<text text-anchor="middle" x="232.5" y="-31.5" font-family="Helvetica,sans-Serif" font-size="10.00">::MagicBlock::destroy</text>
</a>
</g>
</g>
<!-- Node1&#45;&gt;Node2 -->
<g id="edge1" class="edge">
<title>Node1&#45;&gt;Node2</title>
<path fill="none" stroke="midnightblue" d="M136.03,-39.5C144.49,-39.5 153.15,-39.5 161.65,-39.5"/>
<polygon fill="midnightblue" stroke="midnightblue" points="161.9,-43 171.9,-39.5 161.9,-36 161.9,-43"/>
</g>
<!-- Node3 -->
<g id="node3" class="node">
<title>Node3</title>
<g id="a_node3"><a xlink:href="structtklb_1_1memory_1_1tracer_1_1_magic_block.html#ad6d7ec91fc6ebe3cf9ff6326f1d4bfc2" target="_top" xlink:title="checks if the allocation is still intact">
<polygon fill="none" stroke="black" points="329,-49.5 329,-79.5 446,-79.5 446,-49.5 329,-49.5"/>
<text text-anchor="start" x="337" y="-67.5" font-family="Helvetica,sans-Serif" font-size="10.00">tklb::memory::tracer</text>
<text text-anchor="middle" x="387.5" y="-56.5" font-family="Helvetica,sans-Serif" font-size="10.00">::MagicBlock::check</text>
</a>
</g>
</g>
<!-- Node2&#45;&gt;Node3 -->
<g id="edge2" class="edge">
<title>Node2&#45;&gt;Node3</title>
<path fill="none" stroke="midnightblue" d="M293.09,-49.24C301.53,-50.62 310.27,-52.04 318.85,-53.45"/>
<polygon fill="midnightblue" stroke="midnightblue" points="318.39,-56.92 328.83,-55.08 319.52,-50.01 318.39,-56.92"/>
</g>
<!-- Node5 -->
<g id="node5" class="node">
<title>Node5</title>
<g id="a_node5"><a xlink:href="structtklb_1_1memory_1_1tracer_1_1_magic_block.html#a6ce36eef9e0991197e520cd79677dff3" target="_top" xlink:title="Find the MagicBlock for a given allocation.">
<polygon fill="none" stroke="black" points="329,-0.5 329,-30.5 446,-30.5 446,-0.5 329,-0.5"/>
<text text-anchor="start" x="337" y="-18.5" font-family="Helvetica,sans-Serif" font-size="10.00">tklb::memory::tracer</text>
<text text-anchor="middle" x="387.5" y="-7.5" font-family="Helvetica,sans-Serif" font-size="10.00">::MagicBlock::find</text>
</a>
</g>
</g>
<!-- Node2&#45;&gt;Node5 -->
<g id="edge4" class="edge">
<title>Node2&#45;&gt;Node5</title>
<path fill="none" stroke="midnightblue" d="M293.09,-30.15C301.53,-28.83 310.27,-27.46 318.85,-26.11"/>
<polygon fill="midnightblue" stroke="midnightblue" points="319.49,-29.55 328.83,-24.55 318.41,-22.64 319.49,-29.55"/>
</g>
<!-- Node4 -->
<g id="node4" class="node">
<title>Node4</title>
<g id="a_node4"><a xlink:href="structtklb_1_1memory_1_1tracer_1_1_magic_block.html#a79e6e6f126eaf3a73f2f16530da06158" target="_top" xlink:title=" ">
<polygon fill="none" stroke="black" points="482,-49.5 482,-79.5 609,-79.5 609,-49.5 482,-49.5"/>
<text text-anchor="start" x="490" y="-67.5" font-family="Helvetica,sans-Serif" font-size="10.00">tklb::memory::tracer</text>
<text text-anchor="middle" x="545.5" y="-56.5" font-family="Helvetica,sans-Serif" font-size="10.00">::MagicBlock::compare</text>
</a>
</g>
</g>
<!-- Node3&#45;&gt;Node4 -->
<g id="edge3" class="edge">
<title>Node3&#45;&gt;Node4</title>
<path fill="none" stroke="midnightblue" d="M446.15,-64.5C454.5,-64.5 463.2,-64.5 471.81,-64.5"/>
<polygon fill="midnightblue" stroke="midnightblue" points="471.85,-68 481.85,-64.5 471.85,-61 471.85,-68"/>
</g>
</g>
</svg>
