<?xml version="1.0" encoding="UTF-8" standalone="no"?>
<!DOCTYPE svg PUBLIC "-//W3C//DTD SVG 1.1//EN"
 "http://www.w3.org/Graphics/SVG/1.1/DTD/svg11.dtd">
<!-- Generated by graphviz version 2.50.0 (0)
 -->
<!-- Title: tklb::memory::set Pages: 1 -->
<svg width="622pt" height="235pt"
 viewBox="0.00 0.00 622.00 235.00" xmlns="http://www.w3.org/2000/svg" xmlns:xlink="http://www.w3.org/1999/xlink">
<g id="graph0" class="graph" transform="scale(1 1) rotate(0) translate(4 231)">
<title>tklb::memory::set</title>
<!-- Node1 -->
<g id="node1" class="node">
<title>Node1</title>
<g id="a_node1"><a xlink:title="memset wrapper">
<polygon fill="#bfbfbf" stroke="black" points="510,-104 510,-123 614,-123 614,-104 510,-104"/>
<text text-anchor="middle" x="562" y="-111" font-family="Helvetica,sans-Serif" font-size="10.00">tklb::memory::set</text>
</a>
</g>
</g>
<!-- Node2 -->
<g id="node2" class="node">
<title>Node2</title>
<g id="a_node2"><a xlink:href="classtklb_1_1memory_1_1_memory_pool.html#a951792ad0910d0021090392177d55016" target="_top" xlink:title="Allocates space for num of structs with size size and clears the memory.">
<polygon fill="none" stroke="black" points="325,-147.5 325,-177.5 474,-177.5 474,-147.5 325,-147.5"/>
<text text-anchor="start" x="333" y="-165.5" font-family="Helvetica,sans-Serif" font-size="10.00">tklb::memory::MemoryPool</text>
<text text-anchor="middle" x="399.5" y="-154.5" font-family="Helvetica,sans-Serif" font-size="10.00">::clearallocate</text>
</a>
</g>
</g>
<!-- Node1&#45;&gt;Node2 -->
<g id="edge1" class="edge">
<title>Node1&#45;&gt;Node2</title>
<path fill="none" stroke="midnightblue" d="M519.92,-126.04C498.53,-132.57 472.23,-140.6 449.75,-147.46"/>
<polygon fill="midnightblue" stroke="midnightblue" points="521.13,-129.33 529.67,-123.06 519.09,-122.64 521.13,-129.33"/>
</g>
<!-- Node3 -->
<g id="node3" class="node">
<title>Node3</title>
<g id="a_node3"><a xlink:href="structtklb_1_1memory_1_1tracer_1_1_magic_block.html#a3a7c9d40a568eba5b629b77ae86e1a2c" target="_top" xlink:title=" ">
<polygon fill="none" stroke="black" points="329.5,-98.5 329.5,-128.5 469.5,-128.5 469.5,-98.5 329.5,-98.5"/>
<text text-anchor="start" x="337.5" y="-116.5" font-family="Helvetica,sans-Serif" font-size="10.00">tklb::memory::tracer</text>
<text text-anchor="middle" x="399.5" y="-105.5" font-family="Helvetica,sans-Serif" font-size="10.00">::MagicBlock::MagicBlock</text>
</a>
</g>
</g>
<!-- Node1&#45;&gt;Node3 -->
<g id="edge2" class="edge">
<title>Node1&#45;&gt;Node3</title>
<path fill="none" stroke="midnightblue" d="M499.71,-113.5C489.89,-113.5 479.67,-113.5 469.68,-113.5"/>
<polygon fill="midnightblue" stroke="midnightblue" points="499.78,-117 509.78,-113.5 499.78,-110 499.78,-117"/>
</g>
<!-- Node10 -->
<g id="node10" class="node">
<title>Node10</title>
<g id="a_node10"><a xlink:href="_t_resampler_speex_8hpp.html#a3b8d71870ca75bbcfd50ec8fb0103aea" target="_top" xlink:title=" ">
<polygon fill="none" stroke="black" points="362.5,-60 362.5,-79 436.5,-79 436.5,-60 362.5,-60"/>
<text text-anchor="middle" x="399.5" y="-67" font-family="Helvetica,sans-Serif" font-size="10.00">speex_alloc</text>
</a>
</g>
</g>
<!-- Node1&#45;&gt;Node10 -->
<g id="edge9" class="edge">
<title>Node1&#45;&gt;Node10</title>
<path fill="none" stroke="midnightblue" d="M516.63,-101.23C502.96,-97.46 487.86,-93.3 474,-89.5 461.5,-86.08 447.8,-82.34 435.65,-79.04"/>
<polygon fill="midnightblue" stroke="midnightblue" points="515.72,-104.61 526.29,-103.9 517.59,-97.86 515.72,-104.61"/>
</g>
<!-- Node4 -->
<g id="node4" class="node">
<title>Node4</title>
<g id="a_node4"><a xlink:href="structtklb_1_1memory_1_1tracer_1_1_magic_block.html#adb2c8c821e057b6dfed4de8092402aaa" target="_top" xlink:title="Placement new at the end of the allocation.">
<polygon fill="none" stroke="black" points="160,-98.5 160,-128.5 289,-128.5 289,-98.5 160,-98.5"/>
<text text-anchor="start" x="168" y="-116.5" font-family="Helvetica,sans-Serif" font-size="10.00">tklb::memory::tracer</text>
<text text-anchor="middle" x="224.5" y="-105.5" font-family="Helvetica,sans-Serif" font-size="10.00">::MagicBlock::construct</text>
</a>
</g>
</g>
<!-- Node3&#45;&gt;Node4 -->
<g id="edge3" class="edge">
<title>Node3&#45;&gt;Node4</title>
<path fill="none" stroke="midnightblue" d="M319.11,-113.5C309.02,-113.5 298.8,-113.5 289,-113.5"/>
<polygon fill="midnightblue" stroke="midnightblue" points="319.13,-117 329.13,-113.5 319.13,-110 319.13,-117"/>
</g>
<!-- Node5 -->
<g id="node5" class="node">
<title>Node5</title>
<g id="a_node5"><a xlink:href="namespacetklb_1_1memory_1_1tracer.html#add2da56b07706b53a564029ad061edc7" target="_top" xlink:title=" ">
<polygon fill="none" stroke="black" points="0,-196.5 0,-226.5 124,-226.5 124,-196.5 0,-196.5"/>
<text text-anchor="start" x="8" y="-214.5" font-family="Helvetica,sans-Serif" font-size="10.00">tklb::memory::tracer</text>
<text text-anchor="middle" x="62" y="-203.5" font-family="Helvetica,sans-Serif" font-size="10.00">::allocateAlignedTrace</text>
</a>
</g>
</g>
<!-- Node4&#45;&gt;Node5 -->
<g id="edge4" class="edge">
<title>Node4&#45;&gt;Node5</title>
<path fill="none" stroke="midnightblue" d="M198.39,-135.12C179,-151.06 151,-172.5 124,-187.5 118.23,-190.71 111.94,-193.69 105.67,-196.39"/>
<polygon fill="midnightblue" stroke="midnightblue" points="200.7,-137.75 206.14,-128.66 196.22,-132.37 200.7,-137.75"/>
</g>
<!-- Node6 -->
<g id="node6" class="node">
<title>Node6</title>
<g id="a_node6"><a xlink:href="namespacetklb_1_1memory_1_1tracer.html#a3336124ebde0db155d7a045638af34f1" target="_top" xlink:title=" ">
<polygon fill="none" stroke="black" points="3.5,-147.5 3.5,-177.5 120.5,-177.5 120.5,-147.5 3.5,-147.5"/>
<text text-anchor="start" x="11.5" y="-165.5" font-family="Helvetica,sans-Serif" font-size="10.00">tklb::memory::tracer</text>
<text text-anchor="middle" x="62" y="-154.5" font-family="Helvetica,sans-Serif" font-size="10.00">::allocateTrace</text>
</a>
</g>
</g>
<!-- Node4&#45;&gt;Node6 -->
<g id="edge5" class="edge">
<title>Node4&#45;&gt;Node6</title>
<path fill="none" stroke="midnightblue" d="M164.17,-131.61C147.11,-136.82 128.69,-142.45 112.3,-147.45"/>
<polygon fill="midnightblue" stroke="midnightblue" points="165.49,-134.87 174.04,-128.6 163.45,-128.17 165.49,-134.87"/>
</g>
<!-- Node7 -->
<g id="node7" class="node">
<title>Node7</title>
<g id="a_node7"><a xlink:href="namespacetklb_1_1memory_1_1tracer.html#a08271a2b7d60ebf35907fbfad4fc3db1" target="_top" xlink:title=" ">
<polygon fill="none" stroke="black" points="3.5,-98.5 3.5,-128.5 120.5,-128.5 120.5,-98.5 3.5,-98.5"/>
<text text-anchor="start" x="11.5" y="-116.5" font-family="Helvetica,sans-Serif" font-size="10.00">tklb::memory::tracer</text>
<text text-anchor="middle" x="62" y="-105.5" font-family="Helvetica,sans-Serif" font-size="10.00">::clearallocateTrace</text>
</a>
</g>
</g>
<!-- Node4&#45;&gt;Node7 -->
<g id="edge6" class="edge">
<title>Node4&#45;&gt;Node7</title>
<path fill="none" stroke="midnightblue" d="M149.57,-113.5C139.88,-113.5 130.06,-113.5 120.7,-113.5"/>
<polygon fill="midnightblue" stroke="midnightblue" points="149.61,-117 159.6,-113.5 149.6,-110 149.61,-117"/>
</g>
<!-- Node8 -->
<g id="node8" class="node">
<title>Node8</title>
<g id="a_node8"><a xlink:href="namespacetklb_1_1memory_1_1tracer.html#a5518546cecc9e0844eec1a009955fb2d" target="_top" xlink:title=" ">
<polygon fill="none" stroke="black" points="3.5,-49.5 3.5,-79.5 120.5,-79.5 120.5,-49.5 3.5,-49.5"/>
<text text-anchor="start" x="11.5" y="-67.5" font-family="Helvetica,sans-Serif" font-size="10.00">tklb::memory::tracer</text>
<text text-anchor="middle" x="62" y="-56.5" font-family="Helvetica,sans-Serif" font-size="10.00">::createTrace</text>
</a>
</g>
</g>
<!-- Node4&#45;&gt;Node8 -->
<g id="edge7" class="edge">
<title>Node4&#45;&gt;Node8</title>
<path fill="none" stroke="midnightblue" d="M164.17,-95.39C147.11,-90.18 128.69,-84.55 112.3,-79.55"/>
<polygon fill="midnightblue" stroke="midnightblue" points="163.45,-98.83 174.04,-98.4 165.49,-92.13 163.45,-98.83"/>
</g>
<!-- Node9 -->
<g id="node9" class="node">
<title>Node9</title>
<g id="a_node9"><a xlink:href="namespacetklb_1_1memory_1_1tracer.html#af5ca005d4fa0d89ede7f4c55e1d53c67" target="_top" xlink:title=" ">
<polygon fill="none" stroke="black" points="3.5,-0.5 3.5,-30.5 120.5,-30.5 120.5,-0.5 3.5,-0.5"/>
<text text-anchor="start" x="11.5" y="-18.5" font-family="Helvetica,sans-Serif" font-size="10.00">tklb::memory::tracer</text>
<text text-anchor="middle" x="62" y="-7.5" font-family="Helvetica,sans-Serif" font-size="10.00">::reallocateTrace</text>
</a>
</g>
</g>
<!-- Node4&#45;&gt;Node9 -->
<g id="edge8" class="edge">
<title>Node4&#45;&gt;Node9</title>
<path fill="none" stroke="midnightblue" d="M197.92,-92.02C178.49,-76.39 150.65,-55.44 124,-40.5 117.61,-36.92 110.6,-33.56 103.69,-30.55"/>
<polygon fill="midnightblue" stroke="midnightblue" points="195.74,-94.76 205.71,-98.36 200.16,-89.33 195.74,-94.76"/>
</g>
</g>
</svg>
