<?xml version="1.0" encoding="UTF-8" standalone="no"?>
<!DOCTYPE svg PUBLIC "-//W3C//DTD SVG 1.1//EN"
 "http://www.w3.org/Graphics/SVG/1.1/DTD/svg11.dtd">
<!-- Generated by graphviz version 2.50.0 (0)
 -->
<!-- Title: tklb::clamp Pages: 1 -->
<svg width="178pt" height="66pt"
 viewBox="0.00 0.00 178.00 66.00" xmlns="http://www.w3.org/2000/svg" xmlns:xlink="http://www.w3.org/1999/xlink">
<g id="graph0" class="graph" transform="scale(1 1) rotate(0) translate(4 62)">
<title>tklb::clamp</title>
<!-- Node1 -->
<g id="node1" class="node">
<title>Node1</title>
<g id="a_node1"><a xlink:title=" ">
<polygon fill="#bfbfbf" stroke="black" points="0,-19.5 0,-38.5 71,-38.5 71,-19.5 0,-19.5"/>
<text text-anchor="middle" x="35.5" y="-26.5" font-family="Helvetica,sans-Serif" font-size="10.00">tklb::clamp</text>
</a>
</g>
</g>
<!-- Node2 -->
<g id="node2" class="node">
<title>Node2</title>
<g id="a_node2"><a xlink:href="namespacetklb.html#a7dc2203e89c331e3c85b9e7f16fa6763" target="_top" xlink:title=" ">
<polygon fill="none" stroke="black" points="107,-38.5 107,-57.5 170,-57.5 170,-38.5 107,-38.5"/>
<text text-anchor="middle" x="138.5" y="-45.5" font-family="Helvetica,sans-Serif" font-size="10.00">tklb::max</text>
</a>
</g>
</g>
<!-- Node1&#45;&gt;Node2 -->
<g id="edge1" class="edge">
<title>Node1&#45;&gt;Node2</title>
<path fill="none" stroke="midnightblue" d="M71.26,-35.54C79.45,-37.08 88.26,-38.74 96.7,-40.32"/>
<polygon fill="midnightblue" stroke="midnightblue" points="96.26,-43.8 106.73,-42.21 97.55,-36.92 96.26,-43.8"/>
</g>
<!-- Node3 -->
<g id="node3" class="node">
<title>Node3</title>
<g id="a_node3"><a xlink:href="namespacetklb.html#a3080595da18d742645ec41d61828a426" target="_top" xlink:title=" ">
<polygon fill="none" stroke="black" points="108.5,-0.5 108.5,-19.5 168.5,-19.5 168.5,-0.5 108.5,-0.5"/>
<text text-anchor="middle" x="138.5" y="-7.5" font-family="Helvetica,sans-Serif" font-size="10.00">tklb::min</text>
</a>
</g>
</g>
<!-- Node1&#45;&gt;Node3 -->
<g id="edge2" class="edge">
<title>Node1&#45;&gt;Node3</title>
<path fill="none" stroke="midnightblue" d="M71.26,-22.46C80.05,-20.81 89.54,-19.02 98.53,-17.33"/>
<polygon fill="midnightblue" stroke="midnightblue" points="99.2,-20.77 108.38,-15.48 97.91,-13.89 99.2,-20.77"/>
</g>
</g>
</svg>
