<?xml version="1.0" encoding="UTF-8" standalone="no"?>
<!DOCTYPE svg PUBLIC "-//W3C//DTD SVG 1.1//EN"
 "http://www.w3.org/Graphics/SVG/1.1/DTD/svg11.dtd">
<!-- Generated by graphviz version 2.50.0 (0)
 -->
<!-- Title: tklb::memory::tracer::allocateAlignedTrace Pages: 1 -->
<svg width="621pt" height="66pt"
 viewBox="0.00 0.00 621.00 66.00" xmlns="http://www.w3.org/2000/svg" xmlns:xlink="http://www.w3.org/1999/xlink">
<g id="graph0" class="graph" transform="scale(1 1) rotate(0) translate(4 62)">
<title>tklb::memory::tracer::allocateAlignedTrace</title>
<!-- Node1 -->
<g id="node1" class="node">
<title>Node1</title>
<g id="a_node1"><a xlink:title=" ">
<polygon fill="#bfbfbf" stroke="black" points="0,-14 0,-44 124,-44 124,-14 0,-14"/>
<text text-anchor="start" x="8" y="-32" font-family="Helvetica,sans-Serif" font-size="10.00">tklb::memory::tracer</text>
<text text-anchor="middle" x="62" y="-21" font-family="Helvetica,sans-Serif" font-size="10.00">::allocateAlignedTrace</text>
</a>
</g>
</g>
<!-- Node2 -->
<g id="node2" class="node">
<title>Node2</title>
<g id="a_node2"><a xlink:href="structtklb_1_1memory_1_1tracer_1_1_magic_block.html#adb2c8c821e057b6dfed4de8092402aaa" target="_top" xlink:title="Placement new at the end of the allocation.">
<polygon fill="none" stroke="black" points="160,-14 160,-44 289,-44 289,-14 160,-14"/>
<text text-anchor="start" x="168" y="-32" font-family="Helvetica,sans-Serif" font-size="10.00">tklb::memory::tracer</text>
<text text-anchor="middle" x="224.5" y="-21" font-family="Helvetica,sans-Serif" font-size="10.00">::MagicBlock::construct</text>
</a>
</g>
</g>
<!-- Node1&#45;&gt;Node2 -->
<g id="edge1" class="edge">
<title>Node1&#45;&gt;Node2</title>
<path fill="none" stroke="midnightblue" d="M124.14,-29C132.54,-29 141.24,-29 149.84,-29"/>
<polygon fill="midnightblue" stroke="midnightblue" points="149.87,-32.5 159.87,-29 149.87,-25.5 149.87,-32.5"/>
</g>
<!-- Node3 -->
<g id="node3" class="node">
<title>Node3</title>
<g id="a_node3"><a xlink:href="structtklb_1_1memory_1_1tracer_1_1_magic_block.html#a3a7c9d40a568eba5b629b77ae86e1a2c" target="_top" xlink:title=" ">
<polygon fill="none" stroke="black" points="325,-14 325,-44 465,-44 465,-14 325,-14"/>
<text text-anchor="start" x="333" y="-32" font-family="Helvetica,sans-Serif" font-size="10.00">tklb::memory::tracer</text>
<text text-anchor="middle" x="395" y="-21" font-family="Helvetica,sans-Serif" font-size="10.00">::MagicBlock::MagicBlock</text>
</a>
</g>
</g>
<!-- Node2&#45;&gt;Node3 -->
<g id="edge2" class="edge">
<title>Node2&#45;&gt;Node3</title>
<path fill="none" stroke="midnightblue" d="M289.2,-29C297.58,-29 306.24,-29 314.83,-29"/>
<polygon fill="midnightblue" stroke="midnightblue" points="314.86,-32.5 324.86,-29 314.86,-25.5 314.86,-32.5"/>
</g>
<!-- Node4 -->
<g id="node4" class="node">
<title>Node4</title>
<g id="a_node4"><a xlink:href="namespacetklb_1_1memory.html#ab89ec197028f903f4ea125eae46c4a10" target="_top" xlink:title="memcpy wrapper">
<polygon fill="none" stroke="black" points="501,-38.5 501,-57.5 613,-57.5 613,-38.5 501,-38.5"/>
<text text-anchor="middle" x="557" y="-45.5" font-family="Helvetica,sans-Serif" font-size="10.00">tklb::memory::copy</text>
</a>
</g>
</g>
<!-- Node3&#45;&gt;Node4 -->
<g id="edge3" class="edge">
<title>Node3&#45;&gt;Node4</title>
<path fill="none" stroke="midnightblue" d="M465.25,-37.22C473.65,-38.22 482.22,-39.24 490.57,-40.23"/>
<polygon fill="midnightblue" stroke="midnightblue" points="490.28,-43.72 500.62,-41.42 491.1,-36.77 490.28,-43.72"/>
</g>
<!-- Node5 -->
<g id="node5" class="node">
<title>Node5</title>
<g id="a_node5"><a xlink:href="namespacetklb_1_1memory.html#a8e863795f7bd94d27b2c21640acc27e1" target="_top" xlink:title="memset wrapper">
<polygon fill="none" stroke="black" points="505,-0.5 505,-19.5 609,-19.5 609,-0.5 505,-0.5"/>
<text text-anchor="middle" x="557" y="-7.5" font-family="Helvetica,sans-Serif" font-size="10.00">tklb::memory::set</text>
</a>
</g>
</g>
<!-- Node3&#45;&gt;Node5 -->
<g id="edge4" class="edge">
<title>Node3&#45;&gt;Node5</title>
<path fill="none" stroke="midnightblue" d="M465.25,-20.78C475.15,-19.6 485.28,-18.4 495.01,-17.24"/>
<polygon fill="midnightblue" stroke="midnightblue" points="495.46,-20.71 504.98,-16.06 494.64,-13.76 495.46,-20.71"/>
</g>
</g>
</svg>
