<?xml version="1.0" encoding="UTF-8" standalone="no"?>
<!DOCTYPE svg PUBLIC "-//W3C//DTD SVG 1.1//EN"
 "http://www.w3.org/Graphics/SVG/1.1/DTD/svg11.dtd">
<!-- Generated by graphviz version 2.50.0 (0)
 -->
<!-- Title: tklb::tklbFree Pages: 1 -->
<svg width="223pt" height="104pt"
 viewBox="0.00 0.00 223.00 104.00" xmlns="http://www.w3.org/2000/svg" xmlns:xlink="http://www.w3.org/1999/xlink">
<g id="graph0" class="graph" transform="scale(1 1) rotate(0) translate(4 100)">
<title>tklb::tklbFree</title>
<!-- Node1 -->
<g id="node1" class="node">
<title>Node1</title>
<g id="a_node1"><a xlink:title=" ">
<polygon fill="#bfbfbf" stroke="black" points="135,-38.5 135,-57.5 215,-57.5 215,-38.5 135,-38.5"/>
<text text-anchor="middle" x="175" y="-45.5" font-family="Helvetica,sans-Serif" font-size="10.00">tklb::tklbFree</text>
</a>
</g>
</g>
<!-- Node2 -->
<g id="node2" class="node">
<title>Node2</title>
<g id="a_node2"><a xlink:href="_t_leak_checker_8h.html#af057efbdbcd21ea12954d49cd2d245c6" target="_top" xlink:title=" ">
<polygon fill="none" stroke="black" points="3.5,-76.5 3.5,-95.5 95.5,-95.5 95.5,-76.5 3.5,-76.5"/>
<text text-anchor="middle" x="49.5" y="-83.5" font-family="Helvetica,sans-Serif" font-size="10.00">operator delete</text>
</a>
</g>
</g>
<!-- Node1&#45;&gt;Node2 -->
<g id="edge1" class="edge">
<title>Node1&#45;&gt;Node2</title>
<path fill="none" stroke="midnightblue" d="M133.26,-60.54C116.46,-65.7 97.3,-71.6 81.65,-76.41"/>
<polygon fill="midnightblue" stroke="midnightblue" points="134.31,-63.88 142.84,-57.59 132.25,-57.18 134.31,-63.88"/>
</g>
<!-- Node3 -->
<g id="node3" class="node">
<title>Node3</title>
<g id="a_node3"><a xlink:href="_t_leak_checker_8h.html#a22aea74a1155aa798d6032da46da2391" target="_top" xlink:title=" ">
<polygon fill="none" stroke="black" points="0,-38.5 0,-57.5 99,-57.5 99,-38.5 0,-38.5"/>
<text text-anchor="middle" x="49.5" y="-45.5" font-family="Helvetica,sans-Serif" font-size="10.00">operator delete[]</text>
</a>
</g>
</g>
<!-- Node1&#45;&gt;Node3 -->
<g id="edge2" class="edge">
<title>Node1&#45;&gt;Node3</title>
<path fill="none" stroke="midnightblue" d="M124.87,-48C116.45,-48 107.72,-48 99.31,-48"/>
<polygon fill="midnightblue" stroke="midnightblue" points="124.92,-51.5 134.92,-48 124.92,-44.5 124.92,-51.5"/>
</g>
<!-- Node4 -->
<g id="node4" class="node">
<title>Node4</title>
<g id="a_node4"><a xlink:href="namespacetklb.html#a80d5e1a1f62d506aee082dc70ecdac62" target="_top" xlink:title=" ">
<polygon fill="none" stroke="black" points="1.5,-0.5 1.5,-19.5 97.5,-19.5 97.5,-0.5 1.5,-0.5"/>
<text text-anchor="middle" x="49.5" y="-7.5" font-family="Helvetica,sans-Serif" font-size="10.00">tklb::tklbRealloc</text>
</a>
</g>
</g>
<!-- Node1&#45;&gt;Node4 -->
<g id="edge3" class="edge">
<title>Node1&#45;&gt;Node4</title>
<path fill="none" stroke="midnightblue" d="M133.26,-35.46C116.46,-30.3 97.3,-24.4 81.65,-19.59"/>
<polygon fill="midnightblue" stroke="midnightblue" points="132.25,-38.82 142.84,-38.41 134.31,-32.12 132.25,-38.82"/>
</g>
</g>
</svg>
