<?xml version="1.0" encoding="UTF-8" standalone="no"?>
<!DOCTYPE svg PUBLIC "-//W3C//DTD SVG 1.1//EN"
 "http://www.w3.org/Graphics/SVG/1.1/DTD/svg11.dtd">
<!-- Generated by graphviz version 2.50.0 (0)
 -->
<!-- Title: tklb::wave::_::drwaveMalloc Pages: 1 -->
<svg width="1151pt" height="102pt"
 viewBox="0.00 0.00 1151.00 101.50" xmlns="http://www.w3.org/2000/svg" xmlns:xlink="http://www.w3.org/1999/xlink">
<g id="graph0" class="graph" transform="scale(1 1) rotate(0) translate(4 97.5)">
<title>tklb::wave::_::drwaveMalloc</title>
<!-- Node1 -->
<g id="node1" class="node">
<title>Node1</title>
<g id="a_node1"><a xlink:title=" ">
<polygon fill="#bfbfbf" stroke="black" points="991,-43.5 991,-62.5 1143,-62.5 1143,-43.5 991,-43.5"/>
<text text-anchor="middle" x="1067" y="-50.5" font-family="Helvetica,sans-Serif" font-size="10.00">tklb::wave::_::drwaveMalloc</text>
</a>
</g>
</g>
<!-- Node2 -->
<g id="node2" class="node">
<title>Node2</title>
<g id="a_node2"><a xlink:href="namespacetklb_1_1wave.html#a0eea36d8e07b1520ce77191e081c45bb" target="_top" xlink:title="Decode wav from memory or file path.">
<polygon fill="none" stroke="black" points="860,-43.5 860,-62.5 955,-62.5 955,-43.5 860,-43.5"/>
<text text-anchor="middle" x="907.5" y="-50.5" font-family="Helvetica,sans-Serif" font-size="10.00">tklb::wave::load</text>
</a>
</g>
</g>
<!-- Node1&#45;&gt;Node2 -->
<g id="edge1" class="edge">
<title>Node1&#45;&gt;Node2</title>
<path fill="none" stroke="midnightblue" d="M980.93,-53C972.08,-53 963.34,-53 955.16,-53"/>
<polygon fill="midnightblue" stroke="midnightblue" points="980.94,-56.5 990.94,-53 980.94,-49.5 980.94,-56.5"/>
</g>
<!-- Node3 -->
<g id="node3" class="node">
<title>Node3</title>
<g id="a_node3"><a xlink:href="structvae_1_1core_1_1_source_loader.html#a2341f89c2b79148066369e8d50d98597" target="_top" xlink:title="Loads a wav file for the resource.">
<polygon fill="none" stroke="black" points="690,-38 690,-68 824,-68 824,-38 690,-38"/>
<text text-anchor="start" x="698" y="-56" font-family="Helvetica,sans-Serif" font-size="10.00">vae::core::SourceLoader</text>
<text text-anchor="middle" x="757" y="-45" font-family="Helvetica,sans-Serif" font-size="10.00">::load</text>
</a>
</g>
</g>
<!-- Node2&#45;&gt;Node3 -->
<g id="edge2" class="edge">
<title>Node2&#45;&gt;Node3</title>
<path fill="none" stroke="midnightblue" d="M849.89,-53C841.51,-53 832.82,-53 824.27,-53"/>
<polygon fill="midnightblue" stroke="midnightblue" points="849.92,-56.5 859.92,-53 849.92,-49.5 849.92,-56.5"/>
</g>
<!-- Node4 -->
<g id="node4" class="node">
<title>Node4</title>
<g id="a_node4"><a xlink:href="classvae_1_1core_1_1_bank_loader.html#a0c168e922d02dbe23ec42ebfde4d97a2" target="_top" xlink:title="Load a bank.json and all wav files referenced in it.">
<polygon fill="none" stroke="black" points="529,-38 529,-68 654,-68 654,-38 529,-38"/>
<text text-anchor="start" x="537" y="-56" font-family="Helvetica,sans-Serif" font-size="10.00">vae::core::BankLoader</text>
<text text-anchor="middle" x="591.5" y="-45" font-family="Helvetica,sans-Serif" font-size="10.00">::load</text>
</a>
</g>
</g>
<!-- Node3&#45;&gt;Node4 -->
<g id="edge3" class="edge">
<title>Node3&#45;&gt;Node4</title>
<path fill="none" stroke="midnightblue" d="M679.86,-53C671.2,-53 662.46,-53 654.02,-53"/>
<polygon fill="midnightblue" stroke="midnightblue" points="679.97,-56.5 689.97,-53 679.97,-49.5 679.97,-56.5"/>
</g>
<!-- Node5 -->
<g id="node5" class="node">
<title>Node5</title>
<g id="a_node5"><a xlink:href="classvae_1_1core_1_1_bank_manager.html#ab06ae4e1f8106811c8149dd73bef6bd0" target="_top" xlink:title=" ">
<polygon fill="none" stroke="black" points="359,-38 359,-68 493,-68 493,-38 359,-38"/>
<text text-anchor="start" x="367" y="-56" font-family="Helvetica,sans-Serif" font-size="10.00">vae::core::BankManager</text>
<text text-anchor="middle" x="426" y="-45" font-family="Helvetica,sans-Serif" font-size="10.00">::load</text>
</a>
</g>
</g>
<!-- Node4&#45;&gt;Node5 -->
<g id="edge4" class="edge">
<title>Node4&#45;&gt;Node5</title>
<path fill="none" stroke="midnightblue" d="M518.53,-53C510.13,-53 501.59,-53 493.27,-53"/>
<polygon fill="midnightblue" stroke="midnightblue" points="518.69,-56.5 528.69,-53 518.69,-49.5 518.69,-56.5"/>
</g>
<!-- Node5&#45;&gt;Node5 -->
<g id="edge6" class="edge">
<title>Node5&#45;&gt;Node5</title>
<path fill="none" stroke="midnightblue" d="M455.14,-78.46C451.52,-83.18 441.81,-86.5 426,-86.5 400.05,-86.5 390.53,-77.56 397.42,-68.16"/>
<polygon fill="midnightblue" stroke="midnightblue" points="458.62,-77.95 454.58,-68.16 451.63,-78.33 458.62,-77.95"/>
</g>
<!-- Node6 -->
<g id="node6" class="node">
<title>Node6</title>
<g id="a_node6"><a xlink:href="classvae_1_1core_1_1_bank_manager.html#ae04256d1f2f2df47d3239993c9bbf12c" target="_top" xlink:title="Will reload all the banks.">
<polygon fill="none" stroke="black" points="189,-63 189,-93 323,-93 323,-63 189,-63"/>
<text text-anchor="start" x="197" y="-81" font-family="Helvetica,sans-Serif" font-size="10.00">vae::core::BankManager</text>
<text text-anchor="middle" x="256" y="-70" font-family="Helvetica,sans-Serif" font-size="10.00">::init</text>
</a>
</g>
</g>
<!-- Node5&#45;&gt;Node6 -->
<g id="edge5" class="edge">
<title>Node5&#45;&gt;Node6</title>
<path fill="none" stroke="midnightblue" d="M348.68,-64.36C340.17,-65.62 331.56,-66.9 323.19,-68.15"/>
<polygon fill="midnightblue" stroke="midnightblue" points="349.23,-67.81 358.6,-62.88 348.2,-60.89 349.23,-67.81"/>
</g>
<!-- Node7 -->
<g id="node7" class="node">
<title>Node7</title>
<g id="a_node7"><a xlink:href="classvae_1_1core_1_1_engine.html#a4af5733f9975fe1c746e75958bc39d23" target="_top" xlink:title="Load bank from filesystem.">
<polygon fill="none" stroke="black" points="202.5,-14 202.5,-44 309.5,-44 309.5,-14 202.5,-14"/>
<text text-anchor="start" x="210.5" y="-32" font-family="Helvetica,sans-Serif" font-size="10.00">vae::core::Engine::</text>
<text text-anchor="middle" x="256" y="-21" font-family="Helvetica,sans-Serif" font-size="10.00">loadBank</text>
</a>
</g>
</g>
<!-- Node5&#45;&gt;Node7 -->
<g id="edge7" class="edge">
<title>Node5&#45;&gt;Node7</title>
<path fill="none" stroke="midnightblue" d="M348.62,-42.09C335.47,-40.21 322.07,-38.3 309.72,-36.53"/>
<polygon fill="midnightblue" stroke="midnightblue" points="348.21,-45.57 358.6,-43.51 349.2,-38.64 348.21,-45.57"/>
</g>
<!-- Node8 -->
<g id="node8" class="node">
<title>Node8</title>
<g id="a_node8"><a xlink:href="classvae_1_1_engine_pimpl.html#adec77e6ef0f00d52c634611cb6822443" target="_top" xlink:title="Load bank from filesystem.">
<polygon fill="none" stroke="black" points="0,-38.5 0,-57.5 153,-57.5 153,-38.5 0,-38.5"/>
<text text-anchor="middle" x="76.5" y="-45.5" font-family="Helvetica,sans-Serif" font-size="10.00">vae::EnginePimpl::loadBank</text>
</a>
</g>
</g>
<!-- Node7&#45;&gt;Node8 -->
<g id="edge8" class="edge">
<title>Node7&#45;&gt;Node8</title>
<path fill="none" stroke="midnightblue" d="M192.25,-35.72C179.57,-37.07 166.12,-38.51 153.06,-39.91"/>
<polygon fill="midnightblue" stroke="midnightblue" points="192.65,-39.19 202.22,-34.65 191.91,-32.23 192.65,-39.19"/>
</g>
<!-- Node9 -->
<g id="node9" class="node">
<title>Node9</title>
<g id="a_node9"><a xlink:href="main_8cpp.html#ae66f6b31b5ad750f1fe042a706a4e3d4" target="_top" xlink:title=" ">
<polygon fill="none" stroke="black" points="56,-0.5 56,-19.5 97,-19.5 97,-0.5 56,-0.5"/>
<text text-anchor="middle" x="76.5" y="-7.5" font-family="Helvetica,sans-Serif" font-size="10.00">main</text>
</a>
</g>
</g>
<!-- Node7&#45;&gt;Node9 -->
<g id="edge9" class="edge">
<title>Node7&#45;&gt;Node9</title>
<path fill="none" stroke="midnightblue" d="M192.06,-22.26C158.69,-18.69 119.98,-14.55 97.18,-12.11"/>
<polygon fill="midnightblue" stroke="midnightblue" points="191.91,-25.77 202.22,-23.35 192.65,-18.81 191.91,-25.77"/>
</g>
</g>
</svg>
