<?xml version="1.0" encoding="UTF-8" standalone="no"?>
<!DOCTYPE svg PUBLIC "-//W3C//DTD SVG 1.1//EN"
 "http://www.w3.org/Graphics/SVG/1.1/DTD/svg11.dtd">
<!-- Generated by graphviz version 2.50.0 (0)
 -->
<!-- Title: tklb::memory::tracer::reallocateTrace Pages: 1 -->
<!--zoomable 167 -->
<svg id="main" version="1.1" xmlns="http://www.w3.org/2000/svg" xmlns:xlink="http://www.w3.org/1999/xlink" xml:space="preserve" onload="init(evt)">
<style type="text/css"><![CDATA[
.edge:hover path { stroke: red; }
.edge:hover polygon { stroke: red; fill: red; }
]]></style>
<script type="text/javascript"><![CDATA[
var edges = document.getElementsByTagName('g');
if (edges && edges.length) {
  for (var i=0;i<edges.length;i++) {
    if (edges[i].id.substr(0,4)=='edge') {
      edges[i].setAttribute('class','edge');
    }
  }
}
]]></script>
        <defs>
                <circle id="rim" cx="0" cy="0" r="7"/>
                <circle id="rim2" cx="0" cy="0" r="3.5"/>
                <g id="zoomPlus">
                        <use xlink:href="#rim" fill="#404040">
                                <set attributeName="fill" to="#808080" begin="zoomplus.mouseover" end="zoomplus.mouseout"/>
                        </use>
                        <path d="M-4,0h8M0,-4v8" fill="none" stroke="white" stroke-width="1.5" pointer-events="none"/>
                </g>
                <g id="zoomMin">
                        <use xlink:href="#rim" fill="#404040">
                                <set attributeName="fill" to="#808080" begin="zoomminus.mouseover" end="zoomminus.mouseout"/>
                        </use>
                        <path d="M-4,0h8" fill="none" stroke="white" stroke-width="1.5" pointer-events="none"/>
                </g>
                <g id="dirArrow">
                        <path fill="none" stroke="white" stroke-width="1.5" d="M0,-3.0v7 M-2.5,-0.5L0,-3.0L2.5,-0.5"/>
                </g>
               <g id="resetDef">
                       <use xlink:href="#rim2" fill="#404040">
                               <set attributeName="fill" to="#808080" begin="reset.mouseover" end="reset.mouseout"/>
                       </use>
               </g>
        </defs>

<script type="text/javascript">
var viewWidth = 629;
var viewHeight = 167;
var sectionId = 'dynsection-8';
</script>
<script xlink:href="svgpan.js"/>
<svg id="graph" class="graph">
<g id="viewport">
<title>tklb::memory::tracer::reallocateTrace</title>
<!-- Node1 -->
<g id="node1" class="node">
<title>Node1</title>
<g id="a_node1"><a xlink:title=" ">
<polygon fill="#bfbfbf" stroke="black" points="0,-73.5 0,-103.5 117,-103.5 117,-73.5 0,-73.5"/>
<text text-anchor="start" x="8" y="-91.5" font-family="Helvetica,sans-Serif" font-size="10.00">tklb::memory::tracer</text>
<text text-anchor="middle" x="58.5" y="-80.5" font-family="Helvetica,sans-Serif" font-size="10.00">::reallocateTrace</text>
</a>
</g>
</g>
<!-- Node2 -->
<g id="node2" class="node">
<title>Node2</title>
<g id="a_node2"><a xlink:href="structtklb_1_1memory_1_1tracer_1_1_magic_block.html#adb2c8c821e057b6dfed4de8092402aaa" target="_top" xlink:title="Placement new at the end of the allocation.">
<polygon fill="none" stroke="black" points="153,-98.5 153,-128.5 282,-128.5 282,-98.5 153,-98.5"/>
<text text-anchor="start" x="161" y="-116.5" font-family="Helvetica,sans-Serif" font-size="10.00">tklb::memory::tracer</text>
<text text-anchor="middle" x="217.5" y="-105.5" font-family="Helvetica,sans-Serif" font-size="10.00">::MagicBlock::construct</text>
</a>
</g>
</g>
<!-- Node1&#45;&gt;Node2 -->
<g id="edge1" class="edge">
<title>Node1&#45;&gt;Node2</title>
<path fill="none" stroke="midnightblue" d="M117.07,-97.67C125.44,-99 134.14,-100.39 142.77,-101.76"/>
<polygon fill="midnightblue" stroke="midnightblue" points="142.42,-105.25 152.85,-103.36 143.52,-98.33 142.42,-105.25"/>
</g>
<!-- Node6 -->
<g id="node6" class="node">
<title>Node6</title>
<g id="a_node6"><a xlink:href="structtklb_1_1memory_1_1tracer_1_1_magic_block.html#ac3781e28e0b7cf54161f1bb26e523ca5" target="_top" xlink:title=" ">
<polygon fill="none" stroke="black" points="157,-49.5 157,-79.5 278,-79.5 278,-49.5 157,-49.5"/>
<text text-anchor="start" x="165" y="-67.5" font-family="Helvetica,sans-Serif" font-size="10.00">tklb::memory::tracer</text>
<text text-anchor="middle" x="217.5" y="-56.5" font-family="Helvetica,sans-Serif" font-size="10.00">::MagicBlock::destroy</text>
</a>
</g>
</g>
<!-- Node1&#45;&gt;Node6 -->
<g id="edge5" class="edge">
<title>Node1&#45;&gt;Node6</title>
<path fill="none" stroke="midnightblue" d="M117.07,-79.7C126.78,-78.21 136.96,-76.66 146.94,-75.13"/>
<polygon fill="midnightblue" stroke="midnightblue" points="147.47,-78.59 156.83,-73.62 146.42,-71.67 147.47,-78.59"/>
</g>
<!-- Node3 -->
<g id="node3" class="node">
<title>Node3</title>
<g id="a_node3"><a xlink:href="structtklb_1_1memory_1_1tracer_1_1_magic_block.html#a3a7c9d40a568eba5b629b77ae86e1a2c" target="_top" xlink:title=" ">
<polygon fill="none" stroke="black" points="318,-98.5 318,-128.5 458,-128.5 458,-98.5 318,-98.5"/>
<text text-anchor="start" x="326" y="-116.5" font-family="Helvetica,sans-Serif" font-size="10.00">tklb::memory::tracer</text>
<text text-anchor="middle" x="388" y="-105.5" font-family="Helvetica,sans-Serif" font-size="10.00">::MagicBlock::MagicBlock</text>
</a>
</g>
</g>
<!-- Node2&#45;&gt;Node3 -->
<g id="edge2" class="edge">
<title>Node2&#45;&gt;Node3</title>
<path fill="none" stroke="midnightblue" d="M282.2,-113.5C290.58,-113.5 299.24,-113.5 307.83,-113.5"/>
<polygon fill="midnightblue" stroke="midnightblue" points="307.86,-117 317.86,-113.5 307.86,-110 307.86,-117"/>
</g>
<!-- Node4 -->
<g id="node4" class="node">
<title>Node4</title>
<g id="a_node4"><a xlink:href="namespacetklb_1_1memory.html#ab89ec197028f903f4ea125eae46c4a10" target="_top" xlink:title="memcpy wrapper">
<polygon fill="none" stroke="black" points="501.5,-139 501.5,-158 613.5,-158 613.5,-139 501.5,-139"/>
<text text-anchor="middle" x="557.5" y="-146" font-family="Helvetica,sans-Serif" font-size="10.00">tklb::memory::copy</text>
</a>
</g>
</g>
<!-- Node3&#45;&gt;Node4 -->
<g id="edge3" class="edge">
<title>Node3&#45;&gt;Node4</title>
<path fill="none" stroke="midnightblue" d="M458.1,-127.94C472.45,-130.94 487.41,-134.06 501.19,-136.94"/>
<polygon fill="midnightblue" stroke="midnightblue" points="500.49,-140.37 511,-138.99 501.92,-133.52 500.49,-140.37"/>
</g>
<!-- Node5 -->
<g id="node5" class="node">
<title>Node5</title>
<g id="a_node5"><a xlink:href="namespacetklb_1_1memory.html#a8e863795f7bd94d27b2c21640acc27e1" target="_top" xlink:title="memset wrapper">
<polygon fill="none" stroke="black" points="505.5,-101 505.5,-120 609.5,-120 609.5,-101 505.5,-101"/>
<text text-anchor="middle" x="557.5" y="-108" font-family="Helvetica,sans-Serif" font-size="10.00">tklb::memory::set</text>
</a>
</g>
</g>
<!-- Node3&#45;&gt;Node5 -->
<g id="edge4" class="edge">
<title>Node3&#45;&gt;Node5</title>
<path fill="none" stroke="midnightblue" d="M458.1,-112.26C470.49,-112.04 483.32,-111.81 495.46,-111.59"/>
<polygon fill="midnightblue" stroke="midnightblue" points="495.54,-115.09 505.48,-111.41 495.42,-108.09 495.54,-115.09"/>
</g>
<!-- Node7 -->
<g id="node7" class="node">
<title>Node7</title>
<g id="a_node7"><a xlink:href="structtklb_1_1memory_1_1tracer_1_1_magic_block.html#ad6d7ec91fc6ebe3cf9ff6326f1d4bfc2" target="_top" xlink:title="checks if the allocation is still intact">
<polygon fill="none" stroke="black" points="329.5,-49.5 329.5,-79.5 446.5,-79.5 446.5,-49.5 329.5,-49.5"/>
<text text-anchor="start" x="337.5" y="-67.5" font-family="Helvetica,sans-Serif" font-size="10.00">tklb::memory::tracer</text>
<text text-anchor="middle" x="388" y="-56.5" font-family="Helvetica,sans-Serif" font-size="10.00">::MagicBlock::check</text>
</a>
</g>
</g>
<!-- Node6&#45;&gt;Node7 -->
<g id="edge6" class="edge">
<title>Node6&#45;&gt;Node7</title>
<path fill="none" stroke="midnightblue" d="M278.38,-64.5C291.57,-64.5 305.64,-64.5 319.12,-64.5"/>
<polygon fill="midnightblue" stroke="midnightblue" points="319.29,-68 329.29,-64.5 319.29,-61 319.29,-68"/>
</g>
<!-- Node9 -->
<g id="node9" class="node">
<title>Node9</title>
<g id="a_node9"><a xlink:href="structtklb_1_1memory_1_1tracer_1_1_magic_block.html#a6ce36eef9e0991197e520cd79677dff3" target="_top" xlink:title="Find the MagicBlock for a given allocation.">
<polygon fill="none" stroke="black" points="329.5,-0.5 329.5,-30.5 446.5,-30.5 446.5,-0.5 329.5,-0.5"/>
<text text-anchor="start" x="337.5" y="-18.5" font-family="Helvetica,sans-Serif" font-size="10.00">tklb::memory::tracer</text>
<text text-anchor="middle" x="388" y="-7.5" font-family="Helvetica,sans-Serif" font-size="10.00">::MagicBlock::find</text>
</a>
</g>
</g>
<!-- Node6&#45;&gt;Node9 -->
<g id="edge8" class="edge">
<title>Node6&#45;&gt;Node9</title>
<path fill="none" stroke="midnightblue" d="M270.43,-49.4C287.81,-44.34 307.35,-38.66 325.39,-33.42"/>
<polygon fill="midnightblue" stroke="midnightblue" points="326.62,-36.7 335.24,-30.55 324.66,-29.98 326.62,-36.7"/>
</g>
<!-- Node8 -->
<g id="node8" class="node">
<title>Node8</title>
<g id="a_node8"><a xlink:href="structtklb_1_1memory_1_1tracer_1_1_magic_block.html#a79e6e6f126eaf3a73f2f16530da06158" target="_top" xlink:title=" ">
<polygon fill="none" stroke="black" points="494,-49.5 494,-79.5 621,-79.5 621,-49.5 494,-49.5"/>
<text text-anchor="start" x="502" y="-67.5" font-family="Helvetica,sans-Serif" font-size="10.00">tklb::memory::tracer</text>
<text text-anchor="middle" x="557.5" y="-56.5" font-family="Helvetica,sans-Serif" font-size="10.00">::MagicBlock::compare</text>
</a>
</g>
</g>
<!-- Node7&#45;&gt;Node8 -->
<g id="edge7" class="edge">
<title>Node7&#45;&gt;Node8</title>
<path fill="none" stroke="midnightblue" d="M446.64,-64.5C458.55,-64.5 471.23,-64.5 483.6,-64.5"/>
<polygon fill="midnightblue" stroke="midnightblue" points="483.88,-68 493.88,-64.5 483.88,-61 483.88,-68"/>
</g>
</g>
</svg>
        <g id="navigator" transform="translate(0 0)" fill="#404254">
                <rect fill="#f2f5e9" fill-opacity="0.5" stroke="#606060" stroke-width=".5" x="0" y="0" width="60" height="60"/>
                <use id="zoomplus" xlink:href="#zoomPlus" x="17" y="9" onmousedown="handleZoom(evt,'in')"/>
                <use id="zoomminus" xlink:href="#zoomMin" x="42" y="9" onmousedown="handleZoom(evt,'out')"/>
                <use id="reset" xlink:href="#resetDef" x="30" y="36" onmousedown="handleReset()"/>
                <g id="arrowUp" xlink:href="#dirArrow" transform="translate(30 24)" onmousedown="handlePan(0,-1)">
                  <use xlink:href="#rim" fill="#404040">
                        <set attributeName="fill" to="#808080" begin="arrowUp.mouseover" end="arrowUp.mouseout"/>
                  </use>
                  <path fill="none" stroke="white" stroke-width="1.5" d="M0,-3.0v7 M-2.5,-0.5L0,-3.0L2.5,-0.5"/>
                </g>
                <g id="arrowRight" xlink:href="#dirArrow" transform="rotate(90) translate(36 -43)" onmousedown="handlePan(1,0)">
                  <use xlink:href="#rim" fill="#404040">
                        <set attributeName="fill" to="#808080" begin="arrowRight.mouseover" end="arrowRight.mouseout"/>
                  </use>
                  <path fill="none" stroke="white" stroke-width="1.5" d="M0,-3.0v7 M-2.5,-0.5L0,-3.0L2.5,-0.5"/>
                </g>
                <g id="arrowDown" xlink:href="#dirArrow" transform="rotate(180) translate(-30 -48)" onmousedown="handlePan(0,1)">
                  <use xlink:href="#rim" fill="#404040">
                        <set attributeName="fill" to="#808080" begin="arrowDown.mouseover" end="arrowDown.mouseout"/>
                  </use>
                  <path fill="none" stroke="white" stroke-width="1.5" d="M0,-3.0v7 M-2.5,-0.5L0,-3.0L2.5,-0.5"/>
                </g>
                <g id="arrowLeft" xlink:href="#dirArrow" transform="rotate(270) translate(-36 17)" onmousedown="handlePan(-1,0)">
                  <use xlink:href="#rim" fill="#404040">
                        <set attributeName="fill" to="#808080" begin="arrowLeft.mouseover" end="arrowLeft.mouseout"/>
                  </use>
                  <path fill="none" stroke="white" stroke-width="1.5" d="M0,-3.0v7 M-2.5,-0.5L0,-3.0L2.5,-0.5"/>
                </g>
        </g>
        <svg viewBox="0 0 15 15" width="100%" height="30px" preserveAspectRatio="xMaxYMin meet">
         <g id="arrow_out" transform="scale(0.3 0.3)">
          <a xlink:href="namespacetklb_1_1memory_1_1tracer_af5ca005d4fa0d89ede7f4c55e1d53c67_cgraph_org.svg" target="_base">
           <rect id="button" ry="5" rx="5" y="6" x="6" height="38" width="38"
                fill="#f2f5e9" fill-opacity="0.5" stroke="#606060" stroke-width="1.0"/>
           <path id="arrow"
             d="M 11.500037,31.436501 C 11.940474,20.09759 22.043105,11.32322 32.158766,21.979434 L 37.068811,17.246167 C 37.068811,17.246167 37.088388,32 37.088388,32 L 22.160133,31.978069 C 22.160133,31.978069 26.997745,27.140456 26.997745,27.140456 C 18.528582,18.264221 13.291696,25.230495 11.500037,31.436501 z"
             style="fill:#404040;"/>
          </a>
         </g>
        </svg>
</svg>
