<?xml version="1.0" encoding="UTF-8" standalone="no"?>
<!DOCTYPE svg PUBLIC "-//W3C//DTD SVG 1.1//EN"
 "http://www.w3.org/Graphics/SVG/1.1/DTD/svg11.dtd">
<!-- Generated by graphviz version 2.50.0 (0)
 -->
<!-- Title: string.cpp Pages: 1 -->
<!--zoomable 386 -->
<svg id="main" version="1.1" xmlns="http://www.w3.org/2000/svg" xmlns:xlink="http://www.w3.org/1999/xlink" xml:space="preserve" onload="init(evt)">
<style type="text/css"><![CDATA[
.edge:hover path { stroke: red; }
.edge:hover polygon { stroke: red; fill: red; }
]]></style>
<script type="text/javascript"><![CDATA[
var edges = document.getElementsByTagName('g');
if (edges && edges.length) {
  for (var i=0;i<edges.length;i++) {
    if (edges[i].id.substr(0,4)=='edge') {
      edges[i].setAttribute('class','edge');
    }
  }
}
]]></script>
        <defs>
                <circle id="rim" cx="0" cy="0" r="7"/>
                <circle id="rim2" cx="0" cy="0" r="3.5"/>
                <g id="zoomPlus">
                        <use xlink:href="#rim" fill="#404040">
                                <set attributeName="fill" to="#808080" begin="zoomplus.mouseover" end="zoomplus.mouseout"/>
                        </use>
                        <path d="M-4,0h8M0,-4v8" fill="none" stroke="white" stroke-width="1.5" pointer-events="none"/>
                </g>
                <g id="zoomMin">
                        <use xlink:href="#rim" fill="#404040">
                                <set attributeName="fill" to="#808080" begin="zoomminus.mouseover" end="zoomminus.mouseout"/>
                        </use>
                        <path d="M-4,0h8" fill="none" stroke="white" stroke-width="1.5" pointer-events="none"/>
                </g>
                <g id="dirArrow">
                        <path fill="none" stroke="white" stroke-width="1.5" d="M0,-3.0v7 M-2.5,-0.5L0,-3.0L2.5,-0.5"/>
                </g>
               <g id="resetDef">
                       <use xlink:href="#rim2" fill="#404040">
                               <set attributeName="fill" to="#808080" begin="reset.mouseover" end="reset.mouseout"/>
                       </use>
               </g>
        </defs>

<script type="text/javascript">
var viewWidth = 1109;
var viewHeight = 386;
var sectionId = 'dynsection-0';
</script>
<script xlink:href="svgpan.js"/>
<svg id="graph" class="graph">
<g id="viewport">
<title>string.cpp</title>
<!-- Node1 -->
<g id="node1" class="node">
<title>Node1</title>
<g id="a_node1"><a xlink:title=" ">
<polygon fill="#bfbfbf" stroke="black" points="748.76,-358.5 748.76,-377.5 813.76,-377.5 813.76,-358.5 748.76,-358.5"/>
<text text-anchor="middle" x="781.26" y="-365.5" font-family="Helvetica,sans-Serif" font-size="10.00">string.cpp</text>
</a>
</g>
</g>
<!-- Node2 -->
<g id="node2" class="node">
<title>Node2</title>
<g id="a_node2"><a xlink:href="_experiments_common_8hpp.html" target="_top" xlink:title=" ">
<polygon fill="none" stroke="black" points="655.76,-302.5 655.76,-321.5 804.76,-321.5 804.76,-302.5 655.76,-302.5"/>
<text text-anchor="middle" x="730.26" y="-309.5" font-family="Helvetica,sans-Serif" font-size="10.00">./ExperimentsCommon.hpp</text>
</a>
</g>
</g>
<!-- Node1&#45;&gt;Node2 -->
<g id="edge1" class="edge">
<title>Node1&#45;&gt;Node2</title>
<path fill="none" stroke="midnightblue" d="M772.83,-358.08C765.41,-350.22 754.4,-338.57 745.44,-329.08"/>
<polygon fill="midnightblue" stroke="midnightblue" points="747.93,-326.62 738.52,-321.75 742.84,-331.42 747.93,-326.62"/>
</g>
<!-- Node18 -->
<g id="node18" class="node">
<title>Node18</title>
<g id="a_node18"><a xlink:href="_t_heap_buffer_8hpp.html" target="_top" xlink:title=" ">
<polygon fill="none" stroke="black" points="866.26,-190.5 866.26,-209.5 1020.26,-209.5 1020.26,-190.5 866.26,-190.5"/>
<text text-anchor="middle" x="943.26" y="-197.5" font-family="Helvetica,sans-Serif" font-size="10.00">../src/types/THeapBuffer.hpp</text>
</a>
</g>
</g>
<!-- Node1&#45;&gt;Node18 -->
<g id="edge23" class="edge">
<title>Node1&#45;&gt;Node18</title>
<path fill="none" stroke="midnightblue" d="M789.97,-358.08C816.13,-331.27 894.28,-251.19 927.75,-216.89"/>
<polygon fill="midnightblue" stroke="midnightblue" points="930.42,-219.17 934.89,-209.57 925.41,-214.28 930.42,-219.17"/>
</g>
<!-- Node3 -->
<g id="node3" class="node">
<title>Node3</title>
<g id="a_node3"><a xlink:href="_t_memory_8hpp.html" target="_top" xlink:title=" ">
<polygon fill="none" stroke="black" points="531.26,-246.5 531.26,-265.5 683.26,-265.5 683.26,-246.5 531.26,-246.5"/>
<text text-anchor="middle" x="607.26" y="-253.5" font-family="Helvetica,sans-Serif" font-size="10.00">../src/memory/TMemory.hpp</text>
</a>
</g>
</g>
<!-- Node2&#45;&gt;Node3 -->
<g id="edge2" class="edge">
<title>Node2&#45;&gt;Node3</title>
<path fill="none" stroke="midnightblue" d="M710.77,-302.44C690.61,-293.6 658.93,-279.69 635.93,-269.59"/>
<polygon fill="midnightblue" stroke="midnightblue" points="637.22,-266.33 626.65,-265.52 634.4,-272.74 637.22,-266.33"/>
</g>
<!-- Node4 -->
<g id="node4" class="node">
<title>Node4</title>
<g id="a_node4"><a xlink:href="_t_memory_pool_8hpp.html" target="_top" xlink:title=" ">
<polygon fill="none" stroke="black" points="386.26,-134.5 386.26,-153.5 496.26,-153.5 496.26,-134.5 386.26,-134.5"/>
<text text-anchor="middle" x="441.26" y="-141.5" font-family="Helvetica,sans-Serif" font-size="10.00">./TMemoryPool.hpp</text>
</a>
</g>
</g>
<!-- Node3&#45;&gt;Node4 -->
<g id="edge3" class="edge">
<title>Node3&#45;&gt;Node4</title>
<path fill="none" stroke="midnightblue" d="M531.3,-246.49C505.81,-240.12 479.1,-229.09 460.26,-210 448.26,-197.85 443.76,-178.58 442.11,-164.17"/>
<polygon fill="midnightblue" stroke="midnightblue" points="445.58,-163.58 441.31,-153.88 438.6,-164.12 445.58,-163.58"/>
</g>
<!-- Node16 -->
<g id="node16" class="node">
<title>Node16</title>
<g id="a_node16"><a xlink:href="_t_memory_pool_std_8hpp.html" target="_top" xlink:title=" ">
<polygon fill="none" stroke="black" points="469.26,-190.5 469.26,-209.5 595.26,-209.5 595.26,-190.5 469.26,-190.5"/>
<text text-anchor="middle" x="532.26" y="-197.5" font-family="Helvetica,sans-Serif" font-size="10.00">./TMemoryPoolStd.hpp</text>
</a>
</g>
</g>
<!-- Node3&#45;&gt;Node16 -->
<g id="edge16" class="edge">
<title>Node3&#45;&gt;Node16</title>
<path fill="none" stroke="midnightblue" d="M595.21,-246.32C583.79,-238.11 566.43,-225.6 552.82,-215.81"/>
<polygon fill="midnightblue" stroke="midnightblue" points="554.69,-212.84 544.53,-209.83 550.6,-218.52 554.69,-212.84"/>
</g>
<!-- Node17 -->
<g id="node17" class="node">
<title>Node17</title>
<g id="a_node17"><a xlink:href="_t_memory_pool_stack_8hpp.html" target="_top" xlink:title=" ">
<polygon fill="none" stroke="black" points="613.76,-190.5 613.76,-209.5 750.76,-209.5 750.76,-190.5 613.76,-190.5"/>
<text text-anchor="middle" x="682.26" y="-197.5" font-family="Helvetica,sans-Serif" font-size="10.00">./TMemoryPoolStack.hpp</text>
</a>
</g>
</g>
<!-- Node3&#45;&gt;Node17 -->
<g id="edge20" class="edge">
<title>Node3&#45;&gt;Node17</title>
<path fill="none" stroke="midnightblue" d="M619.31,-246.32C630.72,-238.11 648.09,-225.6 661.69,-215.81"/>
<polygon fill="midnightblue" stroke="midnightblue" points="663.92,-218.52 669.99,-209.83 659.83,-212.84 663.92,-218.52"/>
</g>
<!-- Node5 -->
<g id="node5" class="node">
<title>Node5</title>
<g id="a_node5"><a xlink:title=" ">
<polygon fill="none" stroke="#bfbfbf" points="339.76,-67.5 339.76,-86.5 384.76,-86.5 384.76,-67.5 339.76,-67.5"/>
<text text-anchor="middle" x="362.26" y="-74.5" font-family="Helvetica,sans-Serif" font-size="10.00">utility</text>
</a>
</g>
</g>
<!-- Node4&#45;&gt;Node5 -->
<g id="edge4" class="edge">
<title>Node4&#45;&gt;Node5</title>
<path fill="none" stroke="midnightblue" d="M430.6,-134.23C417.81,-123.71 396.14,-105.88 380.63,-93.12"/>
<polygon fill="midnightblue" stroke="midnightblue" points="382.69,-90.28 372.74,-86.63 378.24,-95.68 382.69,-90.28"/>
</g>
<!-- Node6 -->
<g id="node6" class="node">
<title>Node6</title>
<g id="a_node6"><a xlink:title=" ">
<polygon fill="none" stroke="#bfbfbf" points="403.26,-67.5 403.26,-86.5 453.26,-86.5 453.26,-67.5 403.26,-67.5"/>
<text text-anchor="middle" x="428.26" y="-74.5" font-family="Helvetica,sans-Serif" font-size="10.00">cstdint</text>
</a>
</g>
</g>
<!-- Node4&#45;&gt;Node6 -->
<g id="edge5" class="edge">
<title>Node4&#45;&gt;Node6</title>
<path fill="none" stroke="midnightblue" d="M439.5,-134.23C437.59,-124.68 434.48,-109.12 432.01,-96.78"/>
<polygon fill="midnightblue" stroke="midnightblue" points="435.38,-95.75 429.98,-86.63 428.51,-97.12 435.38,-95.75"/>
</g>
<!-- Node7 -->
<g id="node7" class="node">
<title>Node7</title>
<g id="a_node7"><a xlink:title=" ">
<polygon fill="none" stroke="#bfbfbf" points="471.76,-67.5 471.76,-86.5 508.76,-86.5 508.76,-67.5 471.76,-67.5"/>
<text text-anchor="middle" x="490.26" y="-74.5" font-family="Helvetica,sans-Serif" font-size="10.00">new</text>
</a>
</g>
</g>
<!-- Node4&#45;&gt;Node7 -->
<g id="edge6" class="edge">
<title>Node4&#45;&gt;Node7</title>
<path fill="none" stroke="midnightblue" d="M447.86,-134.23C455.43,-124.2 468.01,-107.51 477.5,-94.92"/>
<polygon fill="midnightblue" stroke="midnightblue" points="480.53,-96.72 483.75,-86.63 474.94,-92.51 480.53,-96.72"/>
</g>
<!-- Node8 -->
<g id="node8" class="node">
<title>Node8</title>
<g id="a_node8"><a xlink:href="_t_memory_util_8hpp.html" target="_top" xlink:title=" ">
<polygon fill="none" stroke="black" points="526.76,-67.5 526.76,-86.5 633.76,-86.5 633.76,-67.5 526.76,-67.5"/>
<text text-anchor="middle" x="580.26" y="-74.5" font-family="Helvetica,sans-Serif" font-size="10.00">./TMemoryUtil.hpp</text>
</a>
</g>
</g>
<!-- Node4&#45;&gt;Node8 -->
<g id="edge7" class="edge">
<title>Node4&#45;&gt;Node8</title>
<path fill="none" stroke="midnightblue" d="M459.71,-134.37C483.5,-123.25 525.05,-103.82 552.61,-90.93"/>
<polygon fill="midnightblue" stroke="midnightblue" points="554.15,-94.07 561.72,-86.67 551.18,-87.73 554.15,-94.07"/>
</g>
<!-- Node11 -->
<g id="node11" class="node">
<title>Node11</title>
<g id="a_node11"><a xlink:href="_t_assert_8h.html" target="_top" xlink:title=" ">
<polygon fill="none" stroke="black" points="651.76,-67.5 651.76,-86.5 740.76,-86.5 740.76,-67.5 651.76,-67.5"/>
<text text-anchor="middle" x="696.26" y="-74.5" font-family="Helvetica,sans-Serif" font-size="10.00">../util/TAssert.h</text>
</a>
</g>
</g>
<!-- Node4&#45;&gt;Node11 -->
<g id="edge10" class="edge">
<title>Node4&#45;&gt;Node11</title>
<path fill="none" stroke="midnightblue" d="M488.27,-134.49C529.52,-126.55 590.92,-113.62 643.26,-98 650.71,-95.78 658.61,-93.02 665.98,-90.27"/>
<polygon fill="midnightblue" stroke="midnightblue" points="667.52,-93.43 675.6,-86.57 665.01,-86.89 667.52,-93.43"/>
</g>
<!-- Node13 -->
<g id="node13" class="node">
<title>Node13</title>
<g id="a_node13"><a xlink:href="_t_spin_lock_8hpp.html" target="_top" xlink:title=" ">
<polygon fill="none" stroke="black" points="18.26,-67.5 18.26,-86.5 144.26,-86.5 144.26,-67.5 18.26,-67.5"/>
<text text-anchor="middle" x="81.26" y="-74.5" font-family="Helvetica,sans-Serif" font-size="10.00">../types/TSpinLock.hpp</text>
</a>
</g>
</g>
<!-- Node4&#45;&gt;Node13 -->
<g id="edge12" class="edge">
<title>Node4&#45;&gt;Node13</title>
<path fill="none" stroke="midnightblue" d="M386.19,-135.85C328.95,-128.04 236.9,-114.43 158.26,-98 146.23,-95.49 133.27,-92.31 121.47,-89.23"/>
<polygon fill="midnightblue" stroke="midnightblue" points="122.02,-85.75 111.45,-86.56 120.22,-92.51 122.02,-85.75"/>
</g>
<!-- Node14 -->
<g id="node14" class="node">
<title>Node14</title>
<g id="a_node14"><a xlink:href="_t_lock_guard_8hpp.html" target="_top" xlink:title=" ">
<polygon fill="none" stroke="black" points="76.76,-0.5 76.76,-19.5 177.76,-19.5 177.76,-0.5 76.76,-0.5"/>
<text text-anchor="middle" x="127.26" y="-7.5" font-family="Helvetica,sans-Serif" font-size="10.00">./TLockGuard.hpp</text>
</a>
</g>
</g>
<!-- Node4&#45;&gt;Node14 -->
<g id="edge14" class="edge">
<title>Node4&#45;&gt;Node14</title>
<path fill="none" stroke="midnightblue" d="M386.03,-137.77C322.81,-130.96 223.92,-117.59 192.26,-98 178.09,-89.23 152.5,-51.1 138.01,-28.33"/>
<polygon fill="midnightblue" stroke="midnightblue" points="140.84,-26.25 132.55,-19.64 134.91,-29.97 140.84,-26.25"/>
</g>
<!-- Node15 -->
<g id="node15" class="node">
<title>Node15</title>
<g id="a_node15"><a xlink:title=" ">
<polygon fill="none" stroke="#bfbfbf" points="200.76,-56.5 200.76,-97.5 321.76,-97.5 321.76,-56.5 200.76,-56.5"/>
<text text-anchor="start" x="208.76" y="-85.5" font-family="Helvetica,sans-Serif" font-size="10.00">../../external/xsimd</text>
<text text-anchor="start" x="208.76" y="-74.5" font-family="Helvetica,sans-Serif" font-size="10.00">/include/xsimd/config</text>
<text text-anchor="middle" x="261.26" y="-63.5" font-family="Helvetica,sans-Serif" font-size="10.00">/xsimd_arch.hpp</text>
</a>
</g>
</g>
<!-- Node4&#45;&gt;Node15 -->
<g id="edge15" class="edge">
<title>Node4&#45;&gt;Node15</title>
<path fill="none" stroke="midnightblue" d="M417.35,-134.37C393.95,-125.92 357.27,-112.67 325.34,-101.14"/>
<polygon fill="midnightblue" stroke="midnightblue" points="326.2,-97.73 315.6,-97.63 323.82,-104.31 326.2,-97.73"/>
</g>
<!-- Node9 -->
<g id="node9" class="node">
<title>Node9</title>
<g id="a_node9"><a xlink:title=" ">
<polygon fill="none" stroke="#bfbfbf" points="829.26,-0.5 829.26,-19.5 879.26,-19.5 879.26,-0.5 829.26,-0.5"/>
<text text-anchor="middle" x="854.26" y="-7.5" font-family="Helvetica,sans-Serif" font-size="10.00">cstring</text>
</a>
</g>
</g>
<!-- Node8&#45;&gt;Node9 -->
<g id="edge8" class="edge">
<title>Node8&#45;&gt;Node9</title>
<path fill="none" stroke="midnightblue" d="M605.23,-67.46C616.73,-63.68 630.61,-59.35 643.26,-56 704.51,-39.79 776.94,-25.35 819.04,-17.42"/>
<polygon fill="midnightblue" stroke="midnightblue" points="819.87,-20.83 829.06,-15.55 818.59,-13.95 819.87,-20.83"/>
</g>
<!-- Node10 -->
<g id="node10" class="node">
<title>Node10</title>
<g id="a_node10"><a xlink:title=" ">
<polygon fill="none" stroke="#bfbfbf" points="553.76,-0.5 553.76,-19.5 606.76,-19.5 606.76,-0.5 553.76,-0.5"/>
<text text-anchor="middle" x="580.26" y="-7.5" font-family="Helvetica,sans-Serif" font-size="10.00">stdlib.h</text>
</a>
</g>
</g>
<!-- Node8&#45;&gt;Node10 -->
<g id="edge9" class="edge">
<title>Node8&#45;&gt;Node10</title>
<path fill="none" stroke="midnightblue" d="M580.26,-67.23C580.26,-57.68 580.26,-42.12 580.26,-29.78"/>
<polygon fill="midnightblue" stroke="midnightblue" points="583.76,-29.63 580.26,-19.63 576.76,-29.63 583.76,-29.63"/>
</g>
<!-- Node12 -->
<g id="node12" class="node">
<title>Node12</title>
<g id="a_node12"><a xlink:title=" ">
<polygon fill="none" stroke="#bfbfbf" points="670.26,-0.5 670.26,-19.5 722.26,-19.5 722.26,-0.5 670.26,-0.5"/>
<text text-anchor="middle" x="696.26" y="-7.5" font-family="Helvetica,sans-Serif" font-size="10.00">cassert</text>
</a>
</g>
</g>
<!-- Node11&#45;&gt;Node12 -->
<g id="edge11" class="edge">
<title>Node11&#45;&gt;Node12</title>
<path fill="none" stroke="midnightblue" d="M696.26,-67.23C696.26,-57.68 696.26,-42.12 696.26,-29.78"/>
<polygon fill="midnightblue" stroke="midnightblue" points="699.76,-29.63 696.26,-19.63 692.76,-29.63 699.76,-29.63"/>
</g>
<!-- Node13&#45;&gt;Node14 -->
<g id="edge13" class="edge">
<title>Node13&#45;&gt;Node14</title>
<path fill="none" stroke="midnightblue" d="M87.46,-67.23C94.56,-57.2 106.37,-40.51 115.28,-27.92"/>
<polygon fill="midnightblue" stroke="midnightblue" points="118.23,-29.81 121.15,-19.63 112.52,-25.77 118.23,-29.81"/>
</g>
<!-- Node16&#45;&gt;Node4 -->
<g id="edge18" class="edge">
<title>Node16&#45;&gt;Node4</title>
<path fill="none" stroke="midnightblue" d="M517.64,-190.32C503.31,-181.82 481.24,-168.73 464.51,-158.8"/>
<polygon fill="midnightblue" stroke="midnightblue" points="466.23,-155.75 455.84,-153.65 462.65,-161.77 466.23,-155.75"/>
</g>
<!-- Node16&#45;&gt;Node10 -->
<g id="edge17" class="edge">
<title>Node16&#45;&gt;Node10</title>
<path fill="none" stroke="midnightblue" d="M469.04,-196.47C342.87,-189.97 66.94,-167.89 9.26,-98 -2.63,-83.6 -3.41,-69.71 9.26,-56 45.5,-16.79 422.81,-11.7 543.41,-11.07"/>
<polygon fill="midnightblue" stroke="midnightblue" points="543.63,-14.57 553.61,-11.03 543.6,-7.57 543.63,-14.57"/>
</g>
<!-- Node16&#45;&gt;Node11 -->
<g id="edge19" class="edge">
<title>Node16&#45;&gt;Node11</title>
<path fill="none" stroke="midnightblue" d="M543.79,-190.49C571.36,-170.15 641.39,-118.48 676.11,-92.86"/>
<polygon fill="midnightblue" stroke="midnightblue" points="678.55,-95.41 684.52,-86.66 674.39,-89.78 678.55,-95.41"/>
</g>
<!-- Node17&#45;&gt;Node4 -->
<g id="edge21" class="edge">
<title>Node17&#45;&gt;Node4</title>
<path fill="none" stroke="midnightblue" d="M644.07,-190.44C602.12,-181.04 534.66,-165.93 489.19,-155.74"/>
<polygon fill="midnightblue" stroke="midnightblue" points="489.79,-152.29 479.26,-153.52 488.26,-159.12 489.79,-152.29"/>
</g>
<!-- Node17&#45;&gt;Node11 -->
<g id="edge22" class="edge">
<title>Node17&#45;&gt;Node11</title>
<path fill="none" stroke="midnightblue" d="M683.26,-190.3C685.51,-170.85 690.99,-123.49 694.07,-96.9"/>
<polygon fill="midnightblue" stroke="midnightblue" points="697.59,-96.96 695.26,-86.62 690.63,-96.15 697.59,-96.96"/>
</g>
<!-- Node18&#45;&gt;Node9 -->
<g id="edge26" class="edge">
<title>Node18&#45;&gt;Node9</title>
<path fill="none" stroke="midnightblue" d="M944.45,-190.44C947.27,-166.89 952.18,-99.98 924.26,-56 915.32,-41.93 900.22,-31.4 886.33,-24.08"/>
<polygon fill="midnightblue" stroke="midnightblue" points="887.52,-20.76 876.99,-19.52 884.44,-27.05 887.52,-20.76"/>
</g>
<!-- Node19 -->
<g id="node19" class="node">
<title>Node19</title>
<g id="a_node19"><a xlink:title=" ">
<polygon fill="none" stroke="#bfbfbf" points="971.26,-134.5 971.26,-153.5 1035.26,-153.5 1035.26,-134.5 971.26,-134.5"/>
<text text-anchor="middle" x="1003.26" y="-141.5" font-family="Helvetica,sans-Serif" font-size="10.00">algorithm</text>
</a>
</g>
</g>
<!-- Node18&#45;&gt;Node19 -->
<g id="edge24" class="edge">
<title>Node18&#45;&gt;Node19</title>
<path fill="none" stroke="midnightblue" d="M952.9,-190.32C961.77,-182.34 975.13,-170.31 985.86,-160.65"/>
<polygon fill="midnightblue" stroke="midnightblue" points="988.35,-163.13 993.44,-153.83 983.67,-157.92 988.35,-163.13"/>
</g>
<!-- Node20 -->
<g id="node20" class="node">
<title>Node20</title>
<g id="a_node20"><a xlink:title=" ">
<polygon fill="none" stroke="#bfbfbf" points="1053.76,-134.5 1053.76,-153.5 1100.76,-153.5 1100.76,-134.5 1053.76,-134.5"/>
<text text-anchor="middle" x="1077.26" y="-141.5" font-family="Helvetica,sans-Serif" font-size="10.00">cmath</text>
</a>
</g>
</g>
<!-- Node18&#45;&gt;Node20 -->
<g id="edge25" class="edge">
<title>Node18&#45;&gt;Node20</title>
<path fill="none" stroke="midnightblue" d="M964.49,-190.44C986.64,-181.52 1021.58,-167.44 1046.69,-157.32"/>
<polygon fill="midnightblue" stroke="midnightblue" points="1048.16,-160.5 1056.12,-153.52 1045.54,-154.01 1048.16,-160.5"/>
</g>
<!-- Node21 -->
<g id="node21" class="node">
<title>Node21</title>
<g id="a_node21"><a xlink:href="_t_allocator_8hpp.html" target="_top" xlink:title=" ">
<polygon fill="none" stroke="black" points="756.76,-134.5 756.76,-153.5 893.76,-153.5 893.76,-134.5 756.76,-134.5"/>
<text text-anchor="middle" x="825.26" y="-141.5" font-family="Helvetica,sans-Serif" font-size="10.00">../memory/TAllocator.hpp</text>
</a>
</g>
</g>
<!-- Node18&#45;&gt;Node21 -->
<g id="edge27" class="edge">
<title>Node18&#45;&gt;Node21</title>
<path fill="none" stroke="midnightblue" d="M924.56,-190.44C905.31,-181.64 875.1,-167.81 853.06,-157.72"/>
<polygon fill="midnightblue" stroke="midnightblue" points="854.42,-154.5 843.87,-153.52 851.5,-160.86 854.42,-154.5"/>
</g>
<!-- Node21&#45;&gt;Node10 -->
<g id="edge31" class="edge">
<title>Node21&#45;&gt;Node10</title>
<path fill="none" stroke="midnightblue" d="M818.03,-134.34C800.08,-112.87 754.59,-58.71 750.26,-56 709.03,-30.21 653.3,-19.09 617.07,-14.37"/>
<polygon fill="midnightblue" stroke="midnightblue" points="617.29,-10.87 606.94,-13.15 616.45,-17.82 617.29,-10.87"/>
</g>
<!-- Node21&#45;&gt;Node11 -->
<g id="edge28" class="edge">
<title>Node21&#45;&gt;Node11</title>
<path fill="none" stroke="midnightblue" d="M808.13,-134.37C786.25,-123.34 748.16,-104.16 722.59,-91.27"/>
<polygon fill="midnightblue" stroke="midnightblue" points="723.96,-88.04 713.46,-86.67 720.81,-94.29 723.96,-88.04"/>
</g>
<!-- Node22 -->
<g id="node22" class="node">
<title>Node22</title>
<g id="a_node22"><a xlink:title=" ">
<polygon fill="none" stroke="#bfbfbf" points="797.26,-67.5 797.26,-86.5 853.26,-86.5 853.26,-67.5 797.26,-67.5"/>
<text text-anchor="middle" x="825.26" y="-74.5" font-family="Helvetica,sans-Serif" font-size="10.00">stddef.h</text>
</a>
</g>
</g>
<!-- Node21&#45;&gt;Node22 -->
<g id="edge29" class="edge">
<title>Node21&#45;&gt;Node22</title>
<path fill="none" stroke="midnightblue" d="M825.26,-134.23C825.26,-124.68 825.26,-109.12 825.26,-96.78"/>
<polygon fill="midnightblue" stroke="midnightblue" points="828.76,-96.63 825.26,-86.63 821.76,-96.63 828.76,-96.63"/>
</g>
<!-- Node23 -->
<g id="node23" class="node">
<title>Node23</title>
<g id="a_node23"><a xlink:title=" ">
<polygon fill="none" stroke="#bfbfbf" points="871.26,-67.5 871.26,-86.5 915.26,-86.5 915.26,-67.5 871.26,-67.5"/>
<text text-anchor="middle" x="893.26" y="-74.5" font-family="Helvetica,sans-Serif" font-size="10.00">limits</text>
</a>
</g>
</g>
<!-- Node21&#45;&gt;Node23 -->
<g id="edge30" class="edge">
<title>Node21&#45;&gt;Node23</title>
<path fill="none" stroke="midnightblue" d="M834.43,-134.23C845.23,-123.9 863.4,-106.54 876.69,-93.83"/>
<polygon fill="midnightblue" stroke="midnightblue" points="879.42,-96.07 884.23,-86.63 874.58,-91.01 879.42,-96.07"/>
</g>
</g>
</svg>
        <g id="navigator" transform="translate(0 0)" fill="#404254">
                <rect fill="#f2f5e9" fill-opacity="0.5" stroke="#606060" stroke-width=".5" x="0" y="0" width="60" height="60"/>
                <use id="zoomplus" xlink:href="#zoomPlus" x="17" y="9" onmousedown="handleZoom(evt,'in')"/>
                <use id="zoomminus" xlink:href="#zoomMin" x="42" y="9" onmousedown="handleZoom(evt,'out')"/>
                <use id="reset" xlink:href="#resetDef" x="30" y="36" onmousedown="handleReset()"/>
                <g id="arrowUp" xlink:href="#dirArrow" transform="translate(30 24)" onmousedown="handlePan(0,-1)">
                  <use xlink:href="#rim" fill="#404040">
                        <set attributeName="fill" to="#808080" begin="arrowUp.mouseover" end="arrowUp.mouseout"/>
                  </use>
                  <path fill="none" stroke="white" stroke-width="1.5" d="M0,-3.0v7 M-2.5,-0.5L0,-3.0L2.5,-0.5"/>
                </g>
                <g id="arrowRight" xlink:href="#dirArrow" transform="rotate(90) translate(36 -43)" onmousedown="handlePan(1,0)">
                  <use xlink:href="#rim" fill="#404040">
                        <set attributeName="fill" to="#808080" begin="arrowRight.mouseover" end="arrowRight.mouseout"/>
                  </use>
                  <path fill="none" stroke="white" stroke-width="1.5" d="M0,-3.0v7 M-2.5,-0.5L0,-3.0L2.5,-0.5"/>
                </g>
                <g id="arrowDown" xlink:href="#dirArrow" transform="rotate(180) translate(-30 -48)" onmousedown="handlePan(0,1)">
                  <use xlink:href="#rim" fill="#404040">
                        <set attributeName="fill" to="#808080" begin="arrowDown.mouseover" end="arrowDown.mouseout"/>
                  </use>
                  <path fill="none" stroke="white" stroke-width="1.5" d="M0,-3.0v7 M-2.5,-0.5L0,-3.0L2.5,-0.5"/>
                </g>
                <g id="arrowLeft" xlink:href="#dirArrow" transform="rotate(270) translate(-36 17)" onmousedown="handlePan(-1,0)">
                  <use xlink:href="#rim" fill="#404040">
                        <set attributeName="fill" to="#808080" begin="arrowLeft.mouseover" end="arrowLeft.mouseout"/>
                  </use>
                  <path fill="none" stroke="white" stroke-width="1.5" d="M0,-3.0v7 M-2.5,-0.5L0,-3.0L2.5,-0.5"/>
                </g>
        </g>
        <svg viewBox="0 0 15 15" width="100%" height="30px" preserveAspectRatio="xMaxYMin meet">
         <g id="arrow_out" transform="scale(0.3 0.3)">
          <a xlink:href="string_8cpp__incl_org.svg" target="_base">
           <rect id="button" ry="5" rx="5" y="6" x="6" height="38" width="38"
                fill="#f2f5e9" fill-opacity="0.5" stroke="#606060" stroke-width="1.0"/>
           <path id="arrow"
             d="M 11.500037,31.436501 C 11.940474,20.09759 22.043105,11.32322 32.158766,21.979434 L 37.068811,17.246167 C 37.068811,17.246167 37.088388,32 37.088388,32 L 22.160133,31.978069 C 22.160133,31.978069 26.997745,27.140456 26.997745,27.140456 C 18.528582,18.264221 13.291696,25.230495 11.500037,31.436501 z"
             style="fill:#404040;"/>
          </a>
         </g>
        </svg>
</svg>
