<?xml version="1.0" encoding="UTF-8" standalone="no"?>
<!DOCTYPE svg PUBLIC "-//W3C//DTD SVG 1.1//EN"
 "http://www.w3.org/Graphics/SVG/1.1/DTD/svg11.dtd">
<!-- Generated by graphviz version 2.50.0 (0)
 -->
<!-- Title: main Pages: 1 -->
<svg width="573pt" height="224pt"
 viewBox="0.00 0.00 573.00 224.00" xmlns="http://www.w3.org/2000/svg" xmlns:xlink="http://www.w3.org/1999/xlink">
<g id="graph0" class="graph" transform="scale(1 1) rotate(0) translate(4 220)">
<title>main</title>
<!-- Node1 -->
<g id="node1" class="node">
<title>Node1</title>
<g id="a_node1"><a xlink:title=" ">
<polygon fill="#bfbfbf" stroke="black" points="0,-60.5 0,-79.5 41,-79.5 41,-60.5 0,-60.5"/>
<text text-anchor="middle" x="20.5" y="-67.5" font-family="Helvetica,sans-Serif" font-size="10.00">main</text>
</a>
</g>
</g>
<!-- Node2 -->
<g id="node2" class="node">
<title>Node2</title>
<g id="a_node2"><a xlink:href="classtklb_1_1_heap_buffer.html#a4cde91bbb793df74ff45d47398d478ad" target="_top" xlink:title="Push the object to the back of the buffer TODO tklb move version.">
<polygon fill="none" stroke="black" points="77,-82.5 77,-101.5 203,-101.5 203,-82.5 77,-82.5"/>
<text text-anchor="middle" x="140" y="-89.5" font-family="Helvetica,sans-Serif" font-size="10.00">tklb::HeapBuffer::push</text>
</a>
</g>
</g>
<!-- Node1&#45;&gt;Node2 -->
<g id="edge1" class="edge">
<title>Node1&#45;&gt;Node2</title>
<path fill="none" stroke="midnightblue" d="M41.17,-73.68C51.42,-75.6 64.59,-78.07 77.91,-80.56"/>
<polygon fill="midnightblue" stroke="midnightblue" points="77.61,-84.07 88.09,-82.47 78.9,-77.19 77.61,-84.07"/>
</g>
<!-- Node10 -->
<g id="node10" class="node">
<title>Node10</title>
<g id="a_node10"><a xlink:href="classtklb_1_1_string.html#a12a3df526b1df22b6fac627d71f8cfa6" target="_top" xlink:title=" ">
<polygon fill="none" stroke="black" points="94.5,-38.5 94.5,-57.5 185.5,-57.5 185.5,-38.5 94.5,-38.5"/>
<text text-anchor="middle" x="140" y="-45.5" font-family="Helvetica,sans-Serif" font-size="10.00">tklb::String::set</text>
</a>
</g>
</g>
<!-- Node1&#45;&gt;Node10 -->
<g id="edge9" class="edge">
<title>Node1&#45;&gt;Node10</title>
<path fill="none" stroke="midnightblue" d="M41.17,-66.32C53.06,-64.09 68.88,-61.13 84.31,-58.24"/>
<polygon fill="midnightblue" stroke="midnightblue" points="85.17,-61.64 94.35,-56.36 83.88,-54.76 85.17,-61.64"/>
</g>
<!-- Node3 -->
<g id="node3" class="node">
<title>Node3</title>
<g id="a_node3"><a xlink:href="classtklb_1_1_heap_buffer.html#a37d94fdca920347674a4048cdc28452d" target="_top" xlink:title="Allocated the exact size requsted and copies existing objects.">
<polygon fill="none" stroke="black" points="239,-142.5 239,-161.5 381,-161.5 381,-142.5 239,-142.5"/>
<text text-anchor="middle" x="310" y="-149.5" font-family="Helvetica,sans-Serif" font-size="10.00">tklb::HeapBuffer::allocate</text>
</a>
</g>
</g>
<!-- Node2&#45;&gt;Node3 -->
<g id="edge2" class="edge">
<title>Node2&#45;&gt;Node3</title>
<path fill="none" stroke="midnightblue" d="M167.62,-101.51C195.92,-111.62 240.87,-127.67 272.47,-138.95"/>
<polygon fill="midnightblue" stroke="midnightblue" points="271.63,-142.37 282.23,-142.44 273.99,-135.78 271.63,-142.37"/>
</g>
<!-- Node7 -->
<g id="node7" class="node">
<title>Node7</title>
<g id="a_node7"><a xlink:href="classtklb_1_1_heap_buffer.html#a682dc231ff65beb7114cb0e476affd6b" target="_top" xlink:title=" ">
<polygon fill="none" stroke="black" points="241.5,-77 241.5,-107 378.5,-107 378.5,-77 241.5,-77"/>
<text text-anchor="start" x="249.5" y="-95" font-family="Helvetica,sans-Serif" font-size="10.00">tklb::HeapBuffer::closest</text>
<text text-anchor="middle" x="310" y="-84" font-family="Helvetica,sans-Serif" font-size="10.00">ChunkSize</text>
</a>
</g>
</g>
<!-- Node2&#45;&gt;Node7 -->
<g id="edge6" class="edge">
<title>Node2&#45;&gt;Node7</title>
<path fill="none" stroke="midnightblue" d="M203.08,-92C212.21,-92 221.71,-92 231.11,-92"/>
<polygon fill="midnightblue" stroke="midnightblue" points="231.24,-95.5 241.24,-92 231.24,-88.5 231.24,-95.5"/>
</g>
<!-- Node4 -->
<g id="node4" class="node">
<title>Node4</title>
<g id="a_node4"><a xlink:href="classtklb_1_1_heap_buffer.html#a25c9d8fce108ff905202bcf7a6038d3d" target="_top" xlink:title="Whether the memory is managed by the instance or is borrowed.">
<polygon fill="none" stroke="black" points="420,-196.5 420,-215.5 562,-215.5 562,-196.5 420,-196.5"/>
<text text-anchor="middle" x="491" y="-203.5" font-family="Helvetica,sans-Serif" font-size="10.00">tklb::HeapBuffer::injected</text>
</a>
</g>
</g>
<!-- Node3&#45;&gt;Node4 -->
<g id="edge3" class="edge">
<title>Node3&#45;&gt;Node4</title>
<path fill="none" stroke="midnightblue" d="M338.3,-161.55C359.62,-168.88 390.05,-179.05 417,-187 424.86,-189.32 433.24,-191.64 441.41,-193.82"/>
<polygon fill="midnightblue" stroke="midnightblue" points="440.67,-197.24 451.23,-196.4 442.45,-190.47 440.67,-197.24"/>
</g>
<!-- Node5 -->
<g id="node5" class="node">
<title>Node5</title>
<g id="a_node5"><a xlink:href="classtklb_1_1_heap_buffer.html#a23801c62dcfb74cab62a9998de65adeb" target="_top" xlink:title=" ">
<polygon fill="none" stroke="black" points="417,-158.5 417,-177.5 565,-177.5 565,-158.5 417,-158.5"/>
<text text-anchor="middle" x="491" y="-165.5" font-family="Helvetica,sans-Serif" font-size="10.00">tklb::HeapBuffer::isAligned</text>
</a>
</g>
</g>
<!-- Node3&#45;&gt;Node5 -->
<g id="edge4" class="edge">
<title>Node3&#45;&gt;Node5</title>
<path fill="none" stroke="midnightblue" d="M381.23,-158.28C389.61,-159.03 398.22,-159.8 406.76,-160.56"/>
<polygon fill="midnightblue" stroke="midnightblue" points="406.46,-164.05 416.73,-161.45 407.08,-157.07 406.46,-164.05"/>
</g>
<!-- Node6 -->
<g id="node6" class="node">
<title>Node6</title>
<g id="a_node6"><a xlink:href="namespacetklb.html#a3080595da18d742645ec41d61828a426" target="_top" xlink:title=" ">
<polygon fill="none" stroke="black" points="461,-120.5 461,-139.5 521,-139.5 521,-120.5 461,-120.5"/>
<text text-anchor="middle" x="491" y="-127.5" font-family="Helvetica,sans-Serif" font-size="10.00">tklb::min</text>
</a>
</g>
</g>
<!-- Node3&#45;&gt;Node6 -->
<g id="edge5" class="edge">
<title>Node3&#45;&gt;Node6</title>
<path fill="none" stroke="midnightblue" d="M381.23,-143.37C404.75,-140.48 430.14,-137.36 450.46,-134.86"/>
<polygon fill="midnightblue" stroke="midnightblue" points="451.1,-138.31 460.59,-133.61 450.24,-131.36 451.1,-138.31"/>
</g>
<!-- Node8 -->
<g id="node8" class="node">
<title>Node8</title>
<g id="a_node8"><a xlink:href="namespacetklb.html#a7dc2203e89c331e3c85b9e7f16fa6763" target="_top" xlink:title=" ">
<polygon fill="none" stroke="black" points="459.5,-82.5 459.5,-101.5 522.5,-101.5 522.5,-82.5 459.5,-82.5"/>
<text text-anchor="middle" x="491" y="-89.5" font-family="Helvetica,sans-Serif" font-size="10.00">tklb::max</text>
</a>
</g>
</g>
<!-- Node7&#45;&gt;Node8 -->
<g id="edge7" class="edge">
<title>Node7&#45;&gt;Node8</title>
<path fill="none" stroke="midnightblue" d="M378.67,-92C402.39,-92 428.28,-92 449.12,-92"/>
<polygon fill="midnightblue" stroke="midnightblue" points="449.22,-95.5 459.22,-92 449.22,-88.5 449.22,-95.5"/>
</g>
<!-- Node9 -->
<g id="node9" class="node">
<title>Node9</title>
<g id="a_node9"><a xlink:href="classtklb_1_1_heap_buffer.html#a172cd1dde86d1f3b0308fb0ce4a1758a" target="_top" xlink:title="Returns the amount of elements in the container.">
<polygon fill="none" stroke="black" points="430,-44.5 430,-63.5 552,-63.5 552,-44.5 430,-44.5"/>
<text text-anchor="middle" x="491" y="-51.5" font-family="Helvetica,sans-Serif" font-size="10.00">tklb::HeapBuffer::size</text>
</a>
</g>
</g>
<!-- Node7&#45;&gt;Node9 -->
<g id="edge8" class="edge">
<title>Node7&#45;&gt;Node9</title>
<path fill="none" stroke="midnightblue" d="M378.67,-77.63C397.21,-73.7 417.08,-69.48 434.83,-65.71"/>
<polygon fill="midnightblue" stroke="midnightblue" points="435.95,-69.05 445,-63.55 434.5,-62.21 435.95,-69.05"/>
</g>
<!-- Node11 -->
<g id="node11" class="node">
<title>Node11</title>
<g id="a_node11"><a xlink:href="classtklb_1_1_string.html#a2551f7f99fab1486f3d13b3a363824c5" target="_top" xlink:title=" ">
<polygon fill="none" stroke="black" points="260.5,-38.5 260.5,-57.5 359.5,-57.5 359.5,-38.5 260.5,-38.5"/>
<text text-anchor="middle" x="310" y="-45.5" font-family="Helvetica,sans-Serif" font-size="10.00">tklb::String::c_str</text>
</a>
</g>
</g>
<!-- Node10&#45;&gt;Node11 -->
<g id="edge10" class="edge">
<title>Node10&#45;&gt;Node11</title>
<path fill="none" stroke="midnightblue" d="M185.58,-48C205.38,-48 228.96,-48 250.17,-48"/>
<polygon fill="midnightblue" stroke="midnightblue" points="250.37,-51.5 260.37,-48 250.37,-44.5 250.37,-51.5"/>
</g>
<!-- Node12 -->
<g id="node12" class="node">
<title>Node12</title>
<g id="a_node12"><a xlink:href="classtklb_1_1_string.html#a2fd6f1c6342e803119507c94cd3c6b76" target="_top" xlink:title=" ">
<polygon fill="none" stroke="black" points="262.5,-0.5 262.5,-19.5 357.5,-19.5 357.5,-0.5 262.5,-0.5"/>
<text text-anchor="middle" x="310" y="-7.5" font-family="Helvetica,sans-Serif" font-size="10.00">tklb::String::size</text>
</a>
</g>
</g>
<!-- Node10&#45;&gt;Node12 -->
<g id="edge11" class="edge">
<title>Node10&#45;&gt;Node12</title>
<path fill="none" stroke="midnightblue" d="M183.39,-38.41C205.76,-33.35 233.4,-27.1 257.05,-21.75"/>
<polygon fill="midnightblue" stroke="midnightblue" points="257.93,-25.14 266.91,-19.52 256.39,-18.31 257.93,-25.14"/>
</g>
</g>
</svg>
