<?xml version="1.0" encoding="UTF-8" standalone="no"?>
<!DOCTYPE svg PUBLIC "-//W3C//DTD SVG 1.1//EN"
 "http://www.w3.org/Graphics/SVG/1.1/DTD/svg11.dtd">
<!-- Generated by graphviz version 2.50.0 (0)
 -->
<!-- Title: tklb::Delegate&lt; void(Parameters...)&gt; Pages: 1 -->
<svg width="163pt" height="470pt"
 viewBox="0.00 0.00 163.00 470.00" xmlns="http://www.w3.org/2000/svg" xmlns:xlink="http://www.w3.org/1999/xlink">
<g id="graph0" class="graph" transform="scale(1 1) rotate(0) translate(4 466)">
<title>tklb::Delegate&lt; void(Parameters...)&gt;</title>
<!-- Node1 -->
<g id="node1" class="node">
<title>Node1</title>
<g id="a_node1"><a xlink:title=" ">
<polygon fill="#bfbfbf" stroke="black" points="5,-0.5 5,-79.5 123,-79.5 123,-0.5 5,-0.5"/>
<text text-anchor="start" x="13" y="-67.5" font-family="Helvetica,sans-Serif" font-size="10.00">tklb::Delegate&lt; void</text>
<text text-anchor="middle" x="64" y="-56.5" font-family="Helvetica,sans-Serif" font-size="10.00">(Parameters...)&gt;</text>
<polyline fill="none" stroke="black" points="5,-49.5 123,-49.5 "/>
<text text-anchor="middle" x="64" y="-37.5" font-family="Helvetica,sans-Serif" font-size="10.00"> </text>
<polyline fill="none" stroke="black" points="5,-30.5 123,-30.5 "/>
<text text-anchor="start" x="13" y="-18.5" font-family="Helvetica,sans-Serif" font-size="10.00">+ Delegate()</text>
<text text-anchor="start" x="13" y="-7.5" font-family="Helvetica,sans-Serif" font-size="10.00">+ Delegate()</text>
</a>
</g>
</g>
<!-- Node2 -->
<g id="node2" class="node">
<title>Node2</title>
<g id="a_node2"><a xlink:href="classtklb_1_1_base_delegate.html" target="_top" xlink:title=" ">
<polygon fill="none" stroke="black" points="9,-117.5 9,-218.5 119,-218.5 119,-117.5 9,-117.5"/>
<text text-anchor="start" x="17" y="-206.5" font-family="Helvetica,sans-Serif" font-size="10.00">tklb::BaseDelegate</text>
<text text-anchor="middle" x="64" y="-195.5" font-family="Helvetica,sans-Serif" font-size="10.00">&lt; Parameters... &gt;</text>
<polyline fill="none" stroke="black" points="9,-188.5 119,-188.5 "/>
<text text-anchor="start" x="17" y="-176.5" font-family="Helvetica,sans-Serif" font-size="10.00"># mContext</text>
<text text-anchor="start" x="17" y="-165.5" font-family="Helvetica,sans-Serif" font-size="10.00"># mCallback</text>
<polyline fill="none" stroke="black" points="9,-158.5 119,-158.5 "/>
<text text-anchor="start" x="17" y="-146.5" font-family="Helvetica,sans-Serif" font-size="10.00">+ BaseDelegate()</text>
<text text-anchor="start" x="17" y="-135.5" font-family="Helvetica,sans-Serif" font-size="10.00">+ operator()()</text>
<text text-anchor="start" x="17" y="-124.5" font-family="Helvetica,sans-Serif" font-size="10.00">+ valid()</text>
</a>
</g>
</g>
<!-- Node2&#45;&gt;Node1 -->
<g id="edge1" class="edge">
<title>Node2&#45;&gt;Node1</title>
<path fill="none" stroke="midnightblue" d="M64,-107.11C64,-97.74 64,-88.28 64,-79.56"/>
<polygon fill="none" stroke="midnightblue" points="60.5,-107.2 64,-117.2 67.5,-107.2 60.5,-107.2"/>
</g>
<!-- Node3 -->
<g id="node3" class="node">
<title>Node3</title>
<g id="a_node3"><a xlink:href="classtklb_1_1_base_delegate.html" target="_top" xlink:title="Stripped down version of this delegate implementation https://github.com/marcmo/delegates/tree/f0938d...">
<polygon fill="none" stroke="black" points="9,-266.5 9,-356.5 119,-356.5 119,-266.5 9,-266.5"/>
<text text-anchor="start" x="17" y="-344.5" font-family="Helvetica,sans-Serif" font-size="10.00">tklb::BaseDelegate</text>
<text text-anchor="middle" x="64" y="-333.5" font-family="Helvetica,sans-Serif" font-size="10.00">&lt; Parameters &gt;</text>
<polyline fill="none" stroke="black" points="9,-326.5 119,-326.5 "/>
<text text-anchor="middle" x="64" y="-314.5" font-family="Helvetica,sans-Serif" font-size="10.00"> </text>
<polyline fill="none" stroke="black" points="9,-307.5 119,-307.5 "/>
<text text-anchor="start" x="17" y="-295.5" font-family="Helvetica,sans-Serif" font-size="10.00">+ BaseDelegate()</text>
<text text-anchor="start" x="17" y="-284.5" font-family="Helvetica,sans-Serif" font-size="10.00">+ operator()()</text>
<text text-anchor="start" x="17" y="-273.5" font-family="Helvetica,sans-Serif" font-size="10.00">+ valid()</text>
</a>
</g>
</g>
<!-- Node3&#45;&gt;Node2 -->
<g id="edge2" class="edge">
<title>Node3&#45;&gt;Node2</title>
<path fill="none" stroke="orange" d="M64,-255.99C64,-243.7 64,-230.72 64,-218.64"/>
<polygon fill="orange" stroke="orange" points="60.5,-256.12 64,-266.12 67.5,-256.12 60.5,-256.12"/>
<text text-anchor="middle" x="109.5" y="-240" font-family="Helvetica,sans-Serif" font-size="10.00"> &lt; Parameters... &gt;</text>
</g>
<!-- Node4 -->
<g id="node4" class="node">
<title>Node4</title>
<g id="a_node4"><a xlink:title=" ">
<polygon fill="none" stroke="#bfbfbf" points="0,-404.5 0,-461.5 46,-461.5 46,-404.5 0,-404.5"/>
<text text-anchor="middle" x="23" y="-449.5" font-family="Helvetica,sans-Serif" font-size="10.00">void *</text>
<polyline fill="none" stroke="#bfbfbf" points="0,-442.5 46,-442.5 "/>
<text text-anchor="middle" x="23" y="-430.5" font-family="Helvetica,sans-Serif" font-size="10.00"> </text>
<polyline fill="none" stroke="#bfbfbf" points="0,-423.5 46,-423.5 "/>
<text text-anchor="middle" x="23" y="-411.5" font-family="Helvetica,sans-Serif" font-size="10.00"> </text>
</a>
</g>
</g>
<!-- Node4&#45;&gt;Node3 -->
<g id="edge3" class="edge">
<title>Node4&#45;&gt;Node3</title>
<path fill="none" stroke="#404040" d="M20.47,-404.27C20.39,-394.81 21.19,-384.28 24,-375 24.73,-372.59 25.58,-370.19 26.53,-367.8"/>
<polygon fill="none" stroke="#404040" points="26.57,-367.7 25.45,-360.57 31.6,-356.8 32.72,-363.92 26.57,-367.7"/>
<text text-anchor="middle" x="54" y="-378" font-family="Helvetica,sans-Serif" font-size="10.00"> #mContext</text>
</g>
<!-- Node5 -->
<g id="node5" class="node">
<title>Node5</title>
<g id="a_node5"><a xlink:title=" ">
<polygon fill="none" stroke="#bfbfbf" points="69.5,-404.5 69.5,-461.5 142.5,-461.5 142.5,-404.5 69.5,-404.5"/>
<text text-anchor="middle" x="106" y="-449.5" font-family="Helvetica,sans-Serif" font-size="10.00">Parameters</text>
<polyline fill="none" stroke="#bfbfbf" points="69.5,-442.5 142.5,-442.5 "/>
<text text-anchor="middle" x="106" y="-430.5" font-family="Helvetica,sans-Serif" font-size="10.00"> </text>
<polyline fill="none" stroke="#bfbfbf" points="69.5,-423.5 142.5,-423.5 "/>
<text text-anchor="middle" x="106" y="-411.5" font-family="Helvetica,sans-Serif" font-size="10.00"> </text>
</a>
</g>
</g>
<!-- Node5&#45;&gt;Node3 -->
<g id="edge4" class="edge">
<title>Node5&#45;&gt;Node3</title>
<path fill="none" stroke="#404040" d="M96.26,-404.28C92.47,-393.52 88,-380.78 83.6,-368.27"/>
<polygon fill="none" stroke="#404040" points="83.59,-368.23 77.83,-363.9 79.61,-356.91 85.37,-361.25 83.59,-368.23"/>
<text text-anchor="middle" x="120" y="-378" font-family="Helvetica,sans-Serif" font-size="10.00"> #mCallback</text>
</g>
</g>
</svg>
