<?xml version="1.0" encoding="UTF-8" standalone="no"?>
<!DOCTYPE svg PUBLIC "-//W3C//DTD SVG 1.1//EN"
 "http://www.w3.org/Graphics/SVG/1.1/DTD/svg11.dtd">
<!-- Generated by graphviz version 2.50.0 (0)
 -->
<!-- Title: vae::core::Effect::Parameter Pages: 1 -->
<svg width="196pt" height="612pt"
 viewBox="0.00 0.00 196.00 612.00" xmlns="http://www.w3.org/2000/svg" xmlns:xlink="http://www.w3.org/1999/xlink">
<g id="graph0" class="graph" transform="scale(1 1) rotate(0) translate(4 608)">
<title>vae::core::Effect::Parameter</title>
<!-- Node1 -->
<g id="node1" class="node">
<title>Node1</title>
<g id="a_node1"><a xlink:title="Represents a parameter of the DSP.">
<polygon fill="#bfbfbf" stroke="black" points="85.5,-0.5 85.5,-68.5 187.5,-68.5 187.5,-0.5 85.5,-0.5"/>
<text text-anchor="start" x="93.5" y="-56.5" font-family="Helvetica,sans-Serif" font-size="10.00">vae::core::Effect::</text>
<text text-anchor="middle" x="136.5" y="-45.5" font-family="Helvetica,sans-Serif" font-size="10.00">Parameter</text>
<polyline fill="none" stroke="black" points="85.5,-38.5 187.5,-38.5 "/>
<text text-anchor="middle" x="136.5" y="-26.5" font-family="Helvetica,sans-Serif" font-size="10.00"> </text>
<polyline fill="none" stroke="black" points="85.5,-19.5 187.5,-19.5 "/>
<text text-anchor="middle" x="136.5" y="-7.5" font-family="Helvetica,sans-Serif" font-size="10.00"> </text>
</a>
</g>
</g>
<!-- Node2 -->
<g id="node2" class="node">
<title>Node2</title>
<g id="a_node2"><a xlink:href="classtklb_1_1_stack_string.html" target="_top" xlink:title=" ">
<polygon fill="none" stroke="black" points="0,-116.5 0,-283.5 131,-283.5 131,-116.5 0,-116.5"/>
<text text-anchor="middle" x="65.5" y="-271.5" font-family="Helvetica,sans-Serif" font-size="10.00">tklb::StackString&lt; 16 &gt;</text>
<polyline fill="none" stroke="black" points="0,-264.5 131,-264.5 "/>
<text text-anchor="start" x="8" y="-252.5" font-family="Helvetica,sans-Serif" font-size="10.00">&#45; mData</text>
<polyline fill="none" stroke="black" points="0,-245.5 131,-245.5 "/>
<text text-anchor="start" x="8" y="-233.5" font-family="Helvetica,sans-Serif" font-size="10.00">+ StackString()</text>
<text text-anchor="start" x="8" y="-222.5" font-family="Helvetica,sans-Serif" font-size="10.00">+ StackString()</text>
<text text-anchor="start" x="8" y="-211.5" font-family="Helvetica,sans-Serif" font-size="10.00">+ operator=()</text>
<text text-anchor="start" x="8" y="-200.5" font-family="Helvetica,sans-Serif" font-size="10.00">+ c_str()</text>
<text text-anchor="start" x="8" y="-189.5" font-family="Helvetica,sans-Serif" font-size="10.00">+ operator[]()</text>
<text text-anchor="start" x="8" y="-178.5" font-family="Helvetica,sans-Serif" font-size="10.00">+ operator[]()</text>
<text text-anchor="start" x="8" y="-167.5" font-family="Helvetica,sans-Serif" font-size="10.00">+ operator==()</text>
<text text-anchor="start" x="8" y="-156.5" font-family="Helvetica,sans-Serif" font-size="10.00">+ operator==()</text>
<text text-anchor="start" x="8" y="-145.5" font-family="Helvetica,sans-Serif" font-size="10.00">+ empty()</text>
<text text-anchor="start" x="8" y="-134.5" font-family="Helvetica,sans-Serif" font-size="10.00">+ size()</text>
<text text-anchor="start" x="8" y="-123.5" font-family="Helvetica,sans-Serif" font-size="10.00">+ set()</text>
</a>
</g>
</g>
<!-- Node2&#45;&gt;Node1 -->
<g id="edge1" class="edge">
<title>Node2&#45;&gt;Node1</title>
<path fill="none" stroke="#404040" d="M90.03,-116.35C93.82,-106.3 97.99,-96.31 102.5,-87 103.76,-84.4 105.14,-81.77 106.58,-79.15"/>
<polygon fill="none" stroke="#404040" points="106.75,-78.87 106.36,-71.67 112.86,-68.54 113.25,-75.74 106.75,-78.87"/>
<text text-anchor="middle" x="122.5" y="-90" font-family="Helvetica,sans-Serif" font-size="10.00"> +name</text>
</g>
<!-- Node3 -->
<g id="node3" class="node">
<title>Node3</title>
<g id="a_node3"><a xlink:href="classtklb_1_1_stack_string.html" target="_top" xlink:title="Super simple class to hold and compare strings on the stack.">
<polygon fill="none" stroke="black" points="2,-331.5 2,-498.5 129,-498.5 129,-331.5 2,-331.5"/>
<text text-anchor="middle" x="65.5" y="-486.5" font-family="Helvetica,sans-Serif" font-size="10.00">tklb::StackString&lt; N &gt;</text>
<polyline fill="none" stroke="black" points="2,-479.5 129,-479.5 "/>
<text text-anchor="middle" x="65.5" y="-467.5" font-family="Helvetica,sans-Serif" font-size="10.00"> </text>
<polyline fill="none" stroke="black" points="2,-460.5 129,-460.5 "/>
<text text-anchor="start" x="10" y="-448.5" font-family="Helvetica,sans-Serif" font-size="10.00">+ StackString()</text>
<text text-anchor="start" x="10" y="-437.5" font-family="Helvetica,sans-Serif" font-size="10.00">+ StackString()</text>
<text text-anchor="start" x="10" y="-426.5" font-family="Helvetica,sans-Serif" font-size="10.00">+ operator=()</text>
<text text-anchor="start" x="10" y="-415.5" font-family="Helvetica,sans-Serif" font-size="10.00">+ c_str()</text>
<text text-anchor="start" x="10" y="-404.5" font-family="Helvetica,sans-Serif" font-size="10.00">+ operator[]()</text>
<text text-anchor="start" x="10" y="-393.5" font-family="Helvetica,sans-Serif" font-size="10.00">+ operator[]()</text>
<text text-anchor="start" x="10" y="-382.5" font-family="Helvetica,sans-Serif" font-size="10.00">+ operator==()</text>
<text text-anchor="start" x="10" y="-371.5" font-family="Helvetica,sans-Serif" font-size="10.00">+ operator==()</text>
<text text-anchor="start" x="10" y="-360.5" font-family="Helvetica,sans-Serif" font-size="10.00">+ empty()</text>
<text text-anchor="start" x="10" y="-349.5" font-family="Helvetica,sans-Serif" font-size="10.00">+ size()</text>
<text text-anchor="start" x="10" y="-338.5" font-family="Helvetica,sans-Serif" font-size="10.00">+ set()</text>
</a>
</g>
</g>
<!-- Node3&#45;&gt;Node2 -->
<g id="edge2" class="edge">
<title>Node3&#45;&gt;Node2</title>
<path fill="none" stroke="orange" d="M65.5,-320.97C65.5,-308.54 65.5,-295.85 65.5,-283.61"/>
<polygon fill="orange" stroke="orange" points="62,-321.34 65.5,-331.34 69,-321.34 62,-321.34"/>
<text text-anchor="middle" x="84.5" y="-305" font-family="Helvetica,sans-Serif" font-size="10.00"> &lt; 16 &gt;</text>
</g>
<!-- Node4 -->
<g id="node4" class="node">
<title>Node4</title>
<g id="a_node4"><a xlink:title=" ">
<polygon fill="none" stroke="#bfbfbf" points="46.5,-546.5 46.5,-603.5 84.5,-603.5 84.5,-546.5 46.5,-546.5"/>
<text text-anchor="middle" x="65.5" y="-591.5" font-family="Helvetica,sans-Serif" font-size="10.00">char</text>
<polyline fill="none" stroke="#bfbfbf" points="46.5,-584.5 84.5,-584.5 "/>
<text text-anchor="middle" x="65.5" y="-572.5" font-family="Helvetica,sans-Serif" font-size="10.00"> </text>
<polyline fill="none" stroke="#bfbfbf" points="46.5,-565.5 84.5,-565.5 "/>
<text text-anchor="middle" x="65.5" y="-553.5" font-family="Helvetica,sans-Serif" font-size="10.00"> </text>
</a>
</g>
</g>
<!-- Node4&#45;&gt;Node3 -->
<g id="edge3" class="edge">
<title>Node4&#45;&gt;Node3</title>
<path fill="none" stroke="#404040" d="M65.5,-546.48C65.5,-536.12 65.5,-523.67 65.5,-510.63"/>
<polygon fill="none" stroke="#404040" points="65.5,-510.54 61.5,-504.54 65.5,-498.54 69.5,-504.54 65.5,-510.54"/>
<text text-anchor="middle" x="85.5" y="-520" font-family="Helvetica,sans-Serif" font-size="10.00"> &#45;mData</text>
</g>
<!-- Node5 -->
<g id="node5" class="node">
<title>Node5</title>
<g id="a_node5"><a xlink:title=" ">
<polygon fill="none" stroke="#bfbfbf" points="149,-171.5 149,-228.5 188,-228.5 188,-171.5 149,-171.5"/>
<text text-anchor="middle" x="168.5" y="-216.5" font-family="Helvetica,sans-Serif" font-size="10.00">float</text>
<polyline fill="none" stroke="#bfbfbf" points="149,-209.5 188,-209.5 "/>
<text text-anchor="middle" x="168.5" y="-197.5" font-family="Helvetica,sans-Serif" font-size="10.00"> </text>
<polyline fill="none" stroke="#bfbfbf" points="149,-190.5 188,-190.5 "/>
<text text-anchor="middle" x="168.5" y="-178.5" font-family="Helvetica,sans-Serif" font-size="10.00"> </text>
</a>
</g>
</g>
<!-- Node5&#45;&gt;Node1 -->
<g id="edge4" class="edge">
<title>Node5&#45;&gt;Node1</title>
<path fill="none" stroke="#404040" d="M163.07,-171.26C158.22,-146.47 151.02,-109.68 145.34,-80.65"/>
<polygon fill="none" stroke="#404040" points="145.31,-80.52 140.23,-75.4 143.01,-68.74 148.08,-73.86 145.31,-80.52"/>
<text text-anchor="middle" x="168" y="-90" font-family="Helvetica,sans-Serif" font-size="10.00"> +value</text>
</g>
</g>
</svg>
