<?xml version="1.0" encoding="UTF-8" standalone="no"?>
<!DOCTYPE svg PUBLIC "-//W3C//DTD SVG 1.1//EN"
 "http://www.w3.org/Graphics/SVG/1.1/DTD/svg11.dtd">
<!-- Generated by graphviz version 2.50.0 (0)
 -->
<!-- Title: vae::core::HRTF Pages: 1 -->
<svg width="182pt" height="193pt"
 viewBox="0.00 0.00 182.00 193.00" xmlns="http://www.w3.org/2000/svg" xmlns:xlink="http://www.w3.org/1999/xlink">
<g id="graph0" class="graph" transform="scale(1 1) rotate(0) translate(4 189)">
<title>vae::core::HRTF</title>
<!-- Node1 -->
<g id="node1" class="node">
<title>Node1</title>
<g id="a_node1"><a xlink:title=" ">
<polygon fill="#bfbfbf" stroke="black" points="32.5,-0.5 32.5,-57.5 125.5,-57.5 125.5,-0.5 32.5,-0.5"/>
<text text-anchor="middle" x="79" y="-45.5" font-family="Helvetica,sans-Serif" font-size="10.00">vae::core::HRTF</text>
<polyline fill="none" stroke="black" points="32.5,-38.5 125.5,-38.5 "/>
<text text-anchor="middle" x="79" y="-26.5" font-family="Helvetica,sans-Serif" font-size="10.00"> </text>
<polyline fill="none" stroke="black" points="32.5,-19.5 125.5,-19.5 "/>
<text text-anchor="middle" x="79" y="-7.5" font-family="Helvetica,sans-Serif" font-size="10.00"> </text>
</a>
</g>
</g>
<!-- Node2 -->
<g id="node2" class="node">
<title>Node2</title>
<g id="a_node2"><a xlink:title=" ">
<polygon fill="none" stroke="#bfbfbf" points="0,-127.5 0,-184.5 80,-184.5 80,-127.5 0,-127.5"/>
<text text-anchor="middle" x="40" y="-172.5" font-family="Helvetica,sans-Serif" font-size="10.00">HeapBuffer&lt;</text>
<polyline fill="none" stroke="#bfbfbf" points="0,-165.5 80,-165.5 "/>
<text text-anchor="middle" x="40" y="-153.5" font-family="Helvetica,sans-Serif" font-size="10.00"> </text>
<polyline fill="none" stroke="#bfbfbf" points="0,-146.5 80,-146.5 "/>
<text text-anchor="middle" x="40" y="-134.5" font-family="Helvetica,sans-Serif" font-size="10.00"> </text>
</a>
</g>
</g>
<!-- Node2&#45;&gt;Node1 -->
<g id="edge1" class="edge">
<title>Node2&#45;&gt;Node1</title>
<path fill="none" stroke="#404040" d="M35.94,-127.5C34.71,-111.92 35,-92.35 41,-76 42.05,-73.15 43.35,-70.35 44.84,-67.62"/>
<polygon fill="none" stroke="#404040" points="44.84,-67.62 44.74,-60.41 51.35,-57.54 51.46,-64.75 44.84,-67.62"/>
<text text-anchor="middle" x="69" y="-90" font-family="Helvetica,sans-Serif" font-size="10.00"> +positions</text>
</g>
<!-- Node3 -->
<g id="node3" class="node">
<title>Node3</title>
<g id="a_node3"><a xlink:title=" ">
<polygon fill="none" stroke="#bfbfbf" points="104.5,-127.5 104.5,-184.5 133.5,-184.5 133.5,-127.5 104.5,-127.5"/>
<text text-anchor="middle" x="119" y="-172.5" font-family="Helvetica,sans-Serif" font-size="10.00">int</text>
<polyline fill="none" stroke="#bfbfbf" points="104.5,-165.5 133.5,-165.5 "/>
<text text-anchor="middle" x="119" y="-153.5" font-family="Helvetica,sans-Serif" font-size="10.00"> </text>
<polyline fill="none" stroke="#bfbfbf" points="104.5,-146.5 133.5,-146.5 "/>
<text text-anchor="middle" x="119" y="-134.5" font-family="Helvetica,sans-Serif" font-size="10.00"> </text>
</a>
</g>
</g>
<!-- Node3&#45;&gt;Node1 -->
<g id="edge2" class="edge">
<title>Node3&#45;&gt;Node1</title>
<path fill="none" stroke="#404040" d="M112.04,-127.37C108.01,-112.11 102.64,-92.88 97,-76 96.21,-73.65 95.38,-71.24 94.51,-68.82"/>
<polygon fill="none" stroke="#404040" points="94.5,-68.81 88.66,-64.58 90.31,-57.56 96.15,-61.79 94.5,-68.81"/>
<text text-anchor="middle" x="140" y="-101" font-family="Helvetica,sans-Serif" font-size="10.00"> +irLength</text>
<text text-anchor="middle" x="140" y="-90" font-family="Helvetica,sans-Serif" font-size="10.00">+originalRate</text>
<text text-anchor="middle" x="140" y="-79" font-family="Helvetica,sans-Serif" font-size="10.00">+rate</text>
</g>
</g>
</svg>
