<?xml version="1.0" encoding="UTF-8" standalone="no"?>
<!DOCTYPE svg PUBLIC "-//W3C//DTD SVG 1.1//EN"
 "http://www.w3.org/Graphics/SVG/1.1/DTD/svg11.dtd">
<!-- Generated by graphviz version 2.50.0 (0)
 -->
<!-- Title: vae::core::effect::EffectsList::RegisteredEffect Pages: 1 -->
<svg width="189pt" height="259pt"
 viewBox="0.00 0.00 189.00 259.00" xmlns="http://www.w3.org/2000/svg" xmlns:xlink="http://www.w3.org/1999/xlink">
<g id="graph0" class="graph" transform="scale(1 1) rotate(0) translate(4 255)">
<title>vae::core::effect::EffectsList::RegisteredEffect</title>
<!-- Node1 -->
<g id="node1" class="node">
<title>Node1</title>
<g id="a_node1"><a xlink:title=" ">
<polygon fill="#bfbfbf" stroke="black" points="0,-0.5 0,-68.5 155,-68.5 155,-0.5 0,-0.5"/>
<text text-anchor="start" x="8" y="-56.5" font-family="Helvetica,sans-Serif" font-size="10.00">vae::core::effect::</text>
<text text-anchor="middle" x="77.5" y="-45.5" font-family="Helvetica,sans-Serif" font-size="10.00">EffectsList::RegisteredEffect</text>
<polyline fill="none" stroke="black" points="0,-38.5 155,-38.5 "/>
<text text-anchor="middle" x="77.5" y="-26.5" font-family="Helvetica,sans-Serif" font-size="10.00"> </text>
<polyline fill="none" stroke="black" points="0,-19.5 155,-19.5 "/>
<text text-anchor="middle" x="77.5" y="-7.5" font-family="Helvetica,sans-Serif" font-size="10.00"> </text>
</a>
</g>
</g>
<!-- Node2 -->
<g id="node2" class="node">
<title>Node2</title>
<g id="a_node2"><a xlink:title=" ">
<polygon fill="none" stroke="#bfbfbf" points="11.5,-155 11.5,-212 49.5,-212 49.5,-155 11.5,-155"/>
<text text-anchor="middle" x="30.5" y="-200" font-family="Helvetica,sans-Serif" font-size="10.00">char</text>
<polyline fill="none" stroke="#bfbfbf" points="11.5,-193 49.5,-193 "/>
<text text-anchor="middle" x="30.5" y="-181" font-family="Helvetica,sans-Serif" font-size="10.00"> </text>
<polyline fill="none" stroke="#bfbfbf" points="11.5,-174 49.5,-174 "/>
<text text-anchor="middle" x="30.5" y="-162" font-family="Helvetica,sans-Serif" font-size="10.00"> </text>
</a>
</g>
</g>
<!-- Node2&#45;&gt;Node1 -->
<g id="edge1" class="edge">
<title>Node2&#45;&gt;Node1</title>
<path fill="none" stroke="#404040" d="M39.34,-154.85C46.06,-133.84 55.44,-104.5 63.22,-80.17"/>
<polygon fill="none" stroke="#404040" points="63.23,-80.12 61.25,-73.18 66.89,-68.69 68.87,-75.62 63.23,-80.12"/>
<text text-anchor="middle" x="80.5" y="-90" font-family="Helvetica,sans-Serif" font-size="10.00"> +name</text>
</g>
<!-- Node3 -->
<g id="node3" class="node">
<title>Node3</title>
<g id="a_node3"><a xlink:href="classvae_1_1core_1_1effect_1_1_effect_base.html" target="_top" xlink:title="Base for all effects.">
<polygon fill="none" stroke="black" points="68,-116.5 68,-250.5 181,-250.5 181,-116.5 68,-116.5"/>
<text text-anchor="start" x="76" y="-238.5" font-family="Helvetica,sans-Serif" font-size="10.00">vae::core::effect::</text>
<text text-anchor="middle" x="124.5" y="-227.5" font-family="Helvetica,sans-Serif" font-size="10.00">EffectBase</text>
<polyline fill="none" stroke="black" points="68,-220.5 181,-220.5 "/>
<text text-anchor="middle" x="124.5" y="-208.5" font-family="Helvetica,sans-Serif" font-size="10.00"> </text>
<polyline fill="none" stroke="black" points="68,-201.5 181,-201.5 "/>
<text text-anchor="start" x="76" y="-189.5" font-family="Helvetica,sans-Serif" font-size="10.00">+ init()</text>
<text text-anchor="start" x="76" y="-178.5" font-family="Helvetica,sans-Serif" font-size="10.00">+ getNumInputs()</text>
<text text-anchor="start" x="76" y="-167.5" font-family="Helvetica,sans-Serif" font-size="10.00">+ getNumOutputs()</text>
<text text-anchor="start" x="76" y="-156.5" font-family="Helvetica,sans-Serif" font-size="10.00">+ instanceClear()</text>
<text text-anchor="start" x="76" y="-145.5" font-family="Helvetica,sans-Serif" font-size="10.00">+ process()</text>
<text text-anchor="start" x="76" y="-134.5" font-family="Helvetica,sans-Serif" font-size="10.00">+ EffectBase()</text>
<text text-anchor="start" x="76" y="-123.5" font-family="Helvetica,sans-Serif" font-size="10.00">+ ~EffectBase()</text>
</a>
</g>
</g>
<!-- Node3&#45;&gt;Node1 -->
<g id="edge2" class="edge">
<title>Node3&#45;&gt;Node1</title>
<path fill="none" stroke="#404040" d="M111.33,-116.44C108.76,-106.47 105.81,-96.39 102.5,-87 101.66,-84.62 100.74,-82.21 99.77,-79.79"/>
<polygon fill="none" stroke="#404040" points="99.67,-79.56 93.61,-75.65 94.89,-68.55 100.95,-72.46 99.67,-79.56"/>
<text text-anchor="middle" x="136" y="-90" font-family="Helvetica,sans-Serif" font-size="10.00"> +construtor</text>
</g>
</g>
</svg>
