<?xml version="1.0" encoding="UTF-8" standalone="no"?>
<!DOCTYPE svg PUBLIC "-//W3C//DTD SVG 1.1//EN"
 "http://www.w3.org/Graphics/SVG/1.1/DTD/svg11.dtd">
<!-- Generated by graphviz version 2.50.0 (0)
 -->
<!-- Title: tklb::memory::tracer::MagicBlock::check Pages: 1 -->
<svg width="454pt" height="186pt"
 viewBox="0.00 0.00 454.00 186.00" xmlns="http://www.w3.org/2000/svg" xmlns:xlink="http://www.w3.org/1999/xlink">
<g id="graph0" class="graph" transform="scale(1 1) rotate(0) translate(4 182)">
<title>tklb::memory::tracer::MagicBlock::check</title>
<!-- Node1 -->
<g id="node1" class="node">
<title>Node1</title>
<g id="a_node1"><a xlink:title="checks if the allocation is still intact">
<polygon fill="#bfbfbf" stroke="black" points="329,-97.5 329,-127.5 446,-127.5 446,-97.5 329,-97.5"/>
<text text-anchor="start" x="337" y="-115.5" font-family="Helvetica,sans-Serif" font-size="10.00">tklb::memory::tracer</text>
<text text-anchor="middle" x="387.5" y="-104.5" font-family="Helvetica,sans-Serif" font-size="10.00">::MagicBlock::check</text>
</a>
</g>
</g>
<!-- Node2 -->
<g id="node2" class="node">
<title>Node2</title>
<g id="a_node2"><a xlink:href="namespacetklb_1_1memory_1_1tracer.html#a103725903bba6620a61be84ae3372b2f" target="_top" xlink:title="Checks the MagicBlocks for all allocations.">
<polygon fill="none" stroke="black" points="174,-122.5 174,-152.5 291,-152.5 291,-122.5 174,-122.5"/>
<text text-anchor="start" x="182" y="-140.5" font-family="Helvetica,sans-Serif" font-size="10.00">tklb::memory::tracer</text>
<text text-anchor="middle" x="232.5" y="-129.5" font-family="Helvetica,sans-Serif" font-size="10.00">::checkHeap</text>
</a>
</g>
</g>
<!-- Node1&#45;&gt;Node2 -->
<g id="edge1" class="edge">
<title>Node1&#45;&gt;Node2</title>
<path fill="none" stroke="midnightblue" d="M318.76,-123.57C309.55,-125.07 300.18,-126.61 291.17,-128.08"/>
<polygon fill="midnightblue" stroke="midnightblue" points="319.35,-127.02 328.66,-121.95 318.22,-120.11 319.35,-127.02"/>
</g>
<!-- Node3 -->
<g id="node3" class="node">
<title>Node3</title>
<g id="a_node3"><a xlink:href="structtklb_1_1memory_1_1tracer_1_1_magic_block.html#ac3781e28e0b7cf54161f1bb26e523ca5" target="_top" xlink:title=" ">
<polygon fill="none" stroke="black" points="172,-73.5 172,-103.5 293,-103.5 293,-73.5 172,-73.5"/>
<text text-anchor="start" x="180" y="-91.5" font-family="Helvetica,sans-Serif" font-size="10.00">tklb::memory::tracer</text>
<text text-anchor="middle" x="232.5" y="-80.5" font-family="Helvetica,sans-Serif" font-size="10.00">::MagicBlock::destroy</text>
</a>
</g>
</g>
<!-- Node1&#45;&gt;Node3 -->
<g id="edge2" class="edge">
<title>Node1&#45;&gt;Node3</title>
<path fill="none" stroke="midnightblue" d="M318.76,-101.87C310.24,-100.54 301.58,-99.18 293.21,-97.87"/>
<polygon fill="midnightblue" stroke="midnightblue" points="318.24,-105.33 328.66,-103.43 319.32,-98.42 318.24,-105.33"/>
</g>
<!-- Node4 -->
<g id="node4" class="node">
<title>Node4</title>
<g id="a_node4"><a xlink:href="namespacetklb_1_1memory_1_1tracer.html#a54835d6816dafea976dcf992d0fc4942" target="_top" xlink:title=" ">
<polygon fill="none" stroke="black" points="0,-147.5 0,-177.5 136,-177.5 136,-147.5 0,-147.5"/>
<text text-anchor="start" x="8" y="-165.5" font-family="Helvetica,sans-Serif" font-size="10.00">tklb::memory::tracer</text>
<text text-anchor="middle" x="68" y="-154.5" font-family="Helvetica,sans-Serif" font-size="10.00">::deallocateAlignedTrace</text>
</a>
</g>
</g>
<!-- Node3&#45;&gt;Node4 -->
<g id="edge3" class="edge">
<title>Node3&#45;&gt;Node4</title>
<path fill="none" stroke="midnightblue" d="M182.89,-107.92C179.16,-109.71 175.49,-111.58 172,-113.5 154.93,-122.88 153.32,-129.58 136,-138.5 129.74,-141.72 122.94,-144.7 116.16,-147.38"/>
<polygon fill="midnightblue" stroke="midnightblue" points="184.6,-110.99 192.22,-103.63 181.67,-104.63 184.6,-110.99"/>
</g>
<!-- Node5 -->
<g id="node5" class="node">
<title>Node5</title>
<g id="a_node5"><a xlink:href="namespacetklb_1_1memory_1_1tracer.html#a884c14429aacb4f724bf7419d5e4d918" target="_top" xlink:title=" ">
<polygon fill="none" stroke="black" points="9.5,-98.5 9.5,-128.5 126.5,-128.5 126.5,-98.5 9.5,-98.5"/>
<text text-anchor="start" x="17.5" y="-116.5" font-family="Helvetica,sans-Serif" font-size="10.00">tklb::memory::tracer</text>
<text text-anchor="middle" x="68" y="-105.5" font-family="Helvetica,sans-Serif" font-size="10.00">::deallocateTrace</text>
</a>
</g>
</g>
<!-- Node3&#45;&gt;Node5 -->
<g id="edge4" class="edge">
<title>Node3&#45;&gt;Node5</title>
<path fill="none" stroke="midnightblue" d="M161.74,-99.23C150.05,-101.03 138.03,-102.88 126.68,-104.63"/>
<polygon fill="midnightblue" stroke="midnightblue" points="162.56,-102.65 171.91,-97.67 161.5,-95.73 162.56,-102.65"/>
</g>
<!-- Node6 -->
<g id="node6" class="node">
<title>Node6</title>
<g id="a_node6"><a xlink:href="namespacetklb_1_1memory_1_1tracer.html#a016d7e747bbb5e805d3ec447a5a6501b" target="_top" xlink:title=" ">
<polygon fill="none" stroke="black" points="9.5,-49.5 9.5,-79.5 126.5,-79.5 126.5,-49.5 9.5,-49.5"/>
<text text-anchor="start" x="17.5" y="-67.5" font-family="Helvetica,sans-Serif" font-size="10.00">tklb::memory::tracer</text>
<text text-anchor="middle" x="68" y="-56.5" font-family="Helvetica,sans-Serif" font-size="10.00">::disposeTrace</text>
</a>
</g>
</g>
<!-- Node3&#45;&gt;Node6 -->
<g id="edge5" class="edge">
<title>Node3&#45;&gt;Node6</title>
<path fill="none" stroke="midnightblue" d="M161.74,-78.2C150.05,-76.47 138.03,-74.7 126.68,-73.02"/>
<polygon fill="midnightblue" stroke="midnightblue" points="161.51,-81.7 171.91,-79.7 162.53,-74.78 161.51,-81.7"/>
</g>
<!-- Node7 -->
<g id="node7" class="node">
<title>Node7</title>
<g id="a_node7"><a xlink:href="namespacetklb_1_1memory_1_1tracer.html#af5ca005d4fa0d89ede7f4c55e1d53c67" target="_top" xlink:title=" ">
<polygon fill="none" stroke="black" points="9.5,-0.5 9.5,-30.5 126.5,-30.5 126.5,-0.5 9.5,-0.5"/>
<text text-anchor="start" x="17.5" y="-18.5" font-family="Helvetica,sans-Serif" font-size="10.00">tklb::memory::tracer</text>
<text text-anchor="middle" x="68" y="-7.5" font-family="Helvetica,sans-Serif" font-size="10.00">::reallocateTrace</text>
</a>
</g>
</g>
<!-- Node3&#45;&gt;Node7 -->
<g id="edge6" class="edge">
<title>Node3&#45;&gt;Node7</title>
<path fill="none" stroke="midnightblue" d="M194.19,-68.56C176.72,-59.54 155.52,-49.02 136,-40.5 128.15,-37.07 119.66,-33.68 111.45,-30.55"/>
<polygon fill="midnightblue" stroke="midnightblue" points="192.98,-71.88 203.47,-73.4 196.22,-65.68 192.98,-71.88"/>
</g>
</g>
</svg>
