<?xml version="1.0" encoding="UTF-8" standalone="no"?>
<!DOCTYPE svg PUBLIC "-//W3C//DTD SVG 1.1//EN"
 "http://www.w3.org/Graphics/SVG/1.1/DTD/svg11.dtd">
<!-- Generated by graphviz version 2.50.0 (0)
 -->
<!-- Title: tklb::FileInfo::FileInfo Pages: 1 -->
<svg width="516pt" height="122pt"
 viewBox="0.00 0.00 516.00 122.00" xmlns="http://www.w3.org/2000/svg" xmlns:xlink="http://www.w3.org/1999/xlink">
<g id="graph0" class="graph" transform="scale(1 1) rotate(0) translate(4 118)">
<title>tklb::FileInfo::FileInfo</title>
<!-- Node1 -->
<g id="node1" class="node">
<title>Node1</title>
<g id="a_node1"><a xlink:title=" ">
<polygon fill="#bfbfbf" stroke="black" points="0,-38.5 0,-57.5 119,-57.5 119,-38.5 0,-38.5"/>
<text text-anchor="middle" x="59.5" y="-45.5" font-family="Helvetica,sans-Serif" font-size="10.00">tklb::FileInfo::FileInfo</text>
</a>
</g>
</g>
<!-- Node2 -->
<g id="node2" class="node">
<title>Node2</title>
<g id="a_node2"><a xlink:href="structtklb_1_1_file_info.html#a71415974d9be9cb329cf7e6cb61b5e92" target="_top" xlink:title=" ">
<polygon fill="none" stroke="black" points="165,-94.5 165,-113.5 297,-113.5 297,-94.5 165,-94.5"/>
<text text-anchor="middle" x="231" y="-101.5" font-family="Helvetica,sans-Serif" font-size="10.00">tklb::FileInfo::isRelative</text>
</a>
</g>
</g>
<!-- Node1&#45;&gt;Node2 -->
<g id="edge1" class="edge">
<title>Node1&#45;&gt;Node2</title>
<path fill="none" stroke="midnightblue" d="M82.75,-57.62C101.72,-65.61 129.84,-76.92 155,-85 162.55,-87.43 170.61,-89.74 178.55,-91.87"/>
<polygon fill="midnightblue" stroke="midnightblue" points="177.91,-95.33 188.47,-94.47 179.68,-88.55 177.91,-95.33"/>
</g>
<!-- Node3 -->
<g id="node3" class="node">
<title>Node3</title>
<g id="a_node3"><a xlink:href="structtklb_1_1_file_info.html#a143450b81b63766c16cae393fedc9787" target="_top" xlink:title=" ">
<polygon fill="none" stroke="black" points="155,-38.5 155,-57.5 307,-57.5 307,-38.5 155,-38.5"/>
<text text-anchor="middle" x="231" y="-45.5" font-family="Helvetica,sans-Serif" font-size="10.00">tklb::FileInfo::recursiveScan</text>
</a>
</g>
</g>
<!-- Node1&#45;&gt;Node3 -->
<g id="edge2" class="edge">
<title>Node1&#45;&gt;Node3</title>
<path fill="none" stroke="midnightblue" d="M119.31,-48C127.55,-48 136.16,-48 144.78,-48"/>
<polygon fill="midnightblue" stroke="midnightblue" points="144.88,-51.5 154.88,-48 144.88,-44.5 144.88,-51.5"/>
</g>
<!-- Node5 -->
<g id="node5" class="node">
<title>Node5</title>
<g id="a_node5"><a xlink:href="structtklb_1_1_file_info.html#a2fc7cfd735383f75e3bddd763c6d03a6" target="_top" xlink:title=" ">
<polygon fill="none" stroke="black" points="162.5,-0.5 162.5,-19.5 299.5,-19.5 299.5,-0.5 162.5,-0.5"/>
<text text-anchor="middle" x="231" y="-7.5" font-family="Helvetica,sans-Serif" font-size="10.00">tklb::FileInfo::toUnixPath</text>
</a>
</g>
</g>
<!-- Node1&#45;&gt;Node5 -->
<g id="edge5" class="edge">
<title>Node1&#45;&gt;Node5</title>
<path fill="none" stroke="midnightblue" d="M103.27,-38.41C125.84,-33.35 153.72,-27.1 177.58,-21.75"/>
<polygon fill="midnightblue" stroke="midnightblue" points="178.54,-25.12 187.54,-19.52 177.01,-18.29 178.54,-25.12"/>
</g>
<!-- Node3&#45;&gt;Node3 -->
<g id="edge4" class="edge">
<title>Node3&#45;&gt;Node3</title>
<path fill="none" stroke="midnightblue" d="M204.8,-57.76C192.05,-66.57 200.79,-76 231,-76 251.3,-76 261.9,-71.74 262.81,-66.27"/>
<polygon fill="midnightblue" stroke="midnightblue" points="265.63,-64.18 257.2,-57.76 259.78,-68.03 265.63,-64.18"/>
</g>
<!-- Node4 -->
<g id="node4" class="node">
<title>Node4</title>
<g id="a_node4"><a xlink:href="structtklb_1_1_file_info.html#a680b57f4768fd77eb55b96b6581c09cc" target="_top" xlink:title=" ">
<polygon fill="none" stroke="black" points="343,-38.5 343,-57.5 508,-57.5 508,-38.5 343,-38.5"/>
<text text-anchor="middle" x="425.5" y="-45.5" font-family="Helvetica,sans-Serif" font-size="10.00">tklb::FileInfo::appendDelimiter</text>
</a>
</g>
</g>
<!-- Node3&#45;&gt;Node4 -->
<g id="edge3" class="edge">
<title>Node3&#45;&gt;Node4</title>
<path fill="none" stroke="midnightblue" d="M307.25,-48C315.67,-48 324.3,-48 332.89,-48"/>
<polygon fill="midnightblue" stroke="midnightblue" points="332.94,-51.5 342.94,-48 332.94,-44.5 332.94,-51.5"/>
</g>
</g>
</svg>
