<?xml version="1.0" encoding="UTF-8" standalone="no"?>
<!DOCTYPE svg PUBLIC "-//W3C//DTD SVG 1.1//EN"
 "http://www.w3.org/Graphics/SVG/1.1/DTD/svg11.dtd">
<!-- Generated by graphviz version 2.50.0 (0)
 -->
<!-- Title: tklb::Delegate&lt; void(Parameters...)&gt; Pages: 1 -->
<!--zoomable 470 -->
<svg id="main" version="1.1" xmlns="http://www.w3.org/2000/svg" xmlns:xlink="http://www.w3.org/1999/xlink" xml:space="preserve" onload="init(evt)">
<style type="text/css"><![CDATA[
.edge:hover path { stroke: red; }
.edge:hover polygon { stroke: red; fill: red; }
]]></style>
<script type="text/javascript"><![CDATA[
var edges = document.getElementsByTagName('g');
if (edges && edges.length) {
  for (var i=0;i<edges.length;i++) {
    if (edges[i].id.substr(0,4)=='edge') {
      edges[i].setAttribute('class','edge');
    }
  }
}
]]></script>
        <defs>
                <circle id="rim" cx="0" cy="0" r="7"/>
                <circle id="rim2" cx="0" cy="0" r="3.5"/>
                <g id="zoomPlus">
                        <use xlink:href="#rim" fill="#404040">
                                <set attributeName="fill" to="#808080" begin="zoomplus.mouseover" end="zoomplus.mouseout"/>
                        </use>
                        <path d="M-4,0h8M0,-4v8" fill="none" stroke="white" stroke-width="1.5" pointer-events="none"/>
                </g>
                <g id="zoomMin">
                        <use xlink:href="#rim" fill="#404040">
                                <set attributeName="fill" to="#808080" begin="zoomminus.mouseover" end="zoomminus.mouseout"/>
                        </use>
                        <path d="M-4,0h8" fill="none" stroke="white" stroke-width="1.5" pointer-events="none"/>
                </g>
                <g id="dirArrow">
                        <path fill="none" stroke="white" stroke-width="1.5" d="M0,-3.0v7 M-2.5,-0.5L0,-3.0L2.5,-0.5"/>
                </g>
               <g id="resetDef">
                       <use xlink:href="#rim2" fill="#404040">
                               <set attributeName="fill" to="#808080" begin="reset.mouseover" end="reset.mouseout"/>
                       </use>
               </g>
        </defs>

<script type="text/javascript">
var viewWidth = 163;
var viewHeight = 470;
var sectionId = 'dynsection-1';
</script>
<script xlink:href="svgpan.js"/>
<svg id="graph" class="graph">
<g id="viewport">
<title>tklb::Delegate&lt; void(Parameters...)&gt;</title>
<!-- Node1 -->
<g id="node1" class="node">
<title>Node1</title>
<g id="a_node1"><a xlink:title=" ">
<polygon fill="#bfbfbf" stroke="black" points="5,-0.5 5,-79.5 123,-79.5 123,-0.5 5,-0.5"/>
<text text-anchor="start" x="13" y="-67.5" font-family="Helvetica,sans-Serif" font-size="10.00">tklb::Delegate&lt; void</text>
<text text-anchor="middle" x="64" y="-56.5" font-family="Helvetica,sans-Serif" font-size="10.00">(Parameters...)&gt;</text>
<polyline fill="none" stroke="black" points="5,-49.5 123,-49.5 "/>
<text text-anchor="middle" x="64" y="-37.5" font-family="Helvetica,sans-Serif" font-size="10.00"> </text>
<polyline fill="none" stroke="black" points="5,-30.5 123,-30.5 "/>
<text text-anchor="start" x="13" y="-18.5" font-family="Helvetica,sans-Serif" font-size="10.00">+ Delegate()</text>
<text text-anchor="start" x="13" y="-7.5" font-family="Helvetica,sans-Serif" font-size="10.00">+ Delegate()</text>
</a>
</g>
</g>
<!-- Node2 -->
<g id="node2" class="node">
<title>Node2</title>
<g id="a_node2"><a xlink:href="classtklb_1_1_base_delegate.html" target="_top" xlink:title=" ">
<polygon fill="none" stroke="black" points="9,-117.5 9,-218.5 119,-218.5 119,-117.5 9,-117.5"/>
<text text-anchor="start" x="17" y="-206.5" font-family="Helvetica,sans-Serif" font-size="10.00">tklb::BaseDelegate</text>
<text text-anchor="middle" x="64" y="-195.5" font-family="Helvetica,sans-Serif" font-size="10.00">&lt; Parameters... &gt;</text>
<polyline fill="none" stroke="black" points="9,-188.5 119,-188.5 "/>
<text text-anchor="start" x="17" y="-176.5" font-family="Helvetica,sans-Serif" font-size="10.00"># mContext</text>
<text text-anchor="start" x="17" y="-165.5" font-family="Helvetica,sans-Serif" font-size="10.00"># mCallback</text>
<polyline fill="none" stroke="black" points="9,-158.5 119,-158.5 "/>
<text text-anchor="start" x="17" y="-146.5" font-family="Helvetica,sans-Serif" font-size="10.00">+ BaseDelegate()</text>
<text text-anchor="start" x="17" y="-135.5" font-family="Helvetica,sans-Serif" font-size="10.00">+ operator()()</text>
<text text-anchor="start" x="17" y="-124.5" font-family="Helvetica,sans-Serif" font-size="10.00">+ valid()</text>
</a>
</g>
</g>
<!-- Node2&#45;&gt;Node1 -->
<g id="edge1" class="edge">
<title>Node2&#45;&gt;Node1</title>
<path fill="none" stroke="midnightblue" d="M64,-107.11C64,-97.74 64,-88.28 64,-79.56"/>
<polygon fill="none" stroke="midnightblue" points="60.5,-107.2 64,-117.2 67.5,-107.2 60.5,-107.2"/>
</g>
<!-- Node3 -->
<g id="node3" class="node">
<title>Node3</title>
<g id="a_node3"><a xlink:href="classtklb_1_1_base_delegate.html" target="_top" xlink:title="Stripped down version of this delegate implementation https://github.com/marcmo/delegates/tree/f0938d...">
<polygon fill="none" stroke="black" points="9,-266.5 9,-356.5 119,-356.5 119,-266.5 9,-266.5"/>
<text text-anchor="start" x="17" y="-344.5" font-family="Helvetica,sans-Serif" font-size="10.00">tklb::BaseDelegate</text>
<text text-anchor="middle" x="64" y="-333.5" font-family="Helvetica,sans-Serif" font-size="10.00">&lt; Parameters &gt;</text>
<polyline fill="none" stroke="black" points="9,-326.5 119,-326.5 "/>
<text text-anchor="middle" x="64" y="-314.5" font-family="Helvetica,sans-Serif" font-size="10.00"> </text>
<polyline fill="none" stroke="black" points="9,-307.5 119,-307.5 "/>
<text text-anchor="start" x="17" y="-295.5" font-family="Helvetica,sans-Serif" font-size="10.00">+ BaseDelegate()</text>
<text text-anchor="start" x="17" y="-284.5" font-family="Helvetica,sans-Serif" font-size="10.00">+ operator()()</text>
<text text-anchor="start" x="17" y="-273.5" font-family="Helvetica,sans-Serif" font-size="10.00">+ valid()</text>
</a>
</g>
</g>
<!-- Node3&#45;&gt;Node2 -->
<g id="edge2" class="edge">
<title>Node3&#45;&gt;Node2</title>
<path fill="none" stroke="orange" d="M64,-255.99C64,-243.7 64,-230.72 64,-218.64"/>
<polygon fill="orange" stroke="orange" points="60.5,-256.12 64,-266.12 67.5,-256.12 60.5,-256.12"/>
<text text-anchor="middle" x="109.5" y="-240" font-family="Helvetica,sans-Serif" font-size="10.00"> &lt; Parameters... &gt;</text>
</g>
<!-- Node4 -->
<g id="node4" class="node">
<title>Node4</title>
<g id="a_node4"><a xlink:title=" ">
<polygon fill="none" stroke="#bfbfbf" points="0,-404.5 0,-461.5 46,-461.5 46,-404.5 0,-404.5"/>
<text text-anchor="middle" x="23" y="-449.5" font-family="Helvetica,sans-Serif" font-size="10.00">void *</text>
<polyline fill="none" stroke="#bfbfbf" points="0,-442.5 46,-442.5 "/>
<text text-anchor="middle" x="23" y="-430.5" font-family="Helvetica,sans-Serif" font-size="10.00"> </text>
<polyline fill="none" stroke="#bfbfbf" points="0,-423.5 46,-423.5 "/>
<text text-anchor="middle" x="23" y="-411.5" font-family="Helvetica,sans-Serif" font-size="10.00"> </text>
</a>
</g>
</g>
<!-- Node4&#45;&gt;Node3 -->
<g id="edge3" class="edge">
<title>Node4&#45;&gt;Node3</title>
<path fill="none" stroke="#404040" d="M20.47,-404.27C20.39,-394.81 21.19,-384.28 24,-375 24.73,-372.59 25.58,-370.19 26.53,-367.8"/>
<polygon fill="none" stroke="#404040" points="26.57,-367.7 25.45,-360.57 31.6,-356.8 32.72,-363.92 26.57,-367.7"/>
<text text-anchor="middle" x="54" y="-378" font-family="Helvetica,sans-Serif" font-size="10.00"> #mContext</text>
</g>
<!-- Node5 -->
<g id="node5" class="node">
<title>Node5</title>
<g id="a_node5"><a xlink:title=" ">
<polygon fill="none" stroke="#bfbfbf" points="69.5,-404.5 69.5,-461.5 142.5,-461.5 142.5,-404.5 69.5,-404.5"/>
<text text-anchor="middle" x="106" y="-449.5" font-family="Helvetica,sans-Serif" font-size="10.00">Parameters</text>
<polyline fill="none" stroke="#bfbfbf" points="69.5,-442.5 142.5,-442.5 "/>
<text text-anchor="middle" x="106" y="-430.5" font-family="Helvetica,sans-Serif" font-size="10.00"> </text>
<polyline fill="none" stroke="#bfbfbf" points="69.5,-423.5 142.5,-423.5 "/>
<text text-anchor="middle" x="106" y="-411.5" font-family="Helvetica,sans-Serif" font-size="10.00"> </text>
</a>
</g>
</g>
<!-- Node5&#45;&gt;Node3 -->
<g id="edge4" class="edge">
<title>Node5&#45;&gt;Node3</title>
<path fill="none" stroke="#404040" d="M96.26,-404.28C92.47,-393.52 88,-380.78 83.6,-368.27"/>
<polygon fill="none" stroke="#404040" points="83.59,-368.23 77.83,-363.9 79.61,-356.91 85.37,-361.25 83.59,-368.23"/>
<text text-anchor="middle" x="120" y="-378" font-family="Helvetica,sans-Serif" font-size="10.00"> #mCallback</text>
</g>
</g>
</svg>
        <g id="navigator" transform="translate(0 0)" fill="#404254">
                <rect fill="#f2f5e9" fill-opacity="0.5" stroke="#606060" stroke-width=".5" x="0" y="0" width="60" height="60"/>
                <use id="zoomplus" xlink:href="#zoomPlus" x="17" y="9" onmousedown="handleZoom(evt,'in')"/>
                <use id="zoomminus" xlink:href="#zoomMin" x="42" y="9" onmousedown="handleZoom(evt,'out')"/>
                <use id="reset" xlink:href="#resetDef" x="30" y="36" onmousedown="handleReset()"/>
                <g id="arrowUp" xlink:href="#dirArrow" transform="translate(30 24)" onmousedown="handlePan(0,-1)">
                  <use xlink:href="#rim" fill="#404040">
                        <set attributeName="fill" to="#808080" begin="arrowUp.mouseover" end="arrowUp.mouseout"/>
                  </use>
                  <path fill="none" stroke="white" stroke-width="1.5" d="M0,-3.0v7 M-2.5,-0.5L0,-3.0L2.5,-0.5"/>
                </g>
                <g id="arrowRight" xlink:href="#dirArrow" transform="rotate(90) translate(36 -43)" onmousedown="handlePan(1,0)">
                  <use xlink:href="#rim" fill="#404040">
                        <set attributeName="fill" to="#808080" begin="arrowRight.mouseover" end="arrowRight.mouseout"/>
                  </use>
                  <path fill="none" stroke="white" stroke-width="1.5" d="M0,-3.0v7 M-2.5,-0.5L0,-3.0L2.5,-0.5"/>
                </g>
                <g id="arrowDown" xlink:href="#dirArrow" transform="rotate(180) translate(-30 -48)" onmousedown="handlePan(0,1)">
                  <use xlink:href="#rim" fill="#404040">
                        <set attributeName="fill" to="#808080" begin="arrowDown.mouseover" end="arrowDown.mouseout"/>
                  </use>
                  <path fill="none" stroke="white" stroke-width="1.5" d="M0,-3.0v7 M-2.5,-0.5L0,-3.0L2.5,-0.5"/>
                </g>
                <g id="arrowLeft" xlink:href="#dirArrow" transform="rotate(270) translate(-36 17)" onmousedown="handlePan(-1,0)">
                  <use xlink:href="#rim" fill="#404040">
                        <set attributeName="fill" to="#808080" begin="arrowLeft.mouseover" end="arrowLeft.mouseout"/>
                  </use>
                  <path fill="none" stroke="white" stroke-width="1.5" d="M0,-3.0v7 M-2.5,-0.5L0,-3.0L2.5,-0.5"/>
                </g>
        </g>
        <svg viewBox="0 0 15 15" width="100%" height="30px" preserveAspectRatio="xMaxYMin meet">
         <g id="arrow_out" transform="scale(0.3 0.3)">
          <a xlink:href="structtklb_1_1_delegate_3_01void_07_parameters_8_8_8_08_4__coll__graph_org.svg" target="_base">
           <rect id="button" ry="5" rx="5" y="6" x="6" height="38" width="38"
                fill="#f2f5e9" fill-opacity="0.5" stroke="#606060" stroke-width="1.0"/>
           <path id="arrow"
             d="M 11.500037,31.436501 C 11.940474,20.09759 22.043105,11.32322 32.158766,21.979434 L 37.068811,17.246167 C 37.068811,17.246167 37.088388,32 37.088388,32 L 22.160133,31.978069 C 22.160133,31.978069 26.997745,27.140456 26.997745,27.140456 C 18.528582,18.264221 13.291696,25.230495 11.500037,31.436501 z"
             style="fill:#404040;"/>
          </a>
         </g>
        </svg>
</svg>
