<?xml version="1.0" encoding="UTF-8" standalone="no"?>
<!DOCTYPE svg PUBLIC "-//W3C//DTD SVG 1.1//EN"
 "http://www.w3.org/Graphics/SVG/1.1/DTD/svg11.dtd">
<!-- Generated by graphviz version 2.50.0 (0)
 -->
<!-- Title: tklb::Delegate&lt; Parameters &gt; Pages: 1 -->
<svg width="184pt" height="182pt"
 viewBox="0.00 0.00 184.00 182.00" xmlns="http://www.w3.org/2000/svg" xmlns:xlink="http://www.w3.org/1999/xlink">
<g id="graph0" class="graph" transform="scale(1 1) rotate(0) translate(4 178)">
<title>tklb::Delegate&lt; Parameters &gt;</title>
<!-- Node1 -->
<g id="node1" class="node">
<title>Node1</title>
<g id="a_node1"><a xlink:title=" ">
<polygon fill="#bfbfbf" stroke="black" points="0,-116.5 0,-173.5 164,-173.5 164,-116.5 0,-116.5"/>
<text text-anchor="middle" x="82" y="-161.5" font-family="Helvetica,sans-Serif" font-size="10.00">tklb::Delegate&lt; Parameters &gt;</text>
<polyline fill="none" stroke="black" points="0,-154.5 164,-154.5 "/>
<text text-anchor="middle" x="82" y="-142.5" font-family="Helvetica,sans-Serif" font-size="10.00"> </text>
<polyline fill="none" stroke="black" points="0,-135.5 164,-135.5 "/>
<text text-anchor="middle" x="82" y="-123.5" font-family="Helvetica,sans-Serif" font-size="10.00"> </text>
</a>
</g>
</g>
<!-- Node2 -->
<g id="node2" class="node">
<title>Node2</title>
<g id="a_node2"><a xlink:href="structtklb_1_1_delegate.html" target="_top" xlink:title=" ">
<polygon fill="none" stroke="black" points="23,-0.5 23,-68.5 141,-68.5 141,-0.5 23,-0.5"/>
<text text-anchor="start" x="31" y="-56.5" font-family="Helvetica,sans-Serif" font-size="10.00">tklb::Delegate&lt; void</text>
<text text-anchor="middle" x="82" y="-45.5" font-family="Helvetica,sans-Serif" font-size="10.00">(Device *)&gt;</text>
<polyline fill="none" stroke="black" points="23,-38.5 141,-38.5 "/>
<text text-anchor="middle" x="82" y="-26.5" font-family="Helvetica,sans-Serif" font-size="10.00"> </text>
<polyline fill="none" stroke="black" points="23,-19.5 141,-19.5 "/>
<text text-anchor="middle" x="82" y="-7.5" font-family="Helvetica,sans-Serif" font-size="10.00"> </text>
</a>
</g>
</g>
<!-- Node1&#45;&gt;Node2 -->
<g id="edge1" class="edge">
<title>Node1&#45;&gt;Node2</title>
<path fill="none" stroke="orange" d="M82,-105.99C82,-93.77 82,-80.35 82,-68.52"/>
<polygon fill="orange" stroke="orange" points="78.5,-106.34 82,-116.34 85.5,-106.34 78.5,-106.34"/>
<text text-anchor="middle" x="129" y="-90" font-family="Helvetica,sans-Serif" font-size="10.00"> &lt; void(Device *)&gt;</text>
</g>
</g>
</svg>
