<?xml version="1.0" encoding="UTF-8" standalone="no"?>
<!DOCTYPE svg PUBLIC "-//W3C//DTD SVG 1.1//EN"
 "http://www.w3.org/Graphics/SVG/1.1/DTD/svg11.dtd">
<!-- Generated by graphviz version 2.50.0 (0)
 -->
<!-- Title: vae::DeviceInfo Pages: 1 -->
<svg width="173pt" height="204pt"
 viewBox="0.00 0.00 172.50 204.00" xmlns="http://www.w3.org/2000/svg" xmlns:xlink="http://www.w3.org/1999/xlink">
<g id="graph0" class="graph" transform="scale(1 1) rotate(0) translate(4 200)">
<title>vae::DeviceInfo</title>
<!-- Node1 -->
<g id="node1" class="node">
<title>Node1</title>
<g id="a_node1"><a xlink:title="Basic struct describing a audio device.">
<polygon fill="#bfbfbf" stroke="black" points="13,-0.5 13,-57.5 106,-57.5 106,-0.5 13,-0.5"/>
<text text-anchor="middle" x="59.5" y="-45.5" font-family="Helvetica,sans-Serif" font-size="10.00">vae::DeviceInfo</text>
<polyline fill="none" stroke="black" points="13,-38.5 106,-38.5 "/>
<text text-anchor="middle" x="59.5" y="-26.5" font-family="Helvetica,sans-Serif" font-size="10.00"> </text>
<polyline fill="none" stroke="black" points="13,-19.5 106,-19.5 "/>
<text text-anchor="middle" x="59.5" y="-7.5" font-family="Helvetica,sans-Serif" font-size="10.00"> </text>
</a>
</g>
</g>
<!-- Node2 -->
<g id="node2" class="node">
<title>Node2</title>
<g id="a_node2"><a xlink:title=" ">
<polygon fill="none" stroke="#bfbfbf" points="0,-138.5 0,-195.5 29,-195.5 29,-138.5 0,-138.5"/>
<text text-anchor="middle" x="14.5" y="-183.5" font-family="Helvetica,sans-Serif" font-size="10.00">int</text>
<polyline fill="none" stroke="#bfbfbf" points="0,-176.5 29,-176.5 "/>
<text text-anchor="middle" x="14.5" y="-164.5" font-family="Helvetica,sans-Serif" font-size="10.00"> </text>
<polyline fill="none" stroke="#bfbfbf" points="0,-157.5 29,-157.5 "/>
<text text-anchor="middle" x="14.5" y="-145.5" font-family="Helvetica,sans-Serif" font-size="10.00"> </text>
</a>
</g>
</g>
<!-- Node2&#45;&gt;Node1 -->
<g id="edge1" class="edge">
<title>Node2&#45;&gt;Node1</title>
<path fill="none" stroke="#404040" d="M9.66,-138.18C7.7,-119.85 7.48,-95.68 15.5,-76 16.73,-72.99 18.26,-70.06 20,-67.23"/>
<polygon fill="none" stroke="#404040" points="20.03,-67.2 20.33,-59.99 27.1,-57.5 26.79,-64.71 20.03,-67.2"/>
<text text-anchor="middle" x="49" y="-106.5" font-family="Helvetica,sans-Serif" font-size="10.00"> +bufferSize</text>
<text text-anchor="middle" x="49" y="-95.5" font-family="Helvetica,sans-Serif" font-size="10.00">+id</text>
<text text-anchor="middle" x="49" y="-84.5" font-family="Helvetica,sans-Serif" font-size="10.00">+sampleRate</text>
</g>
<!-- Node3 -->
<g id="node3" class="node">
<title>Node3</title>
<g id="a_node3"><a xlink:title=" ">
<polygon fill="none" stroke="#bfbfbf" points="85.5,-138.5 85.5,-195.5 123.5,-195.5 123.5,-138.5 85.5,-138.5"/>
<text text-anchor="middle" x="104.5" y="-183.5" font-family="Helvetica,sans-Serif" font-size="10.00">char</text>
<polyline fill="none" stroke="#bfbfbf" points="85.5,-176.5 123.5,-176.5 "/>
<text text-anchor="middle" x="104.5" y="-164.5" font-family="Helvetica,sans-Serif" font-size="10.00"> </text>
<polyline fill="none" stroke="#bfbfbf" points="85.5,-157.5 123.5,-157.5 "/>
<text text-anchor="middle" x="104.5" y="-145.5" font-family="Helvetica,sans-Serif" font-size="10.00"> </text>
</a>
</g>
</g>
<!-- Node3&#45;&gt;Node1 -->
<g id="edge2" class="edge">
<title>Node3&#45;&gt;Node1</title>
<path fill="none" stroke="#404040" d="M99.41,-138.35C95.69,-120.3 89.98,-96.39 82.5,-76 81.63,-73.64 80.68,-71.25 79.67,-68.85"/>
<polygon fill="none" stroke="#404040" points="79.6,-68.7 73.48,-64.9 74.63,-57.78 80.76,-61.58 79.6,-68.7"/>
<text text-anchor="middle" x="129.5" y="-112" font-family="Helvetica,sans-Serif" font-size="10.00"> +api</text>
<text text-anchor="middle" x="129.5" y="-101" font-family="Helvetica,sans-Serif" font-size="10.00">+channelsIn</text>
<text text-anchor="middle" x="129.5" y="-90" font-family="Helvetica,sans-Serif" font-size="10.00">+channelsOut</text>
<text text-anchor="middle" x="129.5" y="-79" font-family="Helvetica,sans-Serif" font-size="10.00">+name</text>
</g>
</g>
</svg>
