<?xml version="1.0" encoding="UTF-8" standalone="no"?>
<!DOCTYPE svg PUBLIC "-//W3C//DTD SVG 1.1//EN"
 "http://www.w3.org/Graphics/SVG/1.1/DTD/svg11.dtd">
<!-- Generated by graphviz version 2.50.0 (0)
 -->
<!-- Title: tklb::MallocInfo Pages: 1 -->
<svg width="218pt" height="182pt"
 viewBox="0.00 0.00 217.50 182.00" xmlns="http://www.w3.org/2000/svg" xmlns:xlink="http://www.w3.org/1999/xlink">
<g id="graph0" class="graph" transform="scale(1 1) rotate(0) translate(4 178)">
<title>tklb::MallocInfo</title>
<!-- Node1 -->
<g id="node1" class="node">
<title>Node1</title>
<g id="a_node1"><a xlink:title=" ">
<polygon fill="#bfbfbf" stroke="black" points="61.5,-0.5 61.5,-57.5 153.5,-57.5 153.5,-0.5 61.5,-0.5"/>
<text text-anchor="middle" x="107.5" y="-45.5" font-family="Helvetica,sans-Serif" font-size="10.00">tklb::MallocInfo</text>
<polyline fill="none" stroke="black" points="61.5,-38.5 153.5,-38.5 "/>
<text text-anchor="middle" x="107.5" y="-26.5" font-family="Helvetica,sans-Serif" font-size="10.00"> </text>
<polyline fill="none" stroke="black" points="61.5,-19.5 153.5,-19.5 "/>
<text text-anchor="middle" x="107.5" y="-7.5" font-family="Helvetica,sans-Serif" font-size="10.00"> </text>
</a>
</g>
</g>
<!-- Node2 -->
<g id="node2" class="node">
<title>Node2</title>
<g id="a_node2"><a xlink:title=" ">
<polygon fill="none" stroke="#bfbfbf" points="0,-116.5 0,-173.5 75,-173.5 75,-116.5 0,-116.5"/>
<text text-anchor="middle" x="37.5" y="-161.5" font-family="Helvetica,sans-Serif" font-size="10.00">const char *</text>
<polyline fill="none" stroke="#bfbfbf" points="0,-154.5 75,-154.5 "/>
<text text-anchor="middle" x="37.5" y="-142.5" font-family="Helvetica,sans-Serif" font-size="10.00"> </text>
<polyline fill="none" stroke="#bfbfbf" points="0,-135.5 75,-135.5 "/>
<text text-anchor="middle" x="37.5" y="-123.5" font-family="Helvetica,sans-Serif" font-size="10.00"> </text>
</a>
</g>
</g>
<!-- Node2&#45;&gt;Node1 -->
<g id="edge1" class="edge">
<title>Node2&#45;&gt;Node1</title>
<path fill="none" stroke="#404040" d="M52.24,-116.18C59.05,-103.73 67.4,-88.96 75.5,-76 77.12,-73.4 78.83,-70.75 80.58,-68.09"/>
<polygon fill="none" stroke="#404040" points="80.72,-67.88 80.76,-60.67 87.42,-57.93 87.39,-65.14 80.72,-67.88"/>
<text text-anchor="middle" x="89.5" y="-84.5" font-family="Helvetica,sans-Serif" font-size="10.00"> +file</text>
</g>
<!-- Node3 -->
<g id="node3" class="node">
<title>Node3</title>
<g id="a_node3"><a xlink:title=" ">
<polygon fill="none" stroke="#bfbfbf" points="93,-116.5 93,-173.5 122,-173.5 122,-116.5 93,-116.5"/>
<text text-anchor="middle" x="107.5" y="-161.5" font-family="Helvetica,sans-Serif" font-size="10.00">int</text>
<polyline fill="none" stroke="#bfbfbf" points="93,-154.5 122,-154.5 "/>
<text text-anchor="middle" x="107.5" y="-142.5" font-family="Helvetica,sans-Serif" font-size="10.00"> </text>
<polyline fill="none" stroke="#bfbfbf" points="93,-135.5 122,-135.5 "/>
<text text-anchor="middle" x="107.5" y="-123.5" font-family="Helvetica,sans-Serif" font-size="10.00"> </text>
</a>
</g>
</g>
<!-- Node3&#45;&gt;Node1 -->
<g id="edge2" class="edge">
<title>Node3&#45;&gt;Node1</title>
<path fill="none" stroke="#404040" d="M107.5,-116.4C107.5,-102.5 107.5,-85.39 107.5,-70.07"/>
<polygon fill="none" stroke="#404040" points="107.5,-69.74 103.5,-63.74 107.5,-57.74 111.5,-63.74 107.5,-69.74"/>
<text text-anchor="middle" x="122.5" y="-84.5" font-family="Helvetica,sans-Serif" font-size="10.00"> +line</text>
</g>
<!-- Node4 -->
<g id="node4" class="node">
<title>Node4</title>
<g id="a_node4"><a xlink:title=" ">
<polygon fill="none" stroke="#bfbfbf" points="140,-116.5 140,-173.5 185,-173.5 185,-116.5 140,-116.5"/>
<text text-anchor="middle" x="162.5" y="-161.5" font-family="Helvetica,sans-Serif" font-size="10.00">size_t</text>
<polyline fill="none" stroke="#bfbfbf" points="140,-154.5 185,-154.5 "/>
<text text-anchor="middle" x="162.5" y="-142.5" font-family="Helvetica,sans-Serif" font-size="10.00"> </text>
<polyline fill="none" stroke="#bfbfbf" points="140,-135.5 185,-135.5 "/>
<text text-anchor="middle" x="162.5" y="-123.5" font-family="Helvetica,sans-Serif" font-size="10.00"> </text>
</a>
</g>
</g>
<!-- Node4&#45;&gt;Node1 -->
<g id="edge3" class="edge">
<title>Node4&#45;&gt;Node1</title>
<path fill="none" stroke="#404040" d="M155.68,-116.43C152.02,-103.75 146.93,-88.74 140.5,-76 139.14,-73.31 137.64,-70.61 136.04,-67.94"/>
<polygon fill="none" stroke="#404040" points="136.03,-67.92 129.42,-65.05 129.54,-57.84 136.15,-60.71 136.03,-67.92"/>
<text text-anchor="middle" x="179.5" y="-90" font-family="Helvetica,sans-Serif" font-size="10.00"> +allocation</text>
<text text-anchor="middle" x="179.5" y="-79" font-family="Helvetica,sans-Serif" font-size="10.00">+size</text>
</g>
</g>
</svg>
