<?xml version="1.0" encoding="UTF-8" standalone="no"?>
<!DOCTYPE svg PUBLIC "-//W3C//DTD SVG 1.1//EN"
 "http://www.w3.org/Graphics/SVG/1.1/DTD/svg11.dtd">
<!-- Generated by graphviz version 2.50.0 (0)
 -->
<!-- Title: vae::core::Bank Pages: 1 -->
<!--zoomable 1422 -->
<svg id="main" version="1.1" xmlns="http://www.w3.org/2000/svg" xmlns:xlink="http://www.w3.org/1999/xlink" xml:space="preserve" onload="init(evt)">
<style type="text/css"><![CDATA[
.edge:hover path { stroke: red; }
.edge:hover polygon { stroke: red; fill: red; }
]]></style>
<script type="text/javascript"><![CDATA[
var edges = document.getElementsByTagName('g');
if (edges && edges.length) {
  for (var i=0;i<edges.length;i++) {
    if (edges[i].id.substr(0,4)=='edge') {
      edges[i].setAttribute('class','edge');
    }
  }
}
]]></script>
        <defs>
                <circle id="rim" cx="0" cy="0" r="7"/>
                <circle id="rim2" cx="0" cy="0" r="3.5"/>
                <g id="zoomPlus">
                        <use xlink:href="#rim" fill="#404040">
                                <set attributeName="fill" to="#808080" begin="zoomplus.mouseover" end="zoomplus.mouseout"/>
                        </use>
                        <path d="M-4,0h8M0,-4v8" fill="none" stroke="white" stroke-width="1.5" pointer-events="none"/>
                </g>
                <g id="zoomMin">
                        <use xlink:href="#rim" fill="#404040">
                                <set attributeName="fill" to="#808080" begin="zoomminus.mouseover" end="zoomminus.mouseout"/>
                        </use>
                        <path d="M-4,0h8" fill="none" stroke="white" stroke-width="1.5" pointer-events="none"/>
                </g>
                <g id="dirArrow">
                        <path fill="none" stroke="white" stroke-width="1.5" d="M0,-3.0v7 M-2.5,-0.5L0,-3.0L2.5,-0.5"/>
                </g>
               <g id="resetDef">
                       <use xlink:href="#rim2" fill="#404040">
                               <set attributeName="fill" to="#808080" begin="reset.mouseover" end="reset.mouseout"/>
                       </use>
               </g>
        </defs>

<script type="text/javascript">
var viewWidth = 581;
var viewHeight = 1422;
var sectionId = 'dynsection-0';
</script>
<script xlink:href="svgpan.js"/>
<svg id="graph" class="graph">
<g id="viewport">
<title>vae::core::Bank</title>
<!-- Node1 -->
<g id="node1" class="node">
<title>Node1</title>
<g id="a_node1"><a xlink:title="Bank object containing Sources, Mixers and Events Can be loaded and unloaded at runtime.">
<polygon fill="#bfbfbf" stroke="black" points="137,-0.5 137,-57.5 229,-57.5 229,-0.5 137,-0.5"/>
<text text-anchor="middle" x="183" y="-45.5" font-family="Helvetica,sans-Serif" font-size="10.00">vae::core::Bank</text>
<polyline fill="none" stroke="black" points="137,-38.5 229,-38.5 "/>
<text text-anchor="middle" x="183" y="-26.5" font-family="Helvetica,sans-Serif" font-size="10.00"> </text>
<polyline fill="none" stroke="black" points="137,-19.5 229,-19.5 "/>
<text text-anchor="middle" x="183" y="-7.5" font-family="Helvetica,sans-Serif" font-size="10.00"> </text>
</a>
</g>
</g>
<!-- Node2 -->
<g id="node2" class="node">
<title>Node2</title>
<g id="a_node2"><a xlink:title=" ">
<polygon fill="none" stroke="#bfbfbf" points="0,-188 0,-245 80,-245 80,-188 0,-188"/>
<text text-anchor="middle" x="40" y="-233" font-family="Helvetica,sans-Serif" font-size="10.00">HeapBuffer&lt;</text>
<polyline fill="none" stroke="#bfbfbf" points="0,-226 80,-226 "/>
<text text-anchor="middle" x="40" y="-214" font-family="Helvetica,sans-Serif" font-size="10.00"> </text>
<polyline fill="none" stroke="#bfbfbf" points="0,-207 80,-207 "/>
<text text-anchor="middle" x="40" y="-195" font-family="Helvetica,sans-Serif" font-size="10.00"> </text>
</a>
</g>
</g>
<!-- Node2&#45;&gt;Node1 -->
<g id="edge1" class="edge">
<title>Node2&#45;&gt;Node1</title>
<path fill="none" stroke="#404040" d="M50.43,-187.96C62.76,-157.97 85.52,-109.79 116,-76 119.4,-72.23 123.17,-68.61 127.14,-65.17"/>
<polygon fill="none" stroke="#404040" points="127.33,-65.02 129.49,-58.14 136.68,-57.5 134.51,-64.38 127.33,-65.02"/>
<text text-anchor="middle" x="139" y="-101" font-family="Helvetica,sans-Serif" font-size="10.00"> +events</text>
<text text-anchor="middle" x="139" y="-90" font-family="Helvetica,sans-Serif" font-size="10.00">+mixers</text>
<text text-anchor="middle" x="139" y="-79" font-family="Helvetica,sans-Serif" font-size="10.00">+sources</text>
</g>
<!-- Node3 -->
<g id="node3" class="node">
<title>Node3</title>
<g id="a_node3"><a xlink:title=" ">
<polygon fill="none" stroke="#bfbfbf" points="98.5,-188 98.5,-245 183.5,-245 183.5,-188 98.5,-188"/>
<text text-anchor="middle" x="141" y="-233" font-family="Helvetica,sans-Serif" font-size="10.00">unsigned char</text>
<polyline fill="none" stroke="#bfbfbf" points="98.5,-226 183.5,-226 "/>
<text text-anchor="middle" x="141" y="-214" font-family="Helvetica,sans-Serif" font-size="10.00"> </text>
<polyline fill="none" stroke="#bfbfbf" points="98.5,-207 183.5,-207 "/>
<text text-anchor="middle" x="141" y="-195" font-family="Helvetica,sans-Serif" font-size="10.00"> </text>
</a>
</g>
</g>
<!-- Node3&#45;&gt;Node1 -->
<g id="edge2" class="edge">
<title>Node3&#45;&gt;Node1</title>
<path fill="none" stroke="#404040" d="M147.29,-187.73C154.39,-156.36 166.01,-105.05 174.05,-69.51"/>
<polygon fill="none" stroke="#404040" points="174.09,-69.36 171.51,-62.63 176.74,-57.66 179.31,-64.39 174.09,-69.36"/>
<text text-anchor="middle" x="182.5" y="-90" font-family="Helvetica,sans-Serif" font-size="10.00"> +id</text>
</g>
<!-- Node4 -->
<g id="node4" class="node">
<title>Node4</title>
<g id="a_node4"><a xlink:href="classtklb_1_1_stack_string.html" target="_top" xlink:title=" ">
<polygon fill="none" stroke="black" points="201.5,-133 201.5,-300 332.5,-300 332.5,-133 201.5,-133"/>
<text text-anchor="middle" x="267" y="-288" font-family="Helvetica,sans-Serif" font-size="10.00">tklb::StackString&lt; 16 &gt;</text>
<polyline fill="none" stroke="black" points="201.5,-281 332.5,-281 "/>
<text text-anchor="start" x="209.5" y="-269" font-family="Helvetica,sans-Serif" font-size="10.00">&#45; mData</text>
<polyline fill="none" stroke="black" points="201.5,-262 332.5,-262 "/>
<text text-anchor="start" x="209.5" y="-250" font-family="Helvetica,sans-Serif" font-size="10.00">+ StackString()</text>
<text text-anchor="start" x="209.5" y="-239" font-family="Helvetica,sans-Serif" font-size="10.00">+ StackString()</text>
<text text-anchor="start" x="209.5" y="-228" font-family="Helvetica,sans-Serif" font-size="10.00">+ operator=()</text>
<text text-anchor="start" x="209.5" y="-217" font-family="Helvetica,sans-Serif" font-size="10.00">+ c_str()</text>
<text text-anchor="start" x="209.5" y="-206" font-family="Helvetica,sans-Serif" font-size="10.00">+ operator[]()</text>
<text text-anchor="start" x="209.5" y="-195" font-family="Helvetica,sans-Serif" font-size="10.00">+ operator[]()</text>
<text text-anchor="start" x="209.5" y="-184" font-family="Helvetica,sans-Serif" font-size="10.00">+ operator==()</text>
<text text-anchor="start" x="209.5" y="-173" font-family="Helvetica,sans-Serif" font-size="10.00">+ operator==()</text>
<text text-anchor="start" x="209.5" y="-162" font-family="Helvetica,sans-Serif" font-size="10.00">+ empty()</text>
<text text-anchor="start" x="209.5" y="-151" font-family="Helvetica,sans-Serif" font-size="10.00">+ size()</text>
<text text-anchor="start" x="209.5" y="-140" font-family="Helvetica,sans-Serif" font-size="10.00">+ set()</text>
</a>
</g>
</g>
<!-- Node4&#45;&gt;Node1 -->
<g id="edge3" class="edge">
<title>Node4&#45;&gt;Node1</title>
<path fill="none" stroke="#404040" d="M229.54,-132.79C219.4,-110.38 208.9,-87.19 200.44,-68.52"/>
<polygon fill="none" stroke="#404040" points="200.41,-68.46 194.29,-64.64 195.46,-57.52 201.58,-61.34 200.41,-68.46"/>
<text text-anchor="middle" x="238" y="-90" font-family="Helvetica,sans-Serif" font-size="10.00"> +name</text>
</g>
<!-- Node5 -->
<g id="node5" class="node">
<title>Node5</title>
<g id="a_node5"><a xlink:href="classtklb_1_1_stack_string.html" target="_top" xlink:title="Super simple class to hold and compare strings on the stack.">
<polygon fill="none" stroke="black" points="203.5,-353.5 203.5,-520.5 330.5,-520.5 330.5,-353.5 203.5,-353.5"/>
<text text-anchor="middle" x="267" y="-508.5" font-family="Helvetica,sans-Serif" font-size="10.00">tklb::StackString&lt; N &gt;</text>
<polyline fill="none" stroke="black" points="203.5,-501.5 330.5,-501.5 "/>
<text text-anchor="middle" x="267" y="-489.5" font-family="Helvetica,sans-Serif" font-size="10.00"> </text>
<polyline fill="none" stroke="black" points="203.5,-482.5 330.5,-482.5 "/>
<text text-anchor="start" x="211.5" y="-470.5" font-family="Helvetica,sans-Serif" font-size="10.00">+ StackString()</text>
<text text-anchor="start" x="211.5" y="-459.5" font-family="Helvetica,sans-Serif" font-size="10.00">+ StackString()</text>
<text text-anchor="start" x="211.5" y="-448.5" font-family="Helvetica,sans-Serif" font-size="10.00">+ operator=()</text>
<text text-anchor="start" x="211.5" y="-437.5" font-family="Helvetica,sans-Serif" font-size="10.00">+ c_str()</text>
<text text-anchor="start" x="211.5" y="-426.5" font-family="Helvetica,sans-Serif" font-size="10.00">+ operator[]()</text>
<text text-anchor="start" x="211.5" y="-415.5" font-family="Helvetica,sans-Serif" font-size="10.00">+ operator[]()</text>
<text text-anchor="start" x="211.5" y="-404.5" font-family="Helvetica,sans-Serif" font-size="10.00">+ operator==()</text>
<text text-anchor="start" x="211.5" y="-393.5" font-family="Helvetica,sans-Serif" font-size="10.00">+ operator==()</text>
<text text-anchor="start" x="211.5" y="-382.5" font-family="Helvetica,sans-Serif" font-size="10.00">+ empty()</text>
<text text-anchor="start" x="211.5" y="-371.5" font-family="Helvetica,sans-Serif" font-size="10.00">+ size()</text>
<text text-anchor="start" x="211.5" y="-360.5" font-family="Helvetica,sans-Serif" font-size="10.00">+ set()</text>
</a>
</g>
</g>
<!-- Node5&#45;&gt;Node4 -->
<g id="edge4" class="edge">
<title>Node5&#45;&gt;Node4</title>
<path fill="none" stroke="orange" d="M267,-343.1C267,-328.86 267,-314.23 267,-300.22"/>
<polygon fill="orange" stroke="orange" points="263.5,-343.39 267,-353.39 270.5,-343.39 263.5,-343.39"/>
<text text-anchor="middle" x="286" y="-327" font-family="Helvetica,sans-Serif" font-size="10.00"> &lt; 16 &gt;</text>
</g>
<!-- Node6 -->
<g id="node6" class="node">
<title>Node6</title>
<g id="a_node6"><a xlink:title=" ">
<polygon fill="none" stroke="#bfbfbf" points="248,-667.5 248,-724.5 286,-724.5 286,-667.5 248,-667.5"/>
<text text-anchor="middle" x="267" y="-712.5" font-family="Helvetica,sans-Serif" font-size="10.00">char</text>
<polyline fill="none" stroke="#bfbfbf" points="248,-705.5 286,-705.5 "/>
<text text-anchor="middle" x="267" y="-693.5" font-family="Helvetica,sans-Serif" font-size="10.00"> </text>
<polyline fill="none" stroke="#bfbfbf" points="248,-686.5 286,-686.5 "/>
<text text-anchor="middle" x="267" y="-674.5" font-family="Helvetica,sans-Serif" font-size="10.00"> </text>
</a>
</g>
</g>
<!-- Node6&#45;&gt;Node5 -->
<g id="edge5" class="edge">
<title>Node6&#45;&gt;Node5</title>
<path fill="none" stroke="#404040" d="M267,-667.5C267,-635.44 267,-580.75 267,-532.79"/>
<polygon fill="none" stroke="#404040" points="267,-532.76 263,-526.76 267,-520.76 271,-526.76 267,-532.76"/>
<text text-anchor="middle" x="287" y="-542" font-family="Helvetica,sans-Serif" font-size="10.00"> &#45;mData</text>
</g>
<!-- Node7 -->
<g id="node7" class="node">
<title>Node7</title>
<g id="a_node7"><a xlink:href="classtklb_1_1_string.html" target="_top" xlink:title=" ">
<polygon fill="none" stroke="black" points="350.5,-127.5 350.5,-305.5 487.5,-305.5 487.5,-127.5 350.5,-127.5"/>
<text text-anchor="start" x="358.5" y="-293.5" font-family="Helvetica,sans-Serif" font-size="10.00">tklb::String&lt; HeapBuffer</text>
<text text-anchor="middle" x="419" y="-282.5" font-family="Helvetica,sans-Serif" font-size="10.00">&lt; char &gt; &gt;</text>
<polyline fill="none" stroke="black" points="350.5,-275.5 487.5,-275.5 "/>
<text text-anchor="start" x="358.5" y="-263.5" font-family="Helvetica,sans-Serif" font-size="10.00">&#45; mData</text>
<polyline fill="none" stroke="black" points="350.5,-256.5 487.5,-256.5 "/>
<text text-anchor="start" x="358.5" y="-244.5" font-family="Helvetica,sans-Serif" font-size="10.00">+ String()</text>
<text text-anchor="start" x="358.5" y="-233.5" font-family="Helvetica,sans-Serif" font-size="10.00">+ String()</text>
<text text-anchor="start" x="358.5" y="-222.5" font-family="Helvetica,sans-Serif" font-size="10.00">+ String()</text>
<text text-anchor="start" x="358.5" y="-211.5" font-family="Helvetica,sans-Serif" font-size="10.00">+ String()</text>
<text text-anchor="start" x="358.5" y="-200.5" font-family="Helvetica,sans-Serif" font-size="10.00">+ operator=()</text>
<text text-anchor="start" x="358.5" y="-189.5" font-family="Helvetica,sans-Serif" font-size="10.00">+ operator=()</text>
<text text-anchor="start" x="358.5" y="-178.5" font-family="Helvetica,sans-Serif" font-size="10.00">+ c_str()</text>
<text text-anchor="start" x="358.5" y="-167.5" font-family="Helvetica,sans-Serif" font-size="10.00">+ operator[]()</text>
<text text-anchor="start" x="358.5" y="-156.5" font-family="Helvetica,sans-Serif" font-size="10.00">+ operator[]()</text>
<text text-anchor="start" x="358.5" y="-145.5" font-family="Helvetica,sans-Serif" font-size="10.00">+ size()</text>
<text text-anchor="start" x="358.5" y="-134.5" font-family="Helvetica,sans-Serif" font-size="10.00">and 10 more...</text>
</a>
</g>
</g>
<!-- Node7&#45;&gt;Node1 -->
<g id="edge6" class="edge">
<title>Node7&#45;&gt;Node1</title>
<path fill="none" stroke="#404040" d="M350.27,-135.35C347.2,-132.47 344.1,-129.67 341,-127 309.33,-99.73 297.62,-97.85 262,-76 254.83,-71.6 247.24,-67.05 239.71,-62.6"/>
<polygon fill="none" stroke="#404040" points="239.51,-62.48 232.31,-62.89 229.16,-56.4 236.36,-55.99 239.51,-62.48"/>
<text text-anchor="middle" x="334" y="-90" font-family="Helvetica,sans-Serif" font-size="10.00"> +path</text>
</g>
<!-- Node8 -->
<g id="node8" class="node">
<title>Node8</title>
<g id="a_node8"><a xlink:href="classtklb_1_1_string.html" target="_top" xlink:title=" ">
<polygon fill="none" stroke="black" points="349.5,-353.5 349.5,-520.5 488.5,-520.5 488.5,-353.5 349.5,-353.5"/>
<text text-anchor="middle" x="419" y="-508.5" font-family="Helvetica,sans-Serif" font-size="10.00">tklb::String&lt; STORAGE &gt;</text>
<polyline fill="none" stroke="black" points="349.5,-501.5 488.5,-501.5 "/>
<text text-anchor="middle" x="419" y="-489.5" font-family="Helvetica,sans-Serif" font-size="10.00"> </text>
<polyline fill="none" stroke="black" points="349.5,-482.5 488.5,-482.5 "/>
<text text-anchor="start" x="357.5" y="-470.5" font-family="Helvetica,sans-Serif" font-size="10.00">+ String()</text>
<text text-anchor="start" x="357.5" y="-459.5" font-family="Helvetica,sans-Serif" font-size="10.00">+ String()</text>
<text text-anchor="start" x="357.5" y="-448.5" font-family="Helvetica,sans-Serif" font-size="10.00">+ String()</text>
<text text-anchor="start" x="357.5" y="-437.5" font-family="Helvetica,sans-Serif" font-size="10.00">+ String()</text>
<text text-anchor="start" x="357.5" y="-426.5" font-family="Helvetica,sans-Serif" font-size="10.00">+ operator=()</text>
<text text-anchor="start" x="357.5" y="-415.5" font-family="Helvetica,sans-Serif" font-size="10.00">+ operator=()</text>
<text text-anchor="start" x="357.5" y="-404.5" font-family="Helvetica,sans-Serif" font-size="10.00">+ c_str()</text>
<text text-anchor="start" x="357.5" y="-393.5" font-family="Helvetica,sans-Serif" font-size="10.00">+ operator[]()</text>
<text text-anchor="start" x="357.5" y="-382.5" font-family="Helvetica,sans-Serif" font-size="10.00">+ operator[]()</text>
<text text-anchor="start" x="357.5" y="-371.5" font-family="Helvetica,sans-Serif" font-size="10.00">+ size()</text>
<text text-anchor="start" x="357.5" y="-360.5" font-family="Helvetica,sans-Serif" font-size="10.00">and 10 more...</text>
</a>
</g>
</g>
<!-- Node8&#45;&gt;Node7 -->
<g id="edge7" class="edge">
<title>Node8&#45;&gt;Node7</title>
<path fill="none" stroke="orange" d="M419,-343.07C419,-330.68 419,-318 419,-305.69"/>
<polygon fill="orange" stroke="orange" points="415.5,-343.39 419,-353.39 422.5,-343.39 415.5,-343.39"/>
<text text-anchor="middle" x="481.5" y="-327" font-family="Helvetica,sans-Serif" font-size="10.00"> &lt; HeapBuffer&lt; char &gt; &gt;</text>
</g>
<!-- Node9 -->
<g id="node9" class="node">
<title>Node9</title>
<g id="a_node9"><a xlink:href="classtklb_1_1_heap_buffer.html" target="_top" xlink:title=" ">
<polygon fill="none" stroke="black" points="349,-568.5 349,-823.5 489,-823.5 489,-568.5 349,-568.5"/>
<text text-anchor="middle" x="419" y="-811.5" font-family="Helvetica,sans-Serif" font-size="10.00">tklb::HeapBuffer&lt; char &gt;</text>
<polyline fill="none" stroke="black" points="349,-804.5 489,-804.5 "/>
<text text-anchor="start" x="357" y="-792.5" font-family="Helvetica,sans-Serif" font-size="10.00">+ Alignment</text>
<text text-anchor="start" x="357" y="-781.5" font-family="Helvetica,sans-Serif" font-size="10.00">+ ChunkSize</text>
<text text-anchor="start" x="357" y="-770.5" font-family="Helvetica,sans-Serif" font-size="10.00">&#45; mAllocator</text>
<text text-anchor="start" x="357" y="-759.5" font-family="Helvetica,sans-Serif" font-size="10.00">&#45; mBuf</text>
<text text-anchor="start" x="357" y="-748.5" font-family="Helvetica,sans-Serif" font-size="10.00">&#45; mSize</text>
<text text-anchor="start" x="357" y="-737.5" font-family="Helvetica,sans-Serif" font-size="10.00">&#45; mRealSize</text>
<polyline fill="none" stroke="black" points="349,-730.5 489,-730.5 "/>
<text text-anchor="start" x="357" y="-718.5" font-family="Helvetica,sans-Serif" font-size="10.00">+ HeapBuffer()</text>
<text text-anchor="start" x="357" y="-707.5" font-family="Helvetica,sans-Serif" font-size="10.00">+ HeapBuffer()</text>
<text text-anchor="start" x="357" y="-696.5" font-family="Helvetica,sans-Serif" font-size="10.00">+ HeapBuffer()</text>
<text text-anchor="start" x="357" y="-685.5" font-family="Helvetica,sans-Serif" font-size="10.00">+ HeapBuffer()</text>
<text text-anchor="start" x="357" y="-674.5" font-family="Helvetica,sans-Serif" font-size="10.00">+ HeapBuffer()</text>
<text text-anchor="start" x="357" y="-663.5" font-family="Helvetica,sans-Serif" font-size="10.00">+ HeapBuffer()</text>
<text text-anchor="start" x="357" y="-652.5" font-family="Helvetica,sans-Serif" font-size="10.00">+ operator=()</text>
<text text-anchor="start" x="357" y="-641.5" font-family="Helvetica,sans-Serif" font-size="10.00">+ operator=()</text>
<text text-anchor="start" x="357" y="-630.5" font-family="Helvetica,sans-Serif" font-size="10.00">+ ~HeapBuffer()</text>
<text text-anchor="start" x="357" y="-619.5" font-family="Helvetica,sans-Serif" font-size="10.00">+ set()</text>
<text text-anchor="start" x="357" y="-608.5" font-family="Helvetica,sans-Serif" font-size="10.00">and 28 more...</text>
<text text-anchor="start" x="357" y="-597.5" font-family="Helvetica,sans-Serif" font-size="10.00">+ closestChunkSize()</text>
<text text-anchor="start" x="357" y="-586.5" font-family="Helvetica,sans-Serif" font-size="10.00">+ isAligned()</text>
<text text-anchor="start" x="357" y="-575.5" font-family="Helvetica,sans-Serif" font-size="10.00">&#45; allocate()</text>
</a>
</g>
</g>
<!-- Node9&#45;&gt;Node8 -->
<g id="edge8" class="edge">
<title>Node9&#45;&gt;Node8</title>
<path fill="none" stroke="#404040" d="M419,-568.38C419,-556.47 419,-544.54 419,-533"/>
<polygon fill="none" stroke="#404040" points="419,-532.64 415,-526.64 419,-520.64 423,-526.64 419,-532.64"/>
<text text-anchor="middle" x="439" y="-542" font-family="Helvetica,sans-Serif" font-size="10.00"> &#45;mData</text>
</g>
<!-- Node10 -->
<g id="node10" class="node">
<title>Node10</title>
<g id="a_node10"><a xlink:href="classtklb_1_1_heap_buffer.html" target="_top" xlink:title="Basically a bad std::vector without exceptions which can also work with foreign memory.">
<polygon fill="none" stroke="black" points="347.5,-871.5 347.5,-1093.5 490.5,-1093.5 490.5,-871.5 347.5,-871.5"/>
<text text-anchor="start" x="355.5" y="-1081.5" font-family="Helvetica,sans-Serif" font-size="10.00">tklb::HeapBuffer&lt; T,</text>
<text text-anchor="start" x="355.5" y="-1070.5" font-family="Helvetica,sans-Serif" font-size="10.00"> ALIGNMENT, ALLOCATOR,</text>
<text text-anchor="middle" x="419" y="-1059.5" font-family="Helvetica,sans-Serif" font-size="10.00"> SIZE &gt;</text>
<polyline fill="none" stroke="black" points="347.5,-1052.5 490.5,-1052.5 "/>
<text text-anchor="middle" x="419" y="-1040.5" font-family="Helvetica,sans-Serif" font-size="10.00"> </text>
<polyline fill="none" stroke="black" points="347.5,-1033.5 490.5,-1033.5 "/>
<text text-anchor="start" x="355.5" y="-1021.5" font-family="Helvetica,sans-Serif" font-size="10.00">+ HeapBuffer()</text>
<text text-anchor="start" x="355.5" y="-1010.5" font-family="Helvetica,sans-Serif" font-size="10.00">+ HeapBuffer()</text>
<text text-anchor="start" x="355.5" y="-999.5" font-family="Helvetica,sans-Serif" font-size="10.00">+ HeapBuffer()</text>
<text text-anchor="start" x="355.5" y="-988.5" font-family="Helvetica,sans-Serif" font-size="10.00">+ HeapBuffer()</text>
<text text-anchor="start" x="355.5" y="-977.5" font-family="Helvetica,sans-Serif" font-size="10.00">+ HeapBuffer()</text>
<text text-anchor="start" x="355.5" y="-966.5" font-family="Helvetica,sans-Serif" font-size="10.00">+ operator=()</text>
<text text-anchor="start" x="355.5" y="-955.5" font-family="Helvetica,sans-Serif" font-size="10.00">+ operator=()</text>
<text text-anchor="start" x="355.5" y="-944.5" font-family="Helvetica,sans-Serif" font-size="10.00">+ HeapBuffer()</text>
<text text-anchor="start" x="355.5" y="-933.5" font-family="Helvetica,sans-Serif" font-size="10.00">+ ~HeapBuffer()</text>
<text text-anchor="start" x="355.5" y="-922.5" font-family="Helvetica,sans-Serif" font-size="10.00">+ set()</text>
<text text-anchor="start" x="355.5" y="-911.5" font-family="Helvetica,sans-Serif" font-size="10.00">and 28 more...</text>
<text text-anchor="start" x="355.5" y="-900.5" font-family="Helvetica,sans-Serif" font-size="10.00">+ closestChunkSize()</text>
<text text-anchor="start" x="355.5" y="-889.5" font-family="Helvetica,sans-Serif" font-size="10.00">+ isAligned()</text>
<text text-anchor="start" x="355.5" y="-878.5" font-family="Helvetica,sans-Serif" font-size="10.00">&#45; allocate()</text>
</a>
</g>
</g>
<!-- Node10&#45;&gt;Node9 -->
<g id="edge9" class="edge">
<title>Node10&#45;&gt;Node9</title>
<path fill="none" stroke="orange" d="M419,-860.88C419,-848.65 419,-836.2 419,-823.9"/>
<polygon fill="orange" stroke="orange" points="415.5,-861.1 419,-871.1 422.5,-861.1 415.5,-861.1"/>
<text text-anchor="middle" x="442.5" y="-845" font-family="Helvetica,sans-Serif" font-size="10.00"> &lt; char &gt;</text>
</g>
<!-- Node11 -->
<g id="node11" class="node">
<title>Node11</title>
<g id="a_node11"><a xlink:title=" ">
<polygon fill="none" stroke="#bfbfbf" points="258.5,-1180 258.5,-1237 303.5,-1237 303.5,-1180 258.5,-1180"/>
<text text-anchor="middle" x="281" y="-1225" font-family="Helvetica,sans-Serif" font-size="10.00">size_t</text>
<polyline fill="none" stroke="#bfbfbf" points="258.5,-1218 303.5,-1218 "/>
<text text-anchor="middle" x="281" y="-1206" font-family="Helvetica,sans-Serif" font-size="10.00"> </text>
<polyline fill="none" stroke="#bfbfbf" points="258.5,-1199 303.5,-1199 "/>
<text text-anchor="middle" x="281" y="-1187" font-family="Helvetica,sans-Serif" font-size="10.00"> </text>
</a>
</g>
</g>
<!-- Node11&#45;&gt;Node10 -->
<g id="edge10" class="edge">
<title>Node11&#45;&gt;Node10</title>
<path fill="none" stroke="#404040" d="M286.69,-1179.59C291.42,-1159.89 299.3,-1133.33 311,-1112 319.2,-1097.05 329.29,-1082.23 339.98,-1068.25"/>
<polygon fill="none" stroke="#404040" points="340.05,-1068.15 340.61,-1060.96 347.46,-1058.71 346.9,-1065.9 340.05,-1068.15"/>
<text text-anchor="middle" x="342" y="-1126" font-family="Helvetica,sans-Serif" font-size="10.00"> +Alignment</text>
<text text-anchor="middle" x="342" y="-1115" font-family="Helvetica,sans-Serif" font-size="10.00">+ChunkSize</text>
</g>
<!-- Node12 -->
<g id="node12" class="node">
<title>Node12</title>
<g id="a_node12"><a xlink:href="structtklb_1_1_std_allocator.html" target="_top" xlink:title=" ">
<polygon fill="none" stroke="black" points="321.5,-1152.5 321.5,-1264.5 428.5,-1264.5 428.5,-1152.5 321.5,-1152.5"/>
<text text-anchor="start" x="329.5" y="-1252.5" font-family="Helvetica,sans-Serif" font-size="10.00">tklb::StdAllocator</text>
<text text-anchor="middle" x="375" y="-1241.5" font-family="Helvetica,sans-Serif" font-size="10.00">&lt; unsigned char &gt;</text>
<polyline fill="none" stroke="black" points="321.5,-1234.5 428.5,-1234.5 "/>
<text text-anchor="middle" x="375" y="-1222.5" font-family="Helvetica,sans-Serif" font-size="10.00"> </text>
<polyline fill="none" stroke="black" points="321.5,-1215.5 428.5,-1215.5 "/>
<text text-anchor="start" x="329.5" y="-1203.5" font-family="Helvetica,sans-Serif" font-size="10.00">+ StdAllocator()</text>
<text text-anchor="start" x="329.5" y="-1192.5" font-family="Helvetica,sans-Serif" font-size="10.00">+ StdAllocator()</text>
<text text-anchor="start" x="329.5" y="-1181.5" font-family="Helvetica,sans-Serif" font-size="10.00">+ StdAllocator()</text>
<text text-anchor="start" x="329.5" y="-1170.5" font-family="Helvetica,sans-Serif" font-size="10.00">+ allocate()</text>
<text text-anchor="start" x="329.5" y="-1159.5" font-family="Helvetica,sans-Serif" font-size="10.00">+ deallocate()</text>
</a>
</g>
</g>
<!-- Node12&#45;&gt;Node10 -->
<g id="edge11" class="edge">
<title>Node12&#45;&gt;Node10</title>
<path fill="none" stroke="#404040" d="M374.87,-1152.45C375.5,-1139.13 376.74,-1125 379,-1112 379.36,-1109.94 379.74,-1107.87 380.14,-1105.79"/>
<polygon fill="none" stroke="#404040" points="380.19,-1105.54 377.52,-1098.84 382.67,-1093.8 385.35,-1100.49 380.19,-1105.54"/>
<text text-anchor="middle" x="409.5" y="-1120.5" font-family="Helvetica,sans-Serif" font-size="10.00"> &#45;mAllocator</text>
</g>
<!-- Node13 -->
<g id="node13" class="node">
<title>Node13</title>
<g id="a_node13"><a xlink:href="structtklb_1_1_std_allocator.html" target="_top" xlink:title=" ">
<polygon fill="none" stroke="black" points="310.5,-1312.5 310.5,-1413.5 439.5,-1413.5 439.5,-1312.5 310.5,-1312.5"/>
<text text-anchor="middle" x="375" y="-1401.5" font-family="Helvetica,sans-Serif" font-size="10.00">tklb::StdAllocator&lt; T &gt;</text>
<polyline fill="none" stroke="black" points="310.5,-1394.5 439.5,-1394.5 "/>
<text text-anchor="middle" x="375" y="-1382.5" font-family="Helvetica,sans-Serif" font-size="10.00"> </text>
<polyline fill="none" stroke="black" points="310.5,-1375.5 439.5,-1375.5 "/>
<text text-anchor="start" x="318.5" y="-1363.5" font-family="Helvetica,sans-Serif" font-size="10.00">+ StdAllocator()</text>
<text text-anchor="start" x="318.5" y="-1352.5" font-family="Helvetica,sans-Serif" font-size="10.00">+ StdAllocator()</text>
<text text-anchor="start" x="318.5" y="-1341.5" font-family="Helvetica,sans-Serif" font-size="10.00">+ StdAllocator()</text>
<text text-anchor="start" x="318.5" y="-1330.5" font-family="Helvetica,sans-Serif" font-size="10.00">+ allocate()</text>
<text text-anchor="start" x="318.5" y="-1319.5" font-family="Helvetica,sans-Serif" font-size="10.00">+ deallocate()</text>
</a>
</g>
</g>
<!-- Node13&#45;&gt;Node12 -->
<g id="edge12" class="edge">
<title>Node13&#45;&gt;Node12</title>
<path fill="none" stroke="orange" d="M375,-1302.24C375,-1289.83 375,-1276.8 375,-1264.57"/>
<polygon fill="orange" stroke="orange" points="371.5,-1302.49 375,-1312.49 378.5,-1302.49 371.5,-1302.49"/>
<text text-anchor="middle" x="422" y="-1286" font-family="Helvetica,sans-Serif" font-size="10.00"> &lt; unsigned char &gt;</text>
</g>
<!-- Node14 -->
<g id="node14" class="node">
<title>Node14</title>
<g id="a_node14"><a xlink:title=" ">
<polygon fill="none" stroke="#bfbfbf" points="446.5,-1180 446.5,-1237 477.5,-1237 477.5,-1180 446.5,-1180"/>
<text text-anchor="middle" x="462" y="-1225" font-family="Helvetica,sans-Serif" font-size="10.00">T *</text>
<polyline fill="none" stroke="#bfbfbf" points="446.5,-1218 477.5,-1218 "/>
<text text-anchor="middle" x="462" y="-1206" font-family="Helvetica,sans-Serif" font-size="10.00"> </text>
<polyline fill="none" stroke="#bfbfbf" points="446.5,-1199 477.5,-1199 "/>
<text text-anchor="middle" x="462" y="-1187" font-family="Helvetica,sans-Serif" font-size="10.00"> </text>
</a>
</g>
</g>
<!-- Node14&#45;&gt;Node10 -->
<g id="edge13" class="edge">
<title>Node14&#45;&gt;Node10</title>
<path fill="none" stroke="#404040" d="M456.64,-1179.58C452.96,-1160.39 447.78,-1133.44 442.45,-1105.65"/>
<polygon fill="none" stroke="#404040" points="442.42,-1105.49 437.36,-1100.36 440.16,-1093.71 445.22,-1098.85 442.42,-1105.49"/>
<text text-anchor="middle" x="463" y="-1120.5" font-family="Helvetica,sans-Serif" font-size="10.00"> &#45;mBuf</text>
</g>
<!-- Node15 -->
<g id="node15" class="node">
<title>Node15</title>
<g id="a_node15"><a xlink:title=" ">
<polygon fill="none" stroke="#bfbfbf" points="495.5,-1180 495.5,-1237 572.5,-1237 572.5,-1180 495.5,-1180"/>
<text text-anchor="middle" x="534" y="-1225" font-family="Helvetica,sans-Serif" font-size="10.00">unsigned int</text>
<polyline fill="none" stroke="#bfbfbf" points="495.5,-1218 572.5,-1218 "/>
<text text-anchor="middle" x="534" y="-1206" font-family="Helvetica,sans-Serif" font-size="10.00"> </text>
<polyline fill="none" stroke="#bfbfbf" points="495.5,-1199 572.5,-1199 "/>
<text text-anchor="middle" x="534" y="-1187" font-family="Helvetica,sans-Serif" font-size="10.00"> </text>
</a>
</g>
</g>
<!-- Node15&#45;&gt;Node10 -->
<g id="edge14" class="edge">
<title>Node15&#45;&gt;Node10</title>
<path fill="none" stroke="#404040" d="M519.67,-1179.58C509.68,-1160.14 495.61,-1132.72 481.14,-1104.53"/>
<polygon fill="none" stroke="#404040" points="481.06,-1104.38 474.76,-1100.87 475.58,-1093.71 481.88,-1097.22 481.06,-1104.38"/>
<text text-anchor="middle" x="522.5" y="-1126" font-family="Helvetica,sans-Serif" font-size="10.00"> &#45;mRealSize</text>
<text text-anchor="middle" x="522.5" y="-1115" font-family="Helvetica,sans-Serif" font-size="10.00">&#45;mSize</text>
</g>
</g>
</svg>
        <g id="navigator" transform="translate(0 0)" fill="#404254">
                <rect fill="#f2f5e9" fill-opacity="0.5" stroke="#606060" stroke-width=".5" x="0" y="0" width="60" height="60"/>
                <use id="zoomplus" xlink:href="#zoomPlus" x="17" y="9" onmousedown="handleZoom(evt,'in')"/>
                <use id="zoomminus" xlink:href="#zoomMin" x="42" y="9" onmousedown="handleZoom(evt,'out')"/>
                <use id="reset" xlink:href="#resetDef" x="30" y="36" onmousedown="handleReset()"/>
                <g id="arrowUp" xlink:href="#dirArrow" transform="translate(30 24)" onmousedown="handlePan(0,-1)">
                  <use xlink:href="#rim" fill="#404040">
                        <set attributeName="fill" to="#808080" begin="arrowUp.mouseover" end="arrowUp.mouseout"/>
                  </use>
                  <path fill="none" stroke="white" stroke-width="1.5" d="M0,-3.0v7 M-2.5,-0.5L0,-3.0L2.5,-0.5"/>
                </g>
                <g id="arrowRight" xlink:href="#dirArrow" transform="rotate(90) translate(36 -43)" onmousedown="handlePan(1,0)">
                  <use xlink:href="#rim" fill="#404040">
                        <set attributeName="fill" to="#808080" begin="arrowRight.mouseover" end="arrowRight.mouseout"/>
                  </use>
                  <path fill="none" stroke="white" stroke-width="1.5" d="M0,-3.0v7 M-2.5,-0.5L0,-3.0L2.5,-0.5"/>
                </g>
                <g id="arrowDown" xlink:href="#dirArrow" transform="rotate(180) translate(-30 -48)" onmousedown="handlePan(0,1)">
                  <use xlink:href="#rim" fill="#404040">
                        <set attributeName="fill" to="#808080" begin="arrowDown.mouseover" end="arrowDown.mouseout"/>
                  </use>
                  <path fill="none" stroke="white" stroke-width="1.5" d="M0,-3.0v7 M-2.5,-0.5L0,-3.0L2.5,-0.5"/>
                </g>
                <g id="arrowLeft" xlink:href="#dirArrow" transform="rotate(270) translate(-36 17)" onmousedown="handlePan(-1,0)">
                  <use xlink:href="#rim" fill="#404040">
                        <set attributeName="fill" to="#808080" begin="arrowLeft.mouseover" end="arrowLeft.mouseout"/>
                  </use>
                  <path fill="none" stroke="white" stroke-width="1.5" d="M0,-3.0v7 M-2.5,-0.5L0,-3.0L2.5,-0.5"/>
                </g>
        </g>
        <svg viewBox="0 0 15 15" width="100%" height="30px" preserveAspectRatio="xMaxYMin meet">
         <g id="arrow_out" transform="scale(0.3 0.3)">
          <a xlink:href="structvae_1_1core_1_1_bank__coll__graph_org.svg" target="_base">
           <rect id="button" ry="5" rx="5" y="6" x="6" height="38" width="38"
                fill="#f2f5e9" fill-opacity="0.5" stroke="#606060" stroke-width="1.0"/>
           <path id="arrow"
             d="M 11.500037,31.436501 C 11.940474,20.09759 22.043105,11.32322 32.158766,21.979434 L 37.068811,17.246167 C 37.068811,17.246167 37.088388,32 37.088388,32 L 22.160133,31.978069 C 22.160133,31.978069 26.997745,27.140456 26.997745,27.140456 C 18.528582,18.264221 13.291696,25.230495 11.500037,31.436501 z"
             style="fill:#404040;"/>
          </a>
         </g>
        </svg>
</svg>
