<?xml version="1.0" encoding="UTF-8" standalone="no"?>
<!DOCTYPE svg PUBLIC "-//W3C//DTD SVG 1.1//EN"
 "http://www.w3.org/Graphics/SVG/1.1/DTD/svg11.dtd">
<!-- Generated by graphviz version 2.50.0 (0)
 -->
<!-- Title: vae::core::Voice Pages: 1 -->
<svg width="494pt" height="259pt"
 viewBox="0.00 0.00 494.00 259.00" xmlns="http://www.w3.org/2000/svg" xmlns:xlink="http://www.w3.org/1999/xlink">
<g id="graph0" class="graph" transform="scale(1 1) rotate(0) translate(4 255)">
<title>vae::core::Voice</title>
<!-- Node1 -->
<g id="node1" class="node">
<title>Node1</title>
<g id="a_node1"><a xlink:title="Barebones voice.">
<polygon fill="#bfbfbf" stroke="black" points="218.5,-0.5 218.5,-57.5 311.5,-57.5 311.5,-0.5 218.5,-0.5"/>
<text text-anchor="middle" x="265" y="-45.5" font-family="Helvetica,sans-Serif" font-size="10.00">vae::core::Voice</text>
<polyline fill="none" stroke="black" points="218.5,-38.5 311.5,-38.5 "/>
<text text-anchor="middle" x="265" y="-26.5" font-family="Helvetica,sans-Serif" font-size="10.00"> </text>
<polyline fill="none" stroke="black" points="218.5,-19.5 311.5,-19.5 "/>
<text text-anchor="middle" x="265" y="-7.5" font-family="Helvetica,sans-Serif" font-size="10.00"> </text>
</a>
</g>
</g>
<!-- Node2 -->
<g id="node2" class="node">
<title>Node2</title>
<g id="a_node2"><a xlink:title=" ">
<polygon fill="none" stroke="#bfbfbf" points="0,-193.5 0,-250.5 38,-250.5 38,-193.5 0,-193.5"/>
<text text-anchor="middle" x="19" y="-238.5" font-family="Helvetica,sans-Serif" font-size="10.00">bool</text>
<polyline fill="none" stroke="#bfbfbf" points="0,-231.5 38,-231.5 "/>
<text text-anchor="middle" x="19" y="-219.5" font-family="Helvetica,sans-Serif" font-size="10.00"> </text>
<polyline fill="none" stroke="#bfbfbf" points="0,-212.5 38,-212.5 "/>
<text text-anchor="middle" x="19" y="-200.5" font-family="Helvetica,sans-Serif" font-size="10.00"> </text>
</a>
</g>
</g>
<!-- Node2&#45;&gt;Node1 -->
<g id="edge1" class="edge">
<title>Node2&#45;&gt;Node1</title>
<path fill="none" stroke="#404040" d="M13.99,-193.3C9.84,-160.83 8.65,-107.47 38,-76 60.4,-51.98 146.67,-39.88 206.16,-34.27"/>
<polygon fill="none" stroke="#404040" points="206.46,-34.25 212.08,-29.73 218.41,-33.17 212.79,-37.69 206.46,-34.25"/>
<text text-anchor="middle" x="78" y="-167" font-family="Helvetica,sans-Serif" font-size="10.00"> +HRTF</text>
<text text-anchor="middle" x="78" y="-156" font-family="Helvetica,sans-Serif" font-size="10.00">+attenuate</text>
<text text-anchor="middle" x="78" y="-145" font-family="Helvetica,sans-Serif" font-size="10.00">+audible</text>
<text text-anchor="middle" x="78" y="-134" font-family="Helvetica,sans-Serif" font-size="10.00">+chainedEvents</text>
<text text-anchor="middle" x="78" y="-123" font-family="Helvetica,sans-Serif" font-size="10.00">+critical</text>
<text text-anchor="middle" x="78" y="-112" font-family="Helvetica,sans-Serif" font-size="10.00">+filtered</text>
<text text-anchor="middle" x="78" y="-101" font-family="Helvetica,sans-Serif" font-size="10.00">+loop</text>
<text text-anchor="middle" x="78" y="-90" font-family="Helvetica,sans-Serif" font-size="10.00">+spatialized</text>
<text text-anchor="middle" x="78" y="-79" font-family="Helvetica,sans-Serif" font-size="10.00">+started</text>
</g>
<!-- Node3 -->
<g id="node3" class="node">
<title>Node3</title>
<g id="a_node3"><a xlink:title=" ">
<polygon fill="none" stroke="#bfbfbf" points="67.5,-193.5 67.5,-250.5 152.5,-250.5 152.5,-193.5 67.5,-193.5"/>
<text text-anchor="middle" x="110" y="-238.5" font-family="Helvetica,sans-Serif" font-size="10.00">unsigned char</text>
<polyline fill="none" stroke="#bfbfbf" points="67.5,-231.5 152.5,-231.5 "/>
<text text-anchor="middle" x="110" y="-219.5" font-family="Helvetica,sans-Serif" font-size="10.00"> </text>
<polyline fill="none" stroke="#bfbfbf" points="67.5,-212.5 152.5,-212.5 "/>
<text text-anchor="middle" x="110" y="-200.5" font-family="Helvetica,sans-Serif" font-size="10.00"> </text>
</a>
</g>
</g>
<!-- Node3&#45;&gt;Node1 -->
<g id="edge2" class="edge">
<title>Node3&#45;&gt;Node1</title>
<path fill="none" stroke="#404040" d="M116.92,-193.34C126.06,-161.64 144.87,-109.74 177,-76 185.65,-66.92 196.49,-59.28 207.58,-53.01"/>
<polygon fill="none" stroke="#404040" points="207.6,-52.99 211.05,-46.66 218.22,-47.4 214.77,-53.74 207.6,-52.99"/>
<text text-anchor="middle" x="200" y="-134" font-family="Helvetica,sans-Serif" font-size="10.00"> +bank</text>
<text text-anchor="middle" x="200" y="-123" font-family="Helvetica,sans-Serif" font-size="10.00">+listener</text>
<text text-anchor="middle" x="200" y="-112" font-family="Helvetica,sans-Serif" font-size="10.00">+mixer</text>
</g>
<!-- Node4 -->
<g id="node4" class="node">
<title>Node4</title>
<g id="a_node4"><a xlink:title=" ">
<polygon fill="none" stroke="#bfbfbf" points="170.5,-193.5 170.5,-250.5 259.5,-250.5 259.5,-193.5 170.5,-193.5"/>
<text text-anchor="middle" x="215" y="-238.5" font-family="Helvetica,sans-Serif" font-size="10.00">unsigned short</text>
<polyline fill="none" stroke="#bfbfbf" points="170.5,-231.5 259.5,-231.5 "/>
<text text-anchor="middle" x="215" y="-219.5" font-family="Helvetica,sans-Serif" font-size="10.00"> </text>
<polyline fill="none" stroke="#bfbfbf" points="170.5,-212.5 259.5,-212.5 "/>
<text text-anchor="middle" x="215" y="-200.5" font-family="Helvetica,sans-Serif" font-size="10.00"> </text>
</a>
</g>
</g>
<!-- Node4&#45;&gt;Node1 -->
<g id="edge3" class="edge">
<title>Node4&#45;&gt;Node1</title>
<path fill="none" stroke="#404040" d="M222.27,-193.23C230.79,-160.69 244.96,-106.55 254.63,-69.62"/>
<polygon fill="none" stroke="#404040" points="254.68,-69.42 252.33,-62.6 257.72,-57.81 260.07,-64.62 254.68,-69.42"/>
<text text-anchor="middle" x="272.5" y="-128.5" font-family="Helvetica,sans-Serif" font-size="10.00"> +event</text>
<text text-anchor="middle" x="272.5" y="-117.5" font-family="Helvetica,sans-Serif" font-size="10.00">+source</text>
</g>
<!-- Node5 -->
<g id="node5" class="node">
<title>Node5</title>
<g id="a_node5"><a xlink:title=" ">
<polygon fill="none" stroke="#bfbfbf" points="277.5,-193.5 277.5,-250.5 354.5,-250.5 354.5,-193.5 277.5,-193.5"/>
<text text-anchor="middle" x="316" y="-238.5" font-family="Helvetica,sans-Serif" font-size="10.00">unsigned int</text>
<polyline fill="none" stroke="#bfbfbf" points="277.5,-231.5 354.5,-231.5 "/>
<text text-anchor="middle" x="316" y="-219.5" font-family="Helvetica,sans-Serif" font-size="10.00"> </text>
<polyline fill="none" stroke="#bfbfbf" points="277.5,-212.5 354.5,-212.5 "/>
<text text-anchor="middle" x="316" y="-200.5" font-family="Helvetica,sans-Serif" font-size="10.00"> </text>
</a>
</g>
</g>
<!-- Node5&#45;&gt;Node1 -->
<g id="edge4" class="edge">
<title>Node5&#45;&gt;Node1</title>
<path fill="none" stroke="#404040" d="M315.17,-193.44C313.5,-163.63 308.57,-115.13 294,-76 293.06,-73.48 291.98,-70.96 290.78,-68.46"/>
<polygon fill="none" stroke="#404040" points="290.71,-68.32 284.35,-64.93 285.03,-57.76 291.39,-61.15 290.71,-68.32"/>
<text text-anchor="middle" x="337" y="-123" font-family="Helvetica,sans-Serif" font-size="10.00"> +emitter</text>
</g>
<!-- Node6 -->
<g id="node6" class="node">
<title>Node6</title>
<g id="a_node6"><a xlink:title=" ">
<polygon fill="none" stroke="#bfbfbf" points="372.5,-193.5 372.5,-250.5 411.5,-250.5 411.5,-193.5 372.5,-193.5"/>
<text text-anchor="middle" x="392" y="-238.5" font-family="Helvetica,sans-Serif" font-size="10.00">float</text>
<polyline fill="none" stroke="#bfbfbf" points="372.5,-231.5 411.5,-231.5 "/>
<text text-anchor="middle" x="392" y="-219.5" font-family="Helvetica,sans-Serif" font-size="10.00"> </text>
<polyline fill="none" stroke="#bfbfbf" points="372.5,-212.5 411.5,-212.5 "/>
<text text-anchor="middle" x="392" y="-200.5" font-family="Helvetica,sans-Serif" font-size="10.00"> </text>
</a>
</g>
</g>
<!-- Node6&#45;&gt;Node1 -->
<g id="edge5" class="edge">
<title>Node6&#45;&gt;Node1</title>
<path fill="none" stroke="#404040" d="M389.85,-193.2C386.5,-156.35 378.93,-93.88 365,-76 354.37,-62.35 338.75,-52.61 323,-45.71"/>
<polygon fill="none" stroke="#404040" points="322.74,-45.6 315.68,-47.1 311.58,-41.17 318.64,-39.67 322.74,-45.6"/>
<text text-anchor="middle" x="403.5" y="-123" font-family="Helvetica,sans-Serif" font-size="10.00"> +gain</text>
</g>
<!-- Node7 -->
<g id="node7" class="node">
<title>Node7</title>
<g id="a_node7"><a xlink:title=" ">
<polygon fill="none" stroke="#bfbfbf" points="429.5,-193.5 429.5,-250.5 466.5,-250.5 466.5,-193.5 429.5,-193.5"/>
<text text-anchor="middle" x="448" y="-238.5" font-family="Helvetica,sans-Serif" font-size="10.00">Size</text>
<polyline fill="none" stroke="#bfbfbf" points="429.5,-231.5 466.5,-231.5 "/>
<text text-anchor="middle" x="448" y="-219.5" font-family="Helvetica,sans-Serif" font-size="10.00"> </text>
<polyline fill="none" stroke="#bfbfbf" points="429.5,-212.5 466.5,-212.5 "/>
<text text-anchor="middle" x="448" y="-200.5" font-family="Helvetica,sans-Serif" font-size="10.00"> </text>
</a>
</g>
</g>
<!-- Node7&#45;&gt;Node1 -->
<g id="edge6" class="edge">
<title>Node7&#45;&gt;Node1</title>
<path fill="none" stroke="#404040" d="M451.49,-193.31C453.93,-161.1 452.65,-108.23 424,-76 399.01,-47.88 357.99,-36.49 323.88,-32.07"/>
<polygon fill="none" stroke="#404040" points="323.6,-32.04 317.2,-35.37 311.67,-30.74 318.06,-27.42 323.6,-32.04"/>
<text text-anchor="middle" x="469" y="-123" font-family="Helvetica,sans-Serif" font-size="10.00"> +time</text>
</g>
</g>
</svg>
