<?xml version="1.0" encoding="UTF-8" standalone="no"?>
<!DOCTYPE svg PUBLIC "-//W3C//DTD SVG 1.1//EN"
 "http://www.w3.org/Graphics/SVG/1.1/DTD/svg11.dtd">
<!-- Generated by graphviz version 2.50.0 (0)
 -->
<!-- Title: vae::core::effect::UI Pages: 1 -->
<svg width="374pt" height="976pt"
 viewBox="0.00 0.00 374.00 976.00" xmlns="http://www.w3.org/2000/svg" xmlns:xlink="http://www.w3.org/1999/xlink">
<g id="graph0" class="graph" transform="scale(1 1) rotate(0) translate(4 972)">
<title>vae::core::effect::UI</title>
<!-- Node1 -->
<g id="node1" class="node">
<title>Node1</title>
<g id="a_node1"><a xlink:title=" ">
<polygon fill="#bfbfbf" stroke="black" points="121,-0.5 121,-145.5 269,-145.5 269,-0.5 121,-0.5"/>
<text text-anchor="middle" x="195" y="-133.5" font-family="Helvetica,sans-Serif" font-size="10.00">vae::core::effect::UI</text>
<polyline fill="none" stroke="black" points="121,-126.5 269,-126.5 "/>
<text text-anchor="middle" x="195" y="-114.5" font-family="Helvetica,sans-Serif" font-size="10.00"> </text>
<polyline fill="none" stroke="black" points="121,-107.5 269,-107.5 "/>
<text text-anchor="start" x="129" y="-95.5" font-family="Helvetica,sans-Serif" font-size="10.00">+ addHorizontalSlider()</text>
<text text-anchor="start" x="129" y="-84.5" font-family="Helvetica,sans-Serif" font-size="10.00">+ openVerticalBox()</text>
<text text-anchor="start" x="129" y="-73.5" font-family="Helvetica,sans-Serif" font-size="10.00">+ openHorizontalBox()</text>
<text text-anchor="start" x="129" y="-62.5" font-family="Helvetica,sans-Serif" font-size="10.00">+ closeBox()</text>
<text text-anchor="start" x="129" y="-51.5" font-family="Helvetica,sans-Serif" font-size="10.00">+ declare()</text>
<text text-anchor="start" x="129" y="-40.5" font-family="Helvetica,sans-Serif" font-size="10.00">+ addVerticalSlider()</text>
<text text-anchor="start" x="129" y="-29.5" font-family="Helvetica,sans-Serif" font-size="10.00">+ addCheckButton()</text>
<text text-anchor="start" x="129" y="-18.5" font-family="Helvetica,sans-Serif" font-size="10.00">+ addVerticalBargraph()</text>
<text text-anchor="start" x="129" y="-7.5" font-family="Helvetica,sans-Serif" font-size="10.00">+ addHorizontalBargraph()</text>
</a>
</g>
</g>
<!-- Node2 -->
<g id="node2" class="node">
<title>Node2</title>
<g id="a_node2"><a xlink:href="structvae_1_1core_1_1_effect.html" target="_top" xlink:title="Effect pod.">
<polygon fill="none" stroke="black" points="147,-193.5 147,-250.5 243,-250.5 243,-193.5 147,-193.5"/>
<text text-anchor="middle" x="195" y="-238.5" font-family="Helvetica,sans-Serif" font-size="10.00">vae::core::Effect</text>
<polyline fill="none" stroke="black" points="147,-231.5 243,-231.5 "/>
<text text-anchor="middle" x="195" y="-219.5" font-family="Helvetica,sans-Serif" font-size="10.00"> </text>
<polyline fill="none" stroke="black" points="147,-212.5 243,-212.5 "/>
<text text-anchor="middle" x="195" y="-200.5" font-family="Helvetica,sans-Serif" font-size="10.00"> </text>
</a>
</g>
</g>
<!-- Node2&#45;&gt;Node1 -->
<g id="edge1" class="edge">
<title>Node2&#45;&gt;Node1</title>
<path fill="none" stroke="#404040" d="M195,-193.35C195,-183.01 195,-170.66 195,-157.89"/>
<polygon fill="none" stroke="#404040" points="195,-157.56 191,-151.56 195,-145.56 199,-151.56 195,-157.56"/>
<text text-anchor="middle" x="215" y="-167" font-family="Helvetica,sans-Serif" font-size="10.00"> +effect</text>
</g>
<!-- Node3 -->
<g id="node3" class="node">
<title>Node3</title>
<g id="a_node3"><a xlink:href="classtklb_1_1_stack_string.html" target="_top" xlink:title=" ">
<polygon fill="none" stroke="black" points="65.5,-480.5 65.5,-647.5 196.5,-647.5 196.5,-480.5 65.5,-480.5"/>
<text text-anchor="middle" x="131" y="-635.5" font-family="Helvetica,sans-Serif" font-size="10.00">tklb::StackString&lt; 16 &gt;</text>
<polyline fill="none" stroke="black" points="65.5,-628.5 196.5,-628.5 "/>
<text text-anchor="start" x="73.5" y="-616.5" font-family="Helvetica,sans-Serif" font-size="10.00">&#45; mData</text>
<polyline fill="none" stroke="black" points="65.5,-609.5 196.5,-609.5 "/>
<text text-anchor="start" x="73.5" y="-597.5" font-family="Helvetica,sans-Serif" font-size="10.00">+ StackString()</text>
<text text-anchor="start" x="73.5" y="-586.5" font-family="Helvetica,sans-Serif" font-size="10.00">+ StackString()</text>
<text text-anchor="start" x="73.5" y="-575.5" font-family="Helvetica,sans-Serif" font-size="10.00">+ operator=()</text>
<text text-anchor="start" x="73.5" y="-564.5" font-family="Helvetica,sans-Serif" font-size="10.00">+ c_str()</text>
<text text-anchor="start" x="73.5" y="-553.5" font-family="Helvetica,sans-Serif" font-size="10.00">+ operator[]()</text>
<text text-anchor="start" x="73.5" y="-542.5" font-family="Helvetica,sans-Serif" font-size="10.00">+ operator[]()</text>
<text text-anchor="start" x="73.5" y="-531.5" font-family="Helvetica,sans-Serif" font-size="10.00">+ operator==()</text>
<text text-anchor="start" x="73.5" y="-520.5" font-family="Helvetica,sans-Serif" font-size="10.00">+ operator==()</text>
<text text-anchor="start" x="73.5" y="-509.5" font-family="Helvetica,sans-Serif" font-size="10.00">+ empty()</text>
<text text-anchor="start" x="73.5" y="-498.5" font-family="Helvetica,sans-Serif" font-size="10.00">+ size()</text>
<text text-anchor="start" x="73.5" y="-487.5" font-family="Helvetica,sans-Serif" font-size="10.00">+ set()</text>
</a>
</g>
</g>
<!-- Node3&#45;&gt;Node2 -->
<g id="edge2" class="edge">
<title>Node3&#45;&gt;Node2</title>
<path fill="none" stroke="#404040" d="M125.42,-480.42C124.36,-427.1 127.81,-356.95 147,-298 151.21,-285.06 158.21,-272.15 165.57,-260.78"/>
<polygon fill="none" stroke="#404040" points="165.61,-260.72 165.68,-253.51 172.37,-250.81 172.29,-258.02 165.61,-260.72"/>
<text text-anchor="middle" x="167" y="-363" font-family="Helvetica,sans-Serif" font-size="10.00"> +name</text>
</g>
<!-- Node7 -->
<g id="node7" class="node">
<title>Node7</title>
<g id="a_node7"><a xlink:href="structvae_1_1core_1_1_effect_1_1_parameter.html" target="_top" xlink:title="Represents a parameter of the DSP.">
<polygon fill="none" stroke="black" points="0,-331.5 0,-399.5 102,-399.5 102,-331.5 0,-331.5"/>
<text text-anchor="start" x="8" y="-387.5" font-family="Helvetica,sans-Serif" font-size="10.00">vae::core::Effect::</text>
<text text-anchor="middle" x="51" y="-376.5" font-family="Helvetica,sans-Serif" font-size="10.00">Parameter</text>
<polyline fill="none" stroke="black" points="0,-369.5 102,-369.5 "/>
<text text-anchor="middle" x="51" y="-357.5" font-family="Helvetica,sans-Serif" font-size="10.00"> </text>
<polyline fill="none" stroke="black" points="0,-350.5 102,-350.5 "/>
<text text-anchor="middle" x="51" y="-338.5" font-family="Helvetica,sans-Serif" font-size="10.00"> </text>
</a>
</g>
</g>
<!-- Node3&#45;&gt;Node7 -->
<g id="edge7" class="edge">
<title>Node3&#45;&gt;Node7</title>
<path fill="none" stroke="#404040" d="M91.71,-480.35C89.03,-474.17 86.43,-468.01 84,-462 77.4,-445.67 70.9,-427.46 65.44,-411.35"/>
<polygon fill="none" stroke="#404040" points="65.28,-410.9 59.59,-406.47 61.48,-399.52 67.18,-403.94 65.28,-410.9"/>
<text text-anchor="middle" x="104" y="-454" font-family="Helvetica,sans-Serif" font-size="10.00"> +name</text>
</g>
<!-- Node4 -->
<g id="node4" class="node">
<title>Node4</title>
<g id="a_node4"><a xlink:href="classtklb_1_1_stack_string.html" target="_top" xlink:title="Super simple class to hold and compare strings on the stack.">
<polygon fill="none" stroke="black" points="67.5,-695.5 67.5,-862.5 194.5,-862.5 194.5,-695.5 67.5,-695.5"/>
<text text-anchor="middle" x="131" y="-850.5" font-family="Helvetica,sans-Serif" font-size="10.00">tklb::StackString&lt; N &gt;</text>
<polyline fill="none" stroke="black" points="67.5,-843.5 194.5,-843.5 "/>
<text text-anchor="middle" x="131" y="-831.5" font-family="Helvetica,sans-Serif" font-size="10.00"> </text>
<polyline fill="none" stroke="black" points="67.5,-824.5 194.5,-824.5 "/>
<text text-anchor="start" x="75.5" y="-812.5" font-family="Helvetica,sans-Serif" font-size="10.00">+ StackString()</text>
<text text-anchor="start" x="75.5" y="-801.5" font-family="Helvetica,sans-Serif" font-size="10.00">+ StackString()</text>
<text text-anchor="start" x="75.5" y="-790.5" font-family="Helvetica,sans-Serif" font-size="10.00">+ operator=()</text>
<text text-anchor="start" x="75.5" y="-779.5" font-family="Helvetica,sans-Serif" font-size="10.00">+ c_str()</text>
<text text-anchor="start" x="75.5" y="-768.5" font-family="Helvetica,sans-Serif" font-size="10.00">+ operator[]()</text>
<text text-anchor="start" x="75.5" y="-757.5" font-family="Helvetica,sans-Serif" font-size="10.00">+ operator[]()</text>
<text text-anchor="start" x="75.5" y="-746.5" font-family="Helvetica,sans-Serif" font-size="10.00">+ operator==()</text>
<text text-anchor="start" x="75.5" y="-735.5" font-family="Helvetica,sans-Serif" font-size="10.00">+ operator==()</text>
<text text-anchor="start" x="75.5" y="-724.5" font-family="Helvetica,sans-Serif" font-size="10.00">+ empty()</text>
<text text-anchor="start" x="75.5" y="-713.5" font-family="Helvetica,sans-Serif" font-size="10.00">+ size()</text>
<text text-anchor="start" x="75.5" y="-702.5" font-family="Helvetica,sans-Serif" font-size="10.00">+ set()</text>
</a>
</g>
</g>
<!-- Node4&#45;&gt;Node3 -->
<g id="edge3" class="edge">
<title>Node4&#45;&gt;Node3</title>
<path fill="none" stroke="orange" d="M131,-684.97C131,-672.54 131,-659.85 131,-647.61"/>
<polygon fill="orange" stroke="orange" points="127.5,-685.34 131,-695.34 134.5,-685.34 127.5,-685.34"/>
<text text-anchor="middle" x="150" y="-669" font-family="Helvetica,sans-Serif" font-size="10.00"> &lt; 16 &gt;</text>
</g>
<!-- Node5 -->
<g id="node5" class="node">
<title>Node5</title>
<g id="a_node5"><a xlink:title=" ">
<polygon fill="none" stroke="#bfbfbf" points="112,-910.5 112,-967.5 150,-967.5 150,-910.5 112,-910.5"/>
<text text-anchor="middle" x="131" y="-955.5" font-family="Helvetica,sans-Serif" font-size="10.00">char</text>
<polyline fill="none" stroke="#bfbfbf" points="112,-948.5 150,-948.5 "/>
<text text-anchor="middle" x="131" y="-936.5" font-family="Helvetica,sans-Serif" font-size="10.00"> </text>
<polyline fill="none" stroke="#bfbfbf" points="112,-929.5 150,-929.5 "/>
<text text-anchor="middle" x="131" y="-917.5" font-family="Helvetica,sans-Serif" font-size="10.00"> </text>
</a>
</g>
</g>
<!-- Node5&#45;&gt;Node4 -->
<g id="edge4" class="edge">
<title>Node5&#45;&gt;Node4</title>
<path fill="none" stroke="#404040" d="M131,-910.48C131,-900.12 131,-887.67 131,-874.63"/>
<polygon fill="none" stroke="#404040" points="131,-874.54 127,-868.54 131,-862.54 135,-868.54 131,-874.54"/>
<text text-anchor="middle" x="151" y="-884" font-family="Helvetica,sans-Serif" font-size="10.00"> &#45;mData</text>
</g>
<!-- Node6 -->
<g id="node6" class="node">
<title>Node6</title>
<g id="a_node6"><a xlink:href="classvae_1_1core_1_1effect_1_1_effect_base.html" target="_top" xlink:title="Base for all effects.">
<polygon fill="none" stroke="black" points="196.5,-298.5 196.5,-432.5 309.5,-432.5 309.5,-298.5 196.5,-298.5"/>
<text text-anchor="start" x="204.5" y="-420.5" font-family="Helvetica,sans-Serif" font-size="10.00">vae::core::effect::</text>
<text text-anchor="middle" x="253" y="-409.5" font-family="Helvetica,sans-Serif" font-size="10.00">EffectBase</text>
<polyline fill="none" stroke="black" points="196.5,-402.5 309.5,-402.5 "/>
<text text-anchor="middle" x="253" y="-390.5" font-family="Helvetica,sans-Serif" font-size="10.00"> </text>
<polyline fill="none" stroke="black" points="196.5,-383.5 309.5,-383.5 "/>
<text text-anchor="start" x="204.5" y="-371.5" font-family="Helvetica,sans-Serif" font-size="10.00">+ init()</text>
<text text-anchor="start" x="204.5" y="-360.5" font-family="Helvetica,sans-Serif" font-size="10.00">+ getNumInputs()</text>
<text text-anchor="start" x="204.5" y="-349.5" font-family="Helvetica,sans-Serif" font-size="10.00">+ getNumOutputs()</text>
<text text-anchor="start" x="204.5" y="-338.5" font-family="Helvetica,sans-Serif" font-size="10.00">+ instanceClear()</text>
<text text-anchor="start" x="204.5" y="-327.5" font-family="Helvetica,sans-Serif" font-size="10.00">+ process()</text>
<text text-anchor="start" x="204.5" y="-316.5" font-family="Helvetica,sans-Serif" font-size="10.00">+ EffectBase()</text>
<text text-anchor="start" x="204.5" y="-305.5" font-family="Helvetica,sans-Serif" font-size="10.00">+ ~EffectBase()</text>
</a>
</g>
</g>
<!-- Node6&#45;&gt;Node2 -->
<g id="edge5" class="edge">
<title>Node6&#45;&gt;Node2</title>
<path fill="none" stroke="#404040" d="M225.87,-298.31C220.75,-285.82 215.55,-273.13 210.92,-261.83"/>
<polygon fill="none" stroke="#404040" points="210.87,-261.71 204.89,-257.68 206.32,-250.61 212.29,-254.64 210.87,-261.71"/>
<text text-anchor="middle" x="238" y="-272" font-family="Helvetica,sans-Serif" font-size="10.00"> +effect</text>
</g>
<!-- Node7&#45;&gt;Node2 -->
<g id="edge6" class="edge">
<title>Node7&#45;&gt;Node2</title>
<path fill="none" stroke="#404040" d="M44.03,-331.25C41.79,-311.27 42.71,-286.42 56,-269 74.55,-244.69 106.37,-233.07 134.88,-227.58"/>
<polygon fill="none" stroke="#404040" points="135.01,-227.56 140.27,-222.62 146.85,-225.58 141.59,-230.51 135.01,-227.56"/>
<text text-anchor="middle" x="90" y="-272" font-family="Helvetica,sans-Serif" font-size="10.00"> +parameters</text>
</g>
<!-- Node8 -->
<g id="node8" class="node">
<title>Node8</title>
<g id="a_node8"><a xlink:title=" ">
<polygon fill="none" stroke="#bfbfbf" points="1.5,-535.5 1.5,-592.5 40.5,-592.5 40.5,-535.5 1.5,-535.5"/>
<text text-anchor="middle" x="21" y="-580.5" font-family="Helvetica,sans-Serif" font-size="10.00">float</text>
<polyline fill="none" stroke="#bfbfbf" points="1.5,-573.5 40.5,-573.5 "/>
<text text-anchor="middle" x="21" y="-561.5" font-family="Helvetica,sans-Serif" font-size="10.00"> </text>
<polyline fill="none" stroke="#bfbfbf" points="1.5,-554.5 40.5,-554.5 "/>
<text text-anchor="middle" x="21" y="-542.5" font-family="Helvetica,sans-Serif" font-size="10.00"> </text>
</a>
</g>
</g>
<!-- Node8&#45;&gt;Node7 -->
<g id="edge8" class="edge">
<title>Node8&#45;&gt;Node7</title>
<path fill="none" stroke="#404040" d="M18.79,-535.16C17.56,-512.37 17.14,-479.37 22,-451 24.26,-437.79 28.3,-423.88 32.66,-411.23"/>
<polygon fill="none" stroke="#404040" points="32.8,-410.85 31.08,-403.85 36.89,-399.57 38.6,-406.57 32.8,-410.85"/>
<text text-anchor="middle" x="41.5" y="-454" font-family="Helvetica,sans-Serif" font-size="10.00"> +value</text>
</g>
<!-- Node9 -->
<g id="node9" class="node">
<title>Node9</title>
<g id="a_node9"><a xlink:title=" ">
<polygon fill="none" stroke="#bfbfbf" points="328,-337 328,-394 366,-394 366,-337 328,-337"/>
<text text-anchor="middle" x="347" y="-382" font-family="Helvetica,sans-Serif" font-size="10.00">bool</text>
<polyline fill="none" stroke="#bfbfbf" points="328,-375 366,-375 "/>
<text text-anchor="middle" x="347" y="-363" font-family="Helvetica,sans-Serif" font-size="10.00"> </text>
<polyline fill="none" stroke="#bfbfbf" points="328,-356 366,-356 "/>
<text text-anchor="middle" x="347" y="-344" font-family="Helvetica,sans-Serif" font-size="10.00"> </text>
</a>
</g>
</g>
<!-- Node9&#45;&gt;Node2 -->
<g id="edge9" class="edge">
<title>Node9&#45;&gt;Node2</title>
<path fill="none" stroke="#404040" d="M339.68,-336.78C335.26,-323.93 328.58,-309.09 319,-298 301.33,-277.55 276.65,-261.06 253.96,-248.8"/>
<polygon fill="none" stroke="#404040" points="253.68,-248.65 246.51,-249.44 243.03,-243.13 250.19,-242.34 253.68,-248.65"/>
<text text-anchor="middle" x="328" y="-272" font-family="Helvetica,sans-Serif" font-size="10.00"> +bypassed</text>
</g>
</g>
</svg>
