<?xml version="1.0" encoding="UTF-8" standalone="no"?>
<!DOCTYPE svg PUBLIC "-//W3C//DTD SVG 1.1//EN"
 "http://www.w3.org/Graphics/SVG/1.1/DTD/svg11.dtd">
<!-- Generated by graphviz version 2.50.0 (0)
 -->
<!-- Title: tklb::FileInfo::print Pages: 1 -->
<svg width="278pt" height="57pt"
 viewBox="0.00 0.00 278.00 57.00" xmlns="http://www.w3.org/2000/svg" xmlns:xlink="http://www.w3.org/1999/xlink">
<g id="graph0" class="graph" transform="scale(1 1) rotate(0) translate(4 53)">
<title>tklb::FileInfo::print</title>
<!-- Node1 -->
<g id="node1" class="node">
<title>Node1</title>
<g id="a_node1"><a xlink:title="Print the directory tree.">
<polygon fill="#bfbfbf" stroke="black" points="0,-6 0,-25 106,-25 106,-6 0,-6"/>
<text text-anchor="middle" x="53" y="-13" font-family="Helvetica,sans-Serif" font-size="10.00">tklb::FileInfo::print</text>
</a>
</g>
</g>
<!-- Node2 -->
<g id="node2" class="node">
<title>Node2</title>
<g id="a_node2"><a xlink:href="structtklb_1_1_file_info.html#ae9935a35f65963d3ca855610346111a0" target="_top" xlink:title=" ">
<polygon fill="none" stroke="black" points="142,-0.5 142,-30.5 270,-30.5 270,-0.5 142,-0.5"/>
<text text-anchor="start" x="150" y="-18.5" font-family="Helvetica,sans-Serif" font-size="10.00">tklb::FileInfo::recursive</text>
<text text-anchor="middle" x="206" y="-7.5" font-family="Helvetica,sans-Serif" font-size="10.00">Print</text>
</a>
</g>
</g>
<!-- Node1&#45;&gt;Node2 -->
<g id="edge1" class="edge">
<title>Node1&#45;&gt;Node2</title>
<path fill="none" stroke="midnightblue" d="M106.39,-15.5C114.59,-15.5 123.2,-15.5 131.77,-15.5"/>
<polygon fill="midnightblue" stroke="midnightblue" points="131.78,-19 141.78,-15.5 131.78,-12 131.78,-19"/>
</g>
<!-- Node2&#45;&gt;Node2 -->
<g id="edge2" class="edge">
<title>Node2&#45;&gt;Node2</title>
<path fill="none" stroke="midnightblue" d="M179.51,-30.66C173.12,-40.06 181.95,-49 206,-49 220.65,-49 229.66,-45.68 233.01,-40.96"/>
<polygon fill="midnightblue" stroke="midnightblue" points="236.49,-40.47 232.49,-30.66 229.5,-40.82 236.49,-40.47"/>
</g>
</g>
</svg>
