<?xml version="1.0" encoding="UTF-8" standalone="no"?>
<!DOCTYPE svg PUBLIC "-//W3C//DTD SVG 1.1//EN"
 "http://www.w3.org/Graphics/SVG/1.1/DTD/svg11.dtd">
<!-- Generated by graphviz version 2.50.0 (0)
 -->
<!-- Title: vae::core::SourceLoader::load Pages: 1 -->
<svg width="427pt" height="274pt"
 viewBox="0.00 0.00 427.00 273.50" xmlns="http://www.w3.org/2000/svg" xmlns:xlink="http://www.w3.org/1999/xlink">
<g id="graph0" class="graph" transform="scale(1 1) rotate(0) translate(4 269.5)">
<title>vae::core::SourceLoader::load</title>
<!-- Node1 -->
<g id="node1" class="node">
<title>Node1</title>
<g id="a_node1"><a xlink:title="Loads a wav file for the resource.">
<polygon fill="#bfbfbf" stroke="black" points="0,-126.5 0,-156.5 134,-156.5 134,-126.5 0,-126.5"/>
<text text-anchor="start" x="8" y="-144.5" font-family="Helvetica,sans-Serif" font-size="10.00">vae::core::SourceLoader</text>
<text text-anchor="middle" x="67" y="-133.5" font-family="Helvetica,sans-Serif" font-size="10.00">::load</text>
</a>
</g>
</g>
<!-- Node2 -->
<g id="node2" class="node">
<title>Node2</title>
<g id="a_node2"><a xlink:href="classtklb_1_1_string.html#a94e674695ef958e3a4d7778c7235856b" target="_top" xlink:title=" ">
<polygon fill="none" stroke="black" points="170.5,-246 170.5,-265 282.5,-265 282.5,-246 170.5,-246"/>
<text text-anchor="middle" x="226.5" y="-253" font-family="Helvetica,sans-Serif" font-size="10.00">tklb::String::append</text>
</a>
</g>
</g>
<!-- Node1&#45;&gt;Node2 -->
<g id="edge1" class="edge">
<title>Node1&#45;&gt;Node2</title>
<path fill="none" stroke="midnightblue" d="M82.01,-156.51C100.65,-175.82 135.31,-209.48 170,-231.5 175.95,-235.28 182.61,-238.73 189.18,-241.76"/>
<polygon fill="midnightblue" stroke="midnightblue" points="188.1,-245.11 198.66,-245.89 190.89,-238.69 188.1,-245.11"/>
</g>
<!-- Node3 -->
<g id="node3" class="node">
<title>Node3</title>
<g id="a_node3"><a xlink:href="classtklb_1_1_string.html#a2fd6f1c6342e803119507c94cd3c6b76" target="_top" xlink:title=" ">
<polygon fill="none" stroke="black" points="321.5,-208 321.5,-227 416.5,-227 416.5,-208 321.5,-208"/>
<text text-anchor="middle" x="369" y="-215" font-family="Helvetica,sans-Serif" font-size="10.00">tklb::String::size</text>
</a>
</g>
</g>
<!-- Node1&#45;&gt;Node3 -->
<g id="edge11" class="edge">
<title>Node1&#45;&gt;Node3</title>
<path fill="none" stroke="midnightblue" d="M89.09,-156.74C108.92,-170.21 139.99,-189.13 170,-198.5 216.09,-212.89 270.9,-217.23 311.16,-218.2"/>
<polygon fill="midnightblue" stroke="midnightblue" points="311.26,-221.71 321.33,-218.39 311.39,-214.71 311.26,-221.71"/>
</g>
<!-- Node4 -->
<g id="node4" class="node">
<title>Node4</title>
<g id="a_node4"><a xlink:href="classtklb_1_1_string.html#a2551f7f99fab1486f3d13b3a363824c5" target="_top" xlink:title=" ">
<polygon fill="none" stroke="black" points="177,-170 177,-189 276,-189 276,-170 177,-170"/>
<text text-anchor="middle" x="226.5" y="-177" font-family="Helvetica,sans-Serif" font-size="10.00">tklb::String::c_str</text>
</a>
</g>
</g>
<!-- Node1&#45;&gt;Node4 -->
<g id="edge3" class="edge">
<title>Node1&#45;&gt;Node4</title>
<path fill="none" stroke="midnightblue" d="M130.25,-156.52C145.48,-160.19 161.57,-164.08 176.11,-167.58"/>
<polygon fill="midnightblue" stroke="midnightblue" points="175.35,-171 185.89,-169.94 176.99,-164.2 175.35,-171"/>
</g>
<!-- Node5 -->
<g id="node5" class="node">
<title>Node5</title>
<g id="a_node5"><a xlink:href="classtklb_1_1_string.html#af160751fb9fbb7cba71b281db77ce9e5" target="_top" xlink:title=" ">
<polygon fill="none" stroke="black" points="177.5,-132 177.5,-151 275.5,-151 275.5,-132 177.5,-132"/>
<text text-anchor="middle" x="226.5" y="-139" font-family="Helvetica,sans-Serif" font-size="10.00">tklb::String::data</text>
</a>
</g>
</g>
<!-- Node1&#45;&gt;Node5 -->
<g id="edge4" class="edge">
<title>Node1&#45;&gt;Node5</title>
<path fill="none" stroke="midnightblue" d="M134.34,-141.5C145.3,-141.5 156.58,-141.5 167.32,-141.5"/>
<polygon fill="midnightblue" stroke="midnightblue" points="167.42,-145 177.42,-141.5 167.42,-138 167.42,-145"/>
</g>
<!-- Node6 -->
<g id="node6" class="node">
<title>Node6</title>
<g id="a_node6"><a xlink:href="classvae_1_1core_1_1fs_1_1_file.html#a9b11ebabdce39848566a1bf4b225d7c2" target="_top" xlink:title=" ">
<polygon fill="none" stroke="black" points="176.5,-44.5 176.5,-74.5 276.5,-74.5 276.5,-44.5 176.5,-44.5"/>
<text text-anchor="start" x="184.5" y="-62.5" font-family="Helvetica,sans-Serif" font-size="10.00">vae::core::fs::File</text>
<text text-anchor="middle" x="226.5" y="-51.5" font-family="Helvetica,sans-Serif" font-size="10.00">::readAll</text>
</a>
</g>
</g>
<!-- Node1&#45;&gt;Node6 -->
<g id="edge5" class="edge">
<title>Node1&#45;&gt;Node6</title>
<path fill="none" stroke="midnightblue" d="M93.66,-126.35C114.09,-114.49 143.55,-97.82 170,-84.5 173.77,-82.6 177.71,-80.69 181.69,-78.81"/>
<polygon fill="midnightblue" stroke="midnightblue" points="183.34,-81.9 190.94,-74.51 180.39,-75.55 183.34,-81.9"/>
</g>
<!-- Node7 -->
<g id="node7" class="node">
<title>Node7</title>
<g id="a_node7"><a xlink:href="classvae_1_1core_1_1fs_1_1_file.html#a01e51acff408d0449c1b524c40596470" target="_top" xlink:title=" ">
<polygon fill="none" stroke="black" points="319,-0.5 319,-30.5 419,-30.5 419,-0.5 319,-0.5"/>
<text text-anchor="start" x="327" y="-18.5" font-family="Helvetica,sans-Serif" font-size="10.00">vae::core::fs::File</text>
<text text-anchor="middle" x="369" y="-7.5" font-family="Helvetica,sans-Serif" font-size="10.00">::size</text>
</a>
</g>
</g>
<!-- Node1&#45;&gt;Node7 -->
<g id="edge10" class="edge">
<title>Node1&#45;&gt;Node7</title>
<path fill="none" stroke="midnightblue" d="M77.33,-126.16C93.05,-101.89 127.3,-55.26 170,-34.5 213.09,-13.55 267.63,-9.73 308.55,-10.62"/>
<polygon fill="midnightblue" stroke="midnightblue" points="308.54,-14.12 318.65,-10.94 308.77,-7.13 308.54,-14.12"/>
</g>
<!-- Node9 -->
<g id="node9" class="node">
<title>Node9</title>
<g id="a_node9"><a xlink:href="classtklb_1_1_string.html#a13d38526ab9032342f2d3ced3e6062a9" target="_top" xlink:title=" ">
<polygon fill="none" stroke="black" points="170,-94 170,-113 283,-113 283,-94 170,-94"/>
<text text-anchor="middle" x="226.5" y="-101" font-family="Helvetica,sans-Serif" font-size="10.00">tklb::String::reserve</text>
</a>
</g>
</g>
<!-- Node1&#45;&gt;Node9 -->
<g id="edge8" class="edge">
<title>Node1&#45;&gt;Node9</title>
<path fill="none" stroke="midnightblue" d="M130.25,-126.48C145.48,-122.81 161.57,-118.92 176.11,-115.42"/>
<polygon fill="midnightblue" stroke="midnightblue" points="176.99,-118.8 185.89,-113.06 175.35,-112 176.99,-118.8"/>
</g>
<!-- Node2&#45;&gt;Node3 -->
<g id="edge2" class="edge">
<title>Node2&#45;&gt;Node3</title>
<path fill="none" stroke="midnightblue" d="M262.95,-245.91C281.09,-241.01 303.37,-234.98 322.73,-229.74"/>
<polygon fill="midnightblue" stroke="midnightblue" points="323.82,-233.08 332.56,-227.09 321.99,-226.32 323.82,-233.08"/>
</g>
<!-- Node6&#45;&gt;Node7 -->
<g id="edge6" class="edge">
<title>Node6&#45;&gt;Node7</title>
<path fill="none" stroke="midnightblue" d="M275.46,-44.48C286.64,-40.98 298.66,-37.22 310.21,-33.6"/>
<polygon fill="midnightblue" stroke="midnightblue" points="311.28,-36.93 319.78,-30.6 309.19,-30.25 311.28,-36.93"/>
</g>
<!-- Node8 -->
<g id="node8" class="node">
<title>Node8</title>
<g id="a_node8"><a xlink:href="vae__fs_8hpp.html#a82978d110bb709013681115bb44e48ae" target="_top" xlink:title=" ">
<polygon fill="none" stroke="black" points="327.5,-50 327.5,-69 410.5,-69 410.5,-50 327.5,-50"/>
<text text-anchor="middle" x="369" y="-57" font-family="Helvetica,sans-Serif" font-size="10.00">vae_file_read</text>
</a>
</g>
</g>
<!-- Node6&#45;&gt;Node8 -->
<g id="edge7" class="edge">
<title>Node6&#45;&gt;Node8</title>
<path fill="none" stroke="midnightblue" d="M276.64,-59.5C289.75,-59.5 303.95,-59.5 317.15,-59.5"/>
<polygon fill="midnightblue" stroke="midnightblue" points="317.49,-63 327.49,-59.5 317.49,-56 317.49,-63"/>
</g>
<!-- Node9&#45;&gt;Node3 -->
<g id="edge9" class="edge">
<title>Node9&#45;&gt;Node3</title>
<path fill="none" stroke="midnightblue" d="M264.29,-113.11C270.8,-115.63 277.31,-118.73 283,-122.5 314.33,-143.27 341.51,-178.3 356.25,-199.53"/>
<polygon fill="midnightblue" stroke="midnightblue" points="353.45,-201.63 361.95,-207.95 359.24,-197.71 353.45,-201.63"/>
</g>
</g>
</svg>
