<?xml version="1.0" encoding="UTF-8" standalone="no"?>
<!DOCTYPE svg PUBLIC "-//W3C//DTD SVG 1.1//EN"
 "http://www.w3.org/Graphics/SVG/1.1/DTD/svg11.dtd">
<!-- Generated by graphviz version 2.50.0 (0)
 -->
<!-- Title: File Pages: 1 -->
<svg width="332pt" height="959pt"
 viewBox="0.00 0.00 332.00 959.00" xmlns="http://www.w3.org/2000/svg" xmlns:xlink="http://www.w3.org/1999/xlink">
<g id="graph0" class="graph" transform="scale(1 1) rotate(0) translate(4 955)">
<title>File</title>
<!-- Node1 -->
<g id="node1" class="node">
<title>Node1</title>
<g id="a_node1"><a xlink:title=" ">
<polygon fill="#bfbfbf" stroke="black" points="29.5,-0.5 29.5,-57.5 63.5,-57.5 63.5,-0.5 29.5,-0.5"/>
<text text-anchor="middle" x="46.5" y="-45.5" font-family="Helvetica,sans-Serif" font-size="10.00">File</text>
<polyline fill="none" stroke="black" points="29.5,-38.5 63.5,-38.5 "/>
<text text-anchor="middle" x="46.5" y="-26.5" font-family="Helvetica,sans-Serif" font-size="10.00"> </text>
<polyline fill="none" stroke="black" points="29.5,-19.5 63.5,-19.5 "/>
<text text-anchor="middle" x="46.5" y="-7.5" font-family="Helvetica,sans-Serif" font-size="10.00"> </text>
</a>
</g>
</g>
<!-- Node2 -->
<g id="node2" class="node">
<title>Node2</title>
<g id="a_node2"><a xlink:href="classtklb_1_1_heap_buffer.html" target="_top" xlink:title=" ">
<polygon fill="none" stroke="black" points="49.5,-105.5 49.5,-360.5 189.5,-360.5 189.5,-105.5 49.5,-105.5"/>
<text text-anchor="middle" x="119.5" y="-348.5" font-family="Helvetica,sans-Serif" font-size="10.00">tklb::HeapBuffer&lt; char &gt;</text>
<polyline fill="none" stroke="black" points="49.5,-341.5 189.5,-341.5 "/>
<text text-anchor="start" x="57.5" y="-329.5" font-family="Helvetica,sans-Serif" font-size="10.00">+ Alignment</text>
<text text-anchor="start" x="57.5" y="-318.5" font-family="Helvetica,sans-Serif" font-size="10.00">+ ChunkSize</text>
<text text-anchor="start" x="57.5" y="-307.5" font-family="Helvetica,sans-Serif" font-size="10.00">&#45; mAllocator</text>
<text text-anchor="start" x="57.5" y="-296.5" font-family="Helvetica,sans-Serif" font-size="10.00">&#45; mBuf</text>
<text text-anchor="start" x="57.5" y="-285.5" font-family="Helvetica,sans-Serif" font-size="10.00">&#45; mSize</text>
<text text-anchor="start" x="57.5" y="-274.5" font-family="Helvetica,sans-Serif" font-size="10.00">&#45; mRealSize</text>
<polyline fill="none" stroke="black" points="49.5,-267.5 189.5,-267.5 "/>
<text text-anchor="start" x="57.5" y="-255.5" font-family="Helvetica,sans-Serif" font-size="10.00">+ HeapBuffer()</text>
<text text-anchor="start" x="57.5" y="-244.5" font-family="Helvetica,sans-Serif" font-size="10.00">+ HeapBuffer()</text>
<text text-anchor="start" x="57.5" y="-233.5" font-family="Helvetica,sans-Serif" font-size="10.00">+ HeapBuffer()</text>
<text text-anchor="start" x="57.5" y="-222.5" font-family="Helvetica,sans-Serif" font-size="10.00">+ HeapBuffer()</text>
<text text-anchor="start" x="57.5" y="-211.5" font-family="Helvetica,sans-Serif" font-size="10.00">+ HeapBuffer()</text>
<text text-anchor="start" x="57.5" y="-200.5" font-family="Helvetica,sans-Serif" font-size="10.00">+ HeapBuffer()</text>
<text text-anchor="start" x="57.5" y="-189.5" font-family="Helvetica,sans-Serif" font-size="10.00">+ operator=()</text>
<text text-anchor="start" x="57.5" y="-178.5" font-family="Helvetica,sans-Serif" font-size="10.00">+ operator=()</text>
<text text-anchor="start" x="57.5" y="-167.5" font-family="Helvetica,sans-Serif" font-size="10.00">+ ~HeapBuffer()</text>
<text text-anchor="start" x="57.5" y="-156.5" font-family="Helvetica,sans-Serif" font-size="10.00">+ set()</text>
<text text-anchor="start" x="57.5" y="-145.5" font-family="Helvetica,sans-Serif" font-size="10.00">and 28 more...</text>
<text text-anchor="start" x="57.5" y="-134.5" font-family="Helvetica,sans-Serif" font-size="10.00">+ closestChunkSize()</text>
<text text-anchor="start" x="57.5" y="-123.5" font-family="Helvetica,sans-Serif" font-size="10.00">+ isAligned()</text>
<text text-anchor="start" x="57.5" y="-112.5" font-family="Helvetica,sans-Serif" font-size="10.00">&#45; allocate()</text>
</a>
</g>
</g>
<!-- Node2&#45;&gt;Node1 -->
<g id="edge1" class="edge">
<title>Node2&#45;&gt;Node1</title>
<path fill="none" stroke="#404040" d="M73.68,-105.22C69.02,-92.32 64.58,-80.02 60.68,-69.24"/>
<polygon fill="none" stroke="#404040" points="60.61,-69.06 54.81,-64.77 56.54,-57.77 62.34,-62.05 60.61,-69.06"/>
<text text-anchor="middle" x="86.5" y="-79" font-family="Helvetica,sans-Serif" font-size="10.00"> +name</text>
</g>
<!-- Node3 -->
<g id="node3" class="node">
<title>Node3</title>
<g id="a_node3"><a xlink:href="classtklb_1_1_heap_buffer.html" target="_top" xlink:title="Basically a bad std::vector without exceptions which can also work with foreign memory.">
<polygon fill="none" stroke="black" points="58,-408.5 58,-630.5 201,-630.5 201,-408.5 58,-408.5"/>
<text text-anchor="start" x="66" y="-618.5" font-family="Helvetica,sans-Serif" font-size="10.00">tklb::HeapBuffer&lt; T,</text>
<text text-anchor="start" x="66" y="-607.5" font-family="Helvetica,sans-Serif" font-size="10.00"> ALIGNMENT, ALLOCATOR,</text>
<text text-anchor="middle" x="129.5" y="-596.5" font-family="Helvetica,sans-Serif" font-size="10.00"> SIZE &gt;</text>
<polyline fill="none" stroke="black" points="58,-589.5 201,-589.5 "/>
<text text-anchor="middle" x="129.5" y="-577.5" font-family="Helvetica,sans-Serif" font-size="10.00"> </text>
<polyline fill="none" stroke="black" points="58,-570.5 201,-570.5 "/>
<text text-anchor="start" x="66" y="-558.5" font-family="Helvetica,sans-Serif" font-size="10.00">+ HeapBuffer()</text>
<text text-anchor="start" x="66" y="-547.5" font-family="Helvetica,sans-Serif" font-size="10.00">+ HeapBuffer()</text>
<text text-anchor="start" x="66" y="-536.5" font-family="Helvetica,sans-Serif" font-size="10.00">+ HeapBuffer()</text>
<text text-anchor="start" x="66" y="-525.5" font-family="Helvetica,sans-Serif" font-size="10.00">+ HeapBuffer()</text>
<text text-anchor="start" x="66" y="-514.5" font-family="Helvetica,sans-Serif" font-size="10.00">+ HeapBuffer()</text>
<text text-anchor="start" x="66" y="-503.5" font-family="Helvetica,sans-Serif" font-size="10.00">+ operator=()</text>
<text text-anchor="start" x="66" y="-492.5" font-family="Helvetica,sans-Serif" font-size="10.00">+ operator=()</text>
<text text-anchor="start" x="66" y="-481.5" font-family="Helvetica,sans-Serif" font-size="10.00">+ HeapBuffer()</text>
<text text-anchor="start" x="66" y="-470.5" font-family="Helvetica,sans-Serif" font-size="10.00">+ ~HeapBuffer()</text>
<text text-anchor="start" x="66" y="-459.5" font-family="Helvetica,sans-Serif" font-size="10.00">+ set()</text>
<text text-anchor="start" x="66" y="-448.5" font-family="Helvetica,sans-Serif" font-size="10.00">and 28 more...</text>
<text text-anchor="start" x="66" y="-437.5" font-family="Helvetica,sans-Serif" font-size="10.00">+ closestChunkSize()</text>
<text text-anchor="start" x="66" y="-426.5" font-family="Helvetica,sans-Serif" font-size="10.00">+ isAligned()</text>
<text text-anchor="start" x="66" y="-415.5" font-family="Helvetica,sans-Serif" font-size="10.00">&#45; allocate()</text>
</a>
</g>
</g>
<!-- Node3&#45;&gt;Node2 -->
<g id="edge2" class="edge">
<title>Node3&#45;&gt;Node2</title>
<path fill="none" stroke="orange" d="M125.26,-397.88C124.83,-385.65 124.39,-373.2 123.96,-360.9"/>
<polygon fill="orange" stroke="orange" points="121.77,-398.23 125.62,-408.1 128.77,-397.98 121.77,-398.23"/>
<text text-anchor="middle" x="149" y="-382" font-family="Helvetica,sans-Serif" font-size="10.00"> &lt; char &gt;</text>
</g>
<!-- Node4 -->
<g id="node4" class="node">
<title>Node4</title>
<g id="a_node4"><a xlink:title=" ">
<polygon fill="none" stroke="#bfbfbf" points="0,-717 0,-774 45,-774 45,-717 0,-717"/>
<text text-anchor="middle" x="22.5" y="-762" font-family="Helvetica,sans-Serif" font-size="10.00">size_t</text>
<polyline fill="none" stroke="#bfbfbf" points="0,-755 45,-755 "/>
<text text-anchor="middle" x="22.5" y="-743" font-family="Helvetica,sans-Serif" font-size="10.00"> </text>
<polyline fill="none" stroke="#bfbfbf" points="0,-736 45,-736 "/>
<text text-anchor="middle" x="22.5" y="-724" font-family="Helvetica,sans-Serif" font-size="10.00"> </text>
</a>
</g>
</g>
<!-- Node4&#45;&gt;Node1 -->
<g id="edge8" class="edge">
<title>Node4&#45;&gt;Node1</title>
<path fill="none" stroke="#404040" d="M22.77,-716.74C23.74,-627.74 27.72,-341.51 40.5,-105 41.11,-93.63 42.01,-81.3 42.92,-69.99"/>
<polygon fill="none" stroke="#404040" points="42.94,-69.72 39.45,-63.41 43.94,-57.76 47.42,-64.07 42.94,-69.72"/>
<text text-anchor="middle" x="45" y="-382" font-family="Helvetica,sans-Serif" font-size="10.00"> +size</text>
</g>
<!-- Node4&#45;&gt;Node3 -->
<g id="edge3" class="edge">
<title>Node4&#45;&gt;Node3</title>
<path fill="none" stroke="#404040" d="M33.45,-716.65C41.16,-697.45 51.96,-671.46 62.5,-649 63.65,-646.55 64.82,-644.07 66.01,-641.59"/>
<polygon fill="none" stroke="#404040" points="66.1,-641.4 65.12,-634.26 71.33,-630.6 72.32,-637.74 66.1,-641.4"/>
<text text-anchor="middle" x="93.5" y="-663" font-family="Helvetica,sans-Serif" font-size="10.00"> +Alignment</text>
<text text-anchor="middle" x="93.5" y="-652" font-family="Helvetica,sans-Serif" font-size="10.00">+ChunkSize</text>
</g>
<!-- Node5 -->
<g id="node5" class="node">
<title>Node5</title>
<g id="a_node5"><a xlink:href="structtklb_1_1_std_allocator.html" target="_top" xlink:title=" ">
<polygon fill="none" stroke="black" points="73,-689.5 73,-801.5 180,-801.5 180,-689.5 73,-689.5"/>
<text text-anchor="start" x="81" y="-789.5" font-family="Helvetica,sans-Serif" font-size="10.00">tklb::StdAllocator</text>
<text text-anchor="middle" x="126.5" y="-778.5" font-family="Helvetica,sans-Serif" font-size="10.00">&lt; unsigned char &gt;</text>
<polyline fill="none" stroke="black" points="73,-771.5 180,-771.5 "/>
<text text-anchor="middle" x="126.5" y="-759.5" font-family="Helvetica,sans-Serif" font-size="10.00"> </text>
<polyline fill="none" stroke="black" points="73,-752.5 180,-752.5 "/>
<text text-anchor="start" x="81" y="-740.5" font-family="Helvetica,sans-Serif" font-size="10.00">+ StdAllocator()</text>
<text text-anchor="start" x="81" y="-729.5" font-family="Helvetica,sans-Serif" font-size="10.00">+ StdAllocator()</text>
<text text-anchor="start" x="81" y="-718.5" font-family="Helvetica,sans-Serif" font-size="10.00">+ StdAllocator()</text>
<text text-anchor="start" x="81" y="-707.5" font-family="Helvetica,sans-Serif" font-size="10.00">+ allocate()</text>
<text text-anchor="start" x="81" y="-696.5" font-family="Helvetica,sans-Serif" font-size="10.00">+ deallocate()</text>
</a>
</g>
</g>
<!-- Node5&#45;&gt;Node3 -->
<g id="edge4" class="edge">
<title>Node5&#45;&gt;Node3</title>
<path fill="none" stroke="#404040" d="M127.24,-689.42C127.43,-675.17 127.64,-659.25 127.86,-643.04"/>
<polygon fill="none" stroke="#404040" points="127.86,-642.6 123.95,-636.55 128.03,-630.6 131.94,-636.65 127.86,-642.6"/>
<text text-anchor="middle" x="159" y="-657.5" font-family="Helvetica,sans-Serif" font-size="10.00"> &#45;mAllocator</text>
</g>
<!-- Node6 -->
<g id="node6" class="node">
<title>Node6</title>
<g id="a_node6"><a xlink:href="structtklb_1_1_std_allocator.html" target="_top" xlink:title=" ">
<polygon fill="none" stroke="black" points="62,-849.5 62,-950.5 191,-950.5 191,-849.5 62,-849.5"/>
<text text-anchor="middle" x="126.5" y="-938.5" font-family="Helvetica,sans-Serif" font-size="10.00">tklb::StdAllocator&lt; T &gt;</text>
<polyline fill="none" stroke="black" points="62,-931.5 191,-931.5 "/>
<text text-anchor="middle" x="126.5" y="-919.5" font-family="Helvetica,sans-Serif" font-size="10.00"> </text>
<polyline fill="none" stroke="black" points="62,-912.5 191,-912.5 "/>
<text text-anchor="start" x="70" y="-900.5" font-family="Helvetica,sans-Serif" font-size="10.00">+ StdAllocator()</text>
<text text-anchor="start" x="70" y="-889.5" font-family="Helvetica,sans-Serif" font-size="10.00">+ StdAllocator()</text>
<text text-anchor="start" x="70" y="-878.5" font-family="Helvetica,sans-Serif" font-size="10.00">+ StdAllocator()</text>
<text text-anchor="start" x="70" y="-867.5" font-family="Helvetica,sans-Serif" font-size="10.00">+ allocate()</text>
<text text-anchor="start" x="70" y="-856.5" font-family="Helvetica,sans-Serif" font-size="10.00">+ deallocate()</text>
</a>
</g>
</g>
<!-- Node6&#45;&gt;Node5 -->
<g id="edge5" class="edge">
<title>Node6&#45;&gt;Node5</title>
<path fill="none" stroke="orange" d="M126.5,-839.24C126.5,-826.83 126.5,-813.8 126.5,-801.57"/>
<polygon fill="orange" stroke="orange" points="123,-839.49 126.5,-849.49 130,-839.49 123,-839.49"/>
<text text-anchor="middle" x="173.5" y="-823" font-family="Helvetica,sans-Serif" font-size="10.00"> &lt; unsigned char &gt;</text>
</g>
<!-- Node7 -->
<g id="node7" class="node">
<title>Node7</title>
<g id="a_node7"><a xlink:title=" ">
<polygon fill="none" stroke="#bfbfbf" points="198,-717 198,-774 229,-774 229,-717 198,-717"/>
<text text-anchor="middle" x="213.5" y="-762" font-family="Helvetica,sans-Serif" font-size="10.00">T *</text>
<polyline fill="none" stroke="#bfbfbf" points="198,-755 229,-755 "/>
<text text-anchor="middle" x="213.5" y="-743" font-family="Helvetica,sans-Serif" font-size="10.00"> </text>
<polyline fill="none" stroke="#bfbfbf" points="198,-736 229,-736 "/>
<text text-anchor="middle" x="213.5" y="-724" font-family="Helvetica,sans-Serif" font-size="10.00"> </text>
</a>
</g>
</g>
<!-- Node7&#45;&gt;Node3 -->
<g id="edge6" class="edge">
<title>Node7&#45;&gt;Node3</title>
<path fill="none" stroke="#404040" d="M208.83,-716.87C205.15,-697.55 199.34,-671.31 191.5,-649 190.67,-646.63 189.8,-644.24 188.91,-641.84"/>
<polygon fill="none" stroke="#404040" points="188.88,-641.77 182.98,-637.62 184.54,-630.58 190.44,-634.73 188.88,-641.77"/>
<text text-anchor="middle" x="214.5" y="-657.5" font-family="Helvetica,sans-Serif" font-size="10.00"> &#45;mBuf</text>
</g>
<!-- Node8 -->
<g id="node8" class="node">
<title>Node8</title>
<g id="a_node8"><a xlink:title=" ">
<polygon fill="none" stroke="#bfbfbf" points="247,-717 247,-774 324,-774 324,-717 247,-717"/>
<text text-anchor="middle" x="285.5" y="-762" font-family="Helvetica,sans-Serif" font-size="10.00">unsigned int</text>
<polyline fill="none" stroke="#bfbfbf" points="247,-755 324,-755 "/>
<text text-anchor="middle" x="285.5" y="-743" font-family="Helvetica,sans-Serif" font-size="10.00"> </text>
<polyline fill="none" stroke="#bfbfbf" points="247,-736 324,-736 "/>
<text text-anchor="middle" x="285.5" y="-724" font-family="Helvetica,sans-Serif" font-size="10.00"> </text>
</a>
</g>
</g>
<!-- Node8&#45;&gt;Node3 -->
<g id="edge7" class="edge">
<title>Node8&#45;&gt;Node3</title>
<path fill="none" stroke="#404040" d="M272.93,-716.89C263.59,-697.34 249.99,-670.83 235.5,-649 227.3,-636.64 218.13,-624.08 208.7,-611.89"/>
<polygon fill="none" stroke="#404040" points="208.51,-611.64 201.66,-609.39 201.11,-602.2 207.96,-604.45 208.51,-611.64"/>
<text text-anchor="middle" x="277" y="-663" font-family="Helvetica,sans-Serif" font-size="10.00"> &#45;mRealSize</text>
<text text-anchor="middle" x="277" y="-652" font-family="Helvetica,sans-Serif" font-size="10.00">&#45;mSize</text>
</g>
</g>
</svg>
