<?xml version="1.0" encoding="UTF-8" standalone="no"?>
<!DOCTYPE svg PUBLIC "-//W3C//DTD SVG 1.1//EN"
 "http://www.w3.org/Graphics/SVG/1.1/DTD/svg11.dtd">
<!-- Generated by graphviz version 2.50.0 (0)
 -->
<!-- Title: vae::core::Device::AudioThreadWorker::swapBufferInterleaved Pages: 1 -->
<svg width="901pt" height="405pt"
 viewBox="0.00 0.00 901.00 405.06" xmlns="http://www.w3.org/2000/svg" xmlns:xlink="http://www.w3.org/1999/xlink">
<g id="graph0" class="graph" transform="scale(1 1) rotate(0) translate(4 401.06)">
<title>vae::core::Device::AudioThreadWorker::swapBufferInterleaved</title>
<!-- Node1 -->
<g id="node1" class="node">
<title>Node1</title>
<g id="a_node1"><a xlink:title="Called from audio backend to push in interleaved audio data.">
<polygon fill="#bfbfbf" stroke="black" points="0,-129.36 0,-170.36 175,-170.36 175,-129.36 0,-129.36"/>
<text text-anchor="start" x="8" y="-158.36" font-family="Helvetica,sans-Serif" font-size="10.00">vae::core::Device::</text>
<text text-anchor="start" x="8" y="-147.36" font-family="Helvetica,sans-Serif" font-size="10.00">AudioThreadWorker::swapBuffer</text>
<text text-anchor="middle" x="87.5" y="-136.36" font-family="Helvetica,sans-Serif" font-size="10.00">Interleaved</text>
</a>
</g>
</g>
<!-- Node2 -->
<g id="node2" class="node">
<title>Node2</title>
<g id="a_node2"><a xlink:href="classtklb_1_1_resampler_speex_tpl.html#a4c850eae9c52572059bf899e672215e2" target="_top" xlink:title=" ">
<polygon fill="none" stroke="black" points="221.5,-254.86 221.5,-284.86 360.5,-284.86 360.5,-254.86 221.5,-254.86"/>
<text text-anchor="start" x="229.5" y="-272.86" font-family="Helvetica,sans-Serif" font-size="10.00">tklb::ResamplerSpeexTpl</text>
<text text-anchor="middle" x="291" y="-261.86" font-family="Helvetica,sans-Serif" font-size="10.00">::isInitialized</text>
</a>
</g>
</g>
<!-- Node1&#45;&gt;Node2 -->
<g id="edge1" class="edge">
<title>Node1&#45;&gt;Node2</title>
<path fill="none" stroke="midnightblue" d="M110.3,-170.69C133.59,-191.94 172.39,-224.61 211,-244.86 215.24,-247.08 219.7,-249.15 224.27,-251.06"/>
<polygon fill="midnightblue" stroke="midnightblue" points="223.16,-254.39 233.75,-254.78 225.72,-247.87 223.16,-254.39"/>
</g>
<!-- Node3 -->
<g id="node3" class="node">
<title>Node3</title>
<g id="a_node3"><a xlink:href="classtklb_1_1_audio_ring_buffer_tpl.html#a73b1992dd37fc22852de4a5adb6a355b" target="_top" xlink:title="Pops a number of elements in the buffer provided.">
<polygon fill="none" stroke="black" points="211,-216.36 211,-235.36 371,-235.36 371,-216.36 211,-216.36"/>
<text text-anchor="middle" x="291" y="-223.36" font-family="Helvetica,sans-Serif" font-size="10.00">tklb::AudioRingBufferTpl::pop</text>
</a>
</g>
</g>
<!-- Node1&#45;&gt;Node3 -->
<g id="edge2" class="edge">
<title>Node1&#45;&gt;Node3</title>
<path fill="none" stroke="midnightblue" d="M133.71,-170.41C156.63,-180.48 185.05,-192.44 211,-201.86 222.15,-205.91 234.35,-209.85 245.75,-213.32"/>
<polygon fill="midnightblue" stroke="midnightblue" points="244.93,-216.73 255.52,-216.25 246.94,-210.03 244.93,-216.73"/>
</g>
<!-- Node11 -->
<g id="node11" class="node">
<title>Node11</title>
<g id="a_node11"><a xlink:href="classtklb_1_1_resampler_speex_tpl.html#ad536684ea5e815d1dd7d967127ecfb95" target="_top" xlink:title="Resample function Make sure the out buffer has enough space.">
<polygon fill="none" stroke="black" points="407,-186.86 407,-216.86 546,-216.86 546,-186.86 407,-186.86"/>
<text text-anchor="start" x="415" y="-204.86" font-family="Helvetica,sans-Serif" font-size="10.00">tklb::ResamplerSpeexTpl</text>
<text text-anchor="middle" x="476.5" y="-193.86" font-family="Helvetica,sans-Serif" font-size="10.00">::process</text>
</a>
</g>
</g>
<!-- Node1&#45;&gt;Node11 -->
<g id="edge13" class="edge">
<title>Node1&#45;&gt;Node11</title>
<path fill="none" stroke="midnightblue" d="M175.35,-161.53C241.77,-170.45 332.58,-182.66 396.87,-191.29"/>
<polygon fill="midnightblue" stroke="midnightblue" points="396.57,-194.79 406.95,-192.65 397.5,-187.85 396.57,-194.79"/>
</g>
<!-- Node13 -->
<g id="node13" class="node">
<title>Node13</title>
<g id="a_node13"><a xlink:href="classtklb_1_1_audio_ring_buffer_tpl.html#a4a1f2614ea727a4c26bd8936fa9e97d9" target="_top" xlink:title="Adds validSize() amount of frames to the buffer.">
<polygon fill="none" stroke="black" points="408.5,-137.86 408.5,-167.86 544.5,-167.86 544.5,-137.86 408.5,-137.86"/>
<text text-anchor="start" x="416.5" y="-155.86" font-family="Helvetica,sans-Serif" font-size="10.00">tklb::AudioRingBufferTpl</text>
<text text-anchor="middle" x="476.5" y="-144.86" font-family="Helvetica,sans-Serif" font-size="10.00">::push</text>
</a>
</g>
</g>
<!-- Node1&#45;&gt;Node13 -->
<g id="edge18" class="edge">
<title>Node1&#45;&gt;Node13</title>
<path fill="none" stroke="midnightblue" d="M175.35,-150.53C242.3,-151.05 334.02,-151.76 398.4,-152.26"/>
<polygon fill="midnightblue" stroke="midnightblue" points="398.46,-155.76 408.49,-152.34 398.51,-148.76 398.46,-155.76"/>
</g>
<!-- Node14 -->
<g id="node14" class="node">
<title>Node14</title>
<g id="a_node14"><a xlink:href="classtklb_1_1_audio_buffer_tpl.html#a86cec40e8c99a90d93db996d92ddfece" target="_top" xlink:title="Returns the length of actually valid audio in the buffer.">
<polygon fill="none" stroke="black" points="768,-0.86 768,-30.86 882,-30.86 882,-0.86 768,-0.86"/>
<text text-anchor="start" x="776" y="-18.86" font-family="Helvetica,sans-Serif" font-size="10.00">tklb::AudioBufferTpl</text>
<text text-anchor="middle" x="825" y="-7.86" font-family="Helvetica,sans-Serif" font-size="10.00">::validSize</text>
</a>
</g>
</g>
<!-- Node1&#45;&gt;Node14 -->
<g id="edge32" class="edge">
<title>Node1&#45;&gt;Node14</title>
<path fill="none" stroke="midnightblue" d="M129.42,-129.24C152.87,-117.99 183.11,-104.45 211,-94.86 371.55,-39.64 413.45,-24.23 582,-3.86 641.07,3.28 708.74,-1.13 757.47,-6.51"/>
<polygon fill="midnightblue" stroke="midnightblue" points="757.24,-10.01 767.58,-7.67 758.04,-3.05 757.24,-10.01"/>
</g>
<!-- Node15 -->
<g id="node15" class="node">
<title>Node15</title>
<g id="a_node15"><a xlink:href="classtklb_1_1_audio_buffer_tpl.html#afbd8ceec9c2a5a6818543ff2d522e060" target="_top" xlink:title="Puts the interleaved contents in the target buffer.">
<polygon fill="none" stroke="black" points="594.5,-44.86 594.5,-74.86 708.5,-74.86 708.5,-44.86 594.5,-44.86"/>
<text text-anchor="start" x="602.5" y="-62.86" font-family="Helvetica,sans-Serif" font-size="10.00">tklb::AudioBufferTpl</text>
<text text-anchor="middle" x="651.5" y="-51.86" font-family="Helvetica,sans-Serif" font-size="10.00">::putInterleaved</text>
</a>
</g>
</g>
<!-- Node1&#45;&gt;Node15 -->
<g id="edge22" class="edge">
<title>Node1&#45;&gt;Node15</title>
<path fill="none" stroke="midnightblue" d="M175.05,-131.58C187.11,-129.22 199.35,-126.91 211,-124.86 342.95,-101.66 498.16,-80.02 584.33,-68.5"/>
<polygon fill="midnightblue" stroke="midnightblue" points="585.04,-71.94 594.49,-67.15 584.12,-65 585.04,-71.94"/>
</g>
<!-- Node17 -->
<g id="node17" class="node">
<title>Node17</title>
<g id="a_node17"><a xlink:href="classtklb_1_1_audio_buffer_tpl.html#a8e7b5b551a8989f9b06a92207c75b47e" target="_top" xlink:title="Set multiple channels from an interleaved array.">
<polygon fill="none" stroke="black" points="593,-93.86 593,-123.86 710,-123.86 710,-93.86 593,-93.86"/>
<text text-anchor="start" x="601" y="-111.86" font-family="Helvetica,sans-Serif" font-size="10.00">tklb::AudioBufferTpl</text>
<text text-anchor="middle" x="651.5" y="-100.86" font-family="Helvetica,sans-Serif" font-size="10.00">::setFromInterleaved</text>
</a>
</g>
</g>
<!-- Node1&#45;&gt;Node17 -->
<g id="edge27" class="edge">
<title>Node1&#45;&gt;Node17</title>
<path fill="none" stroke="midnightblue" d="M175.08,-143.54C287.31,-135.36 480.68,-121.25 582.79,-113.8"/>
<polygon fill="midnightblue" stroke="midnightblue" points="583.26,-117.27 592.98,-113.06 582.75,-110.29 583.26,-117.27"/>
</g>
<!-- Node4 -->
<g id="node4" class="node">
<title>Node4</title>
<g id="a_node4"><a xlink:href="classtklb_1_1_audio_ring_buffer_tpl.html#a376759b29135ae4deeaa61eca9a0ea4e" target="_top" xlink:title="Puts a number of elements in the buffer provided.">
<polygon fill="none" stroke="black" points="408.5,-270.86 408.5,-300.86 544.5,-300.86 544.5,-270.86 408.5,-270.86"/>
<text text-anchor="start" x="416.5" y="-288.86" font-family="Helvetica,sans-Serif" font-size="10.00">tklb::AudioRingBufferTpl</text>
<text text-anchor="middle" x="476.5" y="-277.86" font-family="Helvetica,sans-Serif" font-size="10.00">::peek</text>
</a>
</g>
</g>
<!-- Node3&#45;&gt;Node4 -->
<g id="edge3" class="edge">
<title>Node3&#45;&gt;Node4</title>
<path fill="none" stroke="midnightblue" d="M333.67,-235.43C345.79,-238.48 359,-242.06 371,-245.86 390.38,-252 411.37,-259.8 429.42,-266.88"/>
<polygon fill="midnightblue" stroke="midnightblue" points="428.53,-270.29 439.12,-270.72 431.11,-263.78 428.53,-270.29"/>
</g>
<!-- Node5 -->
<g id="node5" class="node">
<title>Node5</title>
<g id="a_node5"><a xlink:href="classtklb_1_1_audio_buffer_tpl.html#ab6e5250746ca3784a568591a3ffdbc12" target="_top" xlink:title="Set a single channel from an array.">
<polygon fill="none" stroke="black" points="584,-181.36 584,-200.36 719,-200.36 719,-181.36 584,-181.36"/>
<text text-anchor="middle" x="651.5" y="-188.36" font-family="Helvetica,sans-Serif" font-size="10.00">tklb::AudioBufferTpl::set</text>
</a>
</g>
</g>
<!-- Node4&#45;&gt;Node5 -->
<g id="edge4" class="edge">
<title>Node4&#45;&gt;Node5</title>
<path fill="none" stroke="midnightblue" d="M504.91,-270.81C537.52,-252.9 591.58,-223.22 623.85,-205.5"/>
<polygon fill="midnightblue" stroke="midnightblue" points="625.64,-208.5 632.72,-200.62 622.27,-202.37 625.64,-208.5"/>
</g>
<!-- Node9 -->
<g id="node9" class="node">
<title>Node9</title>
<g id="a_node9"><a xlink:href="classtklb_1_1_audio_buffer_tpl.html#af6df8d7e6840eee3f84807bd1662c3ed" target="_top" xlink:title="Returns the allocated length of the buffer.">
<polygon fill="none" stroke="black" points="768,-262.86 768,-292.86 882,-292.86 882,-262.86 768,-262.86"/>
<text text-anchor="start" x="776" y="-280.86" font-family="Helvetica,sans-Serif" font-size="10.00">tklb::AudioBufferTpl</text>
<text text-anchor="middle" x="825" y="-269.86" font-family="Helvetica,sans-Serif" font-size="10.00">::size</text>
</a>
</g>
</g>
<!-- Node4&#45;&gt;Node9 -->
<g id="edge12" class="edge">
<title>Node4&#45;&gt;Node9</title>
<path fill="none" stroke="midnightblue" d="M488.25,-300.89C505.21,-323.15 540.53,-363.95 582,-379.86 639.68,-401.98 663.87,-403.36 721,-379.86 759.35,-364.08 791,-326.36 808.69,-301.48"/>
<polygon fill="midnightblue" stroke="midnightblue" points="811.77,-303.18 814.56,-292.96 806.01,-299.21 811.77,-303.18"/>
</g>
<!-- Node10 -->
<g id="node10" class="node">
<title>Node10</title>
<g id="a_node10"><a xlink:href="classtklb_1_1_audio_buffer_tpl.html#ab4e27a0d2eca612dcfc2a6a1c8678428" target="_top" xlink:title="Set the amount of valid samples currently in the buffer This is mostly a convenience flag since the a...">
<polygon fill="none" stroke="black" points="594.5,-306.86 594.5,-336.86 708.5,-336.86 708.5,-306.86 594.5,-306.86"/>
<text text-anchor="start" x="602.5" y="-324.86" font-family="Helvetica,sans-Serif" font-size="10.00">tklb::AudioBufferTpl</text>
<text text-anchor="middle" x="651.5" y="-313.86" font-family="Helvetica,sans-Serif" font-size="10.00">::setValidSize</text>
</a>
</g>
</g>
<!-- Node4&#45;&gt;Node10 -->
<g id="edge9" class="edge">
<title>Node4&#45;&gt;Node10</title>
<path fill="none" stroke="midnightblue" d="M544.88,-299.88C557.96,-302.6 571.65,-305.45 584.68,-308.16"/>
<polygon fill="midnightblue" stroke="midnightblue" points="583.99,-311.59 594.49,-310.21 585.42,-304.74 583.99,-311.59"/>
</g>
<!-- Node6 -->
<g id="node6" class="node">
<title>Node6</title>
<g id="a_node6"><a xlink:href="namespacetklb_1_1memory.html#ab89ec197028f903f4ea125eae46c4a10" target="_top" xlink:title="memcpy wrapper">
<polygon fill="none" stroke="black" points="769,-181.36 769,-200.36 881,-200.36 881,-181.36 769,-181.36"/>
<text text-anchor="middle" x="825" y="-188.36" font-family="Helvetica,sans-Serif" font-size="10.00">tklb::memory::copy</text>
</a>
</g>
</g>
<!-- Node5&#45;&gt;Node6 -->
<g id="edge5" class="edge">
<title>Node5&#45;&gt;Node6</title>
<path fill="none" stroke="midnightblue" d="M719.3,-190.86C732.21,-190.86 745.73,-190.86 758.59,-190.86"/>
<polygon fill="midnightblue" stroke="midnightblue" points="758.75,-194.36 768.75,-190.86 758.75,-187.36 758.75,-194.36"/>
</g>
<!-- Node7 -->
<g id="node7" class="node">
<title>Node7</title>
<g id="a_node7"><a xlink:href="classtklb_1_1_audio_buffer_tpl.html#aee0540e90ae2790f9a809917bc5a04fd" target="_top" xlink:title=" ">
<polygon fill="none" stroke="black" points="757,-99.36 757,-118.36 893,-118.36 893,-99.36 757,-99.36"/>
<text text-anchor="middle" x="825" y="-106.36" font-family="Helvetica,sans-Serif" font-size="10.00">tklb::AudioBufferTpl::get</text>
</a>
</g>
</g>
<!-- Node5&#45;&gt;Node7 -->
<g id="edge6" class="edge">
<title>Node5&#45;&gt;Node7</title>
<path fill="none" stroke="midnightblue" d="M668.43,-181.24C688.61,-169.28 724.66,-148.62 757,-133.86 766.22,-129.65 776.37,-125.58 785.93,-122"/>
<polygon fill="midnightblue" stroke="midnightblue" points="787.42,-125.18 795.6,-118.44 785.01,-118.6 787.42,-125.18"/>
</g>
<!-- Node8 -->
<g id="node8" class="node">
<title>Node8</title>
<g id="a_node8"><a xlink:href="namespacetklb.html#a3080595da18d742645ec41d61828a426" target="_top" xlink:title=" ">
<polygon fill="none" stroke="black" points="795,-143.36 795,-162.36 855,-162.36 855,-143.36 795,-143.36"/>
<text text-anchor="middle" x="825" y="-150.36" font-family="Helvetica,sans-Serif" font-size="10.00">tklb::min</text>
</a>
</g>
</g>
<!-- Node5&#45;&gt;Node8 -->
<g id="edge7" class="edge">
<title>Node5&#45;&gt;Node8</title>
<path fill="none" stroke="midnightblue" d="M695.78,-181.27C723.11,-175.21 758.14,-167.45 784.68,-161.57"/>
<polygon fill="midnightblue" stroke="midnightblue" points="785.76,-164.92 794.76,-159.34 784.24,-158.08 785.76,-164.92"/>
</g>
<!-- Node5&#45;&gt;Node9 -->
<g id="edge8" class="edge">
<title>Node5&#45;&gt;Node9</title>
<path fill="none" stroke="midnightblue" d="M684.09,-200.37C695.89,-204.32 709.27,-209.3 721,-214.86 746.57,-226.99 773.82,-243.85 793.86,-257.08"/>
<polygon fill="midnightblue" stroke="midnightblue" points="792,-260.04 802.26,-262.68 795.89,-254.22 792,-260.04"/>
</g>
<!-- Node10&#45;&gt;Node8 -->
<g id="edge10" class="edge">
<title>Node10&#45;&gt;Node8</title>
<path fill="none" stroke="midnightblue" d="M708.79,-307.46C713.29,-304.79 717.46,-301.62 721,-297.86 760.96,-255.49 715.78,-213 757,-171.86 764.45,-164.43 774.57,-159.85 784.69,-157.05"/>
<polygon fill="midnightblue" stroke="midnightblue" points="785.72,-160.41 794.71,-154.8 784.19,-153.58 785.72,-160.41"/>
</g>
<!-- Node10&#45;&gt;Node9 -->
<g id="edge11" class="edge">
<title>Node10&#45;&gt;Node9</title>
<path fill="none" stroke="midnightblue" d="M708.66,-307.45C724.35,-303.43 741.55,-299.01 757.77,-294.85"/>
<polygon fill="midnightblue" stroke="midnightblue" points="758.9,-298.17 767.72,-292.3 757.16,-291.39 758.9,-298.17"/>
</g>
<!-- Node11&#45;&gt;Node5 -->
<g id="edge16" class="edge">
<title>Node11&#45;&gt;Node5</title>
<path fill="none" stroke="midnightblue" d="M546.37,-197.48C555.34,-196.91 564.57,-196.32 573.66,-195.75"/>
<polygon fill="midnightblue" stroke="midnightblue" points="574.08,-199.23 583.84,-195.1 573.64,-192.24 574.08,-199.23"/>
</g>
<!-- Node11&#45;&gt;Node8 -->
<g id="edge15" class="edge">
<title>Node11&#45;&gt;Node8</title>
<path fill="none" stroke="midnightblue" d="M522.3,-186.85C540.61,-181.29 562.13,-175.45 582,-171.86 652.7,-159.07 736.57,-154.89 784.7,-153.52"/>
<polygon fill="midnightblue" stroke="midnightblue" points="784.79,-157.02 794.7,-153.26 784.61,-150.02 784.79,-157.02"/>
</g>
<!-- Node11&#45;&gt;Node9 -->
<g id="edge17" class="edge">
<title>Node11&#45;&gt;Node9</title>
<path fill="none" stroke="midnightblue" d="M499.6,-217.08C514.31,-228.13 533.22,-244.18 546,-261.86 570.04,-295.11 547.8,-324.2 582,-346.86 633.5,-380.98 661.89,-364.83 721,-346.86 751.27,-337.66 780.74,-316.27 800.35,-299.73"/>
<polygon fill="midnightblue" stroke="midnightblue" points="802.86,-302.18 808.12,-292.99 798.27,-296.9 802.86,-302.18"/>
</g>
<!-- Node12 -->
<g id="node12" class="node">
<title>Node12</title>
<g id="a_node12"><a xlink:href="classtklb_1_1_resampler_speex_tpl.html#a5b4b65f32dbcec425871cc26384d4643" target="_top" xlink:title="Estimate how many sample will be emitted in the next step.">
<polygon fill="none" stroke="black" points="582,-257.86 582,-287.86 721,-287.86 721,-257.86 582,-257.86"/>
<text text-anchor="start" x="590" y="-275.86" font-family="Helvetica,sans-Serif" font-size="10.00">tklb::ResamplerSpeexTpl</text>
<text text-anchor="middle" x="651.5" y="-264.86" font-family="Helvetica,sans-Serif" font-size="10.00">::estimateOut</text>
</a>
</g>
</g>
<!-- Node11&#45;&gt;Node12 -->
<g id="edge14" class="edge">
<title>Node11&#45;&gt;Node12</title>
<path fill="none" stroke="midnightblue" d="M514.19,-216.92C540.57,-227.74 576.32,-242.41 604.59,-254.02"/>
<polygon fill="midnightblue" stroke="midnightblue" points="603.28,-257.27 613.86,-257.82 605.94,-250.79 603.28,-257.27"/>
</g>
<!-- Node13&#45;&gt;Node5 -->
<g id="edge19" class="edge">
<title>Node13&#45;&gt;Node5</title>
<path fill="none" stroke="midnightblue" d="M544.88,-167.66C562.25,-171.47 580.69,-175.53 597.23,-179.16"/>
<polygon fill="midnightblue" stroke="midnightblue" points="596.73,-182.63 607.25,-181.36 598.23,-175.79 596.73,-182.63"/>
</g>
<!-- Node13&#45;&gt;Node9 -->
<g id="edge20" class="edge">
<title>Node13&#45;&gt;Node9</title>
<path fill="none" stroke="midnightblue" d="M526.09,-167.99C532.97,-170.87 539.8,-174.16 546,-177.86 564.38,-188.83 563.21,-199.59 582,-209.86 638.31,-240.63 659.23,-231.5 721,-248.86 733.83,-252.46 747.55,-256.33 760.66,-260.02"/>
<polygon fill="midnightblue" stroke="midnightblue" points="759.97,-263.46 770.54,-262.8 761.87,-256.72 759.97,-263.46"/>
</g>
<!-- Node13&#45;&gt;Node14 -->
<g id="edge21" class="edge">
<title>Node13&#45;&gt;Node14</title>
<path fill="none" stroke="midnightblue" d="M485.71,-137.58C500.81,-111.25 535.71,-57.92 582,-34.86 636.52,-7.7 706.63,-5.15 757.33,-8.08"/>
<polygon fill="midnightblue" stroke="midnightblue" points="757.31,-11.59 767.52,-8.76 757.78,-4.6 757.31,-11.59"/>
</g>
<!-- Node15&#45;&gt;Node7 -->
<g id="edge24" class="edge">
<title>Node15&#45;&gt;Node7</title>
<path fill="none" stroke="midnightblue" d="M704.85,-74.92C721.51,-79.71 740.03,-85.02 757,-89.86 764.6,-92.03 772.69,-94.33 780.53,-96.55"/>
<polygon fill="midnightblue" stroke="midnightblue" points="779.68,-99.95 790.25,-99.31 781.59,-93.22 779.68,-99.95"/>
</g>
<!-- Node15&#45;&gt;Node8 -->
<g id="edge25" class="edge">
<title>Node15&#45;&gt;Node8</title>
<path fill="none" stroke="midnightblue" d="M703.4,-74.98C709.59,-77.8 715.61,-81.08 721,-84.86 741.4,-99.18 736.65,-113.47 757,-127.86 765.44,-133.83 775.48,-138.56 785.18,-142.22"/>
<polygon fill="midnightblue" stroke="midnightblue" points="784.1,-145.55 794.7,-145.54 786.4,-138.94 784.1,-145.55"/>
</g>
<!-- Node15&#45;&gt;Node14 -->
<g id="edge26" class="edge">
<title>Node15&#45;&gt;Node14</title>
<path fill="none" stroke="midnightblue" d="M708.66,-45.45C724.35,-41.43 741.55,-37.01 757.77,-32.85"/>
<polygon fill="midnightblue" stroke="midnightblue" points="758.9,-36.17 767.72,-30.3 757.16,-29.39 758.9,-36.17"/>
</g>
<!-- Node16 -->
<g id="node16" class="node">
<title>Node16</title>
<g id="a_node16"><a xlink:href="classtklb_1_1_audio_buffer_tpl.html#a7859b26033cbb893c2ea7acea54d8013" target="_top" xlink:title="Returns the amount of channels.">
<polygon fill="none" stroke="black" points="768,-49.86 768,-79.86 882,-79.86 882,-49.86 768,-49.86"/>
<text text-anchor="start" x="776" y="-67.86" font-family="Helvetica,sans-Serif" font-size="10.00">tklb::AudioBufferTpl</text>
<text text-anchor="middle" x="825" y="-56.86" font-family="Helvetica,sans-Serif" font-size="10.00">::channels</text>
</a>
</g>
</g>
<!-- Node15&#45;&gt;Node16 -->
<g id="edge23" class="edge">
<title>Node15&#45;&gt;Node16</title>
<path fill="none" stroke="midnightblue" d="M708.66,-61.5C724.2,-61.95 741.23,-62.45 757.31,-62.92"/>
<polygon fill="midnightblue" stroke="midnightblue" points="757.62,-66.43 767.72,-63.22 757.82,-59.43 757.62,-66.43"/>
</g>
<!-- Node17&#45;&gt;Node7 -->
<g id="edge29" class="edge">
<title>Node17&#45;&gt;Node7</title>
<path fill="none" stroke="midnightblue" d="M710.08,-108.86C721.79,-108.86 734.29,-108.86 746.55,-108.86"/>
<polygon fill="midnightblue" stroke="midnightblue" points="746.78,-112.36 756.78,-108.86 746.78,-105.36 746.78,-112.36"/>
</g>
<!-- Node17&#45;&gt;Node8 -->
<g id="edge30" class="edge">
<title>Node17&#45;&gt;Node8</title>
<path fill="none" stroke="midnightblue" d="M710.08,-123.63C734.72,-129.96 762.86,-137.17 785,-142.85"/>
<polygon fill="midnightblue" stroke="midnightblue" points="784.16,-146.25 794.72,-145.35 785.9,-139.47 784.16,-146.25"/>
</g>
<!-- Node17&#45;&gt;Node9 -->
<g id="edge31" class="edge">
<title>Node17&#45;&gt;Node9</title>
<path fill="none" stroke="midnightblue" d="M669.69,-124.08C683.73,-136.64 703.97,-155.08 721,-171.86 737.57,-188.19 740.84,-193.13 757,-209.86 771.82,-225.2 788.68,-242.31 801.78,-255.53"/>
<polygon fill="midnightblue" stroke="midnightblue" points="799.48,-258.18 809.01,-262.82 804.45,-253.25 799.48,-258.18"/>
</g>
<!-- Node17&#45;&gt;Node16 -->
<g id="edge28" class="edge">
<title>Node17&#45;&gt;Node16</title>
<path fill="none" stroke="midnightblue" d="M710.08,-94.09C725.48,-90.14 742.23,-85.84 758.03,-81.78"/>
<polygon fill="midnightblue" stroke="midnightblue" points="758.92,-85.17 767.73,-79.3 757.18,-78.39 758.92,-85.17"/>
</g>
</g>
</svg>
