<?xml version="1.0" encoding="UTF-8" standalone="no"?>
<!DOCTYPE svg PUBLIC "-//W3C//DTD SVG 1.1//EN"
 "http://www.w3.org/Graphics/SVG/1.1/DTD/svg11.dtd">
<!-- Generated by graphviz version 2.50.0 (0)
 -->
<!-- Title: vae::core::Listener Pages: 1 -->
<svg width="234pt" height="193pt"
 viewBox="0.00 0.00 234.00 193.00" xmlns="http://www.w3.org/2000/svg" xmlns:xlink="http://www.w3.org/1999/xlink">
<g id="graph0" class="graph" transform="scale(1 1) rotate(0) translate(4 189)">
<title>vae::core::Listener</title>
<!-- Node1 -->
<g id="node1" class="node">
<title>Node1</title>
<g id="a_node1"><a xlink:title=" ">
<polygon fill="#bfbfbf" stroke="black" points="47.5,-0.5 47.5,-57.5 154.5,-57.5 154.5,-0.5 47.5,-0.5"/>
<text text-anchor="middle" x="101" y="-45.5" font-family="Helvetica,sans-Serif" font-size="10.00">vae::core::Listener</text>
<polyline fill="none" stroke="black" points="47.5,-38.5 154.5,-38.5 "/>
<text text-anchor="middle" x="101" y="-26.5" font-family="Helvetica,sans-Serif" font-size="10.00"> </text>
<polyline fill="none" stroke="black" points="47.5,-19.5 154.5,-19.5 "/>
<text text-anchor="middle" x="101" y="-7.5" font-family="Helvetica,sans-Serif" font-size="10.00"> </text>
</a>
</g>
</g>
<!-- Node2 -->
<g id="node2" class="node">
<title>Node2</title>
<g id="a_node2"><a xlink:title=" ">
<polygon fill="none" stroke="#bfbfbf" points="0,-127.5 0,-184.5 40,-184.5 40,-127.5 0,-127.5"/>
<text text-anchor="middle" x="20" y="-172.5" font-family="Helvetica,sans-Serif" font-size="10.00">vec3</text>
<polyline fill="none" stroke="#bfbfbf" points="0,-165.5 40,-165.5 "/>
<text text-anchor="middle" x="20" y="-153.5" font-family="Helvetica,sans-Serif" font-size="10.00"> </text>
<polyline fill="none" stroke="#bfbfbf" points="0,-146.5 40,-146.5 "/>
<text text-anchor="middle" x="20" y="-134.5" font-family="Helvetica,sans-Serif" font-size="10.00"> </text>
</a>
</g>
</g>
<!-- Node2&#45;&gt;Node1 -->
<g id="edge1" class="edge">
<title>Node2&#45;&gt;Node1</title>
<path fill="none" stroke="#404040" d="M26.48,-127.45C31.09,-111.5 38.37,-91.56 49,-76 51.24,-72.72 53.77,-69.51 56.48,-66.43"/>
<polygon fill="none" stroke="#404040" points="56.69,-66.2 57.96,-59.11 65,-57.55 63.73,-64.65 56.69,-66.2"/>
<text text-anchor="middle" x="73" y="-101" font-family="Helvetica,sans-Serif" font-size="10.00"> +front</text>
<text text-anchor="middle" x="73" y="-90" font-family="Helvetica,sans-Serif" font-size="10.00">+position</text>
<text text-anchor="middle" x="73" y="-79" font-family="Helvetica,sans-Serif" font-size="10.00">+up</text>
</g>
<!-- Node3 -->
<g id="node3" class="node">
<title>Node3</title>
<g id="a_node3"><a xlink:title=" ">
<polygon fill="none" stroke="#bfbfbf" points="58.5,-127.5 58.5,-184.5 143.5,-184.5 143.5,-127.5 58.5,-127.5"/>
<text text-anchor="middle" x="101" y="-172.5" font-family="Helvetica,sans-Serif" font-size="10.00">unsigned char</text>
<polyline fill="none" stroke="#bfbfbf" points="58.5,-165.5 143.5,-165.5 "/>
<text text-anchor="middle" x="101" y="-153.5" font-family="Helvetica,sans-Serif" font-size="10.00"> </text>
<polyline fill="none" stroke="#bfbfbf" points="58.5,-146.5 143.5,-146.5 "/>
<text text-anchor="middle" x="101" y="-134.5" font-family="Helvetica,sans-Serif" font-size="10.00"> </text>
</a>
</g>
</g>
<!-- Node3&#45;&gt;Node1 -->
<g id="edge2" class="edge">
<title>Node3&#45;&gt;Node1</title>
<path fill="none" stroke="#404040" d="M101,-127.26C101,-110.35 101,-88.46 101,-69.73"/>
<polygon fill="none" stroke="#404040" points="101,-69.66 97,-63.66 101,-57.66 105,-63.66 101,-69.66"/>
<text text-anchor="middle" x="111.5" y="-90" font-family="Helvetica,sans-Serif" font-size="10.00"> +id</text>
</g>
<!-- Node4 -->
<g id="node4" class="node">
<title>Node4</title>
<g id="a_node4"><a xlink:title=" ">
<polygon fill="none" stroke="#bfbfbf" points="162,-127.5 162,-184.5 200,-184.5 200,-127.5 162,-127.5"/>
<text text-anchor="middle" x="181" y="-172.5" font-family="Helvetica,sans-Serif" font-size="10.00">char</text>
<polyline fill="none" stroke="#bfbfbf" points="162,-165.5 200,-165.5 "/>
<text text-anchor="middle" x="181" y="-153.5" font-family="Helvetica,sans-Serif" font-size="10.00"> </text>
<polyline fill="none" stroke="#bfbfbf" points="162,-146.5 200,-146.5 "/>
<text text-anchor="middle" x="181" y="-134.5" font-family="Helvetica,sans-Serif" font-size="10.00"> </text>
</a>
</g>
</g>
<!-- Node4&#45;&gt;Node1 -->
<g id="edge3" class="edge">
<title>Node4&#45;&gt;Node1</title>
<path fill="none" stroke="#404040" d="M163.25,-127.26C152.06,-109.78 137.47,-86.99 125.23,-67.86"/>
<polygon fill="none" stroke="#404040" points="125.17,-67.77 118.57,-64.87 118.7,-57.66 125.31,-60.56 125.17,-67.77"/>
<text text-anchor="middle" x="188" y="-90" font-family="Helvetica,sans-Serif" font-size="10.00"> +configuration</text>
</g>
</g>
</svg>
