<?xml version="1.0" encoding="UTF-8" standalone="no"?>
<!DOCTYPE svg PUBLIC "-//W3C//DTD SVG 1.1//EN"
 "http://www.w3.org/Graphics/SVG/1.1/DTD/svg11.dtd">
<!-- Generated by graphviz version 2.50.0 (0)
 -->
<!-- Title: vae::EngineConfig Pages: 1 -->
<!--zoomable 353 -->
<svg id="main" version="1.1" xmlns="http://www.w3.org/2000/svg" xmlns:xlink="http://www.w3.org/1999/xlink" xml:space="preserve" onload="init(evt)">
<style type="text/css"><![CDATA[
.edge:hover path { stroke: red; }
.edge:hover polygon { stroke: red; fill: red; }
]]></style>
<script type="text/javascript"><![CDATA[
var edges = document.getElementsByTagName('g');
if (edges && edges.length) {
  for (var i=0;i<edges.length;i++) {
    if (edges[i].id.substr(0,4)=='edge') {
      edges[i].setAttribute('class','edge');
    }
  }
}
]]></script>
        <defs>
                <circle id="rim" cx="0" cy="0" r="7"/>
                <circle id="rim2" cx="0" cy="0" r="3.5"/>
                <g id="zoomPlus">
                        <use xlink:href="#rim" fill="#404040">
                                <set attributeName="fill" to="#808080" begin="zoomplus.mouseover" end="zoomplus.mouseout"/>
                        </use>
                        <path d="M-4,0h8M0,-4v8" fill="none" stroke="white" stroke-width="1.5" pointer-events="none"/>
                </g>
                <g id="zoomMin">
                        <use xlink:href="#rim" fill="#404040">
                                <set attributeName="fill" to="#808080" begin="zoomminus.mouseover" end="zoomminus.mouseout"/>
                        </use>
                        <path d="M-4,0h8" fill="none" stroke="white" stroke-width="1.5" pointer-events="none"/>
                </g>
                <g id="dirArrow">
                        <path fill="none" stroke="white" stroke-width="1.5" d="M0,-3.0v7 M-2.5,-0.5L0,-3.0L2.5,-0.5"/>
                </g>
               <g id="resetDef">
                       <use xlink:href="#rim2" fill="#404040">
                               <set attributeName="fill" to="#808080" begin="reset.mouseover" end="reset.mouseout"/>
                       </use>
               </g>
        </defs>

<script type="text/javascript">
var viewWidth = 792;
var viewHeight = 353;
var sectionId = 'dynsection-0';
</script>
<script xlink:href="svgpan.js"/>
<svg id="graph" class="graph">
<g id="viewport">
<title>vae::EngineConfig</title>
<!-- Node1 -->
<g id="node1" class="node">
<title>Node1</title>
<g id="a_node1"><a xlink:title="Settings for the engine defined at EnginePimpl::init.">
<polygon fill="#bfbfbf" stroke="black" points="241.5,-0.5 241.5,-57.5 346.5,-57.5 346.5,-0.5 241.5,-0.5"/>
<text text-anchor="middle" x="294" y="-45.5" font-family="Helvetica,sans-Serif" font-size="10.00">vae::EngineConfig</text>
<polyline fill="none" stroke="black" points="241.5,-38.5 346.5,-38.5 "/>
<text text-anchor="middle" x="294" y="-26.5" font-family="Helvetica,sans-Serif" font-size="10.00"> </text>
<polyline fill="none" stroke="black" points="241.5,-19.5 346.5,-19.5 "/>
<text text-anchor="middle" x="294" y="-7.5" font-family="Helvetica,sans-Serif" font-size="10.00"> </text>
</a>
</g>
</g>
<!-- Node2 -->
<g id="node2" class="node">
<title>Node2</title>
<g id="a_node2"><a xlink:title=" ">
<polygon fill="none" stroke="#bfbfbf" points="0,-182.5 0,-239.5 38,-239.5 38,-182.5 0,-182.5"/>
<text text-anchor="middle" x="19" y="-227.5" font-family="Helvetica,sans-Serif" font-size="10.00">char</text>
<polyline fill="none" stroke="#bfbfbf" points="0,-220.5 38,-220.5 "/>
<text text-anchor="middle" x="19" y="-208.5" font-family="Helvetica,sans-Serif" font-size="10.00"> </text>
<polyline fill="none" stroke="#bfbfbf" points="0,-201.5 38,-201.5 "/>
<text text-anchor="middle" x="19" y="-189.5" font-family="Helvetica,sans-Serif" font-size="10.00"> </text>
</a>
</g>
</g>
<!-- Node2&#45;&gt;Node1 -->
<g id="edge1" class="edge">
<title>Node2&#45;&gt;Node1</title>
<path fill="none" stroke="#404040" d="M10.66,-182.49C3.45,-152.55 -2.29,-105.05 23,-76 49.32,-45.76 157.84,-35.4 229.32,-31.85"/>
<polygon fill="none" stroke="#404040" points="229.34,-31.85 235.15,-27.58 241.32,-31.3 235.51,-35.57 229.34,-31.85"/>
<text text-anchor="middle" x="49.5" y="-117.5" font-family="Helvetica,sans-Serif" font-size="10.00"> +rootPath</text>
</g>
<!-- Node3 -->
<g id="node3" class="node">
<title>Node3</title>
<g id="a_node3"><a xlink:title=" ">
<polygon fill="none" stroke="#bfbfbf" points="80.5,-182.5 80.5,-239.5 109.5,-239.5 109.5,-182.5 80.5,-182.5"/>
<text text-anchor="middle" x="95" y="-227.5" font-family="Helvetica,sans-Serif" font-size="10.00">int</text>
<polyline fill="none" stroke="#bfbfbf" points="80.5,-220.5 109.5,-220.5 "/>
<text text-anchor="middle" x="95" y="-208.5" font-family="Helvetica,sans-Serif" font-size="10.00"> </text>
<polyline fill="none" stroke="#bfbfbf" points="80.5,-201.5 109.5,-201.5 "/>
<text text-anchor="middle" x="95" y="-189.5" font-family="Helvetica,sans-Serif" font-size="10.00"> </text>
</a>
</g>
</g>
<!-- Node3&#45;&gt;Node1 -->
<g id="edge2" class="edge">
<title>Node3&#45;&gt;Node1</title>
<path fill="none" stroke="#404040" d="M86.13,-182.33C78.49,-152.69 72.09,-105.88 96,-76 112.59,-55.28 178.06,-43.02 229.23,-36.44"/>
<polygon fill="none" stroke="#404040" points="229.32,-36.43 234.78,-31.73 241.23,-34.97 235.76,-39.67 229.32,-36.43"/>
<text text-anchor="middle" x="158.5" y="-156" font-family="Helvetica,sans-Serif" font-size="10.00"> +bufferPeriods</text>
<text text-anchor="middle" x="158.5" y="-145" font-family="Helvetica,sans-Serif" font-size="10.00">+finishedVoiceQueueSize</text>
<text text-anchor="middle" x="158.5" y="-134" font-family="Helvetica,sans-Serif" font-size="10.00">+hrtfVoices</text>
<text text-anchor="middle" x="158.5" y="-123" font-family="Helvetica,sans-Serif" font-size="10.00">+internalSampleRate</text>
<text text-anchor="middle" x="158.5" y="-112" font-family="Helvetica,sans-Serif" font-size="10.00">+preAllocatedEmitters</text>
<text text-anchor="middle" x="158.5" y="-101" font-family="Helvetica,sans-Serif" font-size="10.00">+preferredBufferSize</text>
<text text-anchor="middle" x="158.5" y="-90" font-family="Helvetica,sans-Serif" font-size="10.00">+virtualVoices</text>
<text text-anchor="middle" x="158.5" y="-79" font-family="Helvetica,sans-Serif" font-size="10.00">+voices</text>
</g>
<!-- Node4 -->
<g id="node4" class="node">
<title>Node4</title>
<g id="a_node4"><a xlink:href="structvae_1_1_event_callback_data.html" target="_top" xlink:title="Struct containing relevant data passed to EventCallback provided in the EngineConfig.">
<polygon fill="none" stroke="black" points="373,-182.5 373,-239.5 507,-239.5 507,-182.5 373,-182.5"/>
<text text-anchor="middle" x="440" y="-227.5" font-family="Helvetica,sans-Serif" font-size="10.00">vae::EventCallbackData</text>
<polyline fill="none" stroke="black" points="373,-220.5 507,-220.5 "/>
<text text-anchor="middle" x="440" y="-208.5" font-family="Helvetica,sans-Serif" font-size="10.00"> </text>
<polyline fill="none" stroke="black" points="373,-201.5 507,-201.5 "/>
<text text-anchor="middle" x="440" y="-189.5" font-family="Helvetica,sans-Serif" font-size="10.00"> </text>
</a>
</g>
</g>
<!-- Node4&#45;&gt;Node1 -->
<g id="edge3" class="edge">
<title>Node4&#45;&gt;Node1</title>
<path fill="none" stroke="#404040" d="M417.51,-182.27C392.54,-151.48 352.1,-101.63 324.34,-67.41"/>
<polygon fill="none" stroke="#404040" points="324.08,-67.08 317.19,-64.94 316.52,-57.76 323.4,-59.9 324.08,-67.08"/>
<text text-anchor="middle" x="441" y="-117.5" font-family="Helvetica,sans-Serif" font-size="10.00"> +eventCallback</text>
</g>
<!-- Node5 -->
<g id="node5" class="node">
<title>Node5</title>
<g id="a_node5"><a xlink:title=" ">
<polygon fill="none" stroke="#bfbfbf" points="222,-287.5 222,-344.5 268,-344.5 268,-287.5 222,-287.5"/>
<text text-anchor="middle" x="245" y="-332.5" font-family="Helvetica,sans-Serif" font-size="10.00">void *</text>
<polyline fill="none" stroke="#bfbfbf" points="222,-325.5 268,-325.5 "/>
<text text-anchor="middle" x="245" y="-313.5" font-family="Helvetica,sans-Serif" font-size="10.00"> </text>
<polyline fill="none" stroke="#bfbfbf" points="222,-306.5 268,-306.5 "/>
<text text-anchor="middle" x="245" y="-294.5" font-family="Helvetica,sans-Serif" font-size="10.00"> </text>
</a>
</g>
</g>
<!-- Node5&#45;&gt;Node1 -->
<g id="edge8" class="edge">
<title>Node5&#45;&gt;Node1</title>
<path fill="none" stroke="#404040" d="M244.54,-287.22C244.33,-273.08 244.1,-255.63 244,-240 243.83,-214.22 239.92,-207.45 244,-182 250.34,-142.41 265.43,-99.14 277.38,-68.93"/>
<polygon fill="none" stroke="#404040" points="277.45,-68.75 275.99,-61.69 281.95,-57.63 283.41,-64.69 277.45,-68.75"/>
<text text-anchor="middle" x="304" y="-208.5" font-family="Helvetica,sans-Serif" font-size="10.00"> +eventCallbackContext</text>
</g>
<!-- Node5&#45;&gt;Node4 -->
<g id="edge4" class="edge">
<title>Node5&#45;&gt;Node4</title>
<path fill="none" stroke="#404040" d="M268.31,-293.47C281.79,-281.83 299.51,-267.87 317,-258 325.67,-253.11 342.75,-246.19 361.49,-239.21"/>
<polygon fill="none" stroke="#404040" points="361.72,-239.13 365.97,-233.31 372.98,-234.99 368.73,-240.82 361.72,-239.13"/>
<text text-anchor="middle" x="341.5" y="-261" font-family="Helvetica,sans-Serif" font-size="10.00"> +context</text>
</g>
<!-- Node6 -->
<g id="node6" class="node">
<title>Node6</title>
<g id="a_node6"><a xlink:title=" ">
<polygon fill="none" stroke="#bfbfbf" points="291.5,-287.5 291.5,-344.5 376.5,-344.5 376.5,-287.5 291.5,-287.5"/>
<text text-anchor="middle" x="334" y="-332.5" font-family="Helvetica,sans-Serif" font-size="10.00">unsigned char</text>
<polyline fill="none" stroke="#bfbfbf" points="291.5,-325.5 376.5,-325.5 "/>
<text text-anchor="middle" x="334" y="-313.5" font-family="Helvetica,sans-Serif" font-size="10.00"> </text>
<polyline fill="none" stroke="#bfbfbf" points="291.5,-306.5 376.5,-306.5 "/>
<text text-anchor="middle" x="334" y="-294.5" font-family="Helvetica,sans-Serif" font-size="10.00"> </text>
</a>
</g>
</g>
<!-- Node6&#45;&gt;Node4 -->
<g id="edge5" class="edge">
<title>Node6&#45;&gt;Node4</title>
<path fill="none" stroke="#404040" d="M354.06,-287.48C361.71,-277.73 370.81,-266.97 380,-258 383.65,-254.44 387.57,-250.91 391.59,-247.47"/>
<polygon fill="none" stroke="#404040" points="391.83,-247.27 393.93,-240.37 401.11,-239.65 399.01,-246.55 391.83,-247.27"/>
<text text-anchor="middle" x="398" y="-261" font-family="Helvetica,sans-Serif" font-size="10.00"> +bank</text>
</g>
<!-- Node7 -->
<g id="node7" class="node">
<title>Node7</title>
<g id="a_node7"><a xlink:title=" ">
<polygon fill="none" stroke="#bfbfbf" points="394.5,-287.5 394.5,-344.5 483.5,-344.5 483.5,-287.5 394.5,-287.5"/>
<text text-anchor="middle" x="439" y="-332.5" font-family="Helvetica,sans-Serif" font-size="10.00">unsigned short</text>
<polyline fill="none" stroke="#bfbfbf" points="394.5,-325.5 483.5,-325.5 "/>
<text text-anchor="middle" x="439" y="-313.5" font-family="Helvetica,sans-Serif" font-size="10.00"> </text>
<polyline fill="none" stroke="#bfbfbf" points="394.5,-306.5 483.5,-306.5 "/>
<text text-anchor="middle" x="439" y="-294.5" font-family="Helvetica,sans-Serif" font-size="10.00"> </text>
</a>
</g>
</g>
<!-- Node7&#45;&gt;Node4 -->
<g id="edge6" class="edge">
<title>Node7&#45;&gt;Node4</title>
<path fill="none" stroke="#404040" d="M424.42,-287.49C421.11,-278.23 419.06,-267.77 421,-258 421.45,-255.71 422.02,-253.39 422.68,-251.08"/>
<polygon fill="none" stroke="#404040" points="422.69,-251.04 420.83,-244.07 426.54,-239.67 428.41,-246.64 422.69,-251.04"/>
<text text-anchor="middle" x="441" y="-261" font-family="Helvetica,sans-Serif" font-size="10.00"> +event</text>
</g>
<!-- Node8 -->
<g id="node8" class="node">
<title>Node8</title>
<g id="a_node8"><a xlink:title=" ">
<polygon fill="none" stroke="#bfbfbf" points="504.5,-287.5 504.5,-344.5 581.5,-344.5 581.5,-287.5 504.5,-287.5"/>
<text text-anchor="middle" x="543" y="-332.5" font-family="Helvetica,sans-Serif" font-size="10.00">unsigned int</text>
<polyline fill="none" stroke="#bfbfbf" points="504.5,-325.5 581.5,-325.5 "/>
<text text-anchor="middle" x="543" y="-313.5" font-family="Helvetica,sans-Serif" font-size="10.00"> </text>
<polyline fill="none" stroke="#bfbfbf" points="504.5,-306.5 581.5,-306.5 "/>
<text text-anchor="middle" x="543" y="-294.5" font-family="Helvetica,sans-Serif" font-size="10.00"> </text>
</a>
</g>
</g>
<!-- Node8&#45;&gt;Node1 -->
<g id="edge9" class="edge">
<title>Node8&#45;&gt;Node1</title>
<path fill="none" stroke="#404040" d="M545.23,-287.12C547.56,-237.14 544.62,-132.28 486,-76 467.82,-58.55 407.18,-45.97 358.86,-38.42"/>
<polygon fill="none" stroke="#404040" points="358.74,-38.4 352.21,-41.46 346.87,-36.61 353.4,-33.55 358.74,-38.4"/>
<text text-anchor="middle" x="604" y="-208.5" font-family="Helvetica,sans-Serif" font-size="10.00"> +_preAllocatedEmitters</text>
</g>
<!-- Node8&#45;&gt;Node4 -->
<g id="edge7" class="edge">
<title>Node8&#45;&gt;Node4</title>
<path fill="none" stroke="#404040" d="M504.67,-287.39C497.52,-281.62 490.32,-275.35 484,-269 478.02,-262.99 472.11,-256.16 466.67,-249.36"/>
<polygon fill="none" stroke="#404040" points="466.41,-249.03 459.57,-246.73 459.06,-239.54 465.9,-241.84 466.41,-249.03"/>
<text text-anchor="middle" x="508" y="-261" font-family="Helvetica,sans-Serif" font-size="10.00"> +emitter</text>
</g>
<!-- Node9 -->
<g id="node9" class="node">
<title>Node9</title>
<g id="a_node9"><a xlink:title=" ">
<polygon fill="none" stroke="#bfbfbf" points="684,-182.5 684,-239.5 722,-239.5 722,-182.5 684,-182.5"/>
<text text-anchor="middle" x="703" y="-227.5" font-family="Helvetica,sans-Serif" font-size="10.00">bool</text>
<polyline fill="none" stroke="#bfbfbf" points="684,-220.5 722,-220.5 "/>
<text text-anchor="middle" x="703" y="-208.5" font-family="Helvetica,sans-Serif" font-size="10.00"> </text>
<polyline fill="none" stroke="#bfbfbf" points="684,-201.5 722,-201.5 "/>
<text text-anchor="middle" x="703" y="-189.5" font-family="Helvetica,sans-Serif" font-size="10.00"> </text>
</a>
</g>
</g>
<!-- Node9&#45;&gt;Node1 -->
<g id="edge10" class="edge">
<title>Node9&#45;&gt;Node1</title>
<path fill="none" stroke="#404040" d="M683.83,-184.61C658.93,-153.61 612.38,-102.09 560,-76 496.43,-44.34 414.91,-34.04 358.97,-30.91"/>
<polygon fill="none" stroke="#404040" points="358.72,-30.9 352.53,-34.6 346.74,-30.32 352.92,-26.61 358.72,-30.9"/>
<text text-anchor="middle" x="723.5" y="-123" font-family="Helvetica,sans-Serif" font-size="10.00"> +processInBufferSwitch</text>
<text text-anchor="middle" x="723.5" y="-112" font-family="Helvetica,sans-Serif" font-size="10.00">+updateInAudioThread</text>
</g>
</g>
</svg>
        <g id="navigator" transform="translate(0 0)" fill="#404254">
                <rect fill="#f2f5e9" fill-opacity="0.5" stroke="#606060" stroke-width=".5" x="0" y="0" width="60" height="60"/>
                <use id="zoomplus" xlink:href="#zoomPlus" x="17" y="9" onmousedown="handleZoom(evt,'in')"/>
                <use id="zoomminus" xlink:href="#zoomMin" x="42" y="9" onmousedown="handleZoom(evt,'out')"/>
                <use id="reset" xlink:href="#resetDef" x="30" y="36" onmousedown="handleReset()"/>
                <g id="arrowUp" xlink:href="#dirArrow" transform="translate(30 24)" onmousedown="handlePan(0,-1)">
                  <use xlink:href="#rim" fill="#404040">
                        <set attributeName="fill" to="#808080" begin="arrowUp.mouseover" end="arrowUp.mouseout"/>
                  </use>
                  <path fill="none" stroke="white" stroke-width="1.5" d="M0,-3.0v7 M-2.5,-0.5L0,-3.0L2.5,-0.5"/>
                </g>
                <g id="arrowRight" xlink:href="#dirArrow" transform="rotate(90) translate(36 -43)" onmousedown="handlePan(1,0)">
                  <use xlink:href="#rim" fill="#404040">
                        <set attributeName="fill" to="#808080" begin="arrowRight.mouseover" end="arrowRight.mouseout"/>
                  </use>
                  <path fill="none" stroke="white" stroke-width="1.5" d="M0,-3.0v7 M-2.5,-0.5L0,-3.0L2.5,-0.5"/>
                </g>
                <g id="arrowDown" xlink:href="#dirArrow" transform="rotate(180) translate(-30 -48)" onmousedown="handlePan(0,1)">
                  <use xlink:href="#rim" fill="#404040">
                        <set attributeName="fill" to="#808080" begin="arrowDown.mouseover" end="arrowDown.mouseout"/>
                  </use>
                  <path fill="none" stroke="white" stroke-width="1.5" d="M0,-3.0v7 M-2.5,-0.5L0,-3.0L2.5,-0.5"/>
                </g>
                <g id="arrowLeft" xlink:href="#dirArrow" transform="rotate(270) translate(-36 17)" onmousedown="handlePan(-1,0)">
                  <use xlink:href="#rim" fill="#404040">
                        <set attributeName="fill" to="#808080" begin="arrowLeft.mouseover" end="arrowLeft.mouseout"/>
                  </use>
                  <path fill="none" stroke="white" stroke-width="1.5" d="M0,-3.0v7 M-2.5,-0.5L0,-3.0L2.5,-0.5"/>
                </g>
        </g>
        <svg viewBox="0 0 15 15" width="100%" height="30px" preserveAspectRatio="xMaxYMin meet">
         <g id="arrow_out" transform="scale(0.3 0.3)">
          <a xlink:href="structvae_1_1_engine_config__coll__graph_org.svg" target="_base">
           <rect id="button" ry="5" rx="5" y="6" x="6" height="38" width="38"
                fill="#f2f5e9" fill-opacity="0.5" stroke="#606060" stroke-width="1.0"/>
           <path id="arrow"
             d="M 11.500037,31.436501 C 11.940474,20.09759 22.043105,11.32322 32.158766,21.979434 L 37.068811,17.246167 C 37.068811,17.246167 37.088388,32 37.088388,32 L 22.160133,31.978069 C 22.160133,31.978069 26.997745,27.140456 26.997745,27.140456 C 18.528582,18.264221 13.291696,25.230495 11.500037,31.436501 z"
             style="fill:#404040;"/>
          </a>
         </g>
        </svg>
</svg>
