<?xml version="1.0" encoding="UTF-8" standalone="no"?>
<!DOCTYPE svg PUBLIC "-//W3C//DTD SVG 1.1//EN"
 "http://www.w3.org/Graphics/SVG/1.1/DTD/svg11.dtd">
<!-- Generated by graphviz version 2.50.0 (0)
 -->
<!-- Title: vae::core::effect::Registermydsp::Registermydsp Pages: 1 -->
<svg width="341pt" height="137pt"
 viewBox="0.00 0.00 341.00 137.00" xmlns="http://www.w3.org/2000/svg" xmlns:xlink="http://www.w3.org/1999/xlink">
<g id="graph0" class="graph" transform="scale(1 1) rotate(0) translate(4 133)">
<title>vae::core::effect::Registermydsp::Registermydsp</title>
<!-- Node1 -->
<g id="node1" class="node">
<title>Node1</title>
<g id="a_node1"><a xlink:title=" ">
<polygon fill="#bfbfbf" stroke="black" points="0,-49.5 0,-79.5 170,-79.5 170,-49.5 0,-49.5"/>
<text text-anchor="start" x="8" y="-67.5" font-family="Helvetica,sans-Serif" font-size="10.00">vae::core::effect::</text>
<text text-anchor="middle" x="85" y="-56.5" font-family="Helvetica,sans-Serif" font-size="10.00">Registermydsp::Registermydsp</text>
</a>
</g>
</g>
<!-- Node2 -->
<g id="node2" class="node">
<title>Node2</title>
<g id="a_node2"><a xlink:href="classvae_1_1core_1_1effect_1_1_effects_list.html#ad307ea56f51a0a1f9d6d1a27a849c8a8" target="_top" xlink:title=" ">
<polygon fill="none" stroke="black" points="218.5,-98.5 218.5,-128.5 320.5,-128.5 320.5,-98.5 218.5,-98.5"/>
<text text-anchor="start" x="226.5" y="-116.5" font-family="Helvetica,sans-Serif" font-size="10.00">vae::core::effect::</text>
<text text-anchor="middle" x="269.5" y="-105.5" font-family="Helvetica,sans-Serif" font-size="10.00">EffectsList::add</text>
</a>
</g>
</g>
<!-- Node1&#45;&gt;Node2 -->
<g id="edge1" class="edge">
<title>Node1&#45;&gt;Node2</title>
<path fill="none" stroke="midnightblue" d="M142.25,-79.6C163.22,-85.23 187.11,-91.65 208.41,-97.37"/>
<polygon fill="midnightblue" stroke="midnightblue" points="207.76,-100.81 218.32,-100.03 209.57,-94.05 207.76,-100.81"/>
</g>
<!-- Node3 -->
<g id="node3" class="node">
<title>Node3</title>
<g id="a_node3"><a xlink:href="structvae_1_1core_1_1effect_1_1_registermydsp.html#a11d7b4784bd9abd38690457348e9c187" target="_top" xlink:title=" ">
<polygon fill="none" stroke="black" points="206,-49.5 206,-79.5 333,-79.5 333,-49.5 206,-49.5"/>
<text text-anchor="start" x="214" y="-67.5" font-family="Helvetica,sans-Serif" font-size="10.00">vae::core::effect::</text>
<text text-anchor="middle" x="269.5" y="-56.5" font-family="Helvetica,sans-Serif" font-size="10.00">Registermydsp::create</text>
</a>
</g>
</g>
<!-- Node1&#45;&gt;Node3 -->
<g id="edge2" class="edge">
<title>Node1&#45;&gt;Node3</title>
<path fill="none" stroke="midnightblue" d="M170.04,-64.5C178.62,-64.5 187.28,-64.5 195.73,-64.5"/>
<polygon fill="midnightblue" stroke="midnightblue" points="195.9,-68 205.9,-64.5 195.9,-61 195.9,-68"/>
</g>
<!-- Node4 -->
<g id="node4" class="node">
<title>Node4</title>
<g id="a_node4"><a xlink:href="classvae_1_1core_1_1effect_1_1_effects_list.html#abfa6014cdb73bfddb689127450a0707d" target="_top" xlink:title=" ">
<polygon fill="none" stroke="black" points="212,-0.5 212,-30.5 327,-30.5 327,-0.5 212,-0.5"/>
<text text-anchor="start" x="220" y="-18.5" font-family="Helvetica,sans-Serif" font-size="10.00">vae::core::effect::</text>
<text text-anchor="middle" x="269.5" y="-7.5" font-family="Helvetica,sans-Serif" font-size="10.00">EffectsList::instance</text>
</a>
</g>
</g>
<!-- Node1&#45;&gt;Node4 -->
<g id="edge3" class="edge">
<title>Node1&#45;&gt;Node4</title>
<path fill="none" stroke="midnightblue" d="M142.25,-49.4C161.33,-44.27 182.82,-38.5 202.59,-33.2"/>
<polygon fill="midnightblue" stroke="midnightblue" points="203.69,-36.53 212.44,-30.55 201.88,-29.76 203.69,-36.53"/>
</g>
</g>
</svg>
