<?xml version="1.0" encoding="UTF-8" standalone="no"?>
<!DOCTYPE svg PUBLIC "-//W3C//DTD SVG 1.1//EN"
 "http://www.w3.org/Graphics/SVG/1.1/DTD/svg11.dtd">
<!-- Generated by graphviz version 2.50.0 (0)
 -->
<!-- Title: tklb::FileInfo Pages: 1 -->
<svg width="254pt" height="464pt"
 viewBox="0.00 0.00 254.00 464.00" xmlns="http://www.w3.org/2000/svg" xmlns:xlink="http://www.w3.org/1999/xlink">
<g id="graph0" class="graph" transform="scale(1 1) rotate(0) translate(4 460)">
<title>tklb::FileInfo</title>
<!-- Node1 -->
<g id="node1" class="node">
<title>Node1</title>
<g id="a_node1"><a xlink:title=" ">
<polygon fill="#bfbfbf" stroke="black" points="72.5,-0.5 72.5,-222.5 185.5,-222.5 185.5,-0.5 72.5,-0.5"/>
<text text-anchor="middle" x="129" y="-210.5" font-family="Helvetica,sans-Serif" font-size="10.00">tklb::FileInfo</text>
<polyline fill="none" stroke="black" points="72.5,-203.5 185.5,-203.5 "/>
<text text-anchor="middle" x="129" y="-191.5" font-family="Helvetica,sans-Serif" font-size="10.00"> </text>
<polyline fill="none" stroke="black" points="72.5,-184.5 185.5,-184.5 "/>
<text text-anchor="start" x="80.5" y="-172.5" font-family="Helvetica,sans-Serif" font-size="10.00">+ FileInfo()</text>
<text text-anchor="start" x="80.5" y="-161.5" font-family="Helvetica,sans-Serif" font-size="10.00">+ FileInfo()</text>
<text text-anchor="start" x="80.5" y="-150.5" font-family="Helvetica,sans-Serif" font-size="10.00">+ scan()</text>
<text text-anchor="start" x="80.5" y="-139.5" font-family="Helvetica,sans-Serif" font-size="10.00">+ isWave()</text>
<text text-anchor="start" x="80.5" y="-128.5" font-family="Helvetica,sans-Serif" font-size="10.00">+ isJSON()</text>
<text text-anchor="start" x="80.5" y="-117.5" font-family="Helvetica,sans-Serif" font-size="10.00">+ remove()</text>
<text text-anchor="start" x="80.5" y="-106.5" font-family="Helvetica,sans-Serif" font-size="10.00">+ hashFile()</text>
<text text-anchor="start" x="80.5" y="-95.5" font-family="Helvetica,sans-Serif" font-size="10.00">+ print()</text>
<text text-anchor="start" x="80.5" y="-84.5" font-family="Helvetica,sans-Serif" font-size="10.00">+ write()</text>
<text text-anchor="start" x="80.5" y="-73.5" font-family="Helvetica,sans-Serif" font-size="10.00">+ joinPath()</text>
<text text-anchor="start" x="80.5" y="-62.5" font-family="Helvetica,sans-Serif" font-size="10.00">+ platformPath()</text>
<text text-anchor="start" x="80.5" y="-51.5" font-family="Helvetica,sans-Serif" font-size="10.00">+ isRelative()</text>
<text text-anchor="start" x="80.5" y="-40.5" font-family="Helvetica,sans-Serif" font-size="10.00">+ toUnixPath()</text>
<text text-anchor="start" x="80.5" y="-29.5" font-family="Helvetica,sans-Serif" font-size="10.00">&#45; recursivePrint()</text>
<text text-anchor="start" x="80.5" y="-18.5" font-family="Helvetica,sans-Serif" font-size="10.00">&#45; recursiveScan()</text>
<text text-anchor="start" x="80.5" y="-7.5" font-family="Helvetica,sans-Serif" font-size="10.00">&#45; appendDelimiter()</text>
</a>
</g>
</g>
<!-- Node2 -->
<g id="node2" class="node">
<title>Node2</title>
<g id="a_node2"><a xlink:title=" ">
<polygon fill="none" stroke="#bfbfbf" points="19.5,-292.5 19.5,-349.5 84.5,-349.5 84.5,-292.5 19.5,-292.5"/>
<text text-anchor="middle" x="52" y="-337.5" font-family="Helvetica,sans-Serif" font-size="10.00">std::string</text>
<polyline fill="none" stroke="#bfbfbf" points="19.5,-330.5 84.5,-330.5 "/>
<text text-anchor="middle" x="52" y="-318.5" font-family="Helvetica,sans-Serif" font-size="10.00"> </text>
<polyline fill="none" stroke="#bfbfbf" points="19.5,-311.5 84.5,-311.5 "/>
<text text-anchor="middle" x="52" y="-299.5" font-family="Helvetica,sans-Serif" font-size="10.00"> </text>
</a>
</g>
</g>
<!-- Node2&#45;&gt;Node1 -->
<g id="edge1" class="edge">
<title>Node2&#45;&gt;Node1</title>
<path fill="none" stroke="#404040" d="M57.35,-292.22C60.62,-276.91 65.29,-257.68 71,-241 71.77,-238.74 72.57,-236.47 73.39,-234.19"/>
<polygon fill="none" stroke="#404040" points="73.48,-233.96 71.82,-226.94 77.67,-222.71 79.32,-229.73 73.48,-233.96"/>
<text text-anchor="middle" x="98" y="-266" font-family="Helvetica,sans-Serif" font-size="10.00"> +absolute</text>
<text text-anchor="middle" x="98" y="-255" font-family="Helvetica,sans-Serif" font-size="10.00">+name</text>
<text text-anchor="middle" x="98" y="-244" font-family="Helvetica,sans-Serif" font-size="10.00">+relative</text>
</g>
<!-- Node3 -->
<g id="node3" class="node">
<title>Node3</title>
<g id="a_node3"><a xlink:title=" ">
<polygon fill="none" stroke="#bfbfbf" points="0,-387.5 0,-455.5 104,-455.5 104,-387.5 0,-387.5"/>
<text text-anchor="start" x="8" y="-443.5" font-family="Helvetica,sans-Serif" font-size="10.00">std::basic_string&lt;</text>
<text text-anchor="middle" x="52" y="-432.5" font-family="Helvetica,sans-Serif" font-size="10.00"> Char &gt;</text>
<polyline fill="none" stroke="#bfbfbf" points="0,-425.5 104,-425.5 "/>
<text text-anchor="middle" x="52" y="-413.5" font-family="Helvetica,sans-Serif" font-size="10.00"> </text>
<polyline fill="none" stroke="#bfbfbf" points="0,-406.5 104,-406.5 "/>
<text text-anchor="middle" x="52" y="-394.5" font-family="Helvetica,sans-Serif" font-size="10.00"> </text>
</a>
</g>
</g>
<!-- Node3&#45;&gt;Node2 -->
<g id="edge2" class="edge">
<title>Node3&#45;&gt;Node2</title>
<path fill="none" stroke="midnightblue" d="M52,-377.38C52,-367.94 52,-358.2 52,-349.57"/>
<polygon fill="none" stroke="midnightblue" points="48.5,-377.43 52,-387.43 55.5,-377.43 48.5,-377.43"/>
</g>
<!-- Node4 -->
<g id="node4" class="node">
<title>Node4</title>
<g id="a_node4"><a xlink:title=" ">
<polygon fill="none" stroke="#bfbfbf" points="110,-292.5 110,-349.5 148,-349.5 148,-292.5 110,-292.5"/>
<text text-anchor="middle" x="129" y="-337.5" font-family="Helvetica,sans-Serif" font-size="10.00">bool</text>
<polyline fill="none" stroke="#bfbfbf" points="110,-330.5 148,-330.5 "/>
<text text-anchor="middle" x="129" y="-318.5" font-family="Helvetica,sans-Serif" font-size="10.00"> </text>
<polyline fill="none" stroke="#bfbfbf" points="110,-311.5 148,-311.5 "/>
<text text-anchor="middle" x="129" y="-299.5" font-family="Helvetica,sans-Serif" font-size="10.00"> </text>
</a>
</g>
</g>
<!-- Node4&#45;&gt;Node1 -->
<g id="edge3" class="edge">
<title>Node4&#45;&gt;Node1</title>
<path fill="none" stroke="#404040" d="M129,-292.45C129,-277 129,-256.55 129,-234.97"/>
<polygon fill="none" stroke="#404040" points="129,-234.89 125,-228.89 129,-222.89 133,-228.89 129,-234.89"/>
<text text-anchor="middle" x="154" y="-255" font-family="Helvetica,sans-Serif" font-size="10.00"> +isFolder</text>
</g>
<!-- Node5 -->
<g id="node5" class="node">
<title>Node5</title>
<g id="a_node5"><a xlink:title=" ">
<polygon fill="none" stroke="#bfbfbf" points="166,-292.5 166,-349.5 246,-349.5 246,-292.5 166,-292.5"/>
<text text-anchor="middle" x="206" y="-337.5" font-family="Helvetica,sans-Serif" font-size="10.00">HeapBuffer&lt;</text>
<polyline fill="none" stroke="#bfbfbf" points="166,-330.5 246,-330.5 "/>
<text text-anchor="middle" x="206" y="-318.5" font-family="Helvetica,sans-Serif" font-size="10.00"> </text>
<polyline fill="none" stroke="#bfbfbf" points="166,-311.5 246,-311.5 "/>
<text text-anchor="middle" x="206" y="-299.5" font-family="Helvetica,sans-Serif" font-size="10.00"> </text>
</a>
</g>
</g>
<!-- Node5&#45;&gt;Node1 -->
<g id="edge4" class="edge">
<title>Node5&#45;&gt;Node1</title>
<path fill="none" stroke="#404040" d="M198.78,-292.33C194.59,-277.06 188.96,-257.83 183,-241 182.16,-238.64 181.31,-236.26 180.43,-233.86"/>
<polygon fill="none" stroke="#404040" points="180.42,-233.82 174.57,-229.6 176.22,-222.58 182.07,-226.8 180.42,-233.82"/>
<text text-anchor="middle" x="218.5" y="-255" font-family="Helvetica,sans-Serif" font-size="10.00"> +children</text>
</g>
</g>
</svg>
