<?xml version="1.0" encoding="UTF-8" standalone="no"?>
<!DOCTYPE svg PUBLIC "-//W3C//DTD SVG 1.1//EN"
 "http://www.w3.org/Graphics/SVG/1.1/DTD/svg11.dtd">
<!-- Generated by graphviz version 2.50.0 (0)
 -->
<!-- Title: vae::core::Bank Pages: 1 -->
<!--zoomable 1422 -->
<svg id="main" version="1.1" xmlns="http://www.w3.org/2000/svg" xmlns:xlink="http://www.w3.org/1999/xlink" xml:space="preserve" onload="init(evt)">
<style type="text/css"><![CDATA[
.edge:hover path { stroke: red; }
.edge:hover polygon { stroke: red; fill: red; }
]]></style>
<script type="text/javascript"><![CDATA[
var edges = document.getElementsByTagName('g');
if (edges && edges.length) {
  for (var i=0;i<edges.length;i++) {
    if (edges[i].id.substr(0,4)=='edge') {
      edges[i].setAttribute('class','edge');
    }
  }
}
]]></script>
        <defs>
                <circle id="rim" cx="0" cy="0" r="7"/>
                <circle id="rim2" cx="0" cy="0" r="3.5"/>
                <g id="zoomPlus">
                        <use xlink:href="#rim" fill="#404040">
                                <set attributeName="fill" to="#808080" begin="zoomplus.mouseover" end="zoomplus.mouseout"/>
                        </use>
                        <path d="M-4,0h8M0,-4v8" fill="none" stroke="white" stroke-width="1.5" pointer-events="none"/>
                </g>
                <g id="zoomMin">
                        <use xlink:href="#rim" fill="#404040">
                                <set attributeName="fill" to="#808080" begin="zoomminus.mouseover" end="zoomminus.mouseout"/>
                        </use>
                        <path d="M-4,0h8" fill="none" stroke="white" stroke-width="1.5" pointer-events="none"/>
                </g>
                <g id="dirArrow">
                        <path fill="none" stroke="white" stroke-width="1.5" d="M0,-3.0v7 M-2.5,-0.5L0,-3.0L2.5,-0.5"/>
                </g>
               <g id="resetDef">
                       <use xlink:href="#rim2" fill="#404040">
                               <set attributeName="fill" to="#808080" begin="reset.mouseover" end="reset.mouseout"/>
                       </use>
               </g>
        </defs>

<script type="text/javascript">
var viewWidth = 496;
var viewHeight = 1422;
var sectionId = 'dynsection-0';
</script>
<script xlink:href="svgpan.js"/>
<svg id="graph" class="graph">
<g id="viewport">
<title>vae::core::Bank</title>
<!-- Node1 -->
<g id="node1" class="node">
<title>Node1</title>
<g id="a_node1"><a xlink:title="Bank object containing Sources, Mixers and Events Can be loaded and unloaded at runtime.">
<polygon fill="#bfbfbf" stroke="black" points="138,-0.5 138,-57.5 230,-57.5 230,-0.5 138,-0.5"/>
<text text-anchor="middle" x="184" y="-45.5" font-family="Helvetica,sans-Serif" font-size="10.00">vae::core::Bank</text>
<polyline fill="none" stroke="black" points="138,-38.5 230,-38.5 "/>
<text text-anchor="middle" x="184" y="-26.5" font-family="Helvetica,sans-Serif" font-size="10.00"> </text>
<polyline fill="none" stroke="black" points="138,-19.5 230,-19.5 "/>
<text text-anchor="middle" x="184" y="-7.5" font-family="Helvetica,sans-Serif" font-size="10.00"> </text>
</a>
</g>
</g>
<!-- Node2 -->
<g id="node2" class="node">
<title>Node2</title>
<g id="a_node2"><a xlink:title=" ">
<polygon fill="none" stroke="#bfbfbf" points="0,-188 0,-245 80,-245 80,-188 0,-188"/>
<text text-anchor="middle" x="40" y="-233" font-family="Helvetica,sans-Serif" font-size="10.00">HeapBuffer&lt;</text>
<polyline fill="none" stroke="#bfbfbf" points="0,-226 80,-226 "/>
<text text-anchor="middle" x="40" y="-214" font-family="Helvetica,sans-Serif" font-size="10.00"> </text>
<polyline fill="none" stroke="#bfbfbf" points="0,-207 80,-207 "/>
<text text-anchor="middle" x="40" y="-195" font-family="Helvetica,sans-Serif" font-size="10.00"> </text>
</a>
</g>
</g>
<!-- Node2&#45;&gt;Node1 -->
<g id="edge1" class="edge">
<title>Node2&#45;&gt;Node1</title>
<path fill="none" stroke="#404040" d="M50.65,-187.97C63.21,-157.99 86.33,-109.81 117,-76 120.41,-72.24 124.19,-68.62 128.16,-65.19"/>
<polygon fill="none" stroke="#404040" points="128.35,-65.04 130.52,-58.16 137.71,-57.53 135.53,-64.4 128.35,-65.04"/>
<text text-anchor="middle" x="140" y="-101" font-family="Helvetica,sans-Serif" font-size="10.00"> +events</text>
<text text-anchor="middle" x="140" y="-90" font-family="Helvetica,sans-Serif" font-size="10.00">+mixers</text>
<text text-anchor="middle" x="140" y="-79" font-family="Helvetica,sans-Serif" font-size="10.00">+sources</text>
</g>
<!-- Node3 -->
<g id="node3" class="node">
<title>Node3</title>
<g id="a_node3"><a xlink:title=" ">
<polygon fill="none" stroke="#bfbfbf" points="98.5,-188 98.5,-245 183.5,-245 183.5,-188 98.5,-188"/>
<text text-anchor="middle" x="141" y="-233" font-family="Helvetica,sans-Serif" font-size="10.00">unsigned char</text>
<polyline fill="none" stroke="#bfbfbf" points="98.5,-226 183.5,-226 "/>
<text text-anchor="middle" x="141" y="-214" font-family="Helvetica,sans-Serif" font-size="10.00"> </text>
<polyline fill="none" stroke="#bfbfbf" points="98.5,-207 183.5,-207 "/>
<text text-anchor="middle" x="141" y="-195" font-family="Helvetica,sans-Serif" font-size="10.00"> </text>
</a>
</g>
</g>
<!-- Node3&#45;&gt;Node1 -->
<g id="edge2" class="edge">
<title>Node3&#45;&gt;Node1</title>
<path fill="none" stroke="#404040" d="M147.44,-187.73C154.71,-156.36 166.6,-105.05 174.84,-69.51"/>
<polygon fill="none" stroke="#404040" points="174.88,-69.35 172.34,-62.6 177.59,-57.66 180.13,-64.41 174.88,-69.35"/>
<text text-anchor="middle" x="183.5" y="-90" font-family="Helvetica,sans-Serif" font-size="10.00"> +id</text>
</g>
<!-- Node4 -->
<g id="node4" class="node">
<title>Node4</title>
<g id="a_node4"><a xlink:href="classtklb_1_1_string.html" target="_top" xlink:title=" ">
<polygon fill="none" stroke="black" points="201.5,-127.5 201.5,-305.5 338.5,-305.5 338.5,-127.5 201.5,-127.5"/>
<text text-anchor="start" x="209.5" y="-293.5" font-family="Helvetica,sans-Serif" font-size="10.00">tklb::String&lt; HeapBuffer</text>
<text text-anchor="middle" x="270" y="-282.5" font-family="Helvetica,sans-Serif" font-size="10.00">&lt; char &gt; &gt;</text>
<polyline fill="none" stroke="black" points="201.5,-275.5 338.5,-275.5 "/>
<text text-anchor="start" x="209.5" y="-263.5" font-family="Helvetica,sans-Serif" font-size="10.00">&#45; mData</text>
<polyline fill="none" stroke="black" points="201.5,-256.5 338.5,-256.5 "/>
<text text-anchor="start" x="209.5" y="-244.5" font-family="Helvetica,sans-Serif" font-size="10.00">+ String()</text>
<text text-anchor="start" x="209.5" y="-233.5" font-family="Helvetica,sans-Serif" font-size="10.00">+ String()</text>
<text text-anchor="start" x="209.5" y="-222.5" font-family="Helvetica,sans-Serif" font-size="10.00">+ String()</text>
<text text-anchor="start" x="209.5" y="-211.5" font-family="Helvetica,sans-Serif" font-size="10.00">+ String()</text>
<text text-anchor="start" x="209.5" y="-200.5" font-family="Helvetica,sans-Serif" font-size="10.00">+ operator=()</text>
<text text-anchor="start" x="209.5" y="-189.5" font-family="Helvetica,sans-Serif" font-size="10.00">+ operator=()</text>
<text text-anchor="start" x="209.5" y="-178.5" font-family="Helvetica,sans-Serif" font-size="10.00">+ c_str()</text>
<text text-anchor="start" x="209.5" y="-167.5" font-family="Helvetica,sans-Serif" font-size="10.00">+ operator[]()</text>
<text text-anchor="start" x="209.5" y="-156.5" font-family="Helvetica,sans-Serif" font-size="10.00">+ operator[]()</text>
<text text-anchor="start" x="209.5" y="-145.5" font-family="Helvetica,sans-Serif" font-size="10.00">+ size()</text>
<text text-anchor="start" x="209.5" y="-134.5" font-family="Helvetica,sans-Serif" font-size="10.00">and 10 more...</text>
</a>
</g>
</g>
<!-- Node4&#45;&gt;Node1 -->
<g id="edge3" class="edge">
<title>Node4&#45;&gt;Node1</title>
<path fill="none" stroke="#404040" d="M229.14,-127.37C219.63,-106.86 209.99,-86.05 202.06,-68.96"/>
<polygon fill="none" stroke="#404040" points="201.93,-68.67 195.77,-64.9 196.88,-57.78 203.03,-61.54 201.93,-68.67"/>
<text text-anchor="middle" x="237" y="-90" font-family="Helvetica,sans-Serif" font-size="10.00"> +path</text>
</g>
<!-- Node5 -->
<g id="node5" class="node">
<title>Node5</title>
<g id="a_node5"><a xlink:href="classtklb_1_1_string.html" target="_top" xlink:title=" ">
<polygon fill="none" stroke="black" points="200.5,-353.5 200.5,-520.5 339.5,-520.5 339.5,-353.5 200.5,-353.5"/>
<text text-anchor="middle" x="270" y="-508.5" font-family="Helvetica,sans-Serif" font-size="10.00">tklb::String&lt; STORAGE &gt;</text>
<polyline fill="none" stroke="black" points="200.5,-501.5 339.5,-501.5 "/>
<text text-anchor="middle" x="270" y="-489.5" font-family="Helvetica,sans-Serif" font-size="10.00"> </text>
<polyline fill="none" stroke="black" points="200.5,-482.5 339.5,-482.5 "/>
<text text-anchor="start" x="208.5" y="-470.5" font-family="Helvetica,sans-Serif" font-size="10.00">+ String()</text>
<text text-anchor="start" x="208.5" y="-459.5" font-family="Helvetica,sans-Serif" font-size="10.00">+ String()</text>
<text text-anchor="start" x="208.5" y="-448.5" font-family="Helvetica,sans-Serif" font-size="10.00">+ String()</text>
<text text-anchor="start" x="208.5" y="-437.5" font-family="Helvetica,sans-Serif" font-size="10.00">+ String()</text>
<text text-anchor="start" x="208.5" y="-426.5" font-family="Helvetica,sans-Serif" font-size="10.00">+ operator=()</text>
<text text-anchor="start" x="208.5" y="-415.5" font-family="Helvetica,sans-Serif" font-size="10.00">+ operator=()</text>
<text text-anchor="start" x="208.5" y="-404.5" font-family="Helvetica,sans-Serif" font-size="10.00">+ c_str()</text>
<text text-anchor="start" x="208.5" y="-393.5" font-family="Helvetica,sans-Serif" font-size="10.00">+ operator[]()</text>
<text text-anchor="start" x="208.5" y="-382.5" font-family="Helvetica,sans-Serif" font-size="10.00">+ operator[]()</text>
<text text-anchor="start" x="208.5" y="-371.5" font-family="Helvetica,sans-Serif" font-size="10.00">+ size()</text>
<text text-anchor="start" x="208.5" y="-360.5" font-family="Helvetica,sans-Serif" font-size="10.00">and 10 more...</text>
</a>
</g>
</g>
<!-- Node5&#45;&gt;Node4 -->
<g id="edge4" class="edge">
<title>Node5&#45;&gt;Node4</title>
<path fill="none" stroke="orange" d="M270,-343.07C270,-330.68 270,-318 270,-305.69"/>
<polygon fill="orange" stroke="orange" points="266.5,-343.39 270,-353.39 273.5,-343.39 266.5,-343.39"/>
<text text-anchor="middle" x="332.5" y="-327" font-family="Helvetica,sans-Serif" font-size="10.00"> &lt; HeapBuffer&lt; char &gt; &gt;</text>
</g>
<!-- Node6 -->
<g id="node6" class="node">
<title>Node6</title>
<g id="a_node6"><a xlink:href="classtklb_1_1_heap_buffer.html" target="_top" xlink:title=" ">
<polygon fill="none" stroke="black" points="200,-568.5 200,-823.5 340,-823.5 340,-568.5 200,-568.5"/>
<text text-anchor="middle" x="270" y="-811.5" font-family="Helvetica,sans-Serif" font-size="10.00">tklb::HeapBuffer&lt; char &gt;</text>
<polyline fill="none" stroke="black" points="200,-804.5 340,-804.5 "/>
<text text-anchor="start" x="208" y="-792.5" font-family="Helvetica,sans-Serif" font-size="10.00">+ Alignment</text>
<text text-anchor="start" x="208" y="-781.5" font-family="Helvetica,sans-Serif" font-size="10.00">+ ChunkSize</text>
<text text-anchor="start" x="208" y="-770.5" font-family="Helvetica,sans-Serif" font-size="10.00">&#45; mAllocator</text>
<text text-anchor="start" x="208" y="-759.5" font-family="Helvetica,sans-Serif" font-size="10.00">&#45; mBuf</text>
<text text-anchor="start" x="208" y="-748.5" font-family="Helvetica,sans-Serif" font-size="10.00">&#45; mSize</text>
<text text-anchor="start" x="208" y="-737.5" font-family="Helvetica,sans-Serif" font-size="10.00">&#45; mRealSize</text>
<polyline fill="none" stroke="black" points="200,-730.5 340,-730.5 "/>
<text text-anchor="start" x="208" y="-718.5" font-family="Helvetica,sans-Serif" font-size="10.00">+ HeapBuffer()</text>
<text text-anchor="start" x="208" y="-707.5" font-family="Helvetica,sans-Serif" font-size="10.00">+ HeapBuffer()</text>
<text text-anchor="start" x="208" y="-696.5" font-family="Helvetica,sans-Serif" font-size="10.00">+ HeapBuffer()</text>
<text text-anchor="start" x="208" y="-685.5" font-family="Helvetica,sans-Serif" font-size="10.00">+ HeapBuffer()</text>
<text text-anchor="start" x="208" y="-674.5" font-family="Helvetica,sans-Serif" font-size="10.00">+ HeapBuffer()</text>
<text text-anchor="start" x="208" y="-663.5" font-family="Helvetica,sans-Serif" font-size="10.00">+ HeapBuffer()</text>
<text text-anchor="start" x="208" y="-652.5" font-family="Helvetica,sans-Serif" font-size="10.00">+ operator=()</text>
<text text-anchor="start" x="208" y="-641.5" font-family="Helvetica,sans-Serif" font-size="10.00">+ operator=()</text>
<text text-anchor="start" x="208" y="-630.5" font-family="Helvetica,sans-Serif" font-size="10.00">+ ~HeapBuffer()</text>
<text text-anchor="start" x="208" y="-619.5" font-family="Helvetica,sans-Serif" font-size="10.00">+ set()</text>
<text text-anchor="start" x="208" y="-608.5" font-family="Helvetica,sans-Serif" font-size="10.00">and 28 more...</text>
<text text-anchor="start" x="208" y="-597.5" font-family="Helvetica,sans-Serif" font-size="10.00">+ closestChunkSize()</text>
<text text-anchor="start" x="208" y="-586.5" font-family="Helvetica,sans-Serif" font-size="10.00">+ isAligned()</text>
<text text-anchor="start" x="208" y="-575.5" font-family="Helvetica,sans-Serif" font-size="10.00">&#45; allocate()</text>
</a>
</g>
</g>
<!-- Node6&#45;&gt;Node5 -->
<g id="edge5" class="edge">
<title>Node6&#45;&gt;Node5</title>
<path fill="none" stroke="#404040" d="M270,-568.38C270,-556.47 270,-544.54 270,-533"/>
<polygon fill="none" stroke="#404040" points="270,-532.64 266,-526.64 270,-520.64 274,-526.64 270,-532.64"/>
<text text-anchor="middle" x="290" y="-542" font-family="Helvetica,sans-Serif" font-size="10.00"> &#45;mData</text>
</g>
<!-- Node7 -->
<g id="node7" class="node">
<title>Node7</title>
<g id="a_node7"><a xlink:href="classtklb_1_1_heap_buffer.html" target="_top" xlink:title="Basically a bad std::vector without exceptions which can also work with foreign memory.">
<polygon fill="none" stroke="black" points="198.5,-871.5 198.5,-1093.5 341.5,-1093.5 341.5,-871.5 198.5,-871.5"/>
<text text-anchor="start" x="206.5" y="-1081.5" font-family="Helvetica,sans-Serif" font-size="10.00">tklb::HeapBuffer&lt; T,</text>
<text text-anchor="start" x="206.5" y="-1070.5" font-family="Helvetica,sans-Serif" font-size="10.00"> ALIGNMENT, ALLOCATOR,</text>
<text text-anchor="middle" x="270" y="-1059.5" font-family="Helvetica,sans-Serif" font-size="10.00"> SIZE &gt;</text>
<polyline fill="none" stroke="black" points="198.5,-1052.5 341.5,-1052.5 "/>
<text text-anchor="middle" x="270" y="-1040.5" font-family="Helvetica,sans-Serif" font-size="10.00"> </text>
<polyline fill="none" stroke="black" points="198.5,-1033.5 341.5,-1033.5 "/>
<text text-anchor="start" x="206.5" y="-1021.5" font-family="Helvetica,sans-Serif" font-size="10.00">+ HeapBuffer()</text>
<text text-anchor="start" x="206.5" y="-1010.5" font-family="Helvetica,sans-Serif" font-size="10.00">+ HeapBuffer()</text>
<text text-anchor="start" x="206.5" y="-999.5" font-family="Helvetica,sans-Serif" font-size="10.00">+ HeapBuffer()</text>
<text text-anchor="start" x="206.5" y="-988.5" font-family="Helvetica,sans-Serif" font-size="10.00">+ HeapBuffer()</text>
<text text-anchor="start" x="206.5" y="-977.5" font-family="Helvetica,sans-Serif" font-size="10.00">+ HeapBuffer()</text>
<text text-anchor="start" x="206.5" y="-966.5" font-family="Helvetica,sans-Serif" font-size="10.00">+ operator=()</text>
<text text-anchor="start" x="206.5" y="-955.5" font-family="Helvetica,sans-Serif" font-size="10.00">+ operator=()</text>
<text text-anchor="start" x="206.5" y="-944.5" font-family="Helvetica,sans-Serif" font-size="10.00">+ HeapBuffer()</text>
<text text-anchor="start" x="206.5" y="-933.5" font-family="Helvetica,sans-Serif" font-size="10.00">+ ~HeapBuffer()</text>
<text text-anchor="start" x="206.5" y="-922.5" font-family="Helvetica,sans-Serif" font-size="10.00">+ set()</text>
<text text-anchor="start" x="206.5" y="-911.5" font-family="Helvetica,sans-Serif" font-size="10.00">and 28 more...</text>
<text text-anchor="start" x="206.5" y="-900.5" font-family="Helvetica,sans-Serif" font-size="10.00">+ closestChunkSize()</text>
<text text-anchor="start" x="206.5" y="-889.5" font-family="Helvetica,sans-Serif" font-size="10.00">+ isAligned()</text>
<text text-anchor="start" x="206.5" y="-878.5" font-family="Helvetica,sans-Serif" font-size="10.00">&#45; allocate()</text>
</a>
</g>
</g>
<!-- Node7&#45;&gt;Node6 -->
<g id="edge6" class="edge">
<title>Node7&#45;&gt;Node6</title>
<path fill="none" stroke="orange" d="M270,-860.88C270,-848.65 270,-836.2 270,-823.9"/>
<polygon fill="orange" stroke="orange" points="266.5,-861.1 270,-871.1 273.5,-861.1 266.5,-861.1"/>
<text text-anchor="middle" x="293.5" y="-845" font-family="Helvetica,sans-Serif" font-size="10.00"> &lt; char &gt;</text>
</g>
<!-- Node8 -->
<g id="node8" class="node">
<title>Node8</title>
<g id="a_node8"><a xlink:title=" ">
<polygon fill="none" stroke="#bfbfbf" points="109.5,-1180 109.5,-1237 154.5,-1237 154.5,-1180 109.5,-1180"/>
<text text-anchor="middle" x="132" y="-1225" font-family="Helvetica,sans-Serif" font-size="10.00">size_t</text>
<polyline fill="none" stroke="#bfbfbf" points="109.5,-1218 154.5,-1218 "/>
<text text-anchor="middle" x="132" y="-1206" font-family="Helvetica,sans-Serif" font-size="10.00"> </text>
<polyline fill="none" stroke="#bfbfbf" points="109.5,-1199 154.5,-1199 "/>
<text text-anchor="middle" x="132" y="-1187" font-family="Helvetica,sans-Serif" font-size="10.00"> </text>
</a>
</g>
</g>
<!-- Node8&#45;&gt;Node7 -->
<g id="edge7" class="edge">
<title>Node8&#45;&gt;Node7</title>
<path fill="none" stroke="#404040" d="M138.07,-1179.61C143.05,-1159.93 151.21,-1133.37 163,-1112 170.96,-1097.58 180.64,-1083.24 190.89,-1069.65"/>
<polygon fill="none" stroke="#404040" points="191.1,-1069.39 191.61,-1062.2 198.45,-1059.9 197.94,-1067.1 191.1,-1069.39"/>
<text text-anchor="middle" x="194" y="-1126" font-family="Helvetica,sans-Serif" font-size="10.00"> +Alignment</text>
<text text-anchor="middle" x="194" y="-1115" font-family="Helvetica,sans-Serif" font-size="10.00">+ChunkSize</text>
</g>
<!-- Node9 -->
<g id="node9" class="node">
<title>Node9</title>
<g id="a_node9"><a xlink:href="structtklb_1_1_std_allocator.html" target="_top" xlink:title=" ">
<polygon fill="none" stroke="black" points="172.5,-1152.5 172.5,-1264.5 279.5,-1264.5 279.5,-1152.5 172.5,-1152.5"/>
<text text-anchor="start" x="180.5" y="-1252.5" font-family="Helvetica,sans-Serif" font-size="10.00">tklb::StdAllocator</text>
<text text-anchor="middle" x="226" y="-1241.5" font-family="Helvetica,sans-Serif" font-size="10.00">&lt; unsigned char &gt;</text>
<polyline fill="none" stroke="black" points="172.5,-1234.5 279.5,-1234.5 "/>
<text text-anchor="middle" x="226" y="-1222.5" font-family="Helvetica,sans-Serif" font-size="10.00"> </text>
<polyline fill="none" stroke="black" points="172.5,-1215.5 279.5,-1215.5 "/>
<text text-anchor="start" x="180.5" y="-1203.5" font-family="Helvetica,sans-Serif" font-size="10.00">+ StdAllocator()</text>
<text text-anchor="start" x="180.5" y="-1192.5" font-family="Helvetica,sans-Serif" font-size="10.00">+ StdAllocator()</text>
<text text-anchor="start" x="180.5" y="-1181.5" font-family="Helvetica,sans-Serif" font-size="10.00">+ StdAllocator()</text>
<text text-anchor="start" x="180.5" y="-1170.5" font-family="Helvetica,sans-Serif" font-size="10.00">+ allocate()</text>
<text text-anchor="start" x="180.5" y="-1159.5" font-family="Helvetica,sans-Serif" font-size="10.00">+ deallocate()</text>
</a>
</g>
</g>
<!-- Node9&#45;&gt;Node7 -->
<g id="edge8" class="edge">
<title>Node9&#45;&gt;Node7</title>
<path fill="none" stroke="#404040" d="M226.6,-1152.45C227.38,-1139.14 228.72,-1125 231,-1112 231.36,-1109.95 231.74,-1107.88 232.14,-1105.81"/>
<polygon fill="none" stroke="#404040" points="232.19,-1105.58 229.51,-1098.88 234.66,-1093.83 237.34,-1100.53 232.19,-1105.58"/>
<text text-anchor="middle" x="261.5" y="-1120.5" font-family="Helvetica,sans-Serif" font-size="10.00"> &#45;mAllocator</text>
</g>
<!-- Node10 -->
<g id="node10" class="node">
<title>Node10</title>
<g id="a_node10"><a xlink:href="structtklb_1_1_std_allocator.html" target="_top" xlink:title=" ">
<polygon fill="none" stroke="black" points="161.5,-1312.5 161.5,-1413.5 290.5,-1413.5 290.5,-1312.5 161.5,-1312.5"/>
<text text-anchor="middle" x="226" y="-1401.5" font-family="Helvetica,sans-Serif" font-size="10.00">tklb::StdAllocator&lt; T &gt;</text>
<polyline fill="none" stroke="black" points="161.5,-1394.5 290.5,-1394.5 "/>
<text text-anchor="middle" x="226" y="-1382.5" font-family="Helvetica,sans-Serif" font-size="10.00"> </text>
<polyline fill="none" stroke="black" points="161.5,-1375.5 290.5,-1375.5 "/>
<text text-anchor="start" x="169.5" y="-1363.5" font-family="Helvetica,sans-Serif" font-size="10.00">+ StdAllocator()</text>
<text text-anchor="start" x="169.5" y="-1352.5" font-family="Helvetica,sans-Serif" font-size="10.00">+ StdAllocator()</text>
<text text-anchor="start" x="169.5" y="-1341.5" font-family="Helvetica,sans-Serif" font-size="10.00">+ StdAllocator()</text>
<text text-anchor="start" x="169.5" y="-1330.5" font-family="Helvetica,sans-Serif" font-size="10.00">+ allocate()</text>
<text text-anchor="start" x="169.5" y="-1319.5" font-family="Helvetica,sans-Serif" font-size="10.00">+ deallocate()</text>
</a>
</g>
</g>
<!-- Node10&#45;&gt;Node9 -->
<g id="edge9" class="edge">
<title>Node10&#45;&gt;Node9</title>
<path fill="none" stroke="orange" d="M226,-1302.24C226,-1289.83 226,-1276.8 226,-1264.57"/>
<polygon fill="orange" stroke="orange" points="222.5,-1302.49 226,-1312.49 229.5,-1302.49 222.5,-1302.49"/>
<text text-anchor="middle" x="273" y="-1286" font-family="Helvetica,sans-Serif" font-size="10.00"> &lt; unsigned char &gt;</text>
</g>
<!-- Node11 -->
<g id="node11" class="node">
<title>Node11</title>
<g id="a_node11"><a xlink:title=" ">
<polygon fill="none" stroke="#bfbfbf" points="297.5,-1180 297.5,-1237 328.5,-1237 328.5,-1180 297.5,-1180"/>
<text text-anchor="middle" x="313" y="-1225" font-family="Helvetica,sans-Serif" font-size="10.00">T *</text>
<polyline fill="none" stroke="#bfbfbf" points="297.5,-1218 328.5,-1218 "/>
<text text-anchor="middle" x="313" y="-1206" font-family="Helvetica,sans-Serif" font-size="10.00"> </text>
<polyline fill="none" stroke="#bfbfbf" points="297.5,-1199 328.5,-1199 "/>
<text text-anchor="middle" x="313" y="-1187" font-family="Helvetica,sans-Serif" font-size="10.00"> </text>
</a>
</g>
</g>
<!-- Node11&#45;&gt;Node7 -->
<g id="edge10" class="edge">
<title>Node11&#45;&gt;Node7</title>
<path fill="none" stroke="#404040" d="M307.64,-1179.58C303.96,-1160.39 298.78,-1133.44 293.45,-1105.65"/>
<polygon fill="none" stroke="#404040" points="293.42,-1105.49 288.36,-1100.36 291.16,-1093.71 296.22,-1098.85 293.42,-1105.49"/>
<text text-anchor="middle" x="315" y="-1120.5" font-family="Helvetica,sans-Serif" font-size="10.00"> &#45;mBuf</text>
</g>
<!-- Node12 -->
<g id="node12" class="node">
<title>Node12</title>
<g id="a_node12"><a xlink:title=" ">
<polygon fill="none" stroke="#bfbfbf" points="346.5,-1180 346.5,-1237 423.5,-1237 423.5,-1180 346.5,-1180"/>
<text text-anchor="middle" x="385" y="-1225" font-family="Helvetica,sans-Serif" font-size="10.00">unsigned int</text>
<polyline fill="none" stroke="#bfbfbf" points="346.5,-1218 423.5,-1218 "/>
<text text-anchor="middle" x="385" y="-1206" font-family="Helvetica,sans-Serif" font-size="10.00"> </text>
<polyline fill="none" stroke="#bfbfbf" points="346.5,-1199 423.5,-1199 "/>
<text text-anchor="middle" x="385" y="-1187" font-family="Helvetica,sans-Serif" font-size="10.00"> </text>
</a>
</g>
</g>
<!-- Node12&#45;&gt;Node7 -->
<g id="edge11" class="edge">
<title>Node12&#45;&gt;Node7</title>
<path fill="none" stroke="#404040" d="M370.85,-1179.92C361.07,-1160.84 347.74,-1134.88 336,-1112 334.7,-1109.46 333.38,-1106.89 332.05,-1104.3"/>
<polygon fill="none" stroke="#404040" points="332.01,-1104.23 325.71,-1100.72 326.53,-1093.55 332.83,-1097.06 332.01,-1104.23"/>
<text text-anchor="middle" x="376.5" y="-1126" font-family="Helvetica,sans-Serif" font-size="10.00"> &#45;mRealSize</text>
<text text-anchor="middle" x="376.5" y="-1115" font-family="Helvetica,sans-Serif" font-size="10.00">&#45;mSize</text>
</g>
<!-- Node13 -->
<g id="node13" class="node">
<title>Node13</title>
<g id="a_node13"><a xlink:href="classtklb_1_1_stack_string.html" target="_top" xlink:title=" ">
<polygon fill="none" stroke="black" points="356.5,-133 356.5,-300 487.5,-300 487.5,-133 356.5,-133"/>
<text text-anchor="middle" x="422" y="-288" font-family="Helvetica,sans-Serif" font-size="10.00">tklb::StackString&lt; 16 &gt;</text>
<polyline fill="none" stroke="black" points="356.5,-281 487.5,-281 "/>
<text text-anchor="start" x="364.5" y="-269" font-family="Helvetica,sans-Serif" font-size="10.00">&#45; mData</text>
<polyline fill="none" stroke="black" points="356.5,-262 487.5,-262 "/>
<text text-anchor="start" x="364.5" y="-250" font-family="Helvetica,sans-Serif" font-size="10.00">+ StackString()</text>
<text text-anchor="start" x="364.5" y="-239" font-family="Helvetica,sans-Serif" font-size="10.00">+ StackString()</text>
<text text-anchor="start" x="364.5" y="-228" font-family="Helvetica,sans-Serif" font-size="10.00">+ operator=()</text>
<text text-anchor="start" x="364.5" y="-217" font-family="Helvetica,sans-Serif" font-size="10.00">+ c_str()</text>
<text text-anchor="start" x="364.5" y="-206" font-family="Helvetica,sans-Serif" font-size="10.00">+ operator[]()</text>
<text text-anchor="start" x="364.5" y="-195" font-family="Helvetica,sans-Serif" font-size="10.00">+ operator[]()</text>
<text text-anchor="start" x="364.5" y="-184" font-family="Helvetica,sans-Serif" font-size="10.00">+ operator==()</text>
<text text-anchor="start" x="364.5" y="-173" font-family="Helvetica,sans-Serif" font-size="10.00">+ operator==()</text>
<text text-anchor="start" x="364.5" y="-162" font-family="Helvetica,sans-Serif" font-size="10.00">+ empty()</text>
<text text-anchor="start" x="364.5" y="-151" font-family="Helvetica,sans-Serif" font-size="10.00">+ size()</text>
<text text-anchor="start" x="364.5" y="-140" font-family="Helvetica,sans-Serif" font-size="10.00">+ set()</text>
</a>
</g>
</g>
<!-- Node13&#45;&gt;Node1 -->
<g id="edge12" class="edge">
<title>Node13&#45;&gt;Node1</title>
<path fill="none" stroke="#404040" d="M356.14,-135.17C353.13,-132.34 350.07,-129.6 347,-127 314.7,-99.67 273.77,-75.34 241,-57.88"/>
<polygon fill="none" stroke="#404040" points="240.85,-57.81 233.68,-58.56 230.23,-52.23 237.4,-51.48 240.85,-57.81"/>
<text text-anchor="middle" x="343" y="-90" font-family="Helvetica,sans-Serif" font-size="10.00"> +name</text>
</g>
<!-- Node14 -->
<g id="node14" class="node">
<title>Node14</title>
<g id="a_node14"><a xlink:href="classtklb_1_1_stack_string.html" target="_top" xlink:title="Super simple class to hold and compare strings on the stack.">
<polygon fill="none" stroke="black" points="358.5,-353.5 358.5,-520.5 485.5,-520.5 485.5,-353.5 358.5,-353.5"/>
<text text-anchor="middle" x="422" y="-508.5" font-family="Helvetica,sans-Serif" font-size="10.00">tklb::StackString&lt; N &gt;</text>
<polyline fill="none" stroke="black" points="358.5,-501.5 485.5,-501.5 "/>
<text text-anchor="middle" x="422" y="-489.5" font-family="Helvetica,sans-Serif" font-size="10.00"> </text>
<polyline fill="none" stroke="black" points="358.5,-482.5 485.5,-482.5 "/>
<text text-anchor="start" x="366.5" y="-470.5" font-family="Helvetica,sans-Serif" font-size="10.00">+ StackString()</text>
<text text-anchor="start" x="366.5" y="-459.5" font-family="Helvetica,sans-Serif" font-size="10.00">+ StackString()</text>
<text text-anchor="start" x="366.5" y="-448.5" font-family="Helvetica,sans-Serif" font-size="10.00">+ operator=()</text>
<text text-anchor="start" x="366.5" y="-437.5" font-family="Helvetica,sans-Serif" font-size="10.00">+ c_str()</text>
<text text-anchor="start" x="366.5" y="-426.5" font-family="Helvetica,sans-Serif" font-size="10.00">+ operator[]()</text>
<text text-anchor="start" x="366.5" y="-415.5" font-family="Helvetica,sans-Serif" font-size="10.00">+ operator[]()</text>
<text text-anchor="start" x="366.5" y="-404.5" font-family="Helvetica,sans-Serif" font-size="10.00">+ operator==()</text>
<text text-anchor="start" x="366.5" y="-393.5" font-family="Helvetica,sans-Serif" font-size="10.00">+ operator==()</text>
<text text-anchor="start" x="366.5" y="-382.5" font-family="Helvetica,sans-Serif" font-size="10.00">+ empty()</text>
<text text-anchor="start" x="366.5" y="-371.5" font-family="Helvetica,sans-Serif" font-size="10.00">+ size()</text>
<text text-anchor="start" x="366.5" y="-360.5" font-family="Helvetica,sans-Serif" font-size="10.00">+ set()</text>
</a>
</g>
</g>
<!-- Node14&#45;&gt;Node13 -->
<g id="edge13" class="edge">
<title>Node14&#45;&gt;Node13</title>
<path fill="none" stroke="orange" d="M422,-343.1C422,-328.86 422,-314.23 422,-300.22"/>
<polygon fill="orange" stroke="orange" points="418.5,-343.39 422,-353.39 425.5,-343.39 418.5,-343.39"/>
<text text-anchor="middle" x="441" y="-327" font-family="Helvetica,sans-Serif" font-size="10.00"> &lt; 16 &gt;</text>
</g>
<!-- Node15 -->
<g id="node15" class="node">
<title>Node15</title>
<g id="a_node15"><a xlink:title=" ">
<polygon fill="none" stroke="#bfbfbf" points="403,-667.5 403,-724.5 441,-724.5 441,-667.5 403,-667.5"/>
<text text-anchor="middle" x="422" y="-712.5" font-family="Helvetica,sans-Serif" font-size="10.00">char</text>
<polyline fill="none" stroke="#bfbfbf" points="403,-705.5 441,-705.5 "/>
<text text-anchor="middle" x="422" y="-693.5" font-family="Helvetica,sans-Serif" font-size="10.00"> </text>
<polyline fill="none" stroke="#bfbfbf" points="403,-686.5 441,-686.5 "/>
<text text-anchor="middle" x="422" y="-674.5" font-family="Helvetica,sans-Serif" font-size="10.00"> </text>
</a>
</g>
</g>
<!-- Node15&#45;&gt;Node14 -->
<g id="edge14" class="edge">
<title>Node15&#45;&gt;Node14</title>
<path fill="none" stroke="#404040" d="M422,-667.5C422,-635.44 422,-580.75 422,-532.79"/>
<polygon fill="none" stroke="#404040" points="422,-532.76 418,-526.76 422,-520.76 426,-526.76 422,-532.76"/>
<text text-anchor="middle" x="442" y="-542" font-family="Helvetica,sans-Serif" font-size="10.00"> &#45;mData</text>
</g>
</g>
</svg>
        <g id="navigator" transform="translate(0 0)" fill="#404254">
                <rect fill="#f2f5e9" fill-opacity="0.5" stroke="#606060" stroke-width=".5" x="0" y="0" width="60" height="60"/>
                <use id="zoomplus" xlink:href="#zoomPlus" x="17" y="9" onmousedown="handleZoom(evt,'in')"/>
                <use id="zoomminus" xlink:href="#zoomMin" x="42" y="9" onmousedown="handleZoom(evt,'out')"/>
                <use id="reset" xlink:href="#resetDef" x="30" y="36" onmousedown="handleReset()"/>
                <g id="arrowUp" xlink:href="#dirArrow" transform="translate(30 24)" onmousedown="handlePan(0,-1)">
                  <use xlink:href="#rim" fill="#404040">
                        <set attributeName="fill" to="#808080" begin="arrowUp.mouseover" end="arrowUp.mouseout"/>
                  </use>
                  <path fill="none" stroke="white" stroke-width="1.5" d="M0,-3.0v7 M-2.5,-0.5L0,-3.0L2.5,-0.5"/>
                </g>
                <g id="arrowRight" xlink:href="#dirArrow" transform="rotate(90) translate(36 -43)" onmousedown="handlePan(1,0)">
                  <use xlink:href="#rim" fill="#404040">
                        <set attributeName="fill" to="#808080" begin="arrowRight.mouseover" end="arrowRight.mouseout"/>
                  </use>
                  <path fill="none" stroke="white" stroke-width="1.5" d="M0,-3.0v7 M-2.5,-0.5L0,-3.0L2.5,-0.5"/>
                </g>
                <g id="arrowDown" xlink:href="#dirArrow" transform="rotate(180) translate(-30 -48)" onmousedown="handlePan(0,1)">
                  <use xlink:href="#rim" fill="#404040">
                        <set attributeName="fill" to="#808080" begin="arrowDown.mouseover" end="arrowDown.mouseout"/>
                  </use>
                  <path fill="none" stroke="white" stroke-width="1.5" d="M0,-3.0v7 M-2.5,-0.5L0,-3.0L2.5,-0.5"/>
                </g>
                <g id="arrowLeft" xlink:href="#dirArrow" transform="rotate(270) translate(-36 17)" onmousedown="handlePan(-1,0)">
                  <use xlink:href="#rim" fill="#404040">
                        <set attributeName="fill" to="#808080" begin="arrowLeft.mouseover" end="arrowLeft.mouseout"/>
                  </use>
                  <path fill="none" stroke="white" stroke-width="1.5" d="M0,-3.0v7 M-2.5,-0.5L0,-3.0L2.5,-0.5"/>
                </g>
        </g>
        <svg viewBox="0 0 15 15" width="100%" height="30px" preserveAspectRatio="xMaxYMin meet">
         <g id="arrow_out" transform="scale(0.3 0.3)">
          <a xlink:href="structvae_1_1core_1_1_bank__coll__graph_org.svg" target="_base">
           <rect id="button" ry="5" rx="5" y="6" x="6" height="38" width="38"
                fill="#f2f5e9" fill-opacity="0.5" stroke="#606060" stroke-width="1.0"/>
           <path id="arrow"
             d="M 11.500037,31.436501 C 11.940474,20.09759 22.043105,11.32322 32.158766,21.979434 L 37.068811,17.246167 C 37.068811,17.246167 37.088388,32 37.088388,32 L 22.160133,31.978069 C 22.160133,31.978069 26.997745,27.140456 26.997745,27.140456 C 18.528582,18.264221 13.291696,25.230495 11.500037,31.436501 z"
             style="fill:#404040;"/>
          </a>
         </g>
        </svg>
</svg>
