<?xml version="1.0" encoding="UTF-8" standalone="no"?>
<!DOCTYPE svg PUBLIC "-//W3C//DTD SVG 1.1//EN"
 "http://www.w3.org/Graphics/SVG/1.1/DTD/svg11.dtd">
<!-- Generated by graphviz version 2.50.0 (0)
 -->
<!-- Title: vae::core::Processor::mix Pages: 1 -->
<svg width="643pt" height="198pt"
 viewBox="0.00 0.00 643.00 197.50" xmlns="http://www.w3.org/2000/svg" xmlns:xlink="http://www.w3.org/1999/xlink">
<g id="graph0" class="graph" transform="scale(1 1) rotate(0) translate(4 193.5)">
<title>vae::core::Processor::mix</title>
<!-- Node1 -->
<g id="node1" class="node">
<title>Node1</title>
<g id="a_node1"><a xlink:title="Process a single bank.">
<polygon fill="#bfbfbf" stroke="black" points="0,-68.5 0,-87.5 140,-87.5 140,-68.5 0,-68.5"/>
<text text-anchor="middle" x="70" y="-75.5" font-family="Helvetica,sans-Serif" font-size="10.00">vae::core::Processor::mix</text>
</a>
</g>
</g>
<!-- Node1&#45;&gt;Node1 -->
<g id="edge8" class="edge">
<title>Node1&#45;&gt;Node1</title>
<path fill="none" stroke="midnightblue" d="M43.8,-87.76C31.05,-96.57 39.79,-106 70,-106 90.3,-106 100.9,-101.74 101.81,-96.27"/>
<polygon fill="midnightblue" stroke="midnightblue" points="104.63,-94.18 96.2,-87.76 98.78,-98.03 104.63,-94.18"/>
</g>
<!-- Node2 -->
<g id="node2" class="node">
<title>Node2</title>
<g id="a_node2"><a xlink:href="classvae_1_1core_1_1_voice_manger.html#a9df59537b8863e7f8add0eb11553942a" target="_top" xlink:title="Callback provided to iterate voices, needs to return a bool to indicate when a voice needs to be stop...">
<polygon fill="none" stroke="black" points="176,-137 176,-167 305,-167 305,-137 176,-137"/>
<text text-anchor="start" x="184" y="-155" font-family="Helvetica,sans-Serif" font-size="10.00">vae::core::VoiceManger</text>
<text text-anchor="middle" x="240.5" y="-144" font-family="Helvetica,sans-Serif" font-size="10.00">::forEachVoice</text>
</a>
</g>
</g>
<!-- Node1&#45;&gt;Node2 -->
<g id="edge1" class="edge">
<title>Node1&#45;&gt;Node2</title>
<path fill="none" stroke="midnightblue" d="M89.75,-87.51C110.59,-97.94 145.35,-114.94 176,-128 180.07,-129.74 184.32,-131.48 188.6,-133.19"/>
<polygon fill="midnightblue" stroke="midnightblue" points="187.38,-136.47 197.97,-136.87 189.94,-129.96 187.38,-136.47"/>
</g>
<!-- Node6 -->
<g id="node6" class="node">
<title>Node6</title>
<g id="a_node6"><a xlink:href="classvae_1_1core_1_1_voice_manger.html#a90d2a089d06a09d1e968b98d74b7baaa" target="_top" xlink:title=" ">
<polygon fill="none" stroke="black" points="176,-88 176,-118 305,-118 305,-88 176,-88"/>
<text text-anchor="start" x="184" y="-106" font-family="Helvetica,sans-Serif" font-size="10.00">vae::core::VoiceManger</text>
<text text-anchor="middle" x="240.5" y="-95" font-family="Helvetica,sans-Serif" font-size="10.00">::getVoiceFilter</text>
</a>
</g>
</g>
<!-- Node1&#45;&gt;Node6 -->
<g id="edge5" class="edge">
<title>Node1&#45;&gt;Node6</title>
<path fill="none" stroke="midnightblue" d="M135.18,-87.52C145.16,-89 155.53,-90.54 165.7,-92.05"/>
<polygon fill="midnightblue" stroke="midnightblue" points="165.37,-95.54 175.77,-93.55 166.4,-88.62 165.37,-95.54"/>
</g>
<!-- Node7 -->
<g id="node7" class="node">
<title>Node7</title>
<g id="a_node7"><a xlink:href="classvae_1_1core_1_1_voice_manger.html#a2467c55a66b4f30697d1766597f310f9" target="_top" xlink:title=" ">
<polygon fill="none" stroke="black" points="176,-39 176,-69 305,-69 305,-39 176,-39"/>
<text text-anchor="start" x="184" y="-57" font-family="Helvetica,sans-Serif" font-size="10.00">vae::core::VoiceManger</text>
<text text-anchor="middle" x="240.5" y="-46" font-family="Helvetica,sans-Serif" font-size="10.00">::getVoicePan</text>
</a>
</g>
</g>
<!-- Node1&#45;&gt;Node7 -->
<g id="edge6" class="edge">
<title>Node1&#45;&gt;Node7</title>
<path fill="none" stroke="midnightblue" d="M138.08,-68.45C147.25,-67.14 156.7,-65.79 165.97,-64.47"/>
<polygon fill="midnightblue" stroke="midnightblue" points="166.53,-67.93 175.94,-63.05 165.55,-61 166.53,-67.93"/>
</g>
<!-- Node8 -->
<g id="node8" class="node">
<title>Node8</title>
<g id="a_node8"><a xlink:href="namespacetklb.html#a3080595da18d742645ec41d61828a426" target="_top" xlink:title=" ">
<polygon fill="none" stroke="black" points="210.5,-0.5 210.5,-19.5 270.5,-19.5 270.5,-0.5 210.5,-0.5"/>
<text text-anchor="middle" x="240.5" y="-7.5" font-family="Helvetica,sans-Serif" font-size="10.00">tklb::min</text>
</a>
</g>
</g>
<!-- Node1&#45;&gt;Node8 -->
<g id="edge7" class="edge">
<title>Node1&#45;&gt;Node8</title>
<path fill="none" stroke="midnightblue" d="M90.05,-68.43C110.85,-58.18 145.32,-41.79 176,-30 183.9,-26.96 192.48,-24.03 200.7,-21.38"/>
<polygon fill="midnightblue" stroke="midnightblue" points="201.98,-24.65 210.47,-18.32 199.89,-17.97 201.98,-24.65"/>
</g>
<!-- Node3 -->
<g id="node3" class="node">
<title>Node3</title>
<g id="a_node3"><a xlink:href="classvae_1_1core_1_1_voice_manger.html#a05cac4208804674ffdb173cc54fb5bd2" target="_top" xlink:title="Stops a voice.">
<polygon fill="none" stroke="black" points="341,-137 341,-167 470,-167 470,-137 341,-137"/>
<text text-anchor="start" x="349" y="-155" font-family="Helvetica,sans-Serif" font-size="10.00">vae::core::VoiceManger</text>
<text text-anchor="middle" x="405.5" y="-144" font-family="Helvetica,sans-Serif" font-size="10.00">::stopVoice</text>
</a>
</g>
</g>
<!-- Node2&#45;&gt;Node3 -->
<g id="edge2" class="edge">
<title>Node2&#45;&gt;Node3</title>
<path fill="none" stroke="midnightblue" d="M305.45,-152C313.76,-152 322.32,-152 330.77,-152"/>
<polygon fill="midnightblue" stroke="midnightblue" points="331,-155.5 341,-152 331,-148.5 331,-155.5"/>
</g>
<!-- Node4 -->
<g id="node4" class="node">
<title>Node4</title>
<g id="a_node4"><a xlink:href="classvae_1_1core_1_1_voice_manger.html#abe6b6d5a07c73e1e194f24314226a19f" target="_top" xlink:title=" ">
<polygon fill="none" stroke="black" points="506,-159 506,-189 635,-189 635,-159 506,-159"/>
<text text-anchor="start" x="514" y="-177" font-family="Helvetica,sans-Serif" font-size="10.00">vae::core::VoiceManger</text>
<text text-anchor="middle" x="570.5" y="-166" font-family="Helvetica,sans-Serif" font-size="10.00">::finished</text>
</a>
</g>
</g>
<!-- Node3&#45;&gt;Node4 -->
<g id="edge3" class="edge">
<title>Node3&#45;&gt;Node4</title>
<path fill="none" stroke="midnightblue" d="M470.45,-160.63C478.85,-161.77 487.51,-162.93 496.05,-164.09"/>
<polygon fill="midnightblue" stroke="midnightblue" points="495.62,-167.56 506,-165.43 496.56,-160.62 495.62,-167.56"/>
</g>
<!-- Node5 -->
<g id="node5" class="node">
<title>Node5</title>
<g id="a_node5"><a xlink:href="namespacetklb.html#a7dc2203e89c331e3c85b9e7f16fa6763" target="_top" xlink:title=" ">
<polygon fill="none" stroke="black" points="539,-120.5 539,-139.5 602,-139.5 602,-120.5 539,-120.5"/>
<text text-anchor="middle" x="570.5" y="-127.5" font-family="Helvetica,sans-Serif" font-size="10.00">tklb::max</text>
</a>
</g>
</g>
<!-- Node3&#45;&gt;Node5 -->
<g id="edge4" class="edge">
<title>Node3&#45;&gt;Node5</title>
<path fill="none" stroke="midnightblue" d="M470.45,-143.37C490.14,-140.71 511.25,-137.86 528.91,-135.48"/>
<polygon fill="midnightblue" stroke="midnightblue" points="529.43,-138.94 538.87,-134.13 528.49,-132 529.43,-138.94"/>
</g>
</g>
</svg>
