<?xml version="1.0" encoding="UTF-8" standalone="no"?>
<!DOCTYPE svg PUBLIC "-//W3C//DTD SVG 1.1//EN"
 "http://www.w3.org/Graphics/SVG/1.1/DTD/svg11.dtd">
<!-- Generated by graphviz version 2.50.0 (0)
 -->
<!-- Title: tklb::memory::tracer::MagicBlock Pages: 1 -->
<svg width="266pt" height="270pt"
 viewBox="0.00 0.00 265.50 270.00" xmlns="http://www.w3.org/2000/svg" xmlns:xlink="http://www.w3.org/1999/xlink">
<g id="graph0" class="graph" transform="scale(1 1) rotate(0) translate(4 266)">
<title>tklb::memory::tracer::MagicBlock</title>
<!-- Node1 -->
<g id="node1" class="node">
<title>Node1</title>
<g id="a_node1"><a xlink:title="Struct inserted at the end of every allocation.">
<polygon fill="#bfbfbf" stroke="black" points="85.5,-0.5 85.5,-123.5 202.5,-123.5 202.5,-0.5 85.5,-0.5"/>
<text text-anchor="start" x="93.5" y="-111.5" font-family="Helvetica,sans-Serif" font-size="10.00">tklb::memory::tracer</text>
<text text-anchor="middle" x="144" y="-100.5" font-family="Helvetica,sans-Serif" font-size="10.00">::MagicBlock</text>
<polyline fill="none" stroke="black" points="85.5,-93.5 202.5,-93.5 "/>
<text text-anchor="middle" x="144" y="-81.5" font-family="Helvetica,sans-Serif" font-size="10.00"> </text>
<polyline fill="none" stroke="black" points="85.5,-74.5 202.5,-74.5 "/>
<text text-anchor="start" x="93.5" y="-62.5" font-family="Helvetica,sans-Serif" font-size="10.00">+ MagicBlock()</text>
<text text-anchor="start" x="93.5" y="-51.5" font-family="Helvetica,sans-Serif" font-size="10.00">+ construct()</text>
<text text-anchor="start" x="93.5" y="-40.5" font-family="Helvetica,sans-Serif" font-size="10.00">+ compare()</text>
<text text-anchor="start" x="93.5" y="-29.5" font-family="Helvetica,sans-Serif" font-size="10.00">+ check()</text>
<text text-anchor="start" x="93.5" y="-18.5" font-family="Helvetica,sans-Serif" font-size="10.00">+ find()</text>
<text text-anchor="start" x="93.5" y="-7.5" font-family="Helvetica,sans-Serif" font-size="10.00">+ destroy()</text>
</a>
</g>
</g>
<!-- Node2 -->
<g id="node2" class="node">
<title>Node2</title>
<g id="a_node2"><a xlink:title=" ">
<polygon fill="none" stroke="#bfbfbf" points="0,-204.5 0,-261.5 38,-261.5 38,-204.5 0,-204.5"/>
<text text-anchor="middle" x="19" y="-249.5" font-family="Helvetica,sans-Serif" font-size="10.00">char</text>
<polyline fill="none" stroke="#bfbfbf" points="0,-242.5 38,-242.5 "/>
<text text-anchor="middle" x="19" y="-230.5" font-family="Helvetica,sans-Serif" font-size="10.00"> </text>
<polyline fill="none" stroke="#bfbfbf" points="0,-223.5 38,-223.5 "/>
<text text-anchor="middle" x="19" y="-211.5" font-family="Helvetica,sans-Serif" font-size="10.00"> </text>
</a>
</g>
</g>
<!-- Node2&#45;&gt;Node1 -->
<g id="edge1" class="edge">
<title>Node2&#45;&gt;Node1</title>
<path fill="none" stroke="#404040" d="M19.82,-204.09C21.53,-185.27 26.12,-160.56 38,-142 47.65,-126.92 61.26,-113.7 75.52,-102.6"/>
<polygon fill="none" stroke="#404040" points="75.8,-102.39 78.25,-95.6 85.45,-95.25 83.01,-102.04 75.8,-102.39"/>
<text text-anchor="middle" x="75.5" y="-178" font-family="Helvetica,sans-Serif" font-size="10.00"> +file</text>
<text text-anchor="middle" x="75.5" y="-167" font-family="Helvetica,sans-Serif" font-size="10.00">+magic</text>
<text text-anchor="middle" x="75.5" y="-156" font-family="Helvetica,sans-Serif" font-size="10.00">+magicBackup</text>
<text text-anchor="middle" x="75.5" y="-145" font-family="Helvetica,sans-Serif" font-size="10.00">+padding</text>
</g>
<!-- Node3 -->
<g id="node3" class="node">
<title>Node3</title>
<g id="a_node3"><a xlink:title=" ">
<polygon fill="none" stroke="#bfbfbf" points="100.5,-204.5 100.5,-261.5 129.5,-261.5 129.5,-204.5 100.5,-204.5"/>
<text text-anchor="middle" x="115" y="-249.5" font-family="Helvetica,sans-Serif" font-size="10.00">int</text>
<polyline fill="none" stroke="#bfbfbf" points="100.5,-242.5 129.5,-242.5 "/>
<text text-anchor="middle" x="115" y="-230.5" font-family="Helvetica,sans-Serif" font-size="10.00"> </text>
<polyline fill="none" stroke="#bfbfbf" points="100.5,-223.5 129.5,-223.5 "/>
<text text-anchor="middle" x="115" y="-211.5" font-family="Helvetica,sans-Serif" font-size="10.00"> </text>
</a>
</g>
</g>
<!-- Node3&#45;&gt;Node1 -->
<g id="edge2" class="edge">
<title>Node3&#45;&gt;Node1</title>
<path fill="none" stroke="#404040" d="M115.77,-204.25C116.6,-186.37 118.35,-162.68 122,-142 122.38,-139.83 122.8,-137.64 123.24,-135.43"/>
<polygon fill="none" stroke="#404040" points="123.28,-135.26 120.67,-128.54 125.86,-123.54 128.48,-130.26 123.28,-135.26"/>
<text text-anchor="middle" x="137" y="-161.5" font-family="Helvetica,sans-Serif" font-size="10.00"> +line</text>
</g>
<!-- Node4 -->
<g id="node4" class="node">
<title>Node4</title>
<g id="a_node4"><a xlink:title=" ">
<polygon fill="none" stroke="#bfbfbf" points="148,-204.5 148,-261.5 194,-261.5 194,-204.5 148,-204.5"/>
<text text-anchor="middle" x="171" y="-249.5" font-family="Helvetica,sans-Serif" font-size="10.00">void *</text>
<polyline fill="none" stroke="#bfbfbf" points="148,-242.5 194,-242.5 "/>
<text text-anchor="middle" x="171" y="-230.5" font-family="Helvetica,sans-Serif" font-size="10.00"> </text>
<polyline fill="none" stroke="#bfbfbf" points="148,-223.5 194,-223.5 "/>
<text text-anchor="middle" x="171" y="-211.5" font-family="Helvetica,sans-Serif" font-size="10.00"> </text>
</a>
</g>
</g>
<!-- Node4&#45;&gt;Node1 -->
<g id="edge3" class="edge">
<title>Node4&#45;&gt;Node1</title>
<path fill="none" stroke="#404040" d="M166.6,-204.47C163.62,-185.83 159.54,-160.26 155.66,-135.98"/>
<polygon fill="none" stroke="#404040" points="155.61,-135.68 150.71,-130.39 153.72,-123.83 158.61,-129.12 155.61,-135.68"/>
<text text-anchor="middle" x="175.5" y="-161.5" font-family="Helvetica,sans-Serif" font-size="10.00"> +ptr</text>
</g>
<!-- Node5 -->
<g id="node5" class="node">
<title>Node5</title>
<g id="a_node5"><a xlink:title=" ">
<polygon fill="none" stroke="#bfbfbf" points="212.5,-204.5 212.5,-261.5 257.5,-261.5 257.5,-204.5 212.5,-204.5"/>
<text text-anchor="middle" x="235" y="-249.5" font-family="Helvetica,sans-Serif" font-size="10.00">size_t</text>
<polyline fill="none" stroke="#bfbfbf" points="212.5,-242.5 257.5,-242.5 "/>
<text text-anchor="middle" x="235" y="-230.5" font-family="Helvetica,sans-Serif" font-size="10.00"> </text>
<polyline fill="none" stroke="#bfbfbf" points="212.5,-223.5 257.5,-223.5 "/>
<text text-anchor="middle" x="235" y="-211.5" font-family="Helvetica,sans-Serif" font-size="10.00"> </text>
</a>
</g>
</g>
<!-- Node5&#45;&gt;Node1 -->
<g id="edge4" class="edge">
<title>Node5&#45;&gt;Node1</title>
<path fill="none" stroke="#404040" d="M222.72,-204.47C214.47,-186.47 203.12,-162.56 192,-142 190.65,-139.5 189.25,-136.97 187.83,-134.42"/>
<polygon fill="none" stroke="#404040" points="187.77,-134.32 181.32,-131.08 181.83,-123.89 188.27,-127.12 187.77,-134.32"/>
<text text-anchor="middle" x="229.5" y="-161.5" font-family="Helvetica,sans-Serif" font-size="10.00"> +size</text>
</g>
</g>
</svg>
