<?xml version="1.0" encoding="UTF-8" standalone="no"?>
<!DOCTYPE svg PUBLIC "-//W3C//DTD SVG 1.1//EN"
 "http://www.w3.org/Graphics/SVG/1.1/DTD/svg11.dtd">
<!-- Generated by graphviz version 2.50.0 (0)
 -->
<!-- Title: vae::core::Effect Pages: 1 -->
<!--zoomable 783 -->
<svg id="main" version="1.1" xmlns="http://www.w3.org/2000/svg" xmlns:xlink="http://www.w3.org/1999/xlink" xml:space="preserve" onload="init(evt)">
<style type="text/css"><![CDATA[
.edge:hover path { stroke: red; }
.edge:hover polygon { stroke: red; fill: red; }
]]></style>
<script type="text/javascript"><![CDATA[
var edges = document.getElementsByTagName('g');
if (edges && edges.length) {
  for (var i=0;i<edges.length;i++) {
    if (edges[i].id.substr(0,4)=='edge') {
      edges[i].setAttribute('class','edge');
    }
  }
}
]]></script>
        <defs>
                <circle id="rim" cx="0" cy="0" r="7"/>
                <circle id="rim2" cx="0" cy="0" r="3.5"/>
                <g id="zoomPlus">
                        <use xlink:href="#rim" fill="#404040">
                                <set attributeName="fill" to="#808080" begin="zoomplus.mouseover" end="zoomplus.mouseout"/>
                        </use>
                        <path d="M-4,0h8M0,-4v8" fill="none" stroke="white" stroke-width="1.5" pointer-events="none"/>
                </g>
                <g id="zoomMin">
                        <use xlink:href="#rim" fill="#404040">
                                <set attributeName="fill" to="#808080" begin="zoomminus.mouseover" end="zoomminus.mouseout"/>
                        </use>
                        <path d="M-4,0h8" fill="none" stroke="white" stroke-width="1.5" pointer-events="none"/>
                </g>
                <g id="dirArrow">
                        <path fill="none" stroke="white" stroke-width="1.5" d="M0,-3.0v7 M-2.5,-0.5L0,-3.0L2.5,-0.5"/>
                </g>
               <g id="resetDef">
                       <use xlink:href="#rim2" fill="#404040">
                               <set attributeName="fill" to="#808080" begin="reset.mouseover" end="reset.mouseout"/>
                       </use>
               </g>
        </defs>

<script type="text/javascript">
var viewWidth = 374;
var viewHeight = 783;
var sectionId = 'dynsection-0';
</script>
<script xlink:href="svgpan.js"/>
<svg id="graph" class="graph">
<g id="viewport">
<title>vae::core::Effect</title>
<!-- Node1 -->
<g id="node1" class="node">
<title>Node1</title>
<g id="a_node1"><a xlink:title="Effect pod.">
<polygon fill="#bfbfbf" stroke="black" points="147,-0.5 147,-57.5 243,-57.5 243,-0.5 147,-0.5"/>
<text text-anchor="middle" x="195" y="-45.5" font-family="Helvetica,sans-Serif" font-size="10.00">vae::core::Effect</text>
<polyline fill="none" stroke="black" points="147,-38.5 243,-38.5 "/>
<text text-anchor="middle" x="195" y="-26.5" font-family="Helvetica,sans-Serif" font-size="10.00"> </text>
<polyline fill="none" stroke="black" points="147,-19.5 243,-19.5 "/>
<text text-anchor="middle" x="195" y="-7.5" font-family="Helvetica,sans-Serif" font-size="10.00"> </text>
</a>
</g>
</g>
<!-- Node2 -->
<g id="node2" class="node">
<title>Node2</title>
<g id="a_node2"><a xlink:href="classtklb_1_1_stack_string.html" target="_top" xlink:title=" ">
<polygon fill="none" stroke="black" points="65.5,-287.5 65.5,-454.5 196.5,-454.5 196.5,-287.5 65.5,-287.5"/>
<text text-anchor="middle" x="131" y="-442.5" font-family="Helvetica,sans-Serif" font-size="10.00">tklb::StackString&lt; 16 &gt;</text>
<polyline fill="none" stroke="black" points="65.5,-435.5 196.5,-435.5 "/>
<text text-anchor="start" x="73.5" y="-423.5" font-family="Helvetica,sans-Serif" font-size="10.00">&#45; mData</text>
<polyline fill="none" stroke="black" points="65.5,-416.5 196.5,-416.5 "/>
<text text-anchor="start" x="73.5" y="-404.5" font-family="Helvetica,sans-Serif" font-size="10.00">+ StackString()</text>
<text text-anchor="start" x="73.5" y="-393.5" font-family="Helvetica,sans-Serif" font-size="10.00">+ StackString()</text>
<text text-anchor="start" x="73.5" y="-382.5" font-family="Helvetica,sans-Serif" font-size="10.00">+ operator=()</text>
<text text-anchor="start" x="73.5" y="-371.5" font-family="Helvetica,sans-Serif" font-size="10.00">+ c_str()</text>
<text text-anchor="start" x="73.5" y="-360.5" font-family="Helvetica,sans-Serif" font-size="10.00">+ operator[]()</text>
<text text-anchor="start" x="73.5" y="-349.5" font-family="Helvetica,sans-Serif" font-size="10.00">+ operator[]()</text>
<text text-anchor="start" x="73.5" y="-338.5" font-family="Helvetica,sans-Serif" font-size="10.00">+ operator==()</text>
<text text-anchor="start" x="73.5" y="-327.5" font-family="Helvetica,sans-Serif" font-size="10.00">+ operator==()</text>
<text text-anchor="start" x="73.5" y="-316.5" font-family="Helvetica,sans-Serif" font-size="10.00">+ empty()</text>
<text text-anchor="start" x="73.5" y="-305.5" font-family="Helvetica,sans-Serif" font-size="10.00">+ size()</text>
<text text-anchor="start" x="73.5" y="-294.5" font-family="Helvetica,sans-Serif" font-size="10.00">+ set()</text>
</a>
</g>
</g>
<!-- Node2&#45;&gt;Node1 -->
<g id="edge1" class="edge">
<title>Node2&#45;&gt;Node1</title>
<path fill="none" stroke="#404040" d="M125.42,-287.42C124.36,-234.1 127.81,-163.95 147,-105 151.21,-92.06 158.21,-79.15 165.57,-67.78"/>
<polygon fill="none" stroke="#404040" points="165.61,-67.72 165.68,-60.51 172.37,-57.81 172.29,-65.02 165.61,-67.72"/>
<text text-anchor="middle" x="167" y="-170" font-family="Helvetica,sans-Serif" font-size="10.00"> +name</text>
</g>
<!-- Node6 -->
<g id="node6" class="node">
<title>Node6</title>
<g id="a_node6"><a xlink:href="structvae_1_1core_1_1_effect_1_1_parameter.html" target="_top" xlink:title="Represents a parameter of the DSP.">
<polygon fill="none" stroke="black" points="0,-138.5 0,-206.5 102,-206.5 102,-138.5 0,-138.5"/>
<text text-anchor="start" x="8" y="-194.5" font-family="Helvetica,sans-Serif" font-size="10.00">vae::core::Effect::</text>
<text text-anchor="middle" x="51" y="-183.5" font-family="Helvetica,sans-Serif" font-size="10.00">Parameter</text>
<polyline fill="none" stroke="black" points="0,-176.5 102,-176.5 "/>
<text text-anchor="middle" x="51" y="-164.5" font-family="Helvetica,sans-Serif" font-size="10.00"> </text>
<polyline fill="none" stroke="black" points="0,-157.5 102,-157.5 "/>
<text text-anchor="middle" x="51" y="-145.5" font-family="Helvetica,sans-Serif" font-size="10.00"> </text>
</a>
</g>
</g>
<!-- Node2&#45;&gt;Node6 -->
<g id="edge6" class="edge">
<title>Node2&#45;&gt;Node6</title>
<path fill="none" stroke="#404040" d="M91.71,-287.35C89.03,-281.17 86.43,-275.01 84,-269 77.4,-252.67 70.9,-234.46 65.44,-218.35"/>
<polygon fill="none" stroke="#404040" points="65.28,-217.9 59.59,-213.47 61.48,-206.52 67.18,-210.94 65.28,-217.9"/>
<text text-anchor="middle" x="104" y="-261" font-family="Helvetica,sans-Serif" font-size="10.00"> +name</text>
</g>
<!-- Node3 -->
<g id="node3" class="node">
<title>Node3</title>
<g id="a_node3"><a xlink:href="classtklb_1_1_stack_string.html" target="_top" xlink:title="Super simple class to hold and compare strings on the stack.">
<polygon fill="none" stroke="black" points="67.5,-502.5 67.5,-669.5 194.5,-669.5 194.5,-502.5 67.5,-502.5"/>
<text text-anchor="middle" x="131" y="-657.5" font-family="Helvetica,sans-Serif" font-size="10.00">tklb::StackString&lt; N &gt;</text>
<polyline fill="none" stroke="black" points="67.5,-650.5 194.5,-650.5 "/>
<text text-anchor="middle" x="131" y="-638.5" font-family="Helvetica,sans-Serif" font-size="10.00"> </text>
<polyline fill="none" stroke="black" points="67.5,-631.5 194.5,-631.5 "/>
<text text-anchor="start" x="75.5" y="-619.5" font-family="Helvetica,sans-Serif" font-size="10.00">+ StackString()</text>
<text text-anchor="start" x="75.5" y="-608.5" font-family="Helvetica,sans-Serif" font-size="10.00">+ StackString()</text>
<text text-anchor="start" x="75.5" y="-597.5" font-family="Helvetica,sans-Serif" font-size="10.00">+ operator=()</text>
<text text-anchor="start" x="75.5" y="-586.5" font-family="Helvetica,sans-Serif" font-size="10.00">+ c_str()</text>
<text text-anchor="start" x="75.5" y="-575.5" font-family="Helvetica,sans-Serif" font-size="10.00">+ operator[]()</text>
<text text-anchor="start" x="75.5" y="-564.5" font-family="Helvetica,sans-Serif" font-size="10.00">+ operator[]()</text>
<text text-anchor="start" x="75.5" y="-553.5" font-family="Helvetica,sans-Serif" font-size="10.00">+ operator==()</text>
<text text-anchor="start" x="75.5" y="-542.5" font-family="Helvetica,sans-Serif" font-size="10.00">+ operator==()</text>
<text text-anchor="start" x="75.5" y="-531.5" font-family="Helvetica,sans-Serif" font-size="10.00">+ empty()</text>
<text text-anchor="start" x="75.5" y="-520.5" font-family="Helvetica,sans-Serif" font-size="10.00">+ size()</text>
<text text-anchor="start" x="75.5" y="-509.5" font-family="Helvetica,sans-Serif" font-size="10.00">+ set()</text>
</a>
</g>
</g>
<!-- Node3&#45;&gt;Node2 -->
<g id="edge2" class="edge">
<title>Node3&#45;&gt;Node2</title>
<path fill="none" stroke="orange" d="M131,-491.97C131,-479.54 131,-466.85 131,-454.61"/>
<polygon fill="orange" stroke="orange" points="127.5,-492.34 131,-502.34 134.5,-492.34 127.5,-492.34"/>
<text text-anchor="middle" x="150" y="-476" font-family="Helvetica,sans-Serif" font-size="10.00"> &lt; 16 &gt;</text>
</g>
<!-- Node4 -->
<g id="node4" class="node">
<title>Node4</title>
<g id="a_node4"><a xlink:title=" ">
<polygon fill="none" stroke="#bfbfbf" points="112,-717.5 112,-774.5 150,-774.5 150,-717.5 112,-717.5"/>
<text text-anchor="middle" x="131" y="-762.5" font-family="Helvetica,sans-Serif" font-size="10.00">char</text>
<polyline fill="none" stroke="#bfbfbf" points="112,-755.5 150,-755.5 "/>
<text text-anchor="middle" x="131" y="-743.5" font-family="Helvetica,sans-Serif" font-size="10.00"> </text>
<polyline fill="none" stroke="#bfbfbf" points="112,-736.5 150,-736.5 "/>
<text text-anchor="middle" x="131" y="-724.5" font-family="Helvetica,sans-Serif" font-size="10.00"> </text>
</a>
</g>
</g>
<!-- Node4&#45;&gt;Node3 -->
<g id="edge3" class="edge">
<title>Node4&#45;&gt;Node3</title>
<path fill="none" stroke="#404040" d="M131,-717.48C131,-707.12 131,-694.67 131,-681.63"/>
<polygon fill="none" stroke="#404040" points="131,-681.54 127,-675.54 131,-669.54 135,-675.54 131,-681.54"/>
<text text-anchor="middle" x="151" y="-691" font-family="Helvetica,sans-Serif" font-size="10.00"> &#45;mData</text>
</g>
<!-- Node5 -->
<g id="node5" class="node">
<title>Node5</title>
<g id="a_node5"><a xlink:href="classvae_1_1core_1_1effect_1_1_effect_base.html" target="_top" xlink:title="Base for all effects.">
<polygon fill="none" stroke="black" points="196.5,-105.5 196.5,-239.5 309.5,-239.5 309.5,-105.5 196.5,-105.5"/>
<text text-anchor="start" x="204.5" y="-227.5" font-family="Helvetica,sans-Serif" font-size="10.00">vae::core::effect::</text>
<text text-anchor="middle" x="253" y="-216.5" font-family="Helvetica,sans-Serif" font-size="10.00">EffectBase</text>
<polyline fill="none" stroke="black" points="196.5,-209.5 309.5,-209.5 "/>
<text text-anchor="middle" x="253" y="-197.5" font-family="Helvetica,sans-Serif" font-size="10.00"> </text>
<polyline fill="none" stroke="black" points="196.5,-190.5 309.5,-190.5 "/>
<text text-anchor="start" x="204.5" y="-178.5" font-family="Helvetica,sans-Serif" font-size="10.00">+ init()</text>
<text text-anchor="start" x="204.5" y="-167.5" font-family="Helvetica,sans-Serif" font-size="10.00">+ getNumInputs()</text>
<text text-anchor="start" x="204.5" y="-156.5" font-family="Helvetica,sans-Serif" font-size="10.00">+ getNumOutputs()</text>
<text text-anchor="start" x="204.5" y="-145.5" font-family="Helvetica,sans-Serif" font-size="10.00">+ instanceClear()</text>
<text text-anchor="start" x="204.5" y="-134.5" font-family="Helvetica,sans-Serif" font-size="10.00">+ process()</text>
<text text-anchor="start" x="204.5" y="-123.5" font-family="Helvetica,sans-Serif" font-size="10.00">+ EffectBase()</text>
<text text-anchor="start" x="204.5" y="-112.5" font-family="Helvetica,sans-Serif" font-size="10.00">+ ~EffectBase()</text>
</a>
</g>
</g>
<!-- Node5&#45;&gt;Node1 -->
<g id="edge4" class="edge">
<title>Node5&#45;&gt;Node1</title>
<path fill="none" stroke="#404040" d="M225.87,-105.31C220.75,-92.82 215.55,-80.13 210.92,-68.83"/>
<polygon fill="none" stroke="#404040" points="210.87,-68.71 204.89,-64.68 206.32,-57.61 212.29,-61.64 210.87,-68.71"/>
<text text-anchor="middle" x="238" y="-79" font-family="Helvetica,sans-Serif" font-size="10.00"> +effect</text>
</g>
<!-- Node6&#45;&gt;Node1 -->
<g id="edge5" class="edge">
<title>Node6&#45;&gt;Node1</title>
<path fill="none" stroke="#404040" d="M44.03,-138.25C41.79,-118.27 42.71,-93.42 56,-76 74.55,-51.69 106.37,-40.07 134.88,-34.58"/>
<polygon fill="none" stroke="#404040" points="135.01,-34.56 140.27,-29.62 146.85,-32.58 141.59,-37.51 135.01,-34.56"/>
<text text-anchor="middle" x="90" y="-79" font-family="Helvetica,sans-Serif" font-size="10.00"> +parameters</text>
</g>
<!-- Node7 -->
<g id="node7" class="node">
<title>Node7</title>
<g id="a_node7"><a xlink:title=" ">
<polygon fill="none" stroke="#bfbfbf" points="1.5,-342.5 1.5,-399.5 40.5,-399.5 40.5,-342.5 1.5,-342.5"/>
<text text-anchor="middle" x="21" y="-387.5" font-family="Helvetica,sans-Serif" font-size="10.00">float</text>
<polyline fill="none" stroke="#bfbfbf" points="1.5,-380.5 40.5,-380.5 "/>
<text text-anchor="middle" x="21" y="-368.5" font-family="Helvetica,sans-Serif" font-size="10.00"> </text>
<polyline fill="none" stroke="#bfbfbf" points="1.5,-361.5 40.5,-361.5 "/>
<text text-anchor="middle" x="21" y="-349.5" font-family="Helvetica,sans-Serif" font-size="10.00"> </text>
</a>
</g>
</g>
<!-- Node7&#45;&gt;Node6 -->
<g id="edge7" class="edge">
<title>Node7&#45;&gt;Node6</title>
<path fill="none" stroke="#404040" d="M18.79,-342.16C17.56,-319.37 17.14,-286.37 22,-258 24.26,-244.79 28.3,-230.88 32.66,-218.23"/>
<polygon fill="none" stroke="#404040" points="32.8,-217.85 31.08,-210.85 36.89,-206.57 38.6,-213.57 32.8,-217.85"/>
<text text-anchor="middle" x="41.5" y="-261" font-family="Helvetica,sans-Serif" font-size="10.00"> +value</text>
</g>
<!-- Node8 -->
<g id="node8" class="node">
<title>Node8</title>
<g id="a_node8"><a xlink:title=" ">
<polygon fill="none" stroke="#bfbfbf" points="328,-144 328,-201 366,-201 366,-144 328,-144"/>
<text text-anchor="middle" x="347" y="-189" font-family="Helvetica,sans-Serif" font-size="10.00">bool</text>
<polyline fill="none" stroke="#bfbfbf" points="328,-182 366,-182 "/>
<text text-anchor="middle" x="347" y="-170" font-family="Helvetica,sans-Serif" font-size="10.00"> </text>
<polyline fill="none" stroke="#bfbfbf" points="328,-163 366,-163 "/>
<text text-anchor="middle" x="347" y="-151" font-family="Helvetica,sans-Serif" font-size="10.00"> </text>
</a>
</g>
</g>
<!-- Node8&#45;&gt;Node1 -->
<g id="edge8" class="edge">
<title>Node8&#45;&gt;Node1</title>
<path fill="none" stroke="#404040" d="M339.68,-143.78C335.26,-130.93 328.58,-116.09 319,-105 301.33,-84.55 276.65,-68.06 253.96,-55.8"/>
<polygon fill="none" stroke="#404040" points="253.68,-55.65 246.51,-56.44 243.03,-50.13 250.19,-49.34 253.68,-55.65"/>
<text text-anchor="middle" x="328" y="-79" font-family="Helvetica,sans-Serif" font-size="10.00"> +bypassed</text>
</g>
</g>
</svg>
        <g id="navigator" transform="translate(0 0)" fill="#404254">
                <rect fill="#f2f5e9" fill-opacity="0.5" stroke="#606060" stroke-width=".5" x="0" y="0" width="60" height="60"/>
                <use id="zoomplus" xlink:href="#zoomPlus" x="17" y="9" onmousedown="handleZoom(evt,'in')"/>
                <use id="zoomminus" xlink:href="#zoomMin" x="42" y="9" onmousedown="handleZoom(evt,'out')"/>
                <use id="reset" xlink:href="#resetDef" x="30" y="36" onmousedown="handleReset()"/>
                <g id="arrowUp" xlink:href="#dirArrow" transform="translate(30 24)" onmousedown="handlePan(0,-1)">
                  <use xlink:href="#rim" fill="#404040">
                        <set attributeName="fill" to="#808080" begin="arrowUp.mouseover" end="arrowUp.mouseout"/>
                  </use>
                  <path fill="none" stroke="white" stroke-width="1.5" d="M0,-3.0v7 M-2.5,-0.5L0,-3.0L2.5,-0.5"/>
                </g>
                <g id="arrowRight" xlink:href="#dirArrow" transform="rotate(90) translate(36 -43)" onmousedown="handlePan(1,0)">
                  <use xlink:href="#rim" fill="#404040">
                        <set attributeName="fill" to="#808080" begin="arrowRight.mouseover" end="arrowRight.mouseout"/>
                  </use>
                  <path fill="none" stroke="white" stroke-width="1.5" d="M0,-3.0v7 M-2.5,-0.5L0,-3.0L2.5,-0.5"/>
                </g>
                <g id="arrowDown" xlink:href="#dirArrow" transform="rotate(180) translate(-30 -48)" onmousedown="handlePan(0,1)">
                  <use xlink:href="#rim" fill="#404040">
                        <set attributeName="fill" to="#808080" begin="arrowDown.mouseover" end="arrowDown.mouseout"/>
                  </use>
                  <path fill="none" stroke="white" stroke-width="1.5" d="M0,-3.0v7 M-2.5,-0.5L0,-3.0L2.5,-0.5"/>
                </g>
                <g id="arrowLeft" xlink:href="#dirArrow" transform="rotate(270) translate(-36 17)" onmousedown="handlePan(-1,0)">
                  <use xlink:href="#rim" fill="#404040">
                        <set attributeName="fill" to="#808080" begin="arrowLeft.mouseover" end="arrowLeft.mouseout"/>
                  </use>
                  <path fill="none" stroke="white" stroke-width="1.5" d="M0,-3.0v7 M-2.5,-0.5L0,-3.0L2.5,-0.5"/>
                </g>
        </g>
        <svg viewBox="0 0 15 15" width="100%" height="30px" preserveAspectRatio="xMaxYMin meet">
         <g id="arrow_out" transform="scale(0.3 0.3)">
          <a xlink:href="structvae_1_1core_1_1_effect__coll__graph_org.svg" target="_base">
           <rect id="button" ry="5" rx="5" y="6" x="6" height="38" width="38"
                fill="#f2f5e9" fill-opacity="0.5" stroke="#606060" stroke-width="1.0"/>
           <path id="arrow"
             d="M 11.500037,31.436501 C 11.940474,20.09759 22.043105,11.32322 32.158766,21.979434 L 37.068811,17.246167 C 37.068811,17.246167 37.088388,32 37.088388,32 L 22.160133,31.978069 C 22.160133,31.978069 26.997745,27.140456 26.997745,27.140456 C 18.528582,18.264221 13.291696,25.230495 11.500037,31.436501 z"
             style="fill:#404040;"/>
          </a>
         </g>
        </svg>
</svg>
