<?xml version="1.0" encoding="UTF-8" standalone="no"?>
<!DOCTYPE svg PUBLIC "-//W3C//DTD SVG 1.1//EN"
 "http://www.w3.org/Graphics/SVG/1.1/DTD/svg11.dtd">
<!-- Generated by graphviz version 2.50.0 (0)
 -->
<!-- Title: vae::core::memory::Allocator::allocate Pages: 1 -->
<svg width="965pt" height="114pt"
 viewBox="0.00 0.00 965.00 113.50" xmlns="http://www.w3.org/2000/svg" xmlns:xlink="http://www.w3.org/1999/xlink">
<g id="graph0" class="graph" transform="scale(1 1) rotate(0) translate(4 109.5)">
<title>vae::core::memory::Allocator::allocate</title>
<!-- Node1 -->
<g id="node1" class="node">
<title>Node1</title>
<g id="a_node1"><a xlink:title=" ">
<polygon fill="#bfbfbf" stroke="black" points="842,-32 842,-62 957,-62 957,-32 842,-32"/>
<text text-anchor="start" x="850" y="-50" font-family="Helvetica,sans-Serif" font-size="10.00">vae::core::memory::</text>
<text text-anchor="middle" x="899.5" y="-39" font-family="Helvetica,sans-Serif" font-size="10.00">Allocator::allocate</text>
</a>
</g>
</g>
<!-- Node2 -->
<g id="node2" class="node">
<title>Node2</title>
<g id="a_node2"><a xlink:href="classvae_1_1core_1_1_bank_loader.html#aa6ba40f8098e00d26c335490092fa10a" target="_top" xlink:title=" ">
<polygon fill="none" stroke="black" points="680.5,-57 680.5,-87 805.5,-87 805.5,-57 680.5,-57"/>
<text text-anchor="start" x="688.5" y="-75" font-family="Helvetica,sans-Serif" font-size="10.00">vae::core::BankLoader</text>
<text text-anchor="middle" x="743" y="-64" font-family="Helvetica,sans-Serif" font-size="10.00">::allocate</text>
</a>
</g>
</g>
<!-- Node1&#45;&gt;Node2 -->
<g id="edge1" class="edge">
<title>Node1&#45;&gt;Node2</title>
<path fill="none" stroke="midnightblue" d="M831.76,-57.8C823.06,-59.21 814.19,-60.64 805.59,-62.03"/>
<polygon fill="midnightblue" stroke="midnightblue" points="832.53,-61.22 841.85,-56.17 831.42,-54.31 832.53,-61.22"/>
</g>
<!-- Node8 -->
<g id="node8" class="node">
<title>Node8</title>
<g id="a_node8"><a xlink:href="classvae_1_1core_1_1_h_r_t_f_loader.html#a7c489c0405f35d7b636509be7ed302fb" target="_top" xlink:title=" ">
<polygon fill="none" stroke="black" points="680,-8 680,-38 806,-38 806,-8 680,-8"/>
<text text-anchor="start" x="688" y="-26" font-family="Helvetica,sans-Serif" font-size="10.00">vae::core::HRTFLoader</text>
<text text-anchor="middle" x="743" y="-15" font-family="Helvetica,sans-Serif" font-size="10.00">::allocate</text>
</a>
</g>
</g>
<!-- Node1&#45;&gt;Node8 -->
<g id="edge8" class="edge">
<title>Node1&#45;&gt;Node8</title>
<path fill="none" stroke="midnightblue" d="M831.9,-36.65C823.34,-35.32 814.6,-33.97 806.12,-32.65"/>
<polygon fill="midnightblue" stroke="midnightblue" points="831.43,-40.12 841.85,-38.2 832.5,-33.21 831.43,-40.12"/>
</g>
<!-- Node3 -->
<g id="node3" class="node">
<title>Node3</title>
<g id="a_node3"><a xlink:href="classvae_1_1core_1_1_bank_loader.html#a2a1f294f67b451b337f65b033dd6f0bd" target="_top" xlink:title="Load a bank.json and all wav files referenced in it.">
<polygon fill="none" stroke="black" points="518.5,-57 518.5,-87 643.5,-87 643.5,-57 518.5,-57"/>
<text text-anchor="start" x="526.5" y="-75" font-family="Helvetica,sans-Serif" font-size="10.00">vae::core::BankLoader</text>
<text text-anchor="middle" x="581" y="-64" font-family="Helvetica,sans-Serif" font-size="10.00">::load</text>
</a>
</g>
</g>
<!-- Node2&#45;&gt;Node3 -->
<g id="edge2" class="edge">
<title>Node2&#45;&gt;Node3</title>
<path fill="none" stroke="midnightblue" d="M669.94,-72C661.18,-72 652.29,-72 643.7,-72"/>
<polygon fill="midnightblue" stroke="midnightblue" points="670.14,-75.5 680.14,-72 670.14,-68.5 670.14,-75.5"/>
</g>
<!-- Node4 -->
<g id="node4" class="node">
<title>Node4</title>
<g id="a_node4"><a xlink:href="classvae_1_1core_1_1_bank_manager.html#a246219d73b46775ec119e704c758dd0b" target="_top" xlink:title=" ">
<polygon fill="none" stroke="black" points="340.5,-57 340.5,-87 474.5,-87 474.5,-57 340.5,-57"/>
<text text-anchor="start" x="348.5" y="-75" font-family="Helvetica,sans-Serif" font-size="10.00">vae::core::BankManager</text>
<text text-anchor="middle" x="407.5" y="-64" font-family="Helvetica,sans-Serif" font-size="10.00">::load</text>
</a>
</g>
</g>
<!-- Node3&#45;&gt;Node4 -->
<g id="edge3" class="edge">
<title>Node3&#45;&gt;Node4</title>
<path fill="none" stroke="midnightblue" d="M508.04,-72C496.97,-72 485.6,-72 474.67,-72"/>
<polygon fill="midnightblue" stroke="midnightblue" points="508.08,-75.5 518.08,-72 508.08,-68.5 508.08,-75.5"/>
</g>
<!-- Node4&#45;&gt;Node4 -->
<g id="edge4" class="edge">
<title>Node4&#45;&gt;Node4</title>
<path fill="none" stroke="midnightblue" d="M436.64,-97.46C433.02,-102.18 423.31,-105.5 407.5,-105.5 381.55,-105.5 372.03,-96.56 378.92,-87.16"/>
<polygon fill="midnightblue" stroke="midnightblue" points="440.12,-96.95 436.08,-87.16 433.13,-97.33 440.12,-96.95"/>
</g>
<!-- Node5 -->
<g id="node5" class="node">
<title>Node5</title>
<g id="a_node5"><a xlink:href="classvae_1_1core_1_1_engine.html#a97b644aa0736003315870a1e05620ac3" target="_top" xlink:title="Load bank from filesystem.">
<polygon fill="none" stroke="black" points="190,-57 190,-87 297,-87 297,-57 190,-57"/>
<text text-anchor="start" x="198" y="-75" font-family="Helvetica,sans-Serif" font-size="10.00">vae::core::Engine::</text>
<text text-anchor="middle" x="243.5" y="-64" font-family="Helvetica,sans-Serif" font-size="10.00">loadBank</text>
</a>
</g>
</g>
<!-- Node4&#45;&gt;Node5 -->
<g id="edge5" class="edge">
<title>Node4&#45;&gt;Node5</title>
<path fill="none" stroke="midnightblue" d="M329.98,-72C318.87,-72 307.63,-72 297.13,-72"/>
<polygon fill="midnightblue" stroke="midnightblue" points="330.14,-75.5 340.14,-72 330.14,-68.5 330.14,-75.5"/>
</g>
<!-- Node6 -->
<g id="node6" class="node">
<title>Node6</title>
<g id="a_node6"><a xlink:href="classvae_1_1_engine_pimpl.html#a1843b334cf225ba8b3f85c0c64fd78bb" target="_top" xlink:title="Load bank from filesystem.">
<polygon fill="none" stroke="black" points="0.5,-76.5 0.5,-95.5 153.5,-95.5 153.5,-76.5 0.5,-76.5"/>
<text text-anchor="middle" x="77" y="-83.5" font-family="Helvetica,sans-Serif" font-size="10.00">vae::EnginePimpl::loadBank</text>
</a>
</g>
</g>
<!-- Node5&#45;&gt;Node6 -->
<g id="edge6" class="edge">
<title>Node5&#45;&gt;Node6</title>
<path fill="none" stroke="midnightblue" d="M179.77,-77.34C171.24,-78.06 162.41,-78.82 153.69,-79.56"/>
<polygon fill="midnightblue" stroke="midnightblue" points="180.33,-80.8 190,-76.47 179.74,-73.83 180.33,-80.8"/>
</g>
<!-- Node7 -->
<g id="node7" class="node">
<title>Node7</title>
<g id="a_node7"><a xlink:href="main_8cpp.html#ae66f6b31b5ad750f1fe042a706a4e3d4" target="_top" xlink:title=" ">
<polygon fill="none" stroke="black" points="56.5,-38.5 56.5,-57.5 97.5,-57.5 97.5,-38.5 56.5,-38.5"/>
<text text-anchor="middle" x="77" y="-45.5" font-family="Helvetica,sans-Serif" font-size="10.00">main</text>
</a>
</g>
</g>
<!-- Node5&#45;&gt;Node7 -->
<g id="edge7" class="edge">
<title>Node5&#45;&gt;Node7</title>
<path fill="none" stroke="midnightblue" d="M179.86,-62.86C150.73,-58.61 118.11,-53.85 97.81,-50.89"/>
<polygon fill="midnightblue" stroke="midnightblue" points="179.6,-66.36 190,-64.34 180.61,-59.43 179.6,-66.36"/>
</g>
<!-- Node9 -->
<g id="node9" class="node">
<title>Node9</title>
<g id="a_node9"><a xlink:href="classvae_1_1core_1_1_h_r_t_f_loader.html#a38e07107ad81acdbaed1ac6874978534" target="_top" xlink:title=" ">
<polygon fill="none" stroke="black" points="518,-8 518,-38 644,-38 644,-8 518,-8"/>
<text text-anchor="start" x="526" y="-26" font-family="Helvetica,sans-Serif" font-size="10.00">vae::core::HRTFLoader</text>
<text text-anchor="middle" x="581" y="-15" font-family="Helvetica,sans-Serif" font-size="10.00">::load</text>
</a>
</g>
</g>
<!-- Node8&#45;&gt;Node9 -->
<g id="edge9" class="edge">
<title>Node8&#45;&gt;Node9</title>
<path fill="none" stroke="midnightblue" d="M669.45,-23C661,-23 652.44,-23 644.15,-23"/>
<polygon fill="midnightblue" stroke="midnightblue" points="669.68,-26.5 679.68,-23 669.68,-19.5 669.68,-26.5"/>
</g>
<!-- Node10 -->
<g id="node10" class="node">
<title>Node10</title>
<g id="a_node10"><a xlink:href="classvae_1_1core_1_1_spatial_processor.html#ad598b5dcbe8bed69fa6cb0b726170dd3" target="_top" xlink:title=" ">
<polygon fill="none" stroke="black" points="333,-8 333,-38 482,-38 482,-8 333,-8"/>
<text text-anchor="start" x="341" y="-26" font-family="Helvetica,sans-Serif" font-size="10.00">vae::core::SpatialProcessor</text>
<text text-anchor="middle" x="407.5" y="-15" font-family="Helvetica,sans-Serif" font-size="10.00">::loadHRTF</text>
</a>
</g>
</g>
<!-- Node9&#45;&gt;Node10 -->
<g id="edge10" class="edge">
<title>Node9&#45;&gt;Node10</title>
<path fill="none" stroke="midnightblue" d="M507.5,-23C499.14,-23 490.6,-23 482.22,-23"/>
<polygon fill="midnightblue" stroke="midnightblue" points="507.6,-26.5 517.6,-23 507.6,-19.5 507.6,-26.5"/>
</g>
<!-- Node11 -->
<g id="node11" class="node">
<title>Node11</title>
<g id="a_node11"><a xlink:href="classvae_1_1core_1_1_engine.html#a98bb7b9ed016675701fb91069fb1a066" target="_top" xlink:title=" ">
<polygon fill="none" stroke="black" points="190,-8 190,-38 297,-38 297,-8 190,-8"/>
<text text-anchor="start" x="198" y="-26" font-family="Helvetica,sans-Serif" font-size="10.00">vae::core::Engine::</text>
<text text-anchor="middle" x="243.5" y="-15" font-family="Helvetica,sans-Serif" font-size="10.00">loadHRTF</text>
</a>
</g>
</g>
<!-- Node10&#45;&gt;Node11 -->
<g id="edge11" class="edge">
<title>Node10&#45;&gt;Node11</title>
<path fill="none" stroke="midnightblue" d="M322.59,-23C314.05,-23 305.55,-23 297.47,-23"/>
<polygon fill="midnightblue" stroke="midnightblue" points="322.61,-26.5 332.61,-23 322.61,-19.5 322.61,-26.5"/>
</g>
<!-- Node11&#45;&gt;Node7 -->
<g id="edge13" class="edge">
<title>Node11&#45;&gt;Node7</title>
<path fill="none" stroke="midnightblue" d="M179.86,-32.52C150.73,-36.95 118.11,-41.9 97.81,-44.99"/>
<polygon fill="midnightblue" stroke="midnightblue" points="180.64,-35.94 190,-30.98 179.59,-29.02 180.64,-35.94"/>
</g>
<!-- Node12 -->
<g id="node12" class="node">
<title>Node12</title>
<g id="a_node12"><a xlink:href="classvae_1_1_engine_pimpl.html#a27d216a0e4169074b38559d77b876748" target="_top" xlink:title=" ">
<polygon fill="none" stroke="black" points="0,-0.5 0,-19.5 154,-19.5 154,-0.5 0,-0.5"/>
<text text-anchor="middle" x="77" y="-7.5" font-family="Helvetica,sans-Serif" font-size="10.00">vae::EnginePimpl::loadHRTF</text>
</a>
</g>
</g>
<!-- Node11&#45;&gt;Node12 -->
<g id="edge12" class="edge">
<title>Node11&#45;&gt;Node12</title>
<path fill="none" stroke="midnightblue" d="M179.94,-18.06C171.55,-17.39 162.87,-16.71 154.28,-16.03"/>
<polygon fill="midnightblue" stroke="midnightblue" points="179.75,-21.55 190,-18.85 180.31,-14.57 179.75,-21.55"/>
</g>
</g>
</svg>
