<?xml version="1.0" encoding="UTF-8" standalone="no"?>
<!DOCTYPE svg PUBLIC "-//W3C//DTD SVG 1.1//EN"
 "http://www.w3.org/Graphics/SVG/1.1/DTD/svg11.dtd">
<!-- Generated by graphviz version 2.50.0 (0)
 -->
<!-- Title: tklb::FileInfo::recursiveScan Pages: 1 -->
<svg width="361pt" height="46pt"
 viewBox="0.00 0.00 361.00 46.00" xmlns="http://www.w3.org/2000/svg" xmlns:xlink="http://www.w3.org/1999/xlink">
<g id="graph0" class="graph" transform="scale(1 1) rotate(0) translate(4 42)">
<title>tklb::FileInfo::recursiveScan</title>
<!-- Node1 -->
<g id="node1" class="node">
<title>Node1</title>
<g id="a_node1"><a xlink:title=" ">
<polygon fill="#bfbfbf" stroke="black" points="0,-0.5 0,-19.5 152,-19.5 152,-0.5 0,-0.5"/>
<text text-anchor="middle" x="76" y="-7.5" font-family="Helvetica,sans-Serif" font-size="10.00">tklb::FileInfo::recursiveScan</text>
</a>
</g>
</g>
<!-- Node1&#45;&gt;Node1 -->
<g id="edge2" class="edge">
<title>Node1&#45;&gt;Node1</title>
<path fill="none" stroke="midnightblue" d="M46.1,-19.76C31.55,-28.57 41.52,-38 76,-38 100.24,-38 112.37,-33.34 112.37,-27.5"/>
<polygon fill="midnightblue" stroke="midnightblue" points="115,-25.19 105.9,-19.76 109.63,-29.67 115,-25.19"/>
</g>
<!-- Node2 -->
<g id="node2" class="node">
<title>Node2</title>
<g id="a_node2"><a xlink:href="structtklb_1_1_file_info.html#a680b57f4768fd77eb55b96b6581c09cc" target="_top" xlink:title=" ">
<polygon fill="none" stroke="black" points="188,-0.5 188,-19.5 353,-19.5 353,-0.5 188,-0.5"/>
<text text-anchor="middle" x="270.5" y="-7.5" font-family="Helvetica,sans-Serif" font-size="10.00">tklb::FileInfo::appendDelimiter</text>
</a>
</g>
</g>
<!-- Node1&#45;&gt;Node2 -->
<g id="edge1" class="edge">
<title>Node1&#45;&gt;Node2</title>
<path fill="none" stroke="midnightblue" d="M152.25,-10C160.67,-10 169.3,-10 177.89,-10"/>
<polygon fill="midnightblue" stroke="midnightblue" points="177.94,-13.5 187.94,-10 177.94,-6.5 177.94,-13.5"/>
</g>
</g>
</svg>
