<?xml version="1.0" encoding="UTF-8" standalone="no"?>
<!DOCTYPE svg PUBLIC "-//W3C//DTD SVG 1.1//EN"
 "http://www.w3.org/Graphics/SVG/1.1/DTD/svg11.dtd">
<!-- Generated by graphviz version 2.50.0 (0)
 -->
<!-- Title: vaeb::Bank1 Pages: 1 -->
<svg width="247pt" height="281pt"
 viewBox="0.00 0.00 246.50 281.00" xmlns="http://www.w3.org/2000/svg" xmlns:xlink="http://www.w3.org/1999/xlink">
<g id="graph0" class="graph" transform="scale(1 1) rotate(0) translate(4 277)">
<title>vaeb::Bank1</title>
<!-- Node1 -->
<g id="node1" class="node">
<title>Node1</title>
<g id="a_node1"><a xlink:title=" ">
<polygon fill="#bfbfbf" stroke="black" points="53,-0.5 53,-57.5 130,-57.5 130,-0.5 53,-0.5"/>
<text text-anchor="middle" x="91.5" y="-45.5" font-family="Helvetica,sans-Serif" font-size="10.00">vaeb::Bank1</text>
<polyline fill="none" stroke="black" points="53,-38.5 130,-38.5 "/>
<text text-anchor="start" x="61" y="-26.5" font-family="Helvetica,sans-Serif" font-size="10.00">+ StepRand</text>
<polyline fill="none" stroke="black" points="53,-19.5 130,-19.5 "/>
<text text-anchor="middle" x="91.5" y="-7.5" font-family="Helvetica,sans-Serif" font-size="10.00"> </text>
</a>
</g>
</g>
<!-- Node2 -->
<g id="node2" class="node">
<title>Node2</title>
<g id="a_node2"><a xlink:title=" ">
<polygon fill="none" stroke="#bfbfbf" points="0,-215.5 0,-272.5 85,-272.5 85,-215.5 0,-215.5"/>
<text text-anchor="middle" x="42.5" y="-260.5" font-family="Helvetica,sans-Serif" font-size="10.00">unsigned char</text>
<polyline fill="none" stroke="#bfbfbf" points="0,-253.5 85,-253.5 "/>
<text text-anchor="middle" x="42.5" y="-241.5" font-family="Helvetica,sans-Serif" font-size="10.00"> </text>
<polyline fill="none" stroke="#bfbfbf" points="0,-234.5 85,-234.5 "/>
<text text-anchor="middle" x="42.5" y="-222.5" font-family="Helvetica,sans-Serif" font-size="10.00"> </text>
</a>
</g>
</g>
<!-- Node2&#45;&gt;Node1 -->
<g id="edge1" class="edge">
<title>Node2&#45;&gt;Node1</title>
<path fill="none" stroke="#404040" d="M48.91,-215.15C57.48,-177.9 72.72,-111.63 82.46,-69.3"/>
<polygon fill="none" stroke="#404040" points="82.48,-69.21 79.93,-62.47 85.17,-57.52 87.72,-64.26 82.48,-69.21"/>
<text text-anchor="middle" x="92" y="-134" font-family="Helvetica,sans-Serif" font-size="10.00"> +id</text>
</g>
<!-- Node3 -->
<g id="node3" class="node">
<title>Node3</title>
<g id="a_node3"><a xlink:title=" ">
<polygon fill="none" stroke="#bfbfbf" points="103,-215.5 103,-272.5 180,-272.5 180,-215.5 103,-215.5"/>
<text text-anchor="middle" x="141.5" y="-260.5" font-family="Helvetica,sans-Serif" font-size="10.00">unsigned int</text>
<polyline fill="none" stroke="#bfbfbf" points="103,-253.5 180,-253.5 "/>
<text text-anchor="middle" x="141.5" y="-241.5" font-family="Helvetica,sans-Serif" font-size="10.00"> </text>
<polyline fill="none" stroke="#bfbfbf" points="103,-234.5 180,-234.5 "/>
<text text-anchor="middle" x="141.5" y="-222.5" font-family="Helvetica,sans-Serif" font-size="10.00"> </text>
</a>
</g>
</g>
<!-- Node3&#45;&gt;Node1 -->
<g id="edge2" class="edge">
<title>Node3&#45;&gt;Node1</title>
<path fill="none" stroke="#404040" d="M136.65,-215.3C130.6,-181.99 119.45,-124.51 106.5,-76 105.9,-73.75 105.25,-71.44 104.58,-69.12"/>
<polygon fill="none" stroke="#404040" points="104.55,-69.06 98.97,-64.49 101.03,-57.58 106.62,-62.15 104.55,-69.06"/>
<text text-anchor="middle" x="185.5" y="-189" font-family="Helvetica,sans-Serif" font-size="10.00"> +Denied</text>
<text text-anchor="middle" x="185.5" y="-178" font-family="Helvetica,sans-Serif" font-size="10.00">+Jump1</text>
<text text-anchor="middle" x="185.5" y="-167" font-family="Helvetica,sans-Serif" font-size="10.00">+Jump2</text>
<text text-anchor="middle" x="185.5" y="-156" font-family="Helvetica,sans-Serif" font-size="10.00">+Jump3</text>
<text text-anchor="middle" x="185.5" y="-145" font-family="Helvetica,sans-Serif" font-size="10.00">+JumpRand</text>
<text text-anchor="middle" x="185.5" y="-134" font-family="Helvetica,sans-Serif" font-size="10.00">+LongSineSelfTirgger</text>
<text text-anchor="middle" x="185.5" y="-123" font-family="Helvetica,sans-Serif" font-size="10.00">+ShortSineLoop</text>
<text text-anchor="middle" x="185.5" y="-112" font-family="Helvetica,sans-Serif" font-size="10.00">+Step1</text>
<text text-anchor="middle" x="185.5" y="-101" font-family="Helvetica,sans-Serif" font-size="10.00">+Step2</text>
<text text-anchor="middle" x="185.5" y="-90" font-family="Helvetica,sans-Serif" font-size="10.00">+Step3</text>
<text text-anchor="middle" x="185.5" y="-79" font-family="Helvetica,sans-Serif" font-size="10.00">...</text>
</g>
</g>
</svg>
