<?xml version="1.0" encoding="UTF-8" standalone="no"?>
<!DOCTYPE svg PUBLIC "-//W3C//DTD SVG 1.1//EN"
 "http://www.w3.org/Graphics/SVG/1.1/DTD/svg11.dtd">
<!-- Generated by graphviz version 2.50.0 (0)
 -->
<!-- Title: vae::core::effect::UI::addHorizontalBargraph Pages: 1 -->
<svg width="321pt" height="116pt"
 viewBox="0.00 0.00 321.00 115.50" xmlns="http://www.w3.org/2000/svg" xmlns:xlink="http://www.w3.org/1999/xlink">
<g id="graph0" class="graph" transform="scale(1 1) rotate(0) translate(4 111.5)">
<title>vae::core::effect::UI::addHorizontalBargraph</title>
<!-- Node1 -->
<g id="node1" class="node">
<title>Node1</title>
<g id="a_node1"><a xlink:title=" ">
<polygon fill="#bfbfbf" stroke="black" points="0,-33 0,-63 146,-63 146,-33 0,-33"/>
<text text-anchor="start" x="8" y="-51" font-family="Helvetica,sans-Serif" font-size="10.00">vae::core::effect::</text>
<text text-anchor="middle" x="73" y="-40" font-family="Helvetica,sans-Serif" font-size="10.00">UI::addHorizontalBargraph</text>
</a>
</g>
</g>
<!-- Node2 -->
<g id="node2" class="node">
<title>Node2</title>
<g id="a_node2"><a xlink:href="structvae_1_1core_1_1effect_1_1_u_i.html#ac41467d00aa163857b78eddb54dbc0e9" target="_top" xlink:title=" ">
<polygon fill="none" stroke="black" points="182,-77 182,-107 313,-107 313,-77 182,-77"/>
<text text-anchor="start" x="190" y="-95" font-family="Helvetica,sans-Serif" font-size="10.00">vae::core::effect::</text>
<text text-anchor="middle" x="247.5" y="-84" font-family="Helvetica,sans-Serif" font-size="10.00">UI::addVerticalBargraph</text>
</a>
</g>
</g>
<!-- Node1&#45;&gt;Node2 -->
<g id="edge1" class="edge">
<title>Node1&#45;&gt;Node2</title>
<path fill="none" stroke="midnightblue" d="M132.88,-63.02C147.24,-66.68 162.72,-70.63 177.49,-74.4"/>
<polygon fill="midnightblue" stroke="midnightblue" points="177.04,-77.89 187.59,-76.97 178.77,-71.11 177.04,-77.89"/>
</g>
<!-- Node3 -->
<g id="node3" class="node">
<title>Node3</title>
<g id="a_node3"><a xlink:href="namespacetklb.html#a7dc2203e89c331e3c85b9e7f16fa6763" target="_top" xlink:title=" ">
<polygon fill="none" stroke="black" points="216,-38.5 216,-57.5 279,-57.5 279,-38.5 216,-38.5"/>
<text text-anchor="middle" x="247.5" y="-45.5" font-family="Helvetica,sans-Serif" font-size="10.00">tklb::max</text>
</a>
</g>
</g>
<!-- Node1&#45;&gt;Node3 -->
<g id="edge2" class="edge">
<title>Node1&#45;&gt;Node3</title>
<path fill="none" stroke="midnightblue" d="M146.16,-48C166.53,-48 187.98,-48 205.8,-48"/>
<polygon fill="midnightblue" stroke="midnightblue" points="205.83,-51.5 215.83,-48 205.83,-44.5 205.83,-51.5"/>
</g>
<!-- Node4 -->
<g id="node4" class="node">
<title>Node4</title>
<g id="a_node4"><a xlink:href="namespacetklb.html#a3080595da18d742645ec41d61828a426" target="_top" xlink:title=" ">
<polygon fill="none" stroke="black" points="217.5,-0.5 217.5,-19.5 277.5,-19.5 277.5,-0.5 217.5,-0.5"/>
<text text-anchor="middle" x="247.5" y="-7.5" font-family="Helvetica,sans-Serif" font-size="10.00">tklb::min</text>
</a>
</g>
</g>
<!-- Node1&#45;&gt;Node4 -->
<g id="edge3" class="edge">
<title>Node1&#45;&gt;Node4</title>
<path fill="none" stroke="midnightblue" d="M142.18,-32.98C164.37,-28.09 188.23,-22.84 207.53,-18.59"/>
<polygon fill="midnightblue" stroke="midnightblue" points="208.44,-21.97 217.45,-16.4 206.93,-15.13 208.44,-21.97"/>
</g>
</g>
</svg>
