<?xml version="1.0" encoding="UTF-8" standalone="no"?>
<!DOCTYPE svg PUBLIC "-//W3C//DTD SVG 1.1//EN"
 "http://www.w3.org/Graphics/SVG/1.1/DTD/svg11.dtd">
<!-- Generated by graphviz version 2.50.0 (0)
 -->
<!-- Title: tklb::memory::tracer::MagicBlock::destroy Pages: 1 -->
<svg width="445pt" height="88pt"
 viewBox="0.00 0.00 445.00 88.00" xmlns="http://www.w3.org/2000/svg" xmlns:xlink="http://www.w3.org/1999/xlink">
<g id="graph0" class="graph" transform="scale(1 1) rotate(0) translate(4 84)">
<title>tklb::memory::tracer::MagicBlock::destroy</title>
<!-- Node1 -->
<g id="node1" class="node">
<title>Node1</title>
<g id="a_node1"><a xlink:title=" ">
<polygon fill="#bfbfbf" stroke="black" points="0,-24.5 0,-54.5 121,-54.5 121,-24.5 0,-24.5"/>
<text text-anchor="start" x="8" y="-42.5" font-family="Helvetica,sans-Serif" font-size="10.00">tklb::memory::tracer</text>
<text text-anchor="middle" x="60.5" y="-31.5" font-family="Helvetica,sans-Serif" font-size="10.00">::MagicBlock::destroy</text>
</a>
</g>
</g>
<!-- Node2 -->
<g id="node2" class="node">
<title>Node2</title>
<g id="a_node2"><a xlink:href="structtklb_1_1memory_1_1tracer_1_1_magic_block.html#ad6d7ec91fc6ebe3cf9ff6326f1d4bfc2" target="_top" xlink:title="checks if the allocation is still intact">
<polygon fill="none" stroke="black" points="157,-49.5 157,-79.5 274,-79.5 274,-49.5 157,-49.5"/>
<text text-anchor="start" x="165" y="-67.5" font-family="Helvetica,sans-Serif" font-size="10.00">tklb::memory::tracer</text>
<text text-anchor="middle" x="215.5" y="-56.5" font-family="Helvetica,sans-Serif" font-size="10.00">::MagicBlock::check</text>
</a>
</g>
</g>
<!-- Node1&#45;&gt;Node2 -->
<g id="edge1" class="edge">
<title>Node1&#45;&gt;Node2</title>
<path fill="none" stroke="midnightblue" d="M121.09,-49.24C129.53,-50.62 138.27,-52.04 146.85,-53.45"/>
<polygon fill="midnightblue" stroke="midnightblue" points="146.39,-56.92 156.83,-55.08 147.52,-50.01 146.39,-56.92"/>
</g>
<!-- Node4 -->
<g id="node4" class="node">
<title>Node4</title>
<g id="a_node4"><a xlink:href="structtklb_1_1memory_1_1tracer_1_1_magic_block.html#a6ce36eef9e0991197e520cd79677dff3" target="_top" xlink:title="Find the MagicBlock for a given allocation.">
<polygon fill="none" stroke="black" points="157,-0.5 157,-30.5 274,-30.5 274,-0.5 157,-0.5"/>
<text text-anchor="start" x="165" y="-18.5" font-family="Helvetica,sans-Serif" font-size="10.00">tklb::memory::tracer</text>
<text text-anchor="middle" x="215.5" y="-7.5" font-family="Helvetica,sans-Serif" font-size="10.00">::MagicBlock::find</text>
</a>
</g>
</g>
<!-- Node1&#45;&gt;Node4 -->
<g id="edge3" class="edge">
<title>Node1&#45;&gt;Node4</title>
<path fill="none" stroke="midnightblue" d="M121.09,-30.15C129.53,-28.83 138.27,-27.46 146.85,-26.11"/>
<polygon fill="midnightblue" stroke="midnightblue" points="147.49,-29.55 156.83,-24.55 146.41,-22.64 147.49,-29.55"/>
</g>
<!-- Node3 -->
<g id="node3" class="node">
<title>Node3</title>
<g id="a_node3"><a xlink:href="structtklb_1_1memory_1_1tracer_1_1_magic_block.html#a79e6e6f126eaf3a73f2f16530da06158" target="_top" xlink:title=" ">
<polygon fill="none" stroke="black" points="310,-49.5 310,-79.5 437,-79.5 437,-49.5 310,-49.5"/>
<text text-anchor="start" x="318" y="-67.5" font-family="Helvetica,sans-Serif" font-size="10.00">tklb::memory::tracer</text>
<text text-anchor="middle" x="373.5" y="-56.5" font-family="Helvetica,sans-Serif" font-size="10.00">::MagicBlock::compare</text>
</a>
</g>
</g>
<!-- Node2&#45;&gt;Node3 -->
<g id="edge2" class="edge">
<title>Node2&#45;&gt;Node3</title>
<path fill="none" stroke="midnightblue" d="M274.15,-64.5C282.5,-64.5 291.2,-64.5 299.81,-64.5"/>
<polygon fill="midnightblue" stroke="midnightblue" points="299.85,-68 309.85,-64.5 299.85,-61 299.85,-68"/>
</g>
</g>
</svg>
