<?xml version="1.0" encoding="UTF-8" standalone="no"?>
<!DOCTYPE svg PUBLIC "-//W3C//DTD SVG 1.1//EN"
 "http://www.w3.org/Graphics/SVG/1.1/DTD/svg11.dtd">
<!-- Generated by graphviz version 2.50.0 (0)
 -->
<!-- Title: vae_spcap.hpp Pages: 1 -->
<!--zoomable 542 -->
<svg id="main" version="1.1" xmlns="http://www.w3.org/2000/svg" xmlns:xlink="http://www.w3.org/1999/xlink" xml:space="preserve" onload="init(evt)">
<style type="text/css"><![CDATA[
.edge:hover path { stroke: red; }
.edge:hover polygon { stroke: red; fill: red; }
]]></style>
<script type="text/javascript"><![CDATA[
var edges = document.getElementsByTagName('g');
if (edges && edges.length) {
  for (var i=0;i<edges.length;i++) {
    if (edges[i].id.substr(0,4)=='edge') {
      edges[i].setAttribute('class','edge');
    }
  }
}
]]></script>
        <defs>
                <circle id="rim" cx="0" cy="0" r="7"/>
                <circle id="rim2" cx="0" cy="0" r="3.5"/>
                <g id="zoomPlus">
                        <use xlink:href="#rim" fill="#404040">
                                <set attributeName="fill" to="#808080" begin="zoomplus.mouseover" end="zoomplus.mouseout"/>
                        </use>
                        <path d="M-4,0h8M0,-4v8" fill="none" stroke="white" stroke-width="1.5" pointer-events="none"/>
                </g>
                <g id="zoomMin">
                        <use xlink:href="#rim" fill="#404040">
                                <set attributeName="fill" to="#808080" begin="zoomminus.mouseover" end="zoomminus.mouseout"/>
                        </use>
                        <path d="M-4,0h8" fill="none" stroke="white" stroke-width="1.5" pointer-events="none"/>
                </g>
                <g id="dirArrow">
                        <path fill="none" stroke="white" stroke-width="1.5" d="M0,-3.0v7 M-2.5,-0.5L0,-3.0L2.5,-0.5"/>
                </g>
               <g id="resetDef">
                       <use xlink:href="#rim2" fill="#404040">
                               <set attributeName="fill" to="#808080" begin="reset.mouseover" end="reset.mouseout"/>
                       </use>
               </g>
        </defs>

<script type="text/javascript">
var viewWidth = 1639;
var viewHeight = 542;
var sectionId = 'dynsection-0';
</script>
<script xlink:href="svgpan.js"/>
<svg id="graph" class="graph">
<g id="viewport">
<title>vae_spcap.hpp</title>
<!-- Node1 -->
<g id="node1" class="node">
<title>Node1</title>
<g id="a_node1"><a xlink:title=" ">
<polygon fill="#bfbfbf" stroke="black" points="1108.5,-514.5 1108.5,-533.5 1197.5,-533.5 1197.5,-514.5 1108.5,-514.5"/>
<text text-anchor="middle" x="1153" y="-521.5" font-family="Helvetica,sans-Serif" font-size="10.00">vae_spcap.hpp</text>
</a>
</g>
</g>
<!-- Node2 -->
<g id="node2" class="node">
<title>Node2</title>
<g id="a_node2"><a xlink:href="vae__types_8hpp.html" target="_top" xlink:title="Internal types used across VAE.">
<polygon fill="none" stroke="black" points="1066.5,-458.5 1066.5,-477.5 1163.5,-477.5 1163.5,-458.5 1066.5,-458.5"/>
<text text-anchor="middle" x="1115" y="-465.5" font-family="Helvetica,sans-Serif" font-size="10.00">../vae_types.hpp</text>
</a>
</g>
</g>
<!-- Node1&#45;&gt;Node2 -->
<g id="edge1" class="edge">
<title>Node1&#45;&gt;Node2</title>
<path fill="none" stroke="midnightblue" d="M1146.73,-514.08C1141.36,-506.46 1133.48,-495.26 1126.92,-485.94"/>
<polygon fill="midnightblue" stroke="midnightblue" points="1129.78,-483.91 1121.16,-477.75 1124.05,-487.94 1129.78,-483.91"/>
</g>
<!-- Node38 -->
<g id="node38" class="node">
<title>Node38</title>
<g id="a_node38"><a xlink:href="vae__util_8hpp.html" target="_top" xlink:title=" ">
<polygon fill="none" stroke="black" points="1407,-391.5 1407,-410.5 1493,-410.5 1493,-391.5 1407,-391.5"/>
<text text-anchor="middle" x="1450" y="-398.5" font-family="Helvetica,sans-Serif" font-size="10.00">../vae_util.hpp</text>
</a>
</g>
</g>
<!-- Node1&#45;&gt;Node38 -->
<g id="edge56" class="edge">
<title>Node1&#45;&gt;Node38</title>
<path fill="none" stroke="midnightblue" d="M1173.88,-514.49C1225.42,-493.5 1358.82,-439.15 1419.34,-414.49"/>
<polygon fill="midnightblue" stroke="midnightblue" points="1420.8,-417.68 1428.74,-410.66 1418.16,-411.19 1420.8,-417.68"/>
</g>
<!-- Node3 -->
<g id="node3" class="node">
<title>Node3</title>
<g id="a_node3"><a xlink:href="vae_8hpp.html" target="_top" xlink:title="Contains all public API types for VAE.">
<polygon fill="none" stroke="black" points="1167.5,-319 1167.5,-338 1300.5,-338 1300.5,-319 1167.5,-319"/>
<text text-anchor="middle" x="1234" y="-326" font-family="Helvetica,sans-Serif" font-size="10.00">../../include/vae/vae.hpp</text>
</a>
</g>
</g>
<!-- Node2&#45;&gt;Node3 -->
<g id="edge2" class="edge">
<title>Node2&#45;&gt;Node3</title>
<path fill="none" stroke="midnightblue" d="M1150.83,-458.46C1171.29,-451.8 1195.8,-440.48 1211,-422 1228.3,-400.96 1232.86,-368.73 1233.91,-348.4"/>
<polygon fill="midnightblue" stroke="midnightblue" points="1237.42,-348.33 1234.2,-338.23 1230.42,-348.13 1237.42,-348.33"/>
</g>
<!-- Node4 -->
<g id="node4" class="node">
<title>Node4</title>
<g id="a_node4"><a xlink:href="vae__profiler_8hpp.html" target="_top" xlink:title=" ">
<polygon fill="none" stroke="black" points="1000.5,-319 1000.5,-338 1149.5,-338 1149.5,-319 1000.5,-319"/>
<text text-anchor="middle" x="1075" y="-326" font-family="Helvetica,sans-Serif" font-size="10.00">../wrapped/vae_profiler.hpp</text>
</a>
</g>
</g>
<!-- Node2&#45;&gt;Node4 -->
<g id="edge3" class="edge">
<title>Node2&#45;&gt;Node4</title>
<path fill="none" stroke="midnightblue" d="M1110.74,-458.21C1106.54,-449.27 1100.16,-434.92 1096,-422 1087.94,-396.96 1081.76,-367.15 1078.26,-348.27"/>
<polygon fill="midnightblue" stroke="midnightblue" points="1081.68,-347.53 1076.46,-338.31 1074.79,-348.77 1081.68,-347.53"/>
</g>
<!-- Node5 -->
<g id="node5" class="node">
<title>Node5</title>
<g id="a_node5"><a xlink:href="vae__config_8hpp.html" target="_top" xlink:title=" ">
<polygon fill="none" stroke="black" points="1105.5,-391.5 1105.5,-410.5 1202.5,-410.5 1202.5,-391.5 1105.5,-391.5"/>
<text text-anchor="middle" x="1154" y="-398.5" font-family="Helvetica,sans-Serif" font-size="10.00">./vae_config.hpp</text>
</a>
</g>
</g>
<!-- Node2&#45;&gt;Node5 -->
<g id="edge4" class="edge">
<title>Node2&#45;&gt;Node5</title>
<path fill="none" stroke="midnightblue" d="M1120.26,-458.23C1126.22,-448.29 1136.1,-431.84 1143.63,-419.29"/>
<polygon fill="midnightblue" stroke="midnightblue" points="1146.68,-421 1148.82,-410.63 1140.68,-417.4 1146.68,-421"/>
</g>
<!-- Node6 -->
<g id="node6" class="node">
<title>Node6</title>
<g id="a_node6"><a xlink:title=" ">
<polygon fill="none" stroke="#bfbfbf" points="818.5,-386 818.5,-416 915.5,-416 915.5,-386 818.5,-386"/>
<text text-anchor="start" x="826.5" y="-404" font-family="Helvetica,sans-Serif" font-size="10.00">../../external/glm</text>
<text text-anchor="middle" x="867" y="-393" font-family="Helvetica,sans-Serif" font-size="10.00">/glm/glm.hpp</text>
</a>
</g>
</g>
<!-- Node2&#45;&gt;Node6 -->
<g id="edge6" class="edge">
<title>Node2&#45;&gt;Node6</title>
<path fill="none" stroke="midnightblue" d="M1072.94,-458.43C1034.01,-450.19 974.68,-436.82 924,-422 921.03,-421.13 917.98,-420.2 914.92,-419.22"/>
<polygon fill="midnightblue" stroke="midnightblue" points="915.74,-415.81 905.15,-416.01 913.55,-422.46 915.74,-415.81"/>
</g>
<!-- Node7 -->
<g id="node7" class="node">
<title>Node7</title>
<g id="a_node7"><a xlink:href="_t_audio_buffer_8hpp.html" target="_top" xlink:title=" ">
<polygon fill="none" stroke="black" points="626.5,-313.5 626.5,-343.5 805.5,-343.5 805.5,-313.5 626.5,-313.5"/>
<text text-anchor="start" x="634.5" y="-331.5" font-family="Helvetica,sans-Serif" font-size="10.00">../../external/tklb</text>
<text text-anchor="middle" x="716" y="-320.5" font-family="Helvetica,sans-Serif" font-size="10.00">/src/types/audio/TAudioBuffer.hpp</text>
</a>
</g>
</g>
<!-- Node2&#45;&gt;Node7 -->
<g id="edge7" class="edge">
<title>Node2&#45;&gt;Node7</title>
<path fill="none" stroke="midnightblue" d="M1066.42,-466.02C951.09,-463.2 668.32,-453.13 640,-422 627.44,-408.19 631.18,-396.45 640,-380 647.12,-366.73 659.43,-356.35 672.09,-348.54"/>
<polygon fill="midnightblue" stroke="midnightblue" points="673.9,-351.54 680.86,-343.55 670.44,-345.46 673.9,-351.54"/>
</g>
<!-- Node32 -->
<g id="node32" class="node">
<title>Node32</title>
<g id="a_node32"><a xlink:href="_t_audio_ring_buffer_8hpp.html" target="_top" xlink:title=" ">
<polygon fill="none" stroke="black" points="649.5,-380.5 649.5,-421.5 800.5,-421.5 800.5,-380.5 649.5,-380.5"/>
<text text-anchor="start" x="657.5" y="-409.5" font-family="Helvetica,sans-Serif" font-size="10.00">../../external/tklb</text>
<text text-anchor="start" x="657.5" y="-398.5" font-family="Helvetica,sans-Serif" font-size="10.00">/src/types/audio/TAudioRing</text>
<text text-anchor="middle" x="725" y="-387.5" font-family="Helvetica,sans-Serif" font-size="10.00">Buffer.hpp</text>
</a>
</g>
</g>
<!-- Node2&#45;&gt;Node32 -->
<g id="edge44" class="edge">
<title>Node2&#45;&gt;Node32</title>
<path fill="none" stroke="midnightblue" d="M1066.29,-461.18C1007.79,-453.89 906.52,-440.32 811.05,-422.32"/>
<polygon fill="midnightblue" stroke="midnightblue" points="811.42,-418.83 800.94,-420.4 810.11,-425.71 811.42,-418.83"/>
</g>
<!-- Node33 -->
<g id="node33" class="node">
<title>Node33</title>
<g id="a_node33"><a xlink:href="_t_string_8hpp.html" target="_top" xlink:title=" ">
<polygon fill="none" stroke="black" points="1319,-313.5 1319,-343.5 1441,-343.5 1441,-313.5 1319,-313.5"/>
<text text-anchor="start" x="1327" y="-331.5" font-family="Helvetica,sans-Serif" font-size="10.00">../../external/tklb</text>
<text text-anchor="middle" x="1380" y="-320.5" font-family="Helvetica,sans-Serif" font-size="10.00">/src/types/TString.hpp</text>
</a>
</g>
</g>
<!-- Node2&#45;&gt;Node33 -->
<g id="edge46" class="edge">
<title>Node2&#45;&gt;Node33</title>
<path fill="none" stroke="midnightblue" d="M1163.55,-465.92C1206.87,-462.81 1270.33,-452.77 1316,-422 1341.31,-404.95 1359.56,-374.25 1369.95,-352.92"/>
<polygon fill="midnightblue" stroke="midnightblue" points="1373.25,-354.12 1374.29,-343.58 1366.9,-351.18 1373.25,-354.12"/>
</g>
<!-- Node34 -->
<g id="node34" class="node">
<title>Node34</title>
<g id="a_node34"><a xlink:href="vae__allocators_8hpp.html" target="_top" xlink:title=" ">
<polygon fill="none" stroke="black" points="933.5,-391.5 933.5,-410.5 1048.5,-410.5 1048.5,-391.5 933.5,-391.5"/>
<text text-anchor="middle" x="991" y="-398.5" font-family="Helvetica,sans-Serif" font-size="10.00">./vae_allocators.hpp</text>
</a>
</g>
</g>
<!-- Node2&#45;&gt;Node34 -->
<g id="edge49" class="edge">
<title>Node2&#45;&gt;Node34</title>
<path fill="none" stroke="midnightblue" d="M1098.53,-458.37C1077.6,-447.39 1041.22,-428.32 1016.64,-415.44"/>
<polygon fill="midnightblue" stroke="midnightblue" points="1018.02,-412.21 1007.53,-410.67 1014.77,-418.41 1018.02,-412.21"/>
</g>
<!-- Node37 -->
<g id="node37" class="node">
<title>Node37</title>
<g id="a_node37"><a xlink:title=" ">
<polygon fill="none" stroke="#bfbfbf" points="1259,-391.5 1259,-410.5 1307,-410.5 1307,-391.5 1259,-391.5"/>
<text text-anchor="middle" x="1283" y="-398.5" font-family="Helvetica,sans-Serif" font-size="10.00">mutex</text>
</a>
</g>
</g>
<!-- Node2&#45;&gt;Node37 -->
<g id="edge55" class="edge">
<title>Node2&#45;&gt;Node37</title>
<path fill="none" stroke="midnightblue" d="M1143.62,-458.47C1170.28,-450.2 1210.92,-436.77 1245,-422 1249.63,-419.99 1254.47,-417.65 1259.08,-415.29"/>
<polygon fill="midnightblue" stroke="midnightblue" points="1260.89,-418.29 1268.09,-410.52 1257.62,-412.1 1260.89,-418.29"/>
</g>
<!-- Node5&#45;&gt;Node3 -->
<g id="edge5" class="edge">
<title>Node5&#45;&gt;Node3</title>
<path fill="none" stroke="midnightblue" d="M1163.81,-391.36C1176.88,-379.83 1200.25,-359.24 1216.41,-345"/>
<polygon fill="midnightblue" stroke="midnightblue" points="1218.92,-347.45 1224.11,-338.22 1214.29,-342.2 1218.92,-347.45"/>
</g>
<!-- Node8 -->
<g id="node8" class="node">
<title>Node8</title>
<g id="a_node8"><a xlink:title=" ">
<polygon fill="none" stroke="#bfbfbf" points="900,-190.5 900,-209.5 964,-209.5 964,-190.5 900,-190.5"/>
<text text-anchor="middle" x="932" y="-197.5" font-family="Helvetica,sans-Serif" font-size="10.00">algorithm</text>
</a>
</g>
</g>
<!-- Node7&#45;&gt;Node8 -->
<g id="edge8" class="edge">
<title>Node7&#45;&gt;Node8</title>
<path fill="none" stroke="midnightblue" d="M743.4,-313.37C762.29,-303.49 787.88,-289.81 810,-277 845.61,-256.37 885.98,-230.78 910.19,-215.18"/>
<polygon fill="midnightblue" stroke="midnightblue" points="912.13,-218.09 918.63,-209.72 908.33,-212.21 912.13,-218.09"/>
</g>
<!-- Node9 -->
<g id="node9" class="node">
<title>Node9</title>
<g id="a_node9"><a xlink:title=" ">
<polygon fill="none" stroke="#bfbfbf" points="850,-134.5 850,-153.5 894,-153.5 894,-134.5 850,-134.5"/>
<text text-anchor="middle" x="872" y="-141.5" font-family="Helvetica,sans-Serif" font-size="10.00">limits</text>
</a>
</g>
</g>
<!-- Node7&#45;&gt;Node9 -->
<g id="edge9" class="edge">
<title>Node7&#45;&gt;Node9</title>
<path fill="none" stroke="midnightblue" d="M733.44,-313.26C744.91,-303.55 759.96,-290.12 772,-277 807.32,-238.52 842.88,-188.17 860.54,-162.18"/>
<polygon fill="midnightblue" stroke="midnightblue" points="863.52,-164.03 866.21,-153.78 857.72,-160.11 863.52,-164.03"/>
</g>
<!-- Node10 -->
<g id="node10" class="node">
<title>Node10</title>
<g id="a_node10"><a xlink:title=" ">
<polygon fill="none" stroke="#bfbfbf" points="300.5,-252 300.5,-271 369.5,-271 369.5,-252 300.5,-252"/>
<text text-anchor="middle" x="335" y="-259" font-family="Helvetica,sans-Serif" font-size="10.00">type_traits</text>
</a>
</g>
</g>
<!-- Node7&#45;&gt;Node10 -->
<g id="edge10" class="edge">
<title>Node7&#45;&gt;Node10</title>
<path fill="none" stroke="midnightblue" d="M626.16,-318.24C557.81,-310.18 461.73,-296.68 379,-277 375.53,-276.17 371.94,-275.2 368.38,-274.15"/>
<polygon fill="midnightblue" stroke="midnightblue" points="369.13,-270.72 358.54,-271.07 367.04,-277.4 369.13,-270.72"/>
</g>
<!-- Node11 -->
<g id="node11" class="node">
<title>Node11</title>
<g id="a_node11"><a xlink:href="_t_memory_8hpp.html" target="_top" xlink:title=" ">
<polygon fill="none" stroke="black" points="388,-252 388,-271 532,-271 532,-252 388,-252"/>
<text text-anchor="middle" x="460" y="-259" font-family="Helvetica,sans-Serif" font-size="10.00">../../memory/TMemory.hpp</text>
</a>
</g>
</g>
<!-- Node7&#45;&gt;Node11 -->
<g id="edge11" class="edge">
<title>Node7&#45;&gt;Node11</title>
<path fill="none" stroke="midnightblue" d="M660.77,-313.48C613.68,-301.52 546.93,-284.57 503.55,-273.56"/>
<polygon fill="midnightblue" stroke="midnightblue" points="504.14,-270.1 493.59,-271.03 502.42,-276.88 504.14,-270.1"/>
</g>
<!-- Node19 -->
<g id="node19" class="node">
<title>Node19</title>
<g id="a_node19"><a xlink:href="_t_assert_8h.html" target="_top" xlink:title=" ">
<polygon fill="none" stroke="black" points="699.5,-67.5 699.5,-86.5 788.5,-86.5 788.5,-67.5 699.5,-67.5"/>
<text text-anchor="middle" x="744" y="-74.5" font-family="Helvetica,sans-Serif" font-size="10.00">../util/TAssert.h</text>
</a>
</g>
</g>
<!-- Node7&#45;&gt;Node19 -->
<g id="edge43" class="edge">
<title>Node7&#45;&gt;Node19</title>
<path fill="none" stroke="midnightblue" d="M724.25,-313.46C729.57,-303.62 736.02,-289.96 739,-277 753.9,-212.27 749.25,-132.57 746,-96.86"/>
<polygon fill="midnightblue" stroke="midnightblue" points="749.48,-96.5 745.02,-86.89 742.51,-97.18 749.48,-96.5"/>
</g>
<!-- Node26 -->
<g id="node26" class="node">
<title>Node26</title>
<g id="a_node26"><a xlink:href="_t_math_8hpp.html" target="_top" xlink:title=" ">
<polygon fill="none" stroke="black" points="1241,-252 1241,-271 1345,-271 1345,-252 1241,-252"/>
<text text-anchor="middle" x="1293" y="-259" font-family="Helvetica,sans-Serif" font-size="10.00">../../util/TMath.hpp</text>
</a>
</g>
</g>
<!-- Node7&#45;&gt;Node26 -->
<g id="edge32" class="edge">
<title>Node7&#45;&gt;Node26</title>
<path fill="none" stroke="midnightblue" d="M805.52,-317.42C923.5,-304.13 1128.02,-281.08 1230.58,-269.53"/>
<polygon fill="midnightblue" stroke="midnightblue" points="1231.23,-272.98 1240.78,-268.38 1230.45,-266.02 1231.23,-272.98"/>
</g>
<!-- Node27 -->
<g id="node27" class="node">
<title>Node27</title>
<g id="a_node27"><a xlink:title=" ">
<polygon fill="none" stroke="#bfbfbf" points="588,-246.5 588,-276.5 730,-276.5 730,-246.5 588,-246.5"/>
<text text-anchor="start" x="596" y="-264.5" font-family="Helvetica,sans-Serif" font-size="10.00">../../../external/xsimd</text>
<text text-anchor="middle" x="659" y="-253.5" font-family="Helvetica,sans-Serif" font-size="10.00">/include/xsimd/xsimd.hpp</text>
</a>
</g>
</g>
<!-- Node7&#45;&gt;Node27 -->
<g id="edge33" class="edge">
<title>Node7&#45;&gt;Node27</title>
<path fill="none" stroke="midnightblue" d="M703.63,-313.4C696.16,-304.88 686.49,-293.85 678.06,-284.23"/>
<polygon fill="midnightblue" stroke="midnightblue" points="680.57,-281.79 671.34,-276.58 675.31,-286.4 680.57,-281.79"/>
</g>
<!-- Node28 -->
<g id="node28" class="node">
<title>Node28</title>
<g id="a_node28"><a xlink:href="_t_heap_buffer_8hpp.html" target="_top" xlink:title=" ">
<polygon fill="none" stroke="black" points="1043.5,-252 1043.5,-271 1150.5,-271 1150.5,-252 1043.5,-252"/>
<text text-anchor="middle" x="1097" y="-259" font-family="Helvetica,sans-Serif" font-size="10.00">../THeapBuffer.hpp</text>
</a>
</g>
</g>
<!-- Node7&#45;&gt;Node28 -->
<g id="edge34" class="edge">
<title>Node7&#45;&gt;Node28</title>
<path fill="none" stroke="midnightblue" d="M798.2,-313.48C870.05,-301.22 972.67,-283.71 1037.02,-272.73"/>
<polygon fill="midnightblue" stroke="midnightblue" points="1037.74,-276.16 1047.01,-271.03 1036.56,-269.26 1037.74,-276.16"/>
</g>
<!-- Node12 -->
<g id="node12" class="node">
<title>Node12</title>
<g id="a_node12"><a xlink:href="_t_memory_pool_8hpp.html" target="_top" xlink:title=" ">
<polygon fill="none" stroke="black" points="342,-134.5 342,-153.5 452,-153.5 452,-134.5 342,-134.5"/>
<text text-anchor="middle" x="397" y="-141.5" font-family="Helvetica,sans-Serif" font-size="10.00">./TMemoryPool.hpp</text>
</a>
</g>
</g>
<!-- Node11&#45;&gt;Node12 -->
<g id="edge12" class="edge">
<title>Node11&#45;&gt;Node12</title>
<path fill="none" stroke="midnightblue" d="M424.1,-251.98C388.18,-242.65 336.62,-226.76 325,-210 310.21,-188.68 339.31,-169.48 364.82,-157.57"/>
<polygon fill="midnightblue" stroke="midnightblue" points="366.24,-160.77 373.97,-153.52 363.41,-154.36 366.24,-160.77"/>
</g>
<!-- Node24 -->
<g id="node24" class="node">
<title>Node24</title>
<g id="a_node24"><a xlink:href="_t_memory_pool_std_8hpp.html" target="_top" xlink:title=" ">
<polygon fill="none" stroke="black" points="334,-190.5 334,-209.5 460,-209.5 460,-190.5 334,-190.5"/>
<text text-anchor="middle" x="397" y="-197.5" font-family="Helvetica,sans-Serif" font-size="10.00">./TMemoryPoolStd.hpp</text>
</a>
</g>
</g>
<!-- Node11&#45;&gt;Node24 -->
<g id="edge25" class="edge">
<title>Node11&#45;&gt;Node24</title>
<path fill="none" stroke="midnightblue" d="M450.97,-251.98C441.24,-242.78 425.54,-227.96 413.58,-216.66"/>
<polygon fill="midnightblue" stroke="midnightblue" points="415.68,-213.83 406.01,-209.51 410.88,-218.92 415.68,-213.83"/>
</g>
<!-- Node25 -->
<g id="node25" class="node">
<title>Node25</title>
<g id="a_node25"><a xlink:href="_t_memory_pool_stack_8hpp.html" target="_top" xlink:title=" ">
<polygon fill="none" stroke="black" points="478.5,-190.5 478.5,-209.5 615.5,-209.5 615.5,-190.5 478.5,-190.5"/>
<text text-anchor="middle" x="547" y="-197.5" font-family="Helvetica,sans-Serif" font-size="10.00">./TMemoryPoolStack.hpp</text>
</a>
</g>
</g>
<!-- Node11&#45;&gt;Node25 -->
<g id="edge29" class="edge">
<title>Node11&#45;&gt;Node25</title>
<path fill="none" stroke="midnightblue" d="M472.46,-251.98C486.42,-242.43 509.26,-226.81 525.99,-215.37"/>
<polygon fill="midnightblue" stroke="midnightblue" points="528.28,-218.04 534.56,-209.51 524.33,-212.27 528.28,-218.04"/>
</g>
<!-- Node13 -->
<g id="node13" class="node">
<title>Node13</title>
<g id="a_node13"><a xlink:title=" ">
<polygon fill="none" stroke="#bfbfbf" points="389.5,-67.5 389.5,-86.5 434.5,-86.5 434.5,-67.5 389.5,-67.5"/>
<text text-anchor="middle" x="412" y="-74.5" font-family="Helvetica,sans-Serif" font-size="10.00">utility</text>
</a>
</g>
</g>
<!-- Node12&#45;&gt;Node13 -->
<g id="edge13" class="edge">
<title>Node12&#45;&gt;Node13</title>
<path fill="none" stroke="midnightblue" d="M399.02,-134.23C401.25,-124.59 404.89,-108.8 407.75,-96.41"/>
<polygon fill="midnightblue" stroke="midnightblue" points="411.17,-97.16 410.01,-86.63 404.35,-95.58 411.17,-97.16"/>
</g>
<!-- Node14 -->
<g id="node14" class="node">
<title>Node14</title>
<g id="a_node14"><a xlink:title=" ">
<polygon fill="none" stroke="#bfbfbf" points="0,-67.5 0,-86.5 50,-86.5 50,-67.5 0,-67.5"/>
<text text-anchor="middle" x="25" y="-74.5" font-family="Helvetica,sans-Serif" font-size="10.00">cstdint</text>
</a>
</g>
</g>
<!-- Node12&#45;&gt;Node14 -->
<g id="edge14" class="edge">
<title>Node12&#45;&gt;Node14</title>
<path fill="none" stroke="midnightblue" d="M341.84,-141.25C274.76,-137.83 158.76,-127.74 64,-98 58.69,-96.33 53.23,-93.99 48.14,-91.49"/>
<polygon fill="midnightblue" stroke="midnightblue" points="49.43,-88.2 38.95,-86.62 46.15,-94.39 49.43,-88.2"/>
</g>
<!-- Node15 -->
<g id="node15" class="node">
<title>Node15</title>
<g id="a_node15"><a xlink:title=" ">
<polygon fill="none" stroke="#bfbfbf" points="577.5,-67.5 577.5,-86.5 614.5,-86.5 614.5,-67.5 577.5,-67.5"/>
<text text-anchor="middle" x="596" y="-74.5" font-family="Helvetica,sans-Serif" font-size="10.00">new</text>
</a>
</g>
</g>
<!-- Node12&#45;&gt;Node15 -->
<g id="edge15" class="edge">
<title>Node12&#45;&gt;Node15</title>
<path fill="none" stroke="midnightblue" d="M448.82,-134.45C483.63,-127.5 529.93,-115.87 568,-98 571.29,-96.46 574.6,-94.52 577.73,-92.46"/>
<polygon fill="midnightblue" stroke="midnightblue" points="579.85,-95.24 585.93,-86.56 575.76,-89.56 579.85,-95.24"/>
</g>
<!-- Node16 -->
<g id="node16" class="node">
<title>Node16</title>
<g id="a_node16"><a xlink:href="_t_memory_util_8hpp.html" target="_top" xlink:title=" ">
<polygon fill="none" stroke="black" points="452.5,-67.5 452.5,-86.5 559.5,-86.5 559.5,-67.5 452.5,-67.5"/>
<text text-anchor="middle" x="506" y="-74.5" font-family="Helvetica,sans-Serif" font-size="10.00">./TMemoryUtil.hpp</text>
</a>
</g>
</g>
<!-- Node12&#45;&gt;Node16 -->
<g id="edge16" class="edge">
<title>Node12&#45;&gt;Node16</title>
<path fill="none" stroke="midnightblue" d="M411.7,-134.23C429.92,-123.37 461.2,-104.72 482.7,-91.89"/>
<polygon fill="midnightblue" stroke="midnightblue" points="484.74,-94.76 491.53,-86.63 481.15,-88.74 484.74,-94.76"/>
</g>
<!-- Node12&#45;&gt;Node19 -->
<g id="edge19" class="edge">
<title>Node12&#45;&gt;Node19</title>
<path fill="none" stroke="midnightblue" d="M442.72,-134.44C506.26,-122.53 621.12,-101.02 689.18,-88.27"/>
<polygon fill="midnightblue" stroke="midnightblue" points="690.09,-91.66 699.28,-86.38 688.8,-84.78 690.09,-91.66"/>
</g>
<!-- Node21 -->
<g id="node21" class="node">
<title>Node21</title>
<g id="a_node21"><a xlink:href="_t_spin_lock_8hpp.html" target="_top" xlink:title=" ">
<polygon fill="none" stroke="black" points="106,-67.5 106,-86.5 232,-86.5 232,-67.5 106,-67.5"/>
<text text-anchor="middle" x="169" y="-74.5" font-family="Helvetica,sans-Serif" font-size="10.00">../types/TSpinLock.hpp</text>
</a>
</g>
</g>
<!-- Node12&#45;&gt;Node21 -->
<g id="edge21" class="edge">
<title>Node12&#45;&gt;Node21</title>
<path fill="none" stroke="midnightblue" d="M366.72,-134.37C326.07,-122.78 253.75,-102.16 208.75,-89.33"/>
<polygon fill="midnightblue" stroke="midnightblue" points="209.62,-85.94 199.04,-86.56 207.7,-92.67 209.62,-85.94"/>
</g>
<!-- Node22 -->
<g id="node22" class="node">
<title>Node22</title>
<g id="a_node22"><a xlink:href="_t_lock_guard_8hpp.html" target="_top" xlink:title=" ">
<polygon fill="none" stroke="black" points="73.5,-0.5 73.5,-19.5 174.5,-19.5 174.5,-0.5 73.5,-0.5"/>
<text text-anchor="middle" x="124" y="-7.5" font-family="Helvetica,sans-Serif" font-size="10.00">./TLockGuard.hpp</text>
</a>
</g>
</g>
<!-- Node12&#45;&gt;Node22 -->
<g id="edge23" class="edge">
<title>Node12&#45;&gt;Node22</title>
<path fill="none" stroke="midnightblue" d="M341.88,-142.96C264.06,-141.59 127.97,-133.97 97,-98 79.72,-77.93 96.6,-46.89 110.35,-27.81"/>
<polygon fill="midnightblue" stroke="midnightblue" points="113.22,-29.82 116.49,-19.75 107.65,-25.58 113.22,-29.82"/>
</g>
<!-- Node23 -->
<g id="node23" class="node">
<title>Node23</title>
<g id="a_node23"><a xlink:title=" ">
<polygon fill="none" stroke="#bfbfbf" points="250.5,-56.5 250.5,-97.5 371.5,-97.5 371.5,-56.5 250.5,-56.5"/>
<text text-anchor="start" x="258.5" y="-85.5" font-family="Helvetica,sans-Serif" font-size="10.00">../../external/xsimd</text>
<text text-anchor="start" x="258.5" y="-74.5" font-family="Helvetica,sans-Serif" font-size="10.00">/include/xsimd/config</text>
<text text-anchor="middle" x="311" y="-63.5" font-family="Helvetica,sans-Serif" font-size="10.00">/xsimd_arch.hpp</text>
</a>
</g>
</g>
<!-- Node12&#45;&gt;Node23 -->
<g id="edge24" class="edge">
<title>Node12&#45;&gt;Node23</title>
<path fill="none" stroke="midnightblue" d="M385.4,-134.23C375.05,-126.41 359.37,-114.56 345.07,-103.75"/>
<polygon fill="midnightblue" stroke="midnightblue" points="346.94,-100.78 336.86,-97.54 342.72,-106.36 346.94,-100.78"/>
</g>
<!-- Node17 -->
<g id="node17" class="node">
<title>Node17</title>
<g id="a_node17"><a xlink:title=" ">
<polygon fill="none" stroke="#bfbfbf" points="1357,-0.5 1357,-19.5 1407,-19.5 1407,-0.5 1357,-0.5"/>
<text text-anchor="middle" x="1382" y="-7.5" font-family="Helvetica,sans-Serif" font-size="10.00">cstring</text>
</a>
</g>
</g>
<!-- Node16&#45;&gt;Node17 -->
<g id="edge17" class="edge">
<title>Node16&#45;&gt;Node17</title>
<path fill="none" stroke="midnightblue" d="M527.74,-67.47C539.48,-63.26 554.32,-58.54 568,-56 720.76,-27.63 1210.22,-14.82 1346.49,-11.75"/>
<polygon fill="midnightblue" stroke="midnightblue" points="1346.85,-15.24 1356.77,-11.52 1346.7,-8.25 1346.85,-15.24"/>
</g>
<!-- Node18 -->
<g id="node18" class="node">
<title>Node18</title>
<g id="a_node18"><a xlink:title=" ">
<polygon fill="none" stroke="#bfbfbf" points="616.5,-0.5 616.5,-19.5 669.5,-19.5 669.5,-0.5 616.5,-0.5"/>
<text text-anchor="middle" x="643" y="-7.5" font-family="Helvetica,sans-Serif" font-size="10.00">stdlib.h</text>
</a>
</g>
</g>
<!-- Node16&#45;&gt;Node18 -->
<g id="edge18" class="edge">
<title>Node16&#45;&gt;Node18</title>
<path fill="none" stroke="midnightblue" d="M524.19,-67.37C547.53,-56.3 588.23,-36.99 615.39,-24.1"/>
<polygon fill="midnightblue" stroke="midnightblue" points="617.2,-27.12 624.73,-19.67 614.2,-20.79 617.2,-27.12"/>
</g>
<!-- Node20 -->
<g id="node20" class="node">
<title>Node20</title>
<g id="a_node20"><a xlink:title=" ">
<polygon fill="none" stroke="#bfbfbf" points="718,-0.5 718,-19.5 770,-19.5 770,-0.5 718,-0.5"/>
<text text-anchor="middle" x="744" y="-7.5" font-family="Helvetica,sans-Serif" font-size="10.00">cassert</text>
</a>
</g>
</g>
<!-- Node19&#45;&gt;Node20 -->
<g id="edge20" class="edge">
<title>Node19&#45;&gt;Node20</title>
<path fill="none" stroke="midnightblue" d="M744,-67.23C744,-57.68 744,-42.12 744,-29.78"/>
<polygon fill="midnightblue" stroke="midnightblue" points="747.5,-29.63 744,-19.63 740.5,-29.63 747.5,-29.63"/>
</g>
<!-- Node21&#45;&gt;Node22 -->
<g id="edge22" class="edge">
<title>Node21&#45;&gt;Node22</title>
<path fill="none" stroke="midnightblue" d="M162.93,-67.23C155.98,-57.2 144.43,-40.51 135.71,-27.92"/>
<polygon fill="midnightblue" stroke="midnightblue" points="138.54,-25.86 129.97,-19.63 132.79,-29.84 138.54,-25.86"/>
</g>
<!-- Node24&#45;&gt;Node12 -->
<g id="edge27" class="edge">
<title>Node24&#45;&gt;Node12</title>
<path fill="none" stroke="midnightblue" d="M397,-190.08C397,-183.01 397,-172.86 397,-163.99"/>
<polygon fill="midnightblue" stroke="midnightblue" points="400.5,-163.75 397,-153.75 393.5,-163.75 400.5,-163.75"/>
</g>
<!-- Node24&#45;&gt;Node18 -->
<g id="edge26" class="edge">
<title>Node24&#45;&gt;Node18</title>
<path fill="none" stroke="midnightblue" d="M445.77,-190.44C497.58,-178.74 578.1,-152.6 623,-98 638.89,-78.68 642.69,-49.13 643.33,-29.94"/>
<polygon fill="midnightblue" stroke="midnightblue" points="646.84,-29.78 643.41,-19.75 639.84,-29.72 646.84,-29.78"/>
</g>
<!-- Node24&#45;&gt;Node19 -->
<g id="edge28" class="edge">
<title>Node24&#45;&gt;Node19</title>
<path fill="none" stroke="midnightblue" d="M450.26,-190.46C506.06,-181.12 589.72,-165.9 620,-154 660.01,-138.28 701.64,-109.85 725.05,-92.58"/>
<polygon fill="midnightblue" stroke="midnightblue" points="727.18,-95.35 733.08,-86.55 722.98,-89.75 727.18,-95.35"/>
</g>
<!-- Node25&#45;&gt;Node12 -->
<g id="edge30" class="edge">
<title>Node25&#45;&gt;Node12</title>
<path fill="none" stroke="midnightblue" d="M523.23,-190.44C498.11,-181.4 458.29,-167.06 430.1,-156.92"/>
<polygon fill="midnightblue" stroke="midnightblue" points="431.25,-153.61 420.66,-153.52 428.88,-160.2 431.25,-153.61"/>
</g>
<!-- Node25&#45;&gt;Node19 -->
<g id="edge31" class="edge">
<title>Node25&#45;&gt;Node19</title>
<path fill="none" stroke="midnightblue" d="M609.19,-190.46C637.84,-184.09 670.95,-173.06 696,-154 715.64,-139.05 729.34,-113.56 736.93,-96.27"/>
<polygon fill="midnightblue" stroke="midnightblue" points="740.29,-97.3 740.88,-86.72 733.82,-94.63 740.29,-97.3"/>
</g>
<!-- Node28&#45;&gt;Node8 -->
<g id="edge35" class="edge">
<title>Node28&#45;&gt;Node8</title>
<path fill="none" stroke="midnightblue" d="M1073.36,-251.98C1045.06,-241.77 997.47,-224.61 965.41,-213.05"/>
<polygon fill="midnightblue" stroke="midnightblue" points="966.19,-209.61 955.6,-209.51 963.82,-216.19 966.19,-209.61"/>
</g>
<!-- Node28&#45;&gt;Node17 -->
<g id="edge37" class="edge">
<title>Node28&#45;&gt;Node17</title>
<path fill="none" stroke="midnightblue" d="M1118,-251.86C1138.26,-242.98 1169.27,-227.95 1193,-210 1268.66,-152.75 1340.97,-64.16 1369.36,-27.63"/>
<polygon fill="midnightblue" stroke="midnightblue" points="1372.28,-29.57 1375.61,-19.51 1366.74,-25.3 1372.28,-29.57"/>
</g>
<!-- Node29 -->
<g id="node29" class="node">
<title>Node29</title>
<g id="a_node29"><a xlink:title=" ">
<polygon fill="none" stroke="#bfbfbf" points="1137.5,-190.5 1137.5,-209.5 1184.5,-209.5 1184.5,-190.5 1137.5,-190.5"/>
<text text-anchor="middle" x="1161" y="-197.5" font-family="Helvetica,sans-Serif" font-size="10.00">cmath</text>
</a>
</g>
</g>
<!-- Node28&#45;&gt;Node29 -->
<g id="edge36" class="edge">
<title>Node28&#45;&gt;Node29</title>
<path fill="none" stroke="midnightblue" d="M1106.17,-251.98C1116.15,-242.7 1132.31,-227.67 1144.51,-216.33"/>
<polygon fill="midnightblue" stroke="midnightblue" points="1146.91,-218.88 1151.85,-209.51 1142.14,-213.75 1146.91,-218.88"/>
</g>
<!-- Node30 -->
<g id="node30" class="node">
<title>Node30</title>
<g id="a_node30"><a xlink:href="_t_allocator_8hpp.html" target="_top" xlink:title=" ">
<polygon fill="none" stroke="black" points="982.5,-190.5 982.5,-209.5 1119.5,-209.5 1119.5,-190.5 982.5,-190.5"/>
<text text-anchor="middle" x="1051" y="-197.5" font-family="Helvetica,sans-Serif" font-size="10.00">../memory/TAllocator.hpp</text>
</a>
</g>
</g>
<!-- Node28&#45;&gt;Node30 -->
<g id="edge38" class="edge">
<title>Node28&#45;&gt;Node30</title>
<path fill="none" stroke="midnightblue" d="M1090.41,-251.98C1083.51,-243.05 1072.5,-228.81 1063.87,-217.64"/>
<polygon fill="midnightblue" stroke="midnightblue" points="1066.46,-215.28 1057.58,-209.51 1060.93,-219.56 1066.46,-215.28"/>
</g>
<!-- Node30&#45;&gt;Node9 -->
<g id="edge41" class="edge">
<title>Node30&#45;&gt;Node9</title>
<path fill="none" stroke="midnightblue" d="M1022.64,-190.44C990.3,-180.69 937.56,-164.78 903.83,-154.6"/>
<polygon fill="midnightblue" stroke="midnightblue" points="904.61,-151.18 894.02,-151.64 902.59,-157.88 904.61,-151.18"/>
</g>
<!-- Node30&#45;&gt;Node18 -->
<g id="edge42" class="edge">
<title>Node30&#45;&gt;Node18</title>
<path fill="none" stroke="midnightblue" d="M1031.85,-190.39C1012.86,-181.7 983.05,-167.64 958,-154 884.43,-113.93 873.64,-89.82 797,-56 758.25,-38.9 711.21,-26.24 679.39,-18.78"/>
<polygon fill="midnightblue" stroke="midnightblue" points="680.15,-15.36 669.63,-16.54 678.59,-22.18 680.15,-15.36"/>
</g>
<!-- Node30&#45;&gt;Node19 -->
<g id="edge39" class="edge">
<title>Node30&#45;&gt;Node19</title>
<path fill="none" stroke="midnightblue" d="M1051.14,-190.38C1050.87,-176.37 1048.16,-148.73 1032,-134 998.52,-103.48 872.51,-88.33 798.73,-81.93"/>
<polygon fill="midnightblue" stroke="midnightblue" points="798.94,-78.44 788.68,-81.09 798.35,-85.42 798.94,-78.44"/>
</g>
<!-- Node31 -->
<g id="node31" class="node">
<title>Node31</title>
<g id="a_node31"><a xlink:title=" ">
<polygon fill="none" stroke="#bfbfbf" points="967,-134.5 967,-153.5 1023,-153.5 1023,-134.5 967,-134.5"/>
<text text-anchor="middle" x="995" y="-141.5" font-family="Helvetica,sans-Serif" font-size="10.00">stddef.h</text>
</a>
</g>
</g>
<!-- Node30&#45;&gt;Node31 -->
<g id="edge40" class="edge">
<title>Node30&#45;&gt;Node31</title>
<path fill="none" stroke="midnightblue" d="M1042,-190.32C1033.81,-182.42 1021.49,-170.55 1011.53,-160.94"/>
<polygon fill="midnightblue" stroke="midnightblue" points="1013.79,-158.26 1004.16,-153.83 1008.93,-163.29 1013.79,-158.26"/>
</g>
<!-- Node32&#45;&gt;Node7 -->
<g id="edge45" class="edge">
<title>Node32&#45;&gt;Node7</title>
<path fill="none" stroke="midnightblue" d="M722.49,-380.36C721.44,-372.14 720.21,-362.49 719.1,-353.82"/>
<polygon fill="midnightblue" stroke="midnightblue" points="722.58,-353.37 717.84,-343.89 715.63,-354.25 722.58,-353.37"/>
</g>
<!-- Node33&#45;&gt;Node17 -->
<g id="edge48" class="edge">
<title>Node33&#45;&gt;Node17</title>
<path fill="none" stroke="midnightblue" d="M1409.46,-313.45C1445.85,-293.81 1503,-254.45 1503,-201 1503,-201 1503,-201 1503,-143 1503,-87.35 1443.84,-44.99 1408.25,-24.54"/>
<polygon fill="midnightblue" stroke="midnightblue" points="1409.78,-21.38 1399.34,-19.59 1406.38,-27.5 1409.78,-21.38"/>
</g>
<!-- Node33&#45;&gt;Node28 -->
<g id="edge47" class="edge">
<title>Node33&#45;&gt;Node28</title>
<path fill="none" stroke="midnightblue" d="M1318.94,-313.48C1266.45,-301.42 1191.85,-284.29 1143.94,-273.28"/>
<polygon fill="midnightblue" stroke="midnightblue" points="1144.66,-269.86 1134.13,-271.03 1143.1,-276.68 1144.66,-269.86"/>
</g>
<!-- Node34&#45;&gt;Node4 -->
<g id="edge54" class="edge">
<title>Node34&#45;&gt;Node4</title>
<path fill="none" stroke="midnightblue" d="M1001.3,-391.36C1015.03,-379.83 1039.56,-359.24 1056.53,-345"/>
<polygon fill="midnightblue" stroke="midnightblue" points="1059.21,-347.33 1064.62,-338.22 1054.71,-341.96 1059.21,-347.33"/>
</g>
<!-- Node34&#45;&gt;Node9 -->
<g id="edge53" class="edge">
<title>Node34&#45;&gt;Node9</title>
<path fill="none" stroke="midnightblue" d="M965.66,-391.44C927.66,-378.35 859.63,-353.84 853,-344 833.38,-314.87 856.66,-207.43 867.27,-163.7"/>
<polygon fill="midnightblue" stroke="midnightblue" points="870.71,-164.37 869.71,-153.82 863.91,-162.69 870.71,-164.37"/>
</g>
<!-- Node34&#45;&gt;Node15 -->
<g id="edge52" class="edge">
<title>Node34&#45;&gt;Node15</title>
<path fill="none" stroke="midnightblue" d="M966.13,-391.45C953.62,-387.44 938.15,-382.92 924,-380 856.73,-366.12 674.24,-381.98 617,-344 578.07,-318.17 558.76,-288.1 579,-246 590.1,-222.92 612.9,-233.08 624,-210 627.85,-201.99 625.09,-198.82 624,-190 619.85,-156.31 608.94,-118.17 602.02,-96.22"/>
<polygon fill="midnightblue" stroke="midnightblue" points="605.31,-95.02 598.91,-86.58 598.65,-97.17 605.31,-95.02"/>
</g>
<!-- Node35 -->
<g id="node35" class="node">
<title>Node35</title>
<g id="a_node35"><a xlink:title=" ">
<polygon fill="none" stroke="#bfbfbf" points="862.5,-319 862.5,-338 911.5,-338 911.5,-319 862.5,-319"/>
<text text-anchor="middle" x="887" y="-326" font-family="Helvetica,sans-Serif" font-size="10.00">cstdlib</text>
</a>
</g>
</g>
<!-- Node34&#45;&gt;Node35 -->
<g id="edge50" class="edge">
<title>Node34&#45;&gt;Node35</title>
<path fill="none" stroke="midnightblue" d="M978.25,-391.36C960.78,-379.52 929.19,-358.1 908.16,-343.84"/>
<polygon fill="midnightblue" stroke="midnightblue" points="910.1,-340.93 899.86,-338.22 906.17,-346.72 910.1,-340.93"/>
</g>
<!-- Node36 -->
<g id="node36" class="node">
<title>Node36</title>
<g id="a_node36"><a xlink:title=" ">
<polygon fill="none" stroke="#bfbfbf" points="929.5,-319 929.5,-338 982.5,-338 982.5,-319 929.5,-319"/>
<text text-anchor="middle" x="956" y="-326" font-family="Helvetica,sans-Serif" font-size="10.00">cstddef</text>
</a>
</g>
</g>
<!-- Node34&#45;&gt;Node36 -->
<g id="edge51" class="edge">
<title>Node34&#45;&gt;Node36</title>
<path fill="none" stroke="midnightblue" d="M986.71,-391.36C981.3,-380.47 971.88,-361.48 964.89,-347.41"/>
<polygon fill="midnightblue" stroke="midnightblue" points="967.91,-345.62 960.33,-338.22 961.64,-348.73 967.91,-345.62"/>
</g>
<!-- Node38&#45;&gt;Node3 -->
<g id="edge63" class="edge">
<title>Node38&#45;&gt;Node3</title>
<path fill="none" stroke="midnightblue" d="M1423.95,-391.5C1385.43,-378.92 1313.18,-355.34 1269.74,-341.17"/>
<polygon fill="midnightblue" stroke="midnightblue" points="1270.74,-337.81 1260.15,-338.03 1268.57,-344.46 1270.74,-337.81"/>
</g>
<!-- Node38&#45;&gt;Node4 -->
<g id="edge57" class="edge">
<title>Node38&#45;&gt;Node4</title>
<path fill="none" stroke="midnightblue" d="M1406.98,-391.91C1338.81,-379.1 1206,-354.13 1130.66,-339.96"/>
<polygon fill="midnightblue" stroke="midnightblue" points="1130.9,-336.45 1120.43,-338.04 1129.61,-343.33 1130.9,-336.45"/>
</g>
<!-- Node38&#45;&gt;Node19 -->
<g id="edge58" class="edge">
<title>Node38&#45;&gt;Node19</title>
<path fill="none" stroke="midnightblue" d="M1455.57,-391.23C1465.23,-374.79 1482.71,-338.7 1468,-313 1421.96,-232.54 1152.83,-161.39 1053,-134 965.34,-109.95 860.81,-93.48 798.55,-84.91"/>
<polygon fill="midnightblue" stroke="midnightblue" points="798.94,-81.43 788.56,-83.55 798,-88.36 798.94,-81.43"/>
</g>
<!-- Node38&#45;&gt;Node26 -->
<g id="edge59" class="edge">
<title>Node38&#45;&gt;Node26</title>
<path fill="none" stroke="midnightblue" d="M1453.04,-391.33C1458.36,-374.43 1467.26,-336.68 1450,-313 1428.45,-283.43 1389.3,-270.8 1355.48,-265.56"/>
<polygon fill="midnightblue" stroke="midnightblue" points="1355.57,-262.04 1345.19,-264.16 1354.63,-268.98 1355.57,-262.04"/>
</g>
<!-- Node39 -->
<g id="node39" class="node">
<title>Node39</title>
<g id="a_node39"><a xlink:href="vae__logger_8hpp.html" target="_top" xlink:title=" ">
<polygon fill="none" stroke="black" points="1535,-319 1535,-338 1631,-338 1631,-319 1535,-319"/>
<text text-anchor="middle" x="1583" y="-326" font-family="Helvetica,sans-Serif" font-size="10.00">./vae_logger.hpp</text>
</a>
</g>
</g>
<!-- Node38&#45;&gt;Node39 -->
<g id="edge60" class="edge">
<title>Node38&#45;&gt;Node39</title>
<path fill="none" stroke="midnightblue" d="M1466.04,-391.5C1488.91,-379.37 1531.09,-357.02 1558.05,-342.72"/>
<polygon fill="midnightblue" stroke="midnightblue" points="1559.7,-345.81 1566.9,-338.03 1556.43,-339.63 1559.7,-345.81"/>
</g>
<!-- Node39&#45;&gt;Node17 -->
<g id="edge62" class="edge">
<title>Node39&#45;&gt;Node17</title>
<path fill="none" stroke="midnightblue" d="M1586.08,-318.73C1592.97,-298.35 1609,-246.07 1609,-201 1609,-201 1609,-201 1609,-143 1609,-55.34 1480.92,-24.89 1417.18,-15.17"/>
<polygon fill="midnightblue" stroke="midnightblue" points="1417.56,-11.69 1407.16,-13.73 1416.56,-18.62 1417.56,-11.69"/>
</g>
<!-- Node40 -->
<g id="node40" class="node">
<title>Node40</title>
<g id="a_node40"><a xlink:title=" ">
<polygon fill="none" stroke="#bfbfbf" points="1531,-252 1531,-271 1581,-271 1581,-252 1531,-252"/>
<text text-anchor="middle" x="1556" y="-259" font-family="Helvetica,sans-Serif" font-size="10.00">stdio.h</text>
</a>
</g>
</g>
<!-- Node39&#45;&gt;Node40 -->
<g id="edge61" class="edge">
<title>Node39&#45;&gt;Node40</title>
<path fill="none" stroke="midnightblue" d="M1579.36,-318.73C1575.31,-308.99 1568.66,-292.98 1563.49,-280.53"/>
<polygon fill="midnightblue" stroke="midnightblue" points="1566.65,-279.02 1559.58,-271.13 1560.19,-281.7 1566.65,-279.02"/>
</g>
</g>
</svg>
        <g id="navigator" transform="translate(0 0)" fill="#404254">
                <rect fill="#f2f5e9" fill-opacity="0.5" stroke="#606060" stroke-width=".5" x="0" y="0" width="60" height="60"/>
                <use id="zoomplus" xlink:href="#zoomPlus" x="17" y="9" onmousedown="handleZoom(evt,'in')"/>
                <use id="zoomminus" xlink:href="#zoomMin" x="42" y="9" onmousedown="handleZoom(evt,'out')"/>
                <use id="reset" xlink:href="#resetDef" x="30" y="36" onmousedown="handleReset()"/>
                <g id="arrowUp" xlink:href="#dirArrow" transform="translate(30 24)" onmousedown="handlePan(0,-1)">
                  <use xlink:href="#rim" fill="#404040">
                        <set attributeName="fill" to="#808080" begin="arrowUp.mouseover" end="arrowUp.mouseout"/>
                  </use>
                  <path fill="none" stroke="white" stroke-width="1.5" d="M0,-3.0v7 M-2.5,-0.5L0,-3.0L2.5,-0.5"/>
                </g>
                <g id="arrowRight" xlink:href="#dirArrow" transform="rotate(90) translate(36 -43)" onmousedown="handlePan(1,0)">
                  <use xlink:href="#rim" fill="#404040">
                        <set attributeName="fill" to="#808080" begin="arrowRight.mouseover" end="arrowRight.mouseout"/>
                  </use>
                  <path fill="none" stroke="white" stroke-width="1.5" d="M0,-3.0v7 M-2.5,-0.5L0,-3.0L2.5,-0.5"/>
                </g>
                <g id="arrowDown" xlink:href="#dirArrow" transform="rotate(180) translate(-30 -48)" onmousedown="handlePan(0,1)">
                  <use xlink:href="#rim" fill="#404040">
                        <set attributeName="fill" to="#808080" begin="arrowDown.mouseover" end="arrowDown.mouseout"/>
                  </use>
                  <path fill="none" stroke="white" stroke-width="1.5" d="M0,-3.0v7 M-2.5,-0.5L0,-3.0L2.5,-0.5"/>
                </g>
                <g id="arrowLeft" xlink:href="#dirArrow" transform="rotate(270) translate(-36 17)" onmousedown="handlePan(-1,0)">
                  <use xlink:href="#rim" fill="#404040">
                        <set attributeName="fill" to="#808080" begin="arrowLeft.mouseover" end="arrowLeft.mouseout"/>
                  </use>
                  <path fill="none" stroke="white" stroke-width="1.5" d="M0,-3.0v7 M-2.5,-0.5L0,-3.0L2.5,-0.5"/>
                </g>
        </g>
        <svg viewBox="0 0 15 15" width="100%" height="30px" preserveAspectRatio="xMaxYMin meet">
         <g id="arrow_out" transform="scale(0.3 0.3)">
          <a xlink:href="vae__spcap_8hpp__incl_org.svg" target="_base">
           <rect id="button" ry="5" rx="5" y="6" x="6" height="38" width="38"
                fill="#f2f5e9" fill-opacity="0.5" stroke="#606060" stroke-width="1.0"/>
           <path id="arrow"
             d="M 11.500037,31.436501 C 11.940474,20.09759 22.043105,11.32322 32.158766,21.979434 L 37.068811,17.246167 C 37.068811,17.246167 37.088388,32 37.088388,32 L 22.160133,31.978069 C 22.160133,31.978069 26.997745,27.140456 26.997745,27.140456 C 18.528582,18.264221 13.291696,25.230495 11.500037,31.436501 z"
             style="fill:#404040;"/>
          </a>
         </g>
        </svg>
</svg>
