<?xml version="1.0" encoding="UTF-8" standalone="no"?>
<!DOCTYPE svg PUBLIC "-//W3C//DTD SVG 1.1//EN"
 "http://www.w3.org/Graphics/SVG/1.1/DTD/svg11.dtd">
<!-- Generated by graphviz version 2.50.0 (0)
 -->
<!-- Title: vae_hrtf_loader.hpp Pages: 1 -->
<!--zoomable 609 -->
<svg id="main" version="1.1" xmlns="http://www.w3.org/2000/svg" xmlns:xlink="http://www.w3.org/1999/xlink" xml:space="preserve" onload="init(evt)">
<style type="text/css"><![CDATA[
.edge:hover path { stroke: red; }
.edge:hover polygon { stroke: red; fill: red; }
]]></style>
<script type="text/javascript"><![CDATA[
var edges = document.getElementsByTagName('g');
if (edges && edges.length) {
  for (var i=0;i<edges.length;i++) {
    if (edges[i].id.substr(0,4)=='edge') {
      edges[i].setAttribute('class','edge');
    }
  }
}
]]></script>
        <defs>
                <circle id="rim" cx="0" cy="0" r="7"/>
                <circle id="rim2" cx="0" cy="0" r="3.5"/>
                <g id="zoomPlus">
                        <use xlink:href="#rim" fill="#404040">
                                <set attributeName="fill" to="#808080" begin="zoomplus.mouseover" end="zoomplus.mouseout"/>
                        </use>
                        <path d="M-4,0h8M0,-4v8" fill="none" stroke="white" stroke-width="1.5" pointer-events="none"/>
                </g>
                <g id="zoomMin">
                        <use xlink:href="#rim" fill="#404040">
                                <set attributeName="fill" to="#808080" begin="zoomminus.mouseover" end="zoomminus.mouseout"/>
                        </use>
                        <path d="M-4,0h8" fill="none" stroke="white" stroke-width="1.5" pointer-events="none"/>
                </g>
                <g id="dirArrow">
                        <path fill="none" stroke="white" stroke-width="1.5" d="M0,-3.0v7 M-2.5,-0.5L0,-3.0L2.5,-0.5"/>
                </g>
               <g id="resetDef">
                       <use xlink:href="#rim2" fill="#404040">
                               <set attributeName="fill" to="#808080" begin="reset.mouseover" end="reset.mouseout"/>
                       </use>
               </g>
        </defs>

<script type="text/javascript">
var viewWidth = 1782;
var viewHeight = 609;
var sectionId = 'dynsection-0';
</script>
<script xlink:href="svgpan.js"/>
<svg id="graph" class="graph">
<g id="viewport">
<title>vae_hrtf_loader.hpp</title>
<!-- Node1 -->
<g id="node1" class="node">
<title>Node1</title>
<g id="a_node1"><a xlink:title=" ">
<polygon fill="#bfbfbf" stroke="black" points="1184,-581.5 1184,-600.5 1297,-600.5 1297,-581.5 1184,-581.5"/>
<text text-anchor="middle" x="1240.5" y="-588.5" font-family="Helvetica,sans-Serif" font-size="10.00">vae_hrtf_loader.hpp</text>
</a>
</g>
</g>
<!-- Node2 -->
<g id="node2" class="node">
<title>Node2</title>
<g id="a_node2"><a xlink:href="vae__types_8hpp.html" target="_top" xlink:title="Internal types used across VAE.">
<polygon fill="none" stroke="black" points="878,-458.5 878,-477.5 975,-477.5 975,-458.5 878,-458.5"/>
<text text-anchor="middle" x="926.5" y="-465.5" font-family="Helvetica,sans-Serif" font-size="10.00">../vae_types.hpp</text>
</a>
</g>
</g>
<!-- Node1&#45;&gt;Node2 -->
<g id="edge1" class="edge">
<title>Node1&#45;&gt;Node2</title>
<path fill="none" stroke="midnightblue" d="M1183.96,-588.95C1133.2,-585.86 1058.04,-575.84 1000.5,-545 973.96,-530.78 951.14,-503.72 938.11,-486.03"/>
<polygon fill="midnightblue" stroke="midnightblue" points="940.87,-483.86 932.22,-477.74 935.16,-487.92 940.87,-483.86"/>
</g>
<!-- Node5 -->
<g id="node5" class="node">
<title>Node5</title>
<g id="a_node5"><a xlink:href="vae__config_8hpp.html" target="_top" xlink:title=" ">
<polygon fill="none" stroke="black" points="1135,-391.5 1135,-410.5 1232,-410.5 1232,-391.5 1135,-391.5"/>
<text text-anchor="middle" x="1183.5" y="-398.5" font-family="Helvetica,sans-Serif" font-size="10.00">./vae_config.hpp</text>
</a>
</g>
</g>
<!-- Node1&#45;&gt;Node5 -->
<g id="edge64" class="edge">
<title>Node1&#45;&gt;Node5</title>
<path fill="none" stroke="midnightblue" d="M1237.9,-581.43C1229.22,-552.81 1201.09,-460.03 1189.05,-420.31"/>
<polygon fill="midnightblue" stroke="midnightblue" points="1192.36,-419.17 1186.11,-410.62 1185.66,-421.2 1192.36,-419.17"/>
</g>
<!-- Node38 -->
<g id="node38" class="node">
<title>Node38</title>
<g id="a_node38"><a xlink:href="vae__util_8hpp.html" target="_top" xlink:title=" ">
<polygon fill="none" stroke="black" points="992.5,-391.5 992.5,-410.5 1078.5,-410.5 1078.5,-391.5 992.5,-391.5"/>
<text text-anchor="middle" x="1035.5" y="-398.5" font-family="Helvetica,sans-Serif" font-size="10.00">../vae_util.hpp</text>
</a>
</g>
</g>
<!-- Node1&#45;&gt;Node38 -->
<g id="edge56" class="edge">
<title>Node1&#45;&gt;Node38</title>
<path fill="none" stroke="midnightblue" d="M1231.16,-581.43C1199.21,-552.13 1093.98,-455.63 1052.51,-417.6"/>
<polygon fill="midnightblue" stroke="midnightblue" points="1054.63,-414.8 1044.9,-410.62 1049.9,-419.96 1054.63,-414.8"/>
</g>
<!-- Node41 -->
<g id="node41" class="node">
<title>Node41</title>
<g id="a_node41"><a xlink:href="vae__hrtf_8hpp.html" target="_top" xlink:title=" ">
<polygon fill="none" stroke="black" points="1009.5,-520 1009.5,-539 1117.5,-539 1117.5,-520 1009.5,-520"/>
<text text-anchor="middle" x="1063.5" y="-527" font-family="Helvetica,sans-Serif" font-size="10.00">../pod/vae_hrtf.hpp</text>
</a>
</g>
</g>
<!-- Node1&#45;&gt;Node41 -->
<g id="edge65" class="edge">
<title>Node1&#45;&gt;Node41</title>
<path fill="none" stroke="midnightblue" d="M1215.14,-581.48C1184.52,-571.18 1132.84,-553.81 1098.45,-542.25"/>
<polygon fill="midnightblue" stroke="midnightblue" points="1099.41,-538.88 1088.81,-539.01 1097.18,-545.51 1099.41,-538.88"/>
</g>
<!-- Node42 -->
<g id="node42" class="node">
<title>Node42</title>
<g id="a_node42"><a xlink:href="vae__fs_8hpp.html" target="_top" xlink:title=" ">
<polygon fill="none" stroke="black" points="1253,-319 1253,-338 1386,-338 1386,-319 1253,-319"/>
<text text-anchor="middle" x="1319.5" y="-326" font-family="Helvetica,sans-Serif" font-size="10.00">../../wrapped/vae_fs.hpp</text>
</a>
</g>
</g>
<!-- Node1&#45;&gt;Node42 -->
<g id="edge68" class="edge">
<title>Node1&#45;&gt;Node42</title>
<path fill="none" stroke="midnightblue" d="M1243.13,-581.33C1254.33,-544.4 1298.21,-399.72 1313.89,-348"/>
<polygon fill="midnightblue" stroke="midnightblue" points="1317.31,-348.79 1316.86,-338.2 1310.61,-346.75 1317.31,-348.79"/>
</g>
<!-- Node43 -->
<g id="node43" class="node">
<title>Node43</title>
<g id="a_node43"><a xlink:title=" ">
<polygon fill="none" stroke="#bfbfbf" points="1287.5,-514.5 1287.5,-544.5 1429.5,-544.5 1429.5,-514.5 1287.5,-514.5"/>
<text text-anchor="start" x="1295.5" y="-532.5" font-family="Helvetica,sans-Serif" font-size="10.00">../../../external/headeronly</text>
<text text-anchor="middle" x="1358.5" y="-521.5" font-family="Helvetica,sans-Serif" font-size="10.00">/json.h</text>
</a>
</g>
</g>
<!-- Node1&#45;&gt;Node43 -->
<g id="edge71" class="edge">
<title>Node1&#45;&gt;Node43</title>
<path fill="none" stroke="midnightblue" d="M1257.41,-581.48C1274.06,-573.08 1300.05,-559.97 1321.51,-549.15"/>
<polygon fill="midnightblue" stroke="midnightblue" points="1323.34,-552.15 1330.69,-544.52 1320.18,-545.9 1323.34,-552.15"/>
</g>
<!-- Node44 -->
<g id="node44" class="node">
<title>Node44</title>
<g id="a_node44"><a xlink:title=" ">
<polygon fill="none" stroke="#bfbfbf" points="1447.5,-514.5 1447.5,-544.5 1589.5,-544.5 1589.5,-514.5 1447.5,-514.5"/>
<text text-anchor="start" x="1455.5" y="-532.5" font-family="Helvetica,sans-Serif" font-size="10.00">../../../external/headeronly</text>
<text text-anchor="middle" x="1518.5" y="-521.5" font-family="Helvetica,sans-Serif" font-size="10.00">/json.c</text>
</a>
</g>
</g>
<!-- Node1&#45;&gt;Node44 -->
<g id="edge72" class="edge">
<title>Node1&#45;&gt;Node44</title>
<path fill="none" stroke="midnightblue" d="M1280.33,-581.48C1322.64,-572.42 1390.54,-557.89 1443.03,-546.65"/>
<polygon fill="midnightblue" stroke="midnightblue" points="1443.93,-550.04 1452.98,-544.52 1442.47,-543.19 1443.93,-550.04"/>
</g>
<!-- Node45 -->
<g id="node45" class="node">
<title>Node45</title>
<g id="a_node45"><a xlink:title=" ">
<polygon fill="none" stroke="#bfbfbf" points="1607.5,-514.5 1607.5,-544.5 1773.5,-544.5 1773.5,-514.5 1607.5,-514.5"/>
<text text-anchor="start" x="1615.5" y="-532.5" font-family="Helvetica,sans-Serif" font-size="10.00">../../../external/glm</text>
<text text-anchor="middle" x="1690.5" y="-521.5" font-family="Helvetica,sans-Serif" font-size="10.00">/glm/gtc/matrix_transform.hpp</text>
</a>
</g>
</g>
<!-- Node1&#45;&gt;Node45 -->
<g id="edge73" class="edge">
<title>Node1&#45;&gt;Node45</title>
<path fill="none" stroke="midnightblue" d="M1297.31,-583.42C1365.9,-575.34 1485.05,-560.92 1597.14,-545.17"/>
<polygon fill="midnightblue" stroke="midnightblue" points="1597.86,-548.6 1607.27,-543.74 1596.88,-541.67 1597.86,-548.6"/>
</g>
<!-- Node3 -->
<g id="node3" class="node">
<title>Node3</title>
<g id="a_node3"><a xlink:href="vae_8hpp.html" target="_top" xlink:title="Contains all public API types for VAE.">
<polygon fill="none" stroke="black" points="1102,-319 1102,-338 1235,-338 1235,-319 1102,-319"/>
<text text-anchor="middle" x="1168.5" y="-326" font-family="Helvetica,sans-Serif" font-size="10.00">../../include/vae/vae.hpp</text>
</a>
</g>
</g>
<!-- Node2&#45;&gt;Node3 -->
<g id="edge2" class="edge">
<title>Node2&#45;&gt;Node3</title>
<path fill="none" stroke="midnightblue" d="M975.26,-460.87C1008.83,-454.92 1053.36,-443.5 1087.5,-422 1095.82,-416.76 1134.13,-371.14 1154.95,-345.98"/>
<polygon fill="midnightblue" stroke="midnightblue" points="1157.84,-347.98 1161.5,-338.04 1152.44,-343.52 1157.84,-347.98"/>
</g>
<!-- Node4 -->
<g id="node4" class="node">
<title>Node4</title>
<g id="a_node4"><a xlink:href="vae__profiler_8hpp.html" target="_top" xlink:title=" ">
<polygon fill="none" stroke="black" points="718,-319 718,-338 867,-338 867,-319 718,-319"/>
<text text-anchor="middle" x="792.5" y="-326" font-family="Helvetica,sans-Serif" font-size="10.00">../wrapped/vae_profiler.hpp</text>
</a>
</g>
</g>
<!-- Node2&#45;&gt;Node4 -->
<g id="edge3" class="edge">
<title>Node2&#45;&gt;Node4</title>
<path fill="none" stroke="midnightblue" d="M926.43,-458.5C925.86,-441.57 922.29,-403.27 902.5,-380 886.37,-361.04 861.61,-348.81 839.67,-341.15"/>
<polygon fill="midnightblue" stroke="midnightblue" points="840.74,-337.81 830.15,-338.04 838.56,-344.47 840.74,-337.81"/>
</g>
<!-- Node2&#45;&gt;Node5 -->
<g id="edge4" class="edge">
<title>Node2&#45;&gt;Node5</title>
<path fill="none" stroke="midnightblue" d="M967.61,-458.46C1007.04,-450.03 1068.15,-436.36 1120.5,-422 1129.68,-419.48 1139.53,-416.49 1148.65,-413.61"/>
<polygon fill="midnightblue" stroke="midnightblue" points="1149.75,-416.93 1158.19,-410.54 1147.6,-410.27 1149.75,-416.93"/>
</g>
<!-- Node6 -->
<g id="node6" class="node">
<title>Node6</title>
<g id="a_node6"><a xlink:title=" ">
<polygon fill="none" stroke="#bfbfbf" points="697,-386 697,-416 794,-416 794,-386 697,-386"/>
<text text-anchor="start" x="705" y="-404" font-family="Helvetica,sans-Serif" font-size="10.00">../../external/glm</text>
<text text-anchor="middle" x="745.5" y="-393" font-family="Helvetica,sans-Serif" font-size="10.00">/glm/glm.hpp</text>
</a>
</g>
</g>
<!-- Node2&#45;&gt;Node6 -->
<g id="edge6" class="edge">
<title>Node2&#45;&gt;Node6</title>
<path fill="none" stroke="midnightblue" d="M902.46,-458.37C874.95,-448.49 829.18,-432.05 794.14,-419.47"/>
<polygon fill="midnightblue" stroke="midnightblue" points="795.16,-416.11 784.56,-416.03 792.79,-422.7 795.16,-416.11"/>
</g>
<!-- Node7 -->
<g id="node7" class="node">
<title>Node7</title>
<g id="a_node7"><a xlink:href="_t_audio_buffer_8hpp.html" target="_top" xlink:title=" ">
<polygon fill="none" stroke="black" points="521,-313.5 521,-343.5 700,-343.5 700,-313.5 521,-313.5"/>
<text text-anchor="start" x="529" y="-331.5" font-family="Helvetica,sans-Serif" font-size="10.00">../../external/tklb</text>
<text text-anchor="middle" x="610.5" y="-320.5" font-family="Helvetica,sans-Serif" font-size="10.00">/src/types/audio/TAudioBuffer.hpp</text>
</a>
</g>
</g>
<!-- Node2&#45;&gt;Node7 -->
<g id="edge7" class="edge">
<title>Node2&#45;&gt;Node7</title>
<path fill="none" stroke="midnightblue" d="M921.98,-458.38C911.38,-438.46 884.64,-390.17 869.5,-380 855.98,-370.92 777.57,-356.34 710.52,-345.18"/>
<polygon fill="midnightblue" stroke="midnightblue" points="710.74,-341.67 700.3,-343.49 709.6,-348.57 710.74,-341.67"/>
</g>
<!-- Node32 -->
<g id="node32" class="node">
<title>Node32</title>
<g id="a_node32"><a xlink:href="_t_audio_ring_buffer_8hpp.html" target="_top" xlink:title=" ">
<polygon fill="none" stroke="black" points="528,-380.5 528,-421.5 679,-421.5 679,-380.5 528,-380.5"/>
<text text-anchor="start" x="536" y="-409.5" font-family="Helvetica,sans-Serif" font-size="10.00">../../external/tklb</text>
<text text-anchor="start" x="536" y="-398.5" font-family="Helvetica,sans-Serif" font-size="10.00">/src/types/audio/TAudioRing</text>
<text text-anchor="middle" x="603.5" y="-387.5" font-family="Helvetica,sans-Serif" font-size="10.00">Buffer.hpp</text>
</a>
</g>
</g>
<!-- Node2&#45;&gt;Node32 -->
<g id="edge44" class="edge">
<title>Node2&#45;&gt;Node32</title>
<path fill="none" stroke="midnightblue" d="M877.84,-458.54C831.63,-450.35 759.96,-437.23 689.02,-422.28"/>
<polygon fill="midnightblue" stroke="midnightblue" points="689.53,-418.81 679.02,-420.16 688.07,-425.66 689.53,-418.81"/>
</g>
<!-- Node33 -->
<g id="node33" class="node">
<title>Node33</title>
<g id="a_node33"><a xlink:href="_t_string_8hpp.html" target="_top" xlink:title=" ">
<polygon fill="none" stroke="black" points="885.5,-313.5 885.5,-343.5 1007.5,-343.5 1007.5,-313.5 885.5,-313.5"/>
<text text-anchor="start" x="893.5" y="-331.5" font-family="Helvetica,sans-Serif" font-size="10.00">../../external/tklb</text>
<text text-anchor="middle" x="946.5" y="-320.5" font-family="Helvetica,sans-Serif" font-size="10.00">/src/types/TString.hpp</text>
</a>
</g>
</g>
<!-- Node2&#45;&gt;Node33 -->
<g id="edge46" class="edge">
<title>Node2&#45;&gt;Node33</title>
<path fill="none" stroke="midnightblue" d="M929.92,-458.19C933.24,-449.23 938.12,-434.87 940.5,-422 944.74,-399.12 946.1,-372.57 946.49,-353.8"/>
<polygon fill="midnightblue" stroke="midnightblue" points="949.99,-353.78 946.62,-343.73 942.99,-353.69 949.99,-353.78"/>
</g>
<!-- Node34 -->
<g id="node34" class="node">
<title>Node34</title>
<g id="a_node34"><a xlink:href="vae__allocators_8hpp.html" target="_top" xlink:title=" ">
<polygon fill="none" stroke="black" points="317,-391.5 317,-410.5 432,-410.5 432,-391.5 317,-391.5"/>
<text text-anchor="middle" x="374.5" y="-398.5" font-family="Helvetica,sans-Serif" font-size="10.00">./vae_allocators.hpp</text>
</a>
</g>
</g>
<!-- Node2&#45;&gt;Node34 -->
<g id="edge49" class="edge">
<title>Node2&#45;&gt;Node34</title>
<path fill="none" stroke="midnightblue" d="M877.77,-462.07C801.21,-454.23 648.09,-438.14 518.5,-422 493.63,-418.9 466.38,-415.2 442.34,-411.82"/>
<polygon fill="midnightblue" stroke="midnightblue" points="442.65,-408.33 432.26,-410.4 441.67,-415.26 442.65,-408.33"/>
</g>
<!-- Node37 -->
<g id="node37" class="node">
<title>Node37</title>
<g id="a_node37"><a xlink:title=" ">
<polygon fill="none" stroke="#bfbfbf" points="812.5,-391.5 812.5,-410.5 860.5,-410.5 860.5,-391.5 812.5,-391.5"/>
<text text-anchor="middle" x="836.5" y="-398.5" font-family="Helvetica,sans-Serif" font-size="10.00">mutex</text>
</a>
</g>
</g>
<!-- Node2&#45;&gt;Node37 -->
<g id="edge55" class="edge">
<title>Node2&#45;&gt;Node37</title>
<path fill="none" stroke="midnightblue" d="M914.36,-458.23C899.65,-447.61 874.64,-429.55 856.94,-416.76"/>
<polygon fill="midnightblue" stroke="midnightblue" points="858.6,-413.64 848.45,-410.63 854.5,-419.32 858.6,-413.64"/>
</g>
<!-- Node5&#45;&gt;Node3 -->
<g id="edge5" class="edge">
<title>Node5&#45;&gt;Node3</title>
<path fill="none" stroke="midnightblue" d="M1181.66,-391.36C1179.39,-380.68 1175.46,-362.22 1172.49,-348.23"/>
<polygon fill="midnightblue" stroke="midnightblue" points="1175.86,-347.27 1170.35,-338.22 1169.01,-348.72 1175.86,-347.27"/>
</g>
<!-- Node8 -->
<g id="node8" class="node">
<title>Node8</title>
<g id="a_node8"><a xlink:title=" ">
<polygon fill="none" stroke="#bfbfbf" points="536.5,-190.5 536.5,-209.5 600.5,-209.5 600.5,-190.5 536.5,-190.5"/>
<text text-anchor="middle" x="568.5" y="-197.5" font-family="Helvetica,sans-Serif" font-size="10.00">algorithm</text>
</a>
</g>
</g>
<!-- Node7&#45;&gt;Node8 -->
<g id="edge8" class="edge">
<title>Node7&#45;&gt;Node8</title>
<path fill="none" stroke="midnightblue" d="M625.26,-313.23C640.58,-296.62 660.62,-268.57 647.5,-246 638.76,-230.97 622.92,-220.54 607.71,-213.54"/>
<polygon fill="midnightblue" stroke="midnightblue" points="608.96,-210.27 598.38,-209.61 606.24,-216.72 608.96,-210.27"/>
</g>
<!-- Node9 -->
<g id="node9" class="node">
<title>Node9</title>
<g id="a_node9"><a xlink:title=" ">
<polygon fill="none" stroke="#bfbfbf" points="486.5,-134.5 486.5,-153.5 530.5,-153.5 530.5,-134.5 486.5,-134.5"/>
<text text-anchor="middle" x="508.5" y="-141.5" font-family="Helvetica,sans-Serif" font-size="10.00">limits</text>
</a>
</g>
</g>
<!-- Node7&#45;&gt;Node9 -->
<g id="edge9" class="edge">
<title>Node7&#45;&gt;Node9</title>
<path fill="none" stroke="midnightblue" d="M615.88,-313.48C621.58,-296.08 628.04,-266.26 614.5,-246 591.25,-211.21 555.45,-241.14 527.5,-210 516.1,-197.3 511.52,-178.1 509.69,-163.85"/>
<polygon fill="midnightblue" stroke="midnightblue" points="513.16,-163.34 508.73,-153.71 506.19,-164 513.16,-163.34"/>
</g>
<!-- Node10 -->
<g id="node10" class="node">
<title>Node10</title>
<g id="a_node10"><a xlink:title=" ">
<polygon fill="none" stroke="#bfbfbf" points="376,-252 376,-271 445,-271 445,-252 376,-252"/>
<text text-anchor="middle" x="410.5" y="-259" font-family="Helvetica,sans-Serif" font-size="10.00">type_traits</text>
</a>
</g>
</g>
<!-- Node7&#45;&gt;Node10 -->
<g id="edge10" class="edge">
<title>Node7&#45;&gt;Node10</title>
<path fill="none" stroke="midnightblue" d="M566.77,-313.41C535.49,-303.32 492.38,-289.37 454.5,-277 451.78,-276.11 448.96,-275.19 446.13,-274.26"/>
<polygon fill="midnightblue" stroke="midnightblue" points="447.14,-270.91 436.55,-271.11 444.96,-277.56 447.14,-270.91"/>
</g>
<!-- Node11 -->
<g id="node11" class="node">
<title>Node11</title>
<g id="a_node11"><a xlink:href="_t_memory_8hpp.html" target="_top" xlink:title=" ">
<polygon fill="none" stroke="black" points="175.5,-252 175.5,-271 319.5,-271 319.5,-252 175.5,-252"/>
<text text-anchor="middle" x="247.5" y="-259" font-family="Helvetica,sans-Serif" font-size="10.00">../../memory/TMemory.hpp</text>
</a>
</g>
</g>
<!-- Node7&#45;&gt;Node11 -->
<g id="edge11" class="edge">
<title>Node7&#45;&gt;Node11</title>
<path fill="none" stroke="midnightblue" d="M532.18,-313.48C463.87,-301.24 366.36,-283.78 305.03,-272.8"/>
<polygon fill="midnightblue" stroke="midnightblue" points="305.59,-269.35 295.13,-271.03 304.36,-276.24 305.59,-269.35"/>
</g>
<!-- Node19 -->
<g id="node19" class="node">
<title>Node19</title>
<g id="a_node19"><a xlink:href="_t_assert_8h.html" target="_top" xlink:title=" ">
<polygon fill="none" stroke="black" points="710,-67.5 710,-86.5 799,-86.5 799,-67.5 710,-67.5"/>
<text text-anchor="middle" x="754.5" y="-74.5" font-family="Helvetica,sans-Serif" font-size="10.00">../util/TAssert.h</text>
</a>
</g>
</g>
<!-- Node7&#45;&gt;Node19 -->
<g id="edge43" class="edge">
<title>Node7&#45;&gt;Node19</title>
<path fill="none" stroke="midnightblue" d="M683.59,-313.44C738.58,-302.22 806.05,-286.79 815.5,-277 842.7,-248.82 840.89,-227.47 829.5,-190 817.84,-151.63 788.18,-114.43 769.84,-94.04"/>
<polygon fill="midnightblue" stroke="midnightblue" points="772.34,-91.59 762.99,-86.61 767.19,-96.33 772.34,-91.59"/>
</g>
<!-- Node26 -->
<g id="node26" class="node">
<title>Node26</title>
<g id="a_node26"><a xlink:href="_t_math_8hpp.html" target="_top" xlink:title=" ">
<polygon fill="none" stroke="black" points="865.5,-252 865.5,-271 969.5,-271 969.5,-252 865.5,-252"/>
<text text-anchor="middle" x="917.5" y="-259" font-family="Helvetica,sans-Serif" font-size="10.00">../../util/TMath.hpp</text>
</a>
</g>
</g>
<!-- Node7&#45;&gt;Node26 -->
<g id="edge32" class="edge">
<title>Node7&#45;&gt;Node26</title>
<path fill="none" stroke="midnightblue" d="M678.32,-313.47C726.63,-303.43 793.09,-289.54 851.5,-277 857.16,-275.79 863.09,-274.5 868.97,-273.22"/>
<polygon fill="midnightblue" stroke="midnightblue" points="869.75,-276.63 878.78,-271.07 868.26,-269.79 869.75,-276.63"/>
</g>
<!-- Node27 -->
<g id="node27" class="node">
<title>Node27</title>
<g id="a_node27"><a xlink:title=" ">
<polygon fill="none" stroke="#bfbfbf" points="463.5,-246.5 463.5,-276.5 605.5,-276.5 605.5,-246.5 463.5,-246.5"/>
<text text-anchor="start" x="471.5" y="-264.5" font-family="Helvetica,sans-Serif" font-size="10.00">../../../external/xsimd</text>
<text text-anchor="middle" x="534.5" y="-253.5" font-family="Helvetica,sans-Serif" font-size="10.00">/include/xsimd/xsimd.hpp</text>
</a>
</g>
</g>
<!-- Node7&#45;&gt;Node27 -->
<g id="edge33" class="edge">
<title>Node7&#45;&gt;Node27</title>
<path fill="none" stroke="midnightblue" d="M594.01,-313.4C583.65,-304.54 570.12,-292.96 558.57,-283.09"/>
<polygon fill="midnightblue" stroke="midnightblue" points="560.83,-280.42 550.96,-276.58 556.28,-285.74 560.83,-280.42"/>
</g>
<!-- Node28 -->
<g id="node28" class="node">
<title>Node28</title>
<g id="a_node28"><a xlink:href="_t_heap_buffer_8hpp.html" target="_top" xlink:title=" ">
<polygon fill="none" stroke="black" points="700,-252 700,-271 807,-271 807,-252 700,-252"/>
<text text-anchor="middle" x="753.5" y="-259" font-family="Helvetica,sans-Serif" font-size="10.00">../THeapBuffer.hpp</text>
</a>
</g>
</g>
<!-- Node7&#45;&gt;Node28 -->
<g id="edge34" class="edge">
<title>Node7&#45;&gt;Node28</title>
<path fill="none" stroke="midnightblue" d="M641.53,-313.4C666.51,-302.04 701.32,-286.22 725.46,-275.24"/>
<polygon fill="midnightblue" stroke="midnightblue" points="727.13,-278.33 734.78,-271.01 724.23,-271.96 727.13,-278.33"/>
</g>
<!-- Node12 -->
<g id="node12" class="node">
<title>Node12</title>
<g id="a_node12"><a xlink:href="_t_memory_pool_8hpp.html" target="_top" xlink:title=" ">
<polygon fill="none" stroke="black" points="275.5,-134.5 275.5,-153.5 385.5,-153.5 385.5,-134.5 275.5,-134.5"/>
<text text-anchor="middle" x="330.5" y="-141.5" font-family="Helvetica,sans-Serif" font-size="10.00">./TMemoryPool.hpp</text>
</a>
</g>
</g>
<!-- Node11&#45;&gt;Node12 -->
<g id="edge12" class="edge">
<title>Node11&#45;&gt;Node12</title>
<path fill="none" stroke="midnightblue" d="M250.52,-251.67C255.55,-237.71 266.6,-210.08 281.5,-190 289.81,-178.81 301.17,-168.17 310.86,-160.05"/>
<polygon fill="midnightblue" stroke="midnightblue" points="313.25,-162.62 318.83,-153.61 308.85,-157.18 313.25,-162.62"/>
</g>
<!-- Node24 -->
<g id="node24" class="node">
<title>Node24</title>
<g id="a_node24"><a xlink:href="_t_memory_pool_std_8hpp.html" target="_top" xlink:title=" ">
<polygon fill="none" stroke="black" points="108.5,-190.5 108.5,-209.5 234.5,-209.5 234.5,-190.5 108.5,-190.5"/>
<text text-anchor="middle" x="171.5" y="-197.5" font-family="Helvetica,sans-Serif" font-size="10.00">./TMemoryPoolStd.hpp</text>
</a>
</g>
</g>
<!-- Node11&#45;&gt;Node24 -->
<g id="edge25" class="edge">
<title>Node11&#45;&gt;Node24</title>
<path fill="none" stroke="midnightblue" d="M236.61,-251.98C224.53,-242.52 204.83,-227.1 190.26,-215.69"/>
<polygon fill="midnightblue" stroke="midnightblue" points="192.4,-212.92 182.37,-209.51 188.09,-218.43 192.4,-212.92"/>
</g>
<!-- Node25 -->
<g id="node25" class="node">
<title>Node25</title>
<g id="a_node25"><a xlink:href="_t_memory_pool_stack_8hpp.html" target="_top" xlink:title=" ">
<polygon fill="none" stroke="black" points="291,-190.5 291,-209.5 428,-209.5 428,-190.5 291,-190.5"/>
<text text-anchor="middle" x="359.5" y="-197.5" font-family="Helvetica,sans-Serif" font-size="10.00">./TMemoryPoolStack.hpp</text>
</a>
</g>
</g>
<!-- Node11&#45;&gt;Node25 -->
<g id="edge29" class="edge">
<title>Node11&#45;&gt;Node25</title>
<path fill="none" stroke="midnightblue" d="M263.55,-251.98C282.09,-242.12 312.84,-225.79 334.52,-214.27"/>
<polygon fill="midnightblue" stroke="midnightblue" points="336.29,-217.29 343.48,-209.51 333.01,-211.11 336.29,-217.29"/>
</g>
<!-- Node13 -->
<g id="node13" class="node">
<title>Node13</title>
<g id="a_node13"><a xlink:title=" ">
<polygon fill="none" stroke="#bfbfbf" points="483,-67.5 483,-86.5 528,-86.5 528,-67.5 483,-67.5"/>
<text text-anchor="middle" x="505.5" y="-74.5" font-family="Helvetica,sans-Serif" font-size="10.00">utility</text>
</a>
</g>
</g>
<!-- Node12&#45;&gt;Node13 -->
<g id="edge13" class="edge">
<title>Node12&#45;&gt;Node13</title>
<path fill="none" stroke="midnightblue" d="M366.1,-134.49C395.61,-126.81 438.28,-114.23 473.5,-98 477.27,-96.26 481.14,-94.16 484.83,-91.97"/>
<polygon fill="midnightblue" stroke="midnightblue" points="486.85,-94.84 493.45,-86.55 483.12,-88.91 486.85,-94.84"/>
</g>
<!-- Node14 -->
<g id="node14" class="node">
<title>Node14</title>
<g id="a_node14"><a xlink:title=" ">
<polygon fill="none" stroke="#bfbfbf" points="275.5,-67.5 275.5,-86.5 325.5,-86.5 325.5,-67.5 275.5,-67.5"/>
<text text-anchor="middle" x="300.5" y="-74.5" font-family="Helvetica,sans-Serif" font-size="10.00">cstdint</text>
</a>
</g>
</g>
<!-- Node12&#45;&gt;Node14 -->
<g id="edge14" class="edge">
<title>Node12&#45;&gt;Node14</title>
<path fill="none" stroke="midnightblue" d="M326.45,-134.23C321.96,-124.49 314.57,-108.48 308.82,-96.03"/>
<polygon fill="midnightblue" stroke="midnightblue" points="311.85,-94.24 304.48,-86.63 305.49,-97.17 311.85,-94.24"/>
</g>
<!-- Node15 -->
<g id="node15" class="node">
<title>Node15</title>
<g id="a_node15"><a xlink:title=" ">
<polygon fill="none" stroke="#bfbfbf" points="0,-67.5 0,-86.5 37,-86.5 37,-67.5 0,-67.5"/>
<text text-anchor="middle" x="18.5" y="-74.5" font-family="Helvetica,sans-Serif" font-size="10.00">new</text>
</a>
</g>
</g>
<!-- Node12&#45;&gt;Node15 -->
<g id="edge15" class="edge">
<title>Node12&#45;&gt;Node15</title>
<path fill="none" stroke="midnightblue" d="M275.37,-141.72C216.64,-138.68 121.92,-128.89 46.5,-98 43.08,-96.6 39.68,-94.71 36.48,-92.64"/>
<polygon fill="midnightblue" stroke="midnightblue" points="38.35,-89.67 28.19,-86.64 34.24,-95.34 38.35,-89.67"/>
</g>
<!-- Node16 -->
<g id="node16" class="node">
<title>Node16</title>
<g id="a_node16"><a xlink:href="_t_memory_util_8hpp.html" target="_top" xlink:title=" ">
<polygon fill="none" stroke="black" points="546,-67.5 546,-86.5 653,-86.5 653,-67.5 546,-67.5"/>
<text text-anchor="middle" x="599.5" y="-74.5" font-family="Helvetica,sans-Serif" font-size="10.00">./TMemoryUtil.hpp</text>
</a>
</g>
</g>
<!-- Node12&#45;&gt;Node16 -->
<g id="edge16" class="edge">
<title>Node12&#45;&gt;Node16</title>
<path fill="none" stroke="midnightblue" d="M375.39,-134.44C417.32,-126.15 481.51,-112.7 536.5,-98 545.78,-95.52 555.73,-92.52 564.92,-89.61"/>
<polygon fill="midnightblue" stroke="midnightblue" points="566.07,-92.92 574.52,-86.52 563.93,-86.25 566.07,-92.92"/>
</g>
<!-- Node12&#45;&gt;Node19 -->
<g id="edge19" class="edge">
<title>Node12&#45;&gt;Node19</title>
<path fill="none" stroke="midnightblue" d="M385.77,-136.01C465.74,-125.8 609.8,-107.06 661.5,-98 676.7,-95.34 693.19,-91.95 708.01,-88.73"/>
<polygon fill="midnightblue" stroke="midnightblue" points="708.95,-92.11 717.97,-86.53 707.45,-85.27 708.95,-92.11"/>
</g>
<!-- Node21 -->
<g id="node21" class="node">
<title>Node21</title>
<g id="a_node21"><a xlink:href="_t_spin_lock_8hpp.html" target="_top" xlink:title=" ">
<polygon fill="none" stroke="black" points="55.5,-67.5 55.5,-86.5 181.5,-86.5 181.5,-67.5 55.5,-67.5"/>
<text text-anchor="middle" x="118.5" y="-74.5" font-family="Helvetica,sans-Serif" font-size="10.00">../types/TSpinLock.hpp</text>
</a>
</g>
</g>
<!-- Node12&#45;&gt;Node21 -->
<g id="edge21" class="edge">
<title>Node12&#45;&gt;Node21</title>
<path fill="none" stroke="midnightblue" d="M302.35,-134.37C264.71,-122.83 197.87,-102.34 155.99,-89.5"/>
<polygon fill="midnightblue" stroke="midnightblue" points="157.02,-86.15 146.43,-86.56 154.97,-92.84 157.02,-86.15"/>
</g>
<!-- Node22 -->
<g id="node22" class="node">
<title>Node22</title>
<g id="a_node22"><a xlink:href="_t_lock_guard_8hpp.html" target="_top" xlink:title=" ">
<polygon fill="none" stroke="black" points="114,-0.5 114,-19.5 215,-19.5 215,-0.5 114,-0.5"/>
<text text-anchor="middle" x="164.5" y="-7.5" font-family="Helvetica,sans-Serif" font-size="10.00">./TLockGuard.hpp</text>
</a>
</g>
</g>
<!-- Node12&#45;&gt;Node22 -->
<g id="edge23" class="edge">
<title>Node12&#45;&gt;Node22</title>
<path fill="none" stroke="midnightblue" d="M317.5,-134.38C304.38,-125.57 283.67,-111.32 266.5,-98 235.76,-74.17 201.68,-44.37 181.73,-26.56"/>
<polygon fill="midnightblue" stroke="midnightblue" points="183.87,-23.78 174.09,-19.71 179.2,-28.99 183.87,-23.78"/>
</g>
<!-- Node23 -->
<g id="node23" class="node">
<title>Node23</title>
<g id="a_node23"><a xlink:title=" ">
<polygon fill="none" stroke="#bfbfbf" points="344,-56.5 344,-97.5 465,-97.5 465,-56.5 344,-56.5"/>
<text text-anchor="start" x="352" y="-85.5" font-family="Helvetica,sans-Serif" font-size="10.00">../../external/xsimd</text>
<text text-anchor="start" x="352" y="-74.5" font-family="Helvetica,sans-Serif" font-size="10.00">/include/xsimd/config</text>
<text text-anchor="middle" x="404.5" y="-63.5" font-family="Helvetica,sans-Serif" font-size="10.00">/xsimd_arch.hpp</text>
</a>
</g>
</g>
<!-- Node12&#45;&gt;Node23 -->
<g id="edge24" class="edge">
<title>Node12&#45;&gt;Node23</title>
<path fill="none" stroke="midnightblue" d="M340.48,-134.23C349.22,-126.56 362.38,-115 374.5,-104.36"/>
<polygon fill="midnightblue" stroke="midnightblue" points="377.05,-106.77 382.25,-97.54 372.43,-101.51 377.05,-106.77"/>
</g>
<!-- Node17 -->
<g id="node17" class="node">
<title>Node17</title>
<g id="a_node17"><a xlink:title=" ">
<polygon fill="none" stroke="#bfbfbf" points="972.5,-0.5 972.5,-19.5 1022.5,-19.5 1022.5,-0.5 972.5,-0.5"/>
<text text-anchor="middle" x="997.5" y="-7.5" font-family="Helvetica,sans-Serif" font-size="10.00">cstring</text>
</a>
</g>
</g>
<!-- Node16&#45;&gt;Node17 -->
<g id="edge17" class="edge">
<title>Node16&#45;&gt;Node17</title>
<path fill="none" stroke="midnightblue" d="M640.7,-67.4C658.98,-63.7 680.78,-59.44 700.5,-56 794.85,-39.52 906.69,-23.52 962.36,-15.8"/>
<polygon fill="midnightblue" stroke="midnightblue" points="962.98,-19.25 972.41,-14.41 962.02,-12.31 962.98,-19.25"/>
</g>
<!-- Node18 -->
<g id="node18" class="node">
<title>Node18</title>
<g id="a_node18"><a xlink:title=" ">
<polygon fill="none" stroke="#bfbfbf" points="573,-0.5 573,-19.5 626,-19.5 626,-0.5 573,-0.5"/>
<text text-anchor="middle" x="599.5" y="-7.5" font-family="Helvetica,sans-Serif" font-size="10.00">stdlib.h</text>
</a>
</g>
</g>
<!-- Node16&#45;&gt;Node18 -->
<g id="edge18" class="edge">
<title>Node16&#45;&gt;Node18</title>
<path fill="none" stroke="midnightblue" d="M599.5,-67.23C599.5,-57.68 599.5,-42.12 599.5,-29.78"/>
<polygon fill="midnightblue" stroke="midnightblue" points="603,-29.63 599.5,-19.63 596,-29.63 603,-29.63"/>
</g>
<!-- Node20 -->
<g id="node20" class="node">
<title>Node20</title>
<g id="a_node20"><a xlink:title=" ">
<polygon fill="none" stroke="#bfbfbf" points="728.5,-0.5 728.5,-19.5 780.5,-19.5 780.5,-0.5 728.5,-0.5"/>
<text text-anchor="middle" x="754.5" y="-7.5" font-family="Helvetica,sans-Serif" font-size="10.00">cassert</text>
</a>
</g>
</g>
<!-- Node19&#45;&gt;Node20 -->
<g id="edge20" class="edge">
<title>Node19&#45;&gt;Node20</title>
<path fill="none" stroke="midnightblue" d="M754.5,-67.23C754.5,-57.68 754.5,-42.12 754.5,-29.78"/>
<polygon fill="midnightblue" stroke="midnightblue" points="758,-29.63 754.5,-19.63 751,-29.63 758,-29.63"/>
</g>
<!-- Node21&#45;&gt;Node22 -->
<g id="edge22" class="edge">
<title>Node21&#45;&gt;Node22</title>
<path fill="none" stroke="midnightblue" d="M124.7,-67.23C131.81,-57.2 143.61,-40.51 152.52,-27.92"/>
<polygon fill="midnightblue" stroke="midnightblue" points="155.47,-29.81 158.39,-19.63 149.76,-25.77 155.47,-29.81"/>
</g>
<!-- Node24&#45;&gt;Node12 -->
<g id="edge27" class="edge">
<title>Node24&#45;&gt;Node12</title>
<path fill="none" stroke="midnightblue" d="M196.69,-190.44C223.44,-181.36 265.9,-166.94 295.81,-156.78"/>
<polygon fill="midnightblue" stroke="midnightblue" points="297.08,-160.05 305.42,-153.52 294.83,-153.42 297.08,-160.05"/>
</g>
<!-- Node24&#45;&gt;Node18 -->
<g id="edge26" class="edge">
<title>Node24&#45;&gt;Node18</title>
<path fill="none" stroke="midnightblue" d="M174.33,-190.39C183.22,-164.88 213.2,-89.37 266.5,-56 315.32,-25.44 486.95,-15.25 562.89,-12.19"/>
<polygon fill="midnightblue" stroke="midnightblue" points="563.09,-15.68 572.94,-11.8 562.82,-8.69 563.09,-15.68"/>
</g>
<!-- Node24&#45;&gt;Node19 -->
<g id="edge28" class="edge">
<title>Node24&#45;&gt;Node19</title>
<path fill="none" stroke="midnightblue" d="M234.86,-191.32C280.25,-184.6 342.32,-172.89 394.5,-154 412.08,-147.64 413.79,-139.98 431.5,-134 529.54,-100.92 559.77,-116.88 661.5,-98 676.41,-95.23 692.58,-91.88 707.2,-88.71"/>
<polygon fill="midnightblue" stroke="midnightblue" points="708.02,-92.12 717.04,-86.56 706.52,-85.28 708.02,-92.12"/>
</g>
<!-- Node25&#45;&gt;Node12 -->
<g id="edge30" class="edge">
<title>Node25&#45;&gt;Node12</title>
<path fill="none" stroke="midnightblue" d="M354.71,-190.08C350.74,-182.69 344.97,-171.95 340.07,-162.81"/>
<polygon fill="midnightblue" stroke="midnightblue" points="343.01,-160.91 335.2,-153.75 336.85,-164.22 343.01,-160.91"/>
</g>
<!-- Node25&#45;&gt;Node19 -->
<g id="edge31" class="edge">
<title>Node25&#45;&gt;Node19</title>
<path fill="none" stroke="midnightblue" d="M371.97,-190.41C392.85,-176.43 436.61,-148.85 477.5,-134 555.82,-105.56 579.87,-114.76 661.5,-98 675.82,-95.06 691.36,-91.76 705.55,-88.7"/>
<polygon fill="midnightblue" stroke="midnightblue" points="706.58,-92.06 715.62,-86.53 705.11,-85.22 706.58,-92.06"/>
</g>
<!-- Node28&#45;&gt;Node8 -->
<g id="edge35" class="edge">
<title>Node28&#45;&gt;Node8</title>
<path fill="none" stroke="midnightblue" d="M726.99,-251.98C694.85,-241.64 640.51,-224.16 604.57,-212.6"/>
<polygon fill="midnightblue" stroke="midnightblue" points="605.55,-209.24 594.96,-209.51 603.4,-215.9 605.55,-209.24"/>
</g>
<!-- Node28&#45;&gt;Node17 -->
<g id="edge37" class="edge">
<title>Node28&#45;&gt;Node17</title>
<path fill="none" stroke="midnightblue" d="M779.82,-251.92C819.76,-237.66 895.74,-205.43 940.5,-154 972.72,-116.98 988.04,-59.5 994.13,-29.95"/>
<polygon fill="midnightblue" stroke="midnightblue" points="997.64,-30.26 996.09,-19.77 990.77,-28.93 997.64,-30.26"/>
</g>
<!-- Node29 -->
<g id="node29" class="node">
<title>Node29</title>
<g id="a_node29"><a xlink:title=" ">
<polygon fill="none" stroke="#bfbfbf" points="619,-190.5 619,-209.5 666,-209.5 666,-190.5 619,-190.5"/>
<text text-anchor="middle" x="642.5" y="-197.5" font-family="Helvetica,sans-Serif" font-size="10.00">cmath</text>
</a>
</g>
</g>
<!-- Node28&#45;&gt;Node29 -->
<g id="edge36" class="edge">
<title>Node28&#45;&gt;Node29</title>
<path fill="none" stroke="midnightblue" d="M737.6,-251.98C719.22,-242.12 688.74,-225.79 667.26,-214.27"/>
<polygon fill="midnightblue" stroke="midnightblue" points="668.84,-211.15 658.37,-209.51 665.53,-217.32 668.84,-211.15"/>
</g>
<!-- Node30 -->
<g id="node30" class="node">
<title>Node30</title>
<g id="a_node30"><a xlink:href="_t_allocator_8hpp.html" target="_top" xlink:title=" ">
<polygon fill="none" stroke="black" points="684,-190.5 684,-209.5 821,-209.5 821,-190.5 684,-190.5"/>
<text text-anchor="middle" x="752.5" y="-197.5" font-family="Helvetica,sans-Serif" font-size="10.00">../memory/TAllocator.hpp</text>
</a>
</g>
</g>
<!-- Node28&#45;&gt;Node30 -->
<g id="edge38" class="edge">
<title>Node28&#45;&gt;Node30</title>
<path fill="none" stroke="midnightblue" d="M753.36,-251.98C753.22,-243.58 753,-230.48 752.81,-219.66"/>
<polygon fill="midnightblue" stroke="midnightblue" points="756.31,-219.45 752.64,-209.51 749.31,-219.57 756.31,-219.45"/>
</g>
<!-- Node30&#45;&gt;Node9 -->
<g id="edge41" class="edge">
<title>Node30&#45;&gt;Node9</title>
<path fill="none" stroke="midnightblue" d="M713.84,-190.44C665.94,-179.84 585.22,-161.98 540.59,-152.1"/>
<polygon fill="midnightblue" stroke="midnightblue" points="541.1,-148.63 530.58,-149.89 539.59,-155.47 541.1,-148.63"/>
</g>
<!-- Node30&#45;&gt;Node18 -->
<g id="edge42" class="edge">
<title>Node30&#45;&gt;Node18</title>
<path fill="none" stroke="midnightblue" d="M748.36,-190.17C736.98,-166.48 703.24,-100.37 661.5,-56 650.21,-43.99 635.32,-33.07 622.96,-24.99"/>
<polygon fill="midnightblue" stroke="midnightblue" points="624.82,-22.02 614.5,-19.63 621.08,-27.94 624.82,-22.02"/>
</g>
<!-- Node30&#45;&gt;Node19 -->
<g id="edge39" class="edge">
<title>Node30&#45;&gt;Node19</title>
<path fill="none" stroke="midnightblue" d="M752.64,-190.3C752.97,-170.85 753.75,-123.49 754.19,-96.9"/>
<polygon fill="midnightblue" stroke="midnightblue" points="757.69,-96.68 754.36,-86.62 750.69,-96.56 757.69,-96.68"/>
</g>
<!-- Node31 -->
<g id="node31" class="node">
<title>Node31</title>
<g id="a_node31"><a xlink:title=" ">
<polygon fill="none" stroke="#bfbfbf" points="875.5,-134.5 875.5,-153.5 931.5,-153.5 931.5,-134.5 875.5,-134.5"/>
<text text-anchor="middle" x="903.5" y="-141.5" font-family="Helvetica,sans-Serif" font-size="10.00">stddef.h</text>
</a>
</g>
</g>
<!-- Node30&#45;&gt;Node31 -->
<g id="edge40" class="edge">
<title>Node30&#45;&gt;Node31</title>
<path fill="none" stroke="midnightblue" d="M776.43,-190.44C801.72,-181.4 841.8,-167.06 870.18,-156.92"/>
<polygon fill="midnightblue" stroke="midnightblue" points="871.45,-160.18 879.69,-153.52 869.09,-153.59 871.45,-160.18"/>
</g>
<!-- Node32&#45;&gt;Node7 -->
<g id="edge45" class="edge">
<title>Node32&#45;&gt;Node7</title>
<path fill="none" stroke="midnightblue" d="M605.45,-380.36C606.26,-372.23 607.2,-362.7 608.06,-354.11"/>
<polygon fill="midnightblue" stroke="midnightblue" points="611.57,-354.19 609.07,-343.89 604.6,-353.5 611.57,-354.19"/>
</g>
<!-- Node33&#45;&gt;Node17 -->
<g id="edge48" class="edge">
<title>Node33&#45;&gt;Node17</title>
<path fill="none" stroke="midnightblue" d="M957.99,-313.42C965.18,-303.77 973.93,-290.36 978.5,-277 1008.78,-188.54 1003.11,-74.11 999.37,-29.73"/>
<polygon fill="midnightblue" stroke="midnightblue" points="1002.83,-29.22 998.44,-19.58 995.86,-29.86 1002.83,-29.22"/>
</g>
<!-- Node33&#45;&gt;Node28 -->
<g id="edge47" class="edge">
<title>Node33&#45;&gt;Node28</title>
<path fill="none" stroke="midnightblue" d="M904.62,-313.4C869.86,-301.69 820.99,-285.23 788.34,-274.23"/>
<polygon fill="midnightblue" stroke="midnightblue" points="789.35,-270.88 778.76,-271.01 787.12,-277.52 789.35,-270.88"/>
</g>
<!-- Node34&#45;&gt;Node4 -->
<g id="edge54" class="edge">
<title>Node34&#45;&gt;Node4</title>
<path fill="none" stroke="midnightblue" d="M425.72,-391.49C491.29,-380.58 608.37,-361.04 708.5,-344 716.49,-342.64 724.9,-341.2 733.19,-339.77"/>
<polygon fill="midnightblue" stroke="midnightblue" points="733.94,-343.2 743.2,-338.05 732.75,-336.3 733.94,-343.2"/>
</g>
<!-- Node34&#45;&gt;Node9 -->
<g id="edge53" class="edge">
<title>Node34&#45;&gt;Node9</title>
<path fill="none" stroke="midnightblue" d="M370.84,-391.16C361.13,-366.18 337.35,-293.76 366.5,-246 384.72,-216.14 407.72,-229.89 436.5,-210 457.58,-195.43 479.03,-175.22 492.97,-161.22"/>
<polygon fill="midnightblue" stroke="midnightblue" points="495.76,-163.38 500.25,-153.79 490.75,-158.48 495.76,-163.38"/>
</g>
<!-- Node34&#45;&gt;Node15 -->
<g id="edge52" class="edge">
<title>Node34&#45;&gt;Node15</title>
<path fill="none" stroke="midnightblue" d="M316.77,-400.4C223.38,-397.68 49.5,-377.22 49.5,-262.5 49.5,-262.5 49.5,-262.5 49.5,-199 49.5,-161.39 35.27,-119.2 26.09,-95.9"/>
<polygon fill="midnightblue" stroke="midnightblue" points="29.32,-94.55 22.3,-86.61 22.84,-97.19 29.32,-94.55"/>
</g>
<!-- Node35 -->
<g id="node35" class="node">
<title>Node35</title>
<g id="a_node35"><a xlink:title=" ">
<polygon fill="none" stroke="#bfbfbf" points="376,-319 376,-338 425,-338 425,-319 376,-319"/>
<text text-anchor="middle" x="400.5" y="-326" font-family="Helvetica,sans-Serif" font-size="10.00">cstdlib</text>
</a>
</g>
</g>
<!-- Node34&#45;&gt;Node35 -->
<g id="edge50" class="edge">
<title>Node34&#45;&gt;Node35</title>
<path fill="none" stroke="midnightblue" d="M377.69,-391.36C381.66,-380.57 388.57,-361.85 393.74,-347.82"/>
<polygon fill="midnightblue" stroke="midnightblue" points="397.11,-348.81 397.29,-338.22 390.54,-346.39 397.11,-348.81"/>
</g>
<!-- Node36 -->
<g id="node36" class="node">
<title>Node36</title>
<g id="a_node36"><a xlink:title=" ">
<polygon fill="none" stroke="#bfbfbf" points="266,-319 266,-338 319,-338 319,-319 266,-319"/>
<text text-anchor="middle" x="292.5" y="-326" font-family="Helvetica,sans-Serif" font-size="10.00">cstddef</text>
</a>
</g>
</g>
<!-- Node34&#45;&gt;Node36 -->
<g id="edge51" class="edge">
<title>Node34&#45;&gt;Node36</title>
<path fill="none" stroke="midnightblue" d="M364.45,-391.36C351.04,-379.83 327.09,-359.24 310.53,-345"/>
<polygon fill="midnightblue" stroke="midnightblue" points="312.5,-342.08 302.64,-338.22 307.94,-347.39 312.5,-342.08"/>
</g>
<!-- Node38&#45;&gt;Node3 -->
<g id="edge63" class="edge">
<title>Node38&#45;&gt;Node3</title>
<path fill="none" stroke="midnightblue" d="M1051.54,-391.5C1074.41,-379.37 1116.59,-357.02 1143.55,-342.72"/>
<polygon fill="midnightblue" stroke="midnightblue" points="1145.2,-345.81 1152.4,-338.03 1141.93,-339.63 1145.2,-345.81"/>
</g>
<!-- Node38&#45;&gt;Node4 -->
<g id="edge57" class="edge">
<title>Node38&#45;&gt;Node4</title>
<path fill="none" stroke="midnightblue" d="M1006.19,-391.5C962.58,-378.85 880.55,-355.05 831.79,-340.9"/>
<polygon fill="midnightblue" stroke="midnightblue" points="832.49,-337.46 821.92,-338.03 830.54,-344.18 832.49,-337.46"/>
</g>
<!-- Node38&#45;&gt;Node19 -->
<g id="edge58" class="edge">
<title>Node38&#45;&gt;Node19</title>
<path fill="none" stroke="midnightblue" d="M1037.37,-391.43C1040.46,-375.63 1045.65,-340.97 1038.5,-313 1016.02,-225.13 1010.96,-191.11 940.5,-134 903.02,-103.62 849.35,-89.71 809.29,-83.34"/>
<polygon fill="midnightblue" stroke="midnightblue" points="809.56,-79.85 799.16,-81.85 808.54,-86.77 809.56,-79.85"/>
</g>
<!-- Node38&#45;&gt;Node26 -->
<g id="edge59" class="edge">
<title>Node38&#45;&gt;Node26</title>
<path fill="none" stroke="midnightblue" d="M1035.92,-391.34C1036.28,-374.47 1034.82,-336.75 1016.5,-313 1002.32,-294.62 979.6,-282.36 959.5,-274.53"/>
<polygon fill="midnightblue" stroke="midnightblue" points="960.49,-271.17 949.9,-271.04 958.1,-277.74 960.49,-271.17"/>
</g>
<!-- Node39 -->
<g id="node39" class="node">
<title>Node39</title>
<g id="a_node39"><a xlink:href="vae__logger_8hpp.html" target="_top" xlink:title=" ">
<polygon fill="none" stroke="black" points="1404.5,-319 1404.5,-338 1500.5,-338 1500.5,-319 1404.5,-319"/>
<text text-anchor="middle" x="1452.5" y="-326" font-family="Helvetica,sans-Serif" font-size="10.00">./vae_logger.hpp</text>
</a>
</g>
</g>
<!-- Node38&#45;&gt;Node39 -->
<g id="edge60" class="edge">
<title>Node38&#45;&gt;Node39</title>
<path fill="none" stroke="midnightblue" d="M1071.24,-391.42C1087.96,-387.6 1108.18,-383.23 1126.5,-380 1245.29,-359.04 1277.07,-366.91 1395.5,-344 1400.69,-343 1406.12,-341.8 1411.47,-340.54"/>
<polygon fill="midnightblue" stroke="midnightblue" points="1412.71,-343.84 1421.59,-338.06 1411.04,-337.04 1412.71,-343.84"/>
</g>
<!-- Node39&#45;&gt;Node17 -->
<g id="edge62" class="edge">
<title>Node39&#45;&gt;Node17</title>
<path fill="none" stroke="midnightblue" d="M1450.21,-318.98C1444.95,-298.71 1432.5,-245.91 1432.5,-201 1432.5,-201 1432.5,-201 1432.5,-143 1432.5,-59.64 1136.3,-23.97 1032.74,-14.05"/>
<polygon fill="midnightblue" stroke="midnightblue" points="1033.05,-10.56 1022.77,-13.12 1032.4,-17.53 1033.05,-10.56"/>
</g>
<!-- Node40 -->
<g id="node40" class="node">
<title>Node40</title>
<g id="a_node40"><a xlink:title=" ">
<polygon fill="none" stroke="#bfbfbf" points="1314.5,-252 1314.5,-271 1364.5,-271 1364.5,-252 1314.5,-252"/>
<text text-anchor="middle" x="1339.5" y="-259" font-family="Helvetica,sans-Serif" font-size="10.00">stdio.h</text>
</a>
</g>
</g>
<!-- Node39&#45;&gt;Node40 -->
<g id="edge61" class="edge">
<title>Node39&#45;&gt;Node40</title>
<path fill="none" stroke="midnightblue" d="M1437.26,-318.73C1418.28,-307.82 1385.65,-289.05 1363.35,-276.22"/>
<polygon fill="midnightblue" stroke="midnightblue" points="1364.91,-273.08 1354.5,-271.13 1361.42,-279.15 1364.91,-273.08"/>
</g>
<!-- Node41&#45;&gt;Node2 -->
<g id="edge66" class="edge">
<title>Node41&#45;&gt;Node2</title>
<path fill="none" stroke="midnightblue" d="M1043.87,-519.98C1020.68,-509.9 981.88,-493.05 955.29,-481.5"/>
<polygon fill="midnightblue" stroke="midnightblue" points="956.66,-478.28 946.09,-477.51 953.87,-484.7 956.66,-478.28"/>
</g>
<!-- Node41&#45;&gt;Node5 -->
<g id="edge67" class="edge">
<title>Node41&#45;&gt;Node5</title>
<path fill="none" stroke="midnightblue" d="M1071.75,-519.81C1091.62,-498.86 1142.37,-445.35 1168.08,-418.25"/>
<polygon fill="midnightblue" stroke="midnightblue" points="1170.85,-420.42 1175.19,-410.76 1165.77,-415.6 1170.85,-420.42"/>
</g>
<!-- Node42&#45;&gt;Node31 -->
<g id="edge69" class="edge">
<title>Node42&#45;&gt;Node31</title>
<path fill="none" stroke="midnightblue" d="M1299.99,-318.94C1232.98,-289.55 1011.96,-192.58 932.38,-157.67"/>
<polygon fill="midnightblue" stroke="midnightblue" points="933.53,-154.35 922.96,-153.54 930.72,-160.76 933.53,-154.35"/>
</g>
<!-- Node42&#45;&gt;Node40 -->
<g id="edge70" class="edge">
<title>Node42&#45;&gt;Node40</title>
<path fill="none" stroke="midnightblue" d="M1322.2,-318.73C1325.17,-309.09 1330.02,-293.3 1333.84,-280.91"/>
<polygon fill="midnightblue" stroke="midnightblue" points="1337.25,-281.71 1336.85,-271.13 1330.56,-279.66 1337.25,-281.71"/>
</g>
</g>
</svg>
        <g id="navigator" transform="translate(0 0)" fill="#404254">
                <rect fill="#f2f5e9" fill-opacity="0.5" stroke="#606060" stroke-width=".5" x="0" y="0" width="60" height="60"/>
                <use id="zoomplus" xlink:href="#zoomPlus" x="17" y="9" onmousedown="handleZoom(evt,'in')"/>
                <use id="zoomminus" xlink:href="#zoomMin" x="42" y="9" onmousedown="handleZoom(evt,'out')"/>
                <use id="reset" xlink:href="#resetDef" x="30" y="36" onmousedown="handleReset()"/>
                <g id="arrowUp" xlink:href="#dirArrow" transform="translate(30 24)" onmousedown="handlePan(0,-1)">
                  <use xlink:href="#rim" fill="#404040">
                        <set attributeName="fill" to="#808080" begin="arrowUp.mouseover" end="arrowUp.mouseout"/>
                  </use>
                  <path fill="none" stroke="white" stroke-width="1.5" d="M0,-3.0v7 M-2.5,-0.5L0,-3.0L2.5,-0.5"/>
                </g>
                <g id="arrowRight" xlink:href="#dirArrow" transform="rotate(90) translate(36 -43)" onmousedown="handlePan(1,0)">
                  <use xlink:href="#rim" fill="#404040">
                        <set attributeName="fill" to="#808080" begin="arrowRight.mouseover" end="arrowRight.mouseout"/>
                  </use>
                  <path fill="none" stroke="white" stroke-width="1.5" d="M0,-3.0v7 M-2.5,-0.5L0,-3.0L2.5,-0.5"/>
                </g>
                <g id="arrowDown" xlink:href="#dirArrow" transform="rotate(180) translate(-30 -48)" onmousedown="handlePan(0,1)">
                  <use xlink:href="#rim" fill="#404040">
                        <set attributeName="fill" to="#808080" begin="arrowDown.mouseover" end="arrowDown.mouseout"/>
                  </use>
                  <path fill="none" stroke="white" stroke-width="1.5" d="M0,-3.0v7 M-2.5,-0.5L0,-3.0L2.5,-0.5"/>
                </g>
                <g id="arrowLeft" xlink:href="#dirArrow" transform="rotate(270) translate(-36 17)" onmousedown="handlePan(-1,0)">
                  <use xlink:href="#rim" fill="#404040">
                        <set attributeName="fill" to="#808080" begin="arrowLeft.mouseover" end="arrowLeft.mouseout"/>
                  </use>
                  <path fill="none" stroke="white" stroke-width="1.5" d="M0,-3.0v7 M-2.5,-0.5L0,-3.0L2.5,-0.5"/>
                </g>
        </g>
        <svg viewBox="0 0 15 15" width="100%" height="30px" preserveAspectRatio="xMaxYMin meet">
         <g id="arrow_out" transform="scale(0.3 0.3)">
          <a xlink:href="vae__hrtf__loader_8hpp__incl_org.svg" target="_base">
           <rect id="button" ry="5" rx="5" y="6" x="6" height="38" width="38"
                fill="#f2f5e9" fill-opacity="0.5" stroke="#606060" stroke-width="1.0"/>
           <path id="arrow"
             d="M 11.500037,31.436501 C 11.940474,20.09759 22.043105,11.32322 32.158766,21.979434 L 37.068811,17.246167 C 37.068811,17.246167 37.088388,32 37.088388,32 L 22.160133,31.978069 C 22.160133,31.978069 26.997745,27.140456 26.997745,27.140456 C 18.528582,18.264221 13.291696,25.230495 11.500037,31.436501 z"
             style="fill:#404040;"/>
          </a>
         </g>
        </svg>
</svg>
