<?xml version="1.0" encoding="UTF-8" standalone="no"?>
<!DOCTYPE svg PUBLIC "-//W3C//DTD SVG 1.1//EN"
 "http://www.w3.org/Graphics/SVG/1.1/DTD/svg11.dtd">
<!-- Generated by graphviz version 2.50.0 (0)
 -->
<!-- Title: vae_voice.hpp Pages: 1 -->
<svg width="490pt" height="308pt"
 viewBox="0.00 0.00 490.00 308.00" xmlns="http://www.w3.org/2000/svg" xmlns:xlink="http://www.w3.org/1999/xlink">
<g id="graph0" class="graph" transform="scale(1 1) rotate(0) translate(4 304)">
<title>vae_voice.hpp</title>
<!-- Node1 -->
<g id="node1" class="node">
<title>Node1</title>
<g id="a_node1"><a xlink:title=" ">
<polygon fill="#bfbfbf" stroke="black" points="142,-280.5 142,-299.5 229,-299.5 229,-280.5 142,-280.5"/>
<text text-anchor="middle" x="185.5" y="-287.5" font-family="Helvetica,sans-Serif" font-size="10.00">vae_voice.hpp</text>
</a>
</g>
</g>
<!-- Node2 -->
<g id="node2" class="node">
<title>Node2</title>
<g id="a_node2"><a xlink:href="vae__processor_8hpp.html" target="_top" xlink:title=" ">
<polygon fill="none" stroke="black" points="0,-168.5 0,-187.5 107,-187.5 107,-168.5 0,-168.5"/>
<text text-anchor="middle" x="53.5" y="-175.5" font-family="Helvetica,sans-Serif" font-size="10.00">vae_processor.hpp</text>
</a>
</g>
</g>
<!-- Node1&#45;&gt;Node2 -->
<g id="edge1" class="edge">
<title>Node1&#45;&gt;Node2</title>
<path fill="none" stroke="midnightblue" d="M158.62,-275.86C143.41,-267.77 124.49,-256.55 109.5,-244 88.72,-226.6 69.18,-201.08 59.62,-187.79"/>
<polygon fill="midnightblue" stroke="midnightblue" points="157.05,-278.99 167.54,-280.48 160.27,-272.78 157.05,-278.99"/>
</g>
<!-- Node6 -->
<g id="node6" class="node">
<title>Node6</title>
<g id="a_node6"><a xlink:href="vae__spatial__processor_8hpp.html" target="_top" xlink:title=" ">
<polygon fill="none" stroke="black" points="337,-112.5 337,-131.5 482,-131.5 482,-112.5 337,-112.5"/>
<text text-anchor="middle" x="409.5" y="-119.5" font-family="Helvetica,sans-Serif" font-size="10.00">vae_spatial_processor.hpp</text>
</a>
</g>
</g>
<!-- Node1&#45;&gt;Node6 -->
<g id="edge5" class="edge">
<title>Node1&#45;&gt;Node6</title>
<path fill="none" stroke="midnightblue" d="M230.99,-277.6C276.97,-263.81 346.99,-236.22 388.5,-188 402.74,-171.46 407.36,-145.12 408.83,-131.61"/>
<polygon fill="midnightblue" stroke="midnightblue" points="229.91,-274.27 221.28,-280.42 231.86,-281 229.91,-274.27"/>
</g>
<!-- Node7 -->
<g id="node7" class="node">
<title>Node7</title>
<g id="a_node7"><a xlink:href="vae__voice__manager_8hpp.html" target="_top" xlink:title="Holds all voices and starts/stops them.">
<polygon fill="none" stroke="black" points="118.5,-224.5 118.5,-243.5 252.5,-243.5 252.5,-224.5 118.5,-224.5"/>
<text text-anchor="middle" x="185.5" y="-231.5" font-family="Helvetica,sans-Serif" font-size="10.00">vae_voice_manager.hpp</text>
</a>
</g>
</g>
<!-- Node1&#45;&gt;Node7 -->
<g id="edge7" class="edge">
<title>Node1&#45;&gt;Node7</title>
<path fill="none" stroke="midnightblue" d="M185.5,-269.8C185.5,-260.91 185.5,-250.78 185.5,-243.75"/>
<polygon fill="midnightblue" stroke="midnightblue" points="182,-270.08 185.5,-280.08 189,-270.08 182,-270.08"/>
</g>
<!-- Node3 -->
<g id="node3" class="node">
<title>Node3</title>
<g id="a_node3"><a xlink:href="vae__engine_8hpp.html" target="_top" xlink:title=" ">
<polygon fill="none" stroke="black" points="163.5,-56.5 163.5,-75.5 257.5,-75.5 257.5,-56.5 163.5,-56.5"/>
<text text-anchor="middle" x="210.5" y="-63.5" font-family="Helvetica,sans-Serif" font-size="10.00">vae_engine.hpp</text>
</a>
</g>
</g>
<!-- Node2&#45;&gt;Node3 -->
<g id="edge2" class="edge">
<title>Node2&#45;&gt;Node3</title>
<path fill="none" stroke="midnightblue" d="M62.06,-159.26C69.81,-144.82 82.46,-124.8 98.5,-112 120.94,-94.09 151.44,-82.46 174.94,-75.52"/>
<polygon fill="midnightblue" stroke="midnightblue" points="58.92,-157.71 57.49,-168.21 65.15,-160.89 58.92,-157.71"/>
</g>
<!-- Node4 -->
<g id="node4" class="node">
<title>Node4</title>
<g id="a_node4"><a xlink:href="main_8cpp.html" target="_top" xlink:title=" ">
<polygon fill="none" stroke="black" points="133.5,-0.5 133.5,-19.5 195.5,-19.5 195.5,-0.5 133.5,-0.5"/>
<text text-anchor="middle" x="164.5" y="-7.5" font-family="Helvetica,sans-Serif" font-size="10.00">main.cpp</text>
</a>
</g>
</g>
<!-- Node3&#45;&gt;Node4 -->
<g id="edge3" class="edge">
<title>Node3&#45;&gt;Node4</title>
<path fill="none" stroke="midnightblue" d="M196.39,-48.43C188.32,-38.97 178.54,-27.48 171.95,-19.75"/>
<polygon fill="midnightblue" stroke="midnightblue" points="193.75,-50.74 202.9,-56.08 199.08,-46.2 193.75,-50.74"/>
</g>
<!-- Node5 -->
<g id="node5" class="node">
<title>Node5</title>
<g id="a_node5"><a xlink:href="vae__pimpl_8cpp.html" target="_top" xlink:title=" ">
<polygon fill="none" stroke="black" points="213.5,-0.5 213.5,-19.5 301.5,-19.5 301.5,-0.5 213.5,-0.5"/>
<text text-anchor="middle" x="257.5" y="-7.5" font-family="Helvetica,sans-Serif" font-size="10.00">vae_pimpl.cpp</text>
</a>
</g>
</g>
<!-- Node3&#45;&gt;Node5 -->
<g id="edge4" class="edge">
<title>Node3&#45;&gt;Node5</title>
<path fill="none" stroke="midnightblue" d="M224.92,-48.43C233.16,-38.97 243.15,-27.48 249.88,-19.75"/>
<polygon fill="midnightblue" stroke="midnightblue" points="222.19,-46.24 218.26,-56.08 227.47,-50.84 222.19,-46.24"/>
</g>
<!-- Node6&#45;&gt;Node3 -->
<g id="edge6" class="edge">
<title>Node6&#45;&gt;Node3</title>
<path fill="none" stroke="midnightblue" d="M367.85,-109.7C330.29,-99.51 275.89,-84.74 241.88,-75.52"/>
<polygon fill="midnightblue" stroke="midnightblue" points="367.4,-113.2 377.97,-112.44 369.23,-106.45 367.4,-113.2"/>
</g>
<!-- Node7&#45;&gt;Node2 -->
<g id="edge11" class="edge">
<title>Node7&#45;&gt;Node2</title>
<path fill="none" stroke="midnightblue" d="M155.28,-220.64C130.51,-210.5 96.1,-196.43 74.32,-187.52"/>
<polygon fill="midnightblue" stroke="midnightblue" points="154,-223.9 164.58,-224.44 156.65,-217.42 154,-223.9"/>
</g>
<!-- Node7&#45;&gt;Node3 -->
<g id="edge8" class="edge">
<title>Node7&#45;&gt;Node3</title>
<path fill="none" stroke="midnightblue" d="M169.11,-217.39C146.43,-193.82 110.52,-148.09 131.5,-112 142.05,-93.85 162.96,-82.41 180.62,-75.61"/>
<polygon fill="midnightblue" stroke="midnightblue" points="166.65,-219.88 176.19,-224.48 171.6,-214.93 166.65,-219.88"/>
</g>
<!-- Node7&#45;&gt;Node6 -->
<g id="edge15" class="edge">
<title>Node7&#45;&gt;Node6</title>
<path fill="none" stroke="midnightblue" d="M262.82,-225.53C296.06,-219.41 333.96,-208.26 363.5,-188 384.7,-173.45 399.38,-145.73 405.82,-131.66"/>
<polygon fill="midnightblue" stroke="midnightblue" points="261.94,-222.14 252.67,-227.28 263.12,-229.03 261.94,-222.14"/>
</g>
<!-- Node8 -->
<g id="node8" class="node">
<title>Node8</title>
<g id="a_node8"><a xlink:href="vae__mixer__processor_8hpp.html" target="_top" xlink:title=" ">
<polygon fill="none" stroke="black" points="140.5,-112.5 140.5,-131.5 280.5,-131.5 280.5,-112.5 140.5,-112.5"/>
<text text-anchor="middle" x="210.5" y="-119.5" font-family="Helvetica,sans-Serif" font-size="10.00">vae_mixer_processor.hpp</text>
</a>
</g>
</g>
<!-- Node7&#45;&gt;Node8 -->
<g id="edge9" class="edge">
<title>Node7&#45;&gt;Node8</title>
<path fill="none" stroke="midnightblue" d="M189.74,-214.35C195.22,-190.25 204.52,-149.31 208.55,-131.59"/>
<polygon fill="midnightblue" stroke="midnightblue" points="186.27,-213.84 187.46,-224.37 193.09,-215.39 186.27,-213.84"/>
</g>
<!-- Node9 -->
<g id="node9" class="node">
<title>Node9</title>
<g id="a_node9"><a xlink:href="vae__spatial__manager_8hpp.html" target="_top" xlink:title=" ">
<polygon fill="none" stroke="black" points="214,-168.5 214,-187.5 355,-187.5 355,-168.5 214,-168.5"/>
<text text-anchor="middle" x="284.5" y="-175.5" font-family="Helvetica,sans-Serif" font-size="10.00">vae_spatial_manager.hpp</text>
</a>
</g>
</g>
<!-- Node7&#45;&gt;Node9 -->
<g id="edge12" class="edge">
<title>Node7&#45;&gt;Node9</title>
<path fill="none" stroke="midnightblue" d="M210.34,-219.45C228.61,-209.48 252.92,-196.23 268.63,-187.65"/>
<polygon fill="midnightblue" stroke="midnightblue" points="208.51,-216.46 201.41,-224.32 211.86,-222.61 208.51,-216.46"/>
</g>
<!-- Node8&#45;&gt;Node3 -->
<g id="edge10" class="edge">
<title>Node8&#45;&gt;Node3</title>
<path fill="none" stroke="midnightblue" d="M210.5,-101.8C210.5,-92.91 210.5,-82.78 210.5,-75.75"/>
<polygon fill="midnightblue" stroke="midnightblue" points="207,-102.08 210.5,-112.08 214,-102.08 207,-102.08"/>
</g>
<!-- Node9&#45;&gt;Node3 -->
<g id="edge13" class="edge">
<title>Node9&#45;&gt;Node3</title>
<path fill="none" stroke="midnightblue" d="M291.27,-158.54C295.1,-144.79 297.67,-126.05 289.5,-112 278.95,-93.85 258.04,-82.41 240.38,-75.61"/>
<polygon fill="midnightblue" stroke="midnightblue" points="287.86,-157.72 288.11,-168.31 294.52,-159.87 287.86,-157.72"/>
</g>
<!-- Node9&#45;&gt;Node6 -->
<g id="edge14" class="edge">
<title>Node9&#45;&gt;Node6</title>
<path fill="none" stroke="midnightblue" d="M313.74,-164.37C337.15,-154.26 369.34,-140.35 389.79,-131.52"/>
<polygon fill="midnightblue" stroke="midnightblue" points="312.1,-161.26 304.31,-168.44 314.87,-167.69 312.1,-161.26"/>
</g>
</g>
</svg>
