<?xml version="1.0" encoding="UTF-8" standalone="no"?>
<!DOCTYPE svg PUBLIC "-//W3C//DTD SVG 1.1//EN"
 "http://www.w3.org/Graphics/SVG/1.1/DTD/svg11.dtd">
<!-- Generated by graphviz version 2.50.0 (0)
 -->
<!-- Title: vae_event.hpp Pages: 1 -->
<svg width="1182pt" height="654pt"
 viewBox="0.00 0.00 1181.50 654.00" xmlns="http://www.w3.org/2000/svg" xmlns:xlink="http://www.w3.org/1999/xlink">
<g id="graph0" class="graph" transform="scale(1 1) rotate(0) translate(4 650)">
<title>vae_event.hpp</title>
<!-- Node1 -->
<g id="node1" class="node">
<title>Node1</title>
<g id="a_node1"><a xlink:title=" ">
<polygon fill="#bfbfbf" stroke="black" points="163.5,-626.5 163.5,-645.5 252.5,-645.5 252.5,-626.5 163.5,-626.5"/>
<text text-anchor="middle" x="208" y="-633.5" font-family="Helvetica,sans-Serif" font-size="10.00">vae_event.hpp</text>
</a>
</g>
</g>
<!-- Node2 -->
<g id="node2" class="node">
<title>Node2</title>
<g id="a_node2"><a xlink:href="vae__types_8hpp.html" target="_top" xlink:title="Internal types used across VAE.">
<polygon fill="none" stroke="black" points="306.5,-458.5 306.5,-477.5 403.5,-477.5 403.5,-458.5 306.5,-458.5"/>
<text text-anchor="middle" x="355" y="-465.5" font-family="Helvetica,sans-Serif" font-size="10.00">../vae_types.hpp</text>
</a>
</g>
</g>
<!-- Node1&#45;&gt;Node2 -->
<g id="edge1" class="edge">
<title>Node1&#45;&gt;Node2</title>
<path fill="none" stroke="midnightblue" d="M209.03,-626.41C210.91,-613.39 215.78,-588.22 227,-570 251.78,-529.77 298.67,-499.06 328.3,-482.56"/>
<polygon fill="midnightblue" stroke="midnightblue" points="330.13,-485.55 337.26,-477.71 326.8,-479.39 330.13,-485.55"/>
</g>
<!-- Node5 -->
<g id="node5" class="node">
<title>Node5</title>
<g id="a_node5"><a xlink:href="vae__config_8hpp.html" target="_top" xlink:title=" ">
<polygon fill="none" stroke="black" points="83.5,-391.5 83.5,-410.5 180.5,-410.5 180.5,-391.5 83.5,-391.5"/>
<text text-anchor="middle" x="132" y="-398.5" font-family="Helvetica,sans-Serif" font-size="10.00">./vae_config.hpp</text>
</a>
</g>
</g>
<!-- Node1&#45;&gt;Node5 -->
<g id="edge56" class="edge">
<title>Node1&#45;&gt;Node5</title>
<path fill="none" stroke="midnightblue" d="M205.2,-626.43C194.17,-592.61 153.51,-467.95 138.03,-420.5"/>
<polygon fill="midnightblue" stroke="midnightblue" points="141.33,-419.32 134.9,-410.9 134.68,-421.49 141.33,-419.32"/>
</g>
<!-- Node38 -->
<g id="node38" class="node">
<title>Node38</title>
<g id="a_node38"><a xlink:href="vae__mixer_8hpp.html" target="_top" xlink:title=" ">
<polygon fill="none" stroke="black" points="236,-570.5 236,-589.5 330,-589.5 330,-570.5 236,-570.5"/>
<text text-anchor="middle" x="283" y="-577.5" font-family="Helvetica,sans-Serif" font-size="10.00">./vae_mixer.hpp</text>
</a>
</g>
</g>
<!-- Node1&#45;&gt;Node38 -->
<g id="edge57" class="edge">
<title>Node1&#45;&gt;Node38</title>
<path fill="none" stroke="midnightblue" d="M220.05,-626.32C231.46,-618.11 248.83,-605.6 262.43,-595.81"/>
<polygon fill="midnightblue" stroke="midnightblue" points="264.66,-598.52 270.73,-589.83 260.57,-592.84 264.66,-598.52"/>
</g>
<!-- Node3 -->
<g id="node3" class="node">
<title>Node3</title>
<g id="a_node3"><a xlink:href="vae_8hpp.html" target="_top" xlink:title="Contains all public API types for VAE.">
<polygon fill="none" stroke="black" points="34.5,-319 34.5,-338 167.5,-338 167.5,-319 34.5,-319"/>
<text text-anchor="middle" x="101" y="-326" font-family="Helvetica,sans-Serif" font-size="10.00">../../include/vae/vae.hpp</text>
</a>
</g>
</g>
<!-- Node2&#45;&gt;Node3 -->
<g id="edge2" class="edge">
<title>Node2&#45;&gt;Node3</title>
<path fill="none" stroke="midnightblue" d="M329.52,-458.48C306.89,-450.45 273.29,-437.38 246,-422 218.59,-406.55 215.36,-397.19 189,-380 168.46,-366.6 144.24,-352.84 126.41,-343.07"/>
<polygon fill="midnightblue" stroke="midnightblue" points="127.68,-339.78 117.23,-338.09 124.34,-345.94 127.68,-339.78"/>
</g>
<!-- Node4 -->
<g id="node4" class="node">
<title>Node4</title>
<g id="a_node4"><a xlink:href="vae__profiler_8hpp.html" target="_top" xlink:title=" ">
<polygon fill="none" stroke="black" points="621.5,-319 621.5,-338 770.5,-338 770.5,-319 621.5,-319"/>
<text text-anchor="middle" x="696" y="-326" font-family="Helvetica,sans-Serif" font-size="10.00">../wrapped/vae_profiler.hpp</text>
</a>
</g>
</g>
<!-- Node2&#45;&gt;Node4 -->
<g id="edge3" class="edge">
<title>Node2&#45;&gt;Node4</title>
<path fill="none" stroke="midnightblue" d="M403.59,-465.37C478.45,-461.94 617.41,-451.67 656,-422 679.4,-404.01 689.33,-369.57 693.38,-348.16"/>
<polygon fill="midnightblue" stroke="midnightblue" points="696.87,-348.49 695.04,-338.06 689.96,-347.36 696.87,-348.49"/>
</g>
<!-- Node2&#45;&gt;Node5 -->
<g id="edge4" class="edge">
<title>Node2&#45;&gt;Node5</title>
<path fill="none" stroke="midnightblue" d="M323.34,-458.43C290.99,-449.59 239.37,-435.28 195,-422 186.21,-419.37 176.77,-416.43 167.94,-413.64"/>
<polygon fill="midnightblue" stroke="midnightblue" points="168.89,-410.27 158.3,-410.56 166.77,-416.94 168.89,-410.27"/>
</g>
<!-- Node6 -->
<g id="node6" class="node">
<title>Node6</title>
<g id="a_node6"><a xlink:title=" ">
<polygon fill="none" stroke="#bfbfbf" points="483.5,-386 483.5,-416 580.5,-416 580.5,-386 483.5,-386"/>
<text text-anchor="start" x="491.5" y="-404" font-family="Helvetica,sans-Serif" font-size="10.00">../../external/glm</text>
<text text-anchor="middle" x="532" y="-393" font-family="Helvetica,sans-Serif" font-size="10.00">/glm/glm.hpp</text>
</a>
</g>
</g>
<!-- Node2&#45;&gt;Node6 -->
<g id="edge6" class="edge">
<title>Node2&#45;&gt;Node6</title>
<path fill="none" stroke="midnightblue" d="M378.5,-458.37C405.29,-448.53 449.79,-432.19 484,-419.63"/>
<polygon fill="midnightblue" stroke="midnightblue" points="485.62,-422.76 493.8,-416.03 483.21,-416.19 485.62,-422.76"/>
</g>
<!-- Node7 -->
<g id="node7" class="node">
<title>Node7</title>
<g id="a_node7"><a xlink:href="_t_audio_buffer_8hpp.html" target="_top" xlink:title=" ">
<polygon fill="none" stroke="black" points="334.5,-313.5 334.5,-343.5 513.5,-343.5 513.5,-313.5 334.5,-313.5"/>
<text text-anchor="start" x="342.5" y="-331.5" font-family="Helvetica,sans-Serif" font-size="10.00">../../external/tklb</text>
<text text-anchor="middle" x="424" y="-320.5" font-family="Helvetica,sans-Serif" font-size="10.00">/src/types/audio/TAudioBuffer.hpp</text>
</a>
</g>
</g>
<!-- Node2&#45;&gt;Node7 -->
<g id="edge7" class="edge">
<title>Node2&#45;&gt;Node7</title>
<path fill="none" stroke="midnightblue" d="M385.25,-458.49C403.13,-451.73 424.3,-440.29 435,-422 447.24,-401.08 441.38,-372.95 434.41,-353.22"/>
<polygon fill="midnightblue" stroke="midnightblue" points="437.63,-351.83 430.76,-343.76 431.09,-354.35 437.63,-351.83"/>
</g>
<!-- Node32 -->
<g id="node32" class="node">
<title>Node32</title>
<g id="a_node32"><a xlink:href="_t_audio_ring_buffer_8hpp.html" target="_top" xlink:title=" ">
<polygon fill="none" stroke="black" points="275.5,-380.5 275.5,-421.5 426.5,-421.5 426.5,-380.5 275.5,-380.5"/>
<text text-anchor="start" x="283.5" y="-409.5" font-family="Helvetica,sans-Serif" font-size="10.00">../../external/tklb</text>
<text text-anchor="start" x="283.5" y="-398.5" font-family="Helvetica,sans-Serif" font-size="10.00">/src/types/audio/TAudioRing</text>
<text text-anchor="middle" x="351" y="-387.5" font-family="Helvetica,sans-Serif" font-size="10.00">Buffer.hpp</text>
</a>
</g>
</g>
<!-- Node2&#45;&gt;Node32 -->
<g id="edge44" class="edge">
<title>Node2&#45;&gt;Node32</title>
<path fill="none" stroke="midnightblue" d="M354.46,-458.23C354.04,-451.36 353.42,-441.38 352.83,-431.73"/>
<polygon fill="midnightblue" stroke="midnightblue" points="356.31,-431.31 352.2,-421.54 349.32,-431.74 356.31,-431.31"/>
</g>
<!-- Node33 -->
<g id="node33" class="node">
<title>Node33</title>
<g id="a_node33"><a xlink:href="_t_string_8hpp.html" target="_top" xlink:title=" ">
<polygon fill="none" stroke="black" points="186,-313.5 186,-343.5 308,-343.5 308,-313.5 186,-313.5"/>
<text text-anchor="start" x="194" y="-331.5" font-family="Helvetica,sans-Serif" font-size="10.00">../../external/tklb</text>
<text text-anchor="middle" x="247" y="-320.5" font-family="Helvetica,sans-Serif" font-size="10.00">/src/types/TString.hpp</text>
</a>
</g>
</g>
<!-- Node2&#45;&gt;Node33 -->
<g id="edge46" class="edge">
<title>Node2&#45;&gt;Node33</title>
<path fill="none" stroke="midnightblue" d="M322.79,-458.49C303.46,-451.73 279.98,-440.3 266,-422 251.05,-402.44 247.1,-373.99 246.39,-353.82"/>
<polygon fill="midnightblue" stroke="midnightblue" points="249.89,-353.53 246.28,-343.57 242.89,-353.61 249.89,-353.53"/>
</g>
<!-- Node34 -->
<g id="node34" class="node">
<title>Node34</title>
<g id="a_node34"><a xlink:href="vae__allocators_8hpp.html" target="_top" xlink:title=" ">
<polygon fill="none" stroke="black" points="867.5,-391.5 867.5,-410.5 982.5,-410.5 982.5,-391.5 867.5,-391.5"/>
<text text-anchor="middle" x="925" y="-398.5" font-family="Helvetica,sans-Serif" font-size="10.00">./vae_allocators.hpp</text>
</a>
</g>
</g>
<!-- Node2&#45;&gt;Node34 -->
<g id="edge49" class="edge">
<title>Node2&#45;&gt;Node34</title>
<path fill="none" stroke="midnightblue" d="M403.6,-461.46C505.26,-449.87 740.57,-423.03 857.1,-409.74"/>
<polygon fill="midnightblue" stroke="midnightblue" points="857.78,-413.19 867.32,-408.58 856.98,-406.23 857.78,-413.19"/>
</g>
<!-- Node37 -->
<g id="node37" class="node">
<title>Node37</title>
<g id="a_node37"><a xlink:title=" ">
<polygon fill="none" stroke="#bfbfbf" points="599,-391.5 599,-410.5 647,-410.5 647,-391.5 599,-391.5"/>
<text text-anchor="middle" x="623" y="-398.5" font-family="Helvetica,sans-Serif" font-size="10.00">mutex</text>
</a>
</g>
</g>
<!-- Node2&#45;&gt;Node37 -->
<g id="edge55" class="edge">
<title>Node2&#45;&gt;Node37</title>
<path fill="none" stroke="midnightblue" d="M403.64,-462.77C452.15,-457.39 528.16,-445.78 590,-422 594.15,-420.4 598.37,-418.29 602.34,-416.04"/>
<polygon fill="midnightblue" stroke="midnightblue" points="604.33,-418.92 611,-410.7 600.65,-412.96 604.33,-418.92"/>
</g>
<!-- Node5&#45;&gt;Node3 -->
<g id="edge5" class="edge">
<title>Node5&#45;&gt;Node3</title>
<path fill="none" stroke="midnightblue" d="M128.2,-391.36C123.41,-380.47 115.06,-361.48 108.87,-347.41"/>
<polygon fill="midnightblue" stroke="midnightblue" points="112.06,-345.96 104.83,-338.22 105.65,-348.78 112.06,-345.96"/>
</g>
<!-- Node8 -->
<g id="node8" class="node">
<title>Node8</title>
<g id="a_node8"><a xlink:title=" ">
<polygon fill="none" stroke="#bfbfbf" points="287,-190.5 287,-209.5 351,-209.5 351,-190.5 287,-190.5"/>
<text text-anchor="middle" x="319" y="-197.5" font-family="Helvetica,sans-Serif" font-size="10.00">algorithm</text>
</a>
</g>
</g>
<!-- Node7&#45;&gt;Node8 -->
<g id="edge8" class="edge">
<title>Node7&#45;&gt;Node8</title>
<path fill="none" stroke="midnightblue" d="M404.54,-313.41C392.31,-303.97 376.69,-290.78 365,-277 349.61,-258.86 336.07,-235 327.73,-218.89"/>
<polygon fill="midnightblue" stroke="midnightblue" points="330.66,-216.92 323.04,-209.56 324.41,-220.06 330.66,-216.92"/>
</g>
<!-- Node9 -->
<g id="node9" class="node">
<title>Node9</title>
<g id="a_node9"><a xlink:title=" ">
<polygon fill="none" stroke="#bfbfbf" points="407,-134.5 407,-153.5 451,-153.5 451,-134.5 407,-134.5"/>
<text text-anchor="middle" x="429" y="-141.5" font-family="Helvetica,sans-Serif" font-size="10.00">limits</text>
</a>
</g>
</g>
<!-- Node7&#45;&gt;Node9 -->
<g id="edge9" class="edge">
<title>Node7&#45;&gt;Node9</title>
<path fill="none" stroke="midnightblue" d="M424.38,-313.48C425.27,-281.1 427.46,-201.04 428.48,-164.16"/>
<polygon fill="midnightblue" stroke="midnightblue" points="431.98,-163.91 428.76,-153.82 424.99,-163.72 431.98,-163.91"/>
</g>
<!-- Node10 -->
<g id="node10" class="node">
<title>Node10</title>
<g id="a_node10"><a xlink:title=" ">
<polygon fill="none" stroke="#bfbfbf" points="445.5,-252 445.5,-271 514.5,-271 514.5,-252 445.5,-252"/>
<text text-anchor="middle" x="480" y="-259" font-family="Helvetica,sans-Serif" font-size="10.00">type_traits</text>
</a>
</g>
</g>
<!-- Node7&#45;&gt;Node10 -->
<g id="edge10" class="edge">
<title>Node7&#45;&gt;Node10</title>
<path fill="none" stroke="midnightblue" d="M436.15,-313.4C444.88,-303.26 456.68,-289.57 465.84,-278.94"/>
<polygon fill="midnightblue" stroke="midnightblue" points="468.63,-281.06 472.51,-271.19 463.33,-276.49 468.63,-281.06"/>
</g>
<!-- Node11 -->
<g id="node11" class="node">
<title>Node11</title>
<g id="a_node11"><a xlink:href="_t_memory_8hpp.html" target="_top" xlink:title=" ">
<polygon fill="none" stroke="black" points="853,-252 853,-271 997,-271 997,-252 853,-252"/>
<text text-anchor="middle" x="925" y="-259" font-family="Helvetica,sans-Serif" font-size="10.00">../../memory/TMemory.hpp</text>
</a>
</g>
</g>
<!-- Node7&#45;&gt;Node11 -->
<g id="edge11" class="edge">
<title>Node7&#45;&gt;Node11</title>
<path fill="none" stroke="midnightblue" d="M513.57,-315.88C609.24,-303.47 759.21,-284.01 849.22,-272.33"/>
<polygon fill="midnightblue" stroke="midnightblue" points="849.89,-275.77 859.35,-271.02 848.99,-268.83 849.89,-275.77"/>
</g>
<!-- Node19 -->
<g id="node19" class="node">
<title>Node19</title>
<g id="a_node19"><a xlink:href="_t_assert_8h.html" target="_top" xlink:title=" ">
<polygon fill="none" stroke="black" points="283.5,-67.5 283.5,-86.5 372.5,-86.5 372.5,-67.5 283.5,-67.5"/>
<text text-anchor="middle" x="328" y="-74.5" font-family="Helvetica,sans-Serif" font-size="10.00">../util/TAssert.h</text>
</a>
</g>
</g>
<!-- Node7&#45;&gt;Node19 -->
<g id="edge43" class="edge">
<title>Node7&#45;&gt;Node19</title>
<path fill="none" stroke="midnightblue" d="M418.56,-313.37C402.19,-270.82 353.35,-143.89 335.04,-96.3"/>
<polygon fill="midnightblue" stroke="midnightblue" points="338.29,-95.01 331.44,-86.93 331.76,-97.52 338.29,-95.01"/>
</g>
<!-- Node26 -->
<g id="node26" class="node">
<title>Node26</title>
<g id="a_node26"><a xlink:href="_t_math_8hpp.html" target="_top" xlink:title=" ">
<polygon fill="none" stroke="black" points="533,-252 533,-271 637,-271 637,-252 533,-252"/>
<text text-anchor="middle" x="585" y="-259" font-family="Helvetica,sans-Serif" font-size="10.00">../../util/TMath.hpp</text>
</a>
</g>
</g>
<!-- Node7&#45;&gt;Node26 -->
<g id="edge32" class="edge">
<title>Node7&#45;&gt;Node26</title>
<path fill="none" stroke="midnightblue" d="M458.93,-313.4C487.43,-301.89 527.29,-285.8 554.52,-274.81"/>
<polygon fill="midnightblue" stroke="midnightblue" points="555.97,-278 563.93,-271.01 553.35,-271.51 555.97,-278"/>
</g>
<!-- Node27 -->
<g id="node27" class="node">
<title>Node27</title>
<g id="a_node27"><a xlink:title=" ">
<polygon fill="none" stroke="#bfbfbf" points="655,-246.5 655,-276.5 797,-276.5 797,-246.5 655,-246.5"/>
<text text-anchor="start" x="663" y="-264.5" font-family="Helvetica,sans-Serif" font-size="10.00">../../../external/xsimd</text>
<text text-anchor="middle" x="726" y="-253.5" font-family="Helvetica,sans-Serif" font-size="10.00">/include/xsimd/xsimd.hpp</text>
</a>
</g>
</g>
<!-- Node7&#45;&gt;Node27 -->
<g id="edge33" class="edge">
<title>Node7&#45;&gt;Node27</title>
<path fill="none" stroke="midnightblue" d="M489.16,-313.48C536.61,-303.26 600.99,-289.41 650.65,-278.72"/>
<polygon fill="midnightblue" stroke="midnightblue" points="651.66,-282.08 660.7,-276.55 650.19,-275.24 651.66,-282.08"/>
</g>
<!-- Node28 -->
<g id="node28" class="node">
<title>Node28</title>
<g id="a_node28"><a xlink:href="_t_heap_buffer_8hpp.html" target="_top" xlink:title=" ">
<polygon fill="none" stroke="black" points="169.5,-252 169.5,-271 276.5,-271 276.5,-252 169.5,-252"/>
<text text-anchor="middle" x="223" y="-259" font-family="Helvetica,sans-Serif" font-size="10.00">../THeapBuffer.hpp</text>
</a>
</g>
</g>
<!-- Node7&#45;&gt;Node28 -->
<g id="edge34" class="edge">
<title>Node7&#45;&gt;Node28</title>
<path fill="none" stroke="midnightblue" d="M380.39,-313.4C344.03,-301.64 292.85,-285.09 258.84,-274.09"/>
<polygon fill="midnightblue" stroke="midnightblue" points="259.9,-270.75 249.31,-271.01 257.74,-277.41 259.9,-270.75"/>
</g>
<!-- Node12 -->
<g id="node12" class="node">
<title>Node12</title>
<g id="a_node12"><a xlink:href="_t_memory_pool_8hpp.html" target="_top" xlink:title=" ">
<polygon fill="none" stroke="black" points="704,-134.5 704,-153.5 814,-153.5 814,-134.5 704,-134.5"/>
<text text-anchor="middle" x="759" y="-141.5" font-family="Helvetica,sans-Serif" font-size="10.00">./TMemoryPool.hpp</text>
</a>
</g>
</g>
<!-- Node11&#45;&gt;Node12 -->
<g id="edge12" class="edge">
<title>Node11&#45;&gt;Node12</title>
<path fill="none" stroke="midnightblue" d="M912.57,-251.8C893.52,-238.48 855.96,-212.21 824,-190 809.31,-179.79 792.73,-168.31 779.99,-159.5"/>
<polygon fill="midnightblue" stroke="midnightblue" points="781.69,-156.42 771.47,-153.61 777.71,-162.18 781.69,-156.42"/>
</g>
<!-- Node24 -->
<g id="node24" class="node">
<title>Node24</title>
<g id="a_node24"><a xlink:href="_t_memory_pool_std_8hpp.html" target="_top" xlink:title=" ">
<polygon fill="none" stroke="black" points="871,-190.5 871,-209.5 997,-209.5 997,-190.5 871,-190.5"/>
<text text-anchor="middle" x="934" y="-197.5" font-family="Helvetica,sans-Serif" font-size="10.00">./TMemoryPoolStd.hpp</text>
</a>
</g>
</g>
<!-- Node11&#45;&gt;Node24 -->
<g id="edge25" class="edge">
<title>Node11&#45;&gt;Node24</title>
<path fill="none" stroke="midnightblue" d="M926.29,-251.98C927.56,-243.58 929.54,-230.48 931.18,-219.66"/>
<polygon fill="midnightblue" stroke="midnightblue" points="934.68,-219.92 932.71,-209.51 927.76,-218.87 934.68,-219.92"/>
</g>
<!-- Node25 -->
<g id="node25" class="node">
<title>Node25</title>
<g id="a_node25"><a xlink:href="_t_memory_pool_stack_8hpp.html" target="_top" xlink:title=" ">
<polygon fill="none" stroke="black" points="677.5,-190.5 677.5,-209.5 814.5,-209.5 814.5,-190.5 677.5,-190.5"/>
<text text-anchor="middle" x="746" y="-197.5" font-family="Helvetica,sans-Serif" font-size="10.00">./TMemoryPoolStack.hpp</text>
</a>
</g>
</g>
<!-- Node11&#45;&gt;Node25 -->
<g id="edge29" class="edge">
<title>Node11&#45;&gt;Node25</title>
<path fill="none" stroke="midnightblue" d="M899.35,-251.98C868.38,-241.68 816.13,-224.31 781.35,-212.75"/>
<polygon fill="midnightblue" stroke="midnightblue" points="782.19,-209.34 771.6,-209.51 779.98,-215.98 782.19,-209.34"/>
</g>
<!-- Node13 -->
<g id="node13" class="node">
<title>Node13</title>
<g id="a_node13"><a xlink:title=" ">
<polygon fill="none" stroke="#bfbfbf" points="837.5,-67.5 837.5,-86.5 882.5,-86.5 882.5,-67.5 837.5,-67.5"/>
<text text-anchor="middle" x="860" y="-74.5" font-family="Helvetica,sans-Serif" font-size="10.00">utility</text>
</a>
</g>
</g>
<!-- Node12&#45;&gt;Node13 -->
<g id="edge13" class="edge">
<title>Node12&#45;&gt;Node13</title>
<path fill="none" stroke="midnightblue" d="M772.42,-134.38C786.52,-125.33 809.32,-110.67 829,-98 832,-96.07 835.16,-94.03 838.27,-92.03"/>
<polygon fill="midnightblue" stroke="midnightblue" points="840.22,-94.93 846.73,-86.57 836.43,-89.05 840.22,-94.93"/>
</g>
<!-- Node14 -->
<g id="node14" class="node">
<title>Node14</title>
<g id="a_node14"><a xlink:title=" ">
<polygon fill="none" stroke="#bfbfbf" points="901,-67.5 901,-86.5 951,-86.5 951,-67.5 901,-67.5"/>
<text text-anchor="middle" x="926" y="-74.5" font-family="Helvetica,sans-Serif" font-size="10.00">cstdint</text>
</a>
</g>
</g>
<!-- Node12&#45;&gt;Node14 -->
<g id="edge14" class="edge">
<title>Node12&#45;&gt;Node14</title>
<path fill="none" stroke="midnightblue" d="M790.06,-134.46C817.47,-126.47 858.19,-113.46 892,-98 895.99,-96.17 900.12,-94.01 904.06,-91.79"/>
<polygon fill="midnightblue" stroke="midnightblue" points="905.95,-94.74 912.78,-86.64 902.39,-88.71 905.95,-94.74"/>
</g>
<!-- Node15 -->
<g id="node15" class="node">
<title>Node15</title>
<g id="a_node15"><a xlink:title=" ">
<polygon fill="none" stroke="#bfbfbf" points="1007.5,-67.5 1007.5,-86.5 1044.5,-86.5 1044.5,-67.5 1007.5,-67.5"/>
<text text-anchor="middle" x="1026" y="-74.5" font-family="Helvetica,sans-Serif" font-size="10.00">new</text>
</a>
</g>
</g>
<!-- Node12&#45;&gt;Node15 -->
<g id="edge15" class="edge">
<title>Node12&#45;&gt;Node15</title>
<path fill="none" stroke="midnightblue" d="M801.57,-134.42C842.41,-125.97 905.7,-112.28 960,-98 972.45,-94.73 986.08,-90.67 997.71,-87.08"/>
<polygon fill="midnightblue" stroke="midnightblue" points="998.83,-90.39 1007.33,-84.06 996.74,-83.71 998.83,-90.39"/>
</g>
<!-- Node16 -->
<g id="node16" class="node">
<title>Node16</title>
<g id="a_node16"><a xlink:href="_t_memory_util_8hpp.html" target="_top" xlink:title=" ">
<polygon fill="none" stroke="black" points="390.5,-67.5 390.5,-86.5 497.5,-86.5 497.5,-67.5 390.5,-67.5"/>
<text text-anchor="middle" x="444" y="-74.5" font-family="Helvetica,sans-Serif" font-size="10.00">./TMemoryUtil.hpp</text>
</a>
</g>
</g>
<!-- Node12&#45;&gt;Node16 -->
<g id="edge16" class="edge">
<title>Node12&#45;&gt;Node16</title>
<path fill="none" stroke="midnightblue" d="M703.51,-135.22C652.15,-127.53 573.88,-114.51 507,-98 497.51,-95.66 487.36,-92.66 478.04,-89.7"/>
<polygon fill="midnightblue" stroke="midnightblue" points="478.91,-86.3 468.32,-86.54 476.75,-92.96 478.91,-86.3"/>
</g>
<!-- Node12&#45;&gt;Node19 -->
<g id="edge19" class="edge">
<title>Node12&#45;&gt;Node19</title>
<path fill="none" stroke="midnightblue" d="M703.78,-138.09C614.12,-129.83 440.87,-112.63 381,-98 372.94,-96.03 364.43,-93.19 356.65,-90.26"/>
<polygon fill="midnightblue" stroke="midnightblue" points="357.86,-86.97 347.27,-86.56 355.3,-93.49 357.86,-86.97"/>
</g>
<!-- Node21 -->
<g id="node21" class="node">
<title>Node21</title>
<g id="a_node21"><a xlink:href="_t_spin_lock_8hpp.html" target="_top" xlink:title=" ">
<polygon fill="none" stroke="black" points="516,-67.5 516,-86.5 642,-86.5 642,-67.5 516,-67.5"/>
<text text-anchor="middle" x="579" y="-74.5" font-family="Helvetica,sans-Serif" font-size="10.00">../types/TSpinLock.hpp</text>
</a>
</g>
</g>
<!-- Node12&#45;&gt;Node21 -->
<g id="edge21" class="edge">
<title>Node12&#45;&gt;Node21</title>
<path fill="none" stroke="midnightblue" d="M735.1,-134.37C703.54,-122.97 647.82,-102.85 612.19,-89.99"/>
<polygon fill="midnightblue" stroke="midnightblue" points="613.31,-86.67 602.71,-86.56 610.93,-93.25 613.31,-86.67"/>
</g>
<!-- Node22 -->
<g id="node22" class="node">
<title>Node22</title>
<g id="a_node22"><a xlink:href="_t_lock_guard_8hpp.html" target="_top" xlink:title=" ">
<polygon fill="none" stroke="black" points="573.5,-0.5 573.5,-19.5 674.5,-19.5 674.5,-0.5 573.5,-0.5"/>
<text text-anchor="middle" x="624" y="-7.5" font-family="Helvetica,sans-Serif" font-size="10.00">./TLockGuard.hpp</text>
</a>
</g>
</g>
<!-- Node12&#45;&gt;Node22 -->
<g id="edge23" class="edge">
<title>Node12&#45;&gt;Node22</title>
<path fill="none" stroke="midnightblue" d="M742.54,-134.41C727.81,-126.25 706.12,-113.01 690,-98 667.2,-76.76 646.47,-46.94 634.55,-28.3"/>
<polygon fill="midnightblue" stroke="midnightblue" points="637.43,-26.3 629.16,-19.68 631.5,-30.02 637.43,-26.3"/>
</g>
<!-- Node23 -->
<g id="node23" class="node">
<title>Node23</title>
<g id="a_node23"><a xlink:title=" ">
<polygon fill="none" stroke="#bfbfbf" points="698.5,-56.5 698.5,-97.5 819.5,-97.5 819.5,-56.5 698.5,-56.5"/>
<text text-anchor="start" x="706.5" y="-85.5" font-family="Helvetica,sans-Serif" font-size="10.00">../../external/xsimd</text>
<text text-anchor="start" x="706.5" y="-74.5" font-family="Helvetica,sans-Serif" font-size="10.00">/include/xsimd/config</text>
<text text-anchor="middle" x="759" y="-63.5" font-family="Helvetica,sans-Serif" font-size="10.00">/xsimd_arch.hpp</text>
</a>
</g>
</g>
<!-- Node12&#45;&gt;Node23 -->
<g id="edge24" class="edge">
<title>Node12&#45;&gt;Node23</title>
<path fill="none" stroke="midnightblue" d="M759,-134.23C759,-127.36 759,-117.38 759,-107.73"/>
<polygon fill="midnightblue" stroke="midnightblue" points="762.5,-107.54 759,-97.54 755.5,-107.54 762.5,-107.54"/>
</g>
<!-- Node17 -->
<g id="node17" class="node">
<title>Node17</title>
<g id="a_node17"><a xlink:title=" ">
<polygon fill="none" stroke="#bfbfbf" points="13,-0.5 13,-19.5 63,-19.5 63,-0.5 13,-0.5"/>
<text text-anchor="middle" x="38" y="-7.5" font-family="Helvetica,sans-Serif" font-size="10.00">cstring</text>
</a>
</g>
</g>
<!-- Node16&#45;&gt;Node17 -->
<g id="edge17" class="edge">
<title>Node16&#45;&gt;Node17</title>
<path fill="none" stroke="midnightblue" d="M420.64,-67.5C408.88,-63.5 394.33,-58.97 381,-56 270.16,-31.34 135.96,-18.56 73.35,-13.56"/>
<polygon fill="midnightblue" stroke="midnightblue" points="73.47,-10.06 63.23,-12.77 72.92,-17.04 73.47,-10.06"/>
</g>
<!-- Node18 -->
<g id="node18" class="node">
<title>Node18</title>
<g id="a_node18"><a xlink:title=" ">
<polygon fill="none" stroke="#bfbfbf" points="417.5,-0.5 417.5,-19.5 470.5,-19.5 470.5,-0.5 417.5,-0.5"/>
<text text-anchor="middle" x="444" y="-7.5" font-family="Helvetica,sans-Serif" font-size="10.00">stdlib.h</text>
</a>
</g>
</g>
<!-- Node16&#45;&gt;Node18 -->
<g id="edge18" class="edge">
<title>Node16&#45;&gt;Node18</title>
<path fill="none" stroke="midnightblue" d="M444,-67.23C444,-57.68 444,-42.12 444,-29.78"/>
<polygon fill="midnightblue" stroke="midnightblue" points="447.5,-29.63 444,-19.63 440.5,-29.63 447.5,-29.63"/>
</g>
<!-- Node20 -->
<g id="node20" class="node">
<title>Node20</title>
<g id="a_node20"><a xlink:title=" ">
<polygon fill="none" stroke="#bfbfbf" points="302,-0.5 302,-19.5 354,-19.5 354,-0.5 302,-0.5"/>
<text text-anchor="middle" x="328" y="-7.5" font-family="Helvetica,sans-Serif" font-size="10.00">cassert</text>
</a>
</g>
</g>
<!-- Node19&#45;&gt;Node20 -->
<g id="edge20" class="edge">
<title>Node19&#45;&gt;Node20</title>
<path fill="none" stroke="midnightblue" d="M328,-67.23C328,-57.68 328,-42.12 328,-29.78"/>
<polygon fill="midnightblue" stroke="midnightblue" points="331.5,-29.63 328,-19.63 324.5,-29.63 331.5,-29.63"/>
</g>
<!-- Node21&#45;&gt;Node22 -->
<g id="edge22" class="edge">
<title>Node21&#45;&gt;Node22</title>
<path fill="none" stroke="midnightblue" d="M585.07,-67.23C592.02,-57.2 603.57,-40.51 612.29,-27.92"/>
<polygon fill="midnightblue" stroke="midnightblue" points="615.21,-29.84 618.03,-19.63 609.46,-25.86 615.21,-29.84"/>
</g>
<!-- Node24&#45;&gt;Node12 -->
<g id="edge27" class="edge">
<title>Node24&#45;&gt;Node12</title>
<path fill="none" stroke="midnightblue" d="M906.27,-190.44C876.57,-181.28 829.28,-166.69 796.33,-156.52"/>
<polygon fill="midnightblue" stroke="midnightblue" points="797.19,-153.12 786.6,-153.52 795.12,-159.81 797.19,-153.12"/>
</g>
<!-- Node24&#45;&gt;Node18 -->
<g id="edge26" class="edge">
<title>Node24&#45;&gt;Node18</title>
<path fill="none" stroke="midnightblue" d="M939.91,-190.24C955.76,-165.59 995.63,-94.88 960,-56 955.94,-51.57 598.68,-23.15 481.07,-13.9"/>
<polygon fill="midnightblue" stroke="midnightblue" points="481.02,-10.39 470.77,-13.09 480.47,-17.36 481.02,-10.39"/>
</g>
<!-- Node24&#45;&gt;Node19 -->
<g id="edge28" class="edge">
<title>Node24&#45;&gt;Node19</title>
<path fill="none" stroke="midnightblue" d="M880.14,-190.43C760.38,-171.18 475.16,-124.13 381,-98 373.29,-95.86 365.13,-93.06 357.58,-90.24"/>
<polygon fill="midnightblue" stroke="midnightblue" points="358.69,-86.91 348.1,-86.56 356.16,-93.44 358.69,-86.91"/>
</g>
<!-- Node25&#45;&gt;Node12 -->
<g id="edge30" class="edge">
<title>Node25&#45;&gt;Node12</title>
<path fill="none" stroke="midnightblue" d="M748.15,-190.08C749.87,-182.93 752.35,-172.64 754.5,-163.69"/>
<polygon fill="midnightblue" stroke="midnightblue" points="757.96,-164.29 756.89,-153.75 751.15,-162.65 757.96,-164.29"/>
</g>
<!-- Node25&#45;&gt;Node19 -->
<g id="edge31" class="edge">
<title>Node25&#45;&gt;Node19</title>
<path fill="none" stroke="midnightblue" d="M711.22,-190.5C645.94,-174.29 500.86,-137.11 381,-98 373.74,-95.63 366,-92.86 358.75,-90.14"/>
<polygon fill="midnightblue" stroke="midnightblue" points="359.84,-86.81 349.25,-86.52 357.35,-93.35 359.84,-86.81"/>
</g>
<!-- Node28&#45;&gt;Node8 -->
<g id="edge35" class="edge">
<title>Node28&#45;&gt;Node8</title>
<path fill="none" stroke="midnightblue" d="M236.75,-251.98C252.37,-242.3 278.06,-226.37 296.58,-214.89"/>
<polygon fill="midnightblue" stroke="midnightblue" points="298.62,-217.75 305.27,-209.51 294.93,-211.8 298.62,-217.75"/>
</g>
<!-- Node28&#45;&gt;Node17 -->
<g id="edge37" class="edge">
<title>Node28&#45;&gt;Node17</title>
<path fill="none" stroke="midnightblue" d="M169.27,-259.03C131.85,-254.95 83.98,-243 57,-210 13.82,-157.18 25.75,-68.13 33.62,-29.64"/>
<polygon fill="midnightblue" stroke="midnightblue" points="37.05,-30.32 35.77,-19.81 30.21,-28.83 37.05,-30.32"/>
</g>
<!-- Node29 -->
<g id="node29" class="node">
<title>Node29</title>
<g id="a_node29"><a xlink:title=" ">
<polygon fill="none" stroke="#bfbfbf" points="66.5,-190.5 66.5,-209.5 113.5,-209.5 113.5,-190.5 66.5,-190.5"/>
<text text-anchor="middle" x="90" y="-197.5" font-family="Helvetica,sans-Serif" font-size="10.00">cmath</text>
</a>
</g>
</g>
<!-- Node28&#45;&gt;Node29 -->
<g id="edge36" class="edge">
<title>Node28&#45;&gt;Node29</title>
<path fill="none" stroke="midnightblue" d="M203.94,-251.98C181.53,-241.95 144.09,-225.2 118.29,-213.65"/>
<polygon fill="midnightblue" stroke="midnightblue" points="119.58,-210.4 109.02,-209.51 116.72,-216.79 119.58,-210.4"/>
</g>
<!-- Node30 -->
<g id="node30" class="node">
<title>Node30</title>
<g id="a_node30"><a xlink:href="_t_allocator_8hpp.html" target="_top" xlink:title=" ">
<polygon fill="none" stroke="black" points="131.5,-190.5 131.5,-209.5 268.5,-209.5 268.5,-190.5 131.5,-190.5"/>
<text text-anchor="middle" x="200" y="-197.5" font-family="Helvetica,sans-Serif" font-size="10.00">../memory/TAllocator.hpp</text>
</a>
</g>
</g>
<!-- Node28&#45;&gt;Node30 -->
<g id="edge38" class="edge">
<title>Node28&#45;&gt;Node30</title>
<path fill="none" stroke="midnightblue" d="M219.7,-251.98C216.39,-243.4 211.18,-229.93 206.95,-218.98"/>
<polygon fill="midnightblue" stroke="midnightblue" points="210.16,-217.57 203.29,-209.51 203.63,-220.1 210.16,-217.57"/>
</g>
<!-- Node30&#45;&gt;Node9 -->
<g id="edge41" class="edge">
<title>Node30&#45;&gt;Node9</title>
<path fill="none" stroke="midnightblue" d="M236.29,-190.44C280.56,-180 354.72,-162.52 396.97,-152.55"/>
<polygon fill="midnightblue" stroke="midnightblue" points="397.8,-155.95 406.73,-150.25 396.2,-149.14 397.8,-155.95"/>
</g>
<!-- Node30&#45;&gt;Node18 -->
<g id="edge42" class="edge">
<title>Node30&#45;&gt;Node18</title>
<path fill="none" stroke="midnightblue" d="M208.32,-190.29C216.25,-181.63 228.11,-167.7 236,-154 259.31,-113.51 239.18,-87.15 274,-56 293.54,-38.52 363.36,-24.24 407.22,-16.74"/>
<polygon fill="midnightblue" stroke="midnightblue" points="407.94,-20.16 417.22,-15.06 406.78,-13.26 407.94,-20.16"/>
</g>
<!-- Node30&#45;&gt;Node19 -->
<g id="edge39" class="edge">
<title>Node30&#45;&gt;Node19</title>
<path fill="none" stroke="midnightblue" d="M216.42,-190.37C231.12,-182.17 252.8,-168.92 269,-154 288.31,-136.22 306.15,-111.63 317.04,-95.29"/>
<polygon fill="midnightblue" stroke="midnightblue" points="320.09,-97.02 322.61,-86.74 314.22,-93.2 320.09,-97.02"/>
</g>
<!-- Node31 -->
<g id="node31" class="node">
<title>Node31</title>
<g id="a_node31"><a xlink:title=" ">
<polygon fill="none" stroke="#bfbfbf" points="171,-134.5 171,-153.5 227,-153.5 227,-134.5 171,-134.5"/>
<text text-anchor="middle" x="199" y="-141.5" font-family="Helvetica,sans-Serif" font-size="10.00">stddef.h</text>
</a>
</g>
</g>
<!-- Node30&#45;&gt;Node31 -->
<g id="edge40" class="edge">
<title>Node30&#45;&gt;Node31</title>
<path fill="none" stroke="midnightblue" d="M199.83,-190.08C199.7,-183.01 199.52,-172.86 199.35,-163.99"/>
<polygon fill="midnightblue" stroke="midnightblue" points="202.85,-163.68 199.16,-153.75 195.85,-163.81 202.85,-163.68"/>
</g>
<!-- Node32&#45;&gt;Node7 -->
<g id="edge45" class="edge">
<title>Node32&#45;&gt;Node7</title>
<path fill="none" stroke="midnightblue" d="M371.33,-380.36C380.79,-371.23 392.06,-360.35 401.74,-351"/>
<polygon fill="midnightblue" stroke="midnightblue" points="404.34,-353.36 409.1,-343.89 399.47,-348.32 404.34,-353.36"/>
</g>
<!-- Node33&#45;&gt;Node17 -->
<g id="edge48" class="edge">
<title>Node33&#45;&gt;Node17</title>
<path fill="none" stroke="midnightblue" d="M198.79,-313.45C126.91,-291.03 0,-245.2 0,-201 0,-201 0,-201 0,-143 0,-100.85 18.11,-53.98 29.33,-29"/>
<polygon fill="midnightblue" stroke="midnightblue" points="32.61,-30.26 33.64,-19.71 26.26,-27.31 32.61,-30.26"/>
</g>
<!-- Node33&#45;&gt;Node28 -->
<g id="edge47" class="edge">
<title>Node33&#45;&gt;Node28</title>
<path fill="none" stroke="midnightblue" d="M241.79,-313.4C238.27,-303.86 233.59,-291.18 229.78,-280.86"/>
<polygon fill="midnightblue" stroke="midnightblue" points="232.96,-279.36 226.21,-271.19 226.39,-281.79 232.96,-279.36"/>
</g>
<!-- Node34&#45;&gt;Node4 -->
<g id="edge54" class="edge">
<title>Node34&#45;&gt;Node4</title>
<path fill="none" stroke="midnightblue" d="M897.38,-391.5C856.37,-378.87 779.3,-355.15 733.31,-340.99"/>
<polygon fill="midnightblue" stroke="midnightblue" points="734.31,-337.63 723.72,-338.03 732.25,-344.32 734.31,-337.63"/>
</g>
<!-- Node34&#45;&gt;Node9 -->
<g id="edge53" class="edge">
<title>Node34&#45;&gt;Node9</title>
<path fill="none" stroke="midnightblue" d="M920.96,-391.42C908.14,-365.21 865.72,-285.55 806,-246 753.51,-211.24 729.83,-226.23 669,-210 594.36,-190.08 506.78,-166.25 460.84,-153.71"/>
<polygon fill="midnightblue" stroke="midnightblue" points="461.72,-150.32 451.15,-151.06 459.88,-157.07 461.72,-150.32"/>
</g>
<!-- Node34&#45;&gt;Node15 -->
<g id="edge52" class="edge">
<title>Node34&#45;&gt;Node15</title>
<path fill="none" stroke="midnightblue" d="M937.67,-391.32C964.57,-371.74 1025,-321.24 1025,-262.5 1025,-262.5 1025,-262.5 1025,-199 1025,-162.71 1025.46,-120.31 1025.75,-96.56"/>
<polygon fill="midnightblue" stroke="midnightblue" points="1029.25,-96.55 1025.88,-86.51 1022.25,-96.46 1029.25,-96.55"/>
</g>
<!-- Node35 -->
<g id="node35" class="node">
<title>Node35</title>
<g id="a_node35"><a xlink:title=" ">
<polygon fill="none" stroke="#bfbfbf" points="1053.5,-319 1053.5,-338 1102.5,-338 1102.5,-319 1053.5,-319"/>
<text text-anchor="middle" x="1078" y="-326" font-family="Helvetica,sans-Serif" font-size="10.00">cstdlib</text>
</a>
</g>
</g>
<!-- Node34&#45;&gt;Node35 -->
<g id="edge50" class="edge">
<title>Node34&#45;&gt;Node35</title>
<path fill="none" stroke="midnightblue" d="M943.46,-391.5C969.99,-379.27 1019.13,-356.63 1050.11,-342.35"/>
<polygon fill="midnightblue" stroke="midnightblue" points="1051.86,-345.4 1059.48,-338.03 1048.93,-339.04 1051.86,-345.4"/>
</g>
<!-- Node36 -->
<g id="node36" class="node">
<title>Node36</title>
<g id="a_node36"><a xlink:title=" ">
<polygon fill="none" stroke="#bfbfbf" points="1120.5,-319 1120.5,-338 1173.5,-338 1173.5,-319 1120.5,-319"/>
<text text-anchor="middle" x="1147" y="-326" font-family="Helvetica,sans-Serif" font-size="10.00">cstddef</text>
</a>
</g>
</g>
<!-- Node34&#45;&gt;Node36 -->
<g id="edge51" class="edge">
<title>Node34&#45;&gt;Node36</title>
<path fill="none" stroke="midnightblue" d="M957.08,-391.46C994.59,-381.24 1058.36,-363.09 1112,-344 1113.86,-343.34 1115.76,-342.63 1117.68,-341.9"/>
<polygon fill="midnightblue" stroke="midnightblue" points="1119.15,-345.08 1127.15,-338.14 1116.56,-338.58 1119.15,-345.08"/>
</g>
<!-- Node38&#45;&gt;Node2 -->
<g id="edge58" class="edge">
<title>Node38&#45;&gt;Node2</title>
<path fill="none" stroke="midnightblue" d="M283.57,-570.33C284.78,-557.18 288.54,-531.87 300,-514 307.94,-501.63 320.4,-491.02 331.46,-483.22"/>
<polygon fill="midnightblue" stroke="midnightblue" points="333.53,-486.05 339.91,-477.59 329.65,-480.22 333.53,-486.05"/>
</g>
<!-- Node38&#45;&gt;Node5 -->
<g id="edge61" class="edge">
<title>Node38&#45;&gt;Node5</title>
<path fill="none" stroke="midnightblue" d="M275.72,-570.46C252.16,-542.85 177.71,-455.58 146.25,-418.71"/>
<polygon fill="midnightblue" stroke="midnightblue" points="148.72,-416.2 139.57,-410.87 143.39,-420.75 148.72,-416.2"/>
</g>
<!-- Node39 -->
<g id="node39" class="node">
<title>Node39</title>
<g id="a_node39"><a xlink:href="vae__effect_8hpp.html" target="_top" xlink:title=" ">
<polygon fill="none" stroke="black" points="309.5,-514.5 309.5,-533.5 404.5,-533.5 404.5,-514.5 309.5,-514.5"/>
<text text-anchor="middle" x="357" y="-521.5" font-family="Helvetica,sans-Serif" font-size="10.00">./vae_effect.hpp</text>
</a>
</g>
</g>
<!-- Node38&#45;&gt;Node39 -->
<g id="edge59" class="edge">
<title>Node38&#45;&gt;Node39</title>
<path fill="none" stroke="midnightblue" d="M294.89,-570.32C306.15,-562.11 323.29,-549.6 336.71,-539.81"/>
<polygon fill="midnightblue" stroke="midnightblue" points="338.88,-542.56 344.89,-533.83 334.75,-536.9 338.88,-542.56"/>
</g>
<!-- Node39&#45;&gt;Node2 -->
<g id="edge60" class="edge">
<title>Node39&#45;&gt;Node2</title>
<path fill="none" stroke="midnightblue" d="M356.67,-514.08C356.41,-507.01 356.03,-496.86 355.7,-487.99"/>
<polygon fill="midnightblue" stroke="midnightblue" points="359.19,-487.61 355.32,-477.75 352.2,-487.87 359.19,-487.61"/>
</g>
</g>
</svg>
