<?xml version="1.0" encoding="UTF-8" standalone="no"?>
<!DOCTYPE svg PUBLIC "-//W3C//DTD SVG 1.1//EN"
 "http://www.w3.org/Graphics/SVG/1.1/DTD/svg11.dtd">
<!-- Generated by graphviz version 2.50.0 (0)
 -->
<!-- Title: vae_voice_hrtf.hpp Pages: 1 -->
<svg width="494pt" height="308pt"
 viewBox="0.00 0.00 494.00 308.00" xmlns="http://www.w3.org/2000/svg" xmlns:xlink="http://www.w3.org/1999/xlink">
<g id="graph0" class="graph" transform="scale(1 1) rotate(0) translate(4 304)">
<title>vae_voice_hrtf.hpp</title>
<!-- Node1 -->
<g id="node1" class="node">
<title>Node1</title>
<g id="a_node1"><a xlink:title=" ">
<polygon fill="#bfbfbf" stroke="black" points="19.5,-280.5 19.5,-299.5 129.5,-299.5 129.5,-280.5 19.5,-280.5"/>
<text text-anchor="middle" x="74.5" y="-287.5" font-family="Helvetica,sans-Serif" font-size="10.00">vae_voice_hrtf.hpp</text>
</a>
</g>
</g>
<!-- Node2 -->
<g id="node2" class="node">
<title>Node2</title>
<g id="a_node2"><a xlink:href="vae__hrtf__util_8hpp.html" target="_top" xlink:title=" ">
<polygon fill="none" stroke="black" points="25,-224.5 25,-243.5 124,-243.5 124,-224.5 25,-224.5"/>
<text text-anchor="middle" x="74.5" y="-231.5" font-family="Helvetica,sans-Serif" font-size="10.00">vae_hrtf_util.hpp</text>
</a>
</g>
</g>
<!-- Node1&#45;&gt;Node2 -->
<g id="edge1" class="edge">
<title>Node1&#45;&gt;Node2</title>
<path fill="none" stroke="midnightblue" d="M74.5,-269.8C74.5,-260.91 74.5,-250.78 74.5,-243.75"/>
<polygon fill="midnightblue" stroke="midnightblue" points="71,-270.08 74.5,-280.08 78,-270.08 71,-270.08"/>
</g>
<!-- Node3 -->
<g id="node3" class="node">
<title>Node3</title>
<g id="a_node3"><a xlink:href="vae__spatial__processor_8hpp.html" target="_top" xlink:title=" ">
<polygon fill="none" stroke="black" points="0,-112.5 0,-131.5 145,-131.5 145,-112.5 0,-112.5"/>
<text text-anchor="middle" x="72.5" y="-119.5" font-family="Helvetica,sans-Serif" font-size="10.00">vae_spatial_processor.hpp</text>
</a>
</g>
</g>
<!-- Node1&#45;&gt;Node3 -->
<g id="edge6" class="edge">
<title>Node1&#45;&gt;Node3</title>
<path fill="none" stroke="midnightblue" d="M46.67,-275.27C34.76,-267.81 22.1,-257.34 15.5,-244 -5.2,-202.17 41.74,-151.43 62.87,-131.56"/>
<polygon fill="midnightblue" stroke="midnightblue" points="45.11,-278.41 55.52,-280.4 48.62,-272.36 45.11,-278.41"/>
</g>
<!-- Node7 -->
<g id="node7" class="node">
<title>Node7</title>
<g id="a_node7"><a xlink:href="vae__voice__manager_8hpp.html" target="_top" xlink:title="Holds all voices and starts/stops them.">
<polygon fill="none" stroke="black" points="172.5,-224.5 172.5,-243.5 306.5,-243.5 306.5,-224.5 172.5,-224.5"/>
<text text-anchor="middle" x="239.5" y="-231.5" font-family="Helvetica,sans-Serif" font-size="10.00">vae_voice_manager.hpp</text>
</a>
</g>
</g>
<!-- Node1&#45;&gt;Node7 -->
<g id="edge7" class="edge">
<title>Node1&#45;&gt;Node7</title>
<path fill="none" stroke="midnightblue" d="M110.24,-277.3C141.33,-267.13 185.65,-252.62 213.48,-243.52"/>
<polygon fill="midnightblue" stroke="midnightblue" points="109.06,-274.01 100.64,-280.44 111.24,-280.66 109.06,-274.01"/>
</g>
<!-- Node2&#45;&gt;Node3 -->
<g id="edge2" class="edge">
<title>Node2&#45;&gt;Node3</title>
<path fill="none" stroke="midnightblue" d="M66.44,-214.83C63.29,-206.78 60.07,-197.09 58.5,-188 55.01,-167.75 63.14,-144.24 68.42,-131.79"/>
<polygon fill="midnightblue" stroke="midnightblue" points="63.31,-216.4 70.39,-224.28 69.76,-213.7 63.31,-216.4"/>
</g>
<!-- Node4 -->
<g id="node4" class="node">
<title>Node4</title>
<g id="a_node4"><a xlink:href="vae__engine_8hpp.html" target="_top" xlink:title=" ">
<polygon fill="none" stroke="black" points="208.5,-56.5 208.5,-75.5 302.5,-75.5 302.5,-56.5 208.5,-56.5"/>
<text text-anchor="middle" x="255.5" y="-63.5" font-family="Helvetica,sans-Serif" font-size="10.00">vae_engine.hpp</text>
</a>
</g>
</g>
<!-- Node3&#45;&gt;Node4 -->
<g id="edge3" class="edge">
<title>Node3&#45;&gt;Node4</title>
<path fill="none" stroke="midnightblue" d="M111.24,-109.57C145.76,-99.38 195.51,-84.7 226.64,-75.52"/>
<polygon fill="midnightblue" stroke="midnightblue" points="110.1,-106.26 101.5,-112.44 112.08,-112.97 110.1,-106.26"/>
</g>
<!-- Node5 -->
<g id="node5" class="node">
<title>Node5</title>
<g id="a_node5"><a xlink:href="main_8cpp.html" target="_top" xlink:title=" ">
<polygon fill="none" stroke="black" points="178.5,-0.5 178.5,-19.5 240.5,-19.5 240.5,-0.5 178.5,-0.5"/>
<text text-anchor="middle" x="209.5" y="-7.5" font-family="Helvetica,sans-Serif" font-size="10.00">main.cpp</text>
</a>
</g>
</g>
<!-- Node4&#45;&gt;Node5 -->
<g id="edge4" class="edge">
<title>Node4&#45;&gt;Node5</title>
<path fill="none" stroke="midnightblue" d="M241.39,-48.43C233.32,-38.97 223.54,-27.48 216.95,-19.75"/>
<polygon fill="midnightblue" stroke="midnightblue" points="238.75,-50.74 247.9,-56.08 244.08,-46.2 238.75,-50.74"/>
</g>
<!-- Node6 -->
<g id="node6" class="node">
<title>Node6</title>
<g id="a_node6"><a xlink:href="vae__pimpl_8cpp.html" target="_top" xlink:title=" ">
<polygon fill="none" stroke="black" points="258.5,-0.5 258.5,-19.5 346.5,-19.5 346.5,-0.5 258.5,-0.5"/>
<text text-anchor="middle" x="302.5" y="-7.5" font-family="Helvetica,sans-Serif" font-size="10.00">vae_pimpl.cpp</text>
</a>
</g>
</g>
<!-- Node4&#45;&gt;Node6 -->
<g id="edge5" class="edge">
<title>Node4&#45;&gt;Node6</title>
<path fill="none" stroke="midnightblue" d="M269.92,-48.43C278.16,-38.97 288.15,-27.48 294.88,-19.75"/>
<polygon fill="midnightblue" stroke="midnightblue" points="267.19,-46.24 263.26,-56.08 272.47,-50.84 267.19,-46.24"/>
</g>
<!-- Node7&#45;&gt;Node3 -->
<g id="edge16" class="edge">
<title>Node7&#45;&gt;Node3</title>
<path fill="none" stroke="midnightblue" d="M162.12,-224.37C136.74,-217.98 110.26,-206.96 91.5,-188 76.29,-172.62 73.13,-145.77 72.55,-131.88"/>
<polygon fill="midnightblue" stroke="midnightblue" points="161.62,-227.85 172.15,-226.68 163.19,-221.03 161.62,-227.85"/>
</g>
<!-- Node7&#45;&gt;Node4 -->
<g id="edge8" class="edge">
<title>Node7&#45;&gt;Node4</title>
<path fill="none" stroke="midnightblue" d="M245.4,-214.67C247.74,-206.58 250.18,-196.91 251.5,-188 257.68,-146.21 256.62,-95.45 255.88,-75.57"/>
<polygon fill="midnightblue" stroke="midnightblue" points="241.97,-213.91 242.39,-224.5 248.67,-215.96 241.97,-213.91"/>
</g>
<!-- Node8 -->
<g id="node8" class="node">
<title>Node8</title>
<g id="a_node8"><a xlink:href="vae__mixer__processor_8hpp.html" target="_top" xlink:title=" ">
<polygon fill="none" stroke="black" points="283.5,-112.5 283.5,-131.5 423.5,-131.5 423.5,-112.5 283.5,-112.5"/>
<text text-anchor="middle" x="353.5" y="-119.5" font-family="Helvetica,sans-Serif" font-size="10.00">vae_mixer_processor.hpp</text>
</a>
</g>
</g>
<!-- Node7&#45;&gt;Node8 -->
<g id="edge9" class="edge">
<title>Node7&#45;&gt;Node8</title>
<path fill="none" stroke="midnightblue" d="M255.87,-217.21C280.3,-193.63 325.49,-150.03 344.6,-131.59"/>
<polygon fill="midnightblue" stroke="midnightblue" points="253.21,-214.91 248.45,-224.37 258.07,-219.94 253.21,-214.91"/>
</g>
<!-- Node9 -->
<g id="node9" class="node">
<title>Node9</title>
<g id="a_node9"><a xlink:href="vae__processor_8hpp.html" target="_top" xlink:title=" ">
<polygon fill="none" stroke="black" points="379,-168.5 379,-187.5 486,-187.5 486,-168.5 379,-168.5"/>
<text text-anchor="middle" x="432.5" y="-175.5" font-family="Helvetica,sans-Serif" font-size="10.00">vae_processor.hpp</text>
</a>
</g>
</g>
<!-- Node7&#45;&gt;Node9 -->
<g id="edge11" class="edge">
<title>Node7&#45;&gt;Node9</title>
<path fill="none" stroke="midnightblue" d="M279.89,-221.7C316.32,-211.51 369.09,-196.74 402.06,-187.52"/>
<polygon fill="midnightblue" stroke="midnightblue" points="278.77,-218.38 270.08,-224.44 280.65,-225.12 278.77,-218.38"/>
</g>
<!-- Node10 -->
<g id="node10" class="node">
<title>Node10</title>
<g id="a_node10"><a xlink:href="vae__spatial__manager_8hpp.html" target="_top" xlink:title=" ">
<polygon fill="none" stroke="black" points="101,-168.5 101,-187.5 242,-187.5 242,-168.5 101,-168.5"/>
<text text-anchor="middle" x="171.5" y="-175.5" font-family="Helvetica,sans-Serif" font-size="10.00">vae_spatial_manager.hpp</text>
</a>
</g>
</g>
<!-- Node7&#45;&gt;Node10 -->
<g id="edge13" class="edge">
<title>Node7&#45;&gt;Node10</title>
<path fill="none" stroke="midnightblue" d="M220.74,-218.1C208.5,-208.38 192.94,-196.03 182.62,-187.83"/>
<polygon fill="midnightblue" stroke="midnightblue" points="218.57,-220.85 228.57,-224.32 222.92,-215.36 218.57,-220.85"/>
</g>
<!-- Node8&#45;&gt;Node4 -->
<g id="edge10" class="edge">
<title>Node8&#45;&gt;Node4</title>
<path fill="none" stroke="midnightblue" d="M328.91,-107.45C310.82,-97.48 286.77,-84.23 271.21,-75.65"/>
<polygon fill="midnightblue" stroke="midnightblue" points="327.31,-110.56 337.75,-112.32 330.69,-104.43 327.31,-110.56"/>
</g>
<!-- Node9&#45;&gt;Node4 -->
<g id="edge12" class="edge">
<title>Node9&#45;&gt;Node4</title>
<path fill="none" stroke="midnightblue" d="M438.15,-158.28C441.21,-144.1 442.56,-124.93 432.5,-112 416.69,-91.66 349.63,-79.01 302.76,-72.48"/>
<polygon fill="midnightblue" stroke="midnightblue" points="434.66,-157.8 435.52,-168.36 441.43,-159.56 434.66,-157.8"/>
</g>
<!-- Node10&#45;&gt;Node3 -->
<g id="edge15" class="edge">
<title>Node10&#45;&gt;Node3</title>
<path fill="none" stroke="midnightblue" d="M146.66,-163.45C128.39,-153.48 104.08,-140.23 88.37,-131.65"/>
<polygon fill="midnightblue" stroke="midnightblue" points="145.14,-166.61 155.59,-168.32 148.49,-160.46 145.14,-166.61"/>
</g>
<!-- Node10&#45;&gt;Node4 -->
<g id="edge14" class="edge">
<title>Node10&#45;&gt;Node4</title>
<path fill="none" stroke="midnightblue" d="M184.27,-160.27C202.43,-136.49 235.04,-93.79 248.94,-75.59"/>
<polygon fill="midnightblue" stroke="midnightblue" points="181.38,-158.3 178.09,-168.37 186.94,-162.54 181.38,-158.3"/>
</g>
</g>
</svg>
