<?xml version="1.0" encoding="UTF-8" standalone="no"?>
<!DOCTYPE svg PUBLIC "-//W3C//DTD SVG 1.1//EN"
 "http://www.w3.org/Graphics/SVG/1.1/DTD/svg11.dtd">
<!-- Generated by graphviz version 2.50.0 (0)
 -->
<!-- Title: vae_hrtf.hpp Pages: 1 -->
<svg width="238pt" height="252pt"
 viewBox="0.00 0.00 238.00 252.00" xmlns="http://www.w3.org/2000/svg" xmlns:xlink="http://www.w3.org/1999/xlink">
<g id="graph0" class="graph" transform="scale(1 1) rotate(0) translate(4 248)">
<title>vae_hrtf.hpp</title>
<!-- Node1 -->
<g id="node1" class="node">
<title>Node1</title>
<g id="a_node1"><a xlink:title=" ">
<polygon fill="#bfbfbf" stroke="black" points="79.5,-224.5 79.5,-243.5 157.5,-243.5 157.5,-224.5 79.5,-224.5"/>
<text text-anchor="middle" x="118.5" y="-231.5" font-family="Helvetica,sans-Serif" font-size="10.00">vae_hrtf.hpp</text>
</a>
</g>
</g>
<!-- Node2 -->
<g id="node2" class="node">
<title>Node2</title>
<g id="a_node2"><a xlink:href="vae__hrtf__loader_8hpp.html" target="_top" xlink:title=" ">
<polygon fill="none" stroke="black" points="0,-168.5 0,-187.5 113,-187.5 113,-168.5 0,-168.5"/>
<text text-anchor="middle" x="56.5" y="-175.5" font-family="Helvetica,sans-Serif" font-size="10.00">vae_hrtf_loader.hpp</text>
</a>
</g>
</g>
<!-- Node1&#45;&gt;Node2 -->
<g id="edge1" class="edge">
<title>Node1&#45;&gt;Node2</title>
<path fill="none" stroke="midnightblue" d="M100.75,-217.54C89.69,-207.91 75.87,-195.87 66.64,-187.83"/>
<polygon fill="midnightblue" stroke="midnightblue" points="98.7,-220.4 108.54,-224.32 103.3,-215.12 98.7,-220.4"/>
</g>
<!-- Node7 -->
<g id="node7" class="node">
<title>Node7</title>
<g id="a_node7"><a xlink:href="vae__hrtf__util_8hpp.html" target="_top" xlink:title=" ">
<polygon fill="none" stroke="black" points="131,-168.5 131,-187.5 230,-187.5 230,-168.5 131,-168.5"/>
<text text-anchor="middle" x="180.5" y="-175.5" font-family="Helvetica,sans-Serif" font-size="10.00">vae_hrtf_util.hpp</text>
</a>
</g>
</g>
<!-- Node1&#45;&gt;Node7 -->
<g id="edge6" class="edge">
<title>Node1&#45;&gt;Node7</title>
<path fill="none" stroke="midnightblue" d="M136.25,-217.54C147.31,-207.91 161.13,-195.87 170.36,-187.83"/>
<polygon fill="midnightblue" stroke="midnightblue" points="133.7,-215.12 128.46,-224.32 138.3,-220.4 133.7,-215.12"/>
</g>
<!-- Node3 -->
<g id="node3" class="node">
<title>Node3</title>
<g id="a_node3"><a xlink:href="vae__spatial__processor_8hpp.html" target="_top" xlink:title=" ">
<polygon fill="none" stroke="black" points="46,-112.5 46,-131.5 191,-131.5 191,-112.5 46,-112.5"/>
<text text-anchor="middle" x="118.5" y="-119.5" font-family="Helvetica,sans-Serif" font-size="10.00">vae_spatial_processor.hpp</text>
</a>
</g>
</g>
<!-- Node2&#45;&gt;Node3 -->
<g id="edge2" class="edge">
<title>Node2&#45;&gt;Node3</title>
<path fill="none" stroke="midnightblue" d="M74.25,-161.54C85.31,-151.91 99.13,-139.87 108.36,-131.83"/>
<polygon fill="midnightblue" stroke="midnightblue" points="71.7,-159.12 66.46,-168.32 76.3,-164.4 71.7,-159.12"/>
</g>
<!-- Node4 -->
<g id="node4" class="node">
<title>Node4</title>
<g id="a_node4"><a xlink:href="vae__engine_8hpp.html" target="_top" xlink:title=" ">
<polygon fill="none" stroke="black" points="71.5,-56.5 71.5,-75.5 165.5,-75.5 165.5,-56.5 71.5,-56.5"/>
<text text-anchor="middle" x="118.5" y="-63.5" font-family="Helvetica,sans-Serif" font-size="10.00">vae_engine.hpp</text>
</a>
</g>
</g>
<!-- Node3&#45;&gt;Node4 -->
<g id="edge3" class="edge">
<title>Node3&#45;&gt;Node4</title>
<path fill="none" stroke="midnightblue" d="M118.5,-101.8C118.5,-92.91 118.5,-82.78 118.5,-75.75"/>
<polygon fill="midnightblue" stroke="midnightblue" points="115,-102.08 118.5,-112.08 122,-102.08 115,-102.08"/>
</g>
<!-- Node5 -->
<g id="node5" class="node">
<title>Node5</title>
<g id="a_node5"><a xlink:href="main_8cpp.html" target="_top" xlink:title=" ">
<polygon fill="none" stroke="black" points="41.5,-0.5 41.5,-19.5 103.5,-19.5 103.5,-0.5 41.5,-0.5"/>
<text text-anchor="middle" x="72.5" y="-7.5" font-family="Helvetica,sans-Serif" font-size="10.00">main.cpp</text>
</a>
</g>
</g>
<!-- Node4&#45;&gt;Node5 -->
<g id="edge4" class="edge">
<title>Node4&#45;&gt;Node5</title>
<path fill="none" stroke="midnightblue" d="M104.39,-48.43C96.32,-38.97 86.54,-27.48 79.95,-19.75"/>
<polygon fill="midnightblue" stroke="midnightblue" points="101.75,-50.74 110.9,-56.08 107.08,-46.2 101.75,-50.74"/>
</g>
<!-- Node6 -->
<g id="node6" class="node">
<title>Node6</title>
<g id="a_node6"><a xlink:href="vae__pimpl_8cpp.html" target="_top" xlink:title=" ">
<polygon fill="none" stroke="black" points="121.5,-0.5 121.5,-19.5 209.5,-19.5 209.5,-0.5 121.5,-0.5"/>
<text text-anchor="middle" x="165.5" y="-7.5" font-family="Helvetica,sans-Serif" font-size="10.00">vae_pimpl.cpp</text>
</a>
</g>
</g>
<!-- Node4&#45;&gt;Node6 -->
<g id="edge5" class="edge">
<title>Node4&#45;&gt;Node6</title>
<path fill="none" stroke="midnightblue" d="M132.92,-48.43C141.16,-38.97 151.15,-27.48 157.88,-19.75"/>
<polygon fill="midnightblue" stroke="midnightblue" points="130.19,-46.24 126.26,-56.08 135.47,-50.84 130.19,-46.24"/>
</g>
<!-- Node7&#45;&gt;Node3 -->
<g id="edge7" class="edge">
<title>Node7&#45;&gt;Node3</title>
<path fill="none" stroke="midnightblue" d="M162.75,-161.54C151.69,-151.91 137.87,-139.87 128.64,-131.83"/>
<polygon fill="midnightblue" stroke="midnightblue" points="160.7,-164.4 170.54,-168.32 165.3,-159.12 160.7,-164.4"/>
</g>
</g>
</svg>
