<?xml version="1.0" encoding="UTF-8" standalone="no"?>
<!DOCTYPE svg PUBLIC "-//W3C//DTD SVG 1.1//EN"
 "http://www.w3.org/Graphics/SVG/1.1/DTD/svg11.dtd">
<!-- Generated by graphviz version 2.50.0 (0)
 -->
<!-- Title: vae_logger.hpp Pages: 1 -->
<svg width="669pt" height="95pt"
 viewBox="0.00 0.00 669.00 95.00" xmlns="http://www.w3.org/2000/svg" xmlns:xlink="http://www.w3.org/1999/xlink">
<g id="graph0" class="graph" transform="scale(1 1) rotate(0) translate(4 91)">
<title>vae_logger.hpp</title>
<!-- Node1 -->
<g id="node1" class="node">
<title>Node1</title>
<g id="a_node1"><a xlink:title=" ">
<polygon fill="#bfbfbf" stroke="black" points="308.5,-67.5 308.5,-86.5 398.5,-86.5 398.5,-67.5 308.5,-67.5"/>
<text text-anchor="middle" x="353.5" y="-74.5" font-family="Helvetica,sans-Serif" font-size="10.00">vae_logger.hpp</text>
</a>
</g>
</g>
<!-- Node2 -->
<g id="node2" class="node">
<title>Node2</title>
<g id="a_node2"><a xlink:href="vae_8hpp.html" target="_top" xlink:title="Contains all public API types for VAE.">
<polygon fill="none" stroke="black" points="0,-6 0,-25 133,-25 133,-6 0,-6"/>
<text text-anchor="middle" x="66.5" y="-13" font-family="Helvetica,sans-Serif" font-size="10.00">../../include/vae/vae.hpp</text>
</a>
</g>
</g>
<!-- Node1&#45;&gt;Node2 -->
<g id="edge1" class="edge">
<title>Node1&#45;&gt;Node2</title>
<path fill="none" stroke="midnightblue" d="M312.38,-67.48C261.02,-56.83 173.14,-38.61 117.54,-27.08"/>
<polygon fill="midnightblue" stroke="midnightblue" points="118.05,-23.61 107.54,-25.01 116.63,-30.47 118.05,-23.61"/>
</g>
<!-- Node3 -->
<g id="node3" class="node">
<title>Node3</title>
<g id="a_node3"><a xlink:title=" ">
<polygon fill="none" stroke="#bfbfbf" points="151.5,-6 151.5,-25 201.5,-25 201.5,-6 151.5,-6"/>
<text text-anchor="middle" x="176.5" y="-13" font-family="Helvetica,sans-Serif" font-size="10.00">stdio.h</text>
</a>
</g>
</g>
<!-- Node1&#45;&gt;Node3 -->
<g id="edge2" class="edge">
<title>Node1&#45;&gt;Node3</title>
<path fill="none" stroke="midnightblue" d="M322.83,-67.49C293.44,-59.08 248.01,-45.43 209.5,-31 207.89,-30.4 206.24,-29.75 204.59,-29.09"/>
<polygon fill="midnightblue" stroke="midnightblue" points="205.77,-25.79 195.2,-25.15 203.06,-32.25 205.77,-25.79"/>
</g>
<!-- Node4 -->
<g id="node4" class="node">
<title>Node4</title>
<g id="a_node4"><a xlink:href="vae__profiler_8hpp.html" target="_top" xlink:title=" ">
<polygon fill="none" stroke="black" points="219,-6 219,-25 368,-25 368,-6 219,-6"/>
<text text-anchor="middle" x="293.5" y="-13" font-family="Helvetica,sans-Serif" font-size="10.00">../wrapped/vae_profiler.hpp</text>
</a>
</g>
</g>
<!-- Node1&#45;&gt;Node4 -->
<g id="edge3" class="edge">
<title>Node1&#45;&gt;Node4</title>
<path fill="none" stroke="midnightblue" d="M344.9,-67.48C335.64,-58.28 320.68,-43.46 309.29,-32.16"/>
<polygon fill="midnightblue" stroke="midnightblue" points="311.65,-29.57 302.08,-25.01 306.72,-34.54 311.65,-29.57"/>
</g>
<!-- Node5 -->
<g id="node5" class="node">
<title>Node5</title>
<g id="a_node5"><a xlink:title=" ">
<polygon fill="none" stroke="#bfbfbf" points="385.5,-6 385.5,-25 441.5,-25 441.5,-6 385.5,-6"/>
<text text-anchor="middle" x="413.5" y="-13" font-family="Helvetica,sans-Serif" font-size="10.00">stdarg.h</text>
</a>
</g>
</g>
<!-- Node1&#45;&gt;Node5 -->
<g id="edge4" class="edge">
<title>Node1&#45;&gt;Node5</title>
<path fill="none" stroke="midnightblue" d="M362.1,-67.48C371.36,-58.28 386.32,-43.46 397.71,-32.16"/>
<polygon fill="midnightblue" stroke="midnightblue" points="400.28,-34.54 404.92,-25.01 395.35,-29.57 400.28,-34.54"/>
</g>
<!-- Node6 -->
<g id="node6" class="node">
<title>Node6</title>
<g id="a_node6"><a xlink:title=" ">
<polygon fill="none" stroke="#bfbfbf" points="459.5,-6 459.5,-25 509.5,-25 509.5,-6 459.5,-6"/>
<text text-anchor="middle" x="484.5" y="-13" font-family="Helvetica,sans-Serif" font-size="10.00">cstring</text>
</a>
</g>
</g>
<!-- Node1&#45;&gt;Node6 -->
<g id="edge5" class="edge">
<title>Node1&#45;&gt;Node6</title>
<path fill="none" stroke="midnightblue" d="M372.27,-67.48C394.35,-57.45 431.22,-40.7 456.64,-29.15"/>
<polygon fill="midnightblue" stroke="midnightblue" points="458.11,-32.33 465.77,-25.01 455.21,-25.96 458.11,-32.33"/>
</g>
<!-- Node7 -->
<g id="node7" class="node">
<title>Node7</title>
<g id="a_node7"><a xlink:title=" ">
<polygon fill="none" stroke="#bfbfbf" points="528,-0.5 528,-30.5 661,-30.5 661,-0.5 528,-0.5"/>
<text text-anchor="start" x="536" y="-18.5" font-family="Helvetica,sans-Serif" font-size="10.00">../../external/headeronly</text>
<text text-anchor="middle" x="594.5" y="-7.5" font-family="Helvetica,sans-Serif" font-size="10.00">/stb_sprintf.h</text>
</a>
</g>
</g>
<!-- Node1&#45;&gt;Node7 -->
<g id="edge6" class="edge">
<title>Node1&#45;&gt;Node7</title>
<path fill="none" stroke="midnightblue" d="M388.03,-67.48C424.41,-58.49 482.59,-44.13 527.94,-32.93"/>
<polygon fill="midnightblue" stroke="midnightblue" points="528.83,-36.32 537.7,-30.52 527.15,-29.52 528.83,-36.32"/>
</g>
</g>
</svg>
