<?xml version="1.0" encoding="UTF-8" standalone="no"?>
<!DOCTYPE svg PUBLIC "-//W3C//DTD SVG 1.1//EN"
 "http://www.w3.org/Graphics/SVG/1.1/DTD/svg11.dtd">
<!-- Generated by graphviz version 2.50.0 (0)
 -->
<!-- Title: vae_hrtf_loader.hpp Pages: 1 -->
<svg width="1868pt" height="609pt"
 viewBox="0.00 0.00 1868.00 609.00" xmlns="http://www.w3.org/2000/svg" xmlns:xlink="http://www.w3.org/1999/xlink">
<g id="graph0" class="graph" transform="scale(1 1) rotate(0) translate(4 605)">
<title>vae_hrtf_loader.hpp</title>
<!-- Node1 -->
<g id="node1" class="node">
<title>Node1</title>
<g id="a_node1"><a xlink:title=" ">
<polygon fill="#bfbfbf" stroke="black" points="1254.5,-581.5 1254.5,-600.5 1367.5,-600.5 1367.5,-581.5 1254.5,-581.5"/>
<text text-anchor="middle" x="1311" y="-588.5" font-family="Helvetica,sans-Serif" font-size="10.00">vae_hrtf_loader.hpp</text>
</a>
</g>
</g>
<!-- Node2 -->
<g id="node2" class="node">
<title>Node2</title>
<g id="a_node2"><a xlink:href="vae__types_8hpp.html" target="_top" xlink:title="Internal types used across VAE.">
<polygon fill="none" stroke="black" points="958.5,-458.5 958.5,-477.5 1055.5,-477.5 1055.5,-458.5 958.5,-458.5"/>
<text text-anchor="middle" x="1007" y="-465.5" font-family="Helvetica,sans-Serif" font-size="10.00">../vae_types.hpp</text>
</a>
</g>
</g>
<!-- Node1&#45;&gt;Node2 -->
<g id="edge1" class="edge">
<title>Node1&#45;&gt;Node2</title>
<path fill="none" stroke="midnightblue" d="M1254.28,-590.46C1202.37,-588.45 1125.17,-579.18 1068,-545 1044.47,-530.94 1026.3,-504.24 1016.12,-486.53"/>
<polygon fill="midnightblue" stroke="midnightblue" points="1019.18,-484.83 1011.3,-477.75 1013.04,-488.2 1019.18,-484.83"/>
</g>
<!-- Node5 -->
<g id="node5" class="node">
<title>Node5</title>
<g id="a_node5"><a xlink:href="vae__config_8hpp.html" target="_top" xlink:title=" ">
<polygon fill="none" stroke="black" points="1111.5,-391.5 1111.5,-410.5 1208.5,-410.5 1208.5,-391.5 1111.5,-391.5"/>
<text text-anchor="middle" x="1160" y="-398.5" font-family="Helvetica,sans-Serif" font-size="10.00">./vae_config.hpp</text>
</a>
</g>
</g>
<!-- Node1&#45;&gt;Node5 -->
<g id="edge68" class="edge">
<title>Node1&#45;&gt;Node5</title>
<path fill="none" stroke="midnightblue" d="M1304.12,-581.43C1280.83,-552.44 1204.69,-457.64 1173.5,-418.81"/>
<polygon fill="midnightblue" stroke="midnightblue" points="1175.91,-416.22 1166.92,-410.62 1170.45,-420.61 1175.91,-416.22"/>
</g>
<!-- Node38 -->
<g id="node38" class="node">
<title>Node38</title>
<g id="a_node38"><a xlink:href="vae__util_8hpp.html" target="_top" xlink:title=" ">
<polygon fill="none" stroke="black" points="1241,-458.5 1241,-477.5 1327,-477.5 1327,-458.5 1241,-458.5"/>
<text text-anchor="middle" x="1284" y="-465.5" font-family="Helvetica,sans-Serif" font-size="10.00">../vae_util.hpp</text>
</a>
</g>
</g>
<!-- Node1&#45;&gt;Node38 -->
<g id="edge56" class="edge">
<title>Node1&#45;&gt;Node38</title>
<path fill="none" stroke="midnightblue" d="M1309.06,-581.3C1304.7,-561.76 1294.06,-514.06 1288.14,-487.55"/>
<polygon fill="midnightblue" stroke="midnightblue" points="1291.52,-486.62 1285.92,-477.62 1284.69,-488.15 1291.52,-486.62"/>
</g>
<!-- Node43 -->
<g id="node43" class="node">
<title>Node43</title>
<g id="a_node43"><a xlink:href="vae__hrtf_8hpp.html" target="_top" xlink:title=" ">
<polygon fill="none" stroke="black" points="1077,-520 1077,-539 1185,-539 1185,-520 1077,-520"/>
<text text-anchor="middle" x="1131" y="-527" font-family="Helvetica,sans-Serif" font-size="10.00">../pod/vae_hrtf.hpp</text>
</a>
</g>
</g>
<!-- Node1&#45;&gt;Node43 -->
<g id="edge69" class="edge">
<title>Node1&#45;&gt;Node43</title>
<path fill="none" stroke="midnightblue" d="M1285.21,-581.48C1254.07,-571.18 1201.52,-553.81 1166.55,-542.25"/>
<polygon fill="midnightblue" stroke="midnightblue" points="1167.34,-538.82 1156.74,-539.01 1165.14,-545.47 1167.34,-538.82"/>
</g>
<!-- Node44 -->
<g id="node44" class="node">
<title>Node44</title>
<g id="a_node44"><a xlink:href="vae__fs_8hpp.html" target="_top" xlink:title=" ">
<polygon fill="none" stroke="black" points="1643.5,-391.5 1643.5,-410.5 1776.5,-410.5 1776.5,-391.5 1643.5,-391.5"/>
<text text-anchor="middle" x="1710" y="-398.5" font-family="Helvetica,sans-Serif" font-size="10.00">../../wrapped/vae_fs.hpp</text>
</a>
</g>
</g>
<!-- Node1&#45;&gt;Node44 -->
<g id="edge72" class="edge">
<title>Node1&#45;&gt;Node44</title>
<path fill="none" stroke="midnightblue" d="M1314.86,-581.33C1322.29,-565.6 1340.08,-532.3 1365,-514 1390.27,-495.44 1585.02,-437.98 1670.26,-413.37"/>
<polygon fill="midnightblue" stroke="midnightblue" points="1671.45,-416.67 1680.09,-410.54 1669.51,-409.94 1671.45,-416.67"/>
</g>
<!-- Node45 -->
<g id="node45" class="node">
<title>Node45</title>
<g id="a_node45"><a xlink:title=" ">
<polygon fill="none" stroke="#bfbfbf" points="1374,-514.5 1374,-544.5 1516,-544.5 1516,-514.5 1374,-514.5"/>
<text text-anchor="start" x="1382" y="-532.5" font-family="Helvetica,sans-Serif" font-size="10.00">../../../external/headeronly</text>
<text text-anchor="middle" x="1445" y="-521.5" font-family="Helvetica,sans-Serif" font-size="10.00">/json.h</text>
</a>
</g>
</g>
<!-- Node1&#45;&gt;Node45 -->
<g id="edge75" class="edge">
<title>Node1&#45;&gt;Node45</title>
<path fill="none" stroke="midnightblue" d="M1330.2,-581.48C1349.37,-572.96 1379.42,-559.62 1403.97,-548.72"/>
<polygon fill="midnightblue" stroke="midnightblue" points="1405.7,-551.78 1413.42,-544.52 1402.86,-545.38 1405.7,-551.78"/>
</g>
<!-- Node46 -->
<g id="node46" class="node">
<title>Node46</title>
<g id="a_node46"><a xlink:title=" ">
<polygon fill="none" stroke="#bfbfbf" points="1534,-514.5 1534,-544.5 1676,-544.5 1676,-514.5 1534,-514.5"/>
<text text-anchor="start" x="1542" y="-532.5" font-family="Helvetica,sans-Serif" font-size="10.00">../../../external/headeronly</text>
<text text-anchor="middle" x="1605" y="-521.5" font-family="Helvetica,sans-Serif" font-size="10.00">/json.c</text>
</a>
</g>
</g>
<!-- Node1&#45;&gt;Node46 -->
<g id="edge76" class="edge">
<title>Node1&#45;&gt;Node46</title>
<path fill="none" stroke="midnightblue" d="M1353.12,-581.48C1398.06,-572.38 1470.27,-557.77 1525.88,-546.51"/>
<polygon fill="midnightblue" stroke="midnightblue" points="1526.6,-549.94 1535.71,-544.52 1525.21,-543.08 1526.6,-549.94"/>
</g>
<!-- Node47 -->
<g id="node47" class="node">
<title>Node47</title>
<g id="a_node47"><a xlink:title=" ">
<polygon fill="none" stroke="#bfbfbf" points="1694,-514.5 1694,-544.5 1860,-544.5 1860,-514.5 1694,-514.5"/>
<text text-anchor="start" x="1702" y="-532.5" font-family="Helvetica,sans-Serif" font-size="10.00">../../../external/glm</text>
<text text-anchor="middle" x="1777" y="-521.5" font-family="Helvetica,sans-Serif" font-size="10.00">/glm/gtc/matrix_transform.hpp</text>
</a>
</g>
</g>
<!-- Node1&#45;&gt;Node47 -->
<g id="edge77" class="edge">
<title>Node1&#45;&gt;Node47</title>
<path fill="none" stroke="midnightblue" d="M1367.79,-583.82C1439.15,-575.91 1565.62,-561.41 1683.83,-545.13"/>
<polygon fill="midnightblue" stroke="midnightblue" points="1684.35,-548.59 1693.78,-543.76 1683.39,-541.66 1684.35,-548.59"/>
</g>
<!-- Node3 -->
<g id="node3" class="node">
<title>Node3</title>
<g id="a_node3"><a xlink:href="vae_8hpp.html" target="_top" xlink:title="Contains all public API types for VAE.">
<polygon fill="none" stroke="black" points="1151.5,-319 1151.5,-338 1284.5,-338 1284.5,-319 1151.5,-319"/>
<text text-anchor="middle" x="1218" y="-326" font-family="Helvetica,sans-Serif" font-size="10.00">../../include/vae/vae.hpp</text>
</a>
</g>
</g>
<!-- Node2&#45;&gt;Node3 -->
<g id="edge2" class="edge">
<title>Node2&#45;&gt;Node3</title>
<path fill="none" stroke="midnightblue" d="M1014.62,-458.32C1029.82,-441.41 1065.61,-403.63 1102,-380 1127.14,-363.67 1158.45,-350.4 1182.21,-341.56"/>
<polygon fill="midnightblue" stroke="midnightblue" points="1183.67,-344.75 1191.88,-338.05 1181.29,-338.17 1183.67,-344.75"/>
</g>
<!-- Node4 -->
<g id="node4" class="node">
<title>Node4</title>
<g id="a_node4"><a xlink:href="vae__profiler_8hpp.html" target="_top" xlink:title=" ">
<polygon fill="none" stroke="black" points="984.5,-319 984.5,-338 1133.5,-338 1133.5,-319 984.5,-319"/>
<text text-anchor="middle" x="1059" y="-326" font-family="Helvetica,sans-Serif" font-size="10.00">../wrapped/vae_profiler.hpp</text>
</a>
</g>
</g>
<!-- Node2&#45;&gt;Node4 -->
<g id="edge3" class="edge">
<title>Node2&#45;&gt;Node4</title>
<path fill="none" stroke="midnightblue" d="M1010.25,-458.4C1018.57,-436.41 1040.75,-377.75 1052.1,-347.74"/>
<polygon fill="midnightblue" stroke="midnightblue" points="1055.48,-348.69 1055.75,-338.1 1048.94,-346.21 1055.48,-348.69"/>
</g>
<!-- Node2&#45;&gt;Node5 -->
<g id="edge4" class="edge">
<title>Node2&#45;&gt;Node5</title>
<path fill="none" stroke="midnightblue" d="M1027.32,-458.37C1053.72,-447.15 1100.03,-427.48 1130.36,-414.59"/>
<polygon fill="midnightblue" stroke="midnightblue" points="1131.76,-417.8 1139.6,-410.67 1129.03,-411.36 1131.76,-417.8"/>
</g>
<!-- Node6 -->
<g id="node6" class="node">
<title>Node6</title>
<g id="a_node6"><a xlink:title=" ">
<polygon fill="none" stroke="#bfbfbf" points="748.5,-386 748.5,-416 845.5,-416 845.5,-386 748.5,-386"/>
<text text-anchor="start" x="756.5" y="-404" font-family="Helvetica,sans-Serif" font-size="10.00">../../external/glm</text>
<text text-anchor="middle" x="797" y="-393" font-family="Helvetica,sans-Serif" font-size="10.00">/glm/glm.hpp</text>
</a>
</g>
</g>
<!-- Node2&#45;&gt;Node6 -->
<g id="edge6" class="edge">
<title>Node2&#45;&gt;Node6</title>
<path fill="none" stroke="midnightblue" d="M976.38,-458.49C945.39,-449.77 896.16,-435.59 854,-422 851.29,-421.13 848.51,-420.21 845.7,-419.28"/>
<polygon fill="midnightblue" stroke="midnightblue" points="846.75,-415.94 836.16,-416.04 844.5,-422.56 846.75,-415.94"/>
</g>
<!-- Node7 -->
<g id="node7" class="node">
<title>Node7</title>
<g id="a_node7"><a xlink:href="_t_audio_buffer_8hpp.html" target="_top" xlink:title=" ">
<polygon fill="none" stroke="black" points="469.5,-313.5 469.5,-343.5 648.5,-343.5 648.5,-313.5 469.5,-313.5"/>
<text text-anchor="start" x="477.5" y="-331.5" font-family="Helvetica,sans-Serif" font-size="10.00">../../external/tklb</text>
<text text-anchor="middle" x="559" y="-320.5" font-family="Helvetica,sans-Serif" font-size="10.00">/src/types/audio/TAudioBuffer.hpp</text>
</a>
</g>
</g>
<!-- Node2&#45;&gt;Node7 -->
<g id="edge7" class="edge">
<title>Node2&#45;&gt;Node7</title>
<path fill="none" stroke="midnightblue" d="M958.24,-466.29C837.89,-464.05 534.29,-455.12 504,-422 491.4,-408.23 496.49,-397.09 504,-380 509.17,-368.22 518.6,-357.99 528.2,-349.87"/>
<polygon fill="midnightblue" stroke="midnightblue" points="530.53,-352.5 536.22,-343.56 526.2,-347 530.53,-352.5"/>
</g>
<!-- Node32 -->
<g id="node32" class="node">
<title>Node32</title>
<g id="a_node32"><a xlink:href="_t_audio_ring_buffer_8hpp.html" target="_top" xlink:title=" ">
<polygon fill="none" stroke="black" points="579.5,-380.5 579.5,-421.5 730.5,-421.5 730.5,-380.5 579.5,-380.5"/>
<text text-anchor="start" x="587.5" y="-409.5" font-family="Helvetica,sans-Serif" font-size="10.00">../../external/tklb</text>
<text text-anchor="start" x="587.5" y="-398.5" font-family="Helvetica,sans-Serif" font-size="10.00">/src/types/audio/TAudioRing</text>
<text text-anchor="middle" x="655" y="-387.5" font-family="Helvetica,sans-Serif" font-size="10.00">Buffer.hpp</text>
</a>
</g>
</g>
<!-- Node2&#45;&gt;Node32 -->
<g id="edge44" class="edge">
<title>Node2&#45;&gt;Node32</title>
<path fill="none" stroke="midnightblue" d="M958.4,-459.85C906.68,-452.01 822.21,-438.57 740.46,-422.24"/>
<polygon fill="midnightblue" stroke="midnightblue" points="741,-418.78 730.5,-420.23 739.61,-425.64 741,-418.78"/>
</g>
<!-- Node33 -->
<g id="node33" class="node">
<title>Node33</title>
<g id="a_node33"><a xlink:href="_t_string_8hpp.html" target="_top" xlink:title=" ">
<polygon fill="none" stroke="black" points="844,-313.5 844,-343.5 966,-343.5 966,-313.5 844,-313.5"/>
<text text-anchor="start" x="852" y="-331.5" font-family="Helvetica,sans-Serif" font-size="10.00">../../external/tklb</text>
<text text-anchor="middle" x="905" y="-320.5" font-family="Helvetica,sans-Serif" font-size="10.00">/src/types/TString.hpp</text>
</a>
</g>
</g>
<!-- Node2&#45;&gt;Node33 -->
<g id="edge46" class="edge">
<title>Node2&#45;&gt;Node33</title>
<path fill="none" stroke="midnightblue" d="M1007.13,-458.46C1006.98,-441.8 1004.53,-404.43 987,-380 977.49,-366.74 963.3,-356.25 949.4,-348.34"/>
<polygon fill="midnightblue" stroke="midnightblue" points="950.82,-345.14 940.35,-343.52 947.53,-351.31 950.82,-345.14"/>
</g>
<!-- Node34 -->
<g id="node34" class="node">
<title>Node34</title>
<g id="a_node34"><a xlink:href="vae__allocators_8hpp.html" target="_top" xlink:title=" ">
<polygon fill="none" stroke="black" points="863.5,-391.5 863.5,-410.5 978.5,-410.5 978.5,-391.5 863.5,-391.5"/>
<text text-anchor="middle" x="921" y="-398.5" font-family="Helvetica,sans-Serif" font-size="10.00">./vae_allocators.hpp</text>
</a>
</g>
</g>
<!-- Node2&#45;&gt;Node34 -->
<g id="edge49" class="edge">
<title>Node2&#45;&gt;Node34</title>
<path fill="none" stroke="midnightblue" d="M995.4,-458.23C981.35,-447.61 957.45,-429.55 940.53,-416.76"/>
<polygon fill="midnightblue" stroke="midnightblue" points="942.5,-413.86 932.41,-410.63 938.28,-419.45 942.5,-413.86"/>
</g>
<!-- Node37 -->
<g id="node37" class="node">
<title>Node37</title>
<g id="a_node37"><a xlink:title=" ">
<polygon fill="none" stroke="#bfbfbf" points="513,-391.5 513,-410.5 561,-410.5 561,-391.5 513,-391.5"/>
<text text-anchor="middle" x="537" y="-398.5" font-family="Helvetica,sans-Serif" font-size="10.00">mutex</text>
</a>
</g>
</g>
<!-- Node2&#45;&gt;Node37 -->
<g id="edge55" class="edge">
<title>Node2&#45;&gt;Node37</title>
<path fill="none" stroke="midnightblue" d="M958.29,-464.68C859.94,-459.56 640.95,-445.81 570,-422 565.52,-420.5 561,-418.3 556.81,-415.92"/>
<polygon fill="midnightblue" stroke="midnightblue" points="558.62,-412.92 548.29,-410.57 554.9,-418.85 558.62,-412.92"/>
</g>
<!-- Node5&#45;&gt;Node3 -->
<g id="edge5" class="edge">
<title>Node5&#45;&gt;Node3</title>
<path fill="none" stroke="midnightblue" d="M1167.11,-391.36C1176.33,-380.15 1192.6,-360.37 1204.27,-346.19"/>
<polygon fill="midnightblue" stroke="midnightblue" points="1207.18,-348.16 1210.83,-338.22 1201.77,-343.71 1207.18,-348.16"/>
</g>
<!-- Node8 -->
<g id="node8" class="node">
<title>Node8</title>
<g id="a_node8"><a xlink:title=" ">
<polygon fill="none" stroke="#bfbfbf" points="781,-190.5 781,-209.5 845,-209.5 845,-190.5 781,-190.5"/>
<text text-anchor="middle" x="813" y="-197.5" font-family="Helvetica,sans-Serif" font-size="10.00">algorithm</text>
</a>
</g>
</g>
<!-- Node7&#45;&gt;Node8 -->
<g id="edge8" class="edge">
<title>Node7&#45;&gt;Node8</title>
<path fill="none" stroke="midnightblue" d="M601.79,-313.47C628.07,-304.29 662.11,-291.36 691,-277 728.29,-258.47 768.79,-231.81 792.48,-215.49"/>
<polygon fill="midnightblue" stroke="midnightblue" points="794.77,-218.16 800.98,-209.58 790.77,-212.41 794.77,-218.16"/>
</g>
<!-- Node9 -->
<g id="node9" class="node">
<title>Node9</title>
<g id="a_node9"><a xlink:title=" ">
<polygon fill="none" stroke="#bfbfbf" points="731,-134.5 731,-153.5 775,-153.5 775,-134.5 731,-134.5"/>
<text text-anchor="middle" x="753" y="-141.5" font-family="Helvetica,sans-Serif" font-size="10.00">limits</text>
</a>
</g>
</g>
<!-- Node7&#45;&gt;Node9 -->
<g id="edge9" class="edge">
<title>Node7&#45;&gt;Node9</title>
<path fill="none" stroke="midnightblue" d="M593.38,-313.4C612.22,-304.65 635.26,-292.17 653,-277 693.08,-242.71 727.07,-189.77 743.12,-162.53"/>
<polygon fill="midnightblue" stroke="midnightblue" points="746.23,-164.14 748.2,-153.73 740.16,-160.64 746.23,-164.14"/>
</g>
<!-- Node10 -->
<g id="node10" class="node">
<title>Node10</title>
<g id="a_node10"><a xlink:title=" ">
<polygon fill="none" stroke="#bfbfbf" points="181.5,-252 181.5,-271 250.5,-271 250.5,-252 181.5,-252"/>
<text text-anchor="middle" x="216" y="-259" font-family="Helvetica,sans-Serif" font-size="10.00">type_traits</text>
</a>
</g>
</g>
<!-- Node7&#45;&gt;Node10 -->
<g id="edge10" class="edge">
<title>Node7&#45;&gt;Node10</title>
<path fill="none" stroke="midnightblue" d="M469.31,-315.96C409.54,-307.39 329.5,-294.22 260,-277 256.62,-276.16 253.12,-275.19 249.65,-274.16"/>
<polygon fill="midnightblue" stroke="midnightblue" points="250.61,-270.79 240.02,-271.14 248.51,-277.47 250.61,-270.79"/>
</g>
<!-- Node11 -->
<g id="node11" class="node">
<title>Node11</title>
<g id="a_node11"><a xlink:href="_t_memory_8hpp.html" target="_top" xlink:title=" ">
<polygon fill="none" stroke="black" points="269,-252 269,-271 413,-271 413,-252 269,-252"/>
<text text-anchor="middle" x="341" y="-259" font-family="Helvetica,sans-Serif" font-size="10.00">../../memory/TMemory.hpp</text>
</a>
</g>
</g>
<!-- Node7&#45;&gt;Node11 -->
<g id="edge11" class="edge">
<title>Node7&#45;&gt;Node11</title>
<path fill="none" stroke="midnightblue" d="M511.97,-313.48C472.38,-301.67 416.46,-285 379.5,-273.98"/>
<polygon fill="midnightblue" stroke="midnightblue" points="380.19,-270.53 369.6,-271.03 378.19,-277.24 380.19,-270.53"/>
</g>
<!-- Node19 -->
<g id="node19" class="node">
<title>Node19</title>
<g id="a_node19"><a xlink:href="_t_assert_8h.html" target="_top" xlink:title=" ">
<polygon fill="none" stroke="black" points="670.5,-67.5 670.5,-86.5 759.5,-86.5 759.5,-67.5 670.5,-67.5"/>
<text text-anchor="middle" x="715" y="-74.5" font-family="Helvetica,sans-Serif" font-size="10.00">../util/TAssert.h</text>
</a>
</g>
</g>
<!-- Node7&#45;&gt;Node19 -->
<g id="edge43" class="edge">
<title>Node7&#45;&gt;Node19</title>
<path fill="none" stroke="midnightblue" d="M580.51,-313.3C593.21,-304.09 608.92,-291.2 620,-277 665.87,-218.18 696.95,-133.62 709.18,-96.57"/>
<polygon fill="midnightblue" stroke="midnightblue" points="712.63,-97.28 712.37,-86.68 705.97,-95.13 712.63,-97.28"/>
</g>
<!-- Node26 -->
<g id="node26" class="node">
<title>Node26</title>
<g id="a_node26"><a xlink:href="_t_math_8hpp.html" target="_top" xlink:title=" ">
<polygon fill="none" stroke="black" points="1407,-252 1407,-271 1511,-271 1511,-252 1407,-252"/>
<text text-anchor="middle" x="1459" y="-259" font-family="Helvetica,sans-Serif" font-size="10.00">../../util/TMath.hpp</text>
</a>
</g>
</g>
<!-- Node7&#45;&gt;Node26 -->
<g id="edge32" class="edge">
<title>Node7&#45;&gt;Node26</title>
<path fill="none" stroke="midnightblue" d="M648.68,-313.92C651.49,-313.6 654.26,-313.29 657,-313 931.84,-284.07 1261.54,-269.67 1396.64,-264.64"/>
<polygon fill="midnightblue" stroke="midnightblue" points="1396.93,-268.13 1406.8,-264.27 1396.68,-261.14 1396.93,-268.13"/>
</g>
<!-- Node27 -->
<g id="node27" class="node">
<title>Node27</title>
<g id="a_node27"><a xlink:title=" ">
<polygon fill="none" stroke="#bfbfbf" points="469,-246.5 469,-276.5 611,-276.5 611,-246.5 469,-246.5"/>
<text text-anchor="start" x="477" y="-264.5" font-family="Helvetica,sans-Serif" font-size="10.00">../../../external/xsimd</text>
<text text-anchor="middle" x="540" y="-253.5" font-family="Helvetica,sans-Serif" font-size="10.00">/include/xsimd/xsimd.hpp</text>
</a>
</g>
</g>
<!-- Node7&#45;&gt;Node27 -->
<g id="edge33" class="edge">
<title>Node7&#45;&gt;Node27</title>
<path fill="none" stroke="midnightblue" d="M554.88,-313.4C552.56,-305.47 549.61,-295.38 546.95,-286.27"/>
<polygon fill="midnightblue" stroke="midnightblue" points="550.28,-285.19 544.11,-276.58 543.56,-287.16 550.28,-285.19"/>
</g>
<!-- Node28 -->
<g id="node28" class="node">
<title>Node28</title>
<g id="a_node28"><a xlink:href="_t_heap_buffer_8hpp.html" target="_top" xlink:title=" ">
<polygon fill="none" stroke="black" points="842.5,-252 842.5,-271 949.5,-271 949.5,-252 842.5,-252"/>
<text text-anchor="middle" x="896" y="-259" font-family="Helvetica,sans-Serif" font-size="10.00">../THeapBuffer.hpp</text>
</a>
</g>
</g>
<!-- Node7&#45;&gt;Node28 -->
<g id="edge34" class="edge">
<title>Node7&#45;&gt;Node28</title>
<path fill="none" stroke="midnightblue" d="M631.71,-313.48C694.87,-301.29 784.91,-283.93 841.89,-272.94"/>
<polygon fill="midnightblue" stroke="midnightblue" points="842.63,-276.36 851.78,-271.03 841.3,-269.49 842.63,-276.36"/>
</g>
<!-- Node12 -->
<g id="node12" class="node">
<title>Node12</title>
<g id="a_node12"><a xlink:href="_t_memory_pool_8hpp.html" target="_top" xlink:title=" ">
<polygon fill="none" stroke="black" points="294,-134.5 294,-153.5 404,-153.5 404,-134.5 294,-134.5"/>
<text text-anchor="middle" x="349" y="-141.5" font-family="Helvetica,sans-Serif" font-size="10.00">./TMemoryPool.hpp</text>
</a>
</g>
</g>
<!-- Node11&#45;&gt;Node12 -->
<g id="edge12" class="edge">
<title>Node11&#45;&gt;Node12</title>
<path fill="none" stroke="midnightblue" d="M318.42,-251.86C290.92,-239.95 250,-216.87 266,-190 275.1,-174.72 291.39,-164.31 307.14,-157.39"/>
<polygon fill="midnightblue" stroke="midnightblue" points="308.83,-160.48 316.82,-153.51 306.23,-153.98 308.83,-160.48"/>
</g>
<!-- Node24 -->
<g id="node24" class="node">
<title>Node24</title>
<g id="a_node24"><a xlink:href="_t_memory_pool_std_8hpp.html" target="_top" xlink:title=" ">
<polygon fill="none" stroke="black" points="275,-190.5 275,-209.5 401,-209.5 401,-190.5 275,-190.5"/>
<text text-anchor="middle" x="338" y="-197.5" font-family="Helvetica,sans-Serif" font-size="10.00">./TMemoryPoolStd.hpp</text>
</a>
</g>
</g>
<!-- Node11&#45;&gt;Node24 -->
<g id="edge25" class="edge">
<title>Node11&#45;&gt;Node24</title>
<path fill="none" stroke="midnightblue" d="M340.57,-251.98C340.15,-243.58 339.49,-230.48 338.94,-219.66"/>
<polygon fill="midnightblue" stroke="midnightblue" points="342.43,-219.32 338.43,-209.51 335.44,-219.67 342.43,-219.32"/>
</g>
<!-- Node25 -->
<g id="node25" class="node">
<title>Node25</title>
<g id="a_node25"><a xlink:href="_t_memory_pool_stack_8hpp.html" target="_top" xlink:title=" ">
<polygon fill="none" stroke="black" points="419.5,-190.5 419.5,-209.5 556.5,-209.5 556.5,-190.5 419.5,-190.5"/>
<text text-anchor="middle" x="488" y="-197.5" font-family="Helvetica,sans-Serif" font-size="10.00">./TMemoryPoolStack.hpp</text>
</a>
</g>
</g>
<!-- Node11&#45;&gt;Node25 -->
<g id="edge29" class="edge">
<title>Node11&#45;&gt;Node25</title>
<path fill="none" stroke="midnightblue" d="M362.06,-251.98C387.06,-241.86 428.94,-224.9 457.49,-213.35"/>
<polygon fill="midnightblue" stroke="midnightblue" points="459.02,-216.51 466.98,-209.51 456.39,-210.02 459.02,-216.51"/>
</g>
<!-- Node13 -->
<g id="node13" class="node">
<title>Node13</title>
<g id="a_node13"><a xlink:title=" ">
<polygon fill="none" stroke="#bfbfbf" points="427.5,-67.5 427.5,-86.5 472.5,-86.5 472.5,-67.5 427.5,-67.5"/>
<text text-anchor="middle" x="450" y="-74.5" font-family="Helvetica,sans-Serif" font-size="10.00">utility</text>
</a>
</g>
</g>
<!-- Node12&#45;&gt;Node13 -->
<g id="edge13" class="edge">
<title>Node12&#45;&gt;Node13</title>
<path fill="none" stroke="midnightblue" d="M362.62,-134.23C379.43,-123.42 408.23,-104.88 428.14,-92.07"/>
<polygon fill="midnightblue" stroke="midnightblue" points="430.08,-94.98 436.59,-86.63 426.29,-89.1 430.08,-94.98"/>
</g>
<!-- Node14 -->
<g id="node14" class="node">
<title>Node14</title>
<g id="a_node14"><a xlink:title=" ">
<polygon fill="none" stroke="#bfbfbf" points="220,-67.5 220,-86.5 270,-86.5 270,-67.5 220,-67.5"/>
<text text-anchor="middle" x="245" y="-74.5" font-family="Helvetica,sans-Serif" font-size="10.00">cstdint</text>
</a>
</g>
</g>
<!-- Node12&#45;&gt;Node14 -->
<g id="edge14" class="edge">
<title>Node12&#45;&gt;Node14</title>
<path fill="none" stroke="midnightblue" d="M334.97,-134.23C317.67,-123.42 288.01,-104.88 267.51,-92.07"/>
<polygon fill="midnightblue" stroke="midnightblue" points="269.14,-88.96 258.8,-86.63 265.43,-94.9 269.14,-88.96"/>
</g>
<!-- Node15 -->
<g id="node15" class="node">
<title>Node15</title>
<g id="a_node15"><a xlink:title=" ">
<polygon fill="none" stroke="#bfbfbf" points="615.5,-67.5 615.5,-86.5 652.5,-86.5 652.5,-67.5 615.5,-67.5"/>
<text text-anchor="middle" x="634" y="-74.5" font-family="Helvetica,sans-Serif" font-size="10.00">new</text>
</a>
</g>
</g>
<!-- Node12&#45;&gt;Node15 -->
<g id="edge15" class="edge">
<title>Node12&#45;&gt;Node15</title>
<path fill="none" stroke="midnightblue" d="M404.22,-136.25C468.51,-127.89 570.44,-112.9 606,-98 609.41,-96.57 612.81,-94.67 616,-92.6"/>
<polygon fill="midnightblue" stroke="midnightblue" points="618.24,-95.29 624.29,-86.59 614.14,-89.62 618.24,-95.29"/>
</g>
<!-- Node16 -->
<g id="node16" class="node">
<title>Node16</title>
<g id="a_node16"><a xlink:href="_t_memory_util_8hpp.html" target="_top" xlink:title=" ">
<polygon fill="none" stroke="black" points="490.5,-67.5 490.5,-86.5 597.5,-86.5 597.5,-67.5 490.5,-67.5"/>
<text text-anchor="middle" x="544" y="-74.5" font-family="Helvetica,sans-Serif" font-size="10.00">./TMemoryUtil.hpp</text>
</a>
</g>
</g>
<!-- Node12&#45;&gt;Node16 -->
<g id="edge16" class="edge">
<title>Node12&#45;&gt;Node16</title>
<path fill="none" stroke="midnightblue" d="M374.89,-134.37C409.23,-122.92 469.96,-102.68 508.53,-89.82"/>
<polygon fill="midnightblue" stroke="midnightblue" points="509.93,-93.05 518.31,-86.56 507.72,-86.41 509.93,-93.05"/>
</g>
<!-- Node12&#45;&gt;Node19 -->
<g id="edge19" class="edge">
<title>Node12&#45;&gt;Node19</title>
<path fill="none" stroke="midnightblue" d="M404.07,-138.6C466.96,-132.77 572.56,-120.49 661,-98 669.11,-95.94 677.68,-93.09 685.56,-90.18"/>
<polygon fill="midnightblue" stroke="midnightblue" points="686.98,-93.39 695.06,-86.53 684.47,-86.85 686.98,-93.39"/>
</g>
<!-- Node21 -->
<g id="node21" class="node">
<title>Node21</title>
<g id="a_node21"><a xlink:href="_t_spin_lock_8hpp.html" target="_top" xlink:title=" ">
<polygon fill="none" stroke="black" points="0,-67.5 0,-86.5 126,-86.5 126,-67.5 0,-67.5"/>
<text text-anchor="middle" x="63" y="-74.5" font-family="Helvetica,sans-Serif" font-size="10.00">../types/TSpinLock.hpp</text>
</a>
</g>
</g>
<!-- Node12&#45;&gt;Node21 -->
<g id="edge21" class="edge">
<title>Node12&#45;&gt;Node21</title>
<path fill="none" stroke="midnightblue" d="M311.32,-134.44C259.77,-122.72 167.25,-101.69 110.86,-88.88"/>
<polygon fill="midnightblue" stroke="midnightblue" points="111.29,-85.39 100.77,-86.58 109.74,-92.21 111.29,-85.39"/>
</g>
<!-- Node22 -->
<g id="node22" class="node">
<title>Node22</title>
<g id="a_node22"><a xlink:href="_t_lock_guard_8hpp.html" target="_top" xlink:title=" ">
<polygon fill="none" stroke="black" points="77.5,-0.5 77.5,-19.5 178.5,-19.5 178.5,-0.5 77.5,-0.5"/>
<text text-anchor="middle" x="128" y="-7.5" font-family="Helvetica,sans-Serif" font-size="10.00">./TLockGuard.hpp</text>
</a>
</g>
</g>
<!-- Node12&#45;&gt;Node22 -->
<g id="edge23" class="edge">
<title>Node12&#45;&gt;Node22</title>
<path fill="none" stroke="midnightblue" d="M304.95,-134.5C276.59,-127.65 239.79,-116.13 211,-98 181.11,-79.18 154.47,-47.23 139.85,-27.73"/>
<polygon fill="midnightblue" stroke="midnightblue" points="142.56,-25.51 133.84,-19.5 136.91,-29.64 142.56,-25.51"/>
</g>
<!-- Node23 -->
<g id="node23" class="node">
<title>Node23</title>
<g id="a_node23"><a xlink:title=" ">
<polygon fill="none" stroke="#bfbfbf" points="288.5,-56.5 288.5,-97.5 409.5,-97.5 409.5,-56.5 288.5,-56.5"/>
<text text-anchor="start" x="296.5" y="-85.5" font-family="Helvetica,sans-Serif" font-size="10.00">../../external/xsimd</text>
<text text-anchor="start" x="296.5" y="-74.5" font-family="Helvetica,sans-Serif" font-size="10.00">/include/xsimd/config</text>
<text text-anchor="middle" x="349" y="-63.5" font-family="Helvetica,sans-Serif" font-size="10.00">/xsimd_arch.hpp</text>
</a>
</g>
</g>
<!-- Node12&#45;&gt;Node23 -->
<g id="edge24" class="edge">
<title>Node12&#45;&gt;Node23</title>
<path fill="none" stroke="midnightblue" d="M349,-134.23C349,-127.36 349,-117.38 349,-107.73"/>
<polygon fill="midnightblue" stroke="midnightblue" points="352.5,-107.54 349,-97.54 345.5,-107.54 352.5,-107.54"/>
</g>
<!-- Node17 -->
<g id="node17" class="node">
<title>Node17</title>
<g id="a_node17"><a xlink:title=" ">
<polygon fill="none" stroke="#bfbfbf" points="1476,-0.5 1476,-19.5 1526,-19.5 1526,-0.5 1476,-0.5"/>
<text text-anchor="middle" x="1501" y="-7.5" font-family="Helvetica,sans-Serif" font-size="10.00">cstring</text>
</a>
</g>
</g>
<!-- Node16&#45;&gt;Node17 -->
<g id="edge17" class="edge">
<title>Node16&#45;&gt;Node17</title>
<path fill="none" stroke="midnightblue" d="M565.74,-67.44C577.47,-63.22 592.32,-58.51 606,-56 775.45,-24.97 1321.5,-13.95 1465.77,-11.54"/>
<polygon fill="midnightblue" stroke="midnightblue" points="1465.89,-15.04 1475.83,-11.38 1465.78,-8.04 1465.89,-15.04"/>
</g>
<!-- Node18 -->
<g id="node18" class="node">
<title>Node18</title>
<g id="a_node18"><a xlink:title=" ">
<polygon fill="none" stroke="#bfbfbf" points="517.5,-0.5 517.5,-19.5 570.5,-19.5 570.5,-0.5 517.5,-0.5"/>
<text text-anchor="middle" x="544" y="-7.5" font-family="Helvetica,sans-Serif" font-size="10.00">stdlib.h</text>
</a>
</g>
</g>
<!-- Node16&#45;&gt;Node18 -->
<g id="edge18" class="edge">
<title>Node16&#45;&gt;Node18</title>
<path fill="none" stroke="midnightblue" d="M544,-67.23C544,-57.68 544,-42.12 544,-29.78"/>
<polygon fill="midnightblue" stroke="midnightblue" points="547.5,-29.63 544,-19.63 540.5,-29.63 547.5,-29.63"/>
</g>
<!-- Node20 -->
<g id="node20" class="node">
<title>Node20</title>
<g id="a_node20"><a xlink:title=" ">
<polygon fill="none" stroke="#bfbfbf" points="689,-0.5 689,-19.5 741,-19.5 741,-0.5 689,-0.5"/>
<text text-anchor="middle" x="715" y="-7.5" font-family="Helvetica,sans-Serif" font-size="10.00">cassert</text>
</a>
</g>
</g>
<!-- Node19&#45;&gt;Node20 -->
<g id="edge20" class="edge">
<title>Node19&#45;&gt;Node20</title>
<path fill="none" stroke="midnightblue" d="M715,-67.23C715,-57.68 715,-42.12 715,-29.78"/>
<polygon fill="midnightblue" stroke="midnightblue" points="718.5,-29.63 715,-19.63 711.5,-29.63 718.5,-29.63"/>
</g>
<!-- Node21&#45;&gt;Node22 -->
<g id="edge22" class="edge">
<title>Node21&#45;&gt;Node22</title>
<path fill="none" stroke="midnightblue" d="M71.77,-67.23C82.1,-56.9 99.46,-39.54 112.17,-26.83"/>
<polygon fill="midnightblue" stroke="midnightblue" points="114.78,-29.17 119.37,-19.63 109.83,-24.22 114.78,-29.17"/>
</g>
<!-- Node24&#45;&gt;Node12 -->
<g id="edge27" class="edge">
<title>Node24&#45;&gt;Node12</title>
<path fill="none" stroke="midnightblue" d="M339.82,-190.08C341.27,-182.93 343.37,-172.64 345.19,-163.69"/>
<polygon fill="midnightblue" stroke="midnightblue" points="348.65,-164.25 347.22,-153.75 341.79,-162.85 348.65,-164.25"/>
</g>
<!-- Node24&#45;&gt;Node18 -->
<g id="edge26" class="edge">
<title>Node24&#45;&gt;Node18</title>
<path fill="none" stroke="midnightblue" d="M319.88,-190.5C275.12,-168.42 166.1,-107.38 211,-56 249.13,-12.37 428.61,-9.36 507.1,-10.19"/>
<polygon fill="midnightblue" stroke="midnightblue" points="507.43,-13.7 517.48,-10.33 507.53,-6.7 507.43,-13.7"/>
</g>
<!-- Node24&#45;&gt;Node19 -->
<g id="edge28" class="edge">
<title>Node24&#45;&gt;Node19</title>
<path fill="none" stroke="midnightblue" d="M367.12,-190.45C423.93,-173.63 553.4,-134.72 661,-98 668.22,-95.54 675.93,-92.76 683.21,-90.09"/>
<polygon fill="midnightblue" stroke="midnightblue" points="684.61,-93.3 692.76,-86.53 682.17,-86.74 684.61,-93.3"/>
</g>
<!-- Node25&#45;&gt;Node12 -->
<g id="edge30" class="edge">
<title>Node25&#45;&gt;Node12</title>
<path fill="none" stroke="midnightblue" d="M465.98,-190.44C442.9,-181.48 406.44,-167.31 380.36,-157.18"/>
<polygon fill="midnightblue" stroke="midnightblue" points="381.51,-153.88 370.92,-153.52 378.98,-160.4 381.51,-153.88"/>
</g>
<!-- Node25&#45;&gt;Node19 -->
<g id="edge31" class="edge">
<title>Node25&#45;&gt;Node19</title>
<path fill="none" stroke="midnightblue" d="M503.96,-190.49C542.86,-169.76 642.8,-116.49 689.82,-91.42"/>
<polygon fill="midnightblue" stroke="midnightblue" points="691.57,-94.45 698.75,-86.66 688.28,-88.28 691.57,-94.45"/>
</g>
<!-- Node28&#45;&gt;Node8 -->
<g id="edge35" class="edge">
<title>Node28&#45;&gt;Node8</title>
<path fill="none" stroke="midnightblue" d="M884.11,-251.98C870.8,-242.43 849,-226.81 833.04,-215.37"/>
<polygon fill="midnightblue" stroke="midnightblue" points="835.04,-212.49 824.87,-209.51 830.96,-218.18 835.04,-212.49"/>
</g>
<!-- Node28&#45;&gt;Node17 -->
<g id="edge37" class="edge">
<title>Node28&#45;&gt;Node17</title>
<path fill="none" stroke="midnightblue" d="M927.98,-251.95C963.72,-242.28 1023.24,-225.8 1074,-210 1147.94,-186.98 1168.08,-185.11 1239,-154 1331.15,-113.57 1434.25,-52.2 1478.67,-24.91"/>
<polygon fill="midnightblue" stroke="midnightblue" points="1480.56,-27.86 1487.23,-19.63 1476.88,-21.9 1480.56,-27.86"/>
</g>
<!-- Node29 -->
<g id="node29" class="node">
<title>Node29</title>
<g id="a_node29"><a xlink:title=" ">
<polygon fill="none" stroke="#bfbfbf" points="863.5,-190.5 863.5,-209.5 910.5,-209.5 910.5,-190.5 863.5,-190.5"/>
<text text-anchor="middle" x="887" y="-197.5" font-family="Helvetica,sans-Serif" font-size="10.00">cmath</text>
</a>
</g>
</g>
<!-- Node28&#45;&gt;Node29 -->
<g id="edge36" class="edge">
<title>Node28&#45;&gt;Node29</title>
<path fill="none" stroke="midnightblue" d="M894.71,-251.98C893.44,-243.58 891.46,-230.48 889.82,-219.66"/>
<polygon fill="midnightblue" stroke="midnightblue" points="893.24,-218.87 888.29,-209.51 886.32,-219.92 893.24,-218.87"/>
</g>
<!-- Node30 -->
<g id="node30" class="node">
<title>Node30</title>
<g id="a_node30"><a xlink:href="_t_allocator_8hpp.html" target="_top" xlink:title=" ">
<polygon fill="none" stroke="black" points="928.5,-190.5 928.5,-209.5 1065.5,-209.5 1065.5,-190.5 928.5,-190.5"/>
<text text-anchor="middle" x="997" y="-197.5" font-family="Helvetica,sans-Serif" font-size="10.00">../memory/TAllocator.hpp</text>
</a>
</g>
</g>
<!-- Node28&#45;&gt;Node30 -->
<g id="edge38" class="edge">
<title>Node28&#45;&gt;Node30</title>
<path fill="none" stroke="midnightblue" d="M910.47,-251.98C926.97,-242.25 954.18,-226.23 973.68,-214.74"/>
<polygon fill="midnightblue" stroke="midnightblue" points="975.72,-217.6 982.56,-209.51 972.16,-211.57 975.72,-217.6"/>
</g>
<!-- Node30&#45;&gt;Node9 -->
<g id="edge41" class="edge">
<title>Node30&#45;&gt;Node9</title>
<path fill="none" stroke="midnightblue" d="M958.34,-190.44C910.44,-179.84 829.72,-161.98 785.09,-152.1"/>
<polygon fill="midnightblue" stroke="midnightblue" points="785.6,-148.63 775.08,-149.89 784.09,-155.47 785.6,-148.63"/>
</g>
<!-- Node30&#45;&gt;Node18 -->
<g id="edge42" class="edge">
<title>Node30&#45;&gt;Node18</title>
<path fill="none" stroke="midnightblue" d="M986.34,-190.33C954.97,-165.29 859.47,-92.35 768,-56 704.9,-30.93 626.04,-19.27 580.71,-14.29"/>
<polygon fill="midnightblue" stroke="midnightblue" points="581.05,-10.81 570.74,-13.25 580.32,-17.77 581.05,-10.81"/>
</g>
<!-- Node30&#45;&gt;Node19 -->
<g id="edge39" class="edge">
<title>Node30&#45;&gt;Node19</title>
<path fill="none" stroke="midnightblue" d="M955.06,-190.48C922.34,-183.05 876.2,-170.82 838,-154 799.29,-136.96 758.26,-109.43 734.73,-92.6"/>
<polygon fill="midnightblue" stroke="midnightblue" points="736.76,-89.75 726.61,-86.72 732.65,-95.42 736.76,-89.75"/>
</g>
<!-- Node31 -->
<g id="node31" class="node">
<title>Node31</title>
<g id="a_node31"><a xlink:title=" ">
<polygon fill="none" stroke="#bfbfbf" points="1174,-134.5 1174,-153.5 1230,-153.5 1230,-134.5 1174,-134.5"/>
<text text-anchor="middle" x="1202" y="-141.5" font-family="Helvetica,sans-Serif" font-size="10.00">stddef.h</text>
</a>
</g>
</g>
<!-- Node30&#45;&gt;Node31 -->
<g id="edge40" class="edge">
<title>Node30&#45;&gt;Node31</title>
<path fill="none" stroke="midnightblue" d="M1029.48,-190.44C1066.07,-180.81 1125.45,-165.17 1164.11,-154.98"/>
<polygon fill="midnightblue" stroke="midnightblue" points="1165.17,-158.32 1173.95,-152.39 1163.39,-151.55 1165.17,-158.32"/>
</g>
<!-- Node32&#45;&gt;Node7 -->
<g id="edge45" class="edge">
<title>Node32&#45;&gt;Node7</title>
<path fill="none" stroke="midnightblue" d="M628.26,-380.36C615.24,-370.8 599.61,-359.33 586.5,-349.69"/>
<polygon fill="midnightblue" stroke="midnightblue" points="588.43,-346.77 578.3,-343.67 584.28,-352.41 588.43,-346.77"/>
</g>
<!-- Node33&#45;&gt;Node17 -->
<g id="edge48" class="edge">
<title>Node33&#45;&gt;Node17</title>
<path fill="none" stroke="midnightblue" d="M945.48,-313.5C1033.07,-282.22 1245.02,-201.26 1403,-98 1435.18,-76.96 1467.58,-45.79 1485.89,-27.03"/>
<polygon fill="midnightblue" stroke="midnightblue" points="1488.63,-29.22 1493.04,-19.59 1483.59,-24.37 1488.63,-29.22"/>
</g>
<!-- Node33&#45;&gt;Node28 -->
<g id="edge47" class="edge">
<title>Node33&#45;&gt;Node28</title>
<path fill="none" stroke="midnightblue" d="M903.05,-313.4C901.74,-303.96 900.01,-291.45 898.59,-281.19"/>
<polygon fill="midnightblue" stroke="midnightblue" points="902.04,-280.62 897.2,-271.19 895.11,-281.58 902.04,-280.62"/>
</g>
<!-- Node34&#45;&gt;Node4 -->
<g id="edge54" class="edge">
<title>Node34&#45;&gt;Node4</title>
<path fill="none" stroke="midnightblue" d="M937.65,-391.5C961.37,-379.37 1005.14,-357.02 1033.12,-342.72"/>
<polygon fill="midnightblue" stroke="midnightblue" points="1034.98,-345.7 1042.29,-338.03 1031.8,-339.47 1034.98,-345.7"/>
</g>
<!-- Node34&#45;&gt;Node9 -->
<g id="edge53" class="edge">
<title>Node34&#45;&gt;Node9</title>
<path fill="none" stroke="midnightblue" d="M892.49,-391.47C850.16,-378.54 774.84,-354.39 767,-344 726.18,-289.87 739.6,-202.17 748.18,-163.88"/>
<polygon fill="midnightblue" stroke="midnightblue" points="751.7,-164.22 750.62,-153.68 744.89,-162.59 751.7,-164.22"/>
</g>
<!-- Node34&#45;&gt;Node15 -->
<g id="edge52" class="edge">
<title>Node34&#45;&gt;Node15</title>
<path fill="none" stroke="midnightblue" d="M896.47,-391.4C883.92,-387.33 868.3,-382.76 854,-380 810.84,-371.67 489.64,-376.47 460,-344 430.64,-311.83 434.68,-281.44 460,-246 488.67,-205.86 527.58,-242.15 565,-210 600.85,-179.21 620.67,-125.11 629.09,-96.68"/>
<polygon fill="midnightblue" stroke="midnightblue" points="632.52,-97.4 631.85,-86.82 625.78,-95.51 632.52,-97.4"/>
</g>
<!-- Node35 -->
<g id="node35" class="node">
<title>Node35</title>
<g id="a_node35"><a xlink:title=" ">
<polygon fill="none" stroke="#bfbfbf" points="776.5,-319 776.5,-338 825.5,-338 825.5,-319 776.5,-319"/>
<text text-anchor="middle" x="801" y="-326" font-family="Helvetica,sans-Serif" font-size="10.00">cstdlib</text>
</a>
</g>
</g>
<!-- Node34&#45;&gt;Node35 -->
<g id="edge50" class="edge">
<title>Node34&#45;&gt;Node35</title>
<path fill="none" stroke="midnightblue" d="M906.29,-391.36C885.95,-379.41 849.03,-357.72 824.76,-343.46"/>
<polygon fill="midnightblue" stroke="midnightblue" points="826.23,-340.26 815.83,-338.22 822.68,-346.3 826.23,-340.26"/>
</g>
<!-- Node36 -->
<g id="node36" class="node">
<title>Node36</title>
<g id="a_node36"><a xlink:title=" ">
<polygon fill="none" stroke="#bfbfbf" points="666.5,-319 666.5,-338 719.5,-338 719.5,-319 666.5,-319"/>
<text text-anchor="middle" x="693" y="-326" font-family="Helvetica,sans-Serif" font-size="10.00">cstddef</text>
</a>
</g>
</g>
<!-- Node34&#45;&gt;Node36 -->
<g id="edge51" class="edge">
<title>Node34&#45;&gt;Node36</title>
<path fill="none" stroke="midnightblue" d="M892.51,-391.49C841.12,-376.13 737.87,-345.26 734,-344 731.55,-343.2 729.03,-342.36 726.49,-341.49"/>
<polygon fill="midnightblue" stroke="midnightblue" points="727.38,-338.1 716.78,-338.13 725.08,-344.71 727.38,-338.1"/>
</g>
<!-- Node38&#45;&gt;Node3 -->
<g id="edge67" class="edge">
<title>Node38&#45;&gt;Node3</title>
<path fill="none" stroke="midnightblue" d="M1281.4,-458.34C1276.48,-442.39 1264.99,-407.5 1251,-380 1245.03,-368.26 1236.95,-355.86 1230.29,-346.29"/>
<polygon fill="midnightblue" stroke="midnightblue" points="1233.1,-344.2 1224.44,-338.09 1227.4,-348.27 1233.1,-344.2"/>
</g>
<!-- Node38&#45;&gt;Node4 -->
<g id="edge57" class="edge">
<title>Node38&#45;&gt;Node4</title>
<path fill="none" stroke="midnightblue" d="M1277.56,-458.35C1261.56,-436.91 1221,-382.81 1217,-380 1188.71,-360.15 1152.22,-347.81 1121.44,-340.3"/>
<polygon fill="midnightblue" stroke="midnightblue" points="1122.19,-336.89 1111.66,-338.03 1120.61,-343.7 1122.19,-336.89"/>
</g>
<!-- Node38&#45;&gt;Node19 -->
<g id="edge58" class="edge">
<title>Node38&#45;&gt;Node19</title>
<path fill="none" stroke="midnightblue" d="M1327.09,-463.37C1392.47,-455.16 1513.77,-428.7 1558,-344 1579.62,-302.59 1555.21,-276.7 1520,-246 1418.67,-157.65 1369.5,-166.33 1239,-134 1071.28,-92.44 865.82,-81.72 769.6,-78.96"/>
<polygon fill="midnightblue" stroke="midnightblue" points="769.62,-75.46 759.53,-78.69 769.43,-82.46 769.62,-75.46"/>
</g>
<!-- Node38&#45;&gt;Node26 -->
<g id="edge59" class="edge">
<title>Node38&#45;&gt;Node26</title>
<path fill="none" stroke="midnightblue" d="M1284.21,-458.42C1285.27,-432.86 1291.84,-356.35 1332,-313 1344.31,-299.71 1387.12,-284.31 1419.67,-274.04"/>
<polygon fill="midnightblue" stroke="midnightblue" points="1420.88,-277.33 1429.39,-271.03 1418.81,-270.64 1420.88,-277.33"/>
</g>
<!-- Node39 -->
<g id="node39" class="node">
<title>Node39</title>
<g id="a_node39"><a xlink:href="vae__logger_8hpp.html" target="_top" xlink:title=" ">
<polygon fill="none" stroke="black" points="1341,-391.5 1341,-410.5 1437,-410.5 1437,-391.5 1341,-391.5"/>
<text text-anchor="middle" x="1389" y="-398.5" font-family="Helvetica,sans-Serif" font-size="10.00">./vae_logger.hpp</text>
</a>
</g>
</g>
<!-- Node38&#45;&gt;Node39 -->
<g id="edge60" class="edge">
<title>Node38&#45;&gt;Node39</title>
<path fill="none" stroke="midnightblue" d="M1298.16,-458.23C1315.71,-447.37 1345.84,-428.72 1366.56,-415.89"/>
<polygon fill="midnightblue" stroke="midnightblue" points="1368.4,-418.87 1375.06,-410.63 1364.72,-412.91 1368.4,-418.87"/>
</g>
<!-- Node39&#45;&gt;Node3 -->
<g id="edge61" class="edge">
<title>Node39&#45;&gt;Node3</title>
<path fill="none" stroke="midnightblue" d="M1368.37,-391.5C1338.46,-379.16 1282.84,-356.23 1248.28,-341.98"/>
<polygon fill="midnightblue" stroke="midnightblue" points="1249.28,-338.61 1238.7,-338.03 1246.61,-345.08 1249.28,-338.61"/>
</g>
<!-- Node39&#45;&gt;Node4 -->
<g id="edge63" class="edge">
<title>Node39&#45;&gt;Node4</title>
<path fill="none" stroke="midnightblue" d="M1349.19,-391.5C1288.99,-378.63 1174.83,-354.25 1109.07,-340.2"/>
<polygon fill="midnightblue" stroke="midnightblue" points="1109.46,-336.7 1098.95,-338.03 1107.99,-343.55 1109.46,-336.7"/>
</g>
<!-- Node39&#45;&gt;Node17 -->
<g id="edge65" class="edge">
<title>Node39&#45;&gt;Node17</title>
<path fill="none" stroke="midnightblue" d="M1437,-396.6C1475.14,-391.31 1527.05,-377.9 1558,-344 1583.08,-316.53 1577,-299.69 1577,-262.5 1577,-262.5 1577,-262.5 1577,-143 1577,-95.69 1539.88,-50.04 1517.53,-26.83"/>
<polygon fill="midnightblue" stroke="midnightblue" points="1519.86,-24.21 1510.32,-19.59 1514.89,-29.15 1519.86,-24.21"/>
</g>
<!-- Node40 -->
<g id="node40" class="node">
<title>Node40</title>
<g id="a_node40"><a xlink:title=" ">
<polygon fill="none" stroke="#bfbfbf" points="1643,-319 1643,-338 1693,-338 1693,-319 1643,-319"/>
<text text-anchor="middle" x="1668" y="-326" font-family="Helvetica,sans-Serif" font-size="10.00">stdio.h</text>
</a>
</g>
</g>
<!-- Node39&#45;&gt;Node40 -->
<g id="edge62" class="edge">
<title>Node39&#45;&gt;Node40</title>
<path fill="none" stroke="midnightblue" d="M1422.65,-391.5C1475.89,-378.04 1579.02,-351.98 1633.05,-338.33"/>
<polygon fill="midnightblue" stroke="midnightblue" points="1634.03,-341.7 1642.86,-335.85 1632.31,-334.91 1634.03,-341.7"/>
</g>
<!-- Node41 -->
<g id="node41" class="node">
<title>Node41</title>
<g id="a_node41"><a xlink:title=" ">
<polygon fill="none" stroke="#bfbfbf" points="1341,-319 1341,-338 1397,-338 1397,-319 1341,-319"/>
<text text-anchor="middle" x="1369" y="-326" font-family="Helvetica,sans-Serif" font-size="10.00">stdarg.h</text>
</a>
</g>
</g>
<!-- Node39&#45;&gt;Node41 -->
<g id="edge64" class="edge">
<title>Node39&#45;&gt;Node41</title>
<path fill="none" stroke="midnightblue" d="M1386.55,-391.36C1383.52,-380.68 1378.28,-362.22 1374.31,-348.23"/>
<polygon fill="midnightblue" stroke="midnightblue" points="1377.57,-346.88 1371.47,-338.22 1370.83,-348.79 1377.57,-346.88"/>
</g>
<!-- Node42 -->
<g id="node42" class="node">
<title>Node42</title>
<g id="a_node42"><a xlink:title=" ">
<polygon fill="none" stroke="#bfbfbf" points="1415.5,-313.5 1415.5,-343.5 1548.5,-343.5 1548.5,-313.5 1415.5,-313.5"/>
<text text-anchor="start" x="1423.5" y="-331.5" font-family="Helvetica,sans-Serif" font-size="10.00">../../external/headeronly</text>
<text text-anchor="middle" x="1482" y="-320.5" font-family="Helvetica,sans-Serif" font-size="10.00">/stb_sprintf.h</text>
</a>
</g>
</g>
<!-- Node39&#45;&gt;Node42 -->
<g id="edge66" class="edge">
<title>Node39&#45;&gt;Node42</title>
<path fill="none" stroke="midnightblue" d="M1400.4,-391.36C1413.91,-381.12 1436.86,-363.72 1454.98,-349.98"/>
<polygon fill="midnightblue" stroke="midnightblue" points="1457.58,-352.41 1463.43,-343.58 1453.35,-346.83 1457.58,-352.41"/>
</g>
<!-- Node43&#45;&gt;Node2 -->
<g id="edge70" class="edge">
<title>Node43&#45;&gt;Node2</title>
<path fill="none" stroke="midnightblue" d="M1113.23,-519.98C1092.52,-510.03 1058.05,-493.49 1034.01,-481.96"/>
<polygon fill="midnightblue" stroke="midnightblue" points="1035.26,-478.68 1024.73,-477.51 1032.23,-484.99 1035.26,-478.68"/>
</g>
<!-- Node43&#45;&gt;Node5 -->
<g id="edge71" class="edge">
<title>Node43&#45;&gt;Node5</title>
<path fill="none" stroke="midnightblue" d="M1132.99,-519.81C1137.65,-499.49 1149.33,-448.55 1155.7,-420.78"/>
<polygon fill="midnightblue" stroke="midnightblue" points="1159.17,-421.28 1157.99,-410.76 1152.35,-419.72 1159.17,-421.28"/>
</g>
<!-- Node44&#45;&gt;Node31 -->
<g id="edge73" class="edge">
<title>Node44&#45;&gt;Node31</title>
<path fill="none" stroke="midnightblue" d="M1711.97,-391.27C1715.28,-374.27 1719.92,-336.34 1702,-313 1587.76,-164.24 1336.26,-145.98 1240.26,-144.62"/>
<polygon fill="midnightblue" stroke="midnightblue" points="1240.17,-141.12 1230.14,-144.53 1240.11,-148.12 1240.17,-141.12"/>
</g>
<!-- Node44&#45;&gt;Node40 -->
<g id="edge74" class="edge">
<title>Node44&#45;&gt;Node40</title>
<path fill="none" stroke="midnightblue" d="M1704.85,-391.36C1698.3,-380.36 1686.83,-361.11 1678.43,-347"/>
<polygon fill="midnightblue" stroke="midnightblue" points="1681.32,-345.02 1673.19,-338.22 1675.3,-348.6 1681.32,-345.02"/>
</g>
</g>
</svg>
