<?xml version="1.0" encoding="UTF-8" standalone="no"?>
<!DOCTYPE svg PUBLIC "-//W3C//DTD SVG 1.1//EN"
 "http://www.w3.org/Graphics/SVG/1.1/DTD/svg11.dtd">
<!-- Generated by graphviz version 2.50.0 (0)
 -->
<!-- Title: vae_effect_base.hpp Pages: 1 -->
<svg width="345pt" height="532pt"
 viewBox="0.00 0.00 344.50 532.00" xmlns="http://www.w3.org/2000/svg" xmlns:xlink="http://www.w3.org/1999/xlink">
<g id="graph0" class="graph" transform="scale(1 1) rotate(0) translate(4 528)">
<title>vae_effect_base.hpp</title>
<!-- Node1 -->
<g id="node1" class="node">
<title>Node1</title>
<g id="a_node1"><a xlink:title=" ">
<polygon fill="#bfbfbf" stroke="black" points="46.5,-504.5 46.5,-523.5 164.5,-523.5 164.5,-504.5 46.5,-504.5"/>
<text text-anchor="middle" x="105.5" y="-511.5" font-family="Helvetica,sans-Serif" font-size="10.00">vae_effect_base.hpp</text>
</a>
</g>
</g>
<!-- Node2 -->
<g id="node2" class="node">
<title>Node2</title>
<g id="a_node2"><a xlink:href="vae__effects__list_8hpp.html" target="_top" xlink:title=" ">
<polygon fill="none" stroke="black" points="48,-336.5 48,-355.5 163,-355.5 163,-336.5 48,-336.5"/>
<text text-anchor="middle" x="105.5" y="-343.5" font-family="Helvetica,sans-Serif" font-size="10.00">vae_effects_list.hpp</text>
</a>
</g>
</g>
<!-- Node1&#45;&gt;Node2 -->
<g id="edge1" class="edge">
<title>Node1&#45;&gt;Node2</title>
<path fill="none" stroke="midnightblue" d="M67.98,-500.23C53.27,-493.16 37.91,-482.75 29.5,-468 25.1,-460.28 27.91,-456.75 29.5,-448 34.24,-421.85 35.01,-413.6 50.5,-392 61.43,-376.76 78.77,-363.75 91.05,-355.7"/>
<polygon fill="midnightblue" stroke="midnightblue" points="66.92,-503.58 77.48,-504.4 69.74,-497.17 66.92,-503.58"/>
</g>
<!-- Node10 -->
<g id="node10" class="node">
<title>Node10</title>
<g id="a_node10"><a xlink:href="vae__effects__processor_8hpp.html" target="_top" xlink:title=" ">
<polygon fill="none" stroke="black" points="190.5,-448.5 190.5,-467.5 336.5,-467.5 336.5,-448.5 190.5,-448.5"/>
<text text-anchor="middle" x="263.5" y="-455.5" font-family="Helvetica,sans-Serif" font-size="10.00">vae_effects_processor.hpp</text>
</a>
</g>
</g>
<!-- Node1&#45;&gt;Node10 -->
<g id="edge11" class="edge">
<title>Node1&#45;&gt;Node10</title>
<path fill="none" stroke="midnightblue" d="M140.11,-501.17C169.86,-491 212.05,-476.59 238.58,-467.52"/>
<polygon fill="midnightblue" stroke="midnightblue" points="138.87,-497.9 130.54,-504.44 141.13,-504.52 138.87,-497.9"/>
</g>
<!-- Node12 -->
<g id="node12" class="node">
<title>Node12</title>
<g id="a_node12"><a xlink:href="vae__faust__common_8hpp.html" target="_top" xlink:title=" ">
<polygon fill="none" stroke="black" points="38.5,-448.5 38.5,-467.5 172.5,-467.5 172.5,-448.5 38.5,-448.5"/>
<text text-anchor="middle" x="105.5" y="-455.5" font-family="Helvetica,sans-Serif" font-size="10.00">vae_faust_common.hpp</text>
</a>
</g>
</g>
<!-- Node1&#45;&gt;Node12 -->
<g id="edge14" class="edge">
<title>Node1&#45;&gt;Node12</title>
<path fill="none" stroke="midnightblue" d="M105.5,-493.8C105.5,-484.91 105.5,-474.78 105.5,-467.75"/>
<polygon fill="midnightblue" stroke="midnightblue" points="102,-494.08 105.5,-504.08 109,-494.08 102,-494.08"/>
</g>
<!-- Node3 -->
<g id="node3" class="node">
<title>Node3</title>
<g id="a_node3"><a xlink:href="vae__effects__factory_8hpp.html" target="_top" xlink:title=" ">
<polygon fill="none" stroke="black" points="43,-280.5 43,-299.5 176,-299.5 176,-280.5 43,-280.5"/>
<text text-anchor="middle" x="109.5" y="-287.5" font-family="Helvetica,sans-Serif" font-size="10.00">vae_effects_factory.hpp</text>
</a>
</g>
</g>
<!-- Node2&#45;&gt;Node3 -->
<g id="edge2" class="edge">
<title>Node2&#45;&gt;Node3</title>
<path fill="none" stroke="midnightblue" d="M106.9,-326.1C107.56,-317.14 108.33,-306.86 108.85,-299.75"/>
<polygon fill="midnightblue" stroke="midnightblue" points="103.41,-325.85 106.16,-336.08 110.39,-326.37 103.41,-325.85"/>
</g>
<!-- Node4 -->
<g id="node4" class="node">
<title>Node4</title>
<g id="a_node4"><a xlink:href="vae__bank__manager_8hpp.html" target="_top" xlink:title=" ">
<polygon fill="none" stroke="black" points="45.5,-224.5 45.5,-243.5 177.5,-243.5 177.5,-224.5 45.5,-224.5"/>
<text text-anchor="middle" x="111.5" y="-231.5" font-family="Helvetica,sans-Serif" font-size="10.00">vae_bank_manager.hpp</text>
</a>
</g>
</g>
<!-- Node3&#45;&gt;Node4 -->
<g id="edge3" class="edge">
<title>Node3&#45;&gt;Node4</title>
<path fill="none" stroke="midnightblue" d="M110.21,-269.8C110.54,-260.91 110.92,-250.78 111.18,-243.75"/>
<polygon fill="midnightblue" stroke="midnightblue" points="106.7,-269.96 109.83,-280.08 113.7,-270.22 106.7,-269.96"/>
</g>
<!-- Node5 -->
<g id="node5" class="node">
<title>Node5</title>
<g id="a_node5"><a xlink:href="vae__engine_8hpp.html" target="_top" xlink:title=" ">
<polygon fill="none" stroke="black" points="145.5,-56.5 145.5,-75.5 239.5,-75.5 239.5,-56.5 145.5,-56.5"/>
<text text-anchor="middle" x="192.5" y="-63.5" font-family="Helvetica,sans-Serif" font-size="10.00">vae_engine.hpp</text>
</a>
</g>
</g>
<!-- Node4&#45;&gt;Node5 -->
<g id="edge4" class="edge">
<title>Node4&#45;&gt;Node5</title>
<path fill="none" stroke="midnightblue" d="M151.13,-220.54C166.52,-213.55 182.58,-203.11 191.5,-188 213.18,-151.28 201.11,-96.71 195.18,-75.69"/>
<polygon fill="midnightblue" stroke="midnightblue" points="149.59,-217.39 141.7,-224.46 152.27,-223.85 149.59,-217.39"/>
</g>
<!-- Node8 -->
<g id="node8" class="node">
<title>Node8</title>
<g id="a_node8"><a xlink:href="vae__spatial__manager_8hpp.html" target="_top" xlink:title=" ">
<polygon fill="none" stroke="black" points="41,-168.5 41,-187.5 182,-187.5 182,-168.5 41,-168.5"/>
<text text-anchor="middle" x="111.5" y="-175.5" font-family="Helvetica,sans-Serif" font-size="10.00">vae_spatial_manager.hpp</text>
</a>
</g>
</g>
<!-- Node4&#45;&gt;Node8 -->
<g id="edge7" class="edge">
<title>Node4&#45;&gt;Node8</title>
<path fill="none" stroke="midnightblue" d="M111.5,-213.8C111.5,-204.91 111.5,-194.78 111.5,-187.75"/>
<polygon fill="midnightblue" stroke="midnightblue" points="108,-214.08 111.5,-224.08 115,-214.08 108,-214.08"/>
</g>
<!-- Node6 -->
<g id="node6" class="node">
<title>Node6</title>
<g id="a_node6"><a xlink:href="main_8cpp.html" target="_top" xlink:title=" ">
<polygon fill="none" stroke="black" points="115.5,-0.5 115.5,-19.5 177.5,-19.5 177.5,-0.5 115.5,-0.5"/>
<text text-anchor="middle" x="146.5" y="-7.5" font-family="Helvetica,sans-Serif" font-size="10.00">main.cpp</text>
</a>
</g>
</g>
<!-- Node5&#45;&gt;Node6 -->
<g id="edge5" class="edge">
<title>Node5&#45;&gt;Node6</title>
<path fill="none" stroke="midnightblue" d="M178.39,-48.43C170.32,-38.97 160.54,-27.48 153.95,-19.75"/>
<polygon fill="midnightblue" stroke="midnightblue" points="175.75,-50.74 184.9,-56.08 181.08,-46.2 175.75,-50.74"/>
</g>
<!-- Node7 -->
<g id="node7" class="node">
<title>Node7</title>
<g id="a_node7"><a xlink:href="vae__pimpl_8cpp.html" target="_top" xlink:title=" ">
<polygon fill="none" stroke="black" points="195.5,-0.5 195.5,-19.5 283.5,-19.5 283.5,-0.5 195.5,-0.5"/>
<text text-anchor="middle" x="239.5" y="-7.5" font-family="Helvetica,sans-Serif" font-size="10.00">vae_pimpl.cpp</text>
</a>
</g>
</g>
<!-- Node5&#45;&gt;Node7 -->
<g id="edge6" class="edge">
<title>Node5&#45;&gt;Node7</title>
<path fill="none" stroke="midnightblue" d="M206.92,-48.43C215.16,-38.97 225.15,-27.48 231.88,-19.75"/>
<polygon fill="midnightblue" stroke="midnightblue" points="204.19,-46.24 200.26,-56.08 209.47,-50.84 204.19,-46.24"/>
</g>
<!-- Node8&#45;&gt;Node5 -->
<g id="edge8" class="edge">
<title>Node8&#45;&gt;Node5</title>
<path fill="none" stroke="midnightblue" d="M128.46,-161.11C136.8,-152.84 146.71,-142.33 154.5,-132 168.66,-113.21 181.7,-88.71 188.19,-75.82"/>
<polygon fill="midnightblue" stroke="midnightblue" points="125.82,-158.79 121.06,-168.26 130.68,-163.82 125.82,-158.79"/>
</g>
<!-- Node9 -->
<g id="node9" class="node">
<title>Node9</title>
<g id="a_node9"><a xlink:href="vae__spatial__processor_8hpp.html" target="_top" xlink:title=" ">
<polygon fill="none" stroke="black" points="0,-112.5 0,-131.5 145,-131.5 145,-112.5 0,-112.5"/>
<text text-anchor="middle" x="72.5" y="-119.5" font-family="Helvetica,sans-Serif" font-size="10.00">vae_spatial_processor.hpp</text>
</a>
</g>
</g>
<!-- Node8&#45;&gt;Node9 -->
<g id="edge9" class="edge">
<title>Node8&#45;&gt;Node9</title>
<path fill="none" stroke="midnightblue" d="M99.12,-159.86C92.36,-150.5 84.29,-139.33 78.82,-131.75"/>
<polygon fill="midnightblue" stroke="midnightblue" points="96.37,-162.03 105.06,-168.08 102.04,-157.93 96.37,-162.03"/>
</g>
<!-- Node9&#45;&gt;Node5 -->
<g id="edge10" class="edge">
<title>Node9&#45;&gt;Node5</title>
<path fill="none" stroke="midnightblue" d="M100.87,-108.23C123.32,-98.13 154.04,-84.31 173.57,-75.52"/>
<polygon fill="midnightblue" stroke="midnightblue" points="99.2,-105.15 91.51,-112.44 102.07,-111.53 99.2,-105.15"/>
</g>
<!-- Node11 -->
<g id="node11" class="node">
<title>Node11</title>
<g id="a_node11"><a xlink:href="vae__mixer__processor_8hpp.html" target="_top" xlink:title=" ">
<polygon fill="none" stroke="black" points="184.5,-336.5 184.5,-355.5 324.5,-355.5 324.5,-336.5 184.5,-336.5"/>
<text text-anchor="middle" x="254.5" y="-343.5" font-family="Helvetica,sans-Serif" font-size="10.00">vae_mixer_processor.hpp</text>
</a>
</g>
</g>
<!-- Node10&#45;&gt;Node11 -->
<g id="edge12" class="edge">
<title>Node10&#45;&gt;Node11</title>
<path fill="none" stroke="midnightblue" d="M261.97,-438.35C260,-414.25 256.65,-373.31 255.2,-355.59"/>
<polygon fill="midnightblue" stroke="midnightblue" points="258.49,-438.69 262.79,-448.37 265.47,-438.12 258.49,-438.69"/>
</g>
<!-- Node11&#45;&gt;Node5 -->
<g id="edge13" class="edge">
<title>Node11&#45;&gt;Node5</title>
<path fill="none" stroke="midnightblue" d="M253.4,-326.26C252.22,-304.37 250.5,-267.07 250.5,-235 250.5,-235 250.5,-235 250.5,-177 250.5,-134.9 216.85,-93.11 200.81,-75.59"/>
<polygon fill="midnightblue" stroke="midnightblue" points="249.92,-326.66 253.98,-336.45 256.91,-326.27 249.92,-326.66"/>
</g>
<!-- Node13 -->
<g id="node13" class="node">
<title>Node13</title>
<g id="a_node13"><a xlink:href="reverb__gen_8hpp.html" target="_top" xlink:title=" ">
<polygon fill="none" stroke="black" points="59.5,-392.5 59.5,-411.5 151.5,-411.5 151.5,-392.5 59.5,-392.5"/>
<text text-anchor="middle" x="105.5" y="-399.5" font-family="Helvetica,sans-Serif" font-size="10.00">reverb_gen.hpp</text>
</a>
</g>
</g>
<!-- Node12&#45;&gt;Node13 -->
<g id="edge15" class="edge">
<title>Node12&#45;&gt;Node13</title>
<path fill="none" stroke="midnightblue" d="M105.5,-437.8C105.5,-428.91 105.5,-418.78 105.5,-411.75"/>
<polygon fill="midnightblue" stroke="midnightblue" points="102,-438.08 105.5,-448.08 109,-438.08 102,-438.08"/>
</g>
<!-- Node13&#45;&gt;Node2 -->
<g id="edge16" class="edge">
<title>Node13&#45;&gt;Node2</title>
<path fill="none" stroke="midnightblue" d="M105.5,-381.8C105.5,-372.91 105.5,-362.78 105.5,-355.75"/>
<polygon fill="midnightblue" stroke="midnightblue" points="102,-382.08 105.5,-392.08 109,-382.08 102,-382.08"/>
</g>
</g>
</svg>
