<?xml version="1.0" encoding="UTF-8" standalone="no"?>
<!DOCTYPE svg PUBLIC "-//W3C//DTD SVG 1.1//EN"
 "http://www.w3.org/Graphics/SVG/1.1/DTD/svg11.dtd">
<!-- Generated by graphviz version 2.50.0 (0)
 -->
<!-- Title: vae_types.hpp Pages: 1 -->
<svg width="1055pt" height="486pt"
 viewBox="0.00 0.00 1055.00 486.00" xmlns="http://www.w3.org/2000/svg" xmlns:xlink="http://www.w3.org/1999/xlink">
<g id="graph0" class="graph" transform="scale(1 1) rotate(0) translate(4 482)">
<title>vae_types.hpp</title>
<!-- Node1 -->
<g id="node1" class="node">
<title>Node1</title>
<g id="a_node1"><a xlink:title="Internal types used across VAE.">
<polygon fill="#bfbfbf" stroke="black" points="441.5,-458.5 441.5,-477.5 529.5,-477.5 529.5,-458.5 441.5,-458.5"/>
<text text-anchor="middle" x="485.5" y="-465.5" font-family="Helvetica,sans-Serif" font-size="10.00">vae_types.hpp</text>
</a>
</g>
</g>
<!-- Node2 -->
<g id="node2" class="node">
<title>Node2</title>
<g id="a_node2"><a xlink:href="vae_8hpp.html" target="_top" xlink:title="Contains all public API types for VAE.">
<polygon fill="none" stroke="black" points="0,-319 0,-338 133,-338 133,-319 0,-319"/>
<text text-anchor="middle" x="66.5" y="-326" font-family="Helvetica,sans-Serif" font-size="10.00">../../include/vae/vae.hpp</text>
</a>
</g>
</g>
<!-- Node1&#45;&gt;Node2 -->
<g id="edge1" class="edge">
<title>Node1&#45;&gt;Node2</title>
<path fill="none" stroke="midnightblue" d="M441.1,-462.45C392.56,-456.59 312.95,-444.39 247.5,-422 239.42,-419.23 139.98,-367.72 92.04,-342.79"/>
<polygon fill="midnightblue" stroke="midnightblue" points="93.39,-339.55 82.91,-338.04 90.16,-345.76 93.39,-339.55"/>
</g>
<!-- Node3 -->
<g id="node3" class="node">
<title>Node3</title>
<g id="a_node3"><a xlink:href="vae__profiler_8hpp.html" target="_top" xlink:title=" ">
<polygon fill="none" stroke="black" points="489,-319 489,-338 638,-338 638,-319 489,-319"/>
<text text-anchor="middle" x="563.5" y="-326" font-family="Helvetica,sans-Serif" font-size="10.00">../wrapped/vae_profiler.hpp</text>
</a>
</g>
</g>
<!-- Node1&#45;&gt;Node3 -->
<g id="edge2" class="edge">
<title>Node1&#45;&gt;Node3</title>
<path fill="none" stroke="midnightblue" d="M490.38,-458.4C502.96,-436.21 536.72,-376.72 553.6,-346.95"/>
<polygon fill="midnightblue" stroke="midnightblue" points="556.73,-348.52 558.62,-338.1 550.64,-345.07 556.73,-348.52"/>
</g>
<!-- Node4 -->
<g id="node4" class="node">
<title>Node4</title>
<g id="a_node4"><a xlink:href="vae__config_8hpp.html" target="_top" xlink:title=" ">
<polygon fill="none" stroke="black" points="58,-391.5 58,-410.5 155,-410.5 155,-391.5 58,-391.5"/>
<text text-anchor="middle" x="106.5" y="-398.5" font-family="Helvetica,sans-Serif" font-size="10.00">./vae_config.hpp</text>
</a>
</g>
</g>
<!-- Node1&#45;&gt;Node4 -->
<g id="edge3" class="edge">
<title>Node1&#45;&gt;Node4</title>
<path fill="none" stroke="midnightblue" d="M441.39,-461.84C382.51,-454.64 275.13,-440.34 184.5,-422 172.08,-419.49 158.68,-416.25 146.55,-413.11"/>
<polygon fill="midnightblue" stroke="midnightblue" points="147.27,-409.68 136.71,-410.52 145.49,-416.45 147.27,-409.68"/>
</g>
<!-- Node5 -->
<g id="node5" class="node">
<title>Node5</title>
<g id="a_node5"><a xlink:title=" ">
<polygon fill="none" stroke="#bfbfbf" points="723,-386 723,-416 820,-416 820,-386 723,-386"/>
<text text-anchor="start" x="731" y="-404" font-family="Helvetica,sans-Serif" font-size="10.00">../../external/glm</text>
<text text-anchor="middle" x="771.5" y="-393" font-family="Helvetica,sans-Serif" font-size="10.00">/glm/glm.hpp</text>
</a>
</g>
</g>
<!-- Node1&#45;&gt;Node5 -->
<g id="edge5" class="edge">
<title>Node1&#45;&gt;Node5</title>
<path fill="none" stroke="midnightblue" d="M529.83,-460.23C576.29,-452.68 651.17,-439.24 714.5,-422 717.69,-421.13 720.95,-420.18 724.23,-419.16"/>
<polygon fill="midnightblue" stroke="midnightblue" points="725.59,-422.41 734.03,-416 723.44,-415.74 725.59,-422.41"/>
</g>
<!-- Node6 -->
<g id="node6" class="node">
<title>Node6</title>
<g id="a_node6"><a xlink:href="_t_audio_buffer_8hpp.html" target="_top" xlink:title=" ">
<polygon fill="none" stroke="black" points="292,-313.5 292,-343.5 471,-343.5 471,-313.5 292,-313.5"/>
<text text-anchor="start" x="300" y="-331.5" font-family="Helvetica,sans-Serif" font-size="10.00">../../external/tklb</text>
<text text-anchor="middle" x="381.5" y="-320.5" font-family="Helvetica,sans-Serif" font-size="10.00">/src/types/audio/TAudioBuffer.hpp</text>
</a>
</g>
</g>
<!-- Node1&#45;&gt;Node6 -->
<g id="edge6" class="edge">
<title>Node1&#45;&gt;Node6</title>
<path fill="none" stroke="midnightblue" d="M485.66,-458.44C485.54,-441.75 483.16,-404.33 465.5,-380 455.83,-366.67 441.46,-356.2 427.33,-348.33"/>
<polygon fill="midnightblue" stroke="midnightblue" points="428.62,-345.06 418.13,-343.54 425.38,-351.26 428.62,-345.06"/>
</g>
<!-- Node31 -->
<g id="node31" class="node">
<title>Node31</title>
<g id="a_node31"><a xlink:href="_t_audio_ring_buffer_8hpp.html" target="_top" xlink:title=" ">
<polygon fill="none" stroke="black" points="306,-380.5 306,-421.5 457,-421.5 457,-380.5 306,-380.5"/>
<text text-anchor="start" x="314" y="-409.5" font-family="Helvetica,sans-Serif" font-size="10.00">../../external/tklb</text>
<text text-anchor="start" x="314" y="-398.5" font-family="Helvetica,sans-Serif" font-size="10.00">/src/types/audio/TAudioRing</text>
<text text-anchor="middle" x="381.5" y="-387.5" font-family="Helvetica,sans-Serif" font-size="10.00">Buffer.hpp</text>
</a>
</g>
</g>
<!-- Node1&#45;&gt;Node31 -->
<g id="edge43" class="edge">
<title>Node1&#45;&gt;Node31</title>
<path fill="none" stroke="midnightblue" d="M471.47,-458.23C458.73,-450.27 439.28,-438.11 421.73,-427.14"/>
<polygon fill="midnightblue" stroke="midnightblue" points="423.1,-423.87 412.77,-421.54 419.39,-429.81 423.1,-423.87"/>
</g>
<!-- Node32 -->
<g id="node32" class="node">
<title>Node32</title>
<g id="a_node32"><a xlink:href="_t_string_8hpp.html" target="_top" xlink:title=" ">
<polygon fill="none" stroke="black" points="151.5,-313.5 151.5,-343.5 273.5,-343.5 273.5,-313.5 151.5,-313.5"/>
<text text-anchor="start" x="159.5" y="-331.5" font-family="Helvetica,sans-Serif" font-size="10.00">../../external/tklb</text>
<text text-anchor="middle" x="212.5" y="-320.5" font-family="Helvetica,sans-Serif" font-size="10.00">/src/types/TString.hpp</text>
</a>
</g>
</g>
<!-- Node1&#45;&gt;Node32 -->
<g id="edge45" class="edge">
<title>Node1&#45;&gt;Node32</title>
<path fill="none" stroke="midnightblue" d="M441.48,-463.93C401.3,-459.48 341.51,-448.59 296.5,-422 266.92,-404.52 241.79,-373.27 226.93,-351.97"/>
<polygon fill="midnightblue" stroke="midnightblue" points="229.71,-349.84 221.2,-343.52 223.91,-353.77 229.71,-349.84"/>
</g>
<!-- Node33 -->
<g id="node33" class="node">
<title>Node33</title>
<g id="a_node33"><a xlink:href="vae__allocators_8hpp.html" target="_top" xlink:title=" ">
<polygon fill="none" stroke="black" points="590,-391.5 590,-410.5 705,-410.5 705,-391.5 590,-391.5"/>
<text text-anchor="middle" x="647.5" y="-398.5" font-family="Helvetica,sans-Serif" font-size="10.00">./vae_allocators.hpp</text>
</a>
</g>
</g>
<!-- Node1&#45;&gt;Node33 -->
<g id="edge48" class="edge">
<title>Node1&#45;&gt;Node33</title>
<path fill="none" stroke="midnightblue" d="M507.01,-458.37C535.17,-447.07 584.7,-427.2 616.8,-414.32"/>
<polygon fill="midnightblue" stroke="midnightblue" points="618.18,-417.54 626.16,-410.56 615.57,-411.04 618.18,-417.54"/>
</g>
<!-- Node36 -->
<g id="node36" class="node">
<title>Node36</title>
<g id="a_node36"><a xlink:title=" ">
<polygon fill="none" stroke="#bfbfbf" points="838.5,-391.5 838.5,-410.5 886.5,-410.5 886.5,-391.5 838.5,-391.5"/>
<text text-anchor="middle" x="862.5" y="-398.5" font-family="Helvetica,sans-Serif" font-size="10.00">mutex</text>
</a>
</g>
</g>
<!-- Node1&#45;&gt;Node36 -->
<g id="edge54" class="edge">
<title>Node1&#45;&gt;Node36</title>
<path fill="none" stroke="midnightblue" d="M529.74,-466.98C596.55,-465.69 726.35,-458.2 829.5,-422 833.77,-420.5 838.08,-418.4 842.11,-416.13"/>
<polygon fill="midnightblue" stroke="midnightblue" points="844.23,-418.93 850.88,-410.68 840.54,-412.99 844.23,-418.93"/>
</g>
<!-- Node4&#45;&gt;Node2 -->
<g id="edge4" class="edge">
<title>Node4&#45;&gt;Node2</title>
<path fill="none" stroke="midnightblue" d="M101.6,-391.36C95.36,-380.36 84.44,-361.11 76.43,-347"/>
<polygon fill="midnightblue" stroke="midnightblue" points="79.42,-345.19 71.44,-338.22 73.34,-348.64 79.42,-345.19"/>
</g>
<!-- Node7 -->
<g id="node7" class="node">
<title>Node7</title>
<g id="a_node7"><a xlink:title=" ">
<polygon fill="none" stroke="#bfbfbf" points="367.5,-190.5 367.5,-209.5 431.5,-209.5 431.5,-190.5 367.5,-190.5"/>
<text text-anchor="middle" x="399.5" y="-197.5" font-family="Helvetica,sans-Serif" font-size="10.00">algorithm</text>
</a>
</g>
</g>
<!-- Node6&#45;&gt;Node7 -->
<g id="edge7" class="edge">
<title>Node6&#45;&gt;Node7</title>
<path fill="none" stroke="midnightblue" d="M471.23,-314.19C513.65,-305.87 557.78,-293.57 570.5,-277 578.89,-266.07 578.91,-256.91 570.5,-246 554.89,-225.76 487.23,-212.81 441.84,-206.23"/>
<polygon fill="midnightblue" stroke="midnightblue" points="442.07,-202.73 431.68,-204.81 441.1,-209.66 442.07,-202.73"/>
</g>
<!-- Node8 -->
<g id="node8" class="node">
<title>Node8</title>
<g id="a_node8"><a xlink:title=" ">
<polygon fill="none" stroke="#bfbfbf" points="291.5,-134.5 291.5,-153.5 335.5,-153.5 335.5,-134.5 291.5,-134.5"/>
<text text-anchor="middle" x="313.5" y="-141.5" font-family="Helvetica,sans-Serif" font-size="10.00">limits</text>
</a>
</g>
</g>
<!-- Node6&#45;&gt;Node8 -->
<g id="edge8" class="edge">
<title>Node6&#45;&gt;Node8</title>
<path fill="none" stroke="midnightblue" d="M294.04,-313.4C253.86,-304.96 212.48,-292.79 200.5,-277 152.92,-214.33 275.45,-226.88 291.5,-210 303.42,-197.47 308.89,-178.24 311.4,-163.95"/>
<polygon fill="midnightblue" stroke="midnightblue" points="314.91,-164.15 312.84,-153.76 307.98,-163.17 314.91,-164.15"/>
</g>
<!-- Node9 -->
<g id="node9" class="node">
<title>Node9</title>
<g id="a_node9"><a xlink:title=" ">
<polygon fill="none" stroke="#bfbfbf" points="210,-252 210,-271 279,-271 279,-252 210,-252"/>
<text text-anchor="middle" x="244.5" y="-259" font-family="Helvetica,sans-Serif" font-size="10.00">type_traits</text>
</a>
</g>
</g>
<!-- Node6&#45;&gt;Node9 -->
<g id="edge9" class="edge">
<title>Node6&#45;&gt;Node9</title>
<path fill="none" stroke="midnightblue" d="M351.77,-313.4C327.95,-302.09 294.79,-286.36 271.67,-275.39"/>
<polygon fill="midnightblue" stroke="midnightblue" points="272.97,-272.13 262.43,-271.01 269.96,-278.46 272.97,-272.13"/>
</g>
<!-- Node10 -->
<g id="node10" class="node">
<title>Node10</title>
<g id="a_node10"><a xlink:href="_t_memory_8hpp.html" target="_top" xlink:title=" ">
<polygon fill="none" stroke="black" points="695.5,-252 695.5,-271 839.5,-271 839.5,-252 695.5,-252"/>
<text text-anchor="middle" x="767.5" y="-259" font-family="Helvetica,sans-Serif" font-size="10.00">../../memory/TMemory.hpp</text>
</a>
</g>
</g>
<!-- Node6&#45;&gt;Node10 -->
<g id="edge10" class="edge">
<title>Node6&#45;&gt;Node10</title>
<path fill="none" stroke="midnightblue" d="M464.78,-313.48C537.57,-301.22 641.54,-283.71 706.73,-272.73"/>
<polygon fill="midnightblue" stroke="midnightblue" points="707.57,-276.14 716.85,-271.03 706.41,-269.24 707.57,-276.14"/>
</g>
<!-- Node18 -->
<g id="node18" class="node">
<title>Node18</title>
<g id="a_node18"><a xlink:href="_t_assert_8h.html" target="_top" xlink:title=" ">
<polygon fill="none" stroke="black" points="257,-67.5 257,-86.5 346,-86.5 346,-67.5 257,-67.5"/>
<text text-anchor="middle" x="301.5" y="-74.5" font-family="Helvetica,sans-Serif" font-size="10.00">../util/TAssert.h</text>
</a>
</g>
</g>
<!-- Node6&#45;&gt;Node18 -->
<g id="edge42" class="edge">
<title>Node6&#45;&gt;Node18</title>
<path fill="none" stroke="midnightblue" d="M458.04,-313.45C513.14,-302.56 579.19,-287.59 587.5,-277 596,-266.16 594.34,-257.96 587.5,-246 572.71,-220.16 395.13,-126.41 327.46,-91.35"/>
<polygon fill="midnightblue" stroke="midnightblue" points="328.8,-88.1 318.31,-86.62 325.59,-94.32 328.8,-88.1"/>
</g>
<!-- Node25 -->
<g id="node25" class="node">
<title>Node25</title>
<g id="a_node25"><a xlink:href="_t_math_8hpp.html" target="_top" xlink:title=" ">
<polygon fill="none" stroke="black" points="297.5,-252 297.5,-271 401.5,-271 401.5,-252 297.5,-252"/>
<text text-anchor="middle" x="349.5" y="-259" font-family="Helvetica,sans-Serif" font-size="10.00">../../util/TMath.hpp</text>
</a>
</g>
</g>
<!-- Node6&#45;&gt;Node25 -->
<g id="edge31" class="edge">
<title>Node6&#45;&gt;Node25</title>
<path fill="none" stroke="midnightblue" d="M374.56,-313.4C369.76,-303.66 363.36,-290.65 358.22,-280.21"/>
<polygon fill="midnightblue" stroke="midnightblue" points="361.34,-278.62 353.78,-271.19 355.06,-281.71 361.34,-278.62"/>
</g>
<!-- Node26 -->
<g id="node26" class="node">
<title>Node26</title>
<g id="a_node26"><a xlink:title=" ">
<polygon fill="none" stroke="#bfbfbf" points="419.5,-246.5 419.5,-276.5 561.5,-276.5 561.5,-246.5 419.5,-246.5"/>
<text text-anchor="start" x="427.5" y="-264.5" font-family="Helvetica,sans-Serif" font-size="10.00">../../../external/xsimd</text>
<text text-anchor="middle" x="490.5" y="-253.5" font-family="Helvetica,sans-Serif" font-size="10.00">/include/xsimd/xsimd.hpp</text>
</a>
</g>
</g>
<!-- Node6&#45;&gt;Node26 -->
<g id="edge32" class="edge">
<title>Node6&#45;&gt;Node26</title>
<path fill="none" stroke="midnightblue" d="M405.15,-313.4C420.58,-304.2 440.92,-292.07 457.88,-281.95"/>
<polygon fill="midnightblue" stroke="midnightblue" points="460.1,-284.7 466.89,-276.58 456.51,-278.69 460.1,-284.7"/>
</g>
<!-- Node27 -->
<g id="node27" class="node">
<title>Node27</title>
<g id="a_node27"><a xlink:href="_t_heap_buffer_8hpp.html" target="_top" xlink:title=" ">
<polygon fill="none" stroke="black" points="46,-252 46,-271 153,-271 153,-252 46,-252"/>
<text text-anchor="middle" x="99.5" y="-259" font-family="Helvetica,sans-Serif" font-size="10.00">../THeapBuffer.hpp</text>
</a>
</g>
</g>
<!-- Node6&#45;&gt;Node27 -->
<g id="edge33" class="edge">
<title>Node6&#45;&gt;Node27</title>
<path fill="none" stroke="midnightblue" d="M320.66,-313.48C268.36,-301.42 194.02,-284.29 146.27,-273.28"/>
<polygon fill="midnightblue" stroke="midnightblue" points="147.03,-269.86 136.5,-271.03 145.46,-276.69 147.03,-269.86"/>
</g>
<!-- Node11 -->
<g id="node11" class="node">
<title>Node11</title>
<g id="a_node11"><a xlink:href="_t_memory_pool_8hpp.html" target="_top" xlink:title=" ">
<polygon fill="none" stroke="black" points="631.5,-134.5 631.5,-153.5 741.5,-153.5 741.5,-134.5 631.5,-134.5"/>
<text text-anchor="middle" x="686.5" y="-141.5" font-family="Helvetica,sans-Serif" font-size="10.00">./TMemoryPool.hpp</text>
</a>
</g>
</g>
<!-- Node10&#45;&gt;Node11 -->
<g id="edge11" class="edge">
<title>Node10&#45;&gt;Node11</title>
<path fill="none" stroke="midnightblue" d="M789.21,-251.89C817.28,-239.47 860.47,-215.26 841.5,-190 830.15,-174.88 787.7,-163.2 750.09,-155.53"/>
<polygon fill="midnightblue" stroke="midnightblue" points="750.63,-152.07 740.14,-153.57 749.28,-158.94 750.63,-152.07"/>
</g>
<!-- Node23 -->
<g id="node23" class="node">
<title>Node23</title>
<g id="a_node23"><a xlink:href="_t_memory_pool_std_8hpp.html" target="_top" xlink:title=" ">
<polygon fill="none" stroke="black" points="706.5,-190.5 706.5,-209.5 832.5,-209.5 832.5,-190.5 706.5,-190.5"/>
<text text-anchor="middle" x="769.5" y="-197.5" font-family="Helvetica,sans-Serif" font-size="10.00">./TMemoryPoolStd.hpp</text>
</a>
</g>
</g>
<!-- Node10&#45;&gt;Node23 -->
<g id="edge24" class="edge">
<title>Node10&#45;&gt;Node23</title>
<path fill="none" stroke="midnightblue" d="M767.79,-251.98C768.07,-243.58 768.51,-230.48 768.87,-219.66"/>
<polygon fill="midnightblue" stroke="midnightblue" points="772.38,-219.62 769.21,-209.51 765.38,-219.39 772.38,-219.62"/>
</g>
<!-- Node24 -->
<g id="node24" class="node">
<title>Node24</title>
<g id="a_node24"><a xlink:href="_t_memory_pool_stack_8hpp.html" target="_top" xlink:title=" ">
<polygon fill="none" stroke="black" points="551,-190.5 551,-209.5 688,-209.5 688,-190.5 551,-190.5"/>
<text text-anchor="middle" x="619.5" y="-197.5" font-family="Helvetica,sans-Serif" font-size="10.00">./TMemoryPoolStack.hpp</text>
</a>
</g>
</g>
<!-- Node10&#45;&gt;Node24 -->
<g id="edge28" class="edge">
<title>Node10&#45;&gt;Node24</title>
<path fill="none" stroke="midnightblue" d="M746.3,-251.98C721.13,-241.86 678.96,-224.9 650.22,-213.35"/>
<polygon fill="midnightblue" stroke="midnightblue" points="651.25,-209.99 640.67,-209.51 648.64,-216.49 651.25,-209.99"/>
</g>
<!-- Node12 -->
<g id="node12" class="node">
<title>Node12</title>
<g id="a_node12"><a xlink:title=" ">
<polygon fill="none" stroke="#bfbfbf" points="628,-67.5 628,-86.5 673,-86.5 673,-67.5 628,-67.5"/>
<text text-anchor="middle" x="650.5" y="-74.5" font-family="Helvetica,sans-Serif" font-size="10.00">utility</text>
</a>
</g>
</g>
<!-- Node11&#45;&gt;Node12 -->
<g id="edge12" class="edge">
<title>Node11&#45;&gt;Node12</title>
<path fill="none" stroke="midnightblue" d="M681.64,-134.23C676.19,-124.39 667.2,-108.16 660.28,-95.66"/>
<polygon fill="midnightblue" stroke="midnightblue" points="663.19,-93.68 655.28,-86.63 657.06,-97.07 663.19,-93.68"/>
</g>
<!-- Node13 -->
<g id="node13" class="node">
<title>Node13</title>
<g id="a_node13"><a xlink:title=" ">
<polygon fill="none" stroke="#bfbfbf" points="691.5,-67.5 691.5,-86.5 741.5,-86.5 741.5,-67.5 691.5,-67.5"/>
<text text-anchor="middle" x="716.5" y="-74.5" font-family="Helvetica,sans-Serif" font-size="10.00">cstdint</text>
</a>
</g>
</g>
<!-- Node11&#45;&gt;Node13 -->
<g id="edge13" class="edge">
<title>Node11&#45;&gt;Node13</title>
<path fill="none" stroke="midnightblue" d="M690.55,-134.23C695.04,-124.49 702.43,-108.48 708.18,-96.03"/>
<polygon fill="midnightblue" stroke="midnightblue" points="711.51,-97.17 712.52,-86.63 705.15,-94.24 711.51,-97.17"/>
</g>
<!-- Node14 -->
<g id="node14" class="node">
<title>Node14</title>
<g id="a_node14"><a xlink:title=" ">
<polygon fill="none" stroke="#bfbfbf" points="980,-67.5 980,-86.5 1017,-86.5 1017,-67.5 980,-67.5"/>
<text text-anchor="middle" x="998.5" y="-74.5" font-family="Helvetica,sans-Serif" font-size="10.00">new</text>
</a>
</g>
</g>
<!-- Node11&#45;&gt;Node14 -->
<g id="edge14" class="edge">
<title>Node11&#45;&gt;Node14</title>
<path fill="none" stroke="midnightblue" d="M741.63,-141.72C800.36,-138.68 895.08,-128.89 970.5,-98 973.92,-96.6 977.32,-94.71 980.52,-92.64"/>
<polygon fill="midnightblue" stroke="midnightblue" points="982.76,-95.34 988.81,-86.64 978.65,-89.67 982.76,-95.34"/>
</g>
<!-- Node15 -->
<g id="node15" class="node">
<title>Node15</title>
<g id="a_node15"><a xlink:href="_t_memory_util_8hpp.html" target="_top" xlink:title=" ">
<polygon fill="none" stroke="black" points="364,-67.5 364,-86.5 471,-86.5 471,-67.5 364,-67.5"/>
<text text-anchor="middle" x="417.5" y="-74.5" font-family="Helvetica,sans-Serif" font-size="10.00">./TMemoryUtil.hpp</text>
</a>
</g>
</g>
<!-- Node11&#45;&gt;Node15 -->
<g id="edge15" class="edge">
<title>Node11&#45;&gt;Node15</title>
<path fill="none" stroke="midnightblue" d="M641.61,-134.44C599.68,-126.15 535.49,-112.7 480.5,-98 471.22,-95.52 461.27,-92.52 452.08,-89.61"/>
<polygon fill="midnightblue" stroke="midnightblue" points="453.07,-86.25 442.48,-86.52 450.93,-92.92 453.07,-86.25"/>
</g>
<!-- Node11&#45;&gt;Node18 -->
<g id="edge18" class="edge">
<title>Node11&#45;&gt;Node18</title>
<path fill="none" stroke="midnightblue" d="M631.47,-135.87C540.59,-124.05 367.75,-101.35 354.5,-98 346.52,-95.98 338.1,-93.15 330.37,-90.24"/>
<polygon fill="midnightblue" stroke="midnightblue" points="331.63,-86.98 321.04,-86.59 329.08,-93.5 331.63,-86.98"/>
</g>
<!-- Node20 -->
<g id="node20" class="node">
<title>Node20</title>
<g id="a_node20"><a xlink:href="_t_spin_lock_8hpp.html" target="_top" xlink:title=" ">
<polygon fill="none" stroke="black" points="835.5,-67.5 835.5,-86.5 961.5,-86.5 961.5,-67.5 835.5,-67.5"/>
<text text-anchor="middle" x="898.5" y="-74.5" font-family="Helvetica,sans-Serif" font-size="10.00">../types/TSpinLock.hpp</text>
</a>
</g>
</g>
<!-- Node11&#45;&gt;Node20 -->
<g id="edge20" class="edge">
<title>Node11&#45;&gt;Node20</title>
<path fill="none" stroke="midnightblue" d="M714.65,-134.37C752.29,-122.83 819.13,-102.34 861.01,-89.5"/>
<polygon fill="midnightblue" stroke="midnightblue" points="862.03,-92.84 870.57,-86.56 859.98,-86.15 862.03,-92.84"/>
</g>
<!-- Node21 -->
<g id="node21" class="node">
<title>Node21</title>
<g id="a_node21"><a xlink:href="_t_lock_guard_8hpp.html" target="_top" xlink:title=" ">
<polygon fill="none" stroke="black" points="802,-0.5 802,-19.5 903,-19.5 903,-0.5 802,-0.5"/>
<text text-anchor="middle" x="852.5" y="-7.5" font-family="Helvetica,sans-Serif" font-size="10.00">./TLockGuard.hpp</text>
</a>
</g>
</g>
<!-- Node11&#45;&gt;Node21 -->
<g id="edge22" class="edge">
<title>Node11&#45;&gt;Node21</title>
<path fill="none" stroke="midnightblue" d="M699.5,-134.38C712.62,-125.57 733.33,-111.32 750.5,-98 781.24,-74.17 815.32,-44.37 835.27,-26.56"/>
<polygon fill="midnightblue" stroke="midnightblue" points="837.8,-28.99 842.91,-19.71 833.13,-23.78 837.8,-28.99"/>
</g>
<!-- Node22 -->
<g id="node22" class="node">
<title>Node22</title>
<g id="a_node22"><a xlink:title=" ">
<polygon fill="none" stroke="#bfbfbf" points="489,-56.5 489,-97.5 610,-97.5 610,-56.5 489,-56.5"/>
<text text-anchor="start" x="497" y="-85.5" font-family="Helvetica,sans-Serif" font-size="10.00">../../external/xsimd</text>
<text text-anchor="start" x="497" y="-74.5" font-family="Helvetica,sans-Serif" font-size="10.00">/include/xsimd/config</text>
<text text-anchor="middle" x="549.5" y="-63.5" font-family="Helvetica,sans-Serif" font-size="10.00">/xsimd_arch.hpp</text>
</a>
</g>
</g>
<!-- Node11&#45;&gt;Node22 -->
<g id="edge23" class="edge">
<title>Node11&#45;&gt;Node22</title>
<path fill="none" stroke="midnightblue" d="M668.31,-134.37C650.96,-126.14 624.01,-113.35 600.17,-102.04"/>
<polygon fill="midnightblue" stroke="midnightblue" points="601.4,-98.75 590.86,-97.63 598.4,-105.07 601.4,-98.75"/>
</g>
<!-- Node16 -->
<g id="node16" class="node">
<title>Node16</title>
<g id="a_node16"><a xlink:title=" ">
<polygon fill="none" stroke="#bfbfbf" points="27.5,-0.5 27.5,-19.5 77.5,-19.5 77.5,-0.5 27.5,-0.5"/>
<text text-anchor="middle" x="52.5" y="-7.5" font-family="Helvetica,sans-Serif" font-size="10.00">cstring</text>
</a>
</g>
</g>
<!-- Node15&#45;&gt;Node16 -->
<g id="edge16" class="edge">
<title>Node15&#45;&gt;Node16</title>
<path fill="none" stroke="midnightblue" d="M393.82,-67.49C382.11,-63.54 367.69,-59.06 354.5,-56 259.41,-33.97 144.87,-20.35 88.06,-14.44"/>
<polygon fill="midnightblue" stroke="midnightblue" points="88.12,-10.93 77.81,-13.39 87.4,-17.89 88.12,-10.93"/>
</g>
<!-- Node17 -->
<g id="node17" class="node">
<title>Node17</title>
<g id="a_node17"><a xlink:title=" ">
<polygon fill="none" stroke="#bfbfbf" points="391,-0.5 391,-19.5 444,-19.5 444,-0.5 391,-0.5"/>
<text text-anchor="middle" x="417.5" y="-7.5" font-family="Helvetica,sans-Serif" font-size="10.00">stdlib.h</text>
</a>
</g>
</g>
<!-- Node15&#45;&gt;Node17 -->
<g id="edge17" class="edge">
<title>Node15&#45;&gt;Node17</title>
<path fill="none" stroke="midnightblue" d="M417.5,-67.23C417.5,-57.68 417.5,-42.12 417.5,-29.78"/>
<polygon fill="midnightblue" stroke="midnightblue" points="421,-29.63 417.5,-19.63 414,-29.63 421,-29.63"/>
</g>
<!-- Node19 -->
<g id="node19" class="node">
<title>Node19</title>
<g id="a_node19"><a xlink:title=" ">
<polygon fill="none" stroke="#bfbfbf" points="275.5,-0.5 275.5,-19.5 327.5,-19.5 327.5,-0.5 275.5,-0.5"/>
<text text-anchor="middle" x="301.5" y="-7.5" font-family="Helvetica,sans-Serif" font-size="10.00">cassert</text>
</a>
</g>
</g>
<!-- Node18&#45;&gt;Node19 -->
<g id="edge19" class="edge">
<title>Node18&#45;&gt;Node19</title>
<path fill="none" stroke="midnightblue" d="M301.5,-67.23C301.5,-57.68 301.5,-42.12 301.5,-29.78"/>
<polygon fill="midnightblue" stroke="midnightblue" points="305,-29.63 301.5,-19.63 298,-29.63 305,-29.63"/>
</g>
<!-- Node20&#45;&gt;Node21 -->
<g id="edge21" class="edge">
<title>Node20&#45;&gt;Node21</title>
<path fill="none" stroke="midnightblue" d="M892.3,-67.23C885.19,-57.2 873.39,-40.51 864.48,-27.92"/>
<polygon fill="midnightblue" stroke="midnightblue" points="867.24,-25.77 858.61,-19.63 861.53,-29.81 867.24,-25.77"/>
</g>
<!-- Node23&#45;&gt;Node11 -->
<g id="edge26" class="edge">
<title>Node23&#45;&gt;Node11</title>
<path fill="none" stroke="midnightblue" d="M756.16,-190.32C743.34,-181.98 723.72,-169.21 708.56,-159.35"/>
<polygon fill="midnightblue" stroke="midnightblue" points="710.09,-156.17 699.8,-153.65 706.28,-162.04 710.09,-156.17"/>
</g>
<!-- Node23&#45;&gt;Node17 -->
<g id="edge25" class="edge">
<title>Node23&#45;&gt;Node17</title>
<path fill="none" stroke="midnightblue" d="M771.48,-190.41C776.64,-165.61 787.65,-93.23 750.5,-56 709.67,-15.08 532.49,-10.55 454.54,-10.59"/>
<polygon fill="midnightblue" stroke="midnightblue" points="454.21,-7.09 444.22,-10.62 454.24,-14.09 454.21,-7.09"/>
</g>
<!-- Node23&#45;&gt;Node18 -->
<g id="edge27" class="edge">
<title>Node23&#45;&gt;Node18</title>
<path fill="none" stroke="midnightblue" d="M740.09,-190.43C710.32,-181.65 663.04,-167.43 622.5,-154 597.41,-145.69 592.07,-140.68 566.5,-134 474.03,-109.84 446.75,-122.99 354.5,-98 346.71,-95.89 338.47,-93.08 330.87,-90.23"/>
<polygon fill="midnightblue" stroke="midnightblue" points="331.92,-86.89 321.33,-86.52 329.39,-93.41 331.92,-86.89"/>
</g>
<!-- Node24&#45;&gt;Node11 -->
<g id="edge29" class="edge">
<title>Node24&#45;&gt;Node11</title>
<path fill="none" stroke="midnightblue" d="M630.26,-190.32C640.27,-182.26 655.39,-170.08 667.43,-160.37"/>
<polygon fill="midnightblue" stroke="midnightblue" points="669.95,-162.83 675.54,-153.83 665.56,-157.38 669.95,-162.83"/>
</g>
<!-- Node24&#45;&gt;Node18 -->
<g id="edge30" class="edge">
<title>Node24&#45;&gt;Node18</title>
<path fill="none" stroke="midnightblue" d="M611.22,-190.26C597.24,-176.07 567.45,-148.19 536.5,-134 461.54,-99.64 433.79,-120.63 354.5,-98 346.87,-95.82 338.79,-93.03 331.3,-90.23"/>
<polygon fill="midnightblue" stroke="midnightblue" points="332.46,-86.93 321.87,-86.59 329.94,-93.46 332.46,-86.93"/>
</g>
<!-- Node27&#45;&gt;Node7 -->
<g id="edge34" class="edge">
<title>Node27&#45;&gt;Node7</title>
<path fill="none" stroke="midnightblue" d="M142.48,-251.98C199.68,-240.63 300.19,-220.7 357.09,-209.41"/>
<polygon fill="midnightblue" stroke="midnightblue" points="358.06,-212.79 367.19,-207.41 356.7,-205.92 358.06,-212.79"/>
</g>
<!-- Node27&#45;&gt;Node16 -->
<g id="edge36" class="edge">
<title>Node27&#45;&gt;Node16</title>
<path fill="none" stroke="midnightblue" d="M93.14,-251.71C86.49,-242.01 76.37,-225.7 71.5,-210 51.73,-146.27 50.94,-66.02 51.77,-30.01"/>
<polygon fill="midnightblue" stroke="midnightblue" points="55.28,-29.69 52.09,-19.58 48.29,-29.47 55.28,-29.69"/>
</g>
<!-- Node28 -->
<g id="node28" class="node">
<title>Node28</title>
<g id="a_node28"><a xlink:title=" ">
<polygon fill="none" stroke="#bfbfbf" points="81,-190.5 81,-209.5 128,-209.5 128,-190.5 81,-190.5"/>
<text text-anchor="middle" x="104.5" y="-197.5" font-family="Helvetica,sans-Serif" font-size="10.00">cmath</text>
</a>
</g>
</g>
<!-- Node27&#45;&gt;Node28 -->
<g id="edge35" class="edge">
<title>Node27&#45;&gt;Node28</title>
<path fill="none" stroke="midnightblue" d="M100.22,-251.98C100.92,-243.58 102.02,-230.48 102.93,-219.66"/>
<polygon fill="midnightblue" stroke="midnightblue" points="106.44,-219.77 103.78,-209.51 99.46,-219.18 106.44,-219.77"/>
</g>
<!-- Node29 -->
<g id="node29" class="node">
<title>Node29</title>
<g id="a_node29"><a xlink:href="_t_allocator_8hpp.html" target="_top" xlink:title=" ">
<polygon fill="none" stroke="black" points="146,-190.5 146,-209.5 283,-209.5 283,-190.5 146,-190.5"/>
<text text-anchor="middle" x="214.5" y="-197.5" font-family="Helvetica,sans-Serif" font-size="10.00">../memory/TAllocator.hpp</text>
</a>
</g>
</g>
<!-- Node27&#45;&gt;Node29 -->
<g id="edge37" class="edge">
<title>Node27&#45;&gt;Node29</title>
<path fill="none" stroke="midnightblue" d="M115.98,-251.98C135.11,-242.08 166.87,-225.64 189.15,-214.12"/>
<polygon fill="midnightblue" stroke="midnightblue" points="190.78,-217.21 198.05,-209.51 187.56,-211 190.78,-217.21"/>
</g>
<!-- Node29&#45;&gt;Node8 -->
<g id="edge40" class="edge">
<title>Node29&#45;&gt;Node8</title>
<path fill="none" stroke="midnightblue" d="M230.41,-190.32C246.14,-181.74 270.44,-168.49 288.71,-158.52"/>
<polygon fill="midnightblue" stroke="midnightblue" points="290.53,-161.52 297.63,-153.65 287.18,-155.37 290.53,-161.52"/>
</g>
<!-- Node29&#45;&gt;Node17 -->
<g id="edge41" class="edge">
<title>Node29&#45;&gt;Node17</title>
<path fill="none" stroke="midnightblue" d="M213.68,-190.18C211.9,-165.36 210.45,-94.25 247.5,-56 265.79,-37.12 336.39,-23.28 380.65,-16.24"/>
<polygon fill="midnightblue" stroke="midnightblue" points="381.4,-19.67 390.75,-14.68 380.33,-12.75 381.4,-19.67"/>
</g>
<!-- Node29&#45;&gt;Node18 -->
<g id="edge38" class="edge">
<title>Node29&#45;&gt;Node18</title>
<path fill="none" stroke="midnightblue" d="M220.76,-190.3C235.12,-170.33 270.64,-120.92 289.42,-94.8"/>
<polygon fill="midnightblue" stroke="midnightblue" points="292.3,-96.79 295.3,-86.62 286.62,-92.7 292.3,-96.79"/>
</g>
<!-- Node30 -->
<g id="node30" class="node">
<title>Node30</title>
<g id="a_node30"><a xlink:title=" ">
<polygon fill="none" stroke="#bfbfbf" points="141.5,-134.5 141.5,-153.5 197.5,-153.5 197.5,-134.5 141.5,-134.5"/>
<text text-anchor="middle" x="169.5" y="-141.5" font-family="Helvetica,sans-Serif" font-size="10.00">stddef.h</text>
</a>
</g>
</g>
<!-- Node29&#45;&gt;Node30 -->
<g id="edge39" class="edge">
<title>Node29&#45;&gt;Node30</title>
<path fill="none" stroke="midnightblue" d="M207.07,-190.08C200.65,-182.38 191.19,-171.03 183.38,-161.65"/>
<polygon fill="midnightblue" stroke="midnightblue" points="185.88,-159.19 176.79,-153.75 180.51,-163.67 185.88,-159.19"/>
</g>
<!-- Node31&#45;&gt;Node6 -->
<g id="edge44" class="edge">
<title>Node31&#45;&gt;Node6</title>
<path fill="none" stroke="midnightblue" d="M381.5,-380.36C381.5,-372.23 381.5,-362.7 381.5,-354.11"/>
<polygon fill="midnightblue" stroke="midnightblue" points="385,-353.89 381.5,-343.89 378,-353.89 385,-353.89"/>
</g>
<!-- Node32&#45;&gt;Node16 -->
<g id="edge47" class="edge">
<title>Node32&#45;&gt;Node16</title>
<path fill="none" stroke="midnightblue" d="M153.19,-313.49C105.5,-301.74 45.05,-285.53 36.5,-277 11.61,-252.16 14.5,-236.16 14.5,-201 14.5,-201 14.5,-201 14.5,-143 14.5,-100.85 32.61,-53.98 43.83,-29"/>
<polygon fill="midnightblue" stroke="midnightblue" points="47.11,-30.26 48.14,-19.71 40.76,-27.31 47.11,-30.26"/>
</g>
<!-- Node32&#45;&gt;Node27 -->
<g id="edge46" class="edge">
<title>Node32&#45;&gt;Node27</title>
<path fill="none" stroke="midnightblue" d="M187.98,-313.4C168.77,-302.34 142.2,-287.06 123.2,-276.13"/>
<polygon fill="midnightblue" stroke="midnightblue" points="124.7,-272.96 114.29,-271.01 121.21,-279.03 124.7,-272.96"/>
</g>
<!-- Node33&#45;&gt;Node3 -->
<g id="edge53" class="edge">
<title>Node33&#45;&gt;Node3</title>
<path fill="none" stroke="midnightblue" d="M637.2,-391.36C623.47,-379.83 598.94,-359.24 581.97,-345"/>
<polygon fill="midnightblue" stroke="midnightblue" points="583.79,-341.96 573.88,-338.22 579.29,-347.33 583.79,-341.96"/>
</g>
<!-- Node33&#45;&gt;Node8 -->
<g id="edge52" class="edge">
<title>Node33&#45;&gt;Node8</title>
<path fill="none" stroke="midnightblue" d="M649.44,-391.49C652.68,-375.48 657.86,-340.09 647.5,-313 633.23,-275.66 620.44,-268.64 587.5,-246 509.56,-192.42 399.7,-163.29 345.84,-151.44"/>
<polygon fill="midnightblue" stroke="midnightblue" points="346.35,-147.97 335.84,-149.29 344.88,-154.81 346.35,-147.97"/>
</g>
<!-- Node33&#45;&gt;Node14 -->
<g id="edge51" class="edge">
<title>Node33&#45;&gt;Node14</title>
<path fill="none" stroke="midnightblue" d="M674.84,-391.4C739.89,-370.12 898.5,-313.06 898.5,-262.5 898.5,-262.5 898.5,-262.5 898.5,-199 898.5,-173.33 952.66,-119.91 981.26,-93.48"/>
<polygon fill="midnightblue" stroke="midnightblue" points="983.89,-95.83 988.91,-86.5 979.17,-90.66 983.89,-95.83"/>
</g>
<!-- Node34 -->
<g id="node34" class="node">
<title>Node34</title>
<g id="a_node34"><a xlink:title=" ">
<polygon fill="none" stroke="#bfbfbf" points="927,-319 927,-338 976,-338 976,-319 927,-319"/>
<text text-anchor="middle" x="951.5" y="-326" font-family="Helvetica,sans-Serif" font-size="10.00">cstdlib</text>
</a>
</g>
</g>
<!-- Node33&#45;&gt;Node34 -->
<g id="edge49" class="edge">
<title>Node33&#45;&gt;Node34</title>
<path fill="none" stroke="midnightblue" d="M673.73,-391.44C686.02,-387.62 700.92,-383.25 714.5,-380 801.48,-359.18 826.25,-367.68 912.5,-344 915.31,-343.23 918.2,-342.34 921.08,-341.39"/>
<polygon fill="midnightblue" stroke="midnightblue" points="922.4,-344.64 930.67,-338.01 920.08,-338.03 922.4,-344.64"/>
</g>
<!-- Node35 -->
<g id="node35" class="node">
<title>Node35</title>
<g id="a_node35"><a xlink:title=" ">
<polygon fill="none" stroke="#bfbfbf" points="994,-319 994,-338 1047,-338 1047,-319 994,-319"/>
<text text-anchor="middle" x="1020.5" y="-326" font-family="Helvetica,sans-Serif" font-size="10.00">cstddef</text>
</a>
</g>
</g>
<!-- Node33&#45;&gt;Node35 -->
<g id="edge50" class="edge">
<title>Node33&#45;&gt;Node35</title>
<path fill="none" stroke="midnightblue" d="M672.71,-391.45C685.16,-387.48 700.49,-383 714.5,-380 833.31,-354.54 868.16,-375.52 985.5,-344 987.95,-343.34 990.45,-342.56 992.93,-341.69"/>
<polygon fill="midnightblue" stroke="midnightblue" points="994.21,-344.95 1002.29,-338.1 991.7,-338.42 994.21,-344.95"/>
</g>
</g>
</svg>
