<?xml version="1.0" encoding="UTF-8" standalone="no"?>
<!DOCTYPE svg PUBLIC "-//W3C//DTD SVG 1.1//EN"
 "http://www.w3.org/Graphics/SVG/1.1/DTD/svg11.dtd">
<!-- Generated by graphviz version 2.50.0 (0)
 -->
<!-- Title: vae_effect.hpp Pages: 1 -->
<svg width="743pt" height="588pt"
 viewBox="0.00 0.00 743.29 588.00" xmlns="http://www.w3.org/2000/svg" xmlns:xlink="http://www.w3.org/1999/xlink">
<g id="graph0" class="graph" transform="scale(1 1) rotate(0) translate(4 584)">
<title>vae_effect.hpp</title>
<!-- Node1 -->
<g id="node1" class="node">
<title>Node1</title>
<g id="a_node1"><a xlink:title=" ">
<polygon fill="#bfbfbf" stroke="black" points="415,-560.5 415,-579.5 504,-579.5 504,-560.5 415,-560.5"/>
<text text-anchor="middle" x="459.5" y="-567.5" font-family="Helvetica,sans-Serif" font-size="10.00">vae_effect.hpp</text>
</a>
</g>
</g>
<!-- Node2 -->
<g id="node2" class="node">
<title>Node2</title>
<g id="a_node2"><a xlink:href="vae__effect__base_8hpp.html" target="_top" xlink:title=" ">
<polygon fill="none" stroke="black" points="292.5,-504.5 292.5,-523.5 410.5,-523.5 410.5,-504.5 292.5,-504.5"/>
<text text-anchor="middle" x="351.5" y="-511.5" font-family="Helvetica,sans-Serif" font-size="10.00">vae_effect_base.hpp</text>
</a>
</g>
</g>
<!-- Node1&#45;&gt;Node2 -->
<g id="edge1" class="edge">
<title>Node1&#45;&gt;Node2</title>
<path fill="none" stroke="midnightblue" d="M432.95,-555.73C412.95,-545.73 386.11,-532.31 368.81,-523.65"/>
<polygon fill="midnightblue" stroke="midnightblue" points="431.64,-558.98 442.15,-560.32 434.77,-552.72 431.64,-558.98"/>
</g>
<!-- Node11 -->
<g id="node11" class="node">
<title>Node11</title>
<g id="a_node11"><a xlink:href="vae__effects__processor_8hpp.html" target="_top" xlink:title=" ">
<polygon fill="none" stroke="black" points="563.5,-392.5 563.5,-411.5 709.5,-411.5 709.5,-392.5 563.5,-392.5"/>
<text text-anchor="middle" x="636.5" y="-399.5" font-family="Helvetica,sans-Serif" font-size="10.00">vae_effects_processor.hpp</text>
</a>
</g>
</g>
<!-- Node1&#45;&gt;Node11 -->
<g id="edge18" class="edge">
<title>Node1&#45;&gt;Node11</title>
<path fill="none" stroke="midnightblue" d="M476.47,-553.09C513.22,-518.62 599.17,-438.01 627.36,-411.57"/>
<polygon fill="midnightblue" stroke="midnightblue" points="473.92,-550.68 469.02,-560.08 478.7,-555.79 473.92,-550.68"/>
</g>
<!-- Node15 -->
<g id="node15" class="node">
<title>Node15</title>
<g id="a_node15"><a xlink:href="vae__mixer_8hpp.html" target="_top" xlink:title=" ">
<polygon fill="none" stroke="black" points="415.5,-448.5 415.5,-467.5 503.5,-467.5 503.5,-448.5 415.5,-448.5"/>
<text text-anchor="middle" x="459.5" y="-455.5" font-family="Helvetica,sans-Serif" font-size="10.00">vae_mixer.hpp</text>
</a>
</g>
</g>
<!-- Node1&#45;&gt;Node15 -->
<g id="edge19" class="edge">
<title>Node1&#45;&gt;Node15</title>
<path fill="none" stroke="midnightblue" d="M459.5,-550.35C459.5,-526.25 459.5,-485.31 459.5,-467.59"/>
<polygon fill="midnightblue" stroke="midnightblue" points="456,-550.37 459.5,-560.37 463,-550.37 456,-550.37"/>
</g>
<!-- Node3 -->
<g id="node3" class="node">
<title>Node3</title>
<g id="a_node3"><a xlink:href="vae__effects__list_8hpp.html" target="_top" xlink:title=" ">
<polygon fill="none" stroke="black" points="152,-336.5 152,-355.5 267,-355.5 267,-336.5 152,-336.5"/>
<text text-anchor="middle" x="209.5" y="-343.5" font-family="Helvetica,sans-Serif" font-size="10.00">vae_effects_list.hpp</text>
</a>
</g>
</g>
<!-- Node2&#45;&gt;Node3 -->
<g id="edge2" class="edge">
<title>Node2&#45;&gt;Node3</title>
<path fill="none" stroke="midnightblue" d="M299.48,-501.37C279.85,-494.6 258.82,-484.1 244.5,-468 214.7,-434.51 210.18,-377.06 209.57,-355.51"/>
<polygon fill="midnightblue" stroke="midnightblue" points="298.68,-504.79 309.27,-504.49 300.81,-498.12 298.68,-504.79"/>
</g>
<!-- Node2&#45;&gt;Node11 -->
<g id="edge12" class="edge">
<title>Node2&#45;&gt;Node11</title>
<path fill="none" stroke="midnightblue" d="M401.07,-502.01C433.36,-494.16 476.11,-482.44 512.5,-468 554.07,-451.51 599.94,-425.14 622.46,-411.62"/>
<polygon fill="midnightblue" stroke="midnightblue" points="399.88,-498.69 390.97,-504.42 401.51,-505.5 399.88,-498.69"/>
</g>
<!-- Node13 -->
<g id="node13" class="node">
<title>Node13</title>
<g id="a_node13"><a xlink:href="vae__faust__common_8hpp.html" target="_top" xlink:title=" ">
<polygon fill="none" stroke="black" points="253.5,-448.5 253.5,-467.5 387.5,-467.5 387.5,-448.5 253.5,-448.5"/>
<text text-anchor="middle" x="320.5" y="-455.5" font-family="Helvetica,sans-Serif" font-size="10.00">vae_faust_common.hpp</text>
</a>
</g>
</g>
<!-- Node2&#45;&gt;Node13 -->
<g id="edge15" class="edge">
<title>Node2&#45;&gt;Node13</title>
<path fill="none" stroke="midnightblue" d="M341.32,-495.27C336.03,-486.05 329.78,-475.17 325.52,-467.75"/>
<polygon fill="midnightblue" stroke="midnightblue" points="338.37,-497.15 346.38,-504.08 344.44,-493.67 338.37,-497.15"/>
</g>
<!-- Node4 -->
<g id="node4" class="node">
<title>Node4</title>
<g id="a_node4"><a xlink:href="vae__effects__factory_8hpp.html" target="_top" xlink:title=" ">
<polygon fill="none" stroke="black" points="0,-280.5 0,-299.5 133,-299.5 133,-280.5 0,-280.5"/>
<text text-anchor="middle" x="66.5" y="-287.5" font-family="Helvetica,sans-Serif" font-size="10.00">vae_effects_factory.hpp</text>
</a>
</g>
</g>
<!-- Node3&#45;&gt;Node4 -->
<g id="edge3" class="edge">
<title>Node3&#45;&gt;Node4</title>
<path fill="none" stroke="midnightblue" d="M177.47,-332.91C150.59,-322.75 112.86,-308.51 89.05,-299.52"/>
<polygon fill="midnightblue" stroke="midnightblue" points="176.25,-336.19 186.84,-336.44 178.72,-329.64 176.25,-336.19"/>
</g>
<!-- Node5 -->
<g id="node5" class="node">
<title>Node5</title>
<g id="a_node5"><a xlink:href="vae__bank__manager_8hpp.html" target="_top" xlink:title=" ">
<polygon fill="none" stroke="black" points="144.5,-224.5 144.5,-243.5 276.5,-243.5 276.5,-224.5 144.5,-224.5"/>
<text text-anchor="middle" x="210.5" y="-231.5" font-family="Helvetica,sans-Serif" font-size="10.00">vae_bank_manager.hpp</text>
</a>
</g>
</g>
<!-- Node4&#45;&gt;Node5 -->
<g id="edge4" class="edge">
<title>Node4&#45;&gt;Node5</title>
<path fill="none" stroke="midnightblue" d="M98.75,-276.91C125.82,-266.75 163.82,-252.51 187.79,-243.52"/>
<polygon fill="midnightblue" stroke="midnightblue" points="97.45,-273.66 89.32,-280.44 99.91,-280.21 97.45,-273.66"/>
</g>
<!-- Node6 -->
<g id="node6" class="node">
<title>Node6</title>
<g id="a_node6"><a xlink:href="vae__engine_8hpp.html" target="_top" xlink:title=" ">
<polygon fill="none" stroke="black" points="378.5,-56.5 378.5,-75.5 472.5,-75.5 472.5,-56.5 378.5,-56.5"/>
<text text-anchor="middle" x="425.5" y="-63.5" font-family="Helvetica,sans-Serif" font-size="10.00">vae_engine.hpp</text>
</a>
</g>
</g>
<!-- Node5&#45;&gt;Node6 -->
<g id="edge5" class="edge">
<title>Node5&#45;&gt;Node6</title>
<path fill="none" stroke="midnightblue" d="M200.02,-215.26C193.46,-201.67 187.63,-182.81 195.5,-168 230.61,-101.96 321.9,-79.07 378.34,-71.16"/>
<polygon fill="midnightblue" stroke="midnightblue" points="196.93,-216.91 204.73,-224.08 203.11,-213.61 196.93,-216.91"/>
</g>
<!-- Node9 -->
<g id="node9" class="node">
<title>Node9</title>
<g id="a_node9"><a xlink:href="vae__spatial__manager_8hpp.html" target="_top" xlink:title=" ">
<polygon fill="none" stroke="black" points="205,-168.5 205,-187.5 346,-187.5 346,-168.5 205,-168.5"/>
<text text-anchor="middle" x="275.5" y="-175.5" font-family="Helvetica,sans-Serif" font-size="10.00">vae_spatial_manager.hpp</text>
</a>
</g>
</g>
<!-- Node5&#45;&gt;Node9 -->
<g id="edge8" class="edge">
<title>Node5&#45;&gt;Node9</title>
<path fill="none" stroke="midnightblue" d="M228.77,-217.82C240.42,-208.15 255.1,-195.95 264.87,-187.83"/>
<polygon fill="midnightblue" stroke="midnightblue" points="226.4,-215.24 220.94,-224.32 230.87,-220.63 226.4,-215.24"/>
</g>
<!-- Node7 -->
<g id="node7" class="node">
<title>Node7</title>
<g id="a_node7"><a xlink:href="main_8cpp.html" target="_top" xlink:title=" ">
<polygon fill="none" stroke="black" points="348.5,-0.5 348.5,-19.5 410.5,-19.5 410.5,-0.5 348.5,-0.5"/>
<text text-anchor="middle" x="379.5" y="-7.5" font-family="Helvetica,sans-Serif" font-size="10.00">main.cpp</text>
</a>
</g>
</g>
<!-- Node6&#45;&gt;Node7 -->
<g id="edge6" class="edge">
<title>Node6&#45;&gt;Node7</title>
<path fill="none" stroke="midnightblue" d="M411.39,-48.43C403.32,-38.97 393.54,-27.48 386.95,-19.75"/>
<polygon fill="midnightblue" stroke="midnightblue" points="408.75,-50.74 417.9,-56.08 414.08,-46.2 408.75,-50.74"/>
</g>
<!-- Node8 -->
<g id="node8" class="node">
<title>Node8</title>
<g id="a_node8"><a xlink:href="vae__pimpl_8cpp.html" target="_top" xlink:title=" ">
<polygon fill="none" stroke="black" points="428.5,-0.5 428.5,-19.5 516.5,-19.5 516.5,-0.5 428.5,-0.5"/>
<text text-anchor="middle" x="472.5" y="-7.5" font-family="Helvetica,sans-Serif" font-size="10.00">vae_pimpl.cpp</text>
</a>
</g>
</g>
<!-- Node6&#45;&gt;Node8 -->
<g id="edge7" class="edge">
<title>Node6&#45;&gt;Node8</title>
<path fill="none" stroke="midnightblue" d="M439.92,-48.43C448.16,-38.97 458.15,-27.48 464.88,-19.75"/>
<polygon fill="midnightblue" stroke="midnightblue" points="437.19,-46.24 433.26,-56.08 442.47,-50.84 437.19,-46.24"/>
</g>
<!-- Node9&#45;&gt;Node6 -->
<g id="edge9" class="edge">
<title>Node9&#45;&gt;Node6</title>
<path fill="none" stroke="midnightblue" d="M276.47,-157.95C278.19,-143.6 282.71,-124.35 294.5,-112 316.42,-89.04 350.56,-77.79 378.5,-72.28"/>
<polygon fill="midnightblue" stroke="midnightblue" points="272.96,-157.92 275.62,-168.18 279.94,-158.51 272.96,-157.92"/>
</g>
<!-- Node10 -->
<g id="node10" class="node">
<title>Node10</title>
<g id="a_node10"><a xlink:href="vae__spatial__processor_8hpp.html" target="_top" xlink:title=" ">
<polygon fill="none" stroke="black" points="303,-112.5 303,-131.5 448,-131.5 448,-112.5 303,-112.5"/>
<text text-anchor="middle" x="375.5" y="-119.5" font-family="Helvetica,sans-Serif" font-size="10.00">vae_spatial_processor.hpp</text>
</a>
</g>
</g>
<!-- Node9&#45;&gt;Node10 -->
<g id="edge10" class="edge">
<title>Node9&#45;&gt;Node10</title>
<path fill="none" stroke="midnightblue" d="M300.59,-163.45C319.05,-153.48 343.6,-140.23 359.47,-131.65"/>
<polygon fill="midnightblue" stroke="midnightblue" points="298.7,-160.49 291.57,-168.32 302.03,-166.65 298.7,-160.49"/>
</g>
<!-- Node10&#45;&gt;Node6 -->
<g id="edge11" class="edge">
<title>Node10&#45;&gt;Node6</title>
<path fill="none" stroke="midnightblue" d="M390.58,-104.72C399.39,-95.2 410.17,-83.56 417.4,-75.75"/>
<polygon fill="midnightblue" stroke="midnightblue" points="387.98,-102.37 383.76,-112.08 393.12,-107.12 387.98,-102.37"/>
</g>
<!-- Node12 -->
<g id="node12" class="node">
<title>Node12</title>
<g id="a_node12"><a xlink:href="vae__mixer__processor_8hpp.html" target="_top" xlink:title=" ">
<polygon fill="none" stroke="black" points="566.5,-280.5 566.5,-299.5 706.5,-299.5 706.5,-280.5 566.5,-280.5"/>
<text text-anchor="middle" x="636.5" y="-287.5" font-family="Helvetica,sans-Serif" font-size="10.00">vae_mixer_processor.hpp</text>
</a>
</g>
</g>
<!-- Node11&#45;&gt;Node12 -->
<g id="edge13" class="edge">
<title>Node11&#45;&gt;Node12</title>
<path fill="none" stroke="midnightblue" d="M636.5,-382.35C636.5,-358.25 636.5,-317.31 636.5,-299.59"/>
<polygon fill="midnightblue" stroke="midnightblue" points="633,-382.37 636.5,-392.37 640,-382.37 633,-382.37"/>
</g>
<!-- Node12&#45;&gt;Node6 -->
<g id="edge14" class="edge">
<title>Node12&#45;&gt;Node6</title>
<path fill="none" stroke="midnightblue" d="M621.13,-272.83C579.56,-229.09 465.88,-109.48 433.94,-75.88"/>
<polygon fill="midnightblue" stroke="midnightblue" points="618.8,-275.46 628.23,-280.3 623.88,-270.64 618.8,-275.46"/>
</g>
<!-- Node14 -->
<g id="node14" class="node">
<title>Node14</title>
<g id="a_node14"><a xlink:href="reverb__gen_8hpp.html" target="_top" xlink:title=" ">
<polygon fill="none" stroke="black" points="250.5,-392.5 250.5,-411.5 342.5,-411.5 342.5,-392.5 250.5,-392.5"/>
<text text-anchor="middle" x="296.5" y="-399.5" font-family="Helvetica,sans-Serif" font-size="10.00">reverb_gen.hpp</text>
</a>
</g>
</g>
<!-- Node13&#45;&gt;Node14 -->
<g id="edge16" class="edge">
<title>Node13&#45;&gt;Node14</title>
<path fill="none" stroke="midnightblue" d="M312.36,-438.69C308.32,-429.59 303.62,-419.01 300.39,-411.75"/>
<polygon fill="midnightblue" stroke="midnightblue" points="309.28,-440.37 316.54,-448.08 315.67,-437.52 309.28,-440.37"/>
</g>
<!-- Node14&#45;&gt;Node3 -->
<g id="edge17" class="edge">
<title>Node14&#45;&gt;Node3</title>
<path fill="none" stroke="midnightblue" d="M273.78,-386.9C257.83,-377 237,-364.07 223.44,-355.65"/>
<polygon fill="midnightblue" stroke="midnightblue" points="272.18,-390.02 282.52,-392.32 275.87,-384.08 272.18,-390.02"/>
</g>
<!-- Node15&#45;&gt;Node11 -->
<g id="edge28" class="edge">
<title>Node15&#45;&gt;Node11</title>
<path fill="none" stroke="midnightblue" d="M497.4,-445.44C530.78,-435.26 578.6,-420.66 608.59,-411.52"/>
<polygon fill="midnightblue" stroke="midnightblue" points="496.09,-442.18 487.55,-448.44 498.13,-448.87 496.09,-442.18"/>
</g>
<!-- Node15&#45;&gt;Node12 -->
<g id="edge38" class="edge">
<title>Node15&#45;&gt;Node12</title>
<path fill="none" stroke="midnightblue" d="M476.65,-441.78C498.62,-422.18 537.78,-386.97 570.5,-356 591.52,-336.1 615.61,-312.05 628.06,-299.52"/>
<polygon fill="midnightblue" stroke="midnightblue" points="474.26,-439.22 469.12,-448.48 478.92,-444.44 474.26,-439.22"/>
</g>
<!-- Node16 -->
<g id="node16" class="node">
<title>Node16</title>
<g id="a_node16"><a xlink:href="vae__bank_8hpp.html" target="_top" xlink:title=" ">
<polygon fill="none" stroke="black" points="324,-336.5 324,-355.5 409,-355.5 409,-336.5 324,-336.5"/>
<text text-anchor="middle" x="366.5" y="-343.5" font-family="Helvetica,sans-Serif" font-size="10.00">vae_bank.hpp</text>
</a>
</g>
</g>
<!-- Node15&#45;&gt;Node16 -->
<g id="edge20" class="edge">
<title>Node15&#45;&gt;Node16</title>
<path fill="none" stroke="midnightblue" d="M435.06,-442.87C422.93,-434.96 408.72,-424.23 398.5,-412 383.82,-394.44 373.84,-368.99 369.29,-355.75"/>
<polygon fill="midnightblue" stroke="midnightblue" points="433.49,-446.02 443.83,-448.35 437.2,-440.09 433.49,-446.02"/>
</g>
<!-- Node19 -->
<g id="node19" class="node">
<title>Node19</title>
<g id="a_node19"><a xlink:href="vae__event_8hpp.html" target="_top" xlink:title=" ">
<polygon fill="none" stroke="black" points="407,-392.5 407,-411.5 496,-411.5 496,-392.5 407,-392.5"/>
<text text-anchor="middle" x="451.5" y="-399.5" font-family="Helvetica,sans-Serif" font-size="10.00">vae_event.hpp</text>
</a>
</g>
</g>
<!-- Node15&#45;&gt;Node19 -->
<g id="edge29" class="edge">
<title>Node15&#45;&gt;Node19</title>
<path fill="none" stroke="midnightblue" d="M456.7,-438.1C455.37,-429.14 453.85,-418.86 452.8,-411.75"/>
<polygon fill="midnightblue" stroke="midnightblue" points="453.25,-438.7 458.18,-448.08 460.18,-437.68 453.25,-438.7"/>
</g>
<!-- Node16&#45;&gt;Node5 -->
<g id="edge23" class="edge">
<title>Node16&#45;&gt;Node5</title>
<path fill="none" stroke="midnightblue" d="M347.16,-330C329.7,-316.58 303.19,-296.55 279.5,-280 260.62,-266.81 238.2,-252.41 224.16,-243.54"/>
<polygon fill="midnightblue" stroke="midnightblue" points="345.35,-333.02 355.41,-336.35 349.62,-327.48 345.35,-333.02"/>
</g>
<!-- Node16&#45;&gt;Node10 -->
<g id="edge27" class="edge">
<title>Node16&#45;&gt;Node10</title>
<path fill="none" stroke="midnightblue" d="M367.26,-326.3C369.11,-280.64 373.8,-164.85 375.14,-131.88"/>
<polygon fill="midnightblue" stroke="midnightblue" points="363.76,-326.16 366.85,-336.3 370.76,-326.45 363.76,-326.16"/>
</g>
<!-- Node16&#45;&gt;Node12 -->
<g id="edge24" class="edge">
<title>Node16&#45;&gt;Node12</title>
<path fill="none" stroke="midnightblue" d="M419.13,-334.47C470.16,-324.27 546.6,-308.98 593.92,-299.52"/>
<polygon fill="midnightblue" stroke="midnightblue" points="418.4,-331.05 409.28,-336.44 419.77,-337.91 418.4,-331.05"/>
</g>
<!-- Node17 -->
<g id="node17" class="node">
<title>Node17</title>
<g id="a_node17"><a xlink:href="vae__bank__loader_8hpp.html" target="_top" xlink:title=" ">
<polygon fill="none" stroke="black" points="151,-280.5 151,-299.5 270,-299.5 270,-280.5 151,-280.5"/>
<text text-anchor="middle" x="210.5" y="-287.5" font-family="Helvetica,sans-Serif" font-size="10.00">vae_bank_loader.hpp</text>
</a>
</g>
</g>
<!-- Node16&#45;&gt;Node17 -->
<g id="edge21" class="edge">
<title>Node16&#45;&gt;Node17</title>
<path fill="none" stroke="midnightblue" d="M332.33,-333.17C302.96,-323 261.3,-308.59 235.1,-299.52"/>
<polygon fill="midnightblue" stroke="midnightblue" points="331.19,-336.48 341.78,-336.44 333.48,-329.86 331.19,-336.48"/>
</g>
<!-- Node18 -->
<g id="node18" class="node">
<title>Node18</title>
<g id="a_node18"><a xlink:href="vae__processor_8hpp.html" target="_top" xlink:title=" ">
<polygon fill="none" stroke="black" points="441,-280.5 441,-299.5 548,-299.5 548,-280.5 441,-280.5"/>
<text text-anchor="middle" x="494.5" y="-287.5" font-family="Helvetica,sans-Serif" font-size="10.00">vae_processor.hpp</text>
</a>
</g>
</g>
<!-- Node16&#45;&gt;Node18 -->
<g id="edge25" class="edge">
<title>Node16&#45;&gt;Node18</title>
<path fill="none" stroke="midnightblue" d="M396.12,-332.5C420.12,-322.38 453.28,-308.39 474.31,-299.52"/>
<polygon fill="midnightblue" stroke="midnightblue" points="394.64,-329.33 386.78,-336.44 397.36,-335.78 394.64,-329.33"/>
</g>
<!-- Node17&#45;&gt;Node5 -->
<g id="edge22" class="edge">
<title>Node17&#45;&gt;Node5</title>
<path fill="none" stroke="midnightblue" d="M210.5,-269.8C210.5,-260.91 210.5,-250.78 210.5,-243.75"/>
<polygon fill="midnightblue" stroke="midnightblue" points="207,-270.08 210.5,-280.08 214,-270.08 207,-270.08"/>
</g>
<!-- Node18&#45;&gt;Node6 -->
<g id="edge26" class="edge">
<title>Node18&#45;&gt;Node6</title>
<path fill="none" stroke="midnightblue" d="M499.3,-270.28C506.92,-236.37 518.25,-163.55 490.5,-112 481.26,-94.84 462.27,-82.87 447.19,-75.61"/>
<polygon fill="midnightblue" stroke="midnightblue" points="495.85,-269.66 496.92,-280.2 502.66,-271.29 495.85,-269.66"/>
</g>
<!-- Node19&#45;&gt;Node16 -->
<g id="edge30" class="edge">
<title>Node19&#45;&gt;Node16</title>
<path fill="none" stroke="midnightblue" d="M429.31,-386.9C413.72,-377 393.37,-364.07 380.12,-355.65"/>
<polygon fill="midnightblue" stroke="midnightblue" points="427.53,-389.92 437.84,-392.32 431.28,-384.01 427.53,-389.92"/>
</g>
<!-- Node19&#45;&gt;Node17 -->
<g id="edge31" class="edge">
<title>Node19&#45;&gt;Node17</title>
<path fill="none" stroke="midnightblue" d="M408.87,-389.7C381.56,-381.78 345.7,-370.11 315.5,-356 279.76,-339.31 241.15,-313.03 222.26,-299.57"/>
<polygon fill="midnightblue" stroke="midnightblue" points="407.95,-393.07 418.52,-392.44 409.86,-386.34 407.95,-393.07"/>
</g>
<!-- Node20 -->
<g id="node20" class="node">
<title>Node20</title>
<g id="a_node20"><a xlink:href="vae__voice__manager_8hpp.html" target="_top" xlink:title="Holds all voices and starts/stops them.">
<polygon fill="none" stroke="black" points="427.5,-336.5 427.5,-355.5 561.5,-355.5 561.5,-336.5 427.5,-336.5"/>
<text text-anchor="middle" x="494.5" y="-343.5" font-family="Helvetica,sans-Serif" font-size="10.00">vae_voice_manager.hpp</text>
</a>
</g>
</g>
<!-- Node19&#45;&gt;Node20 -->
<g id="edge32" class="edge">
<title>Node19&#45;&gt;Node20</title>
<path fill="none" stroke="midnightblue" d="M464.92,-384.14C472.41,-374.74 481.44,-363.4 487.53,-355.75"/>
<polygon fill="midnightblue" stroke="midnightblue" points="462.09,-382.08 458.6,-392.08 467.57,-386.44 462.09,-382.08"/>
</g>
<!-- Node20&#45;&gt;Node6 -->
<g id="edge33" class="edge">
<title>Node20&#45;&gt;Node6</title>
<path fill="none" stroke="midnightblue" d="M571.63,-337.76C626.72,-331.06 694.64,-319.18 715.5,-300 737.65,-279.62 734.5,-265.1 734.5,-235 734.5,-235 734.5,-235 734.5,-177 734.5,-122.12 559.33,-87.52 472.77,-73.78"/>
<polygon fill="midnightblue" stroke="midnightblue" points="571.03,-334.31 561.5,-338.95 571.84,-341.26 571.03,-334.31"/>
</g>
<!-- Node20&#45;&gt;Node9 -->
<g id="edge36" class="edge">
<title>Node20&#45;&gt;Node9</title>
<path fill="none" stroke="midnightblue" d="M460.89,-332.54C441.74,-324.66 417.8,-313.43 398.5,-300 348.34,-265.11 300.01,-208.99 282.45,-187.63"/>
<polygon fill="midnightblue" stroke="midnightblue" points="459.83,-335.89 470.41,-336.35 462.43,-329.39 459.83,-335.89"/>
</g>
<!-- Node20&#45;&gt;Node10 -->
<g id="edge37" class="edge">
<title>Node20&#45;&gt;Node10</title>
<path fill="none" stroke="midnightblue" d="M468.5,-331.31C456.05,-323.6 441.86,-312.91 432.5,-300 411.85,-271.51 385.03,-163.19 377.53,-131.66"/>
<polygon fill="midnightblue" stroke="midnightblue" points="466.76,-334.35 477.16,-336.4 470.3,-328.32 466.76,-334.35"/>
</g>
<!-- Node20&#45;&gt;Node12 -->
<g id="edge34" class="edge">
<title>Node20&#45;&gt;Node12</title>
<path fill="none" stroke="midnightblue" d="M526.66,-332.77C553.33,-322.63 590.57,-308.47 614.1,-299.52"/>
<polygon fill="midnightblue" stroke="midnightblue" points="525.1,-329.62 517,-336.44 527.59,-336.16 525.1,-329.62"/>
</g>
<!-- Node20&#45;&gt;Node18 -->
<g id="edge35" class="edge">
<title>Node20&#45;&gt;Node18</title>
<path fill="none" stroke="midnightblue" d="M494.5,-325.8C494.5,-316.91 494.5,-306.78 494.5,-299.75"/>
<polygon fill="midnightblue" stroke="midnightblue" points="491,-326.08 494.5,-336.08 498,-326.08 491,-326.08"/>
</g>
</g>
</svg>
