<?xml version="1.0" encoding="UTF-8" standalone="no"?>
<!DOCTYPE svg PUBLIC "-//W3C//DTD SVG 1.1//EN"
 "http://www.w3.org/Graphics/SVG/1.1/DTD/svg11.dtd">
<!-- Generated by graphviz version 2.50.0 (0)
 -->
<!-- Title: vae_fs.hpp Pages: 1 -->
<svg width="290pt" height="420pt"
 viewBox="0.00 0.00 289.50 420.00" xmlns="http://www.w3.org/2000/svg" xmlns:xlink="http://www.w3.org/1999/xlink">
<g id="graph0" class="graph" transform="scale(1 1) rotate(0) translate(4 416)">
<title>vae_fs.hpp</title>
<!-- Node1 -->
<g id="node1" class="node">
<title>Node1</title>
<g id="a_node1"><a xlink:title=" ">
<polygon fill="#bfbfbf" stroke="black" points="98,-392.5 98,-411.5 168,-411.5 168,-392.5 98,-392.5"/>
<text text-anchor="middle" x="133" y="-399.5" font-family="Helvetica,sans-Serif" font-size="10.00">vae_fs.hpp</text>
</a>
</g>
</g>
<!-- Node2 -->
<g id="node2" class="node">
<title>Node2</title>
<g id="a_node2"><a xlink:href="vae__bank__loader_8hpp.html" target="_top" xlink:title=" ">
<polygon fill="none" stroke="black" points="6.5,-280.5 6.5,-299.5 125.5,-299.5 125.5,-280.5 6.5,-280.5"/>
<text text-anchor="middle" x="66" y="-287.5" font-family="Helvetica,sans-Serif" font-size="10.00">vae_bank_loader.hpp</text>
</a>
</g>
</g>
<!-- Node1&#45;&gt;Node2 -->
<g id="edge1" class="edge">
<title>Node1&#45;&gt;Node2</title>
<path fill="none" stroke="midnightblue" d="M97.55,-388.2C83.22,-381.06 68.16,-370.61 60,-356 49.95,-337.99 57.22,-312.74 62.27,-299.64"/>
<polygon fill="midnightblue" stroke="midnightblue" points="96.24,-391.44 106.79,-392.41 99.15,-385.08 96.24,-391.44"/>
</g>
<!-- Node9 -->
<g id="node9" class="node">
<title>Node9</title>
<g id="a_node9"><a xlink:href="vae__hrtf__loader_8hpp.html" target="_top" xlink:title=" ">
<polygon fill="none" stroke="black" points="168.5,-280.5 168.5,-299.5 281.5,-299.5 281.5,-280.5 168.5,-280.5"/>
<text text-anchor="middle" x="225" y="-287.5" font-family="Helvetica,sans-Serif" font-size="10.00">vae_hrtf_loader.hpp</text>
</a>
</g>
</g>
<!-- Node1&#45;&gt;Node9 -->
<g id="edge10" class="edge">
<title>Node1&#45;&gt;Node9</title>
<path fill="none" stroke="midnightblue" d="M164.44,-388.07C178.97,-380.65 195.34,-369.99 206,-356 218.97,-338.98 223.1,-313.31 224.41,-299.89"/>
<polygon fill="midnightblue" stroke="midnightblue" points="162.73,-385.01 155.23,-392.49 165.76,-391.32 162.73,-385.01"/>
</g>
<!-- Node10 -->
<g id="node10" class="node">
<title>Node10</title>
<g id="a_node10"><a xlink:href="vae__source__loader_8hpp.html" target="_top" xlink:title=" ">
<polygon fill="none" stroke="black" points="69,-336.5 69,-355.5 197,-355.5 197,-336.5 69,-336.5"/>
<text text-anchor="middle" x="133" y="-343.5" font-family="Helvetica,sans-Serif" font-size="10.00">vae_source_loader.hpp</text>
</a>
</g>
</g>
<!-- Node1&#45;&gt;Node10 -->
<g id="edge12" class="edge">
<title>Node1&#45;&gt;Node10</title>
<path fill="none" stroke="midnightblue" d="M133,-381.8C133,-372.91 133,-362.78 133,-355.75"/>
<polygon fill="midnightblue" stroke="midnightblue" points="129.5,-382.08 133,-392.08 136.5,-382.08 129.5,-382.08"/>
</g>
<!-- Node3 -->
<g id="node3" class="node">
<title>Node3</title>
<g id="a_node3"><a xlink:href="vae__bank__manager_8hpp.html" target="_top" xlink:title=" ">
<polygon fill="none" stroke="black" points="0,-224.5 0,-243.5 132,-243.5 132,-224.5 0,-224.5"/>
<text text-anchor="middle" x="66" y="-231.5" font-family="Helvetica,sans-Serif" font-size="10.00">vae_bank_manager.hpp</text>
</a>
</g>
</g>
<!-- Node2&#45;&gt;Node3 -->
<g id="edge2" class="edge">
<title>Node2&#45;&gt;Node3</title>
<path fill="none" stroke="midnightblue" d="M66,-269.8C66,-260.91 66,-250.78 66,-243.75"/>
<polygon fill="midnightblue" stroke="midnightblue" points="62.5,-270.08 66,-280.08 69.5,-270.08 62.5,-270.08"/>
</g>
<!-- Node4 -->
<g id="node4" class="node">
<title>Node4</title>
<g id="a_node4"><a xlink:href="vae__engine_8hpp.html" target="_top" xlink:title=" ">
<polygon fill="none" stroke="black" points="47,-56.5 47,-75.5 141,-75.5 141,-56.5 47,-56.5"/>
<text text-anchor="middle" x="94" y="-63.5" font-family="Helvetica,sans-Serif" font-size="10.00">vae_engine.hpp</text>
</a>
</g>
</g>
<!-- Node3&#45;&gt;Node4 -->
<g id="edge3" class="edge">
<title>Node3&#45;&gt;Node4</title>
<path fill="none" stroke="midnightblue" d="M55.42,-215.5C48.85,-202.53 42.32,-184.34 46,-168 54.24,-131.45 77.34,-92.6 88.21,-75.7"/>
<polygon fill="midnightblue" stroke="midnightblue" points="52.37,-217.22 60.27,-224.28 58.5,-213.84 52.37,-217.22"/>
</g>
<!-- Node7 -->
<g id="node7" class="node">
<title>Node7</title>
<g id="a_node7"><a xlink:href="vae__spatial__manager_8hpp.html" target="_top" xlink:title=" ">
<polygon fill="none" stroke="black" points="55.5,-168.5 55.5,-187.5 196.5,-187.5 196.5,-168.5 55.5,-168.5"/>
<text text-anchor="middle" x="126" y="-175.5" font-family="Helvetica,sans-Serif" font-size="10.00">vae_spatial_manager.hpp</text>
</a>
</g>
</g>
<!-- Node3&#45;&gt;Node7 -->
<g id="edge6" class="edge">
<title>Node3&#45;&gt;Node7</title>
<path fill="none" stroke="midnightblue" d="M83.18,-217.54C93.88,-207.91 107.26,-195.87 116.18,-187.83"/>
<polygon fill="midnightblue" stroke="midnightblue" points="80.73,-215.03 75.64,-224.32 85.41,-220.24 80.73,-215.03"/>
</g>
<!-- Node5 -->
<g id="node5" class="node">
<title>Node5</title>
<g id="a_node5"><a xlink:href="main_8cpp.html" target="_top" xlink:title=" ">
<polygon fill="none" stroke="black" points="17,-0.5 17,-19.5 79,-19.5 79,-0.5 17,-0.5"/>
<text text-anchor="middle" x="48" y="-7.5" font-family="Helvetica,sans-Serif" font-size="10.00">main.cpp</text>
</a>
</g>
</g>
<!-- Node4&#45;&gt;Node5 -->
<g id="edge4" class="edge">
<title>Node4&#45;&gt;Node5</title>
<path fill="none" stroke="midnightblue" d="M79.89,-48.43C71.82,-38.97 62.04,-27.48 55.45,-19.75"/>
<polygon fill="midnightblue" stroke="midnightblue" points="77.25,-50.74 86.4,-56.08 82.58,-46.2 77.25,-50.74"/>
</g>
<!-- Node6 -->
<g id="node6" class="node">
<title>Node6</title>
<g id="a_node6"><a xlink:href="vae__pimpl_8cpp.html" target="_top" xlink:title=" ">
<polygon fill="none" stroke="black" points="97,-0.5 97,-19.5 185,-19.5 185,-0.5 97,-0.5"/>
<text text-anchor="middle" x="141" y="-7.5" font-family="Helvetica,sans-Serif" font-size="10.00">vae_pimpl.cpp</text>
</a>
</g>
</g>
<!-- Node4&#45;&gt;Node6 -->
<g id="edge5" class="edge">
<title>Node4&#45;&gt;Node6</title>
<path fill="none" stroke="midnightblue" d="M108.42,-48.43C116.66,-38.97 126.65,-27.48 133.38,-19.75"/>
<polygon fill="midnightblue" stroke="midnightblue" points="105.69,-46.24 101.76,-56.08 110.97,-50.84 105.69,-46.24"/>
</g>
<!-- Node7&#45;&gt;Node4 -->
<g id="edge7" class="edge">
<title>Node7&#45;&gt;Node4</title>
<path fill="none" stroke="midnightblue" d="M120.67,-158.67C113.67,-134.62 101.68,-93.39 96.5,-75.59"/>
<polygon fill="midnightblue" stroke="midnightblue" points="117.33,-159.74 123.49,-168.37 124.06,-157.79 117.33,-159.74"/>
</g>
<!-- Node8 -->
<g id="node8" class="node">
<title>Node8</title>
<g id="a_node8"><a xlink:href="vae__spatial__processor_8hpp.html" target="_top" xlink:title=" ">
<polygon fill="none" stroke="black" points="122.5,-112.5 122.5,-131.5 267.5,-131.5 267.5,-112.5 122.5,-112.5"/>
<text text-anchor="middle" x="195" y="-119.5" font-family="Helvetica,sans-Serif" font-size="10.00">vae_spatial_processor.hpp</text>
</a>
</g>
</g>
<!-- Node7&#45;&gt;Node8 -->
<g id="edge8" class="edge">
<title>Node7&#45;&gt;Node8</title>
<path fill="none" stroke="midnightblue" d="M145.04,-162.1C157.46,-152.38 173.24,-140.03 183.71,-131.83"/>
<polygon fill="midnightblue" stroke="midnightblue" points="142.8,-159.4 137.09,-168.32 147.12,-164.92 142.8,-159.4"/>
</g>
<!-- Node8&#45;&gt;Node4 -->
<g id="edge9" class="edge">
<title>Node8&#45;&gt;Node4</title>
<path fill="none" stroke="midnightblue" d="M169.92,-107.59C151.24,-97.61 126.3,-84.27 110.19,-75.65"/>
<polygon fill="midnightblue" stroke="midnightblue" points="168.3,-110.7 178.77,-112.32 171.6,-104.52 168.3,-110.7"/>
</g>
<!-- Node9&#45;&gt;Node8 -->
<g id="edge11" class="edge">
<title>Node9&#45;&gt;Node8</title>
<path fill="none" stroke="midnightblue" d="M222.57,-270.35C219.34,-246.52 213.22,-204.02 206,-168 203.44,-155.23 199.72,-140.6 197.32,-131.58"/>
<polygon fill="midnightblue" stroke="midnightblue" points="219.12,-271 223.91,-280.45 226.06,-270.07 219.12,-271"/>
</g>
<!-- Node10&#45;&gt;Node2 -->
<g id="edge13" class="edge">
<title>Node10&#45;&gt;Node2</title>
<path fill="none" stroke="midnightblue" d="M114.17,-329.82C102.16,-320.15 87.03,-307.95 76.96,-299.83"/>
<polygon fill="midnightblue" stroke="midnightblue" points="112.25,-332.77 122.24,-336.32 116.65,-327.32 112.25,-332.77"/>
</g>
</g>
</svg>
