<?xml version="1.0" encoding="UTF-8" standalone="no"?>
<!DOCTYPE svg PUBLIC "-//W3C//DTD SVG 1.1//EN"
 "http://www.w3.org/Graphics/SVG/1.1/DTD/svg11.dtd">
<!-- Generated by graphviz version 2.50.0 (0)
 -->
<!-- Title: vae_voice_pan.hpp Pages: 1 -->
<!--zoomable 542 -->
<svg id="main" version="1.1" xmlns="http://www.w3.org/2000/svg" xmlns:xlink="http://www.w3.org/1999/xlink" xml:space="preserve" onload="init(evt)">
<style type="text/css"><![CDATA[
.edge:hover path { stroke: red; }
.edge:hover polygon { stroke: red; fill: red; }
]]></style>
<script type="text/javascript"><![CDATA[
var edges = document.getElementsByTagName('g');
if (edges && edges.length) {
  for (var i=0;i<edges.length;i++) {
    if (edges[i].id.substr(0,4)=='edge') {
      edges[i].setAttribute('class','edge');
    }
  }
}
]]></script>
        <defs>
                <circle id="rim" cx="0" cy="0" r="7"/>
                <circle id="rim2" cx="0" cy="0" r="3.5"/>
                <g id="zoomPlus">
                        <use xlink:href="#rim" fill="#404040">
                                <set attributeName="fill" to="#808080" begin="zoomplus.mouseover" end="zoomplus.mouseout"/>
                        </use>
                        <path d="M-4,0h8M0,-4v8" fill="none" stroke="white" stroke-width="1.5" pointer-events="none"/>
                </g>
                <g id="zoomMin">
                        <use xlink:href="#rim" fill="#404040">
                                <set attributeName="fill" to="#808080" begin="zoomminus.mouseover" end="zoomminus.mouseout"/>
                        </use>
                        <path d="M-4,0h8" fill="none" stroke="white" stroke-width="1.5" pointer-events="none"/>
                </g>
                <g id="dirArrow">
                        <path fill="none" stroke="white" stroke-width="1.5" d="M0,-3.0v7 M-2.5,-0.5L0,-3.0L2.5,-0.5"/>
                </g>
               <g id="resetDef">
                       <use xlink:href="#rim2" fill="#404040">
                               <set attributeName="fill" to="#808080" begin="reset.mouseover" end="reset.mouseout"/>
                       </use>
               </g>
        </defs>

<script type="text/javascript">
var viewWidth = 1260;
var viewHeight = 542;
var sectionId = 'dynsection-0';
</script>
<script xlink:href="svgpan.js"/>
<svg id="graph" class="graph">
<g id="viewport">
<title>vae_voice_pan.hpp</title>
<!-- Node1 -->
<g id="node1" class="node">
<title>Node1</title>
<g id="a_node1"><a xlink:title=" ">
<polygon fill="#bfbfbf" stroke="black" points="352.5,-514.5 352.5,-533.5 462.5,-533.5 462.5,-514.5 352.5,-514.5"/>
<text text-anchor="middle" x="407.5" y="-521.5" font-family="Helvetica,sans-Serif" font-size="10.00">vae_voice_pan.hpp</text>
</a>
</g>
</g>
<!-- Node2 -->
<g id="node2" class="node">
<title>Node2</title>
<g id="a_node2"><a xlink:href="vae__types_8hpp.html" target="_top" xlink:title="Internal types used across VAE.">
<polygon fill="none" stroke="black" points="359,-458.5 359,-477.5 456,-477.5 456,-458.5 359,-458.5"/>
<text text-anchor="middle" x="407.5" y="-465.5" font-family="Helvetica,sans-Serif" font-size="10.00">../vae_types.hpp</text>
</a>
</g>
</g>
<!-- Node1&#45;&gt;Node2 -->
<g id="edge1" class="edge">
<title>Node1&#45;&gt;Node2</title>
<path fill="none" stroke="midnightblue" d="M407.5,-514.08C407.5,-507.01 407.5,-496.86 407.5,-487.99"/>
<polygon fill="midnightblue" stroke="midnightblue" points="411,-487.75 407.5,-477.75 404,-487.75 411,-487.75"/>
</g>
<!-- Node5 -->
<g id="node5" class="node">
<title>Node5</title>
<g id="a_node5"><a xlink:href="vae__config_8hpp.html" target="_top" xlink:title=" ">
<polygon fill="none" stroke="black" points="15,-391.5 15,-410.5 112,-410.5 112,-391.5 15,-391.5"/>
<text text-anchor="middle" x="63.5" y="-398.5" font-family="Helvetica,sans-Serif" font-size="10.00">./vae_config.hpp</text>
</a>
</g>
</g>
<!-- Node1&#45;&gt;Node5 -->
<g id="edge56" class="edge">
<title>Node1&#45;&gt;Node5</title>
<path fill="none" stroke="midnightblue" d="M383.31,-514.49C323.26,-493.37 167.2,-438.47 97.72,-414.04"/>
<polygon fill="midnightblue" stroke="midnightblue" points="98.72,-410.68 88.12,-410.66 96.4,-417.28 98.72,-410.68"/>
</g>
<!-- Node9 -->
<g id="node9" class="node">
<title>Node9</title>
<g id="a_node9"><a xlink:title=" ">
<polygon fill="none" stroke="#bfbfbf" points="797.5,-134.5 797.5,-153.5 841.5,-153.5 841.5,-134.5 797.5,-134.5"/>
<text text-anchor="middle" x="819.5" y="-141.5" font-family="Helvetica,sans-Serif" font-size="10.00">limits</text>
</a>
</g>
</g>
<!-- Node1&#45;&gt;Node9 -->
<g id="edge57" class="edge">
<title>Node1&#45;&gt;Node9</title>
<path fill="none" stroke="midnightblue" d="M462.76,-521.79C596.85,-517.36 928.5,-496.83 928.5,-402 928.5,-402 928.5,-402 928.5,-327.5 928.5,-257.03 867.86,-190.16 837.04,-160.72"/>
<polygon fill="midnightblue" stroke="midnightblue" points="839.26,-158 829.56,-153.75 834.49,-163.12 839.26,-158"/>
</g>
<!-- Node3 -->
<g id="node3" class="node">
<title>Node3</title>
<g id="a_node3"><a xlink:href="vae_8hpp.html" target="_top" xlink:title="Contains all public API types for VAE.">
<polygon fill="none" stroke="black" points="0,-319 0,-338 133,-338 133,-319 0,-319"/>
<text text-anchor="middle" x="66.5" y="-326" font-family="Helvetica,sans-Serif" font-size="10.00">../../include/vae/vae.hpp</text>
</a>
</g>
</g>
<!-- Node2&#45;&gt;Node3 -->
<g id="edge2" class="edge">
<title>Node2&#45;&gt;Node3</title>
<path fill="none" stroke="midnightblue" d="M392.65,-458.47C378.57,-450.06 357.13,-436.4 340.5,-422 321.47,-405.53 324.31,-392.58 302.5,-380 287.12,-371.13 188.72,-351.88 123.93,-339.88"/>
<polygon fill="midnightblue" stroke="midnightblue" points="124.31,-336.39 113.84,-338.01 123.04,-343.27 124.31,-336.39"/>
</g>
<!-- Node4 -->
<g id="node4" class="node">
<title>Node4</title>
<g id="a_node4"><a xlink:href="vae__profiler_8hpp.html" target="_top" xlink:title=" ">
<polygon fill="none" stroke="black" points="434,-319 434,-338 583,-338 583,-319 434,-319"/>
<text text-anchor="middle" x="508.5" y="-326" font-family="Helvetica,sans-Serif" font-size="10.00">../wrapped/vae_profiler.hpp</text>
</a>
</g>
</g>
<!-- Node2&#45;&gt;Node4 -->
<g id="edge3" class="edge">
<title>Node2&#45;&gt;Node4</title>
<path fill="none" stroke="midnightblue" d="M425.75,-458.5C440.46,-450.82 460.72,-438.23 473.5,-422 490.99,-399.79 500.46,-367.9 504.99,-347.96"/>
<polygon fill="midnightblue" stroke="midnightblue" points="508.45,-348.51 507.06,-338 501.6,-347.08 508.45,-348.51"/>
</g>
<!-- Node2&#45;&gt;Node5 -->
<g id="edge4" class="edge">
<title>Node2&#45;&gt;Node5</title>
<path fill="none" stroke="midnightblue" d="M358.97,-462.12C301.47,-455.71 203.04,-442.77 120.5,-422 111.87,-419.83 102.71,-416.9 94.31,-413.96"/>
<polygon fill="midnightblue" stroke="midnightblue" points="95.47,-410.66 84.87,-410.54 93.08,-417.24 95.47,-410.66"/>
</g>
<!-- Node6 -->
<g id="node6" class="node">
<title>Node6</title>
<g id="a_node6"><a xlink:title=" ">
<polygon fill="none" stroke="#bfbfbf" points="130,-386 130,-416 227,-416 227,-386 130,-386"/>
<text text-anchor="start" x="138" y="-404" font-family="Helvetica,sans-Serif" font-size="10.00">../../external/glm</text>
<text text-anchor="middle" x="178.5" y="-393" font-family="Helvetica,sans-Serif" font-size="10.00">/glm/glm.hpp</text>
</a>
</g>
</g>
<!-- Node2&#45;&gt;Node6 -->
<g id="edge6" class="edge">
<title>Node2&#45;&gt;Node6</title>
<path fill="none" stroke="midnightblue" d="M371.91,-458.46C337.17,-449.93 282.91,-436.09 236.5,-422 233.59,-421.12 230.6,-420.18 227.6,-419.21"/>
<polygon fill="midnightblue" stroke="midnightblue" points="228.59,-415.86 217.99,-416.06 226.4,-422.51 228.59,-415.86"/>
</g>
<!-- Node7 -->
<g id="node7" class="node">
<title>Node7</title>
<g id="a_node7"><a xlink:href="_t_audio_buffer_8hpp.html" target="_top" xlink:title=" ">
<polygon fill="none" stroke="black" points="606,-313.5 606,-343.5 785,-343.5 785,-313.5 606,-313.5"/>
<text text-anchor="start" x="614" y="-331.5" font-family="Helvetica,sans-Serif" font-size="10.00">../../external/tklb</text>
<text text-anchor="middle" x="695.5" y="-320.5" font-family="Helvetica,sans-Serif" font-size="10.00">/src/types/audio/TAudioBuffer.hpp</text>
</a>
</g>
</g>
<!-- Node2&#45;&gt;Node7 -->
<g id="edge7" class="edge">
<title>Node2&#45;&gt;Node7</title>
<path fill="none" stroke="midnightblue" d="M456.02,-465.76C526.41,-462.89 651.81,-453.39 682.5,-422 699.88,-404.23 701.11,-374.57 699.29,-353.64"/>
<polygon fill="midnightblue" stroke="midnightblue" points="702.76,-353.13 698.14,-343.6 695.8,-353.93 702.76,-353.13"/>
</g>
<!-- Node32 -->
<g id="node32" class="node">
<title>Node32</title>
<g id="a_node32"><a xlink:href="_t_audio_ring_buffer_8hpp.html" target="_top" xlink:title=" ">
<polygon fill="none" stroke="black" points="522,-380.5 522,-421.5 673,-421.5 673,-380.5 522,-380.5"/>
<text text-anchor="start" x="530" y="-409.5" font-family="Helvetica,sans-Serif" font-size="10.00">../../external/tklb</text>
<text text-anchor="start" x="530" y="-398.5" font-family="Helvetica,sans-Serif" font-size="10.00">/src/types/audio/TAudioRing</text>
<text text-anchor="middle" x="597.5" y="-387.5" font-family="Helvetica,sans-Serif" font-size="10.00">Buffer.hpp</text>
</a>
</g>
</g>
<!-- Node2&#45;&gt;Node32 -->
<g id="edge44" class="edge">
<title>Node2&#45;&gt;Node32</title>
<path fill="none" stroke="midnightblue" d="M432.73,-458.37C457.54,-449.88 496.49,-436.56 530.29,-424.99"/>
<polygon fill="midnightblue" stroke="midnightblue" points="531.8,-428.17 540.13,-421.63 529.54,-421.55 531.8,-428.17"/>
</g>
<!-- Node33 -->
<g id="node33" class="node">
<title>Node33</title>
<g id="a_node33"><a xlink:href="_t_string_8hpp.html" target="_top" xlink:title=" ">
<polygon fill="none" stroke="black" points="956.5,-313.5 956.5,-343.5 1078.5,-343.5 1078.5,-313.5 956.5,-313.5"/>
<text text-anchor="start" x="964.5" y="-331.5" font-family="Helvetica,sans-Serif" font-size="10.00">../../external/tklb</text>
<text text-anchor="middle" x="1017.5" y="-320.5" font-family="Helvetica,sans-Serif" font-size="10.00">/src/types/TString.hpp</text>
</a>
</g>
</g>
<!-- Node2&#45;&gt;Node33 -->
<g id="edge46" class="edge">
<title>Node2&#45;&gt;Node33</title>
<path fill="none" stroke="midnightblue" d="M456.23,-461.69C515.38,-454.78 617.96,-441.25 704.5,-422 798.29,-401.14 905.15,-367.33 966.62,-346.88"/>
<polygon fill="midnightblue" stroke="midnightblue" points="968.08,-350.08 976.46,-343.59 965.86,-343.44 968.08,-350.08"/>
</g>
<!-- Node34 -->
<g id="node34" class="node">
<title>Node34</title>
<g id="a_node34"><a xlink:href="vae__allocators_8hpp.html" target="_top" xlink:title=" ">
<polygon fill="none" stroke="black" points="350,-391.5 350,-410.5 465,-410.5 465,-391.5 350,-391.5"/>
<text text-anchor="middle" x="407.5" y="-398.5" font-family="Helvetica,sans-Serif" font-size="10.00">./vae_allocators.hpp</text>
</a>
</g>
</g>
<!-- Node2&#45;&gt;Node34 -->
<g id="edge49" class="edge">
<title>Node2&#45;&gt;Node34</title>
<path fill="none" stroke="midnightblue" d="M407.5,-458.23C407.5,-448.68 407.5,-433.12 407.5,-420.78"/>
<polygon fill="midnightblue" stroke="midnightblue" points="411,-420.63 407.5,-410.63 404,-420.63 411,-420.63"/>
</g>
<!-- Node37 -->
<g id="node37" class="node">
<title>Node37</title>
<g id="a_node37"><a xlink:title=" ">
<polygon fill="none" stroke="#bfbfbf" points="245.5,-391.5 245.5,-410.5 293.5,-410.5 293.5,-391.5 245.5,-391.5"/>
<text text-anchor="middle" x="269.5" y="-398.5" font-family="Helvetica,sans-Serif" font-size="10.00">mutex</text>
</a>
</g>
</g>
<!-- Node2&#45;&gt;Node37 -->
<g id="edge55" class="edge">
<title>Node2&#45;&gt;Node37</title>
<path fill="none" stroke="midnightblue" d="M387.41,-458.39C367.1,-449.59 334.88,-435.35 307.5,-422 303.24,-419.92 298.75,-417.64 294.41,-415.39"/>
<polygon fill="midnightblue" stroke="midnightblue" points="295.77,-412.15 285.29,-410.59 292.51,-418.34 295.77,-412.15"/>
</g>
<!-- Node5&#45;&gt;Node3 -->
<g id="edge5" class="edge">
<title>Node5&#45;&gt;Node3</title>
<path fill="none" stroke="midnightblue" d="M63.87,-391.36C64.32,-380.68 65.11,-362.22 65.7,-348.23"/>
<polygon fill="midnightblue" stroke="midnightblue" points="69.2,-348.36 66.13,-338.22 62.21,-348.06 69.2,-348.36"/>
</g>
<!-- Node8 -->
<g id="node8" class="node">
<title>Node8</title>
<g id="a_node8"><a xlink:title=" ">
<polygon fill="none" stroke="#bfbfbf" points="900.5,-190.5 900.5,-209.5 964.5,-209.5 964.5,-190.5 900.5,-190.5"/>
<text text-anchor="middle" x="932.5" y="-197.5" font-family="Helvetica,sans-Serif" font-size="10.00">algorithm</text>
</a>
</g>
</g>
<!-- Node7&#45;&gt;Node8 -->
<g id="edge8" class="edge">
<title>Node7&#45;&gt;Node8</title>
<path fill="none" stroke="midnightblue" d="M709.36,-313.37C729.94,-292.65 767.94,-255.45 784.5,-246 817.62,-227.11 859.51,-215.34 890.27,-208.59"/>
<polygon fill="midnightblue" stroke="midnightblue" points="891.18,-211.98 900.24,-206.49 889.74,-205.13 891.18,-211.98"/>
</g>
<!-- Node7&#45;&gt;Node9 -->
<g id="edge9" class="edge">
<title>Node7&#45;&gt;Node9</title>
<path fill="none" stroke="midnightblue" d="M605.84,-313.49C544.55,-302.99 472.78,-288.52 463.5,-277 454.86,-266.27 455.19,-256.99 463.5,-246 473.56,-232.68 701.92,-174.42 787.5,-152.97"/>
<polygon fill="midnightblue" stroke="midnightblue" points="788.59,-156.3 797.44,-150.48 786.89,-149.51 788.59,-156.3"/>
</g>
<!-- Node10 -->
<g id="node10" class="node">
<title>Node10</title>
<g id="a_node10"><a xlink:title=" ">
<polygon fill="none" stroke="#bfbfbf" points="793,-252 793,-271 862,-271 862,-252 793,-252"/>
<text text-anchor="middle" x="827.5" y="-259" font-family="Helvetica,sans-Serif" font-size="10.00">type_traits</text>
</a>
</g>
</g>
<!-- Node7&#45;&gt;Node10 -->
<g id="edge10" class="edge">
<title>Node7&#45;&gt;Node10</title>
<path fill="none" stroke="midnightblue" d="M724.14,-313.4C747,-302.14 778.76,-286.5 801.02,-275.54"/>
<polygon fill="midnightblue" stroke="midnightblue" points="802.8,-278.56 810.22,-271.01 799.71,-272.28 802.8,-278.56"/>
</g>
<!-- Node11 -->
<g id="node11" class="node">
<title>Node11</title>
<g id="a_node11"><a xlink:href="_t_memory_8hpp.html" target="_top" xlink:title=" ">
<polygon fill="none" stroke="black" points="227.5,-252 227.5,-271 371.5,-271 371.5,-252 227.5,-252"/>
<text text-anchor="middle" x="299.5" y="-259" font-family="Helvetica,sans-Serif" font-size="10.00">../../memory/TMemory.hpp</text>
</a>
</g>
</g>
<!-- Node7&#45;&gt;Node11 -->
<g id="edge11" class="edge">
<title>Node7&#45;&gt;Node11</title>
<path fill="none" stroke="midnightblue" d="M610.06,-313.48C535.23,-301.19 428.29,-283.64 361.43,-272.67"/>
<polygon fill="midnightblue" stroke="midnightblue" points="361.89,-269.19 351.46,-271.03 360.76,-276.1 361.89,-269.19"/>
</g>
<!-- Node19 -->
<g id="node19" class="node">
<title>Node19</title>
<g id="a_node19"><a xlink:href="_t_assert_8h.html" target="_top" xlink:title=" ">
<polygon fill="none" stroke="black" points="818,-67.5 818,-86.5 907,-86.5 907,-67.5 818,-67.5"/>
<text text-anchor="middle" x="862.5" y="-74.5" font-family="Helvetica,sans-Serif" font-size="10.00">../util/TAssert.h</text>
</a>
</g>
</g>
<!-- Node7&#45;&gt;Node19 -->
<g id="edge43" class="edge">
<title>Node7&#45;&gt;Node19</title>
<path fill="none" stroke="midnightblue" d="M779.13,-313.41C818.65,-304.88 859.74,-292.61 871.5,-277 892.56,-249.05 874.7,-140.92 866.29,-96.85"/>
<polygon fill="midnightblue" stroke="midnightblue" points="869.7,-96.04 864.34,-86.9 862.83,-97.38 869.7,-96.04"/>
</g>
<!-- Node26 -->
<g id="node26" class="node">
<title>Node26</title>
<g id="a_node26"><a xlink:href="_t_math_8hpp.html" target="_top" xlink:title=" ">
<polygon fill="none" stroke="black" points="472.5,-252 472.5,-271 576.5,-271 576.5,-252 472.5,-252"/>
<text text-anchor="middle" x="524.5" y="-259" font-family="Helvetica,sans-Serif" font-size="10.00">../../util/TMath.hpp</text>
</a>
</g>
</g>
<!-- Node7&#45;&gt;Node26 -->
<g id="edge32" class="edge">
<title>Node7&#45;&gt;Node26</title>
<path fill="none" stroke="midnightblue" d="M658.4,-313.4C627.99,-301.84 585.42,-285.66 556.5,-274.66"/>
<polygon fill="midnightblue" stroke="midnightblue" points="557.47,-271.29 546.88,-271.01 554.98,-277.83 557.47,-271.29"/>
</g>
<!-- Node27 -->
<g id="node27" class="node">
<title>Node27</title>
<g id="a_node27"><a xlink:title=" ">
<polygon fill="none" stroke="#bfbfbf" points="594.5,-246.5 594.5,-276.5 736.5,-276.5 736.5,-246.5 594.5,-246.5"/>
<text text-anchor="start" x="602.5" y="-264.5" font-family="Helvetica,sans-Serif" font-size="10.00">../../../external/xsimd</text>
<text text-anchor="middle" x="665.5" y="-253.5" font-family="Helvetica,sans-Serif" font-size="10.00">/include/xsimd/xsimd.hpp</text>
</a>
</g>
</g>
<!-- Node7&#45;&gt;Node27 -->
<g id="edge33" class="edge">
<title>Node7&#45;&gt;Node27</title>
<path fill="none" stroke="midnightblue" d="M688.99,-313.4C685.26,-305.3 680.47,-294.94 676.2,-285.69"/>
<polygon fill="midnightblue" stroke="midnightblue" points="679.37,-284.19 672,-276.58 673.01,-287.12 679.37,-284.19"/>
</g>
<!-- Node28 -->
<g id="node28" class="node">
<title>Node28</title>
<g id="a_node28"><a xlink:href="_t_heap_buffer_8hpp.html" target="_top" xlink:title=" ">
<polygon fill="none" stroke="black" points="961,-252 961,-271 1068,-271 1068,-252 961,-252"/>
<text text-anchor="middle" x="1014.5" y="-259" font-family="Helvetica,sans-Serif" font-size="10.00">../THeapBuffer.hpp</text>
</a>
</g>
</g>
<!-- Node7&#45;&gt;Node28 -->
<g id="edge34" class="edge">
<title>Node7&#45;&gt;Node28</title>
<path fill="none" stroke="midnightblue" d="M764.33,-313.48C823.86,-301.34 908.64,-284.07 962.61,-273.07"/>
<polygon fill="midnightblue" stroke="midnightblue" points="963.54,-276.45 972.64,-271.03 962.15,-269.6 963.54,-276.45"/>
</g>
<!-- Node12 -->
<g id="node12" class="node">
<title>Node12</title>
<g id="a_node12"><a xlink:href="_t_memory_pool_8hpp.html" target="_top" xlink:title=" ">
<polygon fill="none" stroke="black" points="378.5,-134.5 378.5,-153.5 488.5,-153.5 488.5,-134.5 378.5,-134.5"/>
<text text-anchor="middle" x="433.5" y="-141.5" font-family="Helvetica,sans-Serif" font-size="10.00">./TMemoryPool.hpp</text>
</a>
</g>
</g>
<!-- Node11&#45;&gt;Node12 -->
<g id="edge12" class="edge">
<title>Node11&#45;&gt;Node12</title>
<path fill="none" stroke="midnightblue" d="M276.23,-251.93C246.14,-239.57 199.89,-215.42 220.5,-190 238.88,-167.34 312.56,-155.64 368.15,-149.93"/>
<polygon fill="midnightblue" stroke="midnightblue" points="368.7,-153.39 378.31,-148.93 368.01,-146.43 368.7,-153.39"/>
</g>
<!-- Node24 -->
<g id="node24" class="node">
<title>Node24</title>
<g id="a_node24"><a xlink:href="_t_memory_pool_std_8hpp.html" target="_top" xlink:title=" ">
<polygon fill="none" stroke="black" points="385.5,-190.5 385.5,-209.5 511.5,-209.5 511.5,-190.5 385.5,-190.5"/>
<text text-anchor="middle" x="448.5" y="-197.5" font-family="Helvetica,sans-Serif" font-size="10.00">./TMemoryPoolStd.hpp</text>
</a>
</g>
</g>
<!-- Node11&#45;&gt;Node24 -->
<g id="edge25" class="edge">
<title>Node11&#45;&gt;Node24</title>
<path fill="none" stroke="midnightblue" d="M320.85,-251.98C346.19,-241.86 388.64,-224.9 417.57,-213.35"/>
<polygon fill="midnightblue" stroke="midnightblue" points="419.2,-216.47 427.19,-209.51 416.61,-209.97 419.2,-216.47"/>
</g>
<!-- Node25 -->
<g id="node25" class="node">
<title>Node25</title>
<g id="a_node25"><a xlink:href="_t_memory_pool_stack_8hpp.html" target="_top" xlink:title=" ">
<polygon fill="none" stroke="black" points="230,-190.5 230,-209.5 367,-209.5 367,-190.5 230,-190.5"/>
<text text-anchor="middle" x="298.5" y="-197.5" font-family="Helvetica,sans-Serif" font-size="10.00">./TMemoryPoolStack.hpp</text>
</a>
</g>
</g>
<!-- Node11&#45;&gt;Node25 -->
<g id="edge29" class="edge">
<title>Node11&#45;&gt;Node25</title>
<path fill="none" stroke="midnightblue" d="M299.36,-251.98C299.22,-243.58 299,-230.48 298.81,-219.66"/>
<polygon fill="midnightblue" stroke="midnightblue" points="302.31,-219.45 298.64,-209.51 295.31,-219.57 302.31,-219.45"/>
</g>
<!-- Node13 -->
<g id="node13" class="node">
<title>Node13</title>
<g id="a_node13"><a xlink:title=" ">
<polygon fill="none" stroke="#bfbfbf" points="345,-67.5 345,-86.5 390,-86.5 390,-67.5 345,-67.5"/>
<text text-anchor="middle" x="367.5" y="-74.5" font-family="Helvetica,sans-Serif" font-size="10.00">utility</text>
</a>
</g>
</g>
<!-- Node12&#45;&gt;Node13 -->
<g id="edge13" class="edge">
<title>Node12&#45;&gt;Node13</title>
<path fill="none" stroke="midnightblue" d="M424.6,-134.23C414.11,-123.9 396.48,-106.54 383.58,-93.83"/>
<polygon fill="midnightblue" stroke="midnightblue" points="385.84,-91.15 376.26,-86.63 380.93,-96.14 385.84,-91.15"/>
</g>
<!-- Node14 -->
<g id="node14" class="node">
<title>Node14</title>
<g id="a_node14"><a xlink:title=" ">
<polygon fill="none" stroke="#bfbfbf" points="408.5,-67.5 408.5,-86.5 458.5,-86.5 458.5,-67.5 408.5,-67.5"/>
<text text-anchor="middle" x="433.5" y="-74.5" font-family="Helvetica,sans-Serif" font-size="10.00">cstdint</text>
</a>
</g>
</g>
<!-- Node12&#45;&gt;Node14 -->
<g id="edge14" class="edge">
<title>Node12&#45;&gt;Node14</title>
<path fill="none" stroke="midnightblue" d="M433.5,-134.23C433.5,-124.68 433.5,-109.12 433.5,-96.78"/>
<polygon fill="midnightblue" stroke="midnightblue" points="437,-96.63 433.5,-86.63 430,-96.63 437,-96.63"/>
</g>
<!-- Node15 -->
<g id="node15" class="node">
<title>Node15</title>
<g id="a_node15"><a xlink:title=" ">
<polygon fill="none" stroke="#bfbfbf" points="145,-67.5 145,-86.5 182,-86.5 182,-67.5 145,-67.5"/>
<text text-anchor="middle" x="163.5" y="-74.5" font-family="Helvetica,sans-Serif" font-size="10.00">new</text>
</a>
</g>
</g>
<!-- Node12&#45;&gt;Node15 -->
<g id="edge15" class="edge">
<title>Node12&#45;&gt;Node15</title>
<path fill="none" stroke="midnightblue" d="M378.19,-139.57C327.82,-134.88 252.26,-123.84 191.5,-98 188.1,-96.55 184.71,-94.64 181.52,-92.56"/>
<polygon fill="midnightblue" stroke="midnightblue" points="183.38,-89.59 173.23,-86.56 179.27,-95.26 183.38,-89.59"/>
</g>
<!-- Node16 -->
<g id="node16" class="node">
<title>Node16</title>
<g id="a_node16"><a xlink:href="_t_memory_util_8hpp.html" target="_top" xlink:title=" ">
<polygon fill="none" stroke="black" points="693,-67.5 693,-86.5 800,-86.5 800,-67.5 693,-67.5"/>
<text text-anchor="middle" x="746.5" y="-74.5" font-family="Helvetica,sans-Serif" font-size="10.00">./TMemoryUtil.hpp</text>
</a>
</g>
</g>
<!-- Node12&#45;&gt;Node16 -->
<g id="edge16" class="edge">
<title>Node12&#45;&gt;Node16</title>
<path fill="none" stroke="midnightblue" d="M474.74,-134.44C531.51,-122.65 633.67,-101.43 695.27,-88.64"/>
<polygon fill="midnightblue" stroke="midnightblue" points="696.09,-92.04 705.17,-86.58 694.66,-85.19 696.09,-92.04"/>
</g>
<!-- Node12&#45;&gt;Node19 -->
<g id="edge19" class="edge">
<title>Node12&#45;&gt;Node19</title>
<path fill="none" stroke="midnightblue" d="M488.73,-140.57C562.69,-136.36 697.59,-125.38 809.5,-98 817.56,-96.03 826.06,-93.18 833.84,-90.26"/>
<polygon fill="midnightblue" stroke="midnightblue" points="835.2,-93.48 843.22,-86.56 832.64,-86.97 835.2,-93.48"/>
</g>
<!-- Node21 -->
<g id="node21" class="node">
<title>Node21</title>
<g id="a_node21"><a xlink:href="_t_spin_lock_8hpp.html" target="_top" xlink:title=" ">
<polygon fill="none" stroke="black" points="200.5,-67.5 200.5,-86.5 326.5,-86.5 326.5,-67.5 200.5,-67.5"/>
<text text-anchor="middle" x="263.5" y="-74.5" font-family="Helvetica,sans-Serif" font-size="10.00">../types/TSpinLock.hpp</text>
</a>
</g>
</g>
<!-- Node12&#45;&gt;Node21 -->
<g id="edge21" class="edge">
<title>Node12&#45;&gt;Node21</title>
<path fill="none" stroke="midnightblue" d="M410.93,-134.37C381.25,-123.02 328.95,-103.02 295.28,-90.15"/>
<polygon fill="midnightblue" stroke="midnightblue" points="296.49,-86.87 285.9,-86.56 293.99,-93.4 296.49,-86.87"/>
</g>
<!-- Node22 -->
<g id="node22" class="node">
<title>Node22</title>
<g id="a_node22"><a xlink:href="_t_lock_guard_8hpp.html" target="_top" xlink:title=" ">
<polygon fill="none" stroke="black" points="325,-0.5 325,-19.5 426,-19.5 426,-0.5 325,-0.5"/>
<text text-anchor="middle" x="375.5" y="-7.5" font-family="Helvetica,sans-Serif" font-size="10.00">./TLockGuard.hpp</text>
</a>
</g>
</g>
<!-- Node12&#45;&gt;Node22 -->
<g id="edge23" class="edge">
<title>Node12&#45;&gt;Node22</title>
<path fill="none" stroke="midnightblue" d="M442.79,-134.39C451.08,-126.02 462.64,-112.48 467.5,-98 473.43,-80.3 477.38,-71.84 467.5,-56 457.74,-40.36 440.8,-30.01 424.1,-23.23"/>
<polygon fill="midnightblue" stroke="midnightblue" points="424.94,-19.81 414.35,-19.64 422.52,-26.38 424.94,-19.81"/>
</g>
<!-- Node23 -->
<g id="node23" class="node">
<title>Node23</title>
<g id="a_node23"><a xlink:title=" ">
<polygon fill="none" stroke="#bfbfbf" points="515,-56.5 515,-97.5 636,-97.5 636,-56.5 515,-56.5"/>
<text text-anchor="start" x="523" y="-85.5" font-family="Helvetica,sans-Serif" font-size="10.00">../../external/xsimd</text>
<text text-anchor="start" x="523" y="-74.5" font-family="Helvetica,sans-Serif" font-size="10.00">/include/xsimd/config</text>
<text text-anchor="middle" x="575.5" y="-63.5" font-family="Helvetica,sans-Serif" font-size="10.00">/xsimd_arch.hpp</text>
</a>
</g>
</g>
<!-- Node12&#45;&gt;Node23 -->
<g id="edge24" class="edge">
<title>Node12&#45;&gt;Node23</title>
<path fill="none" stroke="midnightblue" d="M452.36,-134.37C470.42,-126.1 498.51,-113.24 523.31,-101.89"/>
<polygon fill="midnightblue" stroke="midnightblue" points="524.99,-104.97 532.63,-97.63 522.08,-98.61 524.99,-104.97"/>
</g>
<!-- Node17 -->
<g id="node17" class="node">
<title>Node17</title>
<g id="a_node17"><a xlink:title=" ">
<polygon fill="none" stroke="#bfbfbf" points="1188.5,-0.5 1188.5,-19.5 1238.5,-19.5 1238.5,-0.5 1188.5,-0.5"/>
<text text-anchor="middle" x="1213.5" y="-7.5" font-family="Helvetica,sans-Serif" font-size="10.00">cstring</text>
</a>
</g>
</g>
<!-- Node16&#45;&gt;Node17 -->
<g id="edge17" class="edge">
<title>Node16&#45;&gt;Node17</title>
<path fill="none" stroke="midnightblue" d="M769.54,-67.48C781.34,-63.43 796.03,-58.86 809.5,-56 943.78,-27.5 1107.24,-16.33 1178.02,-12.61"/>
<polygon fill="midnightblue" stroke="midnightblue" points="1178.36,-16.1 1188.17,-12.09 1178,-9.1 1178.36,-16.1"/>
</g>
<!-- Node18 -->
<g id="node18" class="node">
<title>Node18</title>
<g id="a_node18"><a xlink:title=" ">
<polygon fill="none" stroke="#bfbfbf" points="720,-0.5 720,-19.5 773,-19.5 773,-0.5 720,-0.5"/>
<text text-anchor="middle" x="746.5" y="-7.5" font-family="Helvetica,sans-Serif" font-size="10.00">stdlib.h</text>
</a>
</g>
</g>
<!-- Node16&#45;&gt;Node18 -->
<g id="edge18" class="edge">
<title>Node16&#45;&gt;Node18</title>
<path fill="none" stroke="midnightblue" d="M746.5,-67.23C746.5,-57.68 746.5,-42.12 746.5,-29.78"/>
<polygon fill="midnightblue" stroke="midnightblue" points="750,-29.63 746.5,-19.63 743,-29.63 750,-29.63"/>
</g>
<!-- Node20 -->
<g id="node20" class="node">
<title>Node20</title>
<g id="a_node20"><a xlink:title=" ">
<polygon fill="none" stroke="#bfbfbf" points="836.5,-0.5 836.5,-19.5 888.5,-19.5 888.5,-0.5 836.5,-0.5"/>
<text text-anchor="middle" x="862.5" y="-7.5" font-family="Helvetica,sans-Serif" font-size="10.00">cassert</text>
</a>
</g>
</g>
<!-- Node19&#45;&gt;Node20 -->
<g id="edge20" class="edge">
<title>Node19&#45;&gt;Node20</title>
<path fill="none" stroke="midnightblue" d="M862.5,-67.23C862.5,-57.68 862.5,-42.12 862.5,-29.78"/>
<polygon fill="midnightblue" stroke="midnightblue" points="866,-29.63 862.5,-19.63 859,-29.63 866,-29.63"/>
</g>
<!-- Node21&#45;&gt;Node22 -->
<g id="edge22" class="edge">
<title>Node21&#45;&gt;Node22</title>
<path fill="none" stroke="midnightblue" d="M278.6,-67.23C297.41,-56.32 329.75,-37.55 351.86,-24.72"/>
<polygon fill="midnightblue" stroke="midnightblue" points="353.74,-27.67 360.63,-19.63 350.23,-21.62 353.74,-27.67"/>
</g>
<!-- Node24&#45;&gt;Node12 -->
<g id="edge27" class="edge">
<title>Node24&#45;&gt;Node12</title>
<path fill="none" stroke="midnightblue" d="M446.02,-190.08C444.01,-182.85 441.11,-172.41 438.61,-163.4"/>
<polygon fill="midnightblue" stroke="midnightblue" points="441.98,-162.45 435.93,-153.75 435.24,-164.32 441.98,-162.45"/>
</g>
<!-- Node24&#45;&gt;Node18 -->
<g id="edge26" class="edge">
<title>Node24&#45;&gt;Node18</title>
<path fill="none" stroke="midnightblue" d="M470.75,-190.42C508.61,-175.21 587.05,-141.02 644.5,-98 665.13,-82.55 665.1,-72.97 684.5,-56 697.23,-44.86 712.6,-33.69 724.86,-25.26"/>
<polygon fill="midnightblue" stroke="midnightblue" points="726.83,-28.15 733.15,-19.65 722.91,-22.36 726.83,-28.15"/>
</g>
<!-- Node24&#45;&gt;Node19 -->
<g id="edge28" class="edge">
<title>Node24&#45;&gt;Node19</title>
<path fill="none" stroke="midnightblue" d="M511.72,-191.56C581.9,-182.82 690.42,-167.78 729.5,-154 772.39,-138.88 817.32,-110.05 842.43,-92.57"/>
<polygon fill="midnightblue" stroke="midnightblue" points="844.6,-95.32 850.75,-86.69 840.56,-89.61 844.6,-95.32"/>
</g>
<!-- Node25&#45;&gt;Node12 -->
<g id="edge30" class="edge">
<title>Node25&#45;&gt;Node12</title>
<path fill="none" stroke="midnightblue" d="M319.89,-190.44C342.21,-181.52 377.4,-167.44 402.71,-157.32"/>
<polygon fill="midnightblue" stroke="midnightblue" points="404.22,-160.48 412.21,-153.52 401.62,-153.98 404.22,-160.48"/>
</g>
<!-- Node25&#45;&gt;Node19 -->
<g id="edge31" class="edge">
<title>Node25&#45;&gt;Node19</title>
<path fill="none" stroke="midnightblue" d="M358.27,-190.48C454.46,-176.04 649.06,-143.79 809.5,-98 817.13,-95.82 825.21,-93.03 832.7,-90.23"/>
<polygon fill="midnightblue" stroke="midnightblue" points="834.06,-93.46 842.13,-86.59 831.54,-86.93 834.06,-93.46"/>
</g>
<!-- Node28&#45;&gt;Node8 -->
<g id="edge35" class="edge">
<title>Node28&#45;&gt;Node8</title>
<path fill="none" stroke="midnightblue" d="M1002.75,-251.98C989.72,-242.52 968.46,-227.1 952.74,-215.69"/>
<polygon fill="midnightblue" stroke="midnightblue" points="954.38,-212.55 944.23,-209.51 950.27,-218.21 954.38,-212.55"/>
</g>
<!-- Node28&#45;&gt;Node17 -->
<g id="edge37" class="edge">
<title>Node28&#45;&gt;Node17</title>
<path fill="none" stroke="midnightblue" d="M1068.01,-252.29C1114.97,-243.93 1178.26,-229.42 1194.5,-210 1238.26,-157.65 1226.01,-68.35 1217.97,-29.72"/>
<polygon fill="midnightblue" stroke="midnightblue" points="1221.37,-28.84 1215.77,-19.84 1214.53,-30.37 1221.37,-28.84"/>
</g>
<!-- Node29 -->
<g id="node29" class="node">
<title>Node29</title>
<g id="a_node29"><a xlink:title=" ">
<polygon fill="none" stroke="#bfbfbf" points="983,-190.5 983,-209.5 1030,-209.5 1030,-190.5 983,-190.5"/>
<text text-anchor="middle" x="1006.5" y="-197.5" font-family="Helvetica,sans-Serif" font-size="10.00">cmath</text>
</a>
</g>
</g>
<!-- Node28&#45;&gt;Node29 -->
<g id="edge36" class="edge">
<title>Node28&#45;&gt;Node29</title>
<path fill="none" stroke="midnightblue" d="M1013.35,-251.98C1012.23,-243.58 1010.46,-230.48 1009.01,-219.66"/>
<polygon fill="midnightblue" stroke="midnightblue" points="1012.45,-218.95 1007.64,-209.51 1005.51,-219.89 1012.45,-218.95"/>
</g>
<!-- Node30 -->
<g id="node30" class="node">
<title>Node30</title>
<g id="a_node30"><a xlink:href="_t_allocator_8hpp.html" target="_top" xlink:title=" ">
<polygon fill="none" stroke="black" points="1048,-190.5 1048,-209.5 1185,-209.5 1185,-190.5 1048,-190.5"/>
<text text-anchor="middle" x="1116.5" y="-197.5" font-family="Helvetica,sans-Serif" font-size="10.00">../memory/TAllocator.hpp</text>
</a>
</g>
</g>
<!-- Node28&#45;&gt;Node30 -->
<g id="edge38" class="edge">
<title>Node28&#45;&gt;Node30</title>
<path fill="none" stroke="midnightblue" d="M1029.11,-251.98C1045.85,-242.21 1073.5,-226.08 1093.22,-214.58"/>
<polygon fill="midnightblue" stroke="midnightblue" points="1095.04,-217.57 1101.91,-209.51 1091.51,-211.52 1095.04,-217.57"/>
</g>
<!-- Node30&#45;&gt;Node9 -->
<g id="edge41" class="edge">
<title>Node30&#45;&gt;Node9</title>
<path fill="none" stroke="midnightblue" d="M1069.44,-190.44C1008.69,-179.4 904.55,-160.46 851.94,-150.9"/>
<polygon fill="midnightblue" stroke="midnightblue" points="852.3,-147.41 841.84,-149.06 851.05,-154.29 852.3,-147.41"/>
</g>
<!-- Node30&#45;&gt;Node18 -->
<g id="edge42" class="edge">
<title>Node30&#45;&gt;Node18</title>
<path fill="none" stroke="midnightblue" d="M1106.91,-190.15C1079.44,-165.26 997.22,-93.98 916.5,-56 872.88,-35.48 818.39,-23.15 783.03,-16.72"/>
<polygon fill="midnightblue" stroke="midnightblue" points="783.61,-13.26 773.15,-14.98 782.4,-20.16 783.61,-13.26"/>
</g>
<!-- Node30&#45;&gt;Node19 -->
<g id="edge39" class="edge">
<title>Node30&#45;&gt;Node19</title>
<path fill="none" stroke="midnightblue" d="M1087.6,-190.43C1061.64,-182.33 1022.77,-169.17 990.5,-154 951.3,-135.57 908.57,-108.7 883.73,-92.34"/>
<polygon fill="midnightblue" stroke="midnightblue" points="885.4,-89.24 875.13,-86.62 881.52,-95.07 885.4,-89.24"/>
</g>
<!-- Node31 -->
<g id="node31" class="node">
<title>Node31</title>
<g id="a_node31"><a xlink:title=" ">
<polygon fill="none" stroke="#bfbfbf" points="1088.5,-134.5 1088.5,-153.5 1144.5,-153.5 1144.5,-134.5 1088.5,-134.5"/>
<text text-anchor="middle" x="1116.5" y="-141.5" font-family="Helvetica,sans-Serif" font-size="10.00">stddef.h</text>
</a>
</g>
</g>
<!-- Node30&#45;&gt;Node31 -->
<g id="edge40" class="edge">
<title>Node30&#45;&gt;Node31</title>
<path fill="none" stroke="midnightblue" d="M1116.5,-190.08C1116.5,-183.01 1116.5,-172.86 1116.5,-163.99"/>
<polygon fill="midnightblue" stroke="midnightblue" points="1120,-163.75 1116.5,-153.75 1113,-163.75 1120,-163.75"/>
</g>
<!-- Node32&#45;&gt;Node7 -->
<g id="edge45" class="edge">
<title>Node32&#45;&gt;Node7</title>
<path fill="none" stroke="midnightblue" d="M624.8,-380.36C638.09,-370.8 654.04,-359.33 667.43,-349.69"/>
<polygon fill="midnightblue" stroke="midnightblue" points="669.73,-352.35 675.8,-343.67 665.64,-346.67 669.73,-352.35"/>
</g>
<!-- Node33&#45;&gt;Node17 -->
<g id="edge48" class="edge">
<title>Node33&#45;&gt;Node17</title>
<path fill="none" stroke="midnightblue" d="M1078.68,-320.89C1148.01,-309.62 1251.5,-279.62 1251.5,-201 1251.5,-201 1251.5,-201 1251.5,-143 1251.5,-103.84 1250,-93.12 1237.5,-56 1234.25,-46.35 1229.08,-36.29 1224.37,-28.13"/>
<polygon fill="midnightblue" stroke="midnightblue" points="1227.36,-26.32 1219.19,-19.57 1221.37,-29.94 1227.36,-26.32"/>
</g>
<!-- Node33&#45;&gt;Node28 -->
<g id="edge47" class="edge">
<title>Node33&#45;&gt;Node28</title>
<path fill="none" stroke="midnightblue" d="M1016.85,-313.4C1016.41,-303.96 1015.84,-291.45 1015.36,-281.19"/>
<polygon fill="midnightblue" stroke="midnightblue" points="1018.86,-281.02 1014.9,-271.19 1011.87,-281.35 1018.86,-281.02"/>
</g>
<!-- Node34&#45;&gt;Node4 -->
<g id="edge54" class="edge">
<title>Node34&#45;&gt;Node4</title>
<path fill="none" stroke="midnightblue" d="M419.88,-391.36C436.77,-379.57 467.25,-358.29 487.68,-344.03"/>
<polygon fill="midnightblue" stroke="midnightblue" points="489.82,-346.81 496.01,-338.22 485.81,-341.07 489.82,-346.81"/>
</g>
<!-- Node34&#45;&gt;Node9 -->
<g id="edge53" class="edge">
<title>Node34&#45;&gt;Node9</title>
<path fill="none" stroke="midnightblue" d="M407.49,-391.34C407.92,-365.55 412.74,-288.48 453.5,-246 463.41,-235.67 555.89,-194.42 569.5,-190 589.92,-183.37 723.93,-160.79 786.91,-150.36"/>
<polygon fill="midnightblue" stroke="midnightblue" points="787.79,-153.76 797.09,-148.68 786.65,-146.85 787.79,-153.76"/>
</g>
<!-- Node34&#45;&gt;Node15 -->
<g id="edge52" class="edge">
<title>Node34&#45;&gt;Node15</title>
<path fill="none" stroke="midnightblue" d="M378.72,-391.47C339.27,-379.51 270.75,-357.69 248.5,-344 203.92,-316.58 163.5,-314.84 163.5,-262.5 163.5,-262.5 163.5,-262.5 163.5,-199 163.5,-162.71 163.5,-120.31 163.5,-96.56"/>
<polygon fill="midnightblue" stroke="midnightblue" points="167,-96.51 163.5,-86.51 160,-96.51 167,-96.51"/>
</g>
<!-- Node35 -->
<g id="node35" class="node">
<title>Node35</title>
<g id="a_node35"><a xlink:title=" ">
<polygon fill="none" stroke="#bfbfbf" points="258,-319 258,-338 307,-338 307,-319 258,-319"/>
<text text-anchor="middle" x="282.5" y="-326" font-family="Helvetica,sans-Serif" font-size="10.00">cstdlib</text>
</a>
</g>
</g>
<!-- Node34&#45;&gt;Node35 -->
<g id="edge50" class="edge">
<title>Node34&#45;&gt;Node35</title>
<path fill="none" stroke="midnightblue" d="M392.17,-391.36C370.9,-379.36 332.19,-357.53 306.92,-343.27"/>
<polygon fill="midnightblue" stroke="midnightblue" points="308.38,-340.08 297.95,-338.22 304.94,-346.18 308.38,-340.08"/>
</g>
<!-- Node36 -->
<g id="node36" class="node">
<title>Node36</title>
<g id="a_node36"><a xlink:title=" ">
<polygon fill="none" stroke="#bfbfbf" points="325,-319 325,-338 378,-338 378,-319 325,-319"/>
<text text-anchor="middle" x="351.5" y="-326" font-family="Helvetica,sans-Serif" font-size="10.00">cstddef</text>
</a>
</g>
</g>
<!-- Node34&#45;&gt;Node36 -->
<g id="edge51" class="edge">
<title>Node34&#45;&gt;Node36</title>
<path fill="none" stroke="midnightblue" d="M400.63,-391.36C391.73,-380.15 376.02,-360.37 364.76,-346.19"/>
<polygon fill="midnightblue" stroke="midnightblue" points="367.38,-343.87 358.42,-338.22 361.9,-348.22 367.38,-343.87"/>
</g>
</g>
</svg>
        <g id="navigator" transform="translate(0 0)" fill="#404254">
                <rect fill="#f2f5e9" fill-opacity="0.5" stroke="#606060" stroke-width=".5" x="0" y="0" width="60" height="60"/>
                <use id="zoomplus" xlink:href="#zoomPlus" x="17" y="9" onmousedown="handleZoom(evt,'in')"/>
                <use id="zoomminus" xlink:href="#zoomMin" x="42" y="9" onmousedown="handleZoom(evt,'out')"/>
                <use id="reset" xlink:href="#resetDef" x="30" y="36" onmousedown="handleReset()"/>
                <g id="arrowUp" xlink:href="#dirArrow" transform="translate(30 24)" onmousedown="handlePan(0,-1)">
                  <use xlink:href="#rim" fill="#404040">
                        <set attributeName="fill" to="#808080" begin="arrowUp.mouseover" end="arrowUp.mouseout"/>
                  </use>
                  <path fill="none" stroke="white" stroke-width="1.5" d="M0,-3.0v7 M-2.5,-0.5L0,-3.0L2.5,-0.5"/>
                </g>
                <g id="arrowRight" xlink:href="#dirArrow" transform="rotate(90) translate(36 -43)" onmousedown="handlePan(1,0)">
                  <use xlink:href="#rim" fill="#404040">
                        <set attributeName="fill" to="#808080" begin="arrowRight.mouseover" end="arrowRight.mouseout"/>
                  </use>
                  <path fill="none" stroke="white" stroke-width="1.5" d="M0,-3.0v7 M-2.5,-0.5L0,-3.0L2.5,-0.5"/>
                </g>
                <g id="arrowDown" xlink:href="#dirArrow" transform="rotate(180) translate(-30 -48)" onmousedown="handlePan(0,1)">
                  <use xlink:href="#rim" fill="#404040">
                        <set attributeName="fill" to="#808080" begin="arrowDown.mouseover" end="arrowDown.mouseout"/>
                  </use>
                  <path fill="none" stroke="white" stroke-width="1.5" d="M0,-3.0v7 M-2.5,-0.5L0,-3.0L2.5,-0.5"/>
                </g>
                <g id="arrowLeft" xlink:href="#dirArrow" transform="rotate(270) translate(-36 17)" onmousedown="handlePan(-1,0)">
                  <use xlink:href="#rim" fill="#404040">
                        <set attributeName="fill" to="#808080" begin="arrowLeft.mouseover" end="arrowLeft.mouseout"/>
                  </use>
                  <path fill="none" stroke="white" stroke-width="1.5" d="M0,-3.0v7 M-2.5,-0.5L0,-3.0L2.5,-0.5"/>
                </g>
        </g>
        <svg viewBox="0 0 15 15" width="100%" height="30px" preserveAspectRatio="xMaxYMin meet">
         <g id="arrow_out" transform="scale(0.3 0.3)">
          <a xlink:href="vae__voice__pan_8hpp__incl_org.svg" target="_base">
           <rect id="button" ry="5" rx="5" y="6" x="6" height="38" width="38"
                fill="#f2f5e9" fill-opacity="0.5" stroke="#606060" stroke-width="1.0"/>
           <path id="arrow"
             d="M 11.500037,31.436501 C 11.940474,20.09759 22.043105,11.32322 32.158766,21.979434 L 37.068811,17.246167 C 37.068811,17.246167 37.088388,32 37.088388,32 L 22.160133,31.978069 C 22.160133,31.978069 26.997745,27.140456 26.997745,27.140456 C 18.528582,18.264221 13.291696,25.230495 11.500037,31.436501 z"
             style="fill:#404040;"/>
          </a>
         </g>
        </svg>
</svg>
