<?xml version="1.0" encoding="UTF-8" standalone="no"?>
<!DOCTYPE svg PUBLIC "-//W3C//DTD SVG 1.1//EN"
 "http://www.w3.org/Graphics/SVG/1.1/DTD/svg11.dtd">
<!-- Generated by graphviz version 2.50.0 (0)
 -->
<!-- Title: vae_logger.hpp Pages: 1 -->
<svg width="1292pt" height="476pt"
 viewBox="0.00 0.00 1292.00 476.00" xmlns="http://www.w3.org/2000/svg" xmlns:xlink="http://www.w3.org/1999/xlink">
<g id="graph0" class="graph" transform="scale(1 1) rotate(0) translate(4 472)">
<title>vae_logger.hpp</title>
<!-- Node1 -->
<g id="node1" class="node">
<title>Node1</title>
<g id="a_node1"><a xlink:title=" ">
<polygon fill="#bfbfbf" stroke="black" points="209,-448.5 209,-467.5 299,-467.5 299,-448.5 209,-448.5"/>
<text text-anchor="middle" x="254" y="-455.5" font-family="Helvetica,sans-Serif" font-size="10.00">vae_logger.hpp</text>
</a>
</g>
</g>
<!-- Node2 -->
<g id="node2" class="node">
<title>Node2</title>
<g id="a_node2"><a xlink:href="vae__engine_8hpp.html" target="_top" xlink:title=" ">
<polygon fill="none" stroke="black" points="669,-56.5 669,-75.5 763,-75.5 763,-56.5 669,-56.5"/>
<text text-anchor="middle" x="716" y="-63.5" font-family="Helvetica,sans-Serif" font-size="10.00">vae_engine.hpp</text>
</a>
</g>
</g>
<!-- Node1&#45;&gt;Node2 -->
<g id="edge1" class="edge">
<title>Node1&#45;&gt;Node2</title>
<path fill="none" stroke="midnightblue" d="M198.68,-456.47C123.96,-452.49 0,-432.94 0,-347 0,-347 0,-347 0,-177 0,-109.13 509.14,-77.5 668.74,-69.26"/>
<polygon fill="midnightblue" stroke="midnightblue" points="198.73,-459.97 208.88,-456.93 199.05,-452.98 198.73,-459.97"/>
</g>
<!-- Node5 -->
<g id="node5" class="node">
<title>Node5</title>
<g id="a_node5"><a xlink:href="vae__util_8hpp.html" target="_top" xlink:title=" ">
<polygon fill="none" stroke="black" points="469.5,-392.5 469.5,-411.5 546.5,-411.5 546.5,-392.5 469.5,-392.5"/>
<text text-anchor="middle" x="508" y="-399.5" font-family="Helvetica,sans-Serif" font-size="10.00">vae_util.hpp</text>
</a>
</g>
</g>
<!-- Node1&#45;&gt;Node5 -->
<g id="edge4" class="edge">
<title>Node1&#45;&gt;Node5</title>
<path fill="none" stroke="midnightblue" d="M304.21,-446.33C352.66,-436.02 425,-420.65 469.19,-411.25"/>
<polygon fill="midnightblue" stroke="midnightblue" points="303.3,-442.94 294.25,-448.44 304.76,-449.79 303.3,-442.94"/>
</g>
<!-- Node3 -->
<g id="node3" class="node">
<title>Node3</title>
<g id="a_node3"><a xlink:href="main_8cpp.html" target="_top" xlink:title=" ">
<polygon fill="none" stroke="black" points="639,-0.5 639,-19.5 701,-19.5 701,-0.5 639,-0.5"/>
<text text-anchor="middle" x="670" y="-7.5" font-family="Helvetica,sans-Serif" font-size="10.00">main.cpp</text>
</a>
</g>
</g>
<!-- Node2&#45;&gt;Node3 -->
<g id="edge2" class="edge">
<title>Node2&#45;&gt;Node3</title>
<path fill="none" stroke="midnightblue" d="M701.89,-48.43C693.82,-38.97 684.04,-27.48 677.45,-19.75"/>
<polygon fill="midnightblue" stroke="midnightblue" points="699.25,-50.74 708.4,-56.08 704.58,-46.2 699.25,-50.74"/>
</g>
<!-- Node4 -->
<g id="node4" class="node">
<title>Node4</title>
<g id="a_node4"><a xlink:href="vae__pimpl_8cpp.html" target="_top" xlink:title=" ">
<polygon fill="none" stroke="black" points="719,-0.5 719,-19.5 807,-19.5 807,-0.5 719,-0.5"/>
<text text-anchor="middle" x="763" y="-7.5" font-family="Helvetica,sans-Serif" font-size="10.00">vae_pimpl.cpp</text>
</a>
</g>
</g>
<!-- Node2&#45;&gt;Node4 -->
<g id="edge3" class="edge">
<title>Node2&#45;&gt;Node4</title>
<path fill="none" stroke="midnightblue" d="M730.42,-48.43C738.66,-38.97 748.65,-27.48 755.38,-19.75"/>
<polygon fill="midnightblue" stroke="midnightblue" points="727.69,-46.24 723.76,-56.08 732.97,-50.84 727.69,-46.24"/>
</g>
<!-- Node5&#45;&gt;Node2 -->
<g id="edge25" class="edge">
<title>Node5&#45;&gt;Node2</title>
<path fill="none" stroke="midnightblue" d="M556.79,-399.4C683.01,-394.94 1017.95,-381.05 1126,-356 1199.97,-338.85 1284,-366.93 1284,-291 1284,-291 1284,-291 1284,-177 1284,-71.28 899.96,-65.05 763.45,-66.17"/>
<polygon fill="midnightblue" stroke="midnightblue" points="556.52,-395.91 546.65,-399.75 556.76,-402.9 556.52,-395.91"/>
</g>
<!-- Node6 -->
<g id="node6" class="node">
<title>Node6</title>
<g id="a_node6"><a xlink:href="vae__bank__loader_8hpp.html" target="_top" xlink:title=" ">
<polygon fill="none" stroke="black" points="57.5,-280.5 57.5,-299.5 176.5,-299.5 176.5,-280.5 57.5,-280.5"/>
<text text-anchor="middle" x="117" y="-287.5" font-family="Helvetica,sans-Serif" font-size="10.00">vae_bank_loader.hpp</text>
</a>
</g>
</g>
<!-- Node5&#45;&gt;Node6 -->
<g id="edge5" class="edge">
<title>Node5&#45;&gt;Node6</title>
<path fill="none" stroke="midnightblue" d="M459,-399.75C347.74,-396.39 83.6,-385.39 57,-356 38.55,-335.62 75.24,-311.96 98.97,-299.57"/>
<polygon fill="midnightblue" stroke="midnightblue" points="459.18,-403.25 469.28,-400.05 459.38,-396.26 459.18,-403.25"/>
</g>
<!-- Node7 -->
<g id="node7" class="node">
<title>Node7</title>
<g id="a_node7"><a xlink:href="vae__bank__manager_8hpp.html" target="_top" xlink:title=" ">
<polygon fill="none" stroke="black" points="195,-224.5 195,-243.5 327,-243.5 327,-224.5 195,-224.5"/>
<text text-anchor="middle" x="261" y="-231.5" font-family="Helvetica,sans-Serif" font-size="10.00">vae_bank_manager.hpp</text>
</a>
</g>
</g>
<!-- Node5&#45;&gt;Node7 -->
<g id="edge12" class="edge">
<title>Node5&#45;&gt;Node7</title>
<path fill="none" stroke="midnightblue" d="M459.51,-392.46C433.68,-385.94 402.66,-374.78 380,-356 349.95,-331.09 363.38,-307.81 336,-280 320.13,-263.88 297.32,-251.28 281.04,-243.56"/>
<polygon fill="midnightblue" stroke="midnightblue" points="458.95,-395.92 469.49,-394.81 460.56,-389.11 458.95,-395.92"/>
</g>
<!-- Node8 -->
<g id="node8" class="node">
<title>Node8</title>
<g id="a_node8"><a xlink:href="vae__spatial__manager_8hpp.html" target="_top" xlink:title=" ">
<polygon fill="none" stroke="black" points="262.5,-168.5 262.5,-187.5 403.5,-187.5 403.5,-168.5 262.5,-168.5"/>
<text text-anchor="middle" x="333" y="-175.5" font-family="Helvetica,sans-Serif" font-size="10.00">vae_spatial_manager.hpp</text>
</a>
</g>
</g>
<!-- Node5&#45;&gt;Node8 -->
<g id="edge36" class="edge">
<title>Node5&#45;&gt;Node8</title>
<path fill="none" stroke="midnightblue" d="M470.4,-388.7C452.75,-381.42 432.47,-370.71 418,-356 366.83,-304.01 341.81,-215.25 334.98,-187.53"/>
<polygon fill="midnightblue" stroke="midnightblue" points="469.29,-392.02 479.88,-392.39 471.83,-385.5 469.29,-392.02"/>
</g>
<!-- Node9 -->
<g id="node9" class="node">
<title>Node9</title>
<g id="a_node9"><a xlink:href="vae__spatial__processor_8hpp.html" target="_top" xlink:title=" ">
<polygon fill="none" stroke="black" points="529.5,-112.5 529.5,-131.5 674.5,-131.5 674.5,-112.5 529.5,-112.5"/>
<text text-anchor="middle" x="602" y="-119.5" font-family="Helvetica,sans-Serif" font-size="10.00">vae_spatial_processor.hpp</text>
</a>
</g>
</g>
<!-- Node5&#45;&gt;Node9 -->
<g id="edge37" class="edge">
<title>Node5&#45;&gt;Node9</title>
<path fill="none" stroke="midnightblue" d="M488.48,-385.85C465.96,-366.5 432,-330.72 432,-291 432,-291 432,-291 432,-233 432,-202.9 429.77,-189.34 451,-168 471.74,-147.15 501.69,-135.88 529.45,-129.81"/>
<polygon fill="midnightblue" stroke="midnightblue" points="486.52,-388.76 496.46,-392.43 490.98,-383.37 486.52,-388.76"/>
</g>
<!-- Node10 -->
<g id="node10" class="node">
<title>Node10</title>
<g id="a_node10"><a xlink:href="vae__device_8hpp.html" target="_top" xlink:title=" ">
<polygon fill="none" stroke="black" points="985.5,-336.5 985.5,-355.5 1078.5,-355.5 1078.5,-336.5 985.5,-336.5"/>
<text text-anchor="middle" x="1032" y="-343.5" font-family="Helvetica,sans-Serif" font-size="10.00">vae_device.hpp</text>
</a>
</g>
</g>
<!-- Node5&#45;&gt;Node10 -->
<g id="edge13" class="edge">
<title>Node5&#45;&gt;Node10</title>
<path fill="none" stroke="midnightblue" d="M556.71,-395.98C657.22,-385.62 886.48,-362 985.28,-351.81"/>
<polygon fill="midnightblue" stroke="midnightblue" points="556.12,-392.52 546.53,-397.03 556.84,-399.49 556.12,-392.52"/>
</g>
<!-- Node13 -->
<g id="node13" class="node">
<title>Node13</title>
<g id="a_node13"><a xlink:href="vae__portaudio_8hpp.html" target="_top" xlink:title=" ">
<polygon fill="none" stroke="black" points="882.5,-280.5 882.5,-299.5 989.5,-299.5 989.5,-280.5 882.5,-280.5"/>
<text text-anchor="middle" x="936" y="-287.5" font-family="Helvetica,sans-Serif" font-size="10.00">vae_portaudio.hpp</text>
</a>
</g>
</g>
<!-- Node5&#45;&gt;Node13 -->
<g id="edge30" class="edge">
<title>Node5&#45;&gt;Node13</title>
<path fill="none" stroke="midnightblue" d="M556.88,-398.8C642.54,-394.31 815.82,-382.22 870,-356 897.22,-342.83 920.05,-313.95 930.26,-299.53"/>
<polygon fill="midnightblue" stroke="midnightblue" points="556.44,-395.32 546.63,-399.32 556.8,-402.31 556.44,-395.32"/>
</g>
<!-- Node14 -->
<g id="node14" class="node">
<title>Node14</title>
<g id="a_node14"><a xlink:href="vae__rtaudio_8hpp.html" target="_top" xlink:title=" ">
<polygon fill="none" stroke="black" points="1160.5,-280.5 1160.5,-299.5 1255.5,-299.5 1255.5,-280.5 1160.5,-280.5"/>
<text text-anchor="middle" x="1208" y="-287.5" font-family="Helvetica,sans-Serif" font-size="10.00">vae_rtaudio.hpp</text>
</a>
</g>
</g>
<!-- Node5&#45;&gt;Node14 -->
<g id="edge33" class="edge">
<title>Node5&#45;&gt;Node14</title>
<path fill="none" stroke="midnightblue" d="M556.88,-399.82C677.92,-396.48 988.93,-385.23 1088,-356 1130.72,-343.39 1175.41,-314.25 1196.14,-299.65"/>
<polygon fill="midnightblue" stroke="midnightblue" points="556.69,-396.32 546.79,-400.09 556.88,-403.32 556.69,-396.32"/>
</g>
<!-- Node15 -->
<g id="node15" class="node">
<title>Node15</title>
<g id="a_node15"><a xlink:href="vae__effects__list_8hpp.html" target="_top" xlink:title=" ">
<polygon fill="none" stroke="black" points="212.5,-336.5 212.5,-355.5 327.5,-355.5 327.5,-336.5 212.5,-336.5"/>
<text text-anchor="middle" x="270" y="-343.5" font-family="Helvetica,sans-Serif" font-size="10.00">vae_effects_list.hpp</text>
</a>
</g>
</g>
<!-- Node5&#45;&gt;Node15 -->
<g id="edge19" class="edge">
<title>Node5&#45;&gt;Node15</title>
<path fill="none" stroke="midnightblue" d="M460.48,-390.22C415.5,-380.01 348.9,-364.9 307.54,-355.52"/>
<polygon fill="midnightblue" stroke="midnightblue" points="459.76,-393.64 470.29,-392.44 461.31,-386.82 459.76,-393.64"/>
</g>
<!-- Node17 -->
<g id="node17" class="node">
<title>Node17</title>
<g id="a_node17"><a xlink:href="vae__effects__processor_8hpp.html" target="_top" xlink:title=" ">
<polygon fill="none" stroke="black" points="682,-336.5 682,-355.5 828,-355.5 828,-336.5 682,-336.5"/>
<text text-anchor="middle" x="755" y="-343.5" font-family="Helvetica,sans-Serif" font-size="10.00">vae_effects_processor.hpp</text>
</a>
</g>
</g>
<!-- Node5&#45;&gt;Node17 -->
<g id="edge22" class="edge">
<title>Node5&#45;&gt;Node17</title>
<path fill="none" stroke="midnightblue" d="M556.46,-390.4C603.08,-380.21 672.66,-365 715.86,-355.56"/>
<polygon fill="midnightblue" stroke="midnightblue" points="555.62,-387.01 546.59,-392.56 557.11,-393.85 555.62,-387.01"/>
</g>
<!-- Node19 -->
<g id="node19" class="node">
<title>Node19</title>
<g id="a_node19"><a xlink:href="vae__hrtf__loader_8hpp.html" target="_top" xlink:title=" ">
<polygon fill="none" stroke="black" points="460.5,-168.5 460.5,-187.5 573.5,-187.5 573.5,-168.5 460.5,-168.5"/>
<text text-anchor="middle" x="517" y="-175.5" font-family="Helvetica,sans-Serif" font-size="10.00">vae_hrtf_loader.hpp</text>
</a>
</g>
</g>
<!-- Node5&#45;&gt;Node19 -->
<g id="edge26" class="edge">
<title>Node5&#45;&gt;Node19</title>
<path fill="none" stroke="midnightblue" d="M501.57,-382.81C491.07,-350.29 472.9,-280.33 489,-224 492.99,-210.02 502.72,-196.16 509.59,-187.59"/>
<polygon fill="midnightblue" stroke="midnightblue" points="498.27,-383.97 504.78,-392.33 504.91,-381.73 498.27,-383.97"/>
</g>
<!-- Node20 -->
<g id="node20" class="node">
<title>Node20</title>
<g id="a_node20"><a xlink:href="vae__hrtf__util_8hpp.html" target="_top" xlink:title=" ">
<polygon fill="none" stroke="black" points="498.5,-224.5 498.5,-243.5 597.5,-243.5 597.5,-224.5 498.5,-224.5"/>
<text text-anchor="middle" x="548" y="-231.5" font-family="Helvetica,sans-Serif" font-size="10.00">vae_hrtf_util.hpp</text>
</a>
</g>
</g>
<!-- Node5&#45;&gt;Node20 -->
<g id="edge28" class="edge">
<title>Node5&#45;&gt;Node20</title>
<path fill="none" stroke="midnightblue" d="M512.6,-381.93C521.27,-345.92 539.75,-269.23 545.94,-243.57"/>
<polygon fill="midnightblue" stroke="midnightblue" points="509.09,-381.53 510.15,-392.08 515.9,-383.17 509.09,-381.53"/>
</g>
<!-- Node21 -->
<g id="node21" class="node">
<title>Node21</title>
<g id="a_node21"><a xlink:href="vae__processor_8hpp.html" target="_top" xlink:title=" ">
<polygon fill="none" stroke="black" points="902.5,-168.5 902.5,-187.5 1009.5,-187.5 1009.5,-168.5 902.5,-168.5"/>
<text text-anchor="middle" x="956" y="-175.5" font-family="Helvetica,sans-Serif" font-size="10.00">vae_processor.hpp</text>
</a>
</g>
</g>
<!-- Node5&#45;&gt;Node21 -->
<g id="edge31" class="edge">
<title>Node5&#45;&gt;Node21</title>
<path fill="none" stroke="midnightblue" d="M557.18,-399.85C637.75,-397.07 793.32,-387.64 837,-356 867.43,-333.96 853.81,-311.68 874,-280 897.43,-243.24 932.14,-204.5 947.8,-187.66"/>
<polygon fill="midnightblue" stroke="midnightblue" points="556.67,-396.36 546.79,-400.19 556.9,-403.36 556.67,-396.36"/>
</g>
<!-- Node22 -->
<g id="node22" class="node">
<title>Node22</title>
<g id="a_node22"><a xlink:href="vae__source__loader_8hpp.html" target="_top" xlink:title=" ">
<polygon fill="none" stroke="black" points="66,-336.5 66,-355.5 194,-355.5 194,-336.5 66,-336.5"/>
<text text-anchor="middle" x="130" y="-343.5" font-family="Helvetica,sans-Serif" font-size="10.00">vae_source_loader.hpp</text>
</a>
</g>
</g>
<!-- Node5&#45;&gt;Node22 -->
<g id="edge34" class="edge">
<title>Node5&#45;&gt;Node22</title>
<path fill="none" stroke="midnightblue" d="M459.16,-394.02C390.11,-384.16 264.11,-366.16 189.63,-355.52"/>
<polygon fill="midnightblue" stroke="midnightblue" points="458.93,-397.53 469.32,-395.47 459.92,-390.6 458.93,-397.53"/>
</g>
<!-- Node23 -->
<g id="node23" class="node">
<title>Node23</title>
<g id="a_node23"><a xlink:href="vae__spcap_8hpp.html" target="_top" xlink:title=" ">
<polygon fill="none" stroke="black" points="536.5,-336.5 536.5,-355.5 625.5,-355.5 625.5,-336.5 536.5,-336.5"/>
<text text-anchor="middle" x="581" y="-343.5" font-family="Helvetica,sans-Serif" font-size="10.00">vae_spcap.hpp</text>
</a>
</g>
</g>
<!-- Node5&#45;&gt;Node23 -->
<g id="edge38" class="edge">
<title>Node5&#45;&gt;Node23</title>
<path fill="none" stroke="midnightblue" d="M528.14,-386.1C541.28,-376.38 557.98,-364.03 569.06,-355.83"/>
<polygon fill="midnightblue" stroke="midnightblue" points="525.69,-383.56 519.73,-392.32 529.85,-389.19 525.69,-383.56"/>
</g>
<!-- Node24 -->
<g id="node24" class="node">
<title>Node24</title>
<g id="a_node24"><a xlink:href="vae__voice__manager_8hpp.html" target="_top" xlink:title="Holds all voices and starts/stops them.">
<polygon fill="none" stroke="black" points="654,-224.5 654,-243.5 788,-243.5 788,-224.5 654,-224.5"/>
<text text-anchor="middle" x="721" y="-231.5" font-family="Helvetica,sans-Serif" font-size="10.00">vae_voice_manager.hpp</text>
</a>
</g>
</g>
<!-- Node5&#45;&gt;Node24 -->
<g id="edge40" class="edge">
<title>Node5&#45;&gt;Node24</title>
<path fill="none" stroke="midnightblue" d="M556.71,-390.96C581.6,-384.09 611.33,-373.07 634,-356 676.38,-324.1 706.67,-265.7 717.06,-243.7"/>
<polygon fill="midnightblue" stroke="midnightblue" points="555.53,-387.65 546.73,-393.56 557.29,-394.42 555.53,-387.65"/>
</g>
<!-- Node6&#45;&gt;Node7 -->
<g id="edge6" class="edge">
<title>Node6&#45;&gt;Node7</title>
<path fill="none" stroke="midnightblue" d="M149.25,-276.91C176.32,-266.75 214.32,-252.51 238.29,-243.52"/>
<polygon fill="midnightblue" stroke="midnightblue" points="147.95,-273.66 139.82,-280.44 150.41,-280.21 147.95,-273.66"/>
</g>
<!-- Node7&#45;&gt;Node2 -->
<g id="edge7" class="edge">
<title>Node7&#45;&gt;Node2</title>
<path fill="none" stroke="midnightblue" d="M252.5,-215.23C247.09,-201.05 242.82,-181.41 253,-168 303.13,-101.99 561.19,-77.32 668.8,-69.81"/>
<polygon fill="midnightblue" stroke="midnightblue" points="249.29,-216.62 256.45,-224.42 255.72,-213.85 249.29,-216.62"/>
</g>
<!-- Node7&#45;&gt;Node8 -->
<g id="edge8" class="edge">
<title>Node7&#45;&gt;Node8</title>
<path fill="none" stroke="midnightblue" d="M280.87,-218.1C293.82,-208.38 310.3,-196.03 321.22,-187.83"/>
<polygon fill="midnightblue" stroke="midnightblue" points="278.47,-215.52 272.57,-224.32 282.67,-221.12 278.47,-215.52"/>
</g>
<!-- Node8&#45;&gt;Node2 -->
<g id="edge9" class="edge">
<title>Node8&#45;&gt;Node2</title>
<path fill="none" stroke="midnightblue" d="M364.91,-164.72C401.86,-150.77 464.75,-127.89 520,-112 572.01,-97.04 632.89,-83.7 672.83,-75.5"/>
<polygon fill="midnightblue" stroke="midnightblue" points="363.31,-161.58 355.2,-168.4 365.79,-168.12 363.31,-161.58"/>
</g>
<!-- Node8&#45;&gt;Node9 -->
<g id="edge10" class="edge">
<title>Node8&#45;&gt;Node9</title>
<path fill="none" stroke="midnightblue" d="M385.44,-166.47C436.28,-156.27 512.44,-140.98 559.58,-131.52"/>
<polygon fill="midnightblue" stroke="midnightblue" points="384.74,-163.04 375.62,-168.44 386.12,-169.91 384.74,-163.04"/>
</g>
<!-- Node9&#45;&gt;Node2 -->
<g id="edge11" class="edge">
<title>Node9&#45;&gt;Node2</title>
<path fill="none" stroke="midnightblue" d="M629.24,-108.1C650.54,-98.01 679.54,-84.27 698.02,-75.52"/>
<polygon fill="midnightblue" stroke="midnightblue" points="627.6,-105 620.06,-112.44 630.6,-111.33 627.6,-105"/>
</g>
<!-- Node11 -->
<g id="node11" class="node">
<title>Node11</title>
<g id="a_node11"><a xlink:href="vae__device__dummy_8hpp.html" target="_top" xlink:title=" ">
<polygon fill="none" stroke="black" points="1008,-280.5 1008,-299.5 1142,-299.5 1142,-280.5 1008,-280.5"/>
<text text-anchor="middle" x="1075" y="-287.5" font-family="Helvetica,sans-Serif" font-size="10.00">vae_device_dummy.hpp</text>
</a>
</g>
</g>
<!-- Node10&#45;&gt;Node11 -->
<g id="edge14" class="edge">
<title>Node10&#45;&gt;Node11</title>
<path fill="none" stroke="midnightblue" d="M1045.42,-328.14C1052.91,-318.74 1061.94,-307.4 1068.03,-299.75"/>
<polygon fill="midnightblue" stroke="midnightblue" points="1042.59,-326.08 1039.1,-336.08 1048.07,-330.44 1042.59,-326.08"/>
</g>
<!-- Node10&#45;&gt;Node13 -->
<g id="edge17" class="edge">
<title>Node10&#45;&gt;Node13</title>
<path fill="none" stroke="midnightblue" d="M1007.43,-331.18C989.76,-321.24 966.49,-308.15 951.39,-299.65"/>
<polygon fill="midnightblue" stroke="midnightblue" points="1006.14,-334.47 1016.58,-336.32 1009.58,-328.37 1006.14,-334.47"/>
</g>
<!-- Node10&#45;&gt;Node14 -->
<g id="edge18" class="edge">
<title>Node10&#45;&gt;Node14</title>
<path fill="none" stroke="midnightblue" d="M1069.69,-333.44C1102.87,-323.26 1150.43,-308.66 1180.24,-299.52"/>
<polygon fill="midnightblue" stroke="midnightblue" points="1068.42,-330.16 1059.89,-336.44 1070.47,-336.86 1068.42,-330.16"/>
</g>
<!-- Node12 -->
<g id="node12" class="node">
<title>Node12</title>
<g id="a_node12"><a xlink:href="vae__default__backend_8hpp.html" target="_top" xlink:title=" ">
<polygon fill="none" stroke="black" points="963,-112.5 963,-131.5 1105,-131.5 1105,-112.5 963,-112.5"/>
<text text-anchor="middle" x="1034" y="-119.5" font-family="Helvetica,sans-Serif" font-size="10.00">vae_default_backend.hpp</text>
</a>
</g>
</g>
<!-- Node11&#45;&gt;Node12 -->
<g id="edge15" class="edge">
<title>Node11&#45;&gt;Node12</title>
<path fill="none" stroke="midnightblue" d="M1070.29,-269.93C1061.4,-233.92 1042.45,-157.23 1036.12,-131.57"/>
<polygon fill="midnightblue" stroke="midnightblue" points="1067,-271.21 1072.8,-280.08 1073.8,-269.53 1067,-271.21"/>
</g>
<!-- Node12&#45;&gt;Node2 -->
<g id="edge16" class="edge">
<title>Node12&#45;&gt;Node2</title>
<path fill="none" stroke="midnightblue" d="M973.7,-110.76C912.49,-100.37 818.99,-84.49 763.04,-74.99"/>
<polygon fill="midnightblue" stroke="midnightblue" points="973.17,-114.22 983.61,-112.44 974.34,-107.32 973.17,-114.22"/>
</g>
<!-- Node16 -->
<g id="node16" class="node">
<title>Node16</title>
<g id="a_node16"><a xlink:href="vae__effects__factory_8hpp.html" target="_top" xlink:title=" ">
<polygon fill="none" stroke="black" points="194.5,-280.5 194.5,-299.5 327.5,-299.5 327.5,-280.5 194.5,-280.5"/>
<text text-anchor="middle" x="261" y="-287.5" font-family="Helvetica,sans-Serif" font-size="10.00">vae_effects_factory.hpp</text>
</a>
</g>
</g>
<!-- Node15&#45;&gt;Node16 -->
<g id="edge20" class="edge">
<title>Node15&#45;&gt;Node16</title>
<path fill="none" stroke="midnightblue" d="M266.85,-326.1C265.36,-317.14 263.64,-306.86 262.46,-299.75"/>
<polygon fill="midnightblue" stroke="midnightblue" points="263.42,-326.79 268.51,-336.08 270.32,-325.64 263.42,-326.79"/>
</g>
<!-- Node16&#45;&gt;Node7 -->
<g id="edge21" class="edge">
<title>Node16&#45;&gt;Node7</title>
<path fill="none" stroke="midnightblue" d="M261,-269.8C261,-260.91 261,-250.78 261,-243.75"/>
<polygon fill="midnightblue" stroke="midnightblue" points="257.5,-270.08 261,-280.08 264.5,-270.08 257.5,-270.08"/>
</g>
<!-- Node18 -->
<g id="node18" class="node">
<title>Node18</title>
<g id="a_node18"><a xlink:href="vae__mixer__processor_8hpp.html" target="_top" xlink:title=" ">
<polygon fill="none" stroke="black" points="744,-168.5 744,-187.5 884,-187.5 884,-168.5 744,-168.5"/>
<text text-anchor="middle" x="814" y="-175.5" font-family="Helvetica,sans-Serif" font-size="10.00">vae_mixer_processor.hpp</text>
</a>
</g>
</g>
<!-- Node17&#45;&gt;Node18 -->
<g id="edge23" class="edge">
<title>Node17&#45;&gt;Node18</title>
<path fill="none" stroke="midnightblue" d="M763.32,-327.12C772.4,-307.15 786.98,-273.73 797,-244 803.7,-224.1 809.38,-200.05 812.17,-187.52"/>
<polygon fill="midnightblue" stroke="midnightblue" points="760.12,-325.69 759.13,-336.24 766.48,-328.62 760.12,-325.69"/>
</g>
<!-- Node18&#45;&gt;Node2 -->
<g id="edge24" class="edge">
<title>Node18&#45;&gt;Node2</title>
<path fill="none" stroke="midnightblue" d="M799.65,-160.9C778.59,-137.25 740.01,-93.95 723.65,-75.59"/>
<polygon fill="midnightblue" stroke="midnightblue" points="797.04,-163.23 806.31,-168.37 802.27,-158.57 797.04,-163.23"/>
</g>
<!-- Node19&#45;&gt;Node9 -->
<g id="edge27" class="edge">
<title>Node19&#45;&gt;Node9</title>
<path fill="none" stroke="midnightblue" d="M539.19,-162.9C554.78,-153 575.13,-140.07 588.38,-131.65"/>
<polygon fill="midnightblue" stroke="midnightblue" points="537.22,-160.01 530.66,-168.32 540.97,-165.92 537.22,-160.01"/>
</g>
<!-- Node20&#45;&gt;Node9 -->
<g id="edge29" class="edge">
<title>Node20&#45;&gt;Node9</title>
<path fill="none" stroke="midnightblue" d="M562.53,-216.68C569.2,-208.52 576.77,-198.22 582,-188 591.68,-169.08 597.63,-144.63 600.32,-131.78"/>
<polygon fill="midnightblue" stroke="midnightblue" points="559.84,-214.43 556.04,-224.32 565.18,-218.97 559.84,-214.43"/>
</g>
<!-- Node21&#45;&gt;Node2 -->
<g id="edge32" class="edge">
<title>Node21&#45;&gt;Node2</title>
<path fill="none" stroke="midnightblue" d="M927.99,-164.16C878.47,-141.47 776.72,-94.83 734.74,-75.59"/>
<polygon fill="midnightblue" stroke="midnightblue" points="926.62,-167.38 937.17,-168.37 929.54,-161.02 926.62,-167.38"/>
</g>
<!-- Node22&#45;&gt;Node6 -->
<g id="edge35" class="edge">
<title>Node22&#45;&gt;Node6</title>
<path fill="none" stroke="midnightblue" d="M125.45,-326.1C123.29,-317.14 120.82,-306.86 119.11,-299.75"/>
<polygon fill="midnightblue" stroke="midnightblue" points="122.11,-327.18 127.85,-336.08 128.92,-325.54 122.11,-327.18"/>
</g>
<!-- Node23&#45;&gt;Node9 -->
<g id="edge39" class="edge">
<title>Node23&#45;&gt;Node9</title>
<path fill="none" stroke="midnightblue" d="M586.92,-326.83C593.1,-306.8 602.4,-273.5 606,-244 611.11,-202.06 605.73,-151.39 603.18,-131.55"/>
<polygon fill="midnightblue" stroke="midnightblue" points="583.54,-325.89 583.86,-336.49 590.21,-328.01 583.54,-325.89"/>
</g>
<!-- Node24&#45;&gt;Node2 -->
<g id="edge41" class="edge">
<title>Node24&#45;&gt;Node2</title>
<path fill="none" stroke="midnightblue" d="M720.43,-213.93C719.34,-177.92 717.03,-101.23 716.26,-75.57"/>
<polygon fill="midnightblue" stroke="midnightblue" points="716.93,-214.19 720.73,-224.08 723.93,-213.97 716.93,-214.19"/>
</g>
<!-- Node24&#45;&gt;Node8 -->
<g id="edge44" class="edge">
<title>Node24&#45;&gt;Node8</title>
<path fill="none" stroke="midnightblue" d="M649.45,-223.04C576.17,-212.84 463.46,-197.16 394.19,-187.52"/>
<polygon fill="midnightblue" stroke="midnightblue" points="649.13,-226.53 659.52,-224.44 650.1,-219.6 649.13,-226.53"/>
</g>
<!-- Node24&#45;&gt;Node9 -->
<g id="edge45" class="edge">
<title>Node24&#45;&gt;Node9</title>
<path fill="none" stroke="midnightblue" d="M705.02,-216.99C691.6,-203.67 671.81,-184.32 654,-168 639.92,-155.09 623.13,-140.74 612.51,-131.79"/>
<polygon fill="midnightblue" stroke="midnightblue" points="702.92,-219.85 712.48,-224.43 707.86,-214.89 702.92,-219.85"/>
</g>
<!-- Node24&#45;&gt;Node18 -->
<g id="edge42" class="edge">
<title>Node24&#45;&gt;Node18</title>
<path fill="none" stroke="midnightblue" d="M744.81,-219.18C761.92,-209.24 784.47,-196.15 799.1,-187.65"/>
<polygon fill="midnightblue" stroke="midnightblue" points="742.83,-216.28 735.94,-224.32 746.35,-222.33 742.83,-216.28"/>
</g>
<!-- Node24&#45;&gt;Node21 -->
<g id="edge43" class="edge">
<title>Node24&#45;&gt;Node21</title>
<path fill="none" stroke="midnightblue" d="M768.21,-222.15C812.61,-211.95 878.19,-196.88 918.94,-187.52"/>
<polygon fill="midnightblue" stroke="midnightblue" points="767.2,-218.79 758.24,-224.44 768.77,-225.62 767.2,-218.79"/>
</g>
</g>
</svg>
