<?xml version="1.0" encoding="UTF-8" standalone="no"?>
<!DOCTYPE svg PUBLIC "-//W3C//DTD SVG 1.1//EN"
 "http://www.w3.org/Graphics/SVG/1.1/DTD/svg11.dtd">
<!-- Generated by graphviz version 2.50.0 (0)
 -->
<!-- Title: vae_util.hpp Pages: 1 -->
<svg width="741pt" height="162pt"
 viewBox="0.00 0.00 740.50 162.00" xmlns="http://www.w3.org/2000/svg" xmlns:xlink="http://www.w3.org/1999/xlink">
<g id="graph0" class="graph" transform="scale(1 1) rotate(0) translate(4 158)">
<title>vae_util.hpp</title>
<!-- Node1 -->
<g id="node1" class="node">
<title>Node1</title>
<g id="a_node1"><a xlink:title=" ">
<polygon fill="#bfbfbf" stroke="black" points="308,-134.5 308,-153.5 385,-153.5 385,-134.5 308,-134.5"/>
<text text-anchor="middle" x="346.5" y="-141.5" font-family="Helvetica,sans-Serif" font-size="10.00">vae_util.hpp</text>
</a>
</g>
</g>
<!-- Node2 -->
<g id="node2" class="node">
<title>Node2</title>
<g id="a_node2"><a xlink:href="vae__profiler_8hpp.html" target="_top" xlink:title=" ">
<polygon fill="none" stroke="black" points="0,-6 0,-25 149,-25 149,-6 0,-6"/>
<text text-anchor="middle" x="74.5" y="-13" font-family="Helvetica,sans-Serif" font-size="10.00">../wrapped/vae_profiler.hpp</text>
</a>
</g>
</g>
<!-- Node1&#45;&gt;Node2 -->
<g id="edge1" class="edge">
<title>Node1&#45;&gt;Node2</title>
<path fill="none" stroke="midnightblue" d="M327.8,-134.31C280.82,-112.45 157.59,-55.14 102.18,-29.37"/>
<polygon fill="midnightblue" stroke="midnightblue" points="103.51,-26.13 92.97,-25.09 100.56,-32.48 103.51,-26.13"/>
</g>
<!-- Node3 -->
<g id="node3" class="node">
<title>Node3</title>
<g id="a_node3"><a xlink:href="_t_assert_8h.html" target="_top" xlink:title=" ">
<polygon fill="none" stroke="black" points="412.5,-67.5 412.5,-97.5 512.5,-97.5 512.5,-67.5 412.5,-67.5"/>
<text text-anchor="start" x="420.5" y="-85.5" font-family="Helvetica,sans-Serif" font-size="10.00">../../external/tklb</text>
<text text-anchor="middle" x="462.5" y="-74.5" font-family="Helvetica,sans-Serif" font-size="10.00">/src/util/TAssert.h</text>
</a>
</g>
</g>
<!-- Node1&#45;&gt;Node3 -->
<g id="edge2" class="edge">
<title>Node1&#45;&gt;Node3</title>
<path fill="none" stroke="midnightblue" d="M363.12,-134.48C379.49,-126.08 405.04,-112.97 426.13,-102.15"/>
<polygon fill="midnightblue" stroke="midnightblue" points="427.86,-105.2 435.16,-97.52 424.67,-98.97 427.86,-105.2"/>
</g>
<!-- Node5 -->
<g id="node5" class="node">
<title>Node5</title>
<g id="a_node5"><a xlink:href="_t_math_8hpp.html" target="_top" xlink:title=" ">
<polygon fill="none" stroke="black" points="531,-67.5 531,-97.5 638,-97.5 638,-67.5 531,-67.5"/>
<text text-anchor="start" x="539" y="-85.5" font-family="Helvetica,sans-Serif" font-size="10.00">../../external/tklb</text>
<text text-anchor="middle" x="584.5" y="-74.5" font-family="Helvetica,sans-Serif" font-size="10.00">/src/util/TMath.hpp</text>
</a>
</g>
</g>
<!-- Node1&#45;&gt;Node5 -->
<g id="edge4" class="edge">
<title>Node1&#45;&gt;Node5</title>
<path fill="none" stroke="midnightblue" d="M380.6,-134.48C417.05,-125.36 475.66,-110.71 520.71,-99.45"/>
<polygon fill="midnightblue" stroke="midnightblue" points="521.83,-102.77 530.69,-96.95 520.14,-95.98 521.83,-102.77"/>
</g>
<!-- Node6 -->
<g id="node6" class="node">
<title>Node6</title>
<g id="a_node6"><a xlink:href="vae__logger_8hpp.html" target="_top" xlink:title=" ">
<polygon fill="none" stroke="black" points="298.5,-73 298.5,-92 394.5,-92 394.5,-73 298.5,-73"/>
<text text-anchor="middle" x="346.5" y="-80" font-family="Helvetica,sans-Serif" font-size="10.00">./vae_logger.hpp</text>
</a>
</g>
</g>
<!-- Node1&#45;&gt;Node6 -->
<g id="edge5" class="edge">
<title>Node1&#45;&gt;Node6</title>
<path fill="none" stroke="midnightblue" d="M346.5,-134.48C346.5,-126.08 346.5,-112.98 346.5,-102.16"/>
<polygon fill="midnightblue" stroke="midnightblue" points="350,-102.01 346.5,-92.01 343,-102.01 350,-102.01"/>
</g>
<!-- Node7 -->
<g id="node7" class="node">
<title>Node7</title>
<g id="a_node7"><a xlink:href="vae_8hpp.html" target="_top" xlink:title="Contains all public API types for VAE.">
<polygon fill="none" stroke="black" points="167,-6 167,-25 300,-25 300,-6 167,-6"/>
<text text-anchor="middle" x="233.5" y="-13" font-family="Helvetica,sans-Serif" font-size="10.00">../../include/vae/vae.hpp</text>
</a>
</g>
</g>
<!-- Node1&#45;&gt;Node7 -->
<g id="edge12" class="edge">
<title>Node1&#45;&gt;Node7</title>
<path fill="none" stroke="midnightblue" d="M333.35,-134.34C321.17,-125.93 302.94,-112.36 289.5,-98 270.87,-78.09 253.8,-51.51 243.53,-34.21"/>
<polygon fill="midnightblue" stroke="midnightblue" points="246.35,-32.1 238.3,-25.21 240.3,-35.61 246.35,-32.1"/>
</g>
<!-- Node4 -->
<g id="node4" class="node">
<title>Node4</title>
<g id="a_node4"><a xlink:title=" ">
<polygon fill="none" stroke="#bfbfbf" points="680.5,-6 680.5,-25 732.5,-25 732.5,-6 680.5,-6"/>
<text text-anchor="middle" x="706.5" y="-13" font-family="Helvetica,sans-Serif" font-size="10.00">cassert</text>
</a>
</g>
</g>
<!-- Node3&#45;&gt;Node4 -->
<g id="edge3" class="edge">
<title>Node3&#45;&gt;Node4</title>
<path fill="none" stroke="midnightblue" d="M512.59,-69.39C515.94,-68.58 519.27,-67.78 522.5,-67 588.72,-51 606.72,-52.1 671.5,-31 673.63,-30.3 675.82,-29.54 678.01,-28.73"/>
<polygon fill="midnightblue" stroke="midnightblue" points="679.42,-31.94 687.45,-25.02 676.86,-25.42 679.42,-31.94"/>
</g>
<!-- Node6&#45;&gt;Node2 -->
<g id="edge8" class="edge">
<title>Node6&#45;&gt;Node2</title>
<path fill="none" stroke="midnightblue" d="M310.66,-72.94C261.74,-61.24 174.01,-40.28 120.35,-27.46"/>
<polygon fill="midnightblue" stroke="midnightblue" points="120.96,-24 110.42,-25.08 119.33,-30.81 120.96,-24"/>
</g>
<!-- Node6&#45;&gt;Node7 -->
<g id="edge6" class="edge">
<title>Node6&#45;&gt;Node7</title>
<path fill="none" stroke="midnightblue" d="M331.26,-72.73C312.28,-61.82 279.65,-43.05 257.35,-30.22"/>
<polygon fill="midnightblue" stroke="midnightblue" points="258.91,-27.08 248.5,-25.13 255.42,-33.15 258.91,-27.08"/>
</g>
<!-- Node8 -->
<g id="node8" class="node">
<title>Node8</title>
<g id="a_node8"><a xlink:title=" ">
<polygon fill="none" stroke="#bfbfbf" points="612.5,-6 612.5,-25 662.5,-25 662.5,-6 612.5,-6"/>
<text text-anchor="middle" x="637.5" y="-13" font-family="Helvetica,sans-Serif" font-size="10.00">stdio.h</text>
</a>
</g>
</g>
<!-- Node6&#45;&gt;Node8 -->
<g id="edge7" class="edge">
<title>Node6&#45;&gt;Node8</title>
<path fill="none" stroke="midnightblue" d="M378.36,-72.97C386.53,-70.9 395.32,-68.77 403.5,-67 491.76,-47.85 516.97,-56.88 603.5,-31 605.65,-30.36 607.84,-29.62 610.03,-28.83"/>
<polygon fill="midnightblue" stroke="midnightblue" points="611.42,-32.04 619.43,-25.1 608.84,-25.53 611.42,-32.04"/>
</g>
<!-- Node9 -->
<g id="node9" class="node">
<title>Node9</title>
<g id="a_node9"><a xlink:title=" ">
<polygon fill="none" stroke="#bfbfbf" points="318.5,-6 318.5,-25 374.5,-25 374.5,-6 318.5,-6"/>
<text text-anchor="middle" x="346.5" y="-13" font-family="Helvetica,sans-Serif" font-size="10.00">stdarg.h</text>
</a>
</g>
</g>
<!-- Node6&#45;&gt;Node9 -->
<g id="edge9" class="edge">
<title>Node6&#45;&gt;Node9</title>
<path fill="none" stroke="midnightblue" d="M346.5,-72.73C346.5,-63.18 346.5,-47.62 346.5,-35.28"/>
<polygon fill="midnightblue" stroke="midnightblue" points="350,-35.13 346.5,-25.13 343,-35.13 350,-35.13"/>
</g>
<!-- Node10 -->
<g id="node10" class="node">
<title>Node10</title>
<g id="a_node10"><a xlink:title=" ">
<polygon fill="none" stroke="#bfbfbf" points="392.5,-6 392.5,-25 442.5,-25 442.5,-6 392.5,-6"/>
<text text-anchor="middle" x="417.5" y="-13" font-family="Helvetica,sans-Serif" font-size="10.00">cstring</text>
</a>
</g>
</g>
<!-- Node6&#45;&gt;Node10 -->
<g id="edge10" class="edge">
<title>Node6&#45;&gt;Node10</title>
<path fill="none" stroke="midnightblue" d="M356.08,-72.73C367.47,-62.31 386.69,-44.71 400.6,-31.97"/>
<polygon fill="midnightblue" stroke="midnightblue" points="403.06,-34.46 408.08,-25.13 398.34,-29.3 403.06,-34.46"/>
</g>
<!-- Node11 -->
<g id="node11" class="node">
<title>Node11</title>
<g id="a_node11"><a xlink:title=" ">
<polygon fill="none" stroke="#bfbfbf" points="461,-0.5 461,-30.5 594,-30.5 594,-0.5 461,-0.5"/>
<text text-anchor="start" x="469" y="-18.5" font-family="Helvetica,sans-Serif" font-size="10.00">../../external/headeronly</text>
<text text-anchor="middle" x="527.5" y="-7.5" font-family="Helvetica,sans-Serif" font-size="10.00">/stb_sprintf.h</text>
</a>
</g>
</g>
<!-- Node6&#45;&gt;Node11 -->
<g id="edge11" class="edge">
<title>Node6&#45;&gt;Node11</title>
<path fill="none" stroke="midnightblue" d="M370.54,-72.87C398.05,-62.99 443.82,-46.55 478.86,-33.97"/>
<polygon fill="midnightblue" stroke="midnightblue" points="480.21,-37.2 488.44,-30.53 477.84,-30.61 480.21,-37.2"/>
</g>
</g>
</svg>
